<svg xmlns="http://www.w3.org/2000/svg" viewBox="0 0 50 50"><g id="e8ae922c-d35f-4f6c-a7fa-20c570b3f4fe" data-name="ICONS"><path d="M45.77,29.59h-.12L44.42,12.08a.49.49,0,0,0-.5-.46H37.31a.5.5,0,0,0-.5.46L35.58,29.59H32.7V22.28a.51.51,0,0,0-.24-.44.52.52,0,0,0-.5,0L18.5,29.24v-7a.51.51,0,0,0-.24-.44.52.52,0,0,0-.5,0L3.67,29.59a.51.51,0,0,0-.43.5V48.86a.5.5,0,0,0,.5.5h42a.5.5,0,0,0,.5-.5V30.09A.5.5,0,0,0,45.77,29.59Zm-41.53.83,13.26-7.3v7a.51.51,0,0,0,.75.43l13.45-7.4v7a.51.51,0,0,0,.5.5H45.27V48.36H36.55V40a.5.5,0,0,0-.5-.5H30.46a.5.5,0,0,0-.5.5v8.36H4.24Zm39.22-17.8,1.19,17H36.59l1.18-17ZM35.55,48.36H31V40.5h4.59Z"/><path d="M14.15,33.62H9.83a.5.5,0,0,0-.5.5v4.31a.5.5,0,0,0,.5.5h4.32a.5.5,0,0,0,.5-.5V34.12A.5.5,0,0,0,14.15,33.62Zm-.5,4.31H10.33V34.62h3.32Z"/><path d="M22,33.62H17.68a.5.5,0,0,0-.5.5v4.31a.5.5,0,0,0,.5.5H22a.5.5,0,0,0,.5-.5V34.12A.5.5,0,0,0,22,33.62Zm-.5,4.31H18.18V34.62H21.5Z"/><path d="M14.15,41.07H9.83a.5.5,0,0,0-.5.5v4.31a.5.5,0,0,0,.5.5h4.32a.5.5,0,0,0,.5-.5V41.57A.5.5,0,0,0,14.15,41.07Zm-.5,4.31H10.33V42.07h3.32Z"/><path d="M22,41.07H17.68a.5.5,0,0,0-.5.5v4.31a.5.5,0,0,0,.5.5H22a.5.5,0,0,0,.5-.5V41.57A.5.5,0,0,0,22,41.07Zm-.5,4.31H18.18V42.07H21.5Z"/><path d="M28.11,5.68a3,3,0,0,0,.73-.08,4.1,4.1,0,0,0,3.91,2.2A4.72,4.72,0,0,0,35.9,6.68a3.67,3.67,0,0,0,2.16,1v.17a2.53,2.53,0,1,0,5,0,2.89,2.89,0,0,0-1.17-2.38A2.67,2.67,0,0,0,42,4.7a3.28,3.28,0,0,0-3.5-3,3.75,3.75,0,0,0-2.62,1A5.14,5.14,0,0,0,31,1.91,3.06,3.06,0,0,0,28.11.14,3,3,0,0,0,25,2.91,3,3,0,0,0,28.11,5.68Zm0-4.54a2,2,0,0,1,2.06,1.53.5.5,0,0,0,.27.36.45.45,0,0,0,.45,0,4.11,4.11,0,0,1,1.86-.43,3.46,3.46,0,0,1,2.76,1.18.57.57,0,0,0,.41.21.53.53,0,0,0,.41-.22,2.63,2.63,0,0,1,2.19-1,2.29,2.29,0,0,1,2.5,2,1.62,1.62,0,0,1-.18.74.53.53,0,0,0,0,.39.55.55,0,0,0,.27.29,1.84,1.84,0,0,1,1,1.71,1.54,1.54,0,1,1-3,0,2.15,2.15,0,0,1,.07-.53.49.49,0,0,0-.1-.44.47.47,0,0,0-.38-.19h0l-.11,0a2.66,2.66,0,0,1-2.19-1.05.48.48,0,0,0-.41-.22.56.56,0,0,0-.41.2A3.43,3.43,0,0,1,32.75,6.8c-1.57,0-2.92-.83-3.07-1.9a.49.49,0,0,0-.25-.36.47.47,0,0,0-.43,0,2.31,2.31,0,0,1-.89.17A2,2,0,0,1,26,2.91,2,2,0,0,1,28.11,1.14Z"/></g><g id="e77c4846-ed3d-493f-973c-094882b662af" data-name="LABELS"><text transform="translate(0.31 54.92)" font-size="6" font-family="Roboto-Regular, Roboto">manufactu<tspan x="28.9" y="0" letter-spacing="-0.01em">r</tspan><tspan x="30.87" y="0">e-building</tspan></text></g></svg>