<svg id="f3af3d9f-7636-4229-9977-a3d61bf5ebe6" data-name="ICONS" xmlns="http://www.w3.org/2000/svg" viewBox="0 0 50 50"><path d="M48.42,19.23H45.11a.51.51,0,0,0-.5.5v3H31v-3a.5.5,0,0,0-.5-.5H28.85V15.4a.49.49,0,0,0-.44-.48V12.14H29a.5.5,0,0,0,.5-.5.5.5,0,0,0-.5-.5h-.68a3.77,3.77,0,0,0-3.08-3.4V5.82h3.26a.5.5,0,0,0,.5-.5V3a.5.5,0,0,0-.5-.5H24.75a.5.5,0,0,0-.5.5V7.74a3.77,3.77,0,0,0-3.08,3.4h-.68a.5.5,0,0,0-.5.5.5.5,0,0,0,.5.5h.6v2.78a.49.49,0,0,0-.44.48v3.83H19a.5.5,0,0,0-.5.5v3H4.89v-3a.51.51,0,0,0-.5-.5H1.08a.51.51,0,0,0-.5.5V46.52a.5.5,0,0,0,.5.5H48.42a.5.5,0,0,0,.5-.5V19.73A.51.51,0,0,0,48.42,19.23Zm-.5,1V27.4H45.61V20.23Zm-3.31,3.51V27.9a.5.5,0,0,0,.5.5h2.81v1.08H36.57L31,26.55V23.74ZM22.09,12.14h5.32V14.9H22.09Zm-.44,3.76h6.2v3.33h-6.2Zm-.5,4.33H30V26l-5-2.6a.47.47,0,0,0-.46,0l-5,2.6V20.23Zm11.41,9.25H15.08l9.67-5.06,9.67,5.06Zm-18.5,1h2V46h-2Zm3,0h2.53V46H17.06Zm3.53,0h2V46h-2Zm3,0h2.28V46H23.59Zm3.28,0h2V46h-2Zm3,0h2.19V46H29.87Zm3.19,0h2V46h-2Zm-7.81-27H28V4.82H25.25V3.48Zm-.5,5.21a2.71,2.71,0,0,1,2.58,2.41H22.17A2.71,2.71,0,0,1,24.75,8.69ZM18.54,23.74v2.81l-5.61,2.93H1.58V28.4H4.39a.5.5,0,0,0,.5-.5V23.74ZM3.89,20.23V27.4H1.58V20.23ZM1.58,30.48H13.06V46H1.58ZM47.92,46H36.06V30.48H47.92Z"/><path d="M9.56,32.23H5.44a.5.5,0,0,0-.5.5v4.13a.5.5,0,0,0,.5.5H9.56a.5.5,0,0,0,.5-.5V32.73A.5.5,0,0,0,9.56,32.23Zm-.5,4.13H5.94V33.23H9.06Z"/><path d="M9.56,39.15H5.44a.5.5,0,0,0-.5.5v4.12a.5.5,0,0,0,.5.5H9.56a.5.5,0,0,0,.5-.5V39.65A.5.5,0,0,0,9.56,39.15Zm-.5,4.12H5.94V40.15H9.06Z"/><path d="M40.12,37.36h4.13a.5.5,0,0,0,.5-.5V32.73a.5.5,0,0,0-.5-.5H40.12a.51.51,0,0,0-.5.5v4.13A.51.51,0,0,0,40.12,37.36Zm.5-4.13h3.13v3.13H40.62Z"/><path d="M40.12,44.27h4.13a.5.5,0,0,0,.5-.5V39.65a.5.5,0,0,0-.5-.5H40.12a.5.5,0,0,0-.5.5v4.12A.5.5,0,0,0,40.12,44.27Zm.5-4.12h3.13v3.12H40.62Z"/></svg>