<svg xmlns="http://www.w3.org/2000/svg" viewBox="0 0 50 50"><g id="e188a40c-4f0f-4410-a189-2846618fa4b1" data-name="ICONS"><path d="M11.06,9.43A2.91,2.91,0,1,0,8.15,6.52,2.92,2.92,0,0,0,11.06,9.43Zm0-4.82A1.91,1.91,0,1,1,9.15,6.52,1.91,1.91,0,0,1,11.06,4.61Z"/><path d="M42.67,41.38a3.1,3.1,0,1,0,3.1,3.1A3.1,3.1,0,0,0,42.67,41.38Zm0,5.2a2.1,2.1,0,1,1,2.1-2.1A2.1,2.1,0,0,1,42.67,46.58Z"/><path d="M5,41.93A3.29,3.29,0,1,0,8.3,45.22,3.3,3.3,0,0,0,5,41.93ZM5,47.5A2.29,2.29,0,1,1,7.3,45.22,2.29,2.29,0,0,1,5,47.5Z"/><path d="M45,1.5a3.29,3.29,0,1,0,3.29,3.28A3.29,3.29,0,0,0,45,1.5Zm0,5.57a2.29,2.29,0,1,1,2.29-2.29A2.29,2.29,0,0,1,45,7.07Z"/><path d="M44.27,29.75a3.42,3.42,0,0,0-.4-.36,3.85,3.85,0,0,0,1.06-2.64V24.27a3.88,3.88,0,0,0-2.53-3.61A3.46,3.46,0,0,0,43,17.61l-.87-3a3.48,3.48,0,0,0-4.05-2.46,3.85,3.85,0,0,0-.77-3.66L35.64,6.57a3.84,3.84,0,0,0-5.42-.37l-.62.53a3.85,3.85,0,0,0-1.31,2.64,3.79,3.79,0,0,0,.94,2.79L30.86,14a3.72,3.72,0,0,0,2.79,1.38l.18,0a3.46,3.46,0,0,0,.09,1.5L34.79,20a3.48,3.48,0,0,0,1.67,2.09,3.19,3.19,0,0,0,.48.19,3.43,3.43,0,0,0-.52,2v2.48A3.84,3.84,0,0,0,38.17,30a3.85,3.85,0,0,0-.32,5.37l1.64,1.88a3.83,3.83,0,0,0,5.42.37l.62-.54a3.84,3.84,0,0,0,.37-5.42ZM31.62,13.38,30,11.5a2.84,2.84,0,0,1,.28-4L30.87,7a2.85,2.85,0,0,1,4,.28L36.52,9.1a2.82,2.82,0,0,1,.41,3.12.43.43,0,0,0,0,.19l-.57.16a3.5,3.5,0,0,0-2.1,1.67.76.76,0,0,0,0,.11A2.57,2.57,0,0,1,31.62,13.38Zm4.14,6.3-.88-3.05a2.49,2.49,0,0,1,.06-1.55.42.42,0,0,0,.12-.28s0-.05,0-.07a2.48,2.48,0,0,1,1.49-1.2L38,13.12a2.4,2.4,0,0,1,.69-.1,2.52,2.52,0,0,1,2.41,1.81L42,17.89a2.43,2.43,0,0,1-.22,1.9A2.46,2.46,0,0,1,40.3,21l-1.45.42A2.49,2.49,0,0,1,35.76,19.68Zm1.66,7.07V24.27A2.27,2.27,0,0,1,38,22.48h.12a3.47,3.47,0,0,0,1-.13l1.46-.42h0a3.41,3.41,0,0,0,1-.47,2.86,2.86,0,0,1,2.37,2.8v2.48a2.86,2.86,0,0,1-2.85,2.85h-.82A2.85,2.85,0,0,1,37.42,26.75Zm7.45,9.55-.61.54a2.85,2.85,0,0,1-4-.28l-1.63-1.87a2.87,2.87,0,0,1,.26-4l.31-.25a3.87,3.87,0,0,0,1.08.17h.82a3.84,3.84,0,0,0,2-.58,2.59,2.59,0,0,1,.42.39l1.64,1.87A2.85,2.85,0,0,1,44.87,36.3Z"/><path d="M18.47,39.18A3.44,3.44,0,0,0,16.07,38a3.1,3.1,0,0,0-.61,0,2,2,0,0,0,.18-.39,3.8,3.8,0,0,0-.18-2.94l-1.1-2.23a3.43,3.43,0,0,0-1.76-1.95,3.33,3.33,0,0,0,.25-1.09L13,26.23a3.51,3.51,0,0,0-3.34-3.66L8.14,22.5a3.52,3.52,0,0,0-3.65,3.34L4.34,29a3.5,3.5,0,0,0,2.54,3.51,3.89,3.89,0,0,0-.16,3.66l1.1,2.24a3.85,3.85,0,0,0,3.46,2.14,4.57,4.57,0,0,0,.52,0,3.42,3.42,0,0,0-.6,1.71,3.52,3.52,0,0,0,.85,2.54l2.09,2.39a3.42,3.42,0,0,0,2.4,1.19h.25a3.47,3.47,0,0,0,2.29-.86l1.14-1h0a3.52,3.52,0,0,0,.34-4.94ZM5.34,29.06l.15-3.17A2.51,2.51,0,0,1,8,23.5H8.1l1.51.07A2.5,2.5,0,0,1,12,26.18l-.14,3.18A2.47,2.47,0,0,1,11,31.09a2.43,2.43,0,0,1-1.79.65l-1.51-.07a2.51,2.51,0,0,1-2.39-2.61ZM8.72,38l-1.1-2.24A2.85,2.85,0,0,1,8,32.69l1.2.05h.16a3.58,3.58,0,0,0,2.36-.92,4.09,4.09,0,0,0,.39-.44c.6.18.93.61,1.36,1.49l1.1,2.23a2.87,2.87,0,0,1,.14,2.17,2.81,2.81,0,0,1-1.44,1.64l-.73.36A2.85,2.85,0,0,1,8.72,38Zm10.84,7.77-1.14,1a2.44,2.44,0,0,1-1.81.61,2.52,2.52,0,0,1-1.72-.85l-2.09-2.4a2.52,2.52,0,0,1,.25-3.53l1.14-1A2.44,2.44,0,0,1,15.82,39H16a2.48,2.48,0,0,1,1.71.85l2.09,2.4A2.5,2.5,0,0,1,19.56,45.76Z"/><path d="M7.82,17.43a2.58,2.58,0,1,0-2.58-2.58A2.59,2.59,0,0,0,7.82,17.43Zm0-4.16a1.58,1.58,0,1,1-1.58,1.58A1.58,1.58,0,0,1,7.82,13.27Z"/><path d="M17.18,23.87a2.64,2.64,0,1,0-2.64-2.64A2.64,2.64,0,0,0,17.18,23.87Zm0-4.28a1.64,1.64,0,1,1-1.64,1.64A1.64,1.64,0,0,1,17.18,19.59Z"/><path d="M19.81,16.81a4,4,0,1,0-4-4A4,4,0,0,0,19.81,16.81Zm0-7a3,3,0,1,1-3,3A3,3,0,0,1,19.81,9.76Z"/><path d="M29.1,18.24a2.65,2.65,0,1,0-2.64,2.64A2.65,2.65,0,0,0,29.1,18.24Zm-2.64,1.64a1.64,1.64,0,1,1,1.64-1.64A1.64,1.64,0,0,1,26.46,19.88Z"/><path d="M29.66,32.63a2.53,2.53,0,0,0,.77.12,2.71,2.71,0,0,0,1.24-.31A2.66,2.66,0,0,0,33,30.88a2.61,2.61,0,0,0-.2-2,2.64,2.64,0,1,0-4.66,2.47A2.6,2.6,0,0,0,29.66,32.63Zm0-4a1.65,1.65,0,0,1,.77-.19,1.63,1.63,0,0,1,1.45.88A1.6,1.6,0,0,1,32,30.59a1.65,1.65,0,0,1-3,.29A1.66,1.66,0,0,1,29.66,28.65Z"/><path d="M33.24,35a4,4,0,0,0-3.06.29,4,4,0,0,0-1.67,5.44,4,4,0,0,0,2.37,2,4,4,0,0,0,4.74-5.73A4,4,0,0,0,33.24,35Zm.24,6.52a3.06,3.06,0,0,1-2.3.22,3,3,0,0,1-1.79-1.48,3,3,0,0,1,2.67-4.44,3,3,0,0,1,1.42,5.7Z"/><path d="M22.4,34.76a2.64,2.64,0,1,0,2.48,4.67A2.65,2.65,0,0,0,26,35.86,2.64,2.64,0,0,0,22.4,34.76Zm2.81,2.81a1.61,1.61,0,0,1-.8,1,1.64,1.64,0,1,1,.8-1Z"/></g><g id="a90689f3-ccba-416d-af21-646cce1fbb4c" data-name="LABELS"><text transform="translate(-0.07 54.97)" font-size="6" font-family="Roboto-Regular, Roboto">bacteria</text></g></svg>