<svg xmlns="http://www.w3.org/2000/svg" viewBox="0 0 50 50"><g id="fcd95380-4981-474f-a1a7-20180d24bdd2" data-name="ICONS"><path d="M35.83,25.62l1.09.4c-.73-.31-1.46-.58-2.2-.82Z" fill="none"/><path d="M41.05,28.16c4.83-7.51,4.67-17.73-.55-25.89A3.63,3.63,0,0,0,38.24.48a2.93,2.93,0,0,0-2.32.31,3.25,3.25,0,0,0-1.24,3.39,22,22,0,0,1-.36,12.5A19.53,19.53,0,0,1,33.38,19c-2.86-2.7-7.54-3.25-13.21-1.54A17.44,17.44,0,0,0,10.42,25c-.22.4-.31.61-.32.62a1.23,1.23,0,0,0,.5,1.57,1.14,1.14,0,0,0,.59.16,1.17,1.17,0,0,0,.73-.25,25.08,25.08,0,0,1,14.74-3.86,22.23,22.23,0,0,1,2.57.3A21.23,21.23,0,0,1,8.41,30.41a2.36,2.36,0,0,0-2.53,1l0,.05a2,2,0,0,0-.39,1.19,2.38,2.38,0,0,0,.92,2c.25.21.52.42.79.61A24,24,0,0,0,21.4,39.93a24.22,24.22,0,0,0,12.51-3.49,25.32,25.32,0,0,1-7.38,10.21A1.25,1.25,0,0,0,26,47.91a1.24,1.24,0,0,0,1.23,1h.13s.22,0,.67-.11h0a17.9,17.9,0,0,0,10.26-6.88c4.81-6.67,4.23-11,2.89-13.5C41.14,28.3,41.09,28.23,41.05,28.16ZM35.26,17a23.08,23.08,0,0,0,.4-13,2.24,2.24,0,0,1,.8-2.32A1.94,1.94,0,0,1,38,1.45a2.58,2.58,0,0,1,1.64,1.31s0,0,0,0c4.93,7.7,5.19,17.31.79,24.47a10.15,10.15,0,0,0-4.27-3.07,10,10,0,0,0-2-4.47A22.27,22.27,0,0,0,35.26,17Zm-8.55,5.28a26.08,26.08,0,0,0-15.36,4,.25.25,0,0,1-.26,0,.24.24,0,0,1-.07-.3s.09-.19.28-.55a16.72,16.72,0,0,1,9.16-7.13c5.45-1.65,9.86-1.13,12.43,1.47a8.76,8.76,0,0,1,2.28,4.42A24.89,24.89,0,0,0,26.71,22.28ZM6.86,33.45a1.06,1.06,0,0,1-.4-.65v-.08a.92.92,0,0,1,0-.16,1.33,1.33,0,0,1,.12-.42c0-.06.08-.11.11-.17a1.05,1.05,0,0,1,.61-.35h.15a1,1,0,0,1,.6.2,1.06,1.06,0,0,1,.41.66,1,1,0,0,1-.19.76,1,1,0,0,1-.66.4A1,1,0,0,1,6.86,33.45Zm1.07,1.13a2,2,0,0,0,.91-.48,26.64,26.64,0,0,0,3.87,1,26.27,26.27,0,0,0,4.68.42,28.18,28.18,0,0,0,9.33-1.63.48.48,0,0,0,.3-.63.5.5,0,0,0-.63-.31,26.37,26.37,0,0,1-13.5,1.17,25.58,25.58,0,0,1-3.51-.93,2,2,0,0,0,.07-.9,2,2,0,0,0-.27-.75A22.18,22.18,0,0,0,30.33,23.8a24.4,24.4,0,0,1,5.06,1.67l0,0a24.31,24.31,0,0,1-.68,8.38c-.1.36-.22.7-.33,1A23.18,23.18,0,0,1,7.93,34.58ZM37.48,41.3a16.86,16.86,0,0,1-9.63,6.48h0l-.6.1a.27.27,0,0,1-.28-.17c0-.08,0-.17.16-.26a26.12,26.12,0,0,0,8.6-13.31,25.34,25.34,0,0,0,.73-8.73,8.24,8.24,0,0,1,3.84,3.44C42,32.05,41.05,36.35,37.48,41.3Z"/></g><g id="a271e3a6-d729-4b7e-bd05-f3f99f3ba86b" data-name="LABELS"><text transform="translate(-0.19 55.02)" font-size="6" font-family="Roboto-Regular, Roboto">banana</text></g></svg>