<svg xmlns="http://www.w3.org/2000/svg" viewBox="0 0 50 50"><g id="ba1338e2-406f-4b44-a235-26954285daba" data-name="ICONS"><path d="M44.54,30.27,39,24.76l5-5A10.07,10.07,0,1,0,29.82,5.49l-5,5-4.61-4.6A10.07,10.07,0,0,0,6,20.16l4.6,4.6L5.46,29.84A10.07,10.07,0,1,0,19.7,44.08L24.79,39l5.51,5.52A10.07,10.07,0,0,0,44.54,30.27ZM6.17,43.37a9.08,9.08,0,0,1,0-12.82l5.17-5.17L24.16,38.21,19,43.37A9.07,9.07,0,0,1,6.17,43.37ZM43.34,6.2a9.07,9.07,0,0,1,0,12.82l-5,5L25.49,11.23l5-5a9.08,9.08,0,0,1,12.82,0ZM24.81,37.45,12.07,24.7,24.81,12,37.55,24.7Zm-18.15-18A9.07,9.07,0,0,1,19.48,6.63l4.6,4.6L11.26,24.05ZM43.83,43.8A9.07,9.07,0,0,1,31,43.8l-5.52-5.51L38.31,25.46,43.83,31A9.08,9.08,0,0,1,43.83,43.8Z"/><path d="M29,22.52a1.4,1.4,0,0,0,0-2,1.38,1.38,0,0,0-2,0,1.39,1.39,0,0,0,2,2Z" fill="none"/><circle cx="17.66" cy="24.14" r="1.39" fill="none"/><circle cx="31.94" cy="25.55" r="1.39" fill="none"/><path d="M21.86,21.84a1.4,1.4,0,0,0,0-2,1.38,1.38,0,0,0-2,0,1.39,1.39,0,0,0,2,2Z" fill="none"/><path d="M27.73,27.85a1.39,1.39,0,0,0,2,2,1.39,1.39,0,0,0-2-2Z" fill="none"/><circle cx="24.1" cy="17.56" r="1.39" fill="none"/><path d="M26.49,33.11a1.4,1.4,0,0,0,0-2,1.39,1.39,0,0,0-2,2A1.4,1.4,0,0,0,26.49,33.11Z" fill="none"/><circle cx="21.62" cy="28.11" r="1.39" fill="none"/><path d="M25.82,25.8a1.39,1.39,0,1,0-2,0A1.39,1.39,0,0,0,25.82,25.8Z" fill="none"/><circle cx="24.1" cy="17.56" r="1.39"/><path d="M29,22.52a1.4,1.4,0,0,0,0-2,1.38,1.38,0,0,0-2,0,1.39,1.39,0,0,0,2,2Z"/><circle cx="31.94" cy="25.55" r="1.39"/><path d="M21.86,21.84a1.4,1.4,0,0,0,0-2,1.38,1.38,0,0,0-2,0,1.39,1.39,0,0,0,2,2Z"/><path d="M25.82,25.8a1.39,1.39,0,1,0-2,0A1.39,1.39,0,0,0,25.82,25.8Z"/><path d="M27.73,27.85a1.39,1.39,0,0,0,2,2,1.39,1.39,0,0,0-2-2Z"/><circle cx="17.66" cy="24.14" r="1.39"/><circle cx="21.62" cy="28.11" r="1.39"/><path d="M24.52,31.14a1.38,1.38,0,0,0,0,2,1.39,1.39,0,0,0,2-2A1.38,1.38,0,0,0,24.52,31.14Z"/></g><g id="a630072b-4482-4057-8e15-1bc92ca50add" data-name="LABELS"><text transform="translate(-0.1 54.84)" font-size="6" font-family="Roboto-Regular, Roboto">band-aids</text></g></svg>