<svg id="ab85f30a-3196-4029-ada7-ca438a2081bd" data-name="ICONS" xmlns="http://www.w3.org/2000/svg" viewBox="0 0 50 50"><path d="M30.54,25.78a37.12,37.12,0,0,0-4.87-.32,34.82,34.82,0,0,0-9.11,1.16c-6.79,1.84-11,5.54-11,9.66,0,6,9,10.81,20.13,10.81s20.12-4.85,20.12-10.81C45.79,31.28,39.52,27,30.54,25.78ZM25.67,46.09c-10.55,0-19.13-4.4-19.13-9.81,0-3.65,3.94-7,10.28-8.7a34.6,34.6,0,0,1,8.85-1.12,35.27,35.27,0,0,1,4.74.31c8.47,1.12,14.38,5,14.38,9.51C44.79,41.69,36.21,46.09,25.67,46.09Z"/><path d="M26.43,17.3c0-4.45-5.92-8.07-13.19-8.07h0A19.55,19.55,0,0,0,5.85,10.6C2.22,12.1,0,14.6,0,17.3c0,4.46,5.92,8.08,13.2,8.08S26.43,21.76,26.43,17.3ZM1,17.3C1,15,3,12.86,6.23,11.52a18.72,18.72,0,0,1,7-1.29h0c6.72,0,12.19,3.17,12.19,7.07S20,24.38,13.24,24.38,1,21.21,1,17.3Z"/><path d="M40.71,2.38a19.5,19.5,0,0,0-3-.22h0C31.27,2.16,26.21,5,26.21,8.7s5.06,6.55,11.52,6.55S49.25,12.37,49.25,8.7C49.25,5.73,45.74,3.13,40.71,2.38Zm-3,11.87c-5.7,0-10.52-2.54-10.52-5.55S32,3.16,37.73,3.16h0a20.24,20.24,0,0,1,2.82.2c4.53.68,7.69,2.88,7.69,5.34C48.25,11.71,43.43,14.25,37.73,14.25Z"/><path d="M37.66,34.55a.5.5,0,0,0-.5.5c0,2.66-5.26,4.9-11.49,4.9-5.34,0-10.07-1.64-11.24-3.9a.5.5,0,0,0-.67-.22.51.51,0,0,0-.22.68C14.9,39.12,19.88,41,25.67,41c7,0,12.49-2.59,12.49-5.9A.5.5,0,0,0,37.66,34.55Z"/><path d="M42.83,8.71a7.19,7.19,0,0,1-4.74,1.48h0c-2.91,0-5.38-1.25-5.38-2.73a.5.5,0,0,0-1,0c0,2.09,2.8,3.73,6.38,3.73h0a8.1,8.1,0,0,0,5.43-1.75.5.5,0,0,0-.69-.73Z"/><path d="M20.5,18a.5.5,0,1,0-.68-.73c-1.34,1.23-3.86,2-6.58,2a10.89,10.89,0,0,1-6-1.57.51.51,0,0,0-.7.13.5.5,0,0,0,.13.7,12,12,0,0,0,6.61,1.74C16.24,20.27,19,19.43,20.5,18Z"/><path d="M7.91,14.38a.39.39,0,0,0,.15,0,19.26,19.26,0,0,1,5.61-.8h0a.5.5,0,0,0,.5-.5.48.48,0,0,0-.5-.5,20,20,0,0,0-5.91.85.5.5,0,0,0-.33.62A.49.49,0,0,0,7.91,14.38Z"/><path d="M17.82,32.56l.13,0a33.48,33.48,0,0,1,7.18-1.09.5.5,0,1,0-.05-1,34.19,34.19,0,0,0-7.39,1.11.5.5,0,0,0,.13,1Z"/><path d="M35.14,6.35h1.52a.51.51,0,0,0,.5-.5.5.5,0,0,0-.5-.5H35.14a.5.5,0,0,0-.5.5A.51.51,0,0,0,35.14,6.35Z"/></svg>