<svg xmlns="http://www.w3.org/2000/svg" viewBox="0 0 50 50"><g id="ea03ba1a-df8a-4c23-8c47-e4d262f06f4b" data-name="ICONS"><path d="M44.32,9.48c-1.58-1.35-3.5-1.42-5.39-1.21-.3-1.12-1.19-4-2.56-5.22a7.5,7.5,0,0,0-10.56.8c-2,2.3-1.84,5.73-1.13,8,1.19,3.78-7.16,11.58-10.53,14.3a5.08,5.08,0,0,1-2.51.66H11.3C9,26.84,5.91,26.91,4,29.12a7.5,7.5,0,0,0,.8,10.56c1.37,1.17,4.35,1.44,5.5,1.51a7.49,7.49,0,0,0,13.14,4.22c1.89-2.21,1.49-5.3,1.19-7.55l0-.34a5,5,0,0,1,.31-2.63c2.15-3.69,8.59-13.13,12.5-12.53,2.33.36,5.74,0,7.71-2.33A7.49,7.49,0,0,0,44.32,9.48Zm0,9.9c-1.7,2-4.73,2.32-6.8,2-5.37-.82-13.19,12.44-13.46,12.93a5.35,5.35,0,0,0-.49,3.34l0,.34c.27,2.07.64,4.9-1,6.77a6.49,6.49,0,0,1-11.41-4.07.5.5,0,0,0-.49-.49c-1.08,0-4.15-.28-5.32-1.28a6.49,6.49,0,0,1-.7-9.15c1.6-1.87,4.46-1.93,6.54-2h.34a5.61,5.61,0,0,0,3.17-.92c.5-.41,12.44-10.14,10.8-15.34-.63-2-.76-5,.94-7A6.45,6.45,0,0,1,31,2.26l.5,0a6.45,6.45,0,0,1,4.22,1.57c1.18,1,2.09,4,2.35,5.12a.5.5,0,0,0,.55.38c2.07-.26,3.73-.21,5.05.93A6.49,6.49,0,0,1,44.37,19.38Z"/></g><g id="b7f44621-02bd-445c-9e99-523e6eec004d" data-name="LABELS"><text transform="translate(-0.62 54.91)" font-size="6" font-family="Roboto-Regular, Roboto">bone</text></g></svg>