<svg id="f1eab2ac-c833-47c5-96bf-b274d1dedb34" data-name="ICONS" xmlns="http://www.w3.org/2000/svg" viewBox="0 0 50 50"><path d="M45.11,31.29a.5.5,0,0,0-.5-.5H44.1a9.34,9.34,0,0,0-8.56-9.16,8.62,8.62,0,0,0-13.15-1.55L15.89.89A.5.5,0,0,0,15.63.6a.48.48,0,0,0-.39,0l-2.4.9a.48.48,0,0,0-.29.27.53.53,0,0,0,0,.39l7.51,18.27L7.75,4.77a.47.47,0,0,0-.34-.19A.49.49,0,0,0,7,4.7l-2,1.64a.54.54,0,0,0-.18.35A.5.5,0,0,0,5,7.06L18.57,22.2a9.35,9.35,0,0,0-6.05,8.59H12a.5.5,0,0,0-.5.5,16.79,16.79,0,0,0,7.67,14.08.5.5,0,0,0-.23.41V49a.5.5,0,0,0,.5.5h17.7a.5.5,0,0,0,.5-.5V45.78a.47.47,0,0,0-.23-.41A16.8,16.8,0,0,0,45.11,31.29Zm-2-.5h-2a6.32,6.32,0,0,0-12.64,0h-2a8.34,8.34,0,0,1,16.68,0Zm-8.34-3.15a3.29,3.29,0,0,0-3.28,3.15h-2a5.31,5.31,0,0,1,10.62,0H38A3.29,3.29,0,0,0,34.76,27.64ZM37,30.79H32.48a2.28,2.28,0,0,1,4.56,0ZM28.31,23.3a3.18,3.18,0,0,0-.88.14,9.59,9.59,0,0,0-1.86-1.08,4.78,4.78,0,0,1,2.74-.85,4.84,4.84,0,0,1,2.75.85,9,9,0,0,0-1.86,1.08A3.31,3.31,0,0,0,28.31,23.3Zm0-4.58a7.66,7.66,0,0,1,6,2.89,9.3,9.3,0,0,0-2.13.35,5.86,5.86,0,0,0-7.72,0,9.3,9.3,0,0,0-2.12-.35A7.63,7.63,0,0,1,28.31,18.72ZM13.67,2.23l1.44-.53,6.5,19.2-.17.24ZM6.11,6.78l1.17-1,12.6,16-.26.07ZM21.86,22.59a8.34,8.34,0,0,1,5.77,2.32,9,9,0,0,0-1.15,1.71,6.32,6.32,0,0,0-10.94,4.17h-2A8.35,8.35,0,0,1,21.86,22.59Zm0,5.05a3.3,3.3,0,0,0-3.28,3.15h-2A5.29,5.29,0,0,1,26,27.65a9.32,9.32,0,0,0-.6,3.14h-.27A3.31,3.31,0,0,0,21.86,27.64Zm2.29,3.15H19.58a2.29,2.29,0,0,1,4.57,0ZM36.66,48.45H20V46.28h16.7Zm-1-3.17H21a15.82,15.82,0,0,1-8.48-13.49H44.1A15.81,15.81,0,0,1,35.63,45.28Z"/></svg>