<svg xmlns="http://www.w3.org/2000/svg" viewBox="0 0 50 50"><g id="fd07c8cc-81f5-4152-9f24-1990a739b423" data-name="ICONS"><path d="M41.56,9.06a23.27,23.27,0,1,0,6.31,16.66A23.1,23.1,0,0,0,41.56,9.06ZM39.88,41.27A22.32,22.32,0,1,1,24.58,2.68h.71A22.32,22.32,0,0,1,39.88,41.27Z"/><path d="M21.94,6.54a18.53,18.53,0,0,0-8,3.33.5.5,0,0,0-.19.53l0,.12a.45.45,0,0,0,.12.21L38.45,36.85a.48.48,0,0,0,.36.15h0a.47.47,0,0,0,.37-.18A18.6,18.6,0,0,0,21.94,6.54Zm16.84,29.2L15,10.39A17.6,17.6,0,0,1,38.78,35.74Z"/><path d="M11.23,13.25a.46.46,0,0,0-.21-.13l-.11,0a.5.5,0,0,0-.54.16A18.6,18.6,0,0,0,35.7,40.11a.53.53,0,0,0,.2-.36.52.52,0,0,0-.13-.39Zm.63,23.92a17.61,17.61,0,0,1-1-22.9L34.65,39.63A17.6,17.6,0,0,1,11.86,37.17Z"/></g><g id="a703cb93-8f0f-40e2-ba77-d61f418b9926" data-name="LABELS"><text transform="translate(0 55.13)" font-size="6" font-family="Roboto-Regular, Roboto">cancel-p<tspan x="22.51" y="0" letter-spacing="-0.01em">r</tspan><tspan x="24.48" y="0">ohibited</tspan></text></g></svg>