<svg xmlns="http://www.w3.org/2000/svg" viewBox="0 0 50 50"><g id="a00f2ba9-36e9-4262-9a96-0a8b109d2397" data-name="ICONS"><path d="M44.72,5.64,42,4,39.19,2.41a.52.52,0,0,0-.38-.06.53.53,0,0,0-.31.24l-20,34.14-8.21-10a.5.5,0,0,0-.71-.07l-5,4.05a.5.5,0,0,0-.07.7L16.17,45.55A3.66,3.66,0,0,0,19,46.91h.29a3.7,3.7,0,0,0,2.91-1.82L44.9,6.33A.51.51,0,0,0,44.72,5.64ZM19,37.86,39.11,3.52l4.67,2.73L21.37,44.57a2.66,2.66,0,0,1-2.12,1.33,2.72,2.72,0,0,1-2.31-1L5.67,31.12,9.86,27.7l8.36,10.22a.5.5,0,0,0,.81-.06Z"/></g><g id="a010a8ea-ebfa-4f90-93ee-70306a69fec1" data-name="LABELS"><text transform="translate(-0.1 54.79)" font-size="6" font-family="Roboto-Regular, Roboto">checkmark</text></g></svg>