<svg xmlns="http://www.w3.org/2000/svg" viewBox="0 0 50 50"><defs><style>.cls-1{font-size:6px;font-family:Roboto-Regular, Roboto;}</style></defs><g id="ICONS"><path d="M42.5,8.16A2.78,2.78,0,0,0,38.31,7.1l-.1.05L30.1,12.68H18.82L11.06,7.16,11,7.1a2.75,2.75,0,0,0-2.6-.39,2.8,2.8,0,0,0-1.7,3.55,2.73,2.73,0,0,0,1,1.37.38.38,0,0,0,.11.11L18.13,19l0,26.56a3.2,3.2,0,0,0,3.25,3.14h.4a3.27,3.27,0,0,0,2.75-1.47,3.24,3.24,0,0,0,2.74,1.47h.3A3.2,3.2,0,0,0,30.8,45.6l-.05-26.55,10.7-7.31a.52.52,0,0,0,.11-.1,2.73,2.73,0,0,0,1-1.37A2.76,2.76,0,0,0,42.5,8.16Zm-.85,1.78a1.73,1.73,0,0,1-.76.94.43.43,0,0,0-.14.13L30,18.37a.49.49,0,0,0-.22.41L29.8,45.6a2.2,2.2,0,0,1-2.25,2.14h-.3A2.19,2.19,0,0,1,25,45.6a.46.46,0,0,0-.05-.2V29.84a.5.5,0,0,0-.5-.5.5.5,0,0,0-.5.5V45.92s0,0,0,0a2.22,2.22,0,0,1-2.21,1.79h-.4a2.2,2.2,0,0,1-2.25-2.14l0-26.82a.5.5,0,0,0-.22-.41L8.52,11a.39.39,0,0,0-.16-.15,1.77,1.77,0,0,1-.77-1A1.81,1.81,0,0,1,8.68,7.65,1.74,1.74,0,0,1,10.43,8a.51.51,0,0,0,.16.09l7.78,5.55a.69.69,0,0,0,.29.09H30.25a.47.47,0,0,0,.28-.09l8.11-5.52A.52.52,0,0,0,38.83,8a1.74,1.74,0,0,1,1.74-.31,1.76,1.76,0,0,1,1,.93A1.78,1.78,0,0,1,41.65,9.94Z"/><path d="M24.46,11.47A5.49,5.49,0,1,0,19,6,5.49,5.49,0,0,0,24.46,11.47Zm0-10A4.49,4.49,0,1,1,20,6,4.5,4.5,0,0,1,24.46,1.5Z"/></g><g id="LABELS"><text class="cls-1" transform="translate(0 55.02)">child</text></g></svg>