<svg xmlns="http://www.w3.org/2000/svg" viewBox="0 0 50 50"><g id="f2780297-b12f-44cd-afbc-19720c1ccaee" data-name="ICONS"><path d="M35.58,34.58h8a.5.5,0,0,0,.5-.5v-8a.5.5,0,0,0-.5-.5h-8a.5.5,0,0,0-.5.5v8A.5.5,0,0,0,35.58,34.58Zm.5-8h7v7h-7Z"/><path d="M6,34.58H25.44a.5.5,0,0,0,.5-.5.5.5,0,0,0-.5-.5H6a.5.5,0,0,0-.5.5A.5.5,0,0,0,6,34.58Z"/><path d="M46,9.51H3.51A3.18,3.18,0,0,0,.33,12.68V36.81A3.18,3.18,0,0,0,3.51,40H46a3.18,3.18,0,0,0,3.18-3.18V12.68A3.18,3.18,0,0,0,46,9.51Zm2.18,27.3A2.18,2.18,0,0,1,46,39H3.51a2.18,2.18,0,0,1-2.18-2.18V20.93H48.17Zm0-16.88H1.33V15.27H48.17Zm0-5.66H1.33V12.68a2.18,2.18,0,0,1,2.18-2.17H46a2.18,2.18,0,0,1,2.18,2.17Z"/></g><g id="a52f2229-6136-454f-b031-bc3e9e20fe3b" data-name="LABELS"><text transform="translate(-0.16 55.07)" font-size="6" font-family="Roboto-Regular, Roboto">c<tspan x="3.14" y="0" letter-spacing="-0.01em">r</tspan><tspan x="5.12" y="0">edit-ca</tspan><tspan x="23.15" y="0" letter-spacing="-0.01em">r</tspan><tspan x="25.13" y="0">d</tspan></text></g></svg>