<svg id="bd1d59f6-c561-4217-a5b2-d204e6d61976" data-name="ICONS" xmlns="http://www.w3.org/2000/svg" viewBox="0 0 50 50"><path d="M32.93,10c-.47-4.85-4.28-8.64-8.81-8.69s-8.6,3.83-9,8.86a2.43,2.43,0,0,0,.63,4.53,8.55,8.55,0,0,0,16.77,0A2.43,2.43,0,0,0,32.93,10ZM15.58,13c0,.19,0,.37,0,.55a1.43,1.43,0,0,1,.25-2.66A8.59,8.59,0,0,0,15.58,13Zm8.56,7.55a7.52,7.52,0,0,1-7.29-9.52,10.53,10.53,0,0,0,1.48.11,9.87,9.87,0,0,0,2-.19,11,11,0,0,0,5.45-2.82l5.44,2.15A7.64,7.64,0,0,1,31.69,13,7.56,7.56,0,0,1,24.14,20.57ZM25.81,7.1a.5.5,0,0,0-.53.11A10.16,10.16,0,0,1,20.1,10a9.45,9.45,0,0,1-4-.08C16.63,5.58,20,2.28,24,2.28h.07A8.26,8.26,0,0,1,31.87,9.5Zm6.85,6.54c0-.21,0-.41,0-.62a8.45,8.45,0,0,0-.28-2.15,1.42,1.42,0,0,1,1.22,1.41A1.45,1.45,0,0,1,32.66,13.64Z"/><path d="M30.88,22.87H17.61a9.51,9.51,0,0,0-9,9.49l0,15.88a.51.51,0,0,0,.5.5H39.38a.5.5,0,0,0,.5-.5l0-15.84A9.5,9.5,0,0,0,30.88,22.87ZM9.56,32.34a8.52,8.52,0,0,1,6-8.11v6.09a2.73,2.73,0,1,0,1,0V24l.23,0s0,0,0,0l7,10.25V47.72h-7.2V37.81a.5.5,0,0,0-.5-.5.51.51,0,0,0-.5.5v9.91h-6Zm14.67.81-6.32-9.3H30.24ZM16,31.27A1.73,1.73,0,1,1,14.32,33,1.73,1.73,0,0,1,16,31.27ZM38.88,47.72H33V37.81a.51.51,0,0,0-.5-.5.5.5,0,0,0-.5.5v9.91H24.74V34.2L31.37,24v0A5.4,5.4,0,0,1,32,24v5.37A5.26,5.26,0,0,0,27.9,33a8,8,0,0,0-.46,3.2.51.51,0,0,0,.5.47h2.61a.5.5,0,0,0,0-1H28.43a6.73,6.73,0,0,1,.41-2.32,4.28,4.28,0,0,1,3.39-3,3.85,3.85,0,0,1,3.58,2.37,6.93,6.93,0,0,1,.68,3h-2a.5.5,0,0,0,0,1H37a.5.5,0,0,0,.5-.47,8,8,0,0,0-.77-3.95A5,5,0,0,0,33,29.38V24.26a8.51,8.51,0,0,1,5.94,8.12Z"/></svg>