<svg xmlns="http://www.w3.org/2000/svg" viewBox="0 0 50 50"><g id="b6dc4293-502b-4600-8e57-efd387090e91" data-name="ICONS"><path d="M48.44,11.76H33.73V9.94a3.46,3.46,0,0,0-3.46-3.46h-11a3.46,3.46,0,0,0-3.46,3.46v1.82H1.06a.5.5,0,0,0-.5.5V42.52a.5.5,0,0,0,.5.5H48.44a.5.5,0,0,0,.5-.5V12.26A.5.5,0,0,0,48.44,11.76ZM47.94,42H1.56V12.76H47.94ZM16.77,9.94a2.46,2.46,0,0,1,2.46-2.46h11a2.46,2.46,0,0,1,2.46,2.46v1.82h-16Z"/><path d="M24.75,15a12.4,12.4,0,1,0,12.4,12.4A12.41,12.41,0,0,0,24.75,15Zm0,23.8a11.4,11.4,0,1,1,11.4-11.4A11.41,11.41,0,0,1,24.75,38.79Z"/><path d="M31.14,24.73H27.41V21a.51.51,0,0,0-.5-.5H22.59a.51.51,0,0,0-.5.5v3.73H18.36a.51.51,0,0,0-.5.5v4.32a.51.51,0,0,0,.5.5h3.73v3.73a.51.51,0,0,0,.5.5h4.32a.51.51,0,0,0,.5-.5V30.05h3.73a.51.51,0,0,0,.5-.5V25.23A.51.51,0,0,0,31.14,24.73Zm-.5,4.32H26.91a.5.5,0,0,0-.5.5v3.73H23.09V29.55a.5.5,0,0,0-.5-.5H18.86V25.73h3.73a.5.5,0,0,0,.5-.5V21.5h3.32v3.73a.5.5,0,0,0,.5.5h3.73Z"/></g><g id="a04698bd-47e6-4947-af26-896a90fdbeb5" data-name="LABELS"><text transform="translate(0.36 55.09)" font-size="6" font-family="Roboto-Regular, Roboto">doc<tspan x="9.95" y="0" letter-spacing="-0.01em">t</tspan><tspan x="11.85" y="0">or-case</tspan></text></g></svg>