<svg xmlns="http://www.w3.org/2000/svg" viewBox="0 0 50 50"><defs><style>.cls-1{font-size:6px;font-family:Roboto-Regular, Roboto;}.cls-2{letter-spacing:-0.01em;}</style></defs><g id="ICONS"><path d="M25,25.08a.54.54,0,0,0,.1-.16A.54.54,0,0,1,25,25.08Z"/><path d="M47.43,7.17,1.84,7a.5.5,0,0,0-.5.5v5.77a.5.5,0,0,0,.5.5H3.65L3.57,41.59a.5.5,0,0,0,.5.5l6,0L39,42.19l6,0a.5.5,0,0,0,.5-.5l.08-27.78h1.83a.5.5,0,0,0,.5-.5V7.67A.49.49,0,0,0,47.43,7.17ZM19.63,39.23a4.46,4.46,0,0,1-.84-3.85.81.81,0,0,0,0-.16c0-.09,0-.25.08-.47a19.78,19.78,0,0,0,.37-2.83A9.14,9.14,0,0,0,19,29.39a8,8,0,0,1,.66.48,6.09,6.09,0,0,1,2,3.18.51.51,0,0,0,.59.37.5.5,0,0,0,.39-.57,9.26,9.26,0,0,1,1.13-6,9.15,9.15,0,0,1,.78-1.1,9.73,9.73,0,0,0,0,1.08,10.51,10.51,0,0,0,1.18,4.35.51.51,0,0,0,.94-.14,5.45,5.45,0,0,1,1.54-2.94,5.54,5.54,0,0,1,1.08-.85A10.9,10.9,0,0,0,29,28.5a9.38,9.38,0,0,0,.71,4.92,2.77,2.77,0,0,0,.15.42c.05.11,1.29,3.28-.12,5.24-1.22,1.72-3.94,1.74-5.1,1.75S21,40.86,19.63,39.23Zm18.85,2-9.83,0a4.59,4.59,0,0,0,1.94-1.5c1.74-2.43.29-6,.23-6.2h0s-.1-.23-.12-.29a.48.48,0,0,1,0,.31.76.76,0,0,0,0-.47,8.1,8.1,0,0,1-.55-1.77A8.72,8.72,0,0,1,30,28.62a9.32,9.32,0,0,1,.54-2.17.5.5,0,0,0-.65-.64,6.94,6.94,0,0,0-2.44,1.56,6.4,6.4,0,0,0-1.41,2.1,9.34,9.34,0,0,1-.55-2.71,9.46,9.46,0,0,1,.2-2.37.5.5,0,0,0-.82-.48,10.23,10.23,0,0,0-2,2.41,9.77,9.77,0,0,0-1.33,4.16,6.58,6.58,0,0,0-1.25-1.37,7.54,7.54,0,0,0-1.93-1.17.51.51,0,0,0-.53.1.49.49,0,0,0-.13.53,8.92,8.92,0,0,1,.55,3.31,21.58,21.58,0,0,1-.36,2.68,6.17,6.17,0,0,0-.11.68,5.48,5.48,0,0,0,1.08,4.64,4.92,4.92,0,0,0,1.69,1.26l-10,0,.05-20.55,27.89.08Zm6,0h-5l.06-21.06a.5.5,0,0,0-.5-.5l-28.88-.08a.5.5,0,0,0-.5.5L9.6,41.11h-5l.08-27.28,39.93.11Zm2.41-28.27H45.08L4.15,12.81H2.33V8l44.58.13Z"/><path d="M30.6,33.62a.39.39,0,0,0,.1-.16A.44.44,0,0,1,30.6,33.62Z"/></g><g id="LABELS"><text class="cls-1" transform="translate(0.24 54.89)">fi<tspan class="cls-2" x="3.54" y="0">r</tspan><tspan x="5.51" y="0">eplace</tspan></text></g></svg>