<svg xmlns="http://www.w3.org/2000/svg" viewBox="0 0 50 50"><g id="ad428a10-d0fe-41dd-a099-0d23ac0d1859" data-name="ICONS"><path d="M42.81,45.84H32.74A3.79,3.79,0,0,0,29,42.25h-.45V38.81A20.88,20.88,0,0,0,40.58,31a20.68,20.68,0,0,0,3.74-15.82,21,21,0,0,0-7.52-13,.46.46,0,0,0-.07-.07L35.2.91a.49.49,0,0,0-.7.1L32.89,3.15A18,18,0,0,0,9,7.52H9a17.79,17.79,0,0,0-3.44,8.59,18,18,0,0,0,5.85,15.53l-1.52,2a.48.48,0,0,0-.09.37.45.45,0,0,0,.19.33l.27.2h0l0,0,1.21.91h0a20.8,20.8,0,0,0,10.85,3.8v2.93h-.46a3.78,3.78,0,0,0-3.76,3.59H8.05a.5.5,0,0,0-.5.5v2.78a.5.5,0,0,0,.5.5H42.81a.5.5,0,0,0,.5-.5V46.34A.5.5,0,0,0,42.81,45.84Zm.52-30.54a19.75,19.75,0,0,1-3.55,15.07A20.22,20.22,0,0,1,12.49,35l1.21-1.59a18,18,0,0,0,23.87-4.31h0a0,0,0,0,1,0,0A17.95,17.95,0,0,0,35.21,4.91l1.31-1.73A20.08,20.08,0,0,1,43.33,15.3Zm-30,3.52s0-.08,0-.12c.19-.57.4-1.13.64-1.68a1.17,1.17,0,0,1,.05-.11c.24-.55.51-1.08.8-1.6a2.53,2.53,0,0,1,.13-.22q.44-.75.93-1.47l.09-.13,3.9,2.94,2.63,2-2.32,3.07-2.32,3.07L13.37,21.1l-.52-.38c0-.06,0-.11,0-.16A17.16,17.16,0,0,1,13.36,18.82Zm4.53-7.58a19.87,19.87,0,0,1,1.5-1.4h0A19.32,19.32,0,0,1,21,8.6c.19-.13.39-.23.58-.35.35-.22.71-.44,1.07-.64l.14.11,5,3.76-2.32,3.07-2.31,3.06-6.53-4.92c.26-.32.53-.63.8-.93S17.73,11.41,17.89,11.24Zm6.86-4.61.8-.31.62-.22L27,5.86l.58-.16.77-.19.52-.11.74-.14L30,5.19l.71-.09.35,0,.7-.06L32,5l.75,0L28.4,10.68,25.45,8.45,23.67,7.11l.43-.2ZM12.91,30.3h0c0-.23-.09-.48-.14-.75a1.55,1.55,0,0,1,0-.21c-.05-.26-.09-.54-.13-.83a.22.22,0,0,1,0-.08c-.05-.31-.08-.65-.11-1l0-.27c0-.31,0-.63,0-1a1,1,0,0,1,0-.18c0-.38,0-.77,0-1.18,0-.1,0-.2,0-.29,0-.35,0-.7.06-1.06a2.45,2.45,0,0,0,0-.27c0-.43.1-.87.17-1.32a.36.36,0,0,1,0-.1l4.68,3.54L13.07,31v-.06C13,30.74,13,30.54,12.91,30.3Zm16.29-19,4.38-5.79a23.3,23.3,0,0,1,.74,5.81,22.44,22.44,0,0,1-.3,3.62L31.3,12.86Zm-.6.8,2,1.53L33.79,16c-.09.41-.2.81-.32,1.21-.06.21-.11.43-.17.64-.19.56-.4,1.1-.63,1.64-.16.35-.33.69-.5,1s-.34.69-.53,1-.41.64-.62,1-.29.46-.45.69l-6.6-5,2.31-3.07ZM23.36,19,30,24q-.33.42-.69.81c-.17.19-.33.4-.51.59-.37.37-.76.73-1.15,1.08l-.38.34a20.74,20.74,0,0,1-1.67,1.25l-.46.28c-.39.24-.8.48-1.21.71l-1-.73-4.19-3.16,2.32-3.07ZM13.83,31.65l4.3-5.7,1.19.9,3.57,2.7A23.08,23.08,0,0,1,13.83,31.65Zm10-1.43,5.25,4a17,17,0,0,1-14.7-1.54A24.21,24.21,0,0,0,23.79,30.22Zm6.33,3.53-5.35-4c.28-.16.54-.34.81-.51l.65-.41c.46-.31.9-.65,1.32-1l.4-.31A18.07,18.07,0,0,0,29.51,26c.13-.13.24-.28.37-.41.3-.33.6-.66.88-1l5.7,4.3A16.83,16.83,0,0,1,30.12,33.75Zm7-5.64L32.29,24.5l-.91-.69.08-.14a16.32,16.32,0,0,0,1-1.51l0,0c.3-.51.57-1,.83-1.58l.1-.21c.24-.53.45-1.06.65-1.6l.1-.3c.19-.54.35-1.09.5-1.66a.38.38,0,0,1,0-.1l2.84,2.15L40,20.71A16.88,16.88,0,0,1,37.07,28.11Zm3.09-8.56-3.57-2.69-1.68-1.27a22.67,22.67,0,0,0,.4-4.28,24,24,0,0,0-.64-5.55A17,17,0,0,1,40.16,19.55ZM35,2c.25.17.48.37.73.56L34.5,4.2l-.73-.56ZM32.3,4h0l-.71,0h-.08l-.91.09-.14,0-.86.13-.22,0-1.1.21h-.06l-1.08.27-.31.09c-.34.1-.69.2-1.05.32l-.18.06c-.41.14-.82.3-1.24.47L24,5.86c-.33.14-.67.3-1,.46l-.21.1L19.13,3.68,17.45,2.41A17,17,0,0,1,32.3,4ZM16.37,2.85,21.8,7c-.27.14-.51.32-.76.48l-.69.43c-.4.28-.78.58-1.16.88-.17.13-.36.26-.53.41a18.89,18.89,0,0,0-1.53,1.44l-.14.15c-.4.43-.79.87-1.16,1.34L10.07,7.73A16.85,16.85,0,0,1,16.37,2.85ZM9.47,8.53l5.77,4.35a1.4,1.4,0,0,1-.1.16c-.33.47-.65,1-.94,1.46a1.74,1.74,0,0,0-.1.19q-.42.74-.78,1.5a1.3,1.3,0,0,0-.08.17c-.24.53-.45,1.07-.65,1.62,0,.1-.07.2-.1.3A16.49,16.49,0,0,0,12,19.94s0,.07,0,.11L6.55,16A16.76,16.76,0,0,1,9.47,8.53Zm-3,8.59,5.31,4,0,.23c-.06.37-.12.74-.16,1.1,0,.12,0,.23-.05.34,0,.45-.08.88-.1,1.31,0,.07,0,.15,0,.22,0,.36,0,.71,0,1.05,0,.12,0,.23,0,.35,0,.37,0,.73,0,1.08v.08c0,.37.06.72.1,1.07l0,.28c0,.27.07.53.11.78,0,.07,0,.13,0,.19.05.3.1.58.16.84l0,.17c0,.21.09.41.13.59s0,.06,0,.09A17,17,0,0,1,6.43,17.12ZM12.5,32.59l.37.26-1.18,1.57c-.25-.19-.5-.36-.74-.55l1.19-1.57Zm10.84,6.84c.78,0,1.58,0,2.36-.1.6-.06,1.21-.13,1.82-.23v3.15H23.34Zm-1.46,3.82H29a2.8,2.8,0,0,1,2.78,2.54H19.11A2.79,2.79,0,0,1,21.88,43.25Zm20.43,5.37H8.55V46.84H42.31Z"/></g><g id="ebdea604-8c3c-4357-a20e-118f3628063f" data-name="LABELS"><text transform="translate(-0.1 55.08)" font-size="6" font-family="Roboto-Regular, Roboto">globe</text></g></svg>