<svg id="b8d97ecc-ee1d-4ed4-b2e7-9a2ccc4f0ed1" data-name="ICONS" xmlns="http://www.w3.org/2000/svg" viewBox="0 0 50 50"><path d="M47.92,47.89H45.18V25.64h2a.51.51,0,0,0,.44-.26.52.52,0,0,0,0-.51l-5.58-8.79a.48.48,0,0,0-.42-.23h-10l-6.32-5.27a.43.43,0,0,1,0-.05V6.77h7a.5.5,0,0,0,.5-.5V1a.5.5,0,0,0-.5-.5H24.84a.5.5,0,0,0-.5.5v9.44l-5.83,5.39-9.9,0h0a.5.5,0,0,0-.43.24L2.66,25a.47.47,0,0,0,0,.5.49.49,0,0,0,.43.26h2V47.89h-3a.5.5,0,0,0-.5.5.5.5,0,0,0,.5.5H47.92a.5.5,0,0,0,.5-.5A.5.5,0,0,0,47.92,47.89ZM6.11,25.71l38.07-.06V47.72H28.62v-11a.49.49,0,0,0-.48-.49H21.57a.48.48,0,0,0-.48.49v11h-15ZM20,24.64l4.94-5,4.83,5Zm2.09,12.54h5.59V47.72H22.06ZM25.34,1.53h6.53V5.77H25.34ZM4,24.72l4.9-7.88,9.81,0h0a.51.51,0,0,0,.34-.13l5.75-5.31,6.36,5.31a.54.54,0,0,0,.32.11h9.88l4.95,7.79H44.66l-13.49,0-5.9-6.07a.48.48,0,0,0-.36-.16.61.61,0,0,0-.36.15l-6,6.1-13,0Z"/><path d="M24.79,34.31a3.51,3.51,0,1,0-3.51-3.51A3.51,3.51,0,0,0,24.79,34.31Zm0-6a2.51,2.51,0,1,1-2.51,2.5A2.5,2.5,0,0,1,24.79,28.3Z"/><path d="M8.82,34.16H12.1a.5.5,0,0,0,.5-.5V28a.5.5,0,0,0-.5-.5H8.82a.5.5,0,0,0-.5.5v5.64A.5.5,0,0,0,8.82,34.16Zm.5-5.64H11.6v4.64H9.32Z"/><path d="M15.29,34.15h3.29a.5.5,0,0,0,.5-.5V28a.5.5,0,0,0-.5-.5H15.29a.5.5,0,0,0-.5.5v5.61A.5.5,0,0,0,15.29,34.15Zm.5-5.61h2.29v4.61H15.79Z"/><path d="M31,34.16h3.29a.5.5,0,0,0,.5-.5V28a.5.5,0,0,0-.5-.5H31a.5.5,0,0,0-.5.5v5.63A.5.5,0,0,0,31,34.16Zm.5-5.63h2.29v4.63H31.47Z"/><path d="M37.45,34.16h3.29a.51.51,0,0,0,.5-.5V28.05a.5.5,0,0,0-.5-.5H37.45a.5.5,0,0,0-.5.5v5.61A.5.5,0,0,0,37.45,34.16Zm.5-5.61h2.29v4.61H38Z"/><path d="M12.1,36.06H8.82a.5.5,0,0,0-.5.5V42.2a.5.5,0,0,0,.5.5H12.1a.5.5,0,0,0,.5-.5V36.56A.5.5,0,0,0,12.1,36.06Zm-.5,5.64H9.32V37.06H11.6Z"/><path d="M18.58,36.08H15.29a.51.51,0,0,0-.5.5v5.61a.5.5,0,0,0,.5.5h3.29a.5.5,0,0,0,.5-.5V36.58A.51.51,0,0,0,18.58,36.08Zm-.5,5.61H15.79V37.08h2.29Z"/><path d="M34.26,36.07H31a.5.5,0,0,0-.5.5v5.64a.51.51,0,0,0,.5.5h3.29a.5.5,0,0,0,.5-.5V36.57A.5.5,0,0,0,34.26,36.07Zm-.5,5.64H31.47V37.07h2.29Z"/><path d="M40.74,36.09H37.45a.5.5,0,0,0-.5.5V42.2a.5.5,0,0,0,.5.5h3.29a.5.5,0,0,0,.5-.5V36.59A.5.5,0,0,0,40.74,36.09Zm-.5,5.61H38V37.09h2.29Z"/></svg>