<svg id="ICONS" xmlns="http://www.w3.org/2000/svg" viewBox="0 0 50 50"><path d="M41.28,24.46A7.93,7.93,0,0,0,49.07,15a.5.5,0,0,0-.35-.38.49.49,0,0,0-.5.12l-4,4.06L39.4,18.4,39,13.64l4.05-4.06a.51.51,0,0,0,.13-.5.52.52,0,0,0-.38-.34,7.92,7.92,0,0,0-9.38,9.06L28.7,22.56l-6.2-6.2.53-.54a.48.48,0,0,0,0-.7L18.8,10.89l2.06-2.06a3.15,3.15,0,0,1,4.36,0l.48.48a.51.51,0,0,0,.71,0L28.72,7a.51.51,0,0,0,0-.71l-3-3a5.4,5.4,0,0,0-7.62,0l-3.8,3.8L9.22,12.16l-2.6,2.61a.48.48,0,0,0,0,.7,1.82,1.82,0,0,1,.54,1.29,1.81,1.81,0,0,1-2.28,1.75l-.83-.83a.51.51,0,0,0-.71,0L.43,20.6a.48.48,0,0,0,0,.7l8.39,8.4a.51.51,0,0,0,.7,0l2.92-2.92a.49.49,0,0,0,.15-.36.47.47,0,0,0-.15-.35l-.82-.83a1.8,1.8,0,0,1,.45-1.74,1.87,1.87,0,0,1,2.58,0,.48.48,0,0,0,.7,0l.61-.6,6.2,6.2L19.27,32a7.92,7.92,0,0,0-8.86,9.41.5.5,0,0,0,.35.38.49.49,0,0,0,.5-.12l4.05-4,4.77.36.36,4.77-4.05,4a.51.51,0,0,0-.13.5.52.52,0,0,0,.38.34,8.32,8.32,0,0,0,1.56.15A7.92,7.92,0,0,0,26,38.36l2.71-2.71L39,45.93a.48.48,0,0,0,.7,0l5.84-5.84a.48.48,0,0,0,0-.7L35.25,29.1,40,24.35A7.81,7.81,0,0,0,41.28,24.46Zm-6.74,5.35,9.93,9.93-5.13,5.13-9.93-9.93Zm-8.85,7.44a7.89,7.89,0,0,0-5.25-5L33.73,19a7.89,7.89,0,0,0,5.13,5.13Zm-2.58,7.5a6.89,6.89,0,0,1-5.29,2l3.49-3.49a.48.48,0,0,0,.14-.39L21,37.46a.5.5,0,0,0-.46-.46l-5.42-.41a.47.47,0,0,0-.39.15l-3.5,3.49a6.94,6.94,0,1,1,11.84,4.52ZM15,22.47a2.9,2.9,0,0,0-3.61.32,2.74,2.74,0,0,0-.76,1.43l-4.7-4.7a2.74,2.74,0,0,0,1.43-.76,2.83,2.83,0,0,0,.83-2,2.8,2.8,0,0,0-.51-1.61l2.63-2.63,4.37-4.37L22,15.47ZM1.49,21,3.7,18.74l.58.58h0l3.26,3.26,3.84,3.84L9.17,28.63ZM25,4l2.65,2.64L26.05,8.25l-.12-.13a4.1,4.1,0,0,0-5.78,0l-2.06,2.06L15.36,7.45,18.8,4A4.4,4.4,0,0,1,25,4ZM21.79,17.06,28,23.27,22.87,28.4l-6.21-6.21Zm14.58-5.44a6.92,6.92,0,0,1,4.91-2h.38l-3.49,3.49a.49.49,0,0,0-.14.39l.41,5.43a.5.5,0,0,0,.46.46l5.42.41a.5.5,0,0,0,.39-.14l3.5-3.5a6.94,6.94,0,1,1-11.84-4.52Z"/></svg>