<svg id="b5bea500-7f9b-4889-859c-cf09ed8d1e38" data-name="ICONS" xmlns="http://www.w3.org/2000/svg" viewBox="0 0 50 50"><path d="M48.92,20.45a.5.5,0,0,0-.46-.4L46.29,20V13.52A1.54,1.54,0,0,0,44.76,12H26.86a.5.5,0,0,0-.5.5v2.63l-6.67-.77a.52.52,0,0,0-.39.13.51.51,0,0,0-.16.37v4.36C13.07,19.12,7,19.07.89,19.09a.5.5,0,0,0-.5.5V22.8a.5.5,0,0,0,.5.5c3.28,0,6.58,0,9.9.06v3.95l-3.69,0a.45.45,0,0,0-.36.14.51.51,0,0,0-.15.36V31a.5.5,0,0,0,.5.5l3.7,0v5H8.37a.5.5,0,0,0-.5.5.5.5,0,0,0,.5.5H48.09a.5.5,0,0,0,.5-.5.5.5,0,0,0-.5-.5h-.83V31.87h.58a.5.5,0,0,0,.47-.35,5.48,5.48,0,0,0,.28-1.75A5.6,5.6,0,0,0,48.31,28a.53.53,0,0,0-.47-.35h-.58V24.23l1.15,0h0a.5.5,0,0,0,.49-.4,7.76,7.76,0,0,0,0-3.42ZM27.36,13h17.4a.53.53,0,0,1,.53.53v3.76L27.36,15.23Zm-7.21,6.2V15.41l25.15,2.88v1.63l-1.23,0c-6.27-.25-12.58-.46-18.84-.59l-2.73,0ZM11.79,36.51v-5l5.16,0v4.93Zm8.54,0H18V31.59l2.38,0Zm6.39,0H21.33V31.62l5.39.05Zm6.39,0H27.72V31.68l5.39.06Zm6.4,0h-5.4V31.75l5.4.05Zm5.86,0H40.51v-4.7l5.75.05v4.65Zm2.09-7.85a4.7,4.7,0,0,1,.13,1.12,4.4,4.4,0,0,1-.13,1.09L7.59,30.49V28.28ZM11.79,27.32V23.37l5.16.06v3.94Zm6.16.06V23.45l2.38,0V27.4Zm3.38,0V23.5l3.7.07,1.69,0v3.85Zm6.39.06V23.64l5.39.13v3.75Zm6.39.06V23.8l5.4.16v3.62Zm6.4.06V24l5.75.19v3.46ZM48,23.25c-7.62-.29-15.35-.52-23-.68-7.89-.16-15.84-.25-23.66-.27V20.08c7.93,0,15.93.06,23.81.22,7.58.16,15.26.41,22.82.74a8.11,8.11,0,0,1,.09,1.21A5.63,5.63,0,0,1,48,23.25Z"/></svg>