<svg xmlns="http://www.w3.org/2000/svg" viewBox="0 0 50 50"><g id="eaa4c15a-4788-4227-b6a4-5ec85f8c37a3" data-name="ICONS"><path d="M25.25,11.28H31a.5.5,0,0,0,.5-.5V7.64H46.61a.5.5,0,0,0,.5-.5V1.29a.5.5,0,0,0-.5-.5H28.77a4,4,0,0,0-4,4v6A.5.5,0,0,0,25.25,11.28Zm.5-1V9h4.72v1.29Zm3-8.49H46.11V6.64H31a.5.5,0,0,0-.5.5V8H25.75V4.81A3,3,0,0,1,28.77,1.79Z"/><path d="M30.93,30.65s0-.11,0-.25l-.15.07C30.85,30.58,30.9,30.66,30.93,30.65Z" fill="none"/><path d="M20.33,37.94a.5.5,0,0,0,.46.3.48.48,0,0,0,.2,0l.29-.12a5.19,5.19,0,0,1,.6-1.34l-1.28.54A.52.52,0,0,0,20.33,37.94Z" fill="none"/><path d="M22.73,43.65a.51.51,0,0,0,.46.31.41.41,0,0,0,.19,0h0a5.29,5.29,0,0,1-.7-.55A.48.48,0,0,0,22.73,43.65Z" fill="none"/><path d="M9.8,28.33V30H9.35A3.13,3.13,0,0,1,9,31.36L9.9,31a.49.49,0,0,0,.3-.39,7.49,7.49,0,0,1,.85-2.53,2.09,2.09,0,0,1-1.08.3Z" fill="none"/><path d="M33.71,35.58A2.06,2.06,0,0,0,31,32.91l0,0a2.12,2.12,0,0,0-.14-1.08,2.2,2.2,0,0,0-.15-.26l.71-.3a2,2,0,0,0,1.11-1.11,2.08,2.08,0,0,0,0-1.57,2.12,2.12,0,0,0-.67-.86l0,0A2,2,0,0,0,33,26.62,2.06,2.06,0,0,0,30.28,24l0,0A2,2,0,0,0,29,21.79a2,2,0,0,0-1.57,0l-5,2.07a2,2,0,0,0-.14-1.08,2,2,0,0,0-1.11-1.1,2,2,0,0,0-1.57,0l-5,2.12a.25.25,0,0,0-.12.07l-.1,0-.21.08a8.27,8.27,0,0,0-4.92,6.17L5.77,31.62a.5.5,0,0,0-.27.66L8.61,39.7l-2.11.88a.51.51,0,0,0-.27.27.53.53,0,0,0,0,.39l3.22,7.67a.5.5,0,0,0,.46.3.41.41,0,0,0,.19,0l3.74-1.56a8.26,8.26,0,0,0,7.46.55l.19-.1.06,0,.17-.05,7.38-3.1a2,2,0,0,0,.42-3.53l2.62-1.1a2,2,0,0,0,1.09-2.68,2,2,0,0,0-.67-.86l0,0A2,2,0,0,0,33.71,35.58ZM31.58,29.8a1.06,1.06,0,0,1-.57.57l-1.12.47a1.4,1.4,0,0,0-.17-.09,2,2,0,0,0-1.57,0l-4.94,2.07a2,2,0,0,0-.14-1.08,1.82,1.82,0,0,0-.15-.27l7.28-3.05h0a1.06,1.06,0,0,1,1.38.56A1.13,1.13,0,0,1,31.58,29.8Zm-25,2.55L9.9,31a.49.49,0,0,0,.3-.39,7.2,7.2,0,0,1,4.37-5.67l.15-.05.12-.05.15-.08,5-2.12a1,1,0,0,1,1.37.57A1,1,0,0,1,21,24.46l-4.25,1.78a.5.5,0,0,0-.27.63,2.69,2.69,0,0,1,.11,1.38c-.33,1.63-2.25,2.25-2.27,2.26a.5.5,0,0,0,.15,1,.4.4,0,0,0,.15,0,4.44,4.44,0,0,0,3-3,3.6,3.6,0,0,0,0-1.46l3.82-1.6s.07,0,.1,0l6.34-2.65a1,1,0,0,1,1.37.56,1.06,1.06,0,0,1-.56,1.37h0l-8.75,3.67a.5.5,0,0,0-.27.66.49.49,0,0,0,.46.3.43.43,0,0,0,.19,0L29,25.57h0l1.66-.69a1.06,1.06,0,0,1,.8,0,1,1,0,0,1,.57.57,1,1,0,0,1-.56,1.37l-1.66.7h0l-7.69,3.23a.91.91,0,0,0-.17-.09,2,2,0,0,0-1.56,0l-5.06,2.12a.26.26,0,0,0-.11.07l-.1,0-.2.08a8.16,8.16,0,0,0-4.86,5.89l-.62.26Zm25.6,3.42-1.67.7h0L21.8,40.14a.5.5,0,0,0,.19,1,.48.48,0,0,0,.2,0l8.75-3.67h0a1,1,0,0,1,.8,0,1.08,1.08,0,0,1,.57.56,1.06,1.06,0,0,1-.56,1.38L27.52,41.1h0l-1.27.53h0L23,43a.49.49,0,0,0-.27.65.51.51,0,0,0,.46.31.41.41,0,0,0,.19,0l2.42-1h0L27.9,42A1.05,1.05,0,0,1,28.71,44l-7.42,3.11-.13,0-.12.06-.13.06a7.26,7.26,0,0,1-6.75-.6.49.49,0,0,0-.47,0l-3.51,1.47L7.35,41.31l3.29-1.38a.49.49,0,0,0,.3-.39,7.16,7.16,0,0,1,4.36-5.67l.14,0,.2-.08.08-.05,5-2.11a1.08,1.08,0,0,1,.81,0,1.09,1.09,0,0,1,.57.57,1,1,0,0,1-.42,1.29s0,0,0,0l-5.32,2.25a.5.5,0,0,0,.19,1,.48.48,0,0,0,.2,0l5.44-2.3h0l6.33-2.65a1,1,0,1,1,.81,1.93h0L20.6,37.28a.52.52,0,0,0-.27.66.5.5,0,0,0,.46.3.48.48,0,0,0,.2,0l8.75-3.67,1.67-.69a1,1,0,0,1,1.37.56,1.06,1.06,0,0,1-.56,1.37Z"/><path d="M28.67,12.57a.5.5,0,0,0-1,0v1a.5.5,0,0,0,1,0Z"/><path d="M28.67,15.17a.5.5,0,0,0-1,0v1.6a.5.5,0,0,0,1,0Z"/><path d="M28.17,17.87a.5.5,0,0,0-.5.5v1a.5.5,0,1,0,1,0v-1A.5.5,0,0,0,28.17,17.87Z"/><path d="M25.28,12.56l-.23,1a.5.5,0,0,0,.38.6l.11,0a.5.5,0,0,0,.49-.39l.23-1a.5.5,0,0,0-.38-.6A.49.49,0,0,0,25.28,12.56Z"/><path d="M24.69,17.3h.12a.49.49,0,0,0,.48-.38l.37-1.59a.5.5,0,0,0-.37-.6.5.5,0,0,0-.6.38l-.37,1.58A.5.5,0,0,0,24.69,17.3Z"/><path d="M24.1,19.86h.11a.5.5,0,0,0,.49-.39l.23-1a.5.5,0,0,0-1-.23l-.23,1A.51.51,0,0,0,24.1,19.86Z"/><path d="M32,20.62h.09a.5.5,0,0,0,.4-.58l-.19-1a.5.5,0,0,0-.59-.4.48.48,0,0,0-.39.58l.18,1A.5.5,0,0,0,32,20.62Z"/><path d="M31.46,17.81h.1a.5.5,0,0,0,.4-.58l-.36-1.83a.5.5,0,1,0-1,.19L31,17.41A.5.5,0,0,0,31.46,17.81Z"/><path d="M30.85,14.14a.49.49,0,0,0,.4-.58l-.19-1a.5.5,0,1,0-1,.19l.19,1a.49.49,0,0,0,.49.4Z"/><path d="M41.8,18.07a1.8,1.8,0,1,0,1.8-1.8A1.81,1.81,0,0,0,41.8,18.07Zm2.6,0a.8.8,0,1,1-.8-.8A.8.8,0,0,1,44.4,18.07Z"/><path d="M48.42,43.07c0-.1.09-.21.13-.32a1.87,1.87,0,0,1,.07-.22c0-.12.07-.24.1-.36s0-.14,0-.21.05-.26.07-.39,0-.11,0-.16,0-.3,0-.46v-.08a6.21,6.21,0,0,0-2.42-5.07,7.48,7.48,0,0,0-.84-.54v0a4,4,0,0,0-1.48-5.51,3.93,3.93,0,0,0-2.41-.51,4.11,4.11,0,0,0-7.7-1.52.5.5,0,1,0,.88.48v0a3.12,3.12,0,0,1,5.86,1.5,3,3,0,0,1-.24,1.19v0a.8.8,0,0,0,0,.15.5.5,0,0,0,.3.51.65.65,0,0,0,.19,0,.5.5,0,0,0,.46-.31,4.12,4.12,0,0,0,.27-1,3,3,0,0,1,3,4.51l-.08.12a6.23,6.23,0,0,0-1.88-.32h0a.5.5,0,0,0,0,1,5.07,5.07,0,0,1,3.06,1.06,5.17,5.17,0,0,1,1,7.25,5.09,5.09,0,0,1-3.42,2,5.16,5.16,0,0,1-3.83-1,5.06,5.06,0,0,1-1.13-1.18.5.5,0,1,0-.82.56,6.09,6.09,0,0,0,1,1.1A3,3,0,0,1,37,46.44a3,3,0,0,1-3.71-2.2.47.47,0,0,0-.24-.31.54.54,0,0,0-.36-.06.51.51,0,0,0-.37.61A4,4,0,0,0,34.2,47a4.07,4.07,0,0,0,2,.53,3.79,3.79,0,0,0,1-.14,3.94,3.94,0,0,0,2.15-1.46l.23.14a6.15,6.15,0,0,0,4.69.61c.08,0,.15-.06.24-.09a6.92,6.92,0,0,0,.76-.28l.32-.17a6.67,6.67,0,0,0,.72-.45l.26-.21a6.25,6.25,0,0,0,.65-.61l.18-.21.18-.21a5.69,5.69,0,0,0,.4-.6l0,0a1.67,1.67,0,0,0,.12-.23c0-.08.09-.17.13-.25Z"/><path d="M11.08,10.92A3,3,0,0,0,10.86,12a3.21,3.21,0,1,0,3.7-3.16s0-.09,0-.13a2.43,2.43,0,1,0-3.49,2.17ZM11.86,12a2.21,2.21,0,1,1,2.21,2.21A2.21,2.21,0,0,1,11.86,12Zm.28-4.72a1.43,1.43,0,0,1,1.43,1.43s0,.09,0,.14a3.18,3.18,0,0,0-2,1.16,1.42,1.42,0,0,1,.57-2.73Z"/><path d="M2.69,30.77a3.12,3.12,0,0,1,2.68-5.42,2.87,2.87,0,0,1,1.12.48h0a.5.5,0,0,0,.69-.13A.49.49,0,0,0,7.08,25a3.62,3.62,0,0,0-.85-.44.74.74,0,0,0,.07-.21,1.1,1.1,0,0,1,0-.16,2.16,2.16,0,0,1,.75-1.3,2.13,2.13,0,0,1,1.59-.48,2.17,2.17,0,0,1,1.46.78l.11.17.09.14a.52.52,0,0,0,.69.19A.49.49,0,0,0,11.2,23a2.71,2.71,0,0,0-.3-.45,3.16,3.16,0,0,0-4.45-.44A3.13,3.13,0,0,0,5.3,24.27s0,.05,0,.07a4.11,4.11,0,0,0-3.25,7.21.57.57,0,0,0,.33.11.52.52,0,0,0,.38-.17.51.51,0,0,0-.06-.71Z"/></g><g id="ecead895-e5b1-470d-8378-fff03975f699" data-name="LABELS"><text transform="translate(-0.05 54.89)" font-size="6" font-family="Roboto-Regular, Roboto">hand-washing</text></g></svg>