<svg xmlns="http://www.w3.org/2000/svg" viewBox="0 0 50 50"><g id="f985f20f-777e-43b9-883b-68408892fcd6" data-name="ICONS"><path d="M44,29.44c-.8-1.55-2.64-5.34-2.64-7.11a18,18,0,0,1,.34-2.69c.42-2.41.94-5.41-.18-8C38.42,4.74,28.81-1.23,18.63,1.2,6.31,4.15,5,14,5.13,21.16a19,19,0,0,0,2.6,9.28,25,25,0,0,1,2.62,7.08C11.47,43.32,9.79,46,9,47.23a4.89,4.89,0,0,0-.37.65.49.49,0,0,0,0,.47.5.5,0,0,0,.42.23h20a.51.51,0,0,0,.49-.5V41.39c2,1.13,6.6,3.43,8.25,1.78.26-.26.25-.69.2-1.64a8.11,8.11,0,0,1,0-1.2c0-.17.13-.24.58-.39s1-.33,1.07-1c0-.19,0-.56-1.48-1.8C41,36.37,41,36,41,35.65A22.22,22.22,0,0,0,40.43,33L43.3,31.5A1.55,1.55,0,0,0,44,29.44Zm-1.12,1.17-3.23,1.67a.52.52,0,0,0-.25.58c.26,1,.54,2.13.62,2.6a18.94,18.94,0,0,1-3.07.93.5.5,0,0,0-.18.89,14.37,14.37,0,0,1,1.84,1.59l-.32.12A1.53,1.53,0,0,0,37,40.19a9.16,9.16,0,0,0,0,1.39,7.93,7.93,0,0,1,0,1c-1.12.87-5.15-.88-7.71-2.44a.49.49,0,0,0-.51,0,.48.48,0,0,0-.25.43V47.6c-.54,0-1.36,0-2.62,0H10c.91-1.45,2.52-4.33,1.38-10.25A25.7,25.7,0,0,0,8.62,30a18.13,18.13,0,0,1-2.49-8.84C6,13.76,7.37,4.93,18.86,2.18c6.57-1.58,17.77,1,21.7,9.9,1,2.27.51,5.11.11,7.39a18.23,18.23,0,0,0-.35,2.86c0,1.92,1.72,5.56,2.75,7.56A.54.54,0,0,1,42.84,30.61Z"/></g><g id="aa9498d0-19c1-4b54-9a49-f0899ba07adb" data-name="LABELS"><text transform="translate(0.64 55.06)" font-size="6" font-family="Roboto-Regular, Roboto">head</text></g></svg>