<svg xmlns="http://www.w3.org/2000/svg" viewBox="0 0 50 50"><defs><style>.cls-1{font-size:6px;font-family:Roboto-Regular, Roboto;}</style></defs><g id="ICONS"><path d="M47.46,26.06h-4v-6.5a3.59,3.59,0,0,0-7.18,0V22a.5.5,0,0,0,.5.5.5.5,0,0,0,.5-.5V19.56a2.59,2.59,0,0,1,5.18,0v6.5H1.79a.5.5,0,0,0-.5.5V47.32a.5.5,0,0,0,.5.5H47.46a.5.5,0,0,0,.5-.5V26.56A.5.5,0,0,0,47.46,26.06ZM16.23,35.24H32.84V46.82H16.23Zm16.61-1H16.23V27.06H32.84ZM2.29,27.06H15.23V46.82H2.29ZM47,46.82H33.84V27.06h9a.39.39,0,0,0,.3,0H47Z"/><path d="M16,16.18H33a.5.5,0,0,0,.5-.5V9.81a.48.48,0,0,0-.17-.37L29.53,6v-4a.5.5,0,0,0-.5-.5H20.22a.5.5,0,0,0-.5.49l0,4.09-4,3.39a.49.49,0,0,0-.17.38v5.9A.5.5,0,0,0,16,16.18ZM16.5,10l4-3.39a.49.49,0,0,0,.18-.38l0-3.81h7.81V6.18a.51.51,0,0,0,.16.37L32.49,10v5.15h-16Z"/><circle cx="24.73" cy="31.2" r="0.74"/><path d="M20.21,32a.74.74,0,1,0-.74-.74A.74.74,0,0,0,20.21,32Z"/><path d="M29.22,31.93a.74.74,0,1,0-.74-.74A.74.74,0,0,0,29.22,31.93Z"/><path d="M12.86,33.8a.74.74,0,1,0,0,1.48.74.74,0,0,0,0-1.48Z"/><path d="M36.26,33.81a.74.74,0,1,0,.75.74A.74.74,0,0,0,36.26,33.81Z"/></g><g id="LABELS"><text class="cls-1" transform="translate(0.35 54.89)">kitchen</text></g></svg>