<svg xmlns="http://www.w3.org/2000/svg" viewBox="0 0 50 50"><g id="aabeb767-ef8e-4d8d-8293-362cdc47c7bd" data-name="ICONS"><path d="M38,13.4A13.27,13.27,0,1,0,21.34,26.21L22.8,49.4a.51.51,0,0,0,.5.47h3.21a.5.5,0,0,0,.5-.48l1.17-23.18A13.29,13.29,0,0,0,38,13.4ZM23.77,48.87,22.36,26.44a12.66,12.66,0,0,0,2.39.23,12.81,12.81,0,0,0,2.42-.23L26,48.87Zm1-23.2A12.27,12.27,0,1,1,37,13.4,12.28,12.28,0,0,1,24.75,25.67Z"/><path d="M20,5a10.13,10.13,0,0,0-4.4,5.74,9.94,9.94,0,0,0,.16,5.83.49.49,0,0,0,.47.34l.16,0a.51.51,0,0,0,.31-.64A9,9,0,0,1,16.53,11a9.11,9.11,0,0,1,4-5.17A.5.5,0,1,0,20,5Z"/></g><g id="a857217f-fe01-4b06-a818-11cc960e0842" data-name="LABELS"><text transform="translate(0.05 55.13)" font-size="6" font-family="Roboto-Regular, Roboto">map-pin-two</text></g></svg>