<svg id="ed7f8460-445a-484e-a383-5128ccf1749e" data-name="ICONS" xmlns="http://www.w3.org/2000/svg" viewBox="0 0 50 50"><path d="M46.17,13a.5.5,0,0,0-.37.6,11.93,11.93,0,0,1-1.11,7.78.5.5,0,0,0,.24.67.54.54,0,0,0,.21.05.49.49,0,0,0,.45-.29,13,13,0,0,0,1.18-8.45A.49.49,0,0,0,46.17,13Z"/><path d="M18.71,9.58l-.07,0,.22.18Z"/><path d="M24,35.69a.53.53,0,0,0,.28-.18l2.91-4a5.24,5.24,0,0,0,.46-.79c-.1.12-.21.23-.3.36Z" fill="none"/><path d="M41.52,9.24a7.33,7.33,0,0,0-6.91-.6A14.61,14.61,0,0,0,27.82,14a1.37,1.37,0,0,0-.13.2l-.05,0,0,.09c-2.35,3.42-3.26,7.44-2.36,10.57a5.11,5.11,0,0,1,.13,2.29v0a4.61,4.61,0,0,1-.78,1.87l-2.36,3.28-1.17-3.27a4.63,4.63,0,0,1-.23-2v0a5.17,5.17,0,0,1,.75-2.16c1.73-2.76,2-6.88.67-10.81,0,0,0-.07,0-.1s0,0,0-.05,0-.15-.07-.23a14.67,14.67,0,0,0-5-7,7.35,7.35,0,0,0-6.81-1.33c-4.34,1.55-6.08,7.82-3.88,14a1.45,1.45,0,0,0,.09.22.13.13,0,0,0,0,.06s0,0,0,0c1.48,3.89,4.28,6.94,7.38,8A4.83,4.83,0,0,1,17,30.54l2.18,6.1-2.64,3.67a2.16,2.16,0,0,0-.38,1.62A2.2,2.2,0,0,0,17,43.34a2.13,2.13,0,0,0,1.26.41A2.17,2.17,0,0,0,20,42.84l.88-1.22.7,2A2.19,2.19,0,0,0,23.67,45a2.08,2.08,0,0,0,.73-.13,2.17,2.17,0,0,0,1.31-2.78L24,37.33l4.11-5.72a4.56,4.56,0,0,1,1.5-1.33h0a5,5,0,0,1,2.25-.63c3.26-.15,6.79-2.3,9.29-5.62,0,0,0,0,.05-.05a.08.08,0,0,0,0-.05c.05-.06.11-.12.16-.19h0C45.2,18.43,45.26,11.93,41.52,9.24Zm-30.9-3A5,5,0,0,1,12.35,6,7.16,7.16,0,0,1,16.5,7.48,11.29,11.29,0,0,1,18,8.77L6.48,12.88C6.75,9.7,8.22,7.14,10.62,6.28ZM6.44,14,18.71,9.58a15.12,15.12,0,0,1,2.41,4.26L7.28,18.78A14.79,14.79,0,0,1,6.44,14Zm3.83,10a14.64,14.64,0,0,1-2.63-4.23l13.78-4.92a14.51,14.51,0,0,1,.65,4.93.5.5,0,0,0-.17,0l-11.47,4.1A.54.54,0,0,0,10.27,23.94Zm6.08,4a6,6,0,0,0-2.12-1.24,9.13,9.13,0,0,1-3.21-2L22,20.79a9,9,0,0,1-1.23,3.56,6.26,6.26,0,0,0-.86,2.3Zm1.56,2.3a5.46,5.46,0,0,0-.82-1.5l2.72-1a5.73,5.73,0,0,0,.31,1.68l1.4,3.92-1.67,2.32Zm6.86,12.24a1.17,1.17,0,0,1-2.21.79l-.93-2.61,1.67-2.32ZM27.31,31,19.23,42.26a1.18,1.18,0,0,1-1.91-1.37L25.4,29.66a5.34,5.34,0,0,0,.76-1.53l2.35,1.69A5.3,5.3,0,0,0,27.31,31Zm4.51-2.38a6.1,6.1,0,0,0-2.38.6l-3-2.18a6,6,0,0,0-.19-2.45A9.25,9.25,0,0,1,26,20.85l9.43,6.78A9.25,9.25,0,0,1,31.82,28.65Zm4.57-1.54L36.28,27l-9.89-7.1a.48.48,0,0,0-.18-.08,14.86,14.86,0,0,1,2-4.57l11.89,8.54A14.4,14.4,0,0,1,36.39,27.11ZM40.69,23,28.75,14.41A15.15,15.15,0,0,1,32.25,11l10.57,7.6A14.91,14.91,0,0,1,40.69,23ZM33.16,10.41a10.2,10.2,0,0,1,1.78-.83,8.3,8.3,0,0,1,2.76-.51,5.52,5.52,0,0,1,3.24,1c2.06,1.49,2.77,4.36,2.14,7.49Z"/><path d="M49.51,15.18a.5.5,0,1,0-1,.06,12.34,12.34,0,0,1-.67,4.47.5.5,0,0,0,.32.63.41.41,0,0,0,.16,0A.49.49,0,0,0,48.8,20,13,13,0,0,0,49.51,15.18Z"/><path d="M5.93,6.77a.5.5,0,0,0-.16-.68.49.49,0,0,0-.69.16A13,13,0,0,0,3,14.52a.51.51,0,0,0,.5.43h.06A.5.5,0,0,0,4,14.39,12,12,0,0,1,5.93,6.77Z"/><path d="M2.36,7.43a.5.5,0,0,0-.66.25A13.11,13.11,0,0,0,.47,12.42a.5.5,0,0,0,.47.52H1a.5.5,0,0,0,.5-.47A12.22,12.22,0,0,1,2.61,8.1.51.51,0,0,0,2.36,7.43Z"/></svg>