<svg xmlns="http://www.w3.org/2000/svg" viewBox="0 0 50 50"><g id="f77d54e8-10b7-4580-8f38-87a7c2ae4102" data-name="ICONS"><path d="M44.21,4.17a2.35,2.35,0,0,0-2.35,2.34,2.31,2.31,0,0,0,.48,1.41L33.59,19.8A8.92,8.92,0,0,0,30,18.18l1-4.36h.17a2.18,2.18,0,1,0-1.13-.32l-1,4.53c-.25,0-.51,0-.77,0a8.82,8.82,0,0,0-5.76,2.14L10.12,8.86a3.58,3.58,0,1,0-3,1.64,3.54,3.54,0,0,0,2.34-.89L21.79,20.83a9.59,9.59,0,0,0-2.57,6L6.47,25.46a1.91,1.91,0,0,0-3.77.46,1.91,1.91,0,0,0,3.74.55l12.78,1.4A9.5,9.5,0,0,0,21.77,34l-5.69,4.56a4.56,4.56,0,1,0,1,2.8,4.53,4.53,0,0,0-.45-1.94l5.88-4.72a8.87,8.87,0,0,0,5.79,2.16,9.26,9.26,0,0,0,9.08-9.41,9.55,9.55,0,0,0-3-7L43.1,8.57a2.34,2.34,0,1,0,1.11-4.4Zm-13,6.33A1.17,1.17,0,1,1,30,11.67,1.16,1.16,0,0,1,31.2,10.5ZM12.48,44.92a3.59,3.59,0,1,1,3.58-3.59A3.59,3.59,0,0,1,12.48,44.92ZM7.11,9.5A2.59,2.59,0,1,1,9.7,6.92,2.59,2.59,0,0,1,7.11,9.5ZM4.61,26.83a.92.92,0,1,1,.92-.91A.91.91,0,0,1,4.61,26.83Zm31.75.59a8.25,8.25,0,0,1-8.08,8.41,8.25,8.25,0,0,1-8.08-8.41A8.26,8.26,0,0,1,28.28,19,8.26,8.26,0,0,1,36.36,27.42ZM44.21,7.86a1.35,1.35,0,1,1,1.34-1.35A1.34,1.34,0,0,1,44.21,7.86Z"/><path d="M26.78,21.33A3.25,3.25,0,1,0,30,24.58,3.26,3.26,0,0,0,26.78,21.33Zm0,5.5A2.25,2.25,0,1,1,29,24.58,2.25,2.25,0,0,1,26.78,26.83Z"/></g><g id="a53d7bf3-9897-4427-821c-5d25b907f6af" data-name="LABELS"><text transform="translate(-0.09 54.97)" font-size="6" font-family="Roboto-Regular, Roboto">neu<tspan x="9.8" y="0" letter-spacing="-0.01em">r</tspan><tspan x="11.77" y="0">ons</tspan></text></g></svg>