<svg xmlns="http://www.w3.org/2000/svg" viewBox="0 0 50 50"><g id="bdcb6e6b-8e9e-426c-acb8-e2419be15fef" data-name="ICONS"><path d="M35,22.2c-.81-4.91-3.63-8.72-7.16-10.07a10.32,10.32,0,0,0,4.59-3.05,11.46,11.46,0,0,0,2.13-7.23.52.52,0,0,0-.18-.35.5.5,0,0,0-.39-.11A11.47,11.47,0,0,0,27.31,5,10.61,10.61,0,0,0,26,7.12c0-.13-.05-.25-.09-.37a12.74,12.74,0,0,0-4.13-6,.51.51,0,0,0-.71.06.5.5,0,0,0,.07.7A11.75,11.75,0,0,1,24.93,7a5,5,0,0,1-.52,4.6C19.88,12,16,16.31,15,22.22A14.56,14.56,0,0,0,9.89,33.27,14.94,14.94,0,0,0,25,48,14.94,14.94,0,0,0,40.11,33.27,14.54,14.54,0,0,0,35,22.2ZM26.16,10a.32.32,0,0,0,0-.09,8.74,8.74,0,0,1,1.9-4.28A10.07,10.07,0,0,1,33.52,2.5,10.22,10.22,0,0,1,31.6,8.45,10.18,10.18,0,0,1,26,11.61s-.07,0-.1,0l-.31,0A5.13,5.13,0,0,0,26.16,10ZM25,47A13.94,13.94,0,0,1,10.89,33.27a13.55,13.55,0,0,1,4.91-10.4.53.53,0,0,0,.17-.31c.9-5.77,4.69-10,9-10s8.11,4.18,9,9.94a.48.48,0,0,0,.17.31,13.57,13.57,0,0,1,4.94,10.42A13.94,13.94,0,0,1,25,47Z"/></g><g id="a9d3ddeb-7770-4c13-96d6-c982ece7f996" data-name="LABELS"><text transform="translate(-0.29 55.02)" font-size="6" font-family="Roboto-Regular, Roboto">pear</text></g></svg>