<svg id="f0d88642-0f6e-4198-8e85-16396080b464" data-name="ICONS" xmlns="http://www.w3.org/2000/svg" viewBox="0 0 50 50"><path d="M39.93,14.64a3.81,3.81,0,0,0-2.82,1.25v-.23a3.82,3.82,0,0,0-6.64-2.57,3.82,3.82,0,0,0-6.63-2.45V3.89A3.82,3.82,0,0,0,20,.08h0A3.75,3.75,0,0,0,17.33,1.2,3.76,3.76,0,0,0,16.2,3.89V25.57a10.84,10.84,0,0,0-5.78-5,3.21,3.21,0,0,0-4,4.72l12.75,19.2V49a.5.5,0,0,0,.5.5H38.77a.5.5,0,0,0,.5-.5V44.83l0-2.44a32.16,32.16,0,0,0,4.51-15.77V18.46A3.83,3.83,0,0,0,39.93,14.64Zm2.82,12a31.55,31.55,0,0,1-1.81,9.84A32,32,0,0,1,38.31,42a.48.48,0,0,0-.07.26l0,6.25H20.14V44.33a.54.54,0,0,0-.08-.28L7.21,24.72A2.21,2.21,0,0,1,10,21.48,10.1,10.1,0,0,1,13.84,24a11.13,11.13,0,0,1,2,3.17c.16.38.28.71.36.95a.49.49,0,0,0,.55.34A.5.5,0,0,0,17.2,28V3.89A2.83,2.83,0,0,1,20,1.08h0a2.81,2.81,0,0,1,2.82,2.81V22.76a.5.5,0,0,0,1,0V13.22a2.82,2.82,0,0,1,5.64,0v9.71a.5.5,0,0,0,.5.5.51.51,0,0,0,.5-.5V15.66a2.82,2.82,0,1,1,5.63,0v7.27a.51.51,0,0,0,.5.5.5.5,0,0,0,.5-.5V18.45a2.82,2.82,0,0,1,5.64,0Z"/></svg>