<svg xmlns="http://www.w3.org/2000/svg" viewBox="0 0 50 50"><g id="fa6207e3-d03f-4bdf-aff2-87fd027eb3ba" data-name="ICONS"><path d="M42.23,11.38H27c2.31-.64,5.63-2,6.48-4.92.17-.6.67-2.66-.51-3.76s-3.35-.44-4-.2c-2.68,1.06-3.84,4.17-4.34,6.44C24.13,6.67,23,3.56,20.29,2.5c-.62-.24-2.74-.95-4,.2s-.68,3.16-.51,3.76c.85,2.88,4.17,4.28,6.48,4.92H7a.5.5,0,0,0-.5.5v7a.5.5,0,0,0,.5.5H9V46.69a.5.5,0,0,0,.5.5H39.72a.5.5,0,0,0,.5-.5V35.44a.58.58,0,0,0,0-.14v-5a.8.8,0,0,0,0-.15V19.38h2a.5.5,0,0,0,.5-.5v-7A.5.5,0,0,0,42.23,11.38Zm-3,8V29.77H27.64V19.38H39.22ZM29.33,3.43a5,5,0,0,1,1.76-.37,1.63,1.63,0,0,1,1.15.37c.61.57.51,1.83.24,2.75-.9,3-5.39,4.21-7.15,4.55C25.55,9,26.38,4.59,29.33,3.43ZM16.77,6.18C16.5,5.26,16.4,4,17,3.43a1.63,1.63,0,0,1,1.15-.37,5,5,0,0,1,1.76.37c2.95,1.16,3.78,5.57,4,7.3C22.16,10.39,17.67,9.21,16.77,6.18ZM7.52,18.38v-6h13v6h-13ZM21.61,46.19H10V35.8H21.61Zm0-11.39H10.06v-4H21.61Zm0-5H10V19.38H21.61Zm5,16.42h-4V19.38h4ZM22.11,18.38h-.59v-6h6.21v6H22.11ZM39.22,46.19H27.64V35.8H39.22Zm0-11.39H27.64v-4H39.25Zm2.48-16.42h-13v-6h13Z"/></g><g id="af9f63ec-a345-47e9-83fc-1318fe8b2d9b" data-name="LABELS"><text transform="translate(0 54.94)" font-size="6" font-family="Roboto-Regular, Roboto">p<tspan x="3.37" y="0" letter-spacing="-0.01em">r</tspan><tspan x="5.34" y="0">esent</tspan></text></g></svg>