<svg id="ba7dc94a-ef43-45e3-b753-b7a209308198" data-name="ICONS" xmlns="http://www.w3.org/2000/svg" viewBox="0 0 50 50"><path d="M15,40.07h19.8a.5.5,0,0,0,.5-.5s0-.06,0-.09H14.49s0,.06,0,.09A.5.5,0,0,0,15,40.07Z" fill="none"/><path d="M39,19.29a1.29,1.29,0,1,0,1.28,1.28A1.28,1.28,0,0,0,39,19.29Z"/><path d="M34.77,39.07H15a.51.51,0,0,0-.5.5.5.5,0,0,0,.5.5h19.8a.5.5,0,0,0,.5-.5A.51.51,0,0,0,34.77,39.07Z"/><path d="M35.26,33H15a.51.51,0,0,0-.5.5.5.5,0,0,0,.5.5H35.26a.5.5,0,0,0,.5-.5A.51.51,0,0,0,35.26,33Z"/><path d="M48,13.78H40.52V5.86c0-1.6-1.71-2.9-3.81-2.9H12.77C10.67,3,9,4.26,9,5.86v7.92H1.29a.5.5,0,0,0-.5.5V38.23a.5.5,0,0,0,.5.5H9v7.81a.5.5,0,0,0,.5.5H40.33a.5.5,0,0,0,.5-.5V38.73H48a.5.5,0,0,0,.5-.5V14.28A.5.5,0,0,0,48,13.78ZM10,5.86c0-1,1.28-1.9,2.8-1.9H36.71c1.52,0,2.81.87,2.81,1.9v7.92H10ZM10,46V27H39.83V38.16s0,0,0,.07,0,0,0,.07V46Zm37.49-8.31H40.83V26.5a.5.5,0,0,0-.5-.5H9.47a.5.5,0,0,0-.5.5V37.73H1.79V14.78H47.46Z"/></svg>