<svg id="a6351785-ff5e-4b1d-83c4-18d5cd8e1dc0" data-name="ICONS" xmlns="http://www.w3.org/2000/svg" viewBox="0 0 50 50"><path d="M33.79,11.26a13.63,13.63,0,0,0-4.3.69,10.47,10.47,0,0,0-4.35-1c-.08-.45-.14-2.06,2.33-4,3-2.38,8.07-1,8.13-1a.53.53,0,1,0,.28-1c-.23-.07-5.66-1.53-9.07,1.19a11.71,11.71,0,0,0-1.23,1.15A6.92,6.92,0,0,0,23.66,5a8.79,8.79,0,0,0-5.95-1.29.53.53,0,0,0-.45.6,8.88,8.88,0,0,0,3,5.32,7.65,7.65,0,0,0,3.82,1.33s0,.07,0,.11a10.09,10.09,0,0,0-3.62,1.05,13.33,13.33,0,0,0-4.23-.68c-8.32,0-15.1,7.61-15.1,17s6.78,17,15.1,17a13.11,13.11,0,0,0,3.49-.46A10.38,10.38,0,0,0,25.1,46.4a10.52,10.52,0,0,0,5.51-1.59,13.63,13.63,0,0,0,3.18.38c8.32,0,15.09-7.61,15.09-17S42.11,11.26,33.79,11.26ZM18.44,4.68A7.35,7.35,0,0,1,23,5.83,5.89,5.89,0,0,1,24.75,8a.5.5,0,0,0,.15.17,5.19,5.19,0,0,0-.76,1.73,6.45,6.45,0,0,1-3.27-1.12A7.34,7.34,0,0,1,18.44,4.68ZM2.19,28.38c0-8.77,6.29-15.91,14-15.91a12.8,12.8,0,0,1,3,.36c-4.51,3-7.36,9-7.36,15.86,0,6.37,2.59,12.24,6.69,15.37a12.32,12.32,0,0,1-2.28.22C8.48,44.28,2.19,37.15,2.19,28.38ZM20.07,43.86h0c-4.37-2.7-7.2-8.65-7.2-15.16,0-6.85,3.16-13.1,7.87-15.55h0A9.28,9.28,0,0,1,29.23,13h0c4.85,2.37,8.1,8.68,8.1,15.68,0,6.39-2.73,12.26-7,15l-.13.08A9.33,9.33,0,0,1,20.07,43.86Zm13.72.27A11.69,11.69,0,0,1,31.84,44c4-3.15,6.56-9,6.56-15.26,0-6.86-3-13.09-7.58-16a12.84,12.84,0,0,1,3-.36c7.73,0,14,7.14,14,15.91S41.52,44.13,33.79,44.13Z"/></svg>