<svg id="b893ac69-19dd-4558-ada3-b65a3a86be60" data-name="ICONS" xmlns="http://www.w3.org/2000/svg" viewBox="0 0 50 50"><path d="M10.57,8.51a2.08,2.08,0,0,0-2.05,0,1.87,1.87,0,0,0-.69.8,2.78,2.78,0,0,0-.24,1.19v.23a2.58,2.58,0,0,0,.25,1.17,1.78,1.78,0,0,0,.69.79,2,2,0,0,0,1,.28,2,2,0,0,0,.35,0l1,.78.6-.53-.76-.6a1.93,1.93,0,0,0,.58-.76,2.81,2.81,0,0,0,.21-1.13v-.2a2.64,2.64,0,0,0-.25-1.19A1.81,1.81,0,0,0,10.57,8.51Zm0,2.21a2,2,0,0,1-.26,1.09.85.85,0,0,1-.74.38.83.83,0,0,1-.74-.39,1.93,1.93,0,0,1-.26-1.1v-.22a1.93,1.93,0,0,1,.26-1.09.92.92,0,0,1,1.48,0,1.94,1.94,0,0,1,.26,1.1Z"/><path d="M15.21,12.53a1.57,1.57,0,0,0,.48-1.2v-3h-.95v3.06c0,.56-.28.84-.82.84a.89.89,0,0,1-.6-.2.9.9,0,0,1-.21-.66v-3h-.95v3.07a1.54,1.54,0,0,0,.48,1.17,1.88,1.88,0,0,0,1.28.43A1.82,1.82,0,0,0,15.21,12.53Z"/><rect x="16.53" y="8.3" width="0.95" height="4.6"/><path d="M20.11,13a2,2,0,0,0,1.31-.43A1.67,1.67,0,0,0,22,11.37H21a.91.91,0,0,1-.25.62,1,1,0,0,1-.66.2.79.79,0,0,1-.71-.34,2.06,2.06,0,0,1-.23-1.09v-.35a1.94,1.94,0,0,1,.25-1.06A.81.81,0,0,1,20.13,9a1,1,0,0,1,.65.2,1,1,0,0,1,.24.65H22a1.79,1.79,0,0,0-.56-1.2,1.88,1.88,0,0,0-1.28-.42,1.78,1.78,0,0,0-1,.27,1.69,1.69,0,0,0-.67.77,2.72,2.72,0,0,0-.24,1.17v.28a2.44,2.44,0,0,0,.51,1.64A1.72,1.72,0,0,0,20.11,13Z"/><polygon points="23.54 11.59 24.03 11.05 25.21 12.9 26.34 12.9 24.66 10.34 26.3 8.3 25.13 8.3 23.96 9.81 23.54 10.38 23.54 8.3 22.59 8.3 22.59 12.9 23.54 12.9 23.54 11.59"/><path d="M28.36,13a2,2,0,0,0,1.31-.43,1.67,1.67,0,0,0,.55-1.17h-.95A.91.91,0,0,1,29,12a1,1,0,0,1-.66.2.79.79,0,0,1-.71-.34,2.06,2.06,0,0,1-.23-1.09v-.35a1.94,1.94,0,0,1,.25-1.06A.81.81,0,0,1,28.38,9a1,1,0,0,1,.65.2,1,1,0,0,1,.24.65h.95a1.79,1.79,0,0,0-.56-1.2,1.88,1.88,0,0,0-1.28-.42,1.78,1.78,0,0,0-1,.27,1.69,1.69,0,0,0-.67.77,2.72,2.72,0,0,0-.24,1.17v.28A2.44,2.44,0,0,0,27,12.37,1.72,1.72,0,0,0,28.36,13Z"/><path d="M31.78,12h1.66l.32,1h1L33,8.3h-.88l-1.71,4.6h1Zm.82-2.49.58,1.73H32Z"/><path d="M38.4,10.48a1.41,1.41,0,0,0,.21-.79,1.27,1.27,0,0,0-.44-1,2,2,0,0,0-1.26-.36H35.2v4.6h.95V11.22h.75l.86,1.68h1v0l-1-1.88A1.47,1.47,0,0,0,38.4,10.48Zm-.94-.21a.78.78,0,0,1-.55.18h-.76V9.07h.76a.81.81,0,0,1,.57.18.73.73,0,0,1,.18.52A.65.65,0,0,1,37.46,10.27Z"/><polygon points="40.28 10.91 42.1 10.91 42.1 10.16 40.28 10.16 40.28 9.07 42.41 9.07 42.41 8.3 39.33 8.3 39.33 12.9 42.42 12.9 42.42 12.14 40.28 12.14 40.28 10.91"/><path d="M43.68.59H6.32a5,5,0,0,0-5,5V43a5,5,0,0,0,5,5H43.68a5,5,0,0,0,5-5V5.62A5,5,0,0,0,43.68.59ZM47.7,43a4,4,0,0,1-4,4H6.32a4,4,0,0,1-4-4V5.62a4,4,0,0,1,4-4H43.68a4,4,0,0,1,4,4Z"/><path d="M36.31,25.83h-6.9V18.94a.5.5,0,0,0-.5-.5H21.37a.5.5,0,0,0-.5.5v6.89H14a.5.5,0,0,0-.5.5v7.54a.5.5,0,0,0,.5.5h6.89v6.9a.51.51,0,0,0,.5.5h7.54a.5.5,0,0,0,.5-.5v-6.9h6.9a.5.5,0,0,0,.5-.5V26.33A.5.5,0,0,0,36.31,25.83Zm-.5,7.54h-6.9a.51.51,0,0,0-.5.5v6.9H21.87v-6.9a.5.5,0,0,0-.5-.5H14.48V26.83h6.89a.5.5,0,0,0,.5-.5V19.44h6.54v6.89a.5.5,0,0,0,.5.5h6.9Z"/></svg>