<svg id="aa9ee1c9-b80e-4204-8541-adb901983fda" data-name="ICONS" xmlns="http://www.w3.org/2000/svg" viewBox="0 0 50 50"><path d="M44.79,12V6.1a2.7,2.7,0,1,0-1,0v5.83H41.68V8.49a2.93,2.93,0,0,0-2.92-2.93H11A2.93,2.93,0,0,0,8.11,8.49v3.4H6V6.11a2.71,2.71,0,1,0-1,0v5.84a2.93,2.93,0,0,0-2.63,2.9V21A2.93,2.93,0,0,0,5.31,24h2.8v3.19A2.93,2.93,0,0,0,11,30.08h8.29V34H7.51A2.51,2.51,0,0,0,5,36.5V48.05a.51.51,0,0,0,.51.51H44.28a.51.51,0,0,0,.37-.15.51.51,0,0,0,.14-.36V36.5A2.5,2.5,0,0,0,42.29,34H30V30.08h8.77a2.93,2.93,0,0,0,2.92-2.93V24H44A2.93,2.93,0,0,0,46.89,21V14.82A2.92,2.92,0,0,0,44.79,12ZM42.7,3.44a1.68,1.68,0,1,1,1.68,1.68A1.68,1.68,0,0,1,42.7,3.44Zm-38.79,0a1.71,1.71,0,1,1,3.41,0,1.71,1.71,0,0,1-3.41,0Zm1.4,19.5A1.91,1.91,0,0,1,3.4,21V14.82a1.92,1.92,0,0,1,1.91-1.91h2.8v10ZM43.77,36.5v11H6v-11A1.49,1.49,0,0,1,7.51,35H42.29A1.49,1.49,0,0,1,43.77,36.5ZM29,34H20.35V30.08H29Zm11.69-6.84a1.9,1.9,0,0,1-1.9,1.91H11a1.91,1.91,0,0,1-1.91-1.91V8.49A1.91,1.91,0,0,1,11,6.58H38.76a1.9,1.9,0,0,1,1.9,1.91V27.15ZM45.87,21A1.91,1.91,0,0,1,44,22.93H41.68v-10H44a1.92,1.92,0,0,1,1.91,1.91Z"/><path d="M20.54,16.06a3.23,3.23,0,1,0-3.23,3.23A3.23,3.23,0,0,0,20.54,16.06Zm-3.23,2.21a2.21,2.21,0,1,1,2.2-2.21A2.21,2.21,0,0,1,17.31,18.27Z"/><path d="M32.42,12.83a3.23,3.23,0,1,0,3.23,3.23A3.23,3.23,0,0,0,32.42,12.83Zm0,5.43a2.2,2.2,0,1,1,2.2-2.2A2.21,2.21,0,0,1,32.42,18.26Z"/><path d="M30.52,22.63a8.84,8.84,0,0,1-11-.07.52.52,0,0,0-.65.8A9.94,9.94,0,0,0,25,25.55a9.76,9.76,0,0,0,6.12-2.12.51.51,0,0,0,.08-.71A.51.51,0,0,0,30.52,22.63Z"/></svg>