<svg xmlns="http://www.w3.org/2000/svg" viewBox="0 0 50 50"><g id="fe67e192-1ff6-4f78-bbd7-e886bde9a10b" data-name="ICONS"><path d="M49.15,17.5a.5.5,0,0,0-.3-.23l-3.39-1a.49.49,0,0,0-.61.35l-.41,1.43L29.76,13.94l.29-1a.51.51,0,0,0-.05-.38.52.52,0,0,0-.3-.24L17.63,8.9l.29-1a.5.5,0,0,0-.34-.62L7.35,4.38h0l-1.77-.5a.5.5,0,0,0-.38,0,.48.48,0,0,0-.24.3v0a5.44,5.44,0,0,0-2.68,9.47v0a.51.51,0,0,0,.05.38.52.52,0,0,0,.3.24l1.77.5h0l10.23,2.89.13,0a.5.5,0,0,0,.48-.37l.29-1,7.07,2a3.12,3.12,0,0,0-.16,4.5L11.57,45.14H10.13a.5.5,0,0,0-.5.5.5.5,0,0,0,.5.5h1.75a.61.61,0,0,0,.24-.06l.05,0a.36.36,0,0,0,.14-.16l0,0L23.24,23.51a3,3,0,0,0,.93.31V45.14H23a.5.5,0,0,0-.5.5.5.5,0,0,0,.5.5h3.5a.5.5,0,0,0,.5-.5.5.5,0,0,0-.5-.5H25.17V23.82a3,3,0,0,0,.94-.31L37,45.86l0,0a.36.36,0,0,0,.14.16l0,0a.61.61,0,0,0,.24.06h1.75a.5.5,0,0,0,.5-.5.5.5,0,0,0-.5-.5H37.78L26.93,22.91a3.13,3.13,0,0,0,.88-2.17,3.39,3.39,0,0,0-.14-.91h0a.51.51,0,0,0,.49-.36l.28-1,14.68,4.15-.4,1.43a.5.5,0,0,0,0,.38.59.59,0,0,0,.3.24l3.39.95.13,0a.51.51,0,0,0,.49-.36l2.08-7.4A.51.51,0,0,0,49.15,17.5ZM15.78,15.45l1.58-5.58L29,13.14l-1.58,5.58Zm1-7.36L14.4,16.68l-11-3.12L5.79,5ZM1.57,8.42A4.46,4.46,0,0,1,4.64,5.36L2.58,12.63A4.46,4.46,0,0,1,1.57,8.42ZM23.84,18.77l2.57.72a2.14,2.14,0,1,1-2.57-.72Zm5.65-3.87,14.68,4.15-.74,2.61L28.75,17.51Zm16.79,9.62-2.42-.68,1.81-6.43,2.43.68Z"/></g><g id="f746d055-8822-4735-bf46-b2cfecca5819" data-name="LABELS"><text transform="translate(0.01 55.08)" font-size="6" font-family="Roboto-Regular, Roboto">telescope</text></g></svg>