<svg xmlns="http://www.w3.org/2000/svg" viewBox="0 0 50 50"><defs><style>.cls-1{font-size:6px;font-family:Roboto-Regular, Roboto;}.cls-2{letter-spacing:-0.01em;}</style></defs><g id="ICONS"><path d="M39.87,11.38A21.36,21.36,0,0,0,25.14,4.81V1.44a.5.5,0,0,0-.5-.5.5.5,0,0,0-.5.5V4.82A20.94,20.94,0,0,0,3.72,25.72a.48.48,0,0,0,.26.43.47.47,0,0,0,.5,0,12.44,12.44,0,0,1,6.09-1.87,12.61,12.61,0,0,1,7.06,1.9.5.5,0,0,0,.27.08.5.5,0,0,0,.26-.08,12.4,12.4,0,0,1,6.25-1.89v20.2a3.54,3.54,0,0,1-1.09,2.65,3.26,3.26,0,0,1-2.45.92,3.41,3.41,0,0,1-3.05-3.57.49.49,0,0,0-.48-.51.5.5,0,0,0-.52.48,4.43,4.43,0,0,0,4,4.6h.29A4.26,4.26,0,0,0,24,47.85a4.48,4.48,0,0,0,1.4-3.38V24.3a12.23,12.23,0,0,1,5.77,1.84.51.51,0,0,0,.53,0,12.36,12.36,0,0,1,13.08,0,.51.51,0,0,0,.77-.43A21.33,21.33,0,0,0,39.87,11.38ZM38.48,23.27a13.31,13.31,0,0,0-7,1.86,13.24,13.24,0,0,0-6.53-1.86h0a13.43,13.43,0,0,0-7,1.89A13.61,13.61,0,0,0,11,23.26h-.49a13.36,13.36,0,0,0-5.79,1.57,19.94,19.94,0,0,1,19.9-19,20.37,20.37,0,0,1,14.5,6.27,20.24,20.24,0,0,1,5.39,12.77A13.29,13.29,0,0,0,38.48,23.27Z"/></g><g id="LABELS"><text class="cls-1" transform="translate(0 54.9)">umb<tspan class="cls-2" x="11.93" y="0">r</tspan><tspan x="13.91" y="0">ella</tspan></text></g></svg>