<svg xmlns="http://www.w3.org/2000/svg" viewBox="0 0 50 50"><g id="b8021532-4fe5-4cc3-a25f-490fea85798a" data-name="ICONS"><path d="M48.78,13.38a.63.63,0,0,1-.3-.26.73.73,0,0,1-.1-.46,1.63,1.63,0,0,0-.21-.86,2,2,0,0,0-1.36-.86,1.25,1.25,0,0,0-1.05.23,1,1,0,0,0-.3.95,2.89,2.89,0,0,1-.07.92,2.26,2.26,0,0,1-.5,1.08,2.48,2.48,0,0,1-.86.56,17.61,17.61,0,0,1-1.63.7,2.09,2.09,0,0,0-1.16.76,2.12,2.12,0,0,0-.34,1,1.59,1.59,0,0,1,0,.24.78.78,0,0,1-.3,0,1.12,1.12,0,0,0-1,.22.89.89,0,0,0-.27.69,1,1,0,0,1,0,.29,1.74,1.74,0,0,1-1,1,2.12,2.12,0,0,1-.43.16,1.35,1.35,0,0,0,0-1.24A1.18,1.18,0,0,0,37,18c-.08,0-.2,0-.21,0a1.43,1.43,0,0,1,.05-.2,1.25,1.25,0,0,0,0-1.07,1.17,1.17,0,0,0-.58-.49.73.73,0,0,1-.3-.24.33.33,0,0,1,0-.13,1.33,1.33,0,0,0-.15-.39,2.32,2.32,0,0,0-2.06-.85h-.19c-.23,0-.92,0-1.05,0a1,1,0,0,1-.19,0l-.12,0-.23-.12a1,1,0,0,0-.9.12.49.49,0,0,1,.11-.14.48.48,0,0,0,.15-.51.5.5,0,0,0-.4-.35A7.88,7.88,0,0,1,29,13.14a3.59,3.59,0,0,0-.65-.27L28,12.8a2.71,2.71,0,0,0-.75,0c-.13,0-.17,0-.18,0a1,1,0,0,0-.28-.28,1.7,1.7,0,0,0-1.34-.22,73.42,73.42,0,0,1-10.26-.73A73.09,73.09,0,0,1,5.1,9.38a.51.51,0,0,0-.43.07.53.53,0,0,0-.21.39c0,.16,0,.35,0,.59l-.77-.51a.49.49,0,0,0-.77.44c0,.21,0,.52,0,.89a9,9,0,0,1,0,1.72,7.85,7.85,0,0,1-.77,1.58c-.28.51-.47.82-.6,1a2,2,0,0,0-.39.91,3.22,3.22,0,0,0,.08,1.06c.07.28.08.34,0,.45a.6.6,0,0,1-.26.23A1.09,1.09,0,0,0,.36,19a1,1,0,0,0,.15.75,1.79,1.79,0,0,1,.19.52.92.92,0,0,1,0,.32,3,3,0,0,0,0,.55,2.62,2.62,0,0,0,.23.77c.05.14.13.3.21.57a9.86,9.86,0,0,1,.26,1.32c.07.4.12.77.17,1.19l0,.43A2.43,2.43,0,0,0,2,26.59a1.53,1.53,0,0,0,.59.51c.11.06.24.13.42.25a4.79,4.79,0,0,1,1.33,1.27,3.51,3.51,0,0,1,.52,1.24.5.5,0,0,0,.43.39l1.82.21a10.63,10.63,0,0,0,3.57,2.08,11.15,11.15,0,0,0,2.7.54.51.51,0,0,0,.53-.5v-.23a1.65,1.65,0,0,1,1,.24,2.8,2.8,0,0,1,.89.89,3.21,3.21,0,0,1,.43.74,2.08,2.08,0,0,1,.1.43,1.28,1.28,0,0,0,.19.59,1.76,1.76,0,0,0,1.58.87,1.32,1.32,0,0,0,.84-.46c.15-.15.21-.2.32-.22a.93.93,0,0,1,.61.21c.14.1.19.18.37.49l.3.49a5.84,5.84,0,0,0,.49.69,1.76,1.76,0,0,1,.21.32,3.3,3.3,0,0,1,.3.73,2.57,2.57,0,0,0,.42.86,2.19,2.19,0,0,0,1.39.91h.23a1.36,1.36,0,0,0,1.25-.62,1.08,1.08,0,0,0,0-1,1,1,0,0,1-.11-.41c0-.31.23-.57.62-1a7,7,0,0,1,3-1.53l.1,0a1.8,1.8,0,0,1,1.09-.19.93.93,0,0,1,.37.21,2.72,2.72,0,0,0,.68.41c.49.22,1.86.63,2.27-.09.24-.43-.06-.84-.25-1.11l-.18-.23a5.27,5.27,0,0,1,.64-.17,5.31,5.31,0,0,1,1.78-.25,1.54,1.54,0,0,1,.65.34,1.39,1.39,0,0,0,1.06.37,1.45,1.45,0,0,0,.88-.43c.14-.13.18-.16.27-.16h0a.89.89,0,0,1,.75.6.41.41,0,0,1,0,.16,2.77,2.77,0,0,0,0,.72,1.09,1.09,0,0,0,.53,1,.74.74,0,0,0,.25.06l.06.2c0,.16.08.32.14.49a3.22,3.22,0,0,0,1,1.38,2.61,2.61,0,0,0,1.21.49.5.5,0,0,0,.5-.24,3,3,0,0,0,.47-1.58,4.09,4.09,0,0,0-.84-2.21,5,5,0,0,0-.53-.73,1.76,1.76,0,0,1-.25-.34,3.5,3.5,0,0,1-.37-2.65c.19-.71.7-1.23,1.82-2.37.27-.28.5-.49.68-.66a3.6,3.6,0,0,0,1-1.27A3.83,3.83,0,0,0,44.37,25a1.86,1.86,0,0,0-.08-.32.57.57,0,0,1,0-.32.26.26,0,0,1,.07-.14,1.14,1.14,0,0,0,.24-.44,1.76,1.76,0,0,0-.05-1.05c0-.17-.07-.23,0-.28a1.07,1.07,0,0,0,.44-.43,1.28,1.28,0,0,0,.14-.89.47.47,0,0,1,0-.29c.06-.19.28-.34.45-.45s.58-.4.42-.84l.13-.05a6.33,6.33,0,0,1,1-.3c.39-.1.82-.21.85-.67a.67.67,0,0,0-.48-.64.77.77,0,0,1-.25-.16c-.19-.23-.08-.93.24-1.49a3.57,3.57,0,0,1,1.1-1.07c.41-.28.87-.6.77-1.16A.89.89,0,0,0,48.78,13.38Zm-.84.95a4.34,4.34,0,0,0-1.39,1.39,2.49,2.49,0,0,0-.18,2.6c-.2.06-.43.13-.68.23-.78.32-1.28.64-1.14,1.14a.61.61,0,0,0,.05.12,1.63,1.63,0,0,0-.48.67,1.53,1.53,0,0,0,0,.78c0,.16,0,.18-.09.3a1.06,1.06,0,0,0-.42.43,1.23,1.23,0,0,0,0,1,.65.65,0,0,1,.05.46.34.34,0,0,1-.08.14,1.23,1.23,0,0,0-.25.54,1.51,1.51,0,0,0,.06.79c0,.07,0,.15.06.25a2.83,2.83,0,0,1-.25,1.75,2.65,2.65,0,0,1-.76.93c-.19.19-.43.4-.72.7-1.16,1.19-1.8,1.85-2.07,2.81a4.52,4.52,0,0,0,.48,3.43,3,3,0,0,0,.35.47,4.1,4.1,0,0,1,.44.61,3.18,3.18,0,0,1,.69,1.68,2,2,0,0,1-.16.75,1.67,1.67,0,0,1-.42-.22,2.18,2.18,0,0,1-.68-.93c0-.14-.08-.27-.12-.39-.09-.37-.21-.82-.68-.94h-.11a1,1,0,0,0,0-.15,2,2,0,0,1,0-.49,1.6,1.6,0,0,0,0-.44,1.89,1.89,0,0,0-1.74-1.43h0a1.34,1.34,0,0,0-.91.41.56.56,0,0,1-.31.19c-.09,0-.14,0-.35-.18a2.78,2.78,0,0,0-1-.52,5.44,5.44,0,0,0-2.22.26c-.86.18-1.24.32-1.4.72a1.17,1.17,0,0,0,.27,1.15,2.65,2.65,0,0,1-.73-.21,2,2,0,0,1-.48-.29,1.84,1.84,0,0,0-.73-.38,2.59,2.59,0,0,0-1.67.21l-.1,0a7.74,7.74,0,0,0-3.39,1.78,2.38,2.38,0,0,0-.9,1.67,2,2,0,0,0,.19.8s0,.12.07.12h0a.9.9,0,0,1-.46.07,1.22,1.22,0,0,1-.73-.53,1.33,1.33,0,0,1-.25-.54,4.47,4.47,0,0,0-.38-.92,2.1,2.1,0,0,0-.31-.46,6.34,6.34,0,0,1-.42-.61l-.29-.46a2.17,2.17,0,0,0-.66-.8,2,2,0,0,0-1.11-.39h-.21a1.53,1.53,0,0,0-.89.5c-.14.15-.17.17-.24.18a.79.79,0,0,1-.61-.4.33.33,0,0,1-.06-.21,2.7,2.7,0,0,0-.16-.63,3.55,3.55,0,0,0-.56-1,3.66,3.66,0,0,0-1.2-1.18,3.2,3.2,0,0,0-2-.31.51.51,0,0,0-.42.5V32a9.37,9.37,0,0,1-1.9-.44,9.59,9.59,0,0,1-3.35-2,.52.52,0,0,0-.28-.13L5.73,29.3a4.64,4.64,0,0,0-.58-1.23,5.65,5.65,0,0,0-1.6-1.55c-.21-.14-.37-.23-.49-.3s-.2-.11-.25-.18-.07-.16-.14-.77l-.06-.43c0-.43-.1-.81-.17-1.22a9.67,9.67,0,0,0-.29-1.45,5.91,5.91,0,0,0-.26-.68A1.8,1.8,0,0,1,1.74,21a1.68,1.68,0,0,1,0-.36,2.18,2.18,0,0,0,0-.58,2.79,2.79,0,0,0-.28-.76c0-.05,0-.11-.07-.1l.13-.09a1.51,1.51,0,0,0,.61-.59,1.47,1.47,0,0,0,.1-1.16,1.8,1.8,0,0,1-.06-.71c0-.15,0-.18.24-.52S2.69,15.56,3,15a7.63,7.63,0,0,0,.87-1.86,9.09,9.09,0,0,0,.06-1.89l.17.11c.07.5.22.9.64.91s.56-.48.66-1.29c0-.17,0-.34,0-.5a74.54,74.54,0,0,0,9.67,2,74.3,74.3,0,0,0,10.42.74h.13a.76.76,0,0,1,.67.11.94.94,0,0,0,.37.3,1.24,1.24,0,0,0,.71.09,2,2,0,0,1,.48,0l.17,0a2.84,2.84,0,0,1,.47.19,5.35,5.35,0,0,0,1.45.4c-.12.45-.09,1.06.36,1.28a1.08,1.08,0,0,0,1-.19l.18-.11.16.08.18.07a1.51,1.51,0,0,0,.43.1,10.58,10.58,0,0,0,1.21,0h.18c.44,0,1,.11,1.18.43a1.46,1.46,0,0,0,.18.46,1.61,1.61,0,0,0,.7.61c.11.05.15.07.16.1s0,.13,0,.26a1.13,1.13,0,0,0,0,1,1.19,1.19,0,0,0,.94.5.83.83,0,0,0,.21,0,1,1,0,0,1-.1.37,1.06,1.06,0,0,0,0,1.11c.42.46,1.18.24,1.74,0a2.72,2.72,0,0,0,1.51-1.66,1.94,1.94,0,0,0,.06-.46h.1a1.42,1.42,0,0,0,.92-.11,1.16,1.16,0,0,0,.56-1,1.16,1.16,0,0,1,.18-.56c.11-.16.19-.2.69-.39s.91-.35,1.71-.74a3.3,3.3,0,0,0,1.16-.79,3.47,3.47,0,0,0,.74-1.52,4,4,0,0,0,.09-1.21.66.66,0,0,1,0-.14,1.05,1.05,0,0,1,.87.4.76.76,0,0,1,.06.35,1.64,1.64,0,0,0,.25,1,1.61,1.61,0,0,0,.53.54Z"/></g><g id="aaf48962-0326-407c-b35d-6617072ee363" data-name="LABELS"><text transform="translate(0 55.13)" font-size="6" font-family="Roboto-Regular, Roboto">united-states</text></g></svg>