<svg id="a599fdc2-d4f8-4be2-beb7-fac2119fa218" data-name="ICONS" xmlns="http://www.w3.org/2000/svg" viewBox="0 0 50 50"><path d="M43.44,36.5H38a.5.5,0,0,0-.5.5v4.32H11.74V37a.5.5,0,0,0-.5-.5H5.81a.5.5,0,0,0-.5.5v9.65a.5.5,0,0,0,.5.5H43.44a.5.5,0,0,0,.5-.5V37A.5.5,0,0,0,43.44,36.5Zm-.5,9.65H6.31V37.5h4.43v4.32a.5.5,0,0,0,.5.5H38a.5.5,0,0,0,.5-.5V37.5h4.43Z"/><path d="M15.3,18.61a.51.51,0,0,0,.35.15.36.36,0,0,0,.35-.15l5.25-5.24V37a.5.5,0,0,0,.5.5h5.5a.5.5,0,0,0,.5-.5V13.37l4.8,4.8a.51.51,0,0,0,.36.15h0a.51.51,0,0,0,.35-.15l3.88-3.9a.5.5,0,0,0,0-.71L26.48,2.91a2.84,2.84,0,0,0-4,0L11.42,14a.51.51,0,0,0,0,.71Zm7.92-15a1.76,1.76,0,0,1,1.29-.52,1.84,1.84,0,0,1,1.27.52l10.29,10.3-3.16,3.19-5.31-5.3a.48.48,0,0,0-.54-.11.49.49,0,0,0-.31.46V36.5h-4.5V12.16a.49.49,0,0,0-.31-.46.47.47,0,0,0-.54.11l-5.75,5.74-3.17-3.2Z"/></svg>