<svg xmlns="http://www.w3.org/2000/svg" viewBox="0 0 50 50"><g id="f52890d1-5c83-4d0d-9144-d7827ae6db3d" data-name="ICONS"><path d="M17,15.26l.33.34,2.86,2.86.07,0a7.9,7.9,0,0,1,1-.58l.17-.09a7.8,7.8,0,0,1,1-.42l.16,0A7.3,7.3,0,0,1,23.67,17l.12,0A8.11,8.11,0,0,1,25,16.9a8.33,8.33,0,0,1,8.32,8.32,9.87,9.87,0,0,1-.09,1.22s0,.07,0,.11A8.29,8.29,0,0,1,33,27.67s0,.11-.05.16a7.85,7.85,0,0,1-.43,1c0,.05,0,.11-.08.16a8.64,8.64,0,0,1-.59,1,.21.21,0,0,0,0,.06L35,33.26a12.77,12.77,0,0,0,2.86-8,12.62,12.62,0,0,0-.1-1.51c0-.15,0-.3-.06-.45-.06-.35-.12-.69-.21-1,0-.16-.07-.31-.11-.46-.1-.36-.22-.71-.35-1.05l-.12-.33c-.19-.46-.4-.9-.63-1.33l0,0a13.5,13.5,0,0,0-.76-1.2l-.19-.25a11,11,0,0,0-.75-.91c-.07-.08-.13-.16-.2-.23-.32-.33-.65-.65-1-1l0,0A12.15,12.15,0,0,0,32,14.52,12.77,12.77,0,0,0,17,15.26Z" fill="none"/><path d="M9.39,17.58,10.9,19.1A26.57,26.57,0,0,1,16.26,16l-1.53-1.53A26.47,26.47,0,0,0,9.39,17.58Z" fill="none"/><path d="M17.87,13.4c-.71.2-1.42.44-2.12.7l.48.48A15.43,15.43,0,0,1,17.87,13.4Z" fill="none"/><path d="M4.39,22.48,5.9,24a26.52,26.52,0,0,1,4.2-4.27L8.59,18.2A26.18,26.18,0,0,0,4.39,22.48Z" fill="none"/><path d="M31.94,27.52c.08-.25.14-.5.2-.76s.06-.24.08-.37a7.49,7.49,0,0,0,.1-1.17A7.32,7.32,0,0,0,25,17.9a6.64,6.64,0,0,0-1.18.1l-.37.08a7.1,7.1,0,0,0-.76.2c-.14,0-.28.11-.41.16s-.44.19-.65.3a4.19,4.19,0,0,0-.42.24,3.62,3.62,0,0,0-.32.22L31,29.33l.22-.32c.08-.14.17-.28.24-.42s.21-.43.3-.65Z" fill="none"/><path d="M2.51,25.22A26.19,26.19,0,0,0,7.22,31,25.6,25.6,0,0,1,4,26.72c.38-.65.82-1.29,1.28-1.93L3.78,23.28C3.32,23.92,2.9,24.57,2.51,25.22Z" fill="none"/><path d="M38.74,23.9l0-.27Z"/><path d="M44.23,20.88c.23.24.44.5.66.75C44.67,21.38,44.46,21.12,44.23,20.88Z"/><path d="M46,23c.11.14.21.29.31.44C46.19,23.26,46.09,23.11,46,23Z"/><path d="M46.29,23.41c.42.58.83,1.18,1.2,1.81C47.12,24.59,46.71,24,46.29,23.41Z"/><path d="M38.48,22.22c-.09-.39-.2-.78-.32-1.16C38.28,21.44,38.39,21.83,38.48,22.22Z"/><path d="M38.71,23.63c-.05-.43-.11-.84-.2-1.26C38.6,22.79,38.66,23.2,38.71,23.63Z"/><path d="M38.81,25.22c0-.45,0-.88-.07-1.32C38.78,24.34,38.81,24.77,38.81,25.22Z"/><path d="M44.89,21.63c.37.43.74.88,1.09,1.34C45.63,22.51,45.27,22.06,44.89,21.63Z"/><path d="M37.33,21.77c0,.15.08.3.11.46C37.41,22.07,37.37,21.92,37.33,21.77Z"/><path d="M36.86,20.39l.12.33Z"/><path d="M37.65,23.26c0,.15.05.3.06.45C37.7,23.56,37.67,23.41,37.65,23.26Z"/><path d="M36.21,19l0,0Z"/><path d="M37.59,19.57a13.63,13.63,0,0,0-1.32-2.29A13.63,13.63,0,0,1,37.59,19.57Z"/><path d="M38.11,20.91a12.38,12.38,0,0,0-.46-1.2A12.38,12.38,0,0,1,38.11,20.91Z"/><path d="M35.26,17.58l.19.25Z"/><path d="M33.27,15.45l0,0Z"/><path d="M34.31,16.44c.07.07.13.15.2.23C34.44,16.59,34.38,16.51,34.31,16.44Z"/><path d="M48.51,25A27.3,27.3,0,0,0,25,11.4a27,27,0,0,0-10,1.93L8.27,6.62a.5.5,0,0,0-.71,0,.5.5,0,0,0,0,.7L14,13.74A27.15,27.15,0,0,0,3.33,22.22,26.35,26.35,0,0,0,1.49,25a.5.5,0,0,0,0,.5A27.33,27.33,0,0,0,18.05,38.11l.9.23A27.19,27.19,0,0,0,25,39a27.44,27.44,0,0,0,4.35-.36h0a26.67,26.67,0,0,0,7.29-2.27l.74.74,6.24,6.24a.51.51,0,0,0,.36.15.5.5,0,0,0,.35-.85l-6-6-.76-.75A27.22,27.22,0,0,0,48.35,25.72l.16-.25A.5.5,0,0,0,48.51,25ZM32,14.52a12.15,12.15,0,0,1,1.24.93l0,0c.34.3.67.62,1,1,.07.07.13.15.2.23a11,11,0,0,1,.75.91l.19.25a13.5,13.5,0,0,1,.76,1.2l0,0c.23.43.44.87.63,1.33l.12.33c.13.34.25.69.35,1.05,0,.15.08.3.11.46.09.34.15.68.21,1,0,.15.05.3.06.45a12.62,12.62,0,0,1,.1,1.51,12.77,12.77,0,0,1-2.86,8l-3.19-3.2a.21.21,0,0,1,0-.06,8.64,8.64,0,0,0,.59-1c0-.05,0-.11.08-.16a7.85,7.85,0,0,0,.43-1s0-.11.05-.16a8.29,8.29,0,0,0,.26-1.12s0-.07,0-.11a9.87,9.87,0,0,0,.09-1.22A8.33,8.33,0,0,0,25,16.9a8.11,8.11,0,0,0-1.21.09l-.12,0a7.3,7.3,0,0,0-1.12.27l-.16,0a7.8,7.8,0,0,0-1,.42l-.17.09a7.9,7.9,0,0,0-1,.58l-.07,0L17.29,15.6,17,15.26A12.77,12.77,0,0,1,32,14.52Zm-.55,14.07c-.07.14-.16.28-.24.42l-.22.32L20.89,19.2a3.62,3.62,0,0,1,.32-.22,4.19,4.19,0,0,1,.42-.24c.21-.11.43-.21.65-.3s.27-.12.41-.16a7.1,7.1,0,0,1,.76-.2l.37-.08A6.64,6.64,0,0,1,25,17.9a7.32,7.32,0,0,1,7.32,7.32,7.49,7.49,0,0,1-.1,1.17c0,.13-.06.25-.08.37s-.12.51-.2.76l-.16.42C31.69,28.16,31.59,28.38,31.48,28.59ZM17.87,13.4a15.43,15.43,0,0,0-1.64,1.18l-.48-.48C16.45,13.84,17.16,13.6,17.87,13.4ZM7.22,31a26.19,26.19,0,0,1-4.71-5.8c.39-.65.81-1.3,1.27-1.94l1.51,1.51L7,26.52,17.4,36.89A26.07,26.07,0,0,1,7.22,31Zm12.1,6.38-3.71-3.71L5.9,24l-1.51-1.5a26.18,26.18,0,0,1,4.2-4.28l1.51,1.51L28.21,37.82A25.48,25.48,0,0,1,19.32,37.4Zm10.13.24L10.9,19.1,9.39,17.58a26.47,26.47,0,0,1,5.34-3.09L16.26,16,35.89,35.65A26.18,26.18,0,0,1,29.45,37.64Zm7.39-2.45L35.64,34a13.76,13.76,0,0,0,3.17-8.76c0-.45,0-.88-.07-1.32l0-.27c-.05-.43-.11-.84-.2-1.26l0-.15c-.09-.39-.2-.78-.32-1.16a.88.88,0,0,0,0-.15,12.38,12.38,0,0,0-.46-1.2l-.06-.14a13.63,13.63,0,0,0-1.32-2.29l0-.07c-.27-.37-.56-.73-.86-1.07s-.41-.44-.62-.65-.2-.22-.32-.32h0a13.48,13.48,0,0,0-2.29-1.75,26.35,26.35,0,0,1,12.09,7.46h0c.23.24.44.5.66.75.38.43.74.88,1.09,1.34.11.14.21.29.31.44.42.58.83,1.18,1.2,1.81A26.19,26.19,0,0,1,36.84,35.19Z"/></g><g id="f5962609-316b-4bc0-9dfc-6b2f17aead4c" data-name="LABELS"><text transform="translate(0.67 54.97)" font-size="6" font-family="Roboto-Regular, Roboto">visually-impai<tspan x="36.23" y="0" letter-spacing="-0.01em">r</tspan><tspan x="38.21" y="0">ed</tspan></text></g></svg>