<svg id="b5535964-df69-47a1-9160-1971fccd584c" data-name="ICONS" xmlns="http://www.w3.org/2000/svg" viewBox="0 0 50 50"><path d="M47.56,14.85H1.69a.5.5,0,0,0-.5.5,23.44,23.44,0,0,0,46.87,0A.5.5,0,0,0,47.56,14.85ZM11.69,27.78A18.16,18.16,0,0,1,6.93,15.85H23.62Zm12.38-11V33.53a17.57,17.57,0,0,1-11.69-5Zm1-.35L36.58,28.89a17.5,17.5,0,0,1-11.51,4.66ZM37.31,28.21,25.86,15.85H42.45A18.1,18.1,0,0,1,37.31,28.21ZM24.63,37.78A22.46,22.46,0,0,1,2.2,15.85H5.93A18.93,18.93,0,0,0,24.69,34.57,18.93,18.93,0,0,0,43.45,15.85h3.61A22.46,22.46,0,0,1,24.63,37.78Z"/></svg>