<svg xmlns="http://www.w3.org/2000/svg" viewBox="0 0 50 50"><g id="aeef6d71-6045-47d4-92bb-840d86926e09" data-name="ICONS"><path d="M37,.78a.51.51,0,0,0-.35-.15H12.92a.51.51,0,0,0-.35.15.49.49,0,0,0-.15.36L12.49,15v0a12.38,12.38,0,0,0,10,11.38V44.8H17.08a.5.5,0,0,0-.5.5v3.07a.5.5,0,0,0,.5.5H32.49a.5.5,0,0,0,.5-.5V45.3a.5.5,0,0,0-.5-.5H27.05V26.41A12.4,12.4,0,0,0,37.07,15l.08-13.86A.49.49,0,0,0,37,.78Zm-5,45v2.07H17.58V45.8H32Zm-8.47-1V26.59h2.53V44.8ZM36.07,15A11.36,11.36,0,0,1,25.48,25.59h-1.4A11.37,11.37,0,0,1,13.49,15v-.85H36.08Zm0-1.83H13.48l-.06-11.5H36.15Z"/></g><g id="acfd69e4-218d-42f2-8770-540b6634606a" data-name="LABELS"><text transform="translate(-0.33 55.07)" font-size="6" font-family="Roboto-Regular, Roboto">wine</text></g></svg>