<?xml version="1.0" encoding="UTF-8"?><svg xmlns="http://www.w3.org/2000/svg" viewBox="0 0 50 50"><g id="uuid-f7ec7dc9-b7b7-4fd6-aba4-05461ae722be"><path d="M42.5,8.16c-.32-.68-.88-1.19-1.59-1.45-.89-.32-1.86-.16-2.6,.39-.04,.01-.07,.03-.1,.05l-8.11,5.53h-8.48l-2.79,.02-7.76-5.54s-.07-.04-.11-.06c-.75-.56-1.71-.71-2.6-.4-1.45,.52-2.21,2.12-1.7,3.56,.19,.56,.56,1.04,1.04,1.37,.03,.04,.07,.08,.11,.11l10.33,7.3v26.56c-.01,1.73,1.44,3.15,3.23,3.15h.4c1.15,0,2.17-.59,2.75-1.47,.58,.88,1.59,1.47,2.75,1.47h.3c1.79,0,3.25-1.41,3.25-3.15l-.04-26.55,10.7-7.3s.08-.06,.11-.1c.48-.33,.84-.8,1.04-1.37,.25-.69,.22-1.45-.09-2.12Zm-.85,1.78c-.14,.41-.4,.73-.76,.94-.06,.03-.1,.08-.14,.13l-10.78,7.36c-.14,.09-.22,.25-.22,.41l.04,26.82c0,1.18-1.01,2.15-2.25,2.15h-.3c-1.24,0-2.25-.96-2.25-2.15,0-.07-.02-.14-.04-.2v-15.56c0-.28-.22-.5-.5-.5s-.5,.22-.5,.5v16.08s0,.02,0,.03c-.18,1.02-1.1,1.8-2.21,1.8h-.4c-1.24,0-2.25-.96-2.25-2.15V18.78c.01-.16-.07-.31-.2-.41l-10.39-7.35c-.04-.06-.09-.11-.16-.15-.36-.21-.63-.54-.77-.94-.33-.92,.16-1.95,1.09-2.28,.61-.22,1.26-.1,1.74,.32,.05,.04,.1,.07,.16,.09l7.78,5.55c.09,.06,.22,.08,.29,.09h2.96l7.26-.02h1.38c.1,0,.2-.03,.28-.09l8.11-5.53c.07-.02,.13-.05,.19-.1,.48-.41,1.13-.53,1.74-.32,.46,.17,.82,.5,1.02,.93,.2,.43,.22,.91,.06,1.36Z"/><path d="M24.46,11.47c3.02,0,5.48-2.46,5.48-5.48S27.49,.5,24.46,.5s-5.48,2.46-5.48,5.48,2.46,5.48,5.48,5.48Zm0-9.97c2.47,0,4.48,2.01,4.48,4.48s-2.01,4.48-4.48,4.48-4.48-2.01-4.48-4.48,2.01-4.48,4.48-4.48Z"/></g><g id="uuid-c7bb0833-5e31-40ba-899c-6fbc72e934ff"><text transform="translate(0 55.02)" font-family="Roboto-Regular, Roboto" font-size="6"><tspan x="0" y="0">child</tspan></text></g></svg>