<?xml version="1.0" encoding="UTF-8"?><svg id="uuid-9ccc5b02-d48e-4c90-b6fc-4b311688be99" xmlns="http://www.w3.org/2000/svg" viewBox="0 0 50 50"><path d="M44.13,42.72h-3.29v-7.37h1.45c.28,0,.5-.22,.5-.5v-3.49c0-.28-.22-.5-.5-.5h-1.78c-.02-1.48-.24-2.91-.62-4.27l.89-4.31c.03-.15,0-.3-.1-.42s-.23-.18-.39-.18l-2.69,.03c-2.35-3.39-5.92-5.83-10.06-6.64,0,0,0-.01,0-.02v-4.64h1.08c.28,0,.5-.22,.5-.5s-.22-.5-.5-.5h-.89c-.2-1.25-1.14-2.26-2.37-2.54,.31-.23,.53-.58,.53-.99,0-.49-.29-.91-.71-1.11V2.57c0-.29-.24-.53-.53-.53s-.53,.24-.53,.53v2.2c-.42,.2-.71,.62-.71,1.11,0,.41,.22,.76,.53,.99-1.22,.29-2.17,1.29-2.37,2.54h-.89c-.28,0-.5,.22-.5,.5s.22,.5,.5,.5h1.08v4.62c-4.1,.73-7.65,3.05-10.05,6.32l-2.68-.11c-.15,0-.3,.06-.4,.17-.1,.11-.14,.27-.12,.42l.75,4.32c-.47,1.49-.72,3.07-.75,4.71h-1.52c-.28,0-.5,.22-.5,.5v3.49c0,.28,.22,.5,.5,.5h1.45v7.37h-3.29c-.28,0-.5,.22-.5,.5v3.49c0,.28,.22,.5,.5,.5H44.13c.28,0,.5-.22,.5-.5v-3.49c0-.28-.22-.5-.5-.5Zm-34.77-7.4h2.9v7.36h-2.9v-7.36Zm3.85,.03h2.12v7.37h-2.12v-7.37Zm5.97,7.33h-2.9v-7.35h2.9v7.35Zm.94-7.33h2.12v7.37h-2.12v-7.37Zm5.97,7.34h-2.9v-7.35h2.9v7.35Zm.94-7.34h2.12v7.37h-2.12v-7.37Zm5.97,7.4h-2.9v-7.35h2.9v7.35Zm.94-7.4h2.12v7.37h-2.12v-7.37Zm5.97,7.34h-2.9v-7.36h2.9v7.36ZM23.31,15.84s.09,0,.14,0c-5.32,5.11-5.34,12.68-5.23,14.79h-4.57c-.16-2.07-.21-10.89,9.66-14.78Zm2.22,.05c9.9,3.88,9.78,12.75,9.62,14.73h-4.53c.11-2.02,.13-9.68-5.27-14.8h.07s.06,.05,.1,.07Zm-1.12,.4c5.34,4.81,5.3,12.51,5.21,14.33h-10.4c-.09-1.91-.08-9.52,5.19-14.33Zm15.25,6.41l-.42,2.03c-.17-.41-.36-.82-.56-1.22-.14-.27-.28-.53-.43-.79l1.42-.02Zm-2.21,.68c.04,.08,.09,.15,.13,.23,.19,.34,.35,.68,.52,1.03,.05,.11,.1,.22,.15,.33,.13,.29,.24,.6,.35,.9,.07,.19,.13,.37,.19,.56,.42,1.33,.67,2.73,.72,4.19h-3.36c.12-2.05,.03-9.68-7.24-14.16,3.62,1.14,6.65,3.64,8.54,6.92ZM24.62,7.78c1.01,0,1.85,.7,2.08,1.64h-4.15c.23-.94,1.07-1.64,2.08-1.64Zm-1.89,2.64h3.79v4.5c-.54-.07-1.1-.11-1.66-.13h-.01c-.12,0-.24-.02-.36-.02-.6,0-1.19,.04-1.77,.1v-4.46Zm-3.16,6.22c-6.89,4.51-7.04,11.89-6.92,13.98h-3.17c.05-1.53,.32-3,.77-4.38,.05-.16,.12-.32,.18-.47,.11-.31,.22-.61,.35-.91,.05-.11,.11-.22,.16-.33,.18-.37,.36-.74,.56-1.1,.22-.39,.46-.78,.72-1.15,1.79-2.59,4.36-4.57,7.34-5.63Zm-9.65,7.67l-.35-2.04,1.41,.06c-.16,.26-.31,.52-.46,.78-.22,.39-.42,.79-.6,1.2Zm-2.46,7.56H41.79v2.49H7.46v-2.49Zm36.16,14.35H5.62v-2.49H43.63v2.49Z"/><path d="M24.49,21.96c-1.53,0-2.77,1.24-2.77,2.77s1.24,2.77,2.77,2.77,2.77-1.24,2.77-2.77-1.24-2.77-2.77-2.77Zm0,4.55c-.98,0-1.77-.8-1.77-1.77s.8-1.77,1.77-1.77,1.77,.8,1.77,1.77-.8,1.77-1.77,1.77Z"/><path d="M17.39,22.31c-.92-.28-1.96,.57-2.37,1.93-.4,1.36,0,2.64,.92,2.91,.12,.04,.24,.05,.36,.05,.82,0,1.66-.8,2.01-1.98,.18-.6,.21-1.22,.07-1.74-.15-.6-.52-1.03-1-1.17Zm-.03,2.63c-.27,.89-.84,1.34-1.12,1.26-.28-.08-.52-.78-.25-1.67,.25-.82,.75-1.27,1.05-1.27,.03,0,.05,0,.07,0,.13,.04,.25,.21,.31,.46,.09,.34,.06,.78-.06,1.21Z"/><path d="M33.78,24.24c-.4-1.36-1.45-2.21-2.37-1.93-.48,.14-.84,.57-1,1.17-.13,.52-.11,1.14,.07,1.74,.18,.6,.5,1.14,.89,1.5,.35,.32,.74,.48,1.12,.48,.12,0,.24-.02,.36-.05,.92-.28,1.33-1.56,.92-2.91Zm-1.21,1.95c-.13,.04-.33-.04-.52-.21-.26-.24-.48-.62-.61-1.04h0c-.13-.43-.15-.87-.06-1.21,.06-.25,.18-.42,.31-.46,.02,0,.05,0,.07,0,.3,0,.81,.44,1.05,1.27,.27,.89,.03,1.58-.25,1.67Z"/></svg>