<?xml version="1.0" encoding="UTF-8"?><svg id="uuid-7e493091-87ac-4cbe-95d3-fd6704af2c79" xmlns="http://www.w3.org/2000/svg" viewBox="0 0 50 50"><path d="M48.11,34.91V10.86c0-.17-.08-.32-.22-.42-.14-.09-.31-.11-.47-.05l-11.53,4.71,5.16-9.41c.06-.12,.08-.26,.04-.39-.04-.13-.13-.24-.25-.3-3.41-1.76-8.91-3.82-15.86-3.77-5.23,.06-10.45,1.36-15.1,3.77-.24,.12-.34,.42-.22,.66l4.61,9.7L2.08,10.39c-.15-.06-.33-.04-.47,.05s-.22,.25-.22,.42V43.16c0,.13,.05,.26,.15,.35s.22,.15,.35,.15H6.26v4.11c0,.28,.22,.5,.5,.5H43.76c.28,0,.5-.22,.5-.5v-4.11h3.37c.13,0,.26-.05,.35-.15s.15-.22,.15-.35v-8.15s-.02-.07-.03-.1Zm-.97,7.75h-2.87v-2.43c0-.28-.22-.5-.5-.5h-6.36l9.74-3.97v6.9Zm-24.88,4.61v-5.52h5.26v5.52h-5.26Zm6.26-6.02c0-.28-.22-.5-.5-.5h-6.26c-.28,0-.5,.22-.5,.5v6.02h-4.65v-8.7h16.57v8.7h-4.65v-6.02Zm-21.26,6.02v-6.54H15.6v6.54H7.26Zm12.67-14.94h9.92v5.24h-9.92v-5.24Zm10.42-1h-10.92c-.28,0-.5,.22-.5,.5v5.74h-1.94V17.45h15.52v20.12h-1.67v-5.74c0-.28-.22-.5-.5-.5Zm16.76,3.35l-12.38,5.05h-.55v-1.66c0-.28-.22-.5-.5-.5h-.16V17.15l13.6-5.55v23.07Zm-31.12,2.91c-.22,.05-.39,.24-.39,.48v1.66h-.83l-12.38-5.05V11.6l13.6,5.55v20.44Zm-13.6-1.83l9.74,3.97H6.76c-.28,0-.5,.22-.5,.5v2.43H2.39v-6.9Zm31.81,11.51v-6.54h9.06v6.54h-9.06ZM10.77,5.68c4.4-2.2,9.31-3.39,14.22-3.44,6.43-.05,11.6,1.77,14.93,3.43l-5.5,10.03-1.6,.65s-.08,.06-.12,.1h-15.91s-.07-.08-.12-.1l-1.03-.42L10.77,5.68Z"/><path d="M13,18.46c-.28,0-.5,.22-.5,.5v17.52c0,.28,.22,.5,.5,.5s.5-.22,.5-.5V18.96c0-.28-.22-.5-.5-.5Z"/><path d="M9.21,16.88c-.28,0-.5,.22-.5,.5v17.06c0,.28,.22,.5,.5,.5s.5-.22,.5-.5V17.38c0-.28-.22-.5-.5-.5Z"/><path d="M5.14,15.21c-.28,0-.5,.22-.5,.5v17.39c0,.28,.22,.5,.5,.5s.5-.22,.5-.5V15.71c0-.28-.22-.5-.5-.5Z"/><path d="M34.26,6.34c.26,.09,.55-.05,.64-.31,.09-.26-.05-.55-.31-.64-6.35-2.2-13.35-2.11-19.65,.25-.26,.1-.39,.38-.29,.64,.08,.2,.27,.32,.47,.32,.06,0,.12,0,.18-.03,6.08-2.28,12.84-2.36,18.97-.24Z"/><path d="M32.99,10.13c.26,.09,.55-.05,.64-.31,.09-.26-.05-.54-.31-.64-5.54-1.92-11.63-1.84-17.12,.22-.26,.1-.39,.38-.29,.64,.08,.2,.27,.32,.47,.32,.06,0,.12,0,.18-.03,5.27-1.97,11.12-2.05,16.44-.21Z"/><path d="M32.1,12.78c-4.71-1.63-9.89-1.56-14.55,.19-.26,.1-.39,.38-.29,.64,.08,.2,.27,.32,.47,.32,.06,0,.12,0,.18-.03,4.44-1.67,9.38-1.73,13.87-.18,.26,.09,.55-.05,.64-.31s-.05-.54-.31-.64Z"/><path d="M36.38,36.74c.28,0,.5-.22,.5-.5V18.73c0-.28-.22-.5-.5-.5s-.5,.22-.5,.5v17.52c0,.28,.22,.5,.5,.5Z"/><path d="M40.17,34.71c.28,0,.5-.22,.5-.5V17.15c0-.28-.22-.5-.5-.5s-.5,.22-.5,.5v17.06c0,.28,.22,.5,.5,.5Z"/><path d="M44.24,33.38c.28,0,.5-.22,.5-.5V15.48c0-.28-.22-.5-.5-.5s-.5,.22-.5,.5v17.39c0,.28,.22,.5,.5,.5Z"/><path d="M24.89,32.93c-2.07,0-3.63,.89-3.63,2.06s1.56,2.06,3.63,2.06,3.63-.89,3.63-2.06-1.56-2.06-3.63-2.06Zm0,3.13c-1.61,0-2.63-.63-2.63-1.06s1.03-1.06,2.63-1.06,2.63,.63,2.63,1.06-1.03,1.06-2.63,1.06Z"/><path d="M31.31,30.17c0-.21-.17-.38-.38-.38h-12.19c-.21,0-.38,.17-.38,.38s.17,.38,.38,.38h12.19c.21,0,.38-.17,.38-.38Z"/><path d="M30.94,20.08h-12.19c-.21,0-.38,.17-.38,.38s.17,.38,.38,.38h12.19c.21,0,.38-.17,.38-.38s-.17-.38-.38-.38Z"/><path d="M30.94,23.32h-12.19c-.21,0-.38,.17-.38,.38s.17,.38,.38,.38h12.19c.21,0,.38-.17,.38-.38s-.17-.38-.38-.38Z"/><path d="M30.94,26.55h-12.19c-.21,0-.38,.17-.38,.38s.17,.38,.38,.38h12.19c.21,0,.38-.17,.38-.38s-.17-.38-.38-.38Z"/></svg>