<?xml version="1.0" encoding="UTF-8"?><svg xmlns="http://www.w3.org/2000/svg" viewBox="0 0 50 50"><g id="uuid-235f1986-118a-4065-a5b5-cfda262f06da"><path d="M47.09,31.81c.67-2.58,.13-5.82-1.64-8.71l-6.84-10.53c.08,0,.16,.03,.24,.03,.28,0,.5-.22,.5-.5V5.57c0-.28-.22-.5-.5-.5-1.78,0-3.24,1.45-3.45,3.31-.03,.01-.07,.02-.1,.04l-2.71,1.84c-.23,.16-.29,.46-.13,.69,.31,.46,.59,.91,.86,1.37l-2.56,1.77c-.23,.16-.28,.47-.13,.7,.1,.14,.25,.22,.41,.22,.1,0,.2-.03,.28-.09l2.48-1.72c3.88,7.13,3.23,13.85,.07,16.37-1.76,1.4-4.88,2-7.59,1.44-1.89-.38-3.29-1.27-3.95-2.48-.87-1.62-.37-3.64,.21-5.05,0,0,0-.01,0-.02,.02-.05,.03-.11,.03-.17,0-.01,0-.03,0-.04v-.02c-.04-2.68-2.25-4.85-4.99-4.85H9.18c-2.65,0-4.8,2.04-4.96,4.61,0,.01-.02,.02-.03,.03-1.18,1.85-2.09,3.87-2.7,6.02-.64,2.25-.93,4.59-.88,6.96,0,.27,.23,.49,.5,.49h.68c-.02,.26-.04,.51-.04,.77,0,.28,.22,.5,.5,.5h1.09c.26,3.99,3.63,7.16,7.75,7.16s7.48-3.17,7.75-7.16h1.09c.28,0,.5-.22,.5-.5,0-.26-.02-.52-.04-.77h10.16c-.02,.26-.04,.51-.04,.77,0,.28,.22,.5,.5,.5h1.07c.26,3.99,3.58,7.16,7.64,7.16s7.38-3.17,7.64-7.16h1.07c.28,0,.5-.22,.5-.5,0-2.04-.68-3.93-1.81-5.46Zm-4.36,5.96c-.24,1.46-1.5,2.58-3.03,2.58s-2.79-1.12-3.03-2.58h6.06Zm-11.22-1c.26-4.29,3.83-7.7,8.19-7.7s7.93,3.41,8.19,7.7H31.51Zm-12.11,0H2.76c.26-4.29,3.89-7.7,8.32-7.7s8.06,3.41,8.32,7.7Zm-5.23,1c-.24,1.46-1.53,2.58-3.08,2.58s-2.84-1.12-3.08-2.58h6.17Zm-3.08-9.7c-4.53,0-8.32,3.2-9.16,7.43h-.32c0-2.1,.28-4.17,.85-6.17,.56-1.96,1.38-3.82,2.44-5.52H21.37c-.52,1.54-.82,3.51,.1,5.21,.8,1.48,2.45,2.54,4.63,2.99,2.2,.45,4.58,.22,6.48-.55-.94,1.15-1.61,2.53-1.91,4.05h-10.43c-.84-4.23-4.62-7.43-9.16-7.43Zm23.55-15.42l1.24-.86c.23-.16,.28-.47,.13-.7-.16-.23-.47-.29-.7-.13l-1.16,.8c-.19-.32-.37-.64-.57-.95l1.88-1.28,9.16,14.1c1.44,2.35,1.99,4.99,1.66,7.19-1.67-1.7-3.99-2.76-6.56-2.76-1.38,0-2.68,.31-3.86,.86,2.8-3.93,1.76-10.72-1.21-16.28Zm3.72-6.51v5.41c-.19-.04-.38-.12-.55-.21l-1.42-2.18c-.01-.1-.03-.21-.03-.31,0-1.33,.86-2.45,1.99-2.71ZM21.55,22.8h-7.67v-3.41h3.71c2.03,0,3.71,1.49,3.96,3.41Zm-12.37-3.41h3.71v3.41H5.22c.25-1.92,1.93-3.41,3.96-3.41Zm1.9,24.54c-3.56,0-6.48-2.72-6.75-6.16h2.66c.25,2.01,1.98,3.58,4.08,3.58s3.83-1.57,4.08-3.58h2.66c-.26,3.44-3.18,6.16-6.75,6.16Zm28.62,0c-3.51,0-6.38-2.72-6.64-6.16h2.61c.25,2.01,1.95,3.58,4.03,3.58s3.78-1.57,4.03-3.58h2.61c-.26,3.44-3.13,6.16-6.64,6.16Z"/></g><g id="uuid-79edf444-92bd-4f56-9472-2d1677f3041d"><text transform="translate(.12 55.12)" font-family="Roboto-Regular, Roboto" font-size="6"><tspan x="0" y="0">moped</tspan></text></g></svg>