<?xml version="1.0" encoding="UTF-8"?><svg xmlns="http://www.w3.org/2000/svg" viewBox="0 0 50 50"><g id="uuid-ecef2dc4-8f67-4862-b066-311071bc5566"><g><path d="M49.73,6.9c-.04-.13-.12-.24-.24-.3l-2.4-1.35c-.24-.14-.55-.05-.68,.19l-1.11,1.96-.56-.31c-.12-.07-.25-.08-.38-.05-.13,.04-.24,.12-.3,.24l-2.61,4.62h0l-4.41,7.81v-5.17s0-.04-.01-.06c0-.02,0-.04-.01-.06-.02-.08-.06-.16-.12-.23L23.34,.61c-.06-.06-.14-.1-.23-.12-.02,0-.04,0-.06-.01-.02,0-.04-.01-.07-.01H.75C.48,.46,.25,.68,.25,.96V48.59c0,.28,.22,.5,.5,.5H36.56c.28,0,.5-.22,.5-.5V31.96l9.66-17.11h0l2.61-4.62c.14-.24,.05-.55-.19-.68l-.56-.31,1.11-1.96c.06-.12,.08-.25,.05-.38ZM1.25,48.09V1.46H22.49V14.53c0,.28,.22,.5,.5,.5h13.07v6.44l-10.56,18.72c-.06,.12-.08,.25-.05,.38,0,0,0,.02,.01,.03l-.53,5.79c-.02,.2,.08,.38,.25,.48,.08,.04,.16,.06,.25,.06,.1,0,.21-.03,.3-.1l4.71-3.46c.12-.03,.24-.1,.31-.22l5.32-9.42v14.35H1.25ZM23.49,14.03V2.17l11.86,11.86h-11.86Zm2.54,31.34l.38-4.22,3.03,1.71-3.42,2.51Zm4.15-3.25l-3.51-1.98,15.42-27.33,3.51,1.98-15.42,27.32ZM48.21,10.18l-2.12,3.75-3.51-1.98,2.12-3.75,3.51,1.98Zm-2.02-2.29l.86-1.53,1.52,.86-.86,1.53-1.52-.86Z"/><path d="M6.18,9.99h13.19c.28,0,.5-.22,.5-.5s-.22-.5-.5-.5H6.18c-.28,0-.5,.22-.5,.5s.22,.5,.5,.5Z"/><path d="M6.18,19.7H29.77c.28,0,.5-.22,.5-.5s-.22-.5-.5-.5H6.18c-.28,0-.5,.22-.5,.5s.22,.5,.5,.5Z"/><path d="M6.18,25.68H29.77c.28,0,.5-.22,.5-.5s-.22-.5-.5-.5H6.18c-.28,0-.5,.22-.5,.5s.22,.5,.5,.5Z"/><path d="M21.54,41.44H6.18c-.28,0-.5,.22-.5,.5s.22,.5,.5,.5h15.35c.28,0,.5-.22,.5-.5s-.22-.5-.5-.5Z"/><path d="M25.13,31.47c0-.28-.22-.5-.5-.5H6.18c-.28,0-.5,.22-.5,.5s.22,.5,.5,.5H24.63c.28,0,.5-.22,.5-.5Z"/></g></g><g id="uuid-3cad02da-f09f-4a32-9715-144fa985560c"><text transform="translate(0 54.5)" font-family="Roboto-Regular, Roboto" font-size="6"><tspan x="0" y="0">pen-and-paper</tspan></text></g></svg>