<?xml version="1.0" encoding="UTF-8"?><svg xmlns="http://www.w3.org/2000/svg" viewBox="0 0 50 50">
  <defs>
    <style>
      .cls-1 {
        fill: #1f1c1d;
      }

      .cls-2 {
        fill: #221f1f;
        font-family: Roboto-Regular, Roboto;
        font-size: 5px;
      }
    </style>
  </defs>
  <g id="Icon_Outline">
    <g>
      <path class="cls-1" d="M45.67,4.94s0-.03,0-.04c0-.01,0-.03,0-.04h0s0-.03,0-.04c-.01-.03-.02-.06-.04-.09,0,0,0-.01,0-.02,0-.01-.02-.02-.03-.03-.02-.02-.03-.04-.05-.06,0,0,0,0,0,0,0,0,0,0,0,0,0,0-.02-.01-.03-.02-.02-.02-.05-.04-.08-.05-.02-.01-.04-.02-.06-.03-.01,0-.02-.01-.04-.02,0,0,0,0-.01,0-.03,0-.05,0-.08,0,0,0-.01,0-.02,0-.22-.01-21.8-1.08-33.42,10.22-4.7,4.57-7.43,10.5-7.48,16.27-.04,4.15,1.38,7.89,3.99,10.53,2.61,2.64,6.34,4.09,10.49,4.09h0c5.77,0,11.73-2.67,16.34-7.32,11.41-11.51,10.55-33.1,10.54-33.32ZM34.42,37.55c-4.43,4.47-10.12,7.03-15.63,7.03h0c-2.36,0-4.52-.48-6.41-1.4.25.02.49.06.76.06.65,0,1.34-.06,2.07-.18.46-.08.93-.18,1.41-.3.38-.1.76-.21,1.14-.33,4.22-1.38,8.73-4.33,12.68-8.29,3.52-3.53,6.71-8.14,9.47-13.71.12-.25.02-.55-.23-.67-.25-.12-.55-.02-.67.23-2.71,5.47-5.84,9.99-9.28,13.44-3.85,3.86-8.21,6.71-12.29,8.05-.37.12-.73.23-1.09.32-.45.12-.89.21-1.32.28-1.92.32-3.54.17-4.78-.42.74-.19,1.63-.56,2.71-1.14,1.44-.77,3.07-1.81,4.83-3.11.22-.16.27-.48.11-.7-.17-.22-.48-.27-.7-.11-1.72,1.27-3.31,2.29-4.71,3.03-2.45,1.3-3.38,1.23-3.5,1.15,0,0,0,0,0,0-.08-.11-.13-.79.66-2.47.12-.25,0-.55-.24-.67-.25-.12-.55,0-.67.24-.29.62-.49,1.15-.62,1.62-.7-1.52-.73-3.62-.07-6.09.07-.27-.08-.54-.35-.61-.27-.07-.54.09-.61.35-.42,1.54-.56,2.95-.48,4.21-.89-1.89-1.35-4.04-1.33-6.4.05-5.51,2.67-11.18,7.18-15.57,8.45-8.22,22.39-9.7,28.99-9.93-2.17.66-4.75,1.53-7.52,2.67-1.96.8-3.85,1.67-5.64,2.59-.25.13-.34.43-.22.67.13.25.43.34.67.22,1.76-.9,3.63-1.76,5.56-2.55,2.82-1.16,5.42-2.03,7.6-2.69-.7.44-1.4.89-2.08,1.33-7.7,5.03-14.21,10.15-19.38,15.23-3.96,3.9-7.56,8.17-9.87,11.72-.15.23-.08.54.15.69.08.05.18.08.27.08.16,0,.32-.08.42-.23,2.27-3.49,5.82-7.7,9.74-11.55,5.11-5.03,11.58-10.11,19.22-15.1,1.29-.84,2.62-1.68,3.95-2.5-.77,2.75-2,6.53-3.82,10.68-.11.25,0,.55.26.66.07.03.13.04.2.04.19,0,.38-.11.46-.3,1.38-3.15,2.42-6.09,3.19-8.54-.28,6.56-1.89,20.56-10.22,28.96Z" fill="#FFFFFF"/>
      <path class="cls-1" d="M10.9,26.7c.16,0,.32-.08.42-.23,1.45-2.22,3.21-4.36,5.24-6.35,1.2-1.17,2.54-2.32,3.98-3.41,1.39-1.05,2.91-2.08,4.53-3.05.24-.14.31-.45.17-.69-.14-.24-.45-.31-.69-.17-1.64.99-3.2,2.03-4.62,3.11-1.48,1.12-2.85,2.29-4.08,3.49-2.08,2.04-3.89,4.23-5.38,6.52-.15.23-.08.54.15.69.08.05.18.08.27.08Z" fill="#FFFFFF"/>
      <path class="cls-1" d="M38.63,13.9c-4.13,5.8-8.3,10.8-12.38,14.87-.2.2-.2.51,0,.71.1.1.23.15.35.15s.26-.05.35-.15c4.12-4.11,8.32-9.15,12.48-15,.16-.22.11-.54-.12-.7-.22-.16-.54-.11-.7.12Z" fill="#FFFFFF"/>
    </g>
  </g>
  <g id="Names">
    <text class="cls-2" transform="translate(0 53.66)"><tspan x="0" y="0">almond</tspan></text>
  </g>
</svg>