<?xml version="1.0" encoding="utf-8"?>
<!-- Generator: Adobe Illustrator 27.7.0, SVG Export Plug-In . SVG Version: 6.00 Build 0)  -->
<svg version="1.1" id="Layer_1" xmlns="http://www.w3.org/2000/svg" xmlns:xlink="http://www.w3.org/1999/xlink" x="0px" y="0px"
	 viewBox="0 0 50 50" style="enable-background:new 0 0 50 50;" xml:space="preserve">
<style type="text/css">
	.st0{display:none;}
	.st1{display:inline;fill:none;stroke:#EA008A;stroke-width:0.2;stroke-miterlimit:10;}
	.st2{font-family:'Roboto-Regular';}
	.st3{font-size:6px;}
</style>
<g id="ICONS_00000031165542127692736420000002692518830807990202_">
	<path d="M46.666,28.9019c-1.6152-2.0166-3.9199-3.2832-6.4883-3.5669c-2.2363-0.2491-4.4258,0.2758-6.2832,1.4738V25
		c0-0.2764-0.2236-0.5-0.5-0.5H22.9463L5.9834,7.5376C5.8408,7.395,5.624,7.3521,5.4385,7.4292
		C5.252,7.5063,5.1299,7.689,5.1299,7.8911V24.5H1.71c-0.2764,0-0.5,0.2236-0.5,0.5v17.1089c0,0.2764,0.2236,0.5,0.5,0.5h6.5781
		c0.2764,0,0.5-0.2236,0.5-0.5c0-4.7827,3.8906-8.6733,8.6729-8.6733s8.6729,3.8906,8.6729,8.6733c0,0.2764,0.2236,0.5,0.5,0.5
		h6.7607c0.2764,0,0.5-0.2236,0.5-0.5V29.2322L44.462,42.4214c0.0996,0.1235,0.2441,0.1875,0.3906,0.1875
		c0.1104,0,0.2207-0.0361,0.3125-0.1099c2.0166-1.6157,3.2832-3.9199,3.5664-6.4878C49.0146,33.4429,48.2812,30.918,46.666,28.9019z
		 M6.1299,9.0981L21.5322,24.5H6.1299V9.0981z M27.1211,41.6089c-0.2607-5.1025-4.4941-9.1733-9.6602-9.1733
		s-9.3994,4.0708-9.6602,9.1733H2.21V25.5h30.6846v16.1089C32.8946,41.6089,27.1211,41.6089,27.1211,41.6089z M47.7373,35.9014
		c-0.2354,2.1362-1.2295,4.0688-2.8164,5.4937L34.0928,27.8794c1.7354-1.2368,3.8311-1.7881,5.9756-1.5503
		c2.3027,0.2539,4.3682,1.3896,5.8164,3.1978C47.334,31.335,47.9922,33.5986,47.7373,35.9014z"/>
</g>
<g id="Margin" class="st0">
	<rect x="1" y="1" class="st1" width="48" height="48"/>
</g>
<g id="Guides" class="st0">
</g>
<g id="LABELS">
	<g>
		<g>
			<text transform="matrix(1 0 0 1 -0.1128 55.1226)" class="st2 st3">architectural-blocks</text>
		</g>
	</g>
</g>
</svg>
