<?xml version="1.0" encoding="UTF-8"?><svg xmlns="http://www.w3.org/2000/svg" viewBox="0 0 50 50">
  <defs>
    <style>
      .cls-1 {
        fill: #1f1c1d;
      }

      .cls-2 {
        fill: #221f1f;
        font-family: Roboto-Regular, Roboto;
        font-size: 5px;
      }

      .cls-3 {
        letter-spacing: 0em;
      }

      .cls-4 {
        letter-spacing: 0em;
      }
    </style>
  </defs>
  <g id="Icon_Outline">
    <g>
      <path class="cls-1" d="M35.45,13.07H14.53c-.28,0-.5.22-.5.5s.22.5.5.5h20.93c.28,0,.5-.22.5-.5s-.22-.5-.5-.5Z" fill="#FFFFFF"/>
      <path class="cls-1" d="M35.45,17.99H14.53c-.28,0-.5.22-.5.5s.22.5.5.5h20.93c.28,0,.5-.22.5-.5s-.22-.5-.5-.5Z" fill="#FFFFFF"/>
      <path class="cls-1" d="M35.45,22.88H14.53c-.28,0-.5.22-.5.5,0,0,0,0,0,0,0,0,0,0,0,0,0,.28.22.5.5.5h20.93c.28,0,.5-.22.5-.5,0,0,0,0,0,0,0,0,0,0,0,0,0-.28-.22-.5-.5-.5Z" fill="#FFFFFF"/>
      <path class="cls-1" d="M47.05,27.86h0s-5.44-4.97-5.44-4.97v-14.31c0-.28-.22-.5-.5-.5h-3.01v-2.65c0-.28-.22-.5-.5-.5h-3.01v-2.77c0-.28-.22-.5-.5-.5H15.89c-.28,0-.5.22-.5.5v2.77h-3.01c-.28,0-.5.22-.5.5v2.65h-3.01c-.28,0-.5.22-.5.5v14.59l-5.41,4.68h0c-.11.1-.18.23-.18.38v19.62c0,.28.22.5.5.5h43.43c.28,0,.5-.22.5-.5v-19.62c0-.15-.07-.28-.17-.37ZM41.61,24.24l3.82,3.49h-3.82v-3.49ZM16.39,2.66h17.2v2.27h-17.2v-2.27ZM12.88,5.93h24.22v2.15H12.88v-2.15ZM9.37,9.07h31.24v18.65H9.37V9.07ZM8.37,24.49v3.24h-3.74l3.74-3.24ZM46.22,47.34H3.78v-18.62h42.43v18.62Z" fill="#FFFFFF"/>
      <path class="cls-1" d="M16.88,40.96h16.24c1.62,0,2.93-1.31,2.93-2.93s-1.31-2.93-2.93-2.93h-16.24c-1.62,0-2.93,1.31-2.93,2.93s1.31,2.93,2.93,2.93ZM16.88,36.1h16.24c1.06,0,1.93.87,1.93,1.93s-.87,1.93-1.93,1.93h-16.24c-1.06,0-1.93-.87-1.93-1.93s.87-1.93,1.93-1.93Z" fill="#FFFFFF"/>
    </g>
  </g>
  <g id="Names">
    <text class="cls-2" transform="translate(.01 53.99)"><tspan x="0" y="0">a</tspan><tspan class="cls-3" x="2.72" y="0">r</tspan><tspan x="4.37" y="0">chi</tspan><tspan class="cls-4" x="10.95" y="0">v</tspan><tspan x="13.34" y="0">e</tspan></text>
  </g>
</svg>