<?xml version="1.0" encoding="UTF-8"?><svg xmlns="http://www.w3.org/2000/svg" viewBox="0 0 50 50"><g id="uuid-08f979b3-ecdb-4d25-b613-d6d684ccb7a9"><path d="M37.84,25.45c.01-.18-.08-.35-.23-.45-.07-.04-.14-.06-.22-.07,.14-.74,.22-1.5,.2-2.26,0-.09-.01-.19-.02-.28v-.12c0-.07,0-.13,0-.2l-.27-10.48c-.02-.68-.3-1.3-.79-1.77-.49-.47-1.13-.71-1.81-.69-.56,.01-1.09,.21-1.52,.55l-.1-4c-.04-1.39-1.16-2.48-2.6-2.46-.57,.02-1.1,.22-1.52,.56v-.35c-.03-.68-.31-1.3-.8-1.77-.49-.47-1.14-.72-1.81-.69-1.39,.04-2.5,1.2-2.46,2.59v.35c-.44-.32-.96-.48-1.53-.47-1.39,.04-2.5,1.2-2.46,2.59l.24,8.99h.04c-.04,.46-.03,1.58,.01,4.36l-.06-.04c-.17-.1-.37-.09-.53,.01-.16,.11-.25,.29-.22,.48,.09,.65,.2,1.34,.31,2.06,.07,.41,.13,.84,.2,1.28-.38,.11-.84,.07-1.28-.15-.75-.77-2.25-1.96-4.22-1.93-.53,.02-2.13,.06-2.69,1.21-.27,.55-.29,1.22-.06,1.82,.24,.64,.74,1.16,1.29,1.38,2.22,1.49,5.74,3.89,6.35,4.35-.02,0-.04,.02-.06,.03-.16,.05-.28,.17-.33,.33-.05,.16-.02,.33,.08,.46l1.63,2.09-.22,14.98c0,.13,.05,.26,.14,.36,.09,.1,.22,.15,.36,.15h13.39c.14,0,.27-.06,.36-.15,.09-.1,.15-.23,.14-.37-.05-1.24-.1-2.74-.16-4.32l-.08-2.52s-.01-.06-.02-.09c-.14-3.76-.27-7.39-.3-8.49,3.28-1.55,3.6-6.67,3.61-6.9ZM21.16,15.05s0-.03,0-.04l-.24-8.99c-.01-.41,.14-.8,.42-1.09,.28-.3,.66-.47,1.07-.48,.4-.01,.8,.14,1.09,.42,.3,.28,.47,.66,.48,1.07h0l.33,12.43c0,.27,.23,.49,.5,.49h.01c.28,0,.49-.24,.49-.51l-.33-12.42h0l-.06-2.37c-.02-.84,.65-1.55,1.49-1.57,.41-.02,.8,.14,1.09,.42,.3,.28,.47,.66,.48,1.07l.06,2.36h0l.33,12.43c0,.27,.23,.49,.5,.49h.01c.28,0,.49-.24,.49-.51l-.33-12.42h0c-.02-.84,.65-1.55,1.49-1.57,.84-.04,1.55,.65,1.57,1.49l.2,7.82h0l.02,.83v.34h0l.09,3.43c0,.27,.23,.49,.5,.49h.01c.28,0,.49-.24,.49-.51l-.11-4.2-.02-.8c0-.38-.02-.85-.04-1.41-.01-.41,.14-.8,.42-1.09,.28-.3,.66-.47,1.07-.48,.41,0,.8,.14,1.09,.42,.3,.28,.46,.66,.48,1.07l.27,10.54s-.01,.13,0,.16v.17c.02,.07,.03,.14,.03,.21,.02,.85-.07,1.7-.27,2.52-3.56,.68-11.23-3.06-15.11-5.25-.03-1.95-.06-4.69-.06-4.93Zm-8.57,8.76c-.13-.35-.12-.73,.03-1.03,.3-.61,1.44-.64,1.82-.65,1.64-.06,2.91,1.03,3.52,1.68,.04,.04,.08,.07,.13,.1,.64,.34,1.34,.43,1.96,.29,.26,1.97,.39,3.94-.07,4.99-.5-.44-2-1.45-6.56-4.52-.39-.16-.68-.47-.83-.86Zm8.82,23.47l.22-14.65c0-.11-.04-.23-.11-.31l-1.36-1.75c1.74-1.27,1.11-5.26,.54-8.81-.06-.35-.11-.69-.16-1.02,2.89,1.64,11.89,6.44,16.22,5.43-.22,1.45-.95,4.54-3.21,5.39-.19,.07-.32,.26-.32,.47,0,.14,.04,1.34,.1,3.02h-4.19c-1.04,0-1.89,.85-1.89,1.89s.85,1.89,1.89,1.89h4.33c.02,.54,.04,1.08,.06,1.62h-4.17c-1.04,0-1.89,.85-1.89,1.89s.85,1.89,1.89,1.89h4.3c.05,1.34,.09,2.45,.11,3.07h-12.36Zm12.21-4.07h-4.27c-.49,0-.89-.4-.89-.89s.4-.89,.89-.89h4.2l.06,1.77Zm-.22-5.39h-4.27c-.49,0-.89-.4-.89-.89s.4-.89,.89-.89h4.22l.05,1.77Z" fill="#FFCD00"/></g><g id="uuid-56562f57-0455-4456-8ac6-0a8a6d446071"><text transform="translate(-.05 54.96)" font-family="Roboto-Regular, Roboto" font-size="6"><tspan x="0" y="0">arm-inju</tspan><tspan x="21.71" y="0" letter-spacing="0em">r</tspan><tspan x="23.8" y="0">y</tspan></text></g></svg>