<?xml version="1.0" encoding="UTF-8"?><svg xmlns="http://www.w3.org/2000/svg" viewBox="0 0 50 50">
  <defs>
    <style>
      .cls-1 {
        fill: #1f1c1d;
      }

      .cls-2 {
        fill: #221f1f;
        font-family: Roboto-Regular, Roboto;
        font-size: 5px;
      }

      .cls-3 {
        letter-spacing: .02em;
      }
    </style>
  </defs>
  <g id="Icon_Outline">
    <g>
      <path class="cls-1" d="M22.16,20.41l-3.5,9.17h1.25l.86-2.4h3.84l.88,2.4h1.24l-3.51-9.17h-1.06ZM21.13,26.2l1.56-4.29,1.56,4.29h-3.12Z" fill="#FFFFFF"/>
      <rect class="cls-1" x="28.05" y="20.41" width="1.21" height="9.17" fill="#FFFFFF"/>
      <path class="cls-1" d="M46.53,22.79c-1.04,0-1.91.73-2.13,1.7h-7.91v-2.91h5.26c.42,0,.77-.34.77-.77v-1.74c0-.28-.22-.5-.5-.5s-.5.22-.5.5v1.5h-5.03v-2.59c0-2.47-2.01-4.48-4.48-4.48h-2.59v-3.25h1.07c.23.97,1.09,1.7,2.13,1.7,1.21,0,2.2-.98,2.2-2.2s-.98-2.2-2.2-2.2c-1.04,0-1.91.73-2.13,1.7h-1.31c-.42,0-.76.34-.76.76v3.5h-2.91v-7.91c.97-.23,1.7-1.09,1.7-2.13,0-1.21-.98-2.2-2.2-2.2s-2.2.98-2.2,2.2c0,1.04.73,1.91,1.7,2.13v7.91h-2.91v-5.26c0-.42-.34-.77-.77-.77h-1.74c-.28,0-.5.22-.5.5s.22.5.5.5h1.5v5.03h-2.61c-2.47,0-4.48,2.01-4.48,4.48v2.59h-5.03v-1.5c0-.28-.22-.5-.5-.5s-.5.22-.5.5v1.74c0,.42.34.77.77.77h5.26v2.91h-7.91c-.23-.97-1.09-1.7-2.13-1.7-1.21,0-2.2.99-2.2,2.2s.98,2.2,2.2,2.2c1.04,0,1.91-.73,2.13-1.7h7.91v2.91h-3.5c-.42,0-.76.34-.76.76v1.31c-.97.23-1.7,1.09-1.7,2.13,0,1.21.98,2.2,2.2,2.2s2.2-.98,2.2-2.2c0-1.04-.73-1.91-1.7-2.13v-1.07h3.25v2.61c0,2.47,2.01,4.48,4.48,4.48h2.61v5.03h-1.5c-.28,0-.5.22-.5.5s.22.5.5.5h1.74c.42,0,.77-.34.77-.77v-5.26h2.91v7.91c-.97.23-1.7,1.09-1.7,2.13,0,1.21.98,2.2,2.2,2.2s2.2-.98,2.2-2.2c0-1.04-.73-1.91-1.7-2.13v-7.91h2.91v3.5c0,.42.34.76.76.76h1.31c.23.97,1.09,1.7,2.13,1.7,1.21,0,2.2-.98,2.2-2.2s-.98-2.2-2.2-2.2c-1.04,0-1.91.73-2.13,1.7h-1.07v-3.25h2.59c2.47,0,4.48-2.01,4.48-4.48v-2.61h3.25v1.07c-.97.23-1.7,1.09-1.7,2.13,0,1.21.98,2.2,2.2,2.2s2.2-.98,2.2-2.2c0-1.04-.73-1.91-1.7-2.13v-1.31c0-.42-.34-.76-.76-.76h-3.5v-2.91h7.91c.23.97,1.09,1.7,2.13,1.7,1.21,0,2.2-.98,2.2-2.2s-.98-2.2-2.2-2.2ZM32.62,8.56c.66,0,1.2.54,1.2,1.2s-.54,1.2-1.2,1.2-1.2-.54-1.2-1.2.54-1.2,1.2-1.2ZM3.47,26.18c-.66,0-1.2-.54-1.2-1.2s.54-1.2,1.2-1.2,1.2.54,1.2,1.2-.54,1.2-1.2,1.2ZM10.95,32.6c0,.66-.54,1.2-1.2,1.2s-1.2-.54-1.2-1.2.54-1.2,1.2-1.2,1.2.54,1.2,1.2ZM32.62,39.05c.66,0,1.2.54,1.2,1.2s-.54,1.2-1.2,1.2-1.2-.54-1.2-1.2.54-1.2,1.2-1.2ZM23.81,3.47c0-.66.54-1.2,1.2-1.2s1.2.54,1.2,1.2-.54,1.2-1.2,1.2-1.2-.54-1.2-1.2ZM26.2,46.53c0,.66-.54,1.2-1.2,1.2s-1.2-.54-1.2-1.2.54-1.2,1.2-1.2,1.2.54,1.2,1.2ZM35.49,32.01c0,1.92-1.56,3.48-3.48,3.48h-14.02c-1.92,0-3.48-1.56-3.48-3.48v-14.02c0-1.92,1.56-3.48,3.48-3.48h14.02c1.92,0,3.48,1.56,3.48,3.48v14.02ZM40.24,31.4c.66,0,1.2.54,1.2,1.2s-.54,1.2-1.2,1.2-1.2-.54-1.2-1.2.54-1.2,1.2-1.2ZM46.53,26.18c-.66,0-1.2-.54-1.2-1.2s.54-1.2,1.2-1.2,1.2.54,1.2,1.2-.54,1.2-1.2,1.2Z" fill="#FFFFFF"/>
    </g>
  </g>
  <g id="Names">
    <text class="cls-2" transform="translate(0 53.76)"><tspan x="0" y="0">a</tspan><tspan class="cls-3" x="2.72" y="0">r</tspan><tspan x="4.53" y="0">tificial-intelligence</tspan></text>
  </g>
</svg>