<?xml version="1.0" encoding="UTF-8"?>
<svg xmlns="http://www.w3.org/2000/svg" viewBox="0 0 50 50">
  <defs>
    <style>
      .cls-1 {
        fill: #1f1c1d;
      }

      .cls-2 {
        fill: #ffcd00;
      }

      .cls-3 {
        fill: #221f1f;
        font-family: Roboto-Regular, Roboto;
        font-size: 5px;
      }
    </style>
  </defs>
  <g id="Gold_Offset">
    <path class="cls-2" d="M44.31,26.44c-.88.88-3.2,2.97-5.84,3.48-2.02.39-4.32.43-7.01.14-.2-.02-1.89-.33-2.09-.36-.08-.55,0-.87-.08-1.42-.23-1.58-.46-3.3-.71-4.91,4.37,1.12,8.86,1.04,11.28-1.38,1.31-1.31,2.04-3.06,2.04-4.93s-.72-3.61-2.04-4.93c-1.31-1.31-3.06-2.04-4.93-2.04s-3.61.72-4.93,2.04c-1.98,1.98-2.03,4.46-1.9,6.15.06.76.18,1.51.27,2.08.45,2.7.86,5.46,1.25,8.12.41,2.79.84,5.69.54,8.52-.27,2.57-1.6,5.16-3.73,7.29-2.5,2.5-5.83,3.88-9.38,3.88s-6.88-1.38-9.38-3.88-3.88-5.83-3.88-9.38,1.38-6.88,3.88-9.38c2.31-2.31,5.49-3.73,8.51-3.81,1.53-.04,3.15.05,4.96.26.26,1.99.57,4.1.97,6.53-3.29-.57-7.31-1.21-9.99,1.46-2.72,2.72-2.72,7.14,0,9.86,1.36,1.36,3.14,2.04,4.93,2.04s3.57-.68,4.93-2.04c2.43-2.43,2.1-5.7,1.52-9.13-.7-4.09-1.17-7.25-1.53-10.25-.12-.98-.18-1.92-.19-2.79-.03-4.16,1.2-7.43,3.77-10,5.17-5.17,13.58-5.17,18.75,0,5.17,5.17,5.17,13.58,0,18.75Z"/>
  </g>
  <g id="Icon_Outline">
    <path class="cls-1" d="M44.02,5.98C38.46.42,29.41.42,23.85,5.98c-2.77,2.77-4.09,6.27-4.06,10.71,0,.91.07,1.88.19,2.9.02.13.03.27.05.4-1.75-.2-3.35-.28-4.86-.24-3.28.08-6.71,1.62-9.2,4.1-2.69,2.69-4.17,6.27-4.17,10.08s1.48,7.39,4.17,10.08c2.69,2.69,6.27,4.17,10.08,4.17s7.39-1.48,10.08-4.17c2.29-2.29,3.72-5.1,4.01-7.9.22-2.05.07-4.1-.17-6.11.12.01.24.03.36.04,2.8.31,5.19.26,7.31-.15,2.9-.56,5.41-2.81,6.35-3.76,5.56-5.56,5.56-14.61,0-20.17ZM43.31,25.44c-.88.88-3.2,2.97-5.84,3.48-2.02.39-4.32.43-7.01.14-.2-.02-.4-.05-.61-.07-.08-.55-.15-1.1-.23-1.64-.23-1.58-.47-3.18-.72-4.8,3.78.68,7.54.87,9.96-1.56,1.31-1.31,2.04-3.06,2.04-4.93s-.72-3.61-2.04-4.93c-1.31-1.31-3.06-2.04-4.93-2.04s-3.61.72-4.93,2.04c-1.98,1.98-2.03,4.46-1.9,6.15.06.76.18,1.51.27,2.08.45,2.7.86,5.46,1.25,8.12.41,2.79.84,5.69.54,8.52-.27,2.57-1.6,5.16-3.73,7.29-2.5,2.5-5.83,3.88-9.38,3.88s-6.88-1.38-9.38-3.88-3.88-5.83-3.88-9.38,1.38-6.88,3.88-9.38c2.31-2.31,5.49-3.73,8.51-3.81,1.53-.04,3.15.05,4.96.26.26,1.99.57,4.1.97,6.53-3.29-.57-7.31-1.21-9.99,1.46-2.72,2.72-2.72,7.14,0,9.86,1.36,1.36,3.14,2.04,4.93,2.04s3.57-.68,4.93-2.04c2.43-2.43,2.1-5.7,1.52-9.13-.7-4.09-1.17-7.25-1.53-10.25-.12-.98-.18-1.92-.19-2.79-.03-4.16,1.2-7.43,3.77-10,5.17-5.17,13.58-5.17,18.75,0,5.17,5.17,5.17,13.58,0,18.75ZM28.74,21.51c-.12-.77-.25-1.54-.37-2.3-.14-.82-.22-1.43-.26-2-.19-2.41.31-4.06,1.61-5.36,1.13-1.13,2.62-1.75,4.22-1.75s3.09.62,4.22,1.75c1.13,1.13,1.75,2.62,1.75,4.22s-.62,3.09-1.75,4.22c-2.17,2.17-5.79,1.9-9.41,1.22ZM21.3,28.59c.07.43.15.87.22,1.31.54,3.16.85,6.16-1.24,8.25-2.33,2.33-6.11,2.33-8.44,0-2.33-2.33-2.33-6.11,0-8.44,1.29-1.29,2.97-1.68,4.76-1.68,1.49,0,3.04.27,4.52.52l.18.03Z"/>
  </g>
  <g id="Names">
    <text class="cls-3" transform="translate(0 53.76)"><tspan x="0" y="0">autism-infinity</tspan></text>
  </g>
</svg>