<?xml version="1.0" encoding="UTF-8"?><svg id="Layer_1" data-name="Layer 1" xmlns="http://www.w3.org/2000/svg" viewBox="0 0 50 50">
  <defs>
    <style>
      .cls-1 {
        fill: none;
      }
    </style>
  </defs>
  <g>
    <g>
      <path class="cls-1" d="M44.98,32.08c2.3-3.7,3.57-8,3.57-12.46s-1.33-8.83-3.58-12.46" fill="#FFFFFF"/>
      <path d="M44.98,32.58c-.09,0-.18-.02-.26-.08-.23-.15-.31-.45-.16-.69,2.28-3.68,3.49-7.89,3.49-12.2s-1.21-8.51-3.51-12.19c-.15-.23-.07-.54.16-.69.24-.15.54-.08.69.16,2.39,3.84,3.66,8.24,3.66,12.72s-1.26,8.89-3.64,12.73c-.09.15-.26.24-.42.24Z" fill="#FFFFFF"/>
    </g>
    <g>
      <path class="cls-1" d="M40.44,9.97c1.75,2.81,2.78,6.11,2.78,9.65s-.98,6.79-2.76,9.66" fill="#FFFFFF"/>
      <path d="M40.46,29.78c-.09,0-.18-.02-.26-.08-.23-.15-.31-.45-.16-.69,1.76-2.83,2.69-6.08,2.69-9.39s-.93-6.55-2.7-9.39c-.15-.23-.07-.54.16-.69.24-.14.54-.07.69.16,1.87,3,2.85,6.43,2.85,9.92s-.98,6.93-2.84,9.92c-.09.15-.26.24-.42.24Z" fill="#FFFFFF"/>
    </g>
    <g>
      <path class="cls-1" d="M4.81,7.16c-2.26,3.62-3.58,7.88-3.58,12.46s1.27,8.76,3.57,12.47" fill="#FFFFFF"/>
      <path d="M4.79,32.59c-.17,0-.33-.08-.42-.24-2.38-3.83-3.64-8.24-3.64-12.73s1.26-8.88,3.66-12.72c.15-.24.46-.3.69-.16.23.15.31.45.16.69-2.29,3.68-3.51,7.9-3.51,12.19s1.21,8.53,3.49,12.2c.15.23.07.54-.16.69-.08.05-.17.08-.26.08Z" fill="#FFFFFF"/>
    </g>
    <g>
      <path class="cls-1" d="M9.32,29.28c-1.78-2.87-2.76-6.2-2.76-9.66s1.03-6.85,2.78-9.65" fill="#FFFFFF"/>
      <path d="M9.32,29.78c-.17,0-.33-.08-.42-.24-1.86-2.99-2.84-6.42-2.84-9.92s.99-6.92,2.85-9.92c.15-.24.45-.31.69-.16.23.15.31.45.16.69-1.77,2.84-2.7,6.08-2.7,9.39s.93,6.56,2.69,9.4c.15.23.07.54-.16.69-.08.05-.17.08-.26.08Z" fill="#FFFFFF"/>
    </g>
    <g>
      <path class="cls-1" d="M9.33,9.97c-1.75,2.81-2.78,6.11-2.78,9.65s.98,6.79,2.76,9.66" fill="#FFFFFF"/>
      <path d="M9.32,29.78c-.17,0-.33-.08-.42-.24-1.86-2.99-2.84-6.42-2.84-9.92s.99-6.92,2.85-9.92c.15-.24.45-.31.69-.16.23.15.31.45.16.69-1.77,2.84-2.7,6.08-2.7,9.39s.93,6.56,2.69,9.4c.15.23.07.54-.16.69-.08.05-.17.08-.26.08Z" fill="#FFFFFF"/>
    </g>
    <g>
      <path class="cls-1" d="M13.84,26.47c-1.27-2.04-1.96-4.4-1.96-6.85s.73-4.86,1.97-6.85" fill="#FFFFFF"/>
      <path d="M13.84,26.97c-.17,0-.33-.08-.42-.24-1.33-2.14-2.04-4.6-2.04-7.12s.71-4.96,2.04-7.11c.15-.23.46-.3.69-.16.23.15.31.45.16.69-1.24,1.99-1.89,4.27-1.89,6.58s.65,4.6,1.89,6.59c.15.23.07.54-.16.69-.08.05-.17.08-.26.08Z" fill="#FFFFFF"/>
    </g>
    <g>
      <path class="cls-1" d="M40.46,29.28c1.78-2.87,2.76-6.2,2.76-9.66s-1.03-6.85-2.78-9.65" fill="#FFFFFF"/>
      <path d="M40.46,29.78c-.09,0-.18-.02-.26-.08-.23-.15-.31-.45-.16-.69,1.76-2.83,2.69-6.08,2.69-9.39s-.93-6.55-2.7-9.39c-.15-.23-.07-.54.16-.69.24-.14.54-.07.69.16,1.87,3,2.85,6.43,2.85,9.92s-.98,6.93-2.84,9.92c-.09.15-.26.24-.42.24Z" fill="#FFFFFF"/>
    </g>
    <g>
      <path class="cls-1" d="M35.92,12.77c1.24,1.99,1.97,4.33,1.97,6.85s-.7,4.81-1.96,6.85" fill="#FFFFFF"/>
      <path d="M35.93,26.97c-.09,0-.18-.02-.26-.08-.23-.15-.31-.45-.16-.69,1.23-1.99,1.89-4.26,1.89-6.59s-.66-4.59-1.89-6.58c-.15-.23-.07-.54.16-.69.24-.14.54-.08.69.16,1.34,2.15,2.04,4.61,2.04,7.11s-.7,4.97-2.04,7.11c-.09.15-.26.24-.42.24Z" fill="#FFFFFF"/>
    </g>
  </g>
  <path d="M36.43,46.28H13.34c-.28,0-.5-.22-.5-.5v-8.71c0-3.93,3.08-7.15,7.01-7.35h10.05c3.95.2,7.03,3.42,7.03,7.35v8.71c0,.28-.22.5-.5.5ZM13.84,45.28h22.09v-8.21c0-3.39-2.66-6.18-6.05-6.35h-10.01c-3.37.17-6.03,2.96-6.03,6.35v8.21Z" fill="#FFFFFF"/>
  <g>
    <path class="cls-1" d="M24.88,12.36c-4.01,0-7.26,3.25-7.26,7.26,0,2.23,1,4.21,2.58,5.55,1.26,1.07,2.9,1.72,4.68,1.72s3.42-.65,4.68-1.72c1.58-1.33,2.58-3.32,2.58-5.55,0-4.01-3.25-7.26-7.26-7.26Z" fill="#FFFFFF"/>
    <path d="M24.88,27.38c-1.83,0-3.61-.65-5.01-1.84-1.75-1.48-2.76-3.64-2.76-5.93,0-4.28,3.48-7.76,7.76-7.76s7.76,3.48,7.76,7.76c0,2.29-1,4.45-2.76,5.93-1.4,1.18-3.18,1.84-5.01,1.84ZM24.88,12.86c-3.73,0-6.76,3.03-6.76,6.76,0,1.99.88,3.87,2.4,5.16,1.22,1.03,2.77,1.6,4.36,1.6s3.14-.57,4.36-1.6c1.53-1.29,2.4-3.17,2.4-5.16,0-3.73-3.03-6.76-6.76-6.76Z" fill="#FFFFFF"/>
  </g>
</svg>