<?xml version="1.0" encoding="UTF-8"?><svg xmlns="http://www.w3.org/2000/svg" viewBox="0 0 50 50"><g id="uuid-765464ad-718e-4ae4-ab61-56b1c47c6d5a"><g><path d="M35.83,25.62c.38,.14,.75,.27,1.09,.4-.73-.31-1.46-.58-2.21-.82,.37,.14,.74,.28,1.11,.42Z" fill="none"/><path d="M41.05,28.16c4.84-7.51,4.67-17.73-.54-25.89-.49-.89-1.32-1.54-2.27-1.79-.82-.21-1.67-.1-2.32,.31-1.01,.65-1.51,2-1.24,3.38,.76,2.95,1.31,7.52-.36,12.51-.26,.78-.58,1.53-.93,2.27-2.87-2.69-7.54-3.25-13.22-1.53-6.64,2.01-9.62,7.38-9.75,7.61-.22,.41-.31,.61-.32,.62-.25,.59-.04,1.27,.49,1.57,.18,.1,.39,.16,.6,.16,.27,0,.53-.08,.73-.24,3.16-1.97,8.28-4.24,14.73-3.87,.86,.05,1.72,.16,2.57,.3-5.1,5.93-13.1,8.6-20.81,6.83-1.01-.23-1.98,.16-2.54,.99-.01,.02-.03,.03-.04,.04-.26,.35-.39,.77-.38,1.2-.05,.76,.27,1.51,.91,2.02,.26,.21,.52,.41,.79,.61,4.29,3.15,9.29,4.66,14.24,4.66,4.38,0,8.72-1.19,12.51-3.48-1.88,4.84-4.97,8.19-7.38,10.21-.42,.28-.64,.79-.54,1.26,.12,.57,.63,.96,1.23,.96,.04,0,.08,0,.12,0,0,0,.22-.02,.68-.11h0c.11-.02,6.16-1.19,10.27-6.88,4.81-6.67,4.23-11.02,2.89-13.5-.04-.08-.09-.15-.14-.22Zm-5.78-11.15c1.76-5.22,1.18-9.99,.39-13.05-.19-.94,.14-1.9,.8-2.32,.41-.26,.97-.33,1.53-.19,.69,.18,1.29,.66,1.65,1.32,0,.01,.01,.02,.02,.03,4.93,7.7,5.19,17.3,.79,24.47-1.02-1.3-2.46-2.34-4.27-3.07-.35-1.74-1.04-3.26-2.05-4.48,.44-.88,.82-1.79,1.14-2.72Zm-8.55,5.28c-6.71-.39-12.04,1.97-15.37,4.05-.08,.06-.18,.08-.25,.04-.08-.05-.13-.18-.08-.3,0,0,.09-.19,.28-.55,.04-.06,2.92-5.24,9.16-7.13,5.45-1.65,9.86-1.13,12.44,1.46,1.12,1.13,1.9,2.64,2.28,4.42-2.71-1.15-5.55-1.82-8.46-1.99ZM6.86,33.45c-.21-.16-.35-.39-.4-.64,0-.03,0-.06,0-.08,0-.05,0-.1,0-.15,.02-.14,.06-.29,.12-.42,.03-.06,.08-.11,.11-.17,.16-.18,.36-.31,.6-.35,.05,0,.1-.01,.16-.01,.21,0,.42,.07,.6,.2,.22,.16,.36,.4,.4,.66,.04,.27-.02,.54-.19,.75-.16,.22-.4,.36-.67,.4-.27,.04-.54-.02-.75-.19Zm1.07,1.13c.34-.08,.66-.24,.91-.48,1.27,.44,2.57,.8,3.87,1.03,1.55,.28,3.11,.42,4.68,.42,3.09,0,6.21-.54,9.33-1.63,.26-.09,.4-.38,.31-.64-.09-.26-.38-.4-.64-.31-4.54,1.58-9.08,1.97-13.5,1.17-1.18-.21-2.36-.54-3.51-.93,.09-.29,.12-.59,.07-.9-.04-.27-.14-.53-.28-.75,7.95,1.45,16.04-1.53,21.15-7.77,1.73,.37,3.42,.92,5.06,1.67l.05,.04c.25,2.85,.04,5.66-.68,8.38-.1,.36-.22,.7-.33,1.05-7.82,5.3-18.43,5.45-26.5-.36Zm29.56,6.72c-3.89,5.4-9.58,6.47-9.64,6.48h0c-.4,.07-.6,.1-.6,.1-.14,.01-.25-.08-.27-.17-.02-.08,.03-.17,.16-.26,2.97-2.48,6.87-6.8,8.59-13.31,.75-2.84,1-5.77,.74-8.74,1.35,.64,2.91,1.71,3.84,3.45,1.72,3.19,.75,7.5-2.82,12.44Z" fill="#FFCD00"/></g></g><g id="uuid-e50b269b-80f0-48f9-b1c1-4207f556455a"><text transform="translate(-.19 55.02)" font-family="Roboto-Regular, Roboto" font-size="6"><tspan x="0" y="0">banana</tspan></text></g></svg>