<?xml version="1.0" encoding="UTF-8"?><svg xmlns="http://www.w3.org/2000/svg" viewBox="0 0 50 50">
  <defs>
    <style>
      .cls-1 {
        font-family: ArialMT, Arial;
        font-size: 6px;
      }
    </style>
  </defs>
  <g id="Black">
    <g>
      <path d="M31.26,4.33H15.24c-2.08,0-3.77,1.69-3.77,3.77v11.01c0,2.08,1.69,3.77,3.77,3.77h16.02c2.08,0,3.77-1.69,3.77-3.77v-11.01c0-2.08-1.69-3.77-3.77-3.77ZM34.03,19.11c0,1.53-1.24,2.77-2.77,2.77H15.24c-1.53,0-2.77-1.24-2.77-2.77v-11.01c0-1.53,1.24-2.77,2.77-2.77h16.02c1.53,0,2.77,1.24,2.77,2.77v11.01Z" fill="#FFFFFF"/>
      <path d="M31.38.89H15.12c-3.79,0-6.87,3.08-6.87,6.87v17.34c0,7.32,5.29,13.43,12.25,14.73v8.79c0,.28.22.5.5.5h4.51c.28,0,.5-.22.5-.5v-8.79c6.95-1.3,12.24-7.4,12.24-14.73V7.76c0-3.79-3.07-6.87-6.86-6.87ZM25,48.11h-3.51v-1.6h3.51v1.6ZM25,40.08v5.43h-3.51v-5.43h3.51ZM37.24,25.09c0,7.71-6.28,13.99-13.99,13.99s-13.99-6.28-13.99-13.99V7.76c0-3.24,2.62-5.87,5.86-5.87h16.26c3.24,0,5.87,2.63,5.87,5.87v17.34Z" fill="#FFFFFF"/>
      <g>
        <path d="M21,26.99h-7.57c-.13,0-.26.05-.35.15-.09.09-.15.22-.15.35,0,4.46,3.61,8.07,8.07,8.07.13,0,.26-.05.35-.15.09-.09.15-.22.15-.35v-7.57c0-.13-.05-.26-.15-.35-.09-.09-.22-.15-.35-.15ZM20.5,34.53c-1.75-.12-3.33-.88-4.5-2.04-1.17-1.17-1.92-2.75-2.04-4.5h6.54v6.54Z" fill="#FFFFFF"/>
        <path d="M33.43,27.13c-.09-.09-.22-.15-.35-.15h-7.57c-.13,0-.26.05-.35.15-.09.09-.15.22-.15.35v7.57c0,.13.05.26.15.35.09.09.22.15.35.15,4.46,0,8.07-3.61,8.07-8.07,0-.13-.05-.26-.15-.35ZM26,34.53v-6.54h6.54c-.12,1.75-.88,3.33-2.04,4.5-1.17,1.17-2.75,1.92-4.5,2.04Z" fill="#FFFFFF"/>
      </g>
      <path d="M23.13,6.82c-.09-.15-.25-.25-.43-.25-.17-.04-.35.1-.43.25-.36.63-3.5,6.21-3.5,8.2,0,2.2,1.79,3.99,3.99,3.99s3.99-1.79,3.99-3.99c0-2-3.24-7.58-3.61-8.21ZM22.76,18.01c-1.65,0-2.99-1.34-2.99-2.99,0-1.28,1.84-4.93,2.94-6.94,1.13,2.01,3.04,5.66,3.04,6.94,0,1.65-1.34,2.99-2.99,2.99Z" fill="#FFFFFF"/>
    </g>
  </g>
  <g id="Labels">
    <text class="cls-1" transform="translate(0 54.83)"><tspan x="0" y="0">Blood Glucose Machine</tspan></text>
  </g>
</svg>