<?xml version="1.0" encoding="UTF-8"?><svg xmlns="http://www.w3.org/2000/svg" viewBox="0 0 50 50"><g id="uuid-f97b9932-6362-41d8-b4cb-1eeee4c085d4"><path d="M42.2,9.43V28.71c0,.28,.22,.5,.5,.5s.5-.22,.5-.5V9.43c0-4.25-3.46-7.71-7.71-7.71s-7.71,3.46-7.71,7.71v31.15c0,3.7-3.01,6.71-6.71,6.71s-6.71-3.01-6.71-6.71v-2.88h1.92c1.93,0,3.5-1.57,3.5-3.5v-1.87h1.37c1.93,0,3.5-1.57,3.5-3.5V5.52c0-1.93-1.57-3.5-3.5-3.5H6.56c-1.93,0-3.5,1.57-3.5,3.5V28.82c0,.7,.21,1.37,.6,1.95,.66,.97,1.74,1.55,2.9,1.55h1.43v1.87c0,1.93,1.57,3.5,3.5,3.5h1.89v2.88c0,4.25,3.46,7.71,7.71,7.71s7.71-3.46,7.71-7.71V9.43c0-3.7,3.01-6.71,6.71-6.71s6.71,3.01,6.71,6.71ZM4.06,5.52c0-1.38,1.12-2.5,2.5-2.5h14.61c1.38,0,2.5,1.12,2.5,2.5v5.57H4.06V5.52Zm2.5,25.8c-.83,0-1.6-.41-2.07-1.11-.28-.41-.43-.9-.43-1.39V12.09H23.67V28.82c0,1.38-1.12,2.5-2.5,2.5H6.56Zm2.43,2.87v-1.87h9.81v1.87c0,1.38-1.12,2.5-2.5,2.5h-4.81c-1.38,0-2.5-1.12-2.5-2.5Z" fill="#FFCD00"/><path d="M43.05,30.91c-.09-.15-.23-.24-.43-.25-.18,0-.34,.1-.43,.25-.39,.68-3.77,6.69-3.77,8.83,0,2.35,1.91,4.26,4.26,4.26s4.26-1.91,4.26-4.26c0-2.14-3.49-8.16-3.89-8.84Zm-.37,12.1c-1.8,0-3.26-1.46-3.26-3.26,0-1.4,2.03-5.41,3.21-7.57,1.21,2.15,3.32,6.17,3.32,7.57,0,1.8-1.46,3.26-3.26,3.26Z" fill="#FFCD00"/><path d="M20.32,24.16v-4.95c0-.28-.23-.5-.5-.5h-3.14v-3.18c0-.28-.23-.5-.5-.5h-4.9c-.28,0-.5,.23-.5,.5v3.18h-3.14c-.28,0-.5,.23-.5,.5v4.95c0,.28,.23,.5,.5,.5h3.14v3.18c0,.28,.23,.5,.5,.5h4.9c.28,0,.5-.23,.5-.5v-3.18h3.14c.28,0,.5-.23,.5-.5Zm-1-.5h-3.14c-.28,0-.5,.23-.5,.5v3.18h-3.9v-3.18c0-.28-.23-.5-.5-.5h-3.14v-3.95h3.14c.28,0,.5-.23,.5-.5v-3.18h3.9v3.18c0,.28,.23,.5,.5,.5h3.14v3.95Z" fill="#FFCD00"/></g><g id="uuid-1786fd2b-956f-44f7-84fe-76af688f77af"><text transform="translate(.93 54.84)" font-family="Roboto-Regular, Roboto" font-size="6"><tspan x="0" y="0">blood-donation</tspan></text></g></svg>