<?xml version="1.0" encoding="UTF-8"?><svg xmlns="http://www.w3.org/2000/svg" viewBox="0 0 50 50"><g id="uuid-fb59b244-5989-4867-8392-110cc72d4301"><path d="M26.55,22.75h-2.83V6.18c0-.28-.22-.5-.5-.5s-.5,.22-.5,.5V23.25c0,.28,.22,.5,.5,.5h3.33c.28,0,.5-.22,.5-.5s-.22-.5-.5-.5Z" fill="#FFFFFF"/><path d="M43.81,14.55c.22-.17,.25-.49,.08-.7-.17-.22-.49-.25-.7-.08l-.42,.34v1.28l1.04-.83Z" fill="none"/><path d="M48.05,15.85c0-3.49-2.64-6.38-6.03-6.77V2.26c0-.28-.22-.5-.5-.5H19.26c-.28,0-.5,.22-.5,.5V27.05c0,.28,.22,.5,.5,.5h10.83c-.46,1.8-1.08,3.6-1.87,5.36-4.63,10.31-13.44,16.44-19.64,13.66-2.96-1.33-4.9-4.5-5.46-8.93-.57-4.52,.35-9.78,2.61-14.82,.26-.57,.53-1.13,.81-1.67,.23,.05,.46,.08,.7,.08,.95,0,1.92-.39,2.83-1.14,1.17-.96,2.09-2.43,2.61-4.12s.55-3.42,.11-4.87c-.46-1.52-1.39-2.56-2.62-2.94s-2.58-.02-3.81,.99c-1.17,.96-2.09,2.43-2.61,4.12s-.55,3.42-.11,4.87c.38,1.24,1.06,2.15,1.97,2.65-.27,.53-.53,1.06-.78,1.61-2.33,5.2-3.29,10.65-2.69,15.35,.61,4.79,2.76,8.24,6.05,9.72,1.13,.51,2.33,.75,3.57,.75,6.16,0,13.35-5.91,17.38-14.91,.85-1.89,1.51-3.83,1.99-5.77h10.39c.28,0,.5-.22,.5-.5v-4.43c3.39-.39,6.03-3.28,6.03-6.77ZM4.7,13.57c.45-1.5,1.27-2.79,2.28-3.63,.72-.6,1.48-.91,2.2-.91,.23,0,.46,.03,.69,.1,.9,.27,1.59,1.08,1.96,2.27,.38,1.26,.34,2.79-.11,4.29-.45,1.5-1.27,2.79-2.28,3.63-.96,.79-1.99,1.08-2.88,.81-1.93-.58-2.76-3.53-1.85-6.56Zm30.71,2.28c0-3.21,2.61-5.82,5.82-5.82s5.82,2.61,5.82,5.82-2.61,5.82-5.82,5.82-5.82-2.61-5.82-5.82Zm-4.91,10.7l-.15-.03v.03h-10.59V2.76h21.25v6.29c-3.66,.11-6.6,3.12-6.6,6.81s2.94,6.69,6.6,6.81v3.89h-10.52Z" fill="#FFFFFF"/><path d="M42.42,15.86c0-.06-.03-.12-.04-.18l1.42-1.13c.22-.17,.25-.49,.08-.7-.17-.22-.49-.25-.7-.08l-1.35,1.08c-.19-.12-.4-.21-.64-.21-.68,0-1.23,.55-1.23,1.23s.55,1.23,1.23,1.23,1.23-.55,1.23-1.23Z" fill="#FFFFFF"/></g><g id="uuid-d2a9d907-7852-4d34-93e5-69e490520dd1"><text transform="translate(-.14 54.84)" font-family="Roboto-Regular, Roboto" font-size="6"><tspan x="0" y="0">blood-p</tspan><tspan x="20.07" y="0" letter-spacing="0em">r</tspan><tspan x="22.05" y="0">essu</tspan><tspan x="34.72" y="0" letter-spacing="0em">r</tspan><tspan x="36.69" y="0">e</tspan></text></g></svg>