<?xml version="1.0" encoding="UTF-8"?><svg xmlns="http://www.w3.org/2000/svg" viewBox="0 0 50 50">
  <defs>
    <style>
      .cls-1 {
        fill: #1f1c1d;
      }

      .cls-2 {
        fill: #221f1f;
        font-family: Roboto-Regular, Roboto;
        font-size: 5px;
      }
    </style>
  </defs>
  <g id="Icon_Outline">
    <g>
      <path class="cls-1" d="M39.54,2.19H11.8c-2.42,0-4.39,1.97-4.39,4.39v40.11c0,.44.25.83.65,1.01.16.07.32.11.48.11.25,0,.48-.08.66-.23l13.18-8.68s.11-.04.2.04l13.08,8.61c.33.28.79.35,1.19.16.4-.18.65-.57.65-1.01v-28.75h4.6c.28,0,.5-.22.5-.5V5.25c0-1.68-1.37-3.05-3.05-3.05ZM36.49,5.24v41.45s-.02.08-.07.1c-.04.02-.08.02-.17-.05l-13.08-8.61c-.42-.35-1.02-.36-1.39-.04l-13.18,8.68s-.08.04-.12.02c-.04-.02-.07-.06-.07-.1V6.58c0-1.87,1.52-3.39,3.39-3.39h25.5c-.5.54-.81,1.26-.81,2.05ZM41.59,16.93h-4.1V5.24c0-1.13.92-2.05,2.05-2.05s2.05.92,2.05,2.05v11.69Z" fill="#FFCD00"/>
      <path class="cls-1" d="M18.08,24.23l-.89,5.17c-.03.19.04.38.2.49.09.06.19.1.29.1.08,0,.16-.02.23-.06l2.2-1.16,2.44-1.28,1.16.61,3.48,1.83c.17.09.37.08.53-.04.02-.02.03-.04.05-.06.11-.11.18-.27.15-.43l-.89-5.17,2.4-2.34,1.35-1.32c.14-.13.19-.33.13-.51s-.22-.31-.4-.34h.01l-5.19-.75-2.32-4.7c-.17-.34-.73-.34-.9,0l-2.32,4.7-5.19.75c-.19.03-.34.16-.4.34s0,.38.13.51l3.75,3.66ZM20.22,19.91c.16-.02.3-.13.38-.27l1.99-4.03,1.15,2.33.84,1.69c.07.15.21.25.38.27l.58.08,3.86.56-1.18,1.15-.02.02-2.04,1.99c-.12.11-.17.28-.14.44l.76,4.43-3.98-2.09c-.14-.08-.32-.08-.46,0l-1.99,1.05-1.98,1.04.76-4.43c.02-.12-.02-.24-.08-.34-.02-.03-.03-.07-.06-.1l-1.64-1.6-1.58-1.54,4.45-.65Z" fill="#FFCD00"/>
    </g>
  </g>
  <g id="Names">
    <text class="cls-2" transform="translate(0 53.76)"><tspan x="0" y="0">bookmark</tspan></text>
  </g>
</svg>