<?xml version="1.0" encoding="UTF-8"?><svg xmlns="http://www.w3.org/2000/svg" viewBox="0 0 50 50">
  <defs>
    <style>
      .cls-1 {
        fill: #1f1c1d;
      }

      .cls-2 {
        fill: #221f1f;
        font-family: Roboto-Regular, Roboto;
        font-size: 5px;
      }
    </style>
  </defs>
  <g id="Icon_Outline">
    <g>
      <path class="cls-1" d="M8.58,16.73c-.28,0-.5.22-.5.5v10.81c0,.28.22.5.5.5s.5-.22.5-.5v-10.81c0-.28-.22-.5-.5-.5Z" fill="#FFCD00"/>
      <path class="cls-1" d="M34.85,17.02c-.27-.05-.53.13-.58.4l-1.99,10.63c-.05.27.13.53.4.58.03,0,.06,0,.09,0,.24,0,.45-.17.49-.41l1.99-10.63c.05-.27-.13-.53-.4-.58Z" fill="#FFCD00"/>
      <path class="cls-1" d="M15.28,19.7c-.28,0-.5.22-.5.5v7.19c0,.28.22.5.5.5s.5-.22.5-.5v-7.19c0-.28-.22-.5-.5-.5Z" fill="#FFCD00"/>
      <path class="cls-1" d="M20.46,14.68c-.28,0-.5.22-.5.5v12.06c0,.28.22.5.5.5s.5-.22.5-.5v-12.06c0-.28-.22-.5-.5-.5Z" fill="#FFCD00"/>
      <path class="cls-1" d="M41.91,17.96c-.28,0-.5.22-.5.5v8.83c0,.28.22.5.5.5s.5-.22.5-.5v-8.83c0-.28-.22-.5-.5-.5Z" fill="#FFCD00"/>
      <path class="cls-1" d="M47.5,34.41h-2.41V11.34c0-.55-.45-1-1-1h-4.36c-.55,0-1,.45-1,1v.4l-5.75-1.08c-.26-.05-.53,0-.75.16-.22.15-.37.38-.42.64l-3.98,21.25c-.1.54.26,1.06.8,1.17l2.83.53h-7.63V8.18c0-.64-.52-1.16-1.16-1.16h-4.37c-.64,0-1.16.52-1.16,1.16v4.02h-3.67v-1.33c0-.55-.45-1-1-1h-7.71c-.55,0-1,.45-1,1v23.54h-1.23c-.55,0-1,.45-1,1v1.99c0,.55.45,1,1,1h4v3.58c0,.55.45,1,1,1h1.99c.55,0,1-.45,1-1v-3.58h29.46v3.58c0,.55.45,1,1,1h1.99c.55,0,1-.45,1-1v-3.58h3.55c.55,0,1-.45,1-1v-1.99c0-.55-.45-1-1-1ZM39.72,11.34h4.36v1.99h-4.36v-1.99ZM39.72,14.33h4.36v17.08h-4.36V14.33ZM39.72,32.41h4.36v1.99h-4.36v-1.99ZM32.78,11.65l5.94,1.11-.23,1.22-5.94-1.11.23-1.22ZM38.72,18.19v16.23h-3.04l3.04-16.23ZM32.37,13.84l5.94,1.11-3.16,16.86-5.94-1.11,3.16-16.86ZM28.8,32.9l.23-1.22,5.94,1.11-.23,1.22-5.94-1.11ZM18.11,8.18c0-.09.07-.16.16-.16h4.37c.09,0,.16.07.16.16v2.13h-4.7v-2.13ZM18.11,13.2v-1.89h4.7v19.79h-4.7V13.2ZM18.11,32.11h4.7v2.3h-4.7v-2.3ZM13.44,13.2h3.67v1.26h-3.67v-1.26ZM13.44,15.46h3.67v16.68h-3.67V15.46ZM13.44,33.14h3.67v1.26h-3.67v-1.26ZM4.73,10.87h7.71v2.19h-7.71v-2.19ZM4.73,14.06h7.71v17.15h-7.71V14.06ZM4.73,32.21h7.71v2.19h-7.71v-2.19ZM7.5,41.98v-3.58h1.99v3.58h-1.99ZM40.95,41.98v-3.58h1.99v3.58h-1.99ZM47.5,37.4H2.5v-1.99h44.99v1.99Z" fill="#FFCD00"/>
    </g>
  </g>
  <g id="Names">
    <text class="cls-2" transform="translate(0 53.76)"><tspan x="0" y="0">bookshelf</tspan></text>
  </g>
</svg>