<?xml version="1.0" encoding="UTF-8"?><svg xmlns="http://www.w3.org/2000/svg" viewBox="0 0 50 50">
  <defs>
    <style>
      .cls-1 {
        fill: #1f1c1d;
      }

      .cls-2 {
        fill: #221f1f;
        font-family: Roboto-Regular, Roboto;
        font-size: 5px;
      }
    </style>
  </defs>
  <g id="Icon_Outline">
    <g>
      <path class="cls-1" d="M19.14,22.92c.17.09.37.07.53-.04.15-.11.23-.3.2-.49l-.37-2.13,1.55-1.52c.14-.13.19-.33.13-.51-.06-.18-.22-.31-.4-.34l-2.14-.31-.95-1.93c-.08-.17-.26-.28-.45-.28s-.36.11-.45.28l-.96,1.93-2.14.31c-.19.03-.34.16-.4.34s0,.38.13.51l1.54,1.51-.37,2.13c-.03.19.04.38.2.49.09.06.19.1.29.1.08,0,.16-.02.23-.06l1.91-1,1.91,1ZM16.99,20.91l-1.24.65.23-1.36c.04-.16,0-.34-.14-.47l-1.01-.98,1.4-.2c.16-.02.3-.13.38-.27l.62-1.26.63,1.26c.07.15.22.25.38.27l1.39.2-1.02.99c-.12.12-.17.28-.14.44l.24,1.39-1.25-.65c-.15-.08-.32-.08-.47,0Z" fill="#FFCD00"/>
      <path class="cls-1" d="M43.62,3.5h-17.39v-.81c0-.92-.75-1.67-1.67-1.67h-.08s-.02,0-.03,0c0,0-.01,0-.02,0h-12.32c-.94,0-1.7.76-1.7,1.7v.78h-.48c-2.24,0-4.06,1.82-4.06,4.06v37.52c0,2.15,1.75,3.89,3.89,3.89h33.85c.28,0,.5-.22.5-.5V4c0-.28-.22-.5-.5-.5ZM23.81,2.69c0-.37.3-.67.67-.67h.08c.37,0,.67.3.67.67v.75h-1.42v-.75ZM11.42,2.72c0-.38.31-.7.7-.7h10.84c-.09.21-.14.43-.14.67v25.76l-5.2-3.42c-.28-.24-.7-.24-.94-.04l-5.25,3.46V2.72ZM43.12,44.38H11.05c-.28,0-.5.22-.5.5s.22.5.5.5h32.07v2.59H9.94c-1.69,0-3.06-1.37-3.06-3.06v-.23c0-1.6,1.3-2.89,2.89-2.89h33.35v2.59ZM43.12,40.79H9.77c-1.15,0-2.18.51-2.89,1.31V7.56c0-1.69,1.37-3.06,3.06-3.06h.48v24.4c0,.3.17.57.44.69.11.05.22.07.33.07.17,0,.32-.05.43-.15l5.49-3.62,5.44,3.58c.23.19.54.24.81.11.27-.13.44-.39.44-.69V4.5h19.31v36.29Z" fill="#FFCD00"/>
    </g>
  </g>
  <g id="Names">
    <text class="cls-2" transform="translate(0 53.76)"><tspan x="0" y="0">bookmark-book</tspan></text>
  </g>
</svg>