<?xml version="1.0" encoding="UTF-8"?><svg xmlns="http://www.w3.org/2000/svg" viewBox="0 0 50 50"><g id="uuid-abe39fa2-8f67-4ee0-849a-5df12439971f"><path d="M49.28,17.7l-5.6-2.7,5.37-2.77c.17-.09,.27-.26,.27-.45s-.11-.36-.28-.44L32.42,3.1c-.14-.07-.3-.07-.44,0l-6.46,3.15-7.55-3.64c-.14-.07-.3-.07-.44,0L.93,10.91c-.17,.08-.27,.25-.28,.44s.1,.36,.27,.45l6.33,3.34L.72,18.32c-.17,.08-.28,.26-.28,.45,0,.19,.1,.36,.27,.45l5.97,3.05s-.01,.05-.01,.08v15.88c0,.19,.11,.37,.28,.45l17.87,8.73h.01c.06,.03,.13,.05,.21,.05s.14-.02,.21-.05h.01l17.81-8.81c.17-.08,.28-.26,.28-.45V21.85l5.95-3.26c.16-.09,.26-.26,.26-.45,0-.19-.11-.36-.28-.44ZM32.19,4.1l15.52,7.69-5.16,2.66-15.89-7.66,5.53-2.69Zm-7.05,19.33L9.47,15.17,25.52,7.35l15.92,7.68-16.3,8.4ZM2.25,11.37L17.75,3.61l6.62,3.19L8.37,14.59l-6.12-3.23Zm6.1,4.35l15.7,8.28-5.86,3.02-10.87-5.54-5.27-2.69,6.29-3.07Zm-.68,7.05l10.3,5.25c.14,.07,.31,.07,.46,0l6.12-3.15v21.29L7.67,37.91v-15.15Zm34.68,15.06l-16.81,8.32V24.77l6.11,3.22c.15,.08,.33,.08,.47,0l10.23-5.6v15.43Zm.22-16.69l-10.69,5.85-5.67-2.99,16.35-8.43,5.41,2.61-5.4,2.96Z" fill="#FFFFFF"/></g><g id="uuid-385799e1-5ab9-4009-9968-8d8811047ee3"><text transform="translate(0 55.01)" font-family="Roboto-Regular, Roboto" font-size="6"><tspan x="0" y="0">b</tspan><tspan x="3.37" y="0" letter-spacing="-.01em">o</tspan><tspan x="6.73" y="0">x-open</tspan></text></g></svg>