<?xml version="1.0" encoding="UTF-8"?><svg xmlns="http://www.w3.org/2000/svg" viewBox="0 0 50 50"><g id="uuid-eacb0c45-b94a-406d-a59f-fc50805cc214"><g><path d="M37.86,21.47c-.79,0-1.5,.3-2.04,.79-.06-1.63-1.4-2.94-3.04-2.94-.8,0-1.52,.31-2.06,.81-.18-1.51-1.47-2.68-3.02-2.68-.79,0-1.5,.3-2.04,.79v-4.89c0-1.68-1.37-3.04-3.04-3.04h0c-.81,0-1.57,.32-2.15,.89-.58,.58-.89,1.34-.89,2.15V29.53c-.26-.43-.61-.91-1.05-1.38-.88-.94-2-1.68-3.21-2.13-1.05-.5-2.31-.24-3.07,.65-.76,.89-.83,2.19-.17,3.14l9.75,14.68v3.44c0,.28,.22,.5,.5,.5h14.66c.28,0,.5-.22,.5-.5l-.02-5.04c.81-1.36,1.48-2.81,2.01-4.29,.89-2.5,1.38-5.13,1.44-7.83v-6.25c0-1.68-1.37-3.04-3.04-3.04Zm2.04,9.28c-.06,2.58-.53,5.11-1.38,7.5-.52,1.46-1.2,2.89-2,4.23-.05,.08-.07,.17-.07,.26l.02,4.67h-13.66v-3.09c0-.1-.03-.19-.08-.28l-9.84-14.82c-.41-.59-.37-1.39,.1-1.93,.46-.54,1.24-.7,1.92-.38,1.11,.42,2.1,1.07,2.87,1.89,.93,.99,1.38,2.05,1.53,2.4,.13,.29,.21,.54,.27,.72,.08,.23,.31,.38,.55,.34,.24-.04,.42-.25,.42-.49V13.35c0-.54,.21-1.05,.6-1.44s.9-.6,1.44-.6h0c1.13,0,2.04,.92,2.04,2.04v14.46c0,.28,.22,.5,.5,.5s.5-.22,.5-.5v-7.31c0-1.13,.92-2.04,2.04-2.04s2.04,.92,2.04,2.04v7.44c0,.28,.22,.5,.5,.5s.5-.22,.5-.5v-5.57c0-1.13,.92-2.04,2.04-2.04s2.04,.92,2.04,2.04v5.57c0,.28,.22,.5,.5,.5s.5-.22,.5-.5v-3.43c0-1.12,.92-2.04,2.04-2.04s2.04,.92,2.04,2.04v6.24Z" fill="#FFCD00"/><path d="M9.96,5.96c-.75,0-1.36,.61-1.36,1.36s.61,1.36,1.36,1.36,1.36-.61,1.36-1.36-.61-1.36-1.36-1.36Z" fill="#FFCD00"/><path d="M14.94,8.69c.75,0,1.36-.61,1.36-1.36s-.61-1.36-1.36-1.36-1.36,.61-1.36,1.36,.61,1.36,1.36,1.36Z" fill="#FFCD00"/><path d="M19.91,8.69c.75,0,1.36-.61,1.36-1.36s-.61-1.36-1.36-1.36-1.36,.61-1.36,1.36,.61,1.36,1.36,1.36Z" fill="#FFCD00"/><path d="M24.89,8.69c.75,0,1.36-.61,1.36-1.36s-.61-1.36-1.36-1.36-1.36,.61-1.36,1.36,.61,1.36,1.36,1.36Z" fill="#FFCD00"/><circle cx="29.87" cy="7.32" r="1.36" fill="#FFCD00"/><circle cx="29.87" cy="2.48" r="1.36" fill="#FFCD00"/><circle cx="29.87" cy="12.17" r="1.36" fill="#FFCD00"/><path d="M14.94,3.84c.75,0,1.36-.61,1.36-1.36s-.61-1.36-1.36-1.36-1.36,.61-1.36,1.36,.61,1.36,1.36,1.36Z" fill="#FFCD00"/><path d="M14.94,13.53c.75,0,1.36-.61,1.36-1.36s-.61-1.36-1.36-1.36-1.36,.61-1.36,1.36,.61,1.36,1.36,1.36Z" fill="#FFCD00"/><path d="M19.91,3.84c.75,0,1.36-.61,1.36-1.36s-.61-1.36-1.36-1.36-1.36,.61-1.36,1.36,.61,1.36,1.36,1.36Z" fill="#FFCD00"/><circle cx="34.71" cy="12.17" r="1.36" fill="#FFCD00"/><path d="M39.56,10.81c-.75,0-1.36,.61-1.36,1.36s.61,1.36,1.36,1.36,1.36-.61,1.36-1.36-.61-1.36-1.36-1.36Z" fill="#FFCD00"/><circle cx="34.71" cy="2.48" r="1.36" fill="#FFCD00"/><path d="M39.56,8.69c.75,0,1.36-.61,1.36-1.36s-.61-1.36-1.36-1.36-1.36,.61-1.36,1.36,.61,1.36,1.36,1.36Z" fill="#FFCD00"/></g></g><g id="uuid-a2b1637d-233f-44e4-939b-bb0a31f6bd42"><text transform="translate(-.38 54.97)" font-family="Roboto-Regular, Roboto" font-size="6"><tspan x="0" y="0">b</tspan><tspan x="3.37" y="0" letter-spacing="-.02em">r</tspan><tspan x="5.28" y="0">aille</tspan></text></g></svg>