<?xml version="1.0" encoding="UTF-8"?><svg xmlns="http://www.w3.org/2000/svg" viewBox="0 0 50 50"><g id="uuid-4741eac8-5246-4e08-936e-8c2d7ad976b2"><g><path d="M40.08,.08H9.42c-.28,0-.5,.22-.5,.5V48.92c0,.28,.22,.5,.5,.5h30.67c.28,0,.5-.22,.5-.5V.58c0-.28-.22-.5-.5-.5Zm-.5,48.34H9.92V1.08h29.67V48.42Z" fill="#FFCD00"/><path d="M12.8,16.47h23.89c.28,0,.5-.22,.5-.5V4.07c0-.28-.22-.5-.5-.5H12.8c-.28,0-.5,.22-.5,.5V15.97c0,.28,.22,.5,.5,.5Zm.5-11.89h22.89V15.47H13.3V4.57Z" fill="#FFCD00"/><path d="M34.39,24.31c1.31,0,2.38-1.07,2.38-2.37s-1.07-2.37-2.38-2.37-2.37,1.07-2.37,2.37,1.07,2.37,2.37,2.37Zm0-3.75c.76,0,1.38,.62,1.38,1.37s-.62,1.37-1.38,1.37-1.37-.62-1.37-1.37,.62-1.37,1.37-1.37Z" fill="#FFCD00"/><path d="M34.39,31.27c1.31,0,2.38-1.07,2.38-2.37s-1.07-2.38-2.38-2.38-2.37,1.07-2.37,2.38,1.07,2.37,2.37,2.37Zm0-3.75c.76,0,1.38,.62,1.38,1.38s-.62,1.37-1.38,1.37-1.37-.62-1.37-1.37,.62-1.38,1.37-1.38Z" fill="#FFCD00"/><path d="M34.71,33.74c-1.27,0-2.31,1.04-2.31,2.31v7.1c0,1.27,1.04,2.31,2.31,2.31s2.31-1.04,2.31-2.31v-7.1c0-1.27-1.04-2.31-2.31-2.31Zm1.31,9.41c0,.72-.59,1.31-1.31,1.31s-1.31-.59-1.31-1.31v-7.1c0-.72,.59-1.31,1.31-1.31s1.31,.59,1.31,1.31v7.1Z" fill="#FFCD00"/><path d="M15.36,19.81c-1.31,0-2.38,1.07-2.38,2.37s1.07,2.37,2.38,2.37,2.37-1.07,2.37-2.37-1.07-2.37-2.37-2.37Zm0,3.75c-.76,0-1.38-.62-1.38-1.37s.62-1.37,1.38-1.37,1.37,.62,1.37,1.37-.62,1.37-1.37,1.37Z" fill="#FFCD00"/><path d="M21.79,19.81c-1.31,0-2.38,1.07-2.38,2.37s1.07,2.37,2.38,2.37,2.37-1.07,2.37-2.37-1.07-2.37-2.37-2.37Zm0,3.75c-.76,0-1.38-.62-1.38-1.37s.62-1.37,1.38-1.37,1.37,.62,1.37,1.37-.62,1.37-1.37,1.37Z" fill="#FFCD00"/><path d="M28.21,19.81c-1.31,0-2.37,1.07-2.37,2.37s1.07,2.37,2.37,2.37,2.38-1.07,2.38-2.37-1.07-2.37-2.38-2.37Zm0,3.75c-.76,0-1.37-.62-1.37-1.37s.62-1.37,1.37-1.37,1.38,.62,1.38,1.37-.62,1.37-1.38,1.37Z" fill="#FFCD00"/><path d="M15.36,26.77c-1.31,0-2.38,1.07-2.38,2.38s1.07,2.37,2.38,2.37,2.37-1.07,2.37-2.37-1.07-2.38-2.37-2.38Zm0,3.75c-.76,0-1.38-.62-1.38-1.37s.62-1.38,1.38-1.38,1.37,.62,1.37,1.38-.62,1.37-1.37,1.37Z" fill="#FFCD00"/><path d="M21.79,26.77c-1.31,0-2.38,1.07-2.38,2.38s1.07,2.37,2.38,2.37,2.37-1.07,2.37-2.37-1.07-2.38-2.37-2.38Zm0,3.75c-.76,0-1.38-.62-1.38-1.37s.62-1.38,1.38-1.38,1.37,.62,1.37,1.38-.62,1.37-1.37,1.37Z" fill="#FFCD00"/><path d="M28.21,26.77c-1.31,0-2.37,1.07-2.37,2.38s1.07,2.37,2.37,2.37,2.38-1.07,2.38-2.37-1.07-2.38-2.38-2.38Zm0,3.75c-.76,0-1.37-.62-1.37-1.37s.62-1.38,1.37-1.38,1.38,.62,1.38,1.38-.62,1.37-1.38,1.37Z" fill="#FFCD00"/><path d="M15.36,33.74c-1.31,0-2.38,1.07-2.38,2.37s1.07,2.37,2.38,2.37,2.37-1.07,2.37-2.37-1.07-2.37-2.37-2.37Zm0,3.75c-.76,0-1.38-.62-1.38-1.37s.62-1.37,1.38-1.37,1.37,.62,1.37,1.37-.62,1.37-1.37,1.37Z" fill="#FFCD00"/><path d="M21.79,33.74c-1.31,0-2.38,1.07-2.38,2.37s1.07,2.37,2.38,2.37,2.37-1.07,2.37-2.37-1.07-2.37-2.37-2.37Zm0,3.75c-.76,0-1.38-.62-1.38-1.37s.62-1.37,1.38-1.37,1.37,.62,1.37,1.37-.62,1.37-1.37,1.37Z" fill="#FFCD00"/><path d="M28.21,33.74c-1.31,0-2.37,1.07-2.37,2.37s1.07,2.37,2.37,2.37,2.38-1.07,2.38-2.37-1.07-2.37-2.38-2.37Zm0,3.75c-.76,0-1.37-.62-1.37-1.37s.62-1.37,1.37-1.37,1.38,.62,1.38,1.37-.62,1.37-1.38,1.37Z" fill="#FFCD00"/><path d="M15.36,40.71c-1.31,0-2.38,1.07-2.38,2.37s1.07,2.37,2.38,2.37,2.37-1.07,2.37-2.37-1.07-2.37-2.37-2.37Zm0,3.75c-.76,0-1.38-.62-1.38-1.37s.62-1.37,1.38-1.37,1.37,.62,1.37,1.37-.62,1.37-1.37,1.37Z" fill="#FFCD00"/><path d="M21.79,40.71c-1.31,0-2.38,1.07-2.38,2.37s1.07,2.37,2.38,2.37,2.37-1.07,2.37-2.37-1.07-2.37-2.37-2.37Zm0,3.75c-.76,0-1.38-.62-1.38-1.37s.62-1.37,1.38-1.37,1.37,.62,1.37,1.37-.62,1.37-1.37,1.37Z" fill="#FFCD00"/><path d="M28.21,40.71c-1.31,0-2.37,1.07-2.37,2.37s1.07,2.37,2.37,2.37,2.38-1.07,2.38-2.37-1.07-2.37-2.38-2.37Zm0,3.75c-.76,0-1.37-.62-1.37-1.37s.62-1.37,1.37-1.37,1.38,.62,1.38,1.37-.62,1.37-1.38,1.37Z" fill="#FFCD00"/></g></g><g id="uuid-045787a4-1222-45a5-8be5-e783826b9322"><text transform="translate(0 55.07)" font-family="Roboto-Regular, Roboto" font-size="6"><tspan x="0" y="0">calcula</tspan><tspan x="19.03" y="0" letter-spacing="0em">t</tspan><tspan x="20.93" y="0">or</tspan></text></g></svg>