<?xml version="1.0" encoding="UTF-8"?><svg xmlns="http://www.w3.org/2000/svg" viewBox="0 0 50 50"><g id="uuid-2eba21d9-4ac3-47da-b579-636ceb343f48"><g><path d="M41.56,9.06C37.31,4.53,31.54,1.92,25.32,1.73c-6.22-.2-12.13,2.05-16.67,6.3C-.7,16.83-1.16,31.59,7.63,40.94c4.57,4.87,10.77,7.33,16.97,7.33,5.72,0,11.45-2.09,15.93-6.3,4.53-4.26,7.13-10.03,7.33-16.24,.19-6.21-2.05-12.13-6.3-16.67Zm-1.68,32.21c-8.97,8.43-23.12,7.99-31.55-.98C-.09,31.32,.35,17.16,9.31,8.73c4.17-3.92,9.57-6.05,15.27-6.05,.24,0,.47,0,.71,.01,5.96,.19,11.49,2.68,15.57,7.03,4.08,4.34,6.23,10.02,6.04,15.98-.19,5.96-2.68,11.49-7.03,15.57Z" fill="#FFFFFF"/><path d="M21.94,6.54c-2.88,.46-5.64,1.62-7.99,3.34-.17,.12-.24,.33-.19,.53l.03,.12c.02,.08,.06,.16,.12,.22l24.54,26.11c.09,.1,.23,.16,.36,.16h.01c.14,0,.28-.07,.37-.18,6.03-7.2,5.72-17.81-.72-24.66-4.24-4.51-10.42-6.61-16.53-5.63Zm16.84,29.21L14.95,10.39c2.13-1.46,4.59-2.45,7.15-2.86,5.78-.93,11.63,1.06,15.64,5.32,5.97,6.35,6.38,16.1,1.04,22.9Z" fill="#FFFFFF"/><path d="M11.23,13.25c-.06-.06-.13-.11-.21-.13l-.11-.04c-.19-.06-.41,0-.54,.16-1.86,2.24-3.19,4.92-3.83,7.77-1.36,6.04,.35,12.34,4.59,16.85,3.64,3.87,8.59,5.87,13.57,5.87,3.84,0,7.71-1.19,11-3.61,.12-.08,.19-.21,.2-.36s-.04-.28-.13-.39L11.23,13.25Zm.63,23.92c-4.01-4.27-5.63-10.23-4.34-15.94,.57-2.53,1.71-4.92,3.3-6.95l23.83,25.36c-7.12,4.9-16.82,3.89-22.79-2.46Z" fill="#FFFFFF"/></g></g><g id="uuid-f42a497b-dc1c-42a7-9e26-b1e08a8acf19"><text transform="translate(0 55.13)" font-family="Roboto-Regular, Roboto" font-size="6"><tspan x="0" y="0">cancel-p</tspan><tspan x="22.51" y="0" letter-spacing="0em">r</tspan><tspan x="24.48" y="0">ohibited</tspan></text></g></svg>