<?xml version="1.0" encoding="UTF-8"?><!-- Generator: Adobe Illustrator 27.7.0, SVG Export Plug-In . SVG Version: 6.00 Build 0)  --><svg version="1.1" id="Layer_1" xmlns="http://www.w3.org/2000/svg" xmlns:xlink="http://www.w3.org/1999/xlink" x="0px" y="0px" viewBox="0 0 50 50" style="enable-background:new 0 0 50 50;" xml:space="preserve">
<style type="text/css">
	.st0{display:none;}
	.st1{display:inline;fill:none;stroke:#EA008A;stroke-width:0.2;stroke-miterlimit:10;}
	.st2{font-family:'Roboto-Regular';}
	.st3{font-size:6px;}
</style>
<g id="ICONS_00000031165542127692736420000002692518830807990202_">
	<path d="M44.2095,12.0791c0.5342-3.2266-0.5708-5.0195-1.5918-5.9551c-1.8927-1.7348-4.7228-1.8578-6.713-1.4246   C33.1854,1.4396,26.9036,1.1719,25,1.1719s-8.1855,0.2677-10.9048,3.5276C12.1043,4.2671,9.2755,4.3892,7.3823,6.124   c-1.021,0.9355-2.126,2.7285-1.5918,5.9551c0.3032,1.832,1.2349,3.9854,2.2212,6.2637c1.5409,3.5615,3.2831,7.5953,3.3463,11.7891   c-1.7321-0.0408-2.8376,0.5073-3.464,0.9863c-1.3716,1.0479-1.9756,2.8584-1.6152,4.8428c0.4291,2.3648,2.3456,5.303,6.3704,6.6902   c-0.9631,0.7269-1.5959,1.8697-1.5959,3.1663v2.5107c0,0.2764,0.2236,0.5,0.5,0.5h26.8936c0.2764,0,0.5-0.2236,0.5-0.5v-2.5107   c0-1.2966-0.6329-2.4394-1.5959-3.1663c4.0247-1.3871,5.9413-4.3254,6.3704-6.6902c0.3604-1.9844-0.2437-3.7949-1.6152-4.8428   c-0.6258-0.479-1.7318-1.0271-3.464-0.9863c0.0632-4.1937,1.8054-8.2276,3.3463-11.7891   C42.9746,16.0645,43.9062,13.9111,44.2095,12.0791z M25,2.1719c3.707,0,8.2939,0.8516,10.2056,3.2295l-1.9341,26.0947h-6.3169   V29.221c0.194-0.0064,0.3688-0.1206,0.4453-0.3001l2.1877-5.1639c1.8302-3.1025,2.9514-6.2357,3.5691-8.3214   c0.0376-0.127,0.0229-0.2637-0.04-0.3799c-0.0635-0.1172-0.1704-0.2031-0.2974-0.2412l-2.7905-0.8262   c-0.2646-0.0771-0.5425,0.0732-0.6216,0.3379c-0.4692,1.5838-1.2766,3.9255-2.4678,6.2363h-3.8799   c-1.1918-2.3115-1.998-4.6537-2.4662-6.2363c-0.0376-0.127-0.1245-0.2344-0.2407-0.2979c-0.1172-0.0645-0.2539-0.0781-0.3809-0.04   l-2.7905,0.8262c-0.2646,0.0781-0.4155,0.3564-0.3374,0.6211c0.6168,2.0847,1.7369,5.2181,3.5686,8.3215l2.1868,5.1639   c0.076,0.1797,0.2515,0.2941,0.4458,0.3003v2.2749h-6.3164L14.7944,5.4014C16.7061,3.0234,21.293,2.1719,25,2.1719z    M36.3501,41.8291c-0.0012,0.0032-0.0003,0.0065-0.0014,0.0098h-9.3941v-1.86c0.4861-0.1725,0.8398-0.6252,0.8398-1.1693v-3.0264   c0-0.5441-0.3538-0.9967-0.8398-1.1693V32.496h6.5969C36.5889,34.9178,37.6158,38.3085,36.3501,41.8291z M24.0449,41.8389v-1.7764   h1.9097v1.7764H24.0449z M13.6513,41.8389c-0.0011-0.0032-0.0002-0.0065-0.0014-0.0098c-1.2657-3.5206-0.2388-6.9113,2.7986-9.333   h6.5964v2.118c-0.4858,0.1727-0.8394,0.6252-0.8394,1.1691v3.0264c0,0.5439,0.3535,0.9965,0.8394,1.1691v1.8602   C23.0449,41.8389,13.6513,41.8389,13.6513,41.8389z M20.9273,22.6368c-1.4454-2.5834-2.4004-5.1392-2.9796-7.006l1.8315-0.543   c0.4946,1.6003,1.28,3.7783,2.3929,5.9373L20.9273,22.6368z M23.0205,21.5625h3.96l1.5825,2.0498l-1.9546,4.6133h-3.2178   l-1.9536-4.6133L23.0205,21.5625z M29.0729,22.6362l-1.2451-1.6129c1.1122-2.157,1.8979-4.3353,2.3934-5.9354l1.8315,0.543   C31.4728,17.4974,30.517,20.0538,29.0729,22.6362z M24.0449,29.2256h1.9097v5.3047h-1.9097V29.2256z M23.4585,39.0625   c-0.1396,0-0.2529-0.1133-0.2529-0.2529v-3.0264c0-0.1396,0.1133-0.2529,0.2529-0.2529h3.083c0.1396,0,0.2529,0.1133,0.2529,0.2529   v3.0264c0,0.1396-0.1133,0.2529-0.2529,0.2529H23.4585z M8.9292,17.9463c-0.9609-2.2217-1.8687-4.3193-2.1523-6.0312   c-0.3696-2.2354,0.061-3.9355,1.2812-5.0537c1.4933-1.3682,3.8965-1.5847,5.753-1.1995l1.893,25.5391   c-1.2817-0.5457-2.3919-0.8502-3.3461-0.9842c0.0003-0.0079,0.0043-0.0145,0.0043-0.0225   C12.3164,25.7725,10.5171,21.6143,8.9292,17.9463z M7.2627,35.7832c-0.292-1.6084,0.1714-3.0547,1.2383-3.8711   c1.4713-1.1216,3.877-1.0314,6.8151,0.2183c-2.8328,2.5197-3.8369,5.881-2.8102,9.4019   C9.2109,40.2284,7.6238,37.7726,7.2627,35.7832z M37.9468,45.8174v2.0107H12.0532v-2.0107c0-1.6426,1.3359-2.9785,2.9785-2.9785   h19.9365C36.6108,42.8389,37.9468,44.1748,37.9468,45.8174z M41.499,31.9121c1.0669,0.8164,1.5303,2.2627,1.2383,3.8711   c-0.3611,1.9894-1.9482,4.4452-5.2431,5.7491c1.0266-3.521,0.0225-6.8824-2.8104-9.4021   C37.6215,30.8797,40.0269,30.7896,41.499,31.9121z M37.642,30.2168c-0.9542,0.1339-2.0645,0.4384-3.3461,0.9841L36.1888,5.662   c1.856-0.3845,4.2593-0.1689,5.7531,1.1993c1.2202,1.1182,1.6509,2.8184,1.2812,5.0537c-0.2837,1.7119-1.1914,3.8096-2.1523,6.0312   c-1.5879,3.668-3.3872,7.8262-3.4331,12.248C37.6376,30.2023,37.6417,30.2089,37.642,30.2168z" fill="#FFCD00"/>
</g>
<g id="Margin" class="st0">
	<rect x="1" y="1" class="st1" width="48" height="48" fill="#FFCD00"/>
</g>
<g id="Guides" class="st0">
</g>
<g id="LABELS">
	<g>
		<g>
			<g>
				<g>
					<g>
						<text transform="matrix(1 0 0 1 -0.1143 55.1223)" class="st2 st3">car-seat</text>
					</g>
				</g>
			</g>
		</g>
	</g>
</g>
</svg>