<?xml version="1.0" encoding="UTF-8"?><svg id="uuid-8e1e1210-7562-4212-a33f-dcb0103a2e90" xmlns="http://www.w3.org/2000/svg" viewBox="0 0 50 50"><path d="M48.39,30.65h-.63v-2.56s0-.03,0-.05v-2.23s0-.03,0-.05v-2.67c0-.28-.22-.5-.5-.5h-7.53l-6.19-11.85c-.09-.17-.26-.27-.44-.27H11.51c-.23,0-.43,.15-.48,.37l-3.11,11.75H2.02c-.28,0-.5,.22-.5,.5v2.67s0,.03,0,.05v2.23s0,.03,0,.05v2.56h-.41c-.28,0-.5,.22-.5,.5v3.08c0,.28,.22,.5,.5,.5H6.03c.35,2.7,2.66,4.8,5.46,4.8s5.11-2.09,5.46-4.8h15.18c.35,2.7,2.66,4.8,5.46,4.8s5.11-2.09,5.46-4.8h5.35c.28,0,.5-.22,.5-.5v-3.08c0-.28-.22-.5-.5-.5Zm-.5,3.08h-4.81c-.04-.74-.22-1.45-.53-2.08h5.34v2.08Zm-14.82,.29c0-2.49,2.02-4.51,4.51-4.51s4.51,2.02,4.51,4.51-2.02,4.51-4.51,4.51-4.51-2.02-4.51-4.51Zm-16.09-.29c-.04-.74-.22-1.45-.53-2.08h16.16c-.31,.64-.49,1.34-.53,2.08h-15.1Zm-10,.29c0-2.49,2.02-4.51,4.51-4.51s4.51,2.02,4.51,4.51-2.02,4.51-4.51,4.51-4.51-2.02-4.51-4.51Zm-5.37-.29v-2.08H6.53c-.31,.64-.49,1.34-.53,2.08H1.61Zm45.16-7.43v1.23h-1.69v-1.23h1.69Zm-13.97-14.84l5.8,11.12h-2.54l-4.33-8.94c-.08-.17-.26-.28-.45-.28h-5.69c-.28,0-.5,.22-.5,.5v8.73h-2.08V13.86c0-.28-.22-.5-.5-.5H13.83c-.23,0-.44,.16-.49,.39l-1.97,8.84h-2.42l2.95-11.12h20.9Zm-6.71,2.9h4.88l3.98,8.23h-8.86V14.36Zm-11.86,0h7.77v8.23H12.4l1.84-8.23ZM2.51,27.54v-1.23h1.73v1.23h-1.73Zm0,1h2.22c.28,0,.5-.22,.5-.5v-2.23c0-.28-.22-.5-.5-.5H2.52v-1.72H46.76v1.72h-2.18c-.28,0-.5,.22-.5,.5v2.23c0,.28,.22,.5,.5,.5h2.18v2.11h-4.82c-1.01-1.3-2.58-2.14-4.35-2.14s-3.34,.84-4.35,2.14H15.84c-1.01-1.3-2.58-2.14-4.35-2.14s-3.34,.84-4.35,2.14H2.52v-2.11Z" fill="#FFFFFF"/><path d="M13.83,34.02c0-1.29-1.05-2.34-2.34-2.34s-2.34,1.05-2.34,2.34,1.05,2.34,2.34,2.34,2.34-1.05,2.34-2.34Zm-3.68,0c0-.74,.6-1.34,1.34-1.34s1.34,.6,1.34,1.34-.6,1.34-1.34,1.34-1.34-.6-1.34-1.34Z" fill="#FFFFFF"/><path d="M35.24,34.02c0,1.29,1.05,2.34,2.34,2.34s2.34-1.05,2.34-2.34-1.05-2.34-2.34-2.34-2.34,1.05-2.34,2.34Z" fill="none"/><path d="M9.15,34.02c0,1.29,1.05,2.34,2.34,2.34s2.34-1.05,2.34-2.34-1.05-2.34-2.34-2.34-2.34,1.05-2.34,2.34Z" fill="none"/><path d="M14.84,15.25c-2.41,2.21-1.95,6.3-1.68,7.89,.31,.04,.62,.07,.94,.11h7.76l.88-.22c.16-2.36,.26-4.78,.27-7.27,0-.3,0-.61,0-.91h-7.67c-.18,.12-.34,.25-.49,.39Z" fill="none"/><path d="M31.88,14.86h-4.79c-.19,.16-.36,.33-.5,.5-2.05,2.47-.41,6.79,0,7.78l.83-.06c2.81,.04,5.61,.07,8.42,.11-1.08-2.51-2.27-5.05-3.58-7.6-.13-.25-.26-.5-.39-.74Z" fill="none"/><path d="M39.93,34.02c0-1.29-1.05-2.34-2.34-2.34s-2.34,1.05-2.34,2.34,1.05,2.34,2.34,2.34,2.34-1.05,2.34-2.34Zm-3.68,0c0-.74,.6-1.34,1.34-1.34s1.34,.6,1.34,1.34-.6,1.34-1.34,1.34-1.34-.6-1.34-1.34Z" fill="#FFFFFF"/><path d="M26.09,21.72v-5.57c-.86,1.76-.45,4.05,0,5.57Z" fill="none"/><path d="M31.88,14.86h-.67l3.74,7.73h-8.57c.08,.23,.16,.43,.21,.56l.83-.06c2.81,.04,5.61,.07,8.42,.11-1.08-2.51-2.27-5.05-3.58-7.6-.13-.25-.26-.5-.39-.74Z" fill="none"/><path d="M12.95,20.09l.72-3.21c-.48,1.02-.67,2.15-.72,3.21Z" fill="none"/><path d="M22.01,22.59H13.08c.03,.21,.06,.4,.08,.56,.31,.04,.62,.07,.94,.11h7.76l.88-.22c.16-2.36,.26-4.78,.27-7.27,0-.3,0-.61,0-.91h-1v7.73Z" fill="none"/><path d="M24.75,26.31h2.55c.28,0,.5-.22,.5-.5s-.22-.5-.5-.5h-2.55c-.28,0-.5,.22-.5,.5s.22,.5,.5,.5Z" fill="#FFFFFF"/></svg>