<?xml version="1.0" encoding="UTF-8"?><svg id="uuid-c257b5e3-42bf-41bf-9111-35e737b75fd9" xmlns="http://www.w3.org/2000/svg" viewBox="0 0 50 50"><path d="M47.18,20.47l-3.65-5.02-3.65,5.02h7.3Zm-8.78,8.81v-3.3h-2.5v3.3h2.5Zm.52-9.2l3.7-5.07-7.39-.8,3.69,5.87Zm.49,3.9v1.5s0,.03,0,.05v3.75h8.26v-5.3h-8.25Zm0,6.3c.03,.34,.1,.67,.19,1,.1,.35,.23,.68,.4,1,.18,.36,.41,.69,.67,1,.32,.38,.68,.71,1.09,1,.89,.62,1.96,1,3.13,1h2.77v-5h-8.25Zm-11.45-1v-3.3h-2.48v3.3h2.48Zm1.69-9.29l3.76-5.97-7.52-.82,3.76,6.79Zm.8,13.29h8.97c-.2-.32-.38-.65-.53-1h-8.44v1Zm3.8-18.74l-3.72,5.93h7.45l-3.73-5.93Zm-2.82,14.74v-3.3h-2.47v3.3h2.47Zm-.16,6h10.17c-.45-.29-.86-.62-1.23-1h-9.76v1h.82Zm.5,2h16.89v-1H31.77v1Zm.66-11.3v3.3h2.47v-3.3h-2.47Zm-2.48,10.3h-10.72v1h11.54v-1h-.82Zm-9.4-1h8.9v-3h-8.9v3Zm.46-6v-3.3h-2.48v3.3h2.48Zm.19-8.81h7.57l-3.79-6.83-3.78,6.83Zm3.28,5.51h-2.47v3.3h2.47v-3.3Zm-4.93,6.3H11.07c-.14,.35-.32,.68-.53,1h9.01v-1Zm-5.49-3v-3.3h-2.49v3.3h2.49Zm24.35,1H11.55c-.03,.34-.08,.67-.16,1h27.18c-.08-.33-.13-.66-.16-1Zm-26.82-5.3h26.81v-1H11.59v1Zm3.47,4.3h2.47v-3.3h-2.47v3.3Zm4.38-8.81l-3.73-5.93-3.73,5.93h7.46Zm-2.88-6.45l3.76,5.97,3.76-6.79-7.52,.82ZM1.8,22.98H48.45v-1.51H1.55v1.51h.25Zm.5,1v5.3H10.57v-5.3H2.3Zm7.79-3.51l-3.65-5.02-3.65,5.02h7.3Zm-2.74-5.46l3.69,5.07,3.7-5.87-7.39,.8Zm10.88,21.27H1.3v1H18.23v-1Zm1.32-2H9.75c-.36,.38-.78,.71-1.23,1h11.03v-1Zm-9.58-2c.16-.32,.3-.65,.39-1,.1-.33,.16-.66,.19-1H2.3v5h2.77c1.17,0,2.24-.38,3.13-1,.41-.29,.77-.62,1.09-1,.26-.31,.49-.64,.68-1ZM.55,20.97c0-.28,.23-.5,.5-.5h.5l4.48-6.16s.01,0,.01,0c.08-.1,.2-.18,.34-.19l18.55-2s.07-.01,.11,0l18.54,2c.14,.01,.26,.09,.34,.19h.01l4.49,6.17h.53c.27,0,.5,.22,.5,.5v2.51c0,.28-.23,.5-.5,.5h-.29v5.79h0v5.51h.5c.28,0,.5,.22,.5,.5v2c0,.27-.22,.5-.5,.5H.8c-.28,0-.5-.23-.5-.5v-2c0-.28,.22-.5,.5-.5h.5v-5.5h0v-5.8h-.25c-.27,0-.5-.22-.5-.5v-2.51Z"/></svg>