<?xml version="1.0" encoding="UTF-8"?><svg xmlns="http://www.w3.org/2000/svg" viewBox="0 0 50 50">
  <defs>
    <style>
      .cls-1 {
        fill: #1f1c1d;
      }

      .cls-2 {
        fill: #221f1f;
        font-family: Roboto-Regular, Roboto;
        font-size: 5px;
      }

      .cls-3 {
        letter-spacing: -.02em;
      }
    </style>
  </defs>
  <g id="Icon_Outline">
    <path class="cls-1" d="M39.69,13.25c-.4-.15-.7-.47-.83-.88-.14-.43-.07-.89.18-1.26l1.48-2.17c.1-.15.12-.35.03-.52-.09-.16-.26-.27-.44-.27h-11.76c-.19,0-.36.1-.44.27-.09.16-.08.36.03.52l1.48,2.17c.25.37.32.83.18,1.26-.13.41-.43.73-.83.88-1.04.38-2.48,1.03-3.96,2.03-1.07-1.01-1.96-1.95-2.45-2.94-1.07-2.16-.46-5.04.34-7.26h1.36c.28,0,.5-.22.5-.5V1.47c0-.28-.22-.5-.5-.5h-.26s0,0-.01,0h-13.91s0,0-.01,0h-.26c-.28,0-.5.22-.5.5v3.1c0,.28.22.5.5.5h1.36c.8,2.22,1.41,5.1.34,7.26-.66,1.34-2.05,2.6-3.66,4.06C4.32,19.4.19,23.15.19,29.91c0,7.65,4.08,13.34,5.83,15.44.67.8,1.65,1.26,2.69,1.26h15.56l-1.07,1.66c-.1.15-.11.35-.02.51.09.16.26.26.44.26h21.26c.18,0,.35-.1.44-.26.09-.16.08-.36-.02-.51l-2.35-3.64c5.11-7.45,6.22-10.67,6.78-15.86,1.1-10.27-6.64-14.27-10.01-15.51ZM20.68,21.67h27.1c.28.65.52,1.34.69,2.09h-28.48c.17-.75.41-1.44.69-2.09ZM29.11,14.18c.69-.25,1.21-.8,1.44-1.51.23-.73.12-1.5-.31-2.13l-.95-1.39h9.87l-.95,1.39c-.43.63-.54,1.4-.31,2.13.23.71.75,1.26,1.44,1.51,2.06.76,5.84,2.63,7.95,6.48h-26.13c2.1-3.86,5.89-5.72,7.95-6.48ZM10.1,1.97h13.47v2.1h-13.47V1.97ZM8.7,45.6c-.74,0-1.44-.33-1.92-.9-1.68-2.01-5.59-7.47-5.59-14.79,0-6.31,3.78-9.75,7.12-12.77,1.68-1.53,3.13-2.84,3.88-4.35,1.18-2.37.63-5.36-.16-7.71h9.6c-.8,2.35-1.34,5.34-.16,7.71.54,1.08,1.44,2.06,2.52,3.09-3.06,2.36-5.93,6.35-5.24,12.89.55,5.18,1.67,8.39,6.78,15.86l-.63.99H8.7ZM48.71,28.65c-.5,4.67-1.33,7.74-6.79,15.67-.11.17-.12.38,0,.55l2.04,3.15h-19.42l2.03-3.15c.11-.17.11-.39,0-.55-5.15-7.48-6.26-10.61-6.8-15.67-.15-1.43-.1-2.72.07-3.9.02,0,.04.01.06.01h28.69s.04-.01.06-.01c.18,1.18.23,2.47.07,3.9Z" fill="#FFCD00"/>
  </g>
  <g id="Names">
    <text class="cls-2" transform="translate(0 53.99)"><tspan x="0" y="0">ce</tspan><tspan class="cls-3" x="5.27" y="0">r</tspan><tspan x="6.86" y="0">amics</tspan></text>
  </g>
</svg>