<?xml version="1.0" encoding="UTF-8"?>
<svg xmlns="http://www.w3.org/2000/svg" viewBox="0 0 50 50">
  <defs>
    <style>
      .cls-1 {
        font-family: ArialMT, Arial;
        font-size: 6px;
      }

      .cls-2 {
        fill: #ffcd00;
      }
    </style>
  </defs>
  <g id="Black">
    <g>
      <path class="cls-2" d="M47.28,23.4c.37-.86.55-1.78.55-2.73s-.19-1.86-.55-2.73c-.35-.83-.86-1.58-1.5-2.23s-1.39-1.15-2.23-1.5c-.86-.37-1.78-.55-2.73-.55h-3.6c-.22,0-.41-.14-.47-.34-.09-.29-.19-.57-.31-.85-.56-1.32-1.35-2.5-2.37-3.51-1.02-1.02-2.2-1.81-3.52-2.37-2.73-1.15-5.89-1.15-8.61,0-1.32.56-2.5,1.35-3.52,2.37-1.02,1.02-1.81,2.2-2.37,3.52-.12.28-.21.56-.31.85-.07.21-.26.34-.47.34h-3.6c-.95,0-1.86.19-2.73.55-.84.35-1.58.86-2.23,1.5-.64.64-1.15,1.39-1.5,2.23-.37.86-.55,1.78-.55,2.73s.19,1.86.55,2.73c.35.83.86,1.58,1.5,2.23.64.64,1.39,1.15,2.23,1.5.86.37,1.78.55,2.73.55h1.56c.28,0,.5.22.5.5v18.61h25.01v-18.61c0-.28.22-.5.5-.5h1.58c.95,0,1.86-.19,2.73-.55.84-.35,1.58-.86,2.23-1.5s1.15-1.39,1.5-2.23Z"/>
      <g>
        <path d="M46.95,16.3c-.4-.95-.98-1.81-1.72-2.54-.73-.73-1.59-1.31-2.54-1.72-.99-.42-2.04-.63-3.12-.63h-3.24c-.07-.2-.14-.39-.22-.58-.61-1.44-1.48-2.73-2.59-3.83-1.11-1.11-2.4-1.98-3.83-2.59-2.97-1.26-6.42-1.26-9.39,0-1.44.61-2.73,1.48-3.83,2.59-1.11,1.11-1.98,2.4-2.58,3.83-.08.19-.15.38-.22.58h-3.24c-1.08,0-2.13.21-3.12.63-.96.4-1.81.98-2.54,1.72-.74.74-1.31,1.59-1.72,2.54-.42.99-.63,2.04-.63,3.12s.21,2.13.63,3.12c.4.95.98,1.81,1.71,2.54.73.73,1.59,1.31,2.54,1.72.99.42,2.04.63,3.12.63h1.06v18.61c0,.28.22.5.5.5h26.01c.28,0,.5-.22.5-.5v-18.61h1.08c1.08,0,2.13-.21,3.12-.63.96-.4,1.81-.98,2.54-1.72.74-.74,1.31-1.59,1.71-2.54.42-.99.63-2.04.63-3.12s-.21-2.13-.63-3.12ZM12.49,45.53v-4.88h25.01v4.88H12.49ZM46.03,22.15c-.35.83-.86,1.58-1.5,2.23s-1.39,1.15-2.23,1.5c-.86.37-1.78.55-2.73.55h-1.58c-.28,0-.5.22-.5.5v12.72H12.49v-12.72c0-.28-.22-.5-.5-.5h-1.56c-.95,0-1.86-.19-2.73-.55-.84-.35-1.58-.86-2.23-1.5-.64-.64-1.15-1.39-1.5-2.23-.37-.86-.55-1.78-.55-2.73s.19-1.86.55-2.73c.35-.83.86-1.58,1.5-2.23.64-.64,1.39-1.15,2.23-1.5.86-.37,1.78-.55,2.73-.55h2.93c-.27,1.01-.42,2.05-.42,3.12,0,.28.22.5.5.5s.5-.22.5-.5c0-1.49.29-2.94.87-4.31.56-1.32,1.35-2.5,2.37-3.52,1.02-1.02,2.2-1.81,3.52-2.37,2.73-1.15,5.89-1.15,8.61,0,1.32.56,2.5,1.35,3.52,2.37,1.02,1.02,1.81,2.2,2.37,3.51.12.28.21.56.31.85.07.21.26.34.47.34h3.6c.95,0,1.86.19,2.73.55.83.35,1.58.86,2.23,1.5s1.15,1.39,1.5,2.23c.37.86.55,1.78.55,2.73s-.19,1.86-.55,2.73Z"/>
        <path d="M19.6,29.15c-.28,0-.5.22-.5.5v6.77c0,.28.22.5.5.5s.5-.22.5-.5v-6.77c0-.28-.22-.5-.5-.5Z"/>
        <path d="M25.01,29.15h0c-.27,0-.5.22-.5.5l-.04,6.77c0,.28.22.5.5.5h0c.27,0,.5-.22.5-.5l.04-6.77c0-.28-.22-.5-.5-.5Z"/>
        <path d="M30.42,29.15c-.28,0-.5.22-.5.5v6.77c0,.28.22.5.5.5s.5-.22.5-.5v-6.77c0-.28-.22-.5-.5-.5Z"/>
        <path d="M36.56,15.03c-.28,0-.5.22-.5.5,0,1.45-.28,2.86-.85,4.19-.54,1.28-1.32,2.43-2.31,3.42s-2.14,1.77-3.42,2.31c-.25.11-.37.4-.27.66.08.19.27.31.46.31l.19-.04c1.4-.59,2.66-1.44,3.74-2.52,1.08-1.08,1.93-2.34,2.52-3.74.61-1.45.92-2.99.92-4.58,0-.28-.22-.5-.5-.5Z"/>
      </g>
    </g>
  </g>
  <g id="Labels">
    <text class="cls-1" transform="translate(0 54.48)"><tspan x="0" y="0">Chef Hat</tspan></text>
  </g>
</svg>