<?xml version="1.0" encoding="UTF-8"?><svg xmlns="http://www.w3.org/2000/svg" viewBox="0 0 50 50"><g id="uuid-ac1ae391-aa93-4974-b204-b92b1f9d221d"><path d="M37.38,48.38h-10.74l-5.2-9,5.2-9.1h10.74c.08,0,.16-.03,.23-.06,.02-.01,.04-.02,.05-.04,.05-.03,.09-.07,.12-.12,0-.01,.02-.02,.03-.03l5.51-9.55c.09-.15,.09-.35,0-.5l-5.51-9.55c-.09-.15-.25-.25-.43-.25h-10.69L21.33,.87c-.14-.24-.44-.32-.68-.18-.24,.14-.32,.44-.18,.68l5.34,9.25-5.25,9.1H10.15L4.78,10.43c-.14-.24-.44-.32-.68-.18-.24,.14-.32,.44-.18,.68l5.37,9.3L3.92,29.52s0,.03-.01,.04c-.03,.05-.04,.11-.05,.17,0,.02,0,.04,0,.06,0,.08,.02,.15,.06,.23l5.37,9.3-5.37,9.3c-.14,.24-.06,.54,.18,.68,.08,.05,.17,.07,.25,.07,.17,0,.34-.09,.43-.25l5.37-9.3h10.39l5.37,9.3c.09,.15,.25,.25,.43,.25h11.03c.28,0,.5-.22,.5-.5s-.22-.5-.5-.5Zm-27.23-9.55l-5-8.66-.22-.39,5.23-9.05h10.46l5.19,9-5.26,9.11H10.15ZM42.32,20.22l-5.23,9.05h-10.38l-5.26-9.11,5.19-8.99h10.45l5.23,9.05Z" fill="#FFFFFF"/><path d="M19.34,23.01h-7.23s-.04,0-.06,.01c-.04,0-.07,0-.1,.02-.03,.01-.06,.02-.08,.04-.03,.02-.05,.03-.08,.05-.03,.02-.05,.05-.07,.08-.01,.02-.03,.03-.04,.05l-3.62,6.26c-.14,.24-.06,.54,.18,.68,.08,.05,.16,.07,.25,.07,.17,0,.34-.09,.43-.25l3.47-6.01h6.94c.28,0,.5-.22,.5-.5s-.22-.5-.5-.5Z" fill="#FFFFFF"/><path d="M45.9,21.15c-.24-.14-.54-.06-.68,.18l-5.51,9.55c-.14,.24-.06,.54,.18,.68,.08,.05,.16,.07,.25,.07,.17,0,.34-.09,.43-.25l5.51-9.55c.14-.24,.06-.54-.18-.68Z" fill="#FFFFFF"/></g><g id="uuid-05cf0ef3-d748-4fde-85ce-9d7002dcc652"><text transform="translate(-.54 54.97)" font-family="Roboto-Regular, Roboto" font-size="6"><tspan x="0" y="0">chemist</tspan><tspan x="21.39" y="0" letter-spacing="0em">r</tspan><tspan x="23.48" y="0">y-hexagons</tspan></text></g></svg>