<?xml version="1.0" encoding="UTF-8"?><svg id="uuid-541ab73d-5171-4532-acff-13b4c418a5e1" xmlns="http://www.w3.org/2000/svg" viewBox="0 0 50 50"><path d="M7.68,23.58h.04c2.27-.16,4.57-.29,6.83-.38,.27-.01,.48-.23,.48-.5v-3.66c0-.14-.06-.27-.16-.36s-.23-.14-.37-.14c-2.27,.11-4.58,.27-6.86,.47-.26,.02-.46,.24-.46,.5v3.57c0,.14,.06,.27,.16,.37,.09,.09,.21,.13,.34,.13Zm6.34-4.01v2.66c-1.93,.08-3.9,.19-5.84,.32v-2.58c1.94-.17,3.9-.3,5.84-.4Z" fill="#FFFFFF"/><path d="M7.68,29.33h.02c2.28-.1,4.56-.17,6.84-.23,.27,0,.49-.23,.49-.5v-3.66c0-.14-.06-.27-.16-.36-.1-.09-.23-.15-.36-.14-2.28,.08-4.59,.18-6.86,.32-.26,.02-.47,.23-.47,.5v3.57c0,.14,.06,.27,.16,.36,.09,.09,.22,.14,.35,.14Zm6.34-3.87v2.66c-1.95,.05-3.9,.11-5.84,.19v-2.58c1.93-.11,3.89-.2,5.84-.27Z" fill="#FFFFFF"/><path d="M7.68,17.83s.03,0,.05,0c2.26-.22,4.55-.4,6.82-.52,.27-.01,.47-.23,.47-.5v-3.66c0-.14-.06-.27-.16-.36-.1-.09-.24-.14-.37-.13-2.28,.15-4.59,.35-6.87,.62-.25,.03-.44,.24-.44,.5v3.57c0,.14,.06,.28,.17,.37,.09,.08,.21,.13,.34,.13Zm6.34-4.15v2.66c-1.94,.11-3.9,.26-5.84,.45v-2.58c1.94-.22,3.9-.4,5.84-.53Z" fill="#FFFFFF"/><path d="M44.53,19.01c-2.27-.2-4.58-.36-6.86-.47-.15-.01-.27,.04-.37,.14-.1,.09-.16,.23-.16,.36v3.66c0,.27,.21,.49,.48,.5,2.28,.09,4.58,.21,6.83,.37h.04c.13,0,.25-.05,.34-.13,.1-.09,.16-.23,.16-.37v-3.57c0-.26-.2-.48-.45-.5Zm-.54,3.54c-1.93-.13-3.89-.24-5.84-.32v-2.66c1.95,.1,3.91,.23,5.84,.4v2.58Z" fill="#FFFFFF"/><path d="M44.51,24.76c-2.28-.14-4.59-.24-6.86-.32-.14-.01-.27,.05-.36,.14-.1,.09-.15,.22-.15,.36v3.67c0,.27,.21,.49,.49,.5,2.28,.05,4.56,.13,6.84,.23h.02c.13,0,.25-.05,.35-.14,.1-.09,.15-.22,.15-.36v-3.57c0-.26-.2-.48-.47-.5Zm-.53,3.55c-1.95-.08-3.9-.14-5.84-.19v-2.66c1.94,.07,3.9,.16,5.85,.27v2.58Z" fill="#FFFFFF"/><path d="M15.03,34.46v-3.66c0-.13-.06-.26-.15-.36s-.22-.15-.36-.14c-2.29,.04-4.57,.1-6.85,.17-.27,0-.48,.23-.48,.5v3.57c0,.13,.06,.26,.15,.36,.09,.09,.22,.14,.35,.14h0c2.28-.03,4.56-.06,6.84-.08,.27,0,.5-.23,.5-.5Zm-6.85-.43v-2.58c1.95-.06,3.89-.11,5.84-.15v2.66c-1.95,.02-3.9,.04-5.84,.07Z" fill="#FFFFFF"/><path d="M44.49,30.47c-2.28-.07-4.57-.13-6.85-.17-.15-.01-.26,.05-.36,.14-.1,.09-.15,.22-.15,.36v3.67c0,.27,.22,.5,.49,.5,2.28,.02,4.56,.05,6.84,.08h0c.13,0,.26-.05,.35-.14,.1-.09,.15-.22,.15-.36v-3.57c0-.27-.21-.49-.48-.5Zm-.52,3.57c-1.95-.03-3.9-.05-5.85-.07v-2.66c1.95,.04,3.9,.09,5.85,.15v2.58Z" fill="#FFFFFF"/><path d="M44.55,13.25c-2.27-.26-4.58-.47-6.87-.62-.13,0-.27,.04-.37,.13-.1,.09-.16,.23-.16,.36v3.66c0,.27,.2,.49,.47,.5,2.26,.12,4.56,.3,6.82,.52,.02,0,.03,0,.05,0,.12,0,.24-.05,.34-.13,.1-.09,.16-.23,.16-.37v-3.57c0-.25-.19-.47-.44-.5Zm-.56,3.52c-1.94-.18-3.9-.33-5.84-.44v-2.66c1.95,.13,3.91,.31,5.84,.53v2.58Z" fill="#FFFFFF"/><path d="M24.77,18.33c-1.53,0-3.99,.01-5.06,.03-.27,0-.49,.23-.49,.5v3.7c0,.13,.06,.26,.15,.36,.09,.09,.22,.14,.35,.14h0c1.07-.02,3.51-.03,5.04-.03,.28,0,.5-.22,.5-.5v-3.71c0-.28-.22-.5-.5-.5Zm-.5,3.71c-1.29,0-2.98,0-4.05,.02v-2.7c1.06-.01,2.76-.02,4.05-.02v2.71Z" fill="#FFFFFF"/><path d="M32.51,18.36c-1.05-.02-3.43-.03-4.96-.03-.32,0-.6,.19-.6,.5v3.71c0,.28,.22,.5,.5,.5,1.53,0,3.97,0,5.04,.03h0c.13,0,.26-.05,.35-.14,.1-.09,.15-.22,.15-.36v-3.7c0-.27-.22-.49-.49-.5Zm-.51,3.69c-1.07-.01-2.76-.02-4.05-.02v-2.71c1.29,0,2.99,0,4.05,.02v2.7Z" fill="#FFFFFF"/><path d="M32.5,24.32c-1.07-.02-3.52-.02-5.06-.02-.28,0-.5,.22-.5,.5v3.71c0,.28,.22,.5,.5,.5,1.53,0,3.98,0,5.04,.02h0c.13,0,.26-.05,.35-.14,.1-.09,.15-.22,.15-.36v-3.7c0-.27-.22-.5-.49-.5Zm-.51,3.69c-1.07,0-2.76-.01-4.05-.01v-2.71c1.29,0,2.98,0,4.05,.02v2.7Z" fill="#FFFFFF"/><path d="M24.77,24.3c-1.53,0-3.99,0-5.06,.02-.27,0-.49,.23-.49,.5v3.7c0,.13,.05,.26,.15,.36,.09,.09,.22,.14,.35,.14h0c1.07-.01,3.52-.02,5.04-.02,.28,0,.5-.22,.5-.5v-3.71c0-.28-.22-.5-.5-.5Zm-.5,3.71c-1.29,0-2.98,0-4.05,.01v-2.7c1.06,0,2.75-.02,4.05-.02v2.71Z" fill="#FFFFFF"/><path d="M24.77,12.36c-1.44,0-3.96,.01-5.07,.04-.27,0-.49,.23-.49,.5v3.7c0,.13,.06,.26,.15,.36,.09,.09,.22,.14,.35,.14h.01c1.07-.02,3.51-.04,5.04-.04,.28,0,.5-.22,.5-.5v-3.71c0-.28-.22-.5-.5-.5Zm-.5,3.71c-1.29,0-2.98,.01-4.05,.03v-2.7c1.08-.02,2.8-.03,4.05-.03v2.71Z" fill="#FFFFFF"/><path d="M32.51,12.41c-1.11-.03-3.63-.04-5.07-.04-.28,0-.5,.22-.5,.5v3.71c0,.28,.22,.5,.5,.5,1.53,0,3.97,.01,5.04,.04h.01c.13,0,.26-.05,.35-.14,.1-.09,.15-.22,.15-.36v-3.7c0-.27-.21-.49-.48-.5Zm-.52,3.69c-1.07-.02-2.76-.03-4.05-.03v-2.71c1.25,0,2.97,.01,4.05,.03v2.7Z" fill="#FFFFFF"/><path d="M32.5,30.23c-1.07,0-3.52-.01-5.05-.01-.28,0-.5,.22-.5,.5v3.71c0,.13,.05,.26,.15,.35s.22,.15,.35,.15h0c1.53,0,3.98,0,5.04,0h0c.13,0,.26-.05,.35-.15,.09-.09,.15-.22,.15-.35v-3.7c0-.27-.22-.5-.49-.5Zm-.51,3.7c-1.02,0-2.62,0-3.88,0h-.16v-2.71c1.29,0,2.98,0,4.05,0v2.7Z" fill="#FFFFFF"/><path d="M24.77,30.22c-1.53,0-3.98,0-5.05,.01-.27,0-.5,.23-.5,.5v3.7c0,.13,.05,.26,.15,.35,.09,.09,.22,.15,.35,.15h0c1.07,0,3.52,0,5.04,0,.28,0,.5-.22,.5-.5v-3.71c0-.28-.22-.5-.5-.5Zm-.5,3.71c-1.29,0-2.98,0-4.05,0v-2.7c1.06,0,2.75,0,4.05,0v2.71Z" fill="#FFFFFF"/><path d="M49.72,6.74c-.12-.65-.63-1.14-1.29-1.23-14.21-1.96-30.51-1.97-44.72-.01-.67,.09-1.17,.58-1.29,1.24-.12,.66,.18,1.29,.77,1.61l1.39,.76v27.11c-1.02,.08-2.03,.19-3.03,.34-.4,.06-.75,.27-.99,.59-.24,.32-.34,.72-.28,1.12,.08,.56,.48,1.01,.99,1.2v5.99c0,.13,.05,.26,.15,.35,.09,.09,.23,.11,.35,.15,4.1-.01,8.2-.01,12.31,0H47.14c.28,0,.5-.22,.5-.5v-5.96c.59-.21,1.01-.76,1.01-1.42s-.43-1.21-1.01-1.42V9.1l1.33-.75c.58-.33,.87-.96,.75-1.61Zm-14.17,29.82l.02-25.24c3.17,.17,6.43,.42,9.24,.75h0c.33,.04,.66,.08,.98,.12,.15,.02,.3,.04,.44,.06,.13,.02,.27,.04,.4,.06v24.26h-11.09Zm-17.9,0l-.02-25.3c2.69-.13,5.26-.21,7.41-.23h.03c.68,0,1.37,0,2.05,0h.03c2.14,.02,4.72,.09,7.41,.23l-.02,25.3H17.66ZM46.64,11.3c-.09-.01-.19-.02-.28-.04-.23-.03-.47-.06-.7-.09-.09-.01-.17-.02-.26-.03-.56-.07-1.15-.13-1.74-.2-.46-.05-.94-.1-1.42-.14-.09,0-.18-.02-.27-.03-3.84-.35-8.02-.57-11.69-.67h-.02c-.5-.01-.99-.03-1.47-.03-.55-.01-1.09-.02-1.6-.02h-.03s-.03,0-.05,0c-.34,0-.68,0-1,0s-.66,0-1,0c-.02,0-.03,0-.05,0h-.03c-.51,0-1.05,.01-1.6,.02-.48,0-.97,.02-1.47,.03h-.03c-3.66,.1-7.84,.32-11.67,.67-.1,0-.19,.02-.29,.03-.47,.04-.94,.09-1.4,.14-.6,.06-1.18,.13-1.75,.2-.09,.01-.18,.02-.27,.03-.24,.03-.47,.06-.7,.09-.09,.01-.19,.02-.28,.04v-2.05c5.67-.8,14.01-1.22,19.49-1.27,.7,0,1.4,0,2.09,0,5.48,.05,13.82,.46,19.49,1.27v2.05ZM5.57,12.31c.13-.02,.26-.04,.39-.06,.15-.02,.3-.04,.44-.06,.32-.04,.64-.08,.98-.12h.01c2.82-.33,6.07-.58,9.24-.75l.02,25.24h-2.33s-.02,0-.04,0c-2.09-.31-4.24-.47-6.38-.47-.78,0-1.56,.03-2.35,.07V12.31ZM1.69,37.55c2.05-.31,4.14-.46,6.23-.46,1.62,0,3.23,.09,4.83,.28,.47,.05,.94,.11,1.4,.18,.02,0,.04,.01,.06,.02,.25,.07,.41,.3,.37,.56-.04,.25-.26,.44-.5,.44-.02,0-.05,0-.08,0-.04,0-.09,0-.14-.01-.42-.06-.84-.09-1.26-.14-1.55-.18-3.11-.29-4.68-.29-2.04,0-4.07,.15-6.08,.45-.03,0-.05,0-.08,0-.25,0-.46-.18-.5-.44-.04-.28,.15-.54,.43-.58Zm.58,1.97c1.85-.26,3.75-.4,5.65-.4,1.9,0,3.8,.14,5.66,.4v5.44c-3.77-.01-7.54-.01-11.31,0v-5.44Zm12.31,.07h11.03v5.37H14.57v-5.37Zm12.03,0h13.96v5.37h-13.96v-5.37Zm20.04,5.37h-5.08v-5.37h5.08v5.37Zm1.01-6.88c0,.28-.23,.51-.51,.51H15.46c.04-.1,.09-.2,.11-.31,.04-.24,0-.48-.07-.71h31.65c.28,0,.51,.23,.51,.51Zm.83-30.6l-1.44,.81c-6.19-.91-15.17-1.32-20.94-1.32s-14.75,.41-20.94,1.32l-1.5-.82c-.31-.17-.28-.46-.26-.55,.02-.09,.1-.38,.45-.43,14.13-1.94,30.33-1.94,44.45,.01,.35,.05,.43,.34,.45,.42,.02,.09,.05,.38-.26,.55Z" fill="#FFFFFF"/></svg>