<?xml version="1.0" encoding="UTF-8"?>
<svg xmlns="http://www.w3.org/2000/svg" viewBox="0 0 50 50">
  <defs>
    <style>
      .cls-1 {
        fill: #1f1c1d;
      }

      .cls-2 {
        fill: #ffcd00;
      }

      .cls-3 {
        fill: #221f1f;
        font-family: Roboto-Regular, Roboto;
        font-size: 5px;
      }
    </style>
  </defs>
  <g id="Gold_Offset">
    <path class="cls-2" d="M42.56,18.26c-.06-.37-.15-.75-.26-1.12-.45-1.35-1.1-2.46-1.74-3.34-.4.81-1.21,1.34-2.09,1.4-.46-1.23-1.37-2.21-2.56-2.77-.03-.01-.06-.02-.1-.03.03-.27.09-.53.21-.78.21-.44.53-.81.94-1.06-.54-.3-1.1-.55-1.67-.72-2.35-.71-4.46-.33-5.83.12-.56.2-1.14.32-1.73.41-1.21.28-2.24.26-3.42-.13-1.4-.47-3.43-.96-5.7-.33-.77.22-1.47.55-2.13.93-2.03,1.24-3.46,3.32-3.46,3.32-.97,1.49-1.56,3.14-1.66,4.62-.2,2.85,1.15,6.59,2.13,8.22.22.36.72,1.2,1.06,2.41.34,1.22.34,2.19.34,2.61,0,2.71.28,6.79.59,8.76.51,3.24,1.85,6.8,3.04,6.92,1.76.17,3.84-3.33,6.11-10.45l.08-.25c.37-1.1.87-2.61,2.66-2.61s2.28,1.63,2.67,2.82c3.49,10.72,5.24,10.55,5.82,10.49,1.18-.11,2.49-3.25,2.92-6,.26-1.62.23-3.48.2-5.45-.02-1.39-.04-2.82.04-4.18.03-.4.09-1.46.55-2.74.3-.84.64-1.42.77-1.64.05-.09,2.88-4.97,2.2-9.44ZM37.42,18.68c-.45.97-1.26,1.71-2.27,2.07-1.01.37-2.1.32-3.07-.14-.97-.45-1.71-1.26-2.07-2.27-.37-1.01-.32-2.1.14-3.07.45-.97,1.26-1.71,2.27-2.07.45-.16.91-.24,1.37-.24.58,0,1.16.13,1.7.38.97.45,1.71,1.26,2.07,2.27.37,1.01.32,2.1-.14,3.07Z"/>
  </g>
  <g id="Icon_Outline">
    <g>
      <path class="cls-1" d="M15.19,5.13c.99,0,1.8-.81,1.8-1.8s-.81-1.8-1.8-1.8-1.8.81-1.8,1.8.81,1.8,1.8,1.8ZM15.19,2.53c.44,0,.8.36.8.8s-.36.8-.8.8-.8-.36-.8-.8.36-.8.8-.8Z"/>
      <path class="cls-1" d="M43.64,17.45c-.12-.01-.24.02-.33.08-.11.08-.2.21-.21.36-.03.28.18.52.46.55h.03s0,.01,0,.01c1.14.11,2.11.83,2.56,1.89.33.77.33,1.61.02,2.39-.32.77-.91,1.38-1.68,1.71-.39.16-.78.24-1.19.25h-.02c-.29,0-.51.23-.51.5,0,.28.23.5.5.51.32,0,.63-.05.95-.13,0,.07.03.14.06.2.03.05.05.1.07.15.22.47.27,1,.13,1.5-.16.56-.52,1.02-1.03,1.3-.51.28-1.08.35-1.64.2-.07-.01-.13-.04-.19-.08-.05-.02-.1-.04-.15-.06-.25-.12-.55,0-.67.23-.12.25-.01.54.23.67.16.07.32.15.5.2.81.22,1.66.13,2.41-.29.74-.42,1.27-1.09,1.5-1.9.22-.81.13-1.66-.29-2.41-.01-.02-.02-.03-.04-.06,1.92-.97,2.79-3.27,1.95-5.27-.59-1.39-1.9-2.36-3.41-2.5Z"/>
      <path class="cls-1" d="M7.38,20.7c-.58-.27-1.05-.74-1.32-1.32-.08-.18-.26-.29-.46-.29s-.37.11-.45.29c-.11.23-.25.45-.43.65-.04.05-.09.11-.15.16-.22.21-.47.38-.74.51-.18.08-.29.26-.29.46s.12.37.29.45c.58.26,1.05.73,1.31,1.31.08.18.26.29.45.29h0c.2,0,.37-.11.45-.29.07-.14.14-.28.23-.41.05-.07.1-.13.15-.19.26-.31.58-.55.94-.71.18-.08.29-.26.29-.45s-.11-.37-.29-.46ZM5.68,21.69s-.04.05-.07.08c-.18-.23-.38-.43-.61-.61.09-.07.18-.15.27-.24.08-.08.15-.15.21-.23.04-.05.08-.1.12-.15.18.23.38.43.61.61-.2.16-.38.33-.54.53Z"/>
      <path class="cls-1" d="M47.59,12.16c-.58-.27-1.05-.73-1.32-1.32-.08-.18-.26-.29-.46-.29h0c-.2,0-.37.12-.45.29-.1.23-.25.45-.42.65-.05.06-.1.11-.15.16-.22.21-.47.38-.74.51-.18.08-.29.26-.29.46s.12.37.29.46c.58.26,1.05.73,1.31,1.31.08.18.26.29.45.29h0c.19,0,.37-.11.45-.29.07-.14.14-.28.24-.41.05-.07.1-.13.15-.19.26-.31.58-.55.94-.71.18-.08.29-.26.29-.46s-.11-.37-.29-.46ZM45.88,13.14s-.04.05-.07.08c-.18-.23-.38-.43-.61-.61.09-.07.19-.15.27-.24.08-.07.15-.15.21-.23.04-.05.08-.1.12-.15.18.23.38.43.61.61-.2.16-.38.33-.54.53Z"/>
      <path class="cls-1" d="M9.92,7.41c.25.12.55.01.67-.24s.01-.55-.24-.67c-.44-.21-.91-.37-1.4-.46-3.12-.6-6.13,1.45-6.73,4.57-.29,1.51.03,3.04.89,4.31.86,1.27,2.17,2.13,3.68,2.42.03,0,.06,0,.09,0,.23,0,.44-.17.49-.41.05-.27-.13-.53-.4-.58-2.57-.49-4.26-2.99-3.77-5.56.49-2.57,2.99-4.27,5.56-3.77.4.08.79.2,1.15.38Z"/>
      <path class="cls-1" d="M33.18,13.75c-.92.22-1.68.84-2.09,1.71-.12.25,0,.55.24.67.07.03.14.05.21.05.19,0,.37-.11.45-.29.27-.58.79-1,1.41-1.16.27-.07.43-.33.37-.6s-.33-.43-.6-.37Z"/>
      <path class="cls-1" d="M41.79,16.36c-.09-.62-.28-1.23-.49-1.84.07-.11.13-.22.19-.33.4-.85.44-1.81.12-2.69-.32-.88-.97-1.59-1.82-1.99-.7-.32-1.46-.4-2.2-.25-1.14-.96-2.42-1.71-3.77-2.12-2.6-.79-4.93-.37-6.44.13-.68.24-1.39.39-2.1.45-.82.06-1.64,0-2.38-.17-.05-.02-.08-.04-.09-.04-.04-.02-.07-.02-.11-.03-1.47-.53-3.67-.98-6.12-.29-.95.27-1.81.67-2.6,1.16-.35-.41-.66-.86-.89-1.36-.08-.18-.26-.29-.46-.29s-.37.11-.45.29c-.24.52-.55,1.01-.95,1.46-.11.12-.22.25-.34.36-.5.48-1.05.86-1.66,1.13-.18.08-.29.26-.29.46s.12.37.29.46c.48.22.91.51,1.31.84-1.14,1.69-1.81,3.58-1.93,5.27-.24,3.39,1.42,7.39,2.29,8.85.17.28.62,1.04.93,2.12.3,1.09.31,1.96.31,2.37,0,2.73.29,6.88.6,8.88.05.3,1.21,7.48,3.92,7.76.09,0,.18.02.28.02,1.6,0,3.81-1.53,6.89-11.14l.08-.25c.4-1.2.72-1.93,1.72-1.93s1.3.84,1.75,2.22c3.26,10.01,5.23,11.23,6.84,11.09,2.27-.22,3.53-5.01,3.82-6.84.27-1.7.24-3.61.21-5.62-.02-1.37-.04-2.78.04-4.11.02-.36.08-1.32.49-2.47.27-.75.57-1.27.71-1.51.12-.21,3.03-5.24,2.3-10.05ZM37.44,10.32c.63-.23,1.32-.2,1.93.09s1.07.79,1.3,1.42c.23.63.2,1.32-.09,1.93-.39.84-1.22,1.38-2.12,1.44-.46-1.23-1.37-2.21-2.56-2.77-.03-.01-.06-.02-.1-.03.03-.27.09-.53.21-.78.29-.61.79-1.07,1.42-1.3ZM37.42,18.68c-.45.97-1.26,1.71-2.27,2.07-1.01.37-2.1.32-3.07-.14-.97-.45-1.71-1.26-2.07-2.27-.37-1.01-.32-2.1.14-3.07.45-.97,1.26-1.71,2.27-2.07.45-.16.91-.24,1.37-.24.58,0,1.16.13,1.7.38.97.45,1.71,1.26,2.07,2.27.37,1.01.32,2.1-.14,3.07ZM10.49,10.4c.39-.25.75-.54,1.1-.86.15-.14.29-.29.41-.43.24-.27.45-.56.64-.85.55.87,1.29,1.6,2.15,2.15-.6.38-1.15.86-1.61,1.42-.14.17-.27.34-.39.51-.05.07-.1.15-.15.22-.55-.87-1.28-1.6-2.15-2.15ZM38.61,25.94c-.13.22-.47.8-.77,1.64-.46,1.28-.52,2.34-.55,2.74-.08,1.37-.06,2.8-.04,4.18.03,1.97.06,3.83-.2,5.45-.44,2.74-1.75,5.88-2.92,6-.58.06-2.33.23-5.82-10.49-.39-1.19-.92-2.82-2.67-2.82s-2.29,1.51-2.66,2.61l-.08.25c-2.28,7.12-4.36,10.62-6.11,10.45-1.18-.12-2.53-3.68-3.04-6.92-.31-1.97-.59-6.05-.59-8.76,0-.42,0-1.38-.34-2.61-.34-1.21-.84-2.05-1.06-2.41-.98-1.63-2.33-5.37-2.13-8.22.1-1.49.69-3.13,1.66-4.62.36.42.68.87.91,1.39.08.18.26.29.45.29h0c.2,0,.37-.11.45-.29.15-.32.32-.62.52-.91.1-.15.22-.3.33-.44.58-.69,1.3-1.24,2.1-1.6.18-.08.29-.26.29-.45s-.11-.37-.29-.46c-.48-.22-.91-.52-1.31-.85.66-.38,1.35-.72,2.13-.93,2.27-.64,4.31-.19,5.7.33.73.31,4.01,1.66,7.73,1.95.01,0,.03,0,.04,0,.26,0,.48-.2.5-.46.02-.28-.18-.52-.46-.54-1.6-.13-3.12-.46-4.39-.82.59-.09,1.17-.21,1.73-.41,1.36-.45,3.48-.84,5.83-.12,1.05.32,2.06.87,2.98,1.57-.61.36-1.1.89-1.4,1.54-.13.28-.22.58-.27.88-.92-.2-1.87-.15-2.77.18-1.26.46-2.26,1.38-2.83,2.59-.57,1.21-.63,2.58-.17,3.84.46,1.26,1.38,2.26,2.59,2.83.68.32,1.4.47,2.12.47.58,0,1.16-.1,1.71-.3,1.26-.46,2.26-1.38,2.83-2.59.43-.93.57-1.94.4-2.92.67-.09,1.3-.36,1.82-.79.11.37.2.74.26,1.12.68,4.47-2.15,9.35-2.2,9.44Z"/>
    </g>
  </g>
  <g id="Names">
    <text class="cls-3" transform="translate(.01 53.78)"><tspan x="0" y="0">clean-teeth</tspan></text>
  </g>
</svg>