<?xml version="1.0" encoding="UTF-8"?><svg id="uuid-69e968b7-0b2f-4a59-b2d1-a8bbd302214d" xmlns="http://www.w3.org/2000/svg" viewBox="0 0 50 50"><path d="M30.09,16.78c.71-1.02,1.78-1.54,3.17-1.54,1.26,0,2.23,.31,2.87,.92,.57,.53,.93,1.33,1.08,2.38h2.67c-.26-1.6-.91-2.87-1.95-3.79-1.17-1.02-2.73-1.53-4.67-1.53-1.38,0-2.62,.33-3.66,.97-1.04,.65-1.85,1.59-2.41,2.81-.57,1.24-.86,2.7-.86,4.34v1.09c0,2.56,.62,4.59,1.85,6.04,1.23,1.44,2.87,2.14,5.04,2.14,1.96,0,3.56-.51,4.74-1.54,1.07-.92,1.7-2.12,1.91-3.67h-2.69c-.14,.99-.5,1.76-1.07,2.29-.66,.6-1.63,.91-2.89,.91-1.44,0-2.51-.53-3.19-1.57-.65-.98-.97-2.46-.97-4.51v-1.35c.02-1.98,.36-3.42,1.03-4.39Zm-4.76,4.56c0-.68,.05-1.33,.13-1.95,.16-1.02,.43-1.96,.82-2.81,.65-1.4,1.59-2.48,2.79-3.23,1.21-.75,2.62-1.13,4.19-1.13,2.19,0,3.98,.6,5.33,1.78,1.35,1.19,2.14,2.87,2.35,4.99,.02,.14-.03,.28-.12,.38-.1,.11-.23,.17-.37,.17h-3.69c-.26,0-.48-.2-.5-.46-.08-1.02-.35-1.76-.81-2.19s-1.19-.65-2.19-.65c-1.06,0-1.83,.37-2.34,1.11-.55,.79-.84,2.08-.86,3.82v1.35c0,1.82,.27,3.16,.8,3.97,.49,.75,1.26,1.11,2.36,1.11,1,0,1.74-.22,2.21-.65,.46-.43,.73-1.13,.8-2.08,.02-.26,.24-.47,.5-.47h3.69c.14,0,.27,.06,.37,.16,.09,.1,.14,.24,.13,.38-.15,2.05-.92,3.7-2.31,4.89-1.37,1.18-3.18,1.78-5.39,1.78-2.44,0-4.39-.84-5.8-2.49-.99-1.16-1.63-2.64-1.91-4.41-.12-.71-.18-1.47-.18-2.28v-1.09Z"/><path d="M16.74,31.61c-2.44,0-4.39-.84-5.8-2.49-1.39-1.63-2.09-3.88-2.09-6.69v-1.09c0-1.79,.32-3.39,.96-4.76,.64-1.4,1.58-2.48,2.79-3.23,1.2-.75,2.61-1.13,4.19-1.13,2.18,0,3.97,.6,5.32,1.78,1.35,1.19,2.15,2.87,2.36,4.99,.01,.08-.01,.15-.03,.22-.03,.06-.06,.12-.1,.16-.09,.11-.23,.17-.37,.17h-3.69c-.26,0-.48-.2-.5-.46-.08-1.03-.35-1.76-.81-2.19-.45-.43-1.19-.65-2.18-.65-1.07,0-1.83,.37-2.35,1.11-.55,.79-.84,2.08-.85,3.82v1.35c0,1.82,.27,3.16,.79,3.97,.5,.75,1.27,1.11,2.36,1.11,1,0,1.75-.22,2.21-.65s.74-1.13,.81-2.08c.02-.26,.23-.47,.5-.47h3.69c.13,0,.27,.06,.36,.16,.09,.09,.13,.21,.13,.34v.04c-.15,2.05-.92,3.7-2.3,4.89-1.37,1.18-3.19,1.78-5.4,1.78Zm-4.15-10.44c.02-1.98,.35-3.42,1.03-4.39,.7-1.02,1.77-1.54,3.17-1.54,1.26,0,2.22,.31,2.87,.92,.56,.53,.92,1.33,1.07,2.38h2.67c-.25-1.6-.91-2.87-1.95-3.79-1.16-1.01-2.73-1.53-4.66-1.53-1.39,0-2.62,.33-3.67,.97-1.03,.65-1.84,1.59-2.41,2.81-.57,1.24-.86,2.7-.86,4.34v1.09c0,2.56,.62,4.59,1.85,6.04,1.23,1.44,2.88,2.14,5.04,2.14,1.96,0,3.56-.51,4.75-1.54,1.06-.92,1.69-2.12,1.9-3.67h-2.69c-.14,.99-.5,1.76-1.07,2.29-.65,.6-1.63,.91-2.89,.91-1.44,0-2.51-.53-3.19-1.57-.65-.98-.96-2.46-.96-4.51v-1.35Z"/><path d="M3.56,35.75C.58,26.57,.58,17.26,3.56,8.08c.26-.8,.97-1.4,1.8-1.55,12.97-2.2,26.11-2.2,39.08,0,.83,.15,1.53,.75,1.79,1.55,2.98,9.18,2.98,18.49,0,27.67-.26,.8-.96,1.4-1.79,1.55-9.05,1.53-18.29,1.99-27.46,1.36l-6.93,6.94c-.1,.09-.22,.14-.35,.14-.07,0-.13,0-.2-.04-.18-.07-.3-.26-.3-.46v-7.37c-1.48-.2-2.71-.38-3.84-.57-.83-.15-1.54-.75-1.8-1.55Zm.95-27.36c-2.91,8.97-2.91,18.08,0,27.05,.15,.45,.55,.79,1.02,.87,1.22,.21,2.57,.41,4.23,.63,.25,.03,.44,.25,.44,.5v6.6l6.24-6.25c.1-.1,.24-.15,.39-.14,9.16,.65,18.4,.2,27.44-1.34,.47-.08,.87-.42,1.01-.87,2.92-8.97,2.91-18.08,0-27.05-.14-.45-.54-.79-1.01-.87-6.43-1.09-12.9-1.64-19.37-1.64s-12.95,.55-19.37,1.64c-.47,.08-.87,.42-1.02,.87Z"/></svg>