<?xml version="1.0" encoding="UTF-8"?>
<svg xmlns="http://www.w3.org/2000/svg" viewBox="0 0 50 50">
  <defs>
    <style>
      .cls-1 {
        fill: #1f1c1d;
      }

      .cls-2 {
        fill: #221f1f;
        font-family: Roboto-Regular, Roboto;
        font-size: 5px;
      }

      .cls-3 {
        letter-spacing: -.02em;
      }
    </style>
  </defs>
  <g id="Icon_Outline">
    <g>
      <path class="cls-1" d="M24.36,5.58c.21.06.43.08.65.08.43,0,.86-.11,1.24-.33.58-.33.99-.87,1.16-1.51.17-.64.08-1.31-.25-1.89-.33-.58-.87-.99-1.51-1.16-.64-.17-1.31-.08-1.89.25-.58.33-.99.87-1.16,1.51-.17.64-.08,1.31.25,1.89s.87.99,1.51,1.16ZM23.56,2.79c.1-.38.35-.71.69-.9.23-.13.48-.2.74-.2.13,0,.26.02.39.05.38.1.71.35.91.69s.25.75.15,1.13c-.1.38-.35.71-.69.91-.34.2-.75.25-1.13.15-.38-.1-.71-.35-.9-.69s-.25-.75-.15-1.13Z"/>
      <path class="cls-1" d="M23.36,6.48c-1.45.07-2.58,1.26-2.58,2.71v1.19c0,.28.22.5.5.5h7.45c.28,0,.5-.22.5-.5v-1.19c0-1.45-1.13-2.64-2.61-2.71h-3.26ZM28.22,9.19v.69h-6.45v-.69c0-.92.72-1.67,1.61-1.71h3.21c.92.04,1.63.8,1.63,1.71Z"/>
      <path class="cls-1" d="M31.7,25.05c0-3.69-3-6.7-6.7-6.7s-6.7,3-6.7,6.7c0,2.3,1.2,4.45,3.14,5.67v.94h-.23c-.36,0-.65.29-.65.65v1.62s.01.07.02.1c0,.03-.02.06-.02.09v1.83c0,.28.27.54.54.54h1.38c.43,1,1.39,1.71,2.51,1.71s2.08-.7,2.51-1.71h1.38c.28,0,.54-.27.54-.54v-1.83s-.01-.06-.02-.09c0-.03.02-.07.02-.1v-1.62c0-.36-.29-.65-.65-.65h-.23v-.94c1.94-1.22,3.14-3.37,3.14-5.67ZM25,37.2c-.55,0-1.05-.28-1.37-.71h2.74c-.32.43-.81.71-1.37.71ZM28.43,35.49h-6.87v-.91h6.87v.91ZM28.43,33.58h-6.87v-.91h6.87v.91ZM27.81,30.01c-.16.09-.25.25-.25.43v1.22h-5.11v-1.22c0-.18-.1-.35-.25-.43-1.78-1.01-2.89-2.91-2.89-4.95,0-3.14,2.56-5.7,5.7-5.7s5.7,2.55,5.7,5.7c0,2.04-1.11,3.94-2.89,4.95Z"/>
      <path class="cls-1" d="M22.57,21.1c-.44.24-1.26.79-1.79,1.83-.49.95-.53,1.86-.47,2.45.03.26.24.45.5.45.02,0,.03,0,.05,0,.27-.03.48-.27.45-.55-.04-.37-.04-1.12.36-1.89.41-.8,1.04-1.23,1.38-1.41.24-.13.33-.44.2-.68-.13-.24-.44-.33-.68-.2Z"/>
      <path class="cls-1" d="M35.34,23.9c0-.28-.22-.5-.5-.5h-1.99c-.28,0-.5.22-.5.5s.22.5.5.5h1.99c.28,0,.5-.22.5-.5Z"/>
      <path class="cls-1" d="M17.15,23.4h-1.99c-.28,0-.5.22-.5.5s.22.5.5.5h1.99c.28,0,.5-.22.5-.5s-.22-.5-.5-.5Z"/>
      <path class="cls-1" d="M25.5,17.02v-1.99c0-.28-.22-.5-.5-.5s-.5.22-.5.5v1.99c0,.28.22.5.5.5s.5-.22.5-.5Z"/>
      <path class="cls-1" d="M32.47,17.56c-.2-.2-.51-.19-.71,0l-1.46,1.48c-.19.2-.19.51,0,.71.1.1.22.14.35.14s.26-.05.36-.15l1.46-1.48c.19-.2.19-.51,0-.71Z"/>
      <path class="cls-1" d="M19.69,19.74c.2-.2.2-.51,0-.71l-1.48-1.48c-.2-.2-.51-.2-.71,0s-.2.51,0,.71l1.48,1.48c.1.1.23.15.35.15s.26-.05.35-.15Z"/>
      <path class="cls-1" d="M43.05,17.05c-.35,1.33.44,2.69,1.76,3.05.21.06.43.08.65.08.43,0,.86-.11,1.24-.33.58-.33.99-.87,1.16-1.51.17-.64.08-1.31-.25-1.89s-.87-.99-1.51-1.16c-.64-.17-1.31-.08-1.89.25-.58.33-.99.87-1.16,1.51ZM44.71,16.4c.23-.13.48-.2.74-.2.13,0,.26.02.39.05.38.1.71.35.9.69.2.34.25.75.15,1.13-.1.38-.35.71-.69.9-.34.2-.74.26-1.13.15-.38-.1-.71-.35-.9-.69s-.25-.75-.15-1.13c.1-.38.35-.71.69-.9Z"/>
      <path class="cls-1" d="M47.07,20.99h-3.26c-1.45.07-2.58,1.26-2.58,2.71v1.19c0,.28.22.5.5.5h7.45c.28,0,.5-.22.5-.5v-1.19c0-1.45-1.13-2.64-2.61-2.71ZM48.68,24.39h-6.45v-.69c0-.92.72-1.67,1.61-1.71h3.21c.92.04,1.63.8,1.63,1.71v.69Z"/>
      <path class="cls-1" d="M3.9,20.1c.21.06.43.08.64.08,1.1,0,2.11-.74,2.41-1.85.35-1.33-.44-2.69-1.76-3.05-1.33-.35-2.69.44-3.05,1.76-.35,1.33.44,2.69,1.76,3.05ZM3.11,17.3c.18-.67.78-1.1,1.44-1.1.13,0,.26.02.38.05.79.21,1.27,1.03,1.05,1.82-.21.79-1.03,1.27-1.83,1.05-.79-.21-1.27-1.03-1.05-1.82Z"/>
      <path class="cls-1" d="M8.77,24.89v-1.19c0-1.45-1.13-2.64-2.61-2.71h-3.26c-1.45.07-2.58,1.26-2.58,2.71v1.19c0,.28.22.5.5.5h7.45c.28,0,.5-.22.5-.5ZM7.77,24.39H1.32v-.69c0-.92.72-1.67,1.61-1.71h3.21c.91.04,1.63.8,1.63,1.71v.69Z"/>
      <path class="cls-1" d="M34.96,38.31c-.17.64-.08,1.31.25,1.89s.87.99,1.51,1.16c.21.06.43.08.65.08.43,0,.86-.11,1.24-.33.58-.33.99-.87,1.16-1.51.35-1.33-.44-2.69-1.76-3.05-1.33-.35-2.69.44-3.05,1.76ZM38.8,39.34c-.1.38-.35.71-.69.91-.34.2-.75.25-1.13.15-.38-.1-.71-.35-.9-.69-.2-.34-.25-.75-.15-1.13.18-.67.78-1.1,1.44-1.1.13,0,.26.02.38.05.79.21,1.27,1.03,1.05,1.82Z"/>
      <path class="cls-1" d="M38.98,42.26h-3.26c-1.45.07-2.58,1.26-2.58,2.71v1.19c0,.28.22.5.5.5h7.45c.28,0,.5-.22.5-.5v-1.19c0-1.45-1.13-2.64-2.61-2.71ZM40.59,45.66h-6.45v-.69c0-.92.72-1.67,1.61-1.71h3.21c.92.04,1.63.8,1.63,1.71v.69Z"/>
      <path class="cls-1" d="M11.39,36.8c-.58.33-.99.87-1.16,1.51-.17.64-.08,1.31.25,1.89s.87.99,1.51,1.16c.21.06.43.08.65.08.43,0,.86-.11,1.24-.33.58-.33.99-.87,1.16-1.51.35-1.33-.44-2.69-1.76-3.05-.64-.17-1.31-.08-1.89.25ZM13.93,38.21c.2.34.25.75.15,1.13-.1.38-.35.71-.69.91-.34.2-.74.25-1.13.15-.38-.1-.71-.35-.9-.69-.2-.34-.25-.75-.15-1.13.1-.38.35-.71.69-.9.23-.13.48-.2.74-.2.13,0,.26.02.39.05.38.1.71.35.9.69Z"/>
      <path class="cls-1" d="M14.25,42.26h-3.26c-1.45.07-2.58,1.26-2.58,2.71v1.19c0,.28.22.5.5.5h7.45c.28,0,.5-.22.5-.5v-1.19c0-1.45-1.13-2.64-2.61-2.71ZM15.86,45.66h-6.45v-.69c0-.92.72-1.67,1.61-1.71h3.21c.92.04,1.63.8,1.63,1.71v.69Z"/>
      <path class="cls-1" d="M5.77,14.63c.08.05.17.07.26.07.17,0,.33-.08.43-.24.09-.14.18-.28.27-.42.13-.2.26-.4.39-.6.08-.12.17-.24.26-.36.14-.19.27-.39.42-.57.08-.11.17-.21.26-.32.15-.19.31-.39.47-.57.08-.09.16-.18.24-.27.17-.2.35-.39.53-.58.07-.07.14-.14.21-.21.2-.2.39-.4.6-.59.06-.05.12-.1.17-.16.22-.21.45-.41.68-.61.04-.03.08-.06.12-.1.25-.21.51-.42.77-.62.02-.02.04-.03.06-.05,2.39-1.81,5.15-3.12,8.11-3.82.37-.09.75-.17,1.13-.23.27-.05.45-.31.4-.58s-.31-.45-.58-.4c-.4.07-.79.15-1.18.24-.12.03-.24.07-.37.1-.27.07-.53.13-.79.21-.2.06-.4.13-.6.19-.18.06-.36.11-.53.17-.25.09-.5.19-.75.29-.12.05-.24.09-.36.14-.27.11-.53.23-.79.35-.1.04-.2.08-.29.13-.27.13-.54.27-.8.41-.08.04-.17.08-.26.13-.26.14-.52.3-.78.45-.08.05-.17.09-.25.14-.25.15-.49.31-.74.48-.09.06-.17.11-.26.17-.24.16-.47.33-.69.5-.09.07-.18.13-.27.2-.21.16-.42.33-.62.5-.1.08-.21.16-.31.25-.19.16-.37.33-.55.49-.11.1-.23.2-.34.3-.17.16-.33.32-.49.49-.12.12-.24.23-.36.36-.15.16-.29.32-.43.48-.12.14-.25.27-.37.41-.13.16-.26.32-.39.48-.12.15-.25.3-.36.45-.13.16-.25.34-.37.5-.11.16-.23.31-.34.47-.12.18-.23.36-.35.54-.1.15-.2.29-.29.44,0,0,0,0,0,0-.02.03-.03.05-.05.07-.14.24-.07.54.17.69Z"/>
      <path class="cls-1" d="M9.1,41.73c.13,0,.25-.05.35-.14.2-.19.2-.51,0-.71-3.65-3.75-5.83-8.69-6.12-13.91-.02-.27-.23-.48-.53-.47-.28.02-.49.25-.47.53.31,5.46,2.58,10.62,6.4,14.55.1.1.23.15.36.15Z"/>
      <path class="cls-1" d="M47.23,26.51c-.29,0-.51.2-.53.47-.29,5.22-2.47,10.15-6.12,13.91-.19.2-.19.51,0,.71.1.09.22.14.35.14s.26-.05.36-.15c3.82-3.92,6.1-9.09,6.4-14.55.02-.28-.2-.51-.47-.53Z"/>
      <path class="cls-1" d="M31.82,46.36c-2.18.72-4.47,1.08-6.79,1.08,0,0-.01,0-.02,0,0,0-.01,0-.02,0-2.32,0-4.6-.36-6.79-1.08-.26-.09-.55.06-.63.32-.09.26.06.54.32.63,2.28.75,4.67,1.13,7.1,1.13,0,0,.01,0,.02,0,0,0,.01,0,.02,0,2.43,0,4.81-.38,7.1-1.13.26-.09.41-.37.32-.63-.09-.26-.37-.41-.63-.32Z"/>
      <path class="cls-1" d="M28.88,4.38c6.06,1.08,11.4,4.73,14.65,10,.09.15.26.24.43.24.09,0,.18-.02.26-.07.24-.14.31-.45.16-.69-3.39-5.51-8.98-9.33-15.32-10.46-.27-.05-.53.13-.58.4s.13.53.4.58Z"/>
    </g>
  </g>
  <g id="Names">
    <text class="cls-2" transform="translate(0 53.99)"><tspan x="0" y="0">collabo</tspan><tspan class="cls-3" x="16.27" y="0">r</tspan><tspan x="17.87" y="0">ation</tspan></text>
  </g>
</svg>