<?xml version="1.0" encoding="UTF-8"?><svg xmlns="http://www.w3.org/2000/svg" viewBox="0 0 50 50">
  <defs>
    <style>
      .cls-1 {
        fill: #1f1c1d;
      }

      .cls-2 {
        fill: #221f1f;
        font-family: Roboto-Regular, Roboto;
        font-size: 5px;
      }
    </style>
  </defs>
  <g id="Icon_Outline">
    <path class="cls-1" d="M45.85,7.36c-5.09-5.09-13.37-5.09-18.45,0l-2.4,2.4-2.4-2.4c-2.46-2.46-5.74-3.82-9.23-3.82s-6.76,1.36-9.23,3.82C-.77,12.28-.96,20.18,3.71,25.33c0,0,0,0,0,0l.14.16c.09.11.19.22.29.32l20.5,20.5c.1.1.22.15.35.15,0,0,0,0,0,0,0,0,0,0,0,0,.07,0,.14-.02.21-.05,0,0,.01,0,.02,0,.01,0,.02-.02.03-.03.03-.02.07-.04.1-.07l20.5-20.5c.11-.11.2-.22.3-.33l.13-.15s0,0,0,0c4.68-5.16,4.49-13.05-.43-17.97ZM25.5,14.09v-3.41l2.61-2.61c4.7-4.7,12.34-4.7,17.04,0s4.71,11.67.54,16.43h-6.98c.42-.63.64-1.36.64-2.13,0-2.15-1.75-3.89-3.89-3.89s-3.89,1.75-3.89,3.89c0,.77.23,1.5.64,2.13h-6.71v-5.06c0-.19-.11-.37-.28-.45-.17-.08-.38-.06-.53.05-.52.4-1.13.62-1.76.62-1.6,0-2.9-1.3-2.9-2.89s1.3-2.9,2.9-2.9c.63,0,1.24.21,1.76.62.15.12.36.14.53.05.17-.08.28-.26.28-.45ZM4.86,8.07c2.28-2.28,5.3-3.53,8.52-3.53s6.24,1.25,8.52,3.53l2.61,2.61v2.53c-.49-.22-1.02-.34-1.57-.34-2.15,0-3.9,1.75-3.9,3.9s1.75,3.89,3.9,3.89c.54,0,1.08-.12,1.57-.34v4.18h-6.2c-.19,0-.36.1-.44.27-.09.17-.07.37.03.52.35.49.53,1.07.53,1.66,0,1.6-1.3,2.9-2.89,2.9s-2.89-1.3-2.89-2.9c0-.59.18-1.17.53-1.66.11-.15.12-.35.03-.52-.09-.17-.26-.27-.44-.27H4.31C.14,19.73.36,12.56,4.86,8.07ZM11.92,25.5c-.19.46-.28.95-.28,1.45,0,2.15,1.75,3.9,3.89,3.9s3.89-1.75,3.89-3.9c0-.5-.1-.99-.28-1.45h5.36v5.68c0,.22.14.41.35.48.21.07.43,0,.56-.19.54-.77,1.43-1.23,2.36-1.23,1.6,0,2.9,1.3,2.9,2.9s-1.3,2.9-2.9,2.9c-.94,0-1.82-.46-2.36-1.23-.13-.18-.36-.25-.56-.19-.21.07-.35.26-.35.48v9.67L5.25,25.5h6.67ZM25.5,44.75v-8.46c.65.47,1.45.74,2.27.74,2.15,0,3.9-1.75,3.9-3.9s-1.75-3.9-3.9-3.9c-.82,0-1.62.26-2.27.74v-4.47h7.83c.1,0,.18-.03.26-.08.02-.01.03-.02.05-.03.07-.06.13-.12.16-.21,0,0,0,0,0,0,0-.01,0-.02,0-.03.01-.04.03-.09.03-.14,0-.03-.01-.07-.02-.1,0-.02,0-.04-.01-.06-.03-.09-.08-.16-.14-.22,0,0,0-.01-.01-.02-.69-.56-1.08-1.37-1.08-2.24,0-1.6,1.3-2.89,2.89-2.89s2.89,1.3,2.89,2.89c0,.87-.4,1.68-1.08,2.24,0,0,0,.01-.01.02-.07.06-.12.13-.14.22,0,.02,0,.04-.01.06,0,.03-.02.06-.02.1,0,.05.01.09.03.14,0,.01,0,.02,0,.03,0,0,0,0,0,0,.03.09.09.15.16.21.02.01.03.02.05.03.08.05.16.08.26.08h7.17l-19.25,19.25Z" fill="#FFFFFF"/>
  </g>
  <g id="Names">
    <text class="cls-2" transform="translate(0 53.99)"><tspan x="0" y="0">community</tspan></text>
  </g>
</svg>