<?xml version="1.0" encoding="UTF-8"?><svg id="Layer_1" data-name="Layer 1" xmlns="http://www.w3.org/2000/svg" viewBox="0 0 50 50">
  <defs>
    <style>
      .cls-1 {
        fill: none;
      }
    </style>
  </defs>
  <g>
    <g>
      <path class="cls-1" d="M25,.89c2.39,0,4.32,1.94,4.32,4.33,0,.21-.02.42-.05.62-.15,1.07-.69,2.02-1.48,2.68-.75.64-1.73,1.02-2.79,1.02s-2.04-.38-2.79-1.02c-.79-.66-1.33-1.61-1.48-2.68-.03-.2-.05-.41-.05-.62,0-2.39,1.93-4.33,4.32-4.33Z" fill="#FFCD00"/>
      <path class="cls-1" d="M19.02,6.8c0,1.01-.46,1.91-1.17,2.52-.57.48-1.31.77-2.12.77s-1.55-.29-2.12-.77c-.71-.61-1.17-1.51-1.17-2.52,0-1.81,1.47-3.28,3.29-3.28,1.59,0,2.92,1.13,3.22,2.62.05.22.07.44.07.66Z" fill="#FFCD00"/>
      <path class="cls-1" d="M34.27,3.52c1.82,0,3.29,1.47,3.29,3.28,0,1.01-.46,1.91-1.17,2.52-.57.48-1.31.77-2.12.77s-1.55-.29-2.12-.77c-.71-.61-1.17-1.51-1.17-2.52,0-.22.02-.44.07-.66.3-1.49,1.63-2.62,3.22-2.62Z" fill="#FFCD00"/>
    </g>
    <path d="M34.27,10.59c-.9,0-1.76-.31-2.44-.89-.86-.74-1.35-1.79-1.35-2.9,0-.27.03-.53.08-.77.35-1.74,1.91-3.01,3.71-3.01,2.09,0,3.79,1.7,3.79,3.78,0,1.11-.49,2.17-1.34,2.9-.68.58-1.55.89-2.45.89ZM34.27,4.02c-1.32,0-2.47.93-2.73,2.22-.04.18-.06.36-.06.56,0,.82.36,1.6,1,2.14.99.83,2.59.84,3.59,0,.63-.54.99-1.32.99-2.14,0-1.53-1.25-2.78-2.79-2.78Z" fill="#FFCD00"/>
    <path d="M15.73,10.59c-.9,0-1.76-.31-2.44-.89-.86-.74-1.35-1.79-1.35-2.9,0-2.08,1.7-3.78,3.79-3.78,1.79,0,3.35,1.27,3.71,3.02.05.24.08.49.08.76,0,1.11-.49,2.17-1.34,2.9-.68.58-1.55.89-2.45.89ZM15.73,4.02c-1.54,0-2.79,1.25-2.79,2.78,0,.82.36,1.6,1,2.14.99.83,2.59.84,3.59,0,.63-.54.99-1.32.99-2.14,0-.2-.02-.38-.06-.55,0,0,0,0,0-.01-.26-1.29-1.41-2.22-2.73-2.22Z" fill="#FFCD00"/>
    <path d="M9.5,18.09c-.28,0-.5-.22-.5-.5v-1.9c0-2.24,1.75-4.08,3.99-4.2h5.45c.57.02,1.12.16,1.63.41.25.12.35.42.23.67-.12.25-.42.35-.67.23-.39-.19-.8-.29-1.21-.31h-5.4c-1.68.09-3.02,1.49-3.02,3.2v1.9c0,.28-.22.5-.5.5Z" fill="#FFCD00"/>
    <path d="M40.5,18.09c-.28,0-.5-.22-.5-.5v-1.9c0-1.71-1.34-3.11-3.05-3.2h-5.39c-.39.02-.81.12-1.19.31-.25.12-.55.02-.67-.23-.12-.25-.02-.55.23-.67.51-.25,1.05-.39,1.61-.41h5.44c2.27.11,4.02,1.96,4.02,4.2v1.9c0,.28-.22.5-.5.5Z" fill="#FFCD00"/>
    <path d="M25,10.04c-1.15,0-2.25-.4-3.11-1.14-.9-.75-1.49-1.81-1.65-2.99-.03-.22-.05-.45-.05-.69,0-2.66,2.16-4.83,4.82-4.83s4.82,2.17,4.82,4.83c0,.23-.02.47-.05.69-.17,1.18-.75,2.24-1.65,2.99-.86.73-1.96,1.14-3.11,1.14ZM25,1.39c-2.11,0-3.82,1.72-3.82,3.83,0,.19.02.37.04.55.13.94.59,1.78,1.31,2.37,1.37,1.17,3.57,1.16,4.93,0,.72-.6,1.18-1.44,1.31-2.37,0,0,0,0,0,0,.03-.18.04-.36.04-.55,0-2.11-1.71-3.83-3.82-3.83Z" fill="#FFCD00"/>
    <path d="M32.27,16.56c-.28,0-.5-.22-.5-.5,0-1.34-.72-2.6-1.87-3.28-.52-.32-1.13-.51-1.76-.54h-6.29c-.61.04-1.2.22-1.73.54-1.16.69-1.88,1.94-1.88,3.28,0,.28-.22.5-.5.5s-.5-.22-.5-.5c0-1.69.91-3.28,2.37-4.14.66-.4,1.41-.63,2.22-.68h6.35c.82.04,1.59.28,2.25.68,1.45.86,2.36,2.44,2.36,4.14,0,.28-.22.5-.5.5Z" fill="#FFCD00"/>
  </g>
  <path d="M25.01,48.49c-.13,0-.26-.05-.35-.15l-14.21-14.21c-1.74-1.74-2.7-4.05-2.7-6.51s.96-4.77,2.7-6.51c1.75-1.74,4.06-2.69,6.51-2.69s4.76.96,6.51,2.69l1.55,1.55,1.55-1.55c1.75-1.74,4.06-2.69,6.51-2.69s4.76.96,6.51,2.69c1.74,1.74,2.7,4.05,2.7,6.51s-.96,4.77-2.7,6.51l-14.21,14.21c-.09.09-.22.15-.35.15ZM16.95,19.43c-2.18,0-4.24.85-5.8,2.4-1.55,1.55-2.4,3.61-2.4,5.8s.85,4.25,2.4,5.8l13.86,13.86,13.86-13.86c1.55-1.55,2.4-3.61,2.4-5.8s-.85-4.25-2.4-5.8c-1.56-1.55-3.62-2.4-5.8-2.4s-4.24.85-5.8,2.4l-1.91,1.91c-.2.2-.51.2-.71,0l-1.91-1.91c-1.56-1.55-3.62-2.4-5.8-2.4Z" fill="#FFCD00"/>
</svg>