<?xml version="1.0" encoding="UTF-8"?><svg id="Layer_1" data-name="Layer 1" xmlns="http://www.w3.org/2000/svg" viewBox="0 0 50 50">
  <g>
    <path d="M16.99,40.98C7.88,40.98.46,33.57.46,24.46S7.88,7.93,16.99,7.93c2.92,0,5.77.77,8.26,2.22h0c5.09,2.95,8.26,8.43,8.26,14.31s-3.17,11.37-8.26,14.3c-2.49,1.45-5.34,2.22-8.26,2.22ZM16.99,8.93c-8.56,0-15.53,6.97-15.53,15.53s6.97,15.52,15.53,15.52c2.74,0,5.42-.72,7.76-2.08,4.79-2.76,7.76-7.91,7.76-13.44s-2.97-10.68-7.76-13.45c0,0,0,0,0,0-2.34-1.36-5.02-2.08-7.76-2.08Z" fill="#FFCD00"/>
    <path d="M33.01,40.98c-2.92,0-5.77-.77-8.26-2.22-5.09-2.93-8.26-8.42-8.26-14.3s3.17-11.37,8.26-14.31c2.49-1.45,5.34-2.22,8.26-2.22,9.12,0,16.53,7.42,16.53,16.53s-7.42,16.52-16.53,16.52ZM33.01,8.93c-2.74,0-5.42.72-7.76,2.08,0,0,0,0,0,0-4.79,2.77-7.76,7.92-7.76,13.45s2.97,10.68,7.76,13.44c2.34,1.36,5.02,2.08,7.76,2.08,8.56,0,15.53-6.96,15.53-15.52s-6.97-15.53-15.53-15.53ZM25,10.58h0,0Z" fill="#FFCD00"/>
  </g>
  <path d="M23.86,29.48c-.15,0-.29-.07-.39-.18l-2.38-2.91c-.17-.21-.14-.53.07-.7.21-.17.53-.14.7.07l1.93,2.36,4.29-7.34c.14-.24.44-.32.68-.18.24.14.32.45.18.68l-4.65,7.96c-.08.14-.23.23-.39.25-.01,0-.03,0-.04,0Z" fill="#FFCD00"/>
</svg>