<?xml version="1.0" encoding="UTF-8"?><svg id="uuid-5c619c7d-c08f-4168-9a76-2fb0adaf28c8" xmlns="http://www.w3.org/2000/svg" viewBox="0 0 50 50"><path d="M30.7,34.63c.1,.1,.23,.15,.35,.15s.26-.05,.35-.15l7.2-7.2c.09-.09,.15-.22,.15-.35s-.05-.26-.15-.35l-7.2-7.2c-.2-.2-.51-.2-.71,0s-.2,.51,0,.71l6.85,6.85-6.85,6.85c-.2,.2-.2,.51,0,.71Z" fill="#FFFFFF"/><path d="M17.59,34.63c.1,.1,.23,.15,.35,.15s.26-.05,.35-.15c.2-.2,.2-.51,0-.71l-6.85-6.85,6.85-6.85c.2-.2,.2-.51,0-.71s-.51-.2-.71,0l-7.2,7.2c-.09,.09-.15,.22-.15,.35s.05,.26,.15,.35l7.2,7.2Z" fill="#FFFFFF"/><path d="M23.21,32.91s.08,.02,.13,.02c.22,0,.42-.15,.48-.37l2.93-11.25c.07-.27-.09-.54-.36-.61-.27-.07-.54,.09-.61,.36l-2.93,11.25c-.07,.27,.09,.54,.36,.61Z" fill="#FFFFFF"/><path d="M43.5,4.83H5.75c-2.48,0-4.5,2.02-4.5,4.5v30.59c0,2.48,2.02,4.5,4.5,4.5H43.5c2.48,0,4.5-2.02,4.5-4.5V9.33c0-2.48-2.02-4.5-4.5-4.5Zm3.5,35.09c0,1.93-1.57,3.5-3.5,3.5H5.75c-1.93,0-3.5-1.57-3.5-3.5V9.33c0-1.93,1.57-3.5,3.5-3.5H43.5c1.93,0,3.5,1.57,3.5,3.5v30.59Z" fill="#FFFFFF"/><path d="M43.83,14.21H5.66c-.28,0-.5,.22-.5,.5v24.98c0,.28,.22,.5,.5,.5H43.83c.28,0,.5-.22,.5-.5V14.71c0-.28-.22-.5-.5-.5Zm-.5,24.98H6.16V15.21H43.33v23.98Z" fill="#FFFFFF"/><path d="M6.66,11.53c.62,0,1.12-.5,1.12-1.12s-.5-1.12-1.12-1.12-1.12,.5-1.12,1.12,.5,1.12,1.12,1.12Z" fill="#FFFFFF"/><path d="M11.08,11.53c.62,0,1.12-.5,1.12-1.12s-.5-1.12-1.12-1.12-1.12,.5-1.12,1.12,.5,1.12,1.12,1.12Z" fill="#FFFFFF"/><path d="M15.22,11.5c.62,0,1.12-.5,1.12-1.12s-.5-1.12-1.12-1.12-1.12,.5-1.12,1.12,.5,1.12,1.12,1.12Z" fill="#FFFFFF"/></svg>