<?xml version="1.0" encoding="UTF-8"?><svg xmlns="http://www.w3.org/2000/svg" viewBox="0 0 50 50"><g id="uuid-2152477c-d0c1-4c39-a4c2-95f9d1bae3ed"><path d="M31.06,.44h-9.34c-7.45,0-12.65,4.32-12.65,10.54,.06,1.29,1.48,31.61,11.66,31.61l1.61,.02,3.61,5.39c.09,.14,.25,.22,.41,.22h0s.05-.01,.08-.02h.01c.17,0,.32-.08,.42-.22l3.35-5.04,.22-.33,1.61-.02c10.19,0,11.61-30.32,11.67-31.63C43.71,4.76,38.51,.44,31.06,.44Zm-1.17,41.19l-.36,.55-3.11,4.57c-1.01-1.51-3.38-5.04-3.41-5.09-2.18-4.02-3.28-8.02-3.28-11.87,0-9.33,3.05-17.22,6.67-17.22,1.55,0,3.08,1.49,4.31,4.19,1.5,3.3,2.36,8.05,2.36,13.03s-1.74,9.11-3.18,11.84Zm2.15-.04l-1.02,.02c1.45-2.88,3.05-7.11,3.05-11.82,0-5.12-.89-10.02-2.45-13.45-1.4-3.08-3.25-4.78-5.22-4.78-4.3,0-7.67,8-7.67,18.22,0,3.84,1.05,7.8,3.13,11.81l-1.12-.02c-4.74,0-7.39-8.24-8.78-15.15-1.54-7.66-1.89-15.42-1.89-15.48C10.06,4.37,15.91,1.43,21.71,1.43h9.34c5.8,0,11.65,2.95,11.65,9.51,0,.08-.35,7.83-1.89,15.49-1.39,6.92-4.04,15.16-8.79,15.16Z"/></g><g id="uuid-000bf8db-3b6c-4658-aa72-a14b4004f968"><text transform="translate(.02 54.91)" font-family="Roboto-Regular, Roboto" font-size="6"><tspan x="0" y="0">corn-</tspan><tspan x="13.56" y="0" letter-spacing="0em">k</tspan><tspan x="16.54" y="0">ernel</tspan></text></g></svg>