<?xml version="1.0" encoding="UTF-8"?><!-- Generator: Adobe Illustrator 27.7.0, SVG Export Plug-In . SVG Version: 6.00 Build 0)  --><svg version="1.1" id="Layer_1" xmlns="http://www.w3.org/2000/svg" xmlns:xlink="http://www.w3.org/1999/xlink" x="0px" y="0px" viewBox="0 0 50 50" style="enable-background:new 0 0 50 50;" xml:space="preserve">
<style type="text/css">
	.st0{display:none;}
	.st1{display:inline;fill:none;stroke:#EA008A;stroke-width:0.2;stroke-miterlimit:10;}
	.st2{font-family:'Roboto-Regular';}
	.st3{font-size:6px;}
</style>
<g id="ICONS_00000031165542127692736420000002692518830807990202_">
	<g>
		<path d="M19.8,24.3c-5,0-8.9,1.9-8.9,4.2s3.9,4.2,8.9,4.2s8.9-1.9,8.9-4.2S24.8,24.3,19.8,24.3z M19.8,31.8    c-4.7,0-7.9-1.7-7.9-3.2s3.3-3.2,7.9-3.2s7.9,1.7,7.9,3.2S24.5,31.8,19.8,31.8z" fill="#FFCD00"/>
		<path d="M44.6,32.5l-3.1-4.8c-0.1-0.1-0.2-0.2-0.3-0.2c-0.1,0-0.3,0-0.4,0.1L34,32V13.8c0-0.3-0.2-0.5-0.5-0.5h-2V10    c0,0,0-0.1,0-0.1l-2-8c-0.1-0.2-0.3-0.4-0.5-0.4h-1.6c-0.2,0-0.4,0.2-0.5,0.4l-2,7.9c0,0.1-0.1,0.1-0.1,0.2c0,0,0,0.1,0,0.1v7.8    c0,0,0,0,0,0c-1.4,0.9-3.1,1.5-4.7,1.6V10c0,0,0-0.1,0-0.1l-2-8c-0.1-0.2-0.3-0.4-0.5-0.4H16c-0.2,0-0.4,0.2-0.5,0.4L14,8    l-0.5-1.9c-0.3-1.1-1.2-1.8-2.4-1.8c-1.1,0-2.1,0.8-2.4,1.8l-1,3.8c0,0,0,0.1,0,0.1v3.2h-2c-0.3,0-0.5,0.2-0.5,0.5v26    c0,0.3,0.2,0.5,0.5,0.5h15.4l-1.8,1.2c0,0,0,0,0,0c0,0,0,0-0.1,0l-2.7,2.9c-0.8,0.8-0.9,2-0.3,3c0.5,0.7,1.2,1.1,2,1.1    c0.3,0,0.5,0,0.8-0.1l3.7-1.3c0,0,0,0,0.1,0c0,0,0,0,0,0l21.4-13.8C44.7,33,44.7,32.7,44.6,32.5z M27.7,2.5h0.8l1.8,7H26L27.7,2.5    z M25.8,10.5h4.7v2.7h-1.9c-0.2,0-0.4,0.2-0.5,0.4c-0.3,1.4-1.2,2.6-2.3,3.5C25.8,17.2,25.8,10.5,25.8,10.5z M14.5,10.5h4.7v9    c-1.6-0.1-3.2-0.7-4.7-1.6V10.5z M16.4,2.5h0.8l1.8,7h-4.4L16.4,2.5z M9.8,6.3c0.2-0.6,0.7-1.1,1.4-1.1c0.7,0,1.2,0.4,1.4,1.1    l0.8,3.2H9L9.8,6.3z M8.9,10.5h4.7v6.7c-1.1-1-2-2.2-2.3-3.5c-0.1-0.2-0.3-0.4-0.5-0.4H8.9V10.5z M6.3,39.3v-25h4    c1.1,3.8,5.6,6.3,9.3,6.3s8.2-2.5,9.3-6.3h4v18.3c0,0,0,0,0,0l-10.3,6.6H6.3z M38.5,30.3l2.5,3.9L22.9,45.9L20.4,42L38.5,30.3z     M18.9,47.4c-0.6,0.2-1.3,0-1.7-0.6c-0.4-0.5-0.3-1.3,0.2-1.7l2.2-2.4l2.4,3.7L18.9,47.4z M41.9,33.7l-2.5-3.9l1.6-1l2.5,3.9    L41.9,33.7z" fill="#FFCD00"/>
	</g>
</g>
<g id="Margin" class="st0">
	<rect x="1" y="1" class="st1" width="48" height="48" fill="#FFCD00"/>
</g>
<g id="Guides" class="st0">
</g>
<g id="LABELS">
</g>
<g id="LABELS_00000029014810074218356520000008910449846659006142_">
	<g>
		<g>
			<g>
				<g>
					<g>
						<text transform="matrix(1 0 0 1 -0.114 55.1228)" class="st2 st3">crayons</text>
					</g>
				</g>
			</g>
		</g>
	</g>
</g>
</svg>