<?xml version="1.0" encoding="UTF-8"?><svg xmlns="http://www.w3.org/2000/svg" viewBox="0 0 50 50"><g id="uuid-a30d4d4f-d92a-4e07-9a27-dee458349952"><g><path d="M35.58,34.58h7.98c.28,0,.5-.22,.5-.5v-7.98c0-.28-.22-.5-.5-.5h-7.98c-.28,0-.5,.22-.5,.5v7.98c0,.28,.22,.5,.5,.5Zm.5-7.98h6.98v6.98h-6.98v-6.98Z"/><path d="M5.97,34.58H25.44c.28,0,.5-.22,.5-.5s-.22-.5-.5-.5H5.97c-.28,0-.5,.22-.5,.5s.22,.5,.5,.5Z"/><path d="M45.99,9.51H3.51c-1.75,0-3.18,1.42-3.18,3.18v24.13c0,1.75,1.43,3.18,3.18,3.18H45.99c1.75,0,3.18-1.43,3.18-3.18V12.68c0-1.75-1.43-3.18-3.18-3.18Zm2.18,27.31c0,1.2-.98,2.18-2.18,2.18H3.51c-1.2,0-2.18-.98-2.18-2.18v-15.88H48.17v15.88Zm0-16.88H1.33v-4.67H48.17v4.67Zm0-5.67H1.33v-1.58c0-1.2,.98-2.18,2.18-2.18H45.99c1.2,0,2.18,.98,2.18,2.18v1.58Z"/></g></g><g id="uuid-c91aaa19-ca33-4e8f-849d-3dd706da5e24"><text transform="translate(-.16 55.07)" font-family="Roboto-Regular, Roboto" font-size="6"><tspan x="0" y="0">c</tspan><tspan x="3.14" y="0" letter-spacing="0em">r</tspan><tspan x="5.12" y="0">edit-ca</tspan><tspan x="23.15" y="0" letter-spacing="0em">r</tspan><tspan x="25.13" y="0">d</tspan></text></g></svg>