<?xml version="1.0" encoding="UTF-8"?>
<svg id="Layer_1" data-name="Layer 1" xmlns="http://www.w3.org/2000/svg" viewBox="0 0 50 50">
  <defs>
    <style>
      .cls-1 {
        fill: none;
      }
    </style>
  </defs>
  <g>
    <path class="cls-1" d="M42.86,31.58v.04c-.01.18-.05.59-.38.98-.35.41-.81.55-.97.59-2.26.23-4.52.47-6.79.71l8.14-2.32Z"/>
    <path class="cls-1" d="M34.27,8.36c1.82,0,3.29,1.47,3.29,3.29,0,1.01-.46,1.91-1.17,2.51-.57.49-1.31.78-2.12.78s-1.55-.29-2.12-.78c-.71-.6-1.17-1.5-1.17-2.51,0-1.82,1.47-3.29,3.29-3.29Z"/>
    <path class="cls-1" d="M25,5.74c2.39,0,4.32,1.93,4.32,4.32,0,1.33-.59,2.51-1.53,3.31-.75.63-1.73,1.02-2.79,1.02s-2.04-.39-2.79-1.02c-.94-.8-1.53-1.98-1.53-3.31,0-2.39,1.93-4.32,4.32-4.32Z"/>
    <path class="cls-1" d="M15.73,8.36c1.82,0,3.29,1.47,3.29,3.29,0,1.01-.46,1.91-1.17,2.51-.57.49-1.31.78-2.12.78s-1.55-.29-2.12-.78c-.71-.6-1.17-1.5-1.17-2.51,0-1.82,1.47-3.29,3.29-3.29Z"/>
    <path class="cls-1" d="M15.28,33.9c-2.27-.24-4.53-.48-6.79-.71-.16-.04-.62-.18-.97-.59-.33-.39-.37-.8-.38-.98v-.04l8.14,2.32Z"/>
  </g>
  <g>
    <path d="M13.22,40.43s-.06,0-.09,0l-6.42-1.21c-.46-.09-1.65-.32-2.39-1.22-.36-.42-.49-.87-.56-1.17,0,0-.02-.06-.03-.13-.03-.13-.06-.26-.09-.39l-.08-.34s-.03-.07-.03-.11L.98,23.63c-.12-.55,0-1.12.33-1.61.36-.54.96-.91,1.64-1.03,1.32-.24,2.6.55,2.85,1.75l1.83,8.77c.06.27-.12.54-.39.59-.27.06-.54-.12-.59-.39l-1.83-8.77c-.14-.68-.91-1.12-1.7-.97-.41.07-.77.29-.98.6-.17.26-.24.55-.17.84l2.55,12.21s.02.07.03.09l.08.36c.03.14.06.27.09.41,0,.04.01.08.01.12.06.2.14.48.36.74.52.63,1.42.81,1.8.88l6.43,1.21c.27.05.45.31.4.58-.04.24-.25.41-.49.41Z"/>
    <path d="M21.63,39.48c-.23,0-.43-.16-.49-.39-.58-2.52-1.24-5.36-1.24-5.36l-.4-2.01c-.04-.63-.58-1.05-1.2-1.03h-.45s-8.68-.29-8.68-.29c-.83-.04-1.5.51-1.53,1.2-.01.28-.24.5-.53.47-.28-.01-.49-.25-.47-.53.06-1.22,1.23-2.18,2.56-2.14l9.07.29c1.15-.06,2.15.79,2.22,1.9l.39,1.92h0s.66,2.83,1.24,5.34c.06.27-.11.54-.38.6-.04,0-.08.01-.11.01Z"/>
    <path d="M15.28,34.4s-.04,0-.05,0l-.62-.07c-2.06-.22-4.11-.43-6.16-.64-.35-.08-.88-.27-1.3-.76-.3-.36-.47-.79-.5-1.28l.5-.07.5.04c0,.07.02.37.26.66.25.29.58.4.71.43,1.98.2,4.04.41,6.1.63l.62.07c.27.03.47.28.44.55-.03.26-.24.45-.5.45Z"/>
    <path d="M11.04,48.16c-.25,0-.47-.19-.5-.44l-.84-7.39c-.02-.13.02-.26.11-.37.08-.1.2-.17.33-.19l12.84-1.45c.28-.03.52.17.55.44l.84,7.39c.02.13-.02.26-.11.37s-.2.17-.33.19l-12.84,1.45s-.04,0-.06,0ZM10.75,40.71l.73,6.4,11.85-1.34-.73-6.4-.91.1h0l-10.93,1.23ZM21.63,38.98h0,0Z"/>
    <path d="M36.78,40.43c-.24,0-.45-.17-.49-.41-.05-.27.13-.53.4-.58l6.42-1.21c.39-.08,1.29-.25,1.81-.88.22-.26.31-.54.36-.75,0-.04.01-.07.02-.11.03-.13.06-.27.09-.41l.08-.36s.02-.06.03-.09l2.55-12.21c.06-.29,0-.59-.17-.84-.21-.31-.57-.53-.98-.6-.8-.15-1.56.29-1.71.97l-1.83,8.77c-.06.27-.32.45-.59.39-.27-.06-.44-.32-.39-.59l1.83-8.77c.26-1.2,1.53-1.99,2.86-1.75.67.11,1.27.49,1.63,1.03.33.48.44,1.06.33,1.61l-2.55,12.22h0c-.01.06-.03.12-.05.16l-.06.29c-.03.13-.06.26-.09.39,0,.07-.03.14-.04.18-.05.25-.19.7-.55,1.12-.74.9-1.93,1.13-2.37,1.21l-6.44,1.21s-.06,0-.09,0Z"/>
    <path d="M28.37,39.48s-.07,0-.11-.01c-.27-.06-.44-.33-.38-.6.58-2.52,1.24-5.36,1.24-5.36l.4-1.97c.06-1.05,1.07-1.91,2.24-1.83h.39s8.64-.29,8.64-.29c1.35,0,2.5.92,2.57,2.14.01.28-.2.51-.47.53-.29.03-.51-.2-.53-.47-.04-.68-.69-1.23-1.54-1.2l-9.09.29c-.64-.02-1.19.4-1.22.96l-.41,2.06s-.66,2.86-1.24,5.38c-.05.23-.26.39-.49.39Z"/>
    <path d="M34.72,34.4c-.25,0-.47-.19-.5-.45-.03-.27.17-.52.44-.55l.62-.07c2.06-.22,4.11-.44,6.17-.64.06-.02.39-.13.64-.42.24-.28.26-.58.26-.68.01-.27.21-.52.51-.49.27,0,.49.21.49.48v.04c-.03.51-.19.94-.5,1.3-.42.49-.95.68-1.23.75-2.12.22-4.17.44-6.23.66l-.62.07s-.04,0-.05,0Z"/>
    <path d="M38.96,48.16s-.04,0-.06,0l-12.84-1.45c-.13-.01-.25-.08-.33-.19s-.12-.24-.11-.37l.84-7.39c.03-.27.26-.47.55-.44l12.84,1.45c.13.01.25.08.33.19.08.1.12.24.11.37l-.84,7.39c-.03.25-.25.44-.5.44ZM26.67,45.77l11.85,1.34.73-6.4-10.93-1.23h0l-.91-.1-.73,6.4Z"/>
    <path d="M34.27,15.44c-.9,0-1.77-.32-2.45-.9-.85-.72-1.34-1.78-1.34-2.89,0-2.09,1.7-3.79,3.79-3.79s3.79,1.7,3.79,3.79c0,1.11-.49,2.17-1.35,2.89-.67.58-1.54.9-2.44.9ZM34.27,8.86c-1.54,0-2.79,1.25-2.79,2.79,0,.82.36,1.6.99,2.13,1,.86,2.6.85,3.59,0,.63-.54,1-1.31,1-2.13,0-1.54-1.25-2.79-2.79-2.79Z"/>
    <path d="M40.5,25.13h-8.23c-.28,0-.5-.22-.5-.5s.22-.5.5-.5h7.73v-3.59c0-1.72-1.34-3.12-3.04-3.2h-5.4c-.41.02-.82.12-1.19.3-.25.12-.55.02-.67-.23-.12-.25-.02-.55.23-.67.5-.24,1.04-.38,1.61-.4h5.44c2.26.1,4.02,1.95,4.02,4.2v4.09c0,.28-.22.5-.5.5Z"/>
    <path d="M15.73,15.44c-.9,0-1.77-.32-2.45-.9-.85-.72-1.34-1.78-1.34-2.89,0-2.09,1.7-3.79,3.79-3.79s3.79,1.7,3.79,3.79c0,1.11-.49,2.17-1.35,2.89-.67.58-1.54.9-2.44.9ZM15.73,8.86c-1.54,0-2.79,1.25-2.79,2.79,0,.82.36,1.6.99,2.13,1,.86,2.6.85,3.59,0,.63-.54,1-1.31,1-2.13,0-1.54-1.25-2.79-2.79-2.79Z"/>
    <path d="M17.73,25.13h-8.23c-.28,0-.5-.22-.5-.5v-4.09c0-2.25,1.76-4.1,4-4.2h5.44c.59.02,1.13.16,1.63.4.25.12.35.42.23.67-.12.25-.42.35-.67.23-.37-.18-.78-.28-1.21-.3h-5.4c-1.68.08-3.02,1.48-3.02,3.2v3.59h7.73c.28,0,.5.22.5.5s-.22.5-.5.5Z"/>
    <path d="M25,14.89c-1.13,0-2.24-.4-3.11-1.14-1.09-.92-1.71-2.27-1.71-3.69,0-2.66,2.16-4.82,4.82-4.82s4.82,2.16,4.82,4.82c0,1.42-.62,2.77-1.71,3.69-.88.74-1.98,1.14-3.11,1.14ZM25,6.24c-2.11,0-3.82,1.71-3.82,3.82,0,1.13.49,2.2,1.35,2.93,1.38,1.16,3.55,1.16,4.93,0,.86-.73,1.35-1.8,1.35-2.93,0-2.11-1.71-3.82-3.82-3.82Z"/>
    <path d="M32.27,26.9h-14.54c-.28,0-.5-.22-.5-.5v-5.49c0-1.7.91-3.29,2.37-4.15.66-.4,1.43-.64,2.22-.67h6.34c.81.03,1.58.27,2.25.67,1.45.86,2.36,2.45,2.36,4.15v5.49c0,.28-.22.5-.5.5ZM18.23,25.9h13.54v-4.99c0-1.35-.72-2.61-1.87-3.29-.53-.32-1.13-.5-1.76-.53h-6.3c-.6.03-1.21.21-1.73.53-1.16.69-1.88,1.95-1.88,3.29v4.99Z"/>
  </g>
</svg>