<?xml version="1.0" encoding="UTF-8"?>
<svg id="Layer_1" data-name="Layer 1" xmlns="http://www.w3.org/2000/svg" viewBox="0 0 50 50">
  <defs>
    <style>
      .cls-1 {
        fill: #010101;
      }
    </style>
  </defs>
  <path class="cls-1" d="M42.35,27.2s-.06,0-.09,0c-.27-.05-.45-.31-.4-.58.18-.98.27-1.84.3-2.86h-9.08c-.28,0-.5-.22-.5-.5,0-3.41-.78-6.75-2.32-9.93h0c-1.72-3.55-4.29-6.72-7.65-9.43-.17-.13-.23-.36-.16-.56.07-.2.26-.33.47-.33,11.17,0,20.25,9.08,20.25,20.25,0,1.3-.1,2.37-.32,3.55-.04.24-.25.41-.49.41ZM33.56,22.74h8.59c-.09-3.33-1.02-6.45-2.59-9.15h-8.08c1.32,2.95,2.01,6.02,2.08,9.15ZM31.01,12.59h7.93c-3.2-4.81-8.51-8.1-14.6-8.55,2.85,2.51,5.09,5.38,6.67,8.55Z"/>
  <path class="cls-1" d="M22.9,43.5c-.28,0-.5-.22-.5-.5s.22-.5.5-.5c1.34,0,2.71-.15,4.06-.44.27-.05.54.11.59.38.06.27-.11.54-.38.59-1.42.31-2.86.46-4.27.46Z"/>
  <path class="cls-1" d="M22.9,43.5c-11.17,0-20.25-9.08-20.25-20.25,0-.28.22-.5.5-.5h9.59c.28,0,.5.22.5.5,0,3.3.74,6.55,2.2,9.66t0,0c1.72,3.66,4.33,6.92,7.78,9.7.17.13.23.36.16.56-.07.2-.26.33-.47.33ZM6.69,33.62c3.18,4.96,8.58,8.36,14.78,8.82-2.93-2.58-5.22-5.55-6.8-8.82h-7.97ZM3.66,23.74c.08,3.22.96,6.24,2.44,8.88.01,0,.02,0,.03,0h8.08c-1.24-2.87-1.9-5.85-1.96-8.88H3.66Z"/>
  <path class="cls-1" d="M12.74,23.74H3.15c-.28,0-.5-.22-.5-.5C2.65,12.08,11.74,2.99,22.9,2.99c.21,0,.4.13.47.33.07.2,0,.42-.16.56-3.36,2.71-5.94,5.88-7.65,9.43h0c-1.54,3.18-2.32,6.53-2.32,9.93,0,.28-.22.5-.5.5ZM3.66,22.74h8.59c.07-3.13.77-6.2,2.08-9.15H6.25c-1.57,2.7-2.51,5.82-2.59,9.15ZM6.87,12.59h7.93c1.58-3.17,3.82-6.04,6.67-8.55-6.09.45-11.39,3.74-14.6,8.55Z"/>
  <path class="cls-1" d="M22.9,23.74h-10.16c-.28,0-.5-.22-.5-.5,0-3.56.81-7.05,2.42-10.37.08-.17.26-.28.45-.28h7.79c.28,0,.5.22.5.5v10.15c0,.28-.22.5-.5.5ZM13.25,22.74h9.16v-9.15h-6.98c-1.38,2.94-2.11,6.02-2.18,9.15Z"/>
  <path class="cls-1" d="M33.07,23.74h-10.16c-.28,0-.5-.22-.5-.5v-10.15c0-.28.22-.5.5-.5h7.79c.19,0,.37.11.45.28,1.61,3.32,2.42,6.81,2.42,10.37,0,.28-.22.5-.5.5ZM23.4,22.74h9.16c-.07-3.13-.8-6.21-2.18-9.15h-6.98v9.15Z"/>
  <path class="cls-1" d="M22.9,33.62h-7.92c-.19,0-.37-.11-.45-.29-1.52-3.24-2.29-6.64-2.29-10.09,0-.28.22-.5.5-.5h10.16c.28,0,.5.22.5.5v9.88c0,.28-.22.5-.5.5ZM15.3,32.62h7.1v-8.88h-9.16c.07,3.03.76,6.01,2.06,8.88Z"/>
  <path class="cls-1" d="M26.81,33.62h-3.91c-.28,0-.5-.22-.5-.5v-9.88c0-.28.22-.5.5-.5h10.16c.28,0,.5.22.5.5,0,1.47-.05,2.5-.35,4-.05.27-.32.45-.59.39-.27-.05-.45-.32-.39-.59.25-1.25.32-2.15.33-3.31h-9.16v8.88h3.41c.28,0,.5.22.5.5s-.22.5-.5.5Z"/>
  <path class="cls-1" d="M30.7,13.59h-7.79c-.28,0-.5-.22-.5-.5V3.49c0-.19.11-.37.28-.45.17-.08.38-.06.53.06,3.48,2.8,6.15,6.09,7.93,9.77.07.16.06.34-.03.48-.09.15-.25.23-.42.23ZM23.4,12.59h6.48c-1.56-2.97-3.73-5.67-6.48-8.04v8.04Z"/>
  <path class="cls-1" d="M22.9,13.59h-7.79c-.17,0-.33-.09-.42-.23-.09-.15-.1-.33-.03-.48,1.78-3.69,4.45-6.97,7.93-9.77.15-.12.35-.14.53-.06.17.08.28.26.28.45v9.6c0,.28-.22.5-.5.5ZM15.92,12.59h6.48V4.56c-2.75,2.36-4.92,5.06-6.48,8.03Z"/>
  <path class="cls-1" d="M22.9,43.5c-.11,0-.22-.04-.31-.11-3.57-2.87-6.28-6.25-8.06-10.05-.07-.15-.06-.34.03-.48.09-.14.25-.23.42-.23h7.92c.28,0,.5.22.5.5v8.82c.81-.69,1.44-1.29,2.14-2.04.19-.2.5-.21.71-.03.2.19.21.5.02.71-.95,1.02-1.78,1.78-3.06,2.81-.09.07-.2.11-.31.11ZM15.78,33.62c1.57,3.08,3.79,5.87,6.62,8.31v-8.31h-6.62Z"/>
  <path d="M38.93,47.01h-3.03c-.28,0-.5-.22-.5-.5v-2.18c-.59-.16-1.15-.4-1.68-.7l-1.54,1.54c-.2.2-.51.2-.71,0l-2.15-2.15c-.19-.2-.2-.51,0-.71l1.54-1.55c-.3-.53-.53-1.09-.7-1.68h-2.18s0,0,0,0c-.13,0-.26-.05-.35-.15s-.15-.22-.15-.35v-3.03c0-.28.22-.5.5-.5h2.18c.16-.59.4-1.15.7-1.69l-1.54-1.54c-.09-.09-.15-.22-.15-.35s.05-.26.15-.35l2.15-2.15c.19-.19.51-.2.71,0l1.55,1.54c.53-.3,1.09-.53,1.68-.7v-2.18c0-.13.05-.26.15-.35s.22-.15.35-.15h3.03c.28,0,.5.22.5.5v2.18c.59.16,1.15.4,1.68.7l1.54-1.54c.2-.2.51-.2.71,0l2.15,2.15c.19.2.2.51,0,.71l-1.54,1.55c.3.53.53,1.09.7,1.68h2.18s0,0,0,0c.13,0,.26.05.35.15s.15.22.15.35v3.03c0,.28-.22.5-.5.5h-2.18c-.16.59-.4,1.15-.7,1.68l1.54,1.54c.09.09.15.22.15.35s-.05.26-.15.35l-2.15,2.15c-.19.2-.51.19-.71,0l-1.55-1.54c-.53.3-1.09.53-1.68.7v2.18c0,.28-.22.5-.5.5ZM36.4,46.01h2.03v-2.07c0-.23.16-.44.39-.49.74-.16,1.45-.46,2.1-.87.2-.13.46-.1.62.07l1.47,1.46,1.44-1.44-1.46-1.46c-.17-.17-.19-.43-.07-.62.41-.65.71-1.35.87-2.09.05-.23.25-.39.49-.39h2.07v-2.04h-2.07c-.23,0-.44-.16-.49-.39-.16-.74-.46-1.45-.87-2.1-.13-.2-.1-.46.07-.62l1.46-1.47-1.44-1.44-1.46,1.46c-.17.17-.43.19-.62.07-.65-.41-1.35-.71-2.09-.87-.23-.05-.39-.25-.39-.49v-2.07h-2.04v2.07c0,.23-.16.44-.39.49-.74.16-1.45.46-2.1.87-.2.13-.46.1-.62-.07l-1.47-1.46-1.44,1.44,1.46,1.46c.17.17.19.42.07.62-.41.65-.71,1.35-.87,2.09-.05.23-.25.39-.49.39h-2.07v2.04h2.07c.23,0,.44.16.49.39.16.74.46,1.45.87,2.1.13.2.1.46-.07.62l-1.46,1.47,1.44,1.44,1.46-1.46c.17-.17.43-.19.62-.07.65.41,1.35.71,2.09.87.23.05.39.25.39.49v2.07Z"/>
  <path d="M37.42,40.83c-2.07,0-3.75-1.68-3.75-3.75s1.68-3.75,3.75-3.75,3.75,1.68,3.75,3.75-1.68,3.75-3.75,3.75ZM37.42,34.32c-1.52,0-2.75,1.24-2.75,2.75s1.23,2.75,2.75,2.75,2.75-1.24,2.75-2.75-1.23-2.75-2.75-2.75Z"/>
</svg>