<?xml version="1.0" encoding="UTF-8"?><svg id="uuid-bebe6f71-38c7-4eba-a8c3-76c287d81ff6" xmlns="http://www.w3.org/2000/svg" viewBox="0 0 50 50"><path d="M39.55,11.56c.28,0,.5.23.5.5s-.22.5-.5.5h-15.8c-.27,0-.5-.22-.5-.5s.23-.5.5-.5h15.8Z" stroke-width="0" fill="#FFCD00"/><path d="M39.55,24.44c.28,0,.5.23.5.5s-.22.5-.5.5h-15.8c-.27,0-.5-.22-.5-.5s.23-.5.5-.5h15.8Z" stroke-width="0" fill="#FFCD00"/><path d="M39.55,37.32c.28,0,.5.23.5.5s-.22.5-.5.5h-15.8c-.27,0-.5-.22-.5-.5s.23-.5.5-.5h15.8Z" stroke-width="0" fill="#FFCD00"/><rect x="13.81" y="37.46" width="4.45" height="1.11" stroke-width="0" fill="#FFCD00"/><polygon points="15.35 25.48 13.58 25.48 13.58 24.2 15.35 24.2 15.35 22.29 16.7 22.29 16.7 24.2 18.46 24.2 18.46 25.48 16.7 25.48 16.7 27.47 15.35 27.47 15.35 25.48" stroke-width="0" fill="#FFCD00"/><polygon points="15.35 12.68 13.58 12.68 13.58 11.4 15.35 11.4 15.35 9.49 16.7 9.49 16.7 11.4 18.46 11.4 18.46 12.68 16.7 12.68 16.7 14.67 15.35 14.67 15.35 12.68" stroke-width="0" fill="#FFCD00"/><path d="M11.04,12.06c0-2.75,2.24-5,5-5s5,2.25,5,5-2.25,5-5,5-5-2.24-5-5ZM16.04,8.06c-2.21,0-4,1.8-4,4s1.79,4,4,4,4-1.79,4-4-1.8-4-4-4Z" stroke-width="0" fill="#FFCD00"/><path d="M11.04,24.94c0-2.75,2.24-5,5-5s5,2.25,5,5-2.25,5-5,5-5-2.24-5-5ZM16.04,20.94c-2.21,0-4,1.8-4,4s1.79,4,4,4,4-1.79,4-4-1.8-4-4-4Z" stroke-width="0" fill="#FFCD00"/><path d="M11.04,37.82c0-2.75,2.24-5,5-5s5,2.25,5,5-2.25,5-5,5-5-2.24-5-5ZM12.04,37.82c0,2.21,1.79,4,4,4s4-1.79,4-4-1.8-4-4-4-4,1.8-4,4Z" stroke-width="0" fill="#FFCD00"/><path d="M43.19,46.58V2.57H7.9v44.01h35.29ZM44.19,2.07v45.01c0,.28-.22.5-.5.5H7.4c-.28,0-.5-.22-.5-.5V2.07c0-.28.22-.5.5-.5h36.29c.28,0,.5.22.5.5Z" stroke-width="0" fill="#FFCD00"/></svg>