<?xml version="1.0" encoding="UTF-8"?>
<svg xmlns="http://www.w3.org/2000/svg" viewBox="0 0 50 50">
  <defs>
    <style>
      .cls-1 {
        fill: #1f1c1d;
      }

      .cls-2 {
        fill: #ffcd00;
      }

      .cls-3 {
        fill: #221f1f;
        font-family: Roboto-Regular, Roboto;
        font-size: 5px;
      }
    </style>
  </defs>
  <g id="Gold_Offset">
    <g>
      <path class="cls-2" d="M21.08,11.26l.35-1.69c.07-.32-.08-.69-.38-.92l-2.78-2.14c-.19-.14-.41-.22-.62-.22-.13,0-.26.03-.37.08l-1.57.82,5.33,4.05s.04.02.05.02Z"/>
      <path class="cls-2" d="M49.89,39.5c-.06-.5-.32-.94-.71-1.25l-12.6-9.77c-.58-.45-1.31-.7-2.04-.7h-15.45c-.96,0-1.9-.32-2.66-.91l-11.32-8.77c-.33-.26-.73-.39-1.14-.39-.08,0-.16,0-.24.01-.5.06-.94.32-1.25.71-.31.4-.44.89-.38,1.38.06.5.32.94.71,1.25l12.6,9.77c.58.45,1.31.7,2.04.7h4.21v10.58h-6.46c-.28,0-.5.23-.5.5v3.93c0,.27.22.5.5.5h20.46c.69,0,1.26-.56,1.26-1.26v-3.17c0-.28-.22-.5-.5-.5h-6.09v-10.58h2.58c.96,0,1.9.32,2.66.91l11.32,8.77c.82.63,2,.48,2.63-.33.31-.4.44-.89.38-1.38Z"/>
    </g>
  </g>
  <g id="Icon_Outline">
    <g>
      <path class="cls-1" d="M49.89,38.38c-.1-.76-.48-1.44-1.09-1.91l-11.69-9.06V6.41c0-1.93-1.57-3.5-3.5-3.5h-11.42c-1.03,0-2.01.45-2.68,1.24l-.86,1.01-.3-.23c-.61-.47-1.42-.56-2.06-.23l-1.57.82c-.29.15-.48.43-.5.75-.03.35.12.7.42.92l5.27,4.05c.19.15.42.23.65.23.12,0,.23-.02.34-.06.31-.11.53-.36.6-.68l.39-1.73c.16-.7-.13-1.46-.75-1.94l-.17-.13.64-.8c.14-.18.36-.28.59-.28h11.21c.42,0,.75.34.75.75v19.22c-.2-.03-.41-.05-.62-.05h-15.45c-.11,0-.23-.02-.34-.03l2.69-4.25h9.39c.28,0,.5-.22.5-.5s-.22-.5-.5-.5h-9.66c-.17,0-.33.09-.42.23l-3.01,4.75c-.25-.11-.48-.24-.69-.4l-11.32-8.77c-.61-.47-1.37-.68-2.12-.58-.76.1-1.44.48-1.91,1.09-.47.61-.68,1.36-.58,2.12.1.76.48,1.44,1.09,1.91l12.6,9.77c.76.59,1.7.91,2.66.91h3.21v9.75h-5.28c-.83,0-1.5.67-1.5,1.5v2.8c0,.83.67,1.5,1.5,1.5h21.22c.83,0,1.5-.67,1.5-1.5v-2.8c0-.83-.67-1.5-1.5-1.5h-5.28v-9.75h1.58c.74,0,1.46.25,2.04.7l11.32,8.77c.52.41,1.14.6,1.76.6.86,0,1.71-.38,2.28-1.11.47-.61.68-1.36.58-2.12ZM20.91,8.79l-.35,1.69s-.02,0-.05-.02l-5.33-4.05,1.57-.82c.11-.06.24-.08.37-.08.21,0,.44.08.62.22l2.78,2.14c.3.23.45.6.38.92ZM33.4,4.86h-11.21c-.54,0-1.04.24-1.37.66l-.65.81-.73-.56.83-.98c.48-.56,1.17-.89,1.91-.89h11.42c1.38,0,2.5,1.12,2.5,2.5v20.23c-.29-.22-.62-.39-.95-.52V6.62c0-.97-.79-1.75-1.75-1.75ZM35.61,42.29c.28,0,.5.22.5.5v2.8c0,.28-.22.5-.5.5H14.39c-.28,0-.5-.22-.5-.5v-2.8c0-.28.22-.5.5-.5h21.22ZM20.67,41.29v-9.75h8.66v9.75h-8.66ZM48.51,39.88c-.63.82-1.81.97-2.63.33l-11.32-8.77c-.76-.59-1.7-.91-2.66-.91h-15.45c-.74,0-1.46-.25-2.04-.7L1.82,20.06c-.4-.31-.65-.75-.71-1.25-.06-.5.07-.99.38-1.38.31-.4.75-.65,1.25-.71.08,0,.16-.01.24-.01.41,0,.81.14,1.14.39l11.32,8.77c.76.59,1.7.91,2.66.91h15.45c.74,0,1.46.25,2.04.7l12.6,9.77c.4.31.65.75.71,1.25.06.5-.07.99-.38,1.38Z"/>
      <path class="cls-1" d="M14.57,12.76c.09.07.2.1.3.1.15,0,.3-.07.4-.2l1.35-1.76c.17-.22.13-.53-.09-.7-.22-.17-.53-.13-.7.09l-1.35,1.76c-.17.22-.13.53.09.7Z"/>
      <path class="cls-1" d="M17.9,13.6c.24,0,.45-.17.49-.41l.28-1.54c.05-.27-.13-.53-.4-.58-.26-.05-.53.13-.58.4l-.28,1.54c-.05.27.13.53.4.58.03,0,.06,0,.09,0Z"/>
      <path class="cls-1" d="M13.38,10.13c.07,0,.14-.01.21-.05l1.42-.66c.25-.12.36-.42.24-.67-.12-.25-.42-.36-.67-.24l-1.42.66c-.25.12-.36.42-.24.67.08.18.27.29.45.29Z"/>
    </g>
  </g>
  <g id="Names">
    <text class="cls-3" transform="translate(0 53.78)"><tspan x="0" y="0">dental-chair</tspan></text>
  </g>
</svg>