<?xml version="1.0" encoding="UTF-8"?><svg xmlns="http://www.w3.org/2000/svg" viewBox="0 0 50 50">
  <defs>
    <style>
      .cls-1 {
        fill: #1f1c1d;
      }

      .cls-2 {
        fill: #221f1f;
        font-family: Roboto-Regular, Roboto;
        font-size: 5px;
      }

      .cls-3 {
        letter-spacing: -.02em;
      }

      .cls-4 {
        letter-spacing: 0em;
      }
    </style>
  </defs>
  <g id="Icon_Outline">
    <g>
      <path class="cls-1" d="M37.53,17.12c-.47-3.09-3.08-6.11-6.07-7.02-1.98-.6-3.76-.28-4.91.1-.5.18-1.02.29-1.56.33-.68.06-1.43-.05-2.29-.31-.99-.3-2.54-.55-4.24-.07-3.68,1.03-5.87,4.6-6.07,7.44-.18,2.57,1.08,5.61,1.74,6.71.12.21.46.76.68,1.56.22.8.22,1.44.23,1.74,0,2.05.22,5.17.46,6.68.42,2.69,1.15,5.79,3.07,5.93.06,0,.12,0,.18,0,1.14,0,2.58-.9,4.99-8.44l.04-.12c.3-.88.53-1.42,1.22-1.42.6,0,.82.54,1.11,1.44l.04.14c2.46,7.57,4.25,8.48,5.56,8.4,1.97-.1,2.75-3.69,3-5.23.21-1.29.18-2.72.16-4.24-.02-1.02-.03-2.08.03-3.07.02-.27.06-.97.36-1.82.2-.56.44-.96.53-1.11.09-.16,2.29-3.98,1.74-7.62ZM34.92,24.26c-.09.15-.36.61-.59,1.26-.31.88-.39,1.62-.42,2.09-.06,1.03-.05,2.11-.03,3.15.02,1.47.05,2.86-.15,4.07-.4,2.55-1.25,4.35-2.06,4.39-.02,0-.03,0-.05,0-1.66,0-3.37-4.19-4.51-7.72l-.04-.13c-.27-.85-.69-2.13-2.07-2.13-1.46,0-1.89,1.26-2.17,2.1l-.04.13c-2.52,7.88-3.75,7.77-4.15,7.75-.62-.04-1.5-.96-2.15-5.08-.23-1.47-.44-4.52-.44-6.55,0-.32,0-1.06-.26-1.99-.26-.93-.64-1.57-.81-1.84-.72-1.21-1.73-3.99-1.58-6.09.17-2.5,2.11-5.64,5.34-6.55.59-.17,1.16-.23,1.69-.23.79,0,1.48.14,2,.3.98.29,1.84.41,2.67.35.61-.05,1.22-.18,1.79-.38,1-.33,2.56-.62,4.3-.09,2.65.8,4.95,3.47,5.37,6.21.5,3.3-1.59,6.93-1.62,6.99Z" fill="#FFFFFF"/>
      <path class="cls-1" d="M30.59,12.97c-.97-.29-2.06-.26-3.04.06-.73.26-1.48.42-2.25.49h-.1c-1.07.09-2.14-.05-3.36-.42-.88-.26-1.76-.29-2.57-.06-2.24.63-3.76,2.96-3.89,4.76-.12,1.64.78,4.06,1.32,4.95.16.27.67,1.1,1,2.3.33,1.19.34,2.14.34,2.55,0,2.07.22,4.99.42,6.22.04.25.08.49.12.71.04.22.22.39.44.41.23.03.43-.1.51-.31.43-1.06.89-2.35,1.36-3.82l.04-.12c.5-1.48,1.47-3.46,4.06-3.46s3.48,2,3.97,3.51l.04.13c.58,1.77,1.15,3.25,1.69,4.38.08.17.26.28.45.28.02,0,.04,0,.06,0,.21-.03.39-.19.43-.4.04-.2.08-.41.11-.63.16-1.03.14-2.33.12-3.73-.02-1.08-.04-2.19.03-3.29.02-.34.08-1.39.53-2.65.29-.81.63-1.39.76-1.62.49-.84,1.69-3.49,1.36-5.66-.3-1.96-2.08-4.02-3.97-4.6ZM32.34,22.73c-.14.24-.51.88-.84,1.78-.5,1.39-.57,2.54-.59,2.92-.07,1.13-.05,2.27-.04,3.38.01.83.03,1.62,0,2.33-.3-.76-.6-1.62-.91-2.57l-.04-.14c-.9-2.79-2.56-4.21-4.92-4.21s-4.08,1.39-5.01,4.13l-.04.12c-.22.69-.44,1.33-.65,1.93-.14-1.4-.25-3.34-.26-4.83,0-.41,0-1.49-.38-2.81-.37-1.33-.92-2.24-1.11-2.54-.45-.75-1.27-2.98-1.17-4.37.1-1.47,1.4-3.38,3.16-3.87.63-.18,1.32-.16,2.01.05,1.34.4,2.52.56,3.73.47h.11c.85-.08,1.69-.26,2.49-.54.76-.25,1.66-.28,2.42-.05,1.51.46,3.04,2.23,3.27,3.79.26,1.73-.72,4.12-1.24,5.01Z" fill="#FFFFFF"/>
      <path class="cls-1" d="M45.66,1.35H4.34c-1.65,0-2.99,1.34-2.99,2.99v41.33c0,1.65,1.34,2.99,2.99,2.99h41.33c1.65,0,2.99-1.34,2.99-2.99V4.34c0-1.65-1.34-2.99-2.99-2.99ZM47.65,45.66c0,1.1-.89,1.99-1.99,1.99H4.34c-1.1,0-1.99-.89-1.99-1.99V4.34c0-1.1.89-1.99,1.99-1.99h41.33c1.1,0,1.99.89,1.99,1.99v41.33Z" fill="#FFFFFF"/>
      <path class="cls-1" d="M6.35,12.85c.28,0,.5-.22.5-.5v-5.01c0-.27.22-.49.49-.49h5.01c.28,0,.5-.22.5-.5s-.22-.5-.5-.5h-5.01c-.82,0-1.49.67-1.49,1.49v5.01c0,.28.22.5.5.5Z" fill="#FFFFFF"/>
      <path class="cls-1" d="M42.67,5.85h-5.01c-.28,0-.5.22-.5.5s.22.5.5.5h5.01c.27,0,.49.22.49.49v5.01c0,.28.22.5.5.5s.5-.22.5-.5v-5.01c0-.82-.67-1.49-1.49-1.49Z" fill="#FFFFFF"/>
      <path class="cls-1" d="M43.16,37.15c-.28,0-.5.22-.5.5v5.01c0,.27-.22.49-.49.49h-5.01c-.28,0-.5.22-.5.5s.22.5.5.5h5.01c.82,0,1.49-.67,1.49-1.49v-5.01c0-.28-.22-.5-.5-.5Z" fill="#FFFFFF"/>
      <path class="cls-1" d="M12.35,43.15h-5.01c-.27,0-.49-.22-.49-.49v-5.01c0-.28-.22-.5-.5-.5s-.5.22-.5.5v5.01c0,.82.67,1.49,1.49,1.49h5.01c.28,0,.5-.22.5-.5s-.22-.5-.5-.5Z" fill="#FFFFFF"/>
    </g>
  </g>
  <g id="Names">
    <text class="cls-2" transform="translate(0 53.78)"><tspan x="0" y="0">dental-x</tspan><tspan class="cls-3" x="17.65" y="0">r</tspan><tspan class="cls-4" x="19.25" y="0">a</tspan><tspan x="21.93" y="0">y</tspan></text>
  </g>
</svg>