<?xml version="1.0" encoding="UTF-8"?><svg xmlns="http://www.w3.org/2000/svg" viewBox="0 0 50 50">
  <defs>
    <style>
      .cls-1 {
        fill: #1f1c1d;
      }

      .cls-2 {
        fill: #221f1f;
        font-family: Roboto-Regular, Roboto;
        font-size: 5px;
      }
    </style>
  </defs>
  <g id="Icon_Outline">
    <g>
      <path class="cls-1" d="M35.98,42.72s-.1-.09-.16-.11c-.12-.05-.26-.05-.38,0-.06.02-.12.06-.16.11-.05.04-.09.1-.11.16-.03.06-.04.12-.04.19s0,.13.04.19c.02.06.06.12.11.16.09.1.22.15.35.15.14,0,.26-.05.35-.15.05-.04.09-.1.11-.16.03-.06.04-.12.04-.19s-.01-.13-.04-.19c-.02-.06-.06-.12-.11-.16Z" fill="#FFCD00"/>
      <path class="cls-1" d="M30.14,34.54c-.16-.23-.48-.28-.7-.12-.22.16-.28.47-.12.7l4.58,6.39c.1.14.25.21.41.21.1,0,.2-.03.29-.09.22-.16.28-.47.12-.7l-4.58-6.39Z" fill="#FFCD00"/>
      <path class="cls-1" d="M48.89,41.26l-12.01-15.9s0,0,0-.01c-.46-.62-.6-1.44-.38-2.18.23-.77.82-1.38,1.61-1.66.97-.35,2.13.04,2.82.95l4.5,5.95c.17.22.48.26.7.1.22-.17.26-.48.1-.7l-4.5-5.95c-.95-1.25-2.57-1.78-3.95-1.29-1.09.39-1.91,1.24-2.23,2.31-.32,1.06-.11,2.22.56,3.1,0,0,0,.01.01.02l11.98,15.86c1.28,1.69.94,4.1-.75,5.38-1.69,1.28-4.1.94-5.38-.75l-.39-.52.63-.47c.44-.33.53-.96.2-1.4l-1.24-1.65.73-.55c.45-.34.73-.84.8-1.42.08-.66-.12-1.34-.56-1.88L19.04,9.78l.17-.13c2.11-1.59,2.52-4.6.94-6.7l-.04-.06s0,0,0,0c-1.59-2.1-4.6-2.52-6.7-.93l-9.35,7.06c-.11.08-.17.2-.19.33-.02.13.02.26.1.37l1.23,1.62-1.65,1.24c-.21.16-.35.4-.39.66s.03.53.19.74l.47.63-3.49,2.63c-.22.17-.26.48-.1.7.1.13.25.2.4.2.11,0,.21-.03.3-.1l3.49-2.63.47.63c.16.21.4.35.66.39.05,0,.09,0,.14,0,.22,0,.43-.07.6-.2l1.65-1.24,1.23,1.62c.1.13.25.2.4.2.11,0,.21-.03.3-.1l2.26-1.7,21.42,30.09c.4.57,1,.95,1.66,1.05.12.02.23.03.35.03.45,0,.88-.14,1.24-.41l.73-.55,1.24,1.65c.2.26.5.4.8.4.21,0,.42-.07.6-.2l.63-.47.39.52c.95,1.26,2.4,1.92,3.87,1.92,1.02,0,2.04-.32,2.91-.98,2.13-1.61,2.55-4.65.94-6.78ZM5.69,15.43l-.77-1.02s0,0,0,0,0,0,0,0l-.77-1.02,1.64-1.24,1.55,2.05-1.65,1.24ZM11.93,13.89s0,0,0,0l-2.27,1.71-1.23-1.62s0,0,0,0l-2.15-2.85s0,0,0,0l-1.23-1.62L14,2.75c1.67-1.26,4.04-.93,5.3.74l.04.06c1.26,1.67.93,4.04-.74,5.3l-.58.44s0,0,0,0l-6.1,4.61ZM36.18,44.96c-.23.17-.52.24-.83.19-.39-.06-.75-.29-1-.64L12.92,14.4l5.32-4.02,23.11,28.85c.27.33.39.74.34,1.13-.04.31-.18.57-.41.74l-5.1,3.85ZM39.55,46.25l-1.24-1.65,2.05-1.55,1.24,1.64h0s.3.4.3.4l-.3-.4-2.05,1.55Z" fill="#FFCD00"/>
      <path class="cls-1" d="M18.11,4.44c-.4-.53-.99-.88-1.65-.97-.66-.09-1.32.08-1.85.48-.22.17-.26.48-.1.7.17.22.48.26.7.1.32-.24.71-.34,1.11-.29.4.06.75.26.99.58.1.13.25.2.4.2.11,0,.21-.03.3-.1.22-.17.26-.48.1-.7Z" fill="#FFCD00"/>
    </g>
  </g>
  <g id="Names">
    <text class="cls-2" transform="translate(0 53.78)"><tspan x="0" y="0">dental-drill</tspan></text>
  </g>
</svg>