<?xml version="1.0" encoding="UTF-8"?>
<svg xmlns="http://www.w3.org/2000/svg" viewBox="0 0 50 50">
  <defs>
    <style>
      .cls-1 {
        fill: #1f1c1d;
      }

      .cls-2 {
        fill: #221f1f;
        font-family: Roboto-Regular, Roboto;
        font-size: 5px;
      }

      .cls-3 {
        letter-spacing: 0em;
      }
    </style>
  </defs>
  <g id="Icon_Outline">
    <path class="cls-1" d="M46.53,24.61c.03-.59.04-1,.03-1.26.1-.07.2-.17.28-.3.51-.78.41-2.34.32-3.04.48-.57,2.4-3.1,1.94-6.84-.14-1.2-.72-2.14-1.72-2.79-3.5-2.28-11.13-.33-14.25.62-5.63,1.71-8.02,1.68-8.06,1.68-.03,0-.05,0-.08.01-.03,0-.05-.01-.08-.01,0,0-2.42.03-8.06-1.68-3.12-.94-10.75-2.9-14.25-.62-1,.65-1.58,1.59-1.72,2.79-.45,3.73,1.47,6.27,1.94,6.84-.09.7-.19,2.26.32,3.04.09.14.19.23.28.3,0,.26,0,.67.03,1.26-.39.03-1.57.22-2.1,1.26-.61,1.19-.08,2.99,1.57,5.34.63.9,1.19,1.92,1.74,2.9,1.8,3.23,3.65,6.57,8.13,6.57.28,0,.56-.01.86-.04,3.13-.28,5.08-.48,6.46-.62,2.21-.23,2.96-.31,4.87-.31s2.66.08,4.87.31c1.38.14,3.32.35,6.46.62.3.03.58.04.86.04,4.48,0,6.33-3.34,8.13-6.57.55-.98,1.11-2,1.74-2.9,1.65-2.36,2.18-4.15,1.57-5.34-.53-1.04-1.71-1.23-2.1-1.26ZM42.96,27.58c-.07,1.01-.23,1.11-.51,1.28-.2.12-.61.15-1.07-.06-.35-.16-.95-.57-1.09-1.54,0,0,0,0,0,0-.01-.78-.04-1.5-.06-1.81.17-.23.29-.47.37-.7.45.23,1.01.36,1.63.36.14,0,.28,0,.42-.02.11,0,.22-.03.32-.06.02.64.05,1.7-.01,2.55ZM39.27,29.11c-.07,1.01-.23,1.11-.51,1.28-.13.08-.4.2-.69.06-.37-.17-.65-.7-.77-1.43,0-1.21-.07-2.56-.1-3.11.47.24.89.27.9.27.17.02.33.04.48.04.26,0,.48-.04.68-.1.03.84.06,2.16,0,2.99ZM36.2,30.69c-.21.94-.52.94-.75.95h0c-.4,0-1.48-.37-1.73-2.07,0-.01,0-.02-.01-.03.03-.72.01-1.49-.01-2.25v-.45s-.02-.03-.02-.04c.78-.04,1.51-.13,2.08-.22.17-.03.33-.08.49-.16.07,1.34.13,3.56-.03,4.28ZM32.69,27.32c.05,1.72.11,3.67-.57,4.37-.18.18-.4.27-.71.27h0c-.27,0-.5-.11-.71-.33-.9-.95-1.02-3.47-1-4.49.43-.03.78-.08,1.06-.16.22-.06.41-.17.58-.31.09.06.19.1.27.11.36.03.72.04,1.08.04,0,.01,0,.03,0,.04v.45ZM28.65,27.47c.07,1.72.14,3.67-.54,4.38-.19.2-.43.29-.77.29-1.57,0-1.74-1.9-1.8-4.19,0-.28-.02-.55-.03-.79.14.05.28.08.44.08h.03l.94-.02c.66-.01,1.23-.02,1.73-.04v.29ZM19.31,31.62c-.21.22-.44.33-.71.33h0c-.3,0-.53-.08-.71-.27-.68-.7-.62-2.65-.57-4.37v-.45s0-.03,0-.04c.36,0,.72-.01,1.08-.04.08,0,.18-.05.27-.11.17.13.36.25.58.31.28.08.63.12,1.06.16.02,1.03-.1,3.54-1,4.49ZM9.71,27.26c-.15.97-.75,1.38-1.09,1.54-.46.21-.88.18-1.07.06-.28-.17-.44-.27-.51-1.28-.06-.85-.04-1.92-.01-2.55.1.03.21.05.32.06.14.01.28.02.42.02.63,0,1.18-.13,1.63-.36.08.23.2.48.37.7-.02.32-.05,1.03-.06,1.81,0,0,0,0,0,0ZM6,25.78c-.09.82-.35.99-.42,1.02-.14.06-.36-.01-.57-.19-.29-.24-.45-.75-.51-1.71-.04-.56-.05-.97-.05-1.26.31.04.57.06.78.06.17,0,.3-.01.41-.03.1.29.25.54.42.75,0,0,0,0,0,0,0,.04-.03.62-.05,1.35,0,0,0,0,0,0ZM20.17,19.94c.42-.45.96-.67,1.63-.67s1.15.21,1.55.65c.9.97,1.3,3.14,1.1,5.95-.01.21-.15.36-.41.37l-.94-.02c-1.8-.03-2.99-.05-3.59-.21h0c-.27-.07-.45-.3-.47-.58,0-.05,0-.1,0-.16,0-.02,0-.05,0-.07-.07-1.3-.04-3.99,1.15-5.25ZM31.96,25.48c0-.07,0-.15,0-.22.14-2.37.92-6.08,2.44-6.16.2,0,.38.06.55.22.71.67,1.17,2.74,1.23,5.54,0,.36-.25.66-.6.72-.93.14-2.3.29-3.63.21,0-.09,0-.19,0-.3,0,0,0-.01,0-.02ZM45.95,22.56c-.77.15-1.18.15-1.38.13.06-.7.07-1.33.03-1.88.01-.14.1-.71.54-1.25.31-.37.52-.45.59-.43.1.02.28.25.4.77.17.74.13,2.5-.18,2.66ZM43.57,22.62c-.06.64-.27,1.41-1,1.47-.73.06-1.34-.08-1.71-.35.1-.57.13-1.25.13-2.36.1-.52.5-1.98,1.17-2.42.17-.11.34-.14.53-.1.73.17,1.07,1.61.88,3.75ZM40,21.1c0,1.43-.02,2.12-.17,2.72l-.03.11c-.19.81-.44,1.42-1.59,1.26-.03,0-.67-.06-1.02-.58-.03-1.01-.11-2.11-.3-3.13.27-.84,1.1-2.76,2.2-3.04.35-.09.48,0,.52.03.41.32.4,1.59.4,2.43v.2ZM30.98,25.14s0,.09,0,.12c0,.06,0,.11,0,.16-.02.28-.21.5-.47.58h0c-.6.16-1.79.18-3.59.21l-.94.02c-.23-.03-.39-.16-.41-.37-.21-2.81.19-4.98,1.1-5.95.41-.44.91-.65,1.55-.65.67,0,1.21.22,1.63.67,1.17,1.25,1.21,3.88,1.15,5.2ZM18.03,25.3c0,.06,0,.13,0,.18,0,0,0,0,0,.01,0,.11,0,.22,0,.3-1.33.08-2.7-.07-3.63-.21-.36-.05-.61-.36-.6-.72.05-2.8.51-4.88,1.23-5.54.16-.15.33-.22.52-.22.01,0,.03,0,.04,0,1.52.07,2.3,3.82,2.44,6.19ZM12.82,24.61c-.35.52-1,.58-1.06.58-1.12.15-1.37-.45-1.56-1.26l-.03-.11c-.15-.6-.17-1.29-.17-2.72v-.2c0-.84,0-2.12.4-2.43.04-.03.16-.13.52-.03,1.1.28,1.93,2.2,2.2,3.04-.19,1.02-.28,2.13-.3,3.14ZM9,21.38c0,1.11.03,1.79.13,2.36-.37.27-.99.41-1.71.35-.72-.06-.94-.83-1-1.47-.19-2.15.15-3.59.88-3.75.19-.05.36-.01.53.1.67.44,1.07,1.86,1.17,2.41ZM5.43,22.69c-.2.02-.61.02-1.38-.13-.32-.16-.36-1.92-.19-2.66.12-.52.31-.75.4-.77.06-.01.27.05.59.43.45.54.53,1.11.54,1.25-.04.55-.03,1.18.03,1.88ZM10.74,26.12c.2.06.41.1.66.1.14,0,.3-.01.46-.03.03,0,.46-.04.94-.28-.03.55-.1,1.9-.1,3.11-.12.74-.4,1.26-.77,1.43-.29.13-.56.02-.69-.06-.28-.17-.44-.27-.51-1.28-.06-.83-.03-2.15,0-2.99ZM13.77,26.41c.15.07.31.13.49.16.57.09,1.29.18,2.08.22,0,.01,0,.03-.01.04v.45c-.03.76-.06,1.53-.02,2.25,0,.01,0,.02-.01.03-.26,1.7-1.33,2.07-1.73,2.07h0c-.23,0-.54,0-.75-.95-.16-.72-.09-2.94-.03-4.28ZM21.35,27.48v-.29c.51.02,1.07.03,1.74.04l.94.02h.03c.15,0,.3-.04.44-.08-.01.25-.02.51-.03.8-.06,2.29-.24,4.19-1.8,4.19-.33,0-.58-.09-.77-.29-.68-.71-.61-2.66-.54-4.38ZM44,25.78s0,0,0,0c-.01-.73-.04-1.3-.05-1.35h0c.17-.21.31-.46.42-.75.11.02.24.03.41.03.21,0,.47-.02.78-.06,0,.29-.01.7-.05,1.26-.07.96-.22,1.47-.51,1.71-.21.17-.43.24-.57.19-.08-.03-.33-.2-.42-1.02ZM1.89,13.29c.11-.91.53-1.58,1.28-2.07,3.23-2.11,11.08.03,13.41.74,5.81,1.76,8.27,1.72,8.37,1.72.02,0,.04-.01.06-.01.02,0,.04.01.06.01.09,0,2.55.04,8.37-1.72,2.33-.71,10.18-2.84,13.41-.74.75.49,1.17,1.17,1.28,2.07.31,2.61-.7,4.59-1.33,5.54-.26-.43-.57-.61-.82-.67-.36-.08-.93-.02-1.59.77-.05.07-.1.13-.14.2-.29-.66-.72-1.09-1.31-1.22-.46-.11-.91-.02-1.3.24-.3.2-.54.48-.75.8-.11-.52-.3-.97-.66-1.25-.37-.28-.83-.35-1.38-.21-1.12.29-1.9,1.46-2.38,2.43-.21-.53-.47-.99-.8-1.3-.37-.34-.8-.52-1.29-.49-1.42.07-2.25,1.6-2.73,3.23-.22-.79-.55-1.53-1.07-2.08-.62-.66-1.41-.99-2.36-.99s-1.69.33-2.29.97c-.41.44-.7,1.01-.91,1.63-.22-.62-.51-1.19-.91-1.63-.6-.64-1.37-.97-2.29-.97s-1.74.33-2.36.99c-.52.55-.85,1.29-1.07,2.08-.48-1.63-1.31-3.16-2.73-3.23-.46-.03-.92.15-1.29.49-.33.31-.59.77-.8,1.3-.48-.98-1.27-2.14-2.38-2.43-.55-.14-1.01-.07-1.38.21-.37.28-.56.73-.66,1.25-.21-.32-.45-.6-.75-.8-.4-.26-.85-.34-1.3-.24-.59.14-1.03.56-1.31,1.22-.05-.07-.09-.13-.14-.2-.65-.79-1.22-.85-1.58-.77-.26.06-.57.24-.82.67-.63-.95-1.64-2.93-1.33-5.54ZM46.24,30.64c-.66.94-1.24,1.98-1.8,2.99-1.83,3.3-3.54,6.42-8.03,6.02-3.13-.28-5.06-.48-6.44-.62-2.19-.23-3.01-.31-4.97-.31s-2.78.08-4.97.31c-1.38.14-3.31.35-6.44.62-4.46.39-6.2-2.72-8.03-6.02-.56-1-1.14-2.04-1.79-2.99-1.86-2.65-1.74-3.84-1.5-4.31.3-.6,1.09-.71,1.31-.73.13.88.37,1.43.81,1.78.35.28.73.43,1.09.43.17,0,.33-.03.49-.1.03-.01.05-.03.08-.04.08,1.15.32,1.64.98,2.04.26.16.58.24.93.24s.73-.08,1.08-.25c.27-.12.5-.29.71-.48.09,1.13.32,1.61.98,2.02.29.18.61.27.93.27.24,0,.48-.05.7-.16.14-.07.32-.18.5-.35.27,1.08.81,1.62,1.69,1.63h.02c.61,0,1.45-.35,2.06-1.2.13.37.31.69.56.94.37.38.85.57,1.42.57h0c.55,0,1.03-.22,1.43-.64.22-.23.4-.52.55-.84.13.42.32.79.59,1.08.38.4.88.6,1.49.6,1.29,0,1.97-.73,2.34-1.71.37.98,1.05,1.71,2.34,1.71.61,0,1.11-.2,1.49-.6.27-.28.46-.65.59-1.08.15.32.33.61.55.84.4.42.88.64,1.43.64h0c.58,0,1.06-.19,1.42-.57.25-.25.42-.57.56-.94.6.85,1.45,1.2,2.06,1.2h.02c.87,0,1.42-.55,1.68-1.63.18.17.36.29.5.35.22.1.46.16.7.16.32,0,.64-.09.93-.27.66-.41.9-.88.98-2.02.21.19.44.36.71.49.36.17.73.25,1.08.25s.67-.08.93-.24c.67-.41.9-.89.99-2.04.03.01.06.03.08.04.16.06.32.1.49.1.36,0,.74-.15,1.09-.43.44-.35.68-.9.81-1.78.22.02,1,.13,1.31.73.24.47.36,1.66-1.5,4.31Z"/>
  </g>
  <g id="Names">
    <text class="cls-2" transform="translate(0 53.78)"><tspan x="0" y="0">dentu</tspan><tspan class="cls-3" x="12.62" y="0">r</tspan><tspan x="14.26" y="0">es</tspan></text>
  </g>
</svg>