<?xml version="1.0" encoding="UTF-8"?><svg xmlns="http://www.w3.org/2000/svg" viewBox="0 0 50 50">
  <defs>
    <style>
      .cls-1 {
        fill: #1f1c1d;
      }

      .cls-2 {
        fill: #221f1f;
        font-family: Roboto-Regular, Roboto;
        font-size: 5px;
      }
    </style>
  </defs>
  <g id="Icon_Outline">
    <g>
      <path class="cls-1" d="M47.31,34.97c-.74,0-1.3-.2-1.66-.6-.59-.66-.49-1.7-.48-1.77V15.51c0-2.89-2.54-5.43-5.43-5.43s-5.43,2.44-5.43,5.43v2.16h-4.66c-1.21-2.62-3.7-4.25-6.56-4.25s-5.47,1.66-6.67,4.24h-7.92s29.43-12.16,29.43-12.16c.12-.05.22-.15.27-.27.05-.12.05-.26,0-.38l-.45-1.09c-.57-1.38-1.64-2.45-3.02-3.03-1.38-.57-2.9-.57-4.28,0L7.64,10.16c-1.38.57-2.45,1.64-3.03,3.02-.57,1.38-.57,2.9,0,4.28l.43,1.05s0,.02,0,.03l1.28,26.53c0,2.55,2.08,4.63,4.63,4.63h24.19c2.55,0,4.63-2.08,4.62-4.6l1.28-26.58c0-.37-.29-.77-.73-.84h-5v-2.17c0-2.4,2.03-4.43,4.43-4.43s4.43,2.07,4.43,4.43v17.04c0,.06-.16,1.48.73,2.49.55.62,1.36.94,2.41.94.28,0,.5-.22.5-.5s-.22-.5-.5-.5ZM23.1,14.43c2.31,0,4.33,1.23,5.43,3.25h-1.84c-.91-1.13-2.17-1.72-3.65-1.72s-2.74.6-3.65,1.72h-1.83c1.11-1.99,3.21-3.24,5.54-3.24ZM25.26,17.67h-4.43c.62-.47,1.37-.72,2.21-.72s1.59.26,2.22.72ZM5.88,17.67s-.06.02-.09.02l-.25-.61c-.47-1.13-.47-2.38,0-3.51.47-1.13,1.35-2.01,2.49-2.48L30.84,1.66c.56-.23,1.16-.35,1.75-.35s1.19.12,1.76.35c1.13.47,2.01,1.35,2.48,2.49l.26.62L5.89,17.67h0ZM40.03,18.67l-1.27,26.4c0,2-1.63,3.63-3.63,3.63H10.95c-2,0-3.63-1.63-3.63-3.65l-1.27-26.35.04-.02h33.95Z" fill="#FFFFFF"/>
      <path class="cls-1" d="M16.13,34.55c.14.52.14.93.14,1.12,0,1.37.15,3.46.3,4.48.06.4.66,3.93,2.18,4.09.06,0,.12,0,.18,0,.93,0,2.1-.83,3.67-5.74l.04-.13c.21-.61.31-.79.62-.79.28,0,.41.23.64.93,1.59,4.9,2.61,5.82,3.68,5.71,1.56-.15,2.12-3.59,2.13-3.62.14-.87.12-1.88.11-2.85-.01-.68-.02-1.38.02-2.03.02-.27.06-.68.23-1.17.09-.25.2-.48.34-.71.06-.11,1.56-2.7,1.18-5.19-.32-2.12-2.11-4.19-4.16-4.81-1.36-.41-2.58-.19-3.38.07-.32.11-.65.18-.98.21-.38.03-.76,0-1.07-.07-.03-.01-.05-.02-.09-.03-.01,0-.02,0-.04,0-.77-.27-1.92-.51-3.2-.15-2.52.71-4.03,3.16-4.16,5.11-.12,1.75.73,3.82,1.18,4.57.08.13.29.49.44,1ZM15.51,29.05c.11-1.61,1.35-3.63,3.44-4.21.37-.1.73-.15,1.07-.15.64,0,1.22.15,1.67.32,0,0,0,0,0,0,.45.16.76.36,1.08.57.59.39,1.21.78,2.57.97.02,0,.04,0,.07,0,.25,0,.46-.18.5-.43.04-.27-.16-.53-.43-.56-.82-.11-1.29-.3-1.7-.53.2-.04.4-.1.59-.17.65-.21,1.65-.4,2.76-.06,1.68.51,3.2,2.27,3.46,4,.32,2.14-1.04,4.51-1.06,4.53-.17.28-.3.57-.42.88-.24.68-.28,1.25-.29,1.44-.04.69-.03,1.41-.02,2.11.02.97.03,1.89-.1,2.68-.23,1.43-.88,2.75-1.24,2.79-.4.01-1.19-.57-2.65-5.07-.19-.59-.52-1.58-1.57-1.58s-1.38.92-1.57,1.47l-.04.13c-1.5,4.67-2.45,5.08-2.79,5.05-.36-.04-1.03-1.54-1.3-3.25-.15-.97-.29-3-.29-4.33,0-.2,0-.73-.18-1.38-.18-.64-.44-1.08-.56-1.27-.37-.61-1.13-2.46-1.03-3.96Z" fill="#FFFFFF"/>
    </g>
  </g>
  <g id="Names">
    <text class="cls-2" transform="translate(0 53.78)"><tspan x="0" y="0">dental-floss</tspan></text>
  </g>
</svg>