<?xml version="1.0" encoding="UTF-8"?><svg xmlns="http://www.w3.org/2000/svg" viewBox="0 0 50 50">
  <defs>
    <style>
      .cls-1 {
        fill: #1f1c1d;
      }

      .cls-2 {
        fill: #221f1f;
        font-family: Roboto-Regular, Roboto;
        font-size: 5px;
      }
    </style>
  </defs>
  <g id="Icon_Outline">
    <g>
      <path class="cls-1" d="M19.86.34c-3,0-5.45,2.44-5.45,5.45,0,2.84,2.18,5.17,4.95,5.42v8.71h-1.09c-.27,0-.5.22-.5.49l-.52,27.7c0,.4.15.79.44,1.08.31.31.75.5,1.2.5h1.94c.45,0,.89-.18,1.2-.5.29-.29.44-.68.44-1.08l-.52-27.7c0-.27-.23-.49-.5-.49h-1.09v-8.71c2.77-.25,4.95-2.59,4.95-5.42,0-3-2.44-5.45-5.45-5.45ZM20.95,20.92l.51,27.21c0,.17-.08.29-.15.36-.12.12-.3.2-.49.2h-1.94c-.19,0-.37-.07-.49-.2-.07-.07-.15-.19-.15-.36l.51-27.21h2.2ZM19.86,10.24c-2.45,0-4.45-2-4.45-4.45s1.99-4.45,4.45-4.45,4.45,2,4.45,4.45-2,4.45-4.45,4.45Z" fill="#FFFFFF"/>
      <path class="cls-1" d="M10.45,19.92h-1.09v-9.22c0-.28-.22-.5-.5-.5-2.45,0-4.45-2-4.45-4.45S6.41,1.31,8.86,1.31c.28,0,.5-.22.5-.5s-.22-.5-.5-.5C5.86.31,3.42,2.75,3.42,5.75c0,2.83,2.18,5.17,4.95,5.42v8.75h-1.09c-.27,0-.5.22-.5.49l-.52,27.7c0,.4.15.79.44,1.08.31.31.75.49,1.2.49h1.94c.45,0,.89-.18,1.2-.5.29-.29.44-.68.44-1.08l-.52-27.7c0-.27-.23-.49-.5-.49ZM10.32,48.5c-.12.12-.3.2-.49.2h-1.94c-.19,0-.36-.07-.49-.2-.1-.1-.15-.23-.15-.36l.51-27.21h2.2l.51,27.21c0,.17-.08.29-.15.36Z" fill="#FFFFFF"/>
      <path class="cls-1" d="M19.84,2.85c.2-.2.2-.51,0-.71s-.51-.2-.71,0l-2.87,2.87c-.2.2-.2.51,0,.71.1.1.23.15.35.15s.26-.05.35-.15l2.87-2.87Z" fill="#FFFFFF"/>
      <path class="cls-1" d="M21.02,2.61l-4.24,4.24c-.2.2-.2.51,0,.71.1.1.23.15.35.15s.26-.05.35-.15l4.24-4.24c.2-.2.2-.51,0-.71s-.51-.2-.71,0Z" fill="#FFFFFF"/>
      <path class="cls-1" d="M34.74.49l-4.24,4.24c-.09.09-.15.22-.15.35v14.84h-1.09c-.27,0-.5.22-.5.49l-.52,27.7c0,.4.15.79.44,1.08.31.31.75.49,1.2.49h1.94c.45,0,.89-.18,1.2-.5.29-.29.44-.68.44-1.08l-.52-27.7c0-.27-.23-.49-.5-.49h-1.09V5.29l4.09-4.09c.2-.2.2-.51,0-.71s-.51-.2-.71,0ZM31.95,20.92l.51,27.21c0,.17-.08.29-.15.36-.12.12-.3.2-.49.2h-1.94c-.19,0-.36-.07-.49-.2-.1-.1-.15-.23-.15-.36l.51-27.21h2.2Z" fill="#FFFFFF"/>
      <path class="cls-1" d="M46.44,5.44c.2-.2.2-.51,0-.71L42.2.49c-.2-.2-.51-.2-.71,0s-.2.51,0,.71l3.89,3.89-3.89,3.89c-.09.09-.15.22-.15.35v10.6h-1.09c-.27,0-.5.22-.5.49l-.52,27.7c0,.4.15.79.44,1.08.31.31.75.5,1.2.5h1.94c.45,0,.89-.18,1.2-.5.29-.29.44-.68.44-1.08l-.52-27.7c0-.27-.23-.49-.5-.49h-1.09v-10.39l4.09-4.09ZM42.94,20.92l.51,27.21c0,.17-.08.29-.15.36-.12.12-.3.2-.49.2h-1.94c-.19,0-.37-.07-.49-.2-.07-.07-.15-.19-.15-.36l.51-27.21h2.2Z" fill="#FFFFFF"/>
    </g>
  </g>
  <g id="Names">
    <text class="cls-2" transform="translate(0 53.78)"><tspan x="0" y="0">dental-instruments</tspan></text>
  </g>
</svg>