<?xml version="1.0" encoding="UTF-8"?>
<svg xmlns="http://www.w3.org/2000/svg" viewBox="0 0 50 50">
  <defs>
    <style>
      .cls-1 {
        fill: #1f1c1d;
      }

      .cls-2 {
        fill: #ffcd00;
      }

      .cls-3 {
        fill: #221f1f;
        font-family: Roboto-Regular, Roboto;
        font-size: 5px;
      }
    </style>
  </defs>
  <g id="Gold_Offset">
    <path class="cls-2" d="M43.6,12.14c-.67-4.21-4.21-8.3-8.22-9.52-2.65-.81-5.05-.37-6.59.14-.71.25-1.31.42-2.05.58-1.56.21-2.64.11-3.69-.27-1.02-.36-2.35-.73-3.86-.73-.82,0-1.69.1-2.59.35-4.11,1.15-7.37,4.92-8.13,9.38-.52,3.07.1,5.98,1.67,7.78,1.03,1.19,1.37,2.73.9,4.12-.05.15-.03.32.07.45.09.13.24.21.41.21h3.32v3.55c0,.54.33.97.74.97h3.67v15.27l6.26,5.14c.18.18.36.25.56.25h0c.2,0,.38-.08.52-.22l6.21-5.11c.06-.05.09-.12.09-.19v-15.15h2.48c1.51-.13,1.92-1.02,1.93-2.5v-2.03h2.7s.95-.09,1.23-.92c.07-.21.01-.33-.11-.39-.24-1.04.04-2.15.77-3.44,1.58-2.81,2.13-5.27,1.73-7.74Z"/>
  </g>
  <g id="Icon_Outline">
    <path class="cls-1" d="M43.58,10.98c-.73-4.56-4.56-8.99-8.92-10.32-2.9-.88-5.51-.41-7.21.15-.77.27-1.57.44-2.37.51-.93.07-1.85,0-2.7-.19-.06-.02-.1-.04-.1-.04-.04-.02-.08-.02-.12-.03-1.64-.59-4.1-1.09-6.84-.32C10.84,1.99,7.29,6.08,6.47,10.91c-.58,3.41.12,6.55,1.9,8.6.8.92,1.06,2.09.7,3.14-.15.46-.08.96.2,1.36.28.39.74.63,1.22.63h2.32v2.78c0,.96.78,1.74,1.74,1.74h2.67v3.38h-1.93c-.28,0-.5.22-.5.5s.22.5.5.5h1.93v3.38h-1.31c-.28,0-.5.22-.5.5s.22.5.5.5h1.31v3.38h-.69c-.28,0-.5.22-.5.5s.22.5.5.5h.69v1.38c0,.15.07.29.18.39l6.4,5.26c.33.33.77.52,1.24.52h0c.47,0,.91-.18,1.2-.48l6.44-5.29c.12-.1.18-.24.18-.39v-1.38h.69c.28,0,.5-.22.5-.5s-.22-.5-.5-.5h-.69v-3.38h1.31c.28,0,.5-.22.5-.5s-.22-.5-.5-.5h-1.31v-3.38h1.93c.28,0,.5-.22.5-.5s-.22-.5-.5-.5h-1.93v-3.38h2.67c.96,0,1.74-.78,1.74-1.74v-2.78h2.59c.49,0,.95-.24,1.23-.64.28-.4.35-.91.18-1.37l-.07-.2c-.31-.86-.14-1.86.53-3.05,1.67-2.97,2.27-5.72,1.85-8.38ZM31.87,43.43l-6.3,5.18c-.14.14-.32.22-.52.22h0c-.2,0-.38-.08-.56-.25l-6.26-5.14v-1.14h13.65v1.14ZM31.87,41.28h-13.65v-3.38h13.65v3.38ZM31.87,36.91h-13.65v-3.38h13.65v3.38ZM31.87,32.53h-13.65v-3.38h13.65v3.38ZM36.28,27.41c0,.41-.33.74-.74.74H14.56c-.41,0-.74-.33-.74-.74v-2.77h22.46v2.77ZM40.87,18.87c-.82,1.46-1.02,2.73-.6,3.88l.07.2c.06.16.03.32-.06.46-.09.13-.24.21-.41.21H10.5c-.16,0-.31-.08-.41-.21-.1-.13-.12-.3-.07-.45.47-1.39.14-2.93-.9-4.12-1.56-1.8-2.19-4.71-1.67-7.78.75-4.46,4.02-8.23,8.13-9.38.9-.25,1.77-.35,2.59-.35,1.52,0,2.85.35,3.86.73.82.36,4.5,1.87,8.67,2.19.01,0,.03,0,.04,0,.26,0,.48-.2.5-.46.02-.28-.18-.52-.46-.54-1.92-.15-3.75-.57-5.23-1.01.76-.09,1.51-.24,2.22-.5,1.54-.51,3.94-.94,6.59-.14,4.01,1.22,7.55,5.31,8.22,9.52.4,2.47-.15,4.93-1.73,7.74Z"/>
  </g>
  <g id="Names">
    <text class="cls-3" transform="translate(0 53.78)"><tspan x="0" y="0">dental-implant</tspan></text>
  </g>
</svg>