<?xml version="1.0" encoding="UTF-8"?><!-- Generator: Adobe Illustrator 27.7.0, SVG Export Plug-In . SVG Version: 6.00 Build 0)  --><svg version="1.1" id="Layer_1" xmlns="http://www.w3.org/2000/svg" xmlns:xlink="http://www.w3.org/1999/xlink" x="0px" y="0px" viewBox="0 0 50 50" style="enable-background:new 0 0 50 50;" xml:space="preserve">
<style type="text/css">
	.st0{display:none;}
	.st1{display:inline;fill:none;stroke:#EA008A;stroke-width:0.2;stroke-miterlimit:10;}
	.st2{font-family:'Roboto-Regular';}
	.st3{font-size:6px;}
</style>
<g id="ICONS_00000031165542127692736420000002692518830807990202_">
	<path d="M48.6763,31.9487l-8.4565-4.4818v-5.8654c0-0.1401-0.0591-0.2744-0.1626-0.3691c-0.103-0.0942-0.2407-0.1411-0.3818-0.1289   c-0.7994,0.0712-1.6705,0.311-2.5223,0.6657c-1.04-5.8298-6.1948-10.1848-12.1583-10.1848   c-6.8159,0-12.3613,5.5454-12.3613,12.3613v2.0038L1.313,31.9487c-0.0121,0.0064-0.02,0.0173-0.0314,0.0246   c-0.0103,0.0065-0.0222,0.0076-0.0321,0.015c-0.0129,0.0096-0.0193,0.0239-0.0311,0.0345   c-0.0278,0.0249-0.0519,0.0511-0.0731,0.0811c-0.0151,0.0214-0.0289,0.0419-0.0405,0.065   c-0.016,0.0319-0.0264,0.0648-0.0353,0.0994c-0.0063,0.0248-0.0135,0.0483-0.016,0.0738C1.05,32.3768,1.0539,32.4113,1.058,32.4467   c0.0029,0.0267,0.0035,0.0526,0.0108,0.0788c0.0018,0.0063,0.0005,0.0127,0.0026,0.0189c0.0112,0.0347,0.0321,0.063,0.0499,0.0936   c0.0093,0.0162,0.0119,0.0345,0.0233,0.05c0.0024,0.0033,0.0069,0.008,0.0094,0.0114c0.0002,0.0002,0.0004,0.0005,0.0006,0.0007   c0.9771,1.3069,6.3021,5.797,13.697,5.797c3.0469,0,6.4472-0.7715,10.0359-2.8343c3.9855,1.5892,7.6362,2.3943,10.9729,2.3943   c4.9692-0.0005,9.2495-1.7661,12.9282-5.3062c0.1157-0.1113,0.1709-0.271,0.1484-0.4297S48.8179,32.0239,48.6763,31.9487z    M25.6313,22.1753c1.6614,0.3086,3.5948,1.3372,4.7469,2.5466c-0.1292,0.2186-0.2084,0.4702-0.2084,0.7419v1.5728   c0,0.2717,0.0792,0.5233,0.2084,0.7419c-1.1521,1.2094-3.0856,2.238-4.7469,2.5466V22.1753z M31.1699,27.0366v-1.5728   c0-0.2588,0.2104-0.4692,0.4692-0.4692h1.5728c0.2588,0,0.4692,0.2104,0.4692,0.4692v1.5728c0,0.2588-0.2104,0.4692-0.4692,0.4692   h-1.5728C31.3804,27.5059,31.1699,27.2954,31.1699,27.0366z M34.4728,24.7219c1.1516-1.2094,3.0851-2.238,4.7469-2.5466v8.1499   c-1.6619-0.3086-3.5953-1.3372-4.7469-2.5466c0.1292-0.2186,0.2084-0.4702,0.2084-0.7419v-1.5728   C34.6812,25.1921,34.6019,24.9406,34.4728,24.7219z M24.9946,12.5845c5.5729,0,10.3856,4.1349,11.2271,9.6279   c-0.9664,0.5114-1.8577,1.157-2.524,1.8713c-0.1528-0.054-0.3147-0.0891-0.4858-0.0891h-1.5728   c-0.1713,0-0.3332,0.035-0.4861,0.0892c-1.4451-1.5491-3.9445-2.7991-5.9772-2.9803c-0.1367-0.0112-0.2783,0.0347-0.3818,0.1289   c-0.1035,0.0947-0.1626,0.229-0.1626,0.3691v4.1489h-10.998v-1.8047C13.6333,17.6812,18.73,12.5845,24.9946,12.5845z    M2.586,32.7808c7.7089-0.9149,15.3505-0.0639,21.1115,2.3986C13.5041,40.5909,5.1095,35.1724,2.586,32.7808z M24.1406,34.2788   c-5.5137-2.3682-12.6948-3.3135-20.0347-2.6782l9.1519-4.8501h11.3735v4.1484c0,0.1401,0.0591,0.2744,0.1626,0.3691   c0.0923,0.0845,0.2129,0.1309,0.3374,0.1309c0.0146,0,0.0298-0.0005,0.0444-0.002c2.0327-0.1812,4.5322-1.4312,5.9772-2.9803   c0.153,0.0541,0.3149,0.0892,0.4861,0.0892h1.5728c0.1711,0,0.3329-0.035,0.4858-0.0891c1.445,1.549,3.9445,2.799,5.9776,2.9802   c0.0146,0.0015,0.0298,0.002,0.0444,0.002c0.1245,0,0.2451-0.0464,0.3374-0.1309c0.1035-0.0947,0.1626-0.229,0.1626-0.3691V28.599   l7.3677,3.9044C41.5972,37.9009,33.9199,38.479,24.1406,34.2788z" fill="#FFCD00"/>
</g>
<g id="Margin" class="st0">
	<rect x="1" y="1" class="st1" width="48" height="48" fill="#FFCD00"/>
</g>
<g id="Guides" class="st0">
</g>
<g id="LABELS">
	<g>
		<g>
			<text transform="matrix(1 0 0 1 -0.1125 55.1226)" class="st2 st3">dress-up-hat</text>
		</g>
	</g>
</g>
</svg>