<?xml version="1.0" encoding="UTF-8"?><svg xmlns="http://www.w3.org/2000/svg" viewBox="0 0 50 50">
  <defs>
    <style>
      .cls-1 {
        fill: #1f1c1d;
      }

      .cls-2 {
        fill: #221f1f;
        font-family: Roboto-Regular, Roboto;
        font-size: 5px;
      }
    </style>
  </defs>
  <g id="Icon_Outline">
    <g>
      <path class="cls-1" d="M49.06,20.14c0-.5,0-.9,0-1.24v-.23c-.02-1.2-.24-3-1.97-4.84-1.96-2.08-5.19-2.1-5.32-2.1,0,0,0,0,0,0,0,0,0,0,0,0l-6.45.03c-.58,0-1.15.09-1.74.27-.71.22-1.32.53-1.82.92-.18.14-.32.27-.44.37-.73.67-2.34,2.26-4.49,4.56h-3.78c-.03-.07-.06-.14-.09-.22-.1-.23-.18-.47-.26-.71-.12-.34-.24-.68-.39-1.01-.32-.69-.73-1.32-1.24-1.87-1.43-1.55-3.53-2.39-6.03-2.34,0,0,0,0,0,0h-6.83c-.14,0-3.36.02-5.32,2.1-1.81,1.92-1.91,3.88-1.96,4.81,0,.11,0,.35,0,.41,0,.34,0,.74,0,1.23.01,1.46.03,3.67,0,7.33,0,1.17.32,2.06.93,2.65.52.5,1.24.75,2.06.73.72-.02,1.38-.33,1.89-.81v15.98c.03,1.79,1.51,3.26,3.29,3.29h.05c1.18,0,2.22-.62,2.82-1.56.13.22.29.42.48.61.61.62,1.43.95,2.3.95,1.8,0,3.26-1.46,3.26-3.26v-24.67l2.38,5.66c.51,1.21,1.72,1.92,2.97,1.86-.13.35-.21.72-.21,1.12v17.81c0,.28.22.5.5.5s.5-.22.5-.5v-17.81c0-1.08.81-1.96,1.8-1.96s1.8.88,1.8,1.96c0,.28.22.5.5.5s.5-.22.5-.5c0-1.61-1.23-2.92-2.75-2.95,0-.02.02-.03.03-.05.31-.76.31-1.59,0-2.35-.18-.41-.35-.82-.53-1.22h2.67c.72,0,1.39-.29,1.83-.78.02-.01.06-.05.08-.07l1.94-1.94v25.4c0,1.8,1.46,3.26,3.26,3.26,1.17,0,2.2-.62,2.78-1.56.6.94,1.64,1.56,2.81,1.56h.05c1.78-.03,3.25-1.5,3.29-3.3v-15.97c.51.48,1.17.79,1.89.81.82.01,1.51-.23,2.02-.72.62-.59.94-1.49.96-2.67-.04-3.66-.02-5.95,0-7.46ZM25.09,26.77c-.21.51-.6.91-1.1,1.12-1.04.43-2.25-.06-2.69-1.1l-3.34-7.95c-.09-.22-.32-.34-.56-.3-.23.05-.4.25-.4.49v27.15c0,1.24-1.01,2.26-2.26,2.26-.6,0-1.17-.23-1.59-.66-.43-.43-.67-1-.66-1.62,0,0,0,0,0-.01v-14.43c0-.28-.22-.5-.5-.5s-.5.22-.5.5v14.44c-.04,1.26-1.08,2.27-2.34,2.27h-.03c-1.25-.02-2.28-1.05-2.3-2.3v-18.22s0-.09,0-.14c0-.01,0-.02,0-.03,0-.01,0-.02,0-.03v-8.38c0-.28-.22-.5-.5-.5s-.5.22-.5.5v8.38s0,.03,0,.04c0,.01,0,.02,0,.03v.12c-.03,1.1-.89,2.03-1.92,2.06-.56.02-1.01-.13-1.34-.45-.41-.4-.62-1.05-.63-1.93.04-3.66.02-5.88,0-7.34,0-.48,0-.88,0-1.22,0-.05,0-.26,0-.35.05-.88.13-2.53,1.69-4.18,1.66-1.76,4.57-1.79,4.6-1.79h6.83s0,0,0,0c0,0,0,0,0,0,2.17-.04,4.05.68,5.29,2.02.44.47.79,1.01,1.07,1.61.14.3.24.61.35.92.09.26.18.51.28.76.42,1.01.84,2.02,1.27,3.03.59,1.38,1.18,2.76,1.77,4.13.21.5.21,1.06,0,1.58ZM48.07,27.59c-.02.88-.24,1.56-.66,1.95-.32.31-.77.45-1.3.44-1.04-.03-1.89-.96-1.92-2.07v-.12s0-.02,0-.03c0-.01,0-.03,0-.04v-8.38c0-.28-.22-.5-.5-.5s-.5.22-.5.5v8.38s0,.02,0,.03c0,.01,0,.02,0,.03,0,.05,0,.09,0,.14v18.21c-.02,1.25-1.06,2.29-2.3,2.31h-.03c-1.23,0-2.26-.98-2.33-2.21v-.05s0-.02,0-.02v-14.44c0-.28-.22-.5-.5-.5s-.5.22-.5.5v14.44s0,0,0,0c0,.01,0,.02,0,.04v.05c-.04,1.21-1.04,2.18-2.26,2.18s-2.26-1.01-2.26-2.26v-26.61s0,0,0,0c0-.07-.01-.13-.04-.19-.03-.06-.06-.12-.11-.16,0,0,0,0,0,0,0,0,0,0,0,0-.04-.04-.09-.08-.15-.1-.06-.02-.12-.04-.18-.04,0,0,0,0,0,0h0c-.07,0-.13.01-.19.04-.06.03-.12.06-.16.11,0,0,0,0,0,0l-2.76,2.77s-.07.05-.09.08c-.3.33-.71.51-1.14.51h-3.1c-.27-.64-.55-1.27-.82-1.91-.26-.6-.5-1.2-.76-1.8h3.58c.14,0,.27-.06.37-.16,2.21-2.36,3.85-3.99,4.58-4.66.1-.09.23-.2.38-.33.4-.32.9-.57,1.53-.76.46-.14.93-.21,1.41-.21l6.44-.03s2.93.03,4.6,1.79c1.49,1.58,1.68,3.13,1.69,4.16v.22c0,.33,0,.74,0,1.23-.01,1.52-.03,3.81,0,7.47Z" fill="#FFCD00"/>
      <path class="cls-1" d="M38.36,11.12c2.91,0,5.28-2.37,5.28-5.28s-2.37-5.28-5.28-5.28-5.28,2.37-5.28,5.28,2.37,5.28,5.28,5.28ZM38.36,1.55c2.36,0,4.28,1.92,4.28,4.28s-1.92,4.28-4.28,4.28-4.28-1.92-4.28-4.28,1.92-4.28,4.28-4.28Z" fill="#FFCD00"/>
      <path class="cls-1" d="M11.64,11.12c2.91,0,5.28-2.37,5.28-5.28S14.55.55,11.64.55s-5.28,2.37-5.28,5.28,2.37,5.28,5.28,5.28ZM11.64,1.55c2.36,0,4.28,1.92,4.28,4.28s-1.92,4.28-4.28,4.28-4.28-1.92-4.28-4.28,1.92-4.28,4.28-4.28Z" fill="#FFCD00"/>
    </g>
  </g>
  <g id="Names">
    <text class="cls-2" transform="translate(.01 53.82)"><tspan x="0" y="0">elderly</tspan></text>
  </g>
</svg>