<?xml version="1.0" encoding="UTF-8"?><svg xmlns="http://www.w3.org/2000/svg" viewBox="0 0 50 50">
  <defs>
    <style>
      .cls-1 {
        fill: #1f1c1d;
      }

      .cls-2 {
        fill: #221f1f;
        font-family: Roboto-Regular, Roboto;
        font-size: 5px;
      }

      .cls-3 {
        letter-spacing: 0em;
      }
    </style>
  </defs>
  <g id="Icon_Outline">
    <g>
      <path class="cls-1" d="M32.34,21.19c-1.03,0-1.88.84-1.88,1.88s.84,1.88,1.88,1.88,1.88-.84,1.88-1.88-.84-1.88-1.88-1.88ZM32.34,23.94c-.48,0-.88-.39-.88-.88s.39-.88.88-.88.88.39.88.88-.39.88-.88.88Z" fill="#FFFFFF"/>
      <path class="cls-1" d="M33.89,10.31h-3.09c-.14,0-.27.06-.36.16s-.14.23-.14.37l.46,9.27c.01.27.23.48.5.48h2.17c.27,0,.49-.21.5-.47l.46-9.27c0-.14-.04-.27-.14-.37-.09-.1-.23-.16-.36-.16ZM32.95,19.58h-1.21l-.41-8.27h2.04l-.41,8.27Z" fill="#FFFFFF"/>
      <path class="cls-1" d="M24.48,38.65c-.15-.14-.7-.59-1.5-.54-.5.04-.87.26-1.12.48l-2.11,2.1c-1.99-1.47-3.87-3.1-5.61-4.87-1.64-1.68-3.17-3.5-4.54-5.41l1.79-1.82s.02-.02.02-.03c.2-.24.54-.74.55-1.46.01-.93-.55-1.54-.71-1.7l-3.93-3.93c-.41-.41-.94-.67-1.5-.71-.57-.05-1.11.14-1.5.53-2.84,2.9-2.9,3.02-2.92,3.08-.48.86-1.02,2.28-.85,4.18.16,1.87.94,3.35,1.54,4.24,1.87,3.15,4.14,6.08,6.74,8.72,2.39,2.42,5.04,4.57,7.89,6.38,1.04.66,2.71,1.47,4.78,1.59.17,0,.34.01.51.01,1.62,0,2.86-.46,3.62-.85.1-.04.23-.1,3.12-2.94.77-.78.69-2.12-.19-3l-4.06-4.06ZM28.02,45c-1.27,1.24-2.71,2.64-2.85,2.75-.75.39-1.99.83-3.63.74-1.85-.11-3.36-.84-4.3-1.44-2.78-1.77-5.38-3.87-7.72-6.24-2.54-2.58-4.76-5.44-6.61-8.55-.55-.82-1.24-2.14-1.39-3.79-.15-1.65.32-2.87.71-3.57.14-.19,1.54-1.63,2.78-2.9.16-.16.37-.24.62-.24.03,0,.06,0,.09,0,.31.03.62.17.87.42l3.94,3.94c.07.07.42.43.41.97,0,.41-.21.7-.3.81l-2.06,2.1c-.17.17-.19.44-.05.64,1.47,2.08,3.11,4.05,4.89,5.87,1.87,1.91,3.92,3.67,6.08,5.24.2.14.47.12.65-.05l2.38-2.37c.11-.09.29-.2.53-.22.39-.03.69.22.73.26l4.05,4.05c.48.48.56,1.2.19,1.58Z" fill="#FFFFFF"/>
      <path class="cls-1" d="M44.48,5.52C40.7,1.74,35.46-.04,30.11.65c-7.59.97-13.63,6.93-14.7,14.5-.54,3.79.15,7.53,1.98,10.81l-.94,6.79c-.03.22.04.45.2.61.16.16.38.23.6.2l6.81-.93c2.55,1.42,5.38,2.14,8.29,2.14.83,0,1.67-.06,2.52-.18,7.56-1.07,13.51-7.11,14.49-14.7.68-5.35-1.09-10.59-4.87-14.37ZM48.36,19.77c-.91,7.14-6.52,12.82-13.63,13.83-3.62.52-7.19-.15-10.32-1.93-.08-.04-.16-.07-.25-.07-.02,0-.04,0-.07,0l-6.61.9.92-6.58c.02-.11,0-.22-.06-.32-1.78-3.12-2.45-6.7-1.94-10.33,1.01-7.12,6.69-12.73,13.83-13.64,5.04-.64,9.98,1.03,13.54,4.59,3.56,3.56,5.23,8.5,4.59,13.54Z" fill="#FFFFFF"/>
      <path class="cls-1" d="M34.92,7.22c-.52-.97-1.48-1.54-2.57-1.54s-2.06.58-2.57,1.54l-8.2,15.35c-.49.91-.46,1.99.07,2.87.53.89,1.47,1.42,2.5,1.42h16.39c1.03,0,1.97-.53,2.5-1.42.53-.89.56-1.96.07-2.87l-8.2-15.35ZM42.18,24.94c-.35.58-.96.93-1.64.93h-16.39c-.68,0-1.29-.35-1.64-.93s-.37-1.29-.05-1.89l8.2-15.35c.34-.63.97-1.01,1.69-1.01s1.35.38,1.69,1.01l8.2,15.35c.32.6.3,1.31-.05,1.89Z" fill="#FFFFFF"/>
    </g>
  </g>
  <g id="Names">
    <text class="cls-2" transform="translate(.42 53.82)"><tspan x="0" y="0">eme</tspan><tspan class="cls-3" x="9.68" y="0">r</tspan><tspan x="11.33" y="0">gency</tspan></text>
  </g>
</svg>