<?xml version="1.0" encoding="UTF-8"?><svg id="uuid-08c0cd38-9bf6-46a6-959e-a39f469174ee" xmlns="http://www.w3.org/2000/svg" viewBox="0 0 50 50"><rect x="18.59" y="42.16" width="15.4" height="2.69" fill="#ffcd00"/><text transform="translate(0 56.67)" font-family="MyriadPro-Regular, &apos;Myriad Pro&apos;" font-size="8"><tspan x="0" y="0">emp</tspan><tspan x="15.23" y="0" letter-spacing="0em">t</tspan><tspan x="17.95" y="0" letter-spacing="0em">y</tspan><tspan x="21.69" y="0">-b</tspan><tspan x="28.7" y="0" letter-spacing="0em">a</tspan><tspan x="32.52" y="0">t</tspan><tspan x="35.17" y="0" letter-spacing="0em">t</tspan><tspan x="37.77" y="0" letter-spacing="0em">e</tspan><tspan x="41.78" y="0" letter-spacing=".02em">r</tspan><tspan x="44.59" y="0" letter-spacing="0em">y</tspan></text><g><path d="M35.27,7.38h-4.76v-3.01c0-.83-.67-1.5-1.5-1.5h-8.02c-.83,0-1.5,.67-1.5,1.5v3.01h-4.76c-.28,0-.5,.22-.5,.5V46.63c0,.28,.22,.5,.5,.5h20.54c.28,0,.5-.22,.5-.5V7.88c0-.28-.22-.5-.5-.5Zm-14.78-3.01c0-.28,.22-.5,.5-.5h8.02c.28,0,.5,.22,.5,.5v3.01h-9.02v-3.01Zm14.28,41.76H15.23V8.38h19.54V46.13Z"/><path d="M16.3,40.45v3.69c0,.28,.22,.5,.5,.5h16.4c.28,0,.5-.22,.5-.5v-3.69c0-.28-.22-.5-.5-.5H16.8c-.28,0-.5,.22-.5,.5Zm1,.5h15.4v2.69h-15.4v-2.69Z"/><path d="M22.2,29.54l1.22-.6-.89,7.22c-.03,.25,.12,.48,.36,.54,.04,.01,.09,.02,.13,.02,.19,0,.37-.11,.46-.3l4.99-11.13c.09-.19,.04-.42-.11-.56-.15-.15-.38-.18-.57-.09l-1.22,.6,.89-7.22c.03-.25-.12-.48-.36-.54-.24-.07-.49,.05-.59,.28l-4.99,11.13c-.09,.19-.04,.42,.11,.56,.15,.14,.38,.18,.57,.09Z"/></g></svg>