<?xml version="1.0" encoding="UTF-8"?><!-- Generator: Adobe Illustrator 27.7.0, SVG Export Plug-In . SVG Version: 6.00 Build 0)  --><svg version="1.1" id="Layer_1" xmlns="http://www.w3.org/2000/svg" xmlns:xlink="http://www.w3.org/1999/xlink" x="0px" y="0px" viewBox="0 0 50 50" style="enable-background:new 0 0 50 50;" xml:space="preserve">
<style type="text/css">
	.st0{fill:#FFCD00;}
	.st1{display:none;fill:none;stroke:#EA008A;stroke-width:0.2;stroke-miterlimit:10;}
	.st2{font-family:'Roboto-Regular';}
	.st3{font-size:6px;}
</style>
<g id="Color">
	<path class="st0" d="M38.9542,26.0794" fill="#FFCD00"/>
	<path class="st0" d="M36.9479,14.053" fill="#FFCD00"/>
</g>
<g id="ICONS_00000031165542127692736420000002692518830807990202_">
	<g>
		<path d="M16.3257,10.3525c2.5776,0,4.6748-2.0967,4.6748-4.6748s-2.0972-4.6748-4.6748-4.6748s-4.6748,2.0967-4.6748,4.6748    S13.748,10.3525,16.3257,10.3525z M16.3257,2.0029c2.0264,0,3.6748,1.6484,3.6748,3.6748s-1.6484,3.6748-3.6748,3.6748    s-3.6748-1.6484-3.6748-3.6748S14.2993,2.0029,16.3257,2.0029z" fill="#FFCD00"/>
		<path d="M31.938,13.4131c2.5776,0,4.6748-2.0967,4.6748-4.6748s-2.0972-4.6748-4.6748-4.6748s-4.6748,2.0967-4.6748,4.6748    S29.3604,13.4131,31.938,13.4131z M31.938,5.0635c2.0264,0,3.6748,1.6484,3.6748,3.6748s-1.6484,3.6748-3.6748,3.6748    s-3.6748-1.6484-3.6748-3.6748S29.9116,5.0635,31.938,5.0635z" fill="#FFCD00"/>
		<path d="M42.7197,15.1719c-0.1675-0.9131-0.6807-1.7061-1.4443-2.2324c-0.7637-0.5273-1.688-0.7256-2.6006-0.5586    c-0.9131,0.167-1.7061,0.6807-2.2334,1.4443l-0.4972,0.7207c-0.4732-0.1068-0.9553-0.1758-1.4447-0.1758H29.377    c-1.361,0-2.6432,0.4248-3.745,1.1998c-0.2307-0.1018-0.472-0.1828-0.7242-0.2364c-1.011-2.4135-3.3848-4.024-6.021-4.024h-5.1226    c-3.6069,0-6.541,2.9346-6.541,6.541v11.123c0,1.3047,1.0615,2.3662,2.3667,2.3662c0.5101,0,0.9799-0.1658,1.3667-0.4412v15.2889    c0,1.6182,1.3164,2.9346,2.9341,2.9346c1.0127,0,1.9069-0.5158,2.4346-1.2983c0.5276,0.7825,1.4219,1.2983,2.4346,1.2983    c0.7593,0,1.48-0.3031,2.0193-0.8147c0.3984,0.4927,1.0002,0.8147,1.6818,0.8147c0.6757,0,1.2725-0.3165,1.6709-0.8018    c0.3984,0.4854,0.9952,0.8018,1.6709,0.8018c0.6818,0,1.2838-0.3221,1.6822-0.8151c0.5393,0.5116,1.2598,0.8151,2.019,0.8151    c1.0127,0,1.9069-0.5158,2.4346-1.2983c0.5276,0.7825,1.4217,1.2983,2.4341,1.2983c1.6182,0,2.9346-1.3164,2.9346-2.9346V28.3471    l1.0894,0.1978c0.1577,0.0283,0.3154,0.043,0.4717,0.043c0.645,0,1.2646-0.2412,1.7505-0.6914    c0.603-0.5586,0.9004-1.3486,0.8149-2.167l-0.6253-5.9945l1.3538-1.9625C42.689,17.0078,42.8872,16.085,42.7197,15.1719z     M38.855,13.3643c0.6523-0.1172,1.3076,0.0225,1.8525,0.3984c0.5439,0.375,0.9092,0.9395,1.0288,1.5898    c0.1191,0.6494-0.022,1.3076-0.3975,1.8516c-0.7754,1.123-2.3198,1.4062-3.4424,0.6328    c-1.1235-0.7754-1.4067-2.3203-0.6318-3.4434C37.6401,13.8486,38.2051,13.4834,38.855,13.3643z M33.937,22.9248    c-0.6821-0.124-1.3848,0.0566-1.9229,0.498c-0.0674,0.0552-0.1205,0.1229-0.1808,0.1845    c-0.1321-0.651-0.0022-1.3381,0.3844-1.8984l2.1631-3.1355l3.1396,4.1656l-0.5123,0.7427L33.937,22.9248z M38.119,21.8716    l-3.1396-4.1656l0.9037-1.3099c0.1549,0.8866,0.6482,1.7135,1.4456,2.264c0.6011,0.4141,1.2876,0.6123,1.9678,0.6123    c0.2261,0,0.4493-0.0363,0.6705-0.0795L38.119,21.8716z M24.1318,16.25c1.5078,0,2.7349,1.2275,2.7349,2.7354    s-1.2271,2.7354-2.7349,2.7354c-1.5083,0-2.7354-1.2275-2.7354-2.7354S22.6235,16.25,24.1318,16.25z M25.8027,48.1221    c-0.6455,0-1.1709-0.5254-1.1709-1.1709v-10.378c0-0.2764-0.2236-0.5-0.5-0.5s-0.5,0.2236-0.5,0.5v10.3779    c0,0.6455-0.5254,1.1709-1.1709,1.1709c-0.646,0-1.1714-0.5254-1.1714-1.1709V28.0908c0-0.2764-0.2236-0.5-0.5-0.5    s-0.5,0.2236-0.5,0.5v7.4121c0,0.4307-0.3506,0.7812-0.7812,0.7812s-0.7812-0.3506-0.7812-0.7812v-7.6133    c0-1.7949,1.4604-3.2559,3.2559-3.2559h4.2979c1.7954,0,3.2559,1.4609,3.2559,3.2559v7.6133c0,0.4307-0.3506,0.7812-0.7812,0.7812    s-0.7812-0.3506-0.7812-0.7812v-7.4121c0-0.2764-0.2236-0.5-0.5-0.5s-0.5,0.2236-0.5,0.5v18.8604    C26.9741,47.5967,26.4487,48.1221,25.8027,48.1221z M36.3071,46.1875c0,1.0664-0.8677,1.9346-1.9346,1.9346    c-1.0664,0-1.9341-0.8682-1.9341-1.9346V31.9453c0-0.2764-0.2236-0.5-0.5-0.5s-0.5,0.2236-0.5,0.5v14.2422    c0,1.0664-0.8677,1.9346-1.9346,1.9346c-0.6255,0-1.2042-0.3174-1.5649-0.8231c0.0186-0.114,0.0352-0.2287,0.0352-0.3478v-9.8553    c0.2369,0.1168,0.4997,0.1883,0.7812,0.1883c0.9824,0,1.7812-0.7988,1.7812-1.7812v-7.6133c0-2.3467-1.9092-4.2559-4.2559-4.2559    h-4.2979c-2.3467,0-4.2559,1.9092-4.2559,4.2559v7.6133c0,0.9824,0.7988,1.7812,1.7812,1.7812    c0.2815,0,0.5444-0.0715,0.7812-0.1882v9.8552c0,0.1194,0.0166,0.2344,0.0352,0.3486c-0.3608,0.5049-0.9395,0.8223-1.565,0.8223    c-1.0669,0-1.9346-0.8682-1.9346-1.9346V30.4688c0-0.2764-0.2236-0.5-0.5-0.5s-0.5,0.2236-0.5,0.5v15.7188    c0,1.0664-0.8677,1.9346-1.9346,1.9346c-1.0664,0-1.9341-0.8682-1.9341-1.9346V18.085c0-0.2764-0.2236-0.5-0.5-0.5    s-0.5,0.2236-0.5,0.5v10.8887c0,0.7529-0.6133,1.3662-1.3667,1.3662s-1.3667-0.6133-1.3667-1.3662v-11.123    c0-3.0557,2.4858-5.541,5.541-5.541h5.1226c2.0722,0,3.9564,1.1723,4.9025,2.9751c-1.8971,0.1761-3.3928,1.7584-3.3928,3.7007    c0,2.0596,1.6758,3.7354,3.7354,3.7354s3.7349-1.6758,3.7349-3.7354c0-1.1337-0.5183-2.1385-1.3182-2.8242    c0.8532-0.5109,1.8145-0.7911,2.8284-0.7911h5.1226c0.2795,0,0.5567,0.0243,0.831,0.0653l-3.936,5.7052    c-0.7144,1.0361-0.8125,2.3809-0.2568,3.5098c0.0166,0.0338,0.0491,0.0505,0.0718,0.0786    c-0.0368,0.1611-0.0594,0.3267-0.0625,0.4956c-0.021,1.1387,0.8574,2.1602,2.043,2.375l3.1172,0.566v18.0218H36.3071z     M40.439,25.833c0.0527,0.502-0.1299,0.9873-0.5,1.3301c-0.3711,0.3428-0.8691,0.4854-1.3638,0.3975l-5.2065-0.9453    c-0.7085-0.1279-1.2339-0.7188-1.2217-1.373c0.0073-0.416,0.1855-0.7871,0.5005-1.0459c0.3115-0.2549,0.7188-0.3584,1.1108-0.2871    l4.6099,0.8359c0.2764,0.043,0.5317-0.1309,0.5815-0.4033c0.0488-0.2715-0.1313-0.5312-0.4028-0.5811l-0.4584-0.0831    l1.8468-2.6771L40.439,25.833z" fill="#FFCD00"/>
	</g>
</g>
<g id="Margin">
	<rect x="1" y="1" class="st1" width="48" height="48" fill="#FFCD00"/>
</g>
<g id="Guides">
</g>
<g id="LABELS">
	<g>
		<g>
			<g>
				<g>
					<g>
						<g>
							<text transform="matrix(1 0 0 1 -0.115 55.1221)" class="st2 st3">family-baby</text>
						</g>
					</g>
				</g>
			</g>
		</g>
	</g>
</g>
</svg>