<?xml version="1.0" encoding="UTF-8"?><svg xmlns="http://www.w3.org/2000/svg" viewBox="0 0 50 50"><g id="uuid-5351f71d-5f4c-442a-8980-4f1547788948"><path d="M24.95,25.08s.08-.1,.1-.16c-.02,.06-.06,.11-.1,.16Z" fill="#FFCD00"/><g><path d="M47.43,7.17L1.84,7.04c-.28,0-.5,.22-.5,.5l-.02,5.77c0,.28,.22,.5,.5,.5h1.83l-.08,27.78c0,.28,.22,.5,.5,.5l6.02,.02,28.88,.08,6.02,.02c.28,0,.5-.22,.5-.5l.08-27.78h1.83c.28,0,.5-.22,.5-.49l.02-5.77c0-.28-.22-.5-.5-.5ZM19.63,39.23c-.85-1-1.16-2.44-.85-3.85,.01-.05,.01-.1,.01-.15,.01-.09,.04-.26,.08-.48,.13-.69,.34-1.84,.38-2.83,.03-.83-.05-1.67-.26-2.53,.23,.15,.45,.31,.66,.49,1.23,1.03,1.75,2.3,1.98,3.18,.07,.26,.32,.42,.58,.37,.26-.05,.43-.3,.4-.56-.22-1.51-.2-3.78,1.13-6.02,.23-.39,.49-.76,.78-1.11-.02,.36-.02,.73,0,1.09,.07,1.5,.47,2.97,1.19,4.35,.1,.19,.31,.3,.52,.26,.21-.03,.38-.2,.42-.41,.14-.78,.52-1.93,1.54-2.94,.33-.32,.69-.61,1.08-.85-.11,.42-.18,.85-.23,1.27-.15,1.24-.03,2.27,.09,2.91,.18,.94,.48,1.69,.62,2.01,.03,.11,.08,.24,.16,.41,.04,.11,1.28,3.28-.12,5.24-1.23,1.72-3.94,1.74-5.1,1.75-1.28,.02-3.66,.03-5.04-1.6Zm18.85,1.96l-9.83-.03c.74-.32,1.43-.78,1.94-1.5,1.74-2.43,.29-6.05,.23-6.21h0s-.09-.23-.12-.3c.03,.1,.02,.21-.02,.32,.05-.13,.02-.35-.03-.47-.1-.22-.38-.91-.55-1.78-.11-.57-.21-1.49-.08-2.61,.09-.73,.27-1.46,.53-2.16,.07-.18,.03-.39-.11-.53-.14-.14-.35-.18-.53-.11-.93,.35-1.75,.88-2.44,1.56-.69,.69-1.13,1.43-1.42,2.11-.32-.88-.5-1.79-.54-2.71-.04-.79,.03-1.59,.19-2.38,.05-.21-.05-.43-.24-.54-.19-.11-.42-.09-.58,.06-.8,.71-1.47,1.52-2,2.41-.85,1.43-1.22,2.88-1.33,4.16-.33-.47-.74-.94-1.25-1.37-.57-.48-1.22-.87-1.93-1.17-.18-.07-.39-.04-.54,.1-.14,.14-.19,.35-.13,.53,.4,1.13,.59,2.24,.55,3.31-.04,.91-.24,2.02-.36,2.68-.06,.35-.1,.55-.1,.68-.35,1.69,.05,3.42,1.08,4.64,.49,.58,1.08,.97,1.69,1.26l-9.97-.03,.06-20.55,27.88,.08-.06,20.55Zm6.02,.02h-5.02l.06-21.07c0-.28-.22-.5-.5-.5l-28.88-.08c-.28,0-.5,.22-.5,.5l-.06,21.05H4.57l.08-27.29,39.93,.11-.08,27.28Zm2.41-28.27h-1.83l-40.93-.12h-1.83v-4.77l44.59,.13v4.77Z" fill="#FFCD00"/><path d="M30.6,33.62s.08-.1,.1-.16c-.02,.06-.06,.11-.1,.16Z" fill="#FFCD00"/></g></g><g id="uuid-14576da0-c5e4-4f70-a00d-53bc3e54e852"><text transform="translate(.24 54.89)" font-family="Roboto-Regular, Roboto" font-size="6"><tspan x="0" y="0">fi</tspan><tspan x="3.54" y="0" letter-spacing="0em">r</tspan><tspan x="5.51" y="0">eplace</tspan></text></g></svg>