<?xml version="1.0" encoding="UTF-8"?><svg xmlns="http://www.w3.org/2000/svg" viewBox="0 0 50 50"><g id="uuid-4c8957b2-ceec-453b-8b38-f32d1df1c43f"><g><path d="M35.04,14.27L25.27,1.06c-.19-.25-.62-.25-.8,0L14.7,14.27c-.11,.15-.13,.35-.04,.52s.26,.27,.45,.27h2.85v24.24c0,.28,.22,.5,.5,.5h5.92v3.97c0,1.04-.85,1.89-1.89,1.89h-1.29c-.28,0-.5,.22-.5,.5s.22,.5,.5,.5h1.29c1.59,0,2.89-1.3,2.89-2.89v-3.97h5.92c.28,0,.5-.22,.5-.5V15.06h2.85c.19,0,.36-.11,.45-.27s.07-.37-.04-.52Zm-18.95-.2L24.87,2.2l8.78,11.87H16.09Zm10.91,1l-8.06,4.88v-4.88h8.06Zm3.79,11.03l-11.84,7.17v-5.52s.06,0,.09-.02l11.75-7.12v5.49Zm-11.84,8.34l11.84-7.17v5.49l-9.99,6.05h-1.86v-4.37Zm3.79,4.37l8.06-4.88v4.88h-8.06Zm8.06-19.37l-11.84,7.17v-5.49l9.99-6.05h1.86v4.37Z" fill="#FFCD00"/><path d="M19.19,46.17c0-.28-.22-.5-.5-.5h-1.53c-.28,0-.5,.22-.5,.5s.22,.5,.5,.5h1.53c.28,0,.5-.22,.5-.5Z" fill="#FFCD00"/><path d="M18.61,43.35c-.2-.2-.51-.2-.71,0s-.2,.51,0,.71l1.08,1.08c.1,.1,.23,.15,.35,.15s.26-.05,.35-.15c.2-.2,.2-.51,0-.71l-1.08-1.08Z" fill="#FFCD00"/><path d="M18.99,47.19l-1.08,1.08c-.2,.2-.2,.51,0,.71,.1,.1,.23,.15,.35,.15s.26-.05,.35-.15l1.08-1.08c.2-.2,.2-.51,0-.71s-.51-.2-.71,0Z" fill="#FFCD00"/></g></g><g id="uuid-4c6ca178-cd1f-4750-8c26-7cd059357d64"><text transform="translate(.11 55.07)" font-family="Roboto-Regular, Roboto" font-size="6"><tspan x="0" y="0">fi</tspan><tspan x="3.54" y="0" letter-spacing="0em">r</tspan><tspan x="5.51" y="0">ework</tspan></text></g></svg>