<?xml version="1.0" encoding="UTF-8"?><svg xmlns="http://www.w3.org/2000/svg" viewBox="0 0 50 50">
  <defs>
    <style>
      .cls-1 {
        fill: #1f1c1d;
      }

      .cls-2 {
        fill: #221f1f;
        font-family: Roboto-Regular, Roboto;
        font-size: 5px;
      }
    </style>
  </defs>
  <g id="Icon_Outline">
    <g>
      <path class="cls-1" d="M49.59,27.94l-.42-.55c-.34-.45-.53-.98-.53-1.54s.19-1.09.53-1.54l.42-.55c.15-.19.13-.46-.03-.64l-.46-.51c-3.38-3.75-7.56-6.29-12.13-7.43l-.64-1.29c-.66-1.33-1.56-2.53-2.66-3.55-2.28-2.1-5.23-3.25-8.31-3.25-.54,0-1.09.04-1.62.11l-.69.09c-.24.03-.42.23-.44.47l-.03.7c-.11,2.42.5,4.88,1.73,6.93l.08.19c-2.98.95-5.75,2.52-8.21,4.61-.69-2.33-1.98-4.41-3.74-6.04-2.95-2.72-6.95-3.99-10.96-3.44l-.68.09c-.24.03-.42.23-.43.47l-.04.69c-.22,4.03,1.35,7.91,4.31,10.65,1.77,1.63,3.94,2.74,6.28,3.25-2.35.51-4.51,1.62-6.28,3.25C1.68,31.83.11,35.71.33,39.74l.04.69c.01.24.19.44.43.47l.68.09c.62.08,1.24.13,1.86.13,3.38,0,6.61-1.27,9.1-3.57,1.76-1.62,3.05-3.71,3.74-6.03,2.05,1.78,4.31,3.25,6.62,4.25-1.36,1.62-2.08,3.64-2.03,5.81l.02.73c0,.25.2.46.45.49l.73.08c.31.03.62.05.92.05,2.2,0,4.3-.83,5.93-2.33,1.04-.96,1.8-2.12,2.27-3.39l.77-.03c6.52-.25,12.8-3.2,17.22-8.08l.47-.51c.16-.18.17-.45.03-.64ZM23.58,8.5v-.28s.29-.04.29-.04c3.29-.43,6.66.62,9.12,2.89,1.01.94,1.84,2.03,2.44,3.26l.28.56c-1.11-.21-2.24-.35-3.39-.39-.31-.02-.62-.03-.93-.03-.49,0-.97.02-1.45.05-.13,0-.25.03-.38.04-.35.03-.7.06-1.05.1-.28.04-.57.09-.85.13-.19.03-.37.05-.56.09-.41.08-.81.17-1.22.27-.05.01-.11.02-.16.04-.03,0-.06.01-.09.02l-.27.07-.15-.33s-.02-.04-.03-.05c-1.14-1.89-1.71-4.17-1.61-6.4ZM5.32,21.86c-2.74-2.53-4.2-6.12-3.99-9.86v-.28s.29-.04.29-.04c3.72-.5,7.42.67,10.15,3.19,1.69,1.56,2.92,3.58,3.54,5.84l.05.19-.15.14s-.07.07-.1.11c-1.21,1.15-2.33,2.43-3.34,3.85l-.2-.04h0c-2.34-.42-4.5-1.49-6.25-3.1ZM15.3,30.97c-.62,2.26-1.85,4.28-3.54,5.84-2.73,2.52-6.45,3.69-10.15,3.19l-.27-.04v-.28c-.22-3.73,1.24-7.32,3.98-9.86,1.75-1.61,3.92-2.69,6.26-3.1l.19-.03c.52.72,1.08,1.41,1.67,2.08.04.05.08.09.12.13.5.57,1.03,1.12,1.57,1.65.03.03.05.06.08.08l.1.09s.03.03.05.05l-.05.19ZM30.5,35.59h0s-.06.34-.06.34c-.35,1.49-1.12,2.85-2.29,3.93-1.65,1.52-3.84,2.25-6.08,2.02l-.29-.03v-.29c-.06-2.23.81-4.29,2.42-5.82l.15-.14c.64-.57,1.36-1.03,2.13-1.36.01,0,.02,0,.03-.01.24-.1.48-.19.73-.27.04-.01.09-.02.13-.04.22-.06.43-.12.65-.16.08-.02.16-.03.24-.04.18-.03.37-.06.56-.08.11-.01.23-.01.34-.02.16,0,.32-.01.48-.01.12,0,.24,0,.36.02.2.01.41.02.61.05.03.63-.01,1.27-.13,1.92ZM48.37,27.99l.17.22-.19.21c-4.25,4.68-10.27,7.5-16.52,7.75l-.42.02v-.05c.13-.53.2-1.07.23-1.63,0-.03,0-.07,0-.1,0-.16.02-.31.01-.47l-.02-.74c0-.25-.2-.46-.45-.49l-.73-.07c-.05,0-.11,0-.16,0-.11,0-.22-.01-.32-.02-.23-.01-.46-.02-.7,0-.08,0-.16,0-.23.01-.27.02-.53.04-.79.08-.05,0-.1.02-.14.02-.29.05-.58.11-.86.19-.03,0-.06.02-.09.02-.3.08-.59.18-.87.3-.02,0-.04.02-.06.03-.29.12-.57.25-.84.4-.02.01-.04.02-.07.03-.27.15-.54.32-.79.49-.02.01-.04.02-.06.04-.3.21-.6.44-.87.7-.02.02-.04.04-.06.06h0s-.2-.08-.2-.08c-2.52-1.06-4.99-2.71-7.16-4.73l-.2-.19s-.08-.08-.12-.12c-.53-.51-1.05-1.06-1.55-1.62-.03-.03-.06-.07-.09-.1-.52-.6-1.02-1.22-1.49-1.86l-.31-.42s0,0,0,0c0,0,0,0,0,0l.31-.42c.94-1.29,1.98-2.48,3.08-3.54,3.28-3.13,7.23-5.21,11.5-6.02.04,0,.08-.01.12-.02.41-.07.81-.14,1.22-.19.25-.03.5-.05.76-.07.21-.02.41-.04.61-.06.46-.03.92-.04,1.39-.04.29,0,.59.01.88.02.81.04,1.67.14,2.65.29l1.12.18c4.64,1,8.9,3.51,12.31,7.3l.19.21-.17.22c-.47.62-.73,1.38-.73,2.15s.25,1.52.73,2.14Z" fill="#FFFFFF"/>
      <path class="cls-1" d="M39.39,23.33c-.82,0-1.48.66-1.48,1.48s.66,1.48,1.48,1.48,1.48-.66,1.48-1.48-.66-1.48-1.48-1.48Z" fill="#FFFFFF"/>
    </g>
  </g>
  <g id="Names">
    <text class="cls-2" transform="translate(0 53.99)"><tspan x="0" y="0">fish</tspan></text>
  </g>
</svg>