<?xml version="1.0" encoding="UTF-8"?><svg xmlns="http://www.w3.org/2000/svg" viewBox="0 0 50 50">
  <defs>
    <style>
      .cls-1 {
        fill: #1f1c1d;
      }

      .cls-2 {
        fill: #221f1f;
        font-family: Roboto-Regular, Roboto;
        font-size: 5px;
      }

      .cls-3 {
        letter-spacing: .02em;
      }
    </style>
  </defs>
  <g id="Icon_Outline">
    <path class="cls-1" d="M43.73,32.07v-6.41c0-.54-.44-.97-.97-.97h-17.26v-6.75c3.31-.26,5.93-3.03,5.93-6.41,0-3.55-2.89-6.43-6.43-6.43s-6.43,2.89-6.43,6.43,2.62,6.15,5.93,6.41v6.75H7.24c-.54,0-.97.44-.97.97v6.41c-3.31.26-5.93,3.03-5.93,6.41,0,3.55,2.89,6.43,6.43,6.43s6.43-2.89,6.43-6.43-2.62-6.15-5.94-6.41l-.03-6.38h17.26s0,6.38,0,6.38c-3.31.26-5.93,3.03-5.93,6.41,0,3.55,2.89,6.43,6.43,6.43s6.43-2.89,6.43-6.43-2.62-6.15-5.93-6.41v-6.4h17.23s0,6.4,0,6.4c-3.31.26-5.93,3.03-5.93,6.41,0,3.55,2.89,6.43,6.43,6.43s6.43-2.89,6.43-6.43-2.62-6.15-5.93-6.41ZM19.57,11.52c0-3,2.44-5.43,5.43-5.43s5.43,2.44,5.43,5.43-2.44,5.43-5.43,5.43-5.43-2.44-5.43-5.43ZM12.2,38.48c0,3-2.44,5.43-5.43,5.43s-5.43-2.44-5.43-5.43,2.44-5.43,5.43-5.43,5.43,2.44,5.43,5.43ZM30.43,38.48c0,3-2.44,5.43-5.43,5.43s-5.43-2.44-5.43-5.43,2.44-5.43,5.43-5.43,5.43,2.44,5.43,5.43ZM43.23,43.91c-3,0-5.43-2.44-5.43-5.43s2.44-5.43,5.43-5.43,5.43,2.44,5.43,5.43-2.44,5.43-5.43,5.43Z" fill="#FFFFFF"/>
  </g>
  <g id="Names">
    <text class="cls-2" transform="translate(0 53.76)"><tspan x="0" y="0">flowcha</tspan><tspan class="cls-3" x="17.65" y="0">r</tspan><tspan x="19.46" y="0">t</tspan></text>
  </g>
</svg>