<?xml version="1.0" encoding="UTF-8"?><svg xmlns="http://www.w3.org/2000/svg" viewBox="0 0 50 50">
  <defs>
    <style>
      .cls-1 {
        font-family: ArialMT, Arial;
        font-size: 6px;
      }

      .cls-2 {
        letter-spacing: -.02em;
      }

      .cls-3 {
        letter-spacing: -.04em;
      }
    </style>
  </defs>
  <g id="Black">
    <g>
      <path d="M46.89,30.74h-8.43c.06-.08.11-.16.12-.27l1.23-13.88h.34c.28,0,.5-.22.5-.5s-.22-.5-.5-.5h-5.04l.56-4.09,3.57-2.03c.24-.14.32-.44.19-.68-.14-.24-.44-.32-.68-.19l-3.79,2.15-.02.02-.08.07-.06.07-.04.08-.03.1v.03s-.62,4.47-.62,4.47h-5.34c-.28,0-.5.22-.5.5s.22.5.5.5h.2l1.23,13.88c0,.1.06.19.12.27h-9.17c2.86-1.07,4.86-3.41,4.86-6.13,0-.28-.22-.5-.5-.5h-3.69l4.44-5.83c.17-.22.12-.53-.09-.7-.22-.17-.53-.12-.7.09l-4.9,6.43h-10.69c-.28,0-.5.22-.5.5,0,2.72,2,5.06,4.86,6.13H3.11c-1.28,0-2.32,1.04-2.32,2.32v.48c0,1.28,1.04,2.32,2.32,2.32h4.3l-1.26,1.45c-.38.44-.57.98-.57,1.52,0,.65.27,1.29.8,1.75l.36.32c.44.38.98.57,1.52.57.65,0,1.29-.27,1.75-.8l4.16-4.8h21.64l4.16,4.8c.46.53,1.1.8,1.75.8.54,0,1.08-.19,1.52-.57l.36-.32c.53-.46.8-1.1.8-1.75,0-.54-.19-1.08-.57-1.52l-1.26-1.45h4.3c1.28,0,2.32-1.04,2.32-2.32v-.48c0-1.28-1.04-2.32-2.32-2.32ZM30.73,25.3l7.55-2.8-.66,7.43h-6.48l-.41-4.63ZM38.38,21.4l-7.74,2.87-.13-1.47,8.01-2.97-.14,1.57ZM29.96,16.59h8.84l-.19,2.13-8.2,3.04-.46-5.17ZM10.38,25.11h14.58c-.32,2.94-3.47,5.25-7.29,5.25s-6.97-2.31-7.29-5.25ZM9.26,40.01c-.26.3-.63.45-1,.45-.31,0-.61-.1-.86-.32l-.36-.32c-.3-.26-.45-.63-.45-1,0-.31.1-.61.32-.86l1.83-2.11h4.12l-3.6,4.15ZM43.09,37.97c.22.25.32.55.32.86,0,.37-.15.73-.45,1l-.36.32c-.25.22-.55.32-.86.32-.37,0-.73-.15-1-.45l-3.6-4.15h4.12l1.83,2.11ZM48.21,33.54c0,.73-.59,1.32-1.32,1.32H3.11c-.73,0-1.32-.59-1.32-1.32v-.48c0-.73.59-1.32,1.32-1.32h43.78c.73,0,1.32.59,1.32,1.32v.48Z" fill="#FFFFFF"/>
      <path d="M14.97,21.19c.01,1.34.86,2.2.89,2.24.19.2.51.21.71.02.2-.19.21-.51.02-.71h0c-.05-.05-.63-.74-.62-1.55,0-.44.14-.92.63-1.49.62-.7.88-1.37.88-1.96,0-.59-.25-1.04-.49-1.33-.24-.29-.47-.43-.5-.45-.23-.15-.54-.08-.69.16-.15.23-.08.54.16.69h0s.16.11.28.28c.13.17.24.38.24.66,0,.3-.12.72-.63,1.3-.64.72-.88,1.48-.88,2.15Z" fill="#FFFFFF"/>
      <path d="M11.9,21.74c.01,1,.63,1.61.66,1.66.19.2.51.21.71.02.2-.19.21-.5.02-.7h0s-.4-.48-.39-.97c0-.27.08-.56.4-.93.45-.5.65-1,.65-1.46,0-.45-.2-.8-.37-1.02-.18-.22-.35-.33-.38-.35-.23-.15-.54-.08-.69.16-.15.23-.08.54.16.69h0s.1.08.17.17c.07.1.12.2.12.34,0,.16-.06.41-.4.8-.46.52-.65,1.09-.65,1.59Z" fill="#FFFFFF"/>
      <path d="M18.19,21.74c.01,1,.63,1.61.66,1.66.19.2.51.21.71.02.2-.19.21-.5.02-.7h0s-.4-.48-.39-.97c0-.27.08-.56.4-.93.45-.5.65-1,.65-1.46,0-.45-.2-.8-.37-1.02-.18-.22-.35-.33-.38-.35-.23-.15-.54-.08-.69.16-.15.23-.08.54.16.69h0s.1.08.17.17c.07.1.12.2.12.34,0,.16-.06.41-.4.8-.46.52-.65,1.09-.65,1.59Z" fill="#FFFFFF"/>
    </g>
  </g>
  <g id="Labels">
    <text class="cls-1" transform="translate(0 54.83)"><tspan x="0" y="0">Food</tspan><tspan class="cls-2" x="13.68" y="0"> </tspan><tspan class="cls-3" x="15.23" y="0">T</tspan><tspan x="18.68" y="0">ray</tspan></text>
  </g>
</svg>