<?xml version="1.0" encoding="UTF-8"?><svg xmlns="http://www.w3.org/2000/svg" viewBox="0 0 50 50"><g id="uuid-ff858b96-19ee-40bd-a19d-8ca3741132ab"><g><polygon points="44.91 6.63 44.91 6.63 44.91 6.63 44.91 6.63"/><path d="M49.75,16.13c-.07-5.31-3.38-8.72-4.47-9.84l-.36,.35,.36-.35h0c-2-2.05-6.21-5.42-12.11-4.9-3.98,.35-6.84,2.33-8.37,3.69-2.57-2.41-5.89-3.74-9.43-3.74h0c-3.69,0-7.17,1.44-9.78,4.05l-1.27,1.27c-5.35,5.35-5.39,14.03-.13,19.44-.08,.07-.17,.13-.25,.2l-.31,.31c-1.59,1.59-1.59,4.17,0,5.76,.79,.79,1.84,1.19,2.88,1.19,.39,0,.77-.07,1.14-.18-.11,.37-.18,.75-.18,1.14,0,1.09,.42,2.11,1.19,2.88s1.79,1.19,2.88,1.19c.41,0,.8-.08,1.17-.19-.11,.38-.19,.77-.19,1.17,0,1.09,.42,2.11,1.19,2.88,.77,.77,1.79,1.19,2.88,1.19,.41,0,.79-.08,1.17-.19-.42,1.39-.1,2.95,1,4.05,.79,.79,1.84,1.19,2.88,1.19s2.08-.4,2.88-1.19l.3-.31c.07-.07,.12-.15,.18-.22,.77,.69,1.73,1.05,2.7,1.05,1.04,0,2.08-.4,2.88-1.19,1.08-1.08,1.43-2.62,1.03-4,1.38,.4,2.92,.05,4-1.03,.77-.77,1.19-1.79,1.19-2.88,0-.39-.05-.78-.16-1.14,1.38,.4,2.93,.06,4.02-1.03,.77-.77,1.19-1.79,1.19-2.88,0-.39-.05-.78-.16-1.14,1.38,.4,2.93,.06,4.02-1.03,.77-.77,1.19-1.79,1.19-2.88s-.42-2.1-1.18-2.87c1.16-1.18,4.12-4.71,4.06-9.81ZM25.15,6.09c1.32-1.24,4.12-3.37,8.1-3.71,5.48-.48,9.43,2.68,11.3,4.6l.36-.35-.36,.35c1.13,1.16,4.13,4.25,4.19,9.16,.06,4.69-2.65,7.95-3.75,9.07l-14.73-14.73c-.09-.09-.22-.15-.35-.15s-.26,.05-.35,.15l-10.37,10.37c-.76,.76-1.84,1.07-2.9,.83-.58-.13-1.1-.42-1.51-.83-1.21-1.22-1.21-3.19,0-4.41L25.15,6.09ZM4.33,31.65c-1.2-1.2-1.2-3.14,0-4.34l.31-.31c1.15-1.15,3.19-1.15,4.34,0,.58,.58,.9,1.35,.9,2.17s-.32,1.59-.9,2.17l-.3,.31c-1.2,1.2-3.14,1.2-4.34,0Zm5.03,5.03c-.58-.58-.89-1.35-.89-2.17,0-.77,.29-1.49,.79-2.05,.04-.04,.09-.06,.12-.1l.3-.31s.07-.08,.1-.12c.58-.52,1.31-.8,2.05-.8,.79,0,1.57,.3,2.17,.9,1.2,1.2,1.2,3.14,0,4.34l-.31,.31c-1.15,1.15-3.19,1.16-4.34,0Zm5.05,5.05c-.58-.58-.9-1.35-.9-2.17s.32-1.59,.9-2.17l.31-.31c.58-.58,1.35-.9,2.17-.9s1.59,.32,2.17,.9c1.2,1.2,1.2,3.14,0,4.34l-.31,.31c-1.16,1.15-3.19,1.15-4.34,0Zm9.69,4.74l-.3,.31c-1.2,1.2-3.14,1.2-4.34,0-1.2-1.2-1.2-3.14,0-4.34l.31-.31c1.15-1.16,3.19-1.15,4.34,0,.58,.58,.89,1.35,.89,2.17s-.32,1.59-.89,2.17Zm21.78-17.66c0,.82-.32,1.59-.89,2.17-1.2,1.2-3.14,1.2-4.34,0l-9.84-9.84c-.2-.2-.51-.2-.71,0s-.2,.51,0,.71l9.84,9.84h0c.58,.58,.89,1.35,.89,2.17s-.32,1.59-.89,2.17c-1.18,1.18-3.07,1.19-4.27,.06l-9.9-9.9c-.2-.2-.51-.2-.71,0s-.2,.51,0,.71l9.84,9.84h0c.58,.58,.89,1.35,.89,2.18s-.32,1.59-.89,2.17c-1.16,1.16-3.02,1.2-4.24,.08h0l-9.99-9.89c-.2-.19-.51-.19-.71,0-.19,.2-.19,.51,0,.71l9.98,9.88c1.11,1.22,1.08,3.08-.08,4.24-1.19,1.19-3.12,1.19-4.31,.02,.28-.56,.45-1.18,.45-1.83,0-1.09-.42-2.11-1.19-2.88s-1.79-1.19-2.88-1.19c-.41,0-.79,.08-1.17,.19,.42-1.39,.1-2.95-1-4.05-.77-.77-1.79-1.19-2.88-1.19-.41,0-.79,.08-1.17,.19,.42-1.39,.1-2.95-1-4.05-1.09-1.09-2.64-1.41-4.02-1.01,.11-.37,.18-.75,.18-1.14,0-1.09-.42-2.11-1.19-2.88s-1.79-1.19-2.88-1.19c-.63,0-1.24,.16-1.79,.43l-.02-.02C0,20.51,0,12.37,5,7.36l1.27-1.27c2.42-2.42,5.65-3.76,9.07-3.76h0c3.26,0,6.33,1.22,8.71,3.43L14.08,15.74c-1.6,1.61-1.6,4.22,0,5.82,.54,.54,1.23,.92,2,1.09,1.39,.32,2.82-.09,3.82-1.09l10-10,15.07,15.07c.58,.58,.89,1.35,.89,2.17Z"/></g></g><g id="uuid-8e1ab7f3-a8dc-4684-8948-8ffe711c4557"><text transform="translate(.17 54.98)" font-family="Roboto-Regular, Roboto" font-size="6"><tspan x="0" y="0">friendship</tspan></text></g></svg>