<?xml version="1.0" encoding="UTF-8"?>
<svg xmlns="http://www.w3.org/2000/svg" viewBox="0 0 50 50">
  <defs>
    <style>
      .cls-1 {
        fill: #1f1c1d;
      }

      .cls-2 {
        fill: #221f1f;
        font-family: Roboto-Regular, Roboto;
        font-size: 5px;
      }

      .cls-3 {
        letter-spacing: 0em;
      }
    </style>
  </defs>
  <g id="Icon_Outline">
    <g>
      <path class="cls-1" d="M45.8,29c-.06-.96-.29-1.79-.71-2.53-.87-1.63-2.43-2.56-4.51-2.66-1.58-.1-3.17.25-4.79,1.02-.03-.07-.07-.13-.1-.2-.06-.12-.12-.25-.18-.37-.07-.14-.15-.28-.22-.42-.06-.11-.12-.22-.18-.32-.08-.13-.15-.26-.23-.39-.06-.1-.11-.19-.17-.28-.08-.13-.15-.24-.23-.36-.05-.08-.1-.16-.15-.23-.08-.12-.15-.22-.23-.33-.04-.06-.08-.12-.12-.18-.08-.11-.15-.2-.22-.3-.03-.04-.06-.08-.09-.12-.03-.04-.06-.07-.08-.11,3.89-1.7,6.45-4.51,6.45-7.69,0-2.35-1.38-4.57-3.88-6.29.07-.31.11-.63.11-.96,0-2.42-1.97-4.39-4.39-4.39-1.72,0-3.2,1-3.92,2.45-1.94-.24-3.97-.24-5.91,0-.72-1.44-2.2-2.45-3.91-2.45-2.42,0-4.39,1.97-4.39,4.39,0,.33.04.64.11.95-2.5,1.72-3.88,3.95-3.88,6.3,0,3.18,2.56,5.99,6.45,7.69-.03.04-.05.07-.08.1-.04.05-.08.11-.12.16-.06.08-.12.16-.19.25-.05.07-.11.15-.16.23-.06.09-.12.18-.19.27-.06.09-.12.19-.19.29-.06.1-.13.19-.19.3-.07.11-.14.22-.2.34-.06.11-.13.22-.19.33-.07.12-.14.24-.2.37-.07.12-.13.25-.2.38-.06.13-.13.25-.19.39-.03.07-.07.13-.1.2-1.62-.77-3.22-1.11-4.78-1.02-2.08.11-3.64,1.03-4.51,2.65-.43.75-.66,1.58-.72,2.54-.06.95.08,1.95.41,2.98.99,3.07,2.9,6.16,5.2,8.45-4.01.71-4.06,4.14-4.06,4.18,0,.58.42,1,1,1h3.2c-.25.59-.34,1.13-.34,1.5,0,.6.38,1,.94,1h8.09c.81,0,1.56-.37,2.06-1.02.33-.44.5-.95.52-1.48h7.56c.02.53.18,1.05.52,1.48.49.65,1.24,1.02,2.06,1.02h8.09c.56,0,.94-.4.94-1,0-.36-.09-.91-.34-1.5h3.2c.58,0,1-.42,1-1,0-.04-.05-3.47-4.06-4.18,2.31-2.29,4.22-5.38,5.2-8.45.33-1.02.47-2.03.41-2.98ZM31.87,2.89c1.87,0,3.39,1.52,3.39,3.39s-1.52,3.39-3.39,3.39-3.39-1.52-3.39-3.39,1.52-3.39,3.39-3.39ZM18.13,2.89c1.87,0,3.39,1.52,3.39,3.39s-1.52,3.39-3.39,3.39-3.39-1.52-3.39-3.39,1.52-3.39,3.39-3.39ZM14.21,8.21c.72,1.45,2.2,2.46,3.92,2.46,2.42,0,4.39-1.97,4.39-4.39,0-.33-.05-.66-.12-.97,1.71-.19,3.49-.19,5.2,0-.07.31-.12.64-.12.97,0,2.42,1.97,4.39,4.39,4.39,1.72,0,3.2-1.01,3.92-2.46,1.4,1.01,2.37,2.18,2.86,3.43-1.41,3.25-7.13,5.61-13.7,5.61s-12.14-2.3-13.65-5.48c.47-1.3,1.46-2.52,2.91-3.56ZM10.97,13.53c0-.11.02-.23.03-.34,2.24,3.03,7.68,5.06,13.95,5.06s11.88-2.08,14.05-5.19c.01.16.04.31.04.47,0,4.62-6.29,8.38-14.03,8.38s-14.03-3.76-14.03-8.38ZM10.54,44.61h-3.79c0-.12.1-3.12,4.22-3.3.2,0,.38-.14.45-.33.07-.19.01-.41-.14-.54-2.54-2.23-4.67-5.5-5.72-8.76-.29-.91-.42-1.79-.37-2.61.05-.8.24-1.49.6-2.12.71-1.33,1.95-2.04,3.69-2.14,1.4-.09,2.85.25,4.32.95-.7,1.82-2.86,8.69.64,16.97-1.98.15-3.2.96-3.91,1.88ZM28.92,44.61h-7.85c-.61-2.24-1.42-5.18-1.78-6.55-.96-3.63-1.47-8.58,1.49-11.57,1.08-1.09,2.58-1.69,4.21-1.69s3.12.6,4.21,1.69c2.97,2.98,2.45,7.94,1.49,11.57-.36,1.37-1.17,4.32-1.78,6.55ZM31.35,47.11c-.5,0-.96-.23-1.26-.62-.3-.4-.4-.9-.27-1.38.62-2.26,1.47-5.38,1.84-6.79,1.02-3.88,1.55-9.21-1.75-12.53-1.27-1.28-3.02-1.99-4.92-1.99s-3.65.71-4.92,1.99c-3.3,3.32-2.77,8.64-1.75,12.53.37,1.42,1.22,4.53,1.84,6.8.13.48.03.98-.27,1.38-.3.4-.76.62-1.26.62h-8.03c0-.16.12-3.26,4.2-3.41h1.82c.28,0,.5-.22.5-.5s-.22-.5-.5-.5h-1.11c-4.08-9.22-.65-16.91-.61-16.99.87-2.03,1.99-3.51,2.48-4.1,2.23.82,4.83,1.3,7.61,1.3s5.37-.48,7.61-1.3c.01.02.02.03.04.05.43.53,1.3,1.68,2.07,3.25.13.26.25.53.37.81h0s0,0,0,.01c.04.08,3.46,7.76-.61,16.98h-1.11c-.28,0-.5.22-.5.5s.22.5.5.5h1.8c4.1.14,4.21,3.26,4.22,3.41h-8.03ZM39.45,47.61v-.28s0,0,0,0v.27ZM44.44,31.67c-1.04,3.25-3.18,6.53-5.72,8.76-.15.13-.21.35-.14.54.07.19.25.32.45.33,4.12.18,4.22,3.18,4.22,3.3h-3.79c-.71-.92-1.93-1.72-3.91-1.88,3.51-8.29,1.34-15.17.65-16.97,1.47-.71,2.93-1.03,4.33-.95,1.74.09,2.98.81,3.69,2.15.35.61.54,1.3.59,2.1.05.83-.08,1.71-.37,2.61Z"/>
      <circle class="cls-1" cx="18.13" cy="6.28" r=".92"/>
      <circle class="cls-1" cx="31.87" cy="6.28" r=".92"/>
    </g>
  </g>
  <g id="Names">
    <text class="cls-2" transform="translate(0 53.76)"><tspan x="0" y="0">f</tspan><tspan class="cls-3" x="1.74" y="0">r</tspan><tspan x="3.38" y="0">og</tspan></text>
  </g>
</svg>