<?xml version="1.0" encoding="UTF-8"?><svg id="uuid-acc6f286-a54e-4275-b005-a9e71d08f005" xmlns="http://www.w3.org/2000/svg" viewBox="0 0 50 50"><text transform="translate(0 56.67)" font-family="MyriadPro-Regular, &apos;Myriad Pro&apos;" font-size="8"><tspan x="0" y="0">full-b</tspan><tspan x="17.53" y="0" letter-spacing="0em">a</tspan><tspan x="21.35" y="0">t</tspan><tspan x="24" y="0" letter-spacing="0em">t</tspan><tspan x="26.6" y="0">e</tspan><tspan x="30.61" y="0" letter-spacing=".03em">r</tspan><tspan x="33.42" y="0">y</tspan></text><g><path d="M35.27,7.21h-4.76v-3.01c0-.83-.67-1.5-1.5-1.5h-8.02c-.83,0-1.5,.67-1.5,1.5v3.01h-4.76c-.28,0-.5,.22-.5,.5V46.47c0,.28,.22,.5,.5,.5h20.54c.28,0,.5-.22,.5-.5V7.71c0-.28-.22-.5-.5-.5Zm-14.78-3.01c0-.28,.22-.5,.5-.5h8.02c.28,0,.5,.22,.5,.5v3.01h-9.02v-3.01Zm14.28,41.76H15.23V8.21h19.54V45.97Z"/><path d="M16.3,10.04V44.14c0,.28,.22,.5,.5,.5h16.4c.28,0,.5-.22,.5-.5V10.04c0-.28-.22-.5-.5-.5H16.8c-.28,0-.5,.22-.5,.5Zm1,.5h15.4V43.64h-15.4V10.54Z"/><path d="M27.8,24.64l-1.22,.6,.89-7.22c.03-.25-.12-.48-.36-.54-.24-.07-.49,.05-.59,.28l-4.99,11.13c-.09,.19-.04,.42,.11,.56,.15,.14,.38,.18,.57,.09l1.22-.6-.89,7.22c-.03,.25,.12,.48,.36,.54,.04,.01,.09,.02,.13,.02,.19,0,.37-.11,.46-.3l4.99-11.13c.09-.19,.04-.42-.11-.56-.15-.15-.38-.18-.57-.09Z"/></g></svg>