<?xml version="1.0" encoding="UTF-8"?><svg xmlns="http://www.w3.org/2000/svg" viewBox="0 0 50 50">
  <defs>
    <style>
      .cls-1 {
        font-family: ArialMT, Arial;
        font-size: 6px;
      }
    </style>
  </defs>
  <g id="Black">
    <path d="M42.99,9.77l-.19-.18-.11-.1h0c-4.47-4.16-11.36-4.04-15.67.27l-2.02,2.01-2.01-2.01c-1.99-1.99-4.64-3.16-7.47-3.29-3.16-.16-6.28,1.05-8.51,3.29-3,3-4.05,7.39-2.75,11.45.5,1.55,1.3,2.93,2.37,4.12.04.04.88.89,4.2,4.22l.53.53,7.6,7.62,5.56,5.57c.18.18.34.27.5.27.12,0,.22-.05.33-.15l6.32-6.33.29-.29h0s.43-.43.43-.43c3.79-3.8,8.06-8.08,9.96-9.98.62-.62,1-1.01,1.02-1.02,4.05-4.47,3.89-11.3-.38-15.56ZM15.2,7.47c.29.9,0,1.94-.3,3.05-.16.59-.33,1.2-.42,1.83-.08.53.02.97.3,1.37.5.69,1.48.96,2.27.63.57-.24.8-.72.96-1.07.14-.29.21-.42.33-.45.24-.08.66.14.87.48.18.46,0,1.02-.08,1.26-.29.9-.11,1.61.03,2.13.06.23.13.49.07.54-.19.19-.81.09-1.22.03-.54-.08-1.01-.16-1.34.13-.46.41-.68,1.1-.74,1.3-.42,1.46-.29,2.08-.15,2.73.07.33.15.67.16,1.17,0,.23-.02.34-.02.38-.14-.04-.45-.25-.61-.47-.38-.54-.48-.94-.56-1.29-.1-.4-.21-.86-.78-1.12-.55-.24-1.23-.02-1.94.63-.46.42-.76.98-.86,1.63-.13.85.17,1.51.53,2.28.57,1.23.89,1.45,1.6,1.85.84.48,1.39.5,1.92.51.39.01.77.02,1.33.25.34.13.46.25.65.45.23.23.51.52,1.17.86.7.36,1.22.47,1.6.55.4.09.5.12.59.25.32.47.11,1.48-.43,2.05-.19.2-.34.25-.55.32-.27.1-.65.23-.93.72-.25.44-.25.68-.22,1.05.02.24.04.58-.03,1.22-.04.39-.06.71-.06.97l-6.1-6.11c.08-.33.15-.72.1-1.43-.1-1.38-.7-1.86-1.76-2.6-.53-.37-.61-.56-.97-1.35-.25-.55-.62-1.37-1.32-2.65-.36-.64-1.06-1.01-2.02-1.05-.14,0-.31,0-.48,0-.22,0-.47,0-.73,0-.99-3.58,0-7.37,2.63-10,1.97-1.97,4.7-3.03,7.49-3ZM5.83,21.49c.15,0,.29,0,.42,0,.42.02.97.13,1.19.54.69,1.24,1.03,2.01,1.29,2.57.38.85.55,1.24,1.31,1.76.99.69,1.27.93,1.34,1.85.01.18.01.32.01.45v.02c-2.28-2.28-3.94-3.95-4.02-4.03-.84-.93-1.5-1.99-1.95-3.17.15,0,.28,0,.42,0ZM19.76,37.08l-.06-.12c-.05-.1-.1-.21-.18-.4-.12-.28-.23-.54-.11-1.74.08-.73.05-1.12.03-1.39-.02-.28-.02-.29.1-.5.09-.16.17-.19.39-.26.25-.09.59-.21.95-.58.77-.83,1.17-2.35.52-3.3-.33-.48-.75-.57-1.21-.67-.34-.07-.77-.17-1.35-.47-.52-.27-.72-.47-.92-.67-.23-.23-.46-.47-1-.68-.72-.28-1.22-.3-1.66-.31-.46-.01-.83-.03-1.5-.4-.53-.3-.69-.39-1.15-1.38-.35-.75-.53-1.17-.45-1.7.06-.42.25-.78.55-1.05.43-.39.76-.49.86-.45.1.05.12.05.21.44.09.37.22.93.71,1.63.26.38,1.04,1.09,1.75.86.33-.11.71-.43.69-1.36-.01-.6-.1-1.01-.18-1.36-.13-.6-.22-1.03.13-2.24.08-.27.23-.6.4-.78.13,0,.38.04.56.06.68.11,1.53.24,2.08-.31.46-.46.32-1.01.19-1.5-.11-.45-.24-.95-.04-1.59.1-.31.36-1.12.05-1.91l-.11-.21c-.37-.59-1.21-1.08-1.97-.86-.57.16-.79.64-.96.98-.15.31-.24.49-.45.58-.36.15-.85.03-1.07-.29-.09-.13-.17-.3-.12-.63.09-.57.25-1.15.4-1.71.06-.23.12-.46.18-.7l.04-.15c.06-.24.11-.47.15-.71l.02-.13c.04-.25.06-.49.07-.74v-.02c0-.24-.02-.47-.06-.71v-.08c2.28.28,4.39,1.3,6.02,2.93l2.37,2.37c.11.11.28.17.43.14.11-.02.21-.07.28-.15l2.36-2.36c3.72-3.73,9.55-4.02,13.62-.82h0s-.2.06-.2.06h-.06s-.23.02-.23.02h-.04c-.1,0-.21-.02-.34-.05l-.1-.02c-.14-.03-.29-.07-.48-.12-.22-.07-.44-.15-.67-.25-.18-.08-.38-.15-.58-.21-.27-.08-.64-.11-1.04-.15-.3-.03-.6-.05-.8-.1-.43-.1-.79-.21-1.09-.29-1.02-.29-1.69-.48-2.36.33-.31.38-.43,1.05-.43,1.56v.31c0,.17,0,.34.01.34-.14.08-.79-.09-1.17-.19-.99-.26-2.23-.58-3.23.05-1.53.96-1.82,2.87-1.87,3.25-.02.21-.04.42-.05.62-.03.49-.07.96-.25,1.06-.14.08-.28.07-.52.04-.21-.03-.47-.06-.75.01-.86.23-1.47,1.02-1.47,1.94,0,.81.5,1.81,1.92,2.19.61.17,1.13-.15,1.59-.43.47-.28.9-.55,1.45-.43.59.13,1,.69,1.22.99.18.25.32.51.41.72-.38-.17-.93-.41-1.61-.43-1.18-.04-2.03.55-2.86,1.12-1.3.89-2.92,1.99-2.99,3.85-.05,1.21.58,2.74,1.73,3.23.33.14.6.16.97.17.35.02.82.04,1.62.18l.19.03c.38.07.46.08.51.11.43.25.68.92.72,1.87.02.45-.05.62-.11.8-.11.28-.18.53-.09,1,.07.39.21.7.36,1.04.18.41.37.84.48,1.54.02.16.06.32.1.48l.03.11c.04.16.09.32.15.47l.03.08c.05.13.12.25.19.37l.05.08c.08.12.18.23.29.32l.03.03-4.96,4.96-5.23-5.24ZM34.64,32.65c.15-.34.28-.71.36-1.12.15-.69.43-1.25.83-1.68.33-.35.7-.58,1.04-.79.5-.31,1.03-.63,1.04-1.27.02-.82-.86-1.42-1.38-1.65-.18-.08-.35-.12-.5-.15l-.09-.02c-.24-.04-.45-.04-.62-.03-.26,0-.33,0-.41-.06-.27-.22-.32-.82-.22-.94.15-.12.33-.14.61-.15.27-.02.57-.03.85-.21.91-.55.71-1.36.61-1.75l-.09-.18c.28-.25.48-.19,1.45.7.28.25.58.53.9.77.18.14.37.29.56.45l.08.07c.18.15.35.3.52.45l.12.1c.16.14.31.28.45.41l.1.1c.13.13.26.25.36.35l.02.02c-1.49,1.49-3.98,3.99-6.59,6.61v-.02ZM41.94,25.35c-.53-.53-1.51-1.43-2.31-2.03-.3-.23-.58-.48-.84-.72-.8-.72-1.79-1.62-2.8-.69-.4.36-.28.84-.2,1.16.1.39.11.49-.16.66-.07.04-.23.05-.39.06-.32.02-.76.05-1.16.36-.27.21-.42.57-.42,1.02,0,.59.24,1.17.63,1.49.37.3.76.29,1.07.28.25,0,.48-.01.77.11.44.19.79.55.78.72,0,.1-.31.29-.56.44-.37.22-.83.5-1.25.96-.52.56-.88,1.29-1.07,2.15-.14.65-.38,1.19-.72,1.63-.48.62-.75,1.04-.75,1.04-.17.27-.26.42-.37.64-.05.11-.1.2-.13.28-.09.19-.14.31-.33.56-.13.17-.3.4-.47.59l-.28.28c-.29.26-.39.24-.39.24-.09-.02-.37-.43-.51-1.36-.12-.77-.35-1.3-.54-1.73-.13-.29-.24-.55-.29-.82-.03-.18-.03-.25,0-.35l.04-.11c.09-.23.21-.54.18-1.2-.07-1.67-.7-2.38-1.21-2.69-.21-.12-.37-.15-.85-.23l-.19-.03c-.86-.15-1.39-.18-1.74-.2-.34-.02-.47-.03-.63-.1-.71-.31-1.16-1.42-1.12-2.27.06-1.35,1.33-2.22,2.56-3.06.74-.51,1.39-.95,2.19-.95h.07c.52.02.95.21,1.29.37.39.18.87.4,1.24.02.6-.62-.22-1.89-.5-2.26-.25-.35-.84-1.16-1.81-1.38-.94-.2-1.66.23-2.19.55-.33.2-.63.37-.82.32-.74-.2-1.18-.66-1.18-1.23,0-.46.3-.86.73-.97.09-.02.22,0,.37.01.3.04.72.09,1.16-.17.63-.37.68-1.13.73-1.85.01-.18.03-.38.05-.57.02-.18.24-1.78,1.4-2.51.64-.4,1.6-.15,2.45.07.92.24,1.79.46,2.24-.21.17-.25.17-.44.17-.9v-.31c0-.47.12-.83.2-.93.23-.28.29-.3,1.32,0,.31.09.68.19,1.13.3.26.06.61.09.95.12.31.03.67.06.84.11.17.05.33.11.48.17.26.11.52.21.77.29,1.21.37,1.76.28,2.42-.04l.21-.05.08.07c3.88,3.88,4.03,10.11.35,14.18-.03.03-.28.29-.69.7Z" fill="#FFCD00"/>
  </g>
  <g id="Labels">
    <text class="cls-1" transform="translate(0 54.83)"><tspan x="0" y="0">Globe Heart</tspan></text>
  </g>
</svg>