<?xml version="1.0" encoding="UTF-8"?><!-- Generator: Adobe Illustrator 27.7.0, SVG Export Plug-In . SVG Version: 6.00 Build 0)  --><svg version="1.1" id="Layer_1" xmlns="http://www.w3.org/2000/svg" xmlns:xlink="http://www.w3.org/1999/xlink" x="0px" y="0px" viewBox="0 0 50 50" style="enable-background:new 0 0 50 50;" xml:space="preserve">
<style type="text/css">
	.st0{display:none;}
	.st1{display:inline;fill:none;stroke:#EA008A;stroke-width:0.2;stroke-miterlimit:10;}
	.st2{font-family:'Roboto-Regular';}
	.st3{font-size:6px;}
</style>
<g id="ICONS_00000031165542127692736420000002692518830807990202_">
	<g>
		<path d="M4.8,40c-0.2-0.3-0.7-0.3-0.9,0l-2.3,4.6c0,0,0,0,0,0c-0.3,0.9-0.2,1.9,0.3,2.7s1.4,1.3,2.4,1.3c1,0,1.9-0.5,2.4-1.3    c0.5-0.8,0.7-1.8,0.3-2.7L4.8,40z M5.9,46.8c-0.4,0.5-0.9,0.8-1.6,0.8s-1.2-0.3-1.6-0.8c-0.4-0.5-0.4-1.2-0.2-1.7l1.8-3.7L6.1,45    C6.4,45.6,6.3,46.3,5.9,46.8z" fill="#FFCD00"/>
		<path d="M47.9,15L38.7,2.7C37.7,1.2,35.6,1,34.2,2L11.7,18.9c-0.7,0.5-1.1,1.3-1.3,2.1c-0.1,0.9,0.1,1.7,0.6,2.4l1.4,1.8    c0,0-0.1,0-0.1,0.1l-3.8,2.8c-0.1,0.1-0.2,0.2-0.2,0.3c0,0.1,0,0.3,0.1,0.4L9,29.7c-3.6,2.5-5.3,6.1-5.1,8.3    c0,0.2,0.1,0.4,0.3,0.4c0.6,0.2,1.2,0.3,2,0.3c2.1,0,4.9-0.9,7.4-2.9l0.6,0.8c0.1,0.1,0.2,0.2,0.4,0.2c0.1,0,0.2,0,0.3-0.1    l3.8-2.8c0,0,0.1-0.1,0.1-0.1l1.4,1.8c0.6,0.8,1.6,1.3,2.6,1.3c0.7,0,1.4-0.2,1.9-0.6l22.5-16.9C48.7,18.4,49,16.4,47.9,15z     M12.9,26.1c0,0,0.1-0.1,0.1-0.1l1.4,1.9c0,0-0.1,0-0.1,0.1l-3.4,2.5l-1.4-1.8L12.9,26.1z M11.5,31.3l3.4-2.5c0,0,0.1-0.1,0.1-0.1    l1.4,1.9c0,0-0.1,0-0.1,0.1l-3.4,2.5L11.5,31.3z M4.9,37.6c0-1.9,1.6-5,4.7-7.1l0.7,1c0,0,0,0,0,0s0,0,0,0l2.7,3.6    C10.2,37.4,6.8,38.1,4.9,37.6z M18.2,33.2l-3.4,2.5l-1.4-1.8l3.4-2.5c0,0,0.1-0.1,0.1-0.1l1.4,1.9C18.3,33.1,18.2,33.1,18.2,33.2z     M46.7,18.7L24.2,35.6c-1,0.7-2.4,0.5-3.1-0.4l-9.2-12.3c-0.4-0.5-0.5-1.1-0.4-1.7c0.1-0.6,0.4-1.1,0.9-1.5L34.8,2.8    c0.4-0.3,0.9-0.4,1.3-0.4c0.1,0,0.2,0,0.3,0c0.6,0.1,1.1,0.4,1.5,0.9l9.2,12.3C47.9,16.5,47.7,17.9,46.7,18.7z" fill="#FFCD00"/>
		<path d="M35.4,9.1c-0.4-0.5-1-0.9-1.6-1S32.5,8.2,32,8.6L17.6,19.3c-0.5,0.4-0.9,1-1,1.6s0.1,1.3,0.5,1.8l5.4,7.2    c0.4,0.5,1,0.9,1.6,1c0.1,0,0.2,0,0.4,0c0.5,0,1.1-0.2,1.5-0.5l14.3-10.7c1.1-0.8,1.3-2.4,0.5-3.5L35.4,9.1z M39.8,19L25.5,29.7    c-0.7,0.5-1.6,0.4-2.1-0.3L18,22.2c-0.2-0.3-0.3-0.7-0.3-1.1c0.1-0.4,0.3-0.7,0.6-1L32.6,9.4c0.3-0.2,0.6-0.3,0.9-0.3    c0.5,0,0.9,0.2,1.2,0.6l5.4,7.2C40.6,17.6,40.4,18.5,39.8,19z" fill="#FFCD00"/>
	</g>
</g>
<g id="Margin" class="st0">
	<rect x="1" y="1" class="st1" width="48" height="48" fill="#FFCD00"/>
</g>
<g id="Guides" class="st0">
</g>
<g id="LABELS">
</g>
<g id="LABELS_00000167354070485059795620000010312407947972203423_">
	<g>
		<g>
			<g>
				<g>
					<g>
						<text transform="matrix(1 0 0 1 -0.114 55.1228)" class="st2 st3">glue</text>
					</g>
				</g>
			</g>
		</g>
	</g>
</g>
</svg>