<?xml version="1.0" encoding="UTF-8"?><svg xmlns="http://www.w3.org/2000/svg" viewBox="0 0 50 50"><g id="uuid-89d6de98-9f8e-4f01-8e14-381fe1e2ebbb"><path d="M49.4,18.47l-24.45-5.89c-.08-.02-.16-.02-.24,0L.59,18.91c-.23,.06-.38,.27-.37,.5,0,.23,.17,.43,.4,.48l4.27,.84v11.82c-.36,.18-.61,.55-.61,.98,0,.2,.07,.38,.16,.54h-.16v3.38h2.22v-3.38h-.16c.09-.16,.16-.34,.16-.54,0-.43-.25-.8-.61-.98v-11.62l6.17,1.21v8.97c0,.16,.07,.3,.2,.4,.12,.09,.29,.12,.44,.08,4.13-1.14,8.38-1.72,12.6-1.69,4.11,.02,8.22,.58,12.22,1.69,.04,.01,.09,.02,.13,.02,.11,0,.21-.04,.3-.1,.12-.09,.2-.24,.2-.4v-8.87l11.27-2.78c.22-.06,.38-.26,.38-.49s-.16-.43-.38-.48Zm-12.27,11.97c-3.88-1.01-7.87-1.54-11.84-1.55-4.09-.03-8.23,.5-12.24,1.55v-9.3c3.92-1.2,7.96-1.81,12.01-1.81h.03c4.06,0,8.11,.61,12.04,1.81v9.3Zm1-9.24v-.42c0-.22-.14-.41-.35-.48-4.14-1.3-8.41-1.96-12.69-1.96h-.03c-4.27,0-8.54,.66-12.66,1.96-.21,.07-.35,.26-.35,.48v.33l-9.09-1.79,21.89-5.74,22.33,5.38-9.04,2.23Z" fill="#FFFFFF"/></g><g id="uuid-90bf77c1-39f2-4b4f-a235-bfd2429d08a6"><text transform="translate(0 54.9)" font-family="Roboto-Regular, Roboto" font-size="6"><tspan x="0" y="0">g</tspan><tspan x="3.37" y="0" letter-spacing="-.02em">r</tspan><tspan x="5.28" y="0">aduation-cap</tspan></text></g></svg>