<?xml version="1.0" encoding="UTF-8"?><svg id="uuid-7aa35678-7c10-4c00-b735-d02b4439064f" xmlns="http://www.w3.org/2000/svg" viewBox="0 0 50 50"><path d="M45.01,28.46c-1.9-1.9-4.52-2.9-7.24-2.77-1.18,.07-2.28-.69-2.58-1.79-.47-1.67-1.49-3.08-2.96-4.06-2.57-1.72-5.98-1.52-8.5,.35L12.31,8.76l.52-.52c.2-.2,.2-.51,0-.71l-.74-.74,1.03-1.03c.2-.2,.2-.51,0-.71s-.51-.2-.71,0l-1.03,1.03-1-1,1.03-1.03c.2-.2,.2-.51,0-.71s-.51-.2-.71,0l-1.03,1.03-1-1,1.03-1.03c.2-.2,.2-.51,0-.71s-.51-.2-.71,0l-1.03,1.03-.74-.74c-.2-.2-.51-.2-.71,0L1.88,6.56c-.2,.2-.2,.51,0,.71l.74,.74-1.03,1.03c-.2,.2-.2,.51,0,.71,.1,.1,.23,.15,.35,.15s.26-.05,.35-.15l1.03-1.03,1,1-1.03,1.03c-.2,.2-.2,.51,0,.71,.1,.1,.23,.15,.35,.15s.26-.05,.35-.15l1.03-1.03,1,1-1.03,1.03c-.2,.2-.2,.51,0,.71,.1,.1,.23,.15,.35,.15s.26-.05,.35-.15l1.03-1.03,.74,.74c.1,.1,.23,.15,.35,.15s.26-.05,.35-.15l.52-.52,11.43,11.43c-1.88,2.52-2.07,5.93-.35,8.5,.98,1.47,2.39,2.49,4.06,2.96,1.1,.31,1.85,1.39,1.79,2.58-.14,2.7,.87,5.34,2.77,7.24,1.86,1.86,4.31,2.79,6.75,2.79s4.89-.93,6.75-2.79l3.1-3.1c3.72-3.72,3.72-9.78,0-13.5ZM7.84,11.81L2.94,6.92l3.92-3.92,4.9,4.9-3.92,3.92Zm3.76-2.35l15.48,15.48c-.47,.2-.92,.49-1.31,.88-.39,.39-.67,.83-.88,1.31L9.42,11.65l2.18-2.18ZM30.96,26.54c1.23,1.23,1.23,3.24,0,4.47-1.23,1.23-3.24,1.23-4.47,0-1.23-1.23-1.23-3.24,0-4.47,.62-.62,1.43-.92,2.24-.92s1.62,.31,2.24,.92Zm13.35,14.72l-3.1,3.1c-3.33,3.33-8.75,3.33-12.09,0-1.7-1.7-2.6-4.06-2.48-6.48,.08-1.65-.98-3.17-2.52-3.6-1.44-.4-2.65-1.28-3.5-2.55-1.46-2.17-1.32-5.06,.23-7.23l3.76,3.76c-.15,1.23,.22,2.52,1.17,3.46,.81,.81,1.88,1.22,2.94,1.22s2.13-.41,2.94-1.22c1.62-1.62,1.62-4.26,0-5.89-.94-.94-2.23-1.32-3.46-1.17l-3.76-3.76c1.15-.82,2.5-1.25,3.84-1.25,1.19,0,2.37,.33,3.39,1.02,1.27,.85,2.15,2.06,2.55,3.5,.43,1.54,1.94,2.6,3.6,2.52,2.43-.12,4.78,.78,6.48,2.48,3.33,3.33,3.33,8.75,0,12.09Z" fill="#FFCD00"/><path d="M38.22,32.37c-.2-.2-.51-.2-.71,0l-5.2,5.2c-.2,.2-.2,.51,0,.71l2.1,2.1c.09,.09,.22,.15,.35,.15s.26-.05,.35-.15l5.2-5.2c.09-.09,.15-.22,.15-.35s-.05-.26-.15-.35l-2.1-2.1Zm-4.84,5.55l4.49-4.49,1.39,1.39-4.49,4.49-1.39-1.39Z" fill="#FFCD00"/></svg>