<?xml version="1.0" encoding="UTF-8"?><svg xmlns="http://www.w3.org/2000/svg" viewBox="0 0 50 50">
  <defs>
    <style>
      .cls-1 {
        font-family: ArialMT, Arial;
        font-size: 6px;
      }
    </style>
  </defs>
  <g id="Black">
    <path d="M44.5,14.93c-2.56-3.01-6.21-4.73-10.84-5.17-.18-1.11-1.13-1.96-2.29-1.96-1.15,0-2.09.83-2.29,1.92-5.03.37-8.81,2.05-11.21,5.03-3.27,4.06-2.95,9.15-2.79,10.5l-12.06,7.63-.04.03c-.82.45-1.3,1.24-1.42,2.31-.09.84.16,2.34,2.83,3.03,2.92.75,8.5.23,9.67-1.1,1.17.82,2.21,1.69,2.98,2.54,1.39,1.54,2.93,2.01,4.27,2.01,2.03,0,3.63-1.06,3.65-1.06l11.11-6.69c5.03,1.48,10.96.58,11.21.54.2-.03.37-.19.41-.39,1.69-7.81.53-14.79-3.19-19.17ZM31.36,8.8c.58,0,1.06.37,1.24.89-.64-.03-2.35-.02-2.48-.02.19-.5.67-.87,1.24-.87ZM18.65,15.37c2.3-2.86,6.01-4.44,11.02-4.7.3-.02.57,0,.86-.01.57.12,2.43.61,4.23,1.95,2.04,1.54,4,4.12,4.01,8.7,0,2.95-.84,6.74-3.08,11.57-1.23-.1-5.92-.73-11.86-4.62-2.81-1.83-6.63-2.87-7.77-3.16-.13-1.26-.39-6.04,2.59-9.73ZM4.11,37.12c-1.68-.59-1.59-1.5-1.55-1.79.09-.85.47-1.39,1.16-1.66.68-.22,3.45-.7,9.49,2.93h0c-.89.7-6.15,1.57-9.1.53ZM24.43,39.8c-.15.1-3.75,2.45-6.64-.77-2.54-2.83-8.33-6.24-12.27-6.54l10.18-6.45h0c.93.22,4.88,1.28,7.58,3.06,4.94,3.24,9.08,4.3,11.2,4.64l-10.05,6.06ZM46.79,33.55c-1.29.16-6.01.62-10.09-.47,2.2-4.82,3.07-8.68,3.07-11.77,0-5.04-2.32-8.02-4.63-9.66-.5-.36-1-.64-1.47-.89,4.32.44,7.7,2.04,10.07,4.82,3.46,4.07,4.57,10.61,3.05,17.97Z" fill="#FFCD00"/>
  </g>
  <g id="Labels">
    <text class="cls-1" transform="translate(.08 54.48)"><tspan x="0" y="0">Hat</tspan></text>
  </g>
</svg>