<?xml version="1.0" encoding="UTF-8"?><svg xmlns="http://www.w3.org/2000/svg" viewBox="0 0 50 50"><g id="uuid-0058b691-383b-4026-b648-99639e610529"><path d="M45.57,7.18c-5.08-5.08-13.35-5.08-18.43,0l-2.4,2.4-2.39-2.4C17.27,2.1,9.01,2.1,3.93,7.18,1.46,9.65,.11,12.92,.11,16.4s1.36,6.75,3.82,9.21l20.47,20.47c.09,.09,.22,.15,.35,.15s.26-.05,.35-.15l20.47-20.47c2.46-2.46,3.82-5.73,3.82-9.21s-1.36-6.75-3.82-9.21Zm-23.93,.71l2.75,2.75c.09,.09,.22,.15,.35,.15s.26-.05,.35-.15l2.75-2.75c4.69-4.69,12.32-4.69,17.01,0,2.27,2.27,3.52,5.29,3.52,8.51s-1.25,6.23-3.52,8.51l-20.12,20.12L4.63,24.91c-2.27-2.27-3.52-5.29-3.52-8.51s1.25-6.23,3.52-8.51,5.43-3.52,8.51-3.52,6.16,1.17,8.51,3.52Z"/></g><g id="uuid-f3f3893d-84df-41e5-bf03-8ac41c8b8d60"><text transform="translate(.17 55.08)" font-family="Roboto-Regular, Roboto" font-size="6"><tspan x="0" y="0">hea</tspan><tspan x="9.75" y="0" letter-spacing=".02em">r</tspan><tspan x="11.92" y="0">t</tspan></text></g></svg>