<?xml version="1.0" encoding="UTF-8"?><!-- Generator: Adobe Illustrator 27.7.0, SVG Export Plug-In . SVG Version: 6.00 Build 0)  --><svg version="1.1" id="Layer_1" xmlns="http://www.w3.org/2000/svg" xmlns:xlink="http://www.w3.org/1999/xlink" x="0px" y="0px" viewBox="0 0 50 50" style="enable-background:new 0 0 50 50;" xml:space="preserve">
<style type="text/css">
	.st0{display:none;}
	.st1{display:inline;fill:none;stroke:#EA008A;stroke-width:0.2;stroke-miterlimit:10;}
	.st2{font-family:'Roboto-Regular';}
	.st3{font-size:6px;}
</style>
<g id="ICONS_00000031165542127692736420000002692518830807990202_">
	<path d="M43.6455,18.4966c0.3955-4.9219-0.8193-8.9502-3.6104-11.9736C36.7861,3.002,31.4463,1.063,25,1.063   S13.2139,3.002,9.9648,6.523c-2.791,3.0234-4.0059,7.0518-3.6104,11.9736c0.5371,6.6926,6.9938,13.9654,12.5854,19.5692   l2.6899,5.6548v4.7164c0,0.2764,0.2236,0.5,0.5,0.5h5.7402c0.2764,0,0.5-0.2236,0.5-0.5v-4.7164l2.6899-5.6548   C36.6517,32.462,43.1084,25.1892,43.6455,18.4966z M27.5546,43.1084h-5.1091l-2.2997-4.8345h1.3162h7.0762h1.3162L27.5546,43.1084z    M25.5,2.0857c2.6603,0.1143,4.9817,1.1248,6.7295,2.9626c2.6836,2.8218,3.9443,7.4497,3.6465,13.3828   c-0.3584,7.1089-5.3281,15.187-7.6152,18.8428H25.5V2.0857z M24.5,37.2739h-2.7607c-2.2871-3.6558-7.2568-11.7339-7.6152-18.8423   C13.8262,12.498,15.087,7.8701,17.7706,5.0483C19.5183,3.2104,21.8397,2.2,24.5,2.0857V37.2739z M39.3008,7.2012   c2.5938,2.8101,3.7197,6.5835,3.3486,11.2153c-0.5713,7.1138-8.6104,15.2505-12.2109,18.8574h-1.0021   c3.3906-5.491,7.1168-12.4208,7.4377-18.7925c0.3125-6.2139-1.043-11.0972-3.9199-14.1226   c-0.6131-0.6447-1.2955-1.1866-2.0258-1.6462C34.4081,3.5103,37.2949,5.0281,39.3008,7.2012z M10.6992,7.2012   c2.006-2.1731,4.8926-3.691,8.3726-4.4886c-0.7303,0.4596-1.4128,1.0016-2.0259,1.6463c-2.877,3.0254-4.2324,7.9087-3.9199,14.123   c0.3209,6.3712,4.0471,13.301,7.4377,18.792h-1.0021C15.9609,33.667,7.9219,25.5303,7.3506,18.4165   C6.9795,13.7847,8.1055,10.0112,10.6992,7.2012z M27.3701,47.937h-4.7402v-3.8286h4.7402V47.937z" fill="#FFFFFF"/>
</g>
<g id="Margin" class="st0">
	<rect x="1" y="1" class="st1" width="48" height="48" fill="#FFFFFF"/>
</g>
<g id="Guides" class="st0">
</g>
<g id="LABELS">
	<g>
		<g>
			<g>
				<g>
					<g>
						<g>
							<text transform="matrix(1 0 0 1 0 55.1226)" class="st2 st3">hot-air-ballon</text>
						</g>
					</g>
				</g>
			</g>
		</g>
	</g>
</g>
</svg>