<?xml version="1.0" encoding="UTF-8"?><svg xmlns="http://www.w3.org/2000/svg" viewBox="0 0 50 50"><g id="uuid-16c60f55-2894-488a-bc72-65dccb6e2e2c"><path d="M48.52,20.08l-11.94-4.68c.02-3.03-2.01-5.69-4.99-6.4-3.33-.79-6.79,1.13-7.87,4.37l-1.05,2.93L6.84,7.7c-.16-.09-.37-.08-.52,.03-.15,.11-.24,.29-.21,.47,.3,2.42,.85,4.85,1.61,7.15l-5.94-1.44c-.18-.05-.37,.02-.5,.16s-.16,.34-.09,.51c3.36,8.38,10.19,16.05,16.19,16.45l-3.64,10.18c-.06,.17-.03,.35,.09,.49,.1,.12,.24,.18,.38,.18,.03,0,.05,0,.08,0,7.34-1.18,12.19-3.3,14.41-6.31,2.05-2.78,1.65-5.81,1.26-8.73-.42-3.16-.82-6.14,2.05-8.5,1.05-.87,2.41-1.56,4.04-2.06l12.08,4.73c.06,.02,.12,.03,.18,.03,.2,0,.39-.12,.47-.32,.1-.26-.03-.55-.28-.65Zm-19.53,6.9c.38,2.85,.74,5.55-1.08,8-1.98,2.68-6.32,4.62-12.93,5.78l3.48-9.73c.58-.05,1.15-.15,1.71-.35,4.16-1.53,5.57-7.77,5.99-10.39,.04-.26-.12-.5-.38-.56l-3.02-.73,1.9-5.3c.79-2.34,3.02-3.87,5.4-3.87,.43,0,.86,.05,1.29,.15,2.47,.59,4.25,2.88,4.24,5.4-1.68,.54-3.09,1.28-4.2,2.19-3.3,2.72-2.84,6.12-2.41,9.41Zm-7.2-8.21l-12.98-3.15c-.68-1.99-1.22-4.18-1.57-6.57l15.09,8.2-.54,1.51Zm3.31,1.83c-.47,2.64-1.81,7.88-5.27,9.15-4.69,1.72-12.65-3.74-17.32-14.62l22.58,5.47Z"/></g><g id="uuid-a6dfffe3-fbb1-462c-be27-4446cdf856b1"><text transform="translate(0 54.89)" font-family="Roboto-Regular, Roboto" font-size="6"><tspan x="0" y="0">hummingbi</tspan><tspan x="30.08" y="0" letter-spacing="0em">r</tspan><tspan x="32.06" y="0">d</tspan></text></g></svg>