<?xml version="1.0" encoding="UTF-8"?><svg xmlns="http://www.w3.org/2000/svg" viewBox="0 0 50 50">
  <defs>
    <style>
      .cls-1 {
        fill: #1f1c1d;
      }

      .cls-2 {
        fill: #221f1f;
        font-family: Roboto-Regular, Roboto;
        font-size: 5px;
      }

      .cls-3 {
        letter-spacing: -.02em;
      }

      .cls-4 {
        letter-spacing: 0em;
      }

      .cls-5 {
        letter-spacing: 0em;
      }
    </style>
  </defs>
  <g id="Icon_Outline">
    <g>
      <path class="cls-1" d="M49.54,15.12c-.24-.13-.54-.03-.67.21l-2.13,4.13c-2.53-9.97-10.96-16.92-21.74-16.92S4.95,10.22,2.95,20.81c-.05.27.13.53.4.58.03.01.06.01.09.01.24,0,.45-.17.49-.41C5.84,10.88,15.09,3.54,25,3.54s18.46,6.71,20.82,16.32l-4.12-2.52c-.23-.15-.54-.07-.69.16-.14.24-.07.55.17.69l5.12,3.14c.08.04.17.07.26.07.05,0,.09,0,.14-.02.13-.04.24-.13.31-.25l2.75-5.34c.13-.24.03-.55-.22-.67Z" fill="#FFFFFF"/>
      <path class="cls-1" d="M46.65,28.61c-.26-.05-.53.13-.58.4-1.91,10.11-11.16,17.45-21.07,17.45S6.55,39.75,4.18,30.14l4.12,2.52c.23.14.54.07.69-.16.14-.24.07-.55-.17-.69l-5.12-3.14c-.12-.07-.26-.09-.4-.05-.13.04-.24.13-.31.25L.24,34.21c-.13.24-.03.54.22.67.07.04.15.06.22.06.19,0,.36-.1.45-.27l2.13-4.13c2.53,9.97,10.96,16.92,21.74,16.92s20.05-7.68,22.05-18.27c.05-.27-.13-.53-.4-.58Z" fill="#FFFFFF"/>
      <path class="cls-1" d="M25.02,39.22c5.9,0,10.7-4.82,10.69-10.72,0-1.7-.4-3.33-1.18-4.85h0s-.02-.04-.03-.06c-.14-.26-.29-.52-.45-.77l-8.65-13.94c-.09-.15-.25-.24-.42-.24h0c-.17,0-.33.09-.42.24l-8.61,13.96c-.16.25-.31.51-.47.82-.02.03-.03.06-.04.09-.75,1.51-1.13,3.12-1.13,4.79,0,5.9,4.81,10.69,10.7,10.69h.01ZM15.3,28.53c0-1.54.35-3.02,1.06-4.4,0-.02.02-.04.02-.06h0c.13-.24.26-.47.41-.71l8.19-13.27,8.22,13.25c.13.21.26.42.41.7,0,.02.02.04.03.06.71,1.38,1.07,2.86,1.07,4.4,0,5.35-4.34,9.71-9.69,9.71h-.01c-2.59,0-5.02-1.01-6.85-2.83-1.83-1.83-2.85-4.27-2.85-6.86Z" fill="#FFFFFF"/>
      <path class="cls-1" d="M30.03,23.86c-.09-.17-.26-.27-.44-.27h-3.93s2.37-3.73,2.37-3.73c.1-.15.1-.35.01-.51-.09-.16-.25-.26-.44-.26h-3.96c-.17,0-.33.09-.42.24l-4.07,6.52c-.1.15-.1.35-.01.51.09.16.26.26.44.26h4.18s-2.33,8.18-2.33,8.18c-.07.23.04.48.26.59.07.03.14.05.22.05.16,0,.31-.08.41-.21l7.68-10.85c.11-.15.12-.35.04-.52ZM23.18,32.26l1.71-6.01c.04-.15.01-.31-.08-.44-.09-.12-.24-.2-.4-.2h-3.94s3.45-5.51,3.45-5.51h2.77s-2.37,3.73-2.37,3.73c-.1.15-.1.35-.02.51.09.16.26.26.44.26h3.87s-5.43,7.66-5.43,7.66Z" fill="#FFFFFF"/>
    </g>
  </g>
  <g id="Names">
    <text class="cls-2" transform="translate(.32 53.87)"><tspan x="0" y="0">h</tspan><tspan class="cls-5" x="2.75" y="0">y</tspan><tspan x="5.09" y="0">d</tspan><tspan class="cls-3" x="7.91" y="0">r</tspan><tspan x="9.5" y="0">aulic-</tspan><tspan class="cls-4" x="21.4" y="0">r</tspan><tspan x="23.05" y="0">enewable</tspan></text>
  </g>
</svg>