<?xml version="1.0" encoding="UTF-8"?><svg xmlns="http://www.w3.org/2000/svg" viewBox="0 0 50 50">
  <defs>
    <style>
      .cls-1 {
        fill: #1f1c1d;
      }

      .cls-2 {
        fill: #221f1f;
        font-family: Roboto-Regular, Roboto;
        font-size: 5px;
      }

      .cls-3 {
        letter-spacing: -.02em;
      }

      .cls-4 {
        letter-spacing: 0em;
      }

      .cls-5 {
        letter-spacing: 0em;
      }
    </style>
  </defs>
  <g id="Icon_Outline">
    <g>
      <path class="cls-1" d="M48.22,24.24h0s-.02-.04-.03-.06c-.14-.27-.29-.53-.45-.77l-8.8-15.25c-.18-.31-.69-.31-.87,0l-4.93,8.54-7.7-13.34c-.18-.31-.69-.31-.87,0l-7.71,13.35-4.94-8.55c-.18-.31-.69-.31-.87,0L2.27,23.39c-.16.26-.31.52-.48.83-.02.03-.03.06-.04.09-.77,1.54-1.16,3.18-1.16,4.88,0,6.01,4.89,10.91,10.91,10.91.36,0,.7-.03,1.05-.07,2.63,4.12,7.22,6.87,12.46,6.87s9.83-2.75,12.46-6.86c.34.04.69.06,1.04.06,6.01,0,10.91-4.89,10.91-10.91,0-1.73-.4-3.39-1.19-4.95ZM11.5,39.09c-5.46,0-9.91-4.44-9.91-9.91,0-1.57.37-3.08,1.08-4.49,0-.02.02-.04.03-.06h0c.13-.25.27-.48.42-.73l8.37-14.5,4.79,8.3-3.78,6.55c-.22.35-.43.7-.66,1.14-.02.03-.03.06-.04.1-1.05,2.08-1.58,4.31-1.58,6.62,0,2.51.63,4.88,1.74,6.95-.16,0-.32.02-.48.02ZM25,45.89c-7.6,0-13.78-6.18-13.78-13.78,0-2.18.51-4.29,1.51-6.25,0-.02.02-.04.02-.05,0-.01.01-.03.02-.03.18-.34.37-.67.58-1.01L25,4.61l11.65,20.18c.2.32.4.66.58,1,0,0,0,.01.01.02,0,.02.02.04.03.06,1,1.96,1.51,4.06,1.51,6.25,0,7.6-6.18,13.78-13.78,13.78ZM38.5,39.09c-.16,0-.31-.02-.47-.02,1.11-2.07,1.75-4.44,1.75-6.95,0-2.34-.54-4.6-1.62-6.7h0s-.02-.06-.04-.09c-.19-.37-.4-.72-.61-1.05l-3.8-6.58,4.79-8.29,8.38,14.51c.14.21.26.43.42.71,0,.02.02.04.03.06.72,1.41,1.08,2.92,1.08,4.49,0,5.46-4.44,9.91-9.91,9.91Z" fill="#FFCD00"/>
      <path class="cls-1" d="M32.32,24.86h-6.16l3.69-5.8c.1-.15.1-.35.02-.51-.09-.16-.26-.26-.44-.26h-5.78c-.17,0-.33.09-.42.24l-5.96,9.52c-.1.15-.1.35-.01.51s.26.26.44.26h6.42l-3.51,12.25c-.07.23.04.48.26.59.07.03.14.05.22.05.16,0,.31-.07.41-.21l11.25-15.84c.11-.15.12-.35.04-.52s-.26-.27-.44-.27ZM22.36,38.53l2.89-10.07c.04-.15.01-.31-.08-.44-.09-.13-.24-.2-.4-.2h-6.18l5.33-8.52h4.6l-3.69,5.8c-.1.15-.1.35-.02.51s.26.26.44.26h6.1l-8.99,12.66Z" fill="#FFCD00"/>
    </g>
  </g>
  <g id="Names">
    <text class="cls-2" transform="translate(.11 53.87)"><tspan x="0" y="0">h</tspan><tspan class="cls-5" x="2.75" y="0">y</tspan><tspan x="5.09" y="0">d</tspan><tspan class="cls-3" x="7.91" y="0">r</tspan><tspan x="9.5" y="0">aulic-ene</tspan><tspan class="cls-4" x="29.46" y="0">r</tspan><tspan x="31.1" y="0">gy</tspan></text>
  </g>
</svg>