<?xml version="1.0" encoding="UTF-8"?>
<svg xmlns="http://www.w3.org/2000/svg" viewBox="0 0 50 50">
  <defs>
    <style>
      .cls-1 {
        fill: #1f1c1d;
      }

      .cls-2 {
        fill: #221f1f;
        font-family: Roboto-Regular, Roboto;
        font-size: 5px;
      }

      .cls-3 {
        letter-spacing: -.02em;
      }

      .cls-4 {
        letter-spacing: 0em;
      }

      .cls-5 {
        letter-spacing: 0em;
      }
    </style>
  </defs>
  <g id="Icon_Outline">
    <g>
      <path class="cls-1" d="M9.64,32.19c-.2-2.6.73-4.61,1.31-5.58.14-.24.06-.54-.17-.68-.24-.14-.54-.06-.68.17-.63,1.07-1.67,3.29-1.44,6.17.24,3.06,1.75,5.18,2.62,6.17.1.11.24.17.37.17.12,0,.24-.04.33-.13.21-.18.23-.5.04-.71-.79-.9-2.16-2.81-2.38-5.58Z"/>
      <path class="cls-1" d="M21.29,23.21c1.19,2.08,3.14,3.46,5.31,3.98,2.03.5,4.24.25,6.19-.87,1.95-1.12,3.35-2.93,3.94-5.1s.29-4.44-.82-6.39c-2.31-4.03-7.47-5.42-11.49-3.11-1.95,1.12-3.35,2.93-3.94,5.1-.59,2.17-.29,4.44.82,6.39ZM21.43,17.08c.52-1.91,1.75-3.51,3.47-4.5,1.72-.99,3.67-1.21,5.45-.77,1.91.47,3.62,1.68,4.68,3.51.99,1.72,1.24,3.72.73,5.63-.52,1.91-1.75,3.51-3.47,4.5-3.55,2.04-8.09.81-10.13-2.74-.99-1.72-1.24-3.72-.73-5.63Z"/>
      <path class="cls-1" d="M46.39,44.68l-8.42-14.68c.11-.07.19-.17.22-.29.03-.13.02-.27-.05-.38l-1.42-2.47h0c3.18-3.31,4.11-8.33,2.11-12.61-.14-.29-.28-.58-.44-.86-.09-.15-.18-.28-.28-.43-2.99-4.7-8.95-6.49-13.99-4.32l-3.72-6.44c-.18-.31-.69-.31-.87,0L7.34,23.34c-.22.35-.43.71-.66,1.15-.02.03-.03.06-.04.1-1.06,2.11-1.6,4.36-1.6,6.7,0,8.24,6.7,14.95,14.95,14.95,7.11,0,13.04-5,14.55-11.66l7.3,12.72c.07.12.19.21.32.24.12.03.25.01.37-.05l3.69-2.12c.12-.07.2-.18.23-.3.03-.13.02-.27-.05-.38ZM37.03,29.4l-3.41,1.96-.26.15-1.04-1.81h0c.65-.23,1.29-.52,1.9-.87.64-.37,1.22-.79,1.76-1.25l1.05,1.82ZM23.73,9.94h0c.3-.16.6-.3.91-.43,2.08-.87,4.32-1.01,6.4-.5,2.65.65,5.04,2.33,6.5,4.88,2.83,4.93,1.12,11.25-3.81,14.08-2.39,1.37-5.17,1.74-7.83,1.01-2.66-.72-4.88-2.43-6.25-4.82-2.83-4.93-1.12-11.25,3.81-14.07.09-.05.18-.09.27-.14ZM19.98,45.24c-7.69,0-13.95-6.26-13.95-13.95,0-2.21.51-4.33,1.53-6.32,0-.02.02-.03.02-.05,0-.01.01-.03.02-.03.18-.35.38-.68.59-1.03L19.98,3.45l3.25,5.62c-.09.05-.18.09-.27.14-.32.19-.63.39-.93.6-1.36.97-2.44,2.2-3.23,3.58-.17.3-.33.6-.47.91-.59,1.3-.94,2.7-1.02,4.12-.02.34-.02.68-.01,1.03.07,1.77.54,3.55,1.48,5.19,1.5,2.62,3.94,4.5,6.85,5.29.09.03.18.05.28.07,1.81.44,3.66.43,5.42-.02.13-.03.26-.08.39-.12-.13.04-.26.08-.39.12l1.4,2.44c.07.12.19.21.31.24.08.02.17.01.26-.01.03,0,.07-.02.1-.03l.36.63c-.96,6.76-6.77,11.98-13.79,11.98ZM42.45,46.37l-8.17-14.24,2.83-1.62,8.17,14.24-2.83,1.62Z"/>
      <path class="cls-1" d="M24.41,22.38c.06,0,.11-.02.16-.05.22-.12.3-.39.18-.61-.33-.61-.84-1.87-.54-3.43.35-1.84,1.58-2.9,2.09-3.27.2-.14.25-.42.1-.62-.14-.2-.42-.25-.62-.1-.6.43-2.05,1.67-2.45,3.83-.34,1.84.25,3.31.64,4.02.09.16.27.25.44.23Z"/>
    </g>
  </g>
  <g id="Names">
    <text class="cls-2" transform="translate(.52 53.87)"><tspan x="0" y="0">h</tspan><tspan class="cls-5" x="2.75" y="0">y</tspan><tspan x="5.09" y="0">d</tspan><tspan class="cls-3" x="7.91" y="0">r</tspan><tspan x="9.5" y="0">aulic-</tspan><tspan class="cls-4" x="21.4" y="0">r</tspan><tspan x="23.05" y="0">esea</tspan><tspan class="cls-4" x="33.64" y="0">r</tspan><tspan x="35.29" y="0">ch</tspan></text>
  </g>
</svg>