<?xml version="1.0" encoding="UTF-8"?><svg xmlns="http://www.w3.org/2000/svg" viewBox="0 0 50 50">
  <defs>
    <style>
      .cls-1 {
        fill: #1f1c1d;
      }

      .cls-2 {
        fill: #221f1f;
        font-family: Roboto-Regular, Roboto;
        font-size: 5px;
      }

      .cls-3 {
        letter-spacing: 0em;
      }

      .cls-4 {
        letter-spacing: 0em;
      }
    </style>
  </defs>
  <g id="Icon_Outline">
    <path class="cls-1" d="M44.33,21.99c-1.53,0-2.78,1.15-2.97,2.63h-16.67v-2.64s.01,0,.02,0h13.5c.28,0,.5-.22.5-.5s-.22-.5-.5-.5h-13.5s-.01,0-.02,0v-2.65h10.54c.61,0,1.18-.24,1.62-.67l2.13-2.13c.49.35,1.09.56,1.74.56,1.66,0,3.01-1.35,3.01-3.01s-1.35-3.01-3.01-3.01-3.01,1.35-3.01,3.01c0,.65.21,1.25.56,1.74l-2.13,2.13c-.24.24-.57.38-.91.38h-10.54v-2.62h9.42c.28,0,.5-.22.5-.5v-3.63c0-.28-.22-.5-.5-.5s-.5.22-.5.5v3.13h-8.92v-2.66h5.43c.28,0,.5-.22.5-.5v-1.97c1.42-.24,2.51-1.47,2.51-2.96,0-1.66-1.35-3.01-3.01-3.01s-3.01,1.35-3.01,3.01c0,1.49,1.09,2.72,2.51,2.96v1.47h-4.93V1.8c0-.19-.1-.36-.27-.45h.01c-1.06-.54-2.2-.82-3.38-.82-3.91,0-7.12,3.03-7.4,6.95-.2-.02-.39-.03-.58-.03-4.09,0-7.42,3.33-7.42,7.42,0,1.68.56,3.29,1.6,4.6-2.51,1.25-4.09,3.78-4.09,6.63,0,3.17,1.99,5.94,4.93,6.98-.9,1.26-1.39,2.76-1.39,4.31,0,3.86,2.95,7.05,6.76,7.38,1.43,2.86,4.37,4.7,7.58,4.7,1.16,0,2.29-.23,3.35-.69.18-.08.3-.26.3-.46v-8.38h4.93v1.47c-1.42.24-2.51,1.47-2.51,2.96,0,1.66,1.35,3.01,3.01,3.01s3.01-1.35,3.01-3.01c0-1.49-1.09-2.72-2.51-2.96v-1.97c0-.28-.22-.5-.5-.5h-5.43v-2.66h8.92v3.13c0,.28.22.5.5.5s.5-.22.5-.5v-3.63c0-.28-.22-.5-.5-.5h-9.42v-2.62h10.54c.34,0,.67.13.91.38l2.13,2.13c-.35.49-.56,1.09-.56,1.74,0,1.66,1.35,3.01,3.01,3.01s3.01-1.35,3.01-3.01-1.35-3.01-3.01-3.01c-.65,0-1.25.21-1.74.56l-2.13-2.13c-.43-.43-1-.67-1.62-.67h-10.54v-2.65s.01,0,.02,0h13.5c.28,0,.5-.22.5-.5s-.22-.5-.5-.5h-13.5s-.01,0-.02,0v-2.39h16.7c.29,1.36,1.5,2.39,2.94,2.39,1.66,0,3.01-1.35,3.01-3.01s-1.35-3.01-3.01-3.01ZM40.72,11.09c1.11,0,2.01.9,2.01,2.01s-.9,2.01-2.01,2.01-2.01-.9-2.01-2.01.9-2.01,2.01-2.01ZM28.11,5.63c0-1.11.9-2.01,2.01-2.01s2.01.9,2.01,2.01-.9,2.01-2.01,2.01-2.01-.9-2.01-2.01ZM32.13,44.37c0,1.11-.9,2.01-2.01,2.01s-2.01-.9-2.01-2.01.9-2.01,2.01-2.01,2.01.9,2.01,2.01ZM42.73,36.9c0,1.11-.9,2.01-2.01,2.01s-2.01-.9-2.01-2.01.9-2.01,2.01-2.01,2.01.9,2.01,2.01ZM23.72,22.01v13.25c-.46-.11-1.08-.35-1.52-.94-.69-.92-.65-2.29.09-3.34.16-.22.11-.54-.12-.7-.22-.16-.54-.11-.7.12-1.01,1.42-1.04,3.24-.08,4.52.7.93,1.69,1.25,2.32,1.37v11.73c-.85.32-1.74.49-2.65.49v-.03c-2.91,0-5.57-1.71-6.79-4.34-.12-.5-.25-1.43.19-2.39.56-1.23,1.84-2.04,3.35-2.15.02.04.04.08.07.12.59.89,1.53,1.12,1.91,1.18h.08c.24,0,.46-.18.49-.42.04-.27-.14-.53-.42-.57-.19-.03-.85-.17-1.23-.74-.42-.63-.36-1.52.16-2.22.17-.22.12-.54-.1-.7-.22-.16-.54-.12-.7.1-.51.69-.71,1.52-.59,2.29-1.76.21-3.24,1.21-3.92,2.69-.41.89-.44,1.76-.36,2.41-3.12-.46-5.48-3.13-5.48-6.34,0-1.48.53-2.89,1.46-4.04.26.04.54.06.86.06.66,0,1.42-.1,2.23-.42,1.54-.6,2.48-1.68,2.98-2.45.27.22.6.45,1.02.62.51.2.99.27,1.4.27.27,0,.52-.03.72-.07.27-.05.45-.31.4-.59-.05-.27-.31-.45-.59-.4-.3.06-.9.12-1.55-.15-.54-.22-.9-.56-1.11-.81,0,0-.05-.04-.07-.06-.03-.02-.05-.05-.08-.07,0,0-.02,0-.04-.01-.05-.02-.1-.04-.15-.04h-.07s-.08,0-.12.02c-.03,0-.06.03-.09.05-.03.01-.06.02-.08.04,0,0-.03.04-.05.06-.03.03-.06.06-.08.09-.28.55-1.11,1.91-2.79,2.56-1.13.44-2.17.38-2.85.26-2.88-.71-4.89-3.26-4.89-6.23,0-2.57,1.5-4.82,3.83-5.85.59.49,1.6,1.13,2.99,1.26.17.02.34.02.5.02.97,0,1.76-.26,2.29-.5.25-.12.36-.41.25-.66-.12-.25-.41-.36-.66-.25-.5.23-1.3.49-2.28.39-1.32-.12-2.23-.81-2.65-1.21-1.15-1.2-1.78-2.77-1.78-4.42,0-3.54,2.88-6.42,6.42-6.42.29,0,.59.03.94.08.67.22,1.62.68,2.4,1.62.4.48.68,1.03.89,1.62-1.08.64-1.49,1.68-1.6,2.01-.08.26.06.54.33.63.05.02.1.02.15.02.21,0,.41-.14.48-.35.06-.19.42-1.18,1.46-1.61.91-.38,1.74-.1,1.98,0,.26.1.55-.02.65-.27.1-.26-.02-.55-.27-.65-.36-.15-1.22-.41-2.23-.16-.25-.69-.6-1.32-1.07-1.88-.82-.99-1.78-1.51-2.54-1.81.13-3.42,2.95-6.17,6.41-6.17.92,0,1.81.19,2.65.58v18.89c-.32-.01-.53.01-.53.01-.66.07-1.48.26-2.33.7-.53-.37-1.05-.78-1.51-1.24-.61-.6-1.17-1.26-1.65-1.97-.16-.23-.48-.27-.69-.14-.23.16-.29.47-.14.69.52.76,1.12,1.48,1.78,2.13.41.39.84.75,1.29,1.08-1.11.81-1.76,1.81-2.09,2.51-.12.25-.02.55.23.67.15.07.32.06.46-.01.09-.05.16-.12.21-.22.3-.62.88-1.52,1.89-2.22.13-.09.27-.17.41-.26h0c1-.57,2-.73,2.66-.75v.03ZM44.33,27.01c-1.11,0-2.01-.9-2.01-2.01s.9-2.01,2.01-2.01,2.01.9,2.01,2.01-.9,2.01-2.01,2.01Z" fill="#FFCD00"/>
  </g>
  <g id="Names">
    <text class="cls-2" transform="translate(0 53.99)"><tspan x="0" y="0">inte</tspan><tspan class="cls-3" x="8.25" y="0">r</tspan><tspan x="9.9" y="0">disciplina</tspan><tspan class="cls-4" x="31.05" y="0">r</tspan><tspan x="32.79" y="0">y</tspan></text>
  </g>
</svg>