<?xml version="1.0" encoding="UTF-8"?><svg xmlns="http://www.w3.org/2000/svg" viewBox="0 0 50 50">
  <defs>
    <style>
      .cls-1 {
        fill: #1f1c1d;
      }

      .cls-2 {
        fill: #221f1f;
        font-family: Roboto-Regular, Roboto;
        font-size: 5px;
      }
    </style>
  </defs>
  <g id="Icon_Outline">
    <g>
      <path class="cls-1" d="M35.18,8.14c-.07-.07-.14-.12-.23-.14-1.52-.89-3.18-1.58-4.92-2.05-.03-.01-.05-.03-.07-.04-.07-.02-.13-.03-.2-.03-1.52-.38-3.11-.6-4.75-.6C14.12,5.28,5.27,14.13,5.27,25.01s8.85,19.73,19.73,19.73,18.86-8.03,19.65-18.18c.01-.05.01-.1,0-.16.03-.46.07-.92.07-1.39,0-7.15-3.84-13.41-9.55-16.87ZM25,6.28c1.39,0,2.75.16,4.05.45-.16.26-.34.46-.56.58-.28.16-.51.16-.88.16-.39,0-.88,0-1.53.2-.65.2-1.08.5-1.87,1.02-.63.42-1.01.75-1.26.97-.12.11-.26.23-.31.25-.39-.05-.92-1.19-1.16-2.49-.05-.26-.07-.52-.08-.78,1.17-.23,2.37-.36,3.61-.36ZM13.38,10.35c.52-.33.98-.44,1.21-.31.08.04.19.15.2.22-.01.05-.14.18-.22.27-.21.22-.5.52-.69,1-.3.75-.28,1.44.05,1.94.46.71,1.55,1.02,2.38.67.59-.25.83-.75,1-1.12.15-.32.23-.45.37-.49.27-.08.72.15.95.53.2.49,0,1.1-.08,1.35-.3.94-.11,1.69.03,2.23.08.32.13.54.07.6-.2.19-.88.07-1.29,0-.63-.11-1.28-.22-1.53.33-.17.35.03.66.13.81.01.02.03.04.04.06-.11.05-.33.1-.48.14-.53.13-1.18.29-1.49.88-.34.65-.06,1.33.17,1.88.21.5.33.84.19,1.05-.05.08-.13.15-.19.18-.06-.14-.13-.44-.17-.62-.13-.63-.3-1.41-.97-1.69-.77-.32-1.59.28-2.01.66-.48.44-.79,1.03-.9,1.71-.14.9.18,1.59.56,2.39.57,1.23.92,1.97,1.68,2.41.71.41,1.33.32,1.87.23.48-.08.94-.15,1.56.1.36.14.5.28.7.48.24.24.54.55,1.23.91.73.38,1.29.5,1.69.58.43.09.53.13.64.28.34.5.12,1.6-.45,2.21-.21.23-.39.3-.61.38-.28.11-.63.24-.92.68-.33.5-.29.94-.25,1.44.03.35.07.79.02,1.44-.04.62-.13.97-.2,1.22-.08.33-.15.61,0,1.04.31.85,1.15,1.28,1.92,1.53-.54-.01-1.17-.13-1.74-.48-.44-.26-.69-.57-1.18-1.19-.6-.76-1.29-1.89-1.97-3.23-.13-.26-.53-1.06-1.39-1.52-.11-.06-.18-.08-.28-.12-.59-.38-.71-1.3-.78-1.8-.11-.8.01-1.28.12-1.71.11-.44.22-.9.04-1.5-.31-.99-1.13-1.41-1.92-1.82-.33-.17-.67-.35-.99-.57-1.41-.98-2.29-2.89-2.62-5.66,1.03-4.02,3.35-7.51,6.5-10.02ZM25,43.73c-10.33,0-18.73-8.4-18.73-18.73,0-.69.04-1.37.12-2.04.53,1.77,1.37,3.08,2.53,3.88.37.26.76.46,1.11.64.79.4,1.24.66,1.42,1.22.1.33.04.57-.05.96-.12.49-.27,1.1-.14,2.08.08.61.25,1.88,1.23,2.51.1.06.17.09.24.12.03,0,.05.02.1.05.58.31.86.88.99,1.13.69,1.36,1.42,2.56,2.06,3.37.53.67.84,1.07,1.44,1.42.76.46,1.61.62,2.36.62.66,0,1.23-.13,1.58-.31.29-.15.44-.34.46-.58.05-.56-.52-.7-1.12-.86-.7-.18-1.77-.46-2.01-1.12-.05-.13-.04-.17.03-.45.07-.27.17-.69.23-1.4.05-.73,0-1.24-.02-1.6-.04-.47-.05-.6.08-.8.12-.18.22-.22.45-.3.26-.1.61-.24.98-.63.81-.87,1.23-2.46.55-3.45-.34-.5-.79-.6-1.26-.7-.37-.08-.82-.18-1.44-.49-.55-.28-.77-.51-.98-.72-.24-.24-.48-.49-1.05-.71-.87-.34-1.54-.24-2.08-.15-.49.08-.81.13-1.22-.11-.47-.27-.72-.77-1.28-1.97-.37-.8-.56-1.25-.48-1.82.07-.45.27-.84.58-1.13.43-.39.81-.53.95-.48.19.08.3.6.38.97.13.6.27,1.28.9,1.42.52.12,1.02-.26,1.27-.65.43-.67.13-1.39-.11-1.97-.17-.41-.33-.8-.21-1.03.1-.2.5-.29.85-.38.5-.12,1.13-.28,1.26-.9.03-.17.01-.32-.03-.46.08.01.15.02.22.04.71.12,1.61.28,2.17-.28.47-.47.33-1.05.19-1.56-.12-.47-.26-1.01-.04-1.69.11-.32.38-1.18.05-2.01-.03-.08-.07-.15-.11-.22-.39-.62-1.26-1.13-2.05-.9-.58.17-.81.64-.99,1.02-.16.33-.26.53-.49.63-.38.16-.95.01-1.16-.3-.14-.22-.13-.59.05-1.02.12-.3.31-.49.49-.68.25-.26.55-.58.49-1.08-.07-.6-.61-.92-.71-.97,0,0,0,0,0,0,1.63-1.03,3.43-1.8,5.35-2.29.02.25.03.49.08.73.14.73.69,3.12,2.01,3.3.05,0,.1,0,.15,0,.39,0,.64-.22.95-.49.25-.21.58-.51,1.16-.89.76-.51,1.1-.74,1.61-.9.51-.16.87-.16,1.22-.15.43,0,.87,0,1.39-.29.44-.26.8-.66,1.06-1.19,1.52.43,2.96,1.04,4.29,1.81.03.32.06.64.06.97,0,.46,0,.9-.03.97-.14.09-.84-.09-1.26-.19-1.04-.27-2.34-.61-3.39.05-1.36.85-1.8,3.1-1.94,4.36-.03.22-.04.44-.05.65-.04.53-.07,1.03-.27,1.15-.1.06-.24.04-.46,0-.29-.05-.72-.14-1.09.17-.37.3-.53.9-.44,1.59.08.61.39,1.36,1,1.64.66.3,1.25-.07,1.77-.4.5-.31.97-.61,1.52-.48.64.14,1.09.76,1.3,1.06.21.3.38.6.47.83-.4-.18-1-.46-1.76-.48-1.19-.03-2.13.58-3,1.18-1.37.94-3.07,2.1-3.15,4.05-.05,1.26.61,2.88,1.81,3.39.34.15.63.16,1.02.18.37.02.87.04,1.72.19l.17.03c.44.08.52.09.58.12.27.16.72.62.78,2,.02.48-.05.66-.12.86-.11.29-.19.55-.1,1.04.07.41.22.74.38,1.09.19.44.39.89.51,1.63.12.77.46,2.08,1.37,2.24.06.01.12.02.19.02.81,0,1.52-.93,2.01-1.58.27-.36.37-.57.47-.79.04-.08.07-.16.12-.25.1-.2.19-.34.35-.59,0,0,.47-.73,1.24-1.65.2-.24.31-.55.34-.86.11-1.03.44-1.85.98-2.44.35-.38.75-.62,1.1-.84.53-.32,1.07-.66,1.09-1.32.02-.85-.9-1.48-1.44-1.72-.52-.23-.95-.22-1.27-.21-.28,0-.36,0-.45-.07-.14-.12-.26-.38-.28-.65-.02-.23.03-.37.02-.38.2-.04.97.38,1.33.59.78.45,1.45.84,1.93.4.51-.48.08-1.27-.46-2.27-.17-.31-.42-.77-.53-1.07.6.18,1.96.96,3.32,2,.65.5,1.27,1.05,1.85,1.63-.83,9.56-8.87,17.09-18.65,17.09ZM43.71,25.32c-.42-.39-.86-.76-1.31-1.11-1.76-1.34-4.02-2.79-4.77-2.01-.5.52-.04,1.37.5,2.35.12.23.3.55.42.81-.17-.09-.36-.2-.51-.29-.88-.51-1.78-1.03-2.42-.52-.28.22-.43.59-.44,1.05,0,.62.25,1.23.66,1.56.38.31.79.3,1.11.29.26,0,.51-.02.83.12.44.19.85.58.84.79,0,.12-.32.31-.61.49-.39.24-.87.53-1.31,1.01-.67.72-1.08,1.69-1.23,2.89-.03.21-.11.42-.25.59-.74.9-1.18,1.58-1.2,1.62-.18.29-.27.44-.39.67-.06.11-.1.21-.14.29-.09.2-.15.33-.37.62-.8,1.06-1.1,1.17-1.21,1.16-.12-.02-.41-.47-.57-1.46-.13-.81-.37-1.37-.57-1.82-.14-.31-.25-.58-.31-.87-.05-.25-.02-.33.05-.5.09-.24.22-.57.19-1.25-.07-1.75-.73-2.5-1.27-2.82-.22-.13-.38-.16-.92-.25l-.17-.03c-.91-.16-1.47-.19-1.84-.21-.37-.02-.5-.03-.67-.1-.77-.33-1.24-1.52-1.2-2.43.06-1.45,1.41-2.37,2.72-3.26.81-.56,1.53-1.02,2.41-1.01.56.02,1.01.23,1.38.39.4.19.9.42,1.28.02.62-.65-.25-1.96-.53-2.35-.27-.37-.89-1.23-1.89-1.45-.96-.21-1.72.26-2.27.61-.4.25-.67.41-.82.34-.19-.09-.37-.43-.43-.83-.06-.41.02-.68.06-.72.05,0,.19.02.28.04.29.06.73.14,1.16-.11.66-.39.71-1.18.76-1.94.01-.19.03-.4.05-.61.21-1.82.76-3.18,1.48-3.63.69-.43,1.71-.17,2.61.07.96.25,1.87.49,2.34-.22.19-.28.19-.64.2-1.53,0-.11-.02-.22-.02-.34,5.03,3.36,8.34,9.09,8.34,15.57,0,.11-.01.21-.02.32Z" fill="#FFCD00"/>
      <path class="cls-1" d="M38.07,33.86c-.36-.16-.85.02-1.42.52-.85.68-1.81,1.65-1.53,2.4.1.27.35.48.71.59.19.06.42.1.66.1.4,0,.83-.1,1.2-.34.79-.52,1-1.52.94-2.23-.03-.31-.13-.87-.56-1.05ZM37.14,36.3c-.35.23-.84.19-1.04.11.13-.27.64-.82,1.19-1.26.1-.09.23-.18.33-.25.05.38-.02,1.09-.48,1.4Z" fill="#FFCD00"/>
      <path class="cls-1" d="M5.2,15.72c.17.04.33.07.5.07.33,0,.66-.09.96-.26.44-.26.76-.67.89-1.17.27-1.02-.34-2.08-1.36-2.35-.5-.13-1.01-.06-1.46.19-.44.26-.76.67-.9,1.17-.27,1.02.34,2.08,1.36,2.35ZM4.8,13.63c.06-.24.22-.44.43-.56.14-.08.3-.12.46-.12.08,0,.16.01.24.03.49.13.78.64.65,1.13-.06.24-.21.44-.43.56-.21.12-.46.16-.7.09-.49-.13-.78-.64-.65-1.13Z" fill="#FFCD00"/>
      <path class="cls-1" d="M24.49,4.57c.17.04.33.07.5.07.33,0,.66-.09.96-.26.44-.26.76-.67.89-1.17s.06-1.01-.19-1.46c-.26-.44-.67-.76-1.17-.89-1.02-.27-2.08.34-2.35,1.36-.13.5-.06,1.01.19,1.46.26.44.67.76,1.17.89ZM24.1,2.48c.11-.41.48-.68.89-.68.08,0,.16.01.24.03.24.06.44.21.56.43s.16.46.09.7h0c-.06.24-.21.44-.43.56-.21.12-.46.16-.7.09-.24-.06-.44-.22-.56-.43s-.16-.46-.09-.7Z" fill="#FFCD00"/>
      <path class="cls-1" d="M25.5,45.43c-.5-.13-1.01-.06-1.46.19-.44.26-.76.67-.89,1.17-.27,1.02.34,2.08,1.36,2.35.17.04.33.07.5.07.33,0,.66-.09.96-.26.44-.26.76-.67.9-1.17h0c.27-1.02-.34-2.08-1.36-2.35ZM25.9,47.52c-.06.24-.22.44-.43.56s-.46.16-.7.09c-.24-.06-.44-.22-.56-.43s-.16-.46-.09-.7c.06-.24.21-.44.43-.56.14-.08.3-.12.46-.12.08,0,.16.01.24.03.49.13.78.64.65,1.13Z" fill="#FFCD00"/>
      <path class="cls-1" d="M44.8,34.28c-.5-.13-1.01-.06-1.46.19s-.76.67-.9,1.17c-.27,1.02.34,2.08,1.36,2.35.17.04.33.07.5.07.33,0,.66-.09.96-.26.44-.26.76-.67.9-1.17.27-1.02-.34-2.08-1.36-2.35ZM45.19,36.38c-.06.24-.22.44-.43.56-.21.12-.46.16-.7.09-.49-.13-.78-.64-.65-1.13.11-.41.48-.68.89-.68.08,0,.16.01.24.03.49.13.78.64.65,1.13Z" fill="#FFCD00"/>
      <path class="cls-1" d="M43.79,15.68c.17.04.33.07.5.07.85,0,1.63-.57,1.86-1.42h0c.27-1.02-.34-2.08-1.36-2.35-.5-.13-1.01-.06-1.46.19-.44.26-.76.67-.89,1.17-.27,1.02.34,2.08,1.36,2.35ZM43.4,13.58c.06-.24.21-.44.43-.56.14-.08.3-.12.46-.12.08,0,.16.01.24.03.49.13.78.64.65,1.13s-.63.79-1.13.65c-.49-.13-.78-.64-.65-1.13Z" fill="#FFCD00"/>
      <path class="cls-1" d="M6.17,34.28c-1.02-.27-2.08.34-2.35,1.36-.13.5-.06,1.01.19,1.46.26.44.67.76,1.17.89.17.04.33.07.5.07.33,0,.66-.09.96-.26.44-.26.76-.67.89-1.17s.06-1.01-.19-1.46c-.26-.44-.67-.76-1.17-.89ZM6.57,36.37h0c-.06.24-.21.44-.43.56-.21.12-.46.16-.7.09-.24-.06-.44-.22-.56-.43s-.16-.46-.09-.7c.11-.41.48-.68.89-.68.08,0,.16.01.24.03.24.06.44.21.56.43s.16.46.09.7Z" fill="#FFCD00"/>
      <path class="cls-1" d="M20.72,46.38c-.57-.11-1.13-.25-1.69-.41-.06-.02-.11-.04-.17-.05-.49-.15-.98-.31-1.46-.49-.08-.03-.15-.06-.23-.09-.49-.19-.96-.39-1.44-.61-.04-.02-.08-.04-.12-.06-1.04-.5-2.04-1.08-3-1.73-.06-.04-.11-.08-.17-.12-.38-.27-.75-.55-1.11-.83-.14-.12-.28-.23-.43-.35-.27-.22-.52-.46-.78-.69-.16-.15-.33-.3-.48-.46-.25-.24-.48-.5-.72-.76-.13-.14-.27-.28-.4-.43-.18-.21-.5-.23-.71-.05-.18.16-.22.42-.11.62.02.03.04.06.06.08.02.02.03.04.05.05,0,0,0,.02.01.02.1.12.21.22.32.33.26.28.52.56.79.83.16.16.33.31.5.47.14.13.27.27.41.39.13.12.27.22.4.33.15.13.3.25.45.37.38.3.76.59,1.16.87.06.04.11.09.17.13,1,.69,2.05,1.29,3.14,1.82.04.02.08.04.12.06.5.23,1,.45,1.52.65.07.03.15.06.22.08.51.19,1.03.37,1.56.52.05.01.1.03.15.05.55.16,1.11.3,1.68.42,0,0,.02,0,.02,0,.02,0,.05.01.07.02.03,0,.07,0,.1,0,.23,0,.44-.16.49-.4.05-.27-.12-.53-.39-.59Z" fill="#FFCD00"/>
      <path class="cls-1" d="M41.36,39.41s-.07.07-.1.11c-.35.39-.72.77-1.09,1.14-.11.11-.22.21-.33.31-.28.26-.56.51-.85.75-.16.13-.32.27-.48.39-.25.2-.5.38-.76.57-.19.14-.39.28-.59.42-.24.16-.49.31-.73.46-.42.26-.85.5-1.28.73-.21.11-.42.22-.63.33-.27.13-.55.25-.83.38-.21.09-.43.18-.64.27-.28.11-.55.21-.83.31-.25.09-.5.17-.76.24-.25.08-.5.16-.75.23-.52.14-1.03.27-1.56.37-.27.05-.45.31-.4.58.01.06.03.11.06.15.1.18.31.28.53.24.03,0,.05-.01.08-.02,0,0,.01,0,.02,0,.51-.1,1.02-.22,1.53-.36.27-.07.53-.16.8-.24.18-.05.36-.1.53-.16.08-.03.16-.06.23-.09.3-.1.6-.22.89-.33.22-.09.44-.18.66-.27.3-.13.59-.26.88-.4.22-.11.44-.23.66-.34.24-.13.49-.24.72-.37.21-.12.4-.25.6-.38.26-.16.53-.32.78-.49.2-.14.4-.28.6-.43.28-.2.55-.4.81-.61.16-.13.33-.26.49-.4.32-.26.62-.54.93-.82.11-.1.21-.2.32-.3.44-.42.86-.85,1.26-1.31.18-.21.16-.52-.05-.71-.21-.18-.52-.16-.71.05Z" fill="#FFCD00"/>
      <path class="cls-1" d="M47.21,19.93c-.03-.14-.05-.27-.08-.41-.02-.1-.06-.2-.09-.3-.13-.5-.26-.99-.43-1.48,0,0,0-.01-.01-.02,0,0,0-.01,0-.02h0c-.1-.23-.36-.36-.61-.28-.25.08-.39.35-.32.6h0c.15.46.28.91.4,1.37.03.12.07.24.1.36.02.09.03.18.06.27.78,3.38.76,6.93-.08,10.29-.15.58-.32,1.15-.51,1.72-.02.07-.03.14-.02.2,0,.08.02.16.06.23.06.1.15.18.27.22.26.09.55-.05.63-.31.21-.6.38-1.21.54-1.82.46-1.82.7-3.69.7-5.57,0-1.71-.21-3.4-.59-5.07Z" fill="#FFCD00"/>
      <path class="cls-1" d="M4.01,32.54c.24-.08.37-.33.32-.57h.01c-.09-.28-.16-.57-.25-.85-.09-.31-.19-.61-.26-.92,0-.03-.01-.07-.02-.1-.82-3.43-.8-7.04.06-10.45.09-.34.19-.67.3-1,.07-.25.14-.49.22-.74.09-.26-.05-.55-.31-.64-.26-.09-.55.05-.64.31,0,.03-.02.06-.03.09,0,0,0,0,0,.01-.12.36-.22.73-.32,1.1-.06.2-.13.41-.18.61-.47,1.84-.71,3.72-.71,5.62,0,1.8.22,3.59.65,5.34,0,.03.01.06.02.09.08.33.18.65.28.98.08.27.14.55.23.81,0,.01,0,.02.01.03,0,.01,0,.02,0,.03v.04s.02,0,.02,0c.12.2.36.3.59.22Z" fill="#FFCD00"/>
      <path class="cls-1" d="M8.24,10.8c.14,0,.28-.06.38-.17.03-.03.06-.06.09-.1h0c.37-.42.76-.82,1.17-1.21.07-.07.14-.13.21-.2.32-.3.65-.6.99-.88.12-.1.24-.2.37-.3.3-.24.6-.46.91-.68.15-.11.3-.22.45-.32.36-.25.74-.48,1.11-.7.26-.15.52-.29.79-.44.27-.14.54-.29.81-.42.25-.12.5-.23.75-.34.24-.11.49-.21.74-.31.25-.1.5-.19.76-.28.29-.1.58-.2.88-.29.2-.06.41-.13.61-.18.52-.14,1.05-.27,1.58-.37.27-.05.45-.31.4-.59-.05-.27-.31-.45-.59-.4-.03,0-.05.01-.08.02,0,0-.01,0-.02,0-.52.1-1.03.23-1.55.37-.23.06-.45.14-.68.21-.2.06-.4.11-.6.18-.09.03-.18.07-.27.1-.28.1-.55.2-.82.31-.25.1-.5.2-.74.31-.27.12-.54.23-.8.36-.28.14-.55.28-.83.43-.19.1-.38.19-.57.3-.1.06-.19.13-.29.18-.38.23-.76.46-1.13.71-.17.11-.33.23-.49.35-.32.22-.63.46-.93.7-.14.11-.27.22-.41.34-.34.29-.68.58-1,.89-.09.08-.17.16-.26.24-.45.44-.89.88-1.3,1.36-.18.21-.16.52.05.71.09.08.21.12.33.12Z" fill="#FFCD00"/>
      <path class="cls-1" d="M29.24,3.63c.57.11,1.14.25,1.7.41.04.01.09.03.13.04.51.15,1.01.31,1.5.5.07.03.14.05.21.08.49.19.97.39,1.44.61.04.02.09.04.13.06,1.04.5,2.05,1.07,3,1.73.06.04.12.09.18.13.37.26.74.54,1.09.82.16.13.31.26.47.39.25.21.49.43.73.65.18.16.35.33.52.49.22.22.43.45.65.68.15.16.31.32.45.48.18.21.5.23.71.05.21-.18.23-.5.05-.71-.02-.02-.03-.03-.05-.05,0,0,0-.02-.02-.03-.12-.13-.25-.26-.37-.39-.24-.26-.47-.51-.72-.75-.18-.17-.36-.34-.54-.51-.12-.11-.24-.24-.37-.35-.13-.11-.26-.22-.39-.33-.17-.14-.33-.28-.5-.42-.36-.29-.74-.57-1.12-.84-.07-.05-.14-.1-.21-.15-.99-.68-2.04-1.28-3.12-1.8-.06-.03-.11-.05-.17-.08-.48-.22-.97-.43-1.47-.62-.08-.03-.17-.07-.25-.1-.5-.19-1.01-.35-1.52-.5-.06-.02-.12-.04-.18-.06-.55-.16-1.11-.3-1.67-.41,0,0-.01,0-.02,0-.03,0-.05-.01-.08-.02-.27-.05-.53.12-.59.39-.05.27.12.53.39.59Z" fill="#FFCD00"/>
    </g>
  </g>
  <g id="Names">
    <text class="cls-2" transform="translate(0 53.99)"><tspan x="0" y="0">international</tspan></text>
  </g>
</svg>