<?xml version="1.0" encoding="UTF-8"?><svg xmlns="http://www.w3.org/2000/svg" viewBox="0 0 50 50">
  <defs>
    <style>
      .cls-1 {
        font-family: ArialMT, Arial;
        font-size: 6px;
      }
    </style>
  </defs>
  <g id="Black">
    <g>
      <path d="M43.05,28.91v.36c0,.28.22.5.5.5s.5-.22.5-.5v-.36c0-2.41-1.96-4.37-4.37-4.37s-4.37,1.96-4.37,4.37v6.73c0,1.86-1.51,3.37-3.37,3.37s-3.37-1.51-3.37-3.37v-7.95s-.01-.08-.02-.12h.77c1.16,0,2.11-.95,2.11-2.11v-.77h.52c.7,0,1.35-.35,1.75-.93.24-.35.36-.76.36-1.18v-10.25s0-.08,0-.12v-2.14c0-1.16-.95-2.11-2.11-2.11h-3.44v-2.32c1.87-.24,3.33-1.83,3.33-3.76,0-.28-.22-.5-.5-.5s-.5.22-.5.5c0,1.55-1.26,2.81-2.81,2.81s-2.81-1.26-2.81-2.81v-.17c0-.28-.22-.5-.5-.5h-9.36c-.28,0-.5.22-.5.5v39.2H6.4c-.28,0-.5.22-.5.5v2.49c-1.13.23-1.98,1.23-1.98,2.43,0,1.37,1.11,2.48,2.48,2.48s2.48-1.11,2.48-2.48c0-1.19-.85-2.2-1.98-2.43v-1.99h17.36v1.99c-1.13.23-1.98,1.23-1.98,2.43,0,1.37,1.11,2.48,2.48,2.48s2.48-1.11,2.48-2.48c0-1.2-.85-2.2-1.98-2.43v-2.49c0-.28-.22-.5-.5-.5h-8.91V2.2h8.39c.16,1.77,1.51,3.19,3.26,3.43v2.33h-3.4c-1.16,0-2.11.95-2.11,2.11v12.51c0,1.16.95,2.11,2.11,2.11h.52v.77c0,1.16.95,2.11,2.11,2.11h.86s-.02.07-.02.12v7.95c0,2.41,1.96,4.37,4.37,4.37s4.37-1.96,4.37-4.37v-6.73c0-1.86,1.51-3.37,3.37-3.37s3.37,1.51,3.37,3.37ZM7.88,46.32c0,.81-.66,1.48-1.48,1.48s-1.48-.66-1.48-1.48.66-1.48,1.48-1.48,1.48.66,1.48,1.48ZM26.24,46.32c0,.81-.66,1.48-1.48,1.48s-1.48-.66-1.48-1.48.66-1.48,1.48-1.48,1.48.66,1.48,1.48ZM24.1,8.96h7.85c.61,0,1.11.5,1.11,1.11v1.91c-.86.4-3.6,1.5-5.37.13-1.97-1.52-3.72-1.14-4.7-.69v-1.36c0-.61.5-1.11,1.11-1.11ZM24.1,23.69c-.61,0-1.11-.5-1.11-1.11v-1.13h5.33c.28,0,.5-.22.5-.5s-.22-.5-.5-.5h-5.33v-2.01h5.33c.28,0,.5-.22.5-.5s-.22-.5-.5-.5h-5.33v-2.01h5.33c.28,0,.5-.22.5-.5s-.22-.5-.5-.5h-5.33v-1.89c.51-.34,2.12-1.16,4.09.36.84.65,1.82.87,2.77.87,1.27,0,2.47-.4,3.21-.7v9.51c0,.22-.07.44-.19.62-.21.31-.55.49-.92.49h-7.85ZM25.62,25.47v-.77h4.81v.77c0,.61-.5,1.11-1.11,1.11h-2.58c-.61,0-1.11-.5-1.11-1.11Z" fill="#FFFFFF"/>
      <path d="M43.95,31.11c-.09-.15-.25-.25-.43-.25h0c-.18,0-.34.1-.43.25-.34.6-2.05,3.67-2.05,4.86,0,1.39,1.13,2.52,2.52,2.52s2.52-1.13,2.52-2.52c0-1.19-1.77-4.26-2.12-4.86ZM43.55,37.49c-.84,0-1.52-.68-1.52-1.52,0-.59.8-2.27,1.49-3.58.74,1.35,1.55,3.02,1.55,3.58,0,.84-.68,1.52-1.52,1.52Z" fill="#FFFFFF"/>
    </g>
  </g>
  <g id="Labels">
    <text class="cls-1" transform="translate(0 54.76)"><tspan x="0" y="0">IV Pole</tspan></text>
  </g>
</svg>