<?xml version="1.0" encoding="UTF-8"?><svg xmlns="http://www.w3.org/2000/svg" viewBox="0 0 50 50">
  <defs>
    <style>
      .cls-1 {
        font-family: ArialMT, Arial;
        font-size: 6px;
      }
    </style>
  </defs>
  <g id="Black">
    <g>
      <path d="M14.5,9.31c-.33-.94-1.01-1.7-1.91-2.13-.9-.43-1.91-.48-2.86-.15-.94.33-1.7,1.01-2.13,1.91-.43.9-.48,1.92-.15,2.86.33.94,1.01,1.7,1.91,2.13.51.24,1.06.37,1.61.37.42,0,.84-.07,1.25-.21,1.94-.69,2.97-2.83,2.28-4.77h0ZM9.79,13.03c-.66-.32-1.16-.87-1.4-1.56-.24-.69-.2-1.43.11-2.09.32-.66.87-1.16,1.56-1.4.3-.11.61-.16.91-.16.4,0,.8.09,1.18.27.66.32,1.16.87,1.4,1.56.5,1.42-.25,2.99-1.67,3.49-.69.24-1.43.2-2.09-.11Z" fill="#FFCD00"/>
      <path d="M29.61,40.67c-.26-.75-.8-1.35-1.52-1.69-.71-.34-1.52-.39-2.27-.12-1.54.54-2.35,2.24-1.81,3.78.43,1.22,1.58,1.98,2.8,1.98.33,0,.66-.05.99-.17,1.54-.55,2.35-2.24,1.81-3.79ZM24.96,42.32c-.36-1.02.18-2.15,1.2-2.51.21-.08.44-.11.66-.11.29,0,.58.06.85.19.47.23.83.62,1.01,1.12h0c.36,1.02-.18,2.15-1.2,2.51-1.02.36-2.15-.18-2.51-1.2Z" fill="#FFCD00"/>
      <path d="M47.95,10.12c-.18-.09-.37-.14-.57-.15l.75-1.56c.38-.79.04-1.73-.74-2.11-.19-.09-.39-.14-.58-.15.25-.74-.09-1.57-.82-1.92-.72-.35-1.58-.09-2.01.56-.13-.15-.3-.27-.49-.36-.38-.18-.81-.21-1.21-.07-.4.14-.72.43-.9.81l-1.51,3.15c-.13-.14-.29-.26-.48-.35-.78-.38-1.73-.05-2.11.74l-1.79,3.73c-.85,1.77-.75,3.88.25,5.57l-1.11,2.3c-.06.12-.07.26-.02.38.04.13.14.23.25.29l5.22,2.51.22.05c.19,0,.36-.1.45-.28l1.19-2.48c1.82-.36,3.37-1.55,4.18-3.23l.06-.16.07-.12,2.42-5.03c.38-.79.05-1.73-.74-2.11ZM47.79,11.79l-2.45,5.07-.07.15-.04.09c-.7,1.46-2.08,2.48-3.69,2.72-.16.02-.3.13-.38.28l-1.09,2.26-4.32-2.08,1.01-2.1c.08-.16.06-.35-.03-.49-.96-1.46-1.09-3.26-.34-4.83l1.79-3.73c.14-.29.49-.41.77-.27.26.12.38.41.3.69v.03s-1.73,3.62-1.73,3.62c-.12.25-.01.55.24.67l.21.05c.19,0,.37-.1.45-.29l1.77-3.72h0s2.07-4.31,2.07-4.31c.07-.14.18-.25.33-.3.15-.05.3-.04.44.03.14.07.24.18.3.33.05.15.04.3-.02.44h0s-2.87,5.96-2.87,5.96c-.12.25-.02.55.23.67l.22.05c.19,0,.36-.1.45-.28l2.87-5.96h0s.54-1.14.54-1.14c.14-.29.48-.41.77-.27.29.14.41.49.27.77l-.55,1.13h0s-2.87,5.96-2.87,5.96c-.12.25-.02.55.23.67l.22.05c.19,0,.36-.1.45-.28l2.87-5.96h0c.14-.29.49-.41.77-.27.29.14.41.49.27.77l-1.38,2.87v.02s-.43.86-.43.86h0s-1.06,2.21-1.06,2.21c-.12.25-.02.55.23.67l.22.05c.19,0,.36-.1.45-.28l.79-1.65h0s.69-1.43.69-1.43c.07-.14.18-.25.33-.3.15-.05.3-.04.44.02.14.07.25.19.3.33.05.15.04.3-.02.44Z" fill="#FFCD00"/>
      <path d="M35.53,35.57l3.02-10.07c.08-.26-.07-.54-.34-.62-.26-.08-.54.07-.62.34l-3.02,10.07c-.08.26.07.54.34.62.26.08.54-.07.62-.34" fill="#FFCD00"/>
      <path d="M28.28,31.89l5.81-8.41c.16-.23.1-.54-.13-.7-.23-.16-.54-.1-.7.13l-5.81,8.41c-.16.23-.1.54.13.7.23.16.54.1.7-.13" fill="#FFCD00"/>
      <path d="M31.88,33.47l4.46-9.06c.12-.25.02-.55-.23-.67-.25-.12-.55-.02-.67.23l-4.46,9.06c-.12.25-.02.55.23.67.25.12.55.02.67-.23" fill="#FFCD00"/>
      <path d="M19.7,15.44l1.06-2.83c.05-.12.04-.26-.01-.38s-.16-.21-.28-.26l-2.03-.76c.05-.61.03-1.21-.06-1.81l1.97-.9c.25-.12.36-.41.25-.66l-1.25-2.75c-.11-.25-.41-.36-.66-.25l-1.97.9c-.39-.46-.83-.87-1.32-1.23l.76-2.03c.1-.26-.04-.55-.29-.64l-2.83-1.06c-.26-.1-.55.03-.64.29l-.76,2.03c-.61-.05-1.21-.04-1.81.06l-.9-1.97c-.11-.25-.41-.36-.66-.25l-2.75,1.25c-.12.05-.21.16-.26.28-.05.12-.04.26.01.38l.9,1.97c-.46.39-.88.83-1.23,1.32l-2.03-.76c-.26-.1-.55.04-.64.29l-1.06,2.83c-.05.12-.04.26.01.38.06.12.16.21.28.26l2.03.76c-.05.61-.03,1.21.06,1.81l-1.97.9c-.25.12-.36.41-.25.66l1.25,2.75c.05.12.16.21.28.26.12.05.26.04.38-.01l1.97-.9c.39.46.83.88,1.32,1.23l-.76,2.03c-.1.26.04.55.29.64l2.83,1.06.18.03.21-.04c.12-.05.21-.16.26-.28l.76-2.03c.61.05,1.21.03,1.81-.06l.9,1.97c.11.25.41.36.66.25l2.75-1.25c.25-.11.36-.41.25-.66l-.9-1.97c.46-.39.88-.83,1.23-1.32l2.03.76c.26.1.55-.04.64-.29ZM17.01,13.91c-.22-.08-.47,0-.59.2-.42.64-.93,1.2-1.54,1.65-.19.14-.25.39-.15.61l.85,1.87-1.84.84-.86-1.87c-.1-.21-.33-.33-.56-.28-.74.16-1.5.18-2.26.07-.23-.03-.46.1-.54.32l-.72,1.93-1.89-.71.72-1.93c.08-.22,0-.47-.2-.59-.64-.42-1.2-.94-1.65-1.54-.14-.19-.39-.25-.61-.16l-1.87.85-.84-1.84,1.87-.86c.21-.1.33-.33.28-.56-.16-.74-.18-1.5-.07-2.26.03-.23-.1-.46-.32-.54l-1.93-.72.71-1.89,1.93.72c.22.08.47,0,.59-.2.42-.64.93-1.2,1.54-1.65.19-.14.25-.39.16-.61l-.85-1.87,1.84-.84.86,1.87c.1.21.33.33.56.28.74-.16,1.5-.18,2.26-.07.23.03.46-.1.54-.32l.72-1.93,1.89.71-.72,1.93c-.08.22,0,.47.2.59.64.42,1.2.93,1.65,1.54.14.19.39.25.61.16l1.87-.85.84,1.84-1.87.86c-.21.1-.33.33-.28.56.16.74.18,1.5.07,2.26-.03.23.1.46.32.54l1.93.72-.71,1.89-1.93-.72Z" fill="#FFCD00"/>
      <path d="M34.37,42.89c-.05-.12-.16-.21-.28-.26l-1.46-.55c.03-.41.02-.82-.04-1.23l1.42-.65c.25-.11.36-.41.25-.66l-.95-2.09c-.11-.25-.41-.36-.66-.25l-1.42.65c-.27-.31-.57-.59-.9-.84l.54-1.47c.1-.26-.04-.54-.29-.64l-2.15-.81c-.12-.05-.26-.04-.38.01-.12.05-.21.16-.26.28l-.55,1.46c-.41-.03-.82-.02-1.23.04l-.65-1.42c-.11-.25-.41-.36-.66-.25l-2.09.95c-.25.11-.36.41-.25.66l.65,1.42c-.31.27-.59.57-.84.9l-1.47-.54c-.26-.1-.55.04-.64.29l-.81,2.15c-.05.12-.04.26.01.38.06.12.16.21.28.26l1.46.55c-.03.41-.02.82.04,1.23l-1.42.65c-.25.11-.36.41-.25.66l.95,2.09c.05.12.16.21.28.26.12.04.26.04.38-.01l1.42-.65c.27.31.57.59.9.84l-.55,1.47c-.1.26.04.54.29.64l2.15.81.18.03.21-.04c.12-.05.21-.16.26-.28l.55-1.46c.41.03.82.02,1.23-.04l.65,1.42c.12.25.41.36.66.25l2.09-.95c.25-.11.36-.41.25-.66l-.65-1.42c.31-.27.59-.57.84-.9l1.46.55c.26.09.55-.04.64-.29l.81-2.16c.05-.12.04-.26-.01-.38ZM31.45,44.1c-.22-.08-.47,0-.59.2-.31.48-.7.89-1.14,1.23-.19.14-.25.39-.16.61l.6,1.32-1.18.54-.6-1.32c-.1-.21-.33-.33-.56-.28-.55.12-1.12.14-1.68.06-.24-.03-.46.1-.54.32l-.51,1.36-1.22-.46.51-1.36c.08-.22,0-.47-.2-.59-.48-.31-.89-.69-1.23-1.14-.14-.19-.39-.25-.61-.16l-1.32.6-.54-1.19,1.32-.6c.21-.1.33-.33.28-.56-.12-.55-.14-1.12-.05-1.68.03-.23-.1-.46-.32-.54l-1.36-.51.46-1.22,1.36.51c.22.08.47,0,.59-.2.31-.48.69-.89,1.14-1.23.19-.14.25-.39.15-.61l-.6-1.32,1.19-.54.6,1.32c.1.21.33.32.56.28.55-.12,1.11-.14,1.68-.05.24.03.46-.1.54-.32l.51-1.36,1.22.46-.51,1.36c-.08.22,0,.47.2.59.48.31.89.7,1.23,1.14.14.19.39.25.61.16l1.32-.6.54,1.18-1.32.6c-.21.1-.33.33-.28.56.12.55.14,1.11.06,1.68-.03.23.1.46.32.54l1.36.51-.46,1.22-1.36-.51Z" fill="#FFCD00"/>
      <path d="M11.27,24.16l7.71,10.98c.16.23.47.28.7.12.23-.16.28-.47.12-.7l-7.71-10.98c-.16-.23-.47-.28-.7-.12-.23.16-.28.47-.12.7" fill="#FFCD00"/>
      <path d="M15.83,21.69l5.96,11.68c.13.25.43.34.67.22s.34-.43.22-.67l-5.96-11.68c-.13-.25-.43-.34-.67-.22s-.34.43-.22.67" fill="#FFCD00"/>
      <path d="M20.44,19.32l4.36,12.69c.09.26.37.4.64.31.26-.09.4-.37.31-.64l-4.36-12.69c-.09-.26-.37-.4-.64-.31-.26.09-.4.37-.31.64" fill="#FFCD00"/>
    </g>
  </g>
  <g id="Labels">
    <text class="cls-1" transform="translate(0 54.95)"><tspan x="0" y="0">Joints and Hand</tspan></text>
  </g>
</svg>