<?xml version="1.0" encoding="UTF-8"?><!-- Generator: Adobe Illustrator 27.7.0, SVG Export Plug-In . SVG Version: 6.00 Build 0)  --><svg version="1.1" id="Layer_1" xmlns="http://www.w3.org/2000/svg" xmlns:xlink="http://www.w3.org/1999/xlink" x="0px" y="0px" viewBox="0 0 50 50" style="enable-background:new 0 0 50 50;" xml:space="preserve">
<style type="text/css">
	.st0{display:none;}
	.st1{display:inline;fill:none;stroke:#EA008A;stroke-width:0.2;stroke-miterlimit:10;}
	.st2{font-family:'Roboto-Regular';}
	.st3{font-size:6px;}
</style>
<g id="ICONS_00000031165542127692736420000002692518830807990202_">
	<g>
		<path d="M39.9,26.3c0-0.2,4.5-22.3,0.4-23.6c0,0,0,0,0,0l0,0c0,0,0,0,0,0c0,0,0,0,0,0l-6-1.8c-2.2-0.6-3.7,2.1-5.1,5.2    c-1.4-0.4-2.8-0.5-4.2-0.5c-1.3,0-2.8,0.2-4.2,0.5c-1.4-3-2.9-5.8-5.1-5.2l-6,1.8c0,0,0,0,0,0c0,0,0,0,0,0l0,0c0,0,0,0,0,0    c-4.1,1.2,0.3,23.3,0.4,23.6c0,0.1,0,0.1,0.1,0.2C9.6,34.3,9.4,43,9.6,44.4c0.4,3,2.5,4.7,5.9,4.8h19c0,0,0,0,0,0    c3.3-0.1,5.4-1.8,5.9-4.8c0.2-1.4,0-10-0.5-17.9C39.9,26.4,39.9,26.3,39.9,26.3z M39.5,22.8c-0.3-3.2-0.6-6-1.1-7.9    c-0.5-2.2-1.6-4-3-5.4l0,0c1.2-2.8,2.8-6.3,4.5-5.8C41.6,4.1,41.3,12.8,39.5,22.8z M10.8,32.2h28.3c0.1,1.1,0.1,2.1,0.1,3.1H10.7    C10.7,34.3,10.8,33.3,10.8,32.2z M14.2,31.2c0.4-7.6,0.9-12.9,1.5-15.5c0.5-2.1,1.7-3.7,3.7-4.7c2.3-1.2,4.7-1.4,5.7-1.4    c0.9,0,3.4,0.2,5.7,1.4c2,1.1,3.2,2.7,3.7,4.7c0.6,2.5,1.1,7.9,1.5,15.5H14.2z M34,1.9l4.2,1.3c-1.4,1-2.5,3.4-3.5,5.7    c-1.4-1.1-2.9-1.9-4.6-2.5C31.4,3.7,32.7,1.5,34,1.9z M29.2,7.2C29.2,7.2,29.2,7.2,29.2,7.2C29.2,7.2,29.3,7.2,29.2,7.2    c3.7,1,7.2,3.5,8.3,8c0.8,3.4,1.3,10,1.6,16.1h-2.2c-0.4-7.8-0.9-13.1-1.5-15.7c-0.5-2.4-2-4.2-4.2-5.4C28.7,8.7,26,8.6,25,8.5    c-1,0-3.7,0.2-6.1,1.5c-2.2,1.2-3.7,3-4.2,5.4c-0.6,2.6-1.1,8-1.5,15.7h-2.3c0.3-6.1,0.8-12.7,1.6-16.1c1-4.5,4.5-6.9,8.2-7.9    c0,0,0,0,0.1,0c0,0,0,0,0,0c1.4-0.4,2.9-0.6,4.2-0.6C26.3,6.6,27.8,6.8,29.2,7.2z M16,1.9c1.4-0.4,2.7,1.8,3.9,4.5    c-1.6,0.5-3.2,1.3-4.6,2.5c-1-2.3-2.1-4.7-3.5-5.7L16,1.9z M10,3.7c1.7-0.5,3.2,3,4.5,5.8l0,0c-1.4,1.4-2.4,3.1-3,5.4    c-0.4,1.9-0.8,4.7-1.1,7.9C8.7,12.8,8.4,4.1,10,3.7z M39.4,44.2c-0.4,2.5-2,3.9-4.9,3.9H15.5c-2.9-0.1-4.5-1.4-4.9-3.9    c-0.1-0.7-0.1-3.9,0-7.9h28.7C39.5,40.4,39.5,43.5,39.4,44.2z" fill="#FFCD00"/>
		<path d="M31.9,20.6C31.9,20.6,31.9,20.6,31.9,20.6l-12.2,0.1c0,0,0,0-0.1,0c-0.7,0-1.3,0.5-1.4,1.2L17.5,26    c-0.1,0.4,0,0.8,0.2,1.1c0.2,0.3,0.6,0.5,1,0.6l0.8,0.1c0.1,0,0.1,0,0.2,0c0.3,0,0.6-0.1,0.9-0.3c0.3-0.2,0.5-0.6,0.6-1l0.4-4.2    c0-0.2,0-0.5-0.1-0.7l10.4-0.1c0.3,0,0.5-0.2,0.5-0.5S32.2,20.6,31.9,20.6z M20.2,26.5c0,0.1-0.1,0.2-0.2,0.3    c-0.1,0.1-0.2,0.1-0.4,0.1c0,0,0,0,0,0l-0.8-0.1c-0.1,0-0.2-0.1-0.3-0.2c-0.1-0.1-0.1-0.2-0.1-0.4l0.8-4.1c0-0.2,0.2-0.4,0.5-0.4    c0,0,0,0,0.1,0l0.5,0.1c0.2,0,0.4,0.3,0.4,0.5L20.2,26.5z" fill="#FFCD00"/>
	</g>
</g>
<g id="Margin" class="st0">
	<rect x="1" y="1" class="st1" width="48" height="48" fill="#FFCD00"/>
</g>
<g id="Guides" class="st0">
</g>
<g id="LABELS">
</g>
<g id="LABELS_00000005232272901126637620000012165545989890206856_">
	<g>
		<g>
			<g>
				<g>
					<g>
						<text transform="matrix(1 0 0 1 -0.114 55.1228)" class="st2 st3">kids-backpack</text>
					</g>
				</g>
			</g>
		</g>
	</g>
</g>
</svg>