<?xml version="1.0" encoding="UTF-8"?><svg xmlns="http://www.w3.org/2000/svg" viewBox="0 0 50 50"><g id="uuid-60801259-0681-48d9-b95c-cbb502fd30d5"><path d="M46.49,.33c-.12-.11-.28-.15-.44-.11C21.72,5.67,4.37,17.32,4.8,27.93c.13,3.31,2.09,8.46,6.04,12.17l-7.84,8.87c-.18,.21-.16,.52,.04,.71,.1,.08,.21,.12,.33,.12,.14,0,.28-.06,.37-.17l7.83-8.86c3.83,3.22,8.66,4.62,12.01,4.62,.33,0,.64-.01,.93-.04,10.56-.91,19.87-19.67,22.14-44.59,.01-.16-.05-.32-.17-.42ZM5.8,27.89C5.39,17.96,21.78,6.96,44.94,1.5L27.01,21.8l-.43-6.98c-.02-.28-.26-.49-.53-.47-.28,.02-.49,.25-.47,.53l.49,7.98-14.58,16.49c-3.72-3.52-5.57-8.35-5.7-11.46Zm18.64,16.46c-3.14,.26-8.21-.99-12.19-4.33l5.92-6.7,11.48-.71c.28-.02,.49-.25,.47-.53-.02-.28-.26-.49-.53-.47l-10.49,.65,7.85-8.89h0l8.78-9.93,3.82-.24c.28-.02,.49-.25,.47-.53-.02-.28-.25-.49-.53-.47l-2.82,.17L45.49,2.4c-2.48,23.57-11.22,41.1-21.05,41.95Z" fill="#FFCD00"/></g><g id="uuid-3e4d81fd-931f-4770-9cff-fede76264c54"><text transform="translate(.39 55.05)" font-family="Roboto-Regular, Roboto" font-size="6"><tspan x="0" y="0">leaf</tspan></text></g></svg>