<?xml version="1.0" encoding="UTF-8"?><!-- Generator: Adobe Illustrator 27.7.0, SVG Export Plug-In . SVG Version: 6.00 Build 0)  --><svg version="1.1" id="Layer_1" xmlns="http://www.w3.org/2000/svg" xmlns:xlink="http://www.w3.org/1999/xlink" x="0px" y="0px" viewBox="0 0 50 50" style="enable-background:new 0 0 50 50;" xml:space="preserve">
<style type="text/css">
	.st0{display:none;}
	.st1{display:inline;fill:none;stroke:#EA008A;stroke-width:0.2;stroke-miterlimit:10;}
	.st2{font-family:'Roboto-Regular';}
	.st3{font-size:6px;}
</style>
<g id="ICONS_00000031165542127692736420000002692518830807990202_">
	<g>
		<path d="M44.5386,1.0039H5.5718c-0.2764,0-0.5,0.2236-0.5,0.5v28.4316V48.496c0,0.2764,0.2236,0.5,0.5,0.5h38.9668    c0.2764,0,0.5-0.2236,0.5-0.5V29.9355V1.5039C45.0386,1.2275,44.8149,1.0039,44.5386,1.0039z M44.0386,9.7622    c0,1.873-1.5234,3.3965-3.3965,3.3965s-3.397-1.5234-3.397-3.3965V2.0039h6.7935V9.7622z M13.8652,2.0039h6.7935v7.7583    c0,1.873-1.5239,3.3965-3.397,3.3965s-3.3965-1.5234-3.3965-3.3965V2.0039z M21.6587,2.0039h6.7935v7.7583    c0,1.873-1.5239,3.3965-3.397,3.3965s-3.3965-1.5234-3.3965-3.3965C21.6587,9.7622,21.6587,2.0039,21.6587,2.0039z     M29.4521,2.0039h6.793v7.7583c0,1.873-1.5234,3.3965-3.3965,3.3965s-3.3965-1.5234-3.3965-3.3965    C29.4521,9.7622,29.4521,2.0039,29.4521,2.0039z M6.0718,2.0039h6.7935v7.7583c0,1.873-1.5234,3.3965-3.3965,3.3965    s-3.397-1.5234-3.397-3.3965C6.0718,9.7622,6.0718,2.0039,6.0718,2.0039z M44.0386,47.9961H6.0718V30.4355h37.9668V47.9961z     M15.1187,21.644h5.3965l-0.8861,7.7915h-3.6243L15.1187,21.644z M27.5039,25.2529v-6.6426h8.3652v6.6426    c0,2.3062-1.8765,4.1826-4.1826,4.1826S27.5039,27.5591,27.5039,25.2529z M44.0386,29.4355H34.72    c1.1268-0.8197,1.8968-2.0782,2.0827-3.5255c1.8613-0.174,3.3281-1.7268,3.3281-3.6328c0-1.8832-1.4323-3.4212-3.2617-3.626    v-0.541c0-0.2764-0.2236-0.5-0.5-0.5h-9.3652c-0.2764,0-0.5,0.2236-0.5,0.5v7.1426c0,1.722,0.853,3.2397,2.1491,4.1826h-8.0179    l0.9367-8.2349c0.0161-0.1416-0.0288-0.2832-0.1235-0.3896s-0.2305-0.167-0.373-0.167h-6.5166    c-0.1426,0-0.2783,0.0605-0.373,0.167s-0.1396,0.248-0.1235,0.3896l0.9367,8.2349H6.0718V12.519    c0.8069,0.9919,2.0216,1.6396,3.397,1.6396c1.7032,0,3.1667-0.9836,3.8965-2.4034c0.7297,1.4198,2.1932,2.4034,3.8965,2.4034    s3.1671-0.9837,3.8969-2.4036c0.7297,1.4199,2.1932,2.4036,3.8965,2.4036s3.1671-0.9837,3.8969-2.4036    c0.7297,1.4199,2.1932,2.4036,3.8965,2.4036s3.1668-0.9837,3.8965-2.4036c0.7299,1.4199,2.1936,2.4036,3.8969,2.4036    c1.3752,0,2.5897-0.6476,3.3965-1.6394L44.0386,29.4355L44.0386,29.4355z M36.8691,19.6513    c1.2775,0.1971,2.2617,1.2941,2.2617,2.626s-0.9842,2.429-2.2617,2.626V19.6513z" fill="#FFFFFF"/>
		<path d="M21.9604,35.6953c-0.8833,0.2632-1.4995,1.0703-1.4995,2.0127c0,0.9478,0.6201,1.7559,1.5098,2.0151    c0.0637,0.1302,0.1362,0.2463,0.2065,0.3657h-5.8481c-0.2764,0-0.5,0.2236-0.5,0.5c0,2.8535,2.3218,5.1753,5.1753,5.1753    c2.1306,0,3.9624-1.2958,4.7548-3.1395c0.5995,0.1593,1.218,0.2586,1.855,0.2586c2.46,0,4.6953-1.2607,5.6533-3.1621    c0.8838-0.2632,1.5-1.0703,1.5-2.0132c0-0.9424-0.6162-1.7495-1.5-2.0132c-0.958-1.9009-3.1938-3.1616-5.6533-3.1616    C25.1543,32.5332,22.9185,33.7939,21.9604,35.6953z M16.8589,41.0889h3.2794l-1.6304,2.8242    C17.621,43.2451,16.9976,42.2454,16.8589,41.0889z M19.3701,44.42l1.6343-2.831l1.6343,2.8309    c-0.5035,0.2158-1.0528,0.3442-1.6343,0.3442C20.4228,44.7642,19.8735,44.6358,19.3701,44.42z M23.5009,43.9129l-1.6304-2.824    h3.2789C25.0109,42.2453,24.3876,43.245,23.5009,43.9129z M32.4604,36.3276c0.0679,0.1553,0.21,0.2656,0.3774,0.293    c0.5386,0.0874,0.9297,0.5449,0.9297,1.0874c0,0.543-0.3906,1-0.9292,1.0874c-0.1675,0.0273-0.3101,0.1377-0.3779,0.293    c-0.7314,1.6719-2.6792,2.7949-4.8462,2.7949c-0.5339,0-1.0511-0.0823-1.5531-0.2118c0.0748-0.3497,0.118-0.7109,0.118-1.0826    c0-0.2764-0.2236-0.5-0.5-0.5H23.389c-0.2366-0.2819-0.4382-0.6074-0.6102-0.9995c-0.0688-0.1567-0.2124-0.2671-0.3813-0.2935    c-0.5425-0.0845-0.9365-0.542-0.9365-1.0879c0-0.5425,0.3906-1,0.9292-1.0874c0.1675-0.0273,0.3096-0.1377,0.3774-0.293    c0.7314-1.6714,2.6792-2.7944,4.8467-2.7944C29.7812,33.5332,31.729,34.6562,32.4604,36.3276z" fill="#FFFFFF"/>
	</g>
</g>
<g id="Margin" class="st0">
	<rect x="1" y="1" class="st1" width="48" height="48" fill="#FFFFFF"/>
</g>
<g id="Guides" class="st0">
</g>
<g id="LABELS">
	<g>
		<g>
			<text transform="matrix(1 0 0 1 -0.1143 55.1228)" class="st2 st3">lemonade-stand</text>
		</g>
	</g>
</g>
</svg>