<?xml version="1.0" encoding="UTF-8"?><svg xmlns="http://www.w3.org/2000/svg" viewBox="0 0 50 50"><g id="uuid-98160821-4d63-4ccb-8352-339c4f22ff9b"><path d="M40.48,15.24c-.09-.17-.26-.27-.44-.27h-13.62L34.52,2.24c.1-.15,.1-.35,.02-.51-.09-.16-.26-.26-.44-.26h-11.89c-.17,0-.33,.09-.42,.24L9.54,21.27c-.1,.15-.1,.35-.01,.51s.26,.26,.44,.26h13.89l-7.41,25.85c-.07,.23,.04,.48,.26,.59,.07,.03,.14,.05,.22,.05,.16,0,.31-.07,.41-.21L40.45,15.76c.11-.15,.12-.35,.04-.52Zm-22.28,30.11l6.79-23.68c.04-.15,.01-.31-.08-.44-.09-.13-.24-.2-.4-.2H10.86L22.48,2.47h10.7l-8.1,12.73c-.1,.15-.1,.35-.02,.51,.09,.16,.26,.26,.44,.26h13.57l-20.87,29.38Z"/></g><g id="uuid-9e347f34-27c8-439a-8a79-c237bf6767db"><text transform="translate(.39 54.88)" font-family="Roboto-Regular, Roboto" font-size="6"><tspan x="0" y="0">lightning-bolt</tspan></text></g></svg>