<?xml version="1.0" encoding="UTF-8"?><svg xmlns="http://www.w3.org/2000/svg" viewBox="0 0 50 50"><g id="uuid-48f70c36-0c6f-4034-ab26-c928b2f09f2e"><path d="M47.03,31.1c-.18-1.3-.37-2.71-.58-4.23-1.33-10.06-9.78-15.35-14.13-15.49-1.84-.06-3.48,1.22-4.4,2.11l.03-7.81c0-.2-.12-.39-.31-.46-.1-.04-.21-.05-.32-.02-.4,.03-3.11-.02-5.52-.08-.13,0-.27,.05-.36,.14s-.15,.22-.15,.36v1.44h0l.02,6.18c-.92-.89-2.58-2.18-4.4-2.11-4.35,.14-12.8,5.43-14.13,15.49-.2,1.52-.4,2.93-.58,4.23-1.06,7.68-1.54,11.18-.12,12.5,1,.92,3.86,.5,6.09-.02,3.84-.89,10.31-3.27,11.3-5.85,1.46-3.8,1.9-11.39,1.97-12.88,1.81-1.38,2.84-1.69,3.39-1.7,.51-.02,1.49,.27,3.17,1.68v.03c0,.36,.14,8.94,1.75,13.14,.99,2.58,7.46,4.96,11.3,5.85,1.27,.3,2.75,.56,3.97,.56,.92,0,1.69-.15,2.11-.54,1.42-1.32,.94-4.82-.12-12.49Zm-.56,11.76c-.41,.38-2.17,.44-5.18-.26-4.55-1.06-9.9-3.42-10.6-5.24-1.25-3.26-1.58-9.56-1.66-11.89,1.57,1.5,2.85,3.09,2.87,3.11,.1,.12,.24,.19,.39,.19,.11,0,.22-.04,.31-.11,.22-.17,.25-.49,.08-.7-.07-.09-1.8-2.25-3.79-3.97-.01,0-.02-.01-.03-.02,0,0-.01-.02-.02-.03-1.62-1.39-2.91-2.06-3.95-2.06-.02,0-.04,0-.06,0-1.06,.03-2.42,.7-4.16,2.05-.01,.01-.02,.03-.03,.04-.02,.01-.04,.01-.05,.03-2.09,1.64-3.92,3.63-4,3.72-.19,.2-.17,.52,.03,.71,.1,.09,.22,.13,.34,.13,.14,0,.27-.05,.37-.16,.02-.02,1.4-1.53,3.09-2.96-.15,2.47-.63,8.49-1.85,11.68-.7,1.82-6.04,4.18-10.59,5.24-3.01,.7-4.77,.63-5.18,.26-1.04-.96-.48-4.98,.43-11.63,.18-1.3,.37-2.71,.58-4.23,1.24-9.36,9.23-14.5,13.17-14.62,2.21-.08,4.33,2.53,4.35,2.56l.02,.03v1.81c-.72,.58-3.75,2.9-5.79,4.46-.22,.17-.26,.48-.1,.7,.1,.13,.25,.2,.4,.2,.11,0,.21-.03,.3-.1q6.19-4.72,6.19-5.02v-2.22h0v-.17h0l-.03-8.23c2.63,.07,3.96,.09,4.65,.08l-.03,8.59s.01,.02,.01,.04c0,.02-.01,.04-.01,.06v1.93q0,.3,6.19,5.02c.09,.07,.2,.1,.3,.1,.15,0,.3-.07,.4-.2,.17-.22,.12-.53-.1-.7-2.05-1.56-5.07-3.87-5.8-4.46v-1.61l.02-.02s2.13-2.63,4.35-2.56c3.94,.13,11.93,5.26,13.17,14.62,.2,1.53,.4,2.94,.58,4.24,.92,6.65,1.47,10.66,.43,11.62Z" fill="#FFCD00"/></g><g id="uuid-8e33dafa-9561-44aa-b456-6debed359374"><text transform="translate(.86 54.92)" font-family="Roboto-Regular, Roboto" font-size="6"><tspan x="0" y="0">lungs</tspan></text></g></svg>