<?xml version="1.0" encoding="UTF-8"?><svg xmlns="http://www.w3.org/2000/svg" viewBox="0 0 50 50"><g id="uuid-28166abe-0b14-4dfa-b747-8fec4b91f1e5"><path d="M47.46,9.69H1.79c-.28,0-.5,.22-.5,.5v28.88c0,.28,.22,.5,.5,.5H47.46c.28,0,.5-.22,.5-.5V10.19c0-.28-.22-.5-.5-.5Zm-.5,28.88H2.29V10.69H46.96v27.88Z" fill="#FFFFFF"/><path d="M37.1,22.58h6.8c.28,0,.5-.22,.5-.5V13.42c0-.28-.22-.5-.5-.5h-6.8c-.28,0-.5,.22-.5,.5v8.66c0,.28,.22,.5,.5,.5Zm.5-8.66h5.8v7.66h-5.8v-7.66Z" fill="#FFFFFF"/><path d="M12.81,21.4H30.68c.28,0,.5-.22,.5-.5s-.22-.5-.5-.5H12.81c-.28,0-.5,.22-.5,.5s.22,.5,.5,.5Z" fill="#FFFFFF"/><path d="M12.81,25.65H30.68c.28,0,.5-.22,.5-.5s-.22-.5-.5-.5H12.81c-.28,0-.5,.22-.5,.5s.22,.5,.5,.5Z" fill="#FFFFFF"/><path d="M12.81,29.9H30.68c.28,0,.5-.22,.5-.5s-.22-.5-.5-.5H12.81c-.28,0-.5,.22-.5,.5s.22,.5,.5,.5Z" fill="#FFFFFF"/></g><g id="uuid-ad7b722b-fa61-4660-8f39-918631d80dc4"><text transform="translate(-.28 54.91)" font-family="Roboto-Regular, Roboto" font-size="6"><tspan x="0" y="0">mail-f</tspan><tspan x="15.17" y="0" letter-spacing="0em">r</tspan><tspan x="17.14" y="0">ont</tspan></text></g></svg>