<?xml version="1.0" encoding="UTF-8"?><svg xmlns="http://www.w3.org/2000/svg" viewBox="0 0 50 50"><g id="uuid-6fdfe90b-836f-496d-983e-6c81cf62ec90"><g><path d="M45.77,29.59h-.12l-1.23-17.5c-.02-.26-.24-.46-.5-.46h-6.62c-.26,0-.48,.2-.5,.46l-1.23,17.5h-2.88v-7.31c0-.18-.09-.34-.25-.43-.15-.09-.34-.09-.5,0l-13.46,7.4v-6.97c0-.18-.09-.34-.25-.43-.15-.09-.34-.09-.5,0L3.67,29.59c-.24,.04-.42,.24-.42,.49v18.77c0,.28,.22,.5,.5,.5H45.77c.28,0,.5-.22,.5-.5V30.09c0-.28-.22-.5-.5-.5Zm-41.53,.83l13.26-7.29v6.96c0,.36,.43,.61,.75,.44l13.46-7.4v6.96c0,.28,.22,.5,.5,.5h13.07v17.77h-8.72v-8.36c0-.28-.22-.5-.5-.5h-5.59c-.28,0-.5,.22-.5,.5v8.36H4.24V30.42ZM43.46,12.62l1.19,16.97h-8.06l1.19-16.97h5.68Zm-7.91,35.74h-4.59v-7.86h4.59v7.86Z" fill="#FFFFFF"/><path d="M14.15,33.62h-4.32c-.28,0-.5,.22-.5,.5v4.32c0,.28,.22,.5,.5,.5h4.32c.28,0,.5-.22,.5-.5v-4.32c0-.28-.22-.5-.5-.5Zm-.5,4.32h-3.32v-3.32h3.32v3.32Z" fill="#FFFFFF"/><path d="M22,33.62h-4.32c-.28,0-.5,.22-.5,.5v4.32c0,.28,.22,.5,.5,.5h4.32c.28,0,.5-.22,.5-.5v-4.32c0-.28-.22-.5-.5-.5Zm-.5,4.32h-3.32v-3.32h3.32v3.32Z" fill="#FFFFFF"/><path d="M14.15,41.07h-4.32c-.28,0-.5,.22-.5,.5v4.32c0,.28,.22,.5,.5,.5h4.32c.28,0,.5-.22,.5-.5v-4.32c0-.28-.22-.5-.5-.5Zm-.5,4.32h-3.32v-3.32h3.32v3.32Z" fill="#FFFFFF"/><path d="M22,41.07h-4.32c-.28,0-.5,.22-.5,.5v4.32c0,.28,.22,.5,.5,.5h4.32c.28,0,.5-.22,.5-.5v-4.32c0-.28-.22-.5-.5-.5Zm-.5,4.32h-3.32v-3.32h3.32v3.32Z" fill="#FFFFFF"/><path d="M28.11,5.68c.25,0,.49-.03,.73-.08,.51,1.29,2.08,2.2,3.91,2.2,1.23,0,2.38-.42,3.15-1.13,.56,.54,1.32,.89,2.16,.98,0,.05,0,.11,0,.16,0,1.56,1.13,2.82,2.51,2.82s2.51-1.27,2.51-2.82c0-.98-.45-1.87-1.17-2.38,.07-.24,.11-.49,.11-.74,0-1.64-1.57-2.98-3.5-2.98-1.02,0-1.96,.37-2.61,1.01-1.15-1.06-3.27-1.42-4.92-.83-.45-1.05-1.57-1.77-2.88-1.77-1.71,0-3.1,1.24-3.1,2.77s1.39,2.77,3.1,2.77Zm0-4.54c1.04,0,1.92,.66,2.07,1.53,.03,.16,.12,.29,.27,.37,.14,.07,.31,.07,.45,0,.55-.28,1.19-.43,1.86-.43,1.17,0,2.22,.45,2.76,1.18,.1,.13,.25,.19,.41,.2,.16,0,.31-.08,.4-.22,.44-.65,1.28-1.05,2.19-1.05,1.38,0,2.5,.89,2.5,1.98,0,.25-.06,.5-.18,.73-.06,.12-.07,.27-.03,.39,.05,.13,.14,.23,.27,.29,.6,.26,1,.95,1,1.71,0,1-.68,1.82-1.51,1.82s-1.51-.82-1.51-1.82c0-.16,.02-.33,.08-.53,.04-.15,0-.32-.1-.44-.09-.12-.24-.18-.39-.18h-.13c-.91,.01-1.75-.39-2.19-1.04-.09-.13-.24-.21-.4-.22-.15,0-.31,.07-.41,.2-.54,.73-1.6,1.18-2.76,1.18-1.57,0-2.92-.84-3.07-1.9-.02-.15-.11-.29-.25-.36-.13-.08-.29-.09-.44-.03-.29,.12-.59,.17-.89,.17-1.16,0-2.1-.79-2.1-1.77s.94-1.77,2.1-1.77Z" fill="#FFFFFF"/></g></g><g id="uuid-6196ef6c-d0e6-4fa1-879c-d42552553ba9"><text transform="translate(.31 54.92)" font-family="Roboto-Regular, Roboto" font-size="6"><tspan x="0" y="0">manufactu</tspan><tspan x="28.9" y="0" letter-spacing="0em">r</tspan><tspan x="30.87" y="0">e-building</tspan></text></g></svg>