<?xml version="1.0" encoding="UTF-8"?><svg xmlns="http://www.w3.org/2000/svg" viewBox="0 0 50 50">
  <defs>
    <style>
      .cls-1 {
        font-family: ArialMT, Arial;
        font-size: 6px;
      }

      .cls-2 {
        letter-spacing: -.02em;
      }

      .cls-3 {
        letter-spacing: -.04em;
      }
    </style>
  </defs>
  <g id="Black">
    <g>
      <path d="M14.63,35.58c2.86-2.86,6.81-4.63,11.18-4.63.28,0,.5-.22.5-.5s-.22-.5-.5-.5c-4.64,0-8.85,1.88-11.89,4.92-.2.2-.2.51,0,.71.2.2.51.2.71,0Z" fill="#FFFFFF"/>
      <path d="M46.46,45.68h-2.51c-.25-9.49-7.48-17.26-16.75-18.33-.14-1.09-1.06-1.94-2.2-1.94-1.13,0-2.05.85-2.2,1.94-9.26,1.07-16.5,8.84-16.75,18.33h-2.51c-.28,0-.5.22-.5.5s.22.5.5.5h42.91c.28,0,.5-.22.5-.5s-.22-.5-.5-.5ZM25,28.21c9.74,0,17.7,7.79,17.96,17.47H7.04c.27-9.68,8.22-17.47,17.96-17.47ZM25,26.41c.55,0,.99.37,1.15.86-.38-.02-.76-.06-1.15-.06s-.77.04-1.15.06c.16-.5.6-.86,1.15-.86Z" fill="#FFFFFF"/>
      <path d="M23.71,16.86c.01,3.23,2.15,5.45,2.18,5.5.19.2.51.21.71.02.2-.19.21-.51.02-.71l-.02-.02c-.19-.21-1.9-2.21-1.89-4.79,0-1.38.46-2.94,1.92-4.61,1.59-1.8,2.17-3.41,2.17-4.75,0-1.35-.58-2.38-1.14-3.06-.56-.68-1.11-1.03-1.14-1.05-.23-.15-.54-.08-.69.16-.15.23-.08.54.16.69h.01c.08.06.55.39.98.94.43.56.82,1.33.82,2.32,0,1.05-.44,2.41-1.92,4.09-1.61,1.82-2.17,3.66-2.17,5.27Z" fill="#FFFFFF"/>
      <path d="M15.34,18.36c.01,2.3,1.52,3.87,1.55,3.91.19.2.51.21.71.02s.21-.51.02-.71h0c-.12-.14-1.28-1.5-1.27-3.22,0-.92.3-1.96,1.29-3.09,1.12-1.26,1.54-2.41,1.54-3.39,0-.98-.42-1.73-.82-2.22-.4-.49-.8-.74-.83-.76-.23-.15-.54-.08-.69.16-.15.23-.08.54.16.69h0s.32.21.62.58c.29.37.57.88.57,1.55,0,.68-.28,1.59-1.29,2.73-1.13,1.28-1.54,2.6-1.54,3.75Z" fill="#FFFFFF"/>
      <path d="M32.43,18.36c.01,2.3,1.52,3.87,1.55,3.91.19.2.51.21.71.02s.21-.51.02-.71h0c-.12-.14-1.28-1.5-1.27-3.22,0-.92.3-1.96,1.29-3.09,1.12-1.26,1.54-2.41,1.54-3.39,0-.98-.42-1.73-.82-2.22-.4-.49-.8-.74-.83-.76-.23-.15-.54-.08-.69.16-.15.23-.08.54.16.69h0s.32.21.62.58c.29.37.57.88.57,1.55,0,.68-.28,1.59-1.29,2.73-1.13,1.28-1.54,2.6-1.54,3.75Z" fill="#FFFFFF"/>
    </g>
  </g>
  <g id="Labels">
    <text class="cls-1" transform="translate(0 54.76)"><tspan x="0" y="0">Meal</tspan><tspan class="cls-2" x="13" y="0"> </tspan><tspan class="cls-3" x="14.56" y="0">T</tspan><tspan x="18.01" y="0">ray</tspan></text>
  </g>
</svg>