<?xml version="1.0" encoding="UTF-8"?>
<svg id="Layer_1" data-name="Layer 1" xmlns="http://www.w3.org/2000/svg" viewBox="0 0 50 50">
  <path d="M48.67,23.21c0-.28-.22-.5-.5-.5h-5.32v-2.51c0-.28-.22-.5-.5-.5l-12.68-.06-3.37.1v-3.03c0-.23-.16-.43-.38-.49l-7.58-1.81s-.1-.02-.15-.01l-7.91.53c-.26.02-.47.24-.47.5v2.35l-5.48.26c-.27.01-.48.23-.48.5v6.46l-3.03.03c-.28,0-.5.23-.5.5l.02,7.37c0,.27.22.49.49.5l9.21.21,2.65-.21,2.97.07,10.2-.73c1.02-.1,2.65-.2,3.83-.18l18.47-.02c.13,0,.26-.05.35-.15.09-.09.15-.22.15-.35l-.02-8.83ZM6.29,30.52v2l-1.97-.05v-1.99l1.97.03ZM7.29,30.54l1.97.03v2.02s-1.97-.05-1.97-.05v-2.01ZM10.24,25.95l1.97-.02v6.51s-1.95.16-1.95.16l-.02-6.65ZM25.31,20.22v2.1l-9.18-1.06v-2.66s9.18,1.63,9.18,1.63ZM15.14,25.91v2.7s-1.93-.02-1.93-.02v-2.66s1.93-.02,1.93-.02ZM13.21,29.59l1.94.02v2.85s-1.94-.05-1.94-.05v-2.83ZM16.14,28.61v-2.68s9.64.56,9.64.56c.54.04,2.4.15,3.85.15h.07l17.98.02v1.95s-31.53,0-31.53,0ZM47.67,25.66l-17.98-.02h-.07c-1.42,0-3.25-.11-3.79-.15l-9.7-.56v-2.67s9.61,1.11,9.61,1.11c1.13.15,2.74.3,3.94.3l17.98.04v1.95ZM41.85,22.7l-11.66-.02v-2.03l11.66.06v2ZM29.19,20.66v2c-.93-.03-2.01-.12-2.88-.22v-1.69l2.88-.09ZM25.31,19.21l-6.58-1.16v-2.5l6.58,1.57v2.1ZM10.83,15.9l6.91-.46v2.43l-2.02-.36s-.07-.01-.11,0l-4.77.23v-1.83ZM15.13,18.53v2.69s-10.25.3-10.25.3v-2.5l10.25-.49ZM4.87,22.52l10.26-.3v2.69s-10.26.08-10.26.08v-2.47ZM9.24,25.96v3.61s-7.88-.13-7.88-.13v-3.42s7.88-.07,7.88-.07ZM1.36,30.44l1.96.03v1.98l-1.95-.05v-1.97ZM29.72,31.57c-1.23-.02-2.88.08-3.92.18l-9.65.69v-2.83s31.54,0,31.54,0v1.93s-17.97.02-17.97.02Z"/>
</svg>