<?xml version="1.0" encoding="UTF-8"?><svg xmlns="http://www.w3.org/2000/svg" viewBox="0 0 50 50"><g id="uuid-ad1eb11f-b7e1-4985-a4a7-47814e1aaeee"><g><path d="M48.27,22.17c.09,.15,.09,.34,.01,.49l-.97,1.71,.97,1.71c.08,.16,.08,.34,0,.5l-.97,1.7,.97,1.72c.08,.15,.08,.34,0,.49l-.97,1.72,.97,1.71c.08,.16,.08,.35-.01,.5s-.25,.25-.43,.25h-12.87c-3.17,1.73-9.58,2.66-15.73,2.66-8.61,0-17.76-1.8-17.76-5.12,0-1.84,2.8-3.21,6.75-4.07v-6.28c-3.95-.86-6.75-2.23-6.75-4.07,0-3.32,9.15-5.12,17.76-5.12s17.75,1.8,17.75,5.12c0,1.84-2.79,3.21-6.74,4.07v.06h17.59c.18,0,.34,.09,.43,.25Zm-1,4.16l-.97-1.71c-.09-.15-.09-.34,0-.49l.68-1.21H19.24c-3.47,0-7.01-.3-10.01-.86v9.29c0,.95,3.89,2.32,10.01,2.32h27.74l-.68-1.22c-.09-.15-.09-.34,0-.49l.97-1.72-.97-1.71c-.09-.15-.09-.34,0-.49l.97-1.71Zm-17.02-5.48c3.6-.81,5.74-1.97,5.74-3.06,0-1.94-6.88-4.12-16.75-4.12S2.48,15.85,2.48,17.79c0,1.09,2.14,2.25,5.75,3.06,.32,.07,.65,.14,1,.2,2.72,.53,6.12,.87,10.01,.87s7.29-.34,10.01-.87c.34-.06,.68-.13,1-.2Zm2.18,13.82h-13.19c-5.48,0-11.01-1.14-11.01-3.32v-2.2c-3.61,.81-5.75,1.97-5.75,3.06,0,1.94,6.88,4.12,16.76,4.12,5.6,0,10.23-.7,13.19-1.66Z" fill="#FFCD00"/><path d="M19.24,15.73c.8,0,7.82,.06,7.82,2.06s-7.02,2.07-7.82,2.07-7.83-.06-7.83-2.07,7.03-2.06,7.83-2.06Zm6.79,2.06c-.42-.4-2.86-1.06-6.79-1.06s-6.38,.66-6.8,1.06c.42,.41,2.86,1.07,6.8,1.07s6.37-.66,6.79-1.07Z" fill="#FFCD00"/></g></g><g id="uuid-0301e397-fbbb-49c1-b150-5fab8b67e6b5"><text transform="translate(.32 54.98)" font-family="Roboto-Regular, Roboto" font-size="6"><tspan x="0" y="0">medical-tape</tspan></text></g></svg>