<?xml version="1.0" encoding="UTF-8"?><svg xmlns="http://www.w3.org/2000/svg" viewBox="0 0 50 50"><g id="uuid-f358f8c3-57fb-4355-aba6-470fc61ec7c3"><g><path d="M34.08,33.82s-.12,.1-.12,.26,.1,.25,.14,.26c.02,0,.12-.1,.12-.26s-.1-.25-.14-.26Z" fill="#FFFFFF"/><path d="M30.06,28.44s.12-.1,.12-.26-.1-.25-.14-.26c-.02,0-.12,.1-.12,.26s.1,.25,.14,.26Z" fill="#FFFFFF"/><path d="M48.99,41.5l-8.02-18.28c-.08-.18-.26-.3-.46-.3H8.43c-.2,0-.39,.12-.46,.31L.52,41.51c-.06,.15-.04,.33,.05,.47s.25,.22,.42,.22H48.53c.17,0,.33-.08,.42-.23,.09-.14,.11-.32,.04-.47Zm-47.26-.3l7.04-17.28h31.42l7.58,17.28H1.73Z" fill="#FFFFFF"/><path d="M24.95,20.18c2.51,0,4.55-2.04,4.55-4.55,0-.72-.17-1.42-.5-2.06v-.03c-.07-.11-.14-.22-.19-.31l-3.43-5.94c-.18-.31-.69-.31-.87,0l-3.42,5.92c-.07,.11-.13,.22-.19,.33-.01,.02-.02,.04-.03,.07-.32,.64-.48,1.32-.48,2.02,0,2.51,2.04,4.55,4.55,4.55Zm-3.16-6.16v-.02c.06-.09,.11-.17,.17-.27l3-5.19,3.01,5.2c.05,.07,.09,.15,.14,.25,0,.01,0,.02,.02,.03,.26,.51,.39,1.05,.39,1.61,0,1.96-1.59,3.55-3.55,3.55s-3.55-1.59-3.55-3.55c0-.56,.13-1.1,.39-1.61Z" fill="#FFFFFF"/><path d="M24.95,29.71c-3.2,0-6.6,1-6.6,2.84s3.4,2.84,6.6,2.84,6.6-1,6.6-2.84-3.4-2.84-6.6-2.84Zm0,4.68c-3.42,0-5.6-1.09-5.6-1.84s2.18-1.84,5.6-1.84,5.6,1.09,5.6,1.84-2.18,1.84-5.6,1.84Z" fill="#FFFFFF"/><path d="M16.04,33.47c-.65,0-1.13,.37-1.13,.85s.49,.85,1.13,.85,1.13-.37,1.13-.85-.49-.85-1.13-.85Z" fill="#FFFFFF"/><path d="M33.96,28.17c-.85,0-1.52,.51-1.52,1.16s.67,1.16,1.52,1.16,1.52-.51,1.52-1.16-.67-1.16-1.52-1.16Z" fill="#FFFFFF"/><path d="M34.09,33.34c-.49,0-.87,.33-.87,.74s.38,.74,.87,.74,.87-.33,.87-.74-.38-.74-.87-.74Zm0,1s-.14-.1-.14-.26,.1-.25,.12-.26c.04,0,.14,.1,.14,.26s-.1,.25-.12,.26Z" fill="#FFFFFF"/><path d="M30.05,28.92c.49,0,.87-.33,.87-.74s-.38-.74-.87-.74-.87,.33-.87,.74,.38,.74,.87,.74Zm0-1s.14,.1,.14,.26-.1,.25-.12,.26c-.04,0-.14-.1-.14-.26s.1-.25,.12-.26Z" fill="#FFFFFF"/></g></g><g id="uuid-16ed1748-ebec-4795-bc6d-b7ab7eef8536"><text transform="translate(-.1 55.09)" font-family="Roboto-Regular, Roboto" font-size="6"><tspan x="0" y="0">mic</tspan><tspan x="9.86" y="0" letter-spacing="0em">r</tspan><tspan x="11.83" y="0">oscope-slide</tspan></text></g></svg>