<?xml version="1.0" encoding="UTF-8"?><svg id="uuid-34514686-71dc-4c46-b2e9-a99df4ea2486" xmlns="http://www.w3.org/2000/svg" viewBox="0 0 50 50"><g><path d="M30.57,24.27h-3.66v-3.66c0-.28-.22-.5-.5-.5h-3.36c-.28,0-.5,.22-.5,.5v3.66h-3.67c-.28,0-.5,.22-.5,.5v3.36c0,.28,.22,.5,.5,.5h3.67v3.67c0,.28,.22,.5,.5,.5h3.36c.28,0,.5-.22,.5-.5v-3.67h3.66c.28,0,.5-.22,.5-.5v-3.36c0-.28-.22-.5-.5-.5Zm-.5,3.36h-3.66c-.28,0-.5,.22-.5,.5v3.67h-2.36v-3.67c0-.28-.22-.5-.5-.5h-3.67v-2.36h3.67c.28,0,.5-.22,.5-.5v-3.66h2.36v3.66c0,.28,.22,.5,.5,.5h3.66v2.36Z" fill="#FFCD00"/><path d="M48.71,18.22c-.06-.12-.17-.21-.29-.25-1.75-.55-3.51-1.04-5.23-1.44l-1.44-6.7c-.24-1.12-1.25-1.94-2.4-1.94H9.93c-1.15,0-2.16,.82-2.39,1.94l-1.45,6.7c-1.72,.41-3.48,.89-5.23,1.44-.13,.04-.23,.13-.29,.25-.06,.12-.07,.25-.03,.38l2.83,8.99c1.08,3.43,2.16,6.87,3.25,10.3,.32,1.04,.65,2.1,.99,3.14,.08,.26,.37,.41,.63,.33,10.74-3.38,22.08-3.38,32.82,0,.05,.02,.1,.02,.15,.02,.21,0,.41-.14,.48-.35,.33-1.04,.66-2.1,.99-3.14,1.09-3.43,2.17-6.87,3.25-10.3l2.83-8.99c.04-.13,.03-.26-.03-.38ZM8.52,10.04c.14-.66,.73-1.14,1.41-1.14h29.43c.68,0,1.28,.48,1.42,1.15l1.34,6.24c-11.45-2.59-23.5-2.59-34.95,0l1.35-6.24Zm32.36,30.22c-10.63-3.24-21.83-3.24-32.46,0-.23-.72-.46-1.45-.68-2.18,10.99-3.34,22.86-3.34,33.83,0-.23,.73-.45,1.45-.68,2.18Zm4.08-12.97c-1.03,3.28-2.06,6.56-3.1,9.83-11.16-3.4-23.24-3.4-34.43,0-1.04-3.28-2.07-6.56-3.1-9.83l-1.69-5.36c7.73-2.38,15.76-3.5,23.85-3.3,6.86,.17,13.63,1.29,20.16,3.3l-1.69,5.36Zm1.99-6.32c-6.62-2.04-13.49-3.17-20.44-3.34-8.2-.2-16.34,.94-24.17,3.35l-.69-2.2c1.67-.52,3.35-.97,4.99-1.35,11.78-2.79,24.24-2.79,36.03,0,1.64,.38,3.31,.83,4.98,1.35l-.69,2.19Z" fill="#FFCD00"/></g><text transform="translate(.51 56.67)" font-family="MyriadPro-Regular, 'Myriad Pro'" font-size="8"><tspan x="0" y="0">nurs</tspan><tspan x="14.63" y="0" letter-spacing=".03em">e</tspan><tspan x="18.86" y="0" letter-spacing=".02em">-</tspan><tspan x="21.46" y="0">cap</tspan></text></svg>