<?xml version="1.0" encoding="UTF-8"?><svg xmlns="http://www.w3.org/2000/svg" viewBox="0 0 50 50"><g id="uuid-68124daf-1144-452d-8bf8-37f7fe090530"><path d="M45.7,22.34c-2.86-2.86-7.5-2.86-10.36,0l-1.15,1.14-1.14-1.14c-1.74-1.74-4.13-2.41-6.39-2.04l-1.45-1.01,1.34-1.34c2.86-2.86,2.86-7.5,0-10.36s-7.51-2.86-10.36,0l-1.14,1.14-1.14-1.14c-2.86-2.86-7.51-2.86-10.36,0s-2.86,7.5,0,10.36l11.15,11.15c.09,.09,.22,.15,.35,.15s.26-.05,.35-.15l3.23-3.23h2.1c-.12,.53-.19,1.08-.19,1.64,0,1.96,.76,3.8,2.15,5.18l11.15,11.15c.09,.09,.22,.15,.35,.15s.26-.05,.35-.15l11.15-11.15c1.38-1.38,2.15-3.22,2.15-5.18s-.76-3.8-2.15-5.18Zm-23.94,3.54h.54v2.59c0,.19,.1,.36,.27,.44,.07,.04,.15,.06,.23,.06,.1,0,.2-.03,.29-.09l7.37-5.12c.13-.09,.21-.25,.21-.41s-.08-.32-.21-.41l-2.51-1.74c1.66,.02,3.22,.67,4.39,1.85l1.5,1.5c.09,.09,.22,.15,.35,.15s.26-.05,.35-.15l1.5-1.5c1.19-1.19,2.78-1.85,4.47-1.85s3.28,.66,4.47,1.85,1.85,2.78,1.85,4.47-.66,3.28-1.85,4.47l-10.8,10.8-10.8-10.8c-1.2-1.19-1.85-2.78-1.85-4.47,0-.56,.08-1.11,.22-1.64ZM8.73,6.45c1.62,0,3.24,.62,4.47,1.85l1.5,1.5c.09,.09,.22,.15,.35,.15s.26-.05,.35-.15l1.5-1.5c2.47-2.47,6.48-2.47,8.95,0,1.19,1.19,1.85,2.78,1.85,4.47s-.66,3.28-1.85,4.47l-1.47,1.47-1.3-.9c-.15-.11-.35-.12-.52-.03-.16,.09-.27,.26-.27,.44v2.57H14.08c-.13,.01-.26,.07-.36,.16s-.15,.23-.14,.36l.1,4.07c0,.27,.23,.49,.5,.49h3.03l-2.17,2.17L4.25,17.25c-1.19-1.19-1.85-2.78-1.85-4.47s.66-3.28,1.85-4.47c1.23-1.23,2.85-1.85,4.47-1.85Zm5.94,18.43l-.08-3.07h8.21c.28,0,.5-.22,.5-.5v-2.13l6,4.17-6,4.17v-2.13c0-.28-.22-.5-.5-.5H14.67Z" fill="#FFCD00"/></g><g id="uuid-4c83363d-a57c-47c8-b969-ca43cbf8dd9e"><text transform="translate(-.36 54.91)" font-family="Roboto-Regular, Roboto" font-size="6"><tspan x="0" y="0">o</tspan><tspan x="3.42" y="0" letter-spacing="0em">r</tspan><tspan x="5.4" y="0">gan-t</tspan><tspan x="18.95" y="0" letter-spacing="-.02em">r</tspan><tspan x="20.87" y="0">ansplant</tspan></text></g></svg>