<?xml version="1.0" encoding="UTF-8"?><svg id="uuid-0e35fe21-d639-42d3-9003-8e744695ef1d" xmlns="http://www.w3.org/2000/svg" viewBox="0 0 50 50"><path d="M42.7,19.61c1.42,0,2.58-1.16,2.58-2.58,0-.41-.1-.8-.29-1.17h0v-.02c-.04-.06-.07-.12-.11-.18l-1.16-2.01-.5-.86-.52-.9-.6,1.03-.57,1-1,1.72c-.05,.08-.08,.14-.12,.21-.19,.38-.29,.77-.29,1.18,0,1.42,1.16,2.58,2.58,2.58Zm-13.85,28.96c.64-7.41,.64-14.92,0-22.32-.74-.32-1.49-.48-2.23-.48h-.07c-.75,0-1.51,.16-2.26,.48-.64,7.4-.64,14.91,0,22.32,1.51,.64,3.04,.64,4.56,0ZM19.47,5.12l3.97-.96c2.06-.49,4.26-.28,6.18,.61l2.51,1.15c2.26,1.04,4.85,1.04,7.11,0l5.04-2.32v-.54c0-.95-.77-1.73-1.72-1.73H10.62c-.95,0-1.73,.78-1.73,1.73v.47l6.62,1.59c1.29,.31,2.67,.31,3.96,0Zm4.2,.02l-3.96,.95c-1.45,.35-2.99,.35-4.44,0l-6.38-1.53v6.63c0,.96,.78,1.73,1.73,1.73h30.33l1.32-2.28c.18-.31,.69-.31,.86,0l.87,1.5c.18-.27,.28-.6,.28-.95V4.7l-4.63,2.13c-1.26,.58-2.61,.87-3.97,.87s-2.7-.29-3.97-.87l-2.5-1.15c-1.73-.79-3.69-.99-5.54-.54ZM4.2,15.32V7.13c0-.28,.23-.5,.5-.5h3.19V3.06c0-1.5,1.23-2.73,2.73-2.73h31.94c1.5,0,2.72,1.23,2.72,2.73V11.19c0,.73-.29,1.38-.75,1.87l1.21,2.08c.04,.07,.09,.16,.14,.25l-.44,.25,.44-.23c.26,.51,.4,1.05,.4,1.62,0,1.97-1.61,3.58-3.58,3.58s-3.58-1.61-3.58-3.58c0-.57,.14-1.11,.4-1.62,.05-.11,.1-.2,.16-.28l.69-1.21H10.62c-1.5,0-2.73-1.22-2.73-2.73v-3.56h-2.69v7.31l21.51,5.55c.22,.05,.38,.25,.38,.48v3.83c.82,.07,1.64,.28,2.44,.66,.16,.08,.27,.23,.29,.41,.68,7.66,.68,15.42,0,23.08-.02,.17-.13,.33-.29,.4-.97,.46-1.96,.7-2.96,.7s-2-.24-2.97-.7c-.16-.07-.26-.23-.28-.4-.68-7.66-.68-15.42,0-23.08,.02-.18,.13-.33,.28-.41,.82-.39,1.65-.6,2.49-.66v-3.44L4.58,15.81c-.22-.06-.38-.26-.38-.49Z"/></svg>