<?xml version="1.0" encoding="UTF-8"?><svg id="uuid-e7580943-616b-44b7-bcb9-249cc73a8dca" xmlns="http://www.w3.org/2000/svg" viewBox="0 0 50 50"><text transform="translate(0 56.67)" font-family="MyriadPro-Regular, 'Myriad Pro'" font-size="8"><tspan x="0" y="0">pappajohn</tspan></text><g><path d="M48.63,14.67l-5.05-.68h-.13l-5.01,.67h-6.78v-2.63h.34c.27,0,.5-.23,.5-.5v-2.17c0-.28-.23-.5-.5-.5h-2.61v-.91h.63c.28,0,.5-.23,.5-.5v-2.17c0-.25-.19-.47-.43-.5l-5.05-.67s-.09-.01-.13,0l-5.05,.67c-.24,.03-.43,.25-.43,.5v2.17c0,.27,.22,.5,.5,.5h.71v.91h-2.69c-.27,0-.5,.22-.5,.5v2.17c0,.27,.23,.5,.5,.5h.39v2.63h-6.78l-5.01-.67h-.13l-5.05,.68c-.25,.03-.43,.24-.43,.49v2.17c0,.28,.22,.5,.5,.5h.67v1.37h-.67c-.28,0-.5,.22-.5,.5v2.17c0,.28,.22,.5,.5,.5h.67v1.57h-.67c-.28,0-.5,.22-.5,.5v20.84c0,.28,.22,.5,.5,.5H48.56c.28,0,.5-.22,.5-.5V24.44c0-.28-.22-.5-.5-.5h-.67v-1.57h.67c.28,0,.5-.22,.5-.5v-2.17c0-.28-.22-.5-.5-.5h-.67v-1.37h.67c.28,0,.5-.22,.5-.5v-2.17c0-.25-.18-.46-.43-.49Zm-18.11,19.38l-5.24-2.89c-.15-.08-.33-.08-.48,0l-5.25,2.89c-.2,.11-.3,.34-.24,.56,.05,.23,.25,.38,.48,.38h.25v5.79h-1.7v-10.39h13.24v10.39h-1.54v-5.79h.24c.23,0,.43-.15,.49-.38,.05-.22-.05-.45-.25-.56Zm-2.99,1.99h-6.49v-1.05h8v1.05h-1.51Zm1.51,1v3.74h-1.01v-3.74h1.01Zm-2.01,0v3.74h-3.99v-3.74h3.99Zm-4.99,0v3.74h-1v-3.74h1Zm-.3-3.05l3.3-1.82,3.3,1.82h-6.6Zm-3.4-4.6v-4.45h13.24v4.45h-13.24Zm6.66-15.27l6.48,4.36h-12.96l6.48-4.36Zm-5.66,2.6v-4.69h11.32v4.69l-5.38-3.62c-.17-.11-.39-.11-.56,0l-5.38,3.62Zm10.18,2.76v4.46h-1.06v-4.46h1.06Zm-2.06,0v4.46h-1v-4.46h1Zm-2,0v4.46h-1.05v-4.46h1.05Zm-2.05,0v4.46h-1.01v-4.46h1.01Zm-3.06,0h1.05v4.46h-1.05v-4.46Zm11.17,4.46h-1v-4.46h1v4.46ZM20.43,6.95v-1.24l4.55-.6,4.54,.6v1.24h-9.09Zm7.96,1v.91h-6.75v-.91h6.75Zm-9.94,1.91h13.05v1.17h-13.05v-1.17Zm.9,9.62v4.46h-1.01v-4.46h1.01ZM1.94,16.83v-1.23l4.54-.61,4.45,.6s.06,.03,.1,.04v1.2H1.94Zm7.92,1v1.37H3.11v-1.37h6.75Zm-7.92,3.54v-1.17H11.03v1.17H1.94Zm7.92,1v1.57H3.11v-1.57h6.75Zm1.17,22.41H1.94v-5.44H11.03v5.44Zm-5.05-6.44v-4.98h1v4.98h-1Zm5.05,0h-3.05v-5.48c0-.28-.22-.5-.5-.5h-.94s.08-.01,.11-.02l1-.36c.2-.07,.33-.26,.33-.47v-2.62c0-.28-.22-.5-.5-.5h-2c-.27,0-.5,.22-.5,.5v2.62c0,.21,.13,.4,.33,.47l1,.36s.08,.01,.12,.02h-.95c-.27,0-.5,.22-.5,.5v5.48H1.94v-13.4H11.03v13.4Zm-4.55-7l-.5-.18v-1.77h1v1.77l-.5,.18Zm4.38-7.4v-1.57h.67c.27,0,.5-.22,.5-.5v-2.17c0-.28-.23-.5-.5-.5h-.67v-1.37h.67c.27,0,.5-.22,.5-.5v-1.67h6.31v1.73l-1.74,1.17c-.18,.13-.27,.35-.2,.56,.06,.21,.26,.36,.48,.36h.46v4.46h-6.48Zm1.17,5.45v-4.45h5.31v4.45h-5.31Zm5.31,1v10.39h-5.31v-10.39h5.31Zm20.63,14.39H12.03v-1h25.94v1Zm0-2H12.03v-1h25.94v1Zm0-3.94v1.94h-5.39v-10.39h5.39v8.45Zm0-9.45h-5.39v-4.45h5.39v4.45Zm-5.45-5.45v-4.46h.6c.22,0,.42-.15,.48-.36,.07-.21-.02-.43-.2-.56l-1.74-1.17v-1.73h6.31v1.67c0,.28,.23,.5,.5,.5h.67v1.37h-.67c-.27,0-.5,.22-.5,.5v2.17c0,.28,.23,.5,.5,.5h.67v1.57h-6.62Zm15.54,17.34v3.5h-9.09v-5.44h9.09v1.94Zm-5.04-2.94v-4.98h1v4.98h-1Zm5.04-13.4v13.4h-3.04v-5.48c0-.28-.23-.5-.5-.5h-.95s.08-.01,.12-.02l1-.36c.2-.07,.33-.26,.33-.47v-2.62c0-.28-.23-.5-.5-.5h-2c-.28,0-.5,.22-.5,.5v2.62c0,.21,.13,.4,.33,.47l1,.36s.07,.01,.11,.02h-.94c-.28,0-.5,.22-.5,.5v5.48h-3.05v-13.4h9.09Zm-4.54,6.4l-.5-.18v-1.77h1v1.77l-.5,.18Zm-3.38-7.4v-1.57h6.75v1.57h-6.75Zm7.92-3.74v1.17h-9.09v-1.17h9.09Zm-7.92-1v-1.37h6.75v1.37h-6.75Zm7.92-2.37h-9.09v-1.2s.07-.02,.1-.04l4.45-.6,4.54,.61v1.23Z" fill="#FFFFFF"/><path d="M25,18.16c.82,0,1.49-.67,1.49-1.49s-.67-1.49-1.49-1.49-1.49,.67-1.49,1.49,.67,1.49,1.49,1.49Zm0-1.98c.27,0,.49,.22,.49,.49s-.22,.49-.49,.49-.49-.22-.49-.49,.22-.49,.49-.49Z" fill="#FFFFFF"/></g></svg>