<?xml version="1.0" encoding="UTF-8"?><svg id="uuid-9853ce87-52da-43dc-9ad4-b61910b318f7" xmlns="http://www.w3.org/2000/svg" viewBox="0 0 50 50"><text transform="translate(.27 56.67)" font-family="MyriadPro-Regular, 'Myriad Pro'" font-size="8"><tspan x="0" y="0">pause</tspan></text><g><path d="M35,11.54h-7c-.28,0-.5,.23-.5,.5v25.92c0,.27,.22,.5,.5,.5h7c.28,0,.5-.23,.5-.5V12.04c0-.27-.22-.5-.5-.5Zm-.5,25.92h-6V12.54h6v24.92Z" fill="#FFFFFF"/><path d="M22,11.54h-7c-.28,0-.5,.23-.5,.5v25.92c0,.27,.22,.5,.5,.5h7c.28,0,.5-.23,.5-.5V12.04c0-.27-.22-.5-.5-.5Zm-.5,25.92h-6V12.54h6v24.92Z" fill="#FFFFFF"/><path d="M25,1.5C12.04,1.5,1.5,12.04,1.5,25s10.54,23.5,23.5,23.5,23.5-10.54,23.5-23.5S37.96,1.5,25,1.5Zm0,46c-12.41,0-22.5-10.09-22.5-22.5S12.59,2.5,25,2.5s22.5,10.09,22.5,22.5-10.09,22.5-22.5,22.5Z" fill="#FFFFFF"/></g></svg>