<?xml version="1.0" encoding="UTF-8"?><svg xmlns="http://www.w3.org/2000/svg" viewBox="0 0 50 50">
  <defs>
    <style>
      .cls-1 {
        fill: #1f1c1d;
      }

      .cls-2 {
        fill: #221f1f;
        font-family: Roboto-Regular, Roboto;
        font-size: 5px;
      }
    </style>
  </defs>
  <g id="Icon_Outline">
    <g>
      <path class="cls-1" d="M45.42,4.54c-.68-.68-1.56-1.19-2.63-1.57-.03-.01-.06-.03-.09-.04-.02,0-.03,0-.05,0-1.27-.42-2.8-.63-4.64-.64-.05,0-.1,0-.16,0-11.44,0-15.26,8.27-17.55,13.22-.61,1.33-1.19,2.58-1.67,3.05-.48.47-1.73,1.03-3.07,1.63-5,2.23-13.38,5.96-13.45,17.53-.01,2.02.21,4.84,2.03,7,0,0,0,.01.01.02,0,0,0,0,0,0,.18.21.36.42.57.62,0,0,0,0,.01.01,1.9,1.63,4.07,2.33,7.25,2.35.05,0,.1,0,.16,0,11.45,0,15.26-8.27,17.55-13.22.61-1.33,1.19-2.58,1.67-3.05.48-.47,1.74-1.04,3.08-1.63,5-2.23,13.37-5.96,13.45-17.53.02-2.59-.26-5.54-2.47-7.75ZM4.8,43.97s0,0,0,0c-1.18-1.45-1.71-3.42-1.69-6.25.07-10.92,8.08-14.49,12.88-16.63,1.53-.68,2.75-1.23,3.35-1.82.61-.6,1.2-1.88,1.88-3.35,2.19-4.73,5.83-12.64,16.64-12.64.05,0,.1,0,.15,0,1.79.01,3.25.22,4.43.63.94.37,1.66,1.07,2.14,2.1,1.31,2.84.54,7.27-.26,9.39-.38,1.01-1.09,2.14-1.63,2.86-.29.39-.61.77-.96,1.13-.36.38-.76.75-1.19,1.11-1.98,1.66-4.42,2.9-7.46,4.26-.87.39-1.67.74-2.39,1.11-1.29.65-2.18,1.25-2.9,1.96-1.31,1.3-2.12,3.04-3.14,5.25-1.31,2.85-2.54,5.36-4.31,7.31-2.23,2.47-9.86,8.4-15.54,3.58ZM34.03,28.91c-1.48.66-2.76,1.23-3.37,1.83-.61.6-1.2,1.87-1.88,3.35-2.18,4.73-5.83,12.64-16.64,12.64-.05,0-.1,0-.15,0-.28,0-.55-.01-.82-.03,4.34-.64,8.36-3.91,9.91-5.63,1.86-2.06,3.13-4.64,4.48-7.56.98-2.12,1.75-3.79,2.93-4.96.63-.63,1.45-1.17,2.64-1.77.71-.36,1.49-.71,2.35-1.09,3.12-1.39,5.62-2.67,7.69-4.41.46-.38.88-.78,1.27-1.19.37-.39.72-.8,1.04-1.22.58-.77,1.35-2,1.77-3.11.73-1.95,1.43-5.75.7-8.76.8,1.62.94,3.47.93,5.29-.07,10.92-8.07,14.49-12.86,16.62Z" fill="#FFFFFF"/>
      <path class="cls-1" d="M23.36,17.36c.07.03.14.05.21.05.19,0,.37-.11.45-.29.47-1.03,1.06-2.31,1.77-3.54.14-.24.05-.54-.19-.68-.24-.13-.54-.05-.68.19-.72,1.27-1.32,2.57-1.81,3.62-.12.25,0,.55.25.66Z" fill="#FFFFFF"/>
      <path class="cls-1" d="M27.02,11.34c.15,0,.29-.06.39-.19.85-1.07,1.75-1.93,2.79-2.65.22-.16.27-.46.11-.69-.16-.22-.48-.27-.7-.12-1.09.76-2.07,1.68-2.98,2.83-.17.22-.14.53.08.7.09.07.2.11.31.11Z" fill="#FFFFFF"/>
      <path class="cls-1" d="M32.57,7.21c.06,0,.12-.01.18-.03,1.19-.45,2.49-.76,3.76-.89.27-.03.47-.27.45-.55-.03-.27-.28-.48-.55-.45-1.35.14-2.74.47-4.01.95-.26.1-.39.39-.29.64.08.2.27.32.47.32Z" fill="#FFFFFF"/>
      <path class="cls-1" d="M22.68,19.85c.14-.24.06-.54-.18-.68-.24-.14-.54-.06-.68.18-.35.59-.67,1.04-1.03,1.38-.4.39-.92.75-1.63,1.14-.24.13-.33.43-.2.68.09.17.26.26.44.26.08,0,.16-.02.24-.06.8-.43,1.39-.85,1.86-1.31.42-.41.8-.92,1.19-1.59Z" fill="#FFFFFF"/>
      <path class="cls-1" d="M39.4,6.29c.63.07,1.26.18,1.87.33.04.01.08.02.12.02.22,0,.43-.15.48-.38.07-.27-.09-.54-.36-.61-.66-.17-1.33-.29-2.01-.36-.27-.03-.52.17-.55.45-.03.28.17.52.45.55Z" fill="#FFFFFF"/>
      <path class="cls-1" d="M6.19,38.26c0-.28-.22-.5-.5-.5s-.5.22-.5.5c0,1.55.28,2.93.84,4.1.08.18.26.29.45.29.07,0,.15-.02.21-.05.25-.12.36-.42.24-.67-.49-1.04-.74-2.27-.74-3.67Z" fill="#FFFFFF"/>
      <path class="cls-1" d="M8.72,29.37c.15,0,.3-.07.4-.2.2-.27.39-.5.58-.69.65-.66,1.39-1.27,2.26-1.85.23-.15.29-.47.13-.69s-.47-.29-.69-.13c-.92.62-1.71,1.27-2.41,1.98-.22.22-.45.49-.67.8-.16.22-.12.54.11.7.09.07.19.1.3.1Z" fill="#FFFFFF"/>
      <path class="cls-1" d="M7.45,31.02c-.25-.11-.55,0-.66.25-.56,1.25-1,2.59-1.27,3.9-.06.27.12.54.39.59.04,0,.07.01.1.01.23,0,.44-.16.49-.4.26-1.24.67-2.52,1.2-3.7.11-.25,0-.55-.25-.66Z" fill="#FFFFFF"/>
      <path class="cls-1" d="M30.25,11.76c.1.11.23.16.37.16.12,0,.24-.04.34-.13.24-.22.5-.43.77-.63.41-.3,1.27-.87,2.47-1.38.25-.11.37-.4.27-.66-.11-.26-.4-.37-.66-.27-1.29.55-2.23,1.17-2.67,1.49-.3.22-.58.45-.85.7-.2.19-.22.5-.03.71Z" fill="#FFFFFF"/>
      <path class="cls-1" d="M35.89,8.69c.05.24.26.41.49.41.03,0,.06,0,.09,0,1.1-.21,2.15-.22,3.11-.03.26.06.53-.12.59-.39.05-.27-.12-.53-.39-.59-1.09-.22-2.27-.21-3.5.03-.27.05-.45.31-.4.58Z" fill="#FFFFFF"/>
      <path class="cls-1" d="M26.8,17.23c.07.03.14.05.21.05.19,0,.37-.11.45-.29l.13-.28q.2-.44.34-.68l.29-.54c.39-.72.77-1.34,1.16-1.89.16-.23.11-.54-.12-.7-.22-.16-.54-.11-.7.12-.42.59-.82,1.24-1.23,2l-.29.53q-.15.27-.37.75l-.13.28c-.12.25,0,.55.24.66Z" fill="#FFFFFF"/>
      <path class="cls-1" d="M11.75,29.33c-.83.72-1.47,1.49-1.98,2.35-.18.31-.36.65-.52,1-.11.25,0,.55.25.66.07.03.14.04.21.04.19,0,.37-.11.46-.29.15-.32.3-.62.47-.91.45-.77,1.03-1.46,1.77-2.1.21-.18.23-.5.05-.71-.18-.21-.5-.23-.71-.05Z" fill="#FFFFFF"/>
      <path class="cls-1" d="M14.8,27.31c-.32.17-.63.34-.94.53-.24.14-.32.45-.17.69.09.16.26.24.43.24.09,0,.18-.02.26-.07.29-.17.59-.34.9-.5.24-.13.34-.43.21-.68-.13-.24-.43-.34-.68-.21Z" fill="#FFFFFF"/>
      <path class="cls-1" d="M9.35,36.86c0-.51.04-1.02.12-1.5.04-.27-.14-.53-.41-.57-.27-.05-.53.14-.57.41-.09.54-.13,1.1-.13,1.67,0,.8.09,1.64.27,2.49.05.24.26.4.49.4.04,0,.07,0,.11-.01.27-.06.44-.32.38-.59-.17-.78-.25-1.55-.25-2.28Z" fill="#FFFFFF"/>
    </g>
  </g>
  <g id="Names">
    <text class="cls-2" transform="translate(-.01 53.7)"><tspan x="0" y="0">peanut</tspan></text>
  </g>
</svg>