<?xml version="1.0" encoding="UTF-8"?><svg xmlns="http://www.w3.org/2000/svg" viewBox="0 0 50 50">
  <defs>
    <style>
      .cls-1 {
        fill: #1f1c1d;
      }

      .cls-2 {
        fill: #221f1f;
        font-family: Roboto-Regular, Roboto;
        font-size: 5px;
      }
    </style>
  </defs>
  <g id="Icon_Outline">
    <g>
      <path class="cls-1" d="M11.52,18.28c1.11.94,2.52,1.45,3.97,1.45s2.86-.52,3.97-1.45c1.39-1.17,2.18-2.89,2.18-4.7,0-3.39-2.76-6.15-6.15-6.15s-6.15,2.76-6.15,6.15c0,1.81.8,3.52,2.18,4.7ZM15.49,8.43c2.84,0,5.15,2.31,5.15,5.15,0,1.52-.67,2.95-1.83,3.93-1.86,1.57-4.79,1.57-6.64,0-1.16-.98-1.83-2.42-1.83-3.93,0-2.84,2.31-5.15,5.15-5.15Z" fill="#FFFFFF"/>
      <path class="cls-1" d="M30.54,18.28c1.11.94,2.52,1.45,3.97,1.45s2.86-.52,3.97-1.45c1.39-1.17,2.18-2.89,2.18-4.7,0-3.39-2.76-6.15-6.15-6.15s-6.15,2.76-6.15,6.15c0,1.81.8,3.52,2.18,4.7ZM34.51,8.43c2.84,0,5.15,2.31,5.15,5.15,0,1.52-.67,2.95-1.83,3.93-1.86,1.57-4.79,1.57-6.64,0-1.16-.98-1.83-2.42-1.83-3.93,0-2.84,2.31-5.15,5.15-5.15Z" fill="#FFFFFF"/>
      <path class="cls-1" d="M48.62,28.81h-4.1v-2.53c0-3.27-2.57-5.97-5.83-6.14h-3.08s-1.1,0-1.1,0h-1.1s0,0,0,0h-3.08c-2.13.11-3.95,1.3-4.97,3.02h-.73c-1.02-1.72-2.84-2.91-4.97-3.02h-3.08s-1.1,0-1.1,0h-1.1s0,0,0,0h-3.08c-3.26.17-5.82,2.86-5.83,6.14v2.53H1.38c-.28,0-.5.22-.5.5s.22.5.5.5h12.04v7.43c0,.55.45,1,1,1h9.99v1.3h-3.38c-.28,0-.5.22-.5.5s.22.5.5.5h7.77c.28,0,.5-.22.5-.5s-.22-.5-.5-.5h-3.38v-1.3h9.99c.55,0,1-.45,1-1v-7.43h12.23c.28,0,.5-.22.5-.5s-.22-.5-.5-.5ZM13.41,24.15v4.65h-6.94v-2.53c0-2.74,2.15-5,4.85-5.14h4.16s4.16,0,4.16,0c1.54.08,2.89.86,3.77,2.02h-9c-.55,0-1,.45-1,1ZM25.4,37.24v-6.54c0-.28-.22-.5-.5-.5s-.5.22-.5.5v6.54h-9.99v-13.09h20.98v13.09h-9.99ZM43.52,28.81h-7.13v-4.65c0-.55-.45-1-1-1h-8.8c.88-1.16,2.23-1.94,3.77-2.02h4.16s4.16,0,4.16,0c2.71.14,4.85,2.4,4.85,5.14v2.53Z" fill="#FFFFFF"/>
    </g>
  </g>
  <g id="Names">
    <text class="cls-2" transform="translate(0 53.76)"><tspan x="0" y="0">people-at-computer</tspan></text>
  </g>
</svg>