<?xml version="1.0" encoding="UTF-8"?><svg id="Layer_1" data-name="Layer 1" xmlns="http://www.w3.org/2000/svg" viewBox="0 0 50 50">
  <defs>
    <style>
      .cls-1 {
        fill: #231f20;
      }
    </style>
  </defs>
  <path class="cls-1" d="M25,36.03c-6.55,0-12.71-2.55-17.35-7.19l-3.49-3.49c-.2-.2-.2-.51,0-.71l3.49-3.49c4.63-4.63,10.79-7.19,17.35-7.19s12.71,2.55,17.35,7.19l3.49,3.49c.09.09.15.22.15.35s-.05.26-.15.35l-3.49,3.49c-4.63,4.63-10.79,7.19-17.35,7.19ZM5.22,25l3.14,3.14c4.44,4.45,10.35,6.89,16.64,6.89s12.2-2.45,16.64-6.89l3.14-3.14-3.14-3.14c-4.44-4.44-10.35-6.89-16.64-6.89s-12.2,2.45-16.64,6.89l-3.14,3.14Z" fill="#FFCD00"/>
  <path d="M25,36.03c-6.08,0-11.03-4.95-11.03-11.03s4.95-11.03,11.03-11.03,11.03,4.95,11.03,11.03-4.95,11.03-11.03,11.03ZM25,14.97c-5.53,0-10.03,4.5-10.03,10.03s4.5,10.03,10.03,10.03,10.03-4.5,10.03-10.03-4.5-10.03-10.03-10.03Z" fill="#FFCD00"/>
  <path class="cls-1" d="M25,30.45c-3.01,0-5.45-2.45-5.45-5.45,0-.37.04-.75.12-1.13.04-.18.17-.32.34-.37.17-.06.36-.01.49.11.37.34.84.52,1.33.52,1.09,0,1.98-.89,1.98-1.98,0-.56-.24-1.08-.66-1.47-.13-.12-.19-.3-.16-.48s.16-.32.33-.37c.6-.2,1.15-.29,1.69-.29,3.01,0,5.45,2.45,5.45,5.45s-2.45,5.45-5.45,5.45ZM20.55,24.84c0,.05,0,.11,0,.16,0,2.46,2,4.45,4.45,4.45s4.45-2,4.45-4.45-2-4.45-4.45-4.45c-.21,0-.42.02-.65.06.29.46.44,1,.44,1.55,0,1.64-1.34,2.98-2.98,2.98-.44,0-.87-.1-1.27-.29Z" fill="#FFCD00"/>
  <path class="cls-1" d="M25,12.11c-.28,0-.5-.22-.5-.5v-5.72c0-.28.22-.5.5-.5s.5.22.5.5v5.72c0,.28-.22.5-.5.5Z" fill="#FFCD00"/>
  <path class="cls-1" d="M17.66,13.09c-.16,0-.33-.08-.42-.23l-2.52-3.93c-.15-.23-.08-.54.15-.69.23-.15.54-.08.69.15l2.52,3.93c.15.23.08.54-.15.69-.08.05-.18.08-.27.08Z" fill="#FFCD00"/>
  <g>
    <path class="cls-1" d="M32.34,13.09c-.09,0-.19-.03-.27-.08-.23-.15-.3-.46-.15-.69l2.52-3.93c.15-.23.46-.3.69-.15.23.15.3.46.15.69l-2.52,3.93c-.1.15-.26.23-.42.23Z" fill="#FFCD00"/>
    <path class="cls-1" d="M35.77,41.28c-.16,0-.33-.08-.42-.23l-2.36-3.67c-.15-.23-.08-.54.15-.69.23-.15.54-.08.69.15l2.36,3.67c.15.23.08.54-.15.69-.08.05-.18.08-.27.08Z" fill="#FFCD00"/>
  </g>
  <path class="cls-1" d="M14.23,41.28c-.09,0-.19-.03-.27-.08-.23-.15-.3-.46-.15-.69l2.36-3.67c.15-.23.46-.3.69-.15.23.15.3.46.15.69l-2.36,3.67c-.1.15-.26.23-.42.23Z" fill="#FFCD00"/>
  <path class="cls-1" d="M25,44.61c-.28,0-.5-.22-.5-.5v-5.72c0-.28.22-.5.5-.5s.5.22.5.5v5.72c0,.28-.22.5-.5.5Z" fill="#FFCD00"/>
</svg>