<?xml version="1.0" encoding="UTF-8"?><svg id="uuid-d47dea9f-f6de-44d9-a6c8-84a50efb559d" xmlns="http://www.w3.org/2000/svg" viewBox="0 0 50 50"><path d="M24.18,19.36c4.72,0,8.55-3.84,8.55-8.55S28.9,2.25,24.18,2.25s-8.55,3.84-8.55,8.55,3.84,8.55,8.55,8.55Zm0-16.11c4.17,0,7.55,3.39,7.55,7.55s-3.39,7.55-7.55,7.55-7.55-3.39-7.55-7.55,3.39-7.55,7.55-7.55Z" fill="#FFCD00"/><path d="M30.88,20.53h-.27s-.02,0-.03,0h-12.75c-5.01,.23-8.94,4.35-8.95,9.37l-.02,18.43c0,.28,.22,.5,.5,.5l14.99,.02h.01l14.92,.02h0c.13,0,.26-.05,.35-.15s.15-.22,.15-.35l.02-18.43c0-5.01-3.91-9.14-8.92-9.4ZM9.87,29.89c0-4.48,3.52-8.16,7.97-8.38l6,8.75v17.58h-7.09l.02-16.18c0-.28-.22-.5-.5-.5h0c-.28,0-.5,.22-.5,.5l-.02,16.17h-5.91l.02-17.94Zm14.47-.66l-1.84-2.68,.6-2.04h2.45l.61,2.05-1.83,2.67Zm-1.11-7.7h2.21v1.98h-2.21v-1.98Zm-1,0v2.41l-.46,1.55-2.71-3.96h3.17Zm4.66,3.97l-.45-1.52v-2.45h3.17l-2.72,3.97Zm11.87,22.37h-5.83l.02-16.17c0-.28-.22-.5-.5-.5h0c-.28,0-.5,.22-.5,.5l-.02,16.17h-7.1V30.26l5.99-8.73h0c4.47,.23,7.97,3.92,7.96,8.4l-.02,17.93Z" fill="#FFCD00"/><path d="M35.76,28.84v-2.3c0-.28-.22-.5-.5-.5h-5.6c-.28,0-.5,.22-.5,.5v2.3c0,.28,.22,.5,.5,.5h5.6c.28,0,.5-.22,.5-.5Zm-1-.5h-4.6v-1.3h4.6v1.3Z" fill="#FFCD00"/></svg>