<?xml version="1.0" encoding="UTF-8"?><!-- Generator: Adobe Illustrator 27.7.0, SVG Export Plug-In . SVG Version: 6.00 Build 0)  --><svg version="1.1" id="Layer_1" xmlns="http://www.w3.org/2000/svg" xmlns:xlink="http://www.w3.org/1999/xlink" x="0px" y="0px" viewBox="0 0 50 50" style="enable-background:new 0 0 50 50;" xml:space="preserve">
<style type="text/css">
	.st0{display:none;}
	.st1{display:inline;fill:none;stroke:#EA008A;stroke-width:0.2;stroke-miterlimit:10;}
	.st2{font-family:'Roboto-Regular';}
	.st3{font-size:6px;}
</style>
<g id="ICONS_00000031165542127692736420000002692518830807990202_">
	<path d="M48.3643,31.1953h-1.6426v-9.2275c0-0.2764-0.2236-0.5-0.5-0.5h-1.9155L39.2741,7.8325l3.9183-1.6201   c0.2549-0.1055,0.376-0.3979,0.2705-0.6528l-1.3867-3.3545c-0.0508-0.1226-0.1475-0.2202-0.2705-0.271   c-0.1221-0.0498-0.2588-0.0508-0.3828,0L2.2002,18.1509c-0.2549,0.1055-0.376,0.3979-0.2705,0.6528l1.3486,3.2628v9.1288H1.6357   c-0.2764,0-0.5,0.2236-0.5,0.5v4.9819c0,0.2764,0.2236,0.5,0.5,0.5h3.285l0.7687,10.4634c0.0195,0.2612,0.2373,0.4634,0.499,0.4634   h2.8975c0.2617,0,0.4795-0.2021,0.499-0.4634l0.7697-10.4634h29.2908l0.7697,10.4634c0.0195,0.2612,0.2373,0.4634,0.499,0.4634   h2.8975c0.2617,0,0.4795-0.2021,0.499-0.4634l0.7687-10.4634h3.285c0.2764,0,0.5-0.2236,0.5-0.5v-4.9819   C48.8643,31.4189,48.6406,31.1953,48.3643,31.1953z M43.2408,21.4678H6.2962L38.3497,8.2147L43.2408,21.4678z M41.3428,3.0493   l1.0049,2.4302L4.0498,21.3145l-1.0049-2.4307L41.3428,3.0493z M4.2783,22.4678h41.4434v8.7275h-2.6514v-3.3286   c0-0.2764-0.2236-0.5-0.5-0.5H7.4297c-0.2764,0-0.5,0.2236-0.5,0.5v3.3286H4.2783V22.4678z M37.2139,31.1953v-2.8286h4.8564v2.8286   H37.2139z M31.3564,31.1953v-2.8286h4.8574v2.8286H31.3564z M25.5,31.1953v-2.8286h4.8564v2.8286H25.5z M19.6436,31.1953v-2.8286   H24.5v2.8286H19.6436z M13.7861,31.1953v-2.8286h4.8574v2.8286H13.7861z M7.9297,31.1953v-2.8286h4.8564v2.8286H7.9297z    M8.6211,47.104H6.6533l-0.7291-9.9268h3.4269L8.6211,47.104z M43.3467,47.104h-1.9678l-0.73-9.9268h3.4269L43.3467,47.104z    M47.8643,36.1772H2.1357v-3.9819h45.7285L47.8643,36.1772L47.8643,36.1772z" fill="#FFFFFF"/>
</g>
<g id="Margin" class="st0">
	<rect x="1" y="1" class="st1" width="48" height="48" fill="#FFFFFF"/>
</g>
<g id="Guides" class="st0">
</g>
<g id="LABELS">
	<g>
		<g>
			<g>
				<g>
					<g>
						<text transform="matrix(1 0 0 1 -0.1143 55.1228)" class="st2 st3">piano-2</text>
					</g>
				</g>
			</g>
		</g>
	</g>
</g>
</svg>