<?xml version="1.0" encoding="UTF-8"?>
<svg xmlns="http://www.w3.org/2000/svg" viewBox="0 0 50 50">
  <defs>
    <style>
      .cls-1 {
        fill: #1f1c1d;
      }

      .cls-2 {
        fill: #221f1f;
        font-family: Roboto-Regular, Roboto;
        font-size: 5px;
      }
    </style>
  </defs>
  <g id="Icon_Outline">
    <path class="cls-1" d="M49.18,15.26c-.05-1.89-1.59-3.42-3.5-3.42-.35,0-.69.05-1.01.15,0-.07,0-.14,0-.21,0-1.93-1.57-3.5-3.5-3.5-.58,0-1.14.14-1.64.41-.24-1.7-1.71-3.01-3.47-3.01-.94,0-1.83.39-2.48,1.04-.33-.78-.93-1.44-1.71-1.81-.87-.41-1.87-.46-2.77-.13-.87.32-1.55.96-1.92,1.82-.43-.22-.9-.36-1.42-.36h-3.24c-1.11,0-2.01-.9-2.01-2.01,0-.32.08-.64.22-.92.1-.19.06-.43-.09-.58-.15-.15-.39-.19-.58-.09-1.74.9-2.83,2.67-2.83,4.61,0,.8.2,1.55.53,2.23-1.12.96-1.74,2.17-1.74,3.44,0,.46.09.9.24,1.33L1.05,23.81c-.15.09-.22.25-.23.41,0,.02-.01.04-.01.07v22.63c0,.15.06.29.17.38.09.08.21.12.33.12.03,0,.05,0,.08,0l47.37-7.35c.24-.04.42-.25.42-.49V15.3s0-.03,0-.04ZM18.31,10.35c.96,1.25,2.46,2.08,4.16,2.08.28,0,.5-.22.5-.5s-.22-.5-.5-.5c-2.33,0-4.23-1.88-4.23-4.19,0-1.13.48-2.22,1.28-3,.01,1.65,1.36,2.98,3.01,2.98h3.24c1.16,0,2.1.94,2.1,2.1,0,.09,0,.17-.02.26-.05.44-.24.84-.55,1.17-.19.2-.18.52.03.71.2.19.52.18.71-.03.3-.32.51-.7.65-1.1.9.66,1.3,1.46,1.3,2.58,0,2.41-2.91,4.36-6.49,4.36s-6.49-1.96-6.49-4.36c0-.92.47-1.82,1.28-2.56ZM23.51,18.28c4.13,0,7.49-2.41,7.49-5.36,0-.9-.22-1.66-.67-2.32,6.71,1.57,11.31,5.11,13,6.58L3.69,23.33l13.02-8.18c1.19,1.84,3.78,3.13,6.8,3.13ZM1.82,24.64l42.09-6.53.02,16.89L1.82,41.53v-16.89ZM48.18,39.15L1.82,46.34v-3.8l42.69-6.63s.04-.02.06-.02c.03,0,.06-.02.09-.03.03-.02.05-.03.08-.05.02-.02.05-.04.07-.06.02-.03.04-.05.05-.08.02-.03.03-.05.04-.08.01-.03.02-.06.02-.1,0-.02.01-.04.01-.06l-.02-17.92c0-.13-.05-.25-.14-.35-.24-.25-6.02-6.12-15.84-7.86,0,0,0,0,0,0-.02-.01-.04-.02-.06-.04-.02-.79-.33-1.5-.84-2.04.02-.07.04-.14.09-.25.25-.58.73-1.03,1.34-1.25.64-.24,1.37-.21,1.99.09.82.39,1.36,1.21,1.41,2.13.01.23.18.42.4.46.23.04.45-.07.55-.28.41-.88,1.3-1.44,2.26-1.44,1.38,0,2.5,1.12,2.5,2.5,0,.15-.02.29-.04.43-.04.22.07.43.27.53.19.1.43.06.58-.1.48-.49,1.11-.76,1.79-.76,1.38,0,2.5,1.12,2.5,2.5,0,.31-.06.62-.18.92-.08.21-.02.44.16.58.17.14.42.14.6.02.42-.3.92-.46,1.43-.46,1.38,0,2.5,1.12,2.5,2.5v23.81Z"/>
  </g>
  <g id="Names">
    <text class="cls-2" transform="translate(0 53.66)"><tspan x="0" y="0">pie</tspan></text>
  </g>
</svg>