<?xml version="1.0" encoding="UTF-8"?><svg xmlns="http://www.w3.org/2000/svg" viewBox="0 0 50 50"><g id="uuid-182027b1-0b79-47c8-ba45-b1a32f1a02d1"><path d="M42.63,27.08l-19.95-2.69,12.3-15.93c.08-.11,.12-.24,.1-.37-.02-.13-.09-.25-.19-.33-6.05-4.64-14.17-5.74-21.2-2.85C2.77,9.39-2.48,21.94,2.01,32.88c2.17,5.3,6.28,9.43,11.56,11.64,2.66,1.11,5.46,1.67,8.26,1.67s5.52-.54,8.14-1.62c7.03-2.88,12.04-9.37,13.08-16.92,.02-.13-.02-.26-.1-.37-.08-.11-.2-.17-.33-.19Zm-13.03,16.56c-5.05,2.08-10.61,2.06-15.64-.05-5.04-2.1-8.95-6.04-11.02-11.09C-1.34,22.07,3.65,10.11,14.08,5.83c2.48-1.02,5.1-1.52,7.71-1.52,4.29,0,8.54,1.34,12.1,3.93l-12.52,16.21c-.11,.14-.13,.33-.07,.5,.07,.17,.22,.28,.4,.31l20.3,2.74c-1.14,6.99-5.85,12.95-12.39,15.64Z" fill="#FFFFFF"/><path d="M47.5,14.2c-1.43-3.48-3.77-6.53-6.77-8.84-.22-.17-.53-.13-.7,.09l-12.83,16.62c-.11,.14-.13,.33-.07,.5,.07,.17,.22,.28,.4,.31l20.81,2.81s.04,0,.07,0c.25,0,.46-.18,.49-.43,.52-3.75,.04-7.57-1.39-11.05Zm.46,10.42l-19.45-2.62,12-15.53c2.68,2.16,4.77,4.96,6.07,8.12,1.3,3.16,1.77,6.62,1.39,10.04Z" fill="#FFFFFF"/></g><g id="uuid-d99a48b5-91b9-4a92-bda8-66842943c5c8"><text transform="translate(0 54.74)" font-family="Roboto-Regular, Roboto" font-size="6"><tspan x="0" y="0">pie-cha</tspan><tspan x="19.37" y="0" letter-spacing=".02em">r</tspan><tspan x="21.54" y="0">t</tspan></text></g></svg>