<?xml version="1.0" encoding="UTF-8"?><svg xmlns="http://www.w3.org/2000/svg" viewBox="0 0 50 50"><g id="uuid-e990ff54-2860-4ebb-9328-d45648931bb9"><g><path d="M27.32,9.31l-6.21,6.46c-.19,.2-.19,.52,.01,.71,.1,.09,.22,.14,.35,.14,.13,0,.26-.05,.36-.15l6.21-6.46c3.22-3.34,8.17-4.13,11.54-1.84,.23,.16,.54,.1,.69-.13,.16-.23,.1-.54-.13-.69-3.76-2.57-9.27-1.72-12.82,1.97Z" fill="#FFCD00"/><path d="M43.88,4.68l-.08-.08C39.13,.11,31.67,.25,27.18,4.93L5.04,27.96c-2.17,2.25-3.33,5.23-3.27,8.38,.06,3.15,1.34,6.07,3.59,8.24l.08,.08c2.28,2.19,5.21,3.27,8.14,3.27,3.09,0,6.17-1.21,8.47-3.6l22.15-23.03c4.49-4.67,4.34-12.13-.33-16.62ZM21.34,43.64c-4.11,4.27-10.93,4.41-15.2,.3h0l-.08-.08c-2.06-1.98-3.23-4.66-3.28-7.54-.06-2.88,1-5.6,2.99-7.66l10.6-11.03,15.59,14.98-10.61,11.03Zm22.15-23.03l-10.85,11.28-15.59-14.98L27.9,5.62c2.11-2.19,4.93-3.3,7.75-3.3s5.37,1,7.45,3l.08,.08c4.27,4.11,4.41,10.93,.3,15.2Z" fill="#FFCD00"/></g></g><g id="uuid-4e2f3e37-eedb-4bcd-bf71-d6df3fc3801f"><text transform="translate(.07 55.07)" font-family="Roboto-Regular, Roboto" font-size="6"><tspan x="0" y="0">pill-capsule</tspan></text></g></svg>