<?xml version="1.0" encoding="UTF-8"?><svg id="uuid-65dad745-a597-488c-9500-4e6b4f5864a3" xmlns="http://www.w3.org/2000/svg" viewBox="0 0 50 50"><path d="M34.27,11.67V7.31h1.92c.28,0,.5-.22,.5-.5V.71c0-.28-.22-.5-.5-.5H13.31c-.28,0-.5,.22-.5,.5V6.81c0,.28,.22,.5,.5,.5h1.92v4.36c-2.84,.59-4.98,3.11-4.98,6.13v30.99c0,.28,.22,.5,.5,.5h28c.28,0,.5-.22,.5-.5V17.8c0-3.01-2.14-5.53-4.98-6.13Zm-18.04-.13V7.31h17.04v4.23H16.23Zm9.02-5.23V1.21h5.52V6.31h-5.52Zm-1,0h-5.52V1.21h5.52V6.31Zm11.44,0h-3.93V1.21h3.93V6.31ZM13.81,1.21h3.93V6.31h-3.93V1.21Zm2.7,11.33h16.48c2.9,0,5.26,2.36,5.26,5.26v2.31H11.25v-2.31c0-2.9,2.36-5.26,5.26-5.26Zm21.74,27.18H11.25V21.11h27v18.6Zm-27,1h27v7.57H11.25v-7.57Z" fill="#FFCD00"/><path d="M31.27,27.34h-3.4v-3.4c0-.28-.22-.5-.5-.5h-5.24c-.28,0-.5,.22-.5,.5v3.4h-3.4c-.28,0-.5,.22-.5,.5v5.24c0,.28,.22,.5,.5,.5h3.4v3.4c0,.28,.22,.5,.5,.5h5.24c.28,0,.5-.22,.5-.5v-3.4h3.4c.28,0,.5-.22,.5-.5v-5.24c0-.28-.22-.5-.5-.5Zm-.5,5.24h-3.4c-.28,0-.5,.22-.5,.5v3.4h-4.24v-3.4c0-.28-.22-.5-.5-.5h-3.4v-4.24h3.4c.28,0,.5-.22,.5-.5v-3.4h4.24v3.4c0,.28,.22,.5,.5,.5h3.4v4.24Z" fill="#FFCD00"/></svg>