<?xml version="1.0" encoding="UTF-8"?><svg xmlns="http://www.w3.org/2000/svg" viewBox="0 0 50 50"><g id="uuid-f1ed43b5-ab08-4c77-a11a-c5a9a84ead5f"><path d="M24.96,1.25c-6.52,0-12.42,2.66-16.67,6.95-.01,0-.02,.01-.03,.02-.01,.01-.02,.03-.03,.04C4.07,12.48,1.5,18.26,1.5,24.63c0,12.89,10.53,23.38,23.46,23.38s23.46-10.49,23.46-23.38S37.9,1.25,24.96,1.25ZM2.5,24.63c0-5.93,2.33-11.33,6.13-15.34l31.73,31.61c-4.02,3.78-9.44,6.1-15.39,6.1-12.39,0-22.46-10.04-22.46-22.38Zm38.57,15.58L9.33,8.58c4.05-3.91,9.56-6.33,15.63-6.33,12.39,0,22.46,10.04,22.46,22.38,0,6.05-2.43,11.55-6.36,15.58Z" fill="#FFCD00"/></g><g id="uuid-0d197e96-8248-4643-a853-ce217d738722"><text transform="translate(-.04 55.07)" font-family="Roboto-Regular, Roboto" font-size="6"><tspan x="0" y="0">pill-tablet</tspan></text></g></svg>