<?xml version="1.0" encoding="UTF-8"?><svg id="uuid-2faed5ee-37c3-4802-8c8d-144bccb4546d" xmlns="http://www.w3.org/2000/svg" viewBox="0 0 50 50"><text transform="translate(-.54 56.67)" font-family="MyriadPro-Regular, 'Myriad Pro'" font-size="8"><tspan x="0" y="0">pl</tspan><tspan x="6.44" y="0" letter-spacing="0em">a</tspan><tspan x="10.23" y="0" letter-spacing="0em">y</tspan></text><g><path d="M18.26,11.61c-.15-.09-.34-.09-.5,0-.16,.09-.25,.25-.25,.43v25.92c0,.18,.09,.34,.25,.43,.08,.05,.16,.07,.25,.07s.17-.03,.25-.07l21.63-12.96c.15-.09,.25-.25,.25-.43s-.1-.34-.25-.43L18.26,11.61Zm.25,25.46V12.93l20.15,12.07-20.15,12.07Z" fill="#FFCD00"/><path d="M25,1.5C12.04,1.5,1.5,12.04,1.5,25s10.54,23.5,23.5,23.5,23.5-10.54,23.5-23.5S37.96,1.5,25,1.5Zm0,46c-12.41,0-22.5-10.09-22.5-22.5S12.59,2.5,25,2.5s22.5,10.09,22.5,22.5-10.09,22.5-22.5,22.5Z" fill="#FFCD00"/></g></svg>