<?xml version="1.0" encoding="UTF-8"?>
<svg xmlns="http://www.w3.org/2000/svg" viewBox="0 0 50 50">
  <defs>
    <style>
      .cls-1 {
        fill: #1f1c1d;
      }

      .cls-2 {
        fill: #221f1f;
        font-family: Roboto-Regular, Roboto;
        font-size: 5px;
      }
    </style>
  </defs>
  <g id="Icon_Outline">
    <g>
      <path class="cls-1" d="M28.53,10.09c.28,0,.5-.22.5-.5v-2.64c0-.28-.22-.5-.5-.5s-.5.22-.5.5v2.64c0,.28.22.5.5.5Z"/>
      <path class="cls-1" d="M26.08,10.28c.1.12.24.18.38.18.11,0,.23-.04.32-.12.21-.18.24-.49.06-.7l-1.32-1.58c-.18-.21-.5-.24-.7-.06-.21.18-.24.49-.06.7l1.32,1.58Z"/>
      <path class="cls-1" d="M30.6,10.46c.14,0,.28-.06.38-.18l1.32-1.58c.18-.21.15-.53-.06-.71-.21-.18-.53-.15-.71.06l-1.32,1.58c-.18.21-.15.53.06.71.09.08.21.12.32.12Z"/>
      <path class="cls-1" d="M18.19,32.93l-.28,1.58c-.07.37.08.75.39.98.18.13.38.19.59.19.16,0,.31-.04.46-.11l1.42-.73,1.41.75c.15.08.31.12.47.12.21,0,.41-.06.58-.19.31-.22.47-.6.4-.98l-.26-1.58,1.15-1.11c.27-.26.38-.66.26-1.02-.12-.36-.43-.63-.8-.69l-1.58-.24-.7-1.44c-.17-.34-.51-.56-.89-.56h0c-.38,0-.72.21-.89.55l-.72,1.43-1.58.22c-.38.05-.69.31-.81.67-.12.36-.03.76.24,1.03l1.14,1.13ZM19.79,30.82s.08-.03.1-.07l.92-1.84.9,1.85s.05.07.1.07l2.03.31-1.48,1.43s-.04.07-.04.11l.33,2.03-1.81-.97s-.04-.02-.06-.02-.04,0-.06.01l-1.83.94.36-2.02s0-.09-.04-.12l-1.46-1.45,2.04-.28Z"/>
      <path class="cls-1" d="M10.38,35.45c-1.33,0-2.41,1.08-2.41,2.41s1.08,2.41,2.41,2.41,2.41-1.08,2.41-2.41-1.08-2.41-2.41-2.41ZM10.38,39.27c-.78,0-1.41-.63-1.41-1.41s.63-1.41,1.41-1.41,1.41.63,1.41,1.41-.63,1.41-1.41,1.41Z"/>
      <path class="cls-1" d="M48.44,25.26h-7.86l-7.76-9.72c-.09-.12-.24-.19-.39-.19h-1.43l-.55-4.04c-.03-.25-.25-.43-.5-.43h-2.92c-.25,0-.47.19-.5.44l-.47,4.03H5.55c-.2,0-.39.12-.46.31l-4,9.86c-.02.06-.02.12-.02.17,0,.02-.01.04-.01.06v12.11c0,.28.22.5.5.5h3.15c.26,2.9,2.7,5.18,5.67,5.18s5.41-2.28,5.67-5.18h17.71c.26,2.9,2.7,5.18,5.67,5.18s5.41-2.28,5.67-5.18h3.36c.28,0,.5-.22.5-.5v-12.11c0-.28-.22-.5-.5-.5ZM39.26,25.21h-12.47v-6.36h7.39l5.08,6.36ZM27.48,11.88h2.04l.47,3.47h-2.91l.4-3.47ZM5.89,16.35h26.29l1.2,1.5H7.24c-.2,0-.38.12-.46.31l-2.95,7.05h-1.53l3.59-8.86ZM25.79,18.85v6.36h-10v-6.36h10ZM14.8,18.85v6.36H4.91l2.66-6.36h7.23ZM2.06,29.37h1.83v1.31h-1.83v-1.31ZM10.38,42.55c-2.59,0-4.69-2.1-4.69-4.69s2.1-4.69,4.69-4.69,4.69,2.1,4.69,4.69-2.1,4.69-4.69,4.69ZM39.42,42.55c-2.59,0-4.69-2.1-4.69-4.69s2.1-4.69,4.69-4.69,4.69,2.1,4.69,4.69-2.1,4.69-4.69,4.69ZM47.94,30.68h-1.78v-1.31h1.78v1.31ZM47.94,28.37h-2.28c-.28,0-.5.22-.5.5v2.31c0,.28.22.5.5.5h2.28v5.69h-2.86c-.25-2.91-2.69-5.2-5.67-5.2s-5.42,2.29-5.67,5.2h-17.71c-.25-2.91-2.69-5.2-5.67-5.2s-5.42,2.29-5.67,5.2h-2.65v-5.69h2.33c.28,0,.5-.22.5-.5v-2.31c0-.28-.22-.5-.5-.5h-2.33v-2.11h45.88v2.11Z"/>
      <path class="cls-1" d="M39.42,35.45c-1.33,0-2.41,1.08-2.41,2.41s1.08,2.41,2.41,2.41,2.41-1.08,2.41-2.41-1.08-2.41-2.41-2.41ZM39.42,39.27c-.78,0-1.41-.63-1.41-1.41s.63-1.41,1.41-1.41,1.41.63,1.41,1.41-.63,1.41-1.41,1.41Z"/>
      <path class="cls-1" d="M28.46,29.37h2.64c.28,0,.5-.22.5-.5s-.22-.5-.5-.5h-2.64c-.28,0-.5.22-.5.5s.22.5.5.5Z"/>
    </g>
  </g>
  <g id="Names">
    <text class="cls-2" transform="translate(.52 53.82)"><tspan x="0" y="0">police-car</tspan></text>
  </g>
</svg>