<?xml version="1.0" encoding="UTF-8"?><!-- Generator: Adobe Illustrator 27.7.0, SVG Export Plug-In . SVG Version: 6.00 Build 0)  --><svg version="1.1" id="Layer_1" xmlns="http://www.w3.org/2000/svg" xmlns:xlink="http://www.w3.org/1999/xlink" x="0px" y="0px" viewBox="0 0 50 50" style="enable-background:new 0 0 50 50;" xml:space="preserve">
<style type="text/css">
	.st0{display:none;}
	.st1{display:inline;fill:none;stroke:#EA008A;stroke-width:0.2;stroke-miterlimit:10;}
	.st2{font-family:'Roboto-Regular';}
	.st3{font-size:6px;}
</style>
<g id="ICONS_00000031165542127692736420000002692518830807990202_">
	<g>
		<path d="M43.6465,37.8379c-0.0005,0-0.0015,0-0.002,0l-9.9265,0.6237l0.9695-9.362h1.4185c0.2764,0,0.5-0.2236,0.5-0.5v-6.1982    c0-0.2764-0.2236-0.5-0.5-0.5H24.3315v-9.4656c1.6793-0.1412,2.4526-0.968,2.7979-1.6789    c1.1299-2.3252-0.606-6.5029-2.9048-9.4277c-0.1895-0.2422-0.5967-0.2422-0.7861,0c-2.2988,2.9248-4.0347,7.1025-2.9048,9.4277    c0.3452,0.7109,1.1185,1.5377,2.7979,1.6789v5.7413l-1.8736-1.0292c0.527-1.2463,0.2301-2.1235-0.1469-2.6556    c-1.2314-1.7393-4.915-2.1504-7.9194-1.6543c-0.1514,0.0244-0.2827,0.1182-0.3564,0.252c-0.0742,0.1348-0.082,0.2959-0.022,0.4365    c1.1914,2.8008,3.5122,5.6914,5.6426,5.7979c0.04,0.002,0.0811,0.0029,0.123,0.0029c0.639,0,1.4767-0.2564,2.1988-1.3018    l2.3539,1.2931v2.5829H12.3662c-0.2764,0-0.5,0.2236-0.5,0.5v6.1982c0,0.2764,0.2236,0.5,0.5,0.5h1.4185l0.5248,5.0684h-1.2856    c-5.7295,0-9.1451,3.8446-10.3372,7.1507c-0.0009,0.0018-0.0014,0.0036-0.0022,0.0055C2.6817,41.3321,2.678,41.34,2.6752,41.3478    c-0.0391,0.1084-0.0391,0.2275,0,0.3359c0.0027,0.0078,0.0065,0.0157,0.0093,0.0234c0.0008,0.0019,0.0013,0.0037,0.0022,0.0056    c1.1921,3.3051,4.6077,7.1497,10.3372,7.1497h11.6543c0.1792,0,0.3447-0.0957,0.4336-0.251    c0.0894-0.1553,0.0884-0.3467-0.002-0.501c-0.1841-0.3153-0.3513-0.6344-0.5096-0.9551h7.7664    c0.2563,0,0.4707-0.1934,0.4976-0.4482l0.2256-2.1776l10.5859,0.6639c2.0283,0,3.6782-1.6494,3.6782-3.6777    S45.7051,37.8379,43.6465,37.8379z M18.7056,18.3252c-1.5083-0.0752-3.3848-2.2998-4.4995-4.5908    c2.5327-0.2881,5.4165,0.1035,6.2891,1.3359c0.3057,0.4318,0.3219,0.959,0.0761,1.5904l-1.0961-0.6021    c-0.2412-0.1328-0.5459-0.0439-0.6787,0.1973c-0.1333,0.2422-0.0449,0.5469,0.1973,0.6797l1.0967,0.6025    C19.6877,18.0909,19.2315,18.3711,18.7056,18.3252z M21.4331,10.3193c-0.8481-1.7451,0.5117-5.2363,2.3984-7.8506    c1.8867,2.6143,3.2466,6.1055,2.3984,7.8506c-0.3141,0.6465-0.9642,1.0048-1.8984,1.1025V9.4014c0-0.2764-0.2236-0.5-0.5-0.5    s-0.5,0.2236-0.5,0.5v2.0204C22.3973,11.3242,21.7472,10.9658,21.4331,10.3193z M12.8662,22.9014H35.606v5.1982h-1.3696H14.2358    h-1.3696C12.8662,28.0996,12.8662,22.9014,12.8662,22.9014z M14.7905,29.0996h18.8911l-0.976,9.4256l-5.209,0.3273    c-0.2637,0.0166-0.4688,0.2354-0.4688,0.499v1.6641h-3.8074c0.0924-2.0242,0.736-4.1199,1.8895-6.0957    c0.0903-0.1543,0.0913-0.3457,0.002-0.501s-0.2544-0.251-0.4336-0.251h-9.3629L14.7905,29.0996z M13.0239,47.8623    c-4.8423,0-7.8641-3.0131-9.1359-5.8467h7.6838c0.2764,0,0.5-0.2236,0.5-0.5s-0.2236-0.5-0.5-0.5H3.888    c1.2718-2.8337,4.2932-5.8477,9.1359-5.8477H23.833c-1.0693,2.0713-1.6313,4.25-1.6313,6.3477s0.562,4.2764,1.6313,6.3467H13.0239    z M31.916,46.1553h-7.7615c-0.5549-1.3736-0.8717-2.7723-0.9341-4.1396h3.8074v1.6641c0,0.2637,0.2051,0.4824,0.4688,0.499    l4.5941,0.2881L31.916,46.1553z M43.707,44.1943L28.0278,43.21v-3.3887l15.6479-0.9844c1.4766,0,2.6782,1.2021,2.6782,2.6787    S45.1523,44.1934,43.707,44.1943z" fill="#FFCD00"/>
		<path d="M43.7894,40.5864c-0.5151,0-0.9326,0.4175-0.9326,0.9326c0,0.515,0.4175,0.9325,0.9326,0.9325    c0.515,0,0.9325-0.4175,0.9325-0.9325C44.7219,41.0039,44.3044,40.5864,43.7894,40.5864z" fill="#FFCD00"/>
	</g>
</g>
<g id="Margin" class="st0">
	<rect x="1" y="1" class="st1" width="48" height="48" fill="#FFCD00"/>
</g>
<g id="Guides" class="st0">
</g>
<g id="LABELS">
	<g>
		<g>
			<g>
				<g>
					<g>
						<g>
							<g>
								<text transform="matrix(1 0 0 1 -0.116 55.1226)" class="st2 st3">potted-plant</text>
							</g>
						</g>
					</g>
				</g>
			</g>
		</g>
	</g>
</g>
</svg>