<?xml version="1.0" encoding="UTF-8"?><svg xmlns="http://www.w3.org/2000/svg" viewBox="0 0 50 50"><g id="uuid-2271940b-f833-4a66-ad30-920b19ac3bd9"><path d="M12.28,27.59c.03,.21,.19,.37,.39,.41,.6,.13,1.37,.25,2.25,.37-.32-3.06-.38-9.11-.14-15.93-.06-.11-.15-.24-.29-.38-.25-.24-.52-.35-.68-.4-.61-.22-1.21-.36-1.8-.46-.24,7.32-.14,13.71,.27,16.39Z" fill="none"/><path d="M45.45,29.45c-.85-.85-2.04-1.16-3.13-.93-.22-.48-.46-.94-.71-1.37-3.13-5.43-9.77-7.35-13.03-7.98,2.15-1.49,2.56-4.79,2.35-6.42-.28-2.14-1.8-4-4.89-6l-.8-.63s-2.78-2.16-4.5-4.47c-.14-.19-.39-.25-.6-.16-3.25,1.45-5.99,1.68-8.88,.74-.2-.14-.41-.26-.63-.37-.01,0-.03-.02-.04-.02-.01,0-.03,0-.04-.01-.53-.25-1.11-.4-1.7-.43-1.23-.07-2.42,.34-3.34,1.17-.93,.83-1.48,1.98-1.55,3.22-.09,1.71-.17,3.32-.23,4.82,0,.03,.01,.05,.02,.08,0,.03-.02,.05-.02,.08-.8,20.55,1.43,22.36,2.92,23.57,.05,.04,.12,.09,.18,.14-.8,1.61-3.43,7.58-1.99,13.71,.05,.23,.25,.39,.49,.39,0,0,14.67,.04,25.53,.04,1.67,0,3.09,0,4.32,0,7.31,0,7.33-.02,7.49-.19,2.34-2.34,2.72-7.82,1.77-13.09l1.04-1.04c1.34-1.34,1.34-3.52,0-4.85Zm-5.14,8.58l-4.44-4.44c-.95-.95-.95-2.49,0-3.44,.47-.47,1.1-.71,1.72-.71s1.25,.24,1.72,.71l.64,.64c.09,.09,.22,.15,.35,.15s.26-.05,.35-.15l.64-.64c.95-.95,2.49-.95,3.44,0s.95,2.49,0,3.44l-4.44,4.44ZM4.95,5.84c.05-.98,.49-1.87,1.22-2.53,.73-.65,1.66-.97,2.62-.92,.5,.03,.98,.16,1.42,.38,.46,.23,.88,.55,1.2,.95,.58,.71,.88,1.6,.83,2.52-.06,1.2-.12,2.43-.17,3.68-3.09-1.14-5.99-.47-7.32-.03,.06-1.27,.12-2.62,.2-4.04Zm-.24,5.13c.93-.35,4.08-1.34,7.32-.02-.25,7.43-.15,13.94,.26,16.64,.03,.21,.19,.37,.39,.41,3.06,.66,10.2,1.15,15.36,1.28,2.01,.05,3.6,1.73,3.55,3.74-.05,1.99-1.65,3.55-3.74,3.55h0c-13.67-.35-18.5-1.86-20.16-2.72-.01,0-.03,0-.05-.01-.16-.11-.29-.21-.39-.29-1.16-.94-3.31-2.69-2.55-22.58ZM42.06,47.58c-.65,.02-3.26,.03-11.23,.03-9.8,0-22.7-.04-25.12-.04-1.13-5.53,1.21-11,1.96-12.58,.05,.02,.1,.04,.16,.04,0,0,.01,0,.02,0,2.46,1.05,7.91,2.24,19.97,2.55h.13c2.54,0,4.58-1.99,4.65-4.53,.06-2.56-1.97-4.7-4.53-4.77-5.77-.15-12.01-.65-14.84-1.19-.37-2.88-.44-9.22-.19-16.41,.05-1.49,.12-2.97,.19-4.4,.05-.97-.21-1.91-.72-2.72,2.48,.48,4.91,.16,7.67-1.01,1.8,2.28,4.34,4.26,4.45,4.34l.83,.66c3.66,2.37,4.32,4.08,4.48,5.31,.19,1.45-.25,5.58-3.34,6.01-.25,.03-.44,.25-.43,.51,0,.25,.2,.46,.45,.49,.1,0,10.23,1.03,14.12,7.77,.23,.4,.44,.81,.65,1.23-.28,.15-.55,.33-.79,.57l-.29,.29-.29-.29c-1.34-1.34-3.51-1.34-4.85,0s-1.34,3.52,0,4.85l4.79,4.79c.09,.09,.22,.15,.35,.15s.26-.05,.35-.15l2.92-2.92c.73,4.88,.15,9.54-1.52,11.41Z" fill="#FFFFFF"/></g><g id="uuid-ab48e7f0-9c52-4562-a7b0-ac006dc8b75d"><text transform="translate(-.16 55.01)" font-family="Roboto-Regular, Roboto" font-size="6"><tspan x="0" y="0">p</tspan><tspan x="3.37" y="0" letter-spacing="0em">r</tspan><tspan x="5.34" y="0">egnant</tspan></text></g></svg>