<?xml version="1.0" encoding="UTF-8"?><svg xmlns="http://www.w3.org/2000/svg" viewBox="0 0 50 50"><g id="uuid-bdf29384-9e41-48d6-8972-e6d7b837e0eb"><path d="M42.23,11.38h-15.27c2.31-.64,5.63-2.04,6.48-4.92,.18-.6,.67-2.66-.51-3.76-1.23-1.15-3.35-.44-3.97-.19-2.68,1.06-3.84,4.17-4.33,6.44-.5-2.27-1.65-5.38-4.33-6.44-.62-.25-2.74-.96-3.97,.19-1.18,1.11-.69,3.16-.51,3.76,.85,2.88,4.17,4.28,6.48,4.92H7.02c-.28,0-.5,.22-.5,.5v7c0,.28,.22,.5,.5,.5h2.01v27.31c0,.28,.22,.5,.5,.5h30.19c.28,0,.5-.22,.5-.5v-11.25s.03-.1,.03-.15v-5.02c0-.05-.01-.1-.03-.15v-10.75h2.01c.28,0,.5-.22,.5-.5v-7c0-.28-.22-.5-.5-.5Zm-3.01,8v10.4h-11.58v-10.4h11.58ZM29.33,3.43c.53-.21,1.18-.37,1.76-.37,.46,0,.88,.1,1.16,.36,.61,.57,.51,1.84,.23,2.75-.89,3.03-5.39,4.21-7.14,4.56,.22-1.73,1.05-6.14,3.99-7.3Zm-12.55,2.74c-.27-.91-.37-2.18,.23-2.75,.28-.26,.7-.37,1.16-.37,.58,0,1.23,.16,1.76,.37,2.94,1.16,3.77,5.57,3.99,7.3-1.75-.35-6.25-1.52-7.14-4.56ZM7.52,18.38v-6h13.01v6H7.52Zm14.1,27.81H10.03v-10.39h11.58v10.39Zm0-11.39H10.06v-4.02h11.55v4.02Zm0-5.02H10.03v-10.4h11.58v10.4Zm5.02,16.42h-4.02V19.38h4.02v26.81Zm-4.52-27.81h-.59v-6h6.2v6h-5.61Zm17.1,27.81h-11.58v-10.39h11.58v10.39Zm.03-11.39h-11.61v-4.02h11.61v4.02Zm2.48-16.42h-13.01v-6h13.01v6Z" fill="#FFFFFF"/></g><g id="uuid-09b13e58-00a7-4c15-90c9-c3224a503f4d"><text transform="translate(0 54.94)" font-family="Roboto-Regular, Roboto" font-size="6"><tspan x="0" y="0">p</tspan><tspan x="3.37" y="0" letter-spacing="0em">r</tspan><tspan x="5.34" y="0">esent</tspan></text></g></svg>