<?xml version="1.0" encoding="UTF-8"?><svg id="uuid-16df8337-045f-4d98-8053-6cf2655964e3" xmlns="http://www.w3.org/2000/svg" viewBox="0 0 50 50"><path d="M41.74,21.4s-2.64-.98-3.46-.08c-1.02,1.12-1.83,1.72-3.22,1.72-2.21,0-4.01-1.8-4.01-4.01s1.8-4.01,4.01-4.01c1.13,0,2.19,.53,3.24,1.63,.71,.75,2.58,.17,3.35-.12,.2-.07,.33-.26,.33-.47V2.29c0-.28-.22-.5-.5-.5H7.74c-.28,0-.5,.22-.5,.5V36.03c0,.28,.22,.5,.5,.5h13.7c.28,.87,.4,1.77,.25,1.96-1.29,1.23-1.94,2.56-1.94,3.96,0,2.77,2.25,5.01,5.01,5.01s5.01-2.25,5.01-5.01c0-1.75-.79-2.81-2.04-3.95-.16-.22,0-1.24,.21-1.99l13.53,.03c.17,.01,.26-.05,.35-.15,.09-.09,.15-.22,.15-.35l.03-14.19c0-.18-.1-.35-.26-.44Zm-.76,14.13l-13.43-.03h0c-.28,0-.5,.22-.5,.5h0c-.22,.69-.73,2.56,0,3.22,1.09,.99,1.72,1.84,1.72,3.22,0,2.21-1.8,4.01-4.01,4.01s-4.01-1.8-4.01-4.01c0-1.13,.53-2.19,1.63-3.24,.75-.71,.17-2.58-.12-3.35-.07-.2-.26-.33-.47-.33H8.24V2.79H40.98V15.7c-.88,.28-1.77,.4-1.96,.25-1.23-1.29-2.56-1.94-3.96-1.94-2.76,0-5.01,2.25-5.01,5.01s2.25,5.01,5.01,5.01c1.74,0,2.81-.78,3.95-2.04,.22-.16,1.24,0,1.99,.21l-.02,13.32Z" fill="#FFCD00"/></svg>