<?xml version="1.0" encoding="UTF-8"?><!-- Generator: Adobe Illustrator 27.7.0, SVG Export Plug-In . SVG Version: 6.00 Build 0)  --><svg version="1.1" id="Layer_1" xmlns="http://www.w3.org/2000/svg" xmlns:xlink="http://www.w3.org/1999/xlink" x="0px" y="0px" viewBox="0 0 50 50" style="enable-background:new 0 0 50 50;" xml:space="preserve">
<style type="text/css">
	.st0{display:none;}
	.st1{display:inline;fill:none;stroke:#EA008A;stroke-width:0.2;stroke-miterlimit:10;}
	.st2{font-family:'Roboto-Regular';}
	.st3{font-size:6px;}
</style>
<g id="ICONS_00000031165542127692736420000002692518830807990202_">
	<g>
		<path d="M14.8477,22.8628c1.0225,0.729,1.6816,1.9595,2.0547,2.8633c0.0605,0.1479,0.1895,0.2578,0.3457,0.2954    c0.1533,0.0352,0.3203-0.0029,0.4424-0.1069c1.4922-1.2822,2.2832-2.9185,2.1699-4.4893    c-0.0869-1.1948,0.4717-1.9321,1.0273-2.1113c0.3975-0.1289,0.7568,0.0186,0.9902,0.3994c0.7002,1.1372,1.6982,1.77,2.7412,1.73    c0.9619-0.0342,1.8145-0.6284,2.3379-1.6299c0.5098-0.9751,0.5215-1.9863,0.0332-2.7739    c-0.5449-0.8789-1.6084-1.3594-2.998-1.3394c-0.3936,0.0112-0.7568-0.1465-1.0176-0.4243    c-0.2314-0.2471-0.3496-0.5605-0.3242-0.8594c0.0801-0.9463,0.5459-1.2783,1.4717-1.9399    c0.5332-0.3804,1.1953-0.854,1.9287-1.5728c0.1143-0.1118,0.168-0.272,0.1445-0.4302c-0.0225-0.1582-0.1211-0.2959-0.2627-0.3701    L10.3906,1.981c-0.1182-0.0615-0.2559-0.0737-0.3809-0.0337c-0.127,0.0396-0.2324,0.1279-0.2939,0.2456l-8.1221,15.542    c-0.0918,0.1763-0.0703,0.3901,0.0537,0.5454c0.125,0.1543,0.333,0.2188,0.5215,0.1685c0.7334-0.2012,2.5977-0.6118,4.0752-0.082    c1.2393,0.4438,2.0078,1.1152,2.0537,1.7959c0.0254,0.3691-0.1709,0.709-0.5117,0.8867c-1.1396,0.5947-1.793,1.5396-1.793,2.5918    c0,1.0244,0.6211,1.9604,1.6631,2.5044c0.5,0.2617,1.0186,0.3916,1.5166,0.3916c0.5381,0,1.0518-0.1523,1.4883-0.4561    c0.8643-0.6011,1.2656-1.6772,1.1035-2.9521c-0.0488-0.3818,0.1182-0.7373,0.4365-0.9272    C12.7871,21.8521,13.7773,22.0991,14.8477,22.8628z M11.6875,21.3438c-0.6533,0.3906-1.0127,1.1411-0.915,1.9116    c0.1143,0.8926-0.1348,1.6235-0.6826,2.0044c-0.5303,0.3687-1.2666,0.3687-1.9707-0.0005    c-0.7051-0.3682-1.126-0.9731-1.126-1.6182c0-0.667,0.458-1.2886,1.2559-1.7051c0.6885-0.3589,1.0986-1.082,1.0469-1.8418    c-0.0449-0.6499-0.4561-1.8608-2.7139-2.6689c-0.6514-0.2334-1.3535-0.3159-2.0195-0.3159c-0.5723,0-1.1191,0.061-1.5859,0.1396    l7.3945-14.1499l14.4697,7.562c-0.4736,0.4116-0.9062,0.7207-1.2998,1.0015c-0.9873,0.7056-1.7676,1.2627-1.8867,2.6689    c-0.0498,0.5815,0.166,1.1748,0.5918,1.6284c0.4541,0.4844,1.0986,0.7554,1.7676,0.7402c0.959-0.0381,1.7715,0.2939,2.127,0.8662    c0.3018,0.4868,0.2764,1.1206-0.0703,1.7842c-0.3516,0.6738-0.8936,1.0723-1.4863,1.0933    c-0.6338,0.0278-1.3486-0.4321-1.8545-1.2549c-0.4746-0.7695-1.3164-1.0952-2.1484-0.8267    c-0.9463,0.3052-1.8447,1.3931-1.7188,3.1353c0.0781,1.0757-0.4023,2.2119-1.332,3.1914    c-0.4502-0.9116-1.1299-1.9478-2.1025-2.6406C13.4775,20.6577,12.248,21.0083,11.6875,21.3438z" fill="#FFCD00"/>
		<path d="M47.9629,12.0024H30.4268c-0.2168,0-0.4082,0.1396-0.4756,0.3457c-0.293,0.9028-0.627,1.562-0.9219,2.144    c-0.5488,1.0825-0.9814,1.9375-0.4365,3.2393c0.2246,0.5381,0.6904,0.9644,1.2773,1.1694    c0.6289,0.2192,1.3242,0.1606,1.9092-0.1621c0.877-0.481,1.71-0.5605,2.2881-0.2178c0.4922,0.2915,0.7637,0.8643,0.7637,1.6133    c0,0.7603-0.2959,1.3647-0.8115,1.6577c-0.5859,0.3315-1.3965,0.2393-2.2246-0.2534c-0.7773-0.4624-1.6748-0.3608-2.2871,0.2627    c-0.6963,0.7085-0.9883,2.0889-0.0703,3.5742c0.5674,0.9175,0.668,2.1489,0.2959,3.4497c-0.8047-0.5811-1.9072-1.207-3.085-1.3701    c-2.3682-0.3301-3.3018,0.5518-3.6416,1.1084c-0.3984,0.6484-0.3682,1.4805,0.0752,2.1172    c0.5146,0.7383,0.6328,1.501,0.3232,2.0928c-0.2979,0.5713-0.9512,0.9131-1.7471,0.9131s-1.4492-0.3418-1.7471-0.9131    c-0.3096-0.5918-0.1914-1.3545,0.3232-2.0928c0.4434-0.6367,0.4736-1.4688,0.0752-2.1172    c-0.3398-0.5566-1.2715-1.4395-3.6416-1.1084c-1.8389,0.2549-3.4932,1.6357-4.1191,2.2178    c-0.1016,0.0947-0.1592,0.2275-0.1592,0.3662v17.5371c0,0.2764,0.2236,0.5,0.5,0.5h35.0732c0.2764,0,0.5-0.2236,0.5-0.5V12.5024    C48.4629,12.2261,48.2393,12.0024,47.9629,12.0024z M30.2217,22.5024c0.29-0.2959,0.6777-0.3335,1.0615-0.1045    c1.1465,0.6831,2.3252,0.7788,3.2305,0.2632c0.8369-0.4756,1.3174-1.397,1.3174-2.5269c0-1.1006-0.457-2.0024-1.2549-2.4741    c-0.8896-0.5273-2.085-0.4536-3.2773,0.2017c-0.3379,0.1855-0.7393,0.2192-1.0986,0.0947    c-0.3193-0.1113-0.5693-0.3345-0.6855-0.6108c-0.3662-0.876-0.1084-1.3857,0.4062-2.4014    c0.2598-0.5132,0.5762-1.1362,0.8633-1.9419H47.463v16.8135c-0.6397,0.5704-1.9827,1.6193-3.415,1.8179    c-1.3018,0.1777-2.2939-0.0586-2.6514-0.6406c-0.1934-0.3154-0.1777-0.708,0.042-1.0234c0.7344-1.0547,0.877-2.1953,0.3896-3.1279    c-0.4736-0.9077-1.458-1.4497-2.6338-1.4497c-1.1748,0-2.1602,0.542-2.6338,1.4507c-0.4873,0.9326-0.3447,2.0723,0.3896,3.127    c0.2197,0.3154,0.2363,0.708,0.043,1.0234c-0.3584,0.582-1.3506,0.8184-2.6523,0.6406c-1.5557-0.2158-3.0176-1.4434-3.5732-1.9609    c-0.0576-0.0527-0.123-0.1133-0.1973-0.1777c0.6035-1.7314,0.5068-3.3691-0.2822-4.6455    C29.6582,23.8306,29.8115,22.9185,30.2217,22.5024z M13.3896,30.2607c0.6445-0.5723,1.9902-1.6172,3.415-1.8154    c1.3086-0.1816,2.2959,0.0586,2.6523,0.6406c0.1934,0.3154,0.1768,0.707-0.043,1.0225c-0.7344,1.0547-0.877,2.1953-0.3896,3.1279    c0.4746,0.9082,1.459,1.4502,2.6338,1.4502s2.1592-0.542,2.6338-1.4502c0.4873-0.9326,0.3447-2.0732-0.3896-3.1279    c-0.2197-0.3154-0.2363-0.707-0.043-1.0225c0.3564-0.582,1.3457-0.8242,2.6523-0.6406c1.1558,0.1608,2.2551,0.877,2.9748,1.4478    c0.0976,1.2003-0.3079,2.4011-0.715,3.5649l-0.1387,0.3975c-0.6143,1.7803-0.0615,2.9932,0.5967,3.4912    c0.5596,0.4219,1.2627,0.4375,1.8379,0.0371c0.7393-0.5156,1.502-0.6318,2.0928-0.3232c0.5723,0.2979,0.9131,0.9512,0.9131,1.7471    s-0.3408,1.4492-0.9131,1.7471c-0.5908,0.3076-1.3535,0.1914-2.0928-0.3232c-0.3926-0.2744-0.8613-0.3398-1.3174-0.1816    c-0.5645,0.1943-1.0225,0.7051-1.2236,1.3643c-0.2761,0.8967-0.707,3.1315,0.5378,5.6621H13.3896V30.2607z M30.1943,47.0762    c-1.3748-2.3939-0.9671-4.5402-0.7119-5.3691c0.1064-0.3496,0.334-0.623,0.5938-0.7119c0.1504-0.0537,0.291-0.0332,0.4189,0.0566    c1.0557,0.7354,2.1953,0.877,3.1279,0.3896c0.9082-0.4746,1.4502-1.459,1.4502-2.6338s-0.542-2.1592-1.4502-2.6338    c-0.9336-0.4883-2.0732-0.3457-3.1279,0.3896c-0.292,0.2012-0.54,0.0791-0.6621-0.0146c-0.4229-0.3193-0.666-1.1758-0.2549-2.3672    l0.1367-0.3936c0.3273-0.9323,0.6838-1.9574,0.7763-3.0282c0.7878,0.6625,2.1815,1.6519,3.713,1.8641    c0.3564,0.0498,0.6807,0.0713,0.9746,0.0713c1.665,0,2.377-0.708,2.667-1.1797c0.3984-0.6494,0.3682-1.4805-0.0752-2.1182    c-0.5146-0.7383-0.6328-1.501-0.3232-2.0918c0.2979-0.5723,0.9512-0.9141,1.7471-0.9141s1.4492,0.3418,1.748,0.9131    c0.3086,0.5918,0.1904,1.3545-0.3242,2.0938c-0.4434,0.6367-0.4727,1.4688-0.0742,2.1182    c0.3408,0.5547,1.2637,1.4395,3.6406,1.1074c1.2806-0.1774,2.462-0.8984,3.2783-1.5181V47.076H30.1943V47.0762z" fill="#FFCD00"/>
	</g>
</g>
<g id="Margin" class="st0">
	<rect x="1" y="1" class="st1" width="48" height="48" fill="#FFCD00"/>
</g>
<g id="Guides" class="st0">
</g>
<g id="LABELS">
	<g>
		<g>
			<g>
				<g>
					<g>
						<g>
							<g>
								<g>
									<g>
										<g>
											<text transform="matrix(1 0 0 1 -0.1152 55.1228)" class="st2 st3">puzzle</text>
										</g>
									</g>
								</g>
							</g>
						</g>
					</g>
				</g>
			</g>
		</g>
	</g>
</g>
</svg>