<?xml version="1.0" encoding="UTF-8"?><svg xmlns="http://www.w3.org/2000/svg" viewBox="0 0 50 50">
  <defs>
    <style>
      .cls-1 {
        fill: #1f1c1d;
      }

      .cls-2 {
        fill: #221f1f;
        font-family: Roboto-Regular, Roboto;
        font-size: 5px;
      }
    </style>
  </defs>
  <g id="Icon_Outline">
    <g>
      <path class="cls-1" d="M35.23,5.56c-2.4-2.1-5.79-3.17-10.08-3.17h-.02c-4.27,0-7.69,1.13-10.18,3.35-2.5,2.23-3.79,5.34-3.83,9.26,0,.13.05.26.14.36s.22.15.36.15h8.62c.27,0,.49-.22.5-.49.03-1.45.44-2.59,1.23-3.4.8-.81,1.83-1.21,3.17-1.21,2.82,0,4.14,1.44,4.14,4.53,0,1.02-.28,2-.82,2.92-.57.96-1.74,2.24-3.48,3.79-1.84,1.64-3.13,3.34-3.83,5.05-.7,1.7-1.05,3.99-1.04,6.82,0,.28.22.5.5.5h7.61c.26,0,.48-.21.5-.47l.12-1.79c.2-1.82,1.02-3.42,2.43-4.78l2.4-2.29c1.91-1.86,3.27-3.58,4.05-5.12.78-1.56,1.18-3.25,1.18-5,0-3.85-1.23-6.87-3.65-8.99ZM36.82,19.09c-.72,1.44-2.02,3.07-3.85,4.85l-2.4,2.29c-1.59,1.52-2.51,3.34-2.73,5.42l-.09,1.35h-6.64c.04-2.46.36-4.46.97-5.94.64-1.57,1.84-3.15,3.57-4.68,1.84-1.64,3.04-2.96,3.67-4.02.64-1.08.96-2.23.96-3.43,0-3.61-1.78-5.52-5.14-5.52-1.59,0-2.9.51-3.88,1.51-.88.9-1.38,2.1-1.49,3.59h-7.63c.14-3.38,1.31-6.08,3.48-8.01,2.3-2.05,5.51-3.09,9.52-3.1h.02c4.04,0,7.21.98,9.42,2.92,2.19,1.92,3.31,4.69,3.31,8.23,0,1.6-.36,3.13-1.07,4.55Z" fill="#FFFFFF"/>
      <path class="cls-1" d="M24.56,37.54c-1.53,0-2.81.48-3.81,1.44-1,.96-1.51,2.18-1.5,3.63,0,1.44.5,2.65,1.48,3.59.97.93,2.26,1.41,3.84,1.41s2.86-.48,3.83-1.41c.98-.95,1.48-2.16,1.48-3.6,0-1.46-.51-2.68-1.51-3.62-1-.95-2.28-1.43-3.81-1.43ZM27.71,45.48c-.78.75-1.84,1.13-3.14,1.13s-2.36-.37-3.15-1.13c-.79-.76-1.17-1.69-1.17-2.87h0c0-1.19.39-2.14,1.19-2.91.82-.78,1.84-1.16,3.12-1.16s2.3.38,3.12,1.16c.8.76,1.2,1.71,1.2,2.9,0,1.17-.38,2.11-1.17,2.87Z" fill="#FFFFFF"/>
    </g>
  </g>
  <g id="Names">
    <text class="cls-2" transform="translate(.01 53.76)"><tspan x="0" y="0">question-mark</tspan></text>
  </g>
</svg>