<?xml version="1.0" encoding="UTF-8"?><svg xmlns="http://www.w3.org/2000/svg" viewBox="0 0 50 50">
  <defs>
    <style>
      .cls-1 {
        fill: #1f1c1d;
      }

      .cls-2 {
        fill: #221f1f;
        font-family: Roboto-Regular, Roboto;
        font-size: 5px;
      }
    </style>
  </defs>
  <g id="Icon_Outline">
    <g>
      <path class="cls-1" d="M33.91,7.81H15.6C7.52,7.81.69,13.93.05,21.74c-.33,4.07.95,8.03,3.61,11.12,2.65,3.08,6.32,4.95,10.35,5.26l4.24,5.76c.14.19.35.3.58.3h0c.23,0,.45-.11.58-.29l4.26-5.7h10.64c4.19,0,8.1-1.68,11-4.72,2.9-3.04,4.38-7.03,4.17-11.23-.4-8.09-7.25-14.42-15.6-14.42ZM44.61,32.78c-2.71,2.85-6.36,4.41-10.28,4.41h-10.75c-.25,0-.49.12-.64.32l-4.11,5.49-4.08-5.55c-.14-.19-.35-.3-.58-.32-3.8-.27-7.27-2.02-9.76-4.92-2.48-2.9-3.68-6.59-3.37-10.39.6-7.3,6.99-13.01,14.56-13.01h18.3c7.81,0,14.23,5.92,14.6,13.47.19,3.92-1.19,7.65-3.9,10.49Z" fill="#FFFFFF"/>
      <path class="cls-1" d="M24.49,29.43c-.61,0-1.1.18-1.46.54-.36.36-.54.83-.54,1.4,0,.53.18.98.52,1.35.35.36.85.54,1.48.54s1.14-.18,1.49-.54c.35-.36.53-.81.53-1.35s-.18-1.02-.54-1.38-.86-.55-1.48-.55Z" fill="#FFFFFF"/>
      <path class="cls-1" d="M24.82,12.56c-1.81,0-3.29.49-4.39,1.45-1.11.96-1.68,2.29-1.7,3.94,0,.03.01.07.04.09s.06.04.09.04h3.34c.07,0,.12-.06.12-.12,0-.72.23-1.29.68-1.71.46-.42,1.07-.63,1.82-.63s1.38.22,1.78.64c.4.42.6,1.06.6,1.88,0,.63-.17,1.2-.53,1.74-.23.35-.79.97-1.68,1.83-.9.87-1.51,1.69-1.82,2.43-.31.74-.46,1.73-.46,2.96,0,.07.06.12.12.12h3.12c.07,0,.12-.05.12-.12.02-1.28.32-2.27.9-2.92l1.69-1.67c1.41-1.47,2.12-2.98,2.12-4.5,0-1.71-.53-3.05-1.59-4.01-1.05-.95-2.53-1.44-4.39-1.44Z" fill="#FFFFFF"/>
    </g>
  </g>
  <g id="Names">
    <text class="cls-2" transform="translate(.01 53.76)"><tspan x="0" y="0">question-bubble</tspan></text>
  </g>
</svg>