<?xml version="1.0" encoding="UTF-8"?><svg xmlns="http://www.w3.org/2000/svg" viewBox="0 0 50 50"><g id="uuid-5d8a36d4-dc89-4ae1-b996-9e6076ab99b8"><path d="M43.7,.9c-.03-.26-.26-.44-.52-.44-2.8,.12-5.66,.81-8.5,2.05-.13,.06-.23,.16-.27,.29l-1.38,3.94-.49-2.42c-.03-.16-.14-.29-.29-.36-.15-.07-.32-.06-.46,.03-2.76,1.63-5.2,3.7-7.26,6.14-.55,.65-1.09,1.36-1.66,2.17-.05,.07-.08,.15-.09,.24l-.4,4.05-.51-1.1c-.08-.17-.25-.28-.44-.29-.18-.03-.37,.1-.45,.27-2.4,4.59-3.46,9.7-3.01,14.43-.91,1.17-1.8,2.37-2.68,3.57h-5.93c-.28,0-.5,.22-.5,.5v3.01h-2.96c-.28,0-.5,.22-.5,.5v10.83c0,.28,.22,.5,.5,.5H26.11c.28,0,.5-.22,.5-.5v-10.83c0-.28-.22-.5-.5-.5h-2.96v-3.01c0-.28-.22-.5-.5-.5h-6.11c.68-.93,1.38-1.85,2.08-2.76,6.87-.33,13.62-3.84,18.54-9.66,1.32-1.56,2.49-3.31,3.49-5.18,.08-.14,.08-.32,0-.46s-.22-.25-.38-.27l-2.96-.4,5.26-3.76c.09-.06,.16-.16,.19-.26,.98-3.32,1.3-6.62,.94-9.79ZM25.61,37.96v9.83H6.41v-9.83H25.61Zm-3.46-3.51v2.51H9.87v-2.51h12.28ZM41.85,10.24l-6.14,4.4c-.17,.12-.24,.33-.19,.53,.05,.2,.22,.35,.42,.37l3.49,.47c-.88,1.57-1.9,3.04-3.02,4.37-4.52,5.35-10.65,8.68-16.94,9.24,.47-.6,.94-1.19,1.41-1.78,3.36-4.13,6.99-8.12,10.79-11.87,.2-.19,.2-.51,0-.71-.19-.2-.51-.2-.71,0-3.82,3.77-7.48,7.79-10.86,11.95-.4,.49-.8,1-1.19,1.5-.17-3.92,.69-8.06,2.51-11.88l.85,1.82c.09,.2,.31,.32,.54,.28,.22-.04,.39-.22,.41-.44l.57-5.73c.52-.74,1.02-1.39,1.53-1.99,1.84-2.17,3.99-4.04,6.4-5.55l.71,3.51c.04,.22,.23,.38,.46,.4,.22,.01,.43-.12,.51-.33l1.9-5.45c2.5-1.07,5.01-1.69,7.47-1.86,.25,2.81-.06,5.83-.91,8.76Z" fill="#FFFFFF"/></g><g id="uuid-f26599fa-1183-4f46-aa45-9f860420d6be"><text transform="translate(-.1 55.08)" font-family="Roboto-Regular, Roboto" font-size="6"><tspan x="0" y="0">quill-pen-ink</tspan></text></g></svg>