<?xml version="1.0" encoding="UTF-8"?><svg xmlns="http://www.w3.org/2000/svg" viewBox="0 0 50 50"><g id="uuid-45567be8-5299-4765-a082-8940129b7a1a"><g><path d="M24.59,16.06c1.67,0,2.74-2.84,2.74-4.33,0-1.66-1.23-3.02-2.74-3.02s-2.74,1.35-2.74,3.02c0,1.49,1.07,4.33,2.74,4.33Zm1.74-4.33c0,1.28-.95,3.33-1.74,3.33s-1.74-2.04-1.74-3.33c0-1.11,.78-2.02,1.74-2.02s1.74,.9,1.74,2.02Z" fill="#FFCD00"/><path d="M25.79,22.13c-.4-2.03-.66-2.57-1.23-2.57h0c-.58,0-.87,.58-1.3,2.57C10.3,22.33,.53,26.28,.53,31.33s10.58,9.21,24.09,9.21,24.09-4.04,24.09-9.21-9.84-9.04-22.93-9.2Zm-1.16,17.4c-12.52,0-23.09-3.76-23.09-8.21s9.62-7.97,21.52-8.19c-.06,.31-.13,.64-.2,1-.24,1.26-.6,3.12-.86,3.61-.56,.03-1.1,.06-1.63,.11-2.14,.18-9.13,.95-9.12,3.4,0,2.32,6.64,3.53,13.24,3.53h.11c3.47,0,6.73-.34,9.19-.93,2.75-.66,4.14-1.55,4.14-2.65,0-2.48-7.1-3.21-9.27-3.38-.56-.04-1.13-.08-1.71-.1-.23-.53-.56-2.36-.78-3.61-.06-.36-.12-.68-.18-.99,12.02,.18,21.74,3.83,21.74,8.2s-10.58,8.21-23.09,8.21Zm.55-15.24c.64,3.62,.84,4.4,1.52,4.43,.64,.02,1.27,.06,1.87,.11,5.69,.44,8.35,1.68,8.35,2.38,0,.3-.7,1.04-3.37,1.68-2.39,.57-5.57,.89-8.96,.9h-.11c-7.47,0-12.23-1.49-12.23-2.53,0-.69,2.61-1.94,8.21-2.4,.57-.05,1.16-.09,1.76-.11,.7-.03,.93-.87,1.62-4.41,.2-1.02,.47-2.41,.7-3.23,.21,.82,.46,2.19,.64,3.19Z" fill="#FFCD00"/></g></g><g id="uuid-0894a0d3-15a8-4273-bc47-fc328d314a38"><text transform="translate(.7 55)" font-family="Roboto-Regular, Roboto" font-size="6"><tspan x="0" y="0" letter-spacing="-.02em">r</tspan><tspan x="1.91" y="0">ain-d</tspan><tspan x="14.98" y="0" letter-spacing="0em">r</tspan><tspan x="16.95" y="0">op</tspan></text></g></svg>