<?xml version="1.0" encoding="UTF-8"?><svg xmlns="http://www.w3.org/2000/svg" viewBox="0 0 50 50"><g id="uuid-778ece2f-0f1f-4a9e-aaf9-8551896a5950"><g><path d="M38.61,29.53c0-.12,0-.24-.02-.36v-.18c0-.08,.02-.16,.02-.25l-.05-13.79c0-.85-.34-1.64-.94-2.24-.6-.59-1.39-.92-2.23-.92h-.01c-.81,0-1.58,.31-2.17,.87l-.02-5.61c0-.85-.34-1.64-.94-2.24-.6-.59-1.39-.92-2.23-.92h-.01c-.84,0-1.6,.33-2.17,.87v-.81c0-.85-.34-1.64-.94-2.24s-1.4-.93-2.24-.92c-1.75,0-3.16,1.43-3.16,3.18v.81c-.56-.53-1.32-.85-2.16-.85h-.01c-1.75,0-3.16,1.43-3.16,3.18l.04,9.96c-.57-.53-1.33-.85-2.16-.85h-.01c-.85,0-1.64,.34-2.24,.94-.6,.6-.92,1.4-.92,2.24l.04,9.43c0,.08,0,.16,.03,.24v.19c-.02,.12-.03,.23-.03,.35,.02,4.82,2.47,9.18,6.57,11.71l.03,6.72c0,.13,.05,.26,.15,.35,.09,.09,.22,.15,.35,.15h0l14.33-.05c.28,0,.5-.23,.5-.5l-.03-7.16c3.65-2.61,5.81-6.82,5.79-11.31Zm-26.68-.58s-.01-.07-.01-.11l-.04-9.43c0-.58,.22-1.12,.63-1.54,.41-.41,.95-.64,1.53-.64h0c1.07,0,1.96,.77,2.13,1.83,0,.03,.03,.05,.04,.07l.07,10c0,.27,.23,.5,.5,.5h0c.28,0,.5-.23,.5-.5l-.07-10.18h0l-.04-11.83c0-1.2,.97-2.17,2.16-2.18h0c1.19,0,2.16,.97,2.17,2.16h0l.06,16.35c0,.28,.22,.5,.5,.5h0c.28,0,.5-.23,.5-.5l-.06-16.35h0V3.99c-.02-1.2,.95-2.17,2.15-2.18,.61,0,1.12,.22,1.54,.63,.41,.41,.64,.95,.64,1.53v3.11h.01l.06,16.35c0,.28,.22,.5,.5,.5h0c.28,0,.5-.23,.5-.5l-.06-16.35h0c0-1.2,.97-2.17,2.16-2.18h0c.58,0,1.12,.22,1.53,.63,.41,.41,.64,.95,.64,1.53l.04,11.83h0l.02,4.52c0,.28,.22,.5,.5,.5,.26-.04,.5-.23,.5-.5l-.02-4.51h0v-3.92c-.02-.58,.21-1.12,.61-1.54,.41-.41,.95-.64,1.53-.64,.61,0,1.12,.22,1.54,.63s.64,.95,.64,1.53l.05,13.78s0,.07-.01,.11c0,.03-.02,.15-.02,.18v.21c.02,.09,.03,.19,.03,.29,.02,4.25-2.07,8.23-5.58,10.64-.14,.09-.22,.25-.22,.41l.03,6.92-13.33,.05-.02-6.5c0-.18-.09-.34-.25-.43-3.94-2.33-6.31-6.44-6.32-11,0-.1,0-.19,.01-.28v-.29s0-.1,0-.1Z" fill="#FFCD00"/><path d="M20.05,33.27c.51,0,.92-.41,.92-.92s-.41-.92-.92-.92-.92,.41-.92,.92,.41,.92,.92,.92Z" fill="#FFCD00"/><path d="M25.51,28.95c.51,0,.92-.41,.92-.92s-.41-.92-.92-.92-.92,.41-.92,.92,.41,.92,.92,.92Z" fill="#FFCD00"/><path d="M30.5,32.94c.51,0,.92-.41,.92-.92s-.41-.92-.92-.92-.92,.41-.92,.92,.41,.92,.92,.92Z" fill="#FFCD00"/><path d="M19.78,38.99c0,.51,.41,.92,.92,.92s.92-.41,.92-.92-.41-.92-.92-.92-.92,.41-.92,.92Z" fill="#FFCD00"/><path d="M24.27,33.56c.51,0,.92-.41,.92-.92s-.41-.92-.92-.92-.92,.41-.92,.92,.41,.92,.92,.92Z" fill="#FFCD00"/></g></g><g id="uuid-3dfd4476-c848-4e28-bc15-45113fff53c1"><text transform="translate(-.83 54.89)" font-family="Roboto-Regular, Roboto" font-size="6"><tspan x="0" y="0" letter-spacing="-.02em">r</tspan><tspan x="1.91" y="0">ash</tspan></text></g></svg>