<?xml version="1.0" encoding="UTF-8"?><svg xmlns="http://www.w3.org/2000/svg" viewBox="0 0 50 50"><g id="uuid-97f778a1-b440-40bd-9076-9ec82442eb3f"><g><path d="M26.33,17.38c-.17,.12-.25,.34-.2,.54,.06,.2,.23,.35,.45,.37l9.37,.68c.23,.02,.45-.13,.52-.36l2.62-9.02c.06-.2-.02-.42-.19-.55-.17-.12-.4-.13-.58,0l-1.46,1.02-3.5-5.03c-.72-1.03-1.85-1.67-3.14-1.75h-12.13s-.08,.02-.13,.03c-1.06,.28-1.94,.95-2.49,1.89l-5.44,9.16c-.07,.11-.09,.25-.05,.38,.03,.13,.12,.24,.23,.31l8.44,4.94c.08,.05,.17,.07,.25,.07,.17,0,.34-.09,.43-.24l5.15-8.68,3.53,5.08-1.68,1.17Zm-7.61,1.49l-7.57-4.44,5.18-8.73c.41-.69,1.05-1.19,1.82-1.41h1.59s.03,.09,.05,.13l4.04,5.82-5.13,8.64Zm6.13-8.95s-.01,0-.02-.02c0,0,0-.02-.01-.03l-3.89-5.59h9.26c.95,.05,1.81,.53,2.35,1.31l3.79,5.44c.16,.23,.47,.28,.7,.12l.71-.5-2.11,7.27-7.55-.55,.93-.64c.11-.08,.18-.19,.21-.32,.02-.13,0-.27-.08-.37l-4.26-6.13Z" fill="#FFFFFF"/><path d="M47.91,29.66l-4.42-9.7c-.06-.12-.16-.22-.28-.26-.12-.05-.26-.04-.38,.02l-8.87,4.1c-.25,.12-.36,.41-.25,.66l4.18,9.18h-6.19v-2.04c0-.21-.13-.4-.33-.47-.2-.07-.42,0-.56,.16l-5.91,7.3c-.15,.18-.15,.45,0,.63l5.91,7.3c.1,.12,.24,.19,.39,.19,.06,0,.11,0,.17-.03,.2-.07,.33-.26,.33-.47v-1.78h6.13c1.26,0,2.43-.57,3.23-1.58l1.47-2.11,5.45-7.85s.04-.07,.06-.11c.38-1.03,.33-2.14-.13-3.12Zm-7.65,12.61c-.59,.75-1.48,1.17-2.43,1.17h-6.63c-.28,0-.5,.22-.5,.5v.87l-4.76-5.89,4.76-5.89v1.13c0,.28,.22,.5,.5,.5h14.33l-5.28,7.6Zm6.86-9.89l-.91,1.31s-.09-.03-.14-.03h-7.09l-4.16-9.14,7.97-3.68,4.21,9.24c.34,.73,.38,1.54,.12,2.3Z" fill="#FFFFFF"/><path d="M21.2,33.7H11.11l2.57-5.64,1.86,.85c.19,.09,.42,.05,.57-.11,.15-.15,.18-.38,.09-.57l-4.18-8.41c-.1-.21-.34-.32-.57-.26l-9.1,2.34c-.21,.05-.35,.23-.37,.44-.02,.21,.1,.41,.29,.5l1.62,.74-2.55,5.58c-.52,1.14-.49,2.44,.09,3.59l6.19,10.44s.05,.07,.08,.1c.77,.76,1.79,1.18,2.88,1.18h.02l10.66,.02h0c.13,0,.26-.05,.35-.15,.09-.09,.15-.22,.15-.35l-.04-9.78c0-.28-.22-.5-.5-.5Zm-18.9-1.44c-.43-.85-.45-1.83-.06-2.69l2.76-6.03c.06-.12,.06-.26,.01-.38-.05-.12-.14-.22-.26-.28l-.79-.36,7.33-1.88,3.37,6.78-1.03-.47c-.25-.12-.55,0-.66,.25l-3.09,6.76h0l-2.87,6.27-3.43-5.78-1.29-2.18Zm8.28,11.2c-.77,0-1.56-.3-2.14-.85l-.82-1.38s.07-.06,.09-.1l2.95-6.44h10.05l.04,8.79H10.58Z" fill="#FFFFFF"/></g></g><g id="uuid-b1c6cbe1-d1c3-4a64-acdc-40d6f139d513"><text transform="translate(.39 54.98)" font-family="Roboto-Regular, Roboto" font-size="6"><tspan x="0" y="0" letter-spacing="0em">r</tspan><tspan x="1.97" y="0">ec</tspan><tspan x="8.29" y="0" letter-spacing="0em">y</tspan><tspan x="11.09" y="0">cle</tspan></text></g></svg>