<?xml version="1.0" encoding="UTF-8"?><svg xmlns="http://www.w3.org/2000/svg" viewBox="0 0 50 50"><g id="uuid-73dc8c8e-cbdd-475c-a164-642795c3a145"><g><g><path d="M44.47,34.58c0-2.38-.94-4.54-2.46-6.14V11.29s0-.04-.01-.07c0-.02,0-.04-.01-.06-.02-.08-.06-.16-.12-.23L31.72,.8h0c-.06-.06-.14-.1-.22-.12-.02,0-.04,0-.06-.01-.02,0-.04-.01-.07-.01H6.03c-.28,0-.5,.22-.5,.5V48.35c0,.28,.22,.5,.5,.5H41.51c.28,0,.5-.22,.5-.5v-7.63c1.52-1.6,2.46-3.76,2.46-6.14ZM6.53,47.85V1.65H30.87V11.29c0,.28,.22,.5,.5,.5h9.64v15.75c-1.51-1.17-3.4-1.88-5.46-1.88-4.92,0-8.92,4-8.92,8.92s4,8.92,8.92,8.92c2.06,0,3.95-.71,5.46-1.88v6.22H6.53Zm29.03-5.34c-4.37,0-7.92-3.55-7.92-7.92s3.55-7.92,7.92-7.92,7.92,3.55,7.92,7.92-3.55,7.92-7.92,7.92Zm4.75-31.71h-8.44V2.36l8.44,8.44Z" fill="#FFFFFF"/><path d="M39.32,30.17c-.24-.14-.54-.06-.68,.18l-4.29,7.34-1.92-2.36c-.18-.21-.49-.24-.7-.07-.21,.17-.25,.49-.07,.7l2.38,2.91c.1,.12,.24,.18,.39,.18,.01,0,.03,0,.04,0,.16-.01,.31-.1,.39-.25l4.65-7.96c.14-.24,.06-.54-.18-.68Z" fill="#FFFFFF"/><path d="M11.77,17.54h23.78c.28,0,.5-.22,.5-.5s-.22-.5-.5-.5H11.77c-.28,0-.5,.22-.5,.5s.22,.5,.5,.5Z" fill="#FFFFFF"/><path d="M11.77,25.25H28.12c.28,0,.5-.22,.5-.5s-.22-.5-.5-.5H11.77c-.28,0-.5,.22-.5,.5s.22,.5,.5,.5Z" fill="#FFFFFF"/><path d="M11.77,32.96h11.05c.28,0,.5-.22,.5-.5s-.22-.5-.5-.5H11.77c-.28,0-.5,.22-.5,.5s.22,.5,.5,.5Z" fill="#FFFFFF"/><path d="M23.66,39.66H11.77c-.28,0-.5,.22-.5,.5s.22,.5,.5,.5h11.89c.28,0,.5-.22,.5-.5s-.22-.5-.5-.5Z" fill="#FFFFFF"/><path d="M11.77,9.84h14.13c.28,0,.5-.22,.5-.5s-.22-.5-.5-.5H11.77c-.28,0-.5,.22-.5,.5s.22,.5,.5,.5Z" fill="#FFFFFF"/></g><path d="M32.42,35.33c-.18-.21-.49-.24-.7-.07-.21,.17-.25,.49-.07,.7l2.38,2.91c.1,.12,.24,.18,.39,.18,.01,0,.03,0,.04,0,.16-.01,.31-.1,.39-.25l4.65-7.96c.14-.24,.06-.54-.18-.68-.24-.14-.54-.06-.68,.18l-4.29,7.34-1.92-2.36Z" fill="none"/></g></g><g id="uuid-4ec3339c-5b85-4b87-9905-aa47e0cb4819"><text transform="translate(.08 54.96)" font-family="Roboto-Regular, Roboto" font-size="6"><tspan x="0" y="0" letter-spacing="0em">r</tspan><tspan x="1.97" y="0">egist</tspan><tspan x="15.03" y="0" letter-spacing="-.02em">r</tspan><tspan x="16.94" y="0">ation-application</tspan></text></g></svg>