<?xml version="1.0" encoding="UTF-8"?><!-- Generator: Adobe Illustrator 27.7.0, SVG Export Plug-In . SVG Version: 6.00 Build 0)  --><svg version="1.1" id="Layer_1" xmlns="http://www.w3.org/2000/svg" xmlns:xlink="http://www.w3.org/1999/xlink" x="0px" y="0px" viewBox="0 0 50 50" style="enable-background:new 0 0 50 50;" xml:space="preserve">
<style type="text/css">
	.st0{display:none;}
	.st1{display:inline;fill:none;stroke:#EA008A;stroke-width:0.2;stroke-miterlimit:10;}
	.st2{font-family:'Roboto-Regular';}
	.st3{font-size:6px;}
</style>
<g id="ICONS_00000031165542127692736420000002692518830807990202_">
	<g>
		<g>
			<g>
				<circle cx="20.6354" cy="16.1112" r="0.911" fill="#FFFFFF"/>
				<circle cx="18.0781" cy="18.6685" r="0.911" fill="#FFFFFF"/>
				<circle cx="20.6354" cy="21.2258" r="0.911" fill="#FFFFFF"/>
				<circle cx="23.1927" cy="18.6685" r="0.911" fill="#FFFFFF"/>
				<g>
					<path d="M11.2275,37.4004c-1.7158,0-3.1113,1.3955-3.1113,3.1113s1.3955,3.1123,3.1113,3.1123s3.1123-1.3965,3.1123-3.1123       S12.9434,37.4004,11.2275,37.4004z M11.2275,42.624c-1.1641,0-2.1113-0.9473-2.1113-2.1123       c0-1.1641,0.9473-2.1113,2.1113-2.1113c1.165,0,2.1123,0.9473,2.1123,2.1113C13.3398,41.6768,12.3926,42.624,11.2275,42.624z" fill="#FFFFFF"/>
					<path d="M48.1797,21.4795c-0.0156-0.1699-0.1172-0.3193-0.2676-0.3975c-0.1514-0.0791-0.3311-0.0742-0.4795,0.0098       l-11.3545,6.5156c-0.1191,0.0684-0.2051,0.1836-0.2373,0.3174s-0.0078,0.2744,0.0684,0.3896l1.0547,1.6123       c0.0928,0.1436,0.251,0.2266,0.418,0.2266c0.0312,0,0.0635-0.0029,0.0957-0.0088l2.6801-0.5206l-2.2802,2.8867       c-1.8026-1.317-3.6106-2.3665-5.5912-2.9613v-4.5705c0.9241-0.226,1.6143-1.0552,1.6143-2.0481       c0-1.166-0.9482-2.1143-2.1143-2.1143s-2.1143,0.9482-2.1143,2.1143c0,0.9929,0.6901,1.8221,1.6143,2.0481v4.3135       c-1.7372-0.3722-3.6188-0.3986-5.7578,0.0554c-2.085,0.4434-3.583,1.3115-5.3164,2.3154       c-1.7344,1.0049-3.7002,2.1436-6.8359,3.2471c-0.0192,0.0068-0.0325,0.0212-0.0504,0.03       c-0.6537-0.2469-1.3589-0.3884-2.0981-0.3884c-1.9009,0-3.5928,0.8979-4.6849,2.2883       c-2.7362,1.2075-5.4732,3.6888-5.4196,6.1024c0.0059,0.2725,0.2285,0.4893,0.5,0.4893h4.4141       c1.0235,1.8126,2.9649,3.041,5.1904,3.041c2.2261,0,4.1678-1.2284,5.1913-3.041h20.4327       c1.0235,1.8126,2.9649,3.041,5.1904,3.041c3.2861,0,5.96-2.6738,5.96-5.9609c0-2.8444-2.0046-5.2264-4.6742-5.8164       l0.3755-5.7602l4.6327-0.9c0.252-0.0498,0.4258-0.2812,0.4023-0.5371L48.1797,21.4795z M30.6719,22.9307       c0-0.6143,0.5-1.1143,1.1143-1.1143c0.6143,0,1.1143,0.5,1.1143,1.1143s-0.5,1.1143-1.1143,1.1143       S30.6719,23.5449,30.6719,22.9307z M2.168,42.4316c0.261-1.3186,1.6316-2.8624,3.476-3.9845       c-0.2391,0.6444-0.3763,1.338-0.3763,2.0646c0,0.6723,0.1171,1.3165,0.3231,1.9199C5.5908,42.4316,2.168,42.4316,2.168,42.4316       z M11.2275,45.4727c-2.7354,0-4.96-2.2256-4.96-4.9609s2.2246-4.96,4.96-4.96s4.9609,2.2246,4.9609,4.96       S13.9629,45.4727,11.2275,45.4727z M16.8654,42.4316c0.2061-0.6034,0.3231-1.2476,0.3231-1.9199       c0-2.0674-1.0593-3.8911-2.6629-4.9604c2.749-1.0377,4.5718-2.0866,6.1873-3.0229c1.7285-1.001,3.0938-1.792,5.0244-2.2021       c5.2788-1.1241,8.7672,0.6292,13.8262,4.7724c-2.0509,0.9431-3.4814,3.012-3.4814,5.4131c0,0.6723,0.1171,1.3165,0.3231,1.9199       H16.8654V42.4316z M47.002,40.5117c0,2.7354-2.2246,4.9609-4.96,4.9609s-4.96-2.2256-4.96-4.9609s2.2246-4.96,4.96-4.96       S47.002,37.7764,47.002,40.5117z M42.3339,34.5665c-0.0974-0.0048-0.1934-0.0148-0.2919-0.0148       c-0.4716,0-0.9283,0.0609-1.3685,0.1649c-0.6738-0.5612-1.3367-1.0982-1.9959-1.606l2.9853-3.7792l1.0253-0.1992       L42.3339,34.5665z M37.6162,29.0986l-0.5801-0.8877l10.2197-5.8643l0.4443,4.793L37.6162,29.0986z" fill="#FFFFFF"/>
					<path d="M38.9307,40.5117c0,1.7158,1.3955,3.1123,3.1113,3.1123s3.1113-1.3965,3.1113-3.1123s-1.3955-3.1113-3.1113-3.1113       S38.9307,38.7959,38.9307,40.5117z M44.1533,40.5117c0,1.165-0.9473,2.1123-2.1113,2.1123s-2.1113-0.9473-2.1113-2.1123       c0-1.1641,0.9473-2.1113,2.1113-2.1113S44.1533,39.3477,44.1533,40.5117z" fill="#FFFFFF"/>
					<path d="M3.9688,27.2402h20.7324c1.5156,0,2.749-1.2334,2.749-2.749V13.3369c0-1.5156-1.2334-2.749-2.749-2.749h-9.4648V5.7131       c0.9241-0.226,1.6143-1.0552,1.6143-2.0481c0-1.165-0.9482-2.1133-2.1143-2.1133S12.6221,2.5,12.6221,3.665       c0,0.9929,0.6901,1.8221,1.6143,2.0481v4.8748H3.9688c-1.5156,0-2.749,1.2334-2.749,2.749v11.1543       C1.2197,26.0068,2.4531,27.2402,3.9688,27.2402z M13.6221,3.665c0-0.6143,0.5-1.1133,1.1143-1.1133s1.1143,0.499,1.1143,1.1133       s-0.5,1.1143-1.1143,1.1143S13.6221,4.2793,13.6221,3.665z M2.2197,13.3369c0-0.9648,0.7842-1.749,1.749-1.749h10.7531       c0.0051,0.0002,0.0093,0.0029,0.0145,0.0029s0.0094-0.0027,0.0145-0.0029h9.9503c0.9648,0,1.749,0.7842,1.749,1.749v11.1543       c0,0.9648-0.7842,1.749-1.749,1.749H3.9688c-0.9648,0-1.749-0.7842-1.749-1.749L2.2197,13.3369L2.2197,13.3369z" fill="#FFFFFF"/>
					<path d="M9.5967,24.0391c2.8262,0,5.125-2.2988,5.125-5.125s-2.2988-5.125-5.125-5.125s-5.126,2.2988-5.126,5.125       S6.7705,24.0391,9.5967,24.0391z M5.5213,19.4141h1.842c0.1931,0.862,0.8713,1.5402,1.7333,1.7333v1.8411       C7.225,22.7588,5.751,21.2851,5.5213,19.4141z M9.5967,17.6221c0.7129,0,1.292,0.5791,1.292,1.292s-0.5791,1.292-1.292,1.292       s-1.292-0.5791-1.292-1.292S8.8838,17.6221,9.5967,17.6221z M10.0967,22.9885v-1.8411       c0.862-0.1931,1.5402-0.8713,1.7333-1.7333h1.8411C13.4413,21.285,11.9677,22.7587,10.0967,22.9885z M13.6711,18.4141H11.83       c-0.1931-0.862-0.8713-1.5402-1.7333-1.7333v-1.8411C11.9677,15.0694,13.4413,16.5431,13.6711,18.4141z M9.0967,14.8396v1.8411       c-0.862,0.1931-1.5402,0.8713-1.7333,1.7333h-1.842C5.751,16.543,7.225,15.0693,9.0967,14.8396z" fill="#FFFFFF"/>
				</g>
			</g>
		</g>
	</g>
</g>
<g id="Margin" class="st0">
	<rect x="1" y="1" class="st1" width="48" height="48" fill="#FFFFFF"/>
</g>
<g id="Guides" class="st0">
</g>
<g id="LABELS">
	<g>
		<g>
			<g>
				<g>
					<g>
						<g>
							<text transform="matrix(1 0 0 1 -0.115 55.1216)" class="st2 st3">remote-control-car</text>
						</g>
					</g>
				</g>
			</g>
		</g>
	</g>
</g>
</svg>