<?xml version="1.0" encoding="UTF-8"?><svg id="uuid-8b6ab16d-568d-4077-93ce-b93307aba85b" xmlns="http://www.w3.org/2000/svg" viewBox="0 0 50 50"><text transform="translate(0 56.67)" font-family="MyriadPro-Regular, 'Myriad Pro'" font-size="8"><tspan x="0" y="0" letter-spacing="0em">r</tspan><tspan x="2.54" y="0">oad</tspan></text><g><path d="M23.55,5.68h2.36c.14,0,.27-.06,.36-.15,.09-.1,.15-.23,.14-.36l-.13-3.65c0-.27-.23-.48-.5-.48h-2.12c-.27,0-.49,.21-.5,.48l-.11,3.65c0,.14,.05,.27,.14,.36,.09,.1,.22,.15,.36,.15Zm.6-3.65h1.15l.09,2.65h-1.33l.08-2.65Z" fill="#FFCD00"/><path d="M23.15,16.47h3.14c.13,0,.26-.05,.36-.15,.09-.1,.15-.23,.14-.36l-.15-4.97c0-.27-.23-.48-.5-.48h-2.84c-.27,0-.49,.21-.5,.48l-.15,4.97c0,.14,.05,.27,.14,.36,.09,.1,.22,.15,.36,.15Zm.63-4.97h1.87l.12,3.97h-2.11l.12-3.97Z" fill="#FFCD00"/><path d="M22.73,30.94h3.98c.14,0,.26-.05,.36-.15,.09-.1,.14-.23,.14-.36l-.22-7.08c0-.27-.23-.48-.5-.48h-3.54c-.27,0-.49,.21-.5,.48l-.22,7.08c0,.14,.05,.27,.14,.36,.09,.1,.22,.15,.36,.15Zm.7-7.08h2.57l.19,6.08h-2.95l.19-6.08Z" fill="#FFCD00"/><path d="M26.91,37.41h-4.38c-.27,0-.49,.21-.5,.48l-.31,10c0,.14,.05,.27,.14,.36,.09,.1,.22,.15,.36,.15h5c.14,0,.26-.05,.36-.15,.09-.1,.14-.23,.14-.36l-.31-10c0-.27-.23-.48-.5-.48Zm-4.17,10l.28-9h3.41l.28,9h-3.97Z" fill="#FFCD00"/><path d="M17.15,1.03h-2.04c-.23,0-.43,.16-.48,.38L2.91,47.78c-.04,.15,0,.31,.09,.43,.09,.12,.24,.19,.39,.19h3.45c.23,0,.44-.16,.49-.39L17.64,1.64c.03-.15,0-.3-.1-.42-.09-.12-.24-.19-.39-.19ZM6.44,47.41h-2.41L15.5,2.03h1.03L6.44,47.41Z" fill="#FFCD00"/><path d="M34.81,1.4c-.06-.22-.26-.38-.48-.38h-2.04c-.15,0-.29,.07-.39,.19-.1,.12-.13,.27-.1,.42l10.3,46.38c.05,.23,.25,.39,.49,.39h3.45c.15,0,.3-.07,.39-.19,.09-.12,.13-.28,.09-.43L34.81,1.4Zm8.18,46L32.91,2.03h1.03l11.46,45.38h-2.41Z" fill="#FFCD00"/></g></svg>