<?xml version="1.0" encoding="UTF-8"?><svg xmlns="http://www.w3.org/2000/svg" viewBox="0 0 50 50">
  <defs>
    <style>
      .cls-1 {
        fill: #1f1c1d;
      }

      .cls-2 {
        fill: #221f1f;
        font-family: Roboto-Regular, Roboto;
        font-size: 5px;
      }

      .cls-3 {
        letter-spacing: 0em;
      }
    </style>
  </defs>
  <g id="Icon_Outline">
    <path class="cls-1" d="M43.14,29.6c-.4-.84-1.26-1.42-2.57-1.73l-9.36-1.88c-.58-.18-1.01-.68-1.09-1.28l-.07-.48c-.06-.4-.1-.73-.13-1.08,1.54.79,3.66,1.61,5.28,1.2.5-.13.46-.65.42-1.26-.02-.22-.04-.5-.04-.58.03-.02.14-.06.21-.08.23-.08.72-.24.76-.78.01-.16.02-.37-.61-.94,1.4-.4,1.4-.65,1.4-.94,0-.2-.14-.81-.29-1.4l1.48-.77c.53-.28.74-.93.47-1.46-.93-1.81-1.48-3.29-1.48-3.96,0-.33.03-.7.06-1.1.1-1.3.23-2.91-.49-4.53-.29-.65-.65-1.23-1.04-1.77.35-.61.47-1.33.32-2.06-.05-.22-.23-.38-.45-.39-.66-.06-1.28.1-1.82.4C31.25.47,27.41-.29,24.3.45c-6.73,1.61-7.95,6.47-7.97,9.74-.19.23-.36.48-.48.76-.41.92-.38,1.94.08,2.8,0,0,0,0,0,0,.05.91.48,1.76,1.22,2.34.19.15.4.27.62.38.2.41.41.81.63,1.2.52.94,1.05,1.91,1.51,3.27.36,1.08.21,2.17,0,3.75-.08.61-.51,1.11-1.09,1.3l-2.27.72c-.36-.23-.79-.33-1.22-.22l-6.3,1.42c-1.04.33-1.82.96-2.18,1.79-.26.61-.44,1.63.23,3.02l2.81,7.04c.21.63.79,1.06,1.46,1.06h10.03c-.03.73-.34,2.54-2.29,4.54h-7.98c-.28,0-.5.22-.5.5v3.47c0,.28.22.5.5.5h27.8c.28,0,.5-.22.5-.5v-3.47c0-.28-.22-.5-.5-.5h-7.99c-1.96-2-2.26-3.81-2.29-4.54h10.05c.67,0,1.25-.42,1.45-1.03l2.76-7.11c.57-1.21.66-2.24.26-3.08ZM34.93,4.61h0c-.33.36-.8.58-1.33.63,0-.48.16-.93.48-1.28.33-.36.8-.58,1.33-.62,0,.48-.16.93-.48,1.27ZM24.53,1.43c2.78-.67,6.2-.02,8.76,1.94-.51.59-.73,1.36-.65,2.15-.29.26-.62.54-.97.82.01-.06.04-.12.05-.18.17-1-.12-1.98-.78-2.7-.17-.18-.43-.21-.64-.08-.86.54-1.44,1.42-1.61,2.4-.14.84.06,1.67.52,2.34-.51.34-1.05.67-1.63,1,.04-.13.09-.25.11-.38.18-.99-.09-1.98-.74-2.71-.16-.18-.43-.22-.63-.09-.86.53-1.46,1.4-1.64,2.38-.14.75-.01,1.49.34,2.13-.63.29-1.3.57-1.99.83.1-.18.19-.37.26-.56.32-.96.19-1.97-.36-2.78-.13-.2-.4-.28-.62-.18-.93.41-1.64,1.18-1.95,2.13-.25.76-.21,1.55.08,2.25-.67.19-1.37.36-2.09.5.12-.18.24-.36.33-.56.41-.92.38-1.94-.07-2.8-.11-.21-.36-.32-.6-.24-.22.07-.43.17-.63.28.25-2.89,1.69-6.58,7.15-7.88ZM30.73,6c-.09.55-.37,1.06-.79,1.44-.25-.44-.35-.96-.26-1.49.09-.55.37-1.06.79-1.44.25.44.35.96.26,1.49ZM32.47,8.27c.53.07,1.01.3,1.35.67-.48.29-1.05.41-1.61.35-.53-.07-1.01-.3-1.35-.67.48-.29,1.05-.42,1.61-.35ZM26.71,8.56c-.1.55-.39,1.05-.81,1.43-.25-.44-.33-.96-.24-1.49.1-.55.39-1.05.81-1.43.25.44.33.96.24,1.49ZM28.14,11.13c.51.17.93.5,1.2.92-.53.19-1.11.2-1.64.02-.51-.17-.93-.5-1.19-.92.53-.19,1.11-.2,1.64-.02ZM22.33,10.41c-.18.53-.53.99-1,1.3-.18-.47-.2-1-.03-1.51.18-.53.53-.99,1-1.3.18.47.2,1,.03,1.51ZM23.41,13.16h0c.47.26.82.66,1,1.13-.55.09-1.13-.01-1.62-.28-.47-.26-.82-.66-1-1.13.56-.08,1.13.01,1.62.29ZM17.76,11.67c-.23.51-.63.93-1.12,1.2-.14-.49-.1-1.01.12-1.5.23-.51.63-.93,1.13-1.2.14.49.09,1.01-.12,1.5ZM16.95,14.04c.56,0,1.11.19,1.55.53.42.33.71.78.81,1.27-.56,0-1.11-.19-1.55-.53-.42-.33-.71-.78-.81-1.27ZM38.4,48.83H11.6v-2.47h26.8v2.47ZM29.57,45.36h-9.14c1.63-1.97,1.92-3.74,1.95-4.54h5.24c.03.8.32,2.57,1.95,4.54ZM39.18,39.45c-.07.22-.28.37-.51.37H11.35c-.23,0-.44-.15-.52-.4l-2.84-7.09c-.41-.87-.49-1.61-.22-2.22.31-.71,1.02-1.06,1.52-1.22l2.15-.49c.29.97.65,2.01,1.19,3.08.11.21.25.4.4.58l-.81,2.1c-.1.26.03.55.29.65.06.02.12.03.18.03.2,0,.39-.12.47-.32l.7-1.82c.12.06.24.12.36.16l.68.23c.26.08.46.29.54.54l.45,1.43c.04.13.13.23.24.29l.89.47c.07.04.15.06.23.06.18,0,.35-.1.44-.27.13-.25.04-.55-.21-.68l-.71-.37-.39-1.24c-.18-.56-.62-1.01-1.18-1.2l-.68-.23c-.44-.14-.8-.46-1.01-.88-.5-.98-.83-1.94-1.1-2.85l3.15-.71s.1-.02.15-.02c.2,0,.38.11.47.29l.18.38c.86,1.83,2.65,5.65,9.41,5.98.54.03,1.12.05,1.72.07,4.75.17,11.23.41,12.26,3.79l-.58,1.49ZM41.96,32.28l-1.7,4.38c-1.98-3.11-8.12-3.34-12.72-3.5-.6-.02-1.17-.04-1.71-.07-6.16-.3-7.71-3.62-8.55-5.41l-.07-.14,1.9-.61c.95-.3,1.65-1.12,1.79-2.17.22-1.59.39-2.84-.04-4.15-.49-1.44-1.05-2.45-1.59-3.43-.07-.12-.13-.25-.2-.37.08,0,.17.02.25.02.21,0,.42-.02.62-.05.24-.04.41-.25.41-.49,0-.98-.45-1.89-1.24-2.52-.11-.08-.23-.14-.34-.21.7-.15,1.38-.31,2.03-.5.24.75.76,1.4,1.49,1.81.52.29,1.11.44,1.71.44.39,0,.79-.06,1.17-.19.23-.08.37-.31.33-.55-.15-.97-.74-1.8-1.62-2.29-.1-.05-.2-.08-.3-.13.66-.25,1.3-.52,1.9-.8.37.78,1.03,1.38,1.88,1.66.36.12.72.18,1.09.18.61,0,1.23-.16,1.78-.47.21-.12.3-.37.22-.6-.33-.92-1.06-1.63-2.02-1.95-.15-.05-.31-.07-.47-.1.67-.38,1.3-.76,1.88-1.15.51.74,1.31,1.23,2.23,1.34.14.02.28.03.42.03.85,0,1.68-.31,2.34-.88.18-.16.23-.43.1-.63-.5-.84-1.36-1.39-2.36-1.51-.15-.02-.29,0-.44,0,.45-.36.85-.7,1.21-1.03,0,0,.02,0,.03,0,.74,0,1.43-.25,1.97-.69.3.44.58.9.8,1.41.61,1.38.5,2.8.4,4.04-.03.42-.06.82-.06,1.18,0,1.14,1,3.25,1.59,4.41.02.04,0,.1-.04.12l-1.84.95c-.21.11-.31.35-.25.57.12.46.25.99.32,1.3-.33.13-1,.32-1.56.45-.19.04-.34.19-.38.38-.04.19.03.39.19.5.29.22.59.46.79.65-.27.1-.65.3-.72.81-.03.23-.01.52,0,.83,0,.08.01.19.02.28-1.59.21-3.74-.84-5.03-1.59,0,0,0,0,0,0-.67-.39-1.12-.7-1.13-.71-.23-.16-.54-.1-.7.12-.16.23-.1.54.12.7.05.04.43.29,1,.63,0,.64.07,1.16.16,1.78l.07.48c.14.98.84,1.8,1.83,2.11l9.39,1.89c.99.24,1.62.64,1.89,1.19.26.55.18,1.29-.27,2.25Z" fill="#FFFFFF"/>
  </g>
  <g id="Names">
    <text class="cls-2" transform="translate(0 53.99)"><tspan x="0" y="0">sculptu</tspan><tspan class="cls-3" x="16.36" y="0">r</tspan><tspan x="18.01" y="0">e</tspan></text>
  </g>
</svg>