<?xml version="1.0" encoding="UTF-8"?><!-- Generator: Adobe Illustrator 27.7.0, SVG Export Plug-In . SVG Version: 6.00 Build 0)  --><svg version="1.1" id="Layer_1" xmlns="http://www.w3.org/2000/svg" xmlns:xlink="http://www.w3.org/1999/xlink" x="0px" y="0px" viewBox="0 0 50 50" style="enable-background:new 0 0 50 50;" xml:space="preserve">
<style type="text/css">
	.st0{display:none;}
	.st1{display:inline;fill:none;stroke:#EA008A;stroke-width:0.2;stroke-miterlimit:10;}
	.st2{font-family:'Roboto-Regular';}
	.st3{font-size:6px;}
</style>
<g id="ICONS_00000031165542127692736420000002692518830807990202_">
	<g>
		<g>
			<g>
				<circle cx="26.6868" cy="6.0901" r="0.8869" fill="#FFFFFF"/>
				<circle cx="23.3132" cy="6.0901" r="0.8869" fill="#FFFFFF"/>
				<path d="M38.2977,33.7028c0.6022-1.8881,1.0045-3.9717,1.1539-6.2443c0.1519-2.3091-0.066-4.4873-0.5922-6.4827      c5.6-1.7221,6.4219-7.4035,5.9936-10.5745c-0.0249-0.1841-0.1494-0.3389-0.3237-0.4028      c-3.8516-1.4082-6.3569,0.5278-8.3696,2.085c-0.6714,0.5189-1.3097,1.0035-1.9434,1.3431      c-1.1772-0.972-2.5185-1.7151-3.9913-2.2327c1.7603-5.7745-2.3419-8.7858-5.0073-10.0767c-0.1377-0.0664-0.2979-0.0664-0.4355,0      c-2.6654,1.2909-6.7676,4.3022-5.0073,10.0767c-1.4728,0.5175-2.814,1.2607-3.9913,2.2327      c-0.6337-0.3396-1.272-0.8242-1.9434-1.3431c-2.0132-1.5571-4.5166-3.4946-8.3696-2.085      c-0.1743,0.064-0.2988,0.2188-0.3237,0.4028c-0.4283,3.171,0.3936,8.8524,5.9936,10.5745      c-0.5262,1.9954-0.7441,4.1736-0.5922,6.4827c0.1494,2.2726,0.5518,4.3562,1.1539,6.2443      c-2.9786,1.575-5.1223,3.8837-5.8854,6.368c-0.6284,2.0454-0.3564,4.1597,0.8086,6.2842      c0.0894,0.1626,0.2588,0.2598,0.4385,0.2598c0.0366,0,0.0732-0.0039,0.1099-0.0122l0.3486-0.0757      c1.817-0.3872,7.1646-1.5335,9.4754-4.7141c1.6321,1.2814,3.5296,2.1229,5.6272,2.4896      c0.1274,1.4055,0.8585,3.8788,2.1127,4.6522c0.0801,0.0493,0.1714,0.0742,0.2622,0.0742s0.1821-0.0249,0.2622-0.0742      c1.2543-0.7734,1.9853-3.2467,2.1127-4.6522c2.0976-0.3668,3.9951-1.2083,5.6272-2.4896      c2.3109,3.1805,7.6584,4.3268,9.4754,4.7141l0.3486,0.0757c0.0366,0.0083,0.0732,0.0122,0.1099,0.0122      c0.1797,0,0.3491-0.0972,0.4385-0.2598c1.165-2.1245,1.437-4.2388,0.8086-6.2842C43.42,37.5864,41.2764,35.2777,38.2977,33.7028      z M38.4536,27.3931c-0.2279,3.4676-1.0466,6.4893-2.3301,8.9615l-4.8574-4.3673c-0.0226-0.0203-0.0503-0.0289-0.0752-0.0443      v-9.5459c0.0075-0.0046,0.0166-0.0024,0.0239-0.0074l5.6737-3.9005C38.1141,21.0251,38.6726,24.0667,38.4536,27.3931z       M25.3794,43.5028v-7.5002l5.3939-3.1138l4.8498,4.3605C33.3089,41.1021,29.738,43.3765,25.3794,43.5028z M14.377,37.2493      l4.7557-4.2759l5.2468,3.0292V43.49C20.1307,43.2876,16.648,41.0304,14.377,37.2493z M24.3794,11.3555v6.9783l-5.2878,3.0529      l-5.5223-3.7964c0.4946-0.8577,1.0702-1.6495,1.7325-2.3569C17.5667,12.8151,20.6996,11.4916,24.3794,11.3555z M34.6982,15.2334      c0.6623,0.7074,1.2379,1.4992,1.7325,2.3569l-5.6322,3.8719l-5.4191-3.1284V11.345      C29.1644,11.4301,32.3837,12.7621,34.6982,15.2334z M24.8794,35.1367l-5.311-3.0664v-9.8042l5.311-3.0664l5.3115,3.0664v9.8042      L24.8794,35.1367z M36.7715,12.8745c1.9478-1.5073,3.9609-3.0635,7.1265-2.0361c0.295,2.8924-0.5389,7.689-5.3101,9.1772      c-0.2778-0.8489-0.6248-1.6523-1.0258-2.4151c-0.0145-0.0481-0.0297-0.0964-0.0596-0.1401      c-0.0053-0.0076-0.0136-0.0113-0.0192-0.0186c-0.5724-1.058-1.2518-2.0334-2.0555-2.8916      c-0.1361-0.1454-0.2864-0.2722-0.4282-0.4103C35.5931,13.7846,36.1701,13.3397,36.7715,12.8745z M25,2.125      c2.8221,1.426,5.6937,4.0817,4.2761,8.7634c-1.3346-0.3654-2.763-0.5598-4.2761-0.5598c-0.0337,0-0.0656,0.0042-0.0991,0.0043      c-0.0076-0.0004-0.0139-0.0043-0.0215-0.0043c-0.0118,0-0.0217,0.0059-0.0334,0.0067c-1.4554,0.0125-2.8337,0.2003-4.1221,0.553      C19.3063,6.2067,22.1779,3.551,25,2.125z M6.1021,10.8384c3.166-1.0264,5.1782,0.5293,7.1265,2.0361      c0.6014,0.4651,1.1784,0.9101,1.7719,1.2655c-0.1417,0.1381-0.2921,0.2649-0.4282,0.4103      c-0.8036,0.8582-1.483,1.8336-2.0554,2.8916c-0.0056,0.0073-0.014,0.0109-0.0193,0.0186      c-0.0301,0.0438-0.0453,0.0923-0.0599,0.1407c-0.4009,0.7627-0.7478,1.5658-1.0256,2.4145      C6.6409,18.5273,5.8071,13.7308,6.1021,10.8384z M13.1115,18.4892l5.4569,3.7514v9.8955l-4.6918,4.2185      c-1.2836-2.4723-2.1022-5.494-2.3301-8.9615C11.3274,24.0667,11.8859,21.0251,13.1115,18.4892z M7.3301,45.5454      c-0.8838-1.7661-1.0713-3.5073-0.5571-5.1812c0.6735-2.1917,2.5832-4.2487,5.2514-5.6968      c0.9866,2.6546,2.4208,4.8458,4.2132,6.4866C14.2003,44.0658,9.0812,45.1721,7.3301,45.5454z M25,47.8867      c-0.6653-0.686-1.208-2.2878-1.3571-3.4346c0.3916,0.0378,0.7901,0.0578,1.1943,0.0624      c0.0146,0.0013,0.0272,0.0085,0.0422,0.0085c0.0088,0,0.0162-0.0046,0.0248-0.005c0.0325,0.0002,0.0632,0.005,0.0958,0.005      c0.4612,0,0.9121-0.028,1.3571-0.0709C26.208,45.5989,25.6653,47.2007,25,47.8867z M42.6699,45.5454      c-1.7511-0.3733-6.8702-1.4796-8.9075-4.3914c1.7924-1.6408,3.2266-3.832,4.2132-6.4866      c2.6682,1.4481,4.5779,3.5051,5.2514,5.6968C43.7412,42.0381,43.5537,43.7793,42.6699,45.5454z" fill="#FFFFFF"/>
			</g>
		</g>
	</g>
</g>
<g id="Margin" class="st0">
	<rect x="1" y="1" class="st1" width="48" height="48" fill="#FFFFFF"/>
</g>
<g id="Guides" class="st0">
</g>
<g id="LABELS">
	<g>
		<g>
			<g>
				<g>
					<g>
						<g>
							<text transform="matrix(1 0 0 1 0.0002 55.1228)" class="st2 st3">sea-turtle</text>
						</g>
					</g>
				</g>
			</g>
		</g>
	</g>
</g>
</svg>