<?xml version="1.0" encoding="UTF-8"?><svg xmlns="http://www.w3.org/2000/svg" viewBox="0 0 50 50">
  <defs>
    <style>
      .cls-1 {
        fill: #1f1c1d;
      }

      .cls-2 {
        fill: #221f1f;
        font-family: Roboto-Regular, Roboto;
        font-size: 5px;
      }
    </style>
  </defs>
  <g id="Icon_Outline">
    <g>
      <path class="cls-1" d="M4.89,26.57c-.25-.05-.5.09-.58.34-.11.35-2.71,8.65.64,14.53,1.21,2.13,2.9,3.54,4.89,4.07.56.15,1.14.23,1.72.23,1.21,0,2.42-.33,3.52-.97,1.64-.95,2.79-2.44,3.24-4.19.52-1.99.13-4.16-1.12-6.26-3.45-5.82-11.95-7.67-12.31-7.74ZM17.35,40.32c-.39,1.49-1.38,2.76-2.78,3.58-1.4.82-2.99,1.04-4.48.64-1.72-.46-3.2-1.71-4.28-3.6-2.71-4.75-1.16-11.5-.68-13.28,1.79.46,8.41,2.46,11.21,7.16,1.11,1.87,1.46,3.77,1.01,5.5Z" fill="#FFFFFF"/>
      <path class="cls-1" d="M7.67,39.88c-.42-.73-.74-1.58-.95-2.52-.23-1-.34-2.13-.33-3.34,0-.28-.22-.5-.5-.5h0c-.27,0-.5.22-.5.5,0,1.29.11,2.49.36,3.57.24,1.03.59,1.97,1.06,2.79.43.75.93,1.39,1.49,1.89.1.09.22.13.33.13.14,0,.27-.06.37-.17.19-.21.17-.52-.04-.71-.48-.43-.91-.98-1.29-1.64Z" fill="#FFFFFF"/>
      <path class="cls-1" d="M44.92,13.44c-4.21-5.29-12.88-5.97-13.25-5.99-.26-.03-.48.16-.53.41-.06.36-1.5,8.94,2.61,14.31,1.49,1.94,3.36,3.11,5.4,3.37.28.04.56.05.83.05,1.51,0,3-.52,4.25-1.5,1.49-1.17,2.43-2.8,2.64-4.59.24-2.04-.44-4.13-1.96-6.05ZM45.88,19.37c-.18,1.53-.99,2.93-2.27,3.93-1.28,1-2.82,1.44-4.35,1.25-1.77-.23-3.41-1.26-4.73-2.98-3.33-4.34-2.72-11.23-2.48-13.07,1.83.21,8.67,1.29,12.08,5.57,1.35,1.7,1.96,3.54,1.75,5.31Z" fill="#FFFFFF"/>
      <path class="cls-1" d="M42.44,21.78c-.25.2-.51.36-.78.49-.25.12-.35.42-.23.67.09.18.26.28.45.28.07,0,.15-.02.22-.05.33-.16.65-.36.96-.6.22-.17.26-.48.09-.7-.17-.22-.49-.26-.7-.09Z" fill="#FFFFFF"/>
      <path class="cls-1" d="M43.79,17.35c.19.61.25,1.21.19,1.79-.07.56-.25,1.08-.55,1.55-.15.23-.08.54.16.69.08.05.17.08.27.08.17,0,.33-.08.42-.23.38-.6.61-1.26.69-1.97.08-.72,0-1.46-.23-2.21-.08-.26-.36-.41-.63-.33-.26.08-.41.36-.33.63Z" fill="#FFFFFF"/>
      <path class="cls-1" d="M28.73,28.42c2.91-6.11-.29-14.19-.43-14.54-.1-.24-.36-.37-.6-.29-.35.1-8.69,2.57-11.71,8.62-1.09,2.19-1.32,4.38-.66,6.33.58,1.71,1.84,3.11,3.54,3.94,1,.49,2.05.73,3.1.73.74,0,1.48-.12,2.19-.37,1.94-.68,3.52-2.21,4.57-4.42ZM19.3,31.58c-1.46-.71-2.53-1.9-3.03-3.36-.57-1.69-.36-3.61.61-5.56,2.44-4.89,8.9-7.37,10.65-7.96.61,1.74,2.64,8.35.29,13.3-.93,1.96-2.32,3.31-4,3.9-1.45.51-3.06.4-4.52-.31Z" fill="#FFFFFF"/>
      <path class="cls-1" d="M20.38,20c-.64.58-1.19,1.19-1.65,1.81-.16.22-.12.54.11.7.09.07.19.1.29.1.15,0,.31-.07.4-.21.42-.57.92-1.13,1.51-1.66.2-.18.22-.5.03-.71-.18-.2-.5-.22-.71-.03Z" fill="#FFFFFF"/>
      <path class="cls-1" d="M20.24,29.66c-.96-.47-1.63-1.2-1.94-2.13-.39-1.14-.21-2.49.5-3.92.12-.25.02-.55-.22-.67-.25-.12-.55-.02-.67.22-.83,1.67-1.02,3.29-.55,4.69.4,1.18,1.25,2.12,2.45,2.7.07.03.14.05.22.05.18,0,.36-.1.45-.28.12-.25.02-.55-.23-.67Z" fill="#FFFFFF"/>
      <path class="cls-1" d="M43.06,31.96c-.34-.12-8.54-3.03-14.54.09-2.17,1.13-3.64,2.76-4.25,4.73-.54,1.73-.34,3.6.55,5.27.89,1.67,2.33,2.88,4.06,3.39.65.2,1.33.29,2.02.29,1.39,0,2.84-.4,4.28-1.18,5.94-3.23,8.11-11.65,8.2-12.01.06-.25-.07-.5-.32-.59ZM34.69,43.68c-1.91,1.04-3.82,1.32-5.53.8-1.47-.44-2.7-1.47-3.46-2.91-.76-1.43-.93-3.04-.47-4.51.53-1.7,1.83-3.14,3.76-4.14,1.89-.98,4.07-1.31,6.12-1.31,3.2,0,6.11.8,7.18,1.13-.53,1.77-2.78,8.31-7.58,10.93Z" fill="#FFFFFF"/>
      <path class="cls-1" d="M33.67,41.81c-1.4.76-2.75.98-3.9.64-.27-.08-.54.07-.62.33-.08.26.07.54.33.62.45.14.92.2,1.4.2,1.04,0,2.14-.31,3.26-.92.24-.13.33-.44.2-.68-.13-.24-.44-.33-.68-.2Z" fill="#FFFFFF"/>
      <path class="cls-1" d="M6.38,20.61c.5,0,1.04-.01,1.62-.05.67-.04,1.34-.1,1.97-.19,2.46-.34,4.58-1.03,6.29-2.05.17-.1.34-.21.51-.32.32-.21.63-.44.93-.69,1.89-1.56,2.98-3.47,3.17-5.52.16-1.8-.42-3.58-1.64-5.03-1.22-1.45-2.89-2.32-4.69-2.47-2.06-.16-4.12.59-5.97,2.19-5.13,4.41-5.48,13.1-5.49,13.47,0,.26.18.48.43.51.06,0,1.19.16,2.87.16ZM9.22,7.23c1.65-1.42,3.46-2.09,5.24-1.95,1.54.12,2.96.88,4.01,2.12,1.04,1.24,1.55,2.76,1.41,4.3-.16,1.78-1.13,3.45-2.81,4.84-.27.22-.55.43-.85.63-.15.1-.31.2-.47.29-1.6.95-3.6,1.6-5.92,1.92-.61.08-1.25.15-1.89.18-1.72.1-3.14,0-3.84-.06.15-1.84.96-8.71,5.11-12.28Z" fill="#FFFFFF"/>
      <path class="cls-1" d="M7.27,12.92c.07.03.13.04.2.04.19,0,.37-.11.46-.3.72-1.62,1.62-2.91,2.68-3.82,1.2-1.03,2.48-1.53,3.67-1.44.27.04.52-.18.54-.46.02-.28-.18-.52-.46-.54-1.46-.12-2.99.46-4.4,1.68-1.17,1.01-2.17,2.41-2.95,4.17-.11.25,0,.55.25.66Z" fill="#FFFFFF"/>
    </g>
  </g>
  <g id="Names">
    <text class="cls-2" transform="translate(0 53.66)"><tspan x="0" y="0">sesame-seeds</tspan></text>
  </g>
</svg>