<?xml version="1.0" encoding="UTF-8"?><svg xmlns="http://www.w3.org/2000/svg" viewBox="0 0 50 50">
  <defs>
    <style>
      .cls-1 {
        font-family: ArialMT, Arial;
        font-size: 6px;
      }
    </style>
  </defs>
  <g id="Black">
    <g>
      <path d="M43.37,16.7h-.35V2.65c0-.28-.22-.5-.5-.5H7.51c-.28,0-.5.22-.5.5v14.05h-.38c-.28,0-.5.22-.5.5v6.84c0,.28.22.5.5.5h2l1.21,19.15c.16,1.56.43,4.16,3.1,4.16h23.98c2.67,0,3.02-2.35,3.27-4.11l1.33-19.2h1.86c.28,0,.5-.22.5-.5v-6.84c0-.28-.22-.5-.5-.5ZM8.01,3.15h34.01v13.55h-.82v-2.32c0-2.32-1.89-4.21-4.21-4.21H13.17c-2.32,0-4.21,1.89-4.21,4.21v2.32h-.95V3.15ZM9.96,16.7v-2.32c0-1.77,1.44-3.21,3.21-3.21h23.82c1.77,0,3.21,1.44,3.21,3.21v2.32H9.96ZM39.19,43.63c-.33,2.22-.73,3.22-2.28,3.22H12.94c-1.49,0-1.88-1.1-2.1-3.24l-1.2-19.07h30.87l-1.32,19.09ZM41.91,23.54s0,0,0,0H9.1s0,0,0,0h-1.96v-5.84h35.74v5.84h-.96Z" fill="#FFFFFF"/>
      <path d="M25.26,45.54c5.18,0,9.39-4.21,9.39-9.39s-4.21-9.39-9.39-9.39-9.39,4.21-9.39,9.39,4.21,9.39,9.39,9.39ZM25.26,27.77c4.62,0,8.39,3.76,8.39,8.39s-3.76,8.39-8.39,8.39-8.39-3.76-8.39-8.39,3.76-8.39,8.39-8.39Z" fill="#FFFFFF"/>
      <path d="M19.51,37.42c.09-.32.23-.61.43-.88.21-.27.46-.5.76-.67.3-.17.62-.28.96-.32.13-.02.27-.01.4,0-.07.27-.13.54-.13.84,0,1.41.94,2.59,2.23,2.98-.05.09-.1.19-.17.27-.21.27-.46.5-.76.67-.3.17-.62.28-.96.32-.33.04-.66.01-.98-.07-.27-.07-.54.08-.61.35-.07.27.08.54.35.61.31.08.62.13.94.13.14,0,.28,0,.42-.02.47-.06.92-.21,1.34-.44.42-.24.77-.55,1.06-.93.11-.14.2-.3.28-.45.09.16.17.31.28.45.29.38.65.69,1.06.93.42.24.87.39,1.34.44.14.02.28.02.42.02.32,0,.63-.04.94-.13.27-.07.42-.35.35-.61s-.34-.42-.61-.35c-.32.09-.65.11-.98.07-.34-.04-.66-.15-.96-.32-.3-.17-.55-.39-.76-.67-.06-.08-.11-.18-.17-.27,1.29-.39,2.23-1.57,2.23-2.99,0-.29-.05-.57-.13-.84.13,0,.26,0,.39,0,.34.04.66.15.96.32.3.17.56.39.76.67.2.26.35.55.43.88.07.27.35.42.62.35.27-.07.42-.35.35-.62-.12-.45-.33-.86-.6-1.22-.29-.38-.64-.69-1.06-.93-.42-.24-.87-.39-1.34-.44-.15-.02-.29-.01-.44-.01.06-.12.14-.23.19-.35.18-.44.28-.9.28-1.38s-.09-.94-.28-1.38c-.18-.42-.43-.8-.76-1.13-.2-.2-.51-.2-.71,0-.2.2-.2.51,0,.71.24.24.42.51.55.81.13.31.2.65.2.99s-.07.68-.2.99c-.05.11-.11.22-.17.32-.56-.55-1.33-.89-2.18-.89s-1.61.34-2.18.89c-.06-.1-.13-.21-.17-.32-.13-.31-.2-.65-.2-.99s.07-.68.2-.99c.13-.3.31-.58.55-.81.19-.2.19-.51,0-.71-.19-.2-.51-.2-.71,0-.33.33-.58.71-.76,1.13-.19.44-.28.9-.28,1.38s.09.94.28,1.38c.05.12.12.23.19.35-.15,0-.29,0-.44,0-.47.06-.92.21-1.34.44-.42.24-.77.55-1.06.93-.28.37-.48.78-.6,1.22-.07.27.08.54.35.61.26.07.54-.08.61-.35ZM22.94,36.39c0-.21.04-.41.1-.6.17.08.33.17.48.28.27.21.5.46.67.76.17.3.28.62.32.96.03.21.01.43-.02.64-.89-.26-1.55-1.07-1.55-2.04ZM25.66,38.43c-.03-.21-.04-.42-.02-.64.04-.34.15-.66.32-.96.17-.3.39-.56.67-.76.15-.12.32-.21.49-.29.06.19.1.39.1.61,0,.97-.66,1.79-1.55,2.04ZM26.58,34.88c-.16.12-.33.22-.51.3-.63.27-1.36.27-1.99,0-.18-.08-.35-.18-.51-.3.39-.38.92-.62,1.5-.62s1.12.24,1.51.62Z" fill="#FFFFFF"/>
    </g>
  </g>
  <g id="Labels">
    <text class="cls-1" transform="translate(0 54.76)"><tspan x="0" y="0">Sharps Container </tspan></text>
  </g>
</svg>