<?xml version="1.0" encoding="UTF-8"?>
<svg xmlns="http://www.w3.org/2000/svg" viewBox="0 0 50 50">
  <defs>
    <style>
      .cls-1 {
        fill: #1f1c1d;
      }

      .cls-2 {
        fill: #ffcd00;
      }

      .cls-3 {
        fill: #221f1f;
        font-family: Roboto-Regular, Roboto;
        font-size: 5px;
      }
    </style>
  </defs>
  <g id="Gold_Offset">
    <path class="cls-2" d="M47.96,21.09L26,3.84l-9.4,7.38v-6.18h-4.05v9.36l-8.52,6.69h4.73v27.59c0,.07.05.12.11.12h10.11c.58,0,1.06-.5,1.06-1.11v-16.05h9.89v16.05c0,.51.34.93.79,1.05h1.21s10.94.06,10.94.06c.06,0,.11-.05.11-.12v-27.59h4.96Z"/>
  </g>
  <g id="Icon_Outline">
    <path class="cls-1" d="M48.72,20.2L25.31,1.81c-.18-.14-.44-.14-.62,0l-8.09,6.35V3.53c0-.28-.22-.5-.5-.5h-5.05c-.28,0-.5.22-.5.5v9.38L1.28,20.2c-.17.13-.23.36-.16.56.07.2.26.34.47.34h5.18v26.6c0,.61.5,1.11,1.11,1.11h11.11c.58,0,1.06-.48,1.06-1.06v-15.32h9.89v15.32c0,.58.48,1.06,1.06,1.06h10.88c.61,0,1.11-.5,1.11-1.11v-26.6h5.41c.21,0,.4-.13.47-.34.07-.2,0-.42-.16-.56ZM11.56,4.03h4.05v4.91l-4.05,3.18V4.03ZM41.89,47.8l-10.94-.06v-15.82c0-.28-.22-.5-.5-.5h-10.89c-.28,0-.5.22-.5.5l-.06,15.88H7.88c-.06,0-.11-.05-.11-.11v-26.6h34.23v26.6c0,.06-.05.11-.11.11ZM3.04,20.09L25,2.84l21.96,17.25H3.04Z"/>
  </g>
  <g id="Names">
    <text class="cls-3" transform="translate(0 53.76)"><tspan x="0" y="0">simple-home</tspan></text>
  </g>
</svg>