<?xml version="1.0" encoding="UTF-8"?><!-- Generator: Adobe Illustrator 27.7.0, SVG Export Plug-In . SVG Version: 6.00 Build 0)  --><svg version="1.1" id="Layer_1" xmlns="http://www.w3.org/2000/svg" xmlns:xlink="http://www.w3.org/1999/xlink" x="0px" y="0px" viewBox="0 0 50 50" style="enable-background:new 0 0 50 50;" xml:space="preserve">
<style type="text/css">
	.st0{display:none;}
	.st1{display:inline;fill:none;stroke:#EA008A;stroke-width:0.2;stroke-miterlimit:10;}
	.st2{font-family:'Roboto-Regular';}
	.st3{font-size:6px;}
</style>
<g id="ICONS_00000031165542127692736420000002692518830807990202_">
	<g>
		<path d="M48.376,24.2114h-3.455c-1.0194-2.8468-3.6001-3.768-5.8497-3.9873c-2.8701-0.2793-7.3496-0.4531-11.6904-0.4531    s-8.8203,0.1738-11.6904,0.4531c-2.2496,0.2193-4.8297,1.1405-5.8488,3.9873H7.418V1.6606c0-0.2764-0.2236-0.5-0.5-0.5H3.67    c-0.2764,0-0.5,0.2236-0.5,0.5v22.519c0,0.0113,0.0057,0.0207,0.0064,0.0317H2.5449c-0.2764,0-0.5,0.2236-0.5,0.5v4.2559    c0,0.2764,0.2236,0.5,0.5,0.5h0.625v11.3989c0,4.3657,3.5518,7.9175,7.917,7.9175c3.3281,0,6.3213-2.106,7.4502-5.2407    c0.0287-0.0797,0.0296-0.1603,0.0182-0.2387c1.077-0.1422,2.0793-0.6811,2.764-1.5904c0.166-0.2207,0.1221-0.5342-0.0986-0.7002    c-0.2188-0.1655-0.5332-0.1226-0.7002,0.0986c-0.7764,1.0312-2.0859,1.4824-3.3291,1.1431    c-1.2754-0.3442-2.2051-1.4604-2.3135-2.7769c-0.0225-0.2749-0.2715-0.4775-0.5391-0.4575    c-0.2754,0.0229-0.4795,0.2642-0.457,0.5396c0.0642,0.7818,0.3571,1.5032,0.8033,2.1088    c-0.0117,0.0264-0.0295,0.0487-0.0367,0.0777c-0.4062,1.6416-1.8711,2.7886-3.5615,2.7886c-2.0234,0-3.6689-1.646-3.6689-3.6694    V29.4673h2.116c0.5538,4.3444,2.7865,6.2468,7.3206,6.4121c3.725,0.1439,5.6212-1.5754,6.8654-3.4028    c0.022-0.0029,0.0433,0.0016,0.0653-0.0044c2.2334-0.6123,4.9619-0.6123,7.1914,0c0.024,0.0064,0.0479,0.0067,0.0719,0.0096    c1.1982,1.7542,2.9993,3.4055,6.4496,3.4055c0.1338,0,0.2705-0.0024,0.4102-0.0078c4.5341-0.1653,6.7668-2.0677,7.3206-6.4121    h3.1472c0.2764,0,0.5-0.2236,0.5-0.5v-4.2559C48.876,24.4351,48.6523,24.2114,48.376,24.2114z M4.1699,24.1797V2.1606h2.248    v22.0508H4.1635C4.1642,24.2004,4.1699,24.191,4.1699,24.1797z M11.0869,45.5356c1.9799,0,3.702-1.2432,4.3696-3.0687    c0.4301,0.3397,0.9236,0.6056,1.4732,0.7542c0.202,0.0543,0.4048,0.0895,0.6073,0.1132c-1.0218,2.6644-3.591,4.4493-6.4501,4.4493    c-3.8145,0-6.917-3.103-6.917-6.9175V29.4673h2.248v11.3989C6.418,43.4409,8.5127,45.5356,11.0869,45.5356z M3.0449,28.4673    v-3.2559h6.5167c-0.1101,0.5538-0.173,1.1625-0.173,1.8398c0,0.4983,0.0202,0.9644,0.0498,1.416L3.0449,28.4673L3.0449,28.4673z     M24.4479,31.2908c0.1188-0.2094,0.2342-0.4164,0.3441-0.6155c0.8887-1.6104,1.4893-2.5972,2.5889-2.5972    s1.7002,0.9868,2.5889,2.5972c0.1099,0.1992,0.2253,0.4061,0.3442,0.6155C28.4317,30.9217,26.3324,30.9213,24.4479,31.2908z     M37.8711,34.8804c-4.3398,0.1465-5.7725-2.4155-7.0264-4.6885c-0.8838-1.6011-1.7178-3.1138-3.4639-3.1138    s-2.5801,1.5127-3.4639,3.1143c-1.2539,2.272-2.707,4.8271-7.0254,4.688c-4.0146-0.1465-6.5029-1.5073-6.5029-7.8291    c0-3.5205,1.8164-5.4829,5.3994-5.832c2.8398-0.2764,7.2822-0.4482,11.5928-0.4482s8.7529,0.1719,11.5928,0.4482    c3.584,0.3491,5.4004,2.3115,5.4004,5.832C44.374,33.373,41.8857,34.7339,37.8711,34.8804z M47.876,28.4673h-2.5518    c0.0296-0.4517,0.0498-0.9177,0.0498-1.416c0-0.6774-0.0629-1.2861-0.173-1.8398h2.675V28.4673z" fill="#FFFFFF"/>
		<path d="M40.6797,24.394l-6.5166,6.7383c-0.1924,0.1987-0.1865,0.5151,0.0117,0.707c0.0967,0.0938,0.2227,0.1406,0.3477,0.1406    c0.1309,0,0.2617-0.0508,0.3594-0.1523l6.5166-6.7383c0.1924-0.1987,0.1865-0.5151-0.0117-0.707    C41.1895,24.1909,40.8711,24.1963,40.6797,24.394z" fill="#FFFFFF"/>
		<path d="M18.6465,23.4058l-5.2773,5.4575c-0.1924,0.1987-0.1865,0.5151,0.0117,0.707c0.0967,0.0938,0.2227,0.1406,0.3477,0.1406    c0.1309,0,0.2617-0.0508,0.3594-0.1523l5.2773-5.4575c0.1924-0.1987,0.1865-0.5151-0.0117-0.707    C19.1562,23.2026,18.8389,23.207,18.6465,23.4058z" fill="#FFFFFF"/>
		<path d="M37.0586,24.3726c-0.1982-0.1914-0.5166-0.186-0.707,0.0117l-3.1162,3.2227c-0.1924,0.1987-0.1865,0.5151,0.0117,0.707    c0.0967,0.0938,0.2227,0.1406,0.3477,0.1406c0.1309,0,0.2617-0.0508,0.3594-0.1523l3.1162-3.2227    C37.2627,24.8809,37.2568,24.5645,37.0586,24.3726z" fill="#FFFFFF"/>
	</g>
	<path d="M18.4253,43.82c0.0967-0.2353,0.2228-0.5854,0.2642-0.7823l-0.4093,0.0155l-0.1192,0.2383L18.4253,43.82z" fill="#FFFFFF"/>
</g>
<g id="Margin" class="st0">
	<rect x="1" y="1" class="st1" width="48" height="48" fill="#FFFFFF"/>
</g>
<g id="Guides" class="st0">
</g>
<g id="LABELS">
	<g>
		<g>
			<text transform="matrix(1 0 0 1 -0.113 55.1226)" class="st2 st3">snorkel-goggles</text>
		</g>
	</g>
</g>
</svg>