<?xml version="1.0" encoding="UTF-8"?><svg xmlns="http://www.w3.org/2000/svg" viewBox="0 0 50 50"><g id="uuid-9fabc053-546d-40fa-bb9f-4eea87df1de3"><path d="M37.65,14.1h-11.52l1.08-7.94,7.86-4.47c.24-.14,.32-.44,.19-.68-.14-.24-.44-.33-.68-.19l-8.07,4.59s0,0-.02,.01c-.04,.02-.06,.05-.09,.08-.02,.02-.04,.04-.05,.06-.02,.03-.03,.05-.04,.08-.01,.03-.03,.06-.03,.1,0,.01,0,.02-.01,.03l-1.13,8.32H12.35c-.28,0-.5,.22-.5,.5v3.08c0,.28,.22,.5,.5,.5h1.6l2.67,30.11c.02,.26,.24,.46,.5,.46h15.77c.26,0,.48-.2,.5-.46l2.67-30.11h1.6c.28,0,.5-.22,.5-.5v-3.08c0-.28-.22-.5-.5-.5Zm-5.23,33.65h-14.85l-.96-10.83,17.34-6.43-1.53,17.25Zm1.63-18.34s-.05,0-.08,.01l-17.45,6.47-.38-4.31,18.32-6.79-.41,4.62Zm.51-5.72l-18.51,6.86-1.1-12.37h20.09l-.49,5.51Zm2.59-6.51H12.85v-2.08h24.3v2.08Z" fill="#FFCD00"/></g><g id="uuid-db92369b-3201-4dff-a43a-b098c399bd55"><text transform="translate(0 55.01)" font-family="Roboto-Regular, Roboto" font-size="6"><tspan x="0" y="0">soda</tspan></text></g></svg>