<?xml version="1.0" encoding="UTF-8"?><svg xmlns="http://www.w3.org/2000/svg" viewBox="0 0 50 50">
  <defs>
    <style>
      .cls-1 {
        font-family: ArialMT, Arial;
        font-size: 6px;
      }

      .cls-2 {
        letter-spacing: -.04em;
      }
    </style>
  </defs>
  <g id="Black">
    <g>
      <path d="M3.59,16.82c-1.43,0-2.59,1.16-2.59,2.59v11.18c0,1.43,1.16,2.59,2.59,2.59s2.59-1.16,2.59-2.59v-11.18c0-1.43-1.16-2.59-2.59-2.59ZM5.18,30.59c0,.88-.71,1.59-1.59,1.59s-1.59-.71-1.59-1.59v-11.18c0-.88.71-1.59,1.59-1.59s1.59.71,1.59,1.59v11.18Z" fill="#FFCD00"/>
      <path d="M17.86,16.82c-1.43,0-2.59,1.16-2.59,2.59v11.18c0,1.43,1.16,2.59,2.59,2.59s2.59-1.16,2.59-2.59v-11.18c0-1.43-1.16-2.59-2.59-2.59ZM19.45,30.59c0,.88-.71,1.59-1.59,1.59s-1.59-.71-1.59-1.59v-11.18c0-.88.71-1.59,1.59-1.59s1.59.71,1.59,1.59v11.18Z" fill="#FFCD00"/>
      <path d="M39.27,16.82c-1.43,0-2.59,1.16-2.59,2.59v11.18c0,1.43,1.16,2.59,2.59,2.59s2.59-1.16,2.59-2.59v-11.18c0-1.43-1.16-2.59-2.59-2.59ZM40.86,30.59c0,.88-.71,1.59-1.59,1.59s-1.59-.71-1.59-1.59v-11.18c0-.88.71-1.59,1.59-1.59s1.59.71,1.59,1.59v11.18Z" fill="#FFCD00"/>
      <path d="M46.41,18.93c-1.43,0-2.59,1.16-2.59,2.59v6.96c0,1.43,1.16,2.59,2.59,2.59s2.59-1.16,2.59-2.59v-6.96c0-1.43-1.16-2.59-2.59-2.59ZM48,28.48c0,.88-.71,1.59-1.59,1.59s-1.59-.71-1.59-1.59v-6.96c0-.88.71-1.59,1.59-1.59s1.59.71,1.59,1.59v6.96Z" fill="#FFCD00"/>
      <path d="M10.73,10.09c-1.43,0-2.59,1.16-2.59,2.59v24.64c0,1.43,1.16,2.59,2.59,2.59s2.59-1.16,2.59-2.59V12.68c0-1.43-1.16-2.59-2.59-2.59ZM12.32,37.32c0,.88-.71,1.59-1.59,1.59s-1.59-.71-1.59-1.59V12.68c0-.88.71-1.59,1.59-1.59s1.59.71,1.59,1.59v24.64Z" fill="#FFCD00"/>
      <path d="M32.14,10.09c-1.43,0-2.59,1.16-2.59,2.59v24.64c0,1.43,1.16,2.59,2.59,2.59s2.59-1.16,2.59-2.59V12.68c0-1.43-1.16-2.59-2.59-2.59ZM33.73,37.32c0,.88-.71,1.59-1.59,1.59s-1.59-.71-1.59-1.59V12.68c0-.88.71-1.59,1.59-1.59s1.59.71,1.59,1.59v24.64Z" fill="#FFCD00"/>
      <path d="M25,2.2c-1.43,0-2.59,1.16-2.59,2.59v40.43c0,1.43,1.16,2.59,2.59,2.59s2.59-1.16,2.59-2.59V4.79c0-1.43-1.16-2.59-2.59-2.59ZM26.59,45.21c0,.88-.71,1.59-1.59,1.59s-1.59-.71-1.59-1.59V4.79c0-.88.71-1.59,1.59-1.59s1.59.71,1.59,1.59v40.43Z" fill="#FFCD00"/>
    </g>
  </g>
  <g id="Labels">
    <text class="cls-1" transform="translate(0 54.92)"><tspan x="0" y="0">Sound </tspan><tspan class="cls-2" x="19.02" y="0">W</tspan><tspan x="24.46" y="0">ave</tspan></text>
  </g>
</svg>