<?xml version="1.0" encoding="UTF-8"?><svg xmlns="http://www.w3.org/2000/svg" viewBox="0 0 50 50"><g id="uuid-782fd20f-57f7-44cb-b472-be7077c0a3de"><g><path d="M11.77,20.69c-1.89,0-3.43,1.54-3.43,3.43s1.54,3.43,3.43,3.43,3.43-1.54,3.43-3.43-1.54-3.43-3.43-3.43Zm0,5.86c-1.34,0-2.43-1.09-2.43-2.43s1.09-2.43,2.43-2.43,2.43,1.09,2.43,2.43-1.09,2.43-2.43,2.43Z" fill="#FFCD00"/><path d="M32.07,20.69c-1.89,0-3.43,1.54-3.43,3.43s1.54,3.43,3.43,3.43,3.43-1.54,3.43-3.43-1.54-3.43-3.43-3.43Zm0,5.86c-1.34,0-2.43-1.09-2.43-2.43s1.09-2.43,2.43-2.43,2.43,1.09,2.43,2.43-1.09,2.43-2.43,2.43Z" fill="#FFCD00"/><path d="M21.92,20.69c-1.89,0-3.43,1.54-3.43,3.43s1.54,3.43,3.43,3.43,3.43-1.54,3.43-3.43-1.54-3.43-3.43-3.43Zm0,5.86c-1.34,0-2.43-1.09-2.43-2.43s1.09-2.43,2.43-2.43,2.43,1.09,2.43,2.43-1.09,2.43-2.43,2.43Z" fill="#FFCD00"/><path d="M49.08,8.55l-5.49-1.85c-.12-.04-.26-.03-.38,.03-.12,.06-.21,.16-.25,.29l-1.31,3.88h0l-1.39,4.13c-2.16-2.6-5.29-4.24-8.78-4.24H12.36C5.87,10.78,.58,16.46,.58,23.45c0,6.52,4.64,11.97,10.64,12.59l.92,6.85c.02,.19,.15,.34,.33,.4,.05,.02,.11,.03,.17,.03,.12,0,.25-.05,.34-.13l7.55-7.08h10.96c.76,0,1.5-.08,2.23-.23l.25,2.3h0l.39,3.61c.02,.19,.15,.36,.34,.42,.05,.02,.11,.03,.16,.03,.13,0,.27-.05,.36-.16l4.74-5.01c.05-.05,.08-.12,.11-.18h0l8.02-23.82h0l1.31-3.88c.09-.26-.05-.54-.31-.63Zm-29.09,26.7l-6.98,6.55-.85-6.29c-.03-.24-.22-.42-.46-.43-5.67-.38-10.12-5.48-10.12-11.63S6.42,11.78,12.36,11.78H31.49c3.39,0,6.42,1.71,8.4,4.36l-6.25,18.56h0s0,.08-.01,.11c0,.02,0,.04,0,.06-.69,.15-1.4,.23-2.12,.23h-11.15c-.13,0-.25,.05-.34,.14ZM42.44,11.69l4.54,1.53-7.62,22.62c-.61-.49-1.3-.88-2.03-1.14-.8-.28-1.66-.41-2.51-.39l7.62-22.62Zm-7.78,23.63c.8-.05,1.59,.06,2.34,.33,.69,.24,1.33,.62,1.89,1.1l-1.58,1.67c-.3-.23-.69-.47-1.2-.64-.38-.12-.79-.16-1.2-.16l-.25-2.29Zm1.14,3.41c.33,.11,.6,.26,.81,.42l-1.38,1.46-.22-2c.27,.01,.53,.04,.78,.12Zm11.5-26.45l-4.54-1.53,.99-2.93,4.54,1.53-.99,2.93Z" fill="#FFCD00"/></g></g><g id="uuid-5bcf30f3-6cd7-424e-bad1-c62ec301a416"><text transform="translate(-.28 54.86)" font-family="Roboto-Regular, Roboto" font-size="6"><tspan x="0" y="0">speech-bubble-pen</tspan></text></g></svg>