<?xml version="1.0" encoding="UTF-8"?><svg xmlns="http://www.w3.org/2000/svg" viewBox="0 0 50 50"><g id="uuid-4f4bfed8-a851-4f69-8199-c6b1d6caf88e"><g><path d="M45.03,18.15s-.02-.01-.02-.02c-.22-.86-.52-1.71-.88-2.53-.25-.58-.55-1.13-.86-1.67,1.22-1,1.93-2.43,1.93-3.95,0-1.6-.76-3.11-2.1-4.13-.18-.13-.42-.14-.6,0-1.35,1.01-2.12,2.51-2.13,4.11,0,.1,.01,.19,.02,.29-1.01-.97-2.16-1.79-3.4-2.48,.6-1.39,.6-2.92-.03-4.25-.69-1.45-2.03-2.48-3.68-2.82-.22-.05-.44,.06-.54,.26-.78,1.49-.83,3.18-.14,4.63,.09,.19,.2,.38,.31,.56-1.22-.31-2.45-.47-3.69-.5h0c-1.28-1.1-2.92-1.53-4.48-1.18-1.57,.35-2.86,1.43-3.56,2.96-.09,.2-.04,.44,.13,.59,.99,.84,2.19,1.29,3.4,1.29,.36,0,.72-.04,1.08-.12,1.42-.32,2.61-1.23,3.34-2.54,1.15,.02,2.29,.17,3.42,.44-.29,.06-.58,.14-.86,.25-1.49,.6-2.59,1.88-3.02,3.51-.06,.22,.04,.44,.23,.56,.86,.51,1.8,.77,2.74,.77,.64,0,1.27-.12,1.88-.37,1.39-.57,2.44-1.73,2.93-3.22,1.47,.8,2.78,1.83,3.9,3.04-.49-.19-1-.32-1.54-.35-1.6-.1-3.15,.58-4.24,1.86-.15,.17-.16,.42-.04,.6,.93,1.4,2.38,2.26,3.99,2.36,.1,0,.2,0,.3,0,1.37,0,2.67-.57,3.67-1.59,.27,.48,.52,.97,.75,1.47,.25,.56,.45,1.14,.63,1.72-2.31-.35-7.28-.09-9.04,.87-2.42,1.32-3.65,4.22-4.42,6.92-1.85-3.06-5.18-4.97-8.81-4.97-2.19,0-16.38,.42-16.98,.44-.25,0-.46,.2-.48,.45-.02,.24-.5,5.45,2.13,10.27,.01,.04,.03,.07,.05,.1,.21,.37,.42,.74,.67,1.1,.55,1.07,1.24,2.08,2.07,2.98,1.41,5.15,7.18,12.69,17.48,12.69s18.66-8.37,18.66-18.65c0-3.72-.08-10.61-.09-11.43,.02-.11,.01-.24-.05-.34Zm-15.29-7.42c.41-1.14,1.24-2.03,2.32-2.47h0c1.08-.44,2.29-.38,3.38,.15-.41,1.14-1.24,2.03-2.32,2.47-1.08,.44-2.29,.38-3.38-.15Zm3.72-8.96c1.16,.34,2.1,1.12,2.6,2.17,.5,1.05,.51,2.27,.04,3.39-1.16-.34-2.1-1.12-2.6-2.17-.5-1.05-.51-2.27-.04-3.39Zm-11.21,5.72c.59-1.06,1.56-1.8,2.69-2.05,1.14-.25,2.32,0,3.31,.71-.59,1.06-1.56,1.8-2.69,2.05-1.14,.25-2.32,0-3.31-.71Zm16.31,7.61c-1.16-.07-2.23-.65-2.98-1.6,.86-.85,1.99-1.3,3.16-1.23,1.16,.07,2.23,.65,2.98,1.6-.86,.85-1.99,1.3-3.16,1.23Zm2.82-5.14c0-1.16,.52-2.26,1.43-3.07,.9,.81,1.41,1.92,1.4,3.08,0,1.16-.52,2.26-1.43,3.07-.9-.81-1.41-1.92-1.4-3.08ZM7.6,32.03h15.55c.28,0,.5-.22,.5-.5s-.22-.5-.5-.5H7.03c-.67-1.28-1.11-2.59-1.4-3.81h13.13c.28,0,.5-.22,.5-.5s-.22-.5-.5-.5H5.41c-.35-1.93-.35-3.52-.32-4.26,2.51-.07,14.54-.42,16.5-.42,3.69,0,7.04,2.19,8.52,5.57,.52,1.18,.78,2.43,.78,3.73,0,5.12-4.17,9.29-9.3,9.29-4.21,0-8.82-1.91-11.75-4.86h0c-.79-.86-1.46-1.81-2-2.88-.08-.12-.15-.24-.22-.36Zm18.91,15.54c-8.6,0-13.94-5.76-15.93-10.32,3.06,2.39,7.17,3.88,10.99,3.88,5.68,0,10.3-4.62,10.3-10.29,0-1.38-.28-2.72-.8-3.98,.69-2.77,1.8-6.07,4.22-7.39,2.04-1.12,7.39-.93,8.8-.7,.02,1.51,.08,7.7,.08,11.15,0,9.73-7.92,17.65-17.66,17.65Z" fill="#FFFFFF"/><path d="M40.47,22.52c-.68,0-1.22,.55-1.22,1.22s.55,1.22,1.22,1.22,1.22-.55,1.22-1.22-.55-1.22-1.22-1.22Z" fill="#FFFFFF"/></g></g><g id="uuid-3c65f859-a460-4f02-87df-1c861cf45c87"><text transform="translate(-.1 55.02)" font-family="Roboto-Regular, Roboto" font-size="6"><tspan x="0" y="0">spiritual-se</tspan><tspan x="29.32" y="0" letter-spacing="0em">r</tspan><tspan x="31.4" y="0">vices</tspan></text></g></svg>