<?xml version="1.0" encoding="UTF-8"?><svg xmlns="http://www.w3.org/2000/svg" viewBox="0 0 50 50"><g id="uuid-74a3ce8a-e2a8-4763-be5c-647b281714cd"><path d="M45.2,2.28c-1.57-1.41-3.98-1.65-6.79-.68-2.7,.93-5.47,2.88-7.8,5.5-3.42,3.85-5.25,8.48-4.72,11.87L3.2,44.46c-.09,.1-.14,.24-.13,.38,0,.14,.07,.27,.17,.36l4.1,3.65c.1,.09,.22,.13,.35,.13h.03c.14,0,.27-.07,.36-.18L30.7,23.38c3.48,.22,7.91-2.13,11.41-6.07,3.16-3.55,5-7.82,4.81-11.14-.1-1.64-.69-2.99-1.71-3.9Zm-3.88,14.34c-3.32,3.74-7.65,6.03-10.79,5.7-.17-.02-.33,.05-.44,.17L7.65,47.72l-3.32-2.95L26.84,19.47c.08-.09,.13-.21,.13-.33,0-.04,0-.08,0-.12-.6-3.1,1.14-7.51,4.43-11.23,2.21-2.48,4.82-4.33,7.36-5.2,2.43-.84,4.47-.67,5.75,.47,.81,.72,1.28,1.82,1.36,3.18,.18,3.06-1.56,7.04-4.54,10.39h0Z" fill="#FFCD00"/><path d="M41.56,12.38c-.25-.15-.57-.06-.72,.18-1.14,1.93-2.73,3.56-4.6,4.7-1.25,.77-2.62,1.32-4.07,1.64-.28,.06-.46,.34-.4,.62,.05,.24,.27,.41,.51,.41,.04,0,.08,0,.11-.01,1.56-.35,3.04-.95,4.39-1.77,2.02-1.23,3.73-2.98,4.96-5.06,.15-.25,.06-.57-.18-.72Z" fill="#FFCD00"/></g><g id="uuid-ee8e5540-8c65-4413-a9b2-eb10e361e78b"><text transform="translate(-.22 55.05)" font-family="Roboto-Regular, Roboto" font-size="6"><tspan x="0" y="0">spoon</tspan></text></g></svg>