<?xml version="1.0" encoding="UTF-8"?><svg xmlns="http://www.w3.org/2000/svg" viewBox="0 0 50 50">
  <defs>
    <style>
      .cls-1 {
        fill: #1f1c1d;
      }

      .cls-2 {
        fill: #221f1f;
        font-family: Roboto-Regular, Roboto;
        font-size: 5px;
      }

      .cls-3 {
        letter-spacing: 0em;
      }
    </style>
  </defs>
  <g id="Icon_Outline">
    <g>
      <path class="cls-1" d="M47.66,7.05H2.34c-.55,0-1,.45-1,1v33.9c0,.55.45,1,1,1h45.31c.55,0,1-.45,1-1V8.05c0-.55-.45-1-1-1ZM47.66,19.68v4.82h-10.58v-4.82h10.58ZM37.08,18.68v-4.82h10.58v4.82h-10.58ZM47.66,25.5v4.82h-10.58v-4.82h10.58ZM47.66,31.32v4.82h-10.58v-4.82h10.58ZM2.34,8.05h45.31v4.82H2.34v-4.82ZM12.92,41.95H2.34v-4.82h10.58v4.82ZM12.92,36.13H2.34v-4.82h10.58v4.82ZM12.92,30.32H2.34v-4.82h10.58v4.82ZM12.92,24.5H2.34v-4.82h10.58v4.82ZM12.92,18.68H2.34v-4.82h10.58v4.82ZM24.5,41.95h-10.58v-4.82h10.58v4.82ZM24.5,36.13h-10.58v-4.82h10.58v4.82ZM24.5,30.32h-10.58v-4.82h10.58v4.82ZM24.5,24.5h-10.58v-4.82h10.58v4.82ZM24.5,18.68h-10.58v-4.82h10.58v4.82ZM36.08,41.95h-10.58v-4.82h10.58v4.82ZM36.08,36.13h-10.58v-4.82h10.58v4.82ZM36.08,30.32h-10.58v-4.82h10.58v4.82ZM36.08,24.5h-10.58v-4.82h10.58v4.82ZM36.08,18.68h-10.58v-4.82h10.58v4.82ZM37.08,41.95v-4.82h10.58v4.82h-10.58Z" fill="#FFCD00"/>
      <path class="cls-1" d="M4.91,16.77h5.44c.28,0,.5-.22.5-.5s-.22-.5-.5-.5h-5.44c-.28,0-.5.22-.5.5s.22.5.5.5Z" fill="#FFCD00"/>
      <path class="cls-1" d="M21.93,9.96H4.91c-.28,0-.5.22-.5.5s.22.5.5.5h17.01c.28,0,.5-.22.5-.5s-.22-.5-.5-.5Z" fill="#FFCD00"/>
      <path class="cls-1" d="M4.91,22.59h5.44c.28,0,.5-.22.5-.5s-.22-.5-.5-.5h-5.44c-.28,0-.5.22-.5.5s.22.5.5.5Z" fill="#FFCD00"/>
      <path class="cls-1" d="M4.91,28.41h5.44c.28,0,.5-.22.5-.5s-.22-.5-.5-.5h-5.44c-.28,0-.5.22-.5.5s.22.5.5.5Z" fill="#FFCD00"/>
      <path class="cls-1" d="M4.91,34.23h5.44c.28,0,.5-.22.5-.5s-.22-.5-.5-.5h-5.44c-.28,0-.5.22-.5.5s.22.5.5.5Z" fill="#FFCD00"/>
    </g>
  </g>
  <g id="Names">
    <text class="cls-2" transform="translate(0 53.76)"><tspan x="0" y="0">sp</tspan><tspan class="cls-3" x="5.38" y="0">r</tspan><tspan x="7.03" y="0">eadsheet</tspan></text>
  </g>
</svg>