<?xml version="1.0" encoding="UTF-8"?><svg xmlns="http://www.w3.org/2000/svg" viewBox="0 0 50 50"><g id="uuid-c90ace85-a8b4-4336-ba39-7f920f6d34ea"><path d="M48.21,3.3h-14.34c-.28,0-.5,.22-.5,.5v6.97h-8.71c-.29-.03-.56,.2-.56,.5v7.95h-7.75c-.28,0-.5,.22-.5,.5v7.94H7.4c-.28,0-.5,.23-.5,.5v8.13l-5.85,.02c-.28,0-.5,.22-.5,.5v8.65c0,.28,.22,.5,.5,.5H48.21c.28,0,.5-.22,.5-.5V3.8c0-.28-.22-.5-.5-.5Zm-.5,41.66H1.54v-7.65l5.85-.02c.28,0,.5-.22,.5-.5v-8.13h8.45c.28,0,.5-.23,.5-.5v-7.94h7.75c.28,0,.5-.22,.5-.5v-7.95h8.77c.13,0,.26-.05,.35-.15s.15-.22,.15-.35V4.3h13.34V44.95Z" fill="#FFFFFF"/></g><g id="uuid-ca93d54d-555f-4ee9-95ff-cd85e6338e41"><text transform="translate(.71 55.05)" font-family="Roboto-Regular, Roboto" font-size="6"><tspan x="0" y="0">stairs</tspan></text></g></svg>