<?xml version="1.0" encoding="UTF-8"?><svg xmlns="http://www.w3.org/2000/svg" viewBox="0 0 50 50"><g id="uuid-e9c1e85e-a22c-4d6b-b33e-309fb4bac834"><g><path d="M47.88,11.83h-11.63c-.28,0-.5,.22-.5,.5v6.14h-11.13c-.28,0-.5,.22-.5,.5v6.22H13c-.28,0-.5,.22-.5,.5v6.22H1.37c-.28,0-.5,.22-.5,.5v11.64c0,.28,.22,.5,.5,.5H47.88c.28,0,.5-.22,.5-.5V12.33c0-.28-.22-.5-.5-.5Zm-.5,31.71H1.87v-10.64H13c.28,0,.5-.22,.5-.5v-6.22h11.13c.28,0,.5-.22,.5-.5v-6.22h11.13c.28,0,.5-.22,.5-.5v-6.14h10.63v30.71Z" fill="#FFCD00"/><path d="M28.31,7.39c-.06-.11-.16-.18-.27-.22-.03-.01-.05-.03-.08-.04l-7.89-2.4s-.1-.02-.15-.02c-.21,0-.41,.14-.48,.35-.08,.26,.07,.54,.33,.62l6.79,2.07L7.34,18.01c-.24,.13-.34,.43-.21,.68,.13,.25,.44,.34,.68,.21L27.12,8.59l-2.09,6.86c-.08,.26,.07,.54,.33,.62,.27,.08,.54-.07,.62-.33l2.4-7.89c.05-.15,.01-.3-.07-.42,0-.01,0-.03-.01-.04Z" fill="#FFCD00"/></g></g><g id="uuid-0ebbd48a-11a6-458c-b023-cafe8cee2868"><text transform="translate(-.32 55.05)" font-family="Roboto-Regular, Roboto" font-size="6"><tspan x="0" y="0">stairs-up</tspan></text></g></svg>