<?xml version="1.0" encoding="UTF-8"?><svg id="uuid-65304400-e4bd-43e1-95fb-ff3799f32499" xmlns="http://www.w3.org/2000/svg" viewBox="0 0 50 50"><path d="M49.34,31.7v8.57c0,.13-.06.26-.15.36-.09.09-.22.14-.35.14h-8.84s0,.85,0,.85c0,.27-.23.5-.5.5H9.46s-.08-.02-.12-.03h0s-8.29-1.93-8.29-1.93c-.23-.05-.39-.25-.39-.48v-19.14c0-.12.05-.23.12-.32l2.72-3.28c.13-.16.35-.22.55-.15.03.01.04.04.07.05v-.02s2.01,1.12,2.01,1.12v-4.2c0-.11.03-.21.1-.3l2.82-3.83s.03-.02.05-.03c.02-.03.04-.06.06-.08.03-.02.07-.03.1-.04s.05-.02.08-.03c.08-.02.17-.03.26,0h.02l27.08,9.17c.2.07.34.26.34.47v1.91l3.23-1.07h0c.1-.02.21-.03.31,0l5.85,1.98c.2.07.34.26.34.47v8.7l2.1.14c.26.02.47.24.47.5ZM48.34,39.77v-3.13l-12.35-.26v.96h1.72c.28.01.5.24.5.51v1.26h1.29c.27,0,.5.23.5.5v.15h8.34ZM48.34,35.64v-3.47l-14.5-1v4.17l14.5.3ZM45.77,30.99v-3.95l-2.84-.73c-.22-.06-.38-.26-.38-.49v-4.19l-1.63-.55v4.07c0,.15-.07.3-.19.39-.12.1-.28.13-.43.09l-3.88-1c-.22-.06-.38-.26-.38-.48v-4.72L9.96,10.6v17.92l35.81,2.47ZM45.77,26.01v-3.29l-2.22-.75v3.47l2.22.57ZM39.92,24.5v-3.42l-2.88.96v1.72l2.88.74ZM39,41.12v-1.01H12.02v1.01h26.98ZM37.21,39.11v-.76l-25.19-.24v1h25.19ZM34.99,37.33v-.97l-22.97-.48v1.23l22.97.22ZM32.84,35.32v-3.62l-2.41.72v2.85l2.41.05ZM29.87,31.54l1.77-.52-22.12-1.52-2.4.82,22.75,1.22ZM29.43,35.25v-2.73l-24.33-1.3v2.31l4.22-1.17h.06s.05-.02.08-.02h2.06c.28,0,.5.23.5.5v2.04l17.41.37ZM11.02,41.12v-7.78h-1.06v7.78h1.06ZM8.96,40.98v-7.48l-7.3,2.01v3.77l7.3,1.7ZM8.96,28.63V11.43l-1.83,2.47v8.04c0,.2-.11.37-.29.46l-2.74,1.32c-.15.07-.34.06-.48-.03-.15-.09-.24-.25-.24-.42v-4.62l-1.72,2.07v10.43l7.3-2.52ZM6.13,21.63v-2.55l-1.75-.97v4.36l1.75-.84ZM4.1,33.8v-2.43l-2.44.84v2.27l2.44-.68Z" stroke-width="0" fill="#FFCD00"/></svg>