<?xml version="1.0" encoding="UTF-8"?><svg xmlns="http://www.w3.org/2000/svg" viewBox="0 0 50 50">
  <defs>
    <style>
      .cls-1 {
        fill: #1f1c1d;
      }

      .cls-2 {
        fill: #221f1f;
        font-family: Roboto-Regular, Roboto;
        font-size: 5px;
      }

      .cls-3 {
        letter-spacing: -.02em;
      }

      .cls-4 {
        letter-spacing: 0em;
      }
    </style>
  </defs>
  <g id="Icon_Outline">
    <g>
      <path class="cls-1" d="M29.07,17.14c.28,0,.5-.22.5-.5v-4.36c0-.28-.22-.5-.5-.5s-.5.22-.5.5v4.36c0,.28.22.5.5.5Z" fill="#FFCD00"/>
      <path class="cls-1" d="M29.07,23.51c.28,0,.5-.22.5-.5v-4.36c0-.28-.22-.5-.5-.5s-.5.22-.5.5v4.36c0,.28.22.5.5.5Z" fill="#FFCD00"/>
      <path class="cls-1" d="M25,17.14c.28,0,.5-.22.5-.5v-4.36c0-.28-.22-.5-.5-.5s-.5.22-.5.5v4.36c0,.28.22.5.5.5Z" fill="#FFCD00"/>
      <path class="cls-1" d="M25.5,18.66c0-.28-.22-.5-.5-.5s-.5.22-.5.5v4.36c0,.28.22.5.5.5s.5-.22.5-.5v-4.36Z" fill="#FFCD00"/>
      <path class="cls-1" d="M20.93,17.14c.28,0,.5-.22.5-.5v-4.36c0-.28-.22-.5-.5-.5s-.5.22-.5.5v4.36c0,.28.22.5.5.5Z" fill="#FFCD00"/>
      <path class="cls-1" d="M20.93,23.51c.28,0,.5-.22.5-.5v-4.36c0-.28-.22-.5-.5-.5s-.5.22-.5.5v4.36c0,.28.22.5.5.5Z" fill="#FFCD00"/>
      <path class="cls-1" d="M49.04,39.21c-.26,0-.49-.04-.72-.07l-1.69-9.83c-.04-.24-.25-.42-.49-.42h-.4v-12.31c0-.28-.22-.5-.5-.5h-13.64v-5.95c0-.28-.22-.5-.5-.5h-.87v-3c0-.28-.22-.5-.5-.5h-9.47c-.28,0-.5.22-.5.5v3h-.87c-.28,0-.5.22-.5.5v2.14s0,0,0,.01v3.8H4.76c-.28,0-.5.22-.5.5v12.31h-.4c-.24,0-.45.18-.49.42l-1.69,9.84c-.42.05-.71.06-.72.06-.28,0-.5.23-.5.5,0,.28.23.5.5.5.11.02,3.49-.04,4.85-2.11.68.88,2.09,2.11,4.69,2.11,2.74,0,4.22-1.37,4.89-2.24.68.88,2.16,2.24,4.81,2.24s4.07-1.35,4.74-2.23c.66.88,2.13,2.23,4.88,2.23s4.17-1.33,4.81-2.22c.65.88,2.08,2.22,4.81,2.22s4.21-1.34,4.88-2.23c.66.88,2.11,2.23,4.73,2.23.28,0,.5-.22.5-.5s-.22-.5-.5-.5ZM45.72,29.89l.15.88h-13.97l-.16-.88h13.98ZM33.76,28.89v-5.1h.87v5.1h-.87ZM37.76,28.89v-5.1h.87v5.1h-.87ZM41.77,28.89v-5.1h.87v5.1h-.87ZM31.6,25.16v-8.08h13.14v11.81h-1.11v-5.6c0-.28-.22-.5-.5-.5h-1.87c-.28,0-.5.22-.5.5v5.6h-1.13v-5.6c0-.28-.22-.5-.5-.5h-1.87c-.28,0-.5.22-.5.5v5.6h-1.13v-5.6c0-.28-.22-.5-.5-.5h-1.87c-.28,0-.5.22-.5.5v5.6h-1.15v-3.73ZM30.6,10.63v18.26h-1.04v-3.86c0-.28-.22-.5-.5-.5s-.5.22-.5.5v3.86h-1.04V10.63h3.07ZM20.76,7.12h8.47v2.5h-1.7v-.98c0-.28-.22-.5-.5-.5s-.5.22-.5.5v.98h-3.07v-.98c0-.28-.22-.5-.5-.5s-.5.22-.5.5v.98h-1.7v-2.5ZM25,24.53c-.28,0-.5.22-.5.5v3.86h-1.04V10.63h3.07v18.26h-1.04v-3.86c0-.28-.22-.5-.5-.5ZM19.39,10.63h3.07v18.26h-1.04v-3.86c0-.28-.22-.5-.5-.5s-.5.22-.5.5v3.86h-1.03V10.63ZM5.26,17.08h13.14v1.31s0,0,0,.01v4.77s0,0,0,.01v1.32s0,0,0,.01v4.37h-1.17v-5.6c0-.28-.22-.5-.5-.5h-1.87c-.28,0-.5.22-.5.5v5.6h-1.13v-5.6c0-.28-.22-.5-.5-.5h-1.87c-.28,0-.5.22-.5.5v5.6h-1.13v-5.6c0-.28-.22-.5-.5-.5h-1.87c-.28,0-.5.22-.5.5v5.6h-1.08v-11.81ZM16.22,23.79v5.1h-.87v-5.1h.87ZM12.21,23.79v5.1h-.87v-5.1h.87ZM8.21,23.79v5.1h-.87v-5.1h.87ZM4.28,29.89h13.98l-.16.88H4.13l.15-.88ZM15.83,36.82c-.08-.17-.26-.28-.45-.28h0c-.19,0-.37.12-.45.29-.04.1-1.14,2.38-4.42,2.38s-4.25-2.26-4.29-2.36c-.08-.2-.3-.34-.49-.31-.21.01-.4.16-.46.36-.34,1.18-1.51,1.76-2.54,2.04l1.23-7.17s.03.01.05.01h13.91l-1.13,6.21c-.64-.56-.93-1.12-.95-1.17ZM29.81,39.21c-3.32,0-4.37-2.27-4.42-2.37-.08-.18-.26-.3-.45-.3h0c-.2,0-.37.11-.46.29-.04.1-1.13,2.38-4.28,2.38-1.05,0-1.87-.26-2.51-.61l1.59-8.71h11.45l1.59,8.7s0,.02.01.03c-.63.33-1.44.58-2.52.58ZM44.76,36.83c-.08-.18-.26-.29-.46-.29h0c-.2,0-.38.12-.46.3-.04.1-1.09,2.37-4.42,2.37s-4.3-2.26-4.34-2.36c-.08-.2-.28-.32-.48-.31-.2,0-.4.11-.48.31,0,.01-.25.6-.92,1.19l-1.14-6.26h13.96l1.23,7.14c-1.79-.61-2.47-2-2.5-2.08Z" fill="#FFCD00"/>
      <path class="cls-1" d="M17.79,42.88c-1.38,0-1.9-1.19-1.92-1.24-.08-.19-.26-.31-.46-.31h0c-.2,0-.39.13-.46.32-.02.05-.51,1.23-1.95,1.23-.28,0-.5.22-.5.5s.22.5.5.5c1.23,0,1.99-.6,2.42-1.12.43.52,1.18,1.12,2.38,1.12.28,0,.5-.22.5-.5s-.22-.5-.5-.5Z" fill="#FFCD00"/>
      <path class="cls-1" d="M37,42.88c-1.38,0-1.9-1.19-1.92-1.24-.08-.19-.26-.31-.46-.31h0c-.2,0-.39.13-.46.32-.02.05-.51,1.23-1.95,1.23-.28,0-.5.22-.5.5s.22.5.5.5c1.23,0,1.99-.6,2.42-1.12.43.52,1.18,1.12,2.38,1.12.28,0,.5-.22.5-.5s-.22-.5-.5-.5Z" fill="#FFCD00"/>
      <path class="cls-1" d="M10.84,22.29h1.87c.28,0,.5-.22.5-.5v-1.87c0-.79-.64-1.44-1.44-1.44s-1.44.64-1.44,1.44v1.87c0,.28.22.5.5.5ZM11.34,19.92c0-.24.2-.44.44-.44s.44.2.44.44v1.37h-.87v-1.37Z" fill="#FFCD00"/>
      <path class="cls-1" d="M14.84,22.29h1.87c.28,0,.5-.22.5-.5v-1.87c0-.79-.64-1.44-1.44-1.44s-1.44.64-1.44,1.44v1.87c0,.28.22.5.5.5ZM15.34,19.92c0-.24.2-.44.44-.44s.44.2.44.44v1.37h-.87v-1.37Z" fill="#FFCD00"/>
      <path class="cls-1" d="M6.83,22.29h1.87c.28,0,.5-.22.5-.5v-1.87c0-.79-.64-1.44-1.44-1.44s-1.44.64-1.44,1.44v1.87c0,.28.22.5.5.5ZM7.33,19.92c0-.24.2-.44.44-.44s.44.2.44.44v1.37h-.87v-1.37Z" fill="#FFCD00"/>
      <path class="cls-1" d="M41.27,22.29h1.87c.28,0,.5-.22.5-.5v-1.87c0-.79-.64-1.44-1.44-1.44s-1.44.64-1.44,1.44v1.87c0,.28.22.5.5.5ZM41.77,19.92c0-.24.2-.44.44-.44s.44.2.44.44v1.37h-.87v-1.37Z" fill="#FFCD00"/>
      <path class="cls-1" d="M37.26,22.29h1.87c.28,0,.5-.22.5-.5v-1.87c0-.79-.64-1.44-1.44-1.44s-1.44.64-1.44,1.44v1.87c0,.28.22.5.5.5ZM37.76,19.92c0-.24.2-.44.44-.44s.44.2.44.44v1.37h-.87v-1.37Z" fill="#FFCD00"/>
      <path class="cls-1" d="M33.26,22.29h1.87c.28,0,.5-.22.5-.5v-1.87c0-.79-.64-1.44-1.44-1.44s-1.44.64-1.44,1.44v1.87c0,.28.22.5.5.5ZM33.76,19.92c0-.24.2-.44.44-.44s.44.2.44.44v1.37h-.87v-1.37Z" fill="#FFCD00"/>
    </g>
  </g>
  <g id="Names">
    <text class="cls-2" transform="translate(.01 53.87)"><tspan x="0" y="0">stanl</tspan><tspan class="cls-4" x="10.9" y="0">e</tspan><tspan x="13.52" y="0">y-h</tspan><tspan class="cls-4" x="20.02" y="0">y</tspan><tspan x="22.35" y="0">d</tspan><tspan class="cls-3" x="25.17" y="0">r</tspan><tspan x="26.77" y="0">aulic-lab</tspan></text>
  </g>
</svg>