<?xml version="1.0" encoding="UTF-8"?><svg xmlns="http://www.w3.org/2000/svg" viewBox="0 0 50 50"><g id="uuid-ca6afb8c-671c-46b0-9567-6dc327ac772f"><g><path d="M15.55,9.19c2.42,0,4.39-1.97,4.39-4.39S17.97,.4,15.55,.4s-4.39,1.97-4.39,4.39,1.97,4.39,4.39,4.39Zm0-7.79c1.87,0,3.39,1.52,3.39,3.39s-1.52,3.39-3.39,3.39-3.39-1.52-3.39-3.39,1.52-3.39,3.39-3.39Z" fill="#FFFFFF"/><path d="M33.7,9.19c2.42,0,4.39-1.97,4.39-4.39S36.12,.4,33.7,.4s-4.39,1.97-4.39,4.39,1.97,4.39,4.39,4.39Zm3.39-4.39c0,1.87-1.52,3.39-3.39,3.39s-3.39-1.52-3.39-3.39,1.52-3.39,3.39-3.39,3.39,1.52,3.39,3.39Z" fill="#FFFFFF"/><path d="M41.83,12.82c-.35-.53-.8-.99-1.31-1.37h0c-1.4-1.04-2.95-1.17-3.72-1.16l-5.77-.02c-1.04,.07-2.04,.33-2.98,.79-.78,.38-1.48,.88-2.08,1.48l-1.68,1.59c-.31-.91-.88-1.9-1.9-2.68-1.4-1.07-2.93-1.19-3.74-1.16l-6.51,.02c-.78,.04-2.27,.28-3.59,1.4-2.36,2-2.11,5.1-2.08,5.4v11.29c0,.3,.09,1.07,.7,1.67,.7,.69,1.78,.87,2.68,.45,.13-.06,.25-.13,.36-.21v15.62c0,1.61,1.31,2.93,2.93,2.93,1.01,0,1.9-.51,2.43-1.29,.53,.78,1.42,1.29,2.43,1.29,1.61,0,2.93-1.31,2.93-2.93v-15.6c.39,.27,.86,.44,1.37,.44,1.31,0,2.37-1.06,2.37-2.37v-8.34c.28-.13,.53-.32,.75-.57,.01-.01,.02-.03,.04-.05l2.91-3.1c0,.06,0,.1,0,.13,0,.02,0,.05,0,.07-.08,7.33-.12,10.32,0,11.54v.31c0,.07,.01,.13,.04,.18l-.04,17.35c0,1.61,1.31,2.93,2.93,2.93,1.01,0,1.9-.51,2.43-1.29,.53,.78,1.42,1.29,2.43,1.29,1.61,0,2.93-1.31,2.93-2.93v-15.6c.39,.27,.86,.44,1.37,.44,1.31,0,2.37-1.06,2.37-2.37v-11.6c.08-.84,.06-2.47-.96-3.97Zm-.04,3.92v11.64c0,.75-.61,1.37-1.37,1.37s-1.37-.61-1.37-1.37h0v-11.85c0-.28-.22-.5-.5-.5s-.5,.22-.5,.5v11.84h0v17.54c0,1.06-.86,1.93-1.93,1.93s-1.93-.86-1.93-1.93V29.91c0-.28-.22-.5-.5-.5s-.5,.22-.5,.5v16.02c0,1.06-.86,1.93-1.93,1.93s-1.93-.86-1.93-1.93V16.54h0c.01-.15,0-.34-.04-.65-.08-.79-.11-.95-.33-1.09-.2-.13-.47-.1-.63,.08l-3.7,3.94s-.03,.04-.04,.06c-.48,.51-1.28,.55-1.81,.09l-4.52-3.95c-.26-.23-.42-.55-.44-.89-.02-.35,.09-.68,.32-.95,.23-.26,.55-.42,.89-.44,.35-.02,.68,.09,.95,.32l3.24,2.83c.19,.17,.48,.16,.67-.01l2.76-2.6c.54-.53,1.15-.97,1.83-1.3,.82-.4,1.69-.63,2.57-.69l5.75,.02c.66,0,1.95,.09,3.12,.96,.42,.32,.79,.69,1.08,1.13,.84,1.25,.86,2.61,.79,3.36Zm-19.51,13.01c-.75,0-1.37-.61-1.37-1.37v-9.74l1.22,1.07c.44,.38,.98,.56,1.52,.56v8.12c0,.75-.61,1.37-1.37,1.37Zm-4.29,18.09c-1.06,0-1.93-.86-1.93-1.93h0V29.91c0-.28-.22-.5-.5-.5s-.5,.22-.5,.5v16.02h0c0,1.06-.86,1.93-1.93,1.93s-1.93-.86-1.93-1.93V28.39h0v-11.85c0-.28-.22-.5-.5-.5s-.5,.22-.5,.5v11.84c-.02,.53-.33,1.01-.79,1.23-.51,.24-1.15,.14-1.55-.26-.35-.34-.4-.8-.4-.97v-11.33c-.03-.29-.24-2.91,1.73-4.58,1.09-.93,2.35-1.13,2.97-1.17l6.49-.02h.02c.67-.02,1.95,.07,3.11,.96,.92,.7,1.39,1.63,1.63,2.46l-2.77-2.42c-.46-.4-1.06-.61-1.67-.56-.61,.04-1.18,.32-1.58,.78-.41,.46-.61,1.06-.56,1.67,.04,.61,.32,1.18,.78,1.58l2.3,2.01v28.15c0,1.06-.86,1.93-1.93,1.93Z" fill="#FFFFFF"/></g></g><g id="uuid-4ab381cc-6719-4053-91f3-84facb970a5b"><text transform="translate(0 54.98)" font-family="Roboto-Regular, Roboto" font-size="6"><tspan x="0" y="0">suppo</tspan><tspan x="16.56" y="0" letter-spacing=".02em">r</tspan><tspan x="18.73" y="0">t</tspan></text></g></svg>