<?xml version="1.0" encoding="UTF-8"?><!-- Generator: Adobe Illustrator 27.7.0, SVG Export Plug-In . SVG Version: 6.00 Build 0)  --><svg version="1.1" id="Layer_1" xmlns="http://www.w3.org/2000/svg" xmlns:xlink="http://www.w3.org/1999/xlink" x="0px" y="0px" viewBox="0 0 50 50" style="enable-background:new 0 0 50 50;" xml:space="preserve">
<style type="text/css">
	.st0{display:none;}
	.st1{display:inline;fill:none;stroke:#EA008A;stroke-width:0.2;stroke-miterlimit:10;}
	.st2{font-family:'Roboto-Regular';}
	.st3{font-size:6px;}
</style>
<g id="ICONS_00000031165542127692736420000002692518830807990202_">
	<path d="M43.1777,8.9937c-0.2109-1.2329-1.272-2.1279-2.5229-2.1279H9.1074c-1.2593,0-2.3218,0.9019-2.5259,2.145L1.0781,42.5532   c-0.0449,0.2725,0.1396,0.5298,0.4121,0.5742c0.2705,0.0454,0.5298-0.1401,0.5742-0.4121L7.5679,9.1729   c0.1245-0.7573,0.772-1.3071,1.5396-1.3071h2.5005v29.6865c0,0.2764,0.2236,0.5,0.5,0.5h9.248c0.2764,0,0.5-0.2236,0.5-0.5v-8.215   c0-0.0011,0-0.0021,0-0.0032V7.8657h6.0381V30.689c0,0.0576,0.0148,0.1107,0.0327,0.1621H26.394c-0.2764,0-0.5,0.2236-0.5,0.5   v3.1567c0,0.2764,0.2236,0.5,0.5,0.5h1.5v0.7524c0,0.2764,0.2236,0.5,0.5,0.5s0.5-0.2236,0.5-0.5v-0.7524h8.248v0.8628   c0,0.2764,0.2236,0.5,0.5,0.5s0.5-0.2236,0.5-0.5v-0.8628h1c0.2764,0,0.5-0.2236,0.5-0.5v-3.1567c0-0.2764-0.2236-0.5-0.5-0.5   h-1.0104c0.002-0.0178,0.0104-0.0334,0.0104-0.0518V7.8657h2.5127c0.7622,0,1.4087,0.5454,1.5376,1.2969l5.7437,33.5562   c0.0415,0.2437,0.2529,0.4155,0.4922,0.4155c0.0278,0,0.0562-0.0024,0.085-0.0073c0.272-0.0464,0.4551-0.3047,0.4082-0.5771   L43.1777,8.9937z M20.856,31.2124h-8.248v-1.6799c1.1025-1.1013,2.557-1.7112,4.124-1.7112c1.5663,0,3.0211,0.6097,4.124,1.7112   V31.2124z M12.6079,32.2124h3.624v4.8398h-3.624C12.6079,37.0522,12.6079,32.2124,12.6079,32.2124z M17.2319,37.0522v-4.8398h3.624   v4.8398H17.2319z M20.856,28.2137c-1.181-0.8903-2.6302-1.3925-4.124-1.3925s-2.9433,0.5023-4.124,1.3929V7.8657h8.248   C20.856,7.8657,20.856,28.2137,20.856,28.2137z M38.6421,34.0078H26.894v-2.1567h11.748v2.1567H38.6421z M37.1525,30.8511h-8.2911   c0.0178-0.0514,0.0327-0.1046,0.0327-0.1621V7.8657h8.248v22.9336C37.1421,30.8177,37.1506,30.8333,37.1525,30.8511z" fill="#FFFFFF"/>
</g>
<g id="Margin" class="st0">
	<rect x="1" y="1" class="st1" width="48" height="48" fill="#FFFFFF"/>
</g>
<g id="Guides" class="st0">
</g>
<g id="LABELS">
	<g>
		<g>
			<g>
				<text transform="matrix(1 0 0 1 -0.113 55.1226)" class="st2 st3">swing-set</text>
			</g>
		</g>
	</g>
</g>
</svg>