<?xml version="1.0" encoding="UTF-8"?><svg xmlns="http://www.w3.org/2000/svg" viewBox="0 0 50 50">
  <defs>
    <style>
      .cls-1 {
        font-family: ArialMT, Arial;
        font-size: 6px;
      }

      .cls-2 {
        letter-spacing: -.06em;
      }
    </style>
  </defs>
  <g id="Black">
    <path d="M46.27,18.91l-6.76-12.15c-.06-.1-.14-.18-.25-.22l-9.32-3.75s0,0,0,0h0s-.02,0-.03,0c-.05-.02-.1-.03-.16-.03,0,0-.01,0-.02,0-.02,0-.04,0-.06.01-.05,0-.1.02-.14.04,0,0-.01,0-.02,0-1.26.68-7.52.96-8.96.02,0,0-.02,0-.03-.01-.04-.03-.09-.04-.14-.05-.02,0-.04-.01-.07-.01,0,0-.02,0-.03,0-.06,0-.12.01-.17.03,0,0-.01,0-.02,0h0s0,0,0,0l-9.32,3.75c-.11.04-.19.12-.25.22l-6.76,12.15c-.07.12-.08.27-.04.41.07.19,1.64,4.46,7.74,4.85v22.58c0,.28.22.5.5.5h26.13c.28,0,.5-.22.5-.5v-22.58c6.09-.4,7.67-4.67,7.73-4.85.05-.13.04-.28-.04-.41ZM38.57,23.16v-6.84c0-.28-.22-.5-.5-.5s-.5.22-.5.5v7.38s0,0,0,0v22.56H12.43v-22.56s0,0,0,0v-7.38c0-.28-.22-.5-.5-.5s-.5.22-.5.5v6.84c-4.7-.34-6.34-3.18-6.71-3.98l6.56-11.78,8.54-3.43c.36,2.48,2.5,4.53,5.18,4.54,2.68,0,4.82-2.06,5.18-4.54l8.54,3.43,6.56,11.78c-.37.8-2.01,3.64-6.71,3.98ZM29.16,3.97c-.15.85-.56,1.64-1.16,2.25-.77.79-1.82,1.28-3,1.28-1.18,0-2.23-.5-3-1.28-.59-.6-.99-1.36-1.15-2.19,2.17.65,6.35.43,8.32-.06Z" fill="#FFCD00"/>
  </g>
  <g id="Labels">
    <text class="cls-1" transform="translate(0 54.48)"><tspan class="cls-2" x="0" y="0">T</tspan><tspan x="3.33" y="0">-shirt</tspan></text>
  </g>
</svg>