<?xml version="1.0" encoding="UTF-8"?><svg xmlns="http://www.w3.org/2000/svg" viewBox="0 0 50 50"><g id="uuid-b6f76c68-7faa-43c1-a61f-b56c4f877bfe"><path d="M49.15,17.5c-.06-.12-.17-.2-.3-.24l-3.39-.96c-.26-.08-.54,.08-.62,.35l-.4,1.43-14.68-4.15,.28-1.01c.04-.13,.02-.26-.04-.38-.06-.12-.17-.2-.3-.24l-12.07-3.41,.29-1.02c.08-.27-.08-.54-.35-.62L7.35,4.38h0l-1.77-.5c-.13-.04-.26-.02-.38,.04-.12,.06-.2,.17-.24,.3v.03c-2.02,.35-3.76,1.8-4.35,3.89-.59,2.09,.13,4.24,1.66,5.59v.03c-.05,.13-.03,.26,.03,.38,.06,.12,.17,.2,.3,.24l1.77,.5h0l10.23,2.89s.09,.02,.14,.02c.22,0,.42-.14,.48-.36l.29-1.02,7.07,2c-.64,.57-1.05,1.4-1.05,2.32,0,.85,.34,1.61,.89,2.18l-10.85,22.23h-1.44c-.28,0-.5,.22-.5,.5s.22,.5,.5,.5h1.75c.09,0,.16-.03,.24-.07,.02-.01,.03-.02,.05-.03,.06-.04,.11-.09,.14-.16,0,0,.02-.01,.02-.02l10.91-22.35c.29,.15,.6,.26,.93,.31v21.32h-1.22c-.28,0-.5,.22-.5,.5s.22,.5,.5,.5h3.51c.28,0,.5-.22,.5-.5s-.22-.5-.5-.5h-1.29V23.82c.33-.05,.64-.16,.93-.31l10.91,22.35s.02,.01,.02,.02c.04,.06,.08,.11,.14,.16,.02,.01,.03,.02,.05,.03,.07,.04,.15,.07,.24,.07h1.75c.28,0,.5-.22,.5-.5s-.22-.5-.5-.5h-1.44l-10.85-22.23c.55-.56,.89-1.33,.89-2.18,0-.32-.06-.61-.15-.9,.02,0,.03,0,.05,0,.22,0,.42-.14,.48-.36l.28-1.01,14.68,4.15-.4,1.43c-.04,.13-.02,.26,.04,.38,.06,.12,.17,.2,.3,.24l3.39,.96s.09,.02,.14,.02c.22,0,.42-.14,.48-.36l2.09-7.39c.04-.13,.02-.26-.04-.38ZM15.78,15.45l1.58-5.58,11.58,3.27-1.58,5.58-11.58-3.27Zm1.04-7.36l-2.43,8.58L3.36,13.56,5.79,4.98l11.04,3.12Zm-15.25,.33c.43-1.54,1.63-2.65,3.07-3.06l-2.06,7.27c-1-1.1-1.44-2.67-1.01-4.21Zm22.27,10.35l2.57,.72c.25,.35,.41,.78,.41,1.24,0,1.18-.96,2.14-2.14,2.14s-2.14-.96-2.14-2.14c0-.88,.54-1.64,1.3-1.97Zm5.65-3.87l14.68,4.15-.74,2.61-14.68-4.15,.74-2.61Zm16.79,9.62l-2.42-.68,1.82-6.43,2.42,.68-1.82,6.43Z" fill="#FFCD00"/></g><g id="uuid-6455d022-da96-4ae7-826a-54909529f832"><text transform="translate(.01 55.08)" font-family="Roboto-Regular, Roboto" font-size="6"><tspan x="0" y="0">telescope</tspan></text></g></svg>