<?xml version="1.0" encoding="UTF-8"?><svg id="uuid-7ab51a85-6321-458e-90c0-d94b22ffa9fb" xmlns="http://www.w3.org/2000/svg" viewBox="0 0 50 50"><path d="M29.31,34.37l-.07-29.29c0-2.47-1.72-4.32-3.99-4.32s-4.07,1.86-4.07,4.32v29.01c-2.62,1.41-4.24,4.11-4.24,7.11,0,4.45,3.62,8.07,8.07,8.07s8.06-3.62,8.06-8.07c0-2.76-1.43-5.35-3.76-6.82Zm-4.31,13.89c-3.9,0-7.07-3.17-7.07-7.07,0-2.72,1.52-5.16,3.97-6.35,.17-.08,.28-.26,.28-.45V5.07c0-1.9,1.31-3.32,3.07-3.32s2.99,1.4,2.99,3.33v2.03h-1.94c-.28,0-.5,.22-.5,.5s.22,.5,.5,.5h1.94v2.25h-1.85c-.28,0-.5,.22-.5,.5s.22,.5,.5,.5h1.86v2.19s-.09-.03-.14-.03h-1.88c-.28,0-.5,.22-.5,.5s.22,.5,.5,.5h1.88c.05,0,.1-.01,.14-.03l.05,20.16c0,.18,.09,.34,.25,.43,2.17,1.26,3.51,3.6,3.51,6.11,0,3.9-3.17,7.07-7.06,7.07Z" fill="#FFCD00"/><path d="M25.67,37.24V17.37c0-.28-.22-.5-.5-.5s-.5,.22-.5,.5v19.88c-2.01,.27-3.58,1.98-3.58,4.06,0,2.27,1.85,4.12,4.12,4.12s4.12-1.85,4.12-4.12c0-2.11-1.61-3.84-3.66-4.07Zm-.46,7.19c-1.72,0-3.12-1.4-3.12-3.12s1.4-3.12,3.12-3.12,3.12,1.4,3.12,3.12-1.4,3.12-3.12,3.12Z" fill="#FFCD00"/></svg>