<?xml version="1.0" encoding="UTF-8"?><svg xmlns="http://www.w3.org/2000/svg" viewBox="0 0 50 50">
  <defs>
    <style>
      .cls-1 {
        fill: #1f1c1d;
      }

      .cls-2 {
        fill: #221f1f;
        font-family: Roboto-Regular, Roboto;
        font-size: 5px;
      }

      .cls-3 {
        letter-spacing: 0em;
      }
    </style>
  </defs>
  <g id="Icon_Outline">
    <path class="cls-1" d="M48.85,10.32l-7.69-1.49-1.25-7.35c-.04-.24-.25-.42-.49-.42h0c-.24,0-.45.17-.49.41l-.75,4.21c-1.1-.81-2.29-1.45-3.54-1.83-2.91-.88-5.53-.41-7.22.15-.77.27-1.57.44-2.38.51-.92.07-1.86,0-2.71-.19-.05-.02-.09-.04-.1-.04-.04-.02-.08-.02-.12-.03-1.65-.59-4.12-1.09-6.86-.32-5.41,1.52-8.64,6.78-8.94,10.96-.27,3.8,1.6,8.3,2.58,9.93.19.32.71,1.17,1.05,2.41.35,1.24.35,2.23.35,2.69,0,3.07.32,7.74.68,10,.01.08,1.35,8.38,4.36,8.69.1.01.2.02.31.02,1.79,0,4.25-1.72,7.7-12.51l.09-.28c.46-1.38.83-2.21,1.99-2.21s1.52.97,2,2.44l.03.1c3.66,11.24,5.83,12.63,7.64,12.45,2.52-.24,3.92-5.61,4.25-7.65.3-1.91.27-4.06.23-6.33-.03-1.54-.05-3.14.04-4.63.03-.41.09-1.49.56-2.8.31-.87.67-1.48.81-1.71.14-.24,3.4-5.9,2.58-11.29-.08-.55-.23-1.1-.4-1.64l5.69-1.25c.23-.05.4-.26.39-.49,0-.24-.17-.44-.4-.49ZM42.59,14.35c.77,5.05-2.43,10.58-2.48,10.67-.13.22-.53.9-.87,1.85-.46,1.29-.57,2.38-.62,3.08-.09,1.54-.07,3.15-.04,4.71.04,2.22.07,4.32-.22,6.15-.5,3.12-2,6.68-3.35,6.81-1.17.13-3.09-.99-6.6-11.77l-.03-.1c-.43-1.32-1.02-3.13-2.95-3.13s-2.53,1.67-2.94,2.89l-.1.28c-2.58,8.05-4.92,12-6.96,11.82-1.49-.16-2.98-4.66-3.48-7.85-.35-2.22-.66-6.83-.67-9.88,0-.42,0-1.55-.39-2.92-.38-1.37-.95-2.3-1.19-2.7-1.1-1.85-2.63-6.08-2.41-9.3.27-3.84,3.24-8.67,8.21-10.07.9-.25,1.78-.36,2.6-.36,1.51,0,2.84.35,3.86.72.79.34,4.5,1.87,8.7,2.2.01,0,.03,0,.04,0,.26,0,.48-.2.5-.46.02-.28-.18-.52-.46-.54-1.92-.15-3.77-.58-5.24-1.01.76-.09,1.51-.25,2.23-.5,1.54-.51,3.94-.95,6.61-.14,1.29.39,2.52,1.09,3.63,1.97l-.36,2.02-7.56,1.61c-.23.05-.39.25-.4.48s.16.44.39.49l7.36,1.71,1.61,7.16c.05.23.25.39.49.39h.01c.24,0,.44-.18.48-.41l1.3-7.28.9-.2c.17.52.31,1.05.39,1.58ZM40.76,12.07c-.2.04-.35.2-.38.4l-.92,5.16-1.13-5.04c-.04-.19-.19-.33-.38-.38l-5.48-1.27,5.69-1.21c.2-.04.35-.2.39-.4l.86-4.83.83,4.86c.04.21.19.37.4.41l5.66,1.1-5.54,1.22Z" fill="#FFCD00"/>
  </g>
  <g id="Names">
    <text class="cls-2" transform="translate(.01 53.78)"><tspan class="cls-3" x="0" y="0">t</tspan><tspan x="1.58" y="0">ooth</tspan></text>
  </g>
</svg>