<?xml version="1.0" encoding="UTF-8"?><svg xmlns="http://www.w3.org/2000/svg" viewBox="0 0 50 50">
  <defs>
    <style>
      .cls-1 {
        fill: #1f1c1d;
      }

      .cls-2 {
        fill: #221f1f;
        font-family: Roboto-Regular, Roboto;
        font-size: 5px;
      }

      .cls-3 {
        letter-spacing: 0em;
      }
    </style>
  </defs>
  <g id="Icon_Outline">
    <g>
      <path class="cls-1" d="M41.47.13h-5.65c-.28,0-.5.22-.5.5v.98h-5.77c-.28,0-.5.22-.5.5v12.37c0,.28.22.5.5.5h5.77v.98c0,.28.22.5.5.5h1.47v31.06c0,1.29,1.05,2.34,2.34,2.34s2.34-1.05,2.34-2.34V.63c0-.28-.22-.5-.5-.5ZM35.32,13.99h-5.27v-2.09h3.54c.28,0,.5-.22.5-.5s-.22-.5-.5-.5h-3.54v-2.09h3.54c.28,0,.5-.22.5-.5s-.22-.5-.5-.5h-3.54v-2.09h3.54c.28,0,.5-.22.5-.5s-.22-.5-.5-.5h-3.54v-2.09h5.27v11.37ZM40.97,47.53c0,.74-.6,1.34-1.34,1.34s-1.34-.6-1.34-1.34v-31.06h2.68v31.06ZM40.97,15.47h-4.65v-.9s.02-.06.02-.09V2.11s-.01-.06-.02-.09v-.9h4.65v14.34Z" fill="#FFFFFF"/>
      <path class="cls-1" d="M27.59,43.04l-2.92-32.67c-.16-1.47-1.38-2.58-2.86-2.58h-.36V.63c0-.28-.22-.5-.5-.5h-6.28c-.28,0-.5.22-.5.5v7.17h-.33c-1.47,0-2.71,1.11-2.86,2.58l-2.95,32.66s0,.01,0,.02c0,0,0,.01,0,.02v6.28c0,.28.22.5.5.5h18.57c.28,0,.5-.22.5-.5v-6.28s0-.01,0-.02c0,0,0-.01,0-.02ZM15.17,1.13h5.28v6.67h-5.28V1.13ZM11.97,10.48c.1-.96.91-1.68,1.87-1.68h7.97c.96,0,1.77.72,1.87,1.67l2.87,32.11h-2.52s-.02,0-.03,0-.02,0-.03,0h-14.9l2.9-32.11ZM26.59,48.87H9.03v-5.28h2.09v3.54c0,.28.22.5.5.5s.5-.22.5-.5v-3.54h2.09v3.54c0,.28.22.5.5.5s.5-.22.5-.5v-3.54h2.09v3.54c0,.28.22.5.5.5s.5-.22.5-.5v-3.54h2.09v3.54c0,.28.22.5.5.5s.5-.22.5-.5v-3.54h2.1v3.54c0,.28.22.5.5.5s.5-.22.5-.5v-3.54h2.09v5.28Z" fill="#FFFFFF"/>
      <path class="cls-1" d="M20.33,20.2c-.66-.2-1.37-.19-2.06.04-.17.06-.33.09-.51.11-.2.02-.4,0-.53-.03-.06-.02-.13-.04-.2-.06h0c-.12-.04-.25-.07-.39-.09-.06-.01-.12-.03-.19-.05-.02,0-.04,0-.07,0-.35-.04-.75-.03-1.18.09-1.53.43-2.45,1.92-2.53,3.11-.07,1.01.39,2.21.71,2.73.04.07.15.25.23.52.07.27.07.48.07.58,0,.79.08,2,.18,2.59.09.56.45,2.41,1.43,2.51.92.1,1.61-.9,2.45-3.49.03-.09.09-.27.14-.31.05.04.12.25.17.39.81,2.49,1.4,3.41,2.21,3.41.04,0,.07,0,.11,0,1.04-.1,1.37-2.03,1.41-2.25.08-.52.07-1.1.06-1.67,0-.38-.01-.77,0-1.14,0-.09.02-.32.12-.61.07-.19.15-.32.18-.37.04-.07.93-1.61.7-3.1-.2-1.29-1.28-2.54-2.52-2.92ZM21.29,25.72c-.04.06-.15.26-.25.54-.15.42-.17.77-.18.88-.02.4-.02.81-.01,1.22,0,.55.02,1.06-.05,1.49-.11.7-.41,1.34-.52,1.41-.04-.02-.46-.22-1.29-2.75-.11-.34-.34-1.05-1.1-1.05s-.99.67-1.12,1.06c-.83,2.59-1.33,2.73-1.31,2.75-.17-.11-.48-.89-.61-1.69-.08-.53-.16-1.7-.17-2.44,0-.12,0-.44-.11-.84-.11-.39-.27-.66-.34-.77-.22-.37-.61-1.38-.56-2.14.06-.86.75-1.92,1.81-2.21.19-.05.38-.08.55-.08.15,0,.3.02.44.05.05.01.11.02.16.04.04,0,.07.02.1.03.34.12.56.29.81.47.35.27.75.57,1.45.67.02,0,.04,0,.07,0,.25,0,.46-.18.5-.43.04-.27-.16-.53-.43-.56-.23-.03-.4-.09-.55-.18,0,0,0,0,.01,0,.34-.11.87-.21,1.45-.03.88.27,1.68,1.2,1.82,2.11.17,1.15-.57,2.43-.58,2.45Z" fill="#FFFFFF"/>
    </g>
  </g>
  <g id="Names">
    <text class="cls-2" transform="translate(-.01 54.21)"><tspan class="cls-3" x="0" y="0">t</tspan><tspan x="1.58" y="0">oothpaste-</tspan><tspan class="cls-3" x="25.44" y="0">t</tspan><tspan x="27.02" y="0">oothbrush</tspan></text>
  </g>
</svg>