<?xml version="1.0" encoding="UTF-8"?><!-- Generator: Adobe Illustrator 27.7.0, SVG Export Plug-In . SVG Version: 6.00 Build 0)  --><svg version="1.1" id="Layer_1" xmlns="http://www.w3.org/2000/svg" xmlns:xlink="http://www.w3.org/1999/xlink" x="0px" y="0px" viewBox="0 0 50 50" style="enable-background:new 0 0 50 50;" xml:space="preserve">
<style type="text/css">
	.st0{display:none;}
	.st1{display:inline;fill:none;stroke:#EA008A;stroke-width:0.2;stroke-miterlimit:10;}
	.st2{font-family:'Roboto-Regular';}
	.st3{font-size:6px;}
</style>
<g id="Color">
</g>
<g id="ICONS_00000031165542127692736420000002692518830807990202_">
	<g>
		<path d="M42.4303,23.8294L41.1416,9.8457h1.0244c0.2764,0,0.5-0.2236,0.5-0.5V6.4263c0-0.2764-0.2236-0.5-0.5-0.5H23.9346    c-1.8853,0-3.4194,1.5342-3.4194,3.4194c0,0.2764,0.2236,0.5,0.5,0.5h2.0182l-1.6393,8.5674    c-1.2766,0.1396-2.5121,0.2957-3.7197,0.4642V9.3457c0-0.2764-0.2236-0.5-0.5-0.5H16.024    c-0.045-1.2001-0.3881-2.6939-2.2193-3.291c-0.2612-0.0859-0.5449,0.0581-0.6304,0.3208    c-0.0854,0.2622,0.0581,0.5444,0.3208,0.6304c1.0107,0.3294,1.4628,1.0229,1.5254,2.3398h-1.3218c-0.2764,0-0.5,0.2236-0.5,0.5    v10.2496c-2.462,0.4518-4.7881,0.9761-7.0063,1.581c-3.458,0.9429-5.5986,4.3047-4.9785,7.8198l0.9315,5.2798    c-0.7123,1.0499-1.1293,2.3157-1.1293,3.6772c0,3.6206,2.9458,6.5664,6.5664,6.5664s6.5659-2.9458,6.5659-6.5664    c0-0.9661-0.215-1.8812-0.5913-2.708H27.566c0.7335,5.2316,5.2261,9.2744,10.6566,9.2744c5.9404,0,10.7734-4.833,10.7734-10.7734    C48.9961,29.298,46.2858,25.4716,42.4303,23.8294z M23.9346,6.9263H41.666v1.9194H21.5669    C21.7983,7.751,22.772,6.9263,23.9346,6.9263z M37.6753,19.8564c-3.0107,0.1196-5.917,1.2227-8.2559,3.1392    c-1.1499-0.0493-2.2202-0.5791-2.958-1.4712c-0.7754-0.938-1.0889-2.1616-0.8604-3.3569l1.5927-8.3218h9.5592L37.6753,19.8564z     M14.1987,9.8457h2.4756v9.1765c-0.8411,0.125-1.6654,0.2581-2.4756,0.3982C14.1987,19.4204,14.1987,9.8457,14.1987,9.8457z     M7.5825,43.5195c-3.0693,0-5.5664-2.4971-5.5664-5.5664s2.4971-5.5664,5.5664-5.5664c3.0688,0,5.5659,2.4971,5.5659,5.5664    S10.6514,43.5195,7.5825,43.5195z M12.9962,34.2451c-1.1845-1.7242-3.1684-2.8584-5.4137-2.8584    c-1.7899,0-3.4132,0.7217-4.5989,1.8872l-0.7854-4.4517c-0.5293-3.0024,1.3008-5.875,4.2568-6.6812    c4.5796-1.2485,9.6211-2.1558,15.4136-2.7734c0.2188-0.0234,0.3965-0.187,0.438-0.4033l1.7451-9.1187h2.1237L24.6187,17.98    c-0.2847,1.4888,0.106,3.0132,1.0718,4.1816c0.9663,1.168,2.3896,1.8379,3.9053,1.8379c0.1177,0,0.2319-0.0415,0.3223-0.1177    c2.3232-1.958,5.2725-3.0361,8.3047-3.0361c0.1406,0,0.2749-0.0591,0.3696-0.1631s0.1411-0.2427,0.1284-0.3828L37.7575,9.8457    h2.3797l1.2535,13.6039c-1.0023-0.309-2.0658-0.4769-3.1681-0.4769c-5.9404,0-10.7734,4.833-10.7734,10.7734    c0,0.1685,0.0176,0.3325,0.0253,0.499C27.4745,34.2451,12.9962,34.2451,12.9962,34.2451z M38.2227,43.5195    c-5.3892,0-9.7734-4.3843-9.7734-9.7734s4.3843-9.7734,9.7734-9.7734s9.7734,4.3843,9.7734,9.7734    S43.6118,43.5195,38.2227,43.5195z" fill="#FFCD00"/>
		<path d="M38.2227,28.3325c-2.9849,0-5.4136,2.4287-5.4136,5.4136s2.4287,5.4136,5.4136,5.4136s5.4136-2.4287,5.4136-5.4136    S41.2075,28.3325,38.2227,28.3325z M38.2227,38.1597c-2.4336,0-4.4136-1.98-4.4136-4.4136s1.98-4.4136,4.4136-4.4136    s4.4136,1.98,4.4136,4.4136S40.6562,38.1597,38.2227,38.1597z" fill="#FFCD00"/>
		<path d="M7.5825,34.5518c-1.876,0-3.4019,1.5259-3.4019,3.4014s1.5259,3.4014,3.4019,3.4014c1.8755,0,3.4014-1.5259,3.4014-3.4014    S9.458,34.5518,7.5825,34.5518z M7.5825,40.3545c-1.3242,0-2.4019-1.0771-2.4019-2.4014s1.0776-2.4014,2.4019-2.4014    s2.4014,1.0771,2.4014,2.4014S8.9067,40.3545,7.5825,40.3545z" fill="#FFCD00"/>
		<path d="M20.8247,21.9663c-5.1855,0.5884-9.7529,1.4131-13.9634,2.5205c-0.2671,0.0703-0.4268,0.3438-0.3564,0.6104    c0.0591,0.2246,0.2612,0.373,0.4829,0.373c0.0425,0,0.085-0.0054,0.1274-0.0166c4.1636-1.0952,8.6851-1.9106,13.8218-2.4941    c0.2744-0.0308,0.4717-0.2788,0.4404-0.5527C21.3462,22.1323,21.1006,21.9268,20.8247,21.9663z" fill="#FFCD00"/>
	</g>
</g>
<g id="Margin" class="st0">
	<rect x="1" y="1" class="st1" width="48" height="48" fill="#FFCD00"/>
</g>
<g id="Guides" class="st0">
</g>
<g id="LABELS">
	<g>
		<g>
			<g>
				<g>
					<g>
						<g>
							<text transform="matrix(1 0 0 1 0 55.1228)" class="st2 st3">toy-tractor</text>
						</g>
					</g>
				</g>
			</g>
		</g>
	</g>
</g>
</svg>