<?xml version="1.0" encoding="UTF-8"?><svg id="uuid-a167d986-01f4-439c-9f88-6364f16be12d" xmlns="http://www.w3.org/2000/svg" viewBox="0 0 50 50"><path d="M37.1,45.95H8.99v2.58H42.05v-2.58h-4.95Zm-2.02-7.92H15.97l-1.41,6.92h21.93l-1.41-6.92Zm-1.39-6.77H17.35l-1.18,5.77h18.7l-1.18-5.77Zm-1.27-6.24h-13.79l-1.07,5.24h15.93l-1.07-5.24Zm-1.39-6.77h-11.02l-1.18,5.77h13.38l-1.18-5.77Zm-.2-1L27.69,1.84h-4.33l-3.15,15.41h10.62ZM28.58,1.24l8.93,43.71h5.04c.28,0,.5,.22,.5,.5v3.58c0,.27-.22,.5-.5,.5H8.49c-.27,0-.5-.23-.5-.5v-3.58c0-.28,.23-.5,.5-.5h5.05L22.46,1.24c.05-.23,.25-.4,.49-.4h5.14c.24,0,.45,.17,.49,.4Z" fill="#FFCD00"/></svg>