<?xml version="1.0" encoding="UTF-8"?><svg xmlns="http://www.w3.org/2000/svg" viewBox="0 0 50 50"><g id="uuid-5d7cacdb-9e5d-4df0-8a06-f2280386c382"><path d="M34.28,10.42c.05-.38,.07-.74,.07-1.1C34.35,4.37,30.32,.34,25.37,.34c-3.63,0-6.91,2.21-8.29,5.55-1.18-.29-2.39-.44-3.61-.44C6.95,5.44,1.65,9.55,1.65,14.6c0,3.85,3.08,7.26,7.7,8.58,0,.03,0,.05,0,.08,0,3.19,4.19,5.73,9.71,6.01l3.79,5.07v14.85c0,.28,.22,.5,.5,.5s.5-.22,.5-.5V28.93c2.88-.6,5.21-1.86,6.31-3.53,.32,.01,.64,.02,.96,.02,7.19,0,13.04-3.41,13.04-7.61,0-3.56-4.04-6.55-9.88-7.38Zm-4.36,13.95c-.18,0-.37,.09-.46,.25-.84,1.5-2.95,2.68-5.6,3.27v-2.84l2.5-2.5c.2-.2,.2-.51,0-.71s-.51-.2-.71,0l-1.79,1.79v-3.82c0-.28-.22-.5-.5-.5s-.5,.22-.5,.5v8.26c-.88,.14-1.81,.22-2.76,.22-5.28,0-9.74-2.31-9.74-5.04,0-.13,.02-.25,.04-.38,.04-.25-.12-.49-.37-.56-4.41-1.12-7.37-4.23-7.37-7.73,0-4.5,4.85-8.16,10.82-8.16,1.27,0,2.55,.18,3.78,.52,.26,.07,.52-.07,.61-.31,1.13-3.18,4.15-5.31,7.52-5.31,4.4,0,7.98,3.58,7.98,7.98,0,.46-.04,.94-.14,1.44-.02,.14,0,.28,.09,.39s.21,.18,.34,.2c5.51,.66,9.51,3.37,9.51,6.46,0,3.64-5.4,6.61-12.04,6.61-.41,0-.81-.01-1.2-.03Zm-7.06,8.3l-2.53-3.38c.87-.01,1.72-.08,2.53-.2v3.58Z" fill="#FFFFFF"/></g><g id="uuid-5dc4d35d-6389-4e13-9ebe-827fca3a347e"><text transform="translate(-.44 55)" font-family="Roboto-Regular, Roboto" font-size="6"><tspan x="0" y="0">t</tspan><tspan x="1.96" y="0" letter-spacing="0em">r</tspan><tspan x="3.93" y="0">ee-th</tspan><tspan x="17.21" y="0" letter-spacing="0em">r</tspan><tspan x="19.19" y="0">ee</tspan></text></g></svg>