<?xml version="1.0" encoding="UTF-8"?><svg xmlns="http://www.w3.org/2000/svg" viewBox="0 0 50 50"><g id="uuid-663fc021-954b-4fed-8c12-40267b08326a"><path d="M39.87,11.38c-5.36-5.7-12.13-6.49-14.73-6.57V1.44c0-.28-.22-.5-.5-.5s-.5,.22-.5,.5v3.38C12.84,5.09,3.72,14.35,3.72,25.72c0,.18,.1,.35,.26,.44,.16,.09,.35,.08,.51-.01,1.28-.8,3.38-1.77,6.08-1.87,3.3-.13,5.84,1.14,7.06,1.9,.08,.05,.17,.08,.27,.08s.19-.03,.27-.08c1.09-.69,3.33-1.82,6.25-1.89v20.2c.03,.99-.37,1.96-1.09,2.65-.68,.65-1.58,.99-2.46,.92-1.74-.13-3.11-1.73-3.04-3.57,0-.28-.21-.51-.48-.52-.28,0-.51,.21-.52,.48-.08,2.37,1.7,4.44,3.97,4.6,.1,0,.19,.01,.29,.01,1.06,0,2.12-.43,2.93-1.21,.93-.88,1.44-2.12,1.4-3.39V24.3c2.55,.15,4.53,1.07,5.77,1.84,.16,.1,.37,.1,.53,0,1.16-.72,3.59-1.95,6.76-1.87,2.82,.05,5,1.04,6.33,1.87,.16,.1,.35,.1,.51,.01,.16-.09,.26-.26,.26-.44,0-2.5-.58-8.91-5.69-14.33Zm-1.39,11.89c-3.08-.06-5.49,.95-7.04,1.86-1.44-.86-3.67-1.81-6.52-1.86h-.01c-3.2-.04-5.68,1.09-7.01,1.89-1.33-.79-3.76-1.9-6.87-1.9-.16,0-.33,0-.49,0-2.43,.09-4.4,.83-5.79,1.57C5.2,14.26,13.95,5.8,24.64,5.8c2.02,0,9.04,.45,14.5,6.27,4.34,4.62,5.24,9.98,5.39,12.77-1.45-.77-3.5-1.52-6.05-1.57Z" fill="#FFFFFF"/></g><g id="uuid-b4136839-ff1c-4308-b6c0-0f0690793c35"><text transform="translate(0 54.9)" font-family="Roboto-Regular, Roboto" font-size="6"><tspan x="0" y="0">umb</tspan><tspan x="11.93" y="0" letter-spacing="0em">r</tspan><tspan x="13.91" y="0">ella</tspan></text></g></svg>