<?xml version="1.0" encoding="UTF-8"?><svg id="uuid-5d0e4139-1db4-4b6c-8f13-e8a70eddda90" xmlns="http://www.w3.org/2000/svg" viewBox="0 0 50 50"><path d="M30.07,20.83h-2.75v-2.75c0-.24-.2-.44-.44-.44h-4.28c-.24,0-.44,.2-.44,.44v2.75h-2.75c-.24,0-.44,.2-.44,.44v4.28c0,.24,.2,.44,.44,.44h2.75v2.75c0,.24,.2,.44,.44,.44h4.28c.24,0,.44-.2,.44-.44v-2.75h2.75c.24,0,.44-.2,.44-.44v-4.28c0-.24-.2-.44-.44-.44Zm-.44,4.28h-2.75c-.24,0-.44,.2-.44,.44v2.75h-3.41v-2.75c0-.24-.2-.44-.44-.44h-2.75v-3.41h2.75c.24,0,.44-.2,.44-.44v-2.75h3.41v2.75c0,.24,.2,.44,.44,.44h2.75v3.41Z" fill="#FFCD00"/><path d="M33.83,.81H15.67c-2.28,0-4.13,1.85-4.13,4.13V45.06c0,2.28,1.85,4.13,4.13,4.13h18.15c2.28,0,4.13-1.85,4.13-4.13V4.94c0-2.28-1.85-4.13-4.13-4.13Zm3.13,44.25c0,1.72-1.4,3.13-3.13,3.13H15.67c-1.72,0-3.13-1.4-3.13-3.13V4.94c0-1.72,1.4-3.13,3.13-3.13h18.15c1.72,0,3.13,1.4,3.13,3.13V45.06Z" fill="#FFCD00"/><path d="M33.92,8.25H15.58c-.28,0-.5,.22-.5,.5v29.33c0,.28,.22,.5,.5,.5h18.35c.28,0,.5-.22,.5-.5V8.75c0-.28-.22-.5-.5-.5Zm-.5,29.33H16.08V9.25h17.35v28.33Z" fill="#FFCD00"/><path d="M24.75,40.77c-1.35,0-2.44,1.1-2.44,2.44s1.1,2.44,2.44,2.44,2.44-1.1,2.44-2.44-1.1-2.44-2.44-2.44Z" fill="#FFCD00"/><path d="M22.25,5.48h5.13c.28,0,.5-.22,.5-.5s-.22-.5-.5-.5h-5.13c-.28,0-.5,.22-.5,.5s.22,.5,.5,.5Z" fill="#FFCD00"/><path d="M20.13,5.59c.34,0,.61-.27,.61-.61s-.27-.61-.61-.61-.61,.27-.61,.61,.27,.61,.61,.61Z" fill="#FFCD00"/></svg>