<?xml version="1.0" encoding="UTF-8"?><svg id="uuid-c43f509d-1ccb-4743-af80-810be690e6e1" xmlns="http://www.w3.org/2000/svg" viewBox="0 0 50 50"><path d="m25,1.44C12.57,1.44,2.45,11.56,2.45,24s10.12,22.55,22.55,22.55,22.55-10.12,22.55-22.55S37.44,1.44,25,1.44Zm-.07,21.98c-.93-.43-4.34-2.15-7.16-5.56,15.94-8.96,25.13-3.74,26.97-2.47.91,2.08,1.5,4.32,1.71,6.67-10.4-6.08-19.9.19-21.52,1.37Zm-5.68,16.2c-1.86-.79-11.91-5.63-15.59-18.53.41-3.02,1.44-5.84,2.97-8.32.33,11.21,12.77,19.41,16.28,21.5-.8,1.83-1.97,3.68-3.66,5.36Zm6.27-15.4c.82-.6,4-2.73,8.37-3.5-.03,18.37-9.21,23.79-11.12,24.71-2.48-.26-4.83-.96-6.99-1.98,10.52-5.87,9.93-17.25,9.74-19.22Zm18.43-10.46c-3.58-1.84-12.71-4.68-26.81,3.3-1.18-1.61-2.21-3.55-2.81-5.85,1.62-1.22,10.83-7.49,23.83-4.23,2.37,1.84,4.36,4.14,5.79,6.79Zm-7.97-8.27c-11.4-1.95-19.59,3.04-21.89,4.66-.27-1.38-.39-2.89-.32-4.52,3.27-2.01,7.1-3.18,11.22-3.18s7.77,1.13,10.99,3.05Zm-23.23.78c-.18,12.05,9.96,17.23,11.77,18.06.1,1.02.32,4.83-1.23,8.99C7.58,24,7.51,13.33,7.67,11.26h0c1.42-1.93,3.14-3.62,5.11-4.98ZM3.45,24c0-.1.01-.2.02-.31,4.01,10.88,12.44,15.49,15,16.67-1.07.93-2.32,1.79-3.78,2.55-6.68-3.66-11.23-10.77-11.23-18.91Zm21.16,21.53c3.35-2.22,10.31-8.78,10.29-24.96,1.98-.24,4.17-.18,6.48.43.26,2.01,1.2,13.15-8.07,22.88-2.56,1.07-5.36,1.67-8.31,1.67-.13,0-.26-.02-.4-.02Zm11.09-2.85c7.32-8.98,7-18.57,6.72-21.37,1.34.44,2.71,1.08,4.1,1.95,0,.25.04.49.04.73,0,7.99-4.38,14.96-10.85,18.68Z" fill="#FFCD00"/></svg>