<?xml version="1.0" encoding="UTF-8"?><svg xmlns="http://www.w3.org/2000/svg" viewBox="0 0 50 50">
  <defs>
    <style>
      .cls-1 {
        fill: #1f1c1d;
      }

      .cls-2 {
        fill: #221f1f;
        font-family: Roboto-Regular, Roboto;
        font-size: 5px;
      }
    </style>
  </defs>
  <g id="Icon_Outline">
    <g>
      <path class="cls-1" d="M45.24,10.66c-1.62-2.06-2.77-4.08-3.49-6.18l-.34-.99c-.14-.4-.44-.72-.83-.88-.39-.16-.83-.15-1.21.03l-.94.45c-2,.96-4.25,1.57-6.85,1.87-4.51.51-8.39,2.48-11.25,5.69-.37-.35-.73-.72-1.07-1.09l-.69-.78c-.56-.63-1.64-.63-2.2,0l-.7.78c-1.48,1.66-3.31,3.08-5.6,4.36C4.11,17.22.84,22.85.84,29.75c0,10.12,7.14,17.75,16.62,17.75,5.53,0,10.62-2.78,13.66-7.44.06,0,.12,0,.18,0,.15,0,.29,0,.44,0,6.83,0,13.04-4.38,15.91-11.25,2.66-6.37,1.8-12.82-2.41-18.16ZM31.69,5.95c2.68-.3,5.09-.96,7.17-1.96l.75-.36-7.42,17.8c-.75-1.49-1.71-2.86-2.87-4.09.41-.53.84-1,1.3-1.4.21-.18.23-.5.05-.71-.18-.21-.5-.23-.71-.05-.48.42-.94.91-1.36,1.45-.95-.89-2.01-1.68-3.17-2.38.17-.19.33-.38.5-.56.7-.72,1.47-1.35,2.29-1.86.81-.51,1.7-.92,2.62-1.22.6-.2,1.24-.35,1.88-.46.27-.05.46-.3.41-.58-.05-.27-.31-.46-.58-.41-.69.12-1.37.28-2.02.5-1,.33-1.96.77-2.84,1.33-.89.56-1.73,1.24-2.48,2.02-.21.22-.42.45-.62.69-.01.01-.01.03-.02.04-1.31-.75-2.46-1.56-3.49-2.43,2.69-3.02,6.35-4.87,10.61-5.35ZM30.44,39.28c-2.84,4.52-7.7,7.22-12.98,7.22-8.9,0-15.62-7.2-15.62-16.75,0-6.52,3.09-11.84,8.7-14.96,2.36-1.31,4.33-2.85,5.86-4.57l.7-.78c.09-.1.22-.16.36-.16s.26.06.36.16l.69.78c1.54,1.72,3.51,3.26,5.87,4.57,3.35,1.87,5.88,4.6,7.31,7.9.93,2.14,1.39,4.51,1.39,7.06,0,3.49-.91,6.79-2.63,9.53ZM46.73,28.44c-2.71,6.51-8.61,10.64-15.01,10.62.61-1.09,1.1-2.25,1.48-3.46.02,0,.04,0,.07,0,1.24-.3,2.44-.83,3.58-1.57.23-.15.3-.46.15-.69-.15-.23-.46-.3-.69-.15-.89.58-1.83,1.01-2.79,1.29.37-1.52.57-3.1.57-4.73,0-2.53-.46-4.9-1.33-7.06l7.79-18.66.27.78c.75,2.18,1.98,4.36,3.65,6.47,3.98,5.04,4.78,11.13,2.27,17.16Z" fill="#FFFFFF"/>
      <path class="cls-1" d="M43.5,16.91c-.41-1.4-1.06-2.74-1.93-3.98-.35-.49-.68-.99-.98-1.5-.14-.24-.45-.31-.69-.17-.24.14-.31.45-.17.69.32.52.66,1.04,1.02,1.55.81,1.15,1.41,2.39,1.79,3.69.27.94.43,1.92.46,2.92,0,.14,0,.28,0,.43v.35c-.01.28.21.5.48.51h.01c.27,0,.49-.22.5-.49v-.37c0-.16,0-.31,0-.46-.04-1.08-.21-2.14-.5-3.16Z" fill="#FFFFFF"/>
      <path class="cls-1" d="M43.31,22.89c-.27-.06-.54.12-.59.39-.12.59-.28,1.19-.48,1.78-.14.42-.3.86-.49,1.3-.49,1.17-1.08,2.25-1.78,3.24-.54.76-1.13,1.46-1.82,2.12-.18.2-.15.5.04.68.09.09.22.13.34.13.13,0,.26-.05.36-.15.69-.66,1.32-1.41,1.89-2.21.74-1.04,1.37-2.2,1.89-3.43.19-.47.36-.92.51-1.37.21-.63.38-1.27.51-1.89.06-.27-.12-.54-.39-.59Z" fill="#FFFFFF"/>
      <path class="cls-1" d="M36.76,26.2c-.23-.14-.54-.07-.69.17-.09.14-.18.29-.26.42-.37.57-.78,1.1-1.21,1.57-.19.2-.17.52.03.71.1.09.22.13.34.13.13,0,.27-.05.37-.16.47-.51.91-1.08,1.31-1.7.09-.15.19-.3.28-.45.14-.24.07-.54-.17-.69Z" fill="#FFFFFF"/>
      <path class="cls-1" d="M38.99,21.38c.09-.59.14-1.16.14-1.71,0-.22,0-.43-.02-.64-.06-.91-.25-1.78-.57-2.6-.1-.26-.39-.38-.65-.29-.26.1-.39.39-.29.65.28.73.45,1.5.5,2.31.01.19.02.38.02.58,0,.5-.04,1.02-.13,1.56-.15.94-.44,1.95-.85,2.99-.1.26.02.55.28.65.06.02.12.04.19.04.2,0,.39-.12.46-.31.45-1.11.75-2.18.92-3.2Z" fill="#FFFFFF"/>
      <path class="cls-1" d="M12.74,33.78h-.02c-.27,0-.49.21-.5.48,0,.28.21.51.48.52.37.01.48.15.52.2.18.23.15.67.12.8-.06.27.12.53.38.59.04,0,.07.01.11.01.23,0,.44-.16.49-.4.02-.1.19-.98-.31-1.62-.2-.25-.58-.56-1.27-.58Z" fill="#FFFFFF"/>
      <path class="cls-1" d="M27.6,26.34c0-1.48-.82-2.85-2.12-3.59.03-.2.04-.4.04-.59,0-2.29-1.92-4.16-4.28-4.16-1.65,0-3.07.92-3.78,2.25-.72-1.33-2.13-2.25-3.78-2.25-2.36,0-4.28,1.87-4.28,4.16,0,.44.07.86.2,1.27-1.65.6-2.77,2.13-2.77,3.89,0,1.14.46,2.19,1.29,2.97-.52.7-.8,1.54-.8,2.42,0,1.48.82,2.85,2.12,3.59-.03.2-.04.39-.04.59,0,2.29,1.92,4.16,4.28,4.16,1.65,0,3.07-.92,3.78-2.25.72,1.33,2.13,2.25,3.78,2.25,2.36,0,4.28-1.86,4.28-4.16,0-.44-.07-.86-.2-1.27,1.65-.6,2.76-2.13,2.76-3.89,0-1.14-.46-2.19-1.29-2.97.52-.7.8-1.54.8-2.42ZM16.96,36.89c0,1.74-1.47,3.16-3.28,3.16s-3.28-1.42-3.28-3.16c0-.25.03-.51.09-.75.06-.23-.06-.48-.28-.58-1.15-.52-1.89-1.64-1.89-2.86,0-.79.31-1.55.87-2.14.1-.1.15-.25.14-.39-.01-.14-.09-.27-.2-.36-.82-.6-1.29-1.52-1.29-2.51,0-1.33.84-2.47,2.09-2.94,0,0,0,0,0,0,0,0,.02,0,.02,0,.02,0,.04-.01.06-.02.31-.09,1.4-.37,2.22.09.49.28.82.79.97,1.53.05.24.26.4.49.4.03,0,.07,0,.1-.01.27-.06.44-.32.39-.59-.21-1.04-.71-1.78-1.47-2.2-.71-.4-1.5-.42-2.11-.35-.13-.34-.21-.69-.21-1.06,0-1.74,1.47-3.16,3.28-3.16s3.28,1.42,3.28,3.16c0,0,0,0,0,0v14.73s0,0,0,0,0,0,0,0ZM27.09,31.73c0,1.33-.84,2.47-2.09,2.94,0,0,0,0,0,0,0,0-.02,0-.03,0-.02,0-.04.01-.05.02-.3.09-1.4.37-2.23-.09-.49-.28-.82-.79-.97-1.53-.06-.27-.32-.45-.59-.39-.27.06-.44.32-.39.59.21,1.04.71,1.78,1.47,2.2.52.29,1.09.38,1.6.38.18,0,.35-.01.51-.03.13.34.21.69.21,1.06,0,1.74-1.47,3.16-3.28,3.16s-3.28-1.42-3.28-3.16c0,0,0,0,0,0s0,0,0,0v-14.73s0,0,0,0c0-1.74,1.47-3.15,3.28-3.15s3.28,1.42,3.28,3.16c0,.25-.03.5-.09.75-.06.23.06.48.28.58,1.15.52,1.89,1.64,1.89,2.86,0,.79-.31,1.55-.87,2.14-.1.1-.15.25-.14.39.01.14.09.27.2.36.82.6,1.29,1.52,1.29,2.51Z" fill="#FFFFFF"/>
      <path class="cls-1" d="M22.21,24.26c-.37-.01-.48-.15-.52-.2-.18-.23-.15-.67-.12-.8.06-.27-.12-.53-.38-.59-.27-.05-.54.11-.59.38-.02.1-.19.98.31,1.62.2.25.58.56,1.27.58h.02c.27,0,.49-.21.5-.48,0-.28-.21-.51-.48-.52Z" fill="#FFFFFF"/>
    </g>
  </g>
  <g id="Names">
    <text class="cls-2" transform="translate(0 53.66)"><tspan x="0" y="0">walnut</tspan></text>
  </g>
</svg>