<?xml version="1.0" encoding="UTF-8"?>
<svg xmlns="http://www.w3.org/2000/svg" viewBox="0 0 50 50">
  <defs>
    <style>
      .cls-1 {
        fill: #1f1c1d;
      }

      .cls-2 {
        fill: #ffcd00;
      }

      .cls-3 {
        fill: #221f1f;
        font-family: Roboto-Regular, Roboto;
        font-size: 5px;
      }

      .cls-4 {
        letter-spacing: 0em;
      }
    </style>
  </defs>
  <g id="Gold_Offset">
    <g>
      <path class="cls-2" d="M36.51,5.57c.12-.12.25-.2.47-.18.16.03.33.06.45.18l7.76,7.76-1.22,1.22-5.27-5.27c-.14-.14-.36-.18-.54-.11-.19.08-.31.26-.31.46v11.84h-1.73v-11.84c0-.2-.12-.38-.31-.46-.18-.08-.4-.04-.54.11l-5.27,5.27-1.22-1.22,7.76-7.76Z"/>
      <path class="cls-2" d="M6.91,12.31l5.27,5.27c.14.14.36.19.54.11.19-.08.31-.26.31-.46V5.39h1.73v11.84c0,.2.12.38.31.46.18.08.4.04.54-.11l5.27-5.27,1.22,1.22-7.76,7.76c-.12.12-.26.18-.46.18-.19.01-.33-.06-.45-.18l-7.76-7.76,1.22-1.22Z"/>
    </g>
  </g>
  <g id="Icon_Outline">
    <g>
      <path class="cls-1" d="M47.45,28.04c-3.61,0-5.06-3.21-5.12-3.35-.08-.19-.28-.33-.48-.3-.21,0-.39.14-.45.33-.05.13-1.21,3.32-5.11,3.32s-5.15-3.19-5.2-3.33c-.07-.2-.26-.33-.47-.33h0c-.21,0-.39.13-.47.32-.01.03-1.32,3.33-5.04,3.33s-5.08-3.21-5.14-3.34c-.08-.19-.26-.31-.46-.31h0c-.2,0-.39.13-.46.32-.05.14-1.34,3.33-5.21,3.33s-5.01-3.18-5.05-3.32c-.07-.21-.27-.34-.5-.33-.22.01-.41.17-.46.38-.78,3.18-5.05,3.27-5.09,3.27-.28,0-.5.23-.5.5,0,.27.23.5.5.5h0c.19,0,4.14-.07,5.64-2.93.76,1.18,2.4,2.93,5.45,2.93,3.2,0,4.93-1.93,5.67-3.1.75,1.17,2.46,3.1,5.6,3.1s4.76-1.92,5.51-3.09c.74,1.17,2.45,3.09,5.67,3.09s4.89-1.92,5.6-3.09c.77,1.16,2.5,3.09,5.55,3.09.28,0,.5-.22.5-.5s-.22-.5-.5-.5Z"/>
      <path class="cls-1" d="M47.25,36.82c-3.61,0-5.06-3.21-5.12-3.35-.08-.19-.26-.29-.48-.3-.21,0-.39.14-.45.34-.01.03-1.19,3.31-5.11,3.31s-5.15-3.19-5.2-3.33c-.07-.19-.26-.32-.47-.32h0c-.21,0-.39.13-.47.32-.05.14-1.34,3.33-5.04,3.33s-5.08-3.2-5.14-3.34c-.08-.19-.26-.31-.46-.31h0c-.2,0-.39.13-.46.32-.05.14-1.34,3.33-5.21,3.33s-5.01-3.18-5.06-3.31c-.07-.21-.26-.33-.5-.33-.22.01-.41.17-.46.38-.78,3.18-5.05,3.27-5.09,3.27-.28,0-.5.23-.5.5,0,.27.23.5.5.5h0c.19,0,4.14-.07,5.64-2.93.76,1.18,2.4,2.93,5.46,2.93,3.2,0,4.93-1.93,5.67-3.1.75,1.17,2.46,3.1,5.6,3.1s4.76-1.92,5.51-3.09c.74,1.17,2.45,3.09,5.67,3.09s4.89-1.92,5.6-3.09c.77,1.17,2.5,3.09,5.55,3.09.28,0,.5-.22.5-.5s-.22-.5-.5-.5Z"/>
      <path class="cls-1" d="M47.25,45.61c-3.61,0-5.06-3.21-5.12-3.35-.08-.19-.25-.31-.48-.3-.21,0-.39.14-.45.33-.05.13-1.21,3.32-5.11,3.32s-5.15-3.19-5.2-3.33c-.07-.2-.26-.33-.47-.33h0c-.21,0-.39.13-.47.32-.01.03-1.32,3.33-5.04,3.33s-5.08-3.21-5.14-3.34c-.08-.19-.26-.31-.46-.31h0c-.2,0-.39.13-.46.32-.05.14-1.34,3.33-5.21,3.33s-5.01-3.18-5.06-3.32c-.07-.21-.26-.33-.5-.33-.22.01-.41.17-.46.38-.78,3.18-5.05,3.27-5.09,3.27-.28,0-.5.23-.5.5,0,.27.23.5.5.5h0c.19,0,4.14-.07,5.64-2.93.76,1.18,2.4,2.93,5.46,2.93,3.2,0,4.93-1.93,5.67-3.1.75,1.17,2.46,3.1,5.6,3.1s4.76-1.92,5.51-3.09c.74,1.17,2.45,3.09,5.67,3.09s4.89-1.92,5.6-3.09c.77,1.16,2.5,3.09,5.55,3.09.28,0,.5-.22.5-.5s-.22-.5-.5-.5Z"/>
      <path class="cls-1" d="M28.92,14.36c.34.34.9.34,1.24,0l4.51-4.51v11.13c0,.28.22.5.5.5h2.73c.28,0,.5-.22.5-.5v-11.13l4.51,4.51c.33.33.91.33,1.24,0l1.4-1.4c.17-.17.26-.38.26-.62s-.09-.45-.26-.62l-7.85-7.85c-.31-.31-.71-.47-1.13-.47h-.05c-.43,0-.84.17-1.14.47l-7.85,7.85c-.17.17-.26.38-.26.62s.09.45.26.62l1.4,1.4ZM36.07,4.57c.12-.12.25-.2.47-.18.16.03.33.06.45.18l7.76,7.76-1.22,1.22-5.27-5.27c-.14-.14-.36-.18-.54-.11-.19.08-.31.26-.31.46v11.84h-1.73v-11.84c0-.2-.12-.38-.31-.46-.18-.08-.4-.04-.54.11l-5.27,5.27-1.22-1.22,7.76-7.76Z"/>
      <path class="cls-1" d="M12.31,21c.31.31.71.47,1.13.47.01,0,.03,0,.04,0,.44,0,.84-.17,1.15-.47l7.85-7.85c.17-.17.26-.38.26-.62s-.09-.45-.26-.62l-1.4-1.4c-.34-.34-.9-.34-1.24,0l-4.51,4.51V3.89c0-.28-.22-.5-.5-.5h-2.73c-.28,0-.5.22-.5.5v11.13l-4.51-4.51c-.34-.34-.89-.34-1.24,0l-1.4,1.4c-.17.17-.26.38-.26.62s.09.45.26.62l7.85,7.85ZM6.48,11.31l5.27,5.27c.14.14.36.19.54.11.19-.08.31-.26.31-.46V4.39h1.73v11.84c0,.2.12.38.31.46.18.08.4.04.54-.11l5.27-5.27,1.22,1.22-7.76,7.76c-.12.12-.26.18-.46.18-.19.01-.33-.06-.45-.18l-7.76-7.76,1.22-1.22Z"/>
    </g>
  </g>
  <g id="Names">
    <text class="cls-3" transform="translate(.42 53.87)"><tspan x="0" y="0">water-l</tspan><tspan class="cls-4" x="15.04" y="0">ev</tspan><tspan x="20.05" y="0">els</tspan></text>
  </g>
</svg>