<?xml version="1.0" encoding="UTF-8"?><svg id="uuid-bfcc4b4a-bf0e-496b-b38a-d1580591b4f5" xmlns="http://www.w3.org/2000/svg" viewBox="0 0 50 50"><path d="M46.86,21.74h-.28v-4.83c0-.28-.22-.5-.5-.5h-4.1v-2.73c0-.28-.22-.5-.5-.5h-6.71c-.28,0-.5,.22-.5,.5v8.06H15.73V13.68c0-.28-.24-.51-.51-.51h-6.68c-.28,0-.51,.24-.51,.51v2.72H3.93c-.28,0-.5,.22-.5,.5v4.83h-.34c-1.63,0-2.96,1.33-2.96,2.96v.11c0,1.63,1.33,2.96,2.96,2.96h.34v4.83c0,.28,.22,.5,.5,.5h4.1v2.72c0,.28,.24,.51,.51,.51h6.68c.28,0,.51-.24,.51-.51v-8.05h18.54v8.06c0,.28,.22,.5,.5,.5h6.71c.28,0,.5-.22,.5-.5v-2.73h4.1c.28,0,.5-.22,.5-.5v-4.83h.28c1.66,0,3.01-1.35,3.01-3.01s-1.35-3.01-3.01-3.01ZM3.09,26.76c-1.08,0-1.96-.88-1.96-1.96v-.11c0-1.08,.88-1.96,1.96-1.96h.34v4.03h-.34Zm1.34,5.33v-14.69h3.6v14.69h-3.6Zm10.3,3.23h-5.71V14.17h5.71v21.15Zm1-8.56v-4.03h18.54v4.03H15.73Zm25.25,8.56h-5.71V14.17h5.71v21.15Zm4.6-3.23h-3.6v-14.69h3.6v14.69Zm1.28-5.33h-.28v-4.03h.28c1.11,0,2.01,.9,2.01,2.01s-.9,2.01-2.01,2.01Z" fill="#FFFFFF"/></svg>