<?xml version="1.0" encoding="UTF-8"?><svg xmlns="http://www.w3.org/2000/svg" viewBox="0 0 50 50"><g id="uuid-ca2dce4a-d86f-423b-961e-226bd526f82b"><g><polygon points="43.47 34.14 43.47 34.09 43.47 34.09 43.47 34.14 43.47 34.14 43.47 34.14" fill="#FFCD00"/><polygon points="43.47 34.14 43.47 34.14 43.45 34.64 43.47 34.14 43.47 34.14" fill="#FFCD00"/><path d="M43.96,33.68c-.18-8.92-6.2-16.87-13.97-19.48,.15-.08,.29-.17,.38-.34,.27-.46,.01-.97-.21-1.42-.08-.17-.23-.46-.23-.52,.05-.08,.3-.25,.45-.35,.43-.28,.91-.61,.91-1.15s-.48-.87-.91-1.15c-.15-.1-.41-.27-.44-.31,0-.1,.14-.38,.22-.56,.22-.45,.47-.96,.21-1.42-.27-.46-.84-.5-1.35-.53-.19-.01-.5-.03-.55-.05-.05-.08-.07-.4-.08-.58-.03-.51-.07-1.08-.53-1.35-.46-.27-.97-.01-1.42,.21-.17,.08-.46,.23-.52,.23-.08-.05-.25-.3-.35-.45-.28-.43-.61-.91-1.15-.91s-.87,.48-1.15,.91c-.1,.15-.27,.41-.31,.44-.1,.05-.39-.14-.56-.22-.45-.22-.96-.48-1.42-.21-.46,.27-.5,.84-.53,1.35-.01,.19-.03,.5-.05,.55-.08,.05-.4,.07-.58,.08-.51,.03-1.08,.07-1.35,.53-.27,.46-.01,.97,.21,1.42,.08,.17,.23,.46,.23,.52-.05,.08-.3,.25-.45,.35-.43,.28-.91,.61-.91,1.15s.48,.87,.91,1.15c.15,.1,.41,.27,.44,.31,0,.1-.14,.38-.22,.56-.22,.45-.47,.96-.21,1.42,.09,.16,.23,.25,.37,.33-5.08,1.6-9.41,5.25-11.75,10.19-1.18,2.48-1.81,6.47-1.86,9.33-2.8,.42-4.94,2.86-4.94,5.75v1.92c0,2.48,2.02,4.5,4.5,4.5H44.54c2.48,0,4.5-2.02,4.5-4.5v-1.92c0-2.96-2.19-5.41-5.08-5.77Zm4.08,7.69c0,1.93-1.57,3.5-3.5,3.5H4.79c-1.93,0-3.5-1.57-3.5-3.5v-1.92c0-2.52,1.96-4.62,4.47-4.8l.3-.02s.03,0,.05,0H43.22c.08,0,.15,0,.23,0l.02-.5v-.06h0v.06l-.03,.5c2.58,.12,4.6,2.24,4.6,4.82v1.92ZM24.59,14.3c6.79,0,12.99,4.45,16.16,10.68l-2.78,2.22-4.43-4.52-4.39,4.64-4.55-4.65-4.79,4.58-4.31-4.56-4.65,4.57-2.76-2.67c3.07-6.26,9.52-10.29,16.5-10.29Zm-13.73,14.36l4.62-4.54,4.3,4.55,4.8-4.59,4.59,4.69,4.39-4.64,4.34,4.42,3.29-2.63c1.07,2.39,1.7,5,1.76,7.72H6.23c.05-2.42,.55-5.74,1.44-8.07l3.19,3.09Zm9-15.26c-.15,0-.38-.02-.51-.06,.04-.13,.14-.33,.2-.46,.2-.4,.41-.82,.29-1.24-.11-.41-.49-.66-.86-.9-.13-.09-.34-.23-.43-.32,.09-.09,.3-.23,.43-.32,.37-.25,.75-.5,.86-.9,.11-.42-.09-.83-.29-1.24-.06-.13-.17-.34-.2-.46,.13-.03,.36-.05,.51-.06,.45-.03,.91-.06,1.21-.36,.3-.3,.33-.76,.36-1.21,0-.15,.02-.38,.06-.51,.13,.04,.33,.14,.46,.2,.4,.2,.82,.41,1.24,.29,.41-.11,.66-.49,.9-.86,.09-.13,.23-.34,.32-.43,.09,.09,.23,.3,.32,.43,.25,.37,.5,.75,.9,.86,.42,.11,.83-.09,1.24-.29,.13-.07,.34-.17,.46-.2,.03,.13,.05,.36,.06,.51,.03,.45,.06,.91,.36,1.21,.3,.3,.76,.33,1.21,.36,.15,0,.38,.02,.51,.06-.04,.13-.14,.33-.2,.46-.2,.4-.4,.82-.29,1.24,.11,.41,.49,.66,.86,.9,.13,.09,.34,.23,.43,.32-.09,.09-.3,.23-.43,.32-.37,.25-.75,.5-.86,.9-.11,.42,.09,.83,.29,1.24,.07,.13,.17,.33,.2,.46-.13,.03-.36,.05-.51,.06-.38,.02-.76,.06-1.06,.25-1.09-.22-2.19-.35-3.32-.35-1.24,0-2.46,.13-3.66,.36-.29-.2-.68-.24-1.07-.26Z" fill="#FFCD00"/></g></g><g id="uuid-6867d196-1f1f-4c87-b86e-6786c7ee705a"><text transform="translate(.39 54.95)" font-family="Roboto-Regular, Roboto" font-size="6"><tspan x="0" y="0">winter-hat</tspan></text></g></svg>