<?xml version="1.0" encoding="UTF-8"?>
<svg xmlns="http://www.w3.org/2000/svg" viewBox="0 0 50 50">
  <defs>
    <style>
      .cls-1 {
        fill: #1f1c1d;
      }

      .cls-2 {
        fill: #ffcd00;
      }

      .cls-3 {
        fill: #221f1f;
        font-family: Roboto-Regular, Roboto;
        font-size: 5px;
      }
    </style>
  </defs>
  <g id="Gold_Offset">
    <path class="cls-2" d="M39.03,9.35h-.83l9.14,9.14h-10.18v-9.14h-1s-20.58,0-20.58,0H3.7v34.79h46.1v-24.01s-10.77-10.78-10.77-10.78ZM19.78,32.62c-.12.13-.22.17-.38.22-.23.08-.54.19-.78.61-.2.36-.21.57-.19.87.01.18.03.43-.02.92-.11,1.08,0,1.42.18,1.85.22.51.48.96.68,1.32.09.15.19.32.25.43-.11-.03-.28-.1-.55-.26-.38-.23-1.65-1.17-1.96-1.55-.44-.55-.49-1.3-.51-1.75-.02-.25-.03-.4-.1-.55-.1-.2-.41-.81-1.07-1.17-.09-.05-.15-.07-.19-.08-1.15-.74-1.29-1.05-1.29-1.05-.08-.58-.03-.79.04-1.06.06-.28.14-.59.09-1.19-.08-1.12-.56-1.51-1.41-2.1-.38-.27-.44-.39-.71-1-.19-.42-.48-1.07-1.03-2.05-.3-.53-.87-.84-1.66-.87-.11,0-.24,0-.38,0-.69.02-1.26-.02-1.63-.51-.06-.09-.1-.25-.13-.41-.02-.08-.04-.16-.06-.24-.02-.08-.04-.15-.05-.23-.08-.8-.34-1.5-.77-2.11-.22-.31-.3-.72-.23-1.23.03-.24.06-.49.11-.73.13-.59-.08-1.12-.6-1.51-.09-.07-.18-.12-.3-.2l-.27-.18c-.13-.09-.26-.17-.38-.26-.5-.4-.76-.96-.7-1.54.06-.57.43-1.07,1-1.36.56-.29,1.08-.46,1.59-.52h.12s.1-.03.11-.03c.67-.09,1.36,0,2.1.24.51.17,1.07.38,1.76.63.53.2,1.06.27,1.59.2.35-.05.71-.16,1.05-.33.39-.19.76-.36,1.1-.5.17-.07.33-.11.47-.13.34-.05.64.04,1.03.58.54.77.29,1.69,0,2.75-.13.46-.26.93-.33,1.43-.06.44.02.81.25,1.14.42.58,1.23.8,1.89.52.48-.2.67-.59.8-.88.08-.16.13-.27.19-.29.12-.04.4.09.53.31.13.32,0,.73-.06.9-.23.72-.08,1.32.02,1.71.03.12.08.3.09.31-.11.11-.61.03-.85,0-.43-.07-.83-.13-1.13.13-.38.34-.56.89-.61,1.06-.33,1.15-.23,1.65-.11,2.17.05.25.11.5.12.88h0s0,.08,0,.12c-.1-.06-.21-.16-.27-.25-.28-.4-.35-.7-.42-.96-.08-.32-.17-.72-.67-.94-.46-.21-1.04-.03-1.62.5-.26.24-.59.66-.7,1.33-.11.69.14,1.22.42,1.83.46.98.73,1.17,1.28,1.48.68.38,1.13.4,1.54.41.31,0,.57.02.99.18.24.09.32.17.46.32.18.19.41.42.93.69.55.29.97.37,1.27.44.31.07.34.08.39.15.21.32.05,1.05-.32,1.44ZM20.63,14.81s-.08.07-.11.1c-.17-.13-.45-.71-.6-1.51-.02-.09-.03-.18-.04-.26-.08-.64-.32-1.18-.71-1.56-.29-.29-.62-.46-.98-.52-.18-.03-.35-.24-.33-.41.02-.21.42-.44,1.27-.44,1.12,0,1.81-.11,2.41-.21.48-.08.92-.15,1.52-.15.33,0,.7.02,1.16.07.68.08,1.65.19,2.06.31-.04.06-.1.13-.19.23l-.16.17c-.52.58-.87.96-1.12,1.99-.06.25-.23.47-.46.6-.14.08-.25.08-.5.08-.25,0-.61,0-1.08.14-.46.14-.75.34-1.29.7-.43.29-.69.51-.86.66ZM32.58,34.88c-.12.12-.3.18-.44.2.11-.23.33-.57.58-.86,0,0,.01-.02.02-.03.03.23,0,.53-.16.7ZM44.34,34.08c-.02.21-.04.38-.08.55-.23,1.09-.48,1.45-1.04,1.45-.21,0-.41-.04-.6-.12-.33-.13-.68-.32-1.11-.59-.28-.17-.56-.26-.85-.26-.26,0-.51.07-.78.2-.34.17-.68.31-1.02.42-.25.09-.61-.1-.85-.4-.18-.23-.27-.5-.23-.69.04-.18.11-.35.21-.61l.08-.2c.04-.11.08-.22.13-.33.1-.25.21-.51.27-.78.12-.46.36-.74.8-.88.26-.09.53-.15.8-.21l.22-.05c.6-.14,1.04-.41,1.39-.83.45-.55,1.36-.42,1.68.27.03.06.05.12.07.2.08.25.21.49.35.76.11.2.23.43.37.73.08.17.11.38.15.59l.04.25c.02.08.02.16.02.24,0,.11,0,.2-.01.31ZM45.82,19.56c-.18.61-.32.99-.67,1.09-.28.08-.44.09-.66.11l-.23.02c-.77.08-.87.65-.92.95l-.02.1c-.04.19-.09.39-.14.58l-.06.23c-.15.57-.59,1.05-1.21,1.32-.77.33-1.35.9-1.78,1.72-.09.17-.19.35-.31.55l-.07.12c-.26.43-.35.58-.72.73-.49.2-.82.58-1,1.13-.06.18-.2.38-.5.29-.08-.03-.4-.2-.62-.45-.37-.38-1.23-1.18-1.92-1.7-.23-.18-.44-.37-.64-.55-.62-.56-1.46-1.33-2.32-.54-.36.33-.25.77-.19,1.01.07.3.07.3-.07.39-.03.02-.16.03-.25.03-.26.02-.62.04-.96.3-.24.18-.37.5-.37.88,0,.39.13.92.53,1.24.32.26.65.25.9.24.19,0,.34-.01.55.08.29.13.53.36.55.42-.04.06-.24.18-.39.28-.29.18-.65.4-.99.76-.42.45-.71,1.03-.86,1.72-.1.48-.28.89-.54,1.21-.37.48-.58.81-.58.81-.14.21-.21.33-.29.5l-.11.22c-.07.14-.11.23-.25.43-.38.51-.65.78-.73.81-.09-.06-.25-.41-.34-.97-.1-.61-.28-1.03-.43-1.36-.1-.23-.18-.41-.22-.61-.03-.15-.02-.18.03-.3.09-.23.17-.48.15-.97-.06-1.34-.57-1.92-1-2.17-.18-.11-.32-.13-.71-.2l-.12-.02c-.67-.12-1.09-.14-1.36-.15-.26-.01-.34-.02-.45-.07-.45-.19-.83-.96-.8-1.65.04-.99,1-1.64,1.93-2.28.66-.45,1.11-.74,1.68-.71.38.01.7.16.96.28.3.14.75.34,1.09-.01.51-.53-.09-1.5-.38-1.9-.2-.28-.68-.93-1.46-1.11-.77-.17-1.35.18-1.77.44-.21.12-.44.26-.54.24-.53-.14-.83-.45-.83-.84,0-.31.2-.57.48-.65.05-.01.14,0,.25.01.23.03.59.08.97-.15.54-.32.58-.93.62-1.52,0-.14.02-.29.04-.44,0-.05.16-1.31,1.03-1.86.45-.28,1.17-.1,1.8.07.72.19,1.46.38,1.85-.21.15-.22.15-.39.15-.77v-.23c0-.34.09-.59.13-.65.14-.17.15-.18.9.03.24.07.53.15.87.23.2.05.48.07.76.1.22.02.5.04.61.08.13.04.25.08.36.13.2.09.41.16.61.22.59.18.98.21,1.31.16v2.19c0,.28.22.5.5.5h9.18s-.01.04-.02.06Z"/>
  </g>
  <g id="Icon_Outline">
    <g>
      <path class="cls-1" d="M33,32.96c-.34-.07-.71.15-1.07.63-.78.95-1.03,1.65-.74,2.1.14.21.38.35.7.38.05,0,.1,0,.16,0,.4,0,.9-.15,1.25-.5.53-.53.53-1.34.37-1.87-.13-.43-.36-.7-.66-.76ZM32.58,34.88c-.12.12-.3.18-.44.2.11-.23.33-.57.58-.86,0,0,.01-.02.02-.03.03.23,0,.53-.16.7Z"/>
      <path class="cls-1" d="M23.08,14.39c.31-.1.53-.09.77-.09.29,0,.63,0,1.01-.22.46-.27.8-.72.93-1.23.19-.79.41-1.03.89-1.56l.16-.17c.33-.37.67-.8.49-1.27-.22-.59-.94-.7-2.99-.93-1.45-.16-2.18-.04-2.96.09-.59.1-1.21.2-2.25.2-2,0-2.24,1.04-2.27,1.36-.06.69.48,1.37,1.17,1.48.16.03.3.11.44.25.28.28.38.68.42.97.01.1.03.21.05.33.16.82.56,2.21,1.49,2.33.04,0,.08,0,.12,0,.32,0,.53-.18.74-.37.16-.14.38-.33.76-.58.49-.33.72-.48,1.04-.58ZM20.63,14.81s-.08.07-.11.1c-.17-.13-.45-.71-.6-1.51-.02-.09-.03-.18-.04-.26-.08-.64-.32-1.18-.71-1.56-.29-.29-.62-.46-.98-.52-.18-.03-.35-.24-.33-.41.02-.21.42-.44,1.27-.44,1.12,0,1.81-.11,2.41-.21.48-.08.92-.15,1.52-.15.33,0,.7.02,1.16.07.68.08,1.65.19,2.06.31-.04.06-.1.13-.19.23l-.16.17c-.52.58-.87.96-1.12,1.99-.06.25-.23.47-.46.6-.14.08-.25.08-.5.08-.25,0-.61,0-1.08.14-.46.14-.75.34-1.29.7-.43.29-.69.51-.86.66Z"/>
      <path class="cls-1" d="M45.27,33.12c-.04-.26-.09-.56-.23-.85-.15-.32-.28-.57-.39-.78-.12-.23-.22-.41-.29-.63-.03-.09-.06-.19-.12-.31-.34-.72-1.04-1.17-1.83-1.17-.59,0-1.13.26-1.51.72-.21.26-.46.4-.85.5l-.21.05c-.3.07-.61.14-.9.24-.76.26-1.24.79-1.44,1.59-.06.22-.14.44-.23.65-.05.12-.1.24-.14.36l-.1.25c-.09.23-.17.45-.23.68-.11.49.04,1.05.43,1.53.51.64,1.3.94,1.94.73.39-.12.78-.28,1.16-.48.13-.06.24-.09.33-.09.07,0,.17.01.32.11.48.3.89.52,1.27.67.31.13.64.19.98.19,1.55,0,1.87-1.51,2.02-2.24.04-.2.07-.4.09-.66.02-.14.02-.29.01-.45,0-.12-.01-.25-.04-.39l-.04-.21ZM44.34,34.08c-.02.21-.04.38-.08.55-.23,1.09-.48,1.45-1.04,1.45-.21,0-.41-.04-.6-.12-.33-.13-.68-.32-1.11-.59-.28-.17-.56-.26-.85-.26-.26,0-.51.07-.78.2-.34.17-.68.31-1.02.42-.25.09-.61-.1-.85-.4-.18-.23-.27-.5-.23-.69.04-.18.11-.35.21-.61l.08-.2c.04-.11.08-.22.13-.33.1-.25.21-.51.27-.78.12-.46.36-.74.8-.88.26-.09.53-.15.8-.21l.22-.05c.6-.14,1.04-.41,1.39-.83.45-.55,1.36-.42,1.68.27.03.06.05.12.07.2.08.25.21.49.35.76.11.2.23.43.37.73.08.17.11.38.15.59l.04.25c.02.08.02.16.02.24,0,.11,0,.2-.01.31Z"/>
      <path class="cls-1" d="M19.73,33.79c.19-.07.49-.17.78-.48.63-.67.95-1.91.42-2.69-.28-.41-.65-.49-1-.57-.27-.06-.58-.12-1.02-.35-.38-.2-.53-.35-.68-.5-.18-.18-.37-.38-.81-.55-.58-.23-.99-.24-1.32-.25-.36-.01-.61-.02-1.1-.3-.39-.22-.5-.28-.84-1.01-.27-.58-.4-.87-.34-1.25.06-.38.24-.62.39-.75.29-.26.51-.32.57-.31.02.03.05.15.07.25.07.3.18.74.57,1.3.26.38.9.89,1.48.71.29-.09.63-.37.61-1.16,0-.48-.08-.8-.14-1.08-.1-.44-.17-.77.1-1.68.06-.2.16-.4.25-.52.09,0,.25.03.37.05.52.08,1.24.19,1.71-.27.4-.4.27-.9.18-1.27-.09-.35-.18-.7-.03-1.17.08-.25.29-.91.04-1.55-.03-.07-.06-.13-.09-.19-.31-.5-1.01-.9-1.65-.72-.49.14-.67.53-.81.82-.11.24-.17.34-.29.39-.21.09-.53.03-.69-.19-.05-.08-.11-.17-.08-.41.07-.43.19-.88.31-1.31.33-1.2.67-2.44-.15-3.59-.55-.77-1.19-1.1-1.97-1-.22.03-.46.09-.71.19-.37.15-.75.32-1.17.53-.24.12-.49.2-.73.23-.37.05-.73,0-1.11-.14-.7-.26-1.27-.47-1.79-.64-.88-.3-1.71-.39-2.55-.28l-.23.03c-.62.08-1.24.28-1.91.62-.89.45-1.45,1.23-1.55,2.15-.1.92.29,1.8,1.06,2.42.14.11.29.22.45.32l.32.21c.06.04.13.08.2.13.25.19.25.35.22.49-.06.27-.1.55-.13.85-.09.75.05,1.39.41,1.91.33.47.53,1.01.59,1.64.01.12.04.24.08.38.01.06.03.11.04.18.06.27.13.56.32.82.71.94,1.79.92,2.45.91.12,0,.22,0,.31,0,.29.01.68.09.83.36.53.95.79,1.54.99,1.98.29.66.44.99,1.05,1.41.78.55.94.71.99,1.35.03.45-.02.66-.07.9-.07.31-.16.66-.05,1.42.04.33.28.82,1.75,1.76.08.05.15.08.26.12.38.21.57.58.63.67,0,.05.01.13.02.23.03.53.1,1.51.73,2.31.44.55,1.84,1.56,2.23,1.79.33.2.77.42,1.19.42.15,0,.3-.03.44-.1.28-.14.45-.42.48-.75.03-.3-.14-.6-.43-1.09-.2-.34-.44-.75-.66-1.28-.09-.2-.17-.39-.08-1.29.06-.57.04-.88.03-1.09q-.01-.19.06-.32c.05-.08.07-.09.24-.15ZM19.4,32.84c-.23.08-.54.19-.78.61-.2.36-.21.57-.19.87.01.18.03.43-.02.92-.11,1.08,0,1.42.18,1.85.22.51.48.96.68,1.32.09.15.19.32.25.43-.11-.03-.28-.1-.55-.26-.38-.23-1.65-1.17-1.96-1.55-.44-.55-.49-1.3-.51-1.75-.02-.25-.03-.4-.1-.55-.1-.2-.41-.81-1.07-1.17-.09-.05-.15-.07-.19-.08-1.15-.74-1.29-1.05-1.29-1.05-.08-.58-.03-.79.04-1.06.06-.28.14-.59.09-1.19-.08-1.12-.56-1.51-1.41-2.1-.38-.27-.44-.39-.71-1-.19-.42-.48-1.07-1.03-2.05-.3-.53-.87-.84-1.66-.87-.11,0-.24,0-.38,0-.69.02-1.26-.02-1.63-.51-.06-.09-.1-.25-.13-.41-.02-.08-.04-.16-.06-.24-.02-.08-.04-.15-.05-.23-.08-.8-.34-1.5-.77-2.11-.22-.31-.3-.72-.23-1.23.03-.24.06-.49.11-.73.13-.59-.08-1.12-.6-1.51-.09-.07-.18-.12-.3-.2l-.27-.18c-.13-.09-.26-.17-.38-.26-.5-.4-.76-.96-.7-1.54.06-.57.43-1.07,1-1.36.56-.29,1.08-.46,1.59-.52h.12s.1-.03.11-.03c.67-.09,1.36,0,2.1.24.51.17,1.07.38,1.76.63.53.2,1.06.27,1.59.2.35-.05.71-.16,1.05-.33.39-.19.76-.36,1.1-.5.17-.07.33-.11.47-.13.34-.05.64.04,1.03.58.54.77.29,1.69,0,2.75-.13.46-.26.93-.33,1.43-.06.44.02.81.25,1.14.42.58,1.23.8,1.89.52.48-.2.67-.59.8-.88.08-.16.13-.27.19-.29.12-.04.4.09.53.31.13.32,0,.73-.06.9-.23.72-.08,1.32.02,1.71.03.12.08.3.09.31-.11.11-.61.03-.85,0-.43-.07-.83-.13-1.13.13-.38.34-.56.89-.61,1.06-.33,1.15-.23,1.65-.11,2.17.05.25.11.5.12.88h0s0,.08,0,.12c-.1-.06-.21-.16-.27-.25-.28-.4-.35-.7-.42-.96-.08-.32-.17-.72-.67-.94-.46-.21-1.04-.03-1.62.5-.26.24-.59.66-.7,1.33-.11.69.14,1.22.42,1.83.46.98.73,1.17,1.28,1.48.68.38,1.13.4,1.54.41.31,0,.57.02.99.18.24.09.32.17.46.32.18.19.41.42.93.69.55.29.97.37,1.27.44.31.07.34.08.39.15.21.32.05,1.05-.32,1.44-.12.13-.22.17-.38.22Z"/>
      <path class="cls-1" d="M49.01,18.8c-.03-.06-.06-.12-.11-.16l-11.89-11.89s-.1-.08-.16-.11c-.06-.03-.13-.04-.19-.04H1.45c-.28,0-.5.22-.5.5v35.79c0,.28.22.5.5.5h47.1c.28,0,.5-.22.5-.5v-23.9c0-.07-.01-.13-.04-.19ZM37.16,8.31l10.18,10.18h-10.18v-10.18ZM36.66,19.49h9.18s-.01.04-.02.06c-.18.61-.32.99-.67,1.09-.28.08-.44.09-.66.11l-.23.02c-.77.08-.87.65-.92.95l-.02.1c-.04.19-.09.39-.14.58l-.06.23c-.15.57-.59,1.05-1.21,1.32-.77.33-1.35.9-1.78,1.72-.09.17-.19.35-.31.55l-.07.12c-.26.43-.35.58-.72.73-.49.2-.82.58-1,1.13-.06.18-.2.38-.5.29-.08-.03-.4-.2-.62-.45-.37-.38-1.23-1.18-1.92-1.7-.23-.18-.44-.37-.64-.55-.62-.56-1.46-1.33-2.32-.54-.36.33-.25.77-.19,1.01.07.3.07.3-.07.39-.03.02-.16.03-.25.03-.26.02-.62.04-.96.3-.24.18-.37.5-.37.88,0,.39.13.92.53,1.24.32.26.65.25.9.24.19,0,.34-.01.55.08.29.13.53.36.55.42-.04.06-.24.18-.39.28-.29.18-.65.4-.99.76-.42.45-.71,1.03-.86,1.72-.1.48-.28.89-.54,1.21-.37.48-.58.81-.58.81-.14.21-.21.33-.29.5l-.11.22c-.07.14-.11.23-.25.43-.38.51-.65.78-.73.81-.09-.06-.25-.41-.34-.97-.1-.61-.28-1.03-.43-1.36-.1-.23-.18-.41-.22-.61-.03-.15-.02-.18.03-.3.09-.23.17-.48.15-.97-.06-1.34-.57-1.92-1-2.17-.18-.11-.32-.13-.71-.2l-.12-.02c-.67-.12-1.09-.14-1.36-.15-.26-.01-.34-.02-.45-.07-.45-.19-.83-.96-.8-1.65.04-.99,1-1.64,1.93-2.28.66-.45,1.11-.74,1.68-.71.38.01.7.16.96.28.3.14.75.34,1.09-.01.51-.53-.09-1.5-.38-1.9-.2-.28-.68-.93-1.46-1.11-.77-.17-1.35.18-1.77.44-.21.12-.44.26-.54.24-.53-.14-.83-.45-.83-.84,0-.31.2-.57.48-.65.05-.01.14,0,.25.01.23.03.59.08.97-.15.54-.32.58-.93.62-1.52,0-.14.02-.29.04-.44,0-.05.16-1.31,1.03-1.86.45-.28,1.17-.1,1.8.07.72.19,1.46.38,1.85-.21.15-.22.15-.39.15-.77v-.23c0-.34.09-.59.13-.65.14-.17.15-.18.9.03.24.07.53.15.87.23.2.05.48.07.76.1.22.02.5.04.61.08.13.04.25.08.36.13.2.09.41.16.61.22.59.18.98.21,1.31.16v2.19c0,.28.22.5.5.5ZM48.05,42.4H1.95V7.6h34.21v8.19c-.21.07-.46.07-1.02-.11-.17-.05-.33-.11-.5-.18-.14-.06-.3-.12-.47-.17-.22-.07-.51-.09-.82-.12-.23-.02-.46-.04-.61-.07-.33-.08-.6-.16-.83-.22-.8-.23-1.38-.39-1.95.29-.32.39-.36,1.07-.36,1.27v.24c0,.07,0,.12,0,.17-.18,0-.52-.09-.75-.15-.79-.2-1.77-.46-2.58.05-1.23.77-1.46,2.3-1.49,2.59-.02.17-.03.33-.04.48-.02.27-.05.68-.13.73-.07.04-.15.04-.33.02-.17-.02-.39-.05-.62.01-.72.19-1.22.85-1.22,1.61,0,.67.41,1.49,1.56,1.81.52.14.94-.12,1.32-.35.41-.25.69-.4,1.04-.32.42.09.71.5.87.72.06.09.12.17.17.26-.27-.11-.61-.21-1-.22-.94-.04-1.62.44-2.28.89-1.02.7-2.3,1.57-2.36,3.06-.04.96.44,2.2,1.41,2.61.27.12.5.13.79.14.26.01.63.03,1.24.14l.13.02c.21.04.35.06.38.07.17.1.46.41.5,1.35.01.32-.03.44-.08.57-.08.22-.15.44-.08.83.06.31.17.58.28.83.14.31.28.63.36,1.16.09.59.36,1.61,1.11,1.75.05,0,.11.01.16.01.66,0,1.2-.71,1.58-1.21.21-.27.28-.43.36-.6l.09-.18c.07-.14.13-.24.25-.42,0,0,.2-.31.53-.74.34-.44.58-.99.72-1.61.11-.52.31-.93.61-1.25.24-.26.53-.44.78-.59.4-.24.85-.52.86-1.08.01-.69-.71-1.2-1.13-1.38-.41-.18-.74-.17-.98-.16-.17,0-.21,0-.24-.02-.15-.12-.19-.49-.17-.55.09-.07.21-.08.41-.09.21-.01.47-.03.71-.18.77-.47.6-1.18.52-1.48,0-.03-.01-.06-.02-.08.13-.04.31.08.88.59.22.2.45.41.71.6.67.51,1.51,1.3,1.79,1.59.31.34.78.63,1.06.72.77.23,1.5-.17,1.74-.94.09-.27.21-.42.42-.5.68-.28.91-.66,1.2-1.14l.07-.12c.14-.22.25-.42.34-.6.33-.62.74-1.03,1.3-1.27.9-.39,1.55-1.12,1.78-1.99l.06-.23c.06-.21.11-.42.15-.64l.02-.12c.01-.07.03-.16.04-.13l.21-.02c.25-.02.47-.04.83-.14.92-.25,1.17-1.13,1.36-1.77.04-.12.08-.23.12-.35h1.16v22.9Z"/>
      <path class="cls-1" d="M5.29,37.06h5.19c.28,0,.5-.22.5-.5s-.22-.5-.5-.5h-5.19c-.28,0-.5.22-.5.5s.22.5.5.5Z"/>
      <path class="cls-1" d="M13.13,38.55h-7.84c-.28,0-.5.22-.5.5s.22.5.5.5h7.84c.28,0,.5-.22.5-.5s-.22-.5-.5-.5Z"/>
    </g>
  </g>
  <g id="Names">
    <text class="cls-3" transform="translate(0 53.99)"><tspan x="0" y="0">world-map</tspan></text>
  </g>
</svg>