<?xml version="1.0" encoding="UTF-8"?><svg xmlns="http://www.w3.org/2000/svg" viewBox="0 0 50 50"><g id="uuid-a4746fcd-63e8-4662-97c5-7438cad5fc99"><path d="M47.28,11.75c0-1.19-.97-2.16-2.16-2.16s-2.16,.97-2.16,2.16c0,1.82-5.23,5.25-15.65,5.78v-3.77c8.71-.42,17.89-3.42,17.89-9.11,0-1.19-.97-2.16-2.16-2.16s-2.16,.97-2.16,2.16c0,1.43-4.78,4.36-13.57,4.79V5.01c0-1.19-.97-2.16-2.16-2.16s-2.16,.97-2.16,2.16v4.42c-8.82-.42-13.62-3.36-13.62-4.79,0-1.19-.97-2.16-2.16-2.16s-2.16,.97-2.16,2.16c0,5.71,9.21,8.7,17.94,9.11v3.8c-10.96-.34-16.69-3.94-16.69-5.81,0-1.19-.97-2.16-2.16-2.16s-2.16,.97-2.16,2.16c0,4.61,6.58,9.71,21.01,10.15v4.68c-7.46-.42-10.69-2.89-10.69-3.64,0-1.19-.97-2.16-2.16-2.16s-2.16,.97-2.16,2.16c0,4.96,7.46,7.55,15.01,7.96l-.02,5.98c-3.32-.22-5.72-.64-7.5-.94-2.27-.39-3.41-.59-4.15,.03-.57,.48-.64,1.32-.64,2.08,0,4.14,1.7,6.07,11.82,6.53h.51c.06,.87,.38,2.16,2.14,2.19,.02,0,.04,0,.06,0,.61,0,1.1-.18,1.46-.53,.47-.46,.6-1.14,.64-1.67h.37c9.6-.37,11.15-2.23,11.15-6.53,0-1.01-.1-1.72-.6-2.14-.64-.53-1.59-.35-3.49,0-1.6,.3-3.99,.74-7.39,.97l-.02-5.98c7.52-.42,14.96-3.01,14.96-7.96,0-1.19-.97-2.16-2.16-2.16s-2.16,.97-2.16,2.16c0,.75-3.21,3.2-10.64,3.63v-4.72c9.71-.5,19.97-3.84,19.97-10.1Zm-20.81,15.71c.1,.09,.23,.15,.37,.14,7.14-.31,12.11-2.7,12.11-4.66,0-.64,.52-1.16,1.16-1.16s1.16,.52,1.16,1.16c0,4.37-7.51,6.68-14.48,6.98-.27,.01-.48,.23-.48,.5l.03,6.99c0,.14,.06,.27,.16,.36,.1,.09,.24,.14,.37,.13,3.75-.22,6.33-.7,8.04-1.02,1.39-.26,2.39-.45,2.66-.22,.24,.2,.24,1.08,.24,1.37,0,3.28-.47,5.16-10.15,5.54l-.84-.03c-.14,0-.27,.04-.37,.14-.1,.09-.15,.22-.15,.36,0,.56-.04,1.17-.35,1.47-.17,.17-.44,.26-.8,.24-.99-.02-1.17-.59-1.17-1.69,0-.13-.05-.26-.15-.35-.09-.09-.22-.15-.35-.15h-.97c-10.11-.46-10.84-2.4-10.84-5.53,0-.72,.09-1.15,.29-1.31,.38-.32,1.55-.12,3.33,.19,1.89,.33,4.48,.77,8.14,.99,.14,.01,.27-.04,.37-.13,.1-.09,.16-.23,.16-.36l.03-6.99c0-.27-.21-.49-.48-.5-7-.29-14.53-2.6-14.53-6.98,0-.64,.52-1.16,1.16-1.16s1.16,.52,1.16,1.16c0,1.96,5,4.35,12.16,4.66,.14,.01,.27-.04,.37-.14,.1-.09,.15-.22,.15-.36v-5.69c0-.27-.22-.49-.49-.5-13.47-.3-20.52-4.83-20.52-9.16,0-.64,.52-1.16,1.16-1.16s1.16,.52,1.16,1.16c0,3.11,7.3,6.59,18.18,6.83,.14,0,.26-.05,.36-.14,.1-.09,.15-.22,.15-.36v-4.8c0-.27-.21-.49-.48-.5-8.68-.32-17.46-3.21-17.46-8.13,0-.64,.52-1.16,1.16-1.16s1.16,.52,1.16,1.16c0,2.54,6.07,5.48,15.1,5.81,.14,0,.27-.05,.37-.14,.1-.09,.15-.22,.15-.36V5.01c0-.64,.52-1.16,1.16-1.16s1.16,.52,1.16,1.16v4.94c0,.14,.06,.27,.15,.36,.1,.09,.23,.15,.37,.14,9-.33,15.05-3.27,15.05-5.81,0-.64,.52-1.16,1.16-1.16s1.16,.52,1.16,1.16c0,4.91-8.76,7.81-17.41,8.13-.27,0-.48,.23-.48,.5v4.78c0,.14,.06,.27,.15,.36s.23,.15,.37,.14c10.58-.43,17.13-3.87,17.13-6.8,0-.64,.52-1.16,1.16-1.16s1.16,.52,1.16,1.16c0,5.45-9.8,8.71-19.49,9.12-.27,.01-.48,.23-.48,.5v5.72c0,.14,.06,.27,.15,.36Z" fill="#FFFFFF"/></g><g id="uuid-64b02f4c-ed99-4efe-b8bb-0d78a2119d8c"><text transform="translate(.29 54.97)" font-family="Roboto-Regular, Roboto" font-size="6"><tspan x="0" y="0">x-</tspan><tspan x="4.63" y="0" letter-spacing="-.02em">r</tspan><tspan x="6.54" y="0" letter-spacing="0em">a</tspan><tspan x="9.76" y="0">y</tspan></text></g></svg>