<svg xmlns="http://www.w3.org/2000/svg" viewBox="0 0 50 50"><defs><style>.cls-1{fill:#ffcd00;}.cls-2{font-size:6px;font-family:Roboto-Regular, Roboto;}.cls-3{letter-spacing:-0.01em;}.cls-4{letter-spacing:-0.01em;}</style></defs><g id="ICONS"><path class="cls-1" d="M47.86,24.43l-21-21a.51.51,0,0,0-.71,0L22.41,7.19a.52.52,0,0,0-.14.36.5.5,0,0,0,.14.35L36.75,22.24a.49.49,0,0,1,.11.55.51.51,0,0,1-.46.3H3.91V29.4H36.4a.51.51,0,0,1,.46.3.49.49,0,0,1-.11.55L22.41,44.59a.5.5,0,0,0-.14.35.52.52,0,0,0,.14.36L26.16,49a.51.51,0,0,0,.71,0l21-21a2.65,2.65,0,0,0,0-3.63Z"/><path d="M47.06,22.23l-21-21a1.53,1.53,0,0,0-2.12,0L20.21,5a1.5,1.5,0,0,0,0,2.12L33.69,20.59H1.91a.51.51,0,0,0-.5.5V28.4a.51.51,0,0,0,.5.5H33.69L20.21,42.38a1.5,1.5,0,0,0,0,2.12L24,48.25a1.5,1.5,0,0,0,1.06.44,1.52,1.52,0,0,0,1.06-.44l21-21a3.61,3.61,0,0,0,0-5Zm-.7,4.33-21,21a.51.51,0,0,1-.71,0L20.91,43.8a.52.52,0,0,1-.14-.36.5.5,0,0,1,.14-.35L35.25,28.75a.49.49,0,0,0,.11-.55.51.51,0,0,0-.46-.3H2.41V21.59H34.9a.51.51,0,0,0,.46-.3.49.49,0,0,0-.11-.55L20.91,6.4a.5.5,0,0,1-.14-.35.52.52,0,0,1,.14-.36L24.66,2a.51.51,0,0,1,.71,0l21,21a2.65,2.65,0,0,1,0,3.63Z"/></g><g id="LABELS"><text class="cls-2" transform="translate(0 55.05)">ar<tspan class="cls-3" x="5.29" y="0">r</tspan><tspan x="7.27" y="0">ow-di</tspan><tspan class="cls-4" x="21.69" y="0">r</tspan><tspan x="23.67" y="0">ection</tspan></text></g></svg>