<svg xmlns="http://www.w3.org/2000/svg" viewBox="0 0 50 50"><g id="a7417170-7c96-4bbf-9b13-3f6a515820c7" data-name="ICONS"><path d="M38,8A15.6,15.6,0,0,0,10.63,18.29c0,3.5,3.14,9.44,3.17,9.5l12.45,22,.33-.57L38.7,27.78c0-.05,3.17-6,3.17-9.49A15.52,15.52,0,0,0,38,8ZM24.75,28A11.24,11.24,0,0,1,13.57,16.79C13.57,9.86,20,5.62,24.75,5.62a11,11,0,0,1,4.07.78,11.19,11.19,0,0,1,7.11,10.39A11.35,11.35,0,0,1,24.75,28Z" fill="#fdd600"/><path d="M40.89,12.9A16.61,16.61,0,0,0,8.13,16.79c0,3.75,3.16,9.72,3.3,10L24.31,49.58a.51.51,0,0,0,.88,0l.46-.83,12.43-22c.13-.25,3.29-6.22,3.29-10A16.13,16.13,0,0,0,40.89,12.9ZM37.2,26.28,25.08,47.74l-.33.57-12.45-22c0-.06-3.17-6-3.17-9.5a15.62,15.62,0,0,1,31.24,0C40.37,20.29,37.23,26.23,37.2,26.28Z" fill="#231f20"/><path d="M24.75,4.62A12.2,12.2,0,1,0,34.07,9,12.19,12.19,0,0,0,24.75,4.62Zm0,23.35A11.24,11.24,0,0,1,13.57,16.79C13.57,9.86,20,5.62,24.75,5.62a11,11,0,0,1,4.07.78,11.19,11.19,0,0,1,7.11,10.39A11.35,11.35,0,0,1,24.75,28Z" fill="#231f20"/></g><g id="e14edf6a-28e7-43c8-aaa6-88baba7b529b" data-name="LABELS"><text transform="translate(0 55.13)" font-size="6" fill="#231f20" font-family="Roboto-Regular, Roboto">map-pin</text></g></svg>