<svg xmlns="http://www.w3.org/2000/svg" viewBox="0 0 50 50"><g id="b0b2ad51-e5ba-4a87-b550-ab3da67bb3c4" data-name="ICONS"><path d="M49.4,38.27a9.59,9.59,0,0,0-1.72-5,11.5,11.5,0,0,0-.08-4.52,11.69,11.69,0,0,0-1.49-3.65L37,11l-1.88,1.28c.2.3.39.62.58.94l.49.88A18.9,18.9,0,0,1,38.73,23a18.61,18.61,0,0,1-1.12,7,1.89,1.89,0,0,1-.18.34,1.13,1.13,0,0,1-.17.24,10.84,10.84,0,0,1-4.06,2.55,9.65,9.65,0,0,1-5.6.36c-1.26-.32-3.49-.88-4.63-3a6.57,6.57,0,0,1-.1-5.21H6.4A21.69,21.69,0,0,0,4,30.82,22.52,22.52,0,0,0,3.11,37H4.55a8.59,8.59,0,0,1,16.12,0l12.51,0A10.66,10.66,0,0,0,33,38.27h5.29a2.43,2.43,0,0,0-.07.61,3,3,0,1,0,5.93,0,3,3,0,0,0-.06-.61Z" fill="#fdd600"/><circle cx="12.59" cy="38.88" r="2.97" fill="#fdd600"/><path d="M12.59,30.56a8.28,8.28,0,0,0-8.32,7.71H20.91A8.28,8.28,0,0,0,12.59,30.56Z" fill="#fdd600"/><path d="M47.09,31.81a11.58,11.58,0,0,0-1.64-8.71L38.61,12.57l.24,0a.5.5,0,0,0,.5-.5V5.57a.5.5,0,0,0-.5-.5A3.59,3.59,0,0,0,35.4,8.38l-.1,0-2.7,1.85a.5.5,0,0,0-.14.69c.31.46.6.91.87,1.37L30.76,14.1a.5.5,0,0,0-.12.69.49.49,0,0,0,.69.13l2.48-1.72c3.88,7.13,3.23,13.86.08,16.38A9.84,9.84,0,0,1,26.29,31a5.55,5.55,0,0,1-3.95-2.48c-.87-1.62-.37-3.64.21-5.05v0a.47.47,0,0,0,0-.17s0,0,0,0v0a5,5,0,0,0-5-4.85H9.18a5,5,0,0,0-5,4.61l0,0a22.84,22.84,0,0,0-2.7,6,23.25,23.25,0,0,0-.88,7,.5.5,0,0,0,.5.48h.68c0,.26,0,.52,0,.78a.5.5,0,0,0,.5.5H3.34a7.77,7.77,0,0,0,15.49,0h1.09a.51.51,0,0,0,.5-.5c0-.26,0-.52,0-.78H30.54c0,.26,0,.52,0,.78a.5.5,0,0,0,.5.5h1.06a7.66,7.66,0,0,0,15.28,0H48.4a.5.5,0,0,0,.5-.5A9.15,9.15,0,0,0,47.09,31.81Zm-4.36,6a3.07,3.07,0,0,1-6.06,0Zm-11.22-1a8.2,8.2,0,0,1,16.38,0Zm-12.11,0H2.76a8.34,8.34,0,0,1,16.64,0Zm-5.23,1a3.13,3.13,0,0,1-6.17,0Zm-3.09-9.71a9.32,9.32,0,0,0-9.15,7.43H1.6a22.52,22.52,0,0,1,.85-6.17A21.69,21.69,0,0,1,4.89,23.8H21.37A6.56,6.56,0,0,0,21.46,29a6.51,6.51,0,0,0,4.63,3,11.63,11.63,0,0,0,6.49-.55,9.22,9.22,0,0,0-1.91,4H20.24A9.32,9.32,0,0,0,11.08,28.06ZM34.63,12.64l1.24-.86A.5.5,0,1,0,35.3,11l-1.16.8c-.19-.32-.37-.64-.57-.94l1.87-1.28L44.6,23.63a11,11,0,0,1,1.66,7.19,9.15,9.15,0,0,0-10.42-1.9C38.64,25,37.6,18.2,34.63,12.64Zm3.72-6.51v5.41a2.31,2.31,0,0,1-.55-.21L36.38,9.15c0-.1,0-.21,0-.31A2.72,2.72,0,0,1,38.35,6.13ZM21.55,22.8H13.89V19.39H17.6A4,4,0,0,1,21.55,22.8ZM9.18,19.39h3.71V22.8H5.22A4,4,0,0,1,9.18,19.39Zm1.9,24.54a6.72,6.72,0,0,1-6.74-6.16H7a4.12,4.12,0,0,0,8.17,0h2.66A6.73,6.73,0,0,1,11.08,43.93Zm28.62,0a6.67,6.67,0,0,1-6.64-6.16h2.61a4.06,4.06,0,0,0,8.06,0h2.61A6.67,6.67,0,0,1,39.7,43.93Z" fill="#231f20"/></g><g id="ba70ff71-66d4-40e8-b464-6cbfae66973f" data-name="LABELS"><text transform="translate(0.12 55.12)" font-size="6" fill="#231f20" font-family="Roboto-Regular, Roboto">moped</text></g></svg>