<svg xmlns="http://www.w3.org/2000/svg" viewBox="0 0 50 50"><g id="f733887b-1570-45b2-8479-ac4fe84d085a" data-name="ICONS"><path d="M38.5,20.67a.5.5,0,0,1-.5.5H26.87v6.21a.5.5,0,0,1-.5.5H15.25V34.1a.5.5,0,0,1-.5.5H3.62V45.24H49.13V14.53H38.5Z" fill="#fdd600"/><path d="M47.88,11.78H36.25a.5.5,0,0,0-.5.5v6.14H24.62a.5.5,0,0,0-.5.5v6.21H13a.5.5,0,0,0-.5.5v6.22H1.37a.5.5,0,0,0-.5.5V44a.5.5,0,0,0,.5.5H47.88a.5.5,0,0,0,.5-.5V12.28A.5.5,0,0,0,47.88,11.78Zm-.5,31.71H1.87V32.85H13a.5.5,0,0,0,.5-.5V26.13H24.62a.5.5,0,0,0,.5-.5V19.42H36.25a.5.5,0,0,0,.5-.5V12.78H47.38Z" fill="#231f20"/><path d="M7.36,16.32a.49.49,0,0,0,.27.22l.08,0L15.6,19l.15,0a.49.49,0,0,0,.47-.35.5.5,0,0,0-.33-.63L9.1,16,28.33,5.7a.5.5,0,0,0,.2-.68.49.49,0,0,0-.67-.2L8.55,15.12l2.09-6.86a.5.5,0,1,0-1-.29l-2.4,7.89a.53.53,0,0,0,.07.42A.08.08,0,0,0,7.36,16.32Z" fill="#231f20"/></g><g id="b3dc47f9-e877-44c7-b85a-d28d57ad0775" data-name="LABELS"><text transform="translate(-0.16 55.05)" font-size="6" fill="#231f20" font-family="Roboto-Regular, Roboto">stairs-down</text></g></svg>