<svg xmlns="http://www.w3.org/2000/svg" viewBox="0 0 50 50"><g id="f8ae0ba3-938d-4126-ad60-35ef1f86d3bd" data-name="ICONS"><path d="M36.11,13a.49.49,0,0,1-.15.36.5.5,0,0,1-.35.14H26.84v8a.5.5,0,0,1-.5.5H18.59v8a.51.51,0,0,1-.5.5H9.65v8.13a.5.5,0,0,1-.5.5l-5.85,0V46.7H49.46V6.05H36.11Z" fill="#fdd600"/><path d="M48.21,3.3H33.86a.5.5,0,0,0-.5.5v7H24.65a.51.51,0,0,0-.56.5v8H16.34a.5.5,0,0,0-.5.5v8H7.4a.5.5,0,0,0-.5.5v8.13L1,36.31a.5.5,0,0,0-.5.5v8.64A.5.5,0,0,0,1,46H48.21a.5.5,0,0,0,.5-.5V3.8A.5.5,0,0,0,48.21,3.3ZM47.71,45H1.54V37.31l5.85,0a.5.5,0,0,0,.5-.5V28.66h8.44a.51.51,0,0,0,.5-.5V20.21h7.75a.5.5,0,0,0,.5-.5v-8h8.77a.5.5,0,0,0,.35-.14.49.49,0,0,0,.15-.36v-7H47.71Z" fill="#231f20"/></g><g id="b0d4d8b9-24be-4c09-a62e-bfce73fc9b84" data-name="LABELS"><text transform="translate(0.71 55.05)" font-size="6" fill="#231f20" font-family="Roboto-Regular, Roboto">stairs</text></g></svg>