<svg id="a81d6da8-2709-4ec7-a75a-d115e9915fdd" data-name="ICONS" xmlns="http://www.w3.org/2000/svg" viewBox="0 0 50 50"><path d="M4.09,42.33l19-35.55a3.59,3.59,0,0,1,4.86-1.49h0a3.6,3.6,0,0,0-6.36,0l-19,35.55a3.6,3.6,0,0,0,1.5,4.88A3.58,3.58,0,0,1,4.09,42.33Z" fill="none"/><path d="M48.41,42.33l-.09-.17a4.5,4.5,0,0,1-.64,2.73,4.57,4.57,0,0,1-4,2.24h-38l-.37,0a3.63,3.63,0,0,0,1.87.52h38a3.6,3.6,0,0,0,3.18-5.3Z" fill="#fdd600"/><path d="M43.73,47.13a4.57,4.57,0,0,0,4-2.24,4.59,4.59,0,0,0,.11-4.53l-19-35.55a4.6,4.6,0,0,0-8.12,0l-19,35.55A4.6,4.6,0,0,0,5.4,47.11l.37,0Zm-41-2.75a3.57,3.57,0,0,1-.09-3.55l19-35.55a3.6,3.6,0,0,1,6.36,0h0l19,35.54a3.6,3.6,0,0,1-3.18,5.3h-38a3.63,3.63,0,0,1-3.09-1.75Z" fill="#231f20"/><path d="M28.16,13.71H21.34a.48.48,0,0,0-.36.16.45.45,0,0,0-.14.36l1,20.48a.5.5,0,0,0,.5.48h4.78a.5.5,0,0,0,.5-.48l1-20.48a.45.45,0,0,0-.14-.36A.48.48,0,0,0,28.16,13.71ZM26.67,34.19H22.84l-1-19.48h5.77Z" fill="none"/><path d="M24.75,36.68a3.41,3.41,0,1,0,3.41,3.4A3.4,3.4,0,0,0,24.75,36.68Zm0,5.81a2.41,2.41,0,1,1,2.41-2.41A2.4,2.4,0,0,1,24.75,42.49Z" fill="none"/><path d="M28.16,13.71H21.34a.48.48,0,0,0-.36.16.45.45,0,0,0-.14.36l1,20.48a.5.5,0,0,0,.5.48h4.78a.5.5,0,0,0,.5-.48l1-20.48a.45.45,0,0,0-.14-.36A.48.48,0,0,0,28.16,13.71ZM26.67,34.19H22.84l-1-19.48h5.77Z" fill="none"/><path d="M24.75,36.68a3.41,3.41,0,1,0,3.41,3.4A3.4,3.4,0,0,0,24.75,36.68Zm0,5.81a2.41,2.41,0,1,1,2.41-2.41A2.4,2.4,0,0,1,24.75,42.49Z" fill="none"/><path d="M46.91,40.83l-19-35.54a3.59,3.59,0,0,0-4.86,1.49l-19,35.55a3.58,3.58,0,0,0,0,3.38,3.58,3.58,0,0,0,1.68.42h38a3.6,3.6,0,0,0,3.18-5.3ZM24.75,43.49a3.41,3.41,0,1,1,3.41-3.41A3.41,3.41,0,0,1,24.75,43.49Zm2.89-8.78a.5.5,0,0,1-.5.48H22.36a.5.5,0,0,1-.5-.48l-1-20.48a.45.45,0,0,1,.14-.36.48.48,0,0,1,.36-.16h6.82a.48.48,0,0,1,.36.16.45.45,0,0,1,.14.36Z" fill="#fdd600"/><path d="M24.75,36.68a3.41,3.41,0,1,0,3.41,3.4A3.4,3.4,0,0,0,24.75,36.68Zm0,5.81a2.41,2.41,0,1,1,2.41-2.41A2.4,2.4,0,0,1,24.75,42.49Z" fill="#231f20"/><path d="M22.36,35.19h4.78a.5.5,0,0,0,.5-.48l1-20.48a.45.45,0,0,0-.14-.36.48.48,0,0,0-.36-.16H21.34a.48.48,0,0,0-.36.16.45.45,0,0,0-.14.36l1,20.48A.5.5,0,0,0,22.36,35.19Zm5.28-20.48-1,19.48H22.84l-1-19.48Z" fill="#231f20"/></svg>