<svg xmlns="http://www.w3.org/2000/svg" viewBox="0 0 50 50"><g id="e7a5a0d4-533a-41cc-abd6-bbfd8491fdd4" data-name="ICONS"><polygon points="37.59 20.3 31.97 16.36 15.42 16.36 15.42 46.12 37.59 46.12 37.59 20.3" fill="#fdd600"/><path d="M39.26,44.36H36.84V18.29a0,0,0,0,1,0,0s0,0,0-.05v-13h2.41a.5.5,0,0,0,.5-.5V1.86a.5.5,0,0,0-.5-.5H10.74a.5.5,0,0,0-.5.5v2.9a.5.5,0,0,0,.5.5h1.93v39.1H10.75a.5.5,0,0,0-.5.5v3.28a.5.5,0,0,0,.5.5H39.26a.5.5,0,0,0,.5-.5V44.86A.5.5,0,0,0,39.26,44.36ZM16.5,13.6V11.17A3.5,3.5,0,0,1,20,7.67h9a3.5,3.5,0,0,1,3.5,3.5V13.6a3.46,3.46,0,0,1-.22,1.21L30.66,13.7a.47.47,0,0,0-.28-.09H16.5Zm-2.83,1H30.22l5.62,3.94V44.37H13.67ZM11.24,2.36H38.75v1.9H11.24Zm24.6,2.9V17.33L33.09,15.4a4.5,4.5,0,0,0,.38-1.8V11.17A4.51,4.51,0,0,0,29,6.67H20a4.51,4.51,0,0,0-4.5,4.5V13.6H13.67V5.26Zm2.92,42.38H11.25V45.36H38.76Z" fill="#231f20"/></g><g id="bc53cdae-edd8-4fe7-b7b8-feefee79741d" data-name="LABELS"><text transform="translate(0.52 54.89)" font-size="6" fill="#231f20" font-family="Roboto-Regular, Roboto">bed-<tspan x="11.58" y="0" letter-spacing="-0.01em">t</tspan><tspan x="13.49" y="0">op</tspan></text></g></svg>