<svg xmlns="http://www.w3.org/2000/svg" viewBox="0 0 50 50"><g id="f635b5dc-932d-43a5-a955-c4a6c6e316df" data-name="ICONS"><polygon points="49.46 13.54 33.94 5.85 28.41 8.54 44.3 16.2 49.46 13.54" fill="#fdd600"/><path d="M44.31,17.32,28,25.75l-1.23.51-.94-.52-.6.31h0l.6-.31L10.1,17.46,3.81,20.53l5.26,2.68.33.17v1.2h0V39.66L26.29,47.9l.48.28.52-.28,16.82-8.32V26l0-3,.18-.09,5.4-3Z" fill="#fdd600"/><polygon points="24.58 7.81 19.5 5.36 4 13.12 10.12 16.34 10.94 15.94 9.47 15.17 24.58 7.81" fill="#fdd600"/><path d="M49.28,17.7,43.68,15l5.37-2.77a.5.5,0,0,0,.27-.45.49.49,0,0,0-.28-.44L32.42,3.1a.49.49,0,0,0-.44,0L25.52,6.24,18,2.6a.49.49,0,0,0-.44,0L.93,10.91a.49.49,0,0,0-.28.44.5.5,0,0,0,.27.45l6.33,3.33L.72,18.32a.49.49,0,0,0-.28.44.47.47,0,0,0,.27.45l6,3.05s0,0,0,.08V38.22a.5.5,0,0,0,.28.45L24.82,47.4h0a.46.46,0,0,0,.2.05.46.46,0,0,0,.21-.05h0l17.81-8.81a.51.51,0,0,0,.28-.45V21.85l6-3.26a.52.52,0,0,0,.26-.45A.51.51,0,0,0,49.28,17.7ZM32.19,4.1l15.52,7.69-5.16,2.66L26.66,6.79Zm-7,19.33L9.47,15.17l16-7.82L41.44,15ZM2.25,11.37l15.5-7.76L24.37,6.8l-16,7.79Zm6.1,4.34L24.05,24,18.2,27,7.32,21.46,2.06,18.78Zm-.68,7.05L18,28a.47.47,0,0,0,.46,0l6.11-3.15V46.15L7.67,37.91ZM42.36,37.83,25.54,46.15V24.77L31.66,28a.49.49,0,0,0,.47,0l10.23-5.6Zm.21-16.69L31.88,27l-5.66-3,16.34-8.43L48,18.18Z" fill="#231f20"/></g><g id="f6cfd7b9-b1ec-4bab-a1a7-ea8834d1bb39" data-name="LABELS"><text transform="translate(0.01 55.01)" font-size="6" fill="#231f20" font-family="Roboto-Regular, Roboto">b<tspan x="3.37" y="0" letter-spacing="-0.01em">o</tspan><tspan x="6.73" y="0">x-open</tspan></text></g></svg>