<svg xmlns="http://www.w3.org/2000/svg" viewBox="0 0 50 50"><defs><style>.cls-1{fill:#ffcd00;}.cls-2{font-size:6px;font-family:Roboto-Regular, Roboto;}.cls-3{letter-spacing:0.02em;}</style></defs><g id="ICONS"><path class="cls-1" d="M2.61,18a12,12,0,0,0,3.52,8.51L26.25,46.63,46.37,26.51a12,12,0,0,0-17-17L26.6,12.24a.48.48,0,0,1-.7,0L23.15,9.5A12,12,0,0,0,2.61,18Z"/><path d="M45.57,7.18a13,13,0,0,0-18.42,0l-2.4,2.4-2.4-2.4A13,13,0,0,0,.11,16.4a12.9,12.9,0,0,0,3.82,9.21L24.4,46.08a.48.48,0,0,0,.7,0L45.57,25.61a13,13,0,0,0,0-18.43Zm-23.92.71,2.75,2.75a.48.48,0,0,0,.7,0l2.75-2.75a12,12,0,0,1,17,17L24.75,45,4.63,24.91a12,12,0,0,1,17-17Z"/></g><g id="LABELS"><text class="cls-2" transform="translate(0.17 55.08)">hea<tspan class="cls-3" x="9.75" y="0">r</tspan><tspan x="11.92" y="0">t</tspan></text></g></svg>