<svg xmlns="http://www.w3.org/2000/svg" viewBox="0 0 50 50"><g id="ffa295ec-2796-48bf-b5c2-bfafe90e9a97" data-name="ICONS"><path d="M25.4,41.32A18.91,18.91,0,0,1,45.74,9.65,23.28,23.28,0,0,0,29.28,2.87,23,23,0,0,0,26.54,3,23.5,23.5,0,1,0,31.9,49.72a23.28,23.28,0,0,0,13.78-6.56,18.56,18.56,0,0,1-6.34,2.15A18.8,18.8,0,0,1,25.4,41.32Z" fill="#fdd600"/><path d="M38.56,23.83l-2-5-2,5a.5.5,0,0,1-.44.32l-5.37.31L33,27.87a.52.52,0,0,1,.17.52l-1.36,5.2,4.53-2.9a.48.48,0,0,1,.54,0l4.52,2.9L40,28.39a.52.52,0,0,1,.17-.52l4.16-3.41L39,24.15A.53.53,0,0,1,38.56,23.83Z" fill="#fdd600"/><path d="M44.4,22.13a.49.49,0,0,0-.44-.34l-6.33-.37-2.31-5.9a.52.52,0,0,0-.93,0l-2.3,5.9-6.33.37a.51.51,0,0,0-.45.34.5.5,0,0,0,.16.54l4.9,4-1.6,6.13a.5.5,0,0,0,.19.53.48.48,0,0,0,.56,0L34.86,30l5.33,3.42a.56.56,0,0,0,.27.08.47.47,0,0,0,.3-.1.51.51,0,0,0,.19-.53l-1.61-6.13,4.9-4A.48.48,0,0,0,44.4,22.13Zm-5.94,4a.52.52,0,0,0-.17.52l1.37,5.2-4.53-2.9a.48.48,0,0,0-.54,0l-4.53,2.9,1.36-5.2a.5.5,0,0,0-.17-.52l-4.16-3.41,5.37-.31a.5.5,0,0,0,.44-.32l2-5,2,5a.53.53,0,0,0,.44.32l5.37.31Z" fill="#231f20"/><path d="M46.94,38.93a.49.49,0,0,0-.68-.12l-.07,0c-1.43,1-5,3.3-8.71,3.72A17.95,17.95,0,1,1,46.1,10.38a.61.61,0,0,0,.56,0,.5.5,0,0,0,.29-.33.54.54,0,0,0-.09-.43A24.5,24.5,0,1,0,27.45,49.13,24.5,24.5,0,0,0,46.86,39.6.51.51,0,0,0,46.94,38.93ZM30.15,48A23.5,23.5,0,1,1,24.79,1.28a23,23,0,0,1,2.74-.16A23.28,23.28,0,0,1,44,7.9a18.92,18.92,0,1,0-6.4,35.66,18.56,18.56,0,0,0,6.34-2.15A23.28,23.28,0,0,1,30.15,48Z" fill="#231f20"/></g><g id="a80dbf93-6d30-45f5-989f-949e9f29d15d" data-name="LABELS"><text transform="translate(0.52 55.02)" font-size="6" fill="#231f20" font-family="Roboto-Regular, Roboto">islam</text></g></svg>