<svg xmlns="http://www.w3.org/2000/svg" viewBox="0 0 50 50"><g id="f2825bce-ff54-45e7-a028-6cee5968e296" data-name="ICONS"><path d="M44.6,29.6H36.36a5,5,0,0,0-1.93.5.52.52,0,0,1-.47,0,6.12,6.12,0,0,0-2.82-.86H21.52a6.11,6.11,0,0,0-2.79.86.52.52,0,0,1-.47,0,5,5,0,0,0-2-.5H8.07a5.15,5.15,0,0,0-4.88,5.15v2.53H15.24a.5.5,0,0,1,.5.5v.58H37v-.58a.5.5,0,0,1,.5-.5h12V34.75A5.16,5.16,0,0,0,44.6,29.6Z" fill="#fdd600"/><path d="M34.84,25a6.15,6.15,0,1,0-2.19-4.7A6.17,6.17,0,0,0,34.84,25Zm4-9.85a5.15,5.15,0,0,1,3.33,9.08,5.28,5.28,0,0,1-6.65,0,5.15,5.15,0,0,1,3.32-9.08Z" fill="#231f20"/><path d="M42.93,26.85H34.65a6.09,6.09,0,0,0-2.1.49,7.23,7.23,0,0,0-3.07-.87H19.81a7,7,0,0,0-3,.86,6.26,6.26,0,0,0-2.12-.49H6.35A6.15,6.15,0,0,0,.5,33v3a.5.5,0,0,0,.5.5H13.05v.58a.5.5,0,0,0,.5.5H35.76a.5.5,0,0,0,.5-.5v-.58H48.31a.5.5,0,0,0,.5-.5V33A6.16,6.16,0,0,0,42.93,26.85Zm4.88,8.68H36.26v-2A7.08,7.08,0,0,0,33.59,28a5.54,5.54,0,0,1,1.08-.18h8.24A5.15,5.15,0,0,1,47.81,33ZM14.05,36.61v-3a6.1,6.1,0,0,1,5.78-6.1h9.62a6.11,6.11,0,0,1,5.81,6.1v3ZM1.5,33a5.16,5.16,0,0,1,4.88-5.15h8.23a5.72,5.72,0,0,1,1.11.18,7.08,7.08,0,0,0-2.67,5.54v2H1.5Z" fill="#231f20"/><path d="M6.54,25a6.15,6.15,0,1,0-2.18-4.7A6.2,6.2,0,0,0,6.54,25Zm4-9.85a5.15,5.15,0,0,1,3.32,9.08,5.27,5.27,0,0,1-6.64,0A5.1,5.1,0,0,1,5.36,20.3,5.16,5.16,0,0,1,10.51,15.15Z" fill="#231f20"/><path d="M20.08,24.16a7.1,7.1,0,1,0-2.52-5.42A7.1,7.1,0,0,0,20.08,24.16Zm10.68-5.42a6.1,6.1,0,1,1-6.1-6.1A6.09,6.09,0,0,1,30.76,18.74Z" fill="#231f20"/></g><g id="aa3b93ec-c5d4-4cf6-aac4-a25df2ec7691" data-name="LABELS"><text transform="translate(0 55.02)" font-size="6" fill="#231f20" font-family="Roboto-Regular, Roboto">person-th<tspan x="25.32" y="0" letter-spacing="-0.01em">r</tspan><tspan x="27.3" y="0">ee</tspan></text></g></svg>