<svg id="bdc1ae1b-6432-46b9-afd1-028423ba2fb4" data-name="ICONS" xmlns="http://www.w3.org/2000/svg" viewBox="0 0 50 50"><path d="M29,10.48l-.64.63a.51.51,0,0,0,0,.71.5.5,0,0,0,.35.15.51.51,0,0,0,.36-.15l.63-.64a.49.49,0,1,0-.7-.7Z" fill="#fdd600"/><path d="M21.46,10.26a.48.48,0,0,0-.7,0,.5.5,0,0,0,0,.71l.63.63a.51.51,0,0,0,.36.15.5.5,0,0,0,.35-.85Z" fill="#fdd600"/><path d="M25.05,8.53a.5.5,0,0,0-.5.5v.9a.5.5,0,1,0,1,0V9A.5.5,0,0,0,25.05,8.53Z" fill="#fdd600"/><path d="M42.93,4.42H10.57a2.51,2.51,0,0,0-2.5,2.5l2,39.64A2.88,2.88,0,0,0,13,49.08H40.33c1.4,0,3.1-1.15,3.1-2.5l2-39.69A2.5,2.5,0,0,0,42.93,4.42ZM25.51,15.7V13.24a.5.5,0,0,0-.5-.5h0a.49.49,0,0,0-.5.49V15.7H15.89c.24-5.37,4.28-9.65,9.2-9.65s9,4.28,9.21,9.64Z" fill="#fdd600"/><path d="M25.09,5.05c-5.63,0-10.21,5-10.21,11.15a.5.5,0,0,0,.5.5H34.81a.51.51,0,0,0,.5-.5C35.31,10,30.73,5.05,25.09,5.05Zm.42,10.65V13.24a.5.5,0,0,0-.5-.5h0a.49.49,0,0,0-.5.49V15.7H15.89c.24-5.37,4.28-9.65,9.2-9.65s9,4.28,9.21,9.64Z" fill="#231f20"/><path d="M25.05,8.53a.5.5,0,0,0-.5.5v.9a.5.5,0,1,0,1,0V9A.5.5,0,0,0,25.05,8.53Z" fill="#231f20"/><path d="M21.46,10.26a.48.48,0,0,0-.7,0,.5.5,0,0,0,0,.71l.63.63a.51.51,0,0,0,.36.15.5.5,0,0,0,.35-.85Z" fill="#231f20"/><path d="M29,10.48l-.64.63a.51.51,0,0,0,0,.71.5.5,0,0,0,.35.15.51.51,0,0,0,.36-.15l.63-.64a.49.49,0,1,0-.7-.7Z" fill="#231f20"/><path d="M41.18,1.67H8.82a3.51,3.51,0,0,0-3.5,3.52l2,39.64c0,2,2.06,3.5,3.91,3.5H38.58c1.9,0,4.1-1.53,4.1-3.47l2-39.69A3.5,3.5,0,0,0,41.18,1.67Zm.5,43.16c0,1.35-1.7,2.5-3.1,2.5H11.23a2.88,2.88,0,0,1-2.91-2.52l-2-39.64a2.51,2.51,0,0,1,2.5-2.5H41.18a2.5,2.5,0,0,1,2.5,2.47Z" fill="#231f20"/></svg>