<svg xmlns="http://www.w3.org/2000/svg" viewBox="0 0 50 50"><g id="af21d099-23db-4d03-bedd-28141ce5340c" data-name="ICONS"><path d="M15.06,17.71a22.47,22.47,0,0,1,1.83-8.9A21.66,21.66,0,1,0,46.3,38.68a22.31,22.31,0,0,1-8.56,1.7A22.7,22.7,0,0,1,15.06,17.71Z" fill="#fdd600"/><path d="M46.32,35.76a.49.49,0,0,0-.58-.1,21.44,21.44,0,0,1-9.5,2.22A21.7,21.7,0,0,1,14.56,16.21a21.45,21.45,0,0,1,2.37-9.82.5.5,0,0,0-.09-.58.52.52,0,0,0-.58-.1A22.66,22.66,0,1,0,46.41,36.33.49.49,0,0,0,46.32,35.76Zm-20.11,12A21.66,21.66,0,0,1,15.39,7.31a22.47,22.47,0,0,0-1.83,8.9A22.7,22.7,0,0,0,36.24,38.88a22.31,22.31,0,0,0,8.56-1.7A21.57,21.57,0,0,1,26.21,47.74Z" fill="#231f20"/><path d="M30.49,31.23h8.69a.12.12,0,0,0,.12-.12V29.58a.12.12,0,0,0-.12-.13H33L39,21.57a.11.11,0,0,0,0-.08V20.17a.13.13,0,0,0-.13-.13H30.58a.13.13,0,0,0-.12.13v1.55a.12.12,0,0,0,.12.12h5.7l-5.89,7.82a.14.14,0,0,0,0,.07v1.38A.12.12,0,0,0,30.49,31.23Z" fill="#231f20"/><path d="M22.33,17h6.13a.13.13,0,0,0,.13-.13V15.79a.12.12,0,0,0-.13-.12H24.19l4.16-5.51a.19.19,0,0,0,0-.08V9.15A.12.12,0,0,0,28.25,9H22.39a.12.12,0,0,0-.12.13v1.09a.12.12,0,0,0,.12.12h3.95l-4.11,5.47a.09.09,0,0,0,0,.07v1A.13.13,0,0,0,22.33,17Z" fill="#231f20"/><path d="M32.26,7.64h5.27a.12.12,0,0,0,.13-.12V6.59a.12.12,0,0,0-.13-.12H33.9l3.55-4.71a.14.14,0,0,0,0-.07V.89a.12.12,0,0,0-.12-.13h-5a.13.13,0,0,0-.13.13v.93a.13.13,0,0,0,.13.13h3.35L32.16,6.61a.19.19,0,0,0,0,.08v.83A.12.12,0,0,0,32.26,7.64Z" fill="#231f20"/></g><g id="ba043983-4455-4fa9-a20d-c75c6bb4b8cd" data-name="LABELS"><text transform="translate(0.27 55.01)" font-size="6" fill="#231f20" font-family="Roboto-Regular, Roboto">sleep</text></g></svg>