<svg xmlns="http://www.w3.org/2000/svg" viewBox="0 0 612 792"><g id="bcdd0f36-f2d9-4248-982b-b04745b6515f" data-name="ICONS"><polygon points="258.36 370.08 247.9 370.08 242.68 379.13 242.9 379.52 247.9 388.18 258.3 388.18 263.56 379.07 258.36 370.08" fill="#fdd600"/><path d="M317.61,221.89l-4.19,3.43,11.27,13.79a2.7,2.7,0,0,0,4.43-.34l22.41-38.32-4.67-2.73-20.08,34.34a.5.5,0,0,1-.81.06Z" fill="#fdd600"/><path d="M350.72,198.09,348,196.47l-2.76-1.62a.57.57,0,0,0-.38,0,.56.56,0,0,0-.31.23l-20,34.15-8.21-10.06a.52.52,0,0,0-.71-.07l-5,4.06a.48.48,0,0,0-.18.34.52.52,0,0,0,.11.36L322.17,238a3.69,3.69,0,0,0,2.87,1.36h.29a3.73,3.73,0,0,0,2.91-1.83l22.66-38.75A.5.5,0,0,0,350.72,198.09ZM325,230.31,345.11,196l4.67,2.73L327.37,237a2.7,2.7,0,0,1-4.43.34l-11.27-13.79,4.19-3.43,8.36,10.23a.5.5,0,0,0,.81-.06Z" fill="#231f20"/><path d="M111,388.28a2.81,2.81,0,0,0,1.44-1.64,2.87,2.87,0,0,0-.14-2.17l-1.1-2.23c-.43-.88-.76-1.32-1.36-1.49a5.34,5.34,0,0,1-.39.44,3.52,3.52,0,0,1-2.36.91h-.16l-1.2-.05a2.85,2.85,0,0,0-.37,3.06l1.1,2.23a2.85,2.85,0,0,0,3.81,1.3Z" fill="#fdd600"/><path d="M107,381.1a2.43,2.43,0,0,0,1.79-.65,2.47,2.47,0,0,0,.82-1.73l.14-3.18a2.5,2.5,0,0,0-2.38-2.61l-1.51-.07h-.12a2.49,2.49,0,0,0-2.49,2.38l-.15,3.18a2.51,2.51,0,0,0,2.39,2.61Z" fill="#fdd600"/><path d="M117.56,365.17a3,3,0,1,0-3-3A3,3,0,0,0,117.56,365.17Z" fill="#fdd600"/><path d="M102.77,392.29a2.29,2.29,0,1,0,2.28,2.28A2.29,2.29,0,0,0,102.77,392.29Z" fill="#fdd600"/><path d="M115.46,389.19a2.48,2.48,0,0,0-1.71-.85h-.18a2.44,2.44,0,0,0-1.63.61l-1.14,1a2.52,2.52,0,0,0-.25,3.53l2.09,2.4a2.52,2.52,0,0,0,1.72.85,2.44,2.44,0,0,0,1.81-.61l1.14-1a2.5,2.5,0,0,0,.24-3.53Z" fill="#fdd600"/><path d="M141.26,379.77a2.59,2.59,0,0,0-.42-.39,3.84,3.84,0,0,1-2,.58H138a3.87,3.87,0,0,1-1.08-.17l-.31.25a2.87,2.87,0,0,0-.26,4l1.63,1.87a2.86,2.86,0,0,0,4,.28l.61-.54a2.85,2.85,0,0,0,.28-4Z" fill="#fdd600"/><path d="M138,379h.82a2.86,2.86,0,0,0,2.85-2.85v-2.48a2.86,2.86,0,0,0-2.37-2.8,3.41,3.41,0,0,1-1,.47h0l-1.46.42a3.47,3.47,0,0,1-1,.13h-.12a2.27,2.27,0,0,0-.62,1.79v2.48A2.85,2.85,0,0,0,138,379Z" fill="#fdd600"/><path d="M134.07,361.93l.57-.16a.43.43,0,0,1,0-.19,2.82,2.82,0,0,0-.41-3.12l-1.63-1.87a2.85,2.85,0,0,0-4-.28l-.61.54a2.84,2.84,0,0,0-.28,4l1.64,1.88a2.57,2.57,0,0,0,2.56,1,.76.76,0,0,1,0-.11A3.5,3.5,0,0,1,134.07,361.93Z" fill="#fdd600"/><path d="M136.6,370.76l1.45-.42a2.46,2.46,0,0,0,1.49-1.19,2.43,2.43,0,0,0,.22-1.9l-.87-3.06a2.51,2.51,0,0,0-2.41-1.81,2.4,2.4,0,0,0-.69.1l-1.45.41a2.48,2.48,0,0,0-1.49,1.2s0,.05,0,.07a.42.42,0,0,1-.12.28,2.49,2.49,0,0,0-.06,1.55l.88,3.05A2.49,2.49,0,0,0,136.6,370.76Z" fill="#fdd600"/><path d="M130.7,385.26a3,3,0,0,0-.89-.13,3,3,0,0,0-2.67,4.44,3,3,0,0,0,1.79,1.48,3.06,3.06,0,0,0,2.3-.22,3,3,0,0,0,1.25-4.09A3,3,0,0,0,130.7,385.26Z" fill="#fdd600"/><path d="M142.73,351.86a2.29,2.29,0,1,0,2.29,2.28A2.29,2.29,0,0,0,142.73,351.86Z" fill="#fdd600"/><path d="M107.06,357a2.91,2.91,0,1,0-2.91-2.91A2.92,2.92,0,0,0,107.06,357Zm0-4.82a1.91,1.91,0,1,1-1.91,1.91A1.91,1.91,0,0,1,107.06,352.22Z" fill="#231f20"/><path d="M138.67,389a3.1,3.1,0,1,0,3.1,3.1A3.1,3.1,0,0,0,138.67,389Zm0,5.2a2.1,2.1,0,1,1,2.1-2.1A2.11,2.11,0,0,1,138.67,394.19Z" fill="#231f20"/><path d="M101,389.54a3.29,3.29,0,1,0,3.28,3.28A3.29,3.29,0,0,0,101,389.54Zm0,5.57a2.29,2.29,0,1,1,2.28-2.29A2.3,2.3,0,0,1,101,395.11Z" fill="#231f20"/><path d="M141,349.11a3.29,3.29,0,1,0,3.29,3.28A3.28,3.28,0,0,0,141,349.11Zm0,5.57a2.29,2.29,0,1,1,2.29-2.29A2.29,2.29,0,0,1,141,354.68Z" fill="#231f20"/><path d="M140.27,377.36a2.71,2.71,0,0,0-.4-.36,3.85,3.85,0,0,0,1.06-2.64v-2.48a3.88,3.88,0,0,0-2.53-3.61,3.46,3.46,0,0,0,.57-3l-.87-3.06a3.49,3.49,0,0,0-4-2.45,3.85,3.85,0,0,0-.77-3.66l-1.64-1.87a3.84,3.84,0,0,0-5.42-.37l-.62.53a3.85,3.85,0,0,0-1.31,2.64,3.79,3.79,0,0,0,.94,2.79l1.63,1.88a3.72,3.72,0,0,0,2.79,1.38l.18,0a3.46,3.46,0,0,0,.09,1.5l.87,3.06a3.48,3.48,0,0,0,1.67,2.09,3.19,3.19,0,0,0,.48.19,3.43,3.43,0,0,0-.52,2v2.48a3.84,3.84,0,0,0,1.75,3.22,3.85,3.85,0,0,0-.32,5.37l1.64,1.88a3.83,3.83,0,0,0,5.42.37l.62-.54a3.84,3.84,0,0,0,.37-5.42ZM127.62,361,126,359.11a2.84,2.84,0,0,1,.28-4l.61-.54a2.85,2.85,0,0,1,4,.28l1.63,1.87a2.82,2.82,0,0,1,.41,3.12.43.43,0,0,0,0,.19l-.57.16a3.5,3.5,0,0,0-2.1,1.67.76.76,0,0,0,0,.11A2.57,2.57,0,0,1,127.62,361Zm4.14,6.3-.88-3.05a2.49,2.49,0,0,1,.06-1.55.42.42,0,0,0,.12-.28s0-.05,0-.07a2.48,2.48,0,0,1,1.49-1.2l1.45-.41a2.4,2.4,0,0,1,.69-.1,2.52,2.52,0,0,1,2.41,1.81l.87,3.06a2.43,2.43,0,0,1-.22,1.9,2.46,2.46,0,0,1-1.49,1.19l-1.45.42A2.49,2.49,0,0,1,131.76,367.29Zm1.66,7.07v-2.48a2.27,2.27,0,0,1,.62-1.79h.12a3.47,3.47,0,0,0,1-.13l1.46-.42h0a3.41,3.41,0,0,0,1-.47,2.86,2.86,0,0,1,2.37,2.8v2.48a2.86,2.86,0,0,1-2.85,2.85h-.82A2.85,2.85,0,0,1,133.42,374.36Zm7.45,9.55-.61.54a2.86,2.86,0,0,1-4-.28l-1.63-1.87a2.87,2.87,0,0,1,.26-4l.31-.25a3.87,3.87,0,0,0,1.08.17h.82a3.84,3.84,0,0,0,2-.58,2.59,2.59,0,0,1,.42.39l1.64,1.87A2.85,2.85,0,0,1,140.87,383.91Z" fill="#231f20"/><path d="M114.47,386.78a3.47,3.47,0,0,0-2.4-1.18,3.1,3.1,0,0,0-.61,0,2,2,0,0,0,.18-.39,3.8,3.8,0,0,0-.18-2.94l-1.1-2.23a3.43,3.43,0,0,0-1.76-1.95,3.33,3.33,0,0,0,.25-1.09l.14-3.17a3.51,3.51,0,0,0-3.34-3.66l-1.51-.07a3.52,3.52,0,0,0-3.65,3.34l-.15,3.18a3.5,3.5,0,0,0,2.54,3.51,3.89,3.89,0,0,0-.16,3.66l1.1,2.24a3.87,3.87,0,0,0,3.46,2.14,4.57,4.57,0,0,0,.52-.05,3.42,3.42,0,0,0-.6,1.71,3.52,3.52,0,0,0,.85,2.54l2.09,2.39a3.42,3.42,0,0,0,2.4,1.19h.25a3.47,3.47,0,0,0,2.29-.86l1.14-1h0a3.52,3.52,0,0,0,.34-4.94Zm-13.13-10.11.15-3.18a2.49,2.49,0,0,1,2.49-2.38h.12l1.51.07a2.5,2.5,0,0,1,2.38,2.61l-.14,3.18a2.47,2.47,0,0,1-.82,1.73,2.43,2.43,0,0,1-1.79.65l-1.51-.07a2.51,2.51,0,0,1-2.39-2.61Zm3.38,8.93-1.1-2.24a2.85,2.85,0,0,1,.37-3.06l1.2.05h.16a3.52,3.52,0,0,0,2.36-.91,5.34,5.34,0,0,0,.39-.44c.6.17.93.61,1.36,1.49l1.1,2.23a2.87,2.87,0,0,1,.14,2.17,2.81,2.81,0,0,1-1.44,1.64l-.73.36A2.85,2.85,0,0,1,104.72,385.6Zm10.84,7.77-1.14,1a2.44,2.44,0,0,1-1.81.61,2.52,2.52,0,0,1-1.72-.85l-2.09-2.4a2.52,2.52,0,0,1,.25-3.53l1.14-1a2.44,2.44,0,0,1,1.63-.61H112a2.48,2.48,0,0,1,1.71.85l2.09,2.4A2.5,2.5,0,0,1,115.56,393.37Z" fill="#231f20"/><path d="M103.82,365a2.58,2.58,0,1,0-2.58-2.58A2.59,2.59,0,0,0,103.82,365Zm0-4.16a1.58,1.58,0,1,1-1.58,1.58A1.58,1.58,0,0,1,103.82,360.88Z" fill="#231f20"/><path d="M113.18,371.48a2.64,2.64,0,1,0-2.64-2.64A2.64,2.64,0,0,0,113.18,371.48Zm0-4.28a1.64,1.64,0,1,1-1.64,1.64A1.64,1.64,0,0,1,113.18,367.2Z" fill="#231f20"/><path d="M115.81,364.42a4,4,0,1,0-4-4A4,4,0,0,0,115.81,364.42Zm0-7.05a3,3,0,1,1-3,3A3,3,0,0,1,115.81,357.37Z" fill="#231f20"/><path d="M125.1,365.85a2.65,2.65,0,1,0-2.64,2.64A2.64,2.64,0,0,0,125.1,365.85Zm-2.64,1.64a1.64,1.64,0,1,1,1.64-1.64A1.64,1.64,0,0,1,122.46,367.49Z" fill="#231f20"/><path d="M125.66,380.24a2.53,2.53,0,0,0,.77.12,2.71,2.71,0,0,0,1.24-.31,2.66,2.66,0,0,0,1.29-1.56,2.61,2.61,0,0,0-.2-2A2.64,2.64,0,1,0,124.1,379,2.6,2.6,0,0,0,125.66,380.24Zm0-4a1.65,1.65,0,0,1,.77-.19,1.63,1.63,0,0,1,1.45.88,1.6,1.6,0,0,1,.12,1.25,1.63,1.63,0,0,1-2,1.08,1.61,1.61,0,0,1-1-.8A1.65,1.65,0,0,1,125.66,376.26Z" fill="#231f20"/><path d="M129.24,382.56a4,4,0,0,0-3.06.29,4,4,0,0,0-1.67,5.44,4,4,0,0,0,2.37,2,4,4,0,0,0,4.74-5.73A4,4,0,0,0,129.24,382.56Zm.24,6.52a3.06,3.06,0,0,1-2.3.22,3,3,0,0,1-1.79-1.48,3,3,0,0,1,2.67-4.44,3,3,0,0,1,1.42,5.7Z" fill="#231f20"/><path d="M118.4,382.37a2.64,2.64,0,1,0,2.48,4.67,2.66,2.66,0,0,0,1.09-3.58A2.65,2.65,0,0,0,118.4,382.37Zm2.81,2.81a1.61,1.61,0,0,1-.8,1,1.64,1.64,0,1,1,.8-1Z" fill="#231f20"/><path d="M325.41,291.52v.25c0,1.42,1.18,3.25,2.44,3.25l6.71-.81a2.46,2.46,0,0,0,2.49-2.44v-.25a.5.5,0,0,1,.5-.5h.89a1.14,1.14,0,0,0,1.13-1.13v-.22a2.2,2.2,0,0,0-.09-.87s-.08,0-.23,0h-1.7a.51.51,0,0,1-.5-.5V288c0-.44,0-1.62-2.43-1.62l-6.83-.82a2.44,2.44,0,0,0-2.38,2.44v.25a.5.5,0,0,1-.5.5H322.8a.43.43,0,0,0-.23,0,2.06,2.06,0,0,0-.08.87v.22a1.13,1.13,0,0,0,1.13,1.13h1.29A.5.5,0,0,1,325.41,291.52Z" fill="#fdd600"/><path d="M324.75,278.61s.08.05.23.05h1.29a.5.5,0,0,1,.5.5v.24a2.44,2.44,0,0,0,2.44,2.44l6,.82c1.35,0,3.18-1.19,3.18-2.44V280a.51.51,0,0,1,.5-.5h1.7a.48.48,0,0,0,.23,0,2.2,2.2,0,0,0,.09-.87v-.22a1.14,1.14,0,0,0-1.14-1.13h-.88a.5.5,0,0,1-.5-.5v-.25A2.43,2.43,0,0,0,336,274l-.12,0-6.71-1.61c-1.23.05-2.38,1.85-2.38,3.25v.24a.5.5,0,0,1-.5.5H325c-.15,0-.21,0-.23.05a2.14,2.14,0,0,0-.09.86v.45A2.14,2.14,0,0,0,324.75,278.61Z" fill="#fdd600"/><path d="M326.27,304.17a.5.5,0,0,1,.5.5v.25a2.43,2.43,0,0,0,2.44,2.43l6.71-.81c2.49,0,2.49-1.18,2.49-1.62v-.25a.5.5,0,0,1,.5-.5h.88a1.14,1.14,0,0,0,1.14-1.13v-.22a2.17,2.17,0,0,0-.09-.87.4.4,0,0,0-.23,0h-1.7a.51.51,0,0,1-.5-.5v-.25c0-1.42-1.18-3.25-2.43-3.25l-6.71.81a2.46,2.46,0,0,0-2.5,2.44v.25a.5.5,0,0,1-.5.5H325c-.15,0-.21,0-.23,0a2.17,2.17,0,0,0-.09.87v.44a2.14,2.14,0,0,0,.09.86s.08.05.23.05Z" fill="#fdd600"/><path d="M342,314.62l-1.28-.22a.49.49,0,0,1-.4-.58l0-.24a3.93,3.93,0,0,0-.38-2.29,2.25,2.25,0,0,0-1.41-1.32l-6.88.44h-.12a2.44,2.44,0,0,0-2.82,2l0,.24a.56.56,0,0,1-.21.33.54.54,0,0,1-.37.08l-.87-.15-.2,0a1.13,1.13,0,0,0-1.11.94l0,.21a2,2,0,0,0-.06.87s.08.06.22.09l1.67.29a.46.46,0,0,1,.32.2.47.47,0,0,1,.08.38l0,.24a2.23,2.23,0,0,0,.76,1.83,4,4,0,0,0,2,1.13l5.94.21a2.45,2.45,0,0,0,1.88-.4,2.37,2.37,0,0,0,1-1.57l0-.24a.5.5,0,0,1,.2-.33.54.54,0,0,1,.37-.08l1.28.22a.38.38,0,0,0,.23,0,2.18,2.18,0,0,0,.24-.84l.07-.43a2,2,0,0,0,.06-.87S342.16,314.65,342,314.62Z" fill="#fdd600"/><path d="M326.35,278.74a.5.5,0,0,1-.49-.44A9.07,9.07,0,0,1,327,272a.51.51,0,0,1,.7-.11.5.5,0,0,1,.1.7h0a8.38,8.38,0,0,0-1,5.62.5.5,0,0,1-.43.56Z" fill="#231f20"/><path d="M326.26,292.29a.56.56,0,0,1-.32-.11c-1.48-1.23-1.08-5.05-1-5.48a.51.51,0,0,1,.55-.44.52.52,0,0,1,.44.56c-.17,1.42-.13,3.92.68,4.59a.5.5,0,0,1,.07.7A.51.51,0,0,1,326.26,292.29Z" fill="#231f20"/><path d="M327.44,303.61a.49.49,0,0,1-.39-.19,5.53,5.53,0,0,1-.69-3.79.5.5,0,0,1,.57-.42.51.51,0,0,1,.41.58,4.66,4.66,0,0,0,.5,3,.5.5,0,0,1-.09.7A.45.45,0,0,1,327.44,303.61Z" fill="#231f20"/><path d="M326.15,294.26h0l6.71-.81a3.44,3.44,0,0,0,3.43-3.18h.39a2.14,2.14,0,0,0,2.13-2.13v-.21a2.11,2.11,0,0,0-.38-1.58,1.25,1.25,0,0,0-.94-.34h-1.21c-.08-1-.67-2.37-3.35-2.37h0l-6.83-.81a3.44,3.44,0,0,0-3.43,3.18h-1.62a1.26,1.26,0,0,0-.94.34,2.12,2.12,0,0,0-.37,1.58v.21a2.13,2.13,0,0,0,2.13,2.13h.8C322.79,292.14,324.28,294.26,326.15,294.26Zm-5.41-6.12v-.22a2.06,2.06,0,0,1,.08-.87.43.43,0,0,1,.23,0h2.11a.5.5,0,0,0,.5-.5v-.25a2.44,2.44,0,0,1,2.38-2.44l6.83.82c2.43,0,2.43,1.18,2.43,1.62v.25a.51.51,0,0,0,.5.5h1.7c.15,0,.21,0,.23,0a2.2,2.2,0,0,1,.09.87v.22a1.14,1.14,0,0,1-1.13,1.13h-.89a.5.5,0,0,0-.5.5V290a2.46,2.46,0,0,1-2.49,2.44l-6.71.81c-1.26,0-2.44-1.83-2.44-3.25v-.25a.5.5,0,0,0-.5-.5h-1.29A1.13,1.13,0,0,1,320.74,288.14Z" fill="#231f20"/><path d="M324,303.42a3.46,3.46,0,0,0,3.48,3.18h0l6.71-.81c2.74,0,3.34-1.39,3.42-2.37H338a2.14,2.14,0,0,0,2.14-2.13v-.22a2.09,2.09,0,0,0-.38-1.57,1.25,1.25,0,0,0-.94-.34h-1.2c-.13-1.87-1.58-4-3.49-4l-6.71.81a3.45,3.45,0,0,0-3.43,3.19h-.8a1.25,1.25,0,0,0-.94.34,2.09,2.09,0,0,0-.38,1.57v.43a2.12,2.12,0,0,0,.38,1.58,1.29,1.29,0,0,0,.94.34Zm-1.12-1.91v-.44a2.17,2.17,0,0,1,.09-.87s.08,0,.23,0h1.29a.5.5,0,0,0,.5-.5v-.25a2.46,2.46,0,0,1,2.5-2.44l6.71-.81c1.25,0,2.43,1.83,2.43,3.25v.25a.51.51,0,0,0,.5.5h1.7a.4.4,0,0,1,.23,0,2.17,2.17,0,0,1,.09.87v.22a1.14,1.14,0,0,1-1.14,1.13h-.88a.5.5,0,0,0-.5.5v.25c0,.44,0,1.62-2.49,1.62l-6.71.81a2.43,2.43,0,0,1-2.44-2.43v-.25a.5.5,0,0,0-.5-.5h-1.29c-.15,0-.21,0-.23-.05A2.14,2.14,0,0,1,322.91,301.51Z" fill="#231f20"/><path d="M322.29,277.57a1.29,1.29,0,0,0,.94.34h.8a3.42,3.42,0,0,0,3.35,3.18h0l6,.82c1.84,0,4-1.4,4.24-3.19h1.21a1.25,1.25,0,0,0,.94-.34,2.11,2.11,0,0,0,.38-1.58v-.21a2.14,2.14,0,0,0-2.14-2.13h-.39a3.43,3.43,0,0,0-3.36-3.18l-6.72-1.62h-.11c-1.82,0-3.31,2.12-3.43,4h-.8a1.29,1.29,0,0,0-.94.34,2.12,2.12,0,0,0-.38,1.58V276A2.12,2.12,0,0,0,322.29,277.57Zm.62-2a2.14,2.14,0,0,1,.09-.86s.08-.05.23-.05h1.29a.5.5,0,0,0,.5-.5v-.24c0-1.4,1.15-3.2,2.38-3.25l6.71,1.61.12,0a2.43,2.43,0,0,1,2.43,2.43V275a.5.5,0,0,0,.5.5H338a1.14,1.14,0,0,1,1.14,1.13v.22a2.2,2.2,0,0,1-.09.87.48.48,0,0,1-.23,0h-1.7a.51.51,0,0,0-.5.5v.25c0,1.25-1.83,2.44-3.18,2.44l-6-.82a2.44,2.44,0,0,1-2.44-2.44v-.24a.5.5,0,0,0-.5-.5h-1.29c-.15,0-.21,0-.23-.05a2.14,2.14,0,0,1-.09-.86v-.45Z" fill="#231f20"/><path d="M341.31,312.39a1.28,1.28,0,0,0-.87-.5l-.79-.14a5,5,0,0,0-.5-2.65,3.15,3.15,0,0,0-2.19-1.88.48.48,0,0,0-.12,0l-6.89.43a3.46,3.46,0,0,0-2.51.59,3.4,3.4,0,0,0-1.35,2l-.39-.07a2.14,2.14,0,0,0-1.59.36,2,2,0,0,0-.87,1.37l0,.21a2.08,2.08,0,0,0,.1,1.62,1.27,1.27,0,0,0,.86.5l1.2.21a3.23,3.23,0,0,0,1.05,2.44,4.93,4.93,0,0,0,2.64,1.43l5.94.22a4,4,0,0,0,.6.05,3.46,3.46,0,0,0,3.33-2.6l.78.14a1.25,1.25,0,0,0,1-.18,2.07,2.07,0,0,0,.64-1.49l.08-.41A2.12,2.12,0,0,0,341.31,312.39Zm-.89,1.44-.07.43a2.18,2.18,0,0,1-.24.84.38.38,0,0,1-.23,0l-1.28-.22a.54.54,0,0,0-.37.08.5.5,0,0,0-.2.33l0,.24a2.37,2.37,0,0,1-1,1.57,2.45,2.45,0,0,1-1.88.4l-5.94-.21a4,4,0,0,1-2-1.13,2.23,2.23,0,0,1-.76-1.83l0-.24a.47.47,0,0,0-.08-.38.46.46,0,0,0-.32-.2l-1.67-.29c-.14,0-.2-.06-.22-.09a2,2,0,0,1,.06-.87l0-.21a1.13,1.13,0,0,1,1.11-.94l.2,0,.87.15a.54.54,0,0,0,.37-.08.56.56,0,0,0,.21-.33l0-.24a2.44,2.44,0,0,1,2.82-2H330l6.88-.44a2.25,2.25,0,0,1,1.41,1.32,3.93,3.93,0,0,1,.38,2.29l0,.24a.49.49,0,0,0,.4.58l1.28.22c.14,0,.2.07.21.09A2,2,0,0,1,340.42,313.83Z" fill="#231f20"/><path d="M328.85,316.56a.51.51,0,0,1-.45-.28,9.12,9.12,0,0,1-.07-6.45.5.5,0,0,1,.95.29,8.34,8.34,0,0,0,0,5.71.5.5,0,0,1-.22.67A.46.46,0,0,1,328.85,316.56Z" fill="#231f20"/><path d="M488.37,299.88l.21-.27c1.92-2.54,2.22-7.89,2.44-11.79.05-1,.1-1.82.17-2.54a1.23,1.23,0,0,0-.89-1.39h-.1a1.11,1.11,0,0,0-1,1.11c-.08.86-.16,1.73-.23,2.57-.51,5.73-.87,9.31-1.92,10.49l-.34.39-.38-.37a3.8,3.8,0,0,0-.35-.29c-.58-.44-1-.83-2.27-3.63a40.44,40.44,0,0,1-2.67-9.58,1.16,1.16,0,0,0-1-1.29,1.15,1.15,0,0,0-1,1.26c0,1.75,1.89,8.6,2.85,10.69a11.32,11.32,0,0,0,2.1,3.56l.46.55.26.31-.24.32c-2,2.55-2.4,7.71-2.66,10.8-.07.79-.13,1.48-.2,2a1.26,1.26,0,0,0,.84,1.45.78.78,0,0,0,.62-.14,1.27,1.27,0,0,0,.5-.88c.12-.87.23-1.77.34-2.66.53-4.23,1-7.89,2.18-9.12l.42-.44.34.5c1.2,1.7,2.72,7.74,3.46,13.76a1.29,1.29,0,0,0,.48.89.84.84,0,0,0,.63.16,1.26,1.26,0,0,0,.85-1.43c-.39-3.21-1.55-11-3.76-14.67Z" fill="#fdd600"/><path d="M464.79,296.52l-.32-.33.31-.35c4.11-4.59,6-14.78,6.51-17.8a1.94,1.94,0,0,0-.34-1.44,1.93,1.93,0,0,0-3.47.82c-1,6.34-3.5,14.15-5.87,16.24l-.39.34-.33-.4c-1.45-1.76-2.06-6.72-2.83-13-.25-2.06-.51-4.19-.82-6.33a1.91,1.91,0,0,0-.75-1.27,1.88,1.88,0,0,0-1.43-.36,1.93,1.93,0,0,0-1.64,2.18c.17,1.19.3,2.66.44,4.36.45,5.32,1.07,12.6,3.77,16.35l.23.33-.26.3c-3.55,4-4.45,12.9-5,18.22-.06.62-.12,1.2-.18,1.72a1.94,1.94,0,0,0,1.71,2.13h.21a1.93,1.93,0,0,0,1.92-1.72c1.13-10.29,2.58-16.36,4.3-18l.33-.31.34.29c1,.8,3.05,3,6.05,8.49a57.85,57.85,0,0,1,4.18,9.63l.12.37c.48,1.25,1,2.09,2,2.09a1.93,1.93,0,0,0,1.93-1.93c0-2.27-2.79-8.28-4.67-11.76A40.76,40.76,0,0,0,464.79,296.52Z" fill="#fdd600"/><path d="M464.07,294.41c4-4.78,5.83-14.1,6.46-18a2.92,2.92,0,0,0-.52-2.18,2.92,2.92,0,0,0-4.08-.67,2.94,2.94,0,0,0-1.19,1.91c-1,6.33-3.3,13-5.14,15.23-1.07-2-1.67-6.87-2.29-12-.26-2.07-.52-4.21-.83-6.35a2.91,2.91,0,0,0-3.31-2.48,2.94,2.94,0,0,0-2.49,3.31c.17,1.16.29,2.62.44,4.31.45,5.29,1.05,12.48,3.73,16.52-3.56,4.36-4.44,13.17-5,18.49-.07.62-.13,1.2-.18,1.71a2.93,2.93,0,1,0,5.82.64c1-9.12,2.31-15.11,3.71-17.05.94.89,2.82,3.06,5.44,7.88a56.29,56.29,0,0,1,4.11,9.47l.13.39c.34.9,1,2.75,2.9,2.75a2.93,2.93,0,0,0,2.93-2.93c0-3.31-4.59-11.87-4.79-12.23A42.89,42.89,0,0,0,464.07,294.41Zm7.74,22.91c-1,0-1.48-.84-2-2.09l-.12-.37a57.85,57.85,0,0,0-4.18-9.63c-3-5.52-5.08-7.69-6.05-8.49l-.34-.29-.33.31c-1.72,1.65-3.17,7.72-4.3,18a1.93,1.93,0,0,1-1.92,1.72h-.21a1.94,1.94,0,0,1-1.71-2.13c.06-.52.12-1.1.18-1.72.53-5.32,1.43-14.22,5-18.22l.26-.3-.23-.33c-2.7-3.75-3.32-11-3.77-16.35-.14-1.7-.27-3.17-.44-4.36a1.93,1.93,0,0,1,1.64-2.18,1.88,1.88,0,0,1,1.43.36,1.91,1.91,0,0,1,.75,1.27c.31,2.14.57,4.27.82,6.33.77,6.28,1.38,11.24,2.83,13l.33.4.39-.34c2.37-2.09,4.84-9.9,5.87-16.24a1.91,1.91,0,0,1,.78-1.26,1.95,1.95,0,0,1,2.69.44,1.94,1.94,0,0,1,.34,1.44c-.49,3-2.4,13.21-6.51,17.8l-.31.35.32.33a40.76,40.76,0,0,1,6,8.86c1.88,3.49,4.67,9.49,4.67,11.76A1.93,1.93,0,0,1,471.81,317.32Z" fill="#231f20"/><path d="M491.55,313c-.48-4-1.6-11-3.73-14.78,1.93-2.87,2.23-8.16,2.45-12.06.05-.94.1-1.8.17-2.51a2.22,2.22,0,0,0-1.75-2.47,2.06,2.06,0,0,0-2.22,2c-.08.86-.15,1.73-.23,2.57-.34,3.93-.7,8-1.41,9.5-.37-.29-.72-.59-1.95-3.24a40.09,40.09,0,0,1-2.57-9.19,2,2,0,1,0-4,0c0,1.93,1.9,8.84,2.94,11.11h0a12.24,12.24,0,0,0,2.25,3.79l.21.25c-1.93,2.85-2.35,7.72-2.63,11-.06.78-.12,1.44-.19,1.93a2.25,2.25,0,0,0,1.64,2.57,1.77,1.77,0,0,0,1.4-.31,2.31,2.31,0,0,0,.9-1.56c.12-.87.23-1.77.34-2.66.38-3,.81-6.4,1.51-7.93.95,2,2.21,6.94,2.91,12.62a2.3,2.3,0,0,0,.87,1.57,1.87,1.87,0,0,0,1.1.37l.3,0A2.23,2.23,0,0,0,491.55,313Zm-1.84,1.55a.84.84,0,0,1-.63-.16,1.29,1.29,0,0,1-.48-.89c-.74-6-2.26-12.06-3.46-13.76l-.34-.5-.42.44c-1.19,1.23-1.65,4.89-2.18,9.12-.11.89-.22,1.79-.34,2.66a1.27,1.27,0,0,1-.5.88.78.78,0,0,1-.62.14,1.26,1.26,0,0,1-.84-1.45c.07-.5.13-1.19.2-2,.26-3.09.7-8.25,2.66-10.8l.24-.32-.26-.31-.46-.55a11.32,11.32,0,0,1-2.1-3.56c-1-2.09-2.85-8.94-2.85-10.69a1.15,1.15,0,0,1,1-1.26,1.16,1.16,0,0,1,1,1.29A40.44,40.44,0,0,0,482,292.4c1.29,2.8,1.69,3.19,2.27,3.63a3.8,3.8,0,0,1,.35.29l.38.37.34-.39c1.05-1.18,1.41-4.76,1.92-10.49.07-.84.15-1.71.23-2.57a1.11,1.11,0,0,1,1-1.11h.1a1.23,1.23,0,0,1,.89,1.39c-.07.72-.12,1.59-.17,2.54-.22,3.9-.52,9.25-2.44,11.79l-.21.27.18.29c2.21,3.62,3.37,11.46,3.76,14.67A1.26,1.26,0,0,1,489.71,314.52Z" fill="#231f20"/><path d="M495.34,374a23,23,0,1,0-23,23A23,23,0,0,0,495.34,374Z" fill="#fdd600"/><path d="M470.63,348.27a24,24,0,1,0,24,24A24,24,0,0,0,470.63,348.27Zm0,46.93a23,23,0,1,1,23-23A23,23,0,0,1,470.63,395.2Z" fill="#231f20"/><path d="M464.48,355.12a19,19,0,0,1,12.81.49l.18,0a.5.5,0,0,0,.19-1,20.07,20.07,0,0,0-13.48-.51.51.51,0,0,0-.33.63A.5.5,0,0,0,464.48,355.12Z" fill="#231f20"/><path d="M471,361a18.11,18.11,0,0,0-15.19,8.42.5.5,0,0,0,.15.69.53.53,0,0,0,.27.08.51.51,0,0,0,.42-.23,16.9,16.9,0,0,1,28.5-.29.5.5,0,0,0,.83-.56A18.13,18.13,0,0,0,471,361Z" fill="#231f20"/><path d="M460.15,361.1a.51.51,0,0,0,.28-.09,18.11,18.11,0,0,1,20.38-.12.5.5,0,0,0,.7-.13.51.51,0,0,0-.14-.7,19.11,19.11,0,0,0-21.51.13.5.5,0,0,0,.29.91Z" fill="#231f20"/><path d="M475.23,389.89c-8.61-1.41-8.93-11.05-8.94-11.45a3.91,3.91,0,0,1,7.81,0s0,0,0,.06a4.91,4.91,0,0,0,4.91,4.91,5,5,0,0,0,4.9-4.89,13.75,13.75,0,0,0-3.58-10.16,12.24,12.24,0,0,0-8.77-3.86c-9.85-.16-14.77,7.81-15.14,15.28-.16,3.25,1.28,10.23,7.88,13.44a.41.41,0,0,0,.21.05A.48.48,0,0,0,465,393a.5.5,0,0,0-.23-.67c-6.12-3-7.46-9.47-7.31-12.49.49-10.05,7.44-14.45,14.12-14.33a11.22,11.22,0,0,1,8.06,3.54,12.76,12.76,0,0,1,3.31,9.44,4,4,0,0,1-3.9,3.93,3.91,3.91,0,0,1-3.91-3.89.14.14,0,0,0,0-.06,4.91,4.91,0,1,0-9.82,0c0,.11.34,10.88,9.77,12.43h.09a.5.5,0,0,0,.08-1Z" fill="#231f20"/><path d="M462.35,377.9c.75-5.19,3.24-7.51,8.09-7.51a8.94,8.94,0,0,1,8.67,8.43.51.51,0,0,0,.54.46.5.5,0,0,0,.46-.54,10,10,0,0,0-9.67-9.35c-5.37,0-8.26,2.66-9.08,8.37-.71,5,1,8.89,5.54,12.67a.49.49,0,0,0,.32.12.48.48,0,0,0,.38-.18.49.49,0,0,0-.06-.7C463.29,386.12,461.69,382.5,462.35,377.9Z" fill="#231f20"/><path d="M483.47,384.34a6.77,6.77,0,0,1-5,2.3c-3.94,0-7.15-3.57-7.15-8a7.14,7.14,0,0,1,0-.8.51.51,0,0,0-.46-.54.5.5,0,0,0-.54.45,8.83,8.83,0,0,0,0,.89c0,4.94,3.66,9,8.15,9a7.73,7.73,0,0,0,5.77-2.63.5.5,0,1,0-.74-.67Z" fill="#231f20"/><polygon points="495.74 209.5 495.74 205.9 471.89 205.9 471.64 205.9 449.02 205.9 449.02 218.7 471.12 218.7 471.89 218.7 495.74 218.7 495.74 215.1 471.89 215.1 471.89 209.5 495.74 209.5" fill="#fdd600"/><rect x="449.01" y="224.29" width="46.74" height="3.6" fill="#fdd600"/><path d="M494.49,203.15H446.76a.5.5,0,0,0-.5.5v27.59a.5.5,0,0,0,.5.5h47.73a.5.5,0,0,0,.5-.5V203.65A.5.5,0,0,0,494.49,203.15Zm-23.35,1H494v3.6H471.14Zm22.85,8.2H471.14v-3.6H494Zm0,4.6H471.14v-3.6H494Zm-46.72-12.8h22.87V217H447.27Zm0,13.8H494v3.59H447.26ZM494,226.14H447.26v-3.6H494Zm0,4.6H447.26v-3.6H494Z" fill="#231f20"/><polygon points="449.82 207.62 450.59 207.21 451.36 207.62 451.21 206.76 451.84 206.15 450.98 206.03 450.59 205.25 450.21 206.03 449.35 206.15 449.97 206.76 449.82 207.62" fill="#231f20"/><polygon points="453.94 207.62 454.71 207.21 455.48 207.62 455.33 206.76 455.96 206.15 455.1 206.03 454.71 205.25 454.33 206.03 453.47 206.15 454.09 206.76 453.94 207.62" fill="#231f20"/><polygon points="458.06 207.62 458.83 207.21 459.6 207.62 459.46 206.76 460.08 206.15 459.22 206.03 458.83 205.25 458.45 206.03 457.59 206.15 458.21 206.76 458.06 207.62" fill="#231f20"/><polygon points="462.19 207.62 462.95 207.21 463.72 207.62 463.58 206.76 464.2 206.15 463.34 206.03 462.95 205.25 462.57 206.03 461.71 206.15 462.33 206.76 462.19 207.62" fill="#231f20"/><polygon points="467.07 205.25 466.69 206.03 465.83 206.15 466.45 206.76 466.31 207.62 467.07 207.21 467.84 207.62 467.7 206.76 468.32 206.15 467.46 206.03 467.07 205.25" fill="#231f20"/><polygon points="450.98 214.26 450.59 213.48 450.21 214.26 449.35 214.39 449.97 215 449.82 215.85 450.59 215.45 451.36 215.85 451.21 215 451.84 214.39 450.98 214.26" fill="#231f20"/><polygon points="455.1 214.26 454.71 213.48 454.33 214.26 453.47 214.39 454.09 215 453.94 215.85 454.71 215.45 455.48 215.85 455.33 215 455.96 214.39 455.1 214.26" fill="#231f20"/><polygon points="459.22 214.26 458.83 213.48 458.45 214.26 457.59 214.39 458.21 215 458.06 215.85 458.83 215.45 459.6 215.85 459.46 215 460.08 214.39 459.22 214.26" fill="#231f20"/><polygon points="463.34 214.26 462.95 213.48 462.57 214.26 461.71 214.39 462.33 215 462.19 215.85 462.95 215.45 463.72 215.85 463.58 215 464.2 214.39 463.34 214.26" fill="#231f20"/><polygon points="467.46 214.26 467.07 213.48 466.69 214.26 465.83 214.39 466.45 215 466.31 215.85 467.07 215.45 467.84 215.85 467.7 215 468.32 214.39 467.46 214.26" fill="#231f20"/><polygon points="453.86 210.27 453 210.15 452.61 209.37 452.23 210.15 451.37 210.27 451.99 210.88 451.85 211.74 452.61 211.33 453.38 211.73 453.24 210.88 453.86 210.27" fill="#231f20"/><polygon points="457.98 210.27 457.12 210.15 456.73 209.37 456.35 210.15 455.49 210.27 456.11 210.88 455.97 211.74 456.74 211.33 457.5 211.73 457.36 210.88 457.98 210.27" fill="#231f20"/><polygon points="462.1 210.27 461.24 210.15 460.85 209.37 460.47 210.15 459.61 210.27 460.23 210.88 460.09 211.74 460.86 211.33 461.63 211.73 461.48 210.88 462.1 210.27" fill="#231f20"/><polygon points="466.22 210.27 465.36 210.15 464.97 209.37 464.59 210.15 463.73 210.27 464.35 210.88 464.21 211.74 464.98 211.33 465.75 211.73 465.6 210.88 466.22 210.27" fill="#231f20"/><path d="M196,368.36a8.42,8.42,0,1,0,8.08,8.42A8.26,8.26,0,0,0,196,368.36Zm-3.25,6.08a2.25,2.25,0,1,1,2.25-2.25A2.25,2.25,0,0,1,192.78,374.44Z" fill="#fdd600"/><path d="M172.36,374.36a.92.92,0,1,0,.92.92A.92.92,0,0,0,172.36,374.36Z" fill="#fdd600"/><path d="M174.86,353.69a2.59,2.59,0,1,0,2.59,2.59A2.59,2.59,0,0,0,174.86,353.69Z" fill="#fdd600"/><path d="M180.23,387.11a3.59,3.59,0,1,0,3.58,3.58A3.59,3.59,0,0,0,180.23,387.11Z" fill="#fdd600"/><path d="M199,362.19a1.17,1.17,0,1,0-1.17-1.16A1.16,1.16,0,0,0,199,362.19Z" fill="#fdd600"/><path d="M212,354.53a1.35,1.35,0,1,0,1.34,1.34A1.34,1.34,0,0,0,212,354.53Z" fill="#fdd600"/><path d="M210.21,351.78a2.35,2.35,0,0,0-2.35,2.34,2.31,2.31,0,0,0,.48,1.41l-8.75,11.88a8.78,8.78,0,0,0-3.55-1.62l1-4.36h.17a2.18,2.18,0,1,0-1.13-.32l-1,4.53c-.25,0-.51,0-.77,0a8.82,8.82,0,0,0-5.76,2.14l-12.4-11.28a3.58,3.58,0,1,0-3,1.64,3.54,3.54,0,0,0,2.34-.89l12.34,11.22a9.59,9.59,0,0,0-2.57,6l-12.75-1.4a1.91,1.91,0,0,0-3.77.46,1.91,1.91,0,0,0,3.74.55l12.78,1.4a9.5,9.5,0,0,0,2.55,6.1l-5.69,4.56a4.56,4.56,0,1,0,1,2.8,4.5,4.5,0,0,0-.45-1.94l5.88-4.72a8.87,8.87,0,0,0,5.79,2.16,9.26,9.26,0,0,0,9.08-9.41,9.55,9.55,0,0,0-3-7l8.74-11.87a2.34,2.34,0,1,0,1.11-4.4Zm-13,6.33a1.17,1.17,0,1,1-1.17,1.17A1.16,1.16,0,0,1,197.2,358.11Zm-18.72,34.42a3.59,3.59,0,1,1,3.58-3.59A3.59,3.59,0,0,1,178.48,392.53Zm-5.37-35.42a2.59,2.59,0,1,1,2.59-2.58A2.59,2.59,0,0,1,173.11,357.11Zm-2.5,17.33a.92.92,0,1,1,.92-.91A.91.91,0,0,1,170.61,374.44Zm31.75.59a8.09,8.09,0,1,1-8.08-8.42A8.25,8.25,0,0,1,202.36,375Zm7.85-19.56a1.35,1.35,0,1,1,1.34-1.35A1.34,1.34,0,0,1,210.21,355.47Z" fill="#231f20"/><path d="M192.78,368.94a3.25,3.25,0,1,0,3.25,3.25A3.26,3.26,0,0,0,192.78,368.94Zm0,5.5a2.25,2.25,0,1,1,2.25-2.25A2.25,2.25,0,0,1,192.78,374.44Z" fill="#231f20"/><polygon points="259.19 369.52 264.45 378.63 274.84 378.63 280.07 369.58 274.84 360.53 264.39 360.53 259.19 369.52" fill="#fdd600"/><path d="M273.38,396H262.64l-5.2-9,5.2-9.11h10.74a.4.4,0,0,0,.22-.06l.06,0a.49.49,0,0,0,.12-.13l0,0,5.52-9.55a.5.5,0,0,0,0-.5L273.81,358a.48.48,0,0,0-.43-.25H262.69l-5.36-9.3a.51.51,0,0,0-.69-.18.49.49,0,0,0-.18.68l5.34,9.25-5.25,9.1h-10.4L240.78,358a.5.5,0,0,0-.68-.19.51.51,0,0,0-.18.69l5.36,9.29-5.36,9.3a.08.08,0,0,0,0,0,.55.55,0,0,0,0,.17v.07a.46.46,0,0,0,.06.22l5.37,9.31-5.37,9.3a.49.49,0,0,0,.18.68.45.45,0,0,0,.25.07.5.5,0,0,0,.43-.25l5.37-9.31h10.39l5.38,9.31a.5.5,0,0,0,.43.25h11a.51.51,0,0,0,.5-.5A.5.5,0,0,0,273.38,396Zm-27.23-9.56-5-8.66-.22-.39,5.22-9.05h10.46l5.2,9-5.26,9.1Zm32.17-18.6-5.23,9.05H262.71l-5.26-9.11,5.19-9h10.45Z" fill="#231f20"/><path d="M255.34,370.62h-7.29l-.1,0-.09,0-.08.06-.06.07-.05.05-3.61,6.26a.51.51,0,0,0,.18.69.57.57,0,0,0,.25.06.51.51,0,0,0,.44-.25l3.47-6h6.94a.5.5,0,0,0,.5-.5A.51.51,0,0,0,255.34,370.62Z" fill="#231f20"/><path d="M281.9,368.75a.51.51,0,0,0-.68.19l-5.52,9.55a.49.49,0,0,0,.19.68.42.42,0,0,0,.24.07.5.5,0,0,0,.44-.25l5.51-9.55A.51.51,0,0,0,281.9,368.75Z" fill="#231f20"/><path d="M402.4,351.81A22.2,22.2,0,1,0,424.6,374,22.23,22.23,0,0,0,402.4,351.81Zm-8.31,12.55a2.06,2.06,0,0,1-.47,3.21.5.5,0,0,0-.15.73,2.1,2.1,0,0,1,.41,1.25,2.06,2.06,0,1,1-3.08-1.78.51.51,0,0,0,.24-.33.48.48,0,0,0-.09-.4,2.16,2.16,0,0,1-.42-1.26,2.06,2.06,0,0,1,1-1.77.5.5,0,0,0,.24-.36.49.49,0,0,0-.14-.41,2.07,2.07,0,1,1,2.58.35.5.5,0,0,0-.24.36A.51.51,0,0,0,394.09,364.36Zm18.07,20.3a2,2,0,0,1-1.41.69,2,2,0,0,1-2.15-2.46.48.48,0,0,0-.09-.4.53.53,0,0,0-.36-.2,2.19,2.19,0,0,1-1.23-.51,2.08,2.08,0,0,1-.67-1.91.49.49,0,0,0-.12-.42.48.48,0,0,0-.37-.17h0a2.07,2.07,0,0,1-1.62-3.43,2.06,2.06,0,0,1,1.41-.7,2.07,2.07,0,0,1,2.17,2.42.53.53,0,0,0,.11.42.51.51,0,0,0,.4.17,2,2,0,0,1,1.44.51,2.05,2.05,0,0,1,.66,2,.52.52,0,0,0,.09.4.52.52,0,0,0,.36.19,2.1,2.1,0,0,1,1.21.52,2.06,2.06,0,0,1,.19,2.91Z" fill="#fdd600"/><path d="M400.65,349a23.25,23.25,0,1,0,23.25,23.25A23.28,23.28,0,0,0,400.65,349Zm0,45.45a22.2,22.2,0,1,1,22.2-22.2A22.23,22.23,0,0,1,400.65,394.46Z" fill="#231f20"/><path d="M404.57,358.63l4.54,2.13a.5.5,0,0,0,.21.05.5.5,0,0,0,.21-.95L405,357.72a.51.51,0,0,0-.67.24A.5.5,0,0,0,404.57,358.63Z" fill="#231f20"/><path d="M387.59,379.25a.5.5,0,0,0-.71.71l4.17,4.21a.49.49,0,0,0,.35.15.51.51,0,0,0,.36-.15.5.5,0,0,0,0-.7Z" fill="#231f20"/><path d="M400.77,386l-6.62-1.49a.51.51,0,0,0-.6.38.5.5,0,0,0,.38.6l6.62,1.48h.11a.5.5,0,0,0,.11-1Z" fill="#231f20"/><path d="M412.57,367.2a.49.49,0,0,0,.45.3.54.54,0,0,0,.21-.05.5.5,0,0,0,.25-.66l-1.88-4.18a.5.5,0,0,0-.92.41Z" fill="#231f20"/><path d="M391.82,372.62a3.07,3.07,0,0,0,3.06-3.07,3.15,3.15,0,0,0-.34-1.41,3.07,3.07,0,0,0,1.12-2.36,3,3,0,0,0-.5-1.67,3.06,3.06,0,1,0-4.61-.62,3.1,3.1,0,0,0-1,2.29,3.22,3.22,0,0,0,.34,1.42,3.06,3.06,0,0,0,1.95,5.42Zm-1-4.85a.51.51,0,0,0,.24-.33.48.48,0,0,0-.09-.4,2.16,2.16,0,0,1-.42-1.26,2.06,2.06,0,0,1,1-1.77.5.5,0,0,0,.24-.36.49.49,0,0,0-.14-.41,2.07,2.07,0,1,1,2.58.35.5.5,0,0,0-.24.36.51.51,0,0,0,.13.41,2.06,2.06,0,0,1-.47,3.21.5.5,0,0,0-.15.73,2.1,2.1,0,0,1,.41,1.25,2.06,2.06,0,1,1-3.08-1.78Z" fill="#231f20"/><path d="M411.35,380.32a12.29,12.29,0,0,1-3.66-5.41,3.07,3.07,0,1,0-2.47,5.34,3.09,3.09,0,0,0,1,2.28,3.17,3.17,0,0,0,1.3.67,3.06,3.06,0,0,0,3.05,3.16h.2a3,3,0,0,0,2.11-1,3.06,3.06,0,0,0-.29-4.32A3.15,3.15,0,0,0,411.35,380.32Zm.81,4.34a2,2,0,0,1-1.41.69,2,2,0,0,1-2.15-2.46.48.48,0,0,0-.09-.4.53.53,0,0,0-.36-.2,2.19,2.19,0,0,1-1.23-.51,2.08,2.08,0,0,1-.67-1.91.49.49,0,0,0-.12-.42.48.48,0,0,0-.37-.17h0a2.07,2.07,0,0,1-1.62-3.43,2.06,2.06,0,0,1,1.41-.7,2.07,2.07,0,0,1,2.17,2.42.53.53,0,0,0,.11.42.51.51,0,0,0,.4.17,2,2,0,0,1,1.44.51,2.05,2.05,0,0,1,.66,2,.52.52,0,0,0,.09.4.52.52,0,0,0,.36.19,2.1,2.1,0,0,1,1.21.52,2.06,2.06,0,0,1,.19,2.91Z" fill="#231f20"/><path d="M321.34,367.55l.37.24c.13.09.25.2.37.29l.29.23.1.1c0-.36,0-.58,0-.61l-.47-.2-.4-.15-.47-.15-.34-.09.25.13C321.12,367.4,321.23,367.48,321.34,367.55Z" fill="none"/><path d="M342.28,353.73a18.22,18.22,0,0,0-22.73,12.09c-.09.26-.15.52-.21.77l.14.05.37.14.42.17.33.18.16.08.34.09.47.15.4.15.47.2c.08,0,.08.25,0,.61.17.16.34.32.5.49a8.59,8.59,0,0,1,2.22,7.43,9.12,9.12,0,0,1-.35,1.39,8.47,8.47,0,0,1-2.29,3.53,7.39,7.39,0,0,1-.75.61,5.47,5.47,0,0,0,.41.71,5.42,5.42,0,0,0,2.14,1.68,17.5,17.5,0,0,0,2.36,1.89,18.16,18.16,0,0,0,2.65,1.49l.27.09a19.24,19.24,0,0,0,5.55.83c.36,0,.71,0,1.06-.05a8.15,8.15,0,0,1-.33.75,18,18,0,0,0,2.75,0h0a18.17,18.17,0,0,0,3.62-35.48Z" fill="#fdd600"/><path d="M340.82,351a19.22,19.22,0,0,0-24,12.74,8.46,8.46,0,0,0-.35,1.38,9.73,9.73,0,0,0-7,16.38,9.65,9.65,0,0,0,9,2.9A9.54,9.54,0,0,0,321,392a9.67,9.67,0,0,0,6.8,3.09h.32a9.68,9.68,0,0,0,6.65-2.62,9.38,9.38,0,0,0,2.56-4A19.18,19.18,0,0,0,340.82,351ZM310.2,380.83a8.75,8.75,0,0,1,.42-12.35,8.86,8.86,0,0,1,6.28-2.34l.52.05.4,0,.45.09.4.08c.14,0,.27.08.4.12s.28.07.41.12l.37.14.42.17.33.18c.14.07.28.13.41.21s.22.14.33.21l.37.24c.13.09.56.44.66.52a8.35,8.35,0,0,1,.6.59,8.59,8.59,0,0,1,2.22,7.43,9.12,9.12,0,0,1-.35,1.39,8.47,8.47,0,0,1-2.29,3.53,6.3,6.3,0,0,1-.8.65,18.66,18.66,0,0,1-2.85,1.38h0A8.63,8.63,0,0,1,310.2,380.83Zm23.89,10.86a8.73,8.73,0,0,1-12.35-.42,8.56,8.56,0,0,1-2.25-7.14,18,18,0,0,0,2.25-1.07,19.33,19.33,0,0,0,13.44,5.49c.36,0,.71,0,1.06-.05A8.31,8.31,0,0,1,334.09,391.69Zm18.52-17a18.05,18.05,0,0,1-15.7,12.76h0a18.11,18.11,0,0,1-7-.71,18.41,18.41,0,0,1-7.32-4.26,6.45,6.45,0,0,0,.63-.52,9.77,9.77,0,0,0,.47-13.76c-.21-.23-.44-.45-.67-.66l-.3-.23c-.14-.12-.28-.24-.43-.35l-.4-.26-.38-.25-.46-.23a2.58,2.58,0,0,0-.37-.19l-.47-.2-.4-.15-.47-.15c-.15,0-.29-.09-.44-.12s-.31-.06-.47-.09a5.4,5.4,0,0,0-.93-.14,7.82,7.82,0,0,1,.29-1.13,18.2,18.2,0,1,1,34.81,10.63Z" fill="#231f20"/><path d="M334.28,357.07a14.82,14.82,0,0,0-8.55,2.35.49.49,0,0,0-.15.69.5.5,0,0,0,.69.15,13.79,13.79,0,0,1,8-2.19,14,14,0,0,1,12.27,8.33.52.52,0,0,0,.46.3.46.46,0,0,0,.2-.05.5.5,0,0,0,.26-.65A15,15,0,0,0,334.28,357.07Z" fill="#231f20"/><path d="M420.21,289.88a2.75,2.75,0,0,0-2,.92.5.5,0,0,1-.48.15.49.49,0,0,1-.37-.35,5.77,5.77,0,0,0-.31-.82.51.51,0,0,1,.15-.6,6,6,0,0,0-3.64-10.7,6,6,0,0,0-3.22.94.47.47,0,0,1-.38.07.5.5,0,0,1-.31-.22,5.39,5.39,0,0,0-9.95,2.29.52.52,0,0,1-.26.39.5.5,0,0,1-.46,0,6.46,6.46,0,0,0-9.31,5.81,6.34,6.34,0,0,0,.26,1.78.5.5,0,0,1-.34.62q-.42.13-.81.3a.49.49,0,0,1-.58-.14.48.48,0,0,1,0-.59,3.14,3.14,0,1,0-2.63,1.43,2.8,2.8,0,0,0,.61-.06.53.53,0,0,1,.55.25.5.5,0,0,1-.09.59,7.06,7.06,0,0,0-2.05,5,7,7,0,0,0,2.33,5.23.48.48,0,0,1,.16.36.51.51,0,0,1-.15.37A2.92,2.92,0,0,0,386,305a2.94,2.94,0,0,0,2.94,2.94,2.87,2.87,0,0,0,1.89-.71.49.49,0,0,1,.39-.11.51.51,0,0,1,.35.22l.05.08a.52.52,0,0,1,.08.4.55.55,0,0,1-.24.32,3.85,3.85,0,1,0,5.76,3.33.62.62,0,0,1,.16-.41.53.53,0,0,1,.39-.15,7.71,7.71,0,0,0,3.08-.25l.14,0a.48.48,0,0,1,.46.32,6.94,6.94,0,0,0,13.23-1.15.48.48,0,0,1,.28-.35.5.5,0,0,1,.46,0,2.63,2.63,0,0,0,1.34.37,2.74,2.74,0,0,0,1.45-5.06.47.47,0,0,1-.22-.5.49.49,0,0,1,.37-.4,4.35,4.35,0,0,0,1.67-7.61.5.5,0,0,1,.3-.89,2.7,2.7,0,0,0,2.63-2.72A2.74,2.74,0,0,0,420.21,289.88Z" fill="#fdd600"/><path d="M422.92,274.76h-2.57l.53-1.75a.5.5,0,0,0-1-.29l-.69,2.28-2.61,2.71a7,7,0,0,0-4.85-2,7.08,7.08,0,0,0-3.34.85A6.39,6.39,0,0,0,397,279.05a7.51,7.51,0,0,0-5.74.17,57.22,57.22,0,0,0-4.92-4.52.64.64,0,0,0,.06-.18,19.63,19.63,0,0,0,0-3.33.5.5,0,0,0-.56-.42.49.49,0,0,0-.43.56,16.12,16.12,0,0,1,0,2.77c-.07,0-.14-.08-.2-.1a33.9,33.9,0,0,0-6.14-.74.5.5,0,1,0,0,1,33.15,33.15,0,0,1,5.87.69c.72.24,3.07,2.42,5.43,4.76a7.39,7.39,0,0,0-3.2,4.25,4.14,4.14,0,1,0-3.83,6.44,8,8,0,0,0,.73,10.41,3.91,3.91,0,0,0-.82,2.39,4,4,0,0,0,3.94,3.94h.3a4.79,4.79,0,0,0-.73,2.54,4.85,4.85,0,0,0,9.67.48,8.6,8.6,0,0,0,2.52-.21c.05.11.12.21.17.32a.52.52,0,0,0-.06.15l-.83,4.31-1.69,2.69a.51.51,0,0,0,.42.77.51.51,0,0,0,.43-.23l1.12-1.79,1.72,1.78a.51.51,0,0,0,.36.15.47.47,0,0,0,.35-.14.5.5,0,0,0,0-.71l-1.89-1.94h0l.08-.12a.51.51,0,0,0,.07-.17l.68-3.56a8,8,0,0,0,4.89,3,9.14,9.14,0,0,0,1.37.11,8,8,0,0,0,7.62-5.7,3.34,3.34,0,0,0,1.25.23,3.74,3.74,0,0,0,2.72-6.3,5.34,5.34,0,0,0,1.91-8.34,3.7,3.7,0,0,0,2.57-3.54,3.75,3.75,0,0,0-3.74-3.74,3.79,3.79,0,0,0-1.66.39,6.92,6.92,0,0,0,.48-9.06l2.61-2.7h3a.5.5,0,1,0,0-1Zm-7.51,12.67a.51.51,0,0,0-.15.6,5.77,5.77,0,0,1,.31.82.49.49,0,0,0,.37.35.5.5,0,0,0,.48-.15,2.73,2.73,0,0,1,4.78,1.82,2.7,2.7,0,0,1-2.63,2.72.5.5,0,0,0-.3.89,4.35,4.35,0,0,1-1.67,7.61.49.49,0,0,0-.37.4.47.47,0,0,0,.22.5,2.74,2.74,0,0,1-1.45,5.06,2.63,2.63,0,0,1-1.34-.37.5.5,0,0,0-.46,0,.48.48,0,0,0-.28.35,6.94,6.94,0,0,1-13.23,1.15.48.48,0,0,0-.46-.32l-.14,0a7.71,7.71,0,0,1-3.08.25.53.53,0,0,0-.39.15.62.62,0,0,0-.16.41,3.86,3.86,0,1,1-5.76-3.33.55.55,0,0,0,.24-.32.52.52,0,0,0-.08-.4l-.05-.08a.51.51,0,0,0-.35-.22.49.49,0,0,0-.39.11,2.87,2.87,0,0,1-1.89.71,2.94,2.94,0,0,1-2.94-2.94,2.92,2.92,0,0,1,.86-2.06.51.51,0,0,0,.15-.37.48.48,0,0,0-.16-.36,7,7,0,0,1-2.33-5.23,7.06,7.06,0,0,1,2.05-5,.5.5,0,0,0,.09-.59.53.53,0,0,0-.55-.25,2.8,2.8,0,0,1-.61.06,3.15,3.15,0,1,1,2.63-1.43.48.48,0,0,0,0,.59.49.49,0,0,0,.58.14q.39-.17.81-.3a.5.5,0,0,0,.34-.62,6.34,6.34,0,0,1-.26-1.78,6.41,6.41,0,0,1,3.21-5.57c1.05,1.05,2.06,2.1,2.9,3a.51.51,0,0,0,.37.15.49.49,0,0,0,.36-.84c-.28-.3-1.35-1.42-2.68-2.77a6.52,6.52,0,0,1,5.15.23.5.5,0,0,0,.46,0,.52.52,0,0,0,.26-.39,5.39,5.39,0,0,1,9.95-2.29.5.5,0,0,0,.31.22.47.47,0,0,0,.38-.07,6,6,0,0,1,3.22-.94,6,6,0,0,1,3.64,10.7Z" fill="#231f20"/><path d="M397.05,295.07a4.69,4.69,0,0,1-2.45-1.83c-.11-.15-.39-.5-.78-.28s-.25.56,0,1.06l.11.28a5.32,5.32,0,0,1,0,3.67.51.51,0,0,0,.26.66.65.65,0,0,0,.2,0,.52.52,0,0,0,.46-.31,6.3,6.3,0,0,0,.36-3.11,4.26,4.26,0,0,0,1.67.8.51.51,0,0,0,.59-.39A.5.5,0,0,0,397.05,295.07Z" fill="#231f20"/><path d="M406,284.34s-1.77.86-3,0a.5.5,0,0,0-.56.84,3.34,3.34,0,0,0,1.85.52,5.32,5.32,0,0,0,2.15-.49.5.5,0,0,0-.44-.9Z" fill="#231f20"/><path d="M119.51,286l-2.59-4.3a3.94,3.94,0,0,0-3.36-1.69H107.2c-.49,0-.94.26-1,.58a.58.58,0,0,0,.12.46,1,1,0,0,0,.8.34h5.49a.5.5,0,0,1,.5.5.5.5,0,0,1-.5.5h-3.37a1,1,0,0,0-.75.35.51.51,0,0,0-.11.44,1,1,0,0,0,1,.58h5.8a.5.5,0,0,1,.5.5.5.5,0,0,1-.5.5h-3.75a1,1,0,0,0-.75.35.51.51,0,0,0-.1.44c.06.33.5.58,1,.58h7.67A.35.35,0,0,0,119.51,286Z" fill="#fdd600"/><path d="M125,276.12a3,3,0,1,0-3,2.95A3,3,0,0,0,125,276.12Z" fill="#fdd600"/><path d="M136.8,280h-6.36a3.91,3.91,0,0,0-3.36,1.69l-2.59,4.22a.27.27,0,0,0,.29.21h7.67c.48,0,.92-.25,1-.58a.51.51,0,0,0-.1-.44,1,1,0,0,0-.75-.35h-3.75a.5.5,0,0,1-.5-.5.5.5,0,0,1,.5-.5h5.8a1,1,0,0,0,1-.58.51.51,0,0,0-.11-.44,1,1,0,0,0-.75-.35h-3.37a.5.5,0,0,1-.5-.5.5.5,0,0,1,.5-.5h5.49a1,1,0,0,0,.8-.34.58.58,0,0,0,.12-.46C137.74,280.23,137.29,280,136.8,280Z" fill="#fdd600"/><path d="M119.92,312.32a2.54,2.54,0,0,0-1.13-.24h-2.22v5.69h1.17v-2h1a2.39,2.39,0,0,0,1.58-.48,1.61,1.61,0,0,0,.58-1.32,1.83,1.83,0,0,0-.27-1A1.64,1.64,0,0,0,119.92,312.32Zm-.42,2.28a1.06,1.06,0,0,1-.71.22h-1.05V313h1.08a.88.88,0,0,1,.68.27.93.93,0,0,1,.24.67A.82.82,0,0,1,119.5,314.6Z" fill="#231f20"/><polygon points="121.38 313.03 123.1 313.03 123.1 317.77 124.27 317.77 124.27 313.03 126.01 313.03 126.01 312.08 121.38 312.08 121.38 313.03" fill="#231f20"/><path d="M117.47,307.78h.11l.93-.2a.5.5,0,0,0,.38-.6.49.49,0,0,0-.59-.38l-.93.2a.51.51,0,0,0-.39.6A.5.5,0,0,0,117.47,307.78Z" fill="#231f20"/><path d="M123.73,295.23l-1.49-.35-.74-.16V279a4,4,0,1,0-1,0v15.47l-.51-.12-4.73-1.08a2.63,2.63,0,0,1-1.78-3.16,2.46,2.46,0,0,1,1.33-1.5,2.7,2.7,0,0,1,2.21,0,.5.5,0,0,0,.39-.93,3.74,3.74,0,0,0-3,.06,3.46,3.46,0,0,0-1.87,2.12,3.61,3.61,0,0,0,2.48,4.41l4.76,1.09.74.17v5l-.5-.13h0l-1.48-.37a1.92,1.92,0,0,1-.26-3.75.5.5,0,0,0,.29-.64.52.52,0,0,0-.65-.3,2.92,2.92,0,0,0,.37,5.66l1.49.37h0l.75.19v4.33l-.52-.11h0l-.39-.08A2.06,2.06,0,0,1,118,304a1.81,1.81,0,0,1,.8-1.61.5.5,0,0,0,.1-.7.49.49,0,0,0-.69-.11,2.79,2.79,0,0,0-1.2,2.53,3,3,0,0,0,2.4,2.52l.41.09h0l.73.16v.9a.5.5,0,0,0,1,0v-.69l.52.12h0l2.4.52h.11a.5.5,0,0,0,.49-.39.51.51,0,0,0-.39-.6l-2.4-.52h0l-.73-.16V301.8l.67.17h0a2.07,2.07,0,0,1,1.85,2.06,1.76,1.76,0,0,1-.75,1.23.5.5,0,0,0-.09.7.47.47,0,0,0,.39.2.5.5,0,0,0,.31-.1,2.78,2.78,0,0,0,1.13-1.92,3.05,3.05,0,0,0-2.62-3.15h0l-.91-.23v-5l.51.12,1.49.34a2.08,2.08,0,0,1,1.64,1.8,2.06,2.06,0,0,1-1.65,2,.5.5,0,0,0-.35.61.5.5,0,0,0,.48.38l.13,0a2.93,2.93,0,0,0,0-5.77Zm-5.68-20.11a3,3,0,1,1,3,2.95A3,3,0,0,1,118.05,275.12Z" fill="#231f20"/><path d="M137.78,279.36a1.92,1.92,0,0,0-2-1.39h-6.36a4.88,4.88,0,0,0-4.21,2.17l-2.59,4.22a1.06,1.06,0,0,0,0,1.09,1.33,1.33,0,0,0,1.16.64h7.67a1.92,1.92,0,0,0,2-1.36,1.47,1.47,0,0,0-.13-1h.35a1.93,1.93,0,0,0,2-1.37,1.5,1.5,0,0,0-.12-1h.41a2.07,2.07,0,0,0,1.57-.7A1.55,1.55,0,0,0,137.78,279.36Zm-1.1.65a1,1,0,0,1-.8.34h-5.49a.5.5,0,0,0-.5.5.5.5,0,0,0,.5.5h3.37a1,1,0,0,1,.75.35.51.51,0,0,1,.11.44,1,1,0,0,1-1,.58h-5.8a.5.5,0,0,0-.5.5.5.5,0,0,0,.5.5h3.75a1,1,0,0,1,.75.35.51.51,0,0,1,.1.44c-.06.33-.5.58-1,.58h-7.67a.27.27,0,0,1-.29-.21l2.59-4.22a3.91,3.91,0,0,1,3.36-1.69h6.36c.49,0,.94.26,1,.58A.58.58,0,0,1,136.68,280Z" fill="#231f20"/><path d="M119.38,285.45a1.06,1.06,0,0,0,0-1.09l-2.59-4.22a4.88,4.88,0,0,0-4.21-2.17H106.2a1.92,1.92,0,0,0-2,1.39,1.55,1.55,0,0,0,.33,1.29,2.07,2.07,0,0,0,1.57.7h.41a1.5,1.5,0,0,0-.12,1,1.93,1.93,0,0,0,2,1.37h.35a1.47,1.47,0,0,0-.13,1,1.92,1.92,0,0,0,2,1.36h7.67A1.33,1.33,0,0,0,119.38,285.45Zm-9.81-.94a.51.51,0,0,1,.1-.44,1,1,0,0,1,.75-.35h3.75a.5.5,0,0,0,.5-.5.5.5,0,0,0-.5-.5h-5.8a1,1,0,0,1-1-.58.51.51,0,0,1,.11-.44,1,1,0,0,1,.75-.35h3.37a.5.5,0,0,0,.5-.5.5.5,0,0,0-.5-.5h-5.49a1,1,0,0,1-.8-.34.58.58,0,0,1-.12-.46c.06-.32.51-.58,1-.58h6.36a3.94,3.94,0,0,1,3.36,1.69l2.59,4.3a.35.35,0,0,1-.29.13h-7.67C110.07,285.09,109.63,284.84,109.57,284.51Z" fill="#231f20"/><path d="M127.44,287.72a3.71,3.71,0,0,0-3-.06.5.5,0,0,0-.27.66.52.52,0,0,0,.66.27,2.68,2.68,0,0,1,2.2,0,2.5,2.5,0,0,1,1.34,1.5,2.64,2.64,0,0,1-1.75,3.15l-2.83.65a.49.49,0,0,0-.37.59.49.49,0,0,0,.49.39H124l2.86-.66a3.59,3.59,0,0,0,2.44-4.4A3.43,3.43,0,0,0,127.44,287.72Z" fill="#231f20"/><path d="M189.51,286l-2.59-4.3a3.94,3.94,0,0,0-3.36-1.69H177.2c-.49,0-.94.26-1,.58a.58.58,0,0,0,.12.46,1,1,0,0,0,.8.34h5.49a.5.5,0,0,1,.5.5.5.5,0,0,1-.5.5h-3.37a1,1,0,0,0-.75.35.52.52,0,0,0-.11.44,1,1,0,0,0,1,.58h5.8a.5.5,0,0,1,.5.5.5.5,0,0,1-.5.5h-3.75a1,1,0,0,0-.75.35.51.51,0,0,0-.1.44c.06.33.5.58,1,.58h7.67A.35.35,0,0,0,189.51,286Z" fill="#fdd600"/><path d="M195,276.12a2.95,2.95,0,1,0-2.95,2.95A3,3,0,0,0,195,276.12Z" fill="#fdd600"/><path d="M206.8,280h-6.36a3.91,3.91,0,0,0-3.36,1.69l-2.59,4.22a.27.27,0,0,0,.29.21h7.67c.48,0,.92-.25,1-.58a.51.51,0,0,0-.1-.44,1,1,0,0,0-.75-.35h-3.75a.5.5,0,0,1-.5-.5.5.5,0,0,1,.5-.5h5.8a1,1,0,0,0,1-.58.52.52,0,0,0-.11-.44,1,1,0,0,0-.75-.35h-3.37a.5.5,0,0,1-.5-.5.5.5,0,0,1,.5-.5h5.49a1,1,0,0,0,.8-.34.58.58,0,0,0,.12-.46C207.74,280.23,207.29,280,206.8,280Z" fill="#fdd600"/><path d="M190.68,313a1.81,1.81,0,0,0-.75-.67,2.65,2.65,0,0,0-1.13-.23h-2.22v5.69h1.18v-2h1a2.4,2.4,0,0,0,1.59-.48,1.63,1.63,0,0,0,.57-1.32A1.91,1.91,0,0,0,190.68,313Zm-1.17,1.62a1.06,1.06,0,0,1-.71.21h-1V313h1.07a.87.87,0,0,1,.68.27.94.94,0,0,1,.25.67A.79.79,0,0,1,189.51,314.6Z" fill="#231f20"/><path d="M192.69,312.08l-2.12,5.69h1.24l.4-1.17h2l.39,1.17h1.25l-2.13-5.69Zm-.17,3.57.71-2.13.71,2.13Z" fill="#231f20"/><path d="M187.47,307.78h.11l.93-.2a.5.5,0,0,0,.38-.6.49.49,0,0,0-.59-.38l-.93.2a.51.51,0,0,0-.39.6A.5.5,0,0,0,187.47,307.78Z" fill="#231f20"/><path d="M193.73,295.23l-1.49-.34-.74-.17V279a4,4,0,1,0-1,0v15.47l-.51-.12-4.73-1.08a2.63,2.63,0,0,1-1.78-3.16,2.46,2.46,0,0,1,1.33-1.5,2.7,2.7,0,0,1,2.21,0,.5.5,0,0,0,.39-.93,3.78,3.78,0,0,0-3,.06,3.46,3.46,0,0,0-1.87,2.12,3.61,3.61,0,0,0,2.48,4.41l4.76,1.09.74.17v5l-.5-.13h0l-1.48-.37a1.92,1.92,0,0,1-.26-3.75.5.5,0,0,0,.29-.64.5.5,0,0,0-.65-.29,3,3,0,0,0-2,2.59,3.07,3.07,0,0,0,2.4,3.06l1.49.37h0l.75.19v4.33l-.52-.11h0l-.39-.08A2.06,2.06,0,0,1,188,304a1.81,1.81,0,0,1,.8-1.61.5.5,0,0,0,.1-.7.49.49,0,0,0-.69-.11,2.79,2.79,0,0,0-1.2,2.53,3,3,0,0,0,2.4,2.52l.41.09h0l.73.16v.9a.5.5,0,0,0,1,0v-.68l.52.11h0l2.4.52h.11a.5.5,0,0,0,.49-.39.51.51,0,0,0-.39-.6l-2.4-.52h0l-.73-.16V301.8l.67.17h0a2.07,2.07,0,0,1,1.85,2.07,1.76,1.76,0,0,1-.75,1.22.5.5,0,0,0-.09.7.47.47,0,0,0,.39.2.5.5,0,0,0,.31-.1,2.78,2.78,0,0,0,1.13-1.92,3.05,3.05,0,0,0-2.62-3.15h0l-.91-.23v-5l.51.12,1.49.34a2.08,2.08,0,0,1,1.64,1.8,2.06,2.06,0,0,1-1.65,2,.51.51,0,0,0-.35.62.5.5,0,0,0,.48.37l.13,0a2.93,2.93,0,0,0,0-5.77Zm-5.68-20.11a2.95,2.95,0,1,1,2.95,2.95A3,3,0,0,1,188.05,275.12Z" fill="#231f20"/><path d="M207.78,279.36a1.92,1.92,0,0,0-2-1.39h-6.36a4.88,4.88,0,0,0-4.21,2.17l-2.59,4.22a1.06,1.06,0,0,0,0,1.09,1.33,1.33,0,0,0,1.16.64h7.67a1.92,1.92,0,0,0,2-1.36,1.47,1.47,0,0,0-.13-1h.35a1.93,1.93,0,0,0,2-1.37,1.5,1.5,0,0,0-.12-1h.41a2.07,2.07,0,0,0,1.57-.7A1.55,1.55,0,0,0,207.78,279.36Zm-1.1.65a1,1,0,0,1-.8.34h-5.49a.5.5,0,0,0-.5.5.5.5,0,0,0,.5.5h3.37a1,1,0,0,1,.75.35.52.52,0,0,1,.11.44,1,1,0,0,1-1,.58h-5.8a.5.5,0,0,0-.5.5.5.5,0,0,0,.5.5h3.75a1,1,0,0,1,.75.35.51.51,0,0,1,.1.44c-.06.33-.5.58-1,.58h-7.67a.27.27,0,0,1-.29-.21l2.59-4.22a3.91,3.91,0,0,1,3.36-1.69h6.36c.49,0,.94.26,1,.58A.58.58,0,0,1,206.68,280Z" fill="#231f20"/><path d="M189.38,285.45a1.06,1.06,0,0,0,0-1.09l-2.59-4.22a4.88,4.88,0,0,0-4.21-2.17H176.2a1.92,1.92,0,0,0-2,1.39,1.55,1.55,0,0,0,.33,1.29,2.07,2.07,0,0,0,1.57.7h.41a1.5,1.5,0,0,0-.12,1,1.93,1.93,0,0,0,2,1.37h.35a1.47,1.47,0,0,0-.13,1,1.92,1.92,0,0,0,2,1.36h7.67A1.33,1.33,0,0,0,189.38,285.45Zm-9.81-.94a.51.51,0,0,1,.1-.44,1,1,0,0,1,.75-.35h3.75a.5.5,0,0,0,.5-.5.5.5,0,0,0-.5-.5h-5.8a1,1,0,0,1-1-.58.52.52,0,0,1,.11-.44,1,1,0,0,1,.75-.35h3.37a.5.5,0,0,0,.5-.5.5.5,0,0,0-.5-.5h-5.49a1,1,0,0,1-.8-.34.58.58,0,0,1-.12-.46c.06-.32.51-.58,1-.58h6.36a3.94,3.94,0,0,1,3.36,1.69l2.59,4.3a.35.35,0,0,1-.29.13h-7.67C180.07,285.09,179.63,284.84,179.57,284.51Z" fill="#231f20"/><path d="M197.44,287.72a3.75,3.75,0,0,0-3-.06.5.5,0,0,0-.27.66.52.52,0,0,0,.66.27,2.68,2.68,0,0,1,2.2,0,2.5,2.5,0,0,1,1.34,1.5,2.64,2.64,0,0,1-1.75,3.15l-2.83.65a.5.5,0,0,0,.12,1H194l2.86-.66a3.59,3.59,0,0,0,2.44-4.4A3.43,3.43,0,0,0,197.44,287.72Z" fill="#231f20"/><path d="M259.51,286l-2.59-4.3a3.94,3.94,0,0,0-3.36-1.69H247.2c-.49,0-.94.26-1,.58a.58.58,0,0,0,.12.46,1,1,0,0,0,.8.34h5.49a.5.5,0,0,1,.5.5.5.5,0,0,1-.5.5h-3.37a1,1,0,0,0-.75.35.52.52,0,0,0-.11.44,1,1,0,0,0,1,.58h5.8a.5.5,0,0,1,.5.5.5.5,0,0,1-.5.5h-3.75a1,1,0,0,0-.75.35.51.51,0,0,0-.1.44c.06.33.5.58,1,.58h7.67A.35.35,0,0,0,259.51,286Z" fill="#fdd600"/><path d="M265,276.12a2.95,2.95,0,1,0-2.95,2.95A3,3,0,0,0,265,276.12Z" fill="#fdd600"/><path d="M276.8,280h-6.36a3.91,3.91,0,0,0-3.36,1.69l-2.59,4.22a.27.27,0,0,0,.29.21h7.67c.48,0,.92-.25,1-.58a.51.51,0,0,0-.1-.44,1,1,0,0,0-.75-.35h-3.75a.5.5,0,0,1-.5-.5.5.5,0,0,1,.5-.5h5.8a1,1,0,0,0,1-.58.52.52,0,0,0-.11-.44,1,1,0,0,0-.75-.35h-3.37a.5.5,0,0,1-.5-.5.5.5,0,0,1,.5-.5h5.49a1,1,0,0,0,.8-.34.58.58,0,0,0,.12-.46C277.74,280.23,277.29,280,276.8,280Z" fill="#fdd600"/><polygon points="258.4 316.2 256.94 312.08 255.41 312.08 255.41 317.77 256.58 317.77 256.58 316.21 256.46 313.53 257.99 317.77 258.8 317.77 260.33 313.53 260.21 316.21 260.21 317.77 261.39 317.77 261.39 312.08 259.85 312.08 258.4 316.2" fill="#231f20"/><path d="M265.5,312.42a2.59,2.59,0,0,0-1.34-.34h-1.75v5.69h1.76a2.7,2.7,0,0,0,1.34-.35,2.22,2.22,0,0,0,.92-.95,2.94,2.94,0,0,0,.33-1.41v-.26a3,3,0,0,0-.33-1.42A2.27,2.27,0,0,0,265.5,312.42Zm.07,2.67a2,2,0,0,1-.37,1.29,1.27,1.27,0,0,1-1.05.45h-.57V313h.58a1.27,1.27,0,0,1,1,.45,2,2,0,0,1,.36,1.31Z" fill="#231f20"/><path d="M262,307.25l2.4.52h.11a.5.5,0,0,0,.49-.39.51.51,0,0,0-.39-.6l-2.4-.52h0l-.73-.16V301.8l.67.17h0a2.07,2.07,0,0,1,1.85,2.07,1.76,1.76,0,0,1-.75,1.22.5.5,0,0,0-.09.7.47.47,0,0,0,.39.2.5.5,0,0,0,.31-.1,2.78,2.78,0,0,0,1.13-1.92,3.05,3.05,0,0,0-2.62-3.15h0l-.91-.23v-5l.51.12,1.49.34a2.08,2.08,0,0,1,1.64,1.8,2.06,2.06,0,0,1-1.65,2,.51.51,0,0,0-.35.62.5.5,0,0,0,.48.37l.13,0a2.93,2.93,0,0,0,0-5.77l-1.49-.34-.74-.17V279a4,4,0,1,0-1,0v15.47l-.51-.12-4.73-1.08a2.63,2.63,0,0,1-1.78-3.16,2.46,2.46,0,0,1,1.33-1.5,2.7,2.7,0,0,1,2.21,0,.5.5,0,0,0,.39-.93,3.78,3.78,0,0,0-3,.06,3.46,3.46,0,0,0-1.87,2.12,3.61,3.61,0,0,0,2.48,4.41l4.76,1.09.74.17v5l-.5-.13h0l-1.48-.37a1.92,1.92,0,0,1-.26-3.75.5.5,0,0,0,.29-.64.5.5,0,0,0-.65-.29,3,3,0,0,0-2,2.59,3.07,3.07,0,0,0,2.4,3.06l1.49.37h0l.75.19v4.33l-.52-.11h0l-.39-.08A2.06,2.06,0,0,1,258,304a1.81,1.81,0,0,1,.8-1.61.5.5,0,0,0,.1-.7.49.49,0,0,0-.69-.11,2.79,2.79,0,0,0-1.2,2.53,3,3,0,0,0,2.4,2.52l.41.09h0l.73.16v.9a.5.5,0,0,0,1,0v-.68l.52.11Zm-4-32.13a2.95,2.95,0,1,1,2.95,2.95A3,3,0,0,1,258.05,275.12Z" fill="#231f20"/><path d="M257.47,307.78h.11l.93-.2a.5.5,0,0,0,.38-.6.49.49,0,0,0-.59-.38l-.93.2a.51.51,0,0,0-.39.6A.5.5,0,0,0,257.47,307.78Z" fill="#231f20"/><path d="M277.78,279.36a1.92,1.92,0,0,0-2-1.39h-6.36a4.88,4.88,0,0,0-4.21,2.17l-2.59,4.22a1.06,1.06,0,0,0,0,1.09,1.33,1.33,0,0,0,1.16.64h7.67a1.92,1.92,0,0,0,2-1.36,1.47,1.47,0,0,0-.13-1h.35a1.93,1.93,0,0,0,2-1.37,1.5,1.5,0,0,0-.12-1h.41a2.07,2.07,0,0,0,1.57-.7A1.55,1.55,0,0,0,277.78,279.36Zm-1.1.65a1,1,0,0,1-.8.34h-5.49a.5.5,0,0,0-.5.5.5.5,0,0,0,.5.5h3.37a1,1,0,0,1,.75.35.52.52,0,0,1,.11.44,1,1,0,0,1-1,.58h-5.8a.5.5,0,0,0-.5.5.5.5,0,0,0,.5.5h3.75a1,1,0,0,1,.75.35.51.51,0,0,1,.1.44c-.06.33-.5.58-1,.58h-7.67a.27.27,0,0,1-.29-.21l2.59-4.22a3.91,3.91,0,0,1,3.36-1.69h6.36c.49,0,.94.26,1,.58A.58.58,0,0,1,276.68,280Z" fill="#231f20"/><path d="M259.38,285.45a1.06,1.06,0,0,0,0-1.09l-2.59-4.22a4.88,4.88,0,0,0-4.21-2.17H246.2a1.92,1.92,0,0,0-2,1.39,1.55,1.55,0,0,0,.33,1.29,2.07,2.07,0,0,0,1.57.7h.41a1.5,1.5,0,0,0-.12,1,1.93,1.93,0,0,0,2,1.37h.35a1.47,1.47,0,0,0-.13,1,1.92,1.92,0,0,0,2,1.36h7.67A1.33,1.33,0,0,0,259.38,285.45Zm-9.81-.94a.51.51,0,0,1,.1-.44,1,1,0,0,1,.75-.35h3.75a.5.5,0,0,0,.5-.5.5.5,0,0,0-.5-.5h-5.8a1,1,0,0,1-1-.58.52.52,0,0,1,.11-.44,1,1,0,0,1,.75-.35h3.37a.5.5,0,0,0,.5-.5.5.5,0,0,0-.5-.5h-5.49a1,1,0,0,1-.8-.34.58.58,0,0,1-.12-.46c.06-.32.51-.58,1-.58h6.36a3.94,3.94,0,0,1,3.36,1.69l2.59,4.3a.35.35,0,0,1-.29.13h-7.67C250.07,285.09,249.63,284.84,249.57,284.51Z" fill="#231f20"/><path d="M267.44,287.72a3.75,3.75,0,0,0-3-.06.5.5,0,0,0-.27.66.52.52,0,0,0,.66.27,2.68,2.68,0,0,1,2.2,0,2.5,2.5,0,0,1,1.34,1.5,2.64,2.64,0,0,1-1.75,3.15l-2.83.65a.5.5,0,0,0,.12,1H264l2.86-.66a3.59,3.59,0,0,0,2.44-4.4A3.43,3.43,0,0,0,267.44,287.72Z" fill="#231f20"/><path d="M107.39,462.94a2.69,2.69,0,0,0-1.89,4.58,2.75,2.75,0,0,0,3.79,0,2.69,2.69,0,0,0-1.9-4.58Z" fill="#fdd600"/><path d="M134.78,464.79a2.65,2.65,0,0,0,.78,1.89,2.69,2.69,0,0,0,3.8,0,2.65,2.65,0,0,0,.78-1.89,2.68,2.68,0,1,0-5.36,0Z" fill="#fdd600"/><circle cx="122.17" cy="430.41" r="2.68" fill="#fdd600"/><circle cx="122.17" cy="471.6" r="2.68" fill="#fdd600"/><path d="M138.42,438.39a2.69,2.69,0,0,0,0-3.79,2.68,2.68,0,1,0-3.79,3.79A2.75,2.75,0,0,0,138.42,438.39Z" fill="#fdd600"/><circle cx="101.78" cy="450.75" r="2.68" fill="#fdd600"/><path d="M110.23,433.77a2.68,2.68,0,1,0-3.79,3.79,2.75,2.75,0,0,0,3.79,0A2.69,2.69,0,0,0,110.23,433.77Z" fill="#fdd600"/><circle cx="142.97" cy="450.75" r="2.68" fill="#fdd600"/><path d="M131.06,442.59h0l-.71-.71h0a11.76,11.76,0,1,0,.72.7Zm-12.68,13.54a1.26,1.26,0,0,1-1-.22,1.35,1.35,0,0,1-.56-.91,1.38,1.38,0,0,1,1.09-1.59l.21,0a1.23,1.23,0,0,1,.74.24,1.4,1.4,0,0,1-.52,2.5Zm2.13-7.45a3.56,3.56,0,1,1-1.18-7,3.92,3.92,0,0,1,.59,0,3.57,3.57,0,0,1,.59,7.08Zm6.33,4.5a1.26,1.26,0,0,1-1-.22,1.41,1.41,0,0,1,.53-2.5l.22,0a1.23,1.23,0,0,1,.73.24,1.4,1.4,0,0,1-.52,2.5Z" fill="#fdd600"/><path d="M141.22,445.32a3.66,3.66,0,0,0-3.62,3.12h-4.1a12.7,12.7,0,0,0-3.48-8.31l2.5-2.5a3.6,3.6,0,0,0,2.25.8,3.69,3.69,0,0,0,2.6-6.29,3.76,3.76,0,0,0-5.2,0,3.68,3.68,0,0,0-.35,4.78l-2.52,2.52a12.64,12.64,0,0,0-8.44-3.3V432.3a3.66,3.66,0,1,0-1,0v3.9a12.65,12.65,0,0,0-7.27,2.95l-3-3.06a3.67,3.67,0,0,0-.35-4.77,3.78,3.78,0,0,0-5.21,0,3.69,3.69,0,0,0,0,5.2,3.65,3.65,0,0,0,2.6,1.08,3.7,3.7,0,0,0,2.26-.79l3,3a12.67,12.67,0,0,0-3.78,8.63h-4.42a3.7,3.7,0,1,0,0,1h4.41a12.67,12.67,0,0,0,3.27,7.95l-3.53,3.53a3.77,3.77,0,0,0-4.77.35,3.68,3.68,0,1,0,5.49.35l3.51-3.51a12.59,12.59,0,0,0,7.82,3.45v4.67a3.7,3.7,0,1,0,1,0v-4.61a12.77,12.77,0,0,0,9-3.8l3,3A3.7,3.7,0,0,0,132,463a3.69,3.69,0,1,0,1.51-3l-3-3a12.7,12.7,0,0,0,3-7.63h4.1a3.67,3.67,0,1,0,3.63-4.12Zm-8.34-12.47a2.69,2.69,0,0,1,3.79,0,2.69,2.69,0,0,1,0,3.79,2.75,2.75,0,0,1-3.79,0A2.67,2.67,0,0,1,132.88,432.85Zm-24.4,3a2.75,2.75,0,0,1-3.79,0,2.67,2.67,0,0,1,0-3.79,2.67,2.67,0,0,1,3.79,0A2.69,2.69,0,0,1,108.48,435.81ZM100,451.68a2.68,2.68,0,1,1,2.68-2.68A2.69,2.69,0,0,1,100,451.68Zm7.51,14.09a2.75,2.75,0,0,1-3.79,0,2.68,2.68,0,1,1,3.79,0Zm30.07-4.63a2.69,2.69,0,0,1,.78,1.9,2.65,2.65,0,0,1-.78,1.89,2.69,2.69,0,0,1-3.8,0A2.65,2.65,0,0,1,133,463a2.68,2.68,0,0,1,4.58-1.9Zm-19.87-32.48a2.68,2.68,0,1,1,2.68,2.68A2.68,2.68,0,0,1,117.74,428.66Zm5.36,41.19a2.68,2.68,0,1,1-2.68-2.68A2.69,2.69,0,0,1,123.1,469.85Zm-2.32-9.24a11.74,11.74,0,1,1,7.81-20.47h0l.71.71h0a11.71,11.71,0,0,1-8.53,19.77Zm20.44-8.93A2.68,2.68,0,1,1,143.9,449,2.69,2.69,0,0,1,141.22,451.68Z" fill="#231f20"/><path d="M124.42,444.41a4.56,4.56,0,1,0-4.5,5.32,4.74,4.74,0,0,0,.75-.06A4.56,4.56,0,0,0,124.42,444.41Zm-3.91,4.27a3.56,3.56,0,1,1-1.18-7,3.92,3.92,0,0,1,.59,0,3.57,3.57,0,0,1,.59,7.08Z" fill="#231f20"/><path d="M127.94,449.86a2.29,2.29,0,0,0-1.7-.39,2.38,2.38,0,0,0-1.9,2.74,2.31,2.31,0,0,0,2.28,2l.39,0a2.4,2.4,0,0,0,.93-4.31Zm-1.1,3.32a1.26,1.26,0,0,1-1-.22,1.41,1.41,0,0,1,.53-2.5l.22,0a1.23,1.23,0,0,1,.73.24,1.4,1.4,0,0,1-.52,2.5Z" fill="#231f20"/><path d="M119.48,452.82a2.25,2.25,0,0,0-1.7-.4,2.38,2.38,0,0,0-1.9,2.74,2.35,2.35,0,0,0,1,1.57,2.25,2.25,0,0,0,1.32.42l.39,0a2.4,2.4,0,0,0,.93-4.3Zm-1.1,3.31a1.26,1.26,0,0,1-1-.22,1.35,1.35,0,0,1-.56-.91,1.38,1.38,0,0,1,1.09-1.59l.21,0a1.23,1.23,0,0,1,.74.24,1.4,1.4,0,0,1-.52,2.5Z" fill="#231f20"/><path d="M142.69,140.93l-1.36-.25-2.59-.93c-.24.62-.49,1.31-.38,1.36s.23-.52.5-.5l3.83.32a4.09,4.09,0,0,0,1.56-3.18,3.07,3.07,0,0,0-.9-2.11,3,3,0,0,0-2-.82h-11.3a3.3,3.3,0,0,1-2.27-.71c-1.3-1.09-1.53-3.24-.54-5.11a.45.45,0,0,1,.1-.13c1.24-1.17,3.3-3.6,3.21-6.78,0-.76-.09-3.06-1.43-3.71a2.8,2.8,0,0,0-2.22-.06,3.13,3.13,0,0,0-1.81,1.74c-.36.66-8.26,15.05-10.58,17.6a.5.5,0,0,1-.37.17h-3.82v18.56l5.72,0h0a.44.44,0,0,1,.27.09,29,29,0,0,0,5.11,2.68,26.46,26.46,0,0,0,9,1.84H138a2.77,2.77,0,0,0,1.63-.66,2.94,2.94,0,0,0,.93-2.23,3.32,3.32,0,0,0-.51-1.73,3.62,3.62,0,0,0-2-1.49l-2.35.33c-.3-.36-.47-.53-.5-.5a3.53,3.53,0,0,0,.54,1l1.65-.5.66-.33,2.52-.06a3.36,3.36,0,0,0,2-1.3,3.41,3.41,0,0,0,.6-2.21,3.63,3.63,0,0,0-.42-1.57,3.72,3.72,0,0,0-2.08-1.73l.4-1.16c-1.29-.85-2.54-.89-3-.35a1.17,1.17,0,0,0-.2.92h2.74a1.82,1.82,0,0,1,.06.59l2.11-.31a3.35,3.35,0,0,0,1.75-1,3.6,3.6,0,0,0,.89-2.21A4,4,0,0,0,142.69,140.93Z" fill="#fdd600"/><path d="M144.91,143a3.9,3.9,0,0,0-2.7-3.71,3.88,3.88,0,0,0,1.54-3,3.93,3.93,0,0,0-3.86-4H128.56a2.34,2.34,0,0,1-1.61-.48,3.19,3.19,0,0,1-.33-3.81c1.36-1.3,3.56-4,3.46-7.47,0-.91-.11-3.66-2-4.58a3.85,3.85,0,0,0-3-.1,4.16,4.16,0,0,0-2.35,2.25c-.08.15-7.86,14.31-10.28,17.2h-3.59v-1a.5.5,0,0,0-.5-.5H97.09a.5.5,0,0,0-.5.5v22.6a.5.5,0,0,0,.5.5h11.26a.5.5,0,0,0,.5-.5v-1h3.36l2.22,0a28.86,28.86,0,0,0,5.16,2.7,27.45,27.45,0,0,0,9.4,1.91h7.53a3.74,3.74,0,0,0,3.56-3.89,4,4,0,0,0-1.19-2.89h.21a3.75,3.75,0,0,0,3.56-3.9,4,4,0,0,0-1.19-2.9A3.91,3.91,0,0,0,144.91,143Zm-3.56,2.9h-5a.5.5,0,0,0-.5.5.5.5,0,0,0,.5.5h2.75a2.92,2.92,0,0,1,0,5.79h-4.89a.5.5,0,0,0-.5.5.51.51,0,0,0,.5.5h2.32a2.91,2.91,0,0,1,0,5.78H129a26.46,26.46,0,0,1-9-1.84,28.64,28.64,0,0,1-5.11-2.68.44.44,0,0,0-.27-.09h0l-5.72,0V136.33h3.82a.5.5,0,0,0,.37-.17c2.32-2.55,10.22-16.94,10.58-17.6a3.13,3.13,0,0,1,1.81-1.74,2.8,2.8,0,0,1,2.22.06c1.34.65,1.41,3,1.43,3.71.09,3.18-2,5.61-3.21,6.78a.45.45,0,0,0-.1.13c-1,1.87-.76,4,.54,5.11a3.3,3.3,0,0,0,2.27.71h11.3a2.9,2.9,0,0,1,0,5.79h-2.53a.5.5,0,0,0,0,1h3.94a2.91,2.91,0,0,1,0,5.79ZM97.59,134.8h10.26v21.6H97.59Z" fill="#231f20"/><path d="M202.43,161V149.79h-5.26c-.31-1.61-1.23-2.79-2.33-2.79h-1.71c0-1.77,0-3.55-.07-5.32a8.72,8.72,0,0,0,4.89-2.87c3.65-3.78,7.44-11.69,7.27-22.64H179.64c-.1,11,3.79,18.93,7.51,22.69a11.51,11.51,0,0,0,2.79,2.13c0,2,0,4,.05,6h-2.33c-1.1,0-2,1.18-2.33,2.79h-2.76V161H181v1.89H204V161h-1.53Zm-4.62-4.93H184.19v-4.18h13.62Z" fill="#fdd600"/><path d="M183.19,151.42v5.18a.5.5,0,0,0,.5.5h14.62a.5.5,0,0,0,.5-.5v-5.18a.5.5,0,0,0-.5-.5H183.69A.5.5,0,0,0,183.19,151.42Zm1,.5h13.62v4.18H184.19Z" fill="#231f20"/><path d="M197.17,138a21,21,0,0,0,2.67-3.52A14.48,14.48,0,0,0,206.3,131a16.62,16.62,0,0,0,5.09-10.81,4.25,4.25,0,0,0-1-3.14c-1.08-1-3-1.07-5.65-.15,0-.9.05-1.8,0-2.74a.51.51,0,0,0-.5-.49H177.64a.51.51,0,0,0-.5.49c0,.92,0,1.81,0,2.69-2.6-.87-4.45-.81-5.51.2a4.29,4.29,0,0,0-1.06,3.18A16.56,16.56,0,0,0,175.7,131a14.28,14.28,0,0,0,6.43,3.43,20.79,20.79,0,0,0,2.81,3.64,11.78,11.78,0,0,0,3.5,2.52v4.91h-.88a3.35,3.35,0,0,0-3.3,2.84h-3.69a.5.5,0,0,0-.5.5v9.84h-1a.5.5,0,0,0-.5.5v2.74a.5.5,0,0,0,.5.5H203a.5.5,0,0,0,.5-.5v-2.74a.5.5,0,0,0-.5-.5h-1v-9.84a.5.5,0,0,0-.5-.5h-3.69a3.35,3.35,0,0,0-3.3-2.84h-.88v-4.87A11.62,11.62,0,0,0,197.17,138Zm-.44,10.33H185.27a2.36,2.36,0,0,1,2.29-1.84h6.88A2.36,2.36,0,0,1,196.73,148.34Zm4.2,1v9.34H181.07v-9.34Zm-11.49-3.88V141a5.79,5.79,0,0,0,1.61.25h0a5.88,5.88,0,0,0,1.46-.22v4.46Zm-11.3-30.79h25.58c.17,11-3.62,18.86-7.27,22.64-1.8,1.86-3.7,2.89-5.36,2.91h0c-1.66,0-3.58-1-5.4-2.86C181.93,133.6,178,125.69,178.14,114.67Zm31.5,3.11a3.28,3.28,0,0,1,.75,2.41,15.81,15.81,0,0,1-4.77,10.09,13.54,13.54,0,0,1-5,2.94A36.81,36.81,0,0,0,204.65,118C207.06,117.08,208.84,117,209.64,117.78Zm-33.25,12.49a15.68,15.68,0,0,1-4.78-10.05,3.36,3.36,0,0,1,.75-2.44c.79-.76,2.52-.7,4.87.15a36.71,36.71,0,0,0,4.15,15.23A13.1,13.1,0,0,1,176.39,130.27Zm26.07,31.15H179.54v-1.74h22.92Z" fill="#231f20"/><path d="M195.39,135.34a.52.52,0,0,0,.41-.21,31.65,31.65,0,0,0,3.91-7.3,32.85,32.85,0,0,0,1.87-7.72.5.5,0,0,0-1-.11,31,31,0,0,1-1.81,7.48,30.61,30.61,0,0,1-3.78,7.07.5.5,0,0,0,.11.69A.46.46,0,0,0,195.39,135.34Z" fill="#231f20"/><path d="M254,157.84a.53.53,0,0,0-.17,0l2.53,3.59.12-.46-2.08-3A.5.5,0,0,0,254,157.84Z" fill="none"/><path d="M273.1,145.9l-.6-2.28a15.74,15.74,0,1,0-20.57-.08c.24.22.5.42.76.62q-2.19,8.16-4.37,16.32l2.18-1,3.25-1.55a.41.41,0,0,1,.21,0,.48.48,0,0,1,.41.21l.93,1.33,2.53,3.59.12-.46,3.33-12.78.24-.94.35-1.38.39,0c.33,0,.65,0,1-.05l.39,1.58,3.8,14,.81-1.16,2.65-3.78a.49.49,0,0,1,.62-.16l5.43,2.59L273.38,147Zm-7.49-17.85,3.16.94-1.13,1.1-2.4,2.34.89,5.17a.5.5,0,0,1-.16.43s0,0,0,.06a.51.51,0,0,1-.53,0l-3.48-1.83-1.16-.61L258.32,137l-2.2,1.16a.46.46,0,0,1-.23.06.54.54,0,0,1-.3-.1s0,0,0-.05l1.14-4-.55-.78.14-.83-3.15-3.08a2.59,2.59,0,0,1,.84-1.23l4.59-.38q1-2.22,1.9-4.43a4.18,4.18,0,0,1,1.26.18l1.81,3.67,1.62.24Z" fill="#fdd600"/><path d="M261,147.41h.05l0-.09Z" fill="#231f20"/><path d="M272.44,143.73l-.33-1.28A16.73,16.73,0,1,0,250,143l-4.45,16.74a.5.5,0,0,0,.16.51.53.53,0,0,0,.54.07l2.38-1.14,3.64-1.74.58.83,3.25,4.63a.49.49,0,0,0,.41.22h.09a.51.51,0,0,0,.39-.37l.18-.69,3.57-13.72.25-1,0-.09,0,.09.27,1,.14.53,3.75,13.85a.52.52,0,0,0,.4.36h.09a.5.5,0,0,0,.41-.22l.94-1.34,2.89-4.12L271,158l4.95,2.36a.5.5,0,0,0,.51-.06h0a.49.49,0,0,0,.16-.51l-3.92-15ZM260,147.29l-.24.94L256.43,161l-.12.46-2.53-3.59-.93-1.33a.51.51,0,0,0-.41-.21.54.54,0,0,0-.21,0L249,157.94l-2.17,1,4.05-15.27.46.31.13.09c.42.28.86.55,1.3.79h0a15.92,15.92,0,0,0,1.44.7l.09,0,.48.19-.19.73L253,152.62a.52.52,0,0,0,.35.62h.13a.49.49,0,0,0,.48-.37L255.5,147l.23-.85.23.07.61.16.6.15.28.06c.51.11,1,.18,1.52.24l.25,0c.29,0,.58,0,.88.06Zm.74-1.36c-.51,0-1,0-1.5-.07l-.4-.05c-.36-.05-.72-.1-1.07-.17l-.47-.1c-.33-.07-.65-.15-1-.25l-.44-.13c-.34-.12-.68-.24-1-.38l-.33-.13a15.74,15.74,0,1,1,16.34-2.42l-.27.21a10.49,10.49,0,0,1-.85.64l-.33.23c-.34.22-.68.43-1,.62l-.19.12q-.65.34-1.32.63l-.18.07A15.62,15.62,0,0,1,260.74,145.93ZM270,156.39a.49.49,0,0,0-.62.16l-2.65,3.78-.81,1.16-3.8-14-.14-.54a16.33,16.33,0,0,0,3.74-.75h0l.56-.19.24.89.26,1,1.36,5a.49.49,0,0,0,.48.37h.13a.5.5,0,0,0,.35-.62l-1.36-5.06-.27-1-.25-.94,0,0,.14,0c.42-.18.82-.39,1.22-.6l.24-.13q.56-.31,1.08-.66l.22-.15c.37-.25.74-.52,1.1-.81l.31,1.2.28,1L275.41,159Z" fill="#231f20"/><path d="M274,130.19a13.28,13.28,0,1,0-13.3,13.3A13.22,13.22,0,0,0,274,130.19Zm-13.3,12.3a12.3,12.3,0,0,1,0-24.6,12.14,12.14,0,0,1,4.68.93,12.3,12.3,0,0,1-4.68,23.67Z" fill="#231f20"/><path d="M268.69,127.92l-5.18-.75-2.32-4.7a.52.52,0,0,0-.9,0l-2.32,4.7-5.19.76a.48.48,0,0,0-.4.34.49.49,0,0,0,.13.51l3.75,3.66-.88,5.16a.49.49,0,0,0,.19.49.57.57,0,0,0,.3.1.46.46,0,0,0,.23-.06l2.2-1.16,2.44-1.28,1.16.61,3.48,1.83a.51.51,0,0,0,.53,0l0-.06a.5.5,0,0,0,.16-.43l-.89-5.17,2.4-2.34,1.35-1.31a.51.51,0,0,0,.13-.52A.51.51,0,0,0,268.69,127.92Zm-2.32,2-2,2a.5.5,0,0,0-.14.45l.76,4.42-4-2.09a.53.53,0,0,0-.46,0l-2,1-2,1,.76-4.42a.54.54,0,0,0-.08-.35.53.53,0,0,0-.06-.1l-1.64-1.59-1.58-1.54,4.45-.65a.47.47,0,0,0,.37-.27l2-4,1.15,2.33.84,1.7a.47.47,0,0,0,.37.27l.58.09,3.87.56Z" fill="#231f20"/><path d="M354.67,121.93l-9.61-5.55L334.77,134.2a14.94,14.94,0,0,0-2.43-.22,14.59,14.59,0,0,0-2.49.23l-10.24-17.83-9.6,5.55,10.55,18.19a14.41,14.41,0,1,0,23.6,0Q349.41,131.05,354.67,121.93ZM337.38,146.4,334.9,149l.6,4.55c0,.18.05.27-.11.38s.46.28.36.28,0,.23-.11.19L331,151.79l-3.92,1.9c-.17.09-.59.64-.74.53s0-1.38.08-1.57l.55-3.72-2.34-2.36c-.14-.14-.32.16-.37,0-.29-1.1.13-1.46.31-1.49l4.19-.55,2.08-4.05.7.25h0l.33.72,1.43,3.05,3.93.58c.19,0,1.1.18,1.16.36S337.51,146.27,337.38,146.4Z" fill="#fdd600"/><path d="M338.53,144.82l-5-.76-2.2-4.55a.51.51,0,0,0-.45-.28h0a.5.5,0,0,0-.45.28L328.17,144l-5,.69a.49.49,0,0,0-.41.33.53.53,0,0,0,.12.52l3.6,3.55-.89,5a.49.49,0,0,0,.19.49.51.51,0,0,0,.53,0l4.48-2.31,4.46,2.38a.46.46,0,0,0,.23.06.45.45,0,0,0,.29-.1.49.49,0,0,0,.21-.48l-.82-5,3.64-3.5a.49.49,0,0,0,.13-.51A.5.5,0,0,0,338.53,144.82Zm-4.25,3.81a.49.49,0,0,0-.15.44l.69,4.25-3.79-2a.47.47,0,0,0-.46,0l-3.82,2,.76-4.23a.56.56,0,0,0-.14-.45l-3.06-3,4.26-.59a.5.5,0,0,0,.38-.27l1.93-3.84,1.87,3.87a.51.51,0,0,0,.38.28l4.25.64Z" fill="#231f20"/><path d="M354.34,120.21a.56.56,0,0,0-.23-.31l-10.47-6a.51.51,0,0,0-.69.18l-10.19,17.67a13.17,13.17,0,0,0-3.83,0L318.74,114a.51.51,0,0,0-.69-.18l-10.47,6a.52.52,0,0,0-.23.31.51.51,0,0,0,0,.38l10.47,18.12a15.24,15.24,0,0,0-2.43,8.27,15.41,15.41,0,1,0,28.38-8.27l10.47-18.12A.51.51,0,0,0,354.34,120.21Zm-45.82.31,9.6-5.54,9.75,16.89a15.11,15.11,0,0,0-5,1.94l-4.72-8.16a.5.5,0,0,0-.86.5l4.73,8.2a15.34,15.34,0,0,0-3.55,3.46ZM345.25,147a14.41,14.41,0,1,1-14.41-14.41A14.42,14.42,0,0,1,345.25,147Zm-2.06-9.17a15.31,15.31,0,0,0-3.49-3.42l4.76-8.24a.5.5,0,1,0-.86-.5l-4.74,8.2a15.12,15.12,0,0,0-5-2L343.57,115l9.6,5.54Z" fill="#231f20"/><path d="M330.84,134.58A12.41,12.41,0,1,0,343.25,147,12.41,12.41,0,0,0,330.84,134.58Zm0,23.81A11.41,11.41,0,1,1,342.25,147,11.42,11.42,0,0,1,330.84,158.39Z" fill="#231f20"/><path d="M411.49,145l2-.27a.52.52,0,0,0,.38-.27l.62-1.23a.51.51,0,0,1-.33-.26l-.88-1.82-.91,1.81a.52.52,0,0,1-.38.27l-2,.27,1.43,1.42a.49.49,0,0,1,.14.44l-.35,2,1.73-.9,0,0Z" fill="none"/><path d="M409.6,152.42l-1.05,2.37a.51.51,0,0,1-.46.29.48.48,0,0,1-.2,0,.49.49,0,0,1-.25-.66l1.05-2.37s.05-.06.07-.1a8.94,8.94,0,0,1-1.68-1.25l-2.55,6.18,2.83-.3h.06a.52.52,0,0,1,.41.21l1.41,2,2.37-5.75a9,9,0,0,1-2-.62A.64.64,0,0,1,409.6,152.42Z" fill="none"/><polygon points="424.25 118.84 424.25 117.34 377.25 117.34 377.25 147.09 378.75 147.09 378.75 118.84 424.25 118.84" fill="none"/><path d="M417.33,152.14l1,2.24a.49.49,0,0,1-.25.66.51.51,0,0,1-.2,0,.5.5,0,0,1-.46-.29l-1-2.25a9.29,9.29,0,0,1-2,.51l2.34,5.67,1.41-2a.51.51,0,0,1,.46-.2l2.84.3L419,151A9.25,9.25,0,0,1,417.33,152.14Z" fill="none"/><path d="M420.32,138.56a8.94,8.94,0,0,1,1.94,5.56,9.12,9.12,0,0,1-.51,3h1.88a8.87,8.87,0,0,0-3.31-8.53Z" fill="none"/><path d="M424.25,118.84h-45.5v29.75h26.71l-.28-.5c-.07-.13-.14-.28-.21-.44a4.42,4.42,0,0,1-.21-.56,9.12,9.12,0,0,1-.51-3,9,9,0,0,1,17.87-1.58,9.16,9.16,0,0,1,0,2.88,9.68,9.68,0,0,1-.41,1.67,8.14,8.14,0,0,1-.43,1c-.08.17-.17.34-.26.5h4.69V118.84Z" fill="#fdd600"/><path d="M425.25,147.59V116.84a.51.51,0,0,0-.5-.5h-48a.51.51,0,0,0-.5.5v30.75a.51.51,0,0,0,.5.5h28.43l.28.5a9.3,9.3,0,0,0,.87,1.28l-3,7.37a.48.48,0,0,0,.06.49.5.5,0,0,0,.45.2l3.38-.37L409,160a.49.49,0,0,0,.4.21h.06a.5.5,0,0,0,.41-.3l2.82-6.85c.21,0,.41,0,.61,0h.09l2.81,6.82a.5.5,0,0,0,.41.3h.05A.51.51,0,0,0,417,160l1.77-2.48,3.38.37a.51.51,0,0,0,.45-.2.48.48,0,0,0,.06-.49l-2.87-7a8.91,8.91,0,0,0,1.51-2.19h3.43A.51.51,0,0,0,425.25,147.59Zm-16,11.13-1.41-2a.52.52,0,0,0-.41-.21h-.06l-2.83.3,2.55-6.18a8.94,8.94,0,0,0,1.68,1.25s-.05.06-.07.1l-1.05,2.37a.49.49,0,0,0,.25.66.48.48,0,0,0,.2,0,.51.51,0,0,0,.46-.29l1.05-2.37a.64.64,0,0,0,0-.07,9,9,0,0,0,2,.62Zm12.2-1.88-2.84-.3a.51.51,0,0,0-.46.2l-1.41,2-2.34-5.67a9.29,9.29,0,0,0,2-.51l1,2.25a.5.5,0,0,0,.46.29.51.51,0,0,0,.2,0,.49.49,0,0,0,.25-.66l-1-2.24A9.25,9.25,0,0,0,419,151Zm-8.19-4.71a8,8,0,0,1,0-16,7.92,7.92,0,0,1,3.19.66,8,8,0,0,1-3.19,15.35Zm10.38-5h-1.88a9.12,9.12,0,0,0,.51-3,9,9,0,0,0-18,0,9.12,9.12,0,0,0,.51,3H377.25V117.34h47v29.75Z" fill="#231f20"/><path d="M418.3,123.72H382.17a.5.5,0,0,0-.5.5.5.5,0,0,0,.5.5H418.3a.5.5,0,0,0,.5-.5A.51.51,0,0,0,418.3,123.72Z" fill="#231f20"/><path d="M418.3,130.31H382.17a.5.5,0,0,0-.5.5.5.5,0,0,0,.5.5H418.3a.5.5,0,0,0,.5-.5A.51.51,0,0,0,418.3,130.31Z" fill="#231f20"/><path d="M403.59,138.06H382.17a.5.5,0,0,0-.5.5.5.5,0,0,0,.5.5h21.42a.51.51,0,0,0,.5-.5A.5.5,0,0,0,403.59,138.06Z" fill="#231f20"/><path d="M415,143.7h0a.51.51,0,0,1-.33-.26l-.88-1.82-.91,1.81a.52.52,0,0,1-.38.27l-2,.27,1.43,1.42a.49.49,0,0,1,.14.44l-.35,2,1.73-.9.06,0a.59.59,0,0,1,.23,0,.46.46,0,0,1,.23.06l1.78,1-.33-2a.51.51,0,0,1,.15-.44l.56-.54.9-.86-1.42-.22Z" fill="#fdd600"/><path d="M418.07,143a.51.51,0,0,0-.4-.35l-2.74-.41-1.2-2.49a.5.5,0,0,0-.45-.29h0a.51.51,0,0,0-.45.28l-1.24,2.47-2.74.38a.51.51,0,0,0-.41.34.5.5,0,0,0,.12.51l2,1.95-.49,2.72a.5.5,0,0,0,.72.53l2.17-1.12.29-.15,1.1.59,1.34.72a.53.53,0,0,0,.24.06.46.46,0,0,0,.29-.1s0,0,.07-.08a.46.46,0,0,0,.13-.4l-.45-2.73.68-.65,1.32-1.27A.49.49,0,0,0,418.07,143Zm-2.45,1.35-.56.54a.51.51,0,0,0-.15.44l.33,2-1.78-1a.46.46,0,0,0-.23-.06.59.59,0,0,0-.23,0l-.06,0-1.73.9.35-2a.49.49,0,0,0-.14-.44L410,143.46l2-.27a.52.52,0,0,0,.38-.27l.91-1.81.88,1.82a.51.51,0,0,0,.33.26h0l.58.09,1.42.22Z" fill="#231f20"/><path d="M480.89,144.29h-.58V134.5H464.19v5.34H448.65v19.42h47.2v-15Zm-21.61,1.83c-.09,1.82-1.15,4-3.09,4.67a4,4,0,0,1-1.9.12c-2.61-.52-5.38-4.13-4.13-7.1a4.77,4.77,0,0,1,9.12,2.31ZM475.42,142c-.1.41-.84,3.48-3.51,4.25A4.65,4.65,0,0,1,469,146a5.09,5.09,0,0,1-3-5.7,5,5,0,0,1,4.54-3.76,4.9,4.9,0,0,1,5,3.06A4.12,4.12,0,0,1,475.42,142ZM491.57,152a5,5,0,0,1-4.34,3.18,4.73,4.73,0,0,1-1.49-.16c-1.84-.54-4.23-2.56-3.92-5.33a5,5,0,0,1,4.34-4.25c3-.35,5.33,2.42,5.61,4.66A4.28,4.28,0,0,1,491.57,152Z" fill="#fdd600"/><path d="M463.27,157.76h15V133h-15Zm7.48-21.69a5.37,5.37,0,0,1,5.32,4.78,4.31,4.31,0,0,1,.57,2.1,4.4,4.4,0,0,1-4.39,4.39,4.28,4.28,0,0,1-2.1-.56,5.37,5.37,0,0,1,.6-10.71Z" fill="none"/><path d="M470.62,123.27A.51.51,0,0,0,471,123l.88-1.75L470.77,119l-1.27,2.53a.53.53,0,0,1-.38.27l-2.81.38,1.52,1.5Z" fill="none"/><path d="M447.15,157.76h15V138.34h-15Zm7.48-17.2a5.39,5.39,0,0,1,5.33,4.79,4.34,4.34,0,0,1-5.93,5.92,5.37,5.37,0,0,1,.6-10.71Z" fill="none"/><path d="M452.39,149.7a4.34,4.34,0,0,1-.64-2.25,4.36,4.36,0,0,1,6.63-3.75,4.37,4.37,0,1,0-6,6Z" fill="none"/><path d="M468.5,145.2a4.36,4.36,0,0,1,3.75-6.63,4.34,4.34,0,0,1,2.25.64,4.38,4.38,0,1,0-6,6Z" fill="none"/><path d="M469.83,125.65l-1.48-1.46a.45.45,0,0,1,.12.4l-.5,2.79,1.95-1,.05-.29A.48.48,0,0,0,469.83,125.65Z" fill="none"/><path d="M479.39,157.76h15v-15h-15Zm7.48-12.87a5.37,5.37,0,0,1,5.32,4.78,4.31,4.31,0,0,1,.56,2.1,4.35,4.35,0,0,1-6.48,3.83,5.37,5.37,0,0,1,.6-10.71Z" fill="none"/><path d="M484.62,154a4.4,4.4,0,0,1-.64-2.25,4.35,4.35,0,0,1,1.44-3.22v-.32h.39a4.28,4.28,0,0,1,4.8-.2,4.37,4.37,0,1,0-6,6Z" fill="none"/><path d="M472.88,122.29a.47.47,0,0,1-.37-.27l-.13-.27-1.11-2.28L470,122a.53.53,0,0,1-.38.27l-2.81.38,1.52,1.5.5.5,0,0a.45.45,0,0,1,.12.4l-.5,2.79,1.95-1,.57-.3a.46.46,0,0,1,.23,0,.53.53,0,0,1,.24.06l2.49,1.33-.46-2.79a.51.51,0,0,1,.15-.44l.9-.87,1.14-1.1-2.22-.34Z" fill="#fdd600"/><path d="M494.85,141.79H479.23V132.5a.5.5,0,0,0-.5-.5h-16a.5.5,0,0,0-.5.5v4.84H446.65a.5.5,0,0,0-.5.5v20.42a.5.5,0,0,0,.5.5h16l.08,0,.08,0h16l.08,0,.08,0h16a.5.5,0,0,0,.5-.5v-16A.5.5,0,0,0,494.85,141.79Zm-32.74,16h-15V138.34h15Zm16.12,0h-15V133h15Zm16.12,0h-15v-15h15Z" fill="#231f20"/><polygon points="469.6 139.65 469.76 140.26 470.53 140.04 470.53 143.58 471.27 143.58 471.27 139.28 470.75 139.28 469.6 139.65" fill="#231f20"/><path d="M476.73,121.73a.49.49,0,0,0-.4-.34l-3.54-.54-1.56-3.23a.51.51,0,0,0-.45-.28h0a.5.5,0,0,0-.45.27l-1.61,3.2-3.55.49a.51.51,0,0,0-.4.34.5.5,0,0,0,.12.51l2.55,2.52-.63,3.53a.49.49,0,0,0,.2.49.47.47,0,0,0,.52,0l2.17-1.11,1-.53,1.1.59,2.06,1.1a.53.53,0,0,0,.24.06.52.52,0,0,0,.29-.09s0-.06.07-.08a.49.49,0,0,0,.13-.41l-.58-3.53,1.27-1.22,1.31-1.27A.49.49,0,0,0,476.73,121.73ZM474,123.32l-.9.87a.51.51,0,0,0-.15.44l.46,2.79L471,126.09a.53.53,0,0,0-.24-.06.59.59,0,0,0-.23,0l-.57.3-1.95,1,.5-2.79a.45.45,0,0,0-.12-.4l0,0-.5-.5-1.52-1.5,2.81-.38a.53.53,0,0,0,.38-.27l1.27-2.53,1.11,2.28.13.27a.47.47,0,0,0,.37.27l.58.09,2.22.34Z" fill="#231f20"/><path d="M456.19,145h0a1.28,1.28,0,0,0-1.41-1.28,1.75,1.75,0,0,0-1.57.89l.53.42c.33-.42.6-.64,1-.64a.65.65,0,0,1,.69.67c0,.38-.22.65-.8,1.15l-1.47,1.25v.59h3.08v-.66h-2l.88-.73C455.84,146.05,456.19,145.68,456.19,145Z" fill="#231f20"/><path d="M470.15,146.78a5.8,5.8,0,0,0,.6.06,5.4,5.4,0,0,0,5.39-5.39,4.09,4.09,0,0,0-.07-.6,5.37,5.37,0,1,0-5.92,5.93Zm.6-9.71a4.37,4.37,0,1,1-4.39,4.38A4.38,4.38,0,0,1,470.75,137.07Z" fill="#231f20"/><path d="M454,151.27a4.09,4.09,0,0,0,.6.07A5.4,5.4,0,0,0,460,146a5.8,5.8,0,0,0-.06-.6,5.37,5.37,0,1,0-5.93,5.92Zm.6-9.71a4.39,4.39,0,0,1,3.75,2.14A4.34,4.34,0,0,1,459,146a4.39,4.39,0,1,1-4.39-4.39Z" fill="#231f20"/><path d="M486.87,144.89a5.37,5.37,0,0,0-.6,10.71,5.8,5.8,0,0,0,.6.06,5.39,5.39,0,0,0,5.38-5.39,4.07,4.07,0,0,0-.06-.6A5.37,5.37,0,0,0,486.87,144.89Zm0,9.77a4.31,4.31,0,0,1-2.25-.64,4.37,4.37,0,1,1,6-6,4.3,4.3,0,0,1,.64,2.24A4.39,4.39,0,0,1,486.87,154.66Z" fill="#231f20"/><path d="M487.27,148.88l-1.16,1.23.12.47h.35c.6,0,1,.24,1,.66h0a.66.66,0,0,1-.73.65,1.39,1.39,0,0,1-1.13-.57l-.52.49a2,2,0,0,0,1.63.75,1.36,1.36,0,0,0,1.5-1.35h0c0-.79-.61-1.12-1.26-1.2l1.19-1.22v-.56h-2.82v.65Z" fill="#231f20"/><path d="M383.77,218a5.93,5.93,0,0,0-4.43-.65,4.57,4.57,0,0,0,2.21,3.32h0a5.92,5.92,0,0,0,4.43.65A4.63,4.63,0,0,0,383.77,218Z" fill="#fdd600"/><path d="M378.87,208.36a4.27,4.27,0,0,0,1.15,3.72,5.61,5.61,0,0,0,4.1,1.64A4.28,4.28,0,0,0,383,210,5.69,5.69,0,0,0,378.87,208.36Z" fill="#fdd600"/><path d="M388.84,203.39a4.24,4.24,0,0,0-1-3.79,4.8,4.8,0,0,0-2.7,3.14,4.26,4.26,0,0,0,1,3.79A4.76,4.76,0,0,0,388.84,203.39Z" fill="#fdd600"/><path d="M391.13,218.72a4.16,4.16,0,0,0,.47-3.84,5.41,5.41,0,0,0-3.76,2.18,4.16,4.16,0,0,0-.47,3.84A5.41,5.41,0,0,0,391.13,218.72Z" fill="#fdd600"/><path d="M395,223.31a4.29,4.29,0,0,0-1.32-3.73,4.67,4.67,0,0,0-2.46,3.28,4.34,4.34,0,0,0,1.32,3.74A4.69,4.69,0,0,0,395,223.31Z" fill="#fdd600"/><path d="M387.68,225a5.84,5.84,0,0,0-4.32.93,5.33,5.33,0,0,0,3.55,2.28,5.83,5.83,0,0,0,4.31-.93A5.33,5.33,0,0,0,387.68,225Z" fill="#fdd600"/><path d="M423.48,212.08a4.27,4.27,0,0,0,1.15-3.72,5.69,5.69,0,0,0-4.1,1.64,4.28,4.28,0,0,0-1.15,3.72A5.61,5.61,0,0,0,423.48,212.08Z" fill="#fdd600"/><path d="M389.73,212.29a4.35,4.35,0,0,0,1.59-3.59,5.88,5.88,0,0,0-4.27,1.25,4.41,4.41,0,0,0-1.59,3.59A5.77,5.77,0,0,0,389.73,212.29Z" fill="#fdd600"/><path d="M416.45,210a5.82,5.82,0,0,0-4.27-1.25,4.35,4.35,0,0,0,1.59,3.59,5.77,5.77,0,0,0,4.27,1.25A4.41,4.41,0,0,0,416.45,210Z" fill="#fdd600"/><path d="M418.41,202.74a4.84,4.84,0,0,0-2.71-3.14,4.24,4.24,0,0,0-1,3.79,4.76,4.76,0,0,0,2.71,3.14A4.27,4.27,0,0,0,418.41,202.74Z" fill="#fdd600"/><path d="M400,230l.2-.25a4.08,4.08,0,0,0,.33-3.59h0a5,5,0,0,0-3.13-2.83,4.16,4.16,0,0,0-.49,3.86A5,5,0,0,0,400,230Z" fill="#fdd600"/><path d="M419.74,218a4.61,4.61,0,0,0-2.22,3.32,5.92,5.92,0,0,0,4.43-.65,4.61,4.61,0,0,0,2.22-3.32A5.92,5.92,0,0,0,419.74,218Z" fill="#fdd600"/><path d="M411.9,214.88a4.16,4.16,0,0,0,.47,3.84,5.41,5.41,0,0,0,3.77,2.18,4.19,4.19,0,0,0-.48-3.84A5.41,5.41,0,0,0,411.9,214.88Z" fill="#fdd600"/><path d="M412.28,227.25a5.83,5.83,0,0,0,4.31.93,5.33,5.33,0,0,0,3.55-2.28,5.84,5.84,0,0,0-4.32-.93A5.33,5.33,0,0,0,412.28,227.25Z" fill="#fdd600"/><path d="M394.84,230.51A5.19,5.19,0,0,0,391.5,233a6,6,0,0,0,4.4.63,5.19,5.19,0,0,0,3.33-2.51A5.94,5.94,0,0,0,394.84,230.51Z" fill="#fdd600"/><path d="M403.45,230a5,5,0,0,0,3.1-2.82,4.16,4.16,0,0,0-.49-3.86,5,5,0,0,0-3.13,2.84,4.15,4.15,0,0,0,.38,3.69Z" fill="#fdd600"/><path d="M401.72,229.69a4.44,4.44,0,0,0-1.85,3.56,4.54,4.54,0,0,0,2,3.54,4.42,4.42,0,0,0,1.86-3.55A4.54,4.54,0,0,0,401.72,229.69Z" fill="#fdd600"/><path d="M404.27,231.15a5.19,5.19,0,0,0,3.33,2.51A6,6,0,0,0,412,233a5.17,5.17,0,0,0-3.33-2.52A6,6,0,0,0,404.27,231.15Z" fill="#fdd600"/><path d="M412.29,222.86a4.67,4.67,0,0,0-2.46-3.28,4.29,4.29,0,0,0-1.32,3.73A4.69,4.69,0,0,0,411,226.6,4.34,4.34,0,0,0,412.29,222.86Z" fill="#fdd600"/><path d="M424.09,215.72a7,7,0,0,0-5.63.66,5.16,5.16,0,0,0-.61.43,16.44,16.44,0,0,0,.51-2.84h.24a6.69,6.69,0,0,0,4.85-1.94,5.29,5.29,0,0,0,1.33-5,.5.5,0,0,0-.46-.37,6.76,6.76,0,0,0-5.26,1.93,5.34,5.34,0,0,0-.86,1.17,17.27,17.27,0,0,0-.87-3.26,5.24,5.24,0,0,0,1.3-4.71,5.91,5.91,0,0,0-3.61-4,.51.51,0,0,0-.55.11,5.31,5.31,0,0,0-1.54,5,5.86,5.86,0,0,0,3.45,3.9,15.25,15.25,0,0,1,.72,2.45,6.2,6.2,0,0,0-.76-.78,6.84,6.84,0,0,0-5.45-1.43.49.49,0,0,0-.42.43,5.36,5.36,0,0,0,1.9,4.86,6.67,6.67,0,0,0,4.34,1.52c.22,0,.44,0,.66,0a15.82,15.82,0,0,1-.82,3.87,5.31,5.31,0,0,0-.81-1.9,6.51,6.51,0,0,0-4.87-2.65.51.51,0,0,0-.5.29,5.22,5.22,0,0,0,.42,5.16,6.4,6.4,0,0,0,4.08,2.54,17.35,17.35,0,0,1-2.51,3.12,5,5,0,0,0,.17-2.24,5.78,5.78,0,0,0-3.31-4.19.52.52,0,0,0-.56.07,5.39,5.39,0,0,0-1.89,4.87,5.59,5.59,0,0,0,2.68,3.84,21.09,21.09,0,0,1-3.86,2,5.55,5.55,0,0,0,1.15-1.78,5.24,5.24,0,0,0-.83-5.12.53.53,0,0,0-.54-.18,6.16,6.16,0,0,0-4.13,3.54,5.58,5.58,0,0,0-.24.89,5.58,5.58,0,0,0-.24-.89h0a6.13,6.13,0,0,0-4.13-3.54.53.53,0,0,0-.54.18,5.24,5.24,0,0,0-.83,5.12,5.55,5.55,0,0,0,1.15,1.78,21.09,21.09,0,0,1-3.86-2,5.59,5.59,0,0,0,2.68-3.84,5.39,5.39,0,0,0-1.89-4.87.52.52,0,0,0-.56-.07,5.78,5.78,0,0,0-3.31,4.19,5,5,0,0,0,.17,2.24,17.35,17.35,0,0,1-2.51-3.12,6.4,6.4,0,0,0,4.08-2.54,5.22,5.22,0,0,0,.42-5.16.51.51,0,0,0-.5-.29,6.51,6.51,0,0,0-4.87,2.65,5.31,5.31,0,0,0-.81,1.9,15.82,15.82,0,0,1-.82-3.87c.22,0,.44,0,.66,0a6.65,6.65,0,0,0,4.34-1.52,5.36,5.36,0,0,0,1.9-4.86.49.49,0,0,0-.42-.43,6.84,6.84,0,0,0-5.45,1.43,5.66,5.66,0,0,0-.76.79,16.13,16.13,0,0,1,.72-2.46,5.86,5.86,0,0,0,3.45-3.9,5.31,5.31,0,0,0-1.54-5,.51.51,0,0,0-.55-.11,5.91,5.91,0,0,0-3.61,4,5.27,5.27,0,0,0,1.3,4.71,17.27,17.27,0,0,0-.87,3.26,5.34,5.34,0,0,0-.86-1.17,6.76,6.76,0,0,0-5.26-1.93.5.5,0,0,0-.46.37,5.29,5.29,0,0,0,1.33,5A6.69,6.69,0,0,0,383.4,214h.24a17.46,17.46,0,0,0,.51,2.84,5.16,5.16,0,0,0-.61-.43,7,7,0,0,0-5.63-.66.52.52,0,0,0-.36.51,5.55,5.55,0,0,0,2.72,4.52,6.71,6.71,0,0,0,3.52,1,7.33,7.33,0,0,0,2.11-.31.45.45,0,0,0,.2-.12,18.84,18.84,0,0,0,1.47,2.05l-.47-.11a6.91,6.91,0,0,0-5.47,1.39.51.51,0,0,0-.13.63,6.34,6.34,0,0,0,4.48,3.17,6.83,6.83,0,0,0,1.19.1,6.92,6.92,0,0,0,4.28-1.49l.05-.06a20.93,20.93,0,0,0,2.93,1.71c-.2,0-.39.06-.59.11a6.15,6.15,0,0,0-4.19,3.47.5.5,0,0,0,.17.62,7.07,7.07,0,0,0,3.93,1.2,6.52,6.52,0,0,0,1.64-.2,6.32,6.32,0,0,0,2.73-1.45v.08a5.58,5.58,0,0,0,2.7,4.56.5.5,0,0,0,.27.08.54.54,0,0,0,.28-.08,5.5,5.5,0,0,0,2.57-4.59,6.23,6.23,0,0,0,2.67,1.4,6.52,6.52,0,0,0,1.64.2,7.07,7.07,0,0,0,3.93-1.2.5.5,0,0,0,.17-.62,6.15,6.15,0,0,0-4.19-3.47c-.2,0-.39-.08-.59-.11A20.93,20.93,0,0,0,410.5,227l.05.06a6.92,6.92,0,0,0,4.28,1.49,6.83,6.83,0,0,0,1.19-.1,6.34,6.34,0,0,0,4.48-3.17.51.51,0,0,0-.13-.63,6.91,6.91,0,0,0-5.47-1.39l-.47.11a18.84,18.84,0,0,0,1.47-2.05.45.45,0,0,0,.2.12,7.33,7.33,0,0,0,2.11.31,6.71,6.71,0,0,0,3.52-1h0a5.55,5.55,0,0,0,2.72-4.52A.52.52,0,0,0,424.09,215.72Zm-4.31-6.47a5.69,5.69,0,0,1,4.1-1.64,4.27,4.27,0,0,1-1.15,3.72,5.61,5.61,0,0,1-4.1,1.64A4.28,4.28,0,0,1,419.78,209.25Zm-3.16-3.47a4.76,4.76,0,0,1-2.71-3.14,4.24,4.24,0,0,1,1-3.79,4.84,4.84,0,0,1,2.71,3.14A4.3,4.3,0,0,1,416.62,205.78Zm-3.6,5.76a4.35,4.35,0,0,1-1.59-3.59,5.82,5.82,0,0,1,4.27,1.25,4.41,4.41,0,0,1,1.59,3.59A5.81,5.81,0,0,1,413,211.54ZM386.3,209.2a5.88,5.88,0,0,1,4.27-1.25,4.35,4.35,0,0,1-1.59,3.59,5.81,5.81,0,0,1-4.27,1.25A4.41,4.41,0,0,1,386.3,209.2ZM384.35,202a4.8,4.8,0,0,1,2.7-3.14,4.24,4.24,0,0,1,1,3.79,4.76,4.76,0,0,1-2.71,3.14A4.26,4.26,0,0,1,384.35,202Zm-1,11a5.61,5.61,0,0,1-4.1-1.64,4.27,4.27,0,0,1-1.15-3.72,5.69,5.69,0,0,1,4.1,1.64A4.28,4.28,0,0,1,383.37,213Zm-2.57,6.93h0a4.57,4.57,0,0,1-2.21-3.32,5.93,5.93,0,0,1,4.43.65,4.63,4.63,0,0,1,2.21,3.32A5.92,5.92,0,0,1,380.8,219.9Zm6.29-3.59a5.41,5.41,0,0,1,3.76-2.18,4.16,4.16,0,0,1-.47,3.84,5.41,5.41,0,0,1-3.76,2.18A4.16,4.16,0,0,1,387.09,216.31Zm-.93,11.12a5.33,5.33,0,0,1-3.55-2.28,5.84,5.84,0,0,1,4.32-.93,5.33,5.33,0,0,1,3.54,2.28A5.83,5.83,0,0,1,386.16,227.43Zm4.3-5.32a4.67,4.67,0,0,1,2.46-3.28,4.29,4.29,0,0,1,1.32,3.73,4.69,4.69,0,0,1-2.46,3.29A4.34,4.34,0,0,1,390.46,222.11Zm11.72,3.27a5,5,0,0,1,3.13-2.84,4.16,4.16,0,0,1,.49,3.86,5,5,0,0,1-3.1,2.82l-.14-.15A4.15,4.15,0,0,1,402.18,225.38Zm-6,1a4.16,4.16,0,0,1,.49-3.86,5,5,0,0,1,3.13,2.83h0a4.08,4.08,0,0,1-.33,3.59l-.2.25A5,5,0,0,1,396.2,226.4Zm-1.05,6.51a6,6,0,0,1-4.4-.63,5.19,5.19,0,0,1,3.33-2.52,6,6,0,0,1,4.4.64A5.19,5.19,0,0,1,395.15,232.91Zm5.93,3.13a4.54,4.54,0,0,1-2-3.54,4.44,4.44,0,0,1,1.85-3.56,4.54,4.54,0,0,1,2,3.54A4.42,4.42,0,0,1,401.08,236Zm6.84-6.28a5.17,5.17,0,0,1,3.33,2.52,6,6,0,0,1-4.4.63,5.19,5.19,0,0,1-3.33-2.51A6,6,0,0,1,407.92,229.76Zm2.3-3.91a4.69,4.69,0,0,1-2.46-3.29,4.29,4.29,0,0,1,1.32-3.73,4.67,4.67,0,0,1,2.46,3.28A4.34,4.34,0,0,1,410.22,225.85Zm4.85-1.63a5.84,5.84,0,0,1,4.32.93,5.33,5.33,0,0,1-3.55,2.28,5.83,5.83,0,0,1-4.31-.93A5.33,5.33,0,0,1,415.07,224.22Zm.32-4.07a5.41,5.41,0,0,1-3.77-2.18,4.16,4.16,0,0,1-.47-3.84,5.41,5.41,0,0,1,3.76,2.18A4.19,4.19,0,0,1,415.39,220.15Zm5.81-.25a5.92,5.92,0,0,1-4.43.65,4.61,4.61,0,0,1,2.22-3.32,5.92,5.92,0,0,1,4.43-.65A4.61,4.61,0,0,1,421.2,219.9Z" fill="#231f20"/><path d="M262.39,195.83A49.79,49.79,0,0,0,240.24,201a97.7,97.7,0,0,0,2.35,14.41c1.54,6.4,2.47,10.26,5,14.3a31.8,31.8,0,0,0,14.81,12.15,32.48,32.48,0,0,0,14.72-12.16c2.6-4.16,3.59-8.19,5.09-14.3a92.76,92.76,0,0,0,2.35-14.4A49.79,49.79,0,0,0,262.39,195.83Zm13.9,7.31L261,229.23a2.67,2.67,0,0,1-2.09,1.31h-.21a2.65,2.65,0,0,1-2.06-1l-7.8-9.55a.51.51,0,0,1,.07-.71l3.34-2.73a.56.56,0,0,1,.37-.11.53.53,0,0,1,.34.19l5.38,6.58,13.32-22.79a.56.56,0,0,1,.31-.23.51.51,0,0,1,.38.06l3.72,2.17a.53.53,0,0,1,.24.31A.51.51,0,0,1,276.29,203.14Z" fill="#fdd600"/><path d="M276.11,202.45l-3.72-2.17a.51.51,0,0,0-.38-.06.56.56,0,0,0-.31.23l-13.32,22.79L253,216.66a.53.53,0,0,0-.34-.19.56.56,0,0,0-.37.11L249,219.31a.51.51,0,0,0-.07.71l7.8,9.55a2.65,2.65,0,0,0,2.06,1H259a2.67,2.67,0,0,0,2.09-1.31l15.25-26.09a.51.51,0,0,0,.06-.38A.53.53,0,0,0,276.11,202.45Zm-15.94,26.27a1.65,1.65,0,0,1-1.3.82h-.13a1.63,1.63,0,0,1-1.28-.61L250,219.77l2.57-2.1,5.52,6.76a.47.47,0,0,0,.43.18.49.49,0,0,0,.39-.24l13.44-23,1.43.84,1.43.84Z" fill="#231f20"/><path d="M283.54,198.47a51.34,51.34,0,0,0-45.8,0,.51.51,0,0,0-.28.48,99.18,99.18,0,0,0,2.41,14.91c1.51,6.27,2.51,10.41,5.1,14.59,3.33,5.39,8.68,9.75,15.47,12.62a.45.45,0,0,0,.2,0,.48.48,0,0,0,.2,0,33.53,33.53,0,0,0,15.36-12.63c2.68-4.29,3.69-8.39,5.21-14.59a93.06,93.06,0,0,0,2.4-14.9A.49.49,0,0,0,283.54,198.47Zm-3.1,15.14c-1.5,6.11-2.49,10.14-5.09,14.3a32.48,32.48,0,0,1-14.72,12.16,31.8,31.8,0,0,1-14.81-12.15c-2.51-4-3.44-7.9-5-14.3a97.7,97.7,0,0,1-2.35-14.41,50.38,50.38,0,0,1,44.3,0A92.76,92.76,0,0,1,280.44,213.61Z" fill="#231f20"/><path d="M170.47,201.12a96.33,96.33,0,0,0,2.31,14.18c1.52,6.29,2.44,10.09,4.9,14.07a31.29,31.29,0,0,0,14.58,11.95,31.94,31.94,0,0,0,14.48-12c2.55-4.09,3.53-8.06,5-14.07a92.19,92.19,0,0,0,2.31-14.17,49.56,49.56,0,0,0-43.59,0Zm20.38,1.13c.49-.11,1,.46,1.11.87a1.55,1.55,0,0,1,.08.37l2,5.77,8.47,1.21a2.72,2.72,0,0,1-1.16,1.36,2.81,2.81,0,0,0-.78.54,2,2,0,0,0-.41.62L197,216.08l1.26,8.36-.07-.14.07.14-.07-.14-7.47-3.47-5.45,2.52a2,2,0,0,1-.49.45,2.29,2.29,0,0,1-1.57.33l1.44-7.84L179.82,212a1.18,1.18,0,0,1-.62-1.37,1.08,1.08,0,0,1,.66-.57l6.9-1,3.42-5.9A1,1,0,0,1,190.85,202.25Z" fill="#fdd600"/><path d="M213.3,198.88a50.49,50.49,0,0,0-45.08,0,.49.49,0,0,0-.27.48A96,96,0,0,0,170.31,214c1.49,6.18,2.47,10.25,5,14.37a32.49,32.49,0,0,0,15.24,12.43.5.5,0,0,0,.39,0,33,33,0,0,0,15.12-12.44c2.65-4.22,3.64-8.26,5.14-14.37a92.31,92.31,0,0,0,2.36-14.66A.49.49,0,0,0,213.3,198.88Zm-3.05,14.91c-1.48,6-2.46,10-5,14.07a31.89,31.89,0,0,1-14.48,12,31.29,31.29,0,0,1-14.58-11.95c-2.46-4-3.38-7.78-4.9-14.07A96.33,96.33,0,0,1,169,199.62a49.56,49.56,0,0,1,43.59,0A92.19,92.19,0,0,1,210.25,213.79Z" fill="#231f20"/><path d="M190.38,201.22l-3.67,7.31-8.1,1.12a.49.49,0,0,0-.41.33.53.53,0,0,0,.12.52l5.82,5.75-1.44,8.05a.5.5,0,0,0,.19.49.51.51,0,0,0,.53,0l7.26-3.75,7.21,3.86a.69.69,0,0,0,.24.05.52.52,0,0,0,.29-.09.49.49,0,0,0,.2-.49l-1.32-8.07,5.9-5.66a.51.51,0,0,0-.27-.86l-8.09-1.23-3.56-7.36a.51.51,0,0,0-.45-.28h0A.5.5,0,0,0,190.38,201.22Zm3.68,8a.51.51,0,0,0,.37.28l7.34,1.12-5.35,5.15a.48.48,0,0,0-.15.44l1.2,7.33-6.55-3.51a.47.47,0,0,0-.46,0l-6.6,3.41,1.31-7.31a.5.5,0,0,0-.14-.45l-5.28-5.22,7.36-1a.47.47,0,0,0,.37-.27l3.34-6.63Z" fill="#231f20"/><path d="M141.13,225a5.28,5.28,0,0,0,1.59-8,5.26,5.26,0,0,0-1.59,8Z" fill="#fdd600"/><path d="M136,233.3a5.26,5.26,0,0,0,8.14-.28,5.26,5.26,0,0,0-8.14.28Z" fill="#fdd600"/><path d="M135.2,232.13a5.26,5.26,0,0,1,.28-8.14,5.28,5.28,0,0,1-.28,8.14Z" fill="#fdd600"/><path d="M126,238a5.26,5.26,0,0,0,7.41,3.37A5.26,5.26,0,0,0,126,238Z" fill="#fdd600"/><path d="M125.59,236.55a5.26,5.26,0,0,1,3.78-7.21,5.26,5.26,0,0,1-3.78,7.21Z" fill="#fdd600"/><path d="M118.7,238a5.26,5.26,0,0,1-7.41,3.37A5.26,5.26,0,0,1,118.7,238Z" fill="#fdd600"/><path d="M119,236.61a5.25,5.25,0,0,0-3.67-7.26,5.26,5.26,0,0,0,3.67,7.26Z" fill="#fdd600"/><path d="M108.68,233.3a5.25,5.25,0,0,1-8.13-.28,5.25,5.25,0,0,1,8.13.28Z" fill="#fdd600"/><path d="M109.46,232.13a5.28,5.28,0,0,0-.28-8.14,5.4,5.4,0,0,0-1.79,4.14A5.33,5.33,0,0,0,109.46,232.13Z" fill="#fdd600"/><path d="M103.16,224.91a5.26,5.26,0,0,0-1.58-8,5.26,5.26,0,0,0,1.58,8Z" fill="#fdd600"/><path d="M125,234.81l.21-.11c0-.08,0-.17,0-.26Z" fill="#fdd600"/><path d="M116.41,237.48l.38,0,.19-.35Z" fill="#fdd600"/><path d="M137.18,228.91c0-.06,0-.12,0-.18s-.1.14-.16.2Z" fill="#fdd600"/><path d="M107.19,199a67.72,67.72,0,0,0,1.65,10.1c1.09,4.53,1.75,7.26,3.51,10.11a22.48,22.48,0,0,0,10.4,8.53,22.78,22.78,0,0,0,10.31-8.54c1.84-2.93,2.54-5.79,3.6-10.11A65.11,65.11,0,0,0,138.31,199a35.52,35.52,0,0,0-31.12,0Zm15,1.4a.76.76,0,0,0,.22.47.49.49,0,0,0,.25.11c.4,1,.81,2,1.21,3l4.82,1,.24,0c.31,0,.7.09.72.22s0,.14-.36.28l-1.6,2-2.06,1.68q.54,2.63,1.07,5.26s0,0,0,0a2.43,2.43,0,0,1-2.32.05,1.87,1.87,0,0,1-.52-.39l-2.56-1.54L118.43,214,116.31,215c-.2.2-.34.28-.41.25s-.08-.36.08-.91q.47-2.64.91-5.26l-3-2.5a1.22,1.22,0,0,1-.66-1.27.73.73,0,0,1,.25-.36l4.89-.85,2.92-4.85C122,199.84,122.19,200.2,122.23,200.44Z" fill="#fdd600"/><path d="M137.56,196.79a36.56,36.56,0,0,0-32.62,0,.49.49,0,0,0-.28.49,69.78,69.78,0,0,0,1.71,10.61c1.08,4.45,1.79,7.4,3.64,10.38a23.48,23.48,0,0,0,11,9,.45.45,0,0,0,.2,0,.79.79,0,0,0,.2,0,24,24,0,0,0,11-9c1.92-3.07,2.64-6,3.72-10.4a66.76,66.76,0,0,0,1.71-10.59A.52.52,0,0,0,137.56,196.79Zm-2.4,10.84c-1.06,4.32-1.76,7.18-3.6,10.11a22.78,22.78,0,0,1-10.31,8.54,22.4,22.4,0,0,1-10.39-8.53c-1.77-2.85-2.43-5.58-3.52-10.11a67.72,67.72,0,0,1-1.65-10.1,35.52,35.52,0,0,1,31.12,0A65.11,65.11,0,0,1,135.16,207.63Z" fill="#231f20"/><path d="M120.85,198.55l-2.62,5.2-5.76.79a.51.51,0,0,0-.41.34.5.5,0,0,0,.12.51l4.14,4.1-1,5.73a.49.49,0,0,0,.19.49.51.51,0,0,0,.53,0l2.17-1.12,3-1.55,1.09.58,4,2.17a.49.49,0,0,0,.53,0s0-.06.07-.08a.47.47,0,0,0,.13-.41l-.94-5.74,2.88-2.77,1.32-1.26a.51.51,0,0,0,.13-.51.5.5,0,0,0-.4-.35l-5.76-.88-2.54-5.24a.49.49,0,0,0-.44-.28h0A.5.5,0,0,0,120.85,198.55Zm1.54,3.64,1.11,2.27a.48.48,0,0,0,.37.28l.58.09,4.43.68-1.14,1.09L125.23,209a.49.49,0,0,0-.15.44l.82,5-4.47-2.4a.5.5,0,0,0-.24-.06.49.49,0,0,0-.23.06l-2.55,1.32-2,1,.89-5a.51.51,0,0,0-.11-.41l0,0-2.09-2.07-1.51-1.49,5-.7a.49.49,0,0,0,.38-.27l2.28-4.53Z" fill="#231f20"/><path d="M143.69,231.21a6.48,6.48,0,0,0-5.2-2.49,5.75,5.75,0,0,0-1.31.19l-.12,0c.06-.06.1-.13.16-.2a21.64,21.64,0,0,0,2.62-4.27,6.38,6.38,0,0,0,.71-.43,6.14,6.14,0,0,0,2.81-6.07,6.56,6.56,0,0,0-1.64-3.5.49.49,0,0,0-.59-.12,6.41,6.41,0,0,0-3.57,4.52,6.34,6.34,0,0,0,1.34,5.23,19.85,19.85,0,0,1-1.71,2.93c-.19.28-.37.57-.57.84a7.14,7.14,0,0,0,.17-1.23,6.37,6.37,0,0,0-.06-1,6.5,6.5,0,0,0-2.43-4.22.49.49,0,0,0-.6,0,6.28,6.28,0,0,0-.57,10,21,21,0,0,1-6,3.27,6.48,6.48,0,0,0,1.49-1.87h0a6.22,6.22,0,0,0,.65-3.44,7,7,0,0,0-.65-2.32.49.49,0,0,0-.53-.27,6.27,6.27,0,0,0-4.83,8.78,20.58,20.58,0,0,1-2.5.17c-.47,0-.93,0-1.38,0s-.61-.05-.91-.09a6.55,6.55,0,0,0,.5-3.44,6.09,6.09,0,0,0-.63-2,6.39,6.39,0,0,0-4.68-3.35.48.48,0,0,0-.53.27,6.42,6.42,0,0,0,0,5.76,6.15,6.15,0,0,0,1.69,2,20.17,20.17,0,0,1-6.34-3.34l.18-.17a6.37,6.37,0,0,0,2.13-4.87c0-.21,0-.42-.05-.63a6.46,6.46,0,0,0-2.72-4.41.51.51,0,0,0-.61,0,6.45,6.45,0,0,0-2.48,5.2,6,6,0,0,0,.32,1.74,19.65,19.65,0,0,1-2.34-3.62c-.13-.25-.26-.5-.38-.76a6.45,6.45,0,0,0,1.32-4.73c0-.14,0-.27-.06-.4a6.44,6.44,0,0,0-3.57-4.52.51.51,0,0,0-.59.12,6.3,6.3,0,0,0,2,10s0,0,0,0l.05,0a21.64,21.64,0,0,0,2.69,4.33,6.13,6.13,0,0,0-1.14-.15,6.52,6.52,0,0,0-5.2,2.49.51.51,0,0,0,0,.6,6.5,6.5,0,0,0,4.36,2.71,5.36,5.36,0,0,0,.69.06h.18a6.37,6.37,0,0,0,4.68-2.11l.08-.08a21,21,0,0,0,5,2.86,5.89,5.89,0,0,0-.7.26A6.41,6.41,0,0,0,108.7,240a.5.5,0,0,0,.25.55,6.69,6.69,0,0,0,2.33.78,6.82,6.82,0,0,0,.9.07,6.45,6.45,0,0,0,6.07-4.82,22.62,22.62,0,0,0,2.48.15,19.92,19.92,0,0,0,2.69-.19,6.44,6.44,0,0,0,3.57,4.33,6.25,6.25,0,0,0,1.69.47,7.72,7.72,0,0,0,.83.06,6.75,6.75,0,0,0,3.23-.85.5.5,0,0,0,.22-.26.48.48,0,0,0,0-.29,6.41,6.41,0,0,0-3.61-4.49,6,6,0,0,0-.84-.29,20.92,20.92,0,0,0,5.09-2.94,6.52,6.52,0,0,0,4,2.24,6.22,6.22,0,0,0,.86.06h.18a6.36,6.36,0,0,0,4.66-2.29c.13-.15.26-.31.38-.48A.49.49,0,0,0,143.69,231.21Zm-5.15-12.16a5.39,5.39,0,0,1,2.68-3.63,5.63,5.63,0,0,1,1,1.84,5.17,5.17,0,0,1-1.91,5.74l.38-1.6a.5.5,0,0,0-.37-.6.44.44,0,0,0-.3,0,.47.47,0,0,0-.3.34l-.41,1.74A5.32,5.32,0,0,1,138.54,219.05Zm-36.92,1.81a.5.5,0,1,0-1,.21l.36,1.69.06.27A5.33,5.33,0,0,1,99,219.8a5.4,5.4,0,0,1,1.1-4.38A5.54,5.54,0,0,1,102,217.2a5,5,0,0,1,.78,1.85,5.35,5.35,0,0,1-.72,3.83Zm3.27,11.49h0l1.69,0a5.26,5.26,0,0,1-3.53,1.25,5.15,5.15,0,0,1-2.4-.67A5.73,5.73,0,0,1,99,231.54a5.45,5.45,0,0,1,4.14-1.82,5.35,5.35,0,0,1,3.63,1.61h-1.91a.5.5,0,0,0-.5.5A.51.51,0,0,0,104.89,232.35Zm3-4.36a.5.5,0,0,0-.45.28.54.54,0,0,0-.05.22l0,1.55a5.32,5.32,0,0,1-1.43-3.44,5.39,5.39,0,0,1,1.82-4.14,5.89,5.89,0,0,1,1.37,1.63,5.15,5.15,0,0,1,.67,2.4,5.3,5.3,0,0,1-1.43,3.75l0-1.74A.5.5,0,0,0,107.85,228Zm8.94,9.52a5.09,5.09,0,0,1-5.12,2.86,5.62,5.62,0,0,1-1.89-.52,5.37,5.37,0,0,1,2.94-3.43,5.27,5.27,0,0,1,3.81-.16l-1.36.79a.48.48,0,0,0-.2.62s0,0,0,.06a.5.5,0,0,0,.43.25.45.45,0,0,0,.25-.07l.74-.43.57-.32Zm1-3-.86-1.54a.5.5,0,0,0-.87.49l.75,1.36a5.84,5.84,0,0,1-1.07-.59,5,5,0,0,1-1.73-1.91,5.38,5.38,0,0,1-.15-4.51,5.45,5.45,0,0,1,3.33,2.31,3.83,3.83,0,0,1,.25.44A5.29,5.29,0,0,1,117.77,234.54Zm6.17.07a5.33,5.33,0,0,1,.32-4,5.39,5.39,0,0,1,3.59-2.75,5.67,5.67,0,0,1,.41,1.88,5.12,5.12,0,0,1-3.07,5l-.21.11.2-.37.47-.84a.51.51,0,0,0-.19-.68h0a.5.5,0,0,0-.65.21Zm5,1.81a5.27,5.27,0,0,1,2.22,1.94,5.41,5.41,0,0,1,.72,1.49,5.39,5.39,0,0,1-4.51.1,4.57,4.57,0,0,1-.72-.4,5.46,5.46,0,0,1-1.9-2.24l1.21.7,0,0a.52.52,0,0,0,.25.07.5.5,0,0,0,.43-.25.56.56,0,0,0,0-.12.5.5,0,0,0-.22-.57l-1.5-.86a3.15,3.15,0,0,1,.44-.11,5.58,5.58,0,0,1,1.67-.2A5.37,5.37,0,0,1,129,236.42Zm5.39-8.13a.51.51,0,0,0-.5-.49h0a.48.48,0,0,0-.43.27.46.46,0,0,0-.06.23v2a5.28,5.28,0,0,1,.6-7.8,5.77,5.77,0,0,1,1.28,1.7,5.16,5.16,0,0,1-.88,5.86Zm8.09,3.48a5.37,5.37,0,0,1-3.82,1.81,5.12,5.12,0,0,1-2.43-.55,5.83,5.83,0,0,1-1.34-.9l1.95,0h0a.49.49,0,0,0,.5-.49.5.5,0,0,0-.49-.51H135.1a5.37,5.37,0,0,1,1.71-1.06,5.28,5.28,0,0,1,1.71-.36,5.36,5.36,0,0,1,4.13,1.82C142.59,231.62,142.52,231.69,142.45,231.77Z" fill="#231f20"/><path d="M213.14,448.73a1.45,1.45,0,1,1-1.35,1.95,1.3,1.3,0,0,1,0-1A1.44,1.44,0,0,1,213.14,448.73Z" fill="#fdd600"/><path d="M207.94,441.62a1.45,1.45,0,0,1,0,2.9,1.4,1.4,0,0,1-.61-.14,1.42,1.42,0,0,1-.7-.71,1.36,1.36,0,0,1-.14-.6A1.45,1.45,0,0,1,207.94,441.62Z" fill="#fdd600"/><path d="M207.94,455.84a1.45,1.45,0,1,1-1.45,1.45,1.36,1.36,0,0,1,.14-.6,1.42,1.42,0,0,1,.7-.71A1.4,1.4,0,0,1,207.94,455.84Z" fill="#fdd600"/><path d="M200.3,431a1.43,1.43,0,0,1-1,1.36,1.35,1.35,0,0,1-.5.1A1.46,1.46,0,1,1,200.3,431Z" fill="#fdd600"/><path d="M199.35,468.05a1.43,1.43,0,0,1,1,1.36,1.43,1.43,0,1,1-1.45-1.46A1.35,1.35,0,0,1,199.35,468.05Z" fill="#fdd600"/><rect x="188.25" y="446.69" width="8.78" height="8.78" fill="#fdd600"/><path d="M193.19,428.78a1.44,1.44,0,0,1-.95,1.35,1.3,1.3,0,0,1-1,0,1.45,1.45,0,1,1,1.95-1.35Z" fill="#fdd600"/><path d="M192.24,470.23a1.45,1.45,0,1,1-1,0,1.3,1.3,0,0,1,1,0Z" fill="#fdd600"/><path d="M186.08,431a1.49,1.49,0,0,1-1.45,1.46,1.35,1.35,0,0,1-.5-.1,1.43,1.43,0,0,1-.95-1.36,1.45,1.45,0,0,1,2.9,0Z" fill="#fdd600"/><path d="M185.13,468.05a1.45,1.45,0,1,1-1,0,1.35,1.35,0,0,1,.5-.1A1.44,1.44,0,0,1,185.13,468.05Z" fill="#fdd600"/><path d="M177,443.07a1.36,1.36,0,0,1-.14.6,1.42,1.42,0,0,1-.7.71,1.4,1.4,0,0,1-.61.14,1.45,1.45,0,1,1,1.45-1.45Z" fill="#fdd600"/><path d="M171.69,449.68a1.3,1.3,0,0,1,0,1,1.45,1.45,0,1,1,0-1Z" fill="#fdd600"/><path d="M176.89,456.79a1.3,1.3,0,0,1,0,1,1.45,1.45,0,1,1,0-1Z" fill="#fdd600"/><path d="M212.4,447.18a2.45,2.45,0,1,1-2.4,2.95h-9.44v2.72h3.25a.52.52,0,0,1,.35.14l1.7,1.71a2.41,2.41,0,0,1,1.34-.41,2.45,2.45,0,1,1-2.45,2.45,2.48,2.48,0,0,1,.4-1.34l-1.55-1.55h-3v4.84a.5.5,0,0,1-.5.5h-4.84v1.95l3.25,3.25a.5.5,0,0,1,.14.35v1.72a2.45,2.45,0,1,1-1,0V465l-3.25-3.25a.5.5,0,0,1-.14-.35v-2.16H191.5v9.44a2.45,2.45,0,1,1-1,0v-9.44h-2.72v2.16a.5.5,0,0,1-.14.35L184.39,465v1.51a2.45,2.45,0,1,1-1,0v-1.72a.5.5,0,0,1,.14-.35l3.25-3.25v-1.95h-4.84a.5.5,0,0,1-.5-.5v-4.84h-3l-1.55,1.55a2.48,2.48,0,0,1,.4,1.34,2.45,2.45,0,1,1-2.45-2.45,2.41,2.41,0,0,1,1.34.41l1.7-1.71a.52.52,0,0,1,.35-.14h3.25v-2.72H172a2.45,2.45,0,1,1,0-1h9.44v-2.72h-3.25a.52.52,0,0,1-.35-.14l-1.7-1.71a2.41,2.41,0,0,1-1.34.41,2.45,2.45,0,1,1,2.45-2.45,2.48,2.48,0,0,1-.4,1.34l1.55,1.55h3v-4.84a.5.5,0,0,1,.5-.5h4.84v-1.95l-3.25-3.25a.5.5,0,0,1-.14-.35V432.8a2.45,2.45,0,1,1,1,0v1.51l3.25,3.25a.5.5,0,0,1,.14.35v2.16h2.72v-9.44a2.45,2.45,0,1,1,1,0v9.44h2.72v-2.16a.5.5,0,0,1,.14-.35l3.25-3.25V432.8a2.45,2.45,0,1,1,1,0v1.72a.5.5,0,0,1-.14.35l-3.25,3.25v1.95h4.84a.5.5,0,0,1,.5.5v4.84h3l1.55-1.55a2.48,2.48,0,0,1-.4-1.34A2.45,2.45,0,1,1,207.2,445a2.41,2.41,0,0,1-1.34-.41l-1.7,1.71a.52.52,0,0,1-.35.14h-3.25v2.72H210A2.46,2.46,0,0,1,212.4,447.18Zm1.45,2.45a1.44,1.44,0,0,0-2.8-.5,1.3,1.3,0,0,0,0,1,1.44,1.44,0,0,0,2.8-.5Zm-5.2-7.11a1.45,1.45,0,0,0-2.9,0,1.36,1.36,0,0,0,.14.6,1.42,1.42,0,0,0,.7.71,1.4,1.4,0,0,0,.61.14A1.45,1.45,0,0,0,208.65,442.52Zm0,14.22a1.45,1.45,0,0,0-1.45-1.45,1.4,1.4,0,0,0-.61.14,1.42,1.42,0,0,0-.7.71,1.36,1.36,0,0,0-.14.6,1.45,1.45,0,1,0,2.9,0Zm-9.09,1.45V441.07H182.44v17.12h17.12Zm-.95-26.43a1.43,1.43,0,0,0,.95-1.36,1.43,1.43,0,1,0-1.45,1.46A1.35,1.35,0,0,0,198.61,431.76Zm.95,37.1a1.43,1.43,0,0,0-.95-1.36,1.35,1.35,0,0,0-.5-.1,1.46,1.46,0,1,0,1.45,1.46Zm-8.06-39.28a1.45,1.45,0,1,0-1,0,1.3,1.3,0,0,0,1,0Zm.95,41.45a1.44,1.44,0,0,0-.95-1.35,1.3,1.3,0,0,0-1,0,1.45,1.45,0,1,0,1.95,1.35Zm-8.06-39.27a1.45,1.45,0,1,0-1,0,1.35,1.35,0,0,0,.5.1A1.44,1.44,0,0,0,184.39,431.76Zm1,37.1a1.49,1.49,0,0,0-1.45-1.46,1.35,1.35,0,0,0-.5.1,1.43,1.43,0,0,0-.95,1.36,1.45,1.45,0,0,0,2.9,0Zm-9.23-25.74a1.36,1.36,0,0,0,.14-.6A1.45,1.45,0,1,0,174.8,444a1.4,1.4,0,0,0,.61-.14A1.42,1.42,0,0,0,176.11,443.12Zm.14,13.62a1.36,1.36,0,0,0-.14-.6,1.42,1.42,0,0,0-.7-.71,1.4,1.4,0,0,0-.61-.14,1.45,1.45,0,1,0,1.45,1.45Zm-5.2-7.11a1.39,1.39,0,0,0-.1-.5,1.45,1.45,0,1,0,0,1A1.39,1.39,0,0,0,171.05,449.63Z" fill="#231f20"/><path d="M196.58,444.74v9.78a.5.5,0,0,1-.5.5H186.3a.5.5,0,0,1-.5-.5v-9.78a.5.5,0,0,1,.5-.5h9.78A.5.5,0,0,1,196.58,444.74Zm-1,9.28v-8.78H186.8V454Z" fill="#231f20"/><path d="M279.56,456.42,274,462l-.71.71-5.53,5.53a9.76,9.76,0,0,1,9.49-12A9.93,9.93,0,0,1,279.56,456.42Z" fill="#fdd600"/><polygon points="265.63 446.56 264.92 445.85 259.08 440.02 251.39 447.71 257.22 453.55 257.93 454.26 263.76 460.09 271.46 452.39 265.63 446.56" fill="#fdd600"/><rect x="265.63" y="432.51" width="17.67" height="9.01" transform="translate(-228.68 322.27) rotate(-45.02)" fill="#fdd600"/><rect x="239.56" y="458.58" width="17.66" height="9.01" transform="translate(-254.7 311.27) rotate(-45)" fill="#fdd600"/><path d="M285,464.44a.5.5,0,0,1,.5.5,9.18,9.18,0,0,1-9.19,9.19.5.5,0,0,1,0-1,8.19,8.19,0,0,0,8.19-8.19A.5.5,0,0,1,285,464.44Z" fill="#231f20"/><path d="M272.78,462.12l-6.14,6.13a.5.5,0,0,1-.35.14h-.12a.52.52,0,0,1-.36-.33,10.71,10.71,0,0,1,2.29-10.61l-1.38-1.39-3.85,3.85a.51.51,0,0,1-.36.15.49.49,0,0,1-.35-.15L256,453.71l-1.52,1.53,3.18,3.18a.5.5,0,0,1,0,.71l-13.2,13.2a.5.5,0,0,1-.71,0l-7.07-7.07a.51.51,0,0,1-.15-.36.47.47,0,0,1,.15-.35l13.2-13.2a.47.47,0,0,1,.35-.15.51.51,0,0,1,.36.15l3.18,3.18,1.52-1.52-6.18-6.19a.5.5,0,0,1,0-.71l1.19-1.19-2.38-2.38a.51.51,0,0,1,0-.71l5.31-5.31a.51.51,0,0,1,.71,0l2.38,2.38,1.19-1.19a.5.5,0,0,1,.71,0l6.19,6.18,1.52-1.52-3.18-3.18a.51.51,0,0,1-.15-.36.47.47,0,0,1,.15-.35l13.2-13.2a.51.51,0,0,1,.71,0l7.07,7.07a.5.5,0,0,1,0,.71l-13.2,13.2a.51.51,0,0,1-.35.15.53.53,0,0,1-.36-.15l-3.18-3.18-1.53,1.52,6.19,6.19a.47.47,0,0,1,.15.35.49.49,0,0,1-.15.36l-3.85,3.85,1.39,1.38a10.72,10.72,0,0,1,10.61-2.29.52.52,0,0,1,.33.36.5.5,0,0,1-.13.47l-6.14,6.14,1.93,1.93a1.82,1.82,0,0,1,2.71,1.39v0a.77.77,0,0,1,0,.15,1.64,1.64,0,0,1-.05.32c0,.05,0,.1,0,.14a1.73,1.73,0,0,1-.23.54v0a1.49,1.49,0,0,1-.23.28,1.83,1.83,0,0,1-1.3.54,1.79,1.79,0,0,1-1.29-.54,1.82,1.82,0,0,1-.3-2.19Zm-2.63-16.92,12.49-12.5-6.37-6.36-12.49,12.49Zm2.63,15.5,5.53-5.53a9.93,9.93,0,0,0-2.28-.27,9.76,9.76,0,0,0-9.49,12l5.53-5.53Zm4.11,4.82a.82.82,0,0,0,0-1.16.9.9,0,0,0-.2-.14l-.08-.05a1.08,1.08,0,0,0-.19,0l-.16,0h-.05a.8.8,0,0,0-.71.71.83.83,0,0,0,.23.68.82.82,0,0,0,1.16,0Zm-14.38-6.68,7.7-7.7-5.83-5.83-.71-.71-5.84-5.83L256.64,440l-5.31,5.31-1.19,1.19L256,452.3l.71.71Zm-18.43,12.43,12.49-12.49-6.37-6.37L237.71,464.9Zm6.9-27.06,4.6-4.6-2-2-4.6,4.6Z" fill="#231f20"/><path d="M282.59,464.44a.5.5,0,0,1,.5.5,6.79,6.79,0,0,1-6.78,6.78.5.5,0,0,1-.5-.5.5.5,0,0,1,.5-.5,5.8,5.8,0,0,0,5.78-5.78A.5.5,0,0,1,282.59,464.44Z" fill="#231f20"/><path d="M280.17,464.44a.5.5,0,0,1,.5.5,4.37,4.37,0,0,1-4.36,4.36.5.5,0,0,1-.5-.5.5.5,0,0,1,.5-.5,3.35,3.35,0,0,0,3.36-3.36A.5.5,0,0,1,280.17,464.44Z" fill="#231f20"/></g><g id="bb361437-77bf-4615-aa33-c5de442af939" data-name="CATEGORIES"><text transform="translate(98.01 66.67)" font-size="40" fill="#231f20" font-family="Antonio-Bold, Antonio" font-weight="700"><tspan letter-spacing="0em">A</tspan><tspan x="18.95" y="0">CADEMICS/RESEARCH</tspan></text></g><g id="ba67abb6-af31-4546-9470-ca0a5b82cb9f" data-name="LABELS"><text transform="translate(96.31 479.93)" font-size="6" fill="#231f20" font-family="Roboto-Regular, Roboto">virus</text><text transform="translate(166.33 479.93)" font-size="6" fill="#231f20" font-family="Roboto-Regular, Roboto">machine-learning</text><text transform="translate(235.7 479.93)" font-size="6" fill="#231f20" font-family="Roboto-Regular, Roboto"><tspan letter-spacing="-0.01em">r</tspan><tspan x="1.97" y="0">emote-sensing</tspan></text><text transform="translate(376.02 324.58)" font-size="6" fill="#231f20" font-family="Roboto-Regular, Roboto">tumor</text><text transform="translate(306.16 324.58)" font-size="6" fill="#231f20" font-family="Roboto-Regular, Roboto">spine-<tspan x="16.06" y="0" letter-spacing="-0.01em">v</tspan><tspan x="18.93" y="0">e</tspan><tspan x="22.11" y="0" letter-spacing="0.02em">r</tspan><tspan x="24.28" y="0">teb</tspan><tspan x="32.79" y="0" letter-spacing="-0.02em">r</tspan><tspan x="34.7" y="0">ae</tspan></text><text transform="translate(446.33 324.58)" font-size="6" fill="#231f20" font-family="Roboto-Regular, Roboto">ch<tspan x="6.45" y="0" letter-spacing="-0.01em">r</tspan><tspan x="8.42" y="0">omosomes</tspan></text><text transform="translate(236.02 324.58)" font-size="6" fill="#231f20" font-family="Roboto-Regular, Roboto">caduceus-md</text><text transform="translate(166.33 324.58)" font-size="6" fill="#231f20" font-family="Roboto-Regular, Roboto">caduceus-pa</text><text transform="translate(96.02 324.58)" font-size="6" fill="#231f20" font-family="Roboto-Regular, Roboto">caduceus-pt</text><text transform="translate(235.46 402.58)" font-size="6" fill="#231f20" font-family="Roboto-Regular, Roboto">chemist<tspan x="21.39" y="0" letter-spacing="0.01em">r</tspan><tspan x="23.48" y="0">y-hexagons</tspan></text><text transform="translate(95.93 402.58)" font-size="6" fill="#231f20" font-family="Roboto-Regular, Roboto">bacteria</text><text transform="translate(165.91 402.58)" font-size="6" fill="#231f20" font-family="Roboto-Regular, Roboto">neu<tspan x="9.8" y="0" letter-spacing="-0.01em">r</tspan><tspan x="11.77" y="0">ons</tspan></text><text transform="translate(445.9 402.58)" font-size="6" fill="#231f20" font-family="Roboto-Regular, Roboto">fingerprint</text><text transform="translate(306.04 402.58)" font-size="6" fill="#231f20" font-family="Roboto-Regular, Roboto">soap-bubbles</text><text transform="translate(376.18 402.58)" font-size="6" fill="#231f20" font-family="Roboto-Regular, Roboto">petri-dish</text><text transform="translate(376 167.92)" font-size="6" fill="#231f20" font-family="Roboto-Regular, Roboto">awa<tspan x="11.04" y="0" letter-spacing="-0.01em">r</tspan><tspan x="13.01" y="0">d-ce</tspan><tspan x="24.37" y="0" letter-spacing="0.02em">r</tspan><tspan x="26.55" y="0">tificate</tspan></text><text transform="translate(96 167.92)" font-size="6" fill="#231f20" font-family="Roboto-Regular, Roboto">thumbs-up</text><text transform="translate(305.9 167.92)" font-size="6" fill="#231f20" font-family="Roboto-Regular, Roboto">ribbon-two</text><text transform="translate(445.9 167.92)" font-size="6" fill="#231f20" font-family="Roboto-Regular, Roboto">podium</text><text transform="translate(235.9 167.92)" font-size="6" fill="#231f20" font-family="Roboto-Regular, Roboto">ribbon</text><text transform="translate(165.9 167.92)" font-size="6" fill="#231f20" font-family="Roboto-Regular, Roboto">t<tspan x="1.96" y="0" letter-spacing="-0.01em">r</tspan><tspan x="3.93" y="0">ophy</tspan></text><text transform="translate(445.9 247.24)" font-size="6" fill="#231f20" font-family="Roboto-Regular, Roboto">american-flag</text><text transform="translate(305.9 247.24)" font-size="6" fill="#231f20" font-family="Roboto-Regular, Roboto">checkmark</text><text transform="translate(376.19 247.24)" font-size="6" fill="#231f20" font-family="Roboto-Regular, Roboto">w<tspan x="4.51" y="0" letter-spacing="-0.01em">r</tspan><tspan x="6.48" y="0">eath-of-lau</tspan><tspan x="35.03" y="0" letter-spacing="-0.01em">r</tspan><tspan x="37.01" y="0">el</tspan></text><text transform="translate(235.9 247.24)" font-size="6" fill="#231f20" font-family="Roboto-Regular, Roboto">badge-checkmark</text><text transform="translate(166.04 247.24)" font-size="6" fill="#231f20" font-family="Roboto-Regular, Roboto">badge-star</text><text transform="translate(95.9 247.24)" font-size="6" fill="#231f20" font-family="Roboto-Regular, Roboto">plaque</text></g></svg>