<svg xmlns="http://www.w3.org/2000/svg" viewBox="0 0 612 792"><g id="b05c1f3f-e4ba-42bd-aae7-c6f2f236cfd3" data-name="ICONS"><path d="M347.06,307.52a3.52,3.52,0,0,1,3.52-3.51,3.47,3.47,0,0,1,1.25.24v-5H317.67v5.6a3.46,3.46,0,0,1,1.27,2.67,3.5,3.5,0,0,1-1.27,2.68v9.93h34.16V310.8a3.47,3.47,0,0,1-1.25.24A3.53,3.53,0,0,1,347.06,307.52Z" fill="#fdd600"/><path d="M410.64,536.76,410,536l-.25-.17-2.82-2-9.35,11.65L395.66,544c.35-.42.94-1.14,1.95-2.4l7.31-9a4.81,4.81,0,0,0-3.16-.59c-1.54.28-2.93,1.44-4.11,3.45-.17.23-1.28,1.74-1.92,2.48a2.56,2.56,0,0,1,.28,1.45,4.87,4.87,0,0,1-2.24,3.23,5.09,5.09,0,0,1-3.78,1.31,2.66,2.66,0,0,1-1-.44,10.52,10.52,0,0,1-1.66,1.88,6.7,6.7,0,0,1-.83.54c-1.29.76-3.7,2.19-4.12,4.64-.31,1.82.5,3.95,2.39,6.33l.34-.84,1.09-1.35,3,2.41-1.09,1.36-.84.55,3,2.15h0l.05,0c2.86,1.63,5.24,2.13,7.07,1.48,2.34-.85,3.33-3.47,3.86-4.87a6,6,0,0,1,.38-.91,10.53,10.53,0,0,1,1.56-2,2.58,2.58,0,0,1-.6-.94,5.06,5.06,0,0,1,.63-3.95,4.88,4.88,0,0,1,2.79-2.77,2.57,2.57,0,0,1,1.48,0c.61-.75,1.91-2.11,2.08-2.28,1.8-1.55,2.7-3.12,2.72-4.69A5.13,5.13,0,0,0,410.64,536.76Z" fill="#fdd600"/><path d="M107.71,193.3l-2.92,2.51,1.06,1.23.65.76,1.94,2.25h0l1,1.19,1.79,2.08h0l.62.72,2.18,2.54.63.73,2.18,2.54h0l.62.72,2.19,2.54h0l.62.72,2.18,2.55h0c.93,1.08,1.86,2.17,2.8,3.25h0l.62.72,2.19,2.54.62.73h0l2.18,2.54.63.72,2.18,2.54h0l.62.72h0l2.19,2.55.62.72,2.33,2.71,1.83,2.13.51.59,2.91-2.51Z" fill="#fdd600"/><path d="M199.31,152.45a3.34,3.34,0,0,0-.54,1.36,3.64,3.64,0,0,0,0,.45l-4,2.4a1.29,1.29,0,0,1-.66.54.41.41,0,0,0-.28.17.34.34,0,0,0,0,.28l.12-4.08a5.1,5.1,0,0,1,.09-.71,5.44,5.44,0,0,1,.28-1q5.58-9.87,11.14-19.76l.07-6h-14l0-12h-20.7v46.54h34.73q0-9.22,0-18.43Z" fill="#fdd600"/><path d="M217.73,118a.54.54,0,0,0-.24-.3l-2.39-1.35a.5.5,0,0,0-.68.19l-1.11,2-.55-.31a.47.47,0,0,0-.38,0,.53.53,0,0,0-.31.24l-2.6,4.62h0l-4.41,7.81v-5.17s0,0,0-.07,0,0,0-.06a.43.43,0,0,0-.12-.23l-13.57-13.57a.46.46,0,0,0-.23-.12H168.75a.5.5,0,0,0-.5.5v47.62a.5.5,0,0,0,.5.5h35.81a.5.5,0,0,0,.5-.5V143.07L214.72,126h0l2.6-4.62a.49.49,0,0,0-.19-.68l-.55-.31,1.1-2A.46.46,0,0,0,217.73,118Zm-48.48,41.19V112.57h21.24v13.07a.5.5,0,0,0,.5.5h13.07v6.44L193.5,151.3a.44.44,0,0,0-.05.37s0,0,0,0l-.52,5.79a.49.49,0,0,0,.25.48.51.51,0,0,0,.24.07.54.54,0,0,0,.3-.1l4.71-3.46a.48.48,0,0,0,.3-.22l5.32-9.42v14.35Zm22.24-34V113.27l11.86,11.87ZM194,156.48l.39-4.23,3,1.71Zm4.15-3.25-3.51-2,15.42-27.33,3.51,2Zm18-31.95L214.09,125l-3.51-2,2.12-3.75Zm-2-2.29.86-1.52,1.53.86-.86,1.52Z" fill="#231f20"/><path d="M174.18,121.1h13.2a.5.5,0,0,0,0-1h-13.2a.5.5,0,0,0,0,1Z" fill="#231f20"/><path d="M174.18,130.8h23.59a.5.5,0,0,0,.5-.5.5.5,0,0,0-.5-.5H174.18a.51.51,0,0,0-.5.5A.5.5,0,0,0,174.18,130.8Z" fill="#231f20"/><path d="M174.18,136.78h23.59a.5.5,0,0,0,.5-.5.5.5,0,0,0-.5-.5H174.18a.51.51,0,0,0-.5.5A.5.5,0,0,0,174.18,136.78Z" fill="#231f20"/><path d="M189.54,152.55H174.18a.5.5,0,0,0-.5.5.51.51,0,0,0,.5.5h15.36a.51.51,0,0,0,.5-.5A.5.5,0,0,0,189.54,152.55Z" fill="#231f20"/><path d="M193.13,142.58a.5.5,0,0,0-.5-.5H174.18a.5.5,0,0,0,0,1h18.45A.5.5,0,0,0,193.13,142.58Z" fill="#231f20"/><path d="M272,212.9l-2.12-.31h0l-1.32-.2.44-.65h0c.63-1,1.27-1.91,1.89-2.87L278.69,197c-3.76-1.21-6.64,1.89-6.77,2s-4.39,6.2-8.71,12.28l-.17.25-1.12-.16-5.57-.82a.51.51,0,0,1-.42-.46V210h0a7,7,0,0,0-5.2-5.65c-3.69-1.1-7.45.5-8.38,3.57s1.33,6.49,5,7.6a7.89,7.89,0,0,0,4.49,0l.15,0h.05l6.42.74,1.13.13-.49.69-3.52,5-.61.87a.47.47,0,0,1-.15.13,7.82,7.82,0,0,0-3,3.38c-1.64,3.48-.6,7.44,2.31,8.8s6.61-.36,8.24-3.85a7,7,0,0,0-.84-7.75.51.51,0,0,1-.05-.63c.23-.33,1.74-2.61,3.77-5.69h0l.17-.26,1.11.13,14.61,1.66c.13,0,4.36-.08,6-3.7Zm-22-4a1.84,1.84,0,0,1-1.06,1.13,2.78,2.78,0,0,1-1.87.08,2.83,2.83,0,0,1-1.52-1.1,1.74,1.74,0,0,1,.8-2.66,2.69,2.69,0,0,1,1-.2,3.12,3.12,0,0,1,.85.12,2.79,2.79,0,0,1,1.52,1.1A1.81,1.81,0,0,1,250,208.94Zm7.42,18.81a2.73,2.73,0,0,1-1.47,1.41,1.8,1.8,0,0,1-1.39,0,1.76,1.76,0,0,1-.9-1,2.68,2.68,0,0,1,.14-2,2.65,2.65,0,0,1,1.48-1.41,1.92,1.92,0,0,1,.66-.12,1.64,1.64,0,0,1,.72.16,1.71,1.71,0,0,1,.89,1A2.73,2.73,0,0,1,257.37,227.75Z" fill="#fdd600"/><path d="M286.54,212.74a.49.49,0,0,0-.35-.23l-15.81-2.35-1.88-.28c.49-.73,1-1.47,1.46-2.21l8.16-12.37a.5.5,0,0,0-.22-.73c-4.7-2-8.44,2-8.51,2.11l-8.56,12.08-5.7-.85a8.06,8.06,0,0,0-5.87-6.27c-4.22-1.27-8.54.63-9.62,4.23s1.47,7.58,5.69,8.85a8.91,8.91,0,0,0,5,.07l5.77.66c-1.31,1.84-2.38,3.36-3,4.28l-.56.79a8.88,8.88,0,0,0-3.26,3.74c-1.87,4-.62,8.54,2.79,10.14a5.93,5.93,0,0,0,2.53.56,8.56,8.56,0,0,0,6.3-13.46l3.39-5.13,15.16,1.73c.06,0,5.57-.08,7.21-4.94A.52.52,0,0,0,286.54,212.74Zm-36.24,1h-.05l-.15,0a7.89,7.89,0,0,1-4.49,0c-3.69-1.11-5.94-4.52-5-7.6s4.69-4.67,8.38-3.57a7,7,0,0,1,5.2,5.65h0v.15a.51.51,0,0,0,.42.46l5.57.82-3.45,4.85Zm9.53,8.11a7,7,0,0,1,.84,7.75c-1.63,3.49-5.33,5.22-8.24,3.85s-4-5.32-2.31-8.8a7.82,7.82,0,0,1,3-3.38.47.47,0,0,0,.15-.13l.61-.87,3.52-5,4.1-5.76c4.32-6.08,8.71-12.27,8.71-12.28s3-3.24,6.77-2l-7.82,11.85c-.62,1-1.26,1.92-1.89,2.87h0c-1.31,2-2.58,3.9-3.68,5.58h0c-2,3.08-3.54,5.36-3.77,5.69A.51.51,0,0,0,259.83,221.89Zm19.61-4.79-14.61-1.66,3.05-4.64,2.35.35,15.19,2.25C283.8,217,279.57,217.1,279.44,217.1Z" fill="#231f20"/><path d="M248.46,205.36a3.68,3.68,0,0,0-2.56.12,2.73,2.73,0,0,0-1.24,4.11,3.91,3.91,0,0,0,3.21,1.68,3.44,3.44,0,0,0,1.42-.29,2.79,2.79,0,0,0,1.62-1.76,2.82,2.82,0,0,0-.38-2.36A3.75,3.75,0,0,0,248.46,205.36Zm1.49,3.58a1.84,1.84,0,0,1-1.06,1.13,2.78,2.78,0,0,1-1.87.08,2.83,2.83,0,0,1-1.52-1.1,1.74,1.74,0,0,1,.8-2.66,2.69,2.69,0,0,1,1-.2,3.12,3.12,0,0,1,.85.12,2.79,2.79,0,0,1,1.52,1.1A1.81,1.81,0,0,1,250,208.94Z" fill="#231f20"/><path d="M262.49,214.12a1.08,1.08,0,1,0-1.43-.55A1.08,1.08,0,0,0,262.49,214.12Z" fill="#231f20"/><path d="M257,223.78a2.73,2.73,0,0,0-2.14-.08,3.7,3.7,0,0,0-2,1.92,3.75,3.75,0,0,0-.17,2.82,2.69,2.69,0,0,0,2.56,1.84,3,3,0,0,0,1-.18,3.84,3.84,0,0,0,2.2-4.75A2.68,2.68,0,0,0,257,223.78Zm.34,4a2.73,2.73,0,0,1-1.47,1.41,1.8,1.8,0,0,1-1.39,0,1.76,1.76,0,0,1-.9-1,2.68,2.68,0,0,1,.14-2,2.65,2.65,0,0,1,1.48-1.41,1.92,1.92,0,0,1,.66-.12,1.64,1.64,0,0,1,.72.16,1.71,1.71,0,0,1,.89,1A2.73,2.73,0,0,1,257.37,227.75Z" fill="#231f20"/><polygon points="453.25 381.42 454.15 382.63 454.51 382.38 455.41 383.64 455.07 383.88 457.11 386.65 463.07 394.7 463.22 394.6 464.12 395.86 463.99 395.95 466.03 398.72 467.4 400.57 496.28 360.58 453.25 381.42" fill="#fdd600"/><path d="M496.67,357a.54.54,0,0,0-.66-.14L450.43,379a.54.54,0,0,0-.3.36.57.57,0,0,0,.09.46l2.14,2.89-2.9,2.06a.51.51,0,0,0-.21.32.48.48,0,0,0,.09.37l1.47,2.08a.51.51,0,0,0,.41.21.52.52,0,0,0,.29-.09l3-2.1,6.81,9.22-3.11,2.2a.5.5,0,0,0-.2.33.45.45,0,0,0,.08.37l1.48,2.08a.46.46,0,0,0,.32.2h.08a.48.48,0,0,0,.29-.09l3.17-2.25,1.82,2.48a.55.55,0,0,0,.89,0l30.6-42.36A.54.54,0,0,0,496.67,357Zm-45.33,29.48-.9-1.26,4.07-2.88.9,1.26Zm8.71,12.22-.89-1.26,4.06-2.89.9,1.27Zm5.6.08L464.28,397l.82-.59a.47.47,0,0,0,.21-.32.48.48,0,0,0-.09-.37l-1.47-2.08a.5.5,0,0,0-.7-.12l-.88.62-6.81-9.21,1-.73a.56.56,0,0,0,.21-.33.49.49,0,0,0-.09-.37L455,381.39a.5.5,0,0,0-.33-.2.49.49,0,0,0-.37.08l-1.09.77-1.75-2.37,43-20.84Z" fill="#231f20"/><path d="M400.67,555.58a10.52,10.52,0,0,1,1.81-2.15.5.5,0,0,0-.13-.83,1.4,1.4,0,0,1-.65-.8,4.21,4.21,0,0,1,.59-3.12,4.11,4.11,0,0,1,2.14-2.26,1.54,1.54,0,0,1,1.14.1.51.51,0,0,0,.69-.16c.23-.36,1.48-1.71,2.17-2.44,2-1.72,3-3.54,3-5.41a6,6,0,0,0-1.88-4.21l-.68-.75-.08-.07-.24-.17,9.69-12.07a2.22,2.22,0,0,0,1-.48.76.76,0,0,0-.06.26.63.63,0,0,0,1.25,0,.62.62,0,0,0-.62-.62.69.69,0,0,0-.29.07.81.81,0,0,0,.12-.14l1-1.36a.62.62,0,0,0,1.24,0,.62.62,0,0,0-.62-.62.66.66,0,0,0-.25,0,2.29,2.29,0,0,0-.71-2.91l-.72-.5a2.28,2.28,0,0,0-3.14.5s0-.06,0-.09a.62.62,0,0,0-.62-.62.62.62,0,0,0-.62.62.62.62,0,0,0,.62.62.6.6,0,0,0,.27-.06l-.88,1.25a1.74,1.74,0,0,0-.1.19.9.9,0,0,0,0-.16.63.63,0,1,0-.63.62.59.59,0,0,0,.46-.21,2.26,2.26,0,0,0-.15,1.09l-9.75,12-.69-.43a6,6,0,0,0-4.52-1.15c-1.84.33-3.46,1.66-4.78,3.89-.62.85-1.74,2.31-2.05,2.6a.5.5,0,0,0,0,.7,1.46,1.46,0,0,1,.29,1.11,4,4,0,0,1-1.84,2.5,4.3,4.3,0,0,1-3,1.13,1.44,1.44,0,0,1-.9-.5.44.44,0,0,0-.43-.23.49.49,0,0,0-.42.24,10.4,10.4,0,0,1-1.8,2.15,6.22,6.22,0,0,1-.69.44c-1.43.84-4.09,2.42-4.6,5.33-.38,2.21.6,4.74,2.95,7.56l1,1h0l-.79,2a.51.51,0,0,0,.14.57l2,1.63a.49.49,0,0,0,.32.12.53.53,0,0,0,.27-.08l2-1.33.49.28a12.21,12.21,0,0,0,5.88,1.9,6.13,6.13,0,0,0,2-.34c2.78-1,3.87-3.9,4.45-5.46A7,7,0,0,1,400.67,555.58Zm14.56-35.72a2.18,2.18,0,0,0,.52.53l.71.49a2,2,0,0,0,.58.3l-19.5,24.3L395.66,544c.35-.42.94-1.14,1.95-2.4l17.58-21.73Zm.78-2.09,1.17-1.66a1.31,1.31,0,0,1,.84-.53l.22,0a1.26,1.26,0,0,1,.74.24l.71.49a1.31,1.31,0,0,1,.53.84,1.26,1.26,0,0,1-.22,1h0l-1.17,1.67a1.29,1.29,0,0,1-.89.54,1.33,1.33,0,0,1-.9-.23l-.72-.5a1.23,1.23,0,0,1-.33-.35s0,0,0,0a1.25,1.25,0,0,1,0-1.43Zm-30.77,42.47-1.41-1.17,1.25-3.1,1.09-1.35,3,2.41-1.09,1.36ZM399.43,556c-.53,1.4-1.52,4-3.86,4.87-1.83.65-4.21.15-7.07-1.48l-.05,0,.24-.16a.4.4,0,0,0,.12-.1l1.45-1.81a.49.49,0,0,0-.07-.7l-3.78-3.05a.49.49,0,0,0-.37-.1.48.48,0,0,0-.33.18l-1.46,1.8a.83.83,0,0,0-.07.13l-.22.55-.67-.64c-2.12-2.54-3-4.8-2.69-6.71.42-2.45,2.83-3.88,4.12-4.64a6.7,6.7,0,0,0,.83-.54,10.52,10.52,0,0,0,1.66-1.88,2.66,2.66,0,0,0,1,.44A5.09,5.09,0,0,0,392,540.8a4.87,4.87,0,0,0,2.24-3.23,2.56,2.56,0,0,0-.28-1.45c.64-.74,1.75-2.25,1.92-2.48,1.18-2,2.57-3.17,4.11-3.45a5.08,5.08,0,0,1,3.77,1l.63.39-7.58,9.37c-.77,1-2,2.51-2.22,2.72a.6.6,0,0,0-.14.21.5.5,0,0,0,.16.56l2.67,2.16a.51.51,0,0,0,.31.11h.06a.48.48,0,0,0,.33-.18l10-12.41.25.17.68.75a5.13,5.13,0,0,1,1.58,3.5c0,1.57-.92,3.14-2.72,4.69-.17.17-1.47,1.53-2.08,2.28a2.57,2.57,0,0,0-1.48,0,4.88,4.88,0,0,0-2.79,2.77,5.06,5.06,0,0,0-.63,3.95,2.58,2.58,0,0,0,.6.94,10.53,10.53,0,0,0-1.56,2A6,6,0,0,0,399.43,556Z" fill="#231f20"/><path d="M426.28,529.3a.49.49,0,0,0-.7.07c-8.58,10.54-24.88,30.56-25.43,31.18a.55.55,0,0,0-.14.35.5.5,0,0,0,.5.5c.29,0,.29,0,25.85-31.4A.5.5,0,0,0,426.28,529.3Z" fill="#231f20"/><path d="M482.08,701.07a.31.31,0,0,0-.12.25.27.27,0,0,0,.14.26.32.32,0,0,0,.12-.26A.27.27,0,0,0,482.08,701.07Z" fill="#231f20"/><path d="M474.7,688.17a3.56,3.56,0,0,0,3.55-3.55,3.45,3.45,0,0,0-.39-1.61l0,0a1.7,1.7,0,0,0-.14-.24l-3-5.21-3,5.19-.16.27v0a3.45,3.45,0,0,0-.39,1.61A3.56,3.56,0,0,0,474.7,688.17Z" fill="#fdd600"/><path d="M489.94,692.92H458.52l-7,17.28h46Zm-17,8.72c-3.42,0-5.6-1.09-5.6-1.84S469.53,698,473,698s5.59,1.09,5.59,1.84S476.36,701.64,473,701.64Z" fill="#fdd600"/><path d="M478.06,695.68a.32.32,0,0,0,.12-.26.27.27,0,0,0-.14-.25.31.31,0,0,0-.12.25A.27.27,0,0,0,478.06,695.68Z" fill="#231f20"/><path d="M497,708.75l-8-18.28a.49.49,0,0,0-.46-.3H456.43a.49.49,0,0,0-.46.31l-7.45,18.28a.47.47,0,0,0,.05.46.5.5,0,0,0,.41.23h47.55a.5.5,0,0,0,.42-.23A.49.49,0,0,0,497,708.75Zm-47.26-.3,7-17.28h31.42l7.58,17.28Z" fill="#231f20"/><path d="M473,687.42A4.55,4.55,0,0,0,477,680.8v0l-.18-.31-3.43-5.94a.52.52,0,0,0-.87,0l-3.42,5.92c-.06.11-.13.22-.19.34l0,.06a4.49,4.49,0,0,0-.48,2A4.56,4.56,0,0,0,473,687.42Zm-3.17-6.16v0L470,681l3-5.19,3,5.21a1.7,1.7,0,0,1,.14.24l0,0a3.45,3.45,0,0,1,.39,1.61,3.56,3.56,0,0,1-7.11,0A3.45,3.45,0,0,1,469.78,681.26Z" fill="#231f20"/><path d="M473,697c-3.2,0-6.6,1-6.6,2.84s3.4,2.84,6.6,2.84,6.59-1,6.59-2.84S476.14,697,473,697Zm0,4.68c-3.42,0-5.6-1.09-5.6-1.84S469.53,698,473,698s5.59,1.09,5.59,1.84S476.36,701.64,473,701.64Z" fill="#231f20"/><path d="M464,700.71c-.65,0-1.13.37-1.13.86s.48.85,1.13.85,1.13-.37,1.13-.85S464.69,700.71,464,700.71Z" fill="#231f20"/><path d="M482,695.41c-.85,0-1.51.51-1.51,1.16s.66,1.17,1.51,1.17,1.52-.51,1.52-1.17S482.81,695.41,482,695.41Z" fill="#231f20"/><path d="M482.09,700.58a.75.75,0,1,0,.87.74A.81.81,0,0,0,482.09,700.58Zm0,1a.27.27,0,0,1-.14-.26.31.31,0,0,1,.12-.25.27.27,0,0,1,.14.25A.32.32,0,0,1,482.1,701.58Z" fill="#231f20"/><path d="M478.05,696.17a.75.75,0,1,0-.87-.75A.81.81,0,0,0,478.05,696.17Zm0-1a.27.27,0,0,1,.14.25.32.32,0,0,1-.12.26.27.27,0,0,1-.14-.26A.31.31,0,0,1,478,695.17Z" fill="#231f20"/><path d="M141.52,126.09l-12.67,0h-1.32l0-12.09H106.84v46.54h34.74Z" fill="#fdd600"/><path d="M141,125.56s0,0,0-.06a.46.46,0,0,0-.12-.23l-13.48-13.48a.57.57,0,0,0-.23-.12h-.06l-.07,0H104.92a.51.51,0,0,0-.5.5v47.32a.51.51,0,0,0,.5.5h35.57a.5.5,0,0,0,.5-.5V125.62S141,125.58,141,125.56ZM105.42,159V112.64h21.09v13a.5.5,0,0,0,.5.5h13V159Zm22.09-33.84V113.35l11.78,11.77Z" fill="#231f20"/><path d="M134.58,133H110.32a.5.5,0,0,0-.5.5.5.5,0,0,0,.5.5h24.26a.5.5,0,0,0,.5-.5A.5.5,0,0,0,134.58,133Z" fill="#231f20"/><path d="M134.58,140.26H110.32a.5.5,0,0,0-.5.5.5.5,0,0,0,.5.5h24.26a.5.5,0,0,0,.5-.5A.5.5,0,0,0,134.58,140.26Z" fill="#231f20"/><path d="M125.57,154.57H110.32a.5.5,0,0,0-.5.5.5.5,0,0,0,.5.5h15.25a.5.5,0,0,0,.5-.5A.5.5,0,0,0,125.57,154.57Z" fill="#231f20"/><path d="M132.55,147.5H110.32a.5.5,0,0,0-.5.5.5.5,0,0,0,.5.5h22.23a.5.5,0,0,0,.5-.5A.51.51,0,0,0,132.55,147.5Z" fill="#231f20"/><path d="M111.75,125.78l3.21-1,1.19,1.44,1.26-.38-5-6-1.11.33-.94,7.75,1.22-.37Zm.47-4.26,2,2.37-2.34.7Z" fill="#231f20"/><polygon points="116.75 122.92 118.61 122.37 119.17 124.22 120.28 123.89 119.72 122.03 121.59 121.47 121.27 120.4 119.4 120.96 118.85 119.11 117.74 119.44 118.29 121.29 116.43 121.85 116.75 122.92" fill="#231f20"/><path d="M262.24,120.16l-2.19,3.9-8.57,15.18,4.7,1.16,7.93-14.05,2.2-3.89Z" fill="#fdd600"/><path d="M252.3,147.28l-4.53-1.46-1.57,2.77a6.71,6.71,0,0,1,2.33.83,6.94,6.94,0,0,1,1.74,1.46Z" fill="#fdd600"/><path d="M245.29,152.13a3,3,0,0,0-.71-.26l-.16,1.93,1.56-1.13A2.47,2.47,0,0,0,245.29,152.13Z" fill="#fdd600"/><rect x="276.77" y="134.61" width="10.55" height="19.29" fill="#fdd600"/><path d="M286.32,132.11H274.77a.5.5,0,0,0-.5.5v2.47c-5.63-5.71-10.12-6.47-12.47-6.33l-.25,0,2.18-3.86h0l2.19-3.89a.5.5,0,0,0-.19-.68l-4.93-2.78a.47.47,0,0,0-.38,0,.48.48,0,0,0-.3.24L253,130.39a49.24,49.24,0,0,0-5.76,1.53,9.52,9.52,0,0,0-4.15,2.47,9.12,9.12,0,0,0-1.82,2.64l-2.51,7.16a.29.29,0,0,0,0,.1,3.75,3.75,0,0,0,2.07,3.91,3.54,3.54,0,0,0,2.55.09l-.48,5.9a.53.53,0,0,0,.26.48.51.51,0,0,0,.53,0l5.48-3.95h0l.06-.06.07-.08h0l.56-1v.26a3.54,3.54,0,0,0,6.42,2.06,3.53,3.53,0,0,0,6.58-.41,13.83,13.83,0,0,0,3.59,1,9.7,9.7,0,0,0,1.14.11l.67,0a13.76,13.76,0,0,0,6-1.39v1.72a.5.5,0,0,0,.5.5h11.55a.5.5,0,0,0,.5-.5V132.61A.5.5,0,0,0,286.32,132.11Zm-.5,20.29H275.27V133.11h10.55Zm-28.9-2v-2.61l1.06.34a14.15,14.15,0,0,0,3.93,2.92,2.54,2.54,0,0,1-5-.65Zm-3.55,2a2.54,2.54,0,0,1-2.54-2.54v-2l.94-1.66,4.15,1.34v2.35A2.55,2.55,0,0,1,253.37,152.33Zm-12.18-5a2.72,2.72,0,0,1-1.49-2.82l2.47-7.06a8.24,8.24,0,0,1,1.61-2.32,8.59,8.59,0,0,1,3.75-2.22c1.9-.61,3.56-1.05,4.79-1.33l-3.35,6-2-.49a3.6,3.6,0,0,0-2.11,6.86l.44.14-1.76,3.13A2.7,2.7,0,0,1,241.19,147.29ZM264.8,121l-1.7,3-4.06-2.3,1.7-3Zm-16.67,29.21-1.83,1.32a3.71,3.71,0,0,0-1-.84,4,4,0,0,0-1.12-.38l.18-2.23a5.9,5.9,0,0,1,2.17.75A5.76,5.76,0,0,1,248.13,150.17Zm-4,1.1a3.1,3.1,0,0,1,.72.26,2.63,2.63,0,0,1,.69.54l-1.56,1.12Zm10.59-12.37-4.7-1.16,8.56-15.18,4.07,2.29Zm-7.65,9a6.71,6.71,0,0,0-2.33-.83l1.57-2.77,4.53,1.46-2,3.6A6.94,6.94,0,0,0,247,147.92ZM260.56,149a13.19,13.19,0,0,1-1.94-1.72.54.54,0,0,0-.22-.13l-13.2-4.27a2.6,2.6,0,0,1,1.54-4.95l15.11,3.72a.5.5,0,0,0,.6-.37.49.49,0,0,0-.36-.6l-6.4-1.58,5.23-9.27a5.77,5.77,0,0,1,.93-.12c1.85-.11,6.48.44,12.42,6.79V150a12.77,12.77,0,0,1-6.65,1.52c-.47,0-.83-.07-1.07-.1A13.53,13.53,0,0,1,260.56,149Z" fill="#231f20"/><path d="M350.34,124.93l-13.12-.06h-.87l0-12h-20.7v46.53h34.74Z" fill="#fdd600"/><path d="M351.38,125.8a.13.13,0,0,0,0-.06.57.57,0,0,0-.12-.23L337.68,112a.48.48,0,0,0-.22-.12h-.06l-.07,0H315.1a.51.51,0,0,0-.5.5v47.61a.51.51,0,0,0,.5.5h35.8a.51.51,0,0,0,.5-.5v-34A.14.14,0,0,0,351.38,125.8ZM315.6,159.41V112.8h21.23v13.07a.5.5,0,0,0,.5.5H350.4v33Zm22.23-34V113.51l11.86,11.86Z" fill="#231f20"/><path d="M320.53,121.33H333a.5.5,0,0,0,.5-.5.5.5,0,0,0-.5-.5H320.53a.51.51,0,0,0-.5.5A.5.5,0,0,0,320.53,121.33Z" fill="#231f20"/><path d="M345,131.36H320.53a.5.5,0,0,0-.5.5.51.51,0,0,0,.5.5H345a.51.51,0,0,0,.5-.5A.5.5,0,0,0,345,131.36Z" fill="#231f20"/><path d="M345,136.83H320.53a.5.5,0,0,0,0,1H345a.5.5,0,0,0,0-1Z" fill="#231f20"/><path d="M335.88,152.72H320.53a.5.5,0,0,0,0,1h15.35a.5.5,0,0,0,0-1Z" fill="#231f20"/><path d="M342.9,142.3H320.53a.51.51,0,0,0-.5.5.5.5,0,0,0,.5.5H342.9a.5.5,0,0,0,.5-.5A.5.5,0,0,0,342.9,142.3Z" fill="#231f20"/><path d="M404.45,124.49a71.43,71.43,0,0,0-10.74-.44,73.14,73.14,0,0,0-9.91,1v27.48a74.4,74.4,0,0,1,9.89-.72h.44a75.73,75.73,0,0,1,10.32.72l16.65-3.72V120.65Z" fill="#fdd600"/><path d="M427.11,124.05h-2.42v-.91a.5.5,0,0,0-.4-.49c-1.22-.23-2.45-.42-3.69-.59v-3.52a.49.49,0,0,0-.19-.39.46.46,0,0,0-.42-.1l-17.11,3.88a.38.38,0,0,0-.17.08,69.58,69.58,0,0,0-21,.64.5.5,0,0,0-.41.49v.91h-2.41a.5.5,0,0,0-.5.5v29.12a.5.5,0,0,0,.5.5h48.22a.5.5,0,0,0,.5-.5V124.55A.5.5,0,0,0,427.11,124.05ZM402.49,123v28.06a70.78,70.78,0,0,0-10.08-.73H392a71.27,71.27,0,0,0-9.67.72V123.56a68.62,68.62,0,0,1,20.19-.57Zm17.11,24.36L403.49,151V122.81l16.11-3.65Zm4.09,3.69a71.31,71.31,0,0,0-9.79-.72c-1.09,0-2.17,0-3.25.08l9.56-2.17a.49.49,0,0,0,.39-.48V123.07c1,.14,2.07.3,3.09.49Zm-44.3-26h1.91v26.57a.49.49,0,0,0,.17.38.49.49,0,0,0,.4.12,69.33,69.33,0,0,1,20.62-.06v1.11h-23.1Zm47.22,28.12H403.49v-1.1a69,69,0,0,1,20.63.05h.07a.5.5,0,0,0,.33-.12.49.49,0,0,0,.17-.38V125.05h1.92Z" fill="#231f20"/><path d="M416.65,124l-10.81,2.6a.5.5,0,0,0,.12,1l.11,0,10.81-2.6a.49.49,0,0,0,.37-.6A.5.5,0,0,0,416.65,124Z" fill="#231f20"/><path d="M416.39,130.2l-10.81,2.6a.5.5,0,0,0,.11,1h.12l10.81-2.6a.5.5,0,0,0,.37-.61A.5.5,0,0,0,416.39,130.2Z" fill="#231f20"/><path d="M416.39,136.39,405.58,139a.5.5,0,0,0-.37.61.49.49,0,0,0,.48.38h.12l10.81-2.61a.49.49,0,0,0,.37-.6A.5.5,0,0,0,416.39,136.39Z" fill="#231f20"/><path d="M416.39,142.59l-10.81,2.6a.5.5,0,0,0,.11,1h.12l10.81-2.6a.5.5,0,1,0-.23-1Z" fill="#231f20"/><path d="M398,127H385.72a.5.5,0,0,0-.5.5.5.5,0,0,0,.5.5H398a.5.5,0,0,0,.5-.5A.5.5,0,0,0,398,127Z" fill="#231f20"/><path d="M398,132.85H385.72a.5.5,0,0,0-.5.5.5.5,0,0,0,.5.5H398a.5.5,0,0,0,.5-.5A.5.5,0,0,0,398,132.85Z" fill="#231f20"/><path d="M398,139.06H385.72a.5.5,0,0,0,0,1H398a.5.5,0,0,0,0-1Z" fill="#231f20"/><path d="M398,145.32H385.72a.5.5,0,0,0-.5.5.5.5,0,0,0,.5.5H398a.5.5,0,0,0,.5-.5A.5.5,0,0,0,398,145.32Z" fill="#231f20"/><path d="M479.18,116.75q3.58,22.14,7.19,44.28L497,159.3q-3.58-22.14-7.18-44.28Z" fill="#fdd600"/><rect x="451.48" y="113.68" width="10.8" height="47.26" fill="#fdd600"/><rect x="470.52" y="114.35" width="7.33" height="46.59" fill="#fdd600"/><path d="M489.24,112.86a.48.48,0,0,0-.2-.32.49.49,0,0,0-.37-.09l-11.32,1.84v-1.94a.5.5,0,0,0-.5-.5h-8.33a.5.5,0,0,0-.5.5v2.26h-6.25v-2.93a.5.5,0,0,0-.5-.5H449.48a.5.5,0,0,0-.5.5v48.26a.5.5,0,0,0,.5.5h27.37a.51.51,0,0,0,.5-.5V119.45l.17,1.08h0L483,154.35h0l.95,5.84a.46.46,0,0,0,.2.32.46.46,0,0,0,.29.1h.08l11.65-1.89a.49.49,0,0,0,.41-.57Zm-10.65,8,10.66-1.73L494.58,152l-10.66,1.73Zm9.75-7.34.75,4.63-10.66,1.73-.75-4.63ZM450,117.26h10.79v37.38H450Zm11.79,2.52H468v35.45h-6.25ZM469,118h7.33V154H469Zm0-5.11h7.33V117H469v-4.11Zm-1,2.76v3.17h-6.25v-3.17Zm-7.25-3.43v4.08H450v-4.08ZM450,155.64h10.79v3.8H450Zm11.79.59H468v3.21h-6.25Zm7.25,3.21V155h7.33v4.4Zm15.85.09-.79-4.84L494.74,153l.78,4.84Z" fill="#231f20"/><path d="M455.23,123.83a.5.5,0,0,0-.5.5v23a.5.5,0,0,0,1,0v-23A.5.5,0,0,0,455.23,123.83Z" fill="#231f20"/><path d="M464.9,129.41a.5.5,0,0,0-.5.5v15.27a.5.5,0,0,0,.5.5.5.5,0,0,0,.5-.5V129.91A.51.51,0,0,0,464.9,129.41Z" fill="#231f20"/><path d="M472.68,125.93a.51.51,0,0,0-.5.5v18.75a.5.5,0,0,0,.5.5.5.5,0,0,0,.5-.5V126.43A.5.5,0,0,0,472.68,125.93Z" fill="#231f20"/><path d="M485.64,127.48a.5.5,0,0,0-1,.16l2.86,17.63a.5.5,0,0,0,.5.42h.08a.5.5,0,0,0,.41-.58Z" fill="#231f20"/><path d="M486,203.88a11.73,11.73,0,1,0-14.12,11.47l0,3.52h.45V239.3h3.81V218.87h.61l0-3.54A11.74,11.74,0,0,0,486,203.88Zm-13.28,7a8.46,8.46,0,1,1,8.46-8.45A8.46,8.46,0,0,1,472.72,210.83Z" fill="#fdd600"/><path d="M470.36,217.37h-.05v-2.51c-.34-.06-.68-.15-1-.24v3.25a.5.5,0,0,0,.5.5h.05v-.5A.5.5,0,0,1,470.36,217.37Z" fill="#231f20"/><path d="M475.22,217.37h-.05a.5.5,0,0,1,.5.5v.5h.05a.5.5,0,0,0,.5-.5V214.6c-.33.09-.66.18-1,.25Z" fill="#231f20"/><path d="M472.72,189.65a12.72,12.72,0,0,0-3.41,25c.32.09.66.18,1,.24a12.42,12.42,0,0,0,4.91,0c.34-.07.67-.16,1-.25a12.72,12.72,0,0,0-3.5-24.95Zm0,24.45a11.73,11.73,0,1,1,11.73-11.72A11.74,11.74,0,0,1,472.72,214.1Z" fill="#231f20"/><path d="M472.72,192.92a9.46,9.46,0,1,0,9.46,9.46A9.46,9.46,0,0,0,472.72,192.92Zm0,17.91a8.46,8.46,0,1,1,8.46-8.45A8.46,8.46,0,0,1,472.72,210.83Z" fill="#231f20"/><path d="M475.17,217.37h-4.81a.5.5,0,0,0-.5.5V238.3a.5.5,0,0,0,.5.5h4.81a.5.5,0,0,0,.5-.5V217.87A.5.5,0,0,0,475.17,217.37Zm-.5,20.43h-3.81V218.37h3.81Z" fill="#231f20"/><path d="M472.63,196.17a6.85,6.85,0,0,0-6.2,6.67.51.51,0,0,0,.3.48.58.58,0,0,0,.19,0,.5.5,0,0,0,.52-.49,5.86,5.86,0,0,1,5.29-5.7.5.5,0,1,0-.1-1Z" fill="#231f20"/><path d="M414.82,224.38l.24-.23L413,222a8.42,8.42,0,0,1,.39-1,1.39,1.39,0,0,1,.06-.13,10.06,10.06,0,0,0,.64-1.47c0-.09.06-.19.09-.27l.15-.49v0s0-.14.08-.37a10.25,10.25,0,0,0,.2-3.22.53.53,0,0,0,0-.13,14.79,14.79,0,0,0-2.44-7.11v-6.69l-9.63-.08H401.2c0-3,.05-6,.08-8.95H381.76v40.38H412.2V228.2a3.29,3.29,0,0,0,.37-1.15l11.65,12.29,2.5-2.39Zm-6.8-4.44a7.41,7.41,0,1,1,2.3-5.19A7.42,7.42,0,0,1,408,219.94Z" fill="#fdd600"/><path d="M385.3,197.5h10.95a.5.5,0,0,0,.5-.5.5.5,0,0,0-.5-.5H385.3a.5.5,0,0,0-.5.5A.5.5,0,0,0,385.3,197.5Z" fill="#231f20"/><path d="M398,225.83H385.3a.5.5,0,0,0-.5.5.5.5,0,0,0,.5.5H398a.5.5,0,0,0,.5-.5A.5.5,0,0,0,398,225.83Z" fill="#231f20"/><path d="M410.72,226.7V231H380.28V190.61h20v9.95a.5.5,0,0,0,.5.5h9.94v5.36a4.12,4.12,0,0,1,.37.35c.23.24.43.48.63.73v-6.94a.58.58,0,0,0,0-.19.71.71,0,0,0-.11-.17l-10.45-10.44a.36.36,0,0,0-.16-.11.43.43,0,0,0-.19,0h-21a.5.5,0,0,0-.5.5v41.38a.5.5,0,0,0,.5.5h31.44a.5.5,0,0,0,.5-.5V227.6l-.91-1Zm-9.44-35.38,8.74,8.74h-8.74Z" fill="#231f20"/><path d="M408.27,209.45a7.41,7.41,0,1,0,2.05,5.3A7.38,7.38,0,0,0,408.27,209.45Zm-8.49,9.29a.42.42,0,0,1-.14.09.45.45,0,0,1-.49-.12,6.08,6.08,0,0,1-.1-8.06.45.45,0,1,1,.68.58,5.17,5.17,0,0,0,.09,6.88A.45.45,0,0,1,399.78,218.74Z" fill="none"/><path d="M412.11,221.12a11.44,11.44,0,0,1-1.41,1.64,11.28,11.28,0,0,1-1.64,1.3l1.44,1.5h0l.21-.2.63-.6,2.22-2.11Z" fill="none"/><path d="M410.37,207.46A10.31,10.31,0,1,0,410,222,10.27,10.27,0,0,0,410.37,207.46ZM402.9,223a8.4,8.4,0,1,1,5.81-2.31A8.4,8.4,0,0,1,402.9,223Z" fill="none"/><rect x="416.75" y="222.57" width="3.26" height="16.42" transform="translate(-43.76 352.13) rotate(-43.59)" fill="none"/><path d="M409,208.76a8.43,8.43,0,1,0,2.32,6A8.43,8.43,0,0,0,409,208.76Zm-1,11.18a7.41,7.41,0,1,1,2.3-5.19A7.42,7.42,0,0,1,408,219.94Z" fill="#231f20"/><path d="M426.29,235.27,414.62,223a.53.53,0,0,0,.15-.34.51.51,0,0,0-.14-.36l-2-2.06a11.33,11.33,0,0,0-.95-12.76c-.2-.25-.4-.49-.63-.73a4.12,4.12,0,0,0-.37-.35,11.31,11.31,0,0,0-15.39-.24h-10a.5.5,0,0,0,0,1h9a11.22,11.22,0,0,0-2.29,4.25H385.3a.5.5,0,0,0-.5.5.5.5,0,0,0,.5.5h6.51a11.41,11.41,0,0,0,0,4.24h-6.5a.5.5,0,0,0-.5.5.5.5,0,0,0,.5.5H392a11.3,11.3,0,0,0,10.59,8.21h.29a11.19,11.19,0,0,0,5.26-1.3l1.95,2a.51.51,0,0,0,.36.15.48.48,0,0,0,.24-.07l.09-.06-.34-.36a.52.52,0,0,1-.14-.36h0a.52.52,0,0,0,.14.36l.34.36.91,1,10.76,11.3a.51.51,0,0,0,.36.15.52.52,0,0,0,.35-.14l3.08-2.93a.52.52,0,0,0,.16-.35A.54.54,0,0,0,426.29,235.27Zm-23.64-10.39A10.31,10.31,0,1,1,410,222,10.28,10.28,0,0,1,402.65,224.88Zm8.06.48-.21.2h0l-1.44-1.5a11.28,11.28,0,0,0,1.64-1.3,11.44,11.44,0,0,0,1.41-1.64l1.45,1.53-2.22,2.11Zm12.15,12.48L411.54,226l2.36-2.24,11.32,11.89Z" fill="#231f20"/><path d="M398.47,214.9a5.3,5.3,0,0,1,1.26-3.67.45.45,0,1,0-.68-.58,6.08,6.08,0,0,0,.1,8.06.45.45,0,0,0,.49.12.42.42,0,0,0,.14-.09.45.45,0,0,0,0-.63A5.26,5.26,0,0,1,398.47,214.9Z" fill="#231f20"/><path d="M346.19,200.89l2.4-6a1.69,1.69,0,0,0-.93-2.2l-2.33-.95a1.63,1.63,0,0,0-.64-.13,1.7,1.7,0,0,0-1.57,1.06c-.59,1.49-1.19,3-1.78,4.46a12.27,12.27,0,0,0-4.81-1H332a12.22,12.22,0,0,0-4.84,1L325.46,193a1.64,1.64,0,0,0-2.14-.9l-2.27.92a1.65,1.65,0,0,0-.91,2.14l2.28,5.67a12.29,12.29,0,0,0-2.74,7.74v30.92h29.19V208.53A12.23,12.23,0,0,0,346.19,200.89ZM326,205a1.86,1.86,0,0,1,1.86-1.86h9.9a1.86,1.86,0,0,1,1.86,1.86v.66H326Zm0,1.66h13.62v3.85a1.86,1.86,0,0,1-1.86,1.86h-9.9a1.87,1.87,0,0,1-1.86-1.86Zm18.66,26.15a2.24,2.24,0,0,1-2.25,2.24h-19.2a2.24,2.24,0,0,1-2.24-2.24v-7h23.69Zm0-8H320.93v-1.12a2.25,2.25,0,0,1,2.24-2.25h19.2a2.25,2.25,0,0,1,2.25,2.25Z" fill="#fdd600"/><path d="M345.88,198.81l1.94-4.79a2.56,2.56,0,0,0-1.4-3.33l-2.46-1a2.54,2.54,0,0,0-1.95,0,2.49,2.49,0,0,0-1.37,1.39l-1.26,3.09a12.57,12.57,0,0,0-1.5-.35,5.4,5.4,0,0,0-10.21,0,12.63,12.63,0,0,0-1.53.36l-1.23-3a2.57,2.57,0,0,0-1.38-1.39,2.53,2.53,0,0,0-1.95,0l-2.46,1a2.55,2.55,0,0,0-1.4,3.33l1.92,4.73a12.67,12.67,0,0,0-2.51,7.57v32.1a.5.5,0,0,0,.5.5h30.28a.5.5,0,0,0,.5-.5v-32.1A12.71,12.71,0,0,0,345.88,198.81Zm-4.32-7.34a1.6,1.6,0,0,1,1.44-1,1.43,1.43,0,0,1,.58.12l2.46,1a1.55,1.55,0,0,1,.86,2l-1.74,4.28a13,13,0,0,0-4.84-3.39Zm-8.79-.28a4.67,4.67,0,0,1,3.9,2.49c-.35,0-.69-.05-1-.05h-5.72c-.35,0-.69,0-1,.05A4.67,4.67,0,0,1,332.77,191.19Zm-14.12,2.54a1.54,1.54,0,0,1,0-1.19,1.51,1.51,0,0,1,.85-.83l2.46-1a1.58,1.58,0,0,1,1.19,0,1.54,1.54,0,0,1,.83.85l1.22,3a12.83,12.83,0,0,0-4.84,3.4ZM347.41,238H318.13v-31.6a11.8,11.8,0,0,1,11.78-11.78h5.72a11.8,11.8,0,0,1,11.78,11.78Z" fill="#231f20"/><path d="M327.82,213.39h9.9a2.87,2.87,0,0,0,2.86-2.86V205a2.86,2.86,0,0,0-2.86-2.86h-9.9A2.86,2.86,0,0,0,325,205v5.51A2.87,2.87,0,0,0,327.82,213.39ZM326,205a1.86,1.86,0,0,1,1.86-1.86h9.9a1.86,1.86,0,0,1,1.86,1.86v.66H326Zm0,1.66h13.62v3.85a1.86,1.86,0,0,1-1.86,1.86h-9.9a1.87,1.87,0,0,1-1.86-1.86Z" fill="#231f20"/><path d="M323.17,220.49a3.25,3.25,0,0,0-3.24,3.25v9.09a3.24,3.24,0,0,0,3.24,3.24h19.2a3.25,3.25,0,0,0,3.25-3.24v-9.09a3.26,3.26,0,0,0-3.25-3.25Zm21.45,12.34a2.24,2.24,0,0,1-2.25,2.24h-19.2a2.24,2.24,0,0,1-2.24-2.24v-7h23.69Zm0-9.09v1.12H320.93v-1.12a2.25,2.25,0,0,1,2.24-2.25h19.2A2.25,2.25,0,0,1,344.62,223.74Z" fill="#231f20"/><path d="M175.36,231.81l4.34,4.1q17.63-18.66,35.26-37.33l-4.35-4.09Z" fill="#fdd600"/><path d="M216.14,193.2a.5.5,0,0,0-.16-.34l-2.78-2.63a.48.48,0,0,0-.7,0l-2.28,2.41-.79-.74a.49.49,0,0,0-.7,0L204,197a.63.63,0,0,0-.13-.2l-2.17-2.05,0,0,1.49-1.59a.49.49,0,0,0,0-.7.5.5,0,0,0-.71,0l-13,13.75a.48.48,0,0,0,0,.7.48.48,0,0,0,.7,0L201,195.42l0,0,2.18,2a.44.44,0,0,0,.2.11L172.68,230.1a.49.49,0,0,0-.13.42l-2.66,7.68a.5.5,0,0,0,.13.52.49.49,0,0,0,.34.14.41.41,0,0,0,.19,0l7.51-3.09h.07a.48.48,0,0,0,.35-.16l31-32.8h0l5.06-5.36a.46.46,0,0,0,.13-.36.49.49,0,0,0-.15-.34l-.79-.75,2.28-2.41A.51.51,0,0,0,216.14,193.2Zm-42.28,37.11,30.19-32,4.35,4.1-30.2,32Zm-.49.91,3.95,3.73-6.12,2.53Zm35.71-29.49-4.34-4.11,4.37-4.63,4.35,4.11Zm1.86-8.38,1.94-2,2.05,1.94-1.94,2Z" fill="#231f20"/><path d="M135.91,298.28v-8.6a1.93,1.93,0,0,0-3.83-.3c-.15.51-.42.57-.61.54-.36-.1-.47-.33-.42-.72V278.48a1.94,1.94,0,0,0-3.87,0h0a.5.5,0,0,1-.5.5.51.51,0,0,1-.5-.5s0,0,0-.05v-2.8a1.94,1.94,0,0,0-3.87,0v2.84h0a.49.49,0,0,1-1,0h0v-.06h0a1.94,1.94,0,0,0-3.87.07v8.11s0,0,0,0a.5.5,0,0,1-1,0h0v-.94a1.93,1.93,0,1,0-3.86,0v13a2.18,2.18,0,0,0,0,.25,11.65,11.65,0,0,0,5.32,9.78v12.07H130V309.15A11.65,11.65,0,0,0,135.91,299a2.26,2.26,0,0,0,0-.26v-.35A.38.38,0,0,0,135.91,298.28Z" fill="#fdd600"/><path d="M135.54,288.14a2.94,2.94,0,0,0-4.89-2.21v-9a2.95,2.95,0,0,0-4.89-2.21V274a2.95,2.95,0,1,0-5.89,0v.64a2.95,2.95,0,0,0-4.89,2.21v5.05a2.94,2.94,0,0,0-4.89,2.21v12.63a.9.9,0,0,0,0,.23v.17c0,.11,0,.21,0,.32a12.7,12.7,0,0,0,5.34,10.35V320a.5.5,0,0,0,.5.5h13.13a.5.5,0,0,0,.5-.5V308.27a12.7,12.7,0,0,0,6-10.77c0-.11,0-.22,0-.33V297a1.94,1.94,0,0,0,0-.24Zm-7,31.31H116.43V308.5a12.61,12.61,0,0,0,12.13.34Zm6-22.67a.34.34,0,0,1,0,.1v.36c0,.08,0,.17,0,.26a11.73,11.73,0,1,1-23.45,0,2.18,2.18,0,0,1,0-.25v-13.1a1.95,1.95,0,1,1,3.89,0v3.59h0v4.13a.5.5,0,0,0,.5.5.5.5,0,0,0,.5-.5v-5.55h0v-9.43a1.95,1.95,0,0,1,3.89,0h0v15a.5.5,0,0,0,.5.5.5.5,0,0,0,.5-.5v-15h0V274a1.95,1.95,0,1,1,3.89,0v17.83a.5.5,0,0,0,1,0v-15a1.95,1.95,0,0,1,3.89,0v10.85l0,.3v6.64a5.26,5.26,0,0,0-2.27.86c-2.78,1.88-2.47,5.69-2.45,5.85a.5.5,0,0,0,.49.46h.05a.5.5,0,0,0,.45-.55s-.28-3.38,2-4.94a4.48,4.48,0,0,1,2.24-.73.5.5,0,0,0,.47-.5v-7.31a1.94,1.94,0,0,1,3.85.32Z" fill="#231f20"/><path d="M477.17,317.72h-7.34a4,4,0,0,0,7.34,0Z" fill="#fdd600"/><path d="M474.5,284a12,12,0,0,0-5.94,22.53.52.52,0,0,1,.25.44v3.86h11.38V307a.52.52,0,0,1,.25-.44A12,12,0,0,0,474.5,284Z" fill="#fdd600"/><path d="M473,281.51a13,13,0,0,0-6.69,24.25v3.58h-1.12a.67.67,0,0,0-.66.66v3.12s0,.07,0,.11,0,.07,0,.1v3.34a.58.58,0,0,0,.55.55h3.18a5,5,0,0,0,9.48,0h3.18a.58.58,0,0,0,.55-.55v-3.34s0-.07,0-.1,0-.07,0-.11V310a.67.67,0,0,0-.66-.66h-1.12v-3.58A13,13,0,0,0,473,281.51Zm-3.67,35.71h7.33a4,4,0,0,1-7.33,0Zm-3.8-1v-2.44h14.94v2.44Zm14.94-3.44H465.53v-2.44h14.94ZM478.94,305a.52.52,0,0,0-.25.44v3.86H467.31v-3.86a.52.52,0,0,0-.25-.44,12.05,12.05,0,1,1,11.88,0Z" fill="#231f20"/><path d="M468.32,285.85a9.92,9.92,0,0,0-4,4.08,9.75,9.75,0,0,0-1,5.46.49.49,0,0,0,.5.45h0a.5.5,0,0,0,.44-.55c0-.23,0-.5,0-.82a8.74,8.74,0,0,1,3.86-7.31,7.92,7.92,0,0,1,.7-.43.5.5,0,0,0-.48-.88Z" fill="#231f20"/><path d="M495.62,292h-8.06a.5.5,0,0,0-.5.5.5.5,0,0,0,.5.5h8.06a.51.51,0,0,0,.5-.5A.5.5,0,0,0,495.62,292Z" fill="#231f20"/><path d="M483.73,284.56a.52.52,0,0,0,.35-.14l5.7-5.7a.5.5,0,0,0-.71-.71l-5.7,5.7a.51.51,0,0,0,0,.71A.54.54,0,0,0,483.73,284.56Z" fill="#231f20"/><path d="M462.25,284.42a.52.52,0,0,0,.35.14.5.5,0,0,0,.35-.85l-5.69-5.7a.5.5,0,1,0-.71.71Z" fill="#231f20"/><path d="M458.44,292.32h-8.06a.5.5,0,0,0-.5.5.51.51,0,0,0,.5.5h8.06a.5.5,0,0,0,.5-.5A.5.5,0,0,0,458.44,292.32Z" fill="#231f20"/><path d="M473,280.31a.5.5,0,0,0,.5-.5v-8.06a.5.5,0,0,0-1,0v8.06A.5.5,0,0,0,473,280.31Z" fill="#231f20"/><path d="M404.68,386.85a8.88,8.88,0,0,0-1.2-1.2c-.89-.73-1.12-.69-1.57-1.21a6.23,6.23,0,0,1-1-2.17c-.23-.7-.37-1.29-.46-1.69l-2.11-2.14c-4.5,4.39-9.1,8.74-13.72,13,.21.27.44.53.66.8l-2.93,2.68c.2.25.41.49.62.73l-2.32,2.3a23.44,23.44,0,0,0,2.45,2.91,24.2,24.2,0,0,0,2.87,2.48l2.35-2.27c.23.2.46.41.71.6l2.86-2.77c.21.18.42.37.64.54,1.92-2,3.86-4.09,5.84-6.15S402.6,389,404.68,386.85Z" fill="#fdd600"/><path d="M425.66,364.2c.77-.77,1.53-1.55,2.29-2.33a23.4,23.4,0,0,0-2.44-2.9,24.38,24.38,0,0,0-2.88-2.49l-2.3,2.29v0c-.26-.21-.5-.44-.76-.65l-2.77,2.76v0l-.74-.59c-4.09,4.38-8.3,8.74-12.55,13l2.44,2.47a1.34,1.34,0,0,1,.65,0,1.44,1.44,0,0,1,.41.17c.69.41,1.68.4,2.42,1s.52,1.48,1.58,2.32a3.58,3.58,0,0,0,.87.5q3-2.94,6.18-5.89,3-2.79,5.92-5.49c-.17-.22-.35-.43-.52-.66l2.77-2.8C426.06,364.67,425.86,364.44,425.66,364.2Z" fill="#fdd600"/><path d="M427.52,360.14a25,25,0,0,0-6.15-6.22.49.49,0,0,0-.64.06l-2,1.95-.4-.34a.49.49,0,0,0-.66,0l-2.49,2.46-.39-.3a.52.52,0,0,0-.66.07c-5.09,5.46-10.37,10.89-15.68,16.13s-10.8,10.46-16.31,15.49a.49.49,0,0,0-.06.67l.29.36L379.88,393a.49.49,0,0,0,0,.66c.1.14.22.27.33.4l-2,2a.51.51,0,0,0-.06.64,26,26,0,0,0,2.81,3.38,24.46,24.46,0,0,0,3.34,2.84.52.52,0,0,0,.29.09.5.5,0,0,0,.35-.14l2-2,.4.34a.45.45,0,0,0,.31.11.5.5,0,0,0,.35-.14l2.51-2.48.36.3a.5.5,0,0,0,.31.1.48.48,0,0,0,.36-.16c4-4.31,8.16-8.59,12.33-12.79l.24.07,2.24,5.5a.5.5,0,0,0,.39.3h.08a.47.47,0,0,0,.38-.19l1.54-1.89,2.15.37a.49.49,0,0,0,.54-.68l-1.88-4.6c.08-.08.18-.13.25-.21s.14-.17.21-.25l4.59,1.94a.58.58,0,0,0,.19,0,.51.51,0,0,0,.31-.11.49.49,0,0,0,.18-.47l-.34-2.15,1.91-1.51a.51.51,0,0,0,.18-.46.5.5,0,0,0-.3-.4l-5.47-2.31c0-.07,0-.15-.07-.23,4.06-3.92,8.19-7.81,12.35-11.59a.52.52,0,0,0,.07-.66c-.09-.13-.2-.25-.3-.39l2.5-2.47a.5.5,0,0,0,.05-.66c-.11-.14-.23-.27-.34-.4l2-2A.5.5,0,0,0,427.52,360.14ZM401.36,372.6l2.63,2.65a5.63,5.63,0,0,0-3.71,3.7l-2.65-2.67Zm-16.84,29.21a24,24,0,0,1-5.32-5.39l1.61-1.59c.81,1,1.64,1.92,2.53,2.82s1.83,1.75,2.79,2.57Zm3.06-1.67a41.13,41.13,0,0,1-3.53-3.19,46.06,46.06,0,0,1-3.15-3.56l2.12-2.1a43.28,43.28,0,0,0,6.68,6.76Zm3.5-2.23a46.77,46.77,0,0,1-4.2-3.76,48.31,48.31,0,0,1-3.71-4.24c4.62-4.22,9.22-8.58,13.72-13l3.14,3.18a5.22,5.22,0,0,0,1.6,4.65,5.41,5.41,0,0,0,1.23.92C398.88,389.71,394.93,393.8,391.08,397.91Zm19.05-8.73-1.54-.27a.51.51,0,0,0-.48.18l-1.19,1.46-1.68-4.11c.15,0,.3,0,.45,0h0a5.63,5.63,0,0,0,3-.84Zm-1.07-5.07a5,5,0,0,1-3.37,1.37,4.75,4.75,0,0,1,0-9.5h0a4.75,4.75,0,0,1,3.31,8.13Zm2.41-3.34c0-.16,0-.3,0-.45l4.09,1.73-1.47,1.17a.52.52,0,0,0-.19.47l.25,1.55-3.51-1.49A5.66,5.66,0,0,0,411.47,380.77Zm-.75-2.83a5.56,5.56,0,0,0-.91-1.25,5.73,5.73,0,0,0-4.05-1.71,6.08,6.08,0,0,0-.61,0L402,371.85c4.25-4.25,8.46-8.61,12.55-13a35.55,35.55,0,0,1,7.92,8C418.53,370.49,414.59,374.2,410.72,377.94Zm11.94-12.47a36.88,36.88,0,0,0-3.09-3.62,38.25,38.25,0,0,0-3.56-3.16l2.07-2a44.41,44.41,0,0,1,3.52,3.19,42.75,42.75,0,0,1,3.15,3.57Zm2.18-3.51c-.8-1-1.64-1.92-2.53-2.82s-1.82-1.74-2.79-2.56l1.61-1.6a24.38,24.38,0,0,1,2.88,2.49,23.4,23.4,0,0,1,2.44,2.9Z" fill="#231f20"/><path d="M348.81,399h-.5v-4h-3.46q0-14.1,0-28.19h3v-3.9H320.71v3.9h2.92l.09,28.19h-3.53v4h-2.8V403h33.72V399Zm-9.44-9.92H326.13V369.29h13.24Z" fill="#fdd600"/><path d="M350.11,397h-2.3v-4a.5.5,0,0,0-.5-.5h-3V365.88h2.47a.5.5,0,0,0,.5-.5v-4.47a.5.5,0,0,0-.5-.5h-9.25v-3a.5.5,0,0,0-.14-.35l-2.74-2.73a.49.49,0,0,0-.7.7l2.58,2.59v2.78H318.71a.5.5,0,0,0-.5.5v4.47a.5.5,0,0,0,.5.5h2.47V392.5h-3a.5.5,0,0,0-.5.5v4h-2.3a.5.5,0,0,0-.5.5V402a.5.5,0,0,0,.5.5h34.72a.5.5,0,0,0,.5-.5v-4.47A.5.5,0,0,0,350.11,397Zm-30.9-35.57h27.08v3.47H319.21Zm3,4.47h21.14V392.5H322.18Zm-3.49,27.62h28.12V397H318.69Zm30.92,7.95H315.89V398h33.72Z" fill="#231f20"/><path d="M339.87,368.29H325.63a.5.5,0,0,0-.5.5V389.6a.51.51,0,0,0,.5.5h14.24a.51.51,0,0,0,.5-.5V368.79A.5.5,0,0,0,339.87,368.29Zm-.5,20.81H326.13V369.29h13.24Z" fill="#231f20"/><path d="M264.34,368.65l-21.89,5.74,10.1,2v9.12a47.52,47.52,0,0,1,24.08,0v-9L286.68,374Z" fill="#fdd600"/><path d="M287.4,372,263,366.15a.49.49,0,0,0-.24,0l-24.12,6.33a.49.49,0,0,0-.37.5.48.48,0,0,0,.4.47l4.27.84v11.82a1.08,1.08,0,0,0-.61,1,1.14,1.14,0,0,0,.16.55h-.16V391h2.23v-3.37h-.17a1,1,0,0,0,.17-.55,1.12,1.12,0,0,0-.62-1V374.49l6.16,1.21v9a.5.5,0,0,0,.63.49,45.84,45.84,0,0,1,12.61-1.69,46.52,46.52,0,0,1,12.21,1.69h.13a.49.49,0,0,0,.5-.5V375.8L287.4,373a.48.48,0,0,0,.38-.48A.5.5,0,0,0,287.4,372Zm-12.27,12a48,48,0,0,0-11.84-1.55A47.12,47.12,0,0,0,251.05,384v-9.3a41.32,41.32,0,0,1,12-1.8h0a41.19,41.19,0,0,1,12,1.8Zm1-9.24v-.42a.5.5,0,0,0-.35-.48,42.32,42.32,0,0,0-12.69-2h0a42.13,42.13,0,0,0-12.66,2,.5.5,0,0,0-.35.48v.33l-9.1-1.79,21.89-5.74,22.34,5.38Z" fill="#231f20"/><path d="M121.54,452.63a6.21,6.21,0,0,1-.07,8.52c-3.53,4-5.59,8-6.13,12h18.07c-.54-3.94-2.6-8-6.14-12a6.24,6.24,0,0,1-1.71-4,6.17,6.17,0,0,1,1.72-4.55c.67-.75,1.3-1.52,1.88-2.29H119.6C120.19,451.07,120.84,451.86,121.54,452.63Z" fill="#fdd600"/><polygon points="110.36 476.63 110.36 479.75 138.39 479.75 138.39 476.63 136.53 476.63 112.22 476.63 110.36 476.63" fill="#fdd600"/><polygon points="110.36 437.3 112.22 437.3 136.53 437.3 138.39 437.3 138.39 434.19 110.36 434.19 110.36 437.3" fill="#fdd600"/><path d="M137.64,436.05v-4.11a.5.5,0,0,0-.5-.5h-29a.5.5,0,0,0-.5.5v4.11a.5.5,0,0,0,.5.5H110v.08c-.1,5.55,2.34,11.14,7.24,16.6a2.82,2.82,0,0,1,.76,2,2.77,2.77,0,0,1-.8,1.8c-4.88,5.53-7.3,11.17-7.2,16.78v.08h-1.84a.51.51,0,0,0-.5.5v4.12a.51.51,0,0,0,.5.5h29a.51.51,0,0,0,.5-.5v-4.12a.51.51,0,0,0-.5-.5H135.3v-.08c.1-5.61-2.32-11.26-7.22-16.8a2.75,2.75,0,0,1-.78-1.78h0a2.83,2.83,0,0,1,.77-2c4.89-5.45,7.33-11,7.23-16.59v-.08h1.84A.5.5,0,0,0,137.64,436.05Zm-1,38.83V478h-28v-3.12h28Zm-9.31-22.34a3.87,3.87,0,0,0-1,2.72,3.78,3.78,0,0,0,1,2.42c4.71,5.33,7,10.75,7,16.11v.09H111v-.09c-.09-5.36,2.24-10.77,6.93-16.09a3.69,3.69,0,0,0,.05-5.15c-4.72-5.26-7.07-10.61-7-15.9v-.1H134.3v.1C134.39,441.94,132,447.29,127.33,452.54Zm9.31-17h-28v-3.11h28Z" fill="#231f20"/><path d="M128.39,447.53H116.87a.5.5,0,0,0-.45.27.49.49,0,0,0,0,.51,34.11,34.11,0,0,0,2.59,3.25,5.2,5.2,0,0,1-.07,7.16c-3.84,4.37-6,8.78-6.45,13.11a.52.52,0,0,0,.13.39.51.51,0,0,0,.37.16h19.19a.51.51,0,0,0,.37-.16.52.52,0,0,0,.13-.39c-.44-4.33-2.61-8.74-6.47-13.13a5.19,5.19,0,0,1,0-7.2,34.42,34.42,0,0,0,2.54-3.19.47.47,0,0,0,0-.51A.48.48,0,0,0,128.39,447.53Zm-2.86,3.29a6.17,6.17,0,0,0-1.72,4.55,6.24,6.24,0,0,0,1.71,4c3.54,4,5.6,8.06,6.14,12H113.59c.54-3.94,2.6-8,6.13-12a6.21,6.21,0,0,0,.07-8.52c-.7-.77-1.35-1.56-1.94-2.35h9.56C126.83,449.3,126.2,450.07,125.53,450.82Z" fill="#231f20"/><polygon points="192.4 470.31 191.9 470.31 191.9 466.8 179.62 466.8 179.62 470.31 179.12 470.31 176.16 470.31 176.16 480.14 195.36 480.14 195.36 470.31 192.4 470.31" fill="#fdd600"/><path d="M205,435.68l-1.91,5.45a.5.5,0,0,1-.5.34.51.51,0,0,1-.46-.4l-.71-3.51a27.59,27.59,0,0,0-6.4,5.55c-.51.6-1,1.25-1.53,2l-.57,5.73a.5.5,0,0,1-.41.45A.49.49,0,0,1,192,451l-.85-1.81a25.34,25.34,0,0,0-2.51,11.88l.08,1a23.26,23.26,0,0,0,3-.49,26.31,26.31,0,0,0,17.4-13.24l-3.49-.47a.5.5,0,0,1-.22-.9l6.14-4.4a24.32,24.32,0,0,0,.91-8.76A23,23,0,0,0,205,435.68Z" fill="#fdd600"/><path d="M211.7,431.49a.51.51,0,0,0-.52-.44,23.7,23.7,0,0,0-8.49,2.05.48.48,0,0,0-.27.29L201,437.33l-.49-2.42a.5.5,0,0,0-.29-.36.51.51,0,0,0-.45,0,28.35,28.35,0,0,0-7.26,6.14c-.55.65-1.1,1.36-1.66,2.17a.5.5,0,0,0-.09.23l-.4,4.05-.52-1.11a.49.49,0,0,0-.44-.28.46.46,0,0,0-.45.26,26.13,26.13,0,0,0-3,14.43q-1.36,1.77-2.68,3.58h-5.93a.5.5,0,0,0-.5.5v3h-3a.5.5,0,0,0-.5.5v10.83a.5.5,0,0,0,.5.5h20.2a.5.5,0,0,0,.5-.5V468.06a.5.5,0,0,0-.5-.5h-3v-3a.5.5,0,0,0-.5-.5h-6.11c.68-.93,1.37-1.86,2.08-2.77a26.27,26.27,0,0,0,18.54-9.66,29.73,29.73,0,0,0,3.49-5.18.5.5,0,0,0-.38-.73l-3-.4,5.26-3.77a.46.46,0,0,0,.19-.26A24.67,24.67,0,0,0,211.7,431.49Zm-18.09,37.07v9.83h-19.2v-9.83h19.2Zm-3.46-3.51v2.51H177.87v-2.51Zm19.7-24.22-6.14,4.4a.5.5,0,0,0,.22.9l3.49.47a28.32,28.32,0,0,1-3,4.38,25.54,25.54,0,0,1-16.94,9.24c.46-.6.93-1.19,1.41-1.78a147.69,147.69,0,0,1,10.79-11.87.49.49,0,0,0,0-.7.5.5,0,0,0-.71,0,150,150,0,0,0-10.87,11.95c-.4.49-.79,1-1.19,1.5a25.34,25.34,0,0,1,2.51-11.88l.85,1.81a.49.49,0,0,0,.54.29.5.5,0,0,0,.41-.45l.57-5.73c.52-.74,1-1.39,1.53-2a27.59,27.59,0,0,1,6.4-5.55l.71,3.51a.51.51,0,0,0,.46.4.5.5,0,0,0,.5-.34l1.91-5.45a22.9,22.9,0,0,1,7.47-1.86A24.32,24.32,0,0,1,209.85,440.83Z" fill="#231f20"/><path d="M263.79,445.88a2.2,2.2,0,1,0,2.2,2.2A2.21,2.21,0,0,0,263.79,445.88Z" fill="none"/><path d="M258.67,452.07a.69.69,0,1,0,.68.69A.69.69,0,0,0,258.67,452.07Z" fill="none"/><path d="M272.89,454.83A.88.88,0,1,0,272,454,.88.88,0,0,0,272.89,454.83Z" fill="none"/><path d="M266.33,464.71a60.34,60.34,0,0,1-8.81,2.46c-1,.19-1.91.35-2.83.47h-.07a14.45,14.45,0,0,0,19.54,0,15.24,15.24,0,0,0,4.53-9.15c-.59.41-1.19.81-1.84,1.21A56.94,56.94,0,0,1,266.33,464.71Z" fill="#fdd600"/><path d="M278.17,455.7l.21-.15h0l.39-.29a14.21,14.21,0,0,0-3-7.47,14.28,14.28,0,0,0-3.1-2.91,14.57,14.57,0,0,0-22.44,8.22,14.33,14.33,0,0,0-.48,4.22,14.6,14.6,0,0,0,.86,4.5,14.32,14.32,0,0,0,1.85,3.47,57.75,57.75,0,0,0,13-3.18A56.69,56.69,0,0,0,278.17,455.7Zm-5.28-2.63a.88.88,0,1,1-.87.88A.88.88,0,0,1,272.89,453.07Zm-14.22.38a.69.69,0,1,1,.68-.69A.69.69,0,0,1,258.67,453.45Zm5.12-3.17a2.2,2.2,0,1,1,2.2-2.2A2.21,2.21,0,0,1,263.79,450.28Z" fill="#fdd600"/><path d="M287.32,446.73c-1.37-3.78-7.26-5.37-15.78-4.3a15.57,15.57,0,0,0-23.78,8.72c-7,4.59-10.42,9.53-9.07,13.23,1.07,3,5.14,4.62,11,4.62a38.22,38.22,0,0,0,4.94-.35,15.56,15.56,0,0,0,22.88-8.23C285,455.77,288.7,450.53,287.32,446.73Zm-38.66,4.87a14.62,14.62,0,0,1,27.86-1.24,14.36,14.36,0,0,1,.86,4.67A56.1,56.1,0,0,1,265,461.17a55.27,55.27,0,0,1-13.71,3.23,14.38,14.38,0,0,1-2.29-4.07,14.6,14.6,0,0,1-.86-4.5A14.4,14.4,0,0,1,248.66,451.6Zm26.91-5.18c3.9-.19,6.5.49,7,1.89s-1.07,3.64-4.24,6a15.73,15.73,0,0,0-.88-4.32A15.23,15.23,0,0,0,275.57,446.42Zm-28.08,12.07.18.78.09.33c.1.36.21.72.34,1.07s.3.75.46,1.12c.06.11.11.23.17.34s.25.5.39.75l.22.38c.13.23.28.45.42.68l.25.36a1.63,1.63,0,0,1,.11.17h-1.63l-.69,0-.55-.05-.6-.07-.51-.1-.49-.1-.46-.15a3.37,3.37,0,0,1-.38-.13l-.41-.21a2.34,2.34,0,0,1-.27-.15,2.31,2.31,0,0,1-.33-.28c-.05,0-.12-.1-.16-.15a1.52,1.52,0,0,1-.3-.5,1.79,1.79,0,0,1-.09-.57,1.52,1.52,0,0,1,0-.21,2.26,2.26,0,0,1,.07-.43c0-.09.07-.18.1-.27s.11-.28.18-.43.12-.21.19-.31a3.59,3.59,0,0,1,.28-.44l.26-.34c.12-.15.24-.31.38-.47l.33-.35.48-.49.39-.36.59-.51L247,457l.27-.2a.78.78,0,0,0,0,.16c0,.12,0,.24,0,.36s.07.52.12.78S247.47,458.36,247.49,458.49Zm20.28,10.59a14.47,14.47,0,0,1-11.5-.67c.28,0,.57-.11.85-.16l1.06-.2c.59-.12,1.18-.26,1.77-.4l1.05-.25c.64-.17,1.29-.35,1.93-.54.3-.09.61-.17.91-.27.94-.29,1.89-.6,2.83-.94s1.82-.69,2.7-1.06l.85-.37c.59-.25,1.18-.51,1.76-.79l.95-.46,1.54-.79.95-.52.71-.39A14.54,14.54,0,0,1,267.77,469.08Zm9.08-9.42a56.94,56.94,0,0,1-10.52,5,60.34,60.34,0,0,1-8.81,2.46c-1,.19-1.91.35-2.83.47-8,1.07-13.88-.34-15.06-3.6-1.11-3,1.86-7.38,7.79-11.46l0,.19c-.06.37-.11.75-.14,1.12,0,.14,0,.28,0,.43,0,.33,0,.67,0,1,0,.09,0,.18,0,.27l-.07,0c-.43.32-.83.63-1.2.94l-.11.1c-.37.31-.71.62-1,.92l-.09.09c-.31.3-.59.6-.84.89l-.07.09a9.82,9.82,0,0,0-.65.87.43.43,0,0,0,0,.07,5.9,5.9,0,0,0-.47.84.08.08,0,0,1,0,.05,4.62,4.62,0,0,0-.27.82v0a3,3,0,0,0-.07.78v0a2.27,2.27,0,0,0,.15.74,2.3,2.3,0,0,0,.36.65,1.37,1.37,0,0,0,.16.18,3.41,3.41,0,0,0,.38.38l.26.18a5.55,5.55,0,0,0,.48.29l.32.15a5,5,0,0,0,.62.23l.35.11c.26.07.54.13.83.18l.32.07c.41.06.85.11,1.31.14h.12c.38,0,.78,0,1.19,0h.44c.43,0,.88,0,1.34-.05h0l.26,0,1-.07v0a57.4,57.4,0,0,0,13.29-3.22,56.69,56.69,0,0,0,12.79-6.41l.21-.15h0c4-2.89,5.87-5.58,5.14-7.58s-3.79-2.87-8.67-2.52a1.54,1.54,0,0,0-.17-.19c-.22-.26-.45-.51-.69-.76l-.3-.31c-.27-.26-.55-.51-.83-.75l-.15-.14c7.35-.75,12.54.66,13.67,3.77C287.58,450.38,283.84,455.32,276.85,459.66Z" fill="#231f20"/><path d="M263.79,451.28a3.2,3.2,0,1,0-3.21-3.2A3.2,3.2,0,0,0,263.79,451.28Zm0-5.4a2.2,2.2,0,1,1-2.21,2.2A2.21,2.21,0,0,1,263.79,445.88Z" fill="#231f20"/><path d="M258.67,454.45a1.69,1.69,0,1,0-1.69-1.69A1.69,1.69,0,0,0,258.67,454.45Zm0-2.38a.69.69,0,1,1-.69.69A.69.69,0,0,1,258.67,452.07Z" fill="#231f20"/><path d="M272.89,455.83A1.88,1.88,0,1,0,271,454,1.88,1.88,0,0,0,272.89,455.83Zm0-2.76a.88.88,0,1,1-.87.88A.88.88,0,0,1,272.89,453.07Z" fill="#231f20"/><circle cx="332.84" cy="450.48" r="17.02" fill="#fdd600"/><path d="M350.81,476.43H340.74a3.79,3.79,0,0,0-3.77-3.59h-.45V469.4a21,21,0,0,0,8.28-36.67l-.07-.07-1.53-1.16a.5.5,0,0,0-.7.1l-1.61,2.14A18,18,0,0,0,317,438.11h0a17.79,17.79,0,0,0-3.44,8.59,18,18,0,0,0,5.85,15.54l-1.52,2a.49.49,0,0,0-.09.37.45.45,0,0,0,.19.33l.27.2h0l0,0,1.21.91h0a20.88,20.88,0,0,0,10.85,3.79v2.93h-.46a3.78,3.78,0,0,0-3.76,3.59H316.05a.5.5,0,0,0-.5.5v2.79a.5.5,0,0,0,.5.5h34.76a.51.51,0,0,0,.5-.5v-2.79A.51.51,0,0,0,350.81,476.43Zm.52-30.53A19.74,19.74,0,0,1,347.78,461a20.22,20.22,0,0,1-27.29,4.64L321.7,464a18,18,0,0,0,23.87-4.3v0l0,0a17.95,17.95,0,0,0-2.39-24.17l1.31-1.73A20.08,20.08,0,0,1,351.33,445.9Zm-30,3.51,0-.12c.19-.57.4-1.13.64-1.68l0-.11c.24-.54.51-1.08.8-1.6a2.53,2.53,0,0,1,.13-.22q.44-.75.93-1.47l.09-.13,3.9,2.95,2.63,2-2.32,3.06-2.32,3.07-4.56-3.44-.52-.39c0-.05,0-.1,0-.16A17.16,17.16,0,0,1,321.36,449.41Zm4.53-7.57a18.13,18.13,0,0,1,1.5-1.41h0c.52-.44,1.07-.84,1.63-1.23l.58-.35c.35-.22.71-.43,1.07-.63l.14.1,5,3.76-2.32,3.07-2.31,3.07-6.53-4.93c.26-.32.53-.62.8-.93S325.73,442,325.89,441.84Zm6.86-4.62c.27-.11.53-.21.8-.3l.62-.23.78-.23.58-.17.77-.18.52-.12.74-.13.44-.08.71-.09.35-.05.7-.05.22,0,.75,0-4.33,5.74-2.95-2.22-1.78-1.35.43-.2Zm-11.84,23.67h0c0-.23-.09-.48-.14-.75a1.12,1.12,0,0,1,0-.21c-.05-.26-.09-.53-.13-.83a.17.17,0,0,1,0-.07c-.05-.32-.08-.65-.11-1l0-.26c0-.31,0-.63-.05-1a1.09,1.09,0,0,1,0-.18c0-.38,0-.78,0-1.18,0-.1,0-.2,0-.3,0-.35,0-.7.06-1.06a2.45,2.45,0,0,0,0-.27c0-.43.1-.87.17-1.32a.29.29,0,0,1,0-.09l4.68,3.53-4.26,5.64v-.05C321,461.34,321,461.13,320.91,460.89Zm16.29-19,4.38-5.8a23.3,23.3,0,0,1,.74,5.81,22.26,22.26,0,0,1-.3,3.62l-2.72-2.05Zm-.6.79,2,1.54,3.16,2.38c-.09.41-.2.81-.32,1.21-.06.21-.11.43-.17.64-.19.56-.4,1.11-.63,1.64-.16.35-.33.7-.5,1s-.34.69-.53,1-.41.64-.62,1-.29.46-.45.68l-6.6-5,2.31-3.07Zm-5.24,6.94,6.59,5c-.22.27-.45.54-.69.8s-.33.4-.51.59c-.37.38-.76.73-1.15,1.08l-.38.34a18.61,18.61,0,0,1-1.67,1.25l-.46.28c-.39.25-.8.49-1.21.71l-1-.73-4.19-3.15,2.32-3.07Zm-9.53,12.64,4.3-5.71,1.19.9,3.57,2.7A23,23,0,0,1,321.83,462.25Zm10-1.43,5.25,4a17,17,0,0,1-14.7-1.55A24.16,24.16,0,0,0,331.79,460.82Zm6.33,3.52-5.35-4c.28-.16.54-.34.81-.51l.65-.41a16.22,16.22,0,0,0,1.32-1l.4-.3a18.07,18.07,0,0,0,1.56-1.47l.37-.42c.3-.33.6-.65.88-1l5.7,4.31A16.8,16.8,0,0,1,338.12,464.34Zm6.95-5.64-4.78-3.61-.91-.69s.05-.09.08-.14a16.32,16.32,0,0,0,1-1.51l0,0c.3-.51.57-1,.83-1.57,0-.08.07-.15.1-.22.24-.52.45-1.06.65-1.6,0-.1.07-.2.1-.3.19-.54.35-1.09.5-1.65a.45.45,0,0,1,0-.11l2.84,2.15L348,451.3A16.88,16.88,0,0,1,345.07,458.7Zm3.09-8.56-3.57-2.69-1.68-1.26a22.74,22.74,0,0,0,.4-4.28,24.22,24.22,0,0,0-.64-5.56A17,17,0,0,1,348.16,450.14ZM343,432.6c.25.18.48.37.73.56l-1.23,1.63-.73-.55Zm-2.7,1.95h-.05l-.71.05h-.08l-.91.09-.14,0-.86.12-.22,0-1.1.21h-.06c-.35.08-.71.17-1.08.28l-.31.08-1,.33a1.27,1.27,0,0,0-.18.06c-.41.14-.82.29-1.24.47l-.32.13c-.33.15-.67.3-1,.47l-.21.1-3.64-2.74L325.45,433A17,17,0,0,1,340.3,434.55Zm-15.93-1.11,5.43,4.1c-.27.15-.51.32-.76.48s-.46.28-.69.44c-.4.27-.78.57-1.16.87l-.53.41a21,21,0,0,0-1.53,1.45c-.05,0-.09.1-.14.15-.4.42-.79.87-1.16,1.33l-5.76-4.35A17,17,0,0,1,324.37,433.44Zm-6.9,5.68,5.77,4.36-.1.15c-.33.48-.65,1-.94,1.47a1.62,1.62,0,0,0-.1.18c-.28.49-.54,1-.78,1.51a1.19,1.19,0,0,0-.08.16c-.24.53-.45,1.07-.65,1.62,0,.1-.07.2-.1.31a15.59,15.59,0,0,0-.48,1.65s0,.08,0,.11l-5.42-4.09A16.8,16.8,0,0,1,317.47,439.12Zm-3,8.59,5.31,4,0,.23c-.06.38-.12.75-.16,1.11,0,.11,0,.22-.05.34,0,.44-.08.88-.1,1.3,0,.08,0,.15,0,.23,0,.36,0,.71,0,1.05,0,.11,0,.23,0,.34,0,.37,0,.73,0,1.08v.08c0,.37.06.73.1,1.07l0,.29c0,.27.07.53.11.78,0,.06,0,.12,0,.19.05.29.1.57.16.83l0,.18c0,.21.09.4.13.59,0,0,0,.06,0,.08A17,17,0,0,1,314.43,447.71Zm6.07,15.47.37.26L319.69,465c-.25-.18-.5-.35-.74-.55l1.19-1.57C320.26,463,320.37,463.09,320.5,463.18ZM331.34,470c.78,0,1.58,0,2.36-.1.6-.06,1.21-.13,1.82-.23v3.15h-4.18Zm-1.46,3.82H337a2.8,2.8,0,0,1,2.78,2.54H327.11A2.79,2.79,0,0,1,329.88,473.84Zm20.43,5.38H316.55v-1.79h33.76Z" fill="#231f20"/><path d="M425.17,449.5l-.53,1.89L408,446.7l.42-1.47-12.55-3.54.42-1.5-11-3.12-2.42,8.58,11,3.12.43-1.53,12.54,3.58.43-1.53,16.59,4.77-.53,1.87,2.42.69,1.82-6.43Z" fill="#fdd600"/><path d="M427.15,448.1a.51.51,0,0,0-.3-.24l-3.39-1a.5.5,0,0,0-.61.35l-.41,1.43-14.68-4.15.29-1a.51.51,0,0,0-.05-.38.47.47,0,0,0-.3-.23l-12.07-3.41.29-1a.5.5,0,0,0-.34-.62L385.35,435h0l-1.77-.5a.46.46,0,0,0-.38,0,.45.45,0,0,0-.24.3v0a5.45,5.45,0,0,0-2.68,9.48v0a.5.5,0,0,0,.05.38.48.48,0,0,0,.3.24l1.77.5h0l10.23,2.89.13,0a.49.49,0,0,0,.48-.37l.29-1,7.07,2a3.13,3.13,0,0,0-.16,4.51l-10.85,22.23h-1.44a.5.5,0,0,0-.5.5.5.5,0,0,0,.5.5h1.75a.48.48,0,0,0,.24-.07l.05,0a.52.52,0,0,0,.14-.16s0,0,0,0l10.91-22.35a3.63,3.63,0,0,0,.93.31v21.32H401a.5.5,0,0,0-.5.5.5.5,0,0,0,.5.5h3.5a.5.5,0,0,0,.5-.5.5.5,0,0,0-.5-.5h-1.29V454.42a3.58,3.58,0,0,0,.94-.31L415,476.46s0,0,0,0a.52.52,0,0,0,.14.16l.05,0a.48.48,0,0,0,.24.07h1.75a.5.5,0,0,0,.5-.5.5.5,0,0,0-.5-.5h-1.44l-10.85-22.23a3.15,3.15,0,0,0,.88-2.18,3.26,3.26,0,0,0-.14-.9h0a.51.51,0,0,0,.49-.36l.28-1,14.68,4.15-.4,1.43a.5.5,0,0,0,0,.38.54.54,0,0,0,.3.24l3.39,1h.13a.51.51,0,0,0,.49-.36l2.08-7.39A.5.5,0,0,0,427.15,448.1ZM393.78,446l1.58-5.58L407,443.73l-1.58,5.59Zm1-7.35-2.42,8.58-11-3.12,2.43-8.58Zm-15.25.32a4.48,4.48,0,0,1,3.07-3.06l-2.06,7.28A4.49,4.49,0,0,1,379.57,439Zm22.27,10.35,2.57.72a2.16,2.16,0,0,1,.4,1.25,2.14,2.14,0,1,1-3-2Zm5.65-3.87,14.68,4.15-.74,2.61-14.68-4.15Zm16.79,9.63-2.42-.69,1.81-6.43,2.43.69Z" fill="#231f20"/><rect x="464.22" y="433.71" width="20.55" height="32.02" rx="8.9" fill="#fdd600"/><polygon points="470.89 476.52 462.79 476.52 462.79 479.98 486.21 479.98 486.21 476.52 478.11 476.52 470.89 476.52" fill="#fdd600"/><path d="M471.62,465.23h2.76a9.91,9.91,0,0,0,9.9-9.9V441.1a9.91,9.91,0,0,0-9.9-9.9h-2.76a9.91,9.91,0,0,0-9.9,9.9v14.23A9.91,9.91,0,0,0,471.62,465.23Zm-8.9-24.13a8.91,8.91,0,0,1,8.9-8.9h2.76a8.91,8.91,0,0,1,8.9,8.9v14.23a8.91,8.91,0,0,1-8.9,8.9h-2.76a8.91,8.91,0,0,1-8.9-8.9Z" fill="#231f20"/><path d="M485.21,474h-8.1v-4.08a14.38,14.38,0,0,0,12.31-14.21.5.5,0,0,0-.5-.5.5.5,0,0,0-.5.5A13.39,13.39,0,0,1,475,469.11H471a13.39,13.39,0,0,1-13.38-13.38.5.5,0,0,0-.5-.5.5.5,0,0,0-.5.5,14.38,14.38,0,0,0,12.31,14.21V474h-8.1a.5.5,0,0,0-.5.5V479a.5.5,0,0,0,.5.5h24.42a.5.5,0,0,0,.5-.5v-4.46A.5.5,0,0,0,485.21,474Zm-15.32-3.91h6.22V474h-6.22Zm14.82,8.37H461.29V475h23.42Z" fill="#231f20"/><path d="M467.64,440.49h10.72a.5.5,0,0,0,.5-.5.5.5,0,0,0-.5-.5H467.64a.5.5,0,0,0-.5.5A.5.5,0,0,0,467.64,440.49Z" fill="#231f20"/><path d="M467.64,448.88h10.72a.5.5,0,0,0,.5-.5.5.5,0,0,0-.5-.5H467.64a.5.5,0,0,0-.5.5A.5.5,0,0,0,467.64,448.88Z" fill="#231f20"/><path d="M467.64,457.26h10.72a.5.5,0,0,0,.5-.5.5.5,0,0,0-.5-.5H467.64a.5.5,0,0,0-.5.5A.5.5,0,0,0,467.64,457.26Z" fill="#231f20"/><path d="M497.53,518.4c-1-1-11.47,8-18.08,14.45a129.4,129.4,0,0,0-8.88,9.66c-2.43,2.93-4.43,5.62-6.05,7.92a4.85,4.85,0,0,0-4.26-.65c-1.19.44-1.72,1.37-2.59,2.92-.37.64-.78,1.37-1.32,2.2a28.68,28.68,0,0,1-4.71,5.51c8,.23,14-1.72,14.86-4.83a5.18,5.18,0,0,0-1-4.29,87.27,87.27,0,0,0,8.18-5.71,90.34,90.34,0,0,0,9.67-8.88C489.66,530,498.51,519.37,497.53,518.4Z" fill="#fdd600"/><path d="M496.87,516.28c-.58-.58-1.91-.74-7.13,3.22a131.41,131.41,0,0,0-12.47,11.13c-.14.14-11.72,11.77-14.17,17.2a5.79,5.79,0,0,0-4.69-.47c-1.53.56-2.19,1.73-3.11,3.35-.35.63-.76,1.35-1.28,2.14a27.43,27.43,0,0,1-5.45,6.1.52.52,0,0,0-.15.54.49.49,0,0,0,.45.34c.85,0,1.69.07,2.5.07,7.91,0,13.64-2.13,14.56-5.57a6,6,0,0,0-.6-4.25,27.38,27.38,0,0,0,4.72-3.06,148.65,148.65,0,0,0,23.61-23.61C497.62,518.2,497.46,516.86,496.87,516.28Zm-24.54,21.16,3.38,3.38a.53.53,0,0,0,.1.06c-1,.93-2,1.78-2.91,2.56l-3.17-3.17h0c.77-.92,1.63-1.89,2.56-2.92A.53.53,0,0,0,472.33,537.44ZM465,554.07c-.84,3.11-6.84,5-14.8,4.82a28.76,28.76,0,0,0,4.69-5.49c.54-.82.95-1.55,1.31-2.2.87-1.54,1.4-2.46,2.58-2.9a4.9,4.9,0,0,1,4.94,1.2A5.13,5.13,0,0,1,465,554.07Zm-.19-4.81a5.45,5.45,0,0,0-.38-.46,5.34,5.34,0,0,0-.5-.43,41,41,0,0,1,5.17-7.34l3.05,3.05A41.2,41.2,0,0,1,464.78,549.26Zm17-14.09c-1.89,1.9-3.66,3.58-5.3,5.08a.42.42,0,0,0-.09-.14L473,536.73a.42.42,0,0,0-.14-.09q2.25-2.46,5.08-5.3c9.95-10,16.62-14.4,18-14.4a.29.29,0,0,1,.17,0C496.65,517.87,492.28,524.71,481.81,535.17Z" fill="#231f20"/><path d="M323.3,551.71a.51.51,0,0,1-.15.36.47.47,0,0,1-.37.14h-.51a12.57,12.57,0,0,0-2.71.3,11.09,11.09,0,0,0-5.5,2.84,4.45,4.45,0,0,0-1.53,4c.61,2.8,4.77,4.29,9.26,3.3,4-.89,7.09-3.54,7.1-6.17l.15-26.59a.49.49,0,0,1,.44-.49l20.27-2.35a.5.5,0,0,1,.39.12.48.48,0,0,1,.17.37v19.51a.48.48,0,0,1-.15.36.5.5,0,0,1-.37.14,12.19,12.19,0,0,0-3.22.29,11.13,11.13,0,0,0-5.5,2.84,4,4,0,0,0,1.55,7.07,11.21,11.21,0,0,0,6.18.27c4.05-.89,7.1-3.54,7.1-6.17l.15-29v-6.91l-32.75,3.79Z" fill="#fdd600"/><path d="M355.38,513.54a.52.52,0,0,0-.39-.13l-33.75,3.91a.51.51,0,0,0-.44.5v31.92a13,13,0,0,0-3,.32c-5,1.1-8.53,4.72-7.79,8.07.59,2.68,3.72,4.38,7.53,4.38a13.52,13.52,0,0,0,2.92-.32c4.57-1,7.88-4,7.88-7.14l.15-26.15,19.28-2.23V545.1h0a13.45,13.45,0,0,0-2.94.33,12,12,0,0,0-6,3.11,4.93,4.93,0,0,0,1.91,8.71,12.11,12.11,0,0,0,6.75.31c4.56-1,7.87-4,7.88-7.15l.15-25.08V513.91A.48.48,0,0,0,355.38,513.54Zm-.83,7.85-.15,29c0,2.63-3.06,5.29-7.1,6.17a11.12,11.12,0,0,1-6.18-.27,4,4,0,0,1-1.55-7.07,11.17,11.17,0,0,1,5.5-2.84,12.61,12.61,0,0,1,3.22-.28.55.55,0,0,0,.37-.14.51.51,0,0,0,.15-.36V526.11a.5.5,0,0,0-.56-.5L328,528a.5.5,0,0,0-.44.49L327.38,555c0,2.63-3.05,5.29-7.09,6.18-4.49,1-8.65-.5-9.27-3.31s2.54-5.89,7-6.87a12.5,12.5,0,0,1,2.71-.3h.51a.55.55,0,0,0,.36-.14.52.52,0,0,0,.16-.36v-32l32.75-3.8Z" fill="#231f20"/><circle cx="264.52" cy="524.78" r="2.87" fill="#fdd600"/><path d="M281.42,562.32,276,549.75h4.35a.5.5,0,0,0,.5-.5.5.5,0,0,0-.5-.5h-4.78l-9.79-22.82a3.82,3.82,0,0,0,1.07-2.65,3.86,3.86,0,0,0-3.37-3.82v-5.58a.5.5,0,0,0-1,0v5.58a3.84,3.84,0,0,0-2.39,6.37l-9.83,22.92h-4.65a.5.5,0,0,0-.5.5.5.5,0,0,0,.5.5h4.22L244.58,562a.51.51,0,0,0,.27.66.43.43,0,0,0,.19,0,.49.49,0,0,0,.46-.3l5.43-12.65H262.5V556a.5.5,0,0,0,1,0v-6.27h11.43l5.57,13a.49.49,0,0,0,.46.3.43.43,0,0,0,.19,0A.5.5,0,0,0,281.42,562.32ZM263,520.41a2.87,2.87,0,1,1-2.87,2.87A2.88,2.88,0,0,1,263,520.41Zm-11.64,28.34,9.55-22.23a3.83,3.83,0,0,0,2.09.62,3.87,3.87,0,0,0,2-.56l9.51,22.17Z" fill="#231f20"/><path d="M174,523.1v26.55h41V523.1Zm14,14.57a23.14,23.14,0,0,0-8.58,0,20.37,20.37,0,0,0-2.68.78,6,6,0,0,1-.4-2.13,5.92,5.92,0,1,1,11.83,0A6.28,6.28,0,0,1,188,537.67Z" fill="#fdd600"/><path d="M216.38,562.31l-6.2-13.16H214a.5.5,0,0,0,.5-.5V521.1a.5.5,0,0,0-.5-.5H196.72l-3.27-7,0,0a.24.24,0,0,0-.06-.08l-.09-.07s0,0,0,0h0a.35.35,0,0,0-.11,0H193l-.1,0-.09,0h0l-.06,0a.35.35,0,0,0-.14.14l0,0-3.27,7H172a.5.5,0,0,0-.5.5v27.55a.5.5,0,0,0,.5.5h3.8l-6.2,13.16a.51.51,0,0,0,.24.67.54.54,0,0,0,.22,0,.5.5,0,0,0,.45-.28l6.4-13.59H192.5v13.37a.5.5,0,0,0,1,0V549.15h15.57l6.4,13.59a.5.5,0,0,0,.45.28.54.54,0,0,0,.22,0A.51.51,0,0,0,216.38,562.31ZM193,515l2.62,5.56h-5.24Zm-20.48,6.56h41V541a33.3,33.3,0,0,1-11,.11,18.19,18.19,0,0,1-2.16-.45v-4l1.61,1.4a.5.5,0,0,0,.33.12.46.46,0,0,0,.37-.17.49.49,0,0,0-.05-.7l-2.26-2v-2.2l1.61,1.4a.46.46,0,0,0,.33.13.5.5,0,0,0,.37-.17.51.51,0,0,0-.05-.71l-2.26-2v-.69a.5.5,0,0,0-1,0v.69l-2.26,2a.49.49,0,0,0-.05.7.48.48,0,0,0,.38.17.54.54,0,0,0,.33-.12l1.6-1.4v2.2l-2.26,2a.51.51,0,0,0-.05.71.52.52,0,0,0,.38.17.54.54,0,0,0,.33-.12l1.6-1.4v3.69c-.63-.18-1.43-.4-2.63-.71-2.81-.74-5.3-1.38-7.63-1.81a6.8,6.8,0,0,0,.19-1.56,6.92,6.92,0,1,0-13.83,0,6.83,6.83,0,0,0,.47,2.48,22.15,22.15,0,0,0-3.33,1.75Zm15.69,14.69a6.28,6.28,0,0,1-.17,1.38,23.14,23.14,0,0,0-8.58,0,20.37,20.37,0,0,0-2.68.78,6,6,0,0,1-.4-2.13,5.92,5.92,0,1,1,11.83,0Zm-15.69,11.86v-6.46a20.33,20.33,0,0,1,7.14-3.07c5.07-1,9.71.17,16.74,2l2.81.77a21.93,21.93,0,0,0,3.08.7,33.34,33.34,0,0,0,5.3.42,35.68,35.68,0,0,0,5.89-.51v6.15Z" fill="#231f20"/><path d="M206.17,538a.5.5,0,0,0,.33.88.55.55,0,0,0,.33-.13l1.6-1.4v4.07h1v-4.07l1.61,1.4a.46.46,0,0,0,.33.13.5.5,0,0,0,.37-.17.51.51,0,0,0,0-.71l-2.27-2v-2.2l1.61,1.41a.5.5,0,0,0,.7-.05.51.51,0,0,0,0-.71l-2.27-2v-.7a.5.5,0,0,0-1,0v.69l-2.26,2a.51.51,0,0,0,0,.71.52.52,0,0,0,.38.17.54.54,0,0,0,.33-.12l1.6-1.41V536Z" fill="#231f20"/><path d="M145.5,517.25l-7.5,3.06-27.77,31.78L106.89,549l-2.61,2.81,2.89,2.68-3.71,4,4.07,3.78,3.73-4,2.87,2.66,2.61-2.81L113.38,555,143,525Z" fill="#fdd600"/><path d="M144.9,514.27a.5.5,0,0,0-.53-.1l-8.61,3.51a.49.49,0,0,0-.18.14l-2.5,2.85a25.22,25.22,0,0,1-10.21-5.92.49.49,0,0,0-.69,0,25.17,25.17,0,0,1-15.38,6.91.49.49,0,0,0-.43.35,25.93,25.93,0,0,0,4.43,24.15l-2.4,2.74-3-2.73a.52.52,0,0,0-.36-.13.46.46,0,0,0-.34.16l-3.29,3.55a.49.49,0,0,0,0,.7l2.52,2.34-3.37,3.63a.52.52,0,0,0-.13.36.5.5,0,0,0,.16.34l4.81,4.47a.51.51,0,0,0,.71,0l3.36-3.63,2.52,2.34a.55.55,0,0,0,.34.13h0a.48.48,0,0,0,.35-.16l3.29-3.55a.48.48,0,0,0,0-.7l-3-2.75,2.44-2.47a25.91,25.91,0,0,0,6.84,3.74.51.51,0,0,0,.17,0,.47.47,0,0,0,.17,0A26.19,26.19,0,0,0,139.92,530a26.86,26.86,0,0,0-.27-3.7l2.4-2.45a.39.39,0,0,0,.12-.19l2.86-8.84A.5.5,0,0,0,144.9,514.27ZM106.12,530a25,25,0,0,1,1.1-7.34,26.12,26.12,0,0,0,15.3-6.83,26.27,26.27,0,0,0,9.84,5.7l-2.27,2.6a26.3,26.3,0,0,1-7.26-3.92.5.5,0,0,0-.61,0,26.66,26.66,0,0,1-11.62,5.06.49.49,0,0,0-.4.39A20.76,20.76,0,0,0,114,542.5l-2.52,2.89A25,25,0,0,1,106.12,530Zm23.26-5.06-14.72,16.82a19.73,19.73,0,0,1-3.91-11.8,20,20,0,0,1,.36-3.77,27.46,27.46,0,0,0,11.41-5A27.28,27.28,0,0,0,129.38,524.91Zm-23.6,35.6-4.07-3.78,3-3.26,4.07,3.78Zm9.21-4.13-2.61,2.81-9.85-9.13,2.61-2.81Zm7.53-2.88a25.15,25.15,0,0,1-6.3-3.45l2.79-2.84a21.62,21.62,0,0,0,3.31,1.82.48.48,0,0,0,.2,0,.45.45,0,0,0,.2,0,20.8,20.8,0,0,0,12.55-18.32l3.48-3.53a25.8,25.8,0,0,1,.17,2.79A25.18,25.18,0,0,1,122.52,553.5Zm-2.8-7L134.2,531.8A19.79,19.79,0,0,1,122.52,548,19.45,19.45,0,0,1,119.72,546.49Zm21.54-23.28-28.92,29.35-3.21-3,27.12-31,7.5-3.06Z" fill="#231f20"/><path d="M286.53,598l1-3.22a150.69,150.69,0,0,1-23.17,1.44,150.69,150.69,0,0,1-23.17-1.44l1,3.22c1.74.22,3.65.4,5.65.56v8.58h-5.33v3.08h5.33v20h-.9v8h4.88v-8h-.9v-20H277.8v20h-.9v8h4.87v-8h-.89v-20h5.33v-3.08h-5.33v-8.58C282.88,598.4,284.79,598.22,286.53,598Zm-35.61.78c3.73.22,7.75.36,11.9.38v8h-11.9Zm26.88,8.36H265.9v-8c4.15,0,8.17-.16,11.9-.38Z" fill="#fdd600"/><path d="M287.12,592.32a.54.54,0,0,0-.46-.17c-2.65.48-10.27,1.57-23.8,1.57s-21.15-1.09-23.8-1.57a.51.51,0,0,0-.46.17.48.48,0,0,0-.1.47l1.33,4.31a.48.48,0,0,0,.41.35c1.58.2,3.29.38,5.1.53v6.66h-4.83a.5.5,0,0,0-.5.5v4.08a.5.5,0,0,0,.5.5h4.83v18h-.4a.5.5,0,0,0-.5.5v9a.5.5,0,0,0,.5.5h5.88a.5.5,0,0,0,.5-.5v-9a.5.5,0,0,0-.5-.5h-.4v-18H275.3v18h-.4a.5.5,0,0,0-.5.5v9a.5.5,0,0,0,.5.5h5.87a.5.5,0,0,0,.5-.5v-9a.5.5,0,0,0-.5-.5h-.39v-18h4.83a.5.5,0,0,0,.5-.5v-4.08a.5.5,0,0,0-.5-.5h-4.83V598c1.8-.15,3.51-.33,5.1-.53a.51.51,0,0,0,.41-.35l1.33-4.31A.5.5,0,0,0,287.12,592.32Zm-36.8,44.47h-4.88v-8h4.88Zm-4-9v-18h3.08v18Zm33.93,9H275.4v-8h4.87Zm-4-9v-18h3.08v18Zm8.41-22.11v3.08H241v-3.08Zm-38.37-1v-6.58l3.08.22v6.36Zm4.08,0v-6.3c3.14.17,6.47.28,9.9.32v6Zm10.9,0v-6h3.08v6Zm4.08,0v-6c3.42,0,6.76-.15,9.9-.32v6.3Zm10.9,0v-6.36l3.08-.22v6.58ZM285,596.5a210.63,210.63,0,0,1-44.34,0l-1-3.22a150.69,150.69,0,0,0,23.17,1.44A150.69,150.69,0,0,0,286,593.28Z" fill="#231f20"/><path d="M121.86,613c-.71.23-1,.75-1.63,1.71-.25.4-.54.86-.91,1.37a17.74,17.74,0,0,1-2.84,3.12c4.78.27,8.38-.74,9-2.57a3.13,3.13,0,0,0-.65-2.78A3,3,0,0,0,121.86,613Z" fill="none"/><path d="M133.07,630.84c-2.21-.75-5-1.69-5.8-4.08-1-2.84,1.47-5.57,4.08-8.45,2.45-2.71,5.19-5.74,5.65-9.35a12,12,0,0,0-.5-3.74c-1.09,1-2.13,1.91-3.11,2.73-.46.39-.94.79-1.43,1.18l-1.77,1.39a25.82,25.82,0,0,1-4.51,2.9l-.15-.2-.22-.21a26,26,0,0,1,3.28-4.23c.45-.5.91-1,1.4-1.51s1-1,1.43-1.47c1-1,2.05-2,3.24-3.1l.43-.39a18.64,18.64,0,0,0-6-5,15.52,15.52,0,0,0-7.19-1.7,21.9,21.9,0,0,0-16.17,7.82,21.24,21.24,0,0,0-1.11,24.9c5.6,8.3,15.34,9.06,18.19,9.1,5.35,0,10.88-1.86,12.7-3.69a1.7,1.7,0,0,0,.59-1.09C136.08,631.86,134.62,631.36,133.07,630.84Zm-11.87-31.9a4.1,4.1,0,0,1,1-.13,4.31,4.31,0,0,1,4.17,3.28,4.21,4.21,0,0,1-.5,3.25,4.3,4.3,0,1,1-4.7-6.4Zm-11.89,26.53a3.22,3.22,0,0,1-1.54-6.26,3.44,3.44,0,0,1,.77-.09,3.22,3.22,0,0,1,.77,6.35Zm.54-12.42a3.71,3.71,0,0,1-4.47-2.72,3.71,3.71,0,0,1,2.71-4.47,3.83,3.83,0,0,1,.88-.1,3.7,3.7,0,0,1,.88,7.29ZM120,631.66a2.56,2.56,0,0,1-2-.3,2.59,2.59,0,0,1-.87-3.57,2.55,2.55,0,0,1,1.6-1.18,2.68,2.68,0,0,1,.62-.07,2.6,2.6,0,0,1,.62,5.12Zm5.49-15c-.58,1.83-4.18,2.84-9,2.57a17.74,17.74,0,0,0,2.84-3.12c.37-.51.66-1,.91-1.37.59-1,.92-1.48,1.63-1.71a3,3,0,0,1,2.93.85A3.13,3.13,0,0,1,125.44,616.67Z" fill="#fdd600"/><path d="M107.86,604.89A4.73,4.73,0,0,0,105,607a4.71,4.71,0,0,0,1.58,6.45,4.7,4.7,0,0,0,2.43.68,4.84,4.84,0,0,0,1.13-.13,4.7,4.7,0,0,0-2.23-9.13Zm2,8.16a3.71,3.71,0,0,1-4.47-2.72,3.71,3.71,0,0,1,2.71-4.47,3.83,3.83,0,0,1,.88-.1,3.7,3.7,0,0,1,.88,7.29Z" fill="#231f20"/><path d="M107.54,618.24a4.22,4.22,0,0,0-3.1,5.11,4.24,4.24,0,0,0,4.09,3.22,3.83,3.83,0,0,0,1-.13,4.22,4.22,0,0,0-2-8.2Zm1.77,7.23a3.22,3.22,0,0,1-1.54-6.26,3.44,3.44,0,0,1,.77-.09,3.22,3.22,0,0,1,.77,6.35Z" fill="#231f20"/><path d="M122.83,628.28a3.6,3.6,0,0,0-6.58-1,3.56,3.56,0,0,0-.42,2.72,3.62,3.62,0,0,0,3.5,2.75,3.69,3.69,0,0,0,.86-.11,3.61,3.61,0,0,0,2.64-4.35ZM120,631.66a2.56,2.56,0,0,1-2-.3,2.59,2.59,0,0,1-.87-3.57,2.55,2.55,0,0,1,1.6-1.18,2.68,2.68,0,0,1,.62-.07,2.6,2.6,0,0,1,.62,5.12Z" fill="#231f20"/><path d="M127.37,601.85a5.29,5.29,0,1,0-5.15,6.56,5.57,5.57,0,0,0,1.27-.15,5.29,5.29,0,0,0,3.88-6.41Zm-1.47,3.49a4.3,4.3,0,1,1-4.7-6.4,4.1,4.1,0,0,1,1-.13,4.31,4.31,0,0,1,4.17,3.28A4.21,4.21,0,0,1,125.9,605.34Z" fill="#231f20"/><path d="M147.15,593.34c-.43-.47-1.34-.61-4.88,1.84a78,78,0,0,0-7.31,5.9,19.1,19.1,0,0,0-6.91-6.21c-8.5-4.39-19.18-.2-24.59,6.38a22.25,22.25,0,0,0-1.17,26.09c5.87,8.7,16,9.5,19,9.54h.27c5.1,0,11-1.76,13.15-4a2.62,2.62,0,0,0,.88-1.82c0-1.44-1.74-2-3.71-2.69s-4.5-1.53-5.18-3.46c-.8-2.28,1.37-4.68,3.88-7.45,2.79-3.08,5.93-6.56,6-11,.42-.36.73-.65.88-.79a83.76,83.76,0,0,0,7.47-7.67C147.65,594.74,147.58,593.81,147.15,593.34Zm-17.3,23.47c-2.61,2.88-5.08,5.61-4.08,8.45.84,2.39,3.59,3.33,5.8,4.08,1.55.52,3,1,3,1.77a1.7,1.7,0,0,1-.59,1.08c-1.82,1.83-7.35,3.73-12.7,3.69-2.85,0-12.59-.8-18.19-9.1a21.24,21.24,0,0,1,1.11-24.9,21.9,21.9,0,0,1,16.17-7.82,15.52,15.52,0,0,1,7.19,1.7,17.9,17.9,0,0,1,6.63,6L134,602c-.94.86-7.66,7.09-9.46,10.49a3.82,3.82,0,0,0-3-.36c-1.06.34-1.52,1.09-2.17,2.13-.24.39-.52.83-.87,1.32a17.58,17.58,0,0,1-3.61,3.71.52.52,0,0,0-.18.53.5.5,0,0,0,.44.36,28,28,0,0,0,2.82.15c4.55,0,7.75-1.22,8.41-3.32a4,4,0,0,0-.21-2.72c2.55-1.08,6.8-4.6,9.32-6.79C135,611.07,132.3,614.1,129.85,616.81Zm-4.32-3.59-.22-.21a26,26,0,0,1,3.28-4.23l1.6,1.74a25.82,25.82,0,0,1-4.51,2.9Zm-.09,3.45c-.58,1.83-4.18,2.84-9,2.57a17.74,17.74,0,0,0,2.84-3.12c.37-.51.66-1,.91-1.37.59-1,.92-1.48,1.63-1.71a3,3,0,0,1,2.93.85A3.13,3.13,0,0,1,125.44,616.67Zm3.83-8.63c.45-.49.93-1,1.45-1.53l1.9,2.08c-.57.47-1.11.91-1.64,1.31Zm7.49-3c-1.18,1.09-2.31,2.07-3.37,3l-2-2.15c1-1,2.05-2,3.24-3.1,6.09-5.59,10.63-8.55,11.71-8.64C146.19,595.13,142.85,599.4,136.76,605Z" fill="#231f20"/><path d="M208.46,617l-1,.71-5.1-6.93,6.05-4.37.29.39h0l.65.89a.2.2,0,0,0,.15.08.18.18,0,0,0,.16,0l1.12-.82a.21.21,0,0,0,.09-.14.22.22,0,0,0,0-.16l-7.39-10.11a.2.2,0,0,0-.15-.08h0a.21.21,0,0,0-.13,0l-1.12.82a.25.25,0,0,0-.09.14.28.28,0,0,0,0,.16l.35.47h0l.3.42-16.82,12.32-.81-1.11a.24.24,0,0,0-.18-.09.24.24,0,0,0-.13,0l-1.12.82a.21.21,0,0,0-.05.3l7.39,10.11a.23.23,0,0,0,.31,0l1.12-.82a.21.21,0,0,0,.05-.3l-.87-1.19,6.07-4.37,5.12,7-1,.74,9.34,12.77,6.75-4.94Z" fill="#fdd600"/><polygon points="189.08 634 188.92 634 188.92 630.97 172.51 630.97 172.51 634 172.35 634 169.7 634 169.7 636.04 191.73 636.04 191.73 634 189.08 634" fill="#fdd600"/><path d="M217.45,628.13l-10-13.66a.48.48,0,0,0-.33-.2.49.49,0,0,0-.37.09l-.61.45-3.82-5.23,4.4-3.23.37.5a1.21,1.21,0,0,0,1.7.26l1.14-.83a1.22,1.22,0,0,0,.26-1.7l-7.44-10.18a1.23,1.23,0,0,0-1.71-.26l-1.13.83a1.21,1.21,0,0,0-.27,1.7l.06.08L195.3,600l-1.2-1.64a.5.5,0,0,0-.7-.1l-5.58,4.08a.52.52,0,0,0-.2.32.56.56,0,0,0,.09.38l1.2,1.63-4.4,3.23-.21-.29a1.23,1.23,0,0,0-1.71-.26l-1.13.83a1.21,1.21,0,0,0-.27,1.7L188.64,620a1.21,1.21,0,0,0,1.7.26l1.14-.83a1.22,1.22,0,0,0,.26-1.7l-.21-.29,4.41-3.22,3.83,5.23-.61.45a.49.49,0,0,0-.11.69l10,13.66a.5.5,0,0,0,.33.2h.08a.53.53,0,0,0,.29-.1l7.61-5.56A.5.5,0,0,0,217.45,628.13Zm-16.94-32.35,1.13-.84a.33.33,0,0,1,.13,0,.21.21,0,0,1,.18.09l7.45,10.18a.2.2,0,0,1,0,.16.22.22,0,0,1-.08.15l-1.14.83a.22.22,0,0,1-.31,0l-.66-.9h0l-6.43-8.8h0l-.35-.48A.21.21,0,0,1,200.51,595.78Zm-6.92,3.55.85,1.16L189.67,604l-.85-1.16Zm-2.7,19.32-1.14.84a.22.22,0,0,1-.31,0L182,609.26a.18.18,0,0,1,0-.16.18.18,0,0,1,.09-.14l1.13-.84a.27.27,0,0,1,.13,0h0a.29.29,0,0,1,.14.09l7.45,10.18A.21.21,0,0,1,190.89,618.65Zm9.41-21.1,5.84,8-15.2,11.12-5.84-8Zm1.26,12.67,3.79,5.18-4.78,3.49-3.78-5.18Zm8,23.07-9.4-12.85,6.8-5,9.4,12.85Z" fill="#231f20"/><path d="M191.73,632.5h-2.31v-2.19a.83.83,0,0,0-.84-.84H171.86a.84.84,0,0,0-.85.84v2.19H168.7a.51.51,0,0,0-.5.5v3a.51.51,0,0,0,.5.5h23a.5.5,0,0,0,.5-.5v-3A.5.5,0,0,0,191.73,632.5Zm-19.72-2h16.41v2H172Zm19.22,5.07h-22v-2h22Z" fill="#231f20"/><path d="M340,623.09H328.54v10.48s0,.07,0,.11,0,.09,0,.11a5.73,5.73,0,1,0,11.43,0,.87.87,0,0,1,0-.1.5.5,0,0,1,0-.12Z" fill="#fdd600"/><polygon points="326.64 595.77 328.04 595.77 340.46 595.77 341.86 595.77 341.86 592.49 326.64 592.49 326.64 595.77" fill="#fdd600"/><path d="M340.86,590.49H324.64a.5.5,0,0,0-.5.5v4.28a.5.5,0,0,0,.5.5H326v37a6.72,6.72,0,1,0,13.42,0v-37h1.4a.5.5,0,0,0,.5-.5V591A.5.5,0,0,0,340.86,590.49Zm-2.4,42.29a5.73,5.73,0,1,1-11.42,0s0-.09,0-.11,0-.07,0-.11V622.09h11.42v10.48s0,.07,0,.11S338.46,632.76,338.46,632.78Zm0-11.69H327V595.77h11.42Zm1.9-26.32H325.14v-3.28h15.22Z" fill="#231f20"/><path d="M329.65,610.07a.51.51,0,0,0,.5-.5v-8a.51.51,0,0,0-.5-.5.5.5,0,0,0-.5.5v8A.5.5,0,0,0,329.65,610.07Z" fill="#231f20"/><path d="M404.26,606.51c-4.4,2.42-7,6.25-7,10.28s2.62,7.85,7,10.28c4.4-2.43,7-6.25,7-10.28S408.66,608.93,404.26,606.51Z" fill="#fdd600"/><path d="M410.8,615.32c0-4.25-2.61-8.26-7-10.88a15.28,15.28,0,0,0,5.47-5.32.39.39,0,0,0,.06-.11,11,11,0,0,0,1.5-5.45,1.48,1.48,0,0,0,0-.21v-1.88a.5.5,0,0,0-1,0v1.29H395.73v-1.29a.5.5,0,0,0-.5-.5.5.5,0,0,0-.5.5v1.88a1.48,1.48,0,0,0,0,.21,11,11,0,0,0,1.5,5.45.39.39,0,0,0,.06.11,15.36,15.36,0,0,0,5.47,5.32c-4.42,2.62-7,6.63-7,10.88a11.13,11.13,0,0,0,1.95,6.18.57.57,0,0,0,.12.18,15.66,15.66,0,0,0,5,4.52c-4.31,2.55-6.91,6.46-7,10.6h0V639a.5.5,0,0,0,1,0v-1.66h14.06V639a.5.5,0,0,0,1,0v-2.16h0c-.11-4.14-2.71-8-7-10.6C408.19,623.57,410.8,619.56,410.8,615.32Zm-15.06.5h14a10.18,10.18,0,0,1-1.68,5H397.42A10.18,10.18,0,0,1,395.74,615.82Zm1.83-6.25H408a10.32,10.32,0,0,1,1.83,5.25h-14A10.32,10.32,0,0,1,397.57,609.57Zm12.23-15.81a10,10,0,0,1-1.27,4.59H397a10,10,0,0,1-1.28-4.59Zm-12.19,5.59h10.3a14.86,14.86,0,0,1-5.15,4.52A15,15,0,0,1,397.61,599.35Zm5.15,5.66a15.37,15.37,0,0,1,4.42,3.56h-8.84A15.37,15.37,0,0,1,402.76,605Zm-7,31.3a10,10,0,0,1,1.19-4h11.63a10,10,0,0,1,1.18,4Zm12.2-5h-10.4a14.85,14.85,0,0,1,5.2-4.59A14.76,14.76,0,0,1,408,631.35Zm-5.2-5.72a15.26,15.26,0,0,1-4.62-3.81h9.24A15.26,15.26,0,0,1,402.76,625.63Z" fill="#231f20"/><polygon points="476.54 599.4 477.31 599.4 477.31 597.33 469.19 597.33 469.19 599.4 469.87 599.4 476.54 599.4" fill="#fdd600"/><path d="M471.41,613.73v7.17a.34.34,0,0,1,0,.1,2.85,2.85,0,1,0,5.67,0V621h0v-7.25Z" fill="#fdd600"/><polygon points="489.43 599.4 490.15 599.4 490.15 597.33 482.03 597.33 482.03 599.4 482.76 599.4 489.43 599.4" fill="#fdd600"/><path d="M484.3,615.58V621a2.85,2.85,0,1,0,5.67,0V621h0v-5.4Z" fill="#fdd600"/><polygon points="453.54 631.9 451.14 631.9 451.14 634.61 497.36 634.61 497.36 631.9 495.1 631.9 453.54 631.9" fill="#fdd600"/><polygon points="463.75 599.4 464.47 599.4 464.47 597.33 456.35 597.33 456.35 599.4 457.07 599.4 463.75 599.4" fill="#fdd600"/><path d="M458.62,616.83V621a2.85,2.85,0,1,0,5.67,0V621h0v-4.15Z" fill="#fdd600"/><path d="M496.36,629.4H494.1V608.34a.51.51,0,0,0-.5-.5h-4.13V599.9h.72a.5.5,0,0,0,.5-.5v-3.07a.5.5,0,0,0-.5-.5h-9.11a.5.5,0,0,0-.5.5v3.07a.5.5,0,0,0,.5.5h.72v7.94h-5.21V599.9h.76a.5.5,0,0,0,.5-.5v-3.07a.5.5,0,0,0-.5-.5h-9.11a.5.5,0,0,0-.5.5v3.07a.5.5,0,0,0,.5.5h.68v7.94h-5.13V599.9h.72a.5.5,0,0,0,.5-.5v-3.07a.5.5,0,0,0-.5-.5h-9.12a.5.5,0,0,0-.5.5v3.07a.5.5,0,0,0,.5.5h.73v7.94H452a.5.5,0,0,0-.5.5V629.4h-2.4a.5.5,0,0,0-.5.5v3.71a.5.5,0,0,0,.5.5h47.22a.5.5,0,0,0,.5-.5V629.9A.5.5,0,0,0,496.36,629.4Zm-14.78-32.57h8.11v2.07h-8.11Zm1.22,3.07h5.67v7.94H482.8Zm5.67,19.58v.06a2.85,2.85,0,1,1-5.67,0v-5.42h5.67v5.4Zm0-6.4H482.8v-4.24h5.67Zm-19.73-16.25h8.11v2.07h-8.11Zm1.18,3.07h5.67v7.94h-5.67Zm5.67,19.58v.06a2.85,2.85,0,1,1-5.67,0v-7.27h5.67v7.25Zm0-8.25h-5.67v-2.39h5.67Zm-19.7-14.4H464v2.07h-8.12Zm1.23,3.07h5.67v7.94h-5.67Zm5.67,19.58v.06a2.85,2.85,0,1,1-5.67,0v-4.17h5.67v4.15Zm0-5.15h-5.67v-5.49h5.67Zm-10.25-5.49h3.58v10.7h0a3.84,3.84,0,1,0,7.66,0,.25.25,0,0,0,0-.08V608.84h5.13v10.7h0a3.84,3.84,0,1,0,7.66,0s0-.06,0-.08V608.84h5.21v10.7h0a3.84,3.84,0,1,0,7.66,0,.25.25,0,0,0,0-.08V608.84h3.63V629.4H452.54Zm43.32,24.27H449.64V630.4h46.22Z" fill="#231f20"/><circle cx="398.14" cy="684.04" r="10.65" fill="#fdd600"/><circle cx="387.54" cy="706.88" r="6.95" fill="#fdd600"/><circle cx="420.97" cy="694.66" r="6.95" fill="#fdd600"/><path d="M426.67,690a7.94,7.94,0,0,0-13.17-2.49l-5.66-2.42a11.7,11.7,0,1,0-18.52,6.51l-2.5,5.84a7.84,7.84,0,0,0-3.73.53,7.93,7.93,0,1,0,8.63,1.81l2.56-6A11.7,11.7,0,0,0,405.37,690l6,2.56a8,8,0,0,0,7.93,8.4,7.84,7.84,0,0,0,3-.58A8,8,0,0,0,426.67,690Zm-10.11,9.34a6.88,6.88,0,0,1-3.72-3.81,7,7,0,0,1,3.87-9,6.87,6.87,0,0,1,2.57-.5,6.95,6.95,0,0,1,2.59,13.4A6.89,6.89,0,0,1,416.56,699.37Zm-30-13a10.7,10.7,0,1,1,13.91,6A10.65,10.65,0,0,1,386.54,686.35Zm-7,21.61a6.93,6.93,0,0,1,3.87-9,6.83,6.83,0,0,1,2.57-.5,6.95,6.95,0,1,1-6.44,9.53Zm11.34-8.84a8,8,0,0,0-1.76-1,7.45,7.45,0,0,0-1.34-.43l2.33-5.43a11.61,11.61,0,0,0,3.13,1.41Zm15.07-10a12.24,12.24,0,0,0,1.23-2.18c.12-.3.23-.59.33-.89l5.28,2.26a7.86,7.86,0,0,0-.85,1.5,7.75,7.75,0,0,0-.51,1.66Z" fill="#231f20"/><path d="M389.68,679.41a7.82,7.82,0,0,1,3-3.26.5.5,0,1,0-.5-.86,8.77,8.77,0,0,0-3.4,3.68,8.67,8.67,0,0,0-.73,5.15.49.49,0,0,0,.49.42h.08A.48.48,0,0,0,389,684,7.74,7.74,0,0,1,389.68,679.41Z" fill="#231f20"/><path d="M381.78,702a5.91,5.91,0,0,0-1.1,2.59,5.79,5.79,0,0,0,.14,2.45.5.5,0,0,0,.49.37.32.32,0,0,0,.13,0,.5.5,0,0,0,.35-.61,4.66,4.66,0,0,1-.12-2,4.84,4.84,0,0,1,.91-2.15.5.5,0,0,0-.1-.7A.49.49,0,0,0,381.78,702Z" fill="#231f20"/><path d="M414.87,692a4.83,4.83,0,0,1,1.07-2.07.5.5,0,0,0,0-.71.51.51,0,0,0-.71,0,5.89,5.89,0,0,0-1.29,2.51,5.83,5.83,0,0,0,0,2.46.51.51,0,0,0,.49.4h.1a.49.49,0,0,0,.39-.59A4.79,4.79,0,0,1,414.87,692Z" fill="#231f20"/><circle cx="333.5" cy="692.75" r="2.92" fill="#fdd600"/><path d="M355.25,680.93c-1.66-3.26-6.86-4.18-13.53-2.89-1.88-6.54-5.06-10.75-8.72-10.75s-6.84,4.22-8.73,10.77a34,34,0,0,0-3.43-.48c-5.2-.43-8.77.77-10.09,3.35-1.5,3,.25,7.11,4.28,11.31-4,4.2-5.78,8.36-4.28,11.31,1.14,2.25,4,3.44,8.13,3.44.63,0,1.28,0,2-.08a34,34,0,0,0,3.43-.48c1.89,6.55,5.06,10.77,8.73,10.77s6.84-4.22,8.73-10.77a34,34,0,0,0,3.43.48c.68.05,1.33.08,2,.08,4.13,0,7-1.19,8.13-3.44,1.5-2.95-.25-7.11-4.28-11.31C355,688.05,356.75,683.89,355.25,680.93Zm-.89.46c1.27,2.5-.45,6.25-4.13,10.1a45.65,45.65,0,0,0-7-5.52,48.27,48.27,0,0,0-1.22-6.91C348.13,677.91,353,678.62,354.36,681.39Zm-17,19.36c-1.44.73-2.88,1.4-4.32,2-1.44-.59-2.89-1.26-4.33-2a55.64,55.64,0,0,1-4.93-2.83c-.18-1.82-.28-3.73-.28-5.68s.1-3.85.28-5.68c1.55-1,3.2-1.94,4.93-2.82q2.18-1.11,4.34-2c1.43.58,2.88,1.25,4.31,2a56.87,56.87,0,0,1,4.94,2.82c.18,1.83.28,3.73.28,5.68s-.1,3.86-.28,5.68A54.44,54.44,0,0,1,337.32,700.75Zm4.79-1.54a46.62,46.62,0,0,1-1.15,6,46.7,46.7,0,0,1-6.63-2c1.15-.5,2.3-1,3.45-1.61C339.3,700.87,340.75,700.05,342.11,699.21Zm-10.44,4a46.7,46.7,0,0,1-6.63,2,46.62,46.62,0,0,1-1.15-6c1.36.84,2.81,1.66,4.33,2.43C329.37,702.23,330.52,702.75,331.67,703.25Zm-9-6a44.14,44.14,0,0,1-6.15-5,44.11,44.11,0,0,1,6.15-5c-.13,1.6-.2,3.26-.2,5S322.53,695.61,322.66,697.21Zm1.23-11.93a46.3,46.3,0,0,1,1.15-6,45.43,45.43,0,0,1,6.63,2c-1.14.49-2.29,1-3.45,1.6C326.7,683.62,325.25,684.43,323.89,685.28Zm10.45-4a48.53,48.53,0,0,1,6.63-2,47.91,47.91,0,0,1,1.14,6c-1.36-.84-2.81-1.65-4.33-2.43C336.63,682.26,335.49,681.74,334.34,681.24Zm9,6a44.11,44.11,0,0,1,6.15,5,44.14,44.14,0,0,1-6.15,5c.13-1.6.2-3.26.2-5S343.47,688.88,343.34,687.28Zm-10.34-19c3.11,0,5.93,4,7.69,10a47.3,47.3,0,0,0-7.7,2.42,48.55,48.55,0,0,0-7.68-2.41C327.06,672.27,329.88,668.29,333,668.29Zm-21.36,13.1c.95-1.87,3.56-2.89,7.28-2.89.58,0,1.2,0,1.84.08A30.47,30.47,0,0,1,324,679a47.31,47.31,0,0,0-1.23,6.94,45.65,45.65,0,0,0-7,5.52C312.09,687.64,310.37,683.89,311.64,681.39Zm9.12,24.52c-4.69.38-8-.64-9.12-2.81-1.27-2.5.45-6.26,4.13-10.11a45.05,45.05,0,0,0,7,5.52,47.21,47.21,0,0,0,1.23,7A30.47,30.47,0,0,1,320.76,705.91ZM333,716.2c-3.12,0-5.94-4-7.69-10a49.63,49.63,0,0,0,7.69-2.4,49.63,49.63,0,0,0,7.69,2.4C338.94,712.22,336.12,716.2,333,716.2Zm21.36-13.1c-1.1,2.17-4.44,3.19-9.12,2.81a30.47,30.47,0,0,1-3.25-.45,47.21,47.21,0,0,0,1.23-7,45.05,45.05,0,0,0,7-5.52C353.91,696.84,355.63,700.6,354.36,703.1Z" fill="#231f20"/><path d="M333,688.32a3.93,3.93,0,1,0,3.92,3.93A3.93,3.93,0,0,0,333,688.32Zm0,6.85a2.93,2.93,0,1,1,2.92-2.92A2.92,2.92,0,0,1,333,695.17Z" fill="#231f20"/><path d="M193,691.29a.49.49,0,0,1,.49-.39h3.2v-3.38h-3.2a.5.5,0,0,1-.49-.39,9.5,9.5,0,0,0-1.28-3.09.51.51,0,0,1,.06-.63l2.27-2.27-2.39-2.39L189.41,681a.51.51,0,0,1-.62.07,9.4,9.4,0,0,0-3.09-1.29.51.51,0,0,1-.4-.49v-3.21h-3.38v3.21a.5.5,0,0,1-.39.49,9.56,9.56,0,0,0-3.1,1.28.49.49,0,0,1-.62-.07l-2.28-2.26-2.39,2.39,2.27,2.26a.5.5,0,0,1,.07.63,9.6,9.6,0,0,0-1.28,3.09.51.51,0,0,1-.49.39H170.5v3.38h3.2a.49.49,0,0,1,.49.39,9.58,9.58,0,0,0,1.29,3.1.5.5,0,0,1-.07.62l-2.27,2.27,2.39,2.39,2.27-2.27a.5.5,0,0,1,.62-.06,9.56,9.56,0,0,0,3.1,1.28.5.5,0,0,1,.39.49v3.21h3.38V699.1a.49.49,0,0,1,.39-.48,9.85,9.85,0,0,0,3.09-1.29.49.49,0,0,1,.62.07l2.28,2.26,2.39-2.39L191.8,695a.51.51,0,0,1-.07-.63A9.44,9.44,0,0,0,193,691.29Zm-10.91.55a4.17,4.17,0,1,1,4.16-4.17A4.17,4.17,0,0,1,182.11,691.84Z" fill="#fdd600"/><path d="M182.11,682.51a5.19,5.19,0,1,0,5.19,5.19A5.2,5.2,0,0,0,182.11,682.51Zm0,9.38a4.19,4.19,0,1,1,4.19-4.19A4.2,4.2,0,0,1,182.11,691.89Z" fill="#231f20"/><path d="M214.72,703.41a7.41,7.41,0,0,0,.51-2.53.48.48,0,0,1,.4-.48l2.35-.48-.47-2.38-2.35.47a.49.49,0,0,1-.56-.29,7.3,7.3,0,0,0-1.43-2.14.5.5,0,0,1-.06-.63l1.33-2-2-1.35-1.34,2a.49.49,0,0,1-.59.19,7.42,7.42,0,0,0-2.54-.51.51.51,0,0,1-.48-.4l-.47-2.36-2.38.48.47,2.35a.49.49,0,0,1-.29.55,7.51,7.51,0,0,0-2.15,1.44.48.48,0,0,1-.62,0l-2-1.33-1.35,2,2,1.33a.52.52,0,0,1,.19.6,7.41,7.41,0,0,0-.51,2.53.49.49,0,0,1-.4.48l-2.36.48.47,2.38,2.36-.47a.48.48,0,0,1,.55.29,7.33,7.33,0,0,0,1.44,2.14.51.51,0,0,1,0,.63l-1.33,2,2,1.35,1.33-2a.51.51,0,0,1,.42-.22l.18,0a7.31,7.31,0,0,0,2.53.51.48.48,0,0,1,.48.4l.47,2.35,2.38-.47-.46-2.35a.5.5,0,0,1,.28-.56,7.21,7.21,0,0,0,2.15-1.43.5.5,0,0,1,.62-.06l2,1.34,1.34-2-2-1.33A.49.49,0,0,1,214.72,703.41Zm-8.22-.82a3.18,3.18,0,1,1,3.17-3.17A3.17,3.17,0,0,1,206.5,702.59Z" fill="#fdd600"/><path d="M191.3,693.08a10.5,10.5,0,0,0,1.12-2.68h3.31a.5.5,0,0,0,.5-.5v-4.38a.5.5,0,0,0-.5-.5h-3.31a10.62,10.62,0,0,0-1.11-2.68l2.34-2.35a.51.51,0,0,0,0-.71l-3.1-3.09a.48.48,0,0,0-.7,0l-2.35,2.34a10.47,10.47,0,0,0-2.68-1.11v-3.32a.5.5,0,0,0-.5-.5h-4.37a.53.53,0,0,0-.36.15.5.5,0,0,0-.14.35v3.31a10.71,10.71,0,0,0-2.69,1.12l-2.35-2.34a.48.48,0,0,0-.7,0l-3.1,3.09a.51.51,0,0,0,0,.71l2.35,2.34a10.71,10.71,0,0,0-1.12,2.69h-3.31a.5.5,0,0,0-.5.5v4.38a.5.5,0,0,0,.5.5h3.31a10.47,10.47,0,0,0,1.11,2.68l-2.34,2.35a.51.51,0,0,0,0,.71l3.1,3.09a.48.48,0,0,0,.7,0l2.35-2.34a10.12,10.12,0,0,0,2.68,1.11v3.32a.5.5,0,0,0,.5.5h4.37a.5.5,0,0,0,.5-.5V698a10.71,10.71,0,0,0,2.69-1.12l2.35,2.34a.48.48,0,0,0,.7,0l3.1-3.09a.51.51,0,0,0,0-.71Zm-1.1,5.08-2.28-2.26a.49.49,0,0,0-.62-.07,9.85,9.85,0,0,1-3.09,1.29.5.5,0,0,0-.4.48v3.21h-3.37V697.6a.51.51,0,0,0-.39-.49,9.56,9.56,0,0,1-3.1-1.28.5.5,0,0,0-.62.06l-2.27,2.27-2.39-2.39,2.27-2.27a.52.52,0,0,0,.07-.62,9.36,9.36,0,0,1-1.29-3.1.49.49,0,0,0-.49-.39H169V686h3.21a.49.49,0,0,0,.48-.39,9.85,9.85,0,0,1,1.29-3.09.5.5,0,0,0-.07-.63l-2.27-2.26,2.39-2.39,2.28,2.26a.49.49,0,0,0,.62.07,9.6,9.6,0,0,1,3.09-1.28.51.51,0,0,0,.4-.49v-3.21h3.37v3.21a.5.5,0,0,0,.39.49,9.36,9.36,0,0,1,3.1,1.29.51.51,0,0,0,.62-.07l2.27-2.27,2.39,2.39-2.27,2.27a.53.53,0,0,0-.07.63,9.31,9.31,0,0,1,1.29,3.09.49.49,0,0,0,.49.39h3.2v3.38H192a.49.49,0,0,0-.48.39,9.66,9.66,0,0,1-1.29,3.09.5.5,0,0,0,.07.63l2.27,2.26Z" fill="#231f20"/><path d="M216.89,695.36a.47.47,0,0,0-.21-.32.48.48,0,0,0-.37-.07l-2.46.48a8.71,8.71,0,0,0-1.19-1.77l1.39-2.09a.49.49,0,0,0-.14-.69L211.07,689a.51.51,0,0,0-.7.14L209,691.22a8.34,8.34,0,0,0-2.09-.42l-.5-2.46a.49.49,0,0,0-.58-.39l-3.36.66a.52.52,0,0,0-.32.22.54.54,0,0,0-.08.37l.49,2.46a8.08,8.08,0,0,0-1.77,1.19l-2.09-1.39a.49.49,0,0,0-.69.13l-1.91,2.85a.51.51,0,0,0-.07.38.45.45,0,0,0,.21.31l2.09,1.4a8.34,8.34,0,0,0-.42,2.09l-2.46.49a.5.5,0,0,0-.39.59l.66,3.36a.51.51,0,0,0,.22.32.47.47,0,0,0,.37.07l2.46-.49a8.1,8.1,0,0,0,1.18,1.78l-1.39,2.09a.5.5,0,0,0,.14.69l2.85,1.91a.48.48,0,0,0,.37.07.51.51,0,0,0,.32-.21l1.4-2.09a8.25,8.25,0,0,0,2.09.42l.49,2.46a.5.5,0,0,0,.49.4h.1l3.36-.67a.49.49,0,0,0,.32-.21.48.48,0,0,0,.07-.37l-.49-2.46a8.38,8.38,0,0,0,1.78-1.19l2.09,1.39a.49.49,0,0,0,.69-.13l1.9-2.85a.49.49,0,0,0-.14-.69l-2.08-1.4a8.34,8.34,0,0,0,.42-2.09l2.46-.5a.49.49,0,0,0,.39-.58Zm-2.76,3.54a.48.48,0,0,0-.4.48,7.41,7.41,0,0,1-.51,2.53.49.49,0,0,0,.19.6l2,1.33-1.34,2-2-1.34a.5.5,0,0,0-.62.06,7.21,7.21,0,0,1-2.15,1.43.5.5,0,0,0-.28.56l.46,2.35-2.38.47-.47-2.35a.48.48,0,0,0-.48-.4,7.31,7.31,0,0,1-2.53-.51l-.18,0a.51.51,0,0,0-.42.22l-1.33,2-2-1.35,1.33-2a.51.51,0,0,0,0-.63,7.33,7.33,0,0,1-1.44-2.14.48.48,0,0,0-.55-.29l-2.35.47-.48-2.38,2.36-.48a.49.49,0,0,0,.4-.48,7.41,7.41,0,0,1,.51-2.53.52.52,0,0,0-.19-.6l-2-1.33,1.35-2,2,1.33a.48.48,0,0,0,.62,0,7.51,7.51,0,0,1,2.15-1.44.49.49,0,0,0,.29-.55l-.47-2.35,2.38-.48.47,2.36a.51.51,0,0,0,.48.4,7.42,7.42,0,0,1,2.54.51.49.49,0,0,0,.59-.19l1.34-2,2,1.35-1.33,2a.5.5,0,0,0,.06.63,7.3,7.3,0,0,1,1.43,2.14.49.49,0,0,0,.56.29L216,696l.47,2.38Z" fill="#231f20"/><path d="M209.12,696.16a4.17,4.17,0,1,0-2.62,7.43l.46,0a4.11,4.11,0,0,0,2.79-1.53,4.18,4.18,0,0,0-.63-5.87ZM209,701.4a3.17,3.17,0,1,1-4.95-4,3.2,3.2,0,0,1,2.13-1.17l.35,0A3.17,3.17,0,0,1,209,701.4Z" fill="#231f20"/><polygon points="269.97 672.88 271.18 672.88 271.18 669.97 257.32 669.97 257.32 672.88 258.53 672.88 269.97 672.88" fill="#fdd600"/><path d="M278.38,706.58H250.13L247.57,711a4,4,0,0,0,3.47,6h26.42a4,4,0,0,0,3.47-6Z" fill="#fdd600"/><path d="M280.29,709,269,689.39v-17h1.21a.5.5,0,0,0,.5-.5V668a.5.5,0,0,0-.5-.5H255.32a.51.51,0,0,0-.5.5v3.91a.51.51,0,0,0,.5.5h1.21v17L245.21,709a5,5,0,0,0,4.33,7.51H276a5,5,0,0,0,4.33-7.51Zm-24.47-40.54h13.86v2.91H255.82Zm1.65,21.3a.54.54,0,0,0,.06-.25V672.38H268v17.14a.54.54,0,0,0,.06.25l8.27,14.31H249.2Zm22,23.74a4,4,0,0,1-3.47,2H249.54a4,4,0,0,1-3.47-6l2.56-4.43h28.25l2.55,4.43A4,4,0,0,1,279.43,713.51Z" fill="#231f20"/><path d="M259.31,700.1a2.72,2.72,0,1,0-2.72-2.72A2.72,2.72,0,0,0,259.31,700.1Zm0-4.43a1.72,1.72,0,1,1-1.72,1.71A1.72,1.72,0,0,1,259.31,695.67Z" fill="#231f20"/><path d="M263.31,691.33a2.29,2.29,0,1,0-2.28-2.28A2.29,2.29,0,0,0,263.31,691.33Zm0-3.57a1.29,1.29,0,1,1-1.28,1.29A1.29,1.29,0,0,1,263.31,687.76Z" fill="#231f20"/><path d="M264.3,701.28a1.71,1.71,0,1,0,1.71-1.71A1.71,1.71,0,0,0,264.3,701.28Zm1.71-.71a.7.7,0,0,1,.7.71.7.7,0,0,1-.7.7.7.7,0,0,1-.71-.7A.71.71,0,0,1,266,700.57Z" fill="#231f20"/><path d="M132.11,678.12l1.93-2.86,1.12.72,1.26-1.94-5.95-3.87-1.33,1.92,1.17.76c-.61,1-1.23,1.94-1.85,2.9Z" fill="#fdd600"/><path d="M137.13,706.7a14.33,14.33,0,0,0,2.83-8.5,14.09,14.09,0,0,0-1.8-6.94,14.87,14.87,0,0,0-7.75-6.51c.61-.93,1.22-1.86,1.82-2.79l1.72-2.64-7.31-4.75-1.71,2.64-6.09,9.36-2.11,3.24,2.34,1.52-2,3,2.7,1.76,2-3,2.29,1.48,2.11-3.24c.63-1,1.26-2,1.9-2.92a10.4,10.4,0,0,1,5.9,4,10,10,0,0,1-5.38,15.38,3.34,3.34,0,0,0-5.19.14A10,10,0,0,1,117,703.1h-4.62A14.33,14.33,0,0,0,122.63,712v2.29h-7V717h20.81v-2.65h-7v-2.44A14.35,14.35,0,0,0,137.13,706.7Z" fill="#fdd600"/><rect x="108.54" y="701.28" width="12.23" height="1.82" fill="#fdd600"/><path d="M135.43,712.28h-7v-1a15.19,15.19,0,0,0,1.89-28.5l3.16-4.85a.49.49,0,0,0-.15-.67l-1.44-.94L133,674.7l.76.49a.5.5,0,0,0,.27.08h.1a.49.49,0,0,0,.3-.21l1.56-2.39a.49.49,0,0,0-.15-.67l-6.76-4.4a.49.49,0,0,0-.67.14l-1.56,2.39a.48.48,0,0,0-.06.37.46.46,0,0,0,.21.3l.76.5-1.07,1.64-1.44-.94a.47.47,0,0,0-.36-.07.49.49,0,0,0-.31.21l-10.44,16.06a.49.49,0,0,0,.15.67l1.87,1.22-1.72,2.64a.5.5,0,0,0,.15.69l3.54,2.3a.5.5,0,0,0,.27.08h.1a.52.52,0,0,0,.32-.22l1.71-2.64,1.88,1.22a.5.5,0,0,0,.26.08h.1a.53.53,0,0,0,.31-.21l3.85-5.92a9,9,0,0,1,.31,17.14,3.9,3.9,0,0,0-5.56.13,9.06,9.06,0,0,1-4.6-3.21h2.67a.5.5,0,0,0,.5-.5v-2.36a.5.5,0,0,0-.5-.5H106.54a.5.5,0,0,0-.5.5v2.36a.5.5,0,0,0,.5.5h3.54a15.26,15.26,0,0,0,10.49,9.3v.84h-6.95a.5.5,0,0,0-.5.5V716a.51.51,0,0,0,.5.5h21.81a.5.5,0,0,0,.5-.5v-3.2A.5.5,0,0,0,135.43,712.28ZM129,668.67l5.95,3.87-1,1.57-5.95-3.87Zm-.41,3.19,3.61,2.35-1,1.57-3.61-2.35Zm-3.42,1.21,7.31,4.75-1.72,2.64-7.3-4.75Zm-6.88,21.53-2.7-1.76,1.41-2.17,2.7,1.76Zm4.28-1.54-7.31-4.75,2.11-3.24,7.31,4.75Zm2.65-4.08-7.3-4.75,5-7.68,7.31,4.75Zm9.11,7.72a10.07,10.07,0,0,0-6.67-9.45L130,683.7a14.2,14.2,0,0,1-1.5,26.56v-2.44a4,4,0,0,0-.59-1.78A10,10,0,0,0,134.3,696.7Zm-12.74,11.16,0-.06a3,3,0,0,1,5.91.08h0a.53.53,0,0,0,0,.12v4.24h-5.91v-4.38ZM107,701.14v-1.36h12.22v1.36Zm4.13,1.06h4.73a10,10,0,0,0,5.16,4,4,4,0,0,0-.48,1.47s0,.07,0,.1v2.64A14.27,14.27,0,0,1,111.17,702.2Zm23.76,13.28H114.12v-2.2h20.81Z" fill="#231f20"/><path d="M144,234.32l-37.65-43.8a.51.51,0,0,0-.71-.05L102,193.63a.49.49,0,0,0-.17.34.48.48,0,0,0,.12.36l37.65,43.8a.51.51,0,0,0,.71.05L144,235a.49.49,0,0,0,.17-.34A.48.48,0,0,0,144,234.32Zm-4,2.78-1.69-2,.42-.36.61-.53h0l.85-.73a.5.5,0,0,0-.65-.76l-1.17,1-.36.31h0l-.35.3-2.33-2.71a.53.53,0,0,0,.1-.06l.68-.59a.49.49,0,0,0,.06-.7.51.51,0,0,0-.71,0l-.68.58a.36.36,0,0,0-.07.1l-2.19-2.55a.3.3,0,0,0,.11-.06l.68-.58a.49.49,0,0,0,0-.7.51.51,0,0,0-.71-.06l-.68.59a.31.31,0,0,0-.07.09l-2.18-2.54a.53.53,0,0,0,.1-.06l.68-.58a.51.51,0,0,0,0-.71.49.49,0,0,0-.7,0l-.68.58-.08.1L127,221.88l.1-.06.68-.59a.49.49,0,0,0,.06-.7.51.51,0,0,0-.71-.06l-.68.59-.07.09-2.19-2.54.11-.06.68-.58a.5.5,0,0,0-.66-.76l-.68.58a.61.61,0,0,0-.07.1l-2.18-2.54a.53.53,0,0,0,.1-.06l.68-.59a.49.49,0,0,0,.05-.7.48.48,0,0,0-.7-.05l-.68.58-.08.1-2.18-2.55a.27.27,0,0,0,.1-.06l.68-.58a.5.5,0,1,0-.65-.76l-.68.59a.31.31,0,0,0-.07.09l-2.19-2.54a.39.39,0,0,0,.11-.06l.68-.59a.49.49,0,0,0,0-.7.51.51,0,0,0-.71-.05l-.68.58a.36.36,0,0,0-.07.1l-2.18-2.54.1-.07.68-.58a.5.5,0,0,0-.65-.76l-.68.59a.73.73,0,0,0-.08.09l-2.18-2.54a.33.33,0,0,0,.1-.06l.68-.58a.5.5,0,1,0-.65-.76l-.68.58a.61.61,0,0,0-.07.1L107.31,199l.11-.06.68-.59a.49.49,0,0,0,.05-.7.51.51,0,0,0-.71-.06l-.68.59-.07.09-1.94-2.25,1.94-1.67a.5.5,0,1,0-.65-.75l-1.94,1.66L103,194.06l2.92-2.51,37,43Z" fill="#231f20"/><path d="M205.17,276h0l-.16-.05a1.86,1.86,0,0,0-1.44.14,1.9,1.9,0,0,0-1,1.17L201,282.5a.53.53,0,0,1-.26.31l-4.93,2.41a.46.46,0,0,1-.22.06h-8.17a6.8,6.8,0,0,0-3.34,1.63h0a6.57,6.57,0,0,0-1.88,4.41c0,.86,0,2.45,0,3v6.09a1.79,1.79,0,1,0,3.57,0,.5.5,0,0,1,.5-.5.5.5,0,0,1,.5.5v16.47a2,2,0,0,0,1.93,2h.35a2,2,0,0,0,1.93-2,.5.5,0,0,1,.5-.5.5.5,0,0,1,.5.5,2,2,0,0,0,1.92,2h.27a2,2,0,0,0,1.92-2v-26.3a.5.5,0,0,1,.25-.43l6.85-4,.13-.07a1.94,1.94,0,0,0,1.2-1.28l1.91-6.34A2,2,0,0,0,205.17,276Z" fill="#fdd600"/><path d="M203.72,273.25l-.16-.05a2.84,2.84,0,0,0-2.21.2,2.94,2.94,0,0,0-1.45,1.77l-1.52,5.08-4.64,2.28h-6.89l-1.09,0-.21,0a7.81,7.81,0,0,0-3.89,1.9,7.6,7.6,0,0,0-2.19,5.12c0,.87,0,2.46,0,3v6.09a2.82,2.82,0,0,0,2.79,2.84,2.69,2.69,0,0,0,1.78-.67v14.3a3,3,0,0,0,2.93,3h.35a2.93,2.93,0,0,0,2.43-1.32,2.9,2.9,0,0,0,2.42,1.32h.27a3,3,0,0,0,2.93-3v-26l6.58-3.89.05,0a2.91,2.91,0,0,0,1.75-1.9l1.91-6.35A3,3,0,0,0,203.72,273.25Zm1,3.43L202.79,283a1.94,1.94,0,0,1-1.2,1.28l-.13.07-6.85,4a.5.5,0,0,0-.24.43v26.3a2,2,0,0,1-1.93,2h-.27a1.94,1.94,0,0,1-1.91-1.86V300.82a.51.51,0,0,0-.5-.5.5.5,0,0,0-.5.5v14.25s0,.05,0,.07a2,2,0,0,1-1.93,2H187a2,2,0,0,1-1.93-2V289.56a.5.5,0,0,0-.5-.5.51.51,0,0,0-.5.5v9.11a1.79,1.79,0,1,1-3.57,0v-6.09c0-.57,0-2.16,0-3a6.57,6.57,0,0,1,1.88-4.41,6.91,6.91,0,0,1,3.37-1.63h8.14a.46.46,0,0,0,.22-.06l4.93-2.41a.53.53,0,0,0,.26-.31l1.59-5.29a1.9,1.9,0,0,1,1-1.17,1.86,1.86,0,0,1,1.44-.14l.16.05A2,2,0,0,1,204.7,276.68Z" fill="#231f20"/><rect x="267.8" y="283.73" width="13.19" height="2.23" transform="translate(-31.23 535.88) rotate(-85.47)" fill="#fdd600"/><path d="M268.81,304.12a3,3,0,0,0-1.09-1.28,2.9,2.9,0,0,0-1.57-.46h-6.21a.49.49,0,0,1-.49-.41l-1.09-5.59a.54.54,0,0,1,.12-.42.47.47,0,0,1,.4-.17h5.43a2.13,2.13,0,0,0,0-4.25h-4.95a.51.51,0,0,1-.4-.2l-3.46-4.62-.06-.08a2.67,2.67,0,0,0-2.35-1.36,2.56,2.56,0,0,0-1.64.93,2.43,2.43,0,0,0-.52,1.82l2,17.09a2.46,2.46,0,0,0,2.09,2.15l.25,0,.15,0h8.86a.49.49,0,0,1,.47.36L268,318.43a2.48,2.48,0,0,0,4.75-1.45Z" fill="#fdd600"/><rect x="271.69" y="295.71" width="10.44" height="2.23" fill="#fdd600"/><path d="M271.94,314.94,268,302a3.89,3.89,0,0,0-3.6-2.41h-5.8l-.89-4.58h4.85a3.13,3.13,0,0,0,0-6.25h-4.7l-3.34-4.48,0,0a3.63,3.63,0,0,0-3.23-1.75,3.49,3.49,0,0,0-3.08,3.86l2,17.08a3.49,3.49,0,0,0,3,3l.37,0,.28,0h8.34L265.27,317a3.5,3.5,0,0,0,3.33,2.47,3.29,3.29,0,0,0,1-.16,3.48,3.48,0,0,0,2.32-4.34Zm-1.15,2.18a2.48,2.48,0,0,1-4.56-.44L263,306a.49.49,0,0,0-.47-.36h-8.86l-.15,0-.25,0a2.46,2.46,0,0,1-2.09-2.15l-2-17.09a2.43,2.43,0,0,1,.52-1.82,2.56,2.56,0,0,1,1.64-.93,2.67,2.67,0,0,1,2.35,1.36l.06.08,3.46,4.62a.51.51,0,0,0,.4.2h4.95a2.13,2.13,0,0,1,0,4.25h-5.43a.47.47,0,0,0-.4.17.54.54,0,0,0-.12.42l1.09,5.59a.49.49,0,0,0,.49.41h6.21a2.9,2.9,0,0,1,1.57.46,3,3,0,0,1,1.09,1.28L271,315.23A2.44,2.44,0,0,1,270.79,317.12Z" fill="#231f20"/><path d="M283.79,296.19h-2.41v-2.73a.5.5,0,0,0-.5-.5h-2.3v-9.17a.5.5,0,0,0-.27-.45l-3.43-1.78.43-5.37a.5.5,0,0,0-.46-.54l-3.22-.26a.51.51,0,0,0-.54.46L270,290a.48.48,0,0,0,.12.36.51.51,0,0,0,.34.17l3.22.26h0a.5.5,0,0,0,.5-.46l.61-7.69,2.78,1.45V293h-8.14a.5.5,0,0,0-.5.5v2.73h-7.63a.5.5,0,0,0,0,1h22.48a.5.5,0,0,0,0-1Zm-10.56-6.44-2.22-.17,1-13.15,2.22.17Zm-3.29,6.44V294h10.44v2.23Z" fill="#231f20"/><path d="M251.79,281.63a4.36,4.36,0,1,0-4.35-4.36A4.36,4.36,0,0,0,251.79,281.63Zm0-7.71a3.36,3.36,0,1,1-3.35,3.35A3.36,3.36,0,0,1,251.79,273.92Z" fill="#231f20"/><path d="M259.85,309l-8-.12a3.81,3.81,0,0,1-2.63-1,3.75,3.75,0,0,1-1.09-1.94L246,286.29a.5.5,0,0,0-.55-.44.5.5,0,0,0-.45.55L247.11,306a4.75,4.75,0,0,0,1.39,2.52,4.88,4.88,0,0,0,3.32,1.29l1.71,0v9.34h-4.28a.5.5,0,0,0-.5.5.5.5,0,0,0,.5.5h9.57a.5.5,0,0,0,.5-.5.51.51,0,0,0-.5-.5h-4.29v-9.32l5.31.08h0a.5.5,0,0,0,0-1Z" fill="#231f20"/><path d="M426.9,278.69h-41v9.19a4.48,4.48,0,1,1,6.1,6.54,4.58,4.58,0,0,1-5.78,0c-.12-.1-.21-.22-.32-.33v4.43l7.53-.09a4.51,4.51,0,0,1,3.63,1.85,1.61,1.61,0,0,1,.33.45l.64,1.33L397,303.63l-.85,1.25h0a2.94,2.94,0,0,0-.27.53H397l2-2.9.09-.12,2.16-3.21a.54.54,0,0,1,.44-.23.52.52,0,0,1,.29.09l2,1.36a.51.51,0,0,1,.14.72l-2.89,4.29H426.9Z" fill="#fdd600"/><path d="M425.65,275.94h-42a.51.51,0,0,0-.5.5V287.1a.51.51,0,0,0,.5.5.5.5,0,0,0,.5-.5V276.94h41v26.72H404.64a.5.5,0,0,0-.5.5.51.51,0,0,0,.5.5h21a.51.51,0,0,0,.5-.5V276.44A.51.51,0,0,0,425.65,275.94Z" fill="#231f20"/><path d="M385.56,295.18a5.48,5.48,0,1,0-1.94-4.18A5.48,5.48,0,0,0,385.56,295.18Zm3.54-8.66a4.48,4.48,0,0,1,2.89,7.9,4.58,4.58,0,0,1-5.78,0,4.48,4.48,0,0,1,2.89-7.9Z" fill="#231f20"/><path d="M394.69,303.83h-.34a.5.5,0,0,0-.5.5v1.08h1.91l-.62-1.3A.5.5,0,0,0,394.69,303.83Z" fill="#fdd600"/><path d="M395.8,305.49l0-.06v0h-.08Z" fill="#231f20"/><path d="M396.11,304.88h0a2.59,2.59,0,0,0-.28.55A2.59,2.59,0,0,1,396.11,304.88Z" fill="#231f20"/><polygon points="398.02 302.06 398.02 302.06 396.96 303.63 398.02 302.06" fill="#231f20"/><path d="M398.92,302.51l-2,2.93a1.81,1.81,0,0,0-.26.61,1.81,1.81,0,0,1,.26-.61Z" fill="#231f20"/><path d="M397.09,307.56a1.77,1.77,0,0,1-.45-1.19A1.77,1.77,0,0,0,397.09,307.56Z" fill="#231f20"/><path d="M407.55,292.31a.5.5,0,0,0-.69.16l-3.77,6.16-.63-.42a1.52,1.52,0,0,0-2.11.41l-1.68,2.48-.39-.8a2.46,2.46,0,0,0-.47-.66,5.43,5.43,0,0,0-4.4-2.21l-8.63.11a6.91,6.91,0,0,0-5.68,6.8v11.15a.51.51,0,0,0,.5.5h14.75a.5.5,0,0,0,.5-.5v-9.66l.76,1.57a2.68,2.68,0,0,0,1.12,1.19h0l.11.08a2.68,2.68,0,0,0,1.53.47,2.74,2.74,0,0,0,2.27-1.2l4.23-6.27a1.52,1.52,0,0,0-.41-2.11h0l-.55-.38,3.79-6.2A.49.49,0,0,0,407.55,292.31Zm-11.44,12.57a2.59,2.59,0,0,0-.28.55l0,.06-.66-1.38a.5.5,0,0,0-.45-.28h-.34a.5.5,0,0,0-.5.5V315h-9.38V304.61a.5.5,0,0,0-1,0V315H380.1V304.34a5.9,5.9,0,0,1,4.78-5.8l8.54-.11a4.51,4.51,0,0,1,3.63,1.85,1.61,1.61,0,0,1,.33.45l.64,1.33L397,303.63l-.85,1.25Zm7.94-3.76-4.23,6.27a1.75,1.75,0,0,1-2.4.48l-.08-.08a1.1,1.1,0,0,1-.25-.23,1.77,1.77,0,0,1-.45-1.19c0-.11,0-.21,0-.32a1.81,1.81,0,0,1,.26-.61l2-2.93.09-.12,2.16-3.21a.54.54,0,0,1,.44-.23.52.52,0,0,1,.29.09l2,1.36A.51.51,0,0,1,404.05,301.12Z" fill="#231f20"/><path d="M327.4,287.3a8.65,8.65,0,1,0-3.07-6.61A8.65,8.65,0,0,0,327.4,287.3ZM333,273a7.65,7.65,0,1,1-7.65,7.65A7.66,7.66,0,0,1,333,273Z" fill="#231f20"/><path d="M355.09,307.52a4.5,4.5,0,0,0-4-4.46V297a.51.51,0,0,0-.5-.5h-3.21a9.12,9.12,0,0,0-8.07-5.84H326.66a9.11,9.11,0,0,0-8.06,5.84h-3.18a.51.51,0,0,0-.5.5v6.06a4.49,4.49,0,0,0,0,8.93v6.89a.5.5,0,0,0,.5.5h35.16a.5.5,0,0,0,.5-.5V312A4.51,4.51,0,0,0,355.09,307.52Zm-36.15,0a3.52,3.52,0,1,1-3.52-3.51A3.53,3.53,0,0,1,318.94,307.52Zm-3,4.47a4.49,4.49,0,0,0,0-8.93V297.5h16.57v20.88H315.92Zm10.76-20.33h12.43a.57.57,0,0,0,.26,0,8.1,8.1,0,0,1,6.92,4.83H319.68A8.09,8.09,0,0,1,326.68,291.66Zm6.82,26.72V317h0V297.5h16.58v5.56a4.49,4.49,0,0,0,0,8.93v6.39Zm13.56-10.86a3.52,3.52,0,1,1,3.52,3.52A3.52,3.52,0,0,1,347.06,307.52Z" fill="#231f20"/><path d="M202.4,380.75l-9.53,6.13-7.67-5.12a7.25,7.25,0,0,0-3,5.92v15.66h25.24V387.68A7.3,7.3,0,0,0,202.4,380.75ZM189,395l-2.08,1.68L184.86,395V382.73l4.16,2.78Zm12.19,0-2.08,1.68L197.05,395v-9.61l4.16-2.68Z" fill="#fdd600"/><path d="M204.72,380.23a.52.52,0,0,0-.14-.41,8.59,8.59,0,0,0-5.65-2.51.52.52,0,0,0-.28.06l-.46.27H187.56l-.43-.25a.53.53,0,0,0-.28-.07A8.67,8.67,0,0,0,184,378a8.18,8.18,0,0,0-2.52,1.72.46.46,0,0,0-.15.4.43.43,0,0,0,.13.27,8.27,8.27,0,0,0-2.09,5.5v16.16a.5.5,0,0,0,.5.5h26.24a.5.5,0,0,0,.5-.5V385.93a8.28,8.28,0,0,0-2-5.43A.49.49,0,0,0,204.72,380.23Zm-18.28,21.36v-4l.18.15a.54.54,0,0,0,.32.11.51.51,0,0,0,.31-.11l2.58-2.08a.51.51,0,0,0,.19-.39v-9.05l2.56,1.71a.51.51,0,0,0,.28.09.5.5,0,0,0,.27-.08l2.92-1.88v9.21a.51.51,0,0,0,.19.39l2.58,2.08a.51.51,0,0,0,.31.11.54.54,0,0,0,.32-.11l.18-.15v4Zm6.18-19.87a.5.5,0,0,0,.5,0l5.9-3.4a7.55,7.55,0,0,1,2.94.81,7.81,7.81,0,0,1,1.45,1l-10.54,6.78-10.22-6.83a7.84,7.84,0,0,1,1.77-1.1,7.71,7.71,0,0,1,2.35-.62Zm-7.76,1,4.16,2.78V395l-2.08,1.68L184.86,395ZM197.05,395v-9.61l4.16-2.68V395l-2.08,1.68Zm-4.18-14.28-3.58-2.07h7.17Zm-12.49,5.22a7.3,7.3,0,0,1,1.9-4.92l1.58,1.06v13.16a.53.53,0,0,0,.18.39l1.4,1.12v4.85h-5.06Zm25.24,15.66h-5v-4.85l1.4-1.12a.53.53,0,0,0,.18-.39V382.06l1.55-1a7.23,7.23,0,0,1,1.86,4.86Z" fill="#231f20"/><path d="M187.72,362.14V364a32,32,0,0,1,5.16-.44,34.76,34.76,0,0,1,6.6.66c.1.16.17.34.26.51.72.1,1.41.2,2.07.32l0-3,.38-.48,5.3-1.22-11.77-3.75L182,360.11l5.32,1.55A.5.5,0,0,1,187.72,362.14Z" fill="#fdd600"/><path d="M207.78,358.17l-13.64-4.35a.53.53,0,0,0-.28,0l-15.62,4a.49.49,0,0,0-.37.48.5.5,0,0,0,.36.49l6.71,1.94v-1l-4.68-1.36L194,354.82l11.77,3.75-4.68,1.08v1l3.21-.74V365a1.06,1.06,0,0,0-.59.95.86.86,0,0,0,0,.16.49.49,0,0,0,0,.12V368a.5.5,0,0,0,.5.5h1.18a.5.5,0,0,0,.5-.5v-1.79a.52.52,0,0,0,0-.11.88.88,0,0,0,0-.17,1.08,1.08,0,0,0-.59-.95v-5.22s0-.06,0-.08l2.49-.58a.5.5,0,0,0,.39-.47A.48.48,0,0,0,207.78,358.17Z" fill="#231f20"/><path d="M201.06,358.61a.52.52,0,0,0-.37-.49,30.06,30.06,0,0,0-7.67-1,29.67,29.67,0,0,0-7.71,1,.52.52,0,0,0-.37.49v5.27a.51.51,0,0,0,.19.39.6.6,0,0,0,.16.08,8.55,8.55,0,1,0,15.41,0,.49.49,0,0,0,.17-.06.51.51,0,0,0,.19-.39v-5.27Zm-8.06,17a7.56,7.56,0,0,1-7.55-7.56,7.46,7.46,0,0,1,1.07-3.86,31.72,31.72,0,0,1,6.36-.66,34.76,34.76,0,0,1,6.6.66,7.46,7.46,0,0,1,1.07,3.86A7.56,7.56,0,0,1,193,375.59Zm-.12-13.08a33.74,33.74,0,0,0-6.94.74V359a30.35,30.35,0,0,1,7.08-.87,28.82,28.82,0,0,1,7,.87v4.26A34,34,0,0,0,192.88,362.51Z" fill="#231f20"/><path d="M130.44,380.39h-4.12L123,384.7l-3.31-4.31h-.61a7.29,7.29,0,0,0-6.92,7.29v15.66h25.24V387.68A7.29,7.29,0,0,0,130.44,380.39Z" fill="#fdd600"/><path d="M117.69,361.89V364a34.1,34.1,0,0,1,5.43-.45,31.64,31.64,0,0,1,6.36.66c.06.1.1.21.16.31.73.11,1.45.23,2.17.39V362a.49.49,0,0,1,.36-.48l5.32-1.54-13.71-3.55L112,360.18l5.3,1.22A.5.5,0,0,1,117.69,361.89Z" fill="#fdd600"/><path d="M137.76,357.85l-15.62-4a.53.53,0,0,0-.28,0l-13.64,4.35a.48.48,0,0,0-.35.49.5.5,0,0,0,.39.47l2.49.57s0,.06,0,.09V365a1.08,1.08,0,0,0-.59.95.88.88,0,0,0,0,.16.5.5,0,0,0,0,.12V368a.5.5,0,0,0,.5.5h1.18a.5.5,0,0,0,.5-.5v-1.79a.45.45,0,0,0,0-.11.91.91,0,0,0,0-.17,1.06,1.06,0,0,0-.59-.95v-5.08l3.21.74v-1l-4.68-1.07L122,354.82l13.71,3.54-4.68,1.36v1l6.71-1.94a.5.5,0,0,0,.36-.49A.49.49,0,0,0,137.76,357.85Z" fill="#231f20"/><path d="M131.06,358.61a.52.52,0,0,0-.37-.49,29.84,29.84,0,0,0-7.69-1h0a30.06,30.06,0,0,0-7.67,1,.52.52,0,0,0-.37.49v5.27a.51.51,0,0,0,.19.39.49.49,0,0,0,.17.06,8.55,8.55,0,1,0,15.41,0,.6.6,0,0,0,.16-.08.51.51,0,0,0,.19-.39v-5.27Zm-8.06,17a7.56,7.56,0,0,1-7.55-7.56,7.46,7.46,0,0,1,1.07-3.86,33.2,33.2,0,0,1,6.6-.66,31.64,31.64,0,0,1,6.36.66,7.46,7.46,0,0,1,1.07,3.86A7.56,7.56,0,0,1,123,375.59Zm.12-13.08a35.42,35.42,0,0,0-7.18.74V359a28.82,28.82,0,0,1,7-.87h0a29,29,0,0,1,7.06.87v4.26A33.74,33.74,0,0,0,123.12,362.51Z" fill="#231f20"/><path d="M128.72,377.64H117.28a8.3,8.3,0,0,0-7.9,8.29v16.16a.5.5,0,0,0,.5.5h26.24a.5.5,0,0,0,.5-.5V385.93A8.3,8.3,0,0,0,128.72,377.64Zm-1,1L123,384.7l-4.66-6.06ZM115.94,387a.5.5,0,0,0-.5.5v14.11h-5.06V385.93a7.28,7.28,0,0,1,6.69-7.27l5.4,7v15.9h-6V387.48A.5.5,0,0,0,115.94,387Zm19.68,14.61h-5V387.48a.5.5,0,0,0-.5-.5.5.5,0,0,0-.5.5v14.11h-6.16v-15.9l5.46-7a7.3,7.3,0,0,1,6.69,7.27Z" fill="#231f20"/><path d="M189.29,272.22a4.6,4.6,0,1,0,4.5,4.59A4.55,4.55,0,0,0,189.29,272.22Zm0,8.19a3.6,3.6,0,1,1,3.5-3.6A3.55,3.55,0,0,1,189.29,280.41Z" fill="#231f20"/></g><g id="fb145e67-ca0b-4e99-b52a-84c937c5e6d1" data-name="CATEGORIES"><text transform="translate(98.01 66.67)" font-size="40" fill="#231f20" font-family="Antonio-Bold, Antonio" font-weight="700"><tspan letter-spacing="0em">A</tspan><tspan x="18.95" y="0">CADEMICS/RESEARCH</tspan></text></g><g id="b028cefd-3ed5-48c9-9af6-43b39709da92" data-name="LABELS"><text transform="translate(448.45 325.8)" font-size="6" fill="#231f20" font-family="Roboto-Regular, Roboto">lightbulb</text><text transform="translate(237.7 644.95)" font-size="6" fill="#231f20" font-family="Roboto-Regular, Roboto">asian-a<tspan x="19.31" y="0" letter-spacing="-0.01em">r</tspan><tspan x="21.28" y="0">ch</tspan></text><text transform="translate(308 244.54)" font-size="6" fill="#231f20" font-family="Roboto-Regular, Roboto">backpack</text><text transform="translate(168 244.54)" font-size="6" fill="#231f20" font-family="Roboto-Regular, Roboto">pen</text><text transform="translate(238 165.61)" font-size="6" fill="#231f20" font-family="Roboto-Regular, Roboto">hand-writing-with-pen</text><text transform="translate(378 166.24)" font-size="6" fill="#231f20" font-family="Roboto-Regular, Roboto">open-book</text><text transform="translate(448 166.24)" font-size="6" fill="#231f20" font-family="Roboto-Regular, Roboto">stack-of-books</text><text transform="translate(448 244.54)" font-size="6" fill="#231f20" font-family="Roboto-Regular, Roboto">magnifying-glass</text><text transform="translate(378 325.8)" font-size="6" fill="#231f20" font-family="Roboto-Regular, Roboto">p<tspan x="3.37" y="0" letter-spacing="-0.01em">r</tspan><tspan x="5.34" y="0">esentation</tspan></text><text transform="translate(378.03 244.54)" font-size="6" fill="#231f20" font-family="Roboto-Regular, Roboto">magnifying-glass-paper</text><text transform="translate(308 166.24)" font-size="6" fill="#231f20" font-family="Roboto-Regular, Roboto">paper</text><text transform="translate(98.31 325.8)" font-size="6" fill="#231f20" font-family="Roboto-Regular, Roboto"><tspan letter-spacing="-0.02em">r</tspan><tspan x="1.91" y="0">aised-hand</tspan></text><text transform="translate(98.63 408.47)" font-size="6" fill="#231f20" font-family="Roboto-Regular, Roboto">unde<tspan x="13.18" y="0" letter-spacing="-0.01em">r</tspan><tspan x="15.16" y="0">g</tspan><tspan x="18.52" y="0" letter-spacing="-0.02em">r</tspan><tspan x="20.43" y="0">aduate</tspan></text><text transform="translate(238 408.47)" font-size="6" fill="#231f20" font-family="Roboto-Regular, Roboto">g<tspan x="3.37" y="0" letter-spacing="-0.02em">r</tspan><tspan x="5.28" y="0">aduation-cap</tspan></text><text transform="translate(308 408.47)" font-size="6" fill="#231f20" font-family="Roboto-Regular, Roboto">lectu<tspan x="13.04" y="0" letter-spacing="-0.01em">r</tspan><tspan x="15.02" y="0">e-podium</tspan></text><text transform="translate(378.56 408.47)" font-size="6" fill="#231f20" font-family="Roboto-Regular, Roboto">diploma</text><text transform="translate(448 408.47)" font-size="6" fill="#231f20" font-family="Roboto-Regular, Roboto">pennant</text><text transform="translate(168 568.04)" font-size="6" fill="#231f20" font-family="Roboto-Regular, Roboto">can<tspan x="9.71" y="0" letter-spacing="-0.01em">v</tspan><tspan x="12.58" y="0">as-displ</tspan><tspan x="33.35" y="0" letter-spacing="-0.01em">a</tspan><tspan x="36.57" y="0">y</tspan></text><text transform="translate(97.9 568.04)" font-size="6" fill="#231f20" font-family="Roboto-Regular, Roboto">swo<tspan x="11.02" y="0" letter-spacing="-0.01em">r</tspan><tspan x="13" y="0">d-shield</tspan></text><text transform="translate(98.21 244.54)" font-size="6" fill="#231f20" font-family="Roboto-Regular, Roboto">ruler</text><text transform="translate(307.9 325.8)" font-size="6" fill="#231f20" font-family="Roboto-Regular, Roboto"><tspan letter-spacing="-0.01em">r</tspan><tspan x="1.97" y="0">eading</tspan></text><text transform="translate(167.9 325.8)" font-size="6" fill="#231f20" font-family="Roboto-Regular, Roboto"><tspan letter-spacing="-0.01em">v</tspan><tspan x="2.86" y="0">olunteering</tspan></text><text transform="translate(237.9 325.8)" font-size="6" fill="#231f20" font-family="Roboto-Regular, Roboto">office-workplace</text><text transform="translate(167.9 408.47)" font-size="6" fill="#231f20" font-family="Roboto-Regular, Roboto">g<tspan x="3.37" y="0" letter-spacing="-0.02em">r</tspan><tspan x="5.28" y="0">aduate</tspan></text><text transform="translate(97.9 485.68)" font-size="6" fill="#231f20" font-family="Roboto-Regular, Roboto">hou<tspan x="10.03" y="0" letter-spacing="-0.01em">r</tspan><tspan x="12.01" y="0">glass</tspan></text><text transform="translate(167.9 485.68)" font-size="6" fill="#231f20" font-family="Roboto-Regular, Roboto">quill-pen-ink</text><text transform="translate(237.9 485.68)" font-size="6" fill="#231f20" font-family="Roboto-Regular, Roboto">planet</text><text transform="translate(307.9 485.68)" font-size="6" fill="#231f20" font-family="Roboto-Regular, Roboto">globe</text><text transform="translate(378.01 485.68)" font-size="6" fill="#231f20" font-family="Roboto-Regular, Roboto">telescope</text><text transform="translate(447.9 485.68)" font-size="6" fill="#231f20" font-family="Roboto-Regular, Roboto">mic<tspan x="9.86" y="0" letter-spacing="-0.01em">r</tspan><tspan x="11.83" y="0">ophone</tspan></text><text transform="translate(447.9 568.04)" font-size="6" fill="#231f20" font-family="Roboto-Regular, Roboto">paint brush</text><text transform="translate(377.9 568.04)" font-size="6" fill="#231f20" font-family="Roboto-Regular, Roboto">violin</text><text transform="translate(307.9 568.04)" font-size="6" fill="#231f20" font-family="Roboto-Regular, Roboto">music-note</text><text transform="translate(237.9 568.04)" font-size="6" fill="#231f20" font-family="Roboto-Regular, Roboto">easel</text><text transform="translate(97.9 644.95)" font-size="6" fill="#231f20" font-family="Roboto-Regular, Roboto">paintbrush-paint</text><text transform="translate(167.9 644.95)" font-size="6" fill="#231f20" font-family="Roboto-Regular, Roboto">law-g<tspan x="14.25" y="0" letter-spacing="-0.01em">a</tspan><tspan x="17.47" y="0" letter-spacing="-0.01em">v</tspan><tspan x="20.34" y="0">el</tspan></text><text transform="translate(377.93 644.95)" font-size="6" fill="#231f20" font-family="Roboto-Regular, Roboto">D<tspan x="3.93" y="0" letter-spacing="0.01em">N</tspan><tspan x="8.26" y="0">A</tspan></text><text transform="translate(307.9 644.95)" font-size="6" fill="#231f20" font-family="Roboto-Regular, Roboto">test-tube</text><text transform="translate(447.9 644.95)" font-size="6" fill="#231f20" font-family="Roboto-Regular, Roboto">test tubes</text><text transform="translate(377.9 722.33)" font-size="6" fill="#231f20" font-family="Roboto-Regular, Roboto">molecule</text><text transform="translate(308.04 722.33)" font-size="6" fill="#231f20" font-family="Roboto-Regular, Roboto">a<tspan x="3.26" y="0" letter-spacing="-0.01em">t</tspan><tspan x="5.17" y="0">om</tspan></text><text transform="translate(237.9 722.33)" font-size="6" fill="#231f20" font-family="Roboto-Regular, Roboto">chemical-bea<tspan x="35.66" y="0" letter-spacing="-0.01em">k</tspan><tspan x="38.65" y="0">er</tspan></text><text transform="translate(168.22 722.33)" font-size="6" fill="#231f20" font-family="Roboto-Regular, Roboto">mechanical-gears</text><text transform="translate(447.9 722.33)" font-size="6" fill="#231f20" font-family="Roboto-Regular, Roboto">mic<tspan x="9.86" y="0" letter-spacing="-0.01em">r</tspan><tspan x="11.83" y="0">oscope-slide</tspan></text><text transform="translate(97.9 722.33)" font-size="6" fill="#231f20" font-family="Roboto-Regular, Roboto">mic<tspan x="9.86" y="0" letter-spacing="-0.01em">r</tspan><tspan x="11.83" y="0">oscope</tspan></text><text transform="translate(98 165.61)" font-size="6" fill="#231f20" font-family="Roboto-Regular, Roboto">a-plus-paper</text><text transform="translate(168 165.61)" font-size="6" fill="#231f20" font-family="Roboto-Regular, Roboto">pen-and-paper</text><text transform="translate(238.14 243.91)" font-size="6" fill="#231f20" font-family="Roboto-Regular, Roboto">scissors</text></g></svg>