<?xml version="1.0" encoding="UTF-8"?>
<svg xmlns="http://www.w3.org/2000/svg" viewBox="0 0 50 50">
  <defs>
    <style>
      .cls-1 {
        font-family: ArialMT, Arial;
        font-size: 6px;
      }

      .cls-2 {
        fill: #ffcd00;
      }
    </style>
  </defs>
  <g id="Black">
    <g>
      <path class="cls-2" d="M23.46,13.99c0,1.54,1.25,2.79,2.79,2.79s2.79-1.25,2.79-2.79-1.25-2.79-2.79-2.79-2.79,1.25-2.79,2.79Z"/>
      <path class="cls-2" d="M36.81,18.24l-7.46,1.23-1.21.12h-3.72s-.03,0-.05,0l-1.18-.12-7.49-1.23c-.06,0-.12-.01-.18-.01-.23,0-.45.07-.64.21-.24.17-.4.43-.45.72s.02.58.19.82.43.4.72.45l7.72,1.48c.24.05.41.26.41.5l-.09,5.75s0,.09-.02.14l-3.4,11.26c-.25.7.1,1.44.77,1.68.32.12.68.1.99-.05.31-.15.55-.41.67-.73l3.4-10.41c.13-.41.82-.41.96,0l3.4,10.42c.11.31.35.57.66.72.31.15.66.17.99.05.33-.12.58-.35.73-.67s.16-.66.05-.99l-3.41-11.29s-.02-.09-.02-.14l-.09-5.75c0-.24.17-.45.41-.5l7.71-1.47c.61-.1,1.02-.67.92-1.27-.1-.6-.67-1.01-1.27-.91Z"/>
      <g>
        <path d="M25,48.15c-12.77,0-23.15-10.39-23.15-23.15S12.23,1.85,25,1.85s23.15,10.39,23.15,23.15-10.39,23.15-23.15,23.15ZM25,2.85C12.78,2.85,2.85,12.78,2.85,25s9.94,22.15,22.15,22.15,22.15-9.94,22.15-22.15S37.22,2.85,25,2.85Z"/>
        <path d="M25,44.96c-11.01,0-19.96-8.96-19.96-19.96S13.99,5.04,25,5.04s19.96,8.96,19.96,19.96-8.96,19.96-19.96,19.96ZM25,6.04C14.54,6.04,6.04,14.54,6.04,25s8.51,18.96,18.96,18.96,18.96-8.51,18.96-18.96S35.46,6.04,25,6.04Z"/>
        <g>
          <path d="M25,16.52c2.09,0,3.79-1.7,3.79-3.79s-1.7-3.79-3.79-3.79-3.79,1.7-3.79,3.79,1.7,3.79,3.79,3.79ZM27.79,12.74c0,1.54-1.25,2.79-2.79,2.79s-2.79-1.25-2.79-2.79,1.25-2.79,2.79-2.79,2.79,1.25,2.79,2.79Z"/>
          <path d="M37.81,17.74c-.09-.55-.39-1.04-.85-1.37-.46-.33-1.02-.46-1.57-.37l-7.43,1.22-1.13.12h-3.64l-1.13-.11-7.46-1.23c-.55-.09-1.11.04-1.57.37-.46.33-.76.81-.85,1.37-.19,1.14.59,2.23,1.72,2.41l7.29,1.4-.08,5.26-3.37,11.17c-.43,1.19.19,2.51,1.38,2.93,1.19.43,2.51-.19,2.94-1.4l2.93-8.97,2.93,8.99c.34.93,1.22,1.52,2.16,1.52.26,0,.52-.04.77-.13,1.19-.43,1.81-1.74,1.39-2.91l-3.38-11.2-.08-5.26,7.28-1.39c.55-.09,1.04-.39,1.37-.85.33-.46.46-1.01.37-1.57ZM35.9,19.17l-7.71,1.47c-.24.05-.41.26-.41.5l.09,5.75s0,.09.02.14l3.41,11.29c.12.33.1.68-.05.99s-.41.55-.73.67c-.33.12-.68.1-.99-.05-.31-.15-.55-.41-.66-.72l-3.4-10.42c-.13-.41-.82-.41-.96,0l-3.4,10.41c-.12.33-.35.58-.67.73-.31.15-.67.16-.99.05-.67-.24-1.02-.98-.77-1.68l3.4-11.26s.02-.09.02-.14l.09-5.75c0-.24-.17-.45-.41-.5l-7.72-1.48c-.29-.05-.54-.21-.72-.45s-.24-.53-.19-.82.21-.54.45-.72c.19-.14.41-.21.64-.21.06,0,.12,0,.18.01l7.49,1.23,1.18.12s.03,0,.05,0h3.72s1.21-.13,1.21-.13l7.46-1.23c.6-.1,1.17.31,1.27.91.1.6-.31,1.17-.92,1.27Z"/>
        </g>
      </g>
    </g>
  </g>
  <g id="Labels">
    <text class="cls-1" transform="translate(0 54.98)"><tspan x="0" y="0">Accessibility</tspan></text>
  </g>
</svg>