<?xml version="1.0" encoding="UTF-8"?>
<svg xmlns="http://www.w3.org/2000/svg" viewBox="0 0 50 50">
  <defs>
    <style>
      .cls-1 {
        fill: #1f1c1d;
      }

      .cls-2 {
        fill: #ffcd00;
      }

      .cls-3 {
        fill: #221f1f;
        font-family: Roboto-Regular, Roboto;
        font-size: 5px;
      }
    </style>
  </defs>
  <g id="Gold_Offset">
    <g>
      <path class="cls-2" d="M40.94,12.89l-.87-.54c-.73-.43-1.53-.86-2.39-1.27-1.44-.69-2.94-1.24-4.47-1.65l-1.88-.44c-3.51-.69-7.15-.69-10.66,0l-1.88.44c-1.53.42-3.02.96-4.46,1.65-.87.41-1.67.84-2.41,1.28l-.87.54c-2.64,1.72-4.18,3.51-4.18,4.98,0,.79.21,1.45.61,1.95.13.16.3.3.48.42,0,0,.56.41,1.03.39,0,0,.01,0,.02,0h.37v6.7c0,6.88,3.39,12.48,9.53,15.77,2.57,1.38,4.73,2.99,6.4,4.8l.76.82c.22.24.64.24.86,0l.76-.82c1.67-1.81,3.83-3.42,6.4-4.8,6.15-3.29,9.53-8.89,9.53-15.77v-6.98c.19-.09.31-.18.31-.18.56-.35.96-.88,1.09-1.51.05-.24.08-.5.08-.78,0-1.47-1.54-3.26-4.18-4.98Z"/>
      <path class="cls-2" d="M24.4,6.23c.43,0,.87,0,1.3,0,.02-1.31-.56-2.59-1.6-3.47-.26-.22-.7-.19-.92.06-.11.12-.16.27-.15.42,0,.16.08.3.21.41.77.65,1.17,1.59,1.16,2.57Z"/>
    </g>
  </g>
  <g id="Icon_Outline">
    <g>
      <path class="cls-1" d="M18.91,39.68c.07.04.15.05.23.05.18,0,.36-.1.45-.27.13-.25.03-.55-.22-.67-4.82-2.46-7.88-7.36-8-12.77,0-.27-.23-.49-.5-.49h-.01c-.28,0-.5.23-.49.51.12,5.78,3.39,11.01,8.54,13.64Z"/>
      <path class="cls-1" d="M37.1,8.93c-3.27-1.56-6.82-2.45-10.4-2.66.03-1.62-.68-3.19-1.95-4.27-.66-.55-1.73-.48-2.3.15-.29.32-.44.74-.41,1.17.03.43.23.83.56,1.11.55.46.84,1.14.81,1.83-3.62.2-7.2,1.09-10.5,2.67-2.41,1.15-8.03,4.21-8.03,7.71,0,1.03.28,1.9.84,2.58.3.37.71.64,1.16.85v5.75c0,7.26,3.57,13.17,10.06,16.65,2.47,1.33,4.54,2.87,6.14,4.6l.76.82c.3.32.72.5,1.16.5s.87-.18,1.16-.5l.76-.82c1.6-1.73,3.66-3.27,6.14-4.6,6.49-3.48,10.06-9.39,10.06-16.65v-5.84c.96-.47,1.69-1.32,1.9-2.36.06-.31.09-.64.09-.98,0-3.49-5.61-6.55-8.02-7.7ZM36.67,9.83c.86.41,1.66.84,2.39,1.27l-1.97,1.97-4.89-4.89c1.53.42,3.03.96,4.47,1.65ZM37.1,14.49l4.84,4.84c-.18.03-.36.05-.54.05h0s-9.19,0-9.19,0l4.9-4.9ZM36.39,13.78l-5.34,5.34-5.34-5.34,5.34-5.34,5.34,5.34ZM29.9,19.39h-9.8l4.9-4.9,4.9,4.9ZM23.24,3.66c-.13-.11-.2-.25-.21-.41-.01-.16.04-.31.15-.42.23-.25.66-.28.92-.06,1.04.87,1.62,2.15,1.6,3.47-.43-.01-.87-.01-1.3,0,.02-.98-.39-1.92-1.16-2.57ZM30.33,7.74l-5.33,5.33-5.33-5.33c3.51-.69,7.15-.69,10.66,0ZM24.29,13.78l-5.34,5.34-5.34-5.34,5.34-5.34,5.34,5.34ZM17.8,19.39h-9.78s-.01,0-.02,0l4.9-4.9,4.9,4.9ZM13.34,9.83c1.44-.69,2.93-1.23,4.46-1.65l-4.89,4.89-1.97-1.97c.74-.44,1.54-.86,2.41-1.28ZM6.49,18.58c-.41-.5-.61-1.16-.61-1.95,0-1.47,1.54-3.26,4.18-4.98l2.13,2.13-5.22,5.22c-.18-.12-.35-.25-.48-.42ZM42.12,25.81c0,6.88-3.39,12.47-9.53,15.77-2.57,1.38-4.73,2.99-6.4,4.8l-.76.82c-.22.24-.64.24-.86,0l-.76-.82c-1.68-1.81-3.83-3.42-6.4-4.8-6.15-3.29-9.53-8.89-9.53-15.77v-5.43h34.25v5.43ZM44.04,17.41c-.13.63-.54,1.16-1.09,1.51l-5.14-5.14,2.13-2.13c2.64,1.72,4.18,3.52,4.18,4.98,0,.28-.03.54-.08.78Z"/>
    </g>
  </g>
  <g id="Names">
    <text class="cls-3" transform="translate(0 53.66)"><tspan x="0" y="0">acorn</tspan></text>
  </g>
</svg>