<svg xmlns="http://www.w3.org/2000/svg" viewBox="0 0 50 50"><g id="f74efc97-8a81-4a2c-8f53-45aaf41ed1b7" data-name="ICONS"><path d="M48.69,24.15,29.91,15.79l.21-5.7A10.12,10.12,0,0,0,27.7,2.66a4.26,4.26,0,0,0-2.95-1.52h0A4.24,4.24,0,0,0,21.8,2.66a10.16,10.16,0,0,0-2.42,7.42l.19,5.72L.81,24.15a.51.51,0,0,0-.3.46v4.8a.52.52,0,0,0,.16.36.48.48,0,0,0,.34.14H1L20,29l.36,11.22L15,45a.47.47,0,0,0-.16.42L15,47.13a.5.5,0,0,0,.5.44h.1L21,46.44a4.62,4.62,0,0,0,3.69,1.92h0a4.59,4.59,0,0,0,3.67-1.93l5.44,1.13H34a.53.53,0,0,0,.3-.09.52.52,0,0,0,.2-.35l.19-1.73a.51.51,0,0,0-.17-.42L29,40.1,29.42,29l19,.92h0a.48.48,0,0,0,.34-.14.52.52,0,0,0,.16-.36v-4.8A.51.51,0,0,0,48.69,24.15ZM48,28.88,29.46,28l.41-11.11L48,24.93ZM33.52,46.47l-4.71-1L29,41.4l4.66,4.15Zm-5.71-.92a3.63,3.63,0,0,1-3.07,1.81h0a3.64,3.64,0,0,1-3.19-2L20.38,10.05v0a9.11,9.11,0,0,1,2.15-6.68,3.3,3.3,0,0,1,2.22-1.21h0A3.34,3.34,0,0,1,27,3.35,9.07,9.07,0,0,1,29.12,10ZM16,46.47l-.1-.92,4.54-4,.13,4h0ZM1.51,24.93l18.09-8L20,28l-18.46.89Z"/></g><g id="a431c7f5-8e57-46f6-9aba-f0eecd372028" data-name="LABELS"><text transform="translate(0 55.12)" font-size="6" font-family="Roboto-Regular, Roboto">airplane</text></g></svg>