<svg xmlns="http://www.w3.org/2000/svg" viewBox="0 0 50 50"><g id="b732b013-ca77-430f-aeba-ed4ea699274d" data-name="ICONS"><path d="M35.29,33.3c2.27-.85,3-3.94,3.21-5.39-4.33,1-13.32-3.79-16.22-5.42,0,.33.11.67.16,1,.57,3.55,1.21,7.53-.54,8.81l1.36,1.74a.54.54,0,0,1,.11.32L23.16,49H35.51c-.1-2.72-.54-14.8-.54-15.26A.51.51,0,0,1,35.29,33.3ZM29.13,36h4.21l.06,1.77H29.13a.89.89,0,1,1,0-1.77Zm.22,7.17a.89.89,0,1,1,0-1.77h4.2l.07,1.77Z" fill="#fdd600"/><path d="M37.84,25.45a.48.48,0,0,0-.23-.44.42.42,0,0,0-.21-.08,11.28,11.28,0,0,0,.2-2.25,2.46,2.46,0,0,0,0-.28v-.12a.67.67,0,0,0,0-.2L37.31,11.6a2.53,2.53,0,0,0-2.59-2.46,2.59,2.59,0,0,0-1.52.55l-.11-4A2.51,2.51,0,0,0,30.5,3.23,2.55,2.55,0,0,0,29,3.79V3.43a2.53,2.53,0,0,0-5.06.13v.36a2.47,2.47,0,0,0-1.54-.48A2.54,2.54,0,0,0,19.92,6l.24,9h0c0,.46,0,1.58,0,4.36l-.06,0a.5.5,0,0,0-.76.49c.09.65.2,1.35.32,2.07.06.41.13.84.2,1.28a1.83,1.83,0,0,1-1.28-.15,6,6,0,0,0-4.22-1.93c-.53,0-2.13.07-2.69,1.22a2.3,2.3,0,0,0-.07,1.82,2.44,2.44,0,0,0,1.29,1.38c2.22,1.49,5.75,3.89,6.36,4.35l-.06,0a.48.48,0,0,0-.33.32.5.5,0,0,0,.08.46l1.63,2.09-.22,15a.51.51,0,0,0,.14.36.49.49,0,0,0,.36.15H34.28a.48.48,0,0,0,.36-.15.47.47,0,0,0,.14-.37c0-1.23-.1-2.74-.16-4.32l-.07-2.52a.29.29,0,0,0,0-.09c-.14-3.75-.27-7.38-.3-8.48C37.51,30.79,37.83,25.68,37.84,25.45ZM21.16,15.05V15l-.24-9a1.54,1.54,0,0,1,1.49-1.57,1.52,1.52,0,0,1,1.09.42A1.5,1.5,0,0,1,24,5.93h0l.33,12.42a.49.49,0,0,0,.5.49h0a.51.51,0,0,0,.49-.51L25,5.91h0l-.06-2.36A1.53,1.53,0,0,1,26.41,2a1.48,1.48,0,0,1,1.09.42A1.54,1.54,0,0,1,28,3.46L28,5.82h0l.32,12.42a.51.51,0,0,0,.5.49h0a.5.5,0,0,0,.48-.52L29,5.8h0a1.53,1.53,0,1,1,3.05-.08l.21,7.82h0l0,.83v.34h0l.09,3.43a.51.51,0,0,0,.5.49h0a.5.5,0,0,0,.49-.51l-.11-4.2,0-.8c0-.38,0-.85,0-1.41a1.53,1.53,0,0,1,3.06-.08l.27,10.54s0,.13,0,.16v.17a1.36,1.36,0,0,1,0,.2,9.72,9.72,0,0,1-.27,2.53C32.77,25.9,25.1,22.16,21.22,20,21.19,18,21.16,15.28,21.16,15.05Zm-8.57,8.76a1.34,1.34,0,0,1,0-1c.29-.6,1.44-.64,1.82-.65A4.82,4.82,0,0,1,18,23.8a.41.41,0,0,0,.13.1,2.92,2.92,0,0,0,2,.3c.26,2,.39,3.93-.07,5-.5-.44-2-1.45-6.56-4.52A1.48,1.48,0,0,1,12.59,23.81Zm8.82,23.47.21-14.65a.54.54,0,0,0-.11-.32l-1.36-1.74c1.75-1.28,1.11-5.26.54-8.81-.05-.35-.11-.69-.16-1,2.9,1.63,11.89,6.43,16.22,5.42-.22,1.45-.94,4.54-3.21,5.39a.51.51,0,0,0-.32.47c0,.14,0,1.34.1,3H29.13a1.89,1.89,0,1,0,0,3.77h4.33c0,.54,0,1.09,0,1.63H29.35a1.89,1.89,0,1,0,0,3.77h4.3c.05,1.34.09,2.45.11,3.07Zm12.21-4.07H29.35a.89.89,0,1,1,0-1.77h4.2Zm-.22-5.4H29.13a.89.89,0,1,1,0-1.77h4.21Z" fill="#231f20"/></g><g id="aa8fbc5d-8e03-4502-a80e-799822206bc1" data-name="LABELS"><text transform="translate(-0.05 54.96)" font-size="6" fill="#231f20" font-family="Roboto-Regular, Roboto">arm-inju<tspan x="21.71" y="0" letter-spacing="0.01em">r</tspan><tspan x="23.8" y="0">y</tspan></text></g></svg>