<svg id="fa23cf0c-0217-4a87-bc8c-31999d15047d" data-name="ICONS" xmlns="http://www.w3.org/2000/svg" viewBox="0 0 50 50"><path d="M48.37,44.33h-3V41.09a.5.5,0,0,0-.5-.5H42.5V21.09h2.39a.5.5,0,0,0,.5-.5V17.34h3a.48.48,0,0,0,.47-.35.49.49,0,0,0-.19-.56L25,.51a.48.48,0,0,0-.56,0L.85,16.43A.49.49,0,0,0,.66,17a.48.48,0,0,0,.47.35h3v3.25a.5.5,0,0,0,.5.5H7v19.5H4.61a.5.5,0,0,0-.5.5v3.24h-3a.51.51,0,0,0-.5.5v3.75a.51.51,0,0,0,.5.5H48.37a.51.51,0,0,0,.5-.5V44.83A.51.51,0,0,0,48.37,44.33ZM41.5,40.59h-4V21.14h4Zm-5,0H32.67V21.09h3.82ZM17.83,21.14h4V40.59h-4Zm5-.05h3.82v19.5H22.84ZM5.11,17.34H44.39v2.75H5.11Zm22.55,3.8h4V40.59h-4ZM24.75,1.53l22,14.81h-44ZM16.83,21.09v19.5H13V21.09ZM8,21.14h4V40.59H8ZM5.11,41.59H44.39v2.74H5.11Zm42.76,6.49H1.63V45.33H47.87Z"/><path d="M24.75,14.23a3.5,3.5,0,0,0,3.6-3.4,3.61,3.61,0,0,0-7.2,0A3.5,3.5,0,0,0,24.75,14.23Zm0-5.8a2.51,2.51,0,0,1,2.6,2.4,2.61,2.61,0,0,1-5.2,0A2.51,2.51,0,0,1,24.75,8.43Z"/></svg>