<?xml version="1.0" encoding="utf-8"?>
<!-- Generator: Adobe Illustrator 27.7.0, SVG Export Plug-In . SVG Version: 6.00 Build 0)  -->
<svg version="1.1" id="Layer_1" xmlns="http://www.w3.org/2000/svg" xmlns:xlink="http://www.w3.org/1999/xlink" x="0px" y="0px"
	 viewBox="0 0 50 50" style="enable-background:new 0 0 50 50;" xml:space="preserve">
<style type="text/css">
	.st0{display:none;}
	.st1{display:inline;fill:none;stroke:#EA008A;stroke-width:0.2;stroke-miterlimit:10;}
	.st2{font-family:'Roboto-Regular';}
	.st3{font-size:6px;}
</style>
<g id="ICONS_00000031165542127692736420000002692518830807990202_">
	<path d="M44.5264,16.5645c-0.8307-1.7653-2.2141-3.366-3.6196-4.3287v-1.7543c0-2.2168-1.8037-4.0205-4.0205-4.0205
		c-1.2103,0-2.2844,0.5489-3.022,1.3979V7.8516c0-2.3164-1.8848-4.2012-4.2012-4.2012c-1.4163,0-2.6653,0.709-3.4268,1.7857
		c-0.5645-1.7739-2.2076-3.0709-4.166-3.0709c-2.3727,0-4.3002,1.8947-4.3772,4.2494c-4.821,1.5912-8.8145,4.8708-11.2992,9.274
		c-0.3068-0.0056-0.5735,0.0504-0.7714,0.1231c-1.9966,0.7207-3.2524,4.2803-3.126,8.8574
		C2.7441,33.788,8.724,42.1562,17.3774,45.6914c0.4106,0.168,0.8579,0.2529,1.3296,0.2529h12.0415
		c0.4688,0,0.9141-0.085,1.3242-0.252C40.579,42.2187,46.0751,34.04,46.0751,24.8554
		C46.0752,21.4902,45.5688,18.7783,44.5264,16.5645z M29.2557,32.8705c-1.8296-2.117-4.263-3.2845-6.8558-3.2845
		c-2.5961,0-5.0244,1.1697-6.8536,3.2876c-1.1129-1.454-1.7821-3.2647-1.7821-5.2329c0-1.967,0.6685-3.7766,1.7801-5.2301
		c1.83,2.1175,4.2626,3.2848,6.8557,3.2848c2.5961,0,5.0244-1.1697,6.8536-3.2876c1.1129,1.454,1.7821,3.2647,1.7821,5.2329
		C31.0356,29.6075,30.3672,31.417,29.2557,32.8705z M28.6162,33.6201c-1.5721,1.6339-3.7753,2.6563-6.2163,2.6563
		c-2.4359,0-4.6352-1.0178-6.2067-2.6457c0.0141-0.0131,0.0323-0.019,0.045-0.034c1.6436-1.9414,3.8315-3.0107,6.1616-3.0107
		c2.3052,0,4.4771,1.0498,6.1162,2.9561C28.5449,33.5755,28.5815,33.5961,28.6162,33.6201z M13.272,24.577l-2.5441-4.0279
		c1.3743-3.1988,3.8208-5.7525,6.9508-7.286v5.9868C15.6221,20.4117,14.0366,22.3055,13.272,24.577z M28.5615,21.6846
		c-1.6436,1.9414-3.8315,3.0107-6.1616,3.0107c-2.3052,0-4.4771-1.0498-6.1157-2.957c-0.0288-0.0334-0.0654-0.0538-0.1-0.0777
		c1.5721-1.6335,3.775-2.6557,6.2158-2.6557c2.4355,0,4.6345,1.0175,6.2059,2.6449C28.5919,21.6628,28.5742,21.6697,28.5615,21.6846
		z M22.0703,3.3652c1.8696,0,3.3911,1.5215,3.3911,3.3916v1.0469h-1.1636c-0.2764,0-0.5,0.2236-0.5,0.5s0.2236,0.5,0.5,0.5h1.1636
		v0.2529v9.4553c-0.9633-0.324-1.9905-0.507-3.0615-0.507c-1.3185,0-2.5756,0.2674-3.7212,0.7489V6.7568
		C18.6787,4.8867,20.2002,3.3652,22.0703,3.3652z M17.6787,7.6847v4.4667c-3.3517,1.5161-6.0047,4.1135-7.5845,7.3943l-1.4672-2.323
		C8.2055,16.686,7.7902,16.3593,7.4,16.1575C9.7119,12.1855,13.3264,9.2078,17.6787,7.6847z M31.6948,44.7666
		c-0.2891,0.1182-0.6079,0.1777-0.9463,0.1777H18.707c-0.3413,0-0.6616-0.0605-0.9517-0.1787
		C9.4634,41.3779,3.7329,33.3711,3.4966,24.8418c-0.1265-4.5498,1.1445-7.4131,2.4653-7.8896
		c0.7622-0.2773,1.4414,0.3311,1.8486,0.8457l5.0371,7.9795c0.0234,0.0372,0.0564,0.0628,0.0869,0.0916
		c-0.1075,0.5751-0.1704,1.1658-0.1704,1.7717c0,5.3135,4.3228,9.6357,9.6357,9.6357s9.6357-4.3223,9.6357-9.6357
		c0-3.8611-2.2878-7.1895-5.5742-8.7256V9.0566V8.8037h1.1641c0.2764,0,0.5-0.2236,0.5-0.5s-0.2236-0.5-0.5-0.5h-1.1592
		c0.0263-1.7421,1.4476-3.1533,3.1968-3.1533c1.7651,0,3.2012,1.4365,3.2012,3.2012v2.1299h-1.1636c-0.2764,0-0.5,0.2236-0.5,0.5
		s0.2236,0.5,0.5,0.5h1.1636v13.708c0,0.2764,0.2236,0.5,0.5,0.5s0.5-0.2236,0.5-0.5V11.6367
		c0.0001-0.0034,0.002-0.0063,0.002-0.0097v-0.6455h1.1616c0.2764,0,0.5-0.2236,0.5-0.5s-0.2236-0.5-0.5-0.5h-1.1111
		c0.2401-1.4268,1.4756-2.5205,2.9695-2.5205c1.6655,0,3.0205,1.3555,3.0205,3.0205v1.1762
		c-0.2781-0.1249-0.5528-0.2261-0.8184-0.2846c-0.269-0.0586-0.5366,0.1113-0.5957,0.3809
		c-0.0596,0.2695,0.1108,0.5361,0.3809,0.5957c0.3279,0.0723,0.678,0.2302,1.0332,0.4306v11.9092c0,0.2764,0.2236,0.5,0.5,0.5
		s0.5-0.2236,0.5-0.5V13.4737c1.0579,0.8799,2.0749,2.1562,2.7148,3.5165c0.978,2.0781,1.4536,4.6504,1.4536,7.8652
		C45.0752,33.6318,39.8232,41.4473,31.6948,44.7666z"/>
</g>
<g id="Margin" class="st0">
	<rect x="1" y="1" class="st1" width="48" height="48"/>
</g>
<g id="Guides" class="st0">
</g>
<g id="LABELS">
	<g>
		<g>
			<g>
				<g>
					<g>
						<g>
							<g>
								<g>
									<g>
										<g>
											<g>
												<g>
													<g>
														<text transform="matrix(1 0 0 1 -0.1155 55.1228)" class="st2 st3">baseball-glove</text>
													</g>
												</g>
											</g>
										</g>
									</g>
								</g>
							</g>
						</g>
					</g>
				</g>
			</g>
		</g>
	</g>
</g>
</svg>
