<?xml version="1.0" encoding="UTF-8"?><svg xmlns="http://www.w3.org/2000/svg" viewBox="0 0 50 50"><g id="uuid-a972dbd9-ecca-469a-9e84-cb453430f132"><path d="M24.27,.82c-.28,0-.5,.22-.5,.5V47.75c0,.28,.22,.5,.5,.5s.5-.22,.5-.5V1.32c0-.28-.22-.5-.5-.5Z"/><path d="M18.33,14.56c-1.28-.97-2.68-1.08-3.41-1.06l-5.89,.02c-.71,.04-2.07,.26-3.27,1.28-2.15,1.83-1.93,4.65-1.9,4.91v10.2c0,.28,.08,.98,.64,1.54,.65,.64,1.64,.81,2.47,.42,.09-.04,.18-.09,.26-.15v14.03c0,1.48,1.21,2.69,2.69,2.69,.9,0,1.7-.45,2.19-1.13,.49,.68,1.29,1.13,2.19,1.13,1.48,0,2.69-1.21,2.69-2.69v-14.01c.34,.22,.75,.35,1.19,.35,1.21,0,2.19-.98,2.19-2.19v-10.48c.02-.32,.19-3.14-2.06-4.86Zm1.06,15.34c0,.66-.53,1.19-1.19,1.19s-1.19-.53-1.19-1.19v-10.7c0-.28-.22-.5-.5-.5s-.5,.22-.5,.5v26.55c0,.93-.76,1.69-1.69,1.69s-1.69-.76-1.69-1.69h0v-14.47c0-.28-.22-.5-.5-.5s-.5,.22-.5,.5v14.47h0c0,.93-.76,1.69-1.69,1.69s-1.69-.76-1.69-1.69v-15.85h0v-10.7c0-.28-.22-.5-.5-.5s-.5,.22-.5,.5v10.69c-.01,.46-.28,.88-.69,1.07-.44,.21-1,.12-1.34-.22-.3-.3-.34-.69-.35-.84v-10.24c-.03-.26-.21-2.6,1.55-4.1,.98-.83,2.1-1.01,2.65-1.04l5.87-.02h.02c.59-.02,1.74,.06,2.78,.85,1.86,1.42,1.68,3.88,1.67,4.02v10.52Z"/><path d="M12.13,11.99c2.6,0,4.72-2.12,4.72-4.72s-2.12-4.72-4.72-4.72-4.72,2.12-4.72,4.72,2.12,4.72,4.72,4.72Zm0-8.44c2.05,0,3.72,1.67,3.72,3.72s-1.67,3.72-3.72,3.72-3.72-1.67-3.72-3.72,1.67-3.72,3.72-3.72Z"/><path d="M44.62,14.56c-.43-.33-.88-.56-1.31-.71v-.38c0-.28-.22-.5-.5-.5h-8.77c-.28,0-.5,.22-.5,.5v.45c-.48,.19-.99,.47-1.48,.88-2.14,1.82-1.93,4.65-1.9,4.91v10.2c0,.28,.08,.98,.64,1.54,.65,.64,1.64,.81,2.47,.42,.09-.04,.18-.09,.26-.15v14.03c0,1.48,1.21,2.69,2.69,2.69,.9,0,1.7-.45,2.19-1.13,.49,.68,1.29,1.13,2.19,1.13,1.48,0,2.69-1.21,2.69-2.69v-14.01c.34,.22,.75,.35,1.19,.35,1.21,0,2.19-.98,2.19-2.19v-10.48c.02-.32,.18-3.15-2.06-4.86Zm1.06,15.34c0,.66-.53,1.19-1.19,1.19s-1.19-.53-1.19-1.19V14.92c.24,.11,.47,.25,.71,.43,1.85,1.42,1.68,3.88,1.67,4.02v10.52Zm-6.76,15.85v-6.33h3.39v6.33c0,.93-.76,1.69-1.69,1.69s-1.69-.76-1.69-1.69Zm-4.39,0v-6.33h3.39v6.33c0,.93-.76,1.69-1.69,1.69s-1.69-.76-1.69-1.69Zm-3.03-15.01c-.3-.3-.34-.69-.35-.84v-10.24c-.03-.26-.21-2.61,1.55-4.1,.27-.23,.55-.41,.83-.55v14.87c-.01,.46-.28,.88-.69,1.07-.44,.21-1,.12-1.34-.22Zm10.8-16.77v24.45h-7.77V13.96h7.77Z"/><path d="M38.42,11.99c2.6,0,4.72-2.12,4.72-4.72s-2.12-4.72-4.72-4.72-4.72,2.12-4.72,4.72,2.12,4.72,4.72,4.72Zm0-8.44c2.05,0,3.72,1.67,3.72,3.72s-1.67,3.72-3.72,3.72-3.72-1.67-3.72-3.72,1.67-3.72,3.72-3.72Z"/></g><g id="uuid-ca93bee0-b1e9-48dd-b4a5-9d37dc0eddf1"><text transform="translate(.32 55.07)" font-family="Roboto-Regular, Roboto" font-size="6"><tspan x="0" y="0">bath</tspan><tspan x="11.89" y="0" letter-spacing="0em">r</tspan><tspan x="13.87" y="0">oom</tspan></text></g></svg>