<svg xmlns="http://www.w3.org/2000/svg" viewBox="0 0 50 50"><g id="ac5eab0a-cf66-4992-a216-729378ca3c6c" data-name="ICONS"><rect x="45.39" y="1.11" width="2.08" height="2.08" rx="1.04" fill="none"/><path d="M48.1,42.38h-4l-.15,0-.12,0h-.23V24.8C43.58,16.61,36.05,10,26.81,10S10,16.61,10,24.8V42.36H9.65l-.13,0H5.4v3.74H22.32a2.69,2.69,0,0,1-.14-.75h5.14a2.69,2.69,0,0,1-.14.75H48.1Z" fill="#fdd600"/><path d="M46.85,39.63h-4V23.05c0-8-6.76-14.69-15.46-15.7a3.58,3.58,0,1,0-4.73,0C14,8.42,7.29,15,7.29,23.05V39.63H3.15a.5.5,0,0,0-.5.5v4.74a.5.5,0,0,0,.5.5h18a3.57,3.57,0,0,0,7.14,0H46.85a.5.5,0,0,0,.5-.5V40.13A.5.5,0,0,0,46.85,39.63ZM22.18,45.37h5.14a2.57,2.57,0,0,1-5.14,0Zm24.17-1H3.65V40.63H7.77l.13,0,34.16,0h0l.12,0,.15,0h4ZM22.42,4.69a2.58,2.58,0,1,1,3.07,2.53l-.43,0-.52,0A2.57,2.57,0,0,1,22.42,4.69ZM25.06,8.2c9.24,0,16.77,6.66,16.77,14.85V39.63l-33.54,0V23.05C8.29,14.86,15.81,8.2,25.06,8.2Z" fill="#231f20"/></g><g id="a2d410d5-75a6-488e-8317-ae24de3e0df9" data-name="LABELS"><text transform="translate(-0.17 55.01)" font-size="6" fill="#231f20" font-family="Roboto-Regular, Roboto">bell</text></g></svg>