<?xml version="1.0" encoding="UTF-8"?><svg id="uuid-b8780aa8-e58a-45c6-8d48-29d62e98a161" xmlns="http://www.w3.org/2000/svg" viewBox="0 0 50 50"><text transform="translate(0 56.67)" font-family="MyriadPro-Regular, &apos;Myriad Pro&apos;" font-size="8"><tspan x="0" y="0">benefits</tspan></text><g><path d="M42.46,40.18c-.88-.58-1.97-.75-2.96-.47l-10.43,2.1c.1-.69-.06-1.39-.47-1.98-.45-.65-1.16-1.09-1.88-1.18l-10.69-2.8s-.09-.02-.13-.02h-6.42v-.18c0-.28-.23-.5-.5-.5H3.6c-.28,0-.5,.22-.5,.5v10.94c0,.27,.22,.5,.5,.5h5.38c.27,0,.5-.23,.5-.5v-.78l16.31,3.28s.06,.01,.09,.01c.04,0,.07-.01,.1-.01l14.96-3.01c1.85-.3,3.18-1.95,2.97-3.66-.11-.89-.64-1.7-1.45-2.24Zm-33.98,5.91H4.1v-9.94h4.38v9.94Zm32.28-.99l-14.88,2.99-16.4-3.3v-7.96h6.36l10.68,2.79c.51,.08,.96,.35,1.26,.78,.29,.42,.4,.93,.29,1.4-.21,.98-1.26,1.56-2.36,1.32l-10.75-2.7c-.27-.06-.54,.1-.6,.37-.07,.27,.09,.54,.36,.61l10.76,2.7c.25,.05,.49,.08,.72,.08,1.04,0,1.96-.49,2.48-1.27l11.06-2.23c.74-.21,1.53-.09,2.17,.34,.57,.37,.93,.93,1.01,1.52,.13,1.04-.7,2.32-2.16,2.56Z"/><path d="M36.7,17.52c-4.52,0-8.2,3.67-8.2,8.19s3.68,8.2,8.2,8.2,8.2-3.68,8.2-8.2-3.68-8.19-8.2-8.19Zm0,15.39c-3.97,0-7.2-3.23-7.2-7.2s3.23-7.19,7.2-7.19,7.2,3.22,7.2,7.19-3.23,7.2-7.2,7.2Z"/><path d="M27,18.1c4.52,0,8.2-3.68,8.2-8.2S31.52,1.7,27,1.7s-8.2,3.68-8.2,8.2,3.68,8.2,8.2,8.2Zm0-15.4c.4,0,.79,.03,1.17,.11,3.42,.55,6.03,3.52,6.03,7.09s-2.61,6.54-6.03,7.09c-.38,.08-.77,.11-1.17,.11-3.97,0-7.2-3.23-7.2-7.2s3.23-7.2,7.2-7.2Z"/><path d="M38.95,20.44c-.74-.23-1.41-.11-1.84,.04-.14,.05-.29,.08-.43,.09-.17,0-.34,0-.44-.02-.42-.16-1.07-.3-1.8-.1-1.37,.39-2.19,1.72-2.27,2.78-.06,.9,.35,1.96,.63,2.42,.03,.06,.13,.22,.19,.44,.06,.22,.06,.4,.06,.49,.01,.69,.08,1.76,.16,2.28,.08,.5,.41,2.15,1.31,2.25h.1c.59,0,1.18-.61,2.03-3.28,0,0,.08-.08,.09-.1l.08,.11c.79,2.43,1.4,3.32,2.16,3.27,.95-.09,1.25-1.82,1.28-2.02,.08-.46,.07-.97,.06-1.47,0-.33-.01-.67,.01-1,0-.07,.02-.27,.1-.51,.06-.16,.12-.27,.15-.31,.03-.06,.82-1.42,.62-2.76-.18-1.16-1.12-2.26-2.25-2.6Zm.76,4.86c-.03,.06-.13,.23-.22,.47-.13,.38-.15,.69-.16,.79-.02,.35-.02,.72-.01,1.08,.01,.47,.02,.92-.04,1.29-.08,.5-.27,.94-.4,1.12-.15-.17-.52-.72-1.09-2.46-.11-.49-.54-.85-1.04-.86h-.01c-.5,0-.94,.35-1.04,.79-.55,1.73-.92,2.32-1.08,2.52-.15-.24-.33-.78-.42-1.34-.08-.47-.14-1.48-.15-2.14,0-.12,0-.39-.1-.74-.1-.36-.25-.6-.3-.69-.19-.32-.52-1.18-.48-1.83,.05-.73,.64-1.63,1.54-1.89,.47-.13,.9-.03,1.24,.09,.27,.06,.54,.08,.81,.06,.23-.01,.46-.06,.67-.14,.29-.09,.74-.17,1.23-.02,.75,.22,1.43,1.01,1.55,1.79,.02,.1,.02,.21,.02,.31,0,.75-.35,1.53-.52,1.8Z"/><path d="M25.63,14.87v.76c0,.28,.23,.5,.5,.5h1.91c.28,0,.5-.22,.5-.5v-.76c1.36-.35,2.28-1.56,2.28-3.09,0-1.68-.97-2.68-3.24-3.34-.68-.2-1.02-.32-1.19-.43-.17-.1-.17-.19-.17-.31,0-.19,0-.5,.7-.5,.3,0,.5,.06,.64,.18,.2,.17,.24,.42,.24,.52,.02,.26,.24,.46,.5,.46h1.79c.14,0,.27-.05,.37-.15,.09-.11,.14-.24,.13-.38-.1-1.41-.9-2.51-2.05-2.88v-.78c0-.28-.22-.5-.5-.5h-1.91c-.27,0-.5,.22-.5,.5v.76c-1.16,.32-2.22,1.36-2.22,2.95s.91,2.47,3.14,3.08c1.35,.39,1.42,.65,1.42,1.04,0,.22,0,.57-.88,.57-.65,0-1.01-.3-1.11-.92-.04-.24-.25-.42-.5-.42h-1.8c-.13,0-.27,.06-.36,.16-.1,.1-.14,.23-.14,.37,.1,1.58,1.05,2.76,2.45,3.11Zm-.54-2.64c.29,.85,1.02,1.34,2,1.34,1.7,0,1.88-1.1,1.88-1.57,0-1.28-1.02-1.68-2.15-2-2.02-.56-2.41-1.2-2.41-2.12,0-1.26,.92-1.94,1.78-2.04,.25-.03,.44-.25,.44-.5v-.67h.91v.68c0,.25,.18,.46,.43,.49,.75,.11,1.32,.69,1.54,1.52h-.81c-.08-.23-.22-.5-.48-.73-.32-.28-.76-.43-1.3-.43-1.25,0-1.7,.78-1.7,1.5,0,1.1,.92,1.36,2.08,1.7,2.32,.68,2.52,1.55,2.52,2.38,0,.98-.57,2.04-1.83,2.18-.26,.02-.45,.24-.45,.49v.68h-.91v-.68c0-.25-.19-.46-.44-.49-.79-.1-1.66-.61-1.93-1.73h.83Z"/><path d="M17.3,33.91c4.52,0,8.2-3.68,8.2-8.2s-3.68-8.19-8.2-8.19-8.2,3.67-8.2,8.19,3.68,8.2,8.2,8.2Zm0-15.39c3.97,0,7.2,3.22,7.2,7.19s-3.23,7.2-7.2,7.2-7.2-3.23-7.2-7.2,3.23-7.19,7.2-7.19Z"/><path d="M15.3,30.94c0,.27,.23,.5,.5,.5h3c.28,0,.5-.23,.5-.5v-3.23h3.23c.27,0,.5-.22,.5-.5v-3c0-.27-.23-.5-.5-.5h-3.23v-3.22c0-.28-.22-.5-.5-.5h-3c-.27,0-.5,.22-.5,.5v3.22h-3.22c-.28,0-.5,.23-.5,.5v3c0,.28,.22,.5,.5,.5h3.22v3.23Zm-2.72-4.23v-2h3.22c.28,0,.5-.22,.5-.5v-3.22h2v3.22c0,.28,.23,.5,.5,.5h3.23v2h-3.23c-.27,0-.5,.23-.5,.5v3.23h-2v-3.23c0-.27-.22-.5-.5-.5h-3.22Z"/></g></svg>