<?xml version="1.0" encoding="UTF-8"?><svg xmlns="http://www.w3.org/2000/svg" viewBox="0 0 50 50"><g id="uuid-04b62744-448a-4d4d-8cd1-a3c10d8f81cd"><g><path d="M24.94,19.36c-2.34,0-4.24,1.9-4.24,4.24s1.9,4.24,4.24,4.24,4.24-1.9,4.24-4.24-1.9-4.24-4.24-4.24Zm0,7.48c-1.79,0-3.24-1.45-3.24-3.24s1.45-3.24,3.24-3.24,3.24,1.45,3.24,3.24-1.45,3.24-3.24,3.24Z"/><path d="M48.49,37.8h-1.36l-.73-5.33h1.03c.14,0,.28-.06,.38-.17,.09-.11,.14-.25,.12-.4l-2.28-16.74c-.03-.25-.25-.43-.5-.43h-1.16l-.8-5.9c-.03-.25-.25-.43-.5-.43h-1.92v-3.16c0-.28-.22-.5-.5-.5h-7.87c-.28,0-.5,.22-.5,.5v3.16h-2.79c-.28,0-.5,.22-.5,.5v5.83h-7.43v-5.83c0-.28-.22-.5-.5-.5h-2.75v-3.16c0-.28-.22-.5-.5-.5h-7.87c-.28,0-.5,.22-.5,.5v3.16h-1.88c-.25,0-.46,.18-.5,.43l-.81,5.9h-1.16c-.25,0-.46,.18-.5,.43L1.94,31.91c-.02,.14,.02,.29,.12,.4,.09,.11,.23,.17,.38,.17h1.03l-.73,5.33H1.19c-.28,0-.5,.22-.5,.5v5.95c0,.28,.22,.5,.5,.5H22.37c.28,0,.5-.22,.5-.5v-5.95c0-.28-.22-.5-.5-.5h-1.48v-5.33h7.72v5.33h-1.29c-.28,0-.5,.22-.5,.5v5.95c0,.28,.22,.5,.5,.5h21.18c.28,0,.5-.22,.5-.5v-5.95c0-.28-.22-.5-.5-.5Zm-.5,5.95H27.82v-4.95h20.18v4.95ZM6.32,15.73H44.72l2.15,15.74H3.01l2.15-15.74h1.16ZM32.9,5.75h6.87v2.66h-6.87v-2.66Zm-3.29,3.66h12.64l.73,5.33h-13.37v-5.33ZM10.07,5.75h6.87v2.66h-6.87v-2.66Zm-2.45,3.66h12.56v5.33H6.89l.73-5.33Zm14.25,34.35H1.69v-4.95H21.87v4.95Zm-1.98-5.95H3.74l.73-5.33h15.42v5.33Zm9.72-5.33h15.79l.73,5.33H29.61v-5.33Z"/></g></g><g id="uuid-1d449fc3-e8de-477f-876e-bb811209c746"><text transform="translate(.39 54.96)" font-family="Roboto-Regular, Roboto" font-size="6"><tspan x="0" y="0">binoculars</tspan></text></g></svg>