<svg xmlns="http://www.w3.org/2000/svg" viewBox="0 0 50 50"><g id="e18d6c99-ecef-42e0-9e21-340b11ae176f" data-name="ICONS"><path d="M11.18,21.08a7.47,7.47,0,0,0,2.28-3.64,7.42,7.42,0,0,0,.11-4.29,3.13,3.13,0,0,0-2-2.27,2.61,2.61,0,0,0-.69-.1,3.54,3.54,0,0,0-2.2.91,7.49,7.49,0,0,0-2.28,3.63c-.92,3-.09,6,1.84,6.56A3.15,3.15,0,0,0,11.18,21.08Z" fill="#fdd600"/><path d="M26.55,22.75H23.73V6.18a.5.5,0,0,0-.5-.5.5.5,0,0,0-.5.5V23.25a.5.5,0,0,0,.5.5h3.32a.5.5,0,0,0,.5-.5A.5.5,0,0,0,26.55,22.75Z" fill="#231f20"/><path d="M43.81,14.55a.5.5,0,0,0,.08-.7.49.49,0,0,0-.7-.08l-.43.33v1.28Z" fill="none"/><path d="M35.41,15.85A5.82,5.82,0,0,1,41.23,10a5.54,5.54,0,0,1,1.53.21V4.51H21.51V28.3H42.76V21.46a6,6,0,0,1-1.53.21A5.83,5.83,0,0,1,35.41,15.85Z" fill="#fdd600"/><path d="M41.2,14.64a1.23,1.23,0,1,0,1.22,1.22c0-.06,0-.12,0-.18l.37-.3V14.1l-.92.74A1.18,1.18,0,0,0,41.2,14.64Z" fill="#fdd600"/><path d="M48.05,15.85a6.84,6.84,0,0,0-6-6.77V2.26a.5.5,0,0,0-.5-.5H19.26a.5.5,0,0,0-.5.5V27.05a.5.5,0,0,0,.5.5H30.09a32.91,32.91,0,0,1-1.87,5.37C23.59,43.23,14.79,49.36,8.58,46.57c-3-1.33-4.9-4.5-5.46-8.93A28.33,28.33,0,0,1,5.73,22.82c.26-.57.53-1.12.81-1.67a3.25,3.25,0,0,0,.69.08,4.47,4.47,0,0,0,2.83-1.13A8.57,8.57,0,0,0,12.67,16a8.54,8.54,0,0,0,.11-4.87,4.08,4.08,0,0,0-2.62-2.93,4.07,4.07,0,0,0-3.81,1,8.5,8.5,0,0,0-2.61,4.11,8.54,8.54,0,0,0-.11,4.87,4.34,4.34,0,0,0,2,2.65c-.27.53-.53,1.06-.78,1.61A29.31,29.31,0,0,0,2.13,37.77c.61,4.79,2.75,8.24,6,9.71a8.61,8.61,0,0,0,3.58.75c6.16,0,13.35-5.91,17.38-14.9a34.39,34.39,0,0,0,2-5.78H41.51a.5.5,0,0,0,.5-.5V22.62A6.83,6.83,0,0,0,48.05,15.85ZM4.7,13.57A7.49,7.49,0,0,1,7,9.94,3.54,3.54,0,0,1,9.18,9a2.61,2.61,0,0,1,.69.1,3.13,3.13,0,0,1,2,2.27,7.42,7.42,0,0,1-.11,4.29,7.47,7.47,0,0,1-2.28,3.64,3.15,3.15,0,0,1-2.89.8C4.61,19.55,3.78,16.61,4.7,13.57Zm30.71,2.28a5.82,5.82,0,1,1,5.82,5.82A5.82,5.82,0,0,1,35.41,15.85ZM30.5,26.55l-.15,0v0H19.76V2.76H41V9.05a6.81,6.81,0,0,0,0,13.61v3.89Z" fill="#231f20"/><path d="M42.42,15.86c0-.06,0-.12,0-.18l1.42-1.13a.5.5,0,0,0,.08-.7.49.49,0,0,0-.7-.08l-1.35,1.07a1.18,1.18,0,0,0-.64-.2,1.23,1.23,0,1,0,1.22,1.22Z" fill="#231f20"/></g><g id="b164bc88-666f-4ecb-878b-b09032fe3e00" data-name="LABELS"><text transform="translate(-0.14 54.84)" font-size="6" fill="#231f20" font-family="Roboto-Regular, Roboto">blood-p<tspan x="20.07" y="0" letter-spacing="-0.01em">r</tspan><tspan x="22.05" y="0">essu</tspan><tspan x="34.72" y="0" letter-spacing="-0.01em">r</tspan><tspan x="36.69" y="0">e</tspan></text></g></svg>