<svg id="b9fe9362-8d10-448a-9b4f-a466dd7ae049" data-name="ICONS" xmlns="http://www.w3.org/2000/svg" viewBox="0 0 50 50"><path d="M30,22.48l.3,2.64a.51.51,0,0,1-.12.39.5.5,0,0,1-.38.17H23.68a.5.5,0,0,1-.38-.17.51.51,0,0,1-.12-.39l.3-2.64H4.26L6.05,38H21.7l1-8.69a.49.49,0,0,1,.49-.44h7.12a.49.49,0,0,1,.49.44l1,8.69H47.46l1.78-15.54ZM9.31,27.1a1.5,1.5,0,0,1-3,0V24h3Zm8.61,0a1.5,1.5,0,0,1-3,0V24h3Zm17.15,0a1.5,1.5,0,0,1-3,0V24h3Zm8.61,0a1.5,1.5,0,0,1-3,0V24h3Z" fill="#fdd600"/><path d="M48.56,17h-.43a3.71,3.71,0,0,0-3.66-3.21H31.29A3.69,3.69,0,0,0,27.63,17H27.2a.5.5,0,0,0-.5.5v2.72a.51.51,0,0,0,.5.5h.06l.25,2.2h-5l.25-2.2h.06a.51.51,0,0,0,.5-.5V17.51a.5.5,0,0,0-.5-.5h-.43a3.69,3.69,0,0,0-3.66-3.21H5.53A3.71,3.71,0,0,0,1.87,17H1.44a.5.5,0,0,0-.5.5v2.72a.51.51,0,0,0,.5.5H1.5l1.85,16.1a.51.51,0,0,0,.5.44H20.39a.5.5,0,0,0,.5-.44l1-8.69h6.22l1,8.69a.5.5,0,0,0,.5.44H46.15a.51.51,0,0,0,.5-.44l1.85-16.1h.06a.51.51,0,0,0,.5-.5V17.51A.5.5,0,0,0,48.56,17ZM30.05,36.27,28.27,20.73h4.8V23H31.58a.5.5,0,0,0-.5.5v3.6a2.5,2.5,0,0,0,5,0V23.5a.5.5,0,0,0-.5-.5h-1.5V20.73h7.61V23H40.19a.5.5,0,0,0-.5.5v3.6a2.5,2.5,0,0,0,5,0V23.5a.5.5,0,0,0-.5-.5h-1.5V20.73h4.81L45.7,36.27ZM27.7,19.73V18h5.37v1.72H27.7Zm14-1.72v1.72H34.07V18Zm-9.6,9.09V24h3v3.1a1.5,1.5,0,0,1-3,0ZM43.68,24v3.1a1.5,1.5,0,0,1-3,0V24Zm-1-4.27V18h5.38v1.72H42.68ZM31.29,14.8H44.47A2.71,2.71,0,0,1,47.13,17H28.62A2.72,2.72,0,0,1,31.29,14.8ZM4.3,36.27,2.51,20.73H7.32V23H5.82a.5.5,0,0,0-.5.5v3.6a2.5,2.5,0,0,0,5,0V23.5a.5.5,0,0,0-.5-.5H8.32V20.73h7.61V23h-1.5a.5.5,0,0,0-.5.5v3.6a2.5,2.5,0,0,0,5,0V23.5a.5.5,0,0,0-.5-.5H16.93V20.73h4.8L20,36.27ZM1.94,19.73V18H7.32v1.72H1.94Zm14-1.72v1.72H8.32V18Zm6,0h.38v1.72H16.93V18ZM9.31,24v3.1a1.5,1.5,0,0,1-3,0V24Zm8.61,0v3.1a1.5,1.5,0,0,1-3,0V24ZM5.53,14.8H18.71A2.72,2.72,0,0,1,21.38,17H2.87A2.71,2.71,0,0,1,5.53,14.8ZM22,27.14l.37-3.21h5.26L28,27.14Z" fill="#231f20"/></svg>