<?xml version="1.0" encoding="UTF-8"?>
<svg xmlns="http://www.w3.org/2000/svg" viewBox="0 0 50 50">
  <defs>
    <style>
      .cls-1 {
        fill: #1f1c1d;
      }

      .cls-2 {
        fill: #ffcd00;
      }

      .cls-3 {
        fill: #221f1f;
        font-family: Roboto-Regular, Roboto;
        font-size: 5px;
      }
    </style>
  </defs>
  <g id="Gold_Offset">
    <path class="cls-2" d="M44.1,31.16v-8.23h2.67v-2.98h-.02v-3.23c0-.05.01-.1.02-.15h-2.38s0,0,0,0h-1.16v-7.99H5.26v8.04h2.73c-.55.18-.97.88-.97,1.71v3.18c0,.52.17.99.43,1.31h-3.58c-.7,0-1.27.8-1.27,1.79v4.96c0,.98.57,1.78,1.27,1.78h3.15v12.05h41.49v-12.25h-4.41ZM18.92,27.8l-2.43-1.92-2.43,1.91v-7.85h4.86v7.85Z"/>
  </g>
  <g id="Icon_Outline">
    <g>
      <path class="cls-1" d="M48.89,42.41h-.38v-11.05h.38c.28,0,.5-.22.5-.5s-.22-.5-.5-.5h-4.8v-7.09h3.38c.28,0,.5-.22.5-.5s-.22-.5-.5-.5h-.5v-5.53s-.01-.08-.03-.12h.53c.28,0,.5-.22.5-.5s-.22-.5-.5-.5h-2.08c.28-.42.46-.92.46-1.48v-5.07c0-1.37-1.02-2.48-2.27-2.48H2.87c-.28,0-.5.22-.5.5s.22.5.5.5h.38v8.04h-.38c-.28,0-.5.22-.5.5s.22.5.5.5h2.61c-.28.42-.46.92-.46,1.48v2.68c0,.56.17,1.07.46,1.48h-2.61c-1.25,0-2.27,1.11-2.27,2.48v4.12c0,1.36,1,2.46,2.23,2.48-.29.42-.46.93-.46,1.49v8.09c0,1.37,1.02,2.48,2.27,2.48h44.25c.28,0,.5-.22.5-.5s-.22-.5-.5-.5ZM45.98,22.27h-26.05v-2.32h26.05v2.32ZM46,16.62s-.03.08-.03.12v2.2H10.92c-.28,0-.5.22-.5.5s.22.5.5.5h2.15v2.32h-5.78c-.7,0-1.27-.67-1.27-1.48v-2.68c0-.82.56-1.48,1.26-1.48h36.32s0,0,0,0h2.4ZM18.92,19.95v7.85l-2.43-1.92-2.43,1.91v-7.85h4.86ZM43.21,7.59h.38c.7,0,1.27.67,1.27,1.48v5.07c0,.82-.56,1.48-1.26,1.48h-.39V7.59ZM4.26,15.63v-5.03s.01,0,.02,0h29.61c.28,0,.5-.22.5-.5s-.22-.5-.5-.5H4.28s-.01,0-.02,0v-2.02h37.96v8.04H7.29s0,0,0,0h-3.02ZM2.87,30.36c-.7,0-1.27-.67-1.27-1.48v-4.12c0-.82.57-1.48,1.27-1.48h10.19v3.04h-7.55c-.28,0-.5.22-.5.5s.22.5.5.5h7.55v.93c0,.33.18.63.45.76.1.05.2.07.3.07.16,0,.31-.05.44-.16l2.24-1.76,2.24,1.76c.22.17.5.2.75.08.27-.13.45-.43.45-.76v-.93h18.8c.28,0,.5-.22.5-.5s-.22-.5-.5-.5h-18.8v-3.04h23.17v7.09H2.87ZM5.02,42.41h-.38c-.7,0-1.27-.67-1.27-1.48v-8.09c0-.82.57-1.48,1.27-1.48h.38v11.05ZM47.51,33.37H10.67c-.28,0-.5.22-.5.5s.22.5.5.5h36.83v5.03H13.47c-.28,0-.5.22-.5.5s.22.5.5.5h34.04v2.01H6.02v-11.05h23.43s0,0,.01,0h18.04v2.01Z"/>
      <path class="cls-1" d="M7.67,36.89c0,.28.22.5.5.5h32.46c.28,0,.5-.22.5-.5s-.22-.5-.5-.5H8.17c-.28,0-.5.22-.5.5Z"/>
      <path class="cls-1" d="M40.08,13.11c0-.28-.22-.5-.5-.5H6.72c-.28,0-.5.22-.5.5s.22.5.5.5h32.85c.28,0,.5-.22.5-.5Z"/>
    </g>
  </g>
  <g id="Names">
    <text class="cls-3" transform="translate(0 53.76)"><tspan x="0" y="0">books</tspan></text>
  </g>
</svg>