<?xml version="1.0" encoding="UTF-8"?>
<svg xmlns="http://www.w3.org/2000/svg" viewBox="0 0 50 50">
  <defs>
    <style>
      .cls-1 {
        fill: #1f1c1d;
      }

      .cls-2 {
        fill: #221f1f;
        font-family: Roboto-Regular, Roboto;
        font-size: 5px;
      }

      .cls-3 {
        letter-spacing: -.02em;
      }
    </style>
  </defs>
  <g id="Icon_Outline">
    <path class="cls-1" d="M49.41,19.1c-.71.08-1.43.16-2.16.24-.32-3.37-1.04-7.01-2.65-8.52-.58-.54-1.24-.81-1.99-.76-2.92.16-4.42,4.36-5.19,8.2-.35-2.38-1.08-4.7-2.5-6.2-1.04-1.1-2.36-1.66-3.92-1.66s-2.78.54-3.78,1.62c-1.14,1.22-1.83,3.04-2.23,5.02-.4-1.98-1.09-3.8-2.23-5.02-1.01-1.08-2.28-1.62-3.78-1.62s-2.88.56-3.92,1.66c-1.42,1.5-2.15,3.82-2.5,6.2-.77-3.84-2.27-8.04-5.19-8.2-.74-.05-1.4.22-1.99.76-1.61,1.5-2.34,5.15-2.65,8.52-.73-.08-1.45-.16-2.16-.24-.27-.04-.52.16-.55.44-.03.27.16.52.44.55.72.08,1.45.17,2.19.24-.08,1.16-.13,2.26-.14,3.18-.03,1.52.96,2.79,2.35,3.03.27.05.57.09.87.14,0,0,0,0,0,.01l-.03.95c-.04,1.17-.07,2.34-.05,3.47-.87-.06-1.74-.13-2.59-.2-.26-.02-.52.18-.54.46-.02.27.18.52.46.54.89.08,1.79.15,2.7.21.1,2.43.49,4.56,1.71,5.81.71.73,1.66,1.11,2.82,1.11h.01c1.06,0,1.99-.4,2.77-1.19.86-.87,1.44-2.13,1.84-3.5.2,1.81.65,3.38,1.63,4.39.77.8,1.8,1.21,3.08,1.21,3.54,0,4.91-2.61,5.47-5.61.56,3,1.93,5.6,5.47,5.6,1.28,0,2.31-.41,3.08-1.21.98-1.02,1.43-2.58,1.63-4.39.4,1.37.98,2.63,1.84,3.5.78.78,1.71,1.18,2.77,1.19h.01c1.16,0,2.1-.37,2.82-1.11,1.21-1.25,1.61-3.38,1.71-5.81.92-.07,1.82-.14,2.7-.21.28-.02.48-.26.46-.54-.02-.28-.3-.48-.54-.46-.85.07-1.71.14-2.59.2.01-1.13-.02-2.3-.05-3.47l-.03-.95s0,0,0-.01c.3-.04.61-.09.87-.14,1.39-.24,2.37-1.51,2.34-3.03-.02-.92-.06-2.02-.14-3.18.74-.08,1.48-.16,2.19-.24.27-.03.47-.28.44-.55-.03-.27-.29-.48-.55-.44ZM42.67,11.06c.45-.02.87.14,1.25.49,1.16,1.08,1.97,3.87,2.34,7.88-.38.04-.76.08-1.15.11v-.94c0-.83-.67-1.5-1.5-1.5h-2.42c-.83,0-1.5.67-1.5,1.5v1.35c-.51.03-1.04.06-1.56.09.65-4.09,2.02-8.86,4.53-8.99ZM44.12,18.61v2.42c0,.27-.22.5-.5.5h-2.42c-.27,0-.5-.22-.5-.5v-2.42c0-.27.22-.5.5-.5h2.42c.27,0,.5.22.5.5ZM36.66,24.41c-.01.12,0,.22-.01.33-.05.8-.54,1.48-1.23,1.68-1.18.35-3.32.39-6.85.46l-1.77.04c-.66-.02-1.17-.54-1.21-1.26-.04-.67-.08-1.43-.09-2.25,0-.4,0-.81,0-1.23,0-.26,0-.52.02-.78.93,0,1.86,0,2.77-.02v.19c0,.83.67,1.5,1.5,1.5h2.63c.83,0,1.5-.67,1.5-1.5v-.34s.08.02.12.02h.02c.88-.03,1.75-.07,2.62-.11.05,1.1.04,2.12,0,2.92,0,.15-.02.27-.02.35ZM31.48,29.99h-2.57c-.63,0-1.14.51-1.14,1.14v.62c-.69,0-1.38.01-2.07.01-.06-.85-.1-1.74-.12-2.66-.02-.58-.03-1.12-.06-1.63.36.28.8.44,1.27.44h.04l1.76-.04c2.49-.05,4.29-.08,5.6-.23l.02.37c.05,1.18.1,2.41.1,3.6-.56.02-1.12.04-1.68.05v-.54c0-.63-.51-1.14-1.14-1.14ZM31.63,31.13v2.57c0,.08-.06.14-.14.14h-2.57c-.08,0-.14-.06-.14-.14v-2.57c0-.08.06-.14.14-.14h2.57c.08,0,.14.06.14.14ZM21.38,29.99h-2.57c-.63,0-1.14.51-1.14,1.14v.54c-.66-.02-1.32-.04-1.98-.06,0-1.19.05-2.42.1-3.6l.02-.37c1.32.14,3.11.18,5.61.23l1.76.04h.04c.47,0,.91-.17,1.27-.44-.03.51-.04,1.05-.06,1.64-.03.92-.06,1.81-.12,2.66-.59,0-1.19,0-1.77,0v-.62c0-.63-.51-1.14-1.14-1.14ZM18.67,31.14c0-.08.06-.14.14-.14h2.57c.08,0,.14.06.14.14v2.57c0,.08-.06.14-.14.14h-2.57c-.08,0-.14-.06-.14-.14v-2.57ZM13.35,24.74c0-.11,0-.21-.01-.33,0-.09-.01-.22-.02-.39-.03-.8-.04-1.8,0-2.89.91.04,1.84.08,2.76.11v.32c0,.83.67,1.5,1.5,1.5h2.63c.83,0,1.5-.67,1.5-1.5v-.18c.92.01,1.84.02,2.77.02,0,.26.01.52.02.77,0,.43,0,.84,0,1.24-.01.82-.05,1.58-.09,2.25-.05.71-.57,1.26-1.19,1.26h-.02l-1.77-.04c-3.54-.07-5.67-.11-6.85-.46-.68-.2-1.17-.88-1.23-1.68ZM17.08,21.56v-2.63c0-.27.22-.5.5-.5h2.63c.27,0,.5.22.5.5v2.63c0,.27-.22.5-.5.5h-2.63c-.27,0-.5-.22-.5-.5ZM29.29,21.56v-2.63c0-.27.22-.5.5-.5h2.63c.27,0,.5.22.5.5v2.63c0,.27-.22.5-.5.5h-2.63c-.27,0-.5-.22-.5-.5ZM27.96,12.7c.82-.88,1.82-1.3,3.05-1.3s2.33.44,3.19,1.35c1.59,1.69,2.21,4.68,2.41,7.38-.86.04-1.73.08-2.6.11-.04,0-.07.02-.1.03v-1.35c0-.83-.67-1.5-1.5-1.5h-2.63c-.83,0-1.5.67-1.5,1.5v1.45c-.9.01-1.81.02-2.72.02.19-2.95.81-6,2.39-7.69ZM15.79,12.75c.86-.91,1.9-1.35,3.19-1.35s2.23.43,3.05,1.3c1.58,1.69,2.2,4.74,2.39,7.69-.91,0-1.82,0-2.72-.02v-1.45c0-.83-.67-1.5-1.5-1.5h-2.63c-.83,0-1.5.67-1.5,1.5v1.32c-.91-.03-1.81-.07-2.7-.11.21-2.7.82-5.69,2.41-7.38ZM6.08,11.55c.36-.33.74-.49,1.16-.49.03,0,.06,0,.09,0,2.51.13,3.87,4.9,4.53,8.99-.52-.03-1.04-.05-1.56-.09v-1.35c0-.83-.67-1.5-1.5-1.5h-2.42c-.83,0-1.5.67-1.5,1.5v.94c-.39-.04-.76-.07-1.15-.11.37-4.01,1.19-6.81,2.34-7.88ZM9.3,18.61v2.42c0,.27-.22.5-.5.5h-2.42c-.27,0-.5-.22-.5-.5v-2.42c0-.27.22-.5.5-.5h2.42c.27,0,.5.22.5.5ZM3.52,23.53c.02-1.09.07-2.13.14-3.1.38.04.76.08,1.15.11.02,0,.03,0,.05,0,.01,0,.02,0,.04,0v.5c0,.83.67,1.5,1.5,1.5h2.42c.83,0,1.5-.67,1.5-1.5v-.07c.56.03,1.13.06,1.71.09.16,1.16.26,2.21.31,3.04,0,.24.02.47.03.68,0,.03,0,.06.01.08.01.46,0,.91-.06,1.12-2.66.22-5.41-.1-7.26-.42-.88-.15-1.53-1.02-1.51-2.03ZM6.71,27.67l.03-.86c1.14.14,2.41.24,3.73.24.7,0,1.4-.03,2.1-.09.12-.01.36-.04.55-.35.32.36.72.63,1.19.77.11.03.24.06.37.09,0,0,0,0,0,0,0,1.3-.07,2.73-.27,4.1-.61-.02-1.21-.05-1.81-.07v-.56c0-.63-.51-1.14-1.14-1.14h-2.18c-.63,0-1.14.51-1.14,1.14v.32c-.49-.03-.98-.06-1.47-.1-.02-1.16.02-2.35.06-3.5ZM11.58,30.95v2.18c0,.08-.06.14-.14.14h-2.18c-.08,0-.14-.06-.14-.14v-2.18c0-.08.06-.14.14-.14h2.18c.08,0,.14.06.14.14ZM12.27,37.14c-.59.6-1.27.89-2.06.89h-.01c-.89,0-1.58-.26-2.1-.8-.97-1-1.32-2.9-1.41-5.04.48.03.95.07,1.44.09v.85c0,.63.51,1.14,1.14,1.14h2.18c.63,0,1.14-.51,1.14-1.14v-.62c.54.02,1.09.04,1.64.07-.37,1.9-.99,3.6-1.95,4.57ZM19.53,38.94c-1.01,0-1.78-.29-2.36-.9-1.05-1.09-1.39-3.13-1.46-5.42.65.02,1.31.04,1.96.06v1.03c0,.63.51,1.14,1.14,1.14h2.57c.63,0,1.14-.51,1.14-1.14v-.95c.56,0,1.12,0,1.69,0-.38,3.6-1.43,6.18-4.68,6.18ZM32.83,38.04c-.58.61-1.35.9-2.36.9-3.25,0-4.3-2.58-4.68-6.17.66,0,1.33,0,1.98-.01v.95c0,.63.51,1.14,1.14,1.14h2.57c.63,0,1.14-.51,1.14-1.14v-1.03c.56-.01,1.11-.03,1.66-.05-.07,2.29-.42,4.33-1.46,5.42ZM41.9,37.22c-.52.54-1.21.8-2.1.8h-.01c-.8,0-1.47-.29-2.06-.89-.96-.97-1.58-2.66-1.95-4.57.55-.02,1.1-.04,1.64-.06v.62c0,.63.51,1.14,1.14,1.14h2.18c.63,0,1.14-.51,1.14-1.14v-.85c.48-.03.96-.06,1.44-.09-.1,2.15-.44,4.04-1.41,5.04ZM38.42,33.13v-2.18c0-.08.06-.14.14-.14h2.18c.08,0,.14.06.14.14v2.18c0,.08-.06.14-.14.14h-2.18c-.08,0-.14-.06-.14-.14ZM43.29,27.67c.04,1.15.07,2.35.06,3.5-.49.03-.97.07-1.47.1v-.32c0-.63-.51-1.14-1.14-1.14h-2.18c-.63,0-1.14.51-1.14,1.14v.56c-.6.03-1.2.05-1.81.07-.2-1.37-.28-2.8-.27-4.1,0,0,0,0,0,0,.13-.03.26-.06.37-.09.46-.14.86-.41,1.19-.77.19.31.43.34.55.35.7.06,1.4.09,2.1.09,1.32,0,2.59-.11,3.73-.24l.03.86ZM46.48,23.53c.02,1-.63,1.88-1.51,2.03-1.86.32-4.6.64-7.26.42-.06-.21-.08-.66-.06-1.13,0-.02,0-.05,0-.07.01-.2.02-.41.03-.62.05-.84.15-1.91.31-3.09.57-.03,1.14-.06,1.71-.1v.07c0,.83.67,1.5,1.5,1.5h2.42c.83,0,1.5-.67,1.5-1.5v-.5s.02,0,.04,0c.02,0,.03,0,.05,0,.39-.04.76-.07,1.15-.11.07.97.12,2.01.13,3.1Z"/>
  </g>
  <g id="Names">
    <text class="cls-2" transform="translate(0 53.78)"><tspan x="0" y="0">b</tspan><tspan class="cls-3" x="2.81" y="0">r</tspan><tspan x="4.4" y="0">aces</tspan></text>
  </g>
</svg>