<svg xmlns="http://www.w3.org/2000/svg" viewBox="0 0 50 50"><g id="bcc16d30-b647-4cfd-8e16-add8e9896b84" data-name="ICONS"><path d="M15.13,9.2a.62.62,0,0,1-.19.45.5.5,0,0,1-.41.16,6.15,6.15,0,0,0-1-.08A6.39,6.39,0,0,0,8.92,20.55a.57.57,0,0,1,.14.48.55.55,0,0,1-.33.38,6.39,6.39,0,0,0,.81,12.17.5.5,0,0,1,.37.35.52.52,0,0,1-.1.51,6.39,6.39,0,0,0,4.48,10.62.53.53,0,0,1,.45.3,7.49,7.49,0,0,0,6.79,4.38,7.38,7.38,0,0,0,2.63-.48V3.37a6.29,6.29,0,0,0-2.63-.57A6.41,6.41,0,0,0,15.13,9.2Z" fill="#fdd600"/><path d="M43.79,21.36a.52.52,0,0,1-.32-.37.53.53,0,0,1,.13-.48A6.41,6.41,0,0,0,39,9.67a6,6,0,0,0-1,.08.49.49,0,0,1-.42-.12.5.5,0,0,1-.18-.4A6.44,6.44,0,0,0,31,2.73a6.33,6.33,0,0,0-2.64.57v46a7.46,7.46,0,0,0,9.43-3.9.53.53,0,0,1,.45-.31,6.4,6.4,0,0,0,6.11-6.4,6.47,6.47,0,0,0-1.61-4.24.48.48,0,0,1-.11-.5.5.5,0,0,1,.38-.35,6.41,6.41,0,0,0,.8-12.2Z" fill="#fdd600"/><path d="M23.39,1.12A7.41,7.41,0,0,0,12.61,7.25l-.58,0a7.43,7.43,0,0,0-7.42,7.42,7.35,7.35,0,0,0,1.6,4.6,7.41,7.41,0,0,0,.84,13.61,7.41,7.41,0,0,0,5.38,11.7,8.47,8.47,0,0,0,10.93,4,.51.51,0,0,0,.3-.46V1.57A.52.52,0,0,0,23.39,1.12ZM20,48.24a7.48,7.48,0,0,1-6.78-4.34,3.62,3.62,0,0,1,.19-2.39,3.9,3.9,0,0,1,3.35-2.15.75.75,0,0,0,.07.12,2.82,2.82,0,0,0,1.91,1.18h.07a.5.5,0,0,0,.5-.42.51.51,0,0,0-.42-.57,1.86,1.86,0,0,1-1.23-.74,1.94,1.94,0,0,1,.16-2.22.51.51,0,0,0-.11-.7.5.5,0,0,0-.7.1,3.12,3.12,0,0,0-.59,2.29,4.85,4.85,0,0,0-3.92,2.69,4.6,4.6,0,0,0-.37,2.42,6.38,6.38,0,0,1-4-10.39,5.54,5.54,0,0,0,.86.07,6.22,6.22,0,0,0,2.23-.42,6.3,6.3,0,0,0,3-2.45,3.94,3.94,0,0,0,1,.62,3.83,3.83,0,0,0,1.4.27,3.74,3.74,0,0,0,.72-.07.51.51,0,0,0,.39-.59.48.48,0,0,0-.58-.39A2.94,2.94,0,0,1,15.59,30a2.87,2.87,0,0,1-1.11-.81h0l-.07-.06s-.05-.05-.08-.06h0l-.15,0h-.07A.25.25,0,0,0,14,29l-.09,0s0,0-.08,0h0s0,0,0,.06l-.08.09h0a5.39,5.39,0,0,1-2.79,2.55A5.29,5.29,0,0,1,8,32.1,6.4,6.4,0,0,1,7,20a5.49,5.49,0,0,0,3,1.26l.5,0a5.47,5.47,0,0,0,2.28-.5.52.52,0,0,0,.25-.67.49.49,0,0,0-.66-.24,4.39,4.39,0,0,1-2.28.39,4.48,4.48,0,0,1-2.65-1.21A6.42,6.42,0,0,1,12,8.22,6.62,6.62,0,0,1,13,8.3a5.29,5.29,0,0,1,2.4,1.62,5,5,0,0,1,.89,1.63,3.67,3.67,0,0,0-1.59,2,.49.49,0,0,0,.32.63.44.44,0,0,0,.16,0,.49.49,0,0,0,.47-.34,2.54,2.54,0,0,1,3.44-1.61.5.5,0,0,0,.38-.93,3.75,3.75,0,0,0-2.23-.16A6.13,6.13,0,0,0,13.6,7.47a6.4,6.4,0,0,1,9.06-5.59V21.73a6.9,6.9,0,0,0-2.38-.51,12.23,12.23,0,0,1-.73-1.81,12.78,12.78,0,0,1-.5-2.52.52.52,0,0,0-.55-.45.5.5,0,0,0-.45.54,13.26,13.26,0,0,0,.55,2.72,11.08,11.08,0,0,0,.61,1.57,6.77,6.77,0,0,0-3.05,1.2.5.5,0,0,0,.29.9.53.53,0,0,0,.3-.09,5.74,5.74,0,0,1,2.73-1l.47,0h0a5.79,5.79,0,0,1,2.69.62V35.75a2.67,2.67,0,0,1-1.53-1,2.89,2.89,0,0,1,.1-3.34.5.5,0,0,0-.82-.58,3.86,3.86,0,0,0-.08,4.52,3.74,3.74,0,0,0,2.33,1.37v11A7.49,7.49,0,0,1,20,48.24Z" fill="#231f20"/><path d="M47.38,25.83a7.39,7.39,0,0,0-4.09-6.63,7.32,7.32,0,0,0,1.6-4.59,7.43,7.43,0,0,0-7.42-7.43l-.57,0A7.42,7.42,0,0,0,26.11,1.08a.52.52,0,0,0-.27.45V48.05a.5.5,0,0,0,.31.46,8.36,8.36,0,0,0,3.34.69,8.49,8.49,0,0,0,7.58-4.69,7.4,7.4,0,0,0,5.38-11.69A7.4,7.4,0,0,0,47.38,25.83Zm-5.89,6.23a5.29,5.29,0,0,1-2.85-.26,5.42,5.42,0,0,1-2.72-2.42A3,3,0,0,0,35.34,27a.5.5,0,0,0-.8.59,1.94,1.94,0,0,1,.16,2.22,1.84,1.84,0,0,1-1.23.75.5.5,0,0,0-.42.57.5.5,0,0,0,.49.42h.08a3,3,0,0,0,1.82-1.07,6.31,6.31,0,0,0,2.84,2.24,6,6,0,0,0,2.23.42,5.54,5.54,0,0,0,.86-.07,6.38,6.38,0,0,1-4,10.39A4.61,4.61,0,0,0,37,41.05a4.77,4.77,0,0,0-3.39-2.6c.06-.07.13-.11.18-.17a.5.5,0,0,0-.07-.71.5.5,0,0,0-.7.07,2.77,2.77,0,0,1-1.11.81,2.71,2.71,0,0,1-1.55.15.51.51,0,0,0-.59.4.5.5,0,0,0,.4.58,3.65,3.65,0,0,0,.72.07,3.59,3.59,0,0,0,1.39-.27c.08,0,.14-.08.21-.11l.19,0a3.9,3.9,0,0,1,3.41,2.15,3.62,3.62,0,0,1,.19,2.39,7.49,7.49,0,0,1-9.43,3.86V32.79a3.19,3.19,0,0,1,2,0,3.46,3.46,0,0,1,2,2.27.51.51,0,0,0,.49.39l.11,0a.49.49,0,0,0,.37-.6,4.37,4.37,0,0,0-2.58-3,4.05,4.05,0,0,0-2.38-.13V24.09a2.55,2.55,0,0,1,1.84-1.86,2.75,2.75,0,0,1,2.36.66.48.48,0,0,0,.7,0,.5.5,0,0,0,0-.71,3.7,3.7,0,0,0-3.3-.92,3.47,3.47,0,0,0-1.6.89V1.84a6.39,6.39,0,0,1,9.05,5.6A6.09,6.09,0,0,0,32.3,11.1a2.76,2.76,0,0,0-.46-.19,3.57,3.57,0,0,0-2.2,0,.49.49,0,0,0-.33.62.51.51,0,0,0,.63.33,2.69,2.69,0,0,1,1.59,0,1.76,1.76,0,0,1,1.09.92.51.51,0,0,0,.46.31.41.41,0,0,0,.19,0,.5.5,0,0,0,.28-.65,2.61,2.61,0,0,0-.42-.65,5.45,5.45,0,0,1,1-1.87,5.29,5.29,0,0,1,2.4-1.62,6.51,6.51,0,0,1,.94-.08,6.44,6.44,0,0,1,6.42,6.43A6.36,6.36,0,0,1,42.11,19a4.48,4.48,0,0,1-2.65,1.21,4.35,4.35,0,0,1-2-.3,3.17,3.17,0,0,0-.63-1.29.51.51,0,0,0-.71-.06.49.49,0,0,0-.06.7,2,2,0,0,1,.11,2.44.49.49,0,0,0,.12.69.44.44,0,0,0,.29.09.48.48,0,0,0,.4-.21A3,3,0,0,0,37.46,21a5.3,5.3,0,0,0,1.59.25l.51,0a5.52,5.52,0,0,0,3-1.26,6.4,6.4,0,0,1-1.06,12.08Z" fill="#231f20"/></g><g id="ba744074-fdaf-4003-84d2-4fc374550f85" data-name="LABELS"><text transform="translate(0.71 54.92)" font-size="6" fill="#231f20" font-family="Roboto-Regular, Roboto">b<tspan x="3.37" y="0" letter-spacing="-0.02em">r</tspan><tspan x="5.28" y="0">ain</tspan></text></g></svg>