<svg xmlns="http://www.w3.org/2000/svg" viewBox="0 0 50 50"><g id="b1ddf8d5-1790-45ce-872a-2b9f1e8e4a96" data-name="ICONS"><polygon points="2.53 12.99 48.48 12.99 48.48 11.49 1.03 11.49 1.03 27.09 2.53 27.09 2.53 12.99" fill="none"/><path d="M34.89,24.67a2.58,2.58,0,0,1,.14.8V27.1h1.5V27A2.44,2.44,0,0,0,34.89,24.67Z" fill="none"/><rect x="18.89" y="7.07" width="11.73" height="3.42" fill="none"/><path d="M20,24.67a2.32,2.32,0,0,1,.15.8V27.1h1.5V27A2.43,2.43,0,0,0,20,24.67Z" fill="none"/><path d="M36.53,28.1H35v.38a2.44,2.44,0,0,1-2.44,2.44h-.76a2.43,2.43,0,0,1-2.43-2.33H21.63V28.1h-1.5v.38a2.45,2.45,0,0,1-2.45,2.44h-.75a2.45,2.45,0,0,1-2.44-2.33h-12V28.1H2.05V42.43H47.47V28.59H36.53Z" fill="none"/><path d="M2.53,13V28.6h1V43.93H49V28.6h1V13Zm16.6,15.49a1.44,1.44,0,0,1-1.45,1.44h-.75a1.44,1.44,0,0,1-1.44-1.33s0-.07,0-.11v-3A1.45,1.45,0,0,1,16.93,24h.75a1.46,1.46,0,0,1,1.09.5,1.43,1.43,0,0,1,.36.95Zm14.9,0a1.44,1.44,0,0,1-1.44,1.44h-.76a1.43,1.43,0,0,1-1.43-1.33.36.36,0,0,1,0-.11v-3A1.45,1.45,0,0,1,31.83,24h.76A1.46,1.46,0,0,1,34,25.47Z" fill="#fdd600"/><path d="M49,10.49H31.62V6.57a.5.5,0,0,0-.5-.5H18.39a.5.5,0,0,0-.5.5v3.92H.53A.5.5,0,0,0,0,11V27.6a.51.51,0,0,0,.5.5h.52V42.93a.5.5,0,0,0,.5.5H48a.5.5,0,0,0,.5-.5V28.1H49a.5.5,0,0,0,.5-.5V11A.5.5,0,0,0,49,10.49ZM18.89,7.07H30.62v3.42H18.89ZM47.47,28.59V42.43H2.05V28.1H14.48v.38s0,.08,0,.11a2.45,2.45,0,0,0,2.44,2.33h.75a2.45,2.45,0,0,0,2.45-2.44V28.1h9.25v.38a.36.36,0,0,0,0,.11,2.43,2.43,0,0,0,2.43,2.33h.76A2.44,2.44,0,0,0,35,28.48V28.1H47.47Zm-32-.11v-3A1.45,1.45,0,0,1,16.93,24h.75a1.46,1.46,0,0,1,1.09.5,1.43,1.43,0,0,1,.36.95v3a1.44,1.44,0,0,1-1.45,1.44h-.75a1.44,1.44,0,0,1-1.44-1.33S15.48,28.52,15.48,28.48Zm14.9,0v-3A1.45,1.45,0,0,1,31.83,24h.76A1.46,1.46,0,0,1,34,25.47v3a1.44,1.44,0,0,1-1.44,1.44h-.76a1.43,1.43,0,0,1-1.43-1.33A.36.36,0,0,1,30.38,28.48ZM48.48,13V27.1H35V25.47a2.58,2.58,0,0,0-.14-.8A2.45,2.45,0,0,0,32.59,23h-.76a2.45,2.45,0,0,0-2.45,2.45V27.1H20.13V25.47a2.32,2.32,0,0,0-.15-.8A2.43,2.43,0,0,0,17.68,23h-.75a2.45,2.45,0,0,0-2.45,2.45V27.1H1V11.49H48.48Z" fill="#231f20"/></g><g id="afd2e69b-ed7e-4d3b-b2c5-603b3b066605" data-name="LABELS"><text transform="translate(0.44 54.96)" font-size="6" fill="#231f20" font-family="Roboto-Regular, Roboto">brie<tspan x="10.03" y="0" letter-spacing="-0.01em">f</tspan><tspan x="12.04" y="0">case</tspan></text></g></svg>