<svg id="bdf20b76-5a33-4ce9-af5a-92954be2f619" data-name="ICONS" xmlns="http://www.w3.org/2000/svg" viewBox="0 0 50 50"><path d="M44.4,15.72a7.15,7.15,0,0,0,.32-2.11,7.25,7.25,0,0,0-7.25-7.24,7.14,7.14,0,0,0-2.21.34,10.78,10.78,0,0,0-19.87.9,8.4,8.4,0,0,0-2.3-.32A8.3,8.3,0,0,0,4.8,15.58,8,8,0,0,0,5,17.28a6,6,0,0,0-2.6,5A6.07,6.07,0,0,0,8.44,28.3a6,6,0,0,0,4.08-1.59,6,6,0,0,0,3.77,3c2.68,4.09,2,19.11,2,19.26a.47.47,0,0,0,.14.37.48.48,0,0,0,.36.16h12a.52.52,0,0,0,.37-.17.49.49,0,0,0,.12-.4c0-.15-1.92-14.61,2-18.65h0a7.29,7.29,0,0,0,2.94-2.6A7.25,7.25,0,1,0,44.4,15.72ZM30.2,48.46H19.3c.1-2.63.39-14-1.77-18.6l.32,0a6,6,0,0,0,5.48-3.48,7.18,7.18,0,0,0,8.29,4.39C28.91,35.59,29.9,45.89,30.2,48.46ZM40.38,28a6.26,6.26,0,0,1-4-1.47.47.47,0,0,0-.41-.11.48.48,0,0,0-.35.25,6.25,6.25,0,0,1-11.72-2.22.5.5,0,0,0-1,0,5,5,0,0,1-5,4.44,4.91,4.91,0,0,1-1-.12.58.58,0,0,0-.26-.06,5,5,0,0,1-3.43-3.05.5.5,0,0,0-.85-.14A5,5,0,0,1,8.44,27.3a5.05,5.05,0,0,1-2.63-9.37A.49.49,0,0,0,6,17.37a6.61,6.61,0,0,1-.23-1.79,7.3,7.3,0,0,1,7.29-7.29,7.21,7.21,0,0,1,2.45.42.49.49,0,0,0,.64-.32,9.78,9.78,0,0,1,18.35-.86.51.51,0,0,0,.65.27,6.17,6.17,0,0,1,2.29-.43,6.26,6.26,0,0,1,6.25,6.24,6,6,0,0,1-.39,2.15.51.51,0,0,0,.22.61A6.24,6.24,0,0,1,40.38,28Z"/><path d="M21.54,32.39a.49.49,0,0,0-.68-.2.49.49,0,0,0-.2.67A15.93,15.93,0,0,1,22.34,43a.5.5,0,0,0,.4.58h.09a.49.49,0,0,0,.49-.41,16.29,16.29,0,0,0-.1-6.18A16.39,16.39,0,0,0,21.54,32.39Z"/><path d="M28.16,32.23a.5.5,0,0,0-.68.2,16.5,16.5,0,0,0-1.68,4.64,16.29,16.29,0,0,0-.1,6.18.49.49,0,0,0,.49.41h.09a.5.5,0,0,0,.4-.58A15.93,15.93,0,0,1,28.36,32.9.49.49,0,0,0,28.16,32.23Z"/><path d="M27.31,4.81a5.62,5.62,0,0,0-4,1.66.5.5,0,0,0,.71.71,4.66,4.66,0,0,1,6.65,6.54.5.5,0,0,0,.35.85.48.48,0,0,0,.36-.15,5.66,5.66,0,0,0-4.07-9.61Z"/><path d="M42.39,17.47a.5.5,0,0,0-.56.83,3.51,3.51,0,0,1,1,4.87,3.5,3.5,0,0,1-4.82,1,.5.5,0,1,0-.54.84,4.51,4.51,0,0,0,6.2-1.3,4.52,4.52,0,0,0-1.26-6.25Z"/></svg>