<svg id="e445b0bc-5b8f-4730-9246-f52f11aedf93" data-name="ICONS" xmlns="http://www.w3.org/2000/svg" viewBox="0 0 50 50"><path d="M45,41.83h1.23V21.43H7.45V41.84H45Z" fill="#fdd600"/><path d="M25.06,9.62c.41,0,1.12-.55,1.12-2.08a4.45,4.45,0,0,0-1.1-2.64A4.64,4.64,0,0,0,24,7.54C24,9.06,24.65,9.62,25.06,9.62Z" fill="#231f20"/><path d="M36.74,9.67c.41,0,1.12-.55,1.12-2.08A4.43,4.43,0,0,0,36.75,5a4.64,4.64,0,0,0-1.11,2.64C35.64,9.11,36.33,9.67,36.74,9.67Z" fill="#231f20"/><path d="M13.35,9.67c.41,0,1.12-.55,1.12-2.08A4.43,4.43,0,0,0,13.36,5a4.64,4.64,0,0,0-1.11,2.64C12.25,9.11,12.94,9.67,13.35,9.67Z" fill="#231f20"/><path d="M47.5,40.83h-2v-7s0-.08,0-.11V19.18a.5.5,0,0,0-.5-.5H37.22V11.6a.47.47,0,0,0-.48-.48.48.48,0,0,0-.49.48v7.08H25.57V11.6a.49.49,0,0,0-1,0v7.08H13.91V11.61a.49.49,0,1,0-1,0v7.07H5.22a.5.5,0,0,0-.5.5v4.51s0,0,0,.08a.24.24,0,0,0,0,.09v9.9h0s0,.07,0,.1v7H2.5a.51.51,0,0,0-.5.5V45.1a.51.51,0,0,0,.5.5h45a.51.51,0,0,0,.5-.5V41.33A.51.51,0,0,0,47.5,40.83ZM5.72,25.49C6.88,27.2,9.17,30,11.9,30c1.91,0,4.09-1.26,6.43-2.64s4.8-2.83,6.87-2.83h0c2.08,0,4.16,1.49,6.18,2.91s3.68,2.61,5.41,2.61h.09c2.71-.07,6-3.22,7.59-4.87v8.15H5.72Zm0-5.81H44.51v4.09l-.18.19c-3.17,3.36-5.67,5.08-7.43,5.13-1.41,0-3.12-1.16-4.9-2.42-2.14-1.51-4.36-3.08-6.75-3.1H25.2c-2.34,0-4.9,1.51-7.38,3-2.21,1.31-4.33,2.52-5.9,2.5C8.65,29,5.82,23.75,5.79,23.7l-.07-.13Zm0,14.69H44.49v6.46H5.7ZM47,44.6H3V41.83H5.19a0,0,0,0,0,0,0H47Z" fill="#231f20"/></svg>