<svg id="b84ea892-43ed-422d-993d-bf3e559d8869" data-name="ICONS" xmlns="http://www.w3.org/2000/svg" viewBox="0 0 50 50"><path d="M46.71,8.81V3.35a.83.83,0,0,0-.83-.83H6.62a.83.83,0,0,0-.83.83V8.81Z" fill="#fdd600"/><path d="M45,32.13H7.47a2.68,2.68,0,0,1-1.68-.61V42.26c0,.64.37,1.17.83,1.17H7.1v6a.53.53,0,0,0,.49.57h3.76a.53.53,0,0,0,.49-.57v-6H40.39v6a.52.52,0,0,0,.48.57H44.7a.52.52,0,0,0,.48-.57v-6h.7c.45,0,.83-.53.83-1.17V31.52A2.68,2.68,0,0,1,45,32.13Zm-4.5,1.28a1.12,1.12,0,1,1-1.12,1.12A1.12,1.12,0,0,1,40.53,33.41ZM9,33.41a1.12,1.12,0,1,1-1.12,1.12A1.12,1.12,0,0,1,9,33.41Z" fill="#fdd600"/><path d="M44.38,0H5.12A1.83,1.83,0,0,0,3.29,1.85V41.1A1.84,1.84,0,0,0,4.6,42.85V48a1.49,1.49,0,0,0,1.49,1.48H9.85A1.49,1.49,0,0,0,11.34,48V42.93H37.89V48a1.48,1.48,0,0,0,1.48,1.48H43.2A1.48,1.48,0,0,0,44.68,48V42.9a1.83,1.83,0,0,0,1.53-1.8V7.82h0v-6A1.83,1.83,0,0,0,44.38,0Zm-34,48a.48.48,0,0,1-.49.48H6.09A.48.48,0,0,1,5.6,48V42.93h4.74Zm33.34,0a.47.47,0,0,1-.48.48H39.37a.47.47,0,0,1-.48-.48V42.93h4.79Zm1.53-6.9a.83.83,0,0,1-.83.83H5.12a.83.83,0,0,1-.83-.83V39.51H45.21Zm0-2.59H4.29V30A2.68,2.68,0,0,0,6,30.63H18.54l-.18.44a1.17,1.17,0,0,0,.05,2.34,1.18,1.18,0,0,0,1.18-1.18,1.16,1.16,0,0,0-.31-.78l.34-.82H30l.34.8a1.16,1.16,0,0,0-.33.8,1.18,1.18,0,1,0,1.26-1.16l-.18-.44H43.53A2.68,2.68,0,0,0,45.21,30Zm0-10.56a1.68,1.68,0,0,1-1.68,1.68H30.67L26.4,19.37a.5.5,0,0,0-.92.38l4.11,9.88H20l4.09-9.83a.51.51,0,0,0-.27-.65.5.5,0,0,0-.66.27L19,29.63H6A1.68,1.68,0,0,1,4.29,28V8.31H45.21Zm0-20.64H4.29V1.85A.83.83,0,0,1,5.12,1H44.38a.83.83,0,0,1,.83.83Z" fill="#231f20"/><path d="M9,32.41a2.12,2.12,0,1,0,2.12,2.12A2.12,2.12,0,0,0,9,32.41Zm0,3.24a1.12,1.12,0,1,1,1.12-1.12A1.12,1.12,0,0,1,9,35.65Z" fill="#231f20"/><path d="M40.53,32.41a2.12,2.12,0,1,0,2.12,2.12A2.12,2.12,0,0,0,40.53,32.41Zm0,3.24a1.12,1.12,0,1,1,1.12-1.12A1.12,1.12,0,0,1,40.53,35.65Z" fill="#231f20"/></svg>