<svg xmlns="http://www.w3.org/2000/svg" viewBox="0 0 612 792"><g id="ae72ad94-5bc5-473f-a387-0a611fb9c3aa" data-name="ICONS"><path d="M494.73,147.1a.37.37,0,0,1,0-.11l0-9.41c-1.55-.32-3.11-.58-4.67-.78-3.39-.43-3.75-.6-3.87-.81l-11.88-13.82-8,10.48c-.07.17-.16.26-.64.19v0l-.08,0c-.83-.14-2.65-.67-6.85-1.89l-2.46,2.79v1.43l-2.07,1.37v-.44l-4.71,5.34,0,10.79,11.6.86h.1l.08,0a.55.55,0,0,1,.18,0l6.5-.9a.52.52,0,0,1,.3.05l6.06,1.63,4.38,0h2.19l9.64-.09h.09l4.23-.05Zm-37.5-14.21,3.92.9v1.84l-3.94-.63Zm-.05,5.94,4,.41V141l-4-.22Zm-3,1.41,2-1.13,0,1.79-2,.77Zm0,10.7V148l2.11-.1v3.17Zm5.35-6h-.05l-2.75.35a.5.5,0,0,0-.44.49v1.11l-3.39.17,1.08-3.54,11.72.32v1.44l-6.12-.34Zm.52,6.27V146l5.64.31v.63a.37.37,0,0,0,0,.11v3.41Zm5.66-10-3.52-.19v-1.71l3.52.37Zm0-4.9-3.52-.56V134l3.52.81Zm1.05-3.64,2.14-2.94v7.29l-2.16,1.48v-5.36Zm2.14,8v3.63l-2.16.33v-2.6s0,0,0-.05h0ZM472,152l-5.32-1.43V145.7l5.32-.81Zm0-8.1-2.16.34v-4s0-.06,0-.09L472,138.8Zm0-9h0l-2.15,1.49v-8l2.16-3Zm3.15,3.93,3.31-1.58,0,6.23-3.36.31Zm1.64,13.24h-1.7l0-7.28,3.37-.31,0,7.56Zm1.9-18.42-2.6,1.4v-6.68l5,5.21c-.71,0-1.43,0-2.15,0A.43.43,0,0,0,478.71,133.63Zm7.75,12.14V152l-6.93.07,0-7.61c1.14,0,2.3,0,3.45,0s2.34.06,3.5.13Zm0-7v4.69c-1.15-.07-2.33-.11-3.49-.13s-2.31,0-3.47,0l0-6.43c1.16,0,2.32-.06,3.47,0a62.56,62.56,0,0,1,9.24.89l-5.27.48A.49.49,0,0,0,486.46,138.81Zm1,.46,5.51-.5v4.16l-5.51.51Zm1.81,12.65v-5.8l3.71-.24v6Z" fill="#fdd600"/><path d="M213,217.25l-.51-10.66h-.09l-.52,10.66a.5.5,0,0,1-.5.48H174a.51.51,0,0,1-.5-.48l-.5-10.49h-.09l-.51,10.49a.5.5,0,0,1-.5.48h-1.34v3.15h1.14a.48.48,0,0,1,.36.16.47.47,0,0,1,.14.37l-.25,5.17h2l-.25-5.17a.55.55,0,0,1,.14-.37.52.52,0,0,1,.36-.16h37a.52.52,0,0,1,.37.16.5.5,0,0,1,.13.37l-.24,5h2l-.24-5a.55.55,0,0,1,.14-.37.48.48,0,0,1,.36-.16h1.17v-3.15h-1.37A.5.5,0,0,1,213,217.25Z" fill="#fdd600"/><path d="M388.56,123.22a8.05,8.05,0,0,0,8,8h12.3a8,8,0,1,0,0-16.07H396.6A8,8,0,0,0,388.56,123.22Z" fill="#fdd600"/><path d="M413.36,147.36h-1.47l-2.25-17.21a9,9,0,0,0-2.49-17.71h-12.3a9,9,0,0,0-2.36,17.75l-2.28,17.17h-1.79a.5.5,0,0,0-.5.5.5.5,0,0,0,.5.5h1.65L388.66,159a.5.5,0,0,0,.43.56h.07a.5.5,0,0,0,.49-.43l1.43-10.74h7.82l-.1,10.91a.49.49,0,0,0,.49.5h0a.51.51,0,0,0,.5-.49l.1-10.92h2.43l.05,10.92a.5.5,0,0,0,.5.49h0a.5.5,0,0,0,.5-.5l-.05-10.91H411l1.38,10.46a.5.5,0,0,0,.49.44H413a.5.5,0,0,0,.43-.56L412,148.36h1.34a.5.5,0,0,0,.5-.5A.5.5,0,0,0,413.36,147.36Zm-6.21-33.92a8,8,0,1,1,0,16.07h-12.3a8,8,0,1,1,0-16.07Zm-15.94,33.92,2.26-17a9,9,0,0,0,1.38.12h4.21l-.15,16.85Zm8.7,0,.15-16.85h2.19l.08,16.85Zm3.42,0-.08-16.85h3.9a8.31,8.31,0,0,0,1.51-.14l2.22,17Z" fill="#231f20"/><path d="M206.47,297a.47.47,0,0,1-.12-.32l0-6.67-13.86-10.43-14,10.52v6.49a.5.5,0,0,1-.12.33l-5.54,6.57v10.35h39.11V303.45ZM194,312l-6.31,0V298.68a3.16,3.16,0,1,1,6.31,0Z" fill="#fdd600"/><path d="M211.06,301.19l-5.46-6.48,0-6.06h4.3a.51.51,0,0,0,.47-.34.52.52,0,0,0-.16-.56l-19.08-15V269.7h1.33a.5.5,0,0,0,.5-.5.5.5,0,0,0-.5-.5H191.1v-1.61a.5.5,0,0,0-.5-.5.5.5,0,0,0-.5.5v1.61h-1.32a.5.5,0,0,0-.5.5.5.5,0,0,0,.5.5h1.32V273l-18.85,14.8a.52.52,0,0,0-.16.56.51.51,0,0,0,.47.34h4.16v6l-5.54,6.58a.47.47,0,0,0-.12.32v11a.5.5,0,0,0,.5.5h30c2.48,0,3.72,0,4.36-.06l.16,0v0h5.57a.5.5,0,0,0,.5-.5v-11A.49.49,0,0,0,211.06,301.19Zm-20.34-27.45,17.7,13.91h-3l0-.07-9.26-7-5-3.91a.51.51,0,0,0-.61,0l-10.1,7.63L176,287.65H173Zm-19.65,28,4.67-5.53,0,15.88h-4.69ZM187.67,312V298.68a3.16,3.16,0,1,1,6.31,0V312Zm7.31,0V298.68a4.16,4.16,0,1,0-8.31,0v13.38h-9.91l0-17.09s0-.05,0-.08,0-.05,0-.08v-6.48l4.22-3.19,9.77-7.34,4.8,3.61,9.06,7,0,6.44a0,0,0,0,0,0,0,.08.08,0,0,0,0,0l.07,17.08Zm15.2,0h-4.51l-.07-15.78c1.4,1.65,4,4.73,4.58,5.43Z" fill="#231f20"/><path d="M213.66,214.89H212.4a.29.29,0,0,0,0-.1l-.12-.2-.49-10.36a.5.5,0,0,0-.5-.47h-1a.49.49,0,0,0-.5.47l-.31,6.41c-4.32-4.62-11.06-7.44-18.39-7.44a28,28,0,0,0-8.4,1.29.44.44,0,0,0-.19.07,23.23,23.23,0,0,0-9.86,6.15l-.31-6.31a.5.5,0,0,0-.49-.48h-1a.5.5,0,0,0-.5.48l-.5,10.29-.05.1a.29.29,0,0,0,0,.1h-1.29a.5.5,0,0,0-.51.5v4.16a.5.5,0,0,0,.51.5h1.12l-.25,5.18a.47.47,0,0,0,.13.36.52.52,0,0,0,.37.16h3a.52.52,0,0,0,.36-.16.52.52,0,0,0,.14-.36l-.25-5.18H209l-.24,5a.48.48,0,0,0,.14.37.48.48,0,0,0,.36.15h3a.49.49,0,0,0,.36-.15.57.57,0,0,0,.14-.37l-.24-5h1.14a.5.5,0,0,0,.51-.5v-4.16A.5.5,0,0,0,213.66,214.89Zm-1.93,9.69h-2l1-19.82h.09Zm-2.4-12.52-.13,2.83h-1.94l0-5A20.37,20.37,0,0,1,209.33,212.06Zm-34.11,2.83-.05-5.28a21.32,21.32,0,0,1,3-2.08l.06,7.36Zm4,0-.06-7.9a25.23,25.23,0,0,1,3-1.29l0,9.19Zm4,0,0-9.53a26.77,26.77,0,0,1,3-.72l.06,10.25Zm4,0-.06-10.41a27.15,27.15,0,0,1,3-.25l.05,10.66Zm4,0-.05-10.68a29.65,29.65,0,0,1,3,.18l.06,10.5Zm4,0-.06-10.35a24.73,24.73,0,0,1,3,.64l.05,9.71Zm4,0-.05-9.42a26.38,26.38,0,0,1,3,1.19l.06,8.23Zm4,0,0-7.73a22.76,22.76,0,0,1,3,1.94.08.08,0,0,0,0,0l0,5.75Zm-29.08-4.4,0,4.4h-1.46l-.13-2.74A17.31,17.31,0,0,1,174.18,210.49Zm-2,14.26h-2l1-19.83h.1Zm-3.39-5.7V215.9h.82l-.16,3.15Zm4.12,0-.15-3.15h36.34l-.15,3.15Zm40.2,0h-.69l-.15-3.15h.84Z" fill="#231f20"/><path d="M139,283.42h-9.88a.49.49,0,0,1-.32-.12L122.38,278l-5.74,5.31a.47.47,0,0,1-.34.13h-9.82l-4.9,7.87h1.57a.54.54,0,0,1,.38.15.54.54,0,0,1,.18.35V314.3h38.07V291.72a.5.5,0,0,1,.5-.5h1.62ZM107.6,306.53h-2.28v-4.64h2.28Zm0-8.55h-2.28v-4.63h2.28Zm4.19-4.61h2.29V298h-2.29Zm2.29,13.15h-2.29v-4.61h2.29Zm9.57,6h-5.59V302h5.59Zm-5.37-16.92a2.51,2.51,0,1,1,2.51,2.51A2.52,2.52,0,0,1,118.28,295.63ZM116,289.46l4.94-5,4.83,5Zm13.79,17.07h-2.29V301.9h2.29Zm0-8.54h-2.29v-4.63h2.29Zm4.19-4.62h2.29V298H134Zm2.29,13.16H134v-4.62h2.29Z" fill="#fdd600"/><path d="M143.92,312.71h-2.74V290.47h2a.51.51,0,0,0,.44-.26.52.52,0,0,0,0-.51l-5.58-8.8a.5.5,0,0,0-.42-.23h-10l-6.32-5.28a.43.43,0,0,0,0-.05V271.6h7a.51.51,0,0,0,.5-.5v-5.24a.5.5,0,0,0-.5-.5h-7.53a.5.5,0,0,0-.5.5v9.43l-5.83,5.39h-9.9a.5.5,0,0,0-.43.24l-5.52,8.87a.51.51,0,0,0,.42.77h2v22.17h-3a.5.5,0,0,0-.5.5.5.5,0,0,0,.5.5h45.84a.5.5,0,0,0,.5-.5A.5.5,0,0,0,143.92,312.71Zm-41.81-22.17,38.07-.07v22.08H124.62v-11a.48.48,0,0,0-.48-.48h-6.57a.47.47,0,0,0-.48.48v11h-15ZM116,289.46l4.94-5,4.83,5ZM118.06,302h5.59v10.54h-5.59Zm3.28-35.65h6.53v4.24h-6.53ZM100,289.54l4.9-7.87h9.81a.47.47,0,0,0,.34-.13l5.75-5.31,6.36,5.31a.49.49,0,0,0,.32.12h9.88l5,7.8h-1.64l-13.49,0-5.9-6.08a.48.48,0,0,0-.36-.15.55.55,0,0,0-.36.15l-6,6.1-13,0Z" fill="#231f20"/><path d="M120.79,299.14a3.51,3.51,0,1,0-3.51-3.51A3.51,3.51,0,0,0,120.79,299.14Zm0-6a2.51,2.51,0,1,1-2.51,2.51A2.51,2.51,0,0,1,120.79,293.12Z" fill="#231f20"/><path d="M104.82,299h3.28a.5.5,0,0,0,.5-.5v-5.63a.5.5,0,0,0-.5-.5h-3.28a.5.5,0,0,0-.5.5v5.63A.5.5,0,0,0,104.82,299Zm.5-5.63h2.28V298h-2.28Z" fill="#231f20"/><path d="M111.29,299h3.29a.51.51,0,0,0,.5-.5v-5.61a.5.5,0,0,0-.5-.5h-3.29a.5.5,0,0,0-.5.5v5.61A.5.5,0,0,0,111.29,299Zm.5-5.61h2.29V298h-2.29Z" fill="#231f20"/><path d="M127,299h3.29a.5.5,0,0,0,.5-.5v-5.63a.5.5,0,0,0-.5-.5H127a.5.5,0,0,0-.5.5v5.63A.5.5,0,0,0,127,299Zm.5-5.63h2.29V298h-2.29Z" fill="#231f20"/><path d="M133.45,299h3.29a.5.5,0,0,0,.5-.5v-5.61a.51.51,0,0,0-.5-.5h-3.29a.5.5,0,0,0-.5.5v5.61A.5.5,0,0,0,133.45,299Zm.5-5.61h2.29V298H134Z" fill="#231f20"/><path d="M108.1,300.89h-3.28a.5.5,0,0,0-.5.5V307a.5.5,0,0,0,.5.5h3.28a.5.5,0,0,0,.5-.5v-5.64A.5.5,0,0,0,108.1,300.89Zm-.5,5.64h-2.28v-4.64h2.28Z" fill="#231f20"/><path d="M114.58,300.91h-3.29a.5.5,0,0,0-.5.5V307a.5.5,0,0,0,.5.5h3.29a.5.5,0,0,0,.5-.5v-5.61A.5.5,0,0,0,114.58,300.91Zm-.5,5.61h-2.29v-4.61h2.29Z" fill="#231f20"/><path d="M130.26,300.9H127a.5.5,0,0,0-.5.5V307a.5.5,0,0,0,.5.5h3.29a.5.5,0,0,0,.5-.5V301.4A.5.5,0,0,0,130.26,300.9Zm-.5,5.63h-2.29V301.9h2.29Z" fill="#231f20"/><path d="M136.74,300.91h-3.29a.5.5,0,0,0-.5.5V307a.5.5,0,0,0,.5.5h3.29a.51.51,0,0,0,.5-.5v-5.62A.51.51,0,0,0,136.74,300.91Zm-.5,5.62H134v-4.62h2.29Z" fill="#231f20"/><path d="M494,145.4s0,0,0-.06l0-7.12h0v-2.8a.5.5,0,0,0-.4-.49c-1.69-.36-3.43-.65-5.14-.87-1.05-.14-2.1-.23-3.15-.31,0,0,0-.08,0-.11L472.9,119.3a.47.47,0,0,0-.39-.18.51.51,0,0,0-.38.2l-8.31,10.83-6.74-2-.17-.05h0a.6.6,0,0,0-.23,0h0l-.07,0-.11,0h0l0,0,0,0-9.59,10.87a.5.5,0,0,0-.12.33l-.05,11.44a.5.5,0,0,0,.47.5l12.11.9h.37l6.53-.91,6.16,1.66.13,0h0l2.19,0h0l2.24,0H479l.09,0,8.76-.09h.94l4.68,0a.49.49,0,0,0,.49-.5Zm-1,6.48-3.72,0v-5.8l3.71-.24Zm-4.72.05h-.81v-5.69l.81-.05Zm-8.74.09,0-7.61c1.14,0,2.3,0,3.45,0s2.34.06,3.5.13V152Zm-2.72,0h-1.7l0-7.28,3.37-.31,0,7.56Zm-3.79,0v-7.29l1.12,0,0,7.26Zm-7.34-20.35,0,2.07-8.4-1.93v-2.59ZM483,137a62.56,62.56,0,0,1,9.24.89l-5.27.48a.49.49,0,0,0-.46.49v4.69c-1.15-.07-2.33-.11-3.49-.13s-2.31,0-3.47,0l0-6.43C480.64,136.94,481.8,136.92,483,137Zm10,6-5.51.51v-4.17l5.51-.5Zm-17.8-5.23v-1l3.3-1.77v1.23Zm-8.46,3.17v-1.11l5.32-3.5v1.37Zm-1,.38-3.52-.19v-1.71l3.52.37Zm-4.52-.25-4-.22,0-1.95,4,.41Zm4.51-2.29-8.49-.89,0-1.81,8.47,1.36Zm0-2.36-3.52-.56V134l3.52.81Zm-9.49,2.76,0,1.79-2,.77v-1.43Zm0,2.87v.63l-1.52,0Zm1-.2,8.53.47v.62l-8.53-.23ZM473,136.29l1.16.43v1.15l-1.15-.33Zm-11.87-.66-3.94-.63,0-2.11,3.92.9Zm-5,2.34-2,1.12v-1.36l2.06-1.37Zm10.53,4.12s0,0,0-.05h0l2.15-1.31v3.63l-2.16.33Zm3.14-2L472,138.8v5.07l-2.16.34v-4S469.84,140.16,469.84,140.13Zm3.18-1.55,1.15.34,0,4.89-1.12,0Zm2.15.23,3.31-1.58,0,6.23-3.36.31Zm-19-3.65-2.07,1.37v-1.28l2.09-1.85Zm9.45,8.71v1.44l-6.12-.34h-.1l-2.75.35a.5.5,0,0,0-.44.49v1.11l-3.39.17,1.08-3.54Zm-8.41,2.38L459,146v.26l0,5-1.73-.14ZM460,146l5.64.31v.63a.37.37,0,0,0,0,.11v3.41l-5.66.79Zm6.69-.3,5.32-.81V152l-5.32-1.43Zm20.76-.47v-.78l5.52-.51v.93ZM483,136c-1.15,0-2.33,0-3.49,0v-1.41a61.77,61.77,0,0,1,8.82.48c1.56.2,3.13.46,4.67.77V137A62.19,62.19,0,0,0,483,136Zm-4-2.38a.43.43,0,0,0-.22.06l-2.6,1.4v-6.68l5,5.21C480.37,133.55,479.65,133.55,478.93,133.57Zm-3.82,2-.47.25-1.62-.61V125.13l2.09,2.18Zm-3.09-.7h0l-2.15,1.49v-8l2.16-3Zm-3.16,2.18-2.16,1.48v-5.36l0-.47,2.14-2.94Zm-12.62-5-2.1,1.85v-1.56l2.12-2.4Zm0,15.87v3.17l-2.11-.16V148Zm26.26-14.33L473,123.68V121l10.9,12.68Zm-17.66-3.15,7.17-9.36v2.63l-5.39,7.42,0,0s0,0,0-.06a.49.49,0,0,0-.26-.18l-1.4-.41Zm-17.17,9.22,5.46-6.18v9.33s0,0-.05.07l-1.39,4.59a.49.49,0,0,0,.08.45.51.51,0,0,0,.4.19h0l.94,0v2.79l-5.5-.41Z" fill="#231f20"/><polygon points="469.32 277.82 471.81 277.82 471.81 276.02 473.65 276.02 473.65 273.53 471.81 273.52 471.81 271.69 469.31 271.69 469.32 273.53 467.53 273.53 467.52 276.02 469.32 276.02 469.32 277.82" fill="none"/><path d="M480.41,278.33h-4.36v1.46H465v-1.46H449.9v7H454v25.5h37v-25.5h3.87v-7Zm-19.28,30.73V298.51h9l0,10.55Zm18.85,0h-8.8l0-10.55H480Z" fill="#fdd600"/><path d="M493.6,275.58H477.05v-6.24a.51.51,0,0,0-.5-.5h-12a.51.51,0,0,0-.5.5v6.24H447.65a.5.5,0,0,0-.5.5v8a.5.5,0,0,0,.5.5h3.58v25a.5.5,0,0,0,.5.5h38a.5.5,0,0,0,.5-.5v-25h3.37a.5.5,0,0,0,.5-.5v-8A.5.5,0,0,0,493.6,275.58ZM465,269.84h11v10H465ZM480,309.06h-8.8l0-10.55H480Zm-9.84-10.55,0,10.55h-9.05V298.51Zm19.09,10.55H481V298a.5.5,0,0,0-.5-.5H460.63a.5.5,0,0,0-.5.5v11.05h-7.9v-24.5h37Zm3.87-25.5h-45v-7H464v3.71a.5.5,0,0,0,.5.5h12a.5.5,0,0,0,.5-.5v-3.71H493.1Z" fill="#231f20"/><polygon points="471.81 271.69 469.31 271.69 469.32 273.53 467.53 273.53 467.52 276.02 469.32 276.02 469.32 277.82 471.81 277.82 471.81 276.02 473.65 276.02 473.65 273.53 471.81 273.52 471.81 271.69" fill="#231f20"/><path d="M277.65,310.3v-9.37h1.89v-2.49h-2.28v-1.19a15.23,15.23,0,0,0-13-14.68V276h.18a2.14,2.14,0,0,0-4.15,0h.18v6.54a15.24,15.24,0,0,0-13.25,14.72v1.19h-2v2.49h1.89v9.37h-3.73v2.49h38V310.3Zm-10.26-21.75a.62.62,0,0,1,.31-.46h.07c.3,0,.81.45,1.06,1.27s0,1.58-.26,1.67a.61.61,0,0,1-.51-.21,2.4,2.4,0,0,1-.61-1.05h0A2.3,2.3,0,0,1,267.39,288.55Zm-6.9-.77a1.78,1.78,0,1,1-1.77,1.78A1.78,1.78,0,0,1,260.49,287.78ZM252,289.35c.25-.82.76-1.27,1.06-1.27h.07a.62.62,0,0,1,.31.46,2.3,2.3,0,0,1-.06,1.21c-.27.89-.84,1.34-1.12,1.26S251.72,290.24,252,289.35Zm2,20.95h-4v-9.37h4Zm6.91,0h-4v-9.37h4Zm6.91,0h-4v-9.37h4Zm6.91,0h-4v-9.37h4Z" fill="#fdd600"/><path d="M280.13,307.55h-3.29v-7.37h1.45a.5.5,0,0,0,.5-.5v-3.49a.5.5,0,0,0-.5-.5H276.5a16.68,16.68,0,0,0-.62-4.27l.89-4.31a.51.51,0,0,0-.5-.6l-2.69,0a16,16,0,0,0-10.06-6.64v-4.66h1.08a.5.5,0,0,0,.5-.5.5.5,0,0,0-.5-.5h-.89a3.12,3.12,0,0,0-2.37-2.54,1.22,1.22,0,0,0-.18-2.11V267.4a.54.54,0,1,0-1.07,0v2.19a1.22,1.22,0,0,0-.18,2.11,3.12,3.12,0,0,0-2.37,2.54h-.89a.5.5,0,0,0-.5.5.5.5,0,0,0,.5.5h1.08v4.62a16,16,0,0,0-10.05,6.32l-2.69-.11a.54.54,0,0,0-.39.17.52.52,0,0,0-.12.41l.75,4.33a16.63,16.63,0,0,0-.74,4.71H243a.5.5,0,0,0-.5.5v3.49a.5.5,0,0,0,.5.5h1.45v7.37h-3.29a.5.5,0,0,0-.5.5v3.49a.5.5,0,0,0,.5.5h39a.5.5,0,0,0,.5-.5v-3.49A.5.5,0,0,0,280.13,307.55Zm-34.78-7.4h2.91v7.36h-2.91Zm3.85,0h2.12v7.37H249.2Zm6,7.33h-2.91v-7.36h2.91Zm.94-7.33h2.12v7.37h-2.12Zm6,7.34h-2.91v-7.35h2.91Zm.94-7.34h2.12v7.37H263Zm6,7.4h-2.91v-7.36H269Zm.94-7.4h2.12v7.37h-2.12Zm6,7.34H273v-7.37h2.91Zm-16.59-26.86h.14c-5.32,5.1-5.34,12.68-5.23,14.78h-4.57C249.49,293.37,249.44,284.55,259.31,280.66Zm2.22,0a14.35,14.35,0,0,1,9.63,14.73h-4.53c.11-2,.13-9.68-5.27-14.79h.07A.33.33,0,0,0,261.53,280.71Zm-1.12.4c5.34,4.81,5.31,12.51,5.21,14.33h-10.4C255.13,293.53,255.15,285.92,260.41,281.11Zm15.25,6.41-.42,2c-.17-.41-.36-.82-.56-1.22s-.28-.53-.43-.79Zm-2.21.68.13.22c.19.34.36.69.52,1l.15.32c.12.3.24.6.34.91s.14.37.2.56a15.65,15.65,0,0,1,.72,4.19h-3.36a15.54,15.54,0,0,0-7.24-14.16A15.15,15.15,0,0,1,273.45,288.2Zm-12.83-15.59a2.14,2.14,0,0,1,2.08,1.63h-4.15A2.13,2.13,0,0,1,260.62,272.61Zm-1.89,2.63h3.79v4.51a15.07,15.07,0,0,0-1.66-.13h0l-.35,0a14.76,14.76,0,0,0-1.77.11Zm-3.16,6.23a15.68,15.68,0,0,0-6.92,14h-3.17a15.42,15.42,0,0,1,.78-4.38c.05-.16.12-.32.17-.47.12-.31.22-.62.36-.91a3.36,3.36,0,0,1,.16-.33c.17-.38.36-.75.56-1.1s.46-.78.72-1.15A15.08,15.08,0,0,1,255.57,281.47Zm-9.64,7.66-.36-2,1.42.06c-.16.26-.32.52-.46.78S246.11,288.72,245.93,289.13Zm-2.47,7.56h34.33v2.49H243.46ZM279.63,311h-38v-2.49h38Z" fill="#231f20"/><path d="M260.49,286.78a2.78,2.78,0,1,0,2.78,2.78A2.78,2.78,0,0,0,260.49,286.78Zm0,4.55a1.78,1.78,0,1,1,1.78-1.77A1.78,1.78,0,0,1,260.49,291.33Z" fill="#231f20"/><path d="M253.39,287.14c-.92-.28-2,.57-2.37,1.92s0,2.64.93,2.92a1.49,1.49,0,0,0,.36,0,2.45,2.45,0,0,0,2-2,3.39,3.39,0,0,0,.07-1.75A1.52,1.52,0,0,0,253.39,287.14Zm0,2.62c-.27.89-.84,1.34-1.12,1.26s-.52-.78-.26-1.67.76-1.27,1.06-1.27h.07a.62.62,0,0,1,.31.46A2.3,2.3,0,0,1,253.36,289.76Z" fill="#231f20"/><path d="M269.78,289.06c-.4-1.35-1.44-2.2-2.37-1.92a1.53,1.53,0,0,0-1,1.17,3.25,3.25,0,0,0,.07,1.74,3.36,3.36,0,0,0,.89,1.49,1.68,1.68,0,0,0,1.12.49,1.49,1.49,0,0,0,.36,0C269.78,291.7,270.19,290.42,269.78,289.06Zm-1.21,2a.61.61,0,0,1-.51-.21,2.4,2.4,0,0,1-.61-1.05h0a2.3,2.3,0,0,1-.06-1.21.62.62,0,0,1,.31-.46h.07c.3,0,.81.45,1.06,1.27S268.85,290.93,268.57,291Z" fill="#231f20"/><polygon points="116.27 209.74 116.27 219.93 118.48 219.93 118.48 209.74 117.37 208.32 116.27 209.74" fill="none"/><polygon points="123.7 209.76 123.7 219.93 125.9 219.93 125.9 209.76 124.8 208.34 123.7 209.76" fill="none"/><path d="M139.32,231.9a.5.5,0,0,1-.5-.5v-10l-2.77-1.53a.51.51,0,0,1-.26-.44v-17h-4.25v35.08h-2.5V202.4H112.93v35.07h-2.49V202.4h-.75v17a.48.48,0,0,1-.26.43l-2.77,1.54v10a.5.5,0,0,1-.5.5H104.5v6.88H141V231.9Zm-22.11,1.9h-.58v-7.17l.29-.25.29.25Zm1.27-13.87h-2.21V209.74l1.1-1.42,1.11,1.42Zm2.81,13.87h-.58v-7.17l.29-.24.29.24Zm4.09,0h-.58v-7.17l.29-.25.29.25Zm.52-13.87h-2.2V209.76l1.1-1.43,1.1,1.43Z" fill="#fdd600"/><path d="M139.74,229.15h-1.66v-9.79a.51.51,0,0,0-.26-.44l-2.77-1.53V200.15a.5.5,0,0,0-.5-.5h-2v-4a.55.55,0,0,0-.12-.33l-1.64-1.91v-2a.5.5,0,0,0-.5-.5.5.5,0,0,0-.5.5v2l-1.62,1.9a.5.5,0,0,0-.12.33v4H121.6v-1.78a.5.5,0,0,0-.5-.5.51.51,0,0,0-.5.5v1.78h-6.67v-4a.47.47,0,0,0-.12-.32l-1.6-1.88v-2a.51.51,0,0,0-.5-.5.5.5,0,0,0-.5.5v2l-1.65,1.93a.47.47,0,0,0-.12.32v4h-2a.5.5,0,0,0-.5.5V217.4l-2.77,1.54a.48.48,0,0,0-.26.43v9.8h-1.67a.5.5,0,0,0-.5.5v7.88a.5.5,0,0,0,.5.5h5.49l.09,0h25.3a.41.41,0,0,0,.16,0h6.45a.5.5,0,0,0,.5-.5v-7.89A.5.5,0,0,0,139.74,229.15Zm-5.69-28.5v17a.51.51,0,0,0,.26.44l2.77,1.53v9.52h-4.53V200.65Zm-23.61,36.82V195.84l1.25-1.46,1.24,1.46v41.63h-2.49Zm8-17.54h-2.21V209.74l1.1-1.42,1.11,1.42Zm9.57,1v2.49H113.93v-2.49Zm-2.15-1h-2.2V209.76l1.1-1.43,1.1,1.43Zm-.52,13.87h-.58v-7.17l.29-.25.29.25Zm.82-7.79-.79-.66a.49.49,0,0,0-.64,0L124,226a.49.49,0,0,0-.18.38v7.41h-1.51v-7.4a.46.46,0,0,0-.18-.38l-.79-.67a.51.51,0,0,0-.64,0l-.8.67a.49.49,0,0,0-.17.38v7.4h-1.5v-7.41A.48.48,0,0,0,118,226l-.79-.66a.49.49,0,0,0-.64,0l-.8.66a.52.52,0,0,0-.17.38v7.41h-1.7v-9.38h14.12v9.38h-1.67v-7.41A.48.48,0,0,0,126.2,226Zm-4.91,7.79h-.58v-7.17l.29-.24.29.24Zm-4.08,0h-.58v-7.17l.29-.25.29.25Zm-3.28,1h14.12V237H113.93Zm14.12-14.87h-1.2V209.6a.43.43,0,0,0-.1-.29l-1.57-2a.49.49,0,0,0-.76,0l-1.58,2a.48.48,0,0,0-.09.29v10.33H121.6V203.6h6.45Zm-7.45,0h-1.17V209.58a.51.51,0,0,0-.1-.29l-1.58-2a.49.49,0,0,0-.75,0l-1.58,2a.51.51,0,0,0-.1.29v10.35h-1.39V203.6h6.67Zm8.45,17.55V195.84l1.25-1.46,1.25,1.46v41.64h-2.5Zm-1-36.83v1.92H121.6v-1.92Zm-7.45,0v1.92h-6.67v-1.92Zm-12.91,17.48a.48.48,0,0,0,.26-.43v-17h1.49v28.54h-4.52v-9.52Zm-4.94,12h1.59l.1,0h5V237h-6.69ZM139.24,237h-6.69v-6.87h5l.11,0h1.55Z" fill="#231f20"/><rect x="340.26" y="295.29" width="0.61" height="2.1" fill="#fdd600"/><polygon points="337.83 295.01 340.26 295.01 340.26 295.29 340.88 295.29 340.88 294.01 340.76 294.01 337.33 294.01 323.92 294.01 323.88 294.01 323.88 295.29 337.83 295.29 337.83 295.01" fill="#fdd600"/><path d="M340.88,292.06v-9.27h0a8.5,8.5,0,0,0-17,0h0v9.27h17Z" fill="#fdd600"/><path d="M353.21,295.29v.41H341.26v-.41h-.38v2.1h-.62v9.24h-2.43V295.29H323.42v11.34H321V295.29h-1v.41h-10.2v18.59H355v-19Zm-24,5.44a1.42,1.42,0,1,1,2.83,0v5.9h-2.83Zm-9.78,6.9h22.39v1.95H319.43Zm-3.31-4.35h-4.46v-3.23h4.46Zm28,9.26h-27v-2h27Zm5.46-9.26h-4.46v-3.23h4.46Z" fill="#fdd600"/><path d="M333.12,274.83v-1.59a.75.75,0,0,0-1.49,0v1.59c.25,0,.49,0,.75,0S332.87,274.81,333.12,274.83Z" fill="#fdd600"/><path d="M353.71,292.54H342.82v-1a.5.5,0,0,0-.5-.5h-2.2V286h1a.5.5,0,0,0,0-1h-1V282h1a.5.5,0,0,0,0-1h-1a9.49,9.49,0,0,0-7.73-8.83v-1.72a1.75,1.75,0,0,0-1.25-1.66v-3a.5.5,0,0,0-.5-.5.51.51,0,0,0-.5.5v3a1.75,1.75,0,0,0-1.24,1.66v1.72a9.49,9.49,0,0,0-7.73,8.83h-1a.5.5,0,0,0,0,1h1V285h-1a.5.5,0,0,0,0,1h1v5.08h-2.19a.5.5,0,0,0-.5.5v1H307.54a.5.5,0,0,0-.5.5v20a.51.51,0,0,0,.5.5h46.17a.51.51,0,0,0,.5-.5V293A.5.5,0,0,0,353.71,292.54ZM322.12,286h17v5.08h-3V288.3a.5.5,0,0,0-1,0v2.76h-2.41V288.3a.5.5,0,1,0-1,0v2.76h-2.41V288.3a.5.5,0,0,0-1,0v2.76h-2.41V288.3a.5.5,0,0,0-.5-.5.5.5,0,0,0-.5.5v2.76h-2.8ZM330.63,273a8.52,8.52,0,0,1,8.48,8h-17A8.52,8.52,0,0,1,330.63,273Zm8.49,9V285h-1.29v-1.1a.5.5,0,0,0-1,0V285h-2.35v-1.1a.5.5,0,0,0-.5-.5.5.5,0,0,0-.5.5V285h-2.35v-1.1a.5.5,0,0,0-.5-.5.5.5,0,0,0-.5.5V285h-2.36v-1.1a.5.5,0,0,0-.5-.5.5.5,0,0,0-.5.5V285h-2.35v-1.1a.5.5,0,0,0-1,0V285h-1.3V282Zm-17.5,10h20.2V294H319.43v-1.95Zm18.64,14.57h-2.43V295h2.43Zm1.56,1v1.95H319.43v-1.95h22.39ZM321,295h2.43v11.62H321Zm15.84,0v11.62H333v-5.9a2.42,2.42,0,1,0-4.83,0v5.9h-3.79V295ZM332,306.63h-2.83v-5.9a1.42,1.42,0,1,1,2.83,0Zm-14.92,3.95h27v2h-27ZM318.93,295H320v.69H308v-2.16h10.39v1A.5.5,0,0,0,318.93,295ZM320,296.7v9.93h-1.06a.5.5,0,0,0-.5.5v2.45h-1.81a.5.5,0,0,0-.5.5v2.46H308V296.7Zm25.14,15.84v-2.46a.5.5,0,0,0-.5-.5h-1.81v-2.45a.5.5,0,0,0-.5-.5h-1.06V296.7h11.95v15.84Zm-3.87-16.84V295h1.06a.5.5,0,0,0,.5-.5v-1h10.39v2.16Zm-11.38-25.21a.75.75,0,0,1,1.49,0v1.59c-.25,0-.49,0-.74,0s-.5,0-.75,0Z" fill="#231f20"/><path d="M350.09,299.05h-5.46a.5.5,0,0,0-.5.5v4.23a.5.5,0,0,0,.5.5h5.46a.5.5,0,0,0,.5-.5v-4.23A.5.5,0,0,0,350.09,299.05Zm-.5,4.23h-4.46v-3.23h4.46Z" fill="#231f20"/><path d="M311.16,304.28h5.46a.5.5,0,0,0,.5-.5v-4.23a.5.5,0,0,0-.5-.5h-5.46a.5.5,0,0,0-.5.5v4.23A.5.5,0,0,0,311.16,304.28Zm.5-4.23h4.46v3.23h-4.46Z" fill="#231f20"/><path d="M183.1,152.33v-1.66a.5.5,0,0,1,.39-.48V129.76l-13.6-5.55v23.07l12.38,5.05Z" fill="#fdd600"/><path d="M201,129.76v20.41h.16a.5.5,0,0,1,.5.5v1.66h.56l12.38-5.05V124.21Z" fill="#fdd600"/><path d="M184.18,129a.38.38,0,0,1,.12.1h15.9a.38.38,0,0,1,.12-.1l1.6-.65,5.5-10a32.62,32.62,0,0,0-29.15,0l4.88,10.26Z" fill="#fdd600"/><path d="M200.67,151.17H184.1v2.16h-9.34v6.54h14v-6a.5.5,0,0,1,.5-.5h6.26a.5.5,0,0,1,.5.5v6h14.74v-6.54H200.67Z" fill="#fdd600"/><path d="M214.11,146V122a.5.5,0,0,0-.69-.46l-11.53,4.71,5.16-9.41a.53.53,0,0,0,0-.39.48.48,0,0,0-.25-.29A34.16,34.16,0,0,0,191,112.34a33.72,33.72,0,0,0-15.1,3.78.48.48,0,0,0-.22.65l4.61,9.71-12.19-5a.5.5,0,0,0-.69.46v32.3a.49.49,0,0,0,.15.36.5.5,0,0,0,.35.14h4.37v4.11a.5.5,0,0,0,.5.5h37a.5.5,0,0,0,.5-.5v-4.11h3.37a.48.48,0,0,0,.5-.5v-8.14A.43.43,0,0,0,214.11,146Zm-1,7.75h-2.87v-2.43a.5.5,0,0,0-.5-.5H203.4l9.73-4Zm-24.87,4.61v-5.52h5.26v5.52Zm6.26-6a.5.5,0,0,0-.5-.5h-6.26a.5.5,0,0,0-.5.5v6H182.6v-8.7h16.57v8.7h-4.65Zm-21.26,6v-6.54h8.34v6.54Zm12.67-14.94h9.92v5.24h-9.92Zm10.42-1H185.43a.5.5,0,0,0-.5.5v5.74H183V128.56h15.52v20.11h-1.66v-5.74A.51.51,0,0,0,196.35,142.43Zm16.76,3.35-12.38,5.05h-.56v-1.66a.5.5,0,0,0-.5-.5h-.16V128.26l13.6-5.55ZM182,148.69a.5.5,0,0,0-.39.48v1.66h-.83l-12.38-5.05V122.71l13.6,5.55Zm-13.6-1.83,9.74,4h-5.37a.51.51,0,0,0-.5.5v2.43h-3.87Zm31.81,11.51v-6.54h9.06v6.54Zm-23.43-41.59a32.62,32.62,0,0,1,29.15,0l-5.5,10-1.6.65a.38.38,0,0,0-.12.1H182.8a.38.38,0,0,0-.12-.1l-1-.42Z" fill="#231f20"/><path d="M179,129.57a.5.5,0,0,0-.5.5v17.51a.5.5,0,1,0,1,0V130.07A.5.5,0,0,0,179,129.57Z" fill="#231f20"/><path d="M175.21,128a.5.5,0,0,0-.5.5v17.06a.51.51,0,0,0,.5.5.5.5,0,0,0,.5-.5V128.49A.5.5,0,0,0,175.21,128Z" fill="#231f20"/><path d="M171.14,126.32a.5.5,0,0,0-.5.5v17.39a.5.5,0,0,0,.5.5.5.5,0,0,0,.5-.5V126.82A.5.5,0,0,0,171.14,126.32Z" fill="#231f20"/><path d="M200.26,117.45a.5.5,0,0,0,.32-1,29.08,29.08,0,0,0-19.65.25.5.5,0,0,0,.18,1,.38.38,0,0,0,.17,0A28.12,28.12,0,0,1,200.26,117.45Z" fill="#231f20"/><path d="M199,121.24a.5.5,0,0,0,.63-.31.5.5,0,0,0-.3-.64,25.29,25.29,0,0,0-17.12.22.5.5,0,0,0-.3.64.52.52,0,0,0,.47.33.39.39,0,0,0,.18,0A24.3,24.3,0,0,1,199,121.24Z" fill="#231f20"/><path d="M198.1,123.88a21.51,21.51,0,0,0-14.55.19.5.5,0,0,0-.3.64.51.51,0,0,0,.47.32.38.38,0,0,0,.18,0,20.52,20.52,0,0,1,13.87-.17.5.5,0,0,0,.33-1Z" fill="#231f20"/><path d="M202.38,147.85a.5.5,0,0,0,.5-.5V129.83a.5.5,0,0,0-1,0v17.52A.5.5,0,0,0,202.38,147.85Z" fill="#231f20"/><path d="M206.17,145.82a.51.51,0,0,0,.5-.5V128.26a.5.5,0,0,0-.5-.5.5.5,0,0,0-.5.5v17.06A.5.5,0,0,0,206.17,145.82Z" fill="#231f20"/><path d="M210.24,144.48a.5.5,0,0,0,.5-.5V126.59a.5.5,0,0,0-1,0V144A.5.5,0,0,0,210.24,144.48Z" fill="#231f20"/><path d="M190.89,144c-2.07,0-3.63.88-3.63,2.06s1.56,2.06,3.63,2.06,3.63-.88,3.63-2.06S193,144,190.89,144Zm0,3.12c-1.61,0-2.63-.63-2.63-1.06s1-1.06,2.63-1.06,2.63.63,2.63,1.06S192.49,147.16,190.89,147.16Z" fill="#231f20"/><path d="M197.31,141.27a.36.36,0,0,0-.37-.37H184.75a.37.37,0,0,0-.38.37.38.38,0,0,0,.38.38h12.19A.37.37,0,0,0,197.31,141.27Z" fill="#231f20"/><path d="M196.94,131.19H184.75a.38.38,0,1,0,0,.75h12.19a.38.38,0,0,0,0-.75Z" fill="#231f20"/><path d="M196.94,134.42H184.75a.38.38,0,0,0-.38.38.37.37,0,0,0,.38.37h12.19a.36.36,0,0,0,.37-.37A.37.37,0,0,0,196.94,134.42Z" fill="#231f20"/><path d="M196.94,137.66H184.75a.38.38,0,1,0,0,.75h12.19a.38.38,0,0,0,0-.75Z" fill="#231f20"/><polygon points="132.98 143.09 132.56 143.09 132.56 158.63 145.42 158.63 145.42 143.09 132.98 143.09" fill="#fdd600"/><polygon points="143.12 140 145.42 140 145.42 136.35 145.42 132.84 143.12 132.84 143.12 140" fill="#fdd600"/><rect x="110.56" y="142.09" width="2" height="16.54" fill="#fdd600"/><polygon points="124.51 115.08 121.75 115.08 121.75 115.12 121.75 116.42 124.51 116.42 124.51 115.08" fill="#fdd600"/><path d="M127.46,136.11v-3.83h-2.11v-4.22h-.44v-3.8c-.22-1.68-1.33-3-2.66-3s-2.44,1.29-2.66,3v3.8h-.44v4.22H117v3.83H101.39v-3.27H99.08v25.79h12.48V143.09h5.53v15.54h2V143.09h4.28v15.54h2V143.09h4.19v15.54h2V143.09h13.86v-7Z" fill="#fdd600"/><path d="M144.42,130.34h-3.31a.5.5,0,0,0-.5.5v3H127v-3a.5.5,0,0,0-.5-.5h-1.61v-3.83a.5.5,0,0,0-.44-.49v-2.77h.6a.5.5,0,0,0,0-1h-.68a3.76,3.76,0,0,0-3.08-3.4v-1.93h3.26a.5.5,0,0,0,.5-.5v-2.34a.5.5,0,0,0-.5-.5h-3.76a.5.5,0,0,0-.5.5v4.77a3.76,3.76,0,0,0-3.08,3.4h-.68a.5.5,0,0,0,0,1h.6V126a.5.5,0,0,0-.44.49v3.83H115a.5.5,0,0,0-.5.5v3H100.89v-3a.5.5,0,0,0-.5-.5H97.08a.5.5,0,0,0-.5.5v26.79a.5.5,0,0,0,.5.5h47.34a.5.5,0,0,0,.5-.5V130.84A.5.5,0,0,0,144.42,130.34Zm-.5,1v7.17h-2.31v-7.17Zm-3.31,3.51V139a.51.51,0,0,0,.5.5h2.81v1.08H132.57L127,137.65v-2.8Zm-22.52-11.6h5.32V126h-5.32Zm-.44,3.76h6.2v3.33h-6.2Zm-.5,4.33H126v5.79l-5-2.61a.53.53,0,0,0-.46,0l-5,2.61v-5.79Zm11.41,9.25H111.08l9.67-5.06,9.67,5.06Zm-18.5,1h2v15.54h-2Zm3,0h2.53v15.54h-2.53Zm3.53,0h2v15.54h-2Zm3,0h2.28v15.54h-2.28Zm3.28,0h2v15.54h-2Zm3,0h2.19v15.54h-2.19Zm3.19,0h2v15.54h-2Zm-7.81-27H124v1.34h-2.76v-1.34Zm-.5,5.21a2.71,2.71,0,0,1,2.58,2.41h-5.16A2.71,2.71,0,0,1,120.75,119.79Zm-6.21,15.06v2.8l-5.61,2.94H97.58v-1.08h2.81a.51.51,0,0,0,.5-.5v-4.16Zm-14.65-3.51v7.17H97.58v-7.17Zm-2.31,10.25h11.48v15.54H97.58Zm46.34,15.54H132.06V141.59h11.86Z" fill="#231f20"/><path d="M105.56,143.34h-4.12a.5.5,0,0,0-.5.5V148a.5.5,0,0,0,.5.5h4.12a.5.5,0,0,0,.5-.5v-4.12A.5.5,0,0,0,105.56,143.34Zm-.5,4.12h-3.12v-3.12h3.12Z" fill="#231f20"/><path d="M105.56,150.26h-4.12a.5.5,0,0,0-.5.5v4.12a.5.5,0,0,0,.5.5h4.12a.5.5,0,0,0,.5-.5v-4.12A.5.5,0,0,0,105.56,150.26Zm-.5,4.12h-3.12v-3.12h3.12Z" fill="#231f20"/><path d="M136.12,148.46h4.13a.5.5,0,0,0,.5-.5v-4.12a.5.5,0,0,0-.5-.5h-4.13a.5.5,0,0,0-.5.5V148A.5.5,0,0,0,136.12,148.46Zm.5-4.12h3.13v3.12h-3.13Z" fill="#231f20"/><path d="M136.12,155.38h4.13a.5.5,0,0,0,.5-.5v-4.12a.5.5,0,0,0-.5-.5h-4.13a.5.5,0,0,0-.5.5v4.12A.5.5,0,0,0,136.12,155.38Zm.5-4.12h3.13v3.12h-3.13Z" fill="#231f20"/><path d="M285.52,135.86a8.08,8.08,0,0,0,.09-1.2,11.64,11.64,0,0,0-.09-1.45c-.91-.05-1.82-.08-2.73-.12v-6.7c0-.44-.24-.79-.53-.79h-17.4v3.06l-7.22-1v4.63c-6.24-.12-12.51-.19-18.76-.17v2.65c3.46,0,7,0,10.45.09l0,6.11-4.22,0v2.21l4.2,0v6h34.47v-5.64H285a4.76,4.76,0,0,0,0-2.21l-1.19,0,0-5.47Z" fill="#fdd600"/><path d="M284.92,131.55a.5.5,0,0,0-.46-.39l-2.17-.08v-6.46a1.53,1.53,0,0,0-1.53-1.52h-17.9a.5.5,0,0,0-.5.5v2.62l-6.67-.76a.48.48,0,0,0-.55.5v4.36c-6.08-.09-12.19-.15-18.26-.13a.5.5,0,0,0-.5.5v3.21a.5.5,0,0,0,.5.5l9.9.06v3.95l-3.69,0a.45.45,0,0,0-.36.14.48.48,0,0,0-.15.36v3.21a.5.5,0,0,0,.5.5l3.7,0v5h-2.42a.5.5,0,0,0-.5.5.5.5,0,0,0,.5.5h39.72a.5.5,0,0,0,.5-.5.5.5,0,0,0-.5-.5h-.83V143h.58a.51.51,0,0,0,.47-.34,5.67,5.67,0,0,0,0-3.52.5.5,0,0,0-.47-.35h-.58v-3.43l1.15,0h0a.49.49,0,0,0,.49-.39,8,8,0,0,0,.19-1.61A7.87,7.87,0,0,0,284.92,131.55Zm-21.56-7.45h17.4a.52.52,0,0,1,.53.52v3.77l-17.93-2Zm-7.21,6.2v-3.78l25.15,2.88V131l-1.23,0c-6.27-.25-12.58-.45-18.84-.58l-2.73,0Zm-8.36,17.31v-5l5.16.05v4.93Zm8.54,0H254v-4.92l2.38,0Zm6.39,0h-5.39v-4.88l5.39.05Zm6.39,0h-5.39v-4.82l5.39.05Zm6.4,0h-5.4v-4.76l5.4.05Zm5.86,0h-4.86v-4.7l5.75.06v4.64Zm2.09-7.84a4.76,4.76,0,0,1,0,2.21l-39.87-.39v-2.21Zm-35.67-1.35v-3.95l5.16.07v3.93Zm6.16.06v-3.93l2.38,0v3.91Zm3.38,0v-3.9l3.7.07,1.69,0v3.85Zm6.39.07v-3.84l5.39.14v3.75Zm6.39.06v-3.73l5.4.16v3.62Zm6.4.06v-3.6l5.75.2v3.46Zm7.51-4.34c-7.62-.3-15.35-.53-23-.68-7.89-.17-15.84-.26-23.66-.27v-2.22c7.93,0,15.93.05,23.81.22,7.58.16,15.26.4,22.82.73a8.21,8.21,0,0,1,.09,1.21A5.75,5.75,0,0,1,284,134.36Z" fill="#231f20"/><path d="M343.35,203.55V192.83h-22.2v10.72l-12,0v35.09h45.46v-1.07a2.41,2.41,0,0,1,0,1.07h.78V203.53Zm-33.14,4.58a.5.5,0,0,1,.5-.5h4.86a.5.5,0,0,1,.5.5V213a.5.5,0,0,1-.5.5h-4.86a.5.5,0,0,1-.5-.5Zm3.18,24.45v5.19h-1v-5.19a4.11,4.11,0,0,1-3.08-4.23,15.11,15.11,0,0,1,1.07-6,.52.52,0,0,1-.17-.37v-4.86a.5.5,0,0,1,.5-.5h4.86a.5.5,0,0,1,.5.5V222a.5.5,0,0,1-.5.5h-.1a15.48,15.48,0,0,1,1,5.84A4.1,4.1,0,0,1,313.39,232.58Zm32-24.45a.5.5,0,0,1,.5-.5h4.86a.5.5,0,0,1,.5.5V213a.5.5,0,0,1-.5.5h-4.86a.5.5,0,0,1-.5-.5Zm0,9a.5.5,0,0,1,.5-.5h4.86a.5.5,0,0,1,.5.5V222a.5.5,0,0,1-.5.5h-4.86a.5.5,0,0,1-.5-.5Zm0,9a.5.5,0,0,1,.5-.5h4.86a.5.5,0,0,1,.5.5V231a.5.5,0,0,1-.5.5h-4.86a.5.5,0,0,1-.5-.5Zm-22.37-30.78a.5.5,0,0,1,.5-.5h5.5a.5.5,0,0,1,.5.5v5.5a.5.5,0,0,1-.5.5h-5.5a.5.5,0,0,1-.5-.5Zm0,10a.5.5,0,0,1,.5-.5h5.5a.5.5,0,0,1,.5.5v5.49a.5.5,0,0,1-.5.5h-5.5a.5.5,0,0,1-.5-.5Zm0,15.48v-5.5a.51.51,0,0,1,.5-.5h5.5a.5.5,0,0,1,.5.5v5.5a.5.5,0,0,1-.5.5h-5.5A.5.5,0,0,1,323.06,220.86Zm14.68,16.26v.5a.5.5,0,0,1-.5.5h-13a.5.5,0,0,1-.5-.5V224.89a.5.5,0,0,1,.5-.5h13a.5.5,0,0,1,.5.5Zm.7-16.26a.5.5,0,0,1-.5.5h-5.5a.5.5,0,0,1-.5-.5v-5.5a.5.5,0,0,1,.5-.5h5.5a.51.51,0,0,1,.5.5Zm0-10a.5.5,0,0,1-.5.5h-5.5a.5.5,0,0,1-.5-.5v-5.49a.5.5,0,0,1,.5-.5h5.5a.5.5,0,0,1,.5.5Zm0-10a.5.5,0,0,1-.5.5h-5.5a.5.5,0,0,1-.5-.5v-5.5a.5.5,0,0,1,.5-.5h5.5a.5.5,0,0,1,.5.5Zm14.65,36.23a3,3,0,0,1-.23.72.5.5,0,0,1-.45.28h-11.7a.49.49,0,0,1-.44-.27,3.18,3.18,0,0,1-.26-.73,2.88,2.88,0,0,1-.07-.59,2.94,2.94,0,0,1,1.91-2.73,3,3,0,0,1,1-.2H343a4,4,0,0,1,3.39-1.91,3.91,3.91,0,0,1,3.5,2.12,2.43,2.43,0,0,1,.38,0,2.88,2.88,0,0,1,2.89,2.85A2.73,2.73,0,0,1,353.09,237.12Z" fill="#fdd600"/><path d="M354.59,237.55v1.07a2.41,2.41,0,0,0,0-1.07Z" fill="none"/><path d="M310.71,213.49h4.86a.5.5,0,0,0,.5-.5v-4.86a.5.5,0,0,0-.5-.5h-4.86a.5.5,0,0,0-.5.5V213A.5.5,0,0,0,310.71,213.49Zm.5-4.86h3.86v3.86h-3.86Z" fill="#231f20"/><path d="M345.93,213.49h4.86a.5.5,0,0,0,.5-.5v-4.86a.5.5,0,0,0-.5-.5h-4.86a.5.5,0,0,0-.5.5V213A.5.5,0,0,0,345.93,213.49Zm.5-4.86h3.86v3.86h-3.86Z" fill="#231f20"/><path d="M345.93,222.51h4.86a.5.5,0,0,0,.5-.5v-4.86a.5.5,0,0,0-.5-.5h-4.86a.5.5,0,0,0-.5.5V222A.5.5,0,0,0,345.93,222.51Zm.5-4.86h3.86v3.86h-3.86Z" fill="#231f20"/><path d="M345.93,231.53h4.86a.5.5,0,0,0,.5-.5v-4.86a.5.5,0,0,0-.5-.5h-4.86a.5.5,0,0,0-.5.5V231A.5.5,0,0,0,345.93,231.53Zm.5-4.86h3.86v3.86h-3.86Z" fill="#231f20"/><path d="M323.56,211.37h5.5a.5.5,0,0,0,.5-.5v-5.49a.5.5,0,0,0-.5-.5h-5.5a.5.5,0,0,0-.5.5v5.49A.5.5,0,0,0,323.56,211.37Zm.5-5.49h4.5v4.49h-4.5Z" fill="#231f20"/><path d="M337.94,204.88h-5.5a.5.5,0,0,0-.5.5v5.49a.5.5,0,0,0,.5.5h5.5a.5.5,0,0,0,.5-.5v-5.49A.5.5,0,0,0,337.94,204.88Zm-.5,5.49h-4.5v-4.49h4.5Z" fill="#231f20"/><path d="M323.56,201.39h5.5a.5.5,0,0,0,.5-.5v-5.5a.5.5,0,0,0-.5-.5h-5.5a.5.5,0,0,0-.5.5v5.5A.5.5,0,0,0,323.56,201.39Zm.5-5.5h4.5v4.5h-4.5Z" fill="#231f20"/><path d="M337.94,194.89h-5.5a.5.5,0,0,0-.5.5v5.5a.5.5,0,0,0,.5.5h5.5a.5.5,0,0,0,.5-.5v-5.5A.5.5,0,0,0,337.94,194.89Zm-.5,5.5h-4.5v-4.5h4.5Z" fill="#231f20"/><path d="M329.56,220.86v-5.5a.5.5,0,0,0-.5-.5h-5.5a.51.51,0,0,0-.5.5v5.5a.5.5,0,0,0,.5.5h5.5A.5.5,0,0,0,329.56,220.86Zm-1-.5h-4.5v-4.5h4.5Z" fill="#231f20"/><path d="M337.94,214.86h-5.5a.5.5,0,0,0-.5.5v5.5a.5.5,0,0,0,.5.5h5.5a.5.5,0,0,0,.5-.5v-5.5A.51.51,0,0,0,337.94,214.86Zm-.5,5.5h-4.5v-4.5h4.5Z" fill="#231f20"/><rect x="331.25" y="225.39" width="5.49" height="11.73" fill="none"/><path d="M307.63,237.12h4.76v-4.54a4.11,4.11,0,0,1-3.08-4.23,15.11,15.11,0,0,1,1.07-6,.52.52,0,0,1-.17-.37v-4.86a.5.5,0,0,1,.5-.5h4.86a.5.5,0,0,1,.5.5V222a.5.5,0,0,1-.5.5h-.1a15.48,15.48,0,0,1,1,5.84,4.1,4.1,0,0,1-3.08,4.23v4.54h5.26V202h-11Z" fill="none"/><rect x="324.76" y="225.39" width="5.49" height="11.73" fill="none"/><path d="M315,221.51h.12v-3.86h-3.86V221a2.26,2.26,0,0,1,1.68-.91A2.58,2.58,0,0,1,315,221.51Z" fill="none"/><path d="M312.89,231.64c1.42,0,2.58-1.47,2.58-3.29,0-4.28-1.36-7.26-2.58-7.26s-2.58,3-2.58,7.26C310.31,230.17,311.47,231.64,312.89,231.64Z" fill="none"/><path d="M342.85,233.6H343a4,4,0,0,1,3.39-1.91,3.91,3.91,0,0,1,3.5,2.12,2.43,2.43,0,0,1,.38,0,2.88,2.88,0,0,1,2.89,2.85,2.73,2.73,0,0,1-.06.5h.78V202h-11Z" fill="none"/><path d="M341.85,201.53v-10.2h-22.2v45.79h4.11V224.89a.5.5,0,0,1,.5-.5h13a.5.5,0,0,1,.5.5v12.23H340a2.88,2.88,0,0,1-.07-.59,2.94,2.94,0,0,1,1.91-2.73Z" fill="none"/><path d="M350.26,234.77a2.2,2.2,0,0,0-.53.08.48.48,0,0,1-.6-.3,3,3,0,0,0-5.41-.21.5.5,0,0,1-.52.28l-.28,0a2,2,0,0,0-2,1.94,1.7,1.7,0,0,0,.1.59h11a1.69,1.69,0,0,0,.08-.5A1.87,1.87,0,0,0,350.26,234.77Z" fill="none"/><path d="M354.37,201H342.85v-10.2a.5.5,0,0,0-.5-.5h-23.2a.5.5,0,0,0-.5.5V201H307.13a.5.5,0,0,0-.5.5v36.09a.5.5,0,0,0,.5.5h47.24a.5.5,0,0,0,.5-.5V201.53A.5.5,0,0,0,354.37,201Zm-41.48,20.06c1.22,0,2.58,3,2.58,7.26,0,1.82-1.16,3.29-2.58,3.29s-2.58-1.47-2.58-3.29C310.31,224.07,311.67,221.09,312.89,221.09Zm-1.68-.09v-3.35h3.86v3.86H315a2.58,2.58,0,0,0-2.06-1.42A2.26,2.26,0,0,0,311.21,221Zm7.44,16.12h-5.26v-4.54a4.1,4.1,0,0,0,3.08-4.23,15.48,15.48,0,0,0-1-5.84h.1a.5.5,0,0,0,.5-.5v-4.86a.5.5,0,0,0-.5-.5h-4.86a.5.5,0,0,0-.5.5V222a.52.52,0,0,0,.17.37,15.11,15.11,0,0,0-1.07,6,4.11,4.11,0,0,0,3.08,4.23v4.54h-4.76V202h11Zm11.6,0h-5.49V225.39h5.49Zm6.49,0h-5.49V225.39h5.49Zm3.2-.59a2.88,2.88,0,0,0,.07.59h-2.27V224.89a.5.5,0,0,0-.5-.5h-13a.5.5,0,0,0-.5.5v12.23h-4.11V191.33h22.2V233.8A2.94,2.94,0,0,0,339.94,236.53Zm12.13.59H341a1.7,1.7,0,0,1-.1-.59,2,2,0,0,1,2-1.94l.28,0a.5.5,0,0,0,.52-.28,3,3,0,0,1,5.41.21.48.48,0,0,0,.6.3,2.2,2.2,0,0,1,.53-.08,1.87,1.87,0,0,1,1.89,1.85A1.69,1.69,0,0,1,352.07,237.12Zm1.8,0h-.78a2.73,2.73,0,0,0,.06-.5,2.88,2.88,0,0,0-2.89-2.85,2.43,2.43,0,0,0-.38,0,3.91,3.91,0,0,0-3.5-2.12,4,4,0,0,0-3.39,1.91h-.14V202h11Z" fill="#231f20"/><path d="M355.47,146V131.85l-4-.2v-7H340.89v6.57H333.3l-8.38-3.57H313.61v3.57H309V147.1H320.1v3h6.58v-3h15.16Z" fill="#fdd600"/><path d="M311.11,139.47v-1.3h-1.06v5h3.48v-3.11h-1.92a.5.5,0,0,1-.5-.5Z" fill="none"/><path d="M322.63,132.23H318.9a.5.5,0,0,1-.5-.5v-5.57H317V139h5.68Z" fill="none"/><rect x="319.4" y="126.16" width="3.47" height="5.07" fill="none"/><rect x="312.11" y="137.22" width="3.84" height="1.74" fill="none"/><rect x="312.11" y="126.16" width="3.84" height="10.06" fill="none"/><polygon points="326.14 133.34 323.86 133.07 323.86 138.87 326.14 138.44 326.14 133.34" fill="none"/><path d="M335.9,138.17h-3.06v5h3.06Z" fill="none"/><polygon points="332.15 129.87 323.86 126.41 323.86 132.07 332.15 133.03 332.15 129.87" fill="none"/><polygon points="329.27 133.71 327.14 133.46 327.14 138.25 329.27 137.85 329.27 133.71" fill="none"/><polygon points="327.78 139.15 326.18 139.45 326.18 143.17 327.78 143.17 327.78 139.15" fill="none"/><polygon points="331.84 138.38 328.78 138.96 328.78 143.17 331.84 143.17 331.84 138.38" fill="none"/><polygon points="332.15 134.04 330.27 133.82 330.27 137.66 332.15 137.31 332.15 134.04" fill="none"/><polygon points="349.94 123.16 339.39 123.16 339.39 128.73 340.84 128.73 340.86 128.73 340.87 128.73 349.94 129.17 349.94 123.16" fill="none"/><rect x="333.15" y="129.73" width="7.19" height="7.44" fill="none"/><path d="M354,130.36l-12.63-.61v15.81l6.39-.53v-6.92a.5.5,0,0,1,.5-.5H354Z" fill="none"/><rect x="336.9" y="138.17" width="3.44" height="5" fill="none"/><polygon points="311.11 136.72 311.11 129.73 307.52 129.73 307.52 137.17 311.11 137.17 311.11 136.72" fill="none"/><polygon points="348.73 144.9 353.98 144.5 353.98 138.61 348.73 138.61 348.73 144.9" fill="none"/><rect x="307.53" y="144.17" width="10.12" height="1.43" fill="none"/><rect x="326.18" y="144.17" width="14.16" height="1.43" fill="none"/><rect x="307.53" y="138.17" width="1.52" height="5" fill="none"/><path d="M323.72,139.91a.51.51,0,0,1-.36.15h-4.72v8.5h6.54v-8.93Z" fill="none"/><rect x="314.53" y="140.06" width="3.11" height="3.11" fill="none"/><path d="M355,137v-7.12a.51.51,0,0,0-.47-.5l-3.56-.17v-6.55a.5.5,0,0,0-.5-.5H338.89a.5.5,0,0,0-.5.5v6.07H332l-8.44-3.53a.45.45,0,0,0-.2,0H311.61a.5.5,0,0,0-.5.5v3.07H307a.5.5,0,0,0-.5.5V146.1a.5.5,0,0,0,.5.5h10.61v2.46a.5.5,0,0,0,.5.5h7.54a.5.5,0,0,0,.5-.5V146.6h14.7l7.39-.61a.38.38,0,0,0,.21-.07l6-.46a.5.5,0,0,0,.46-.5v-8Zm-22.13,1.18h3.06v5h-3.06Zm-9-11.77,8.29,3.46V133l-8.29-1Zm2.32,13,1.6-.3v4h-1.6Zm1-1.2v-4.79l2.13.25v4.14Zm1.64.71,3.06-.58v4.79h-3.06Zm1.49-1.3v-3.84l1.88.22v3.27Zm-6.41-4.59,2.28.27v5.1l-2.28.43Zm-4.46-6.91h3.46v5.07H319.4ZM317,136.72V126.16h1.45v5.57a.5.5,0,0,0,.5.5h3.73V139H317Zm-4.84-10.56H316v10.06h-3.84Zm0,11.06H316V139h-3.84Zm-.5,2.84h1.92v3.11h-3.48v-5h1.06v1.39A.5.5,0,0,0,311.61,140.06Zm-4.08-10.33h3.58v7.44h-3.58Zm0,8.44h1.52v5h-1.52Zm10.11,7.43H307.53v-1.43h10.11Zm-3.11-2.43v-3.11h3.11v3.11Zm10.65,5.39h-6.54v-8.5h4.72a.51.51,0,0,0,.36-.15l1.46-.28v8.93Zm15.16-3H326.18v-1.43h14.16Zm0-2.43H336.9v-5h3.44Zm0-6h-7.19v-7.44h7.19Zm.52-8.44h-1.47v-5.57h10.55v6Zm7.37,8.88a.5.5,0,0,0-.5.5V145l-6.39.53V129.75l12.63.61v7.25ZM354,144.5l-5.24.4v-6.29H354Z" fill="#231f20"/><path d="M273.54,203.31v-10.8H251.16v10.8H239v35.39h14.58v.06h17.47v-.06h14.59V203.3Zm-28.69,27.43h-3.91v-3.9h3.91Zm0-9.1h-3.91v-3.9h3.91Zm0-9.09h-3.91v-3.91h3.91Zm17.9-4.92h4.55v4.54h-4.55Zm-8.95,0h4.55v4.54H253.8Zm.1,9h4.55v4.54H253.9Zm6.25,20.8h-5.54V225.55h5.54Zm6.54,0h-5.54V225.55h5.54Zm.71-16.26h-4.55v-4.54h4.55Zm13,9.61h-3.91v-3.9h3.91Zm0-9.1h-3.91v-3.9h3.91Zm0-9.09h-3.91v-3.91h3.91Z" fill="#fdd600"/><rect x="253.9" y="216.59" width="4.54" height="4.54" fill="none"/><rect x="240.94" y="226.84" width="3.9" height="3.9" fill="none"/><rect x="253.8" y="207.63" width="4.54" height="4.54" fill="none"/><rect x="254.61" y="225.55" width="5.54" height="11.84" fill="none"/><rect x="240.94" y="208.64" width="3.9" height="3.9" fill="none"/><rect x="262.75" y="207.63" width="4.54" height="4.54" fill="none"/><rect x="276.45" y="217.74" width="3.9" height="3.9" fill="none"/><rect x="276.45" y="208.64" width="3.9" height="3.9" fill="none"/><rect x="262.85" y="216.59" width="4.54" height="4.54" fill="none"/><rect x="240.94" y="217.74" width="3.9" height="3.9" fill="none"/><rect x="276.45" y="226.84" width="3.9" height="3.9" fill="none"/><path d="M284.47,201H272.84V190.7a.5.5,0,0,0-.5-.5H249a.5.5,0,0,0-.5.5V201H236.83a.51.51,0,0,0-.5.5v36.4a.5.5,0,0,0,.5.5h17.28a.5.5,0,0,1-.5-.5v-.5h-4.15V191.2h22.38v46.19h-4.15v.5a.5.5,0,0,1-.5.5h17.28a.5.5,0,0,0,.5-.5v-36.4A.51.51,0,0,0,284.47,201Zm-.5,36.4H272.84V202H284ZM237.33,202h11.13v35.4H237.33Z" fill="#231f20"/><polygon points="259.92 201.43 261.95 201.43 261.95 199.92 263.46 199.92 263.46 197.89 261.95 197.89 261.95 196.38 259.92 196.38 259.92 197.89 258.41 197.89 258.41 199.92 259.92 199.92 259.92 201.43" fill="#231f20"/><path d="M260.93,204.45a5.55,5.55,0,1,0-5.54-5.54A5.55,5.55,0,0,0,260.93,204.45Zm0-10.09a4.55,4.55,0,1,1-4.54,4.55A4.55,4.55,0,0,1,260.93,194.36Z" fill="#231f20"/><path d="M245.35,207.64h-4.91a.51.51,0,0,0-.5.5v4.91a.5.5,0,0,0,.5.5h4.91a.5.5,0,0,0,.5-.5v-4.91A.51.51,0,0,0,245.35,207.64Zm-.5,4.91h-3.91v-3.91h3.91Z" fill="#231f20"/><path d="M245.35,216.74h-4.91a.5.5,0,0,0-.5.5v4.9a.5.5,0,0,0,.5.5h4.91a.5.5,0,0,0,.5-.5v-4.9A.5.5,0,0,0,245.35,216.74Zm-.5,4.9h-3.91v-3.9h3.91Z" fill="#231f20"/><path d="M245.35,225.84h-4.91a.5.5,0,0,0-.5.5v4.9a.5.5,0,0,0,.5.5h4.91a.5.5,0,0,0,.5-.5v-4.9A.5.5,0,0,0,245.35,225.84Zm-.5,4.9h-3.91v-3.9h3.91Z" fill="#231f20"/><path d="M280.86,207.64H276a.51.51,0,0,0-.5.5v4.91a.5.5,0,0,0,.5.5h4.91a.5.5,0,0,0,.5-.5v-4.91A.51.51,0,0,0,280.86,207.64Zm-.5,4.91h-3.91v-3.91h3.91Z" fill="#231f20"/><path d="M280.86,216.74H276a.5.5,0,0,0-.5.5v4.9a.5.5,0,0,0,.5.5h4.91a.5.5,0,0,0,.5-.5v-4.9A.5.5,0,0,0,280.86,216.74Zm-.5,4.9h-3.91v-3.9h3.91Z" fill="#231f20"/><path d="M280.86,225.84H276a.5.5,0,0,0-.5.5v4.9a.5.5,0,0,0,.5.5h4.91a.5.5,0,0,0,.5-.5v-4.9A.5.5,0,0,0,280.86,225.84Zm-.5,4.9h-3.91v-3.9h3.91Z" fill="#231f20"/><path d="M267.19,224.55H254.11a.5.5,0,0,0-.5.5v12.84a.5.5,0,0,0,.5.5h13.08a.5.5,0,0,0,.5-.5V225.05A.5.5,0,0,0,267.19,224.55Zm-7,12.84h-5.54V225.55h5.54Zm6.54,0h-5.54V225.55h5.54Z" fill="#231f20"/><path d="M253.3,213.17h5.55a.5.5,0,0,0,.5-.5v-5.54a.5.5,0,0,0-.5-.5H253.3a.5.5,0,0,0-.5.5v5.54A.5.5,0,0,0,253.3,213.17Zm.5-5.54h4.55v4.54H253.8Z" fill="#231f20"/><path d="M262.25,213.17h5.55a.5.5,0,0,0,.5-.5v-5.54a.5.5,0,0,0-.5-.5h-5.55a.5.5,0,0,0-.5.5v5.54A.5.5,0,0,0,262.25,213.17Zm.5-5.54h4.55v4.54h-4.55Z" fill="#231f20"/><path d="M259.45,221.63v-5.54a.5.5,0,0,0-.5-.5H253.4a.5.5,0,0,0-.5.5v5.54a.5.5,0,0,0,.5.5H259A.5.5,0,0,0,259.45,221.63Zm-1-.5H253.9v-4.54h4.55Z" fill="#231f20"/><path d="M267.9,215.59h-5.55a.5.5,0,0,0-.5.5v5.54a.5.5,0,0,0,.5.5h5.55a.5.5,0,0,0,.5-.5v-5.54A.5.5,0,0,0,267.9,215.59Zm-.5,5.54h-4.55v-4.54h4.55Z" fill="#231f20"/><path d="M398.65,192.48v9H379.12V239h46.25v-46.5Zm-6.23,39.14a1.3,1.3,0,0,1-1.3,1.29h-8.47a1.29,1.29,0,0,1-1.29-1.29v-.34a1.29,1.29,0,0,1,1.29-1.29h8.47a1.29,1.29,0,0,1,1.3,1.29Zm0-8.48a1.3,1.3,0,0,1-1.3,1.29h-8.47a1.29,1.29,0,0,1-1.29-1.29v-.34a1.29,1.29,0,0,1,1.29-1.29h8.47a1.29,1.29,0,0,1,1.3,1.29Zm0-8.48a1.3,1.3,0,0,1-1.3,1.29h-8.47a1.29,1.29,0,0,1-1.29-1.29v-.34a1.29,1.29,0,0,1,1.29-1.29h8.47a1.3,1.3,0,0,1,1.3,1.29Zm0-8.48a1.3,1.3,0,0,1-1.3,1.29h-8.47a1.29,1.29,0,0,1-1.29-1.29v-.34a1.29,1.29,0,0,1,1.29-1.29h8.47a1.3,1.3,0,0,1,1.3,1.29Zm15.35,24.57h-6.29v-6.29h6.29Zm0-13.38h-6.29v-6.29h6.29Zm0-13.38h-6.29v-6.28h6.29Zm11.77,26.76h-6.29v-6.29h6.29Zm0-13.38h-6.29v-6.29h6.29Zm0-13.38h-6.29v-6.28h6.29Z" fill="#fdd600"/><path d="M424.38,190H396.65a.5.5,0,0,0-.5.5V199h-19a.5.5,0,0,0-.5.5V238a.5.5,0,0,0,.5.5h47.25a.51.51,0,0,0,.5-.5v-47.5A.5.5,0,0,0,424.38,190Zm-28.23,47.5H377.63V200h18.52Zm27.73,0H397.15V191h26.73Z" fill="#231f20"/><path d="M420,196.71h-7.29a.5.5,0,0,0-.5.5v7.28a.5.5,0,0,0,.5.5H420a.5.5,0,0,0,.5-.5v-7.28A.5.5,0,0,0,420,196.71Zm-.5,7.28h-6.29v-6.28h6.29Z" fill="#231f20"/><path d="M420,210.08h-7.29a.5.5,0,0,0-.5.5v7.29a.5.5,0,0,0,.5.5H420a.5.5,0,0,0,.5-.5v-7.29A.5.5,0,0,0,420,210.08Zm-.5,7.29h-6.29v-6.29h6.29Z" fill="#231f20"/><path d="M420,223.46h-7.29a.5.5,0,0,0-.5.5v7.29a.5.5,0,0,0,.5.5H420a.5.5,0,0,0,.5-.5V224A.5.5,0,0,0,420,223.46Zm-.5,7.29h-6.29v-6.29h6.29Z" fill="#231f20"/><path d="M408.27,196.71H401a.5.5,0,0,0-.5.5v7.28a.5.5,0,0,0,.5.5h7.29a.5.5,0,0,0,.5-.5v-7.28A.5.5,0,0,0,408.27,196.71Zm-.5,7.28h-6.29v-6.28h6.29Z" fill="#231f20"/><path d="M408.27,210.08H401a.51.51,0,0,0-.5.5v7.29a.5.5,0,0,0,.5.5h7.29a.5.5,0,0,0,.5-.5v-7.29A.5.5,0,0,0,408.27,210.08Zm-.5,7.29h-6.29v-6.29h6.29Z" fill="#231f20"/><path d="M408.27,223.46H401a.5.5,0,0,0-.5.5v7.29a.5.5,0,0,0,.5.5h7.29a.5.5,0,0,0,.5-.5V224A.5.5,0,0,0,408.27,223.46Zm-.5,7.29h-6.29v-6.29h6.29Z" fill="#231f20"/><path d="M391.12,220.51h-8.47a2.29,2.29,0,0,0-2.29,2.29v.34a2.3,2.3,0,0,0,2.29,2.29h8.47a2.3,2.3,0,0,0,2.3-2.29v-.34A2.29,2.29,0,0,0,391.12,220.51Zm1.3,2.63a1.3,1.3,0,0,1-1.3,1.29h-8.47a1.29,1.29,0,0,1-1.29-1.29v-.34a1.29,1.29,0,0,1,1.29-1.29h8.47a1.29,1.29,0,0,1,1.3,1.29Z" fill="#231f20"/><path d="M391.12,203.55h-8.47a2.29,2.29,0,0,0-2.29,2.29v.34a2.29,2.29,0,0,0,2.29,2.29h8.47a2.29,2.29,0,0,0,2.3-2.29v-.34A2.29,2.29,0,0,0,391.12,203.55Zm1.3,2.63a1.3,1.3,0,0,1-1.3,1.29h-8.47a1.29,1.29,0,0,1-1.29-1.29v-.34a1.29,1.29,0,0,1,1.29-1.29h8.47a1.3,1.3,0,0,1,1.3,1.29Z" fill="#231f20"/><path d="M391.12,212h-8.47a2.29,2.29,0,0,0-2.29,2.29v.34a2.3,2.3,0,0,0,2.29,2.29h8.47a2.3,2.3,0,0,0,2.3-2.29v-.34A2.29,2.29,0,0,0,391.12,212Zm1.3,2.63a1.3,1.3,0,0,1-1.3,1.29h-8.47a1.29,1.29,0,0,1-1.29-1.29v-.34a1.29,1.29,0,0,1,1.29-1.29h8.47a1.3,1.3,0,0,1,1.3,1.29Z" fill="#231f20"/><path d="M391.12,229h-8.47a2.29,2.29,0,0,0-2.29,2.29v.34a2.3,2.3,0,0,0,2.29,2.29h8.47a2.3,2.3,0,0,0,2.3-2.29v-.34A2.29,2.29,0,0,0,391.12,229Zm1.3,2.63a1.3,1.3,0,0,1-1.3,1.29h-8.47a1.29,1.29,0,0,1-1.29-1.29v-.34a1.29,1.29,0,0,1,1.29-1.29h8.47a1.29,1.29,0,0,1,1.3,1.29Z" fill="#231f20"/><path d="M492.14,221.56l-1.18-18h-5.69l-1.18,18h-4.4a.5.5,0,0,1-.5-.5v-7l-13.46,7.4a.52.52,0,0,1-.74-.44v-7l-13.26,7.29v18h25.21c0-2.68,0-5.36,0-8-.62-.64-.65-1.39-.36-1.65s.89,0,.93,0l4.57.11.45.47v9.11h10.21V221.56Zm-32.49,13.3h-3.32v-3.32h3.32Zm0-7.45h-3.32v-3.32h3.32Zm7.85,7.45h-3.32v-3.32h3.32Zm0-7.45h-3.32v-3.32h3.32Z" fill="#fdd600"/><path d="M491.77,219.06h-.12l-1.23-17.5a.49.49,0,0,0-.5-.46h-6.61a.5.5,0,0,0-.5.46l-1.23,17.5H478.7v-7.31a.51.51,0,0,0-.24-.43.52.52,0,0,0-.5,0l-13.46,7.41v-7a.51.51,0,0,0-.24-.43.52.52,0,0,0-.5,0l-14.09,7.76a.5.5,0,0,0-.43.49v18.78a.51.51,0,0,0,.5.5h42a.5.5,0,0,0,.5-.5V219.56A.5.5,0,0,0,491.77,219.06Zm-41.53.83,13.26-7.29v7a.52.52,0,0,0,.75.44l13.45-7.4v7a.5.5,0,0,0,.5.5h13.07v17.78h-8.72v-8.36a.5.5,0,0,0-.5-.5h-5.59a.5.5,0,0,0-.5.5v8.36H450.24Zm39.22-17.79,1.19,17h-8.06l1.18-17Zm-7.91,35.74H477V230h4.59Z" fill="#231f20"/><path d="M460.15,223.09h-4.32a.5.5,0,0,0-.5.5v4.32a.5.5,0,0,0,.5.5h4.32a.5.5,0,0,0,.5-.5v-4.32A.51.51,0,0,0,460.15,223.09Zm-.5,4.32h-3.32v-3.32h3.32Z" fill="#231f20"/><path d="M468,223.09h-4.32a.5.5,0,0,0-.5.5v4.32a.5.5,0,0,0,.5.5H468a.5.5,0,0,0,.5-.5v-4.32A.5.5,0,0,0,468,223.09Zm-.5,4.32h-3.32v-3.32h3.32Z" fill="#231f20"/><path d="M460.15,230.54h-4.32a.5.5,0,0,0-.5.5v4.32a.5.5,0,0,0,.5.5h4.32a.5.5,0,0,0,.5-.5V231A.51.51,0,0,0,460.15,230.54Zm-.5,4.32h-3.32v-3.32h3.32Z" fill="#231f20"/><path d="M468,230.54h-4.32a.5.5,0,0,0-.5.5v4.32a.5.5,0,0,0,.5.5H468a.5.5,0,0,0,.5-.5V231A.5.5,0,0,0,468,230.54Zm-.5,4.32h-3.32v-3.32h3.32Z" fill="#231f20"/><path d="M474.11,195.16a3.63,3.63,0,0,0,.73-.08,4.1,4.1,0,0,0,3.91,2.2,4.68,4.68,0,0,0,3.15-1.13,3.62,3.62,0,0,0,2.16,1v.16a2.53,2.53,0,1,0,5,0,2.9,2.9,0,0,0-1.17-2.38,2.65,2.65,0,0,0,.11-.74,3.28,3.28,0,0,0-3.5-3,3.75,3.75,0,0,0-2.62,1,5.16,5.16,0,0,0-4.92-.83,3.07,3.07,0,0,0-2.87-1.76,2.79,2.79,0,1,0,0,5.54Zm0-4.54a2,2,0,0,1,2.06,1.53.52.52,0,0,0,.27.36.51.51,0,0,0,.45,0,4.11,4.11,0,0,1,1.86-.43,3.43,3.43,0,0,1,2.76,1.18.56.56,0,0,0,.41.2.49.49,0,0,0,.41-.21,2.63,2.63,0,0,1,2.19-1.05,2.29,2.29,0,0,1,2.5,2,1.58,1.58,0,0,1-.18.73.56.56,0,0,0,0,.4.55.55,0,0,0,.27.29,1.83,1.83,0,0,1,1,1.7,1.54,1.54,0,1,1-3,0,2.27,2.27,0,0,1,.07-.53.48.48,0,0,0-.1-.43.47.47,0,0,0-.38-.19h-.13a2.63,2.63,0,0,1-2.19-1,.49.49,0,0,0-.41-.21.56.56,0,0,0-.41.2,3.43,3.43,0,0,1-2.76,1.18c-1.57,0-2.92-.83-3.07-1.9A.5.5,0,0,0,475,194a2.51,2.51,0,0,1-.89.17,1.8,1.8,0,1,1,0-3.54Z" fill="#231f20"/><polygon points="424.86 270.07 379.89 270.07 379.89 274.1 385.67 274.1 386.37 274.1 386.37 278.71 389.1 278.71 389.61 278.71 389.61 280.87 389.61 280.87 389.78 305.66 393.58 311.82 393.58 280.87 393.58 280.87 393.58 278.71 394.08 278.71 394.08 278.71 399.85 278.71 399.85 278.71 400.35 278.71 400.35 279.71 400.35 308.46 402.18 312.14 404.15 308.5 404.15 279.71 404.15 279.71 404.15 278.71 404.64 278.71 404.65 278.71 410.34 278.71 410.35 278.71 410.84 278.71 410.84 279.71 410.84 311.83 414.64 305.75 414.64 279.71 414.64 279.71 414.64 278.71 415.13 278.71 415.14 278.71 418.3 278.71 418.3 274.1 418.79 274.1 418.8 274.1 424.86 274.1 424.86 270.07" fill="#fdd600"/><path d="M424.11,267.82a.5.5,0,0,0-.5-.5h-46a.51.51,0,0,0-.5.5v5a.47.47,0,0,0,.15.35.51.51,0,0,0,.35.15h6v4.11a.5.5,0,0,0,.5.5h2.74l.17,26.1a.59.59,0,0,0,.07.26l4.8,7.78a.51.51,0,0,0,.43.23.34.34,0,0,0,.14,0,.5.5,0,0,0,.36-.48V278h4.77v28.87a.59.59,0,0,0,0,.22L400,311.7a.49.49,0,0,0,.44.27.48.48,0,0,0,.45-.26l2.48-4.59a.53.53,0,0,0,.06-.24V278h4.69v33.86a.5.5,0,0,0,.93.26l4.8-7.67a.48.48,0,0,0,.07-.26V278h3.16a.51.51,0,0,0,.5-.5v-4.11h6.06a.5.5,0,0,0,.5-.5Zm-32.28,42.25-3.8-6.16-.17-26h4Zm10.57-3.32-2,3.64-1.83-3.68V278h3.8Zm6.69,3.33V278h3.8v26Zm4.3-33.12H384.62v-3.61h31.93V277Zm3.66-4.61H378.14v-4h45v4Z" fill="#231f20"/><path d="M135.86,362.61a.5.5,0,0,1-.5-.5v-3.32a.5.5,0,0,1,.5-.5h.32v-2.67a.5.5,0,0,1,.5-.5h1.22v-2.43H106.85v2.43h1.22a.5.5,0,0,1,.5.5v2.67h.32a.5.5,0,0,1,.5.5v3.32a.5.5,0,0,1-.5.5H99.33v18.85h46.09V362.61Zm-32.23,13.18h-3v-3.6h3Zm0-7.67h-3v-3.6h3Zm12.53-10.58h2.78v14.89h-2.78Zm-6.14,0h2.77v14.89H110Zm12.65,22.17H110.81v-2.92h11.86Zm2.42-7.28h-2.78V357.54h2.78Zm6.14,0h-2.77V357.54h2.77Zm9.36,3.48h-3.05v-3.59h3.05Zm0-7.66h-3.05v-3.6h3.05Z" fill="#fdd600"/><path d="M144.17,359.86h-9.56v-2.32h.32a.5.5,0,0,0,.5-.5v-2.67h1.22a.5.5,0,0,0,.5-.5v-3.43a.5.5,0,0,0-.5-.5H104.6a.5.5,0,0,0-.5.5v3.43a.5.5,0,0,0,.5.5h1.22V357a.5.5,0,0,0,.5.5h.32v2.32H97.08a.51.51,0,0,0-.5.5v19.85a.51.51,0,0,0,.5.5h47.09a.51.51,0,0,0,.5-.5V360.36A.51.51,0,0,0,144.17,359.86ZM97.58,379.71V360.86h9.06v18.85Zm7.52-28.77h31.05v2.43H105.1Zm28.51,21.45h-1.38V357.54h1.38Zm-6.15,0h-1.37V357.54h1.37Zm-6.15,0h-1.37V357.54h1.37Zm-6.15,0h-1.37V357.54h1.37ZM110,357.54h2.77v14.89H110Zm6.14,0h2.78v14.89h-2.78Zm6.15,0h2.78v14.89h-2.78Zm6.15,0h2.77v14.89h-2.77Zm6-3.17v2.17H106.82v-2.17ZM109,357.54v14.85h-1.38V357.54Zm-1.38,15.89h26v6.28h-9.94v-3.42a.5.5,0,0,0-.5-.5H110.31a.5.5,0,0,0-.5.5v3.42h-2.17Zm15,6.28H110.81v-2.92h11.86Zm21,0h-9.06V360.86h9.06Z" fill="#231f20"/><path d="M137,369.25h4.05a.51.51,0,0,0,.5-.5v-4.6a.51.51,0,0,0-.5-.5H137a.51.51,0,0,0-.5.5v4.6A.51.51,0,0,0,137,369.25Zm.5-4.6h3.05v3.6h-3.05Z" fill="#231f20"/><path d="M137,376.91h4.05a.5.5,0,0,0,.5-.5v-4.59a.5.5,0,0,0-.5-.5H137a.5.5,0,0,0-.5.5v4.59A.5.5,0,0,0,137,376.91Zm.5-4.59h3.05v3.59h-3.05Z" fill="#231f20"/><path d="M104.13,363.52h-4a.5.5,0,0,0-.5.5v4.6a.5.5,0,0,0,.5.5h4a.5.5,0,0,0,.5-.5V364A.5.5,0,0,0,104.13,363.52Zm-.5,4.6h-3v-3.6h3Z" fill="#231f20"/><path d="M104.13,371.19h-4a.5.5,0,0,0-.5.5v4.6a.5.5,0,0,0,.5.5h4a.5.5,0,0,0,.5-.5v-4.6A.5.5,0,0,0,104.13,371.19Zm-.5,4.6h-3v-3.6h3Z" fill="#231f20"/><path d="M205.34,354v1.32a.5.5,0,0,1-.5.5H197v9.51h-2v-9.52h-1v9.52h-2v-9.52h-1v9.52h-2.12V355.6l.83,0a.44.44,0,0,1-.08-.25V354h-1.28v3.52a.51.51,0,0,1-.5.5h-2.25v.19h-5.85v-1.44H169.18v23.35h45.93v-24.8a.5.5,0,0,1,.46-.5V354Zm-25.58,5.21h5.85v1.95h-5.85Zm0,2.95h5.85v1.95h-5.85Zm0,2.95h5.85v2h-5.85Zm5.85,4.76v5.54h-2.43v-5.54Zm-5.85,0h2.42v5.54h-2.42ZM170,357.1h6.19v1.95H170Zm0,5.2h6.19v1.95H170Zm1.33,12.76H170v-3.84h1.33Zm7.43,3.32h-3l3-1.55Zm9.13,0h-8.13v-2h8.13Zm0-3h-1.28v-5.54h1.28Zm5.47-4.8h1.33v3.85h-1.33Zm-4.47,7.76v-1.85l9.17,1.85Zm10.28-3.91h-1.33v-3.85h1.33Zm.87-9.12h-2v-9.41l.28,0,1.73.23Zm3,0h-2v-9c.67.1,1.34.22,2,.34Zm5.16-8.25h1.36v3.17H208.2Zm0,5.91h1.36v3.17H208.2Zm.18,12.41h-2.06v-5.75h2.06Zm3.06,0h-2.06v-5.75h2.06Z" fill="#fdd600"/><path d="M214.32,351.27H203.09a.5.5,0,0,0-.5.5v1.31h-13.7v-1.31a.5.5,0,0,0-.5-.5h-2.28a.5.5,0,0,0-.5.5v3.5h-5.85v-.74a.51.51,0,0,0-.5-.5H166.93a.51.51,0,0,0-.5.5v24.35a.5.5,0,0,0,.5.5h46.93a.5.5,0,0,0,.5-.5V354.07a.49.49,0,0,0,.46-.49v-1.81A.5.5,0,0,0,214.32,351.27Zm-1,24.15h-.92v-6.25a.5.5,0,0,0-.5-.5h-6.12a.5.5,0,0,0-.5.5v6.25H204V354.08h9.32Zm-7,0v-5.75h2.06v5.75Zm3.06-5.75h2.06v5.75h-2.06Zm-29.62-7.5h5.85v1.95h-5.85Zm5.85-1h-5.85v-1.95h5.85Zm-5.85,3.95h5.85v2h-5.85Zm8.13,13.26h-8.13v-2h8.13Zm2-10.22v.72H174.51v-.72Zm-4.25,1.72v5.54h-2.43v-5.54Zm2.28,5.54h-1.28v-5.54h1.28Zm1-8.35v-.72H203v.72ZM203,365.35h-2v-9c.67.1,1.34.22,2,.34Zm-3,0h-2v-9.41l.28,0,1.73.23Zm-3,0h-2v-9.66l2,.15Zm-3,0h-2v-9.77c.67,0,1.34,0,2,.05Zm-3,0h-2.12V355.6c.71,0,1.41,0,2.12,0Zm-8.83,4.53v5.54h-2.42v-5.54Zm6.71,0h1.47a.5.5,0,0,0,.5-.5v-1.31H203v10.3l-14.15-2.86Zm14.7-17.61h10.23v.81H203.59Zm-.55,1.81v1.58c-1.53-.28-3.08-.52-4.62-.69a67.4,67.4,0,0,0-9.53-.37v-.52Zm-16.43-1.81h1.28v14.89h-1.28V352.27Zm-1,4v2h-5.85v-2ZM167.43,355h11.33v12.13H174a.51.51,0,0,0-.5.5v1.72a.5.5,0,0,0,.5.5h4.75v5.82l-5.17,2.68h-6.16Zm11.33,21.8v1.55h-3Zm10.13,1.55v-1.85l9.17,1.85Zm24.47,0H204v-2h9.32Z" fill="#231f20"/><path d="M169.5,360.05h7.19a.5.5,0,0,0,.5-.5V356.6a.5.5,0,0,0-.5-.5H169.5a.5.5,0,0,0-.5.5v2.95A.5.5,0,0,0,169.5,360.05Zm.5-2.95h6.19v1.95H170Z" fill="#231f20"/><path d="M169.5,365.25h7.19a.5.5,0,0,0,.5-.5V361.8a.5.5,0,0,0-.5-.5H169.5a.5.5,0,0,0-.5.5v2.95A.5.5,0,0,0,169.5,365.25Zm.5-2.95h6.19v1.95H170Z" fill="#231f20"/><path d="M195.19,369.62h-2.33a.5.5,0,0,0-.5.5V375a.5.5,0,0,0,.5.5h2.33a.5.5,0,0,0,.5-.5v-4.85A.51.51,0,0,0,195.19,369.62Zm-.5,4.85h-1.33v-3.85h1.33Z" fill="#231f20"/><path d="M199.67,369.62h-2.33a.5.5,0,0,0-.5.5V375a.5.5,0,0,0,.5.5h2.33a.5.5,0,0,0,.5-.5v-4.85A.51.51,0,0,0,199.67,369.62Zm-.5,4.85h-1.33v-3.85h1.33Z" fill="#231f20"/><path d="M171.83,370.22H169.5a.5.5,0,0,0-.5.5v4.84a.5.5,0,0,0,.5.5h2.33a.5.5,0,0,0,.5-.5v-4.84A.5.5,0,0,0,171.83,370.22Zm-.5,4.84H170v-3.84h1.33Z" fill="#231f20"/><path d="M207.7,361.27h2.36a.5.5,0,0,0,.5-.5V356.6a.5.5,0,0,0-.5-.5H207.7a.5.5,0,0,0-.5.5v4.17A.5.5,0,0,0,207.7,361.27Zm.5-4.17h1.36v3.17H208.2Z" fill="#231f20"/><path d="M207.7,367.18h2.36a.5.5,0,0,0,.5-.5v-4.17a.5.5,0,0,0-.5-.5H207.7a.5.5,0,0,0-.5.5v4.17A.5.5,0,0,0,207.7,367.18Zm.5-4.17h1.36v3.17H208.2Z" fill="#231f20"/><g id="ba422c36-6c2f-49da-932a-b850c623ac14" data-name="Layer 4"><path d="M283.8,361a.5.5,0,0,1-.37-.49v-5.12l-4.13-1.5v1.41a.49.49,0,0,1-.21.4.47.47,0,0,1-.44.08l-3.5-1.08-21.83,6.21v10.27a.5.5,0,0,1-.5.5h-8.27l-5.42-.62v1.78h.57v-.69l2.6,0v.85h-1a.53.53,0,0,1,.15.35v1.85a.51.51,0,0,1-.49.5l-1.83,0v4.66l5.48.57H255l4.68-.37a.4.4,0,0,1,.19,0l9.78.53,5.49.37,3.58-.77,2.55-.67,2.57-.64,1.73-.4,0-4.05a.51.51,0,0,1,.41-.49V361.56Zm-33,18.26H243.3V372h7.54Zm11.62-19,1.27-.33,0,11.74-1.25,0Zm-8.22,2.21,1.26-.31,0,5.31a.39.39,0,0,0,0,.15v2.3l-1.26-.16Zm3.2,11.63v4.87l-3.72.29v-8.56l3.72.49Zm.91-12.73,1.26-.3,0,10.73-1.15,0v-1.09a.45.45,0,0,0-.09-.28Zm.09,17.6v-4.37l8.87-.16,0,5Zm9.38-7.44-1.24,0V359.05l1.26-.36ZM272.9,375l-2.11,0V357.85l2.11-.44Zm1.67,0-.67,0V357.53l.69.26Z" fill="#fdd600"/><path d="M284.88,359.05l-2.2-.62v-5.09a.5.5,0,0,0-.33-.47L277.22,351h-.31l-3.64,1h0l-22.32,6.36a.49.49,0,0,0-.37.48V369h-7.75l-5.89-.67a.47.47,0,0,0-.39.12.51.51,0,0,0-.16.37v2.85h0a.43.43,0,0,0,0,.11s0,.05,0,.08a.48.48,0,0,0,.46.3h0l1.8,0V373L237,373h-.12a.5.5,0,0,0-.49.5v5.6a.51.51,0,0,0,.45.5l5.93.62h10.51l4.62-.37h0l9.9.54h0l5.55.37h.14l3.64-.78h0c.84-.23,1.69-.45,2.56-.67l2.56-.63,2.1-.5a.49.49,0,0,0,.39-.48l0-4a.49.49,0,0,0,.41-.49V359.53A.5.5,0,0,0,284.88,359.05Zm-.64,13.69-4.58.64V358.63l4.58,1.28ZM273.9,357.53l.69.26,0,17.15-.67,0Zm-1,17.45-2.11,0V357.85l2.11-.44Zm3.65-22.06-1.36-.41,1.36-.38Zm-3.65.22v3.25l-2.71.57a.5.5,0,0,0-.4.49v18.06a.55.55,0,0,0,.15.36.52.52,0,0,0,.35.14h0l2.6,0v3.75l-4.56-.31,0-5.58a.51.51,0,0,0-.15-.35.52.52,0,0,0-.36-.14l-9.36.16v-.76l1.67-.06a.5.5,0,0,0,.48-.49l0-11.86a.49.49,0,0,0-.19-.39.51.51,0,0,0-.43-.1l-2.26.56a.49.49,0,0,0-.38.48v9.19l-.85-.12v-8.52a.51.51,0,0,0-.19-.4.51.51,0,0,0-.43-.09l-2.26.56a.49.49,0,0,0-.38.48v5.83h-1.67v-8.61Zm-5.56,26.22-8.9-.48v-4.37l8.87-.16Zm-24-.15V372h7.54v7.18Zm12.2-9.38-1.26-.16v-7.29l1.26-.31Zm-2.78.21h0v9.17h-.88V368.82h.88Zm1,9.13v-8.56l3.72.49v7.78Zm4.63-8.79v-9.1l1.26-.3,0,10.73-1.15,0v-1.09A.45.45,0,0,0,258.35,370.38Zm-7.51.65H243.3v-1h7.54Zm-8.54-1.1V371l-3.11.06h0l-.74,0-1.07,0v-1.78Zm0,2.11v.85l-2.6.05v-.85Zm0,1.85v5.27l-4.93-.52V374l1.83,0h0Zm34.25,5.18-2.65.57V376l1.18,0a.48.48,0,0,0,.48-.49l0-18a.51.51,0,0,0-.32-.47l-1.37-.52v-3.31l2.65.82Zm5.51-1.39-2.57.64-1.94.51V352.19l4.13,1.5v4.47l-2.38-.67a.5.5,0,0,0-.44.09.5.5,0,0,0-.2.39v16a.5.5,0,0,0,.17.38.52.52,0,0,0,.33.12h.07l4.6-.64,0,3.47Z" fill="#231f20"/><path d="M281.09,361.06a.5.5,0,0,0-.5.5v9.65a.5.5,0,0,0,.5.5.5.5,0,0,0,.5-.5v-9.65A.51.51,0,0,0,281.09,361.06Z" fill="#231f20"/><path d="M282.32,362v8.87a.5.5,0,0,0,1,0V362a.5.5,0,0,0-1,0Z" fill="#231f20"/><path d="M266.08,372.5h0l2.24-.07a.51.51,0,0,0,.49-.5l0-13.91a.49.49,0,0,0-.2-.4.53.53,0,0,0-.44-.08l-2.26.66a.5.5,0,0,0-.36.48V372a.49.49,0,0,0,.15.36A.5.5,0,0,0,266.08,372.5Zm.5-13.45,1.26-.36,0,12.75-1.24,0Z" fill="#231f20"/><path d="M262,372.63h0l2.24-.07a.51.51,0,0,0,.49-.5l0-12.88a.5.5,0,0,0-.2-.39.48.48,0,0,0-.43-.09l-2.26.61a.5.5,0,0,0-.38.48v12.34a.48.48,0,0,0,.16.36A.49.49,0,0,0,262,372.63Zm.5-12.46,1.27-.33,0,11.74-1.25,0Z" fill="#231f20"/><path d="M350.8,373.44h-.05l-.87.07a.5.5,0,0,1-.54-.5l0-6.76H338.62a.5.5,0,0,1-.5-.5V362.4a.5.5,0,0,1-.29-.45,5.35,5.35,0,0,0-5.35-5.26h-.1a5.4,5.4,0,0,0-5.46,5.26.49.49,0,0,1-.29.45v3.36a.5.5,0,0,1-.5.5H315.39v.57h8.49v1h-8.49V373a.5.5,0,0,1-.54.5l-.85-.07h-5v1.95h2.75v6.09H309v1.91h46.67v-9.95Zm-34.73,8h-3.28v-6l3.28.27Zm7.81,0h-6.81v-5.73h6.81Zm6.56-17.84a18.77,18.77,0,0,1,3,.24L332.3,365H329l-1.14-1.08A19.32,19.32,0,0,1,330.44,363.64Zm3.59,1.05v4.76l-1-1.34v-2.45ZM332,366v1.83h-2.75V366Zm-4.78-1.26,1,1v2.45l-1,1.34Zm0,16.79h-2.34v-5.8l1.91-.29h.43Zm2.77,0h-1.77v-6.09H330Zm2.76,0H331v-6.09h1.76Zm-5.1-11,1.35-1.75h3.25l1.35,1.75Zm8.72,11h-2.62v-6.09h.71l1.91.29Zm1-14.65H347.6v1H337.37Zm6.81,14.65h-6.81v-5.73h6.81Zm4.28,0h-3.28v-5.77l3.28-.27Zm5.5,0h-4.5v-6.09H354Z" fill="#fdd600"/><path d="M354.46,370.53h-5.55l-.32,0v-2.2s0,0,0-.06,0,0,0-.05v-4.4a.49.49,0,0,0-.15-.36.51.51,0,0,0-.35-.15H337.37v-3.27a.5.5,0,0,0-.31-.46,6.38,6.38,0,0,0-5.93-5.82v-5.29a.5.5,0,0,0-.5-.5.5.5,0,0,0-.5.5v5.29a6.39,6.39,0,0,0-5.94,5.82.5.5,0,0,0-.31.46v3.27H313.14a.51.51,0,0,0-.5.5v6.72l-.3,0h-5.55a.5.5,0,0,0-.5.5v11a.5.5,0,0,0,.5.5h47.67a.5.5,0,0,0,.5-.5V371A.5.5,0,0,0,354.46,370.53Zm-.5,3.86h-4.5v-2.86H354Zm-40.32-7.56h10.24v1H313.64Zm16.95-11.76a6.15,6.15,0,0,1,1.69,4.13c-.46,0-.93-.06-1.39-.06-.66,0-1.32,0-2,0A6.25,6.25,0,0,1,330.59,355.07Zm-5.71,5.45a44.45,44.45,0,0,1,6-.38,43.78,43.78,0,0,1,5.49.38v10.29l-1.34-.2v-7.07s0,0,0-.05,0-.06,0-.09,0,0,0,0,0,0,0-.05l-.05-.07a.05.05,0,0,1,0,0h0l0,0-.08-.05,0,0h-.05l-.05,0a19.12,19.12,0,0,0-4.2-.41,19.49,19.49,0,0,0-3.81.41l-.05,0h-.05l0,0-.08.05,0,0h0a.05.05,0,0,1,0,0l-.05.07s0,0,0,.05,0,0,0,0,0,.06,0,.09,0,0,0,.05v7.07l-1.34.2Zm22.72,7.29H337.37v-1H347.6Zm.86,13.67h-3.28v-5.77l3.28-.27Zm-20.74-7.09h-.5v-2.86H334v2.86h-6.31Zm-11.65.31h-.15l-3.13-.26v-2.84l3.28.26Zm-3.28.74,3.28.27v5.77h-3.28Zm4.28-3.55h6.81v2.86h-6.81Zm31.39-.3v2.84l-3.13.26h-.15v-2.85Zm-4.28,3.16h-6.81v-2.86h6.81Zm-19.3-.09v-2.84l1.34-.2v2.84Zm2.93-10.79a19.32,19.32,0,0,1,2.63-.23,18.77,18.77,0,0,1,3,.24L332.3,365H329Zm1.44,2.08H332v1.83h-2.75Zm-.25,2.83h3.25l1.35,1.75h-6Zm6,2.84,1.34.21v2.83l-1.34-.2Zm-2-3.51v-2.45l1-1v4.76Zm-4.75-2.45v2.45l-1,1.34v-4.76Zm-3.37,10,1.91-.29h.43v6.09h-2.34Zm9.57-.29h0l1.91.29v5.8h-2.62v-6.09Zm2.92.36h6.81v5.73h-6.81Zm7.29-4.86h-7.29v-2.08H347.6v1.84Zm2.95-6.54v1.48H337.37v-1.48ZM336,359.49c-.92-.11-1.83-.2-2.75-.25a7.46,7.46,0,0,0-1.49-4.33A5.38,5.38,0,0,1,336,359.49Zm-6.66-4.55a7.43,7.43,0,0,0-1.47,4.29c-.9,0-1.8.14-2.69.24A5.33,5.33,0,0,1,329.38,354.94Zm-5.5,9.41v1.48H313.64v-1.48Zm-10.24,4.46h10.24v2.08h-7.29l-2.95-.24Zm-1.85,2.72v2.86h-4.5v-2.86Zm-4.5,3.86h4.5v6.09h-4.5Zm9.78.36h6.81v5.73h-6.81Zm11.15-.36H330v6.09h-1.77Zm2.77,6.09v-6.09h1.76v6.09Zm18.47,0v-6.09H354v6.09Z" fill="#231f20"/></g></g><g id="af83d382-f657-4e81-a329-98ddd042aea6" data-name="CATEGORIES"><text transform="translate(93.15 72.42)" font-size="40" fill="#231f20" font-family="Antonio-Bold, Antonio" font-weight="700">CAMPUS BUILDINGS</text></g><g id="a39eae74-94cf-4d9c-8a2a-4a75f72b227e" data-name="LABELS"><text transform="translate(96 244.4)" font-size="6" fill="#231f20" font-family="Roboto-Regular, Roboto">b<tspan x="3.37" y="0" letter-spacing="-0.01em">o</tspan><tspan x="6.74" y="0" letter-spacing="-0.01em">y</tspan><tspan x="9.54" y="0">d-</tspan><tspan x="14.58" y="0" letter-spacing="-0.01em">t</tspan><tspan x="16.49" y="0">ower</tspan></text><text transform="translate(305.97 244.4)" font-size="6" fill="#231f20" font-family="Roboto-Regular, Roboto">cityscape-t<tspan x="29.05" y="0" letter-spacing="-0.01em">r</tspan><tspan x="31.03" y="0">ee</tspan></text><text transform="translate(446.31 244.4)" font-size="6" fill="#231f20" font-family="Roboto-Regular, Roboto">manufactu<tspan x="28.9" y="0" letter-spacing="-0.01em">r</tspan><tspan x="30.87" y="0">e-building</tspan></text><text transform="translate(236.22 244.4)" font-size="6" fill="#231f20" font-family="Roboto-Regular, Roboto">hospital</text><text transform="translate(165.66 244.4)" font-size="6" fill="#231f20" font-family="Roboto-Regular, Roboto">bridge</text><text transform="translate(376.44 244.4)" font-size="6" fill="#231f20" font-family="Roboto-Regular, Roboto"><tspan letter-spacing="-0.01em">r</tspan><tspan x="1.97" y="0">esidence-hall</tspan></text><text transform="translate(235.65 166.42)" font-size="6" fill="#231f20" font-family="Roboto-Regular, Roboto">hancher-audi<tspan x="34.6" y="0" letter-spacing="-0.01em">t</tspan><tspan x="36.5" y="0">orium</tspan></text><text transform="translate(375.67 166.42)" font-size="6" fill="#231f20" font-family="Roboto-Regular, Roboto">water-<tspan x="16.6" y="0" letter-spacing="-0.01em">t</tspan><tspan x="18.5" y="0">ower</tspan></text><text transform="translate(445.8 166.42)" font-size="6" fill="#231f20" font-family="Roboto-Regular, Roboto">me<tspan x="8.44" y="0" letter-spacing="0.01em">r</tspan><tspan x="10.51" y="0">f-</tspan><tspan x="14.25" y="0" letter-spacing="-0.01em">r</tspan><tspan x="16.22" y="0">esea</tspan><tspan x="28.94" y="0" letter-spacing="-0.01em">r</tspan><tspan x="30.91" y="0">ch-facility</tspan></text><text transform="translate(95.98 320.03)" font-size="6" fill="#231f20" font-family="Roboto-Regular, Roboto">g<tspan x="3.37" y="0" letter-spacing="-0.02em">r</tspan><tspan x="5.28" y="0">ade-school</tspan></text><text transform="translate(165.85 320.03)" font-size="6" fill="#231f20" font-family="Roboto-Regular, Roboto">chu<tspan x="9.75" y="0" letter-spacing="-0.01em">r</tspan><tspan x="11.73" y="0">ch</tspan></text><text transform="translate(235.54 320.03)" font-size="6" fill="#231f20" font-family="Roboto-Regular, Roboto">iowa-capital-dome</text><text transform="translate(305.54 320.03)" font-size="6" fill="#231f20" font-family="Roboto-Regular, Roboto">us-capital-dome</text><text transform="translate(375.54 320.03)" font-size="6" fill="#231f20" font-family="Roboto-Regular, Roboto">column</text><text transform="translate(445.54 320.03)" font-size="6" fill="#231f20" font-family="Roboto-Regular, Roboto">clinic</text><text transform="translate(95.98 166.42)" font-size="6" fill="#231f20" font-family="Roboto-Regular, Roboto">old-capi<tspan x="21.14" y="0" letter-spacing="-0.01em">t</tspan><tspan x="23.04" y="0">ol</tspan></text><text transform="translate(165.83 166.42)" font-size="6" fill="#231f20" font-family="Roboto-Regular, Roboto">kinnick</text><text transform="translate(305.03 166.42)" font-size="6" fill="#231f20" font-family="Roboto-Regular, Roboto">a<tspan x="3.26" y="0" letter-spacing="0.02em">r</tspan><tspan x="5.44" y="0">t-building-west</tspan></text><text transform="translate(95.62 396)" font-size="6" fill="#231f20" font-family="Roboto-Regular, Roboto">main-lib<tspan x="21.22" y="0" letter-spacing="-0.02em">r</tspan><tspan x="23.14" y="0">a</tspan><tspan x="26.4" y="0" letter-spacing="0.01em">r</tspan><tspan x="28.48" y="0">y</tspan></text><text transform="translate(165.62 396)" font-size="6" fill="#231f20" font-family="Roboto-Regular, Roboto">imu</text><text transform="translate(235.62 396)" font-size="6" fill="#231f20" font-family="Roboto-Regular, Roboto">pharmacy-building</text><text transform="translate(305.62 396)" font-size="6" fill="#231f20" font-family="Roboto-Regular, Roboto">b<tspan x="3.37" y="0" letter-spacing="-0.01em">o</tspan><tspan x="6.74" y="0" letter-spacing="-0.01em">y</tspan><tspan x="9.54" y="0">d-law-building</tspan></text></g></svg>