<svg xmlns="http://www.w3.org/2000/svg" viewBox="0 0 50 50"><g id="fa00d4f3-171e-4c27-b211-a057e5c75cba" data-name="ICONS"><path d="M27,4.44h-.71a22.25,22.25,0,1,0,.71,0ZM37.45,41.86A18.6,18.6,0,0,1,12.12,15a.5.5,0,0,1,.54-.16l.11,0A.46.46,0,0,1,13,15L37.52,41.11a.52.52,0,0,1,.13.39A.53.53,0,0,1,37.45,41.86Zm3.49-3.29a.47.47,0,0,1-.37.18h0a.48.48,0,0,1-.36-.15L15.66,12.48a.45.45,0,0,1-.12-.21l0-.12a.5.5,0,0,1,.19-.53,18.6,18.6,0,0,1,25.24,27Z" fill="#fdd600"/><path d="M41.56,9.06a23.27,23.27,0,1,0,6.31,16.66A23.1,23.1,0,0,0,41.56,9.06ZM39.88,41.27A22.32,22.32,0,1,1,24.58,2.68h.71A22.32,22.32,0,0,1,39.88,41.27Z" fill="#231f20"/><path d="M21.94,6.54a18.53,18.53,0,0,0-8,3.33.5.5,0,0,0-.19.53l0,.12a.45.45,0,0,0,.12.21L38.45,36.85a.48.48,0,0,0,.36.15h0a.47.47,0,0,0,.37-.18A18.6,18.6,0,0,0,21.94,6.54Zm16.84,29.2L15,10.39A17.6,17.6,0,0,1,38.78,35.74Z" fill="#231f20"/><path d="M11.23,13.25a.46.46,0,0,0-.21-.13l-.11,0a.5.5,0,0,0-.54.16A18.6,18.6,0,0,0,35.7,40.11a.53.53,0,0,0,.2-.36.52.52,0,0,0-.13-.39Zm.63,23.92a17.61,17.61,0,0,1-1-22.9L34.65,39.63A17.6,17.6,0,0,1,11.86,37.17Z" fill="#231f20"/></g><g id="eadcd819-9462-41db-8ec0-191755383aa8" data-name="LABELS"><text transform="translate(0 55.13)" font-size="6" fill="#231f20" font-family="Roboto-Regular, Roboto">cancel-p<tspan x="22.51" y="0" letter-spacing="-0.01em">r</tspan><tspan x="24.48" y="0">ohibited</tspan></text></g></svg>