<svg xmlns="http://www.w3.org/2000/svg" viewBox="0 0 50 50"><g id="e3b4adb4-15c2-465d-af85-4f7a9c216459" data-name="ICONS"><path d="M26.25,4a7.11,7.11,0,0,0-7.1,7.09V47.54a1,1,0,0,0,2,0V11.05a5.1,5.1,0,0,1,10.2,0,1,1,0,1,0,2,0A7.11,7.11,0,0,0,26.25,4Z" fill="#fdd600"/><path d="M25,1.71A8.11,8.11,0,0,0,16.9,9.8V46.29a2,2,0,0,0,4,0V9.8a4.1,4.1,0,0,1,8.2,0,2,2,0,1,0,4,0A8.11,8.11,0,0,0,25,1.71Zm6.1,9.09a1,1,0,0,1-1-1,5.1,5.1,0,0,0-10.2,0V46.29a1,1,0,0,1-2,0V9.8a7.1,7.1,0,0,1,14.2,0A1,1,0,0,1,31.1,10.8Z" fill="#231f20"/></g><g id="ef86e9c0-aff6-4326-85e8-9a5c6b5d5b99" data-name="LABELS"><text transform="translate(0.17 54.98)" font-size="6" fill="#231f20" font-family="Roboto-Regular, Roboto">cane</text></g></svg>