<svg id="b9ff89f7-a6f0-458c-a77a-bb28b101d9b5" data-name="ICONS" xmlns="http://www.w3.org/2000/svg" viewBox="0 0 50 50"><path d="M48.39,30.65h-.63V28.09s0,0,0-.05V25.81s0,0,0,0V23.09a.5.5,0,0,0-.5-.5H39.73L33.54,10.74a.49.49,0,0,0-.44-.27H11.51a.49.49,0,0,0-.48.37L7.92,22.59H2a.5.5,0,0,0-.5.5v2.67s0,0,0,0V28s0,0,0,.05v2.56H1.11a.5.5,0,0,0-.5.5v3.09a.5.5,0,0,0,.5.5H6a5.51,5.51,0,0,0,10.92,0H32.13a5.5,5.5,0,0,0,10.91,0h5.35a.5.5,0,0,0,.5-.5V31.15A.5.5,0,0,0,48.39,30.65Zm-.5,3.09H43.08a5.42,5.42,0,0,0-.53-2.09h5.34ZM33.08,34a4.51,4.51,0,1,1,4.5,4.51A4.52,4.52,0,0,1,33.08,34ZM17,33.74a5.6,5.6,0,0,0-.53-2.09H32.62a5.42,5.42,0,0,0-.53,2.09ZM7,34a4.51,4.51,0,1,1,4.51,4.51A4.52,4.52,0,0,1,7,34Zm-5.37-.28V31.65H6.53A5.42,5.42,0,0,0,6,33.74Zm45.16-7.43v1.23H45.08V26.31Zm-14-14.84,5.8,11.12H36.06l-4.33-8.95a.5.5,0,0,0-.45-.28H25.59a.5.5,0,0,0-.5.5v8.73H23V13.86a.51.51,0,0,0-.5-.5H13.83a.51.51,0,0,0-.49.39l-2,8.84H9l3-11.12Zm-6.71,2.89H31l4,8.23H26.09Zm-11.86,0H22v8.23H12.4ZM2.51,27.54V26.31H4.24v1.23Zm0,1H4.74a.5.5,0,0,0,.5-.5V25.81a.5.5,0,0,0-.5-.5H2.52V23.59H46.76v1.72H44.58a.5.5,0,0,0-.5.5V28a.5.5,0,0,0,.5.5h2.18v2.11H41.93a5.48,5.48,0,0,0-8.69,0H15.84a5.49,5.49,0,0,0-8.7,0H2.52Z"/><path d="M13.83,34a2.34,2.34,0,1,0-2.34,2.34A2.34,2.34,0,0,0,13.83,34Zm-3.68,0a1.34,1.34,0,1,1,1.34,1.34A1.34,1.34,0,0,1,10.15,34Z"/><path d="M35.24,34a2.35,2.35,0,1,0,2.34-2.34A2.34,2.34,0,0,0,35.24,34Z" fill="none"/><path d="M9.15,34a2.34,2.34,0,1,0,2.34-2.34A2.34,2.34,0,0,0,9.15,34Z" fill="none"/><path d="M14.84,15.25c-2.41,2.21-1.94,6.3-1.68,7.9l.94.11h7.76l.88-.22c.16-2.36.26-4.78.27-7.27v-.91H15.33C15.16,15,15,15.12,14.84,15.25Z" fill="none"/><path d="M31.88,14.86H27.09a4.72,4.72,0,0,0-.5.5c-2.05,2.47-.41,6.79,0,7.79l.83-.06,8.42.11c-1.08-2.51-2.27-5.05-3.58-7.59Z" fill="none"/><path d="M39.93,34a2.35,2.35,0,1,0-2.35,2.34A2.35,2.35,0,0,0,39.93,34Zm-3.69,0a1.35,1.35,0,1,1,1.34,1.34A1.35,1.35,0,0,1,36.24,34Z"/><path d="M26.09,21.72V16.16C25.23,17.92,25.64,20.2,26.09,21.72Z" fill="none"/><path d="M31.88,14.86h-.67L35,22.59H26.37c.09.23.16.43.22.56l.83-.06,8.42.11c-1.08-2.51-2.27-5.05-3.58-7.59Z" fill="none"/><path d="M13,20.09l.72-3.21A8.5,8.5,0,0,0,13,20.09Z" fill="none"/><path d="M22,22.59H13.08c0,.21.06.4.08.56l.94.11h7.76l.88-.22c.16-2.36.26-4.78.27-7.27v-.91H22Z" fill="none"/><path d="M24.75,26.31H27.3a.5.5,0,0,0,0-1H24.75a.5.5,0,0,0,0,1Z"/></svg>