<svg xmlns="http://www.w3.org/2000/svg" viewBox="0 0 50 50"><g id="bf910f45-0f9f-482b-a58d-94eca707f762" data-name="ICONS"><path d="M31.18,5.64q3.59,22.14,7.19,44.29L49,48.2Q45.44,26.06,41.84,3.91Z" fill="#fdd600"/><rect x="3.48" y="2.57" width="10.8" height="47.26" fill="#fdd600"/><rect x="22.52" y="3.24" width="7.33" height="46.59" fill="#fdd600"/><path d="M41.24,1.76a.5.5,0,0,0-.2-.33.49.49,0,0,0-.37-.08L29.35,3.18V1.24a.51.51,0,0,0-.5-.5H20.52a.5.5,0,0,0-.5.5V3.5H13.77V.57a.5.5,0,0,0-.5-.5H1.48a.5.5,0,0,0-.5.5V48.83a.5.5,0,0,0,.5.5H28.85a.5.5,0,0,0,.5-.5V8.35l.17,1.07h0L35,43.25h0l1,5.83a.5.5,0,0,0,.2.33.52.52,0,0,0,.29.09h.08l11.65-1.9a.49.49,0,0,0,.41-.57Zm-10.65,8L41.25,8l5.33,32.83L35.92,42.59Zm9.75-7.35L41.09,7,30.43,8.77l-.75-4.63ZM2,6.16H12.77V43.53H2ZM13.77,8.68H20V44.13H13.77ZM21,6.85h7.33V42.94H21Zm0-5.11h7.33V5.85H21V1.74ZM20,4.5V7.68H13.77V4.5ZM12.77,1.07V5.16H2V1.07ZM2,44.53H12.77v3.8H2Zm11.79.6H20v3.2H13.77ZM21,48.33V43.94h7.33v4.39Zm15.85.1-.79-4.85,10.66-1.73.78,4.85Z" fill="#231f20"/><path d="M7.23,12.73a.5.5,0,0,0-.5.5v23a.5.5,0,0,0,1,0V13.23A.5.5,0,0,0,7.23,12.73Z" fill="#231f20"/><path d="M16.9,18.31a.5.5,0,0,0-.5.5V34.07a.5.5,0,0,0,.5.5.5.5,0,0,0,.5-.5V18.81A.5.5,0,0,0,16.9,18.31Z" fill="#231f20"/><path d="M24.68,14.83a.5.5,0,0,0-.5.5V34.07a.5.5,0,0,0,.5.5.5.5,0,0,0,.5-.5V15.33A.5.5,0,0,0,24.68,14.83Z" fill="#231f20"/><path d="M37.64,16.38a.5.5,0,1,0-1,.16l2.86,17.63a.51.51,0,0,0,.5.42h.08A.49.49,0,0,0,40.5,34Z" fill="#231f20"/></g><g id="f446c2c7-7a9b-4f54-a2a8-18227e4774fc" data-name="LABELS"><text transform="translate(0 55.13)" font-size="6" fill="#231f20" font-family="Roboto-Regular, Roboto">stack-of-books</text></g></svg>