<svg id="bab821a2-11cc-447b-99e2-2e66370c0de0" data-name="ICONS" xmlns="http://www.w3.org/2000/svg" viewBox="0 0 50 50"><circle cx="34.07" cy="14.13" r="2.47" fill="#fdd600"/><path d="M14.26,26.74a2.47,2.47,0,1,0-2.47,2.47A2.48,2.48,0,0,0,14.26,26.74Z" fill="#fdd600"/><path d="M21.72,5.43A2.47,2.47,0,1,0,19.26,7.9,2.47,2.47,0,0,0,21.72,5.43Z" fill="#fdd600"/><path d="M28.24,22.12a2.47,2.47,0,1,0-2.47,2.47A2.48,2.48,0,0,0,28.24,22.12Z" fill="#fdd600"/><path d="M40.71,19.94a2.47,2.47,0,1,0,2.47,2.47A2.48,2.48,0,0,0,40.71,19.94Z" fill="#fdd600"/><path d="M27.74,20.62a3.47,3.47,0,1,0-4,3.42v9.11a.47.47,0,0,0,.15.35l1.82,1.82V49a.5.5,0,0,0,.5.5.5.5,0,0,0,.5-.5V35.11a.51.51,0,0,0-.15-.35l-1.82-1.82V24A3.47,3.47,0,0,0,27.74,20.62Zm-5.94,0a2.47,2.47,0,1,1,2.47,2.47A2.48,2.48,0,0,1,21.8,20.62Z" fill="#231f20"/><path d="M10.79,34.32V28.66a3.47,3.47,0,1,0-1,0v5.88a.5.5,0,0,0,.17.38l4.44,4V49a.5.5,0,0,0,.5.5.5.5,0,0,0,.5-.5V38.69a.52.52,0,0,0-.17-.37Zm-3-9.08a2.47,2.47,0,1,1,2.47,2.47A2.48,2.48,0,0,1,7.82,25.24Z" fill="#231f20"/><path d="M18.26,27.86V7.35a3.47,3.47,0,1,0-1,0V28.07a.5.5,0,0,0,.14.35l2.31,2.31V49a.5.5,0,0,0,.5.5.5.5,0,0,0,.5-.5V30.53a.55.55,0,0,0-.15-.36Zm-3-23.93A2.47,2.47,0,1,1,17.76,6.4,2.47,2.47,0,0,1,15.29,3.93Z" fill="#231f20"/><path d="M36,12.63a3.47,3.47,0,1,0-4,3.42v12l-2.58,2.58a.47.47,0,0,0-.15.35V49a.5.5,0,0,0,.5.5.5.5,0,0,0,.5-.5V31.22l2.58-2.58a.49.49,0,0,0,.15-.35V16.05A3.46,3.46,0,0,0,36,12.63Zm-5.93,0a2.47,2.47,0,1,1,2.47,2.47A2.47,2.47,0,0,1,30.1,12.63Z" fill="#231f20"/><path d="M42.68,20.91a3.47,3.47,0,1,0-4,3.42V36.54l-5.18,5.23a.51.51,0,0,0-.15.35V49a.5.5,0,0,0,.5.5.5.5,0,0,0,.5-.5V42.32l5.19-5.22a.52.52,0,0,0,.14-.36V24.33A3.48,3.48,0,0,0,42.68,20.91Zm-3.47,2.47a2.47,2.47,0,1,1,2.47-2.47A2.48,2.48,0,0,1,39.21,23.38Z" fill="#231f20"/></svg>