<svg id="a19b251c-a0cd-4807-b442-c1977f8ebf4a" data-name="ICONS" xmlns="http://www.w3.org/2000/svg" viewBox="0 0 50 50"><path d="M45.78,37.42a6.21,6.21,0,1,1-6.39-.23V15.3a3.48,3.48,0,0,1,.92-2.43,3.14,3.14,0,0,1,2.3-1,3.21,3.21,0,0,1,3.14,3.4Zm1.85,5.23A5.24,5.24,0,0,0,45,38.13a.5.5,0,0,1-.24-.43l0-15.13h-.58a.5.5,0,0,1-.5-.5.5.5,0,0,1,.5-.5h.58v-1.4h-.53a.5.5,0,0,1-.5-.5.51.51,0,0,1,.5-.5h.51V17.71H44.2a.5.5,0,0,1-.5-.5.51.51,0,0,1,.5-.5h.54V15.3a2.21,2.21,0,0,0-2.14-2.4,2.27,2.27,0,0,0-2.22,2.4V37.5a.51.51,0,0,1-.28.45,5.23,5.23,0,0,0,2.29,9.93A5.23,5.23,0,0,0,47.63,42.65Z"/><path d="M43,39.55a3.24,3.24,0,1,1-1,0V19.35a.5.5,0,0,1,1,0Zm1.77,3.19A2.24,2.24,0,1,0,42.56,45,2.25,2.25,0,0,0,44.8,42.74Z"/><path d="M10.64,19.17s.13-.12.2-.24,0-.59-.21-1.11a2.3,2.3,0,0,1-.18-1.94A2.15,2.15,0,0,1,12,15a3,3,0,0,0,.55-.17.29.29,0,0,1-.07-.08.79.79,0,0,1-.12-.82c.26-.55.92-.44,1.56-.32.47.07,1.15.19,1.36,0s0-.26-.07-.65a3.86,3.86,0,0,1,0-2.31,2.86,2.86,0,0,0,.17-1,1.89,1.89,0,0,0-.08-.4,1.11,1.11,0,0,0-1-.56c-.14,0-.22.19-.38.52a2,2,0,0,1-1,1.15,2.08,2.08,0,0,1-2.45-.69,2.21,2.21,0,0,1,0-2,3.21,3.21,0,0,1,.72-1c.1-.11.24-.25.24-.3S11.12,6.08,11,6c-.24-.14-.74,0-1.26.31A19.54,19.54,0,0,0,3,16.79c0,.17,0,.33.07.5s0,.35.07.52.07.33.11.49.07.32.11.47.09.31.13.46.08.29.13.42.11.28.16.42l.16.37.19.38c.07.11.11.22.17.32s.16.23.23.34.13.19.2.27a1.7,1.7,0,0,0,.29.31,1.74,1.74,0,0,0,.18.22,4.33,4.33,0,0,0,.53.43,8.94,8.94,0,0,0,1,.59A6.72,6.72,0,0,1,7.94,24a2.32,2.32,0,0,1,.8,1.17,2.56,2.56,0,0,1,0,1.54,4.47,4.47,0,0,0-.13,1.79,2.66,2.66,0,0,0,.82,1.89,2.48,2.48,0,0,1,.3.13,3.48,3.48,0,0,1,1.42,1.57,21.39,21.39,0,0,0,2.05,3.37,4.86,4.86,0,0,0,1.24,1.25,3.64,3.64,0,0,0,1.92.49,3,3,0,0,1-2.08-1.62,1.62,1.62,0,0,1,0-1.07,9,9,0,0,0,.18-2.78,2,2,0,0,1,.25-1.48,1.75,1.75,0,0,1,.94-.7,1.57,1.57,0,0,0,.65-.41,2.21,2.21,0,0,0,.48-2.32c-.12-.16-.23-.2-.67-.3a6.61,6.61,0,0,1-1.77-.6A4.53,4.53,0,0,1,13.05,25a1.72,1.72,0,0,0-.74-.51,2.79,2.79,0,0,0-1.62-.1,2.65,2.65,0,0,1-1.93-.23A2.08,2.08,0,0,1,8.47,24,6,6,0,0,1,7,21.65a4.06,4.06,0,0,1-.58-2.48,3,3,0,0,1,.93-1.77,2.12,2.12,0,0,1,2.08-.68c.68.29.85,1.09,1,1.74A2.35,2.35,0,0,0,10.64,19.17Zm28.43-8.64a.5.5,0,0,1-.14.69.57.57,0,0,1-.28.08.52.52,0,0,1-.42-.23,19.63,19.63,0,0,0-5.57-5.66v.37c0,.92,0,1.29-.21,1.58-.47.71-1.41.47-2.4.21s-2-.51-2.73-.06S26,9.39,25.77,11.29c0,.22,0,.43-.06.64-.05.78-.1,1.6-.77,2a1.58,1.58,0,0,1-1.2.11,1.24,1.24,0,0,0-.3,0,1.06,1.06,0,0,0-.08.73,1.24,1.24,0,0,0,.46.92c.17.07.45-.08.87-.36A3.07,3.07,0,0,1,27,14.67a3.52,3.52,0,0,1,2,1.5c.28.4,1.18,1.76.54,2.42-.39.4-.9.17-1.31,0a3.6,3.6,0,0,0-1.44-.42,4.18,4.18,0,0,0-2.52,1.05c-1.35.94-2.76,1.9-2.84,3.41a2.8,2.8,0,0,0,1.27,2.55,2,2,0,0,0,.72.11,14.3,14.3,0,0,1,1.91.22l.18,0a2.49,2.49,0,0,1,.93.25c.57.33,1.24,1.1,1.32,2.92a3,3,0,0,1-.2,1.29.85.85,0,0,0-.05.54,3.46,3.46,0,0,0,.33.91,8.17,8.17,0,0,1,.59,1.89c.15,1,.44,1.51.6,1.54s.48-.17,1.28-1.21a3.13,3.13,0,0,0,.39-.65c.05-.09.09-.19.15-.31a5.63,5.63,0,0,1,.41-.7,20.59,20.59,0,0,1,1.47-1.94,5.45,5.45,0,0,1,1.31-3.35,6.57,6.57,0,0,1,1.36-1.05c.32-.19.64-.39.64-.52s-.42-.63-.89-.84a1.62,1.62,0,0,0-.65-.14h-.22a1.58,1.58,0,0,1-1.14-.3,2.09,2.09,0,0,1-.68-1.6,1.35,1.35,0,0,1,.46-1.08c.66-.52,1.59,0,2.5.55.17.1.38.22.58.32-.13-.28-.33-.64-.48-.9-.55-1-1-1.89-.51-2.42s1.43-.1,2.28.36a.5.5,0,0,1,.27.44.69.69,0,0,1,0,.24.51.51,0,0,1-.68.2,5.93,5.93,0,0,0-1-.44v0a.36.36,0,0,1,0,.09c0,.08.07.15.12.24a.42.42,0,0,0,0,.1l.14.27a.59.59,0,0,0,0,.08l.17.31c.56,1,1,1.84.49,2.34s-1.18,0-2-.42c-.4-.22-1.19-.68-1.41-.61a1,1,0,0,0,0,.39,1.12,1.12,0,0,0,.3.72c.1.07.19.08.49.07a2.25,2.25,0,0,1,.26,0,2.49,2.49,0,0,1,1,.21c.56.25,1.5.9,1.48,1.78,0,.68-.57,1-1.11,1.35a5.31,5.31,0,0,0-1.16.88,4.5,4.5,0,0,0-1.05,2.89.47.47,0,0,1-.12.3,20.67,20.67,0,0,0-1.5,2c-.09.13-.15.23-.21.33s-.1.18-.14.29a1.12,1.12,0,0,0-.14.26,3.59,3.59,0,0,1-.49.82l-.2.27-.05,0a2,2,0,0,1-.19.24s0,.05-.06.07-.12.15-.19.22l-.08.08-.18.18-.11.08a1.24,1.24,0,0,1-.18.14.47.47,0,0,1-.12.07l-.17.1a.66.66,0,0,1-.15.05.69.69,0,0,1-.17,0l-.15,0h-.27c-.93-.17-1.27-1.52-1.41-2.31a6.22,6.22,0,0,0-.52-1.71,4.57,4.57,0,0,1-.39-1.13,1.67,1.67,0,0,1,.1-1.07,2,2,0,0,0,.13-.9c-.05-1.07-.33-1.81-.82-2.1a3.12,3.12,0,0,0-.59-.13l-.2,0a14.11,14.11,0,0,0-1.78-.2,2.81,2.81,0,0,1-1.06-.19,3.78,3.78,0,0,1-1.87-3.51c.08-2,1.85-3.22,3.27-4.19a5.21,5.21,0,0,1,3.12-1.23,4.72,4.72,0,0,1,1.82.51.05.05,0,0,1,0,0,4.12,4.12,0,0,0-.51-.92,2.63,2.63,0,0,0-1.37-1.11,2.13,2.13,0,0,0-1.6.5,1.85,1.85,0,0,1-1.82.41,2.15,2.15,0,0,1-1-1.69,1.83,1.83,0,0,1,.45-1.64,1.28,1.28,0,0,1,1.13-.17.74.74,0,0,0,.49,0c.21-.13.26-.66.29-1.21,0-.22,0-.45.05-.68.16-1.31.61-3.64,2-4.52,1.09-.68,2.43-.33,3.51,0,.44.11,1.18.3,1.32.19a8.91,8.91,0,0,0,0-1c0-.35,0-.68-.05-1a19.34,19.34,0,0,0-4.5-1.89A2.91,2.91,0,0,1,26,4.11a2.58,2.58,0,0,1-1.44.3,3.71,3.71,0,0,0-1.28.16,6.32,6.32,0,0,0-1.68.94,9.56,9.56,0,0,0-1.21.93c-.36.31-.63.56-1.13.49C18,6.76,17.38,4.49,17.19,3.52a6.89,6.89,0,0,1-.1-.81,19.56,19.56,0,0,0-5.62,2.42l.06,0a1.43,1.43,0,0,1,.73,1,1.36,1.36,0,0,1-.5,1.11,2.18,2.18,0,0,0-.52.71,1.21,1.21,0,0,0,0,1.08,1.11,1.11,0,0,0,1.23.32c.25-.1.35-.32.52-.66a1.63,1.63,0,0,1,1-1.05,1.6,1.6,0,0,1,.92,0,2.25,2.25,0,0,1,1.19.91,1.55,1.55,0,0,1,.12.22,3.1,3.1,0,0,1-.06,2.08,2.83,2.83,0,0,0,.05,1.77,1.55,1.55,0,0,1-.2,1.61,1.18,1.18,0,0,1-.49.3,3.58,3.58,0,0,1-1.75,0l-.26,0a.83.83,0,0,1,0,.5c-.12.63-.76.79-1.29.92-.35.09-.78.19-.88.4s0,.66.21,1.09a2.19,2.19,0,0,1,.12,2,1.32,1.32,0,0,1-1.3.66c-.65-.14-.79-.84-.93-1.46-.09-.4-.19-.94-.41-1s-.55.09-1,.5a2.06,2.06,0,0,0-.62,1.18,3.2,3.2,0,0,0,.5,1.9c.58,1.25.85,1.77,1.33,2.06a1.76,1.76,0,0,0,1.28.11,3.93,3.93,0,0,1,2.17.16,2.79,2.79,0,0,1,1.08.74,3.4,3.4,0,0,0,1,.75,6,6,0,0,0,1.51.52,1.83,1.83,0,0,1,1.3.71A3.13,3.13,0,0,1,17,29.84a2.41,2.41,0,0,1-1,.65.8.8,0,0,0-.47.32c-.14.21-.14.35-.09.84a9.6,9.6,0,0,1,0,1.67,7.43,7.43,0,0,1-.23,1.45c-.08.3-.09.34,0,.48.25.71,1.36,1,2.1,1.19s1.2.31,1.15.87a.72.72,0,0,1-.47.59l-.31.12-.07,0-.32.08-.16,0-.3,0-.21,0h-.32l-.33,0-.25,0-.36-.06-.24,0c-.14,0-.28-.08-.41-.12l-.21-.07a4.79,4.79,0,0,1-.6-.3,5.65,5.65,0,0,1-1.5-1.48,20.82,20.82,0,0,1-2.12-3.5,2.63,2.63,0,0,0-1-1.18l-.1-.05a.79.79,0,0,1-.25-.12,3.44,3.44,0,0,1-1.27-2.6,5.07,5.07,0,0,1,.14-2.16,1.61,1.61,0,0,0,0-1c-.17-.59-.67-.87-1.48-1.28a9.1,9.1,0,0,1-1.15-.66,5.29,5.29,0,0,1-.76-.66c-.07-.07-.12-.14-.2-.21A7.35,7.35,0,0,1,3.68,22a2.2,2.2,0,0,1-.14-.18,7.77,7.77,0,0,1-.53-1c0-.09-.07-.18-.11-.26a8.68,8.68,0,0,1-.34-.94c0-.06,0-.12-.07-.19a18.27,18.27,0,0,0-.13,2.2A19.47,19.47,0,0,0,36.45,34.52a.5.5,0,0,1,.27-.16.48.48,0,0,1,.43.11.51.51,0,0,1,.05.71A20.47,20.47,0,0,1,1.36,21.63,20.61,20.61,0,0,1,9.2,5.52a20.07,20.07,0,0,1,12.5-4.4,21.1,21.1,0,0,1,5.24.67A20.35,20.35,0,0,1,32.35,4,20.86,20.86,0,0,1,39.07,10.53ZM23,3.62a4.72,4.72,0,0,1,1.6-.21,1.51,1.51,0,0,0,.92-.17,1.79,1.79,0,0,0,.6-.62,19.33,19.33,0,0,0-8-.13,7.4,7.4,0,0,0,.11.84c.26,1.39.81,2.56,1.22,2.61a1.31,1.31,0,0,0,.34-.26"/><path d="M36,31.93a2.56,2.56,0,0,1-1,2.3,2.24,2.24,0,0,1-1.24.34,2.43,2.43,0,0,1-.68-.09,1.14,1.14,0,0,1-.73-.61,1.09,1.09,0,0,1,.12-.9,2.22,2.22,0,0,1,.14-.22A8,8,0,0,1,34,31.43v0c.62-.53,1.1-.72,1.48-.55S36,31.61,36,31.93Zm-1.51,1.46a1.61,1.61,0,0,0,.5-1.5,1.69,1.69,0,0,0-.38.28,4.93,4.93,0,0,0-1.25,1.33A1.34,1.34,0,0,0,34.51,33.39Z"/></svg>