<svg id="eca24274-5576-4b7d-bc3d-8be20b596aaf" data-name="ICONS" xmlns="http://www.w3.org/2000/svg" viewBox="0 0 50 50"><polygon points="23.32 12.99 25.81 12.99 25.81 11.19 27.65 11.19 27.65 8.7 25.81 8.7 25.81 6.86 23.31 6.86 23.32 8.71 21.53 8.7 21.52 11.19 23.32 11.19 23.32 12.99" fill="none"/><path d="M34.41,13.51H30.05V15H19V13.51H3.9v7H8V46H45V20.48h3.87v-7ZM15.13,44.23V33.68h9l0,10.55Zm18.85,0h-8.8l0-10.55H34Z" fill="#fdd600"/><path d="M47.6,10.76H31.05V4.52a.5.5,0,0,0-.5-.5h-12a.5.5,0,0,0-.5.5v6.24H1.65a.5.5,0,0,0-.5.5v8a.5.5,0,0,0,.5.5H5.23v25a.5.5,0,0,0,.5.5h38a.5.5,0,0,0,.5-.5v-25H47.6a.5.5,0,0,0,.5-.5v-8A.5.5,0,0,0,47.6,10.76ZM19,5h11V15H19ZM34,44.23h-8.8l0-10.55H34ZM24.14,33.68l0,10.55h-9V33.68ZM43.23,44.23H35v-11a.5.5,0,0,0-.5-.5H14.63a.5.5,0,0,0-.5.5v11H6.23V19.73h37Zm3.87-25.5H2.15v-7H18v3.7a.5.5,0,0,0,.5.5h12a.5.5,0,0,0,.5-.5v-3.7H47.1Z" fill="#231f20"/><polygon points="25.81 6.86 23.31 6.86 23.32 8.71 21.53 8.7 21.52 11.19 23.32 11.19 23.32 12.99 25.81 12.99 25.81 11.19 27.65 11.19 27.65 8.7 25.81 8.7 25.81 6.86" fill="#231f20"/></svg>