<svg xmlns="http://www.w3.org/2000/svg" viewBox="0 0 50 50"><g id="a393b053-34d9-4792-8ee7-bf1bf44d7051" data-name="ICONS"><path d="M30.69,6.05h6.93v8.22l.33-.58h0l.67-1.19V5.55a.5.5,0,0,0-.5-.5H30.58a3.09,3.09,0,0,1,.11.75Z"/><path d="M38.62,48.08V24.28l-1,1.77V47.58H5.11V6.05h7.23V5.8a3.09,3.09,0,0,1,.11-.75H4.61a.5.5,0,0,0-.5.5V48.08a.5.5,0,0,0,.5.5H38.12A.5.5,0,0,0,38.62,48.08Z"/><path d="M12.34,6.05V7.29a.5.5,0,0,0,.5.5H30.19a.5.5,0,0,0,.5-.5V5.8a3.09,3.09,0,0,0-.11-.75A2.84,2.84,0,0,0,27.84,3H24.25a2.78,2.78,0,0,0-5.47,0H15.19a2.85,2.85,0,0,0-2.74,2.1,3.09,3.09,0,0,0-.11.75Zm1-.25A1.85,1.85,0,0,1,15.19,4h4a.51.51,0,0,0,.5-.5,1.78,1.78,0,1,1,3.55,0,.51.51,0,0,0,.5.5h4.05A1.85,1.85,0,0,1,29.69,5.8v1H13.34Z"/><path d="M45.63,8.64,43.35,7.35a.56.56,0,0,0-.38,0,.48.48,0,0,0-.3.24l-1,1.85-.51-.29a.57.57,0,0,0-.38,0,.48.48,0,0,0-.3.24l-1.07,1.88-.75,1.33L38,13.69h0l-.33.58L22.73,40.65a.53.53,0,0,0,0,.41l-.5,5.51a.5.5,0,0,0,.25.48.54.54,0,0,0,.25.06A.46.46,0,0,0,23,47l4.46-3.27s0,0,0,0a.52.52,0,0,0,.31-.23l9.84-17.45,1-1.77L39.37,23l6.11-10.81a.52.52,0,0,0-.19-.69l-.51-.28,1-1.85A.49.49,0,0,0,45.63,8.64ZM23.29,45.55l.36-3.93,2.83,1.59Zm3.92-3.08-3.3-1.86,14.67-26,3.3,1.86ZM42.37,15.61l-3.3-1.86,2-3.53.51.28h0l2.28,1.29h0l.51.29Zm1.54-4.93-1.41-.8.79-1.41,1.42.79Z"/></g><g id="ea4c305b-32a3-4af7-b158-91295059461c" data-name="LABELS"><text transform="translate(0.21 54.91)" font-size="6" font-family="Roboto-Regular, Roboto">clipboa<tspan x="19.47" y="0" letter-spacing="-0.01em">r</tspan><tspan x="21.45" y="0">d-pen</tspan></text></g></svg>