<svg id="f0dc99ca-6e6b-4d24-b797-197bcfed936a" data-name="ICONS" xmlns="http://www.w3.org/2000/svg" viewBox="0 0 50 50"><path d="M39.86,23a8.54,8.54,0,0,0-3.62.81,13.91,13.91,0,0,0-27,1.4,7,7,0,0,0-1.12-.08,7.56,7.56,0,0,0-7,10.51.51.51,0,0,0,.47.31l45.06,0h0a.5.5,0,0,0,.44-.25A8.46,8.46,0,0,0,39.86,23Zm6.57,12L2,35a6.52,6.52,0,0,1,6.14-8.77,6.12,6.12,0,0,1,1.42.16.52.52,0,0,0,.62-.43,12.88,12.88,0,0,1,25.21-1.19.51.51,0,0,0,.3.34.5.5,0,0,0,.46,0,7.37,7.37,0,0,1,3.69-1,7.46,7.46,0,0,1,6.57,11Z"/></svg>