<?xml version="1.0" encoding="UTF-8"?>
<svg xmlns="http://www.w3.org/2000/svg" viewBox="0 0 50 50">
  <defs>
    <style>
      .cls-1 {
        fill: #1f1c1d;
      }

      .cls-2 {
        fill: #ffcd00;
      }

      .cls-3 {
        fill: #221f1f;
        font-family: Roboto-Regular, Roboto;
        font-size: 5px;
      }

      .cls-4 {
        letter-spacing: -.02em;
      }

      .cls-5 {
        letter-spacing: 0em;
      }
    </style>
  </defs>
  <g id="Gold_Offset">
    <g>
      <path class="cls-2" d="M29.57,30.01c2.26-1.29,3.67-3.7,3.67-6.29,0-3.99-3.25-7.24-7.24-7.24s-7.24,3.25-7.24,7.24c0,2.6,1.41,5.01,3.67,6.29.16.09.25.25.25.43v2.65h-1.1v3.33h2.18c.04,1.1.94,1.98,2.05,1.98s2.01-.88,2.05-1.98h2.55v-3.33h-1.1v-2.65c0-.18.1-.35.25-.43Z"/>
      <g>
        <path class="cls-2" d="M6.58,14.1c-.06.24-.21.44-.43.56-.21.12-.46.16-.7.09-.49-.13-.78-.64-.65-1.13.06-.24.22-.44.43-.56.14-.08.3-.12.46-.12.08,0,.16.01.24.03.49.13.78.64.65,1.13Z"/>
        <path class="cls-2" d="M24.1,2.48c.11-.41.48-.68.89-.68.08,0,.16.01.24.03.24.06.44.21.56.43s.16.46.09.7h0c-.06.24-.21.44-.43.56-.21.12-.46.16-.7.09-.24-.06-.44-.22-.56-.43s-.16-.46-.09-.7Z"/>
        <path class="cls-2" d="M25.9,47.52c-.06.24-.22.44-.43.56s-.46.16-.7.09c-.24-.06-.44-.22-.56-.43s-.16-.46-.09-.7c.06-.24.21-.44.43-.56.14-.08.3-.12.46-.12.08,0,.16.01.24.03.49.13.78.64.65,1.13Z"/>
        <path class="cls-2" d="M45.19,36.38c-.06.24-.22.44-.43.56-.21.12-.46.16-.7.09-.49-.13-.78-.64-.65-1.13.11-.41.48-.68.89-.68.08,0,.16.01.24.03.49.13.78.64.65,1.13Z"/>
        <path class="cls-2" d="M43.4,13.58c.06-.24.21-.44.43-.56.14-.08.3-.12.46-.12.08,0,.16.01.24.03.49.13.78.64.65,1.13s-.63.79-1.13.65c-.49-.13-.78-.64-.65-1.13Z"/>
        <path class="cls-2" d="M6.57,36.37h0c-.06.24-.21.44-.43.56-.21.12-.46.16-.7.09-.24-.06-.44-.22-.56-.43s-.16-.46-.09-.7c.11-.41.48-.68.89-.68.08,0,.16.01.24.03.24.06.44.21.56.43s.16.46.09.7Z"/>
      </g>
    </g>
  </g>
  <g id="Icon_Outline">
    <g>
      <path class="cls-1" d="M22.5,18.05c.24-.13.33-.44.2-.68-.13-.24-.44-.33-.68-.2-.62.34-1.78,1.13-2.54,2.59-.74,1.42-.73,2.79-.66,3.48.03.26.24.45.5.45.02,0,.03,0,.05,0,.28-.03.48-.27.45-.55-.06-.58-.06-1.72.56-2.92.64-1.23,1.61-1.89,2.13-2.17Z"/>
      <path class="cls-1" d="M30.41,36.33v-2.03s-.01-.06-.02-.09c0-.03.02-.07.02-.1v-1.83c0-.36-.29-.65-.65-.65h-.45v-1.91c2.43-1.5,3.92-4.16,3.92-7.01,0-4.54-3.7-8.24-8.24-8.24s-8.24,3.7-8.24,8.24c0,2.86,1.5,5.52,3.92,7.01v1.91h-.45c-.36,0-.65.29-.65.65v1.83s.01.07.02.1c0,.03-.02.06-.02.09v2.03c0,.28.27.54.54.54h1.82c.51,1.25,1.68,2.13,3.05,2.13s2.55-.88,3.05-2.13h1.82c.28,0,.54-.27.54-.54ZM17.76,22.72c0-3.99,3.25-7.24,7.24-7.24s7.24,3.25,7.24,7.24c0,2.6-1.41,5.01-3.67,6.29-.16.09-.25.25-.25.43v2.19h-6.63v-2.19c0-.18-.1-.35-.25-.43-2.26-1.29-3.67-3.7-3.67-6.29ZM25,38.01c-.81,0-1.52-.45-1.94-1.13h3.87c-.41.68-1.12,1.13-1.94,1.13ZM29.41,35.88h-8.83v-1.12h8.83v1.12ZM29.41,33.76h-8.83v-1.12h8.83v1.12Z"/>
      <path class="cls-1" d="M34.05,21.44c0,.28.22.5.5.5h3.58c.28,0,.5-.22.5-.5s-.22-.5-.5-.5h-3.58c-.28,0-.5.22-.5.5Z"/>
      <path class="cls-1" d="M11.87,20.94c-.28,0-.5.22-.5.5s.22.5.5.5h3.58c.28,0,.5-.22.5-.5s-.22-.5-.5-.5h-3.58Z"/>
      <path class="cls-1" d="M24.5,9.49v3.58c0,.28.22.5.5.5s.5-.22.5-.5v-3.58c0-.28-.22-.5-.5-.5s-.5.22-.5.5Z"/>
      <path class="cls-1" d="M34.07,13.07l-2.53,2.53c-.2.2-.2.51,0,.71.1.1.23.15.35.15s.26-.05.35-.15l2.53-2.53c.2-.2.2-.51,0-.71s-.51-.2-.71,0Z"/>
      <path class="cls-1" d="M18.11,16.45c.13,0,.26-.05.35-.15.2-.2.2-.51,0-.71l-2.53-2.53c-.2-.2-.51-.2-.71,0s-.2.51,0,.71l2.53,2.53c.1.1.23.15.35.15Z"/>
      <path class="cls-1" d="M6.19,12.01c-.5-.13-1.01-.06-1.46.19-.44.26-.76.67-.9,1.17-.27,1.02.34,2.08,1.36,2.35.17.04.33.07.5.07.33,0,.66-.09.96-.26.44-.26.76-.67.89-1.17.27-1.02-.34-2.08-1.36-2.35ZM6.58,14.1c-.06.24-.21.44-.43.56-.21.12-.46.16-.7.09-.49-.13-.78-.64-.65-1.13.06-.24.22-.44.43-.56.14-.08.3-.12.46-.12.08,0,.16.01.24.03.49.13.78.64.65,1.13Z"/>
      <path class="cls-1" d="M24.49,4.57c.17.04.33.07.5.07.33,0,.66-.09.96-.26.44-.26.76-.67.89-1.17s.06-1.01-.19-1.46c-.26-.44-.67-.76-1.17-.89-1.02-.27-2.08.34-2.35,1.36-.13.5-.06,1.01.19,1.46.26.44.67.76,1.17.89ZM24.1,2.48c.11-.41.48-.68.89-.68.08,0,.16.01.24.03.24.06.44.21.56.43s.16.46.09.7h0c-.06.24-.21.44-.43.56-.21.12-.46.16-.7.09-.24-.06-.44-.22-.56-.43s-.16-.46-.09-.7Z"/>
      <path class="cls-1" d="M25.5,45.43c-.5-.13-1.01-.06-1.46.19-.44.26-.76.67-.89,1.17-.27,1.02.34,2.08,1.36,2.35.17.04.33.07.5.07.33,0,.66-.09.96-.26.44-.26.76-.67.9-1.17h0c.27-1.02-.34-2.08-1.36-2.35ZM25.9,47.52c-.06.24-.22.44-.43.56s-.46.16-.7.09c-.24-.06-.44-.22-.56-.43s-.16-.46-.09-.7c.06-.24.21-.44.43-.56.14-.08.3-.12.46-.12.08,0,.16.01.24.03.49.13.78.64.65,1.13Z"/>
      <path class="cls-1" d="M44.8,34.28c-.5-.13-1.01-.06-1.46.19s-.76.67-.9,1.17c-.27,1.02.34,2.08,1.36,2.35.17.04.33.07.5.07.33,0,.66-.09.96-.26.44-.26.76-.67.9-1.17.27-1.02-.34-2.08-1.36-2.35ZM45.19,36.38c-.06.24-.22.44-.43.56-.21.12-.46.16-.7.09-.49-.13-.78-.64-.65-1.13.11-.41.48-.68.89-.68.08,0,.16.01.24.03.49.13.78.64.65,1.13Z"/>
      <path class="cls-1" d="M43.79,15.68c.17.04.33.07.5.07.85,0,1.63-.57,1.86-1.42h0c.27-1.02-.34-2.08-1.36-2.35-.5-.13-1.01-.06-1.46.19-.44.26-.76.67-.89,1.17-.27,1.02.34,2.08,1.36,2.35ZM43.4,13.58c.06-.24.21-.44.43-.56.14-.08.3-.12.46-.12.08,0,.16.01.24.03.49.13.78.64.65,1.13s-.63.79-1.13.65c-.49-.13-.78-.64-.65-1.13Z"/>
      <path class="cls-1" d="M6.17,34.28c-1.02-.27-2.08.34-2.35,1.36-.13.5-.06,1.01.19,1.46.26.44.67.76,1.17.89.17.04.33.07.5.07.33,0,.66-.09.96-.26.44-.26.76-.67.89-1.17s.06-1.01-.19-1.46c-.26-.44-.67-.76-1.17-.89ZM6.57,36.37h0c-.06.24-.21.44-.43.56-.21.12-.46.16-.7.09-.24-.06-.44-.22-.56-.43s-.16-.46-.09-.7c.11-.41.48-.68.89-.68.08,0,.16.01.24.03.24.06.44.21.56.43s.16.46.09.7Z"/>
      <path class="cls-1" d="M20.72,46.38c-.57-.11-1.13-.25-1.69-.41-.06-.02-.11-.04-.17-.05-.49-.15-.98-.31-1.46-.49-.08-.03-.15-.06-.23-.09-.49-.19-.96-.39-1.44-.61-.04-.02-.08-.04-.12-.06-1.04-.5-2.04-1.08-3-1.73-.06-.04-.11-.08-.17-.12-.38-.27-.75-.55-1.11-.83-.14-.12-.28-.23-.43-.35-.27-.22-.52-.46-.78-.69-.16-.15-.33-.3-.48-.46-.25-.24-.48-.5-.72-.76-.13-.14-.27-.28-.4-.43-.18-.21-.5-.23-.71-.05-.18.16-.22.42-.11.62.02.03.04.06.06.08.02.02.03.04.05.05,0,0,0,.02.01.02.1.12.21.22.32.33.26.28.52.56.79.83.16.16.33.31.5.47.14.13.27.27.41.39.13.12.27.22.4.33.15.13.3.25.45.37.38.3.76.59,1.16.87.06.04.11.09.17.13,1,.69,2.05,1.29,3.14,1.82.04.02.08.04.12.06.5.23,1,.45,1.52.65.07.03.15.06.22.08.51.19,1.03.37,1.56.52.05.01.1.03.15.05.55.16,1.11.3,1.68.42,0,0,.02,0,.02,0,.02,0,.05.01.07.02.03,0,.07,0,.1,0,.23,0,.44-.16.49-.4.05-.27-.12-.53-.39-.59Z"/>
      <path class="cls-1" d="M41.36,39.41s-.07.07-.1.11c-.35.39-.72.77-1.09,1.14-.11.11-.22.21-.33.31-.28.26-.56.51-.85.75-.16.13-.32.27-.48.39-.25.2-.5.38-.76.57-.19.14-.39.28-.59.42-.24.16-.49.31-.73.46-.42.26-.85.5-1.28.73-.21.11-.42.22-.63.33-.27.13-.55.25-.83.38-.21.09-.43.18-.64.27-.28.11-.55.21-.83.31-.25.09-.5.17-.76.24-.25.08-.5.16-.75.23-.52.14-1.03.27-1.56.37-.27.05-.45.31-.4.58.01.06.03.11.06.15.1.18.31.28.53.24.03,0,.05-.01.08-.02,0,0,.01,0,.02,0,.51-.1,1.02-.22,1.53-.36.27-.07.53-.16.8-.24.18-.05.36-.1.53-.16.08-.03.16-.06.23-.09.3-.1.6-.22.89-.33.22-.09.44-.18.66-.27.3-.13.59-.26.88-.4.22-.11.44-.23.66-.34.24-.13.49-.24.72-.37.21-.12.4-.25.6-.38.26-.16.53-.32.78-.49.2-.14.4-.28.6-.43.28-.2.55-.4.81-.61.16-.13.33-.26.49-.4.32-.26.62-.54.93-.82.11-.1.21-.2.32-.3.44-.42.86-.85,1.26-1.31.18-.21.16-.52-.05-.71-.21-.18-.52-.16-.71.05Z"/>
      <path class="cls-1" d="M47.21,19.93c-.03-.14-.05-.27-.08-.41-.02-.1-.06-.2-.09-.3-.13-.5-.26-.99-.43-1.48,0,0,0-.01-.01-.02,0,0,0-.01,0-.02h0c-.1-.23-.36-.36-.61-.28-.25.08-.39.35-.32.6h0c.15.46.28.91.4,1.37.03.12.07.24.1.36.02.09.03.18.06.27.78,3.38.76,6.93-.08,10.29-.15.58-.32,1.15-.51,1.72-.02.07-.03.14-.02.2,0,.08.02.16.06.23.06.1.15.18.27.22.26.09.55-.05.63-.31.21-.6.38-1.21.54-1.82.46-1.82.7-3.69.7-5.57,0-1.71-.21-3.4-.59-5.07Z"/>
      <path class="cls-1" d="M4.01,32.54c.24-.08.37-.33.32-.57h.01c-.09-.28-.16-.57-.25-.85-.09-.31-.19-.61-.26-.92,0-.03-.01-.07-.02-.1-.82-3.43-.8-7.04.06-10.45.09-.34.19-.67.3-1,.07-.25.14-.49.22-.74.09-.26-.05-.55-.31-.64-.26-.09-.55.05-.64.31-.01.03-.02.06-.03.09,0,0,0,0,0,.01-.12.36-.22.73-.32,1.1-.06.2-.13.41-.18.61-.47,1.84-.71,3.72-.71,5.62,0,1.8.22,3.59.65,5.34,0,.03.01.06.02.09.08.33.18.65.28.98.08.27.14.55.23.81,0,.01,0,.02.01.03,0,.01,0,.02,0,.03v.04s.02,0,.02,0c.12.2.36.3.59.22Z"/>
      <path class="cls-1" d="M8.24,10.8c.14,0,.28-.06.38-.17.03-.03.06-.06.09-.1h0c.37-.42.76-.82,1.17-1.21.07-.07.14-.13.21-.2.32-.3.65-.6.99-.88.12-.1.24-.2.37-.3.3-.24.6-.46.91-.68.15-.11.3-.22.45-.32.36-.25.74-.48,1.11-.7.26-.15.52-.29.79-.44.27-.14.54-.29.81-.42.25-.12.5-.23.75-.34.24-.11.49-.21.74-.31.25-.1.5-.19.76-.28.29-.1.58-.2.88-.29.2-.06.41-.13.61-.18.52-.14,1.05-.27,1.58-.37.27-.05.45-.31.4-.59-.05-.27-.31-.45-.59-.4-.03,0-.05.01-.08.02,0,0-.01,0-.02,0-.52.1-1.03.23-1.55.37-.23.06-.45.14-.68.21-.2.06-.4.11-.6.18-.09.03-.18.07-.27.1-.28.1-.55.2-.82.31-.25.1-.5.2-.74.31-.27.12-.54.23-.8.36-.28.14-.55.28-.83.43-.19.1-.38.19-.57.3-.1.06-.19.13-.29.18-.38.23-.76.46-1.13.71-.17.11-.33.23-.49.35-.32.22-.63.46-.93.7-.14.11-.27.22-.41.34-.34.29-.68.58-1,.89-.09.08-.17.16-.26.24-.45.44-.89.88-1.3,1.36-.18.21-.16.52.05.71.09.08.21.12.33.12Z"/>
      <path class="cls-1" d="M42.14,9.99s0-.02-.02-.03c-.12-.13-.25-.26-.37-.39-.24-.26-.47-.51-.72-.75-.18-.17-.36-.34-.54-.51-.12-.11-.24-.24-.37-.35-.13-.11-.26-.22-.39-.33-.17-.14-.33-.28-.5-.42-.36-.29-.74-.57-1.12-.84-.07-.05-.14-.1-.21-.15-.99-.68-2.04-1.28-3.12-1.8-.06-.03-.11-.05-.17-.08-.48-.22-.97-.43-1.47-.62-.08-.03-.17-.07-.25-.1-.5-.19-1.01-.35-1.52-.5-.06-.02-.12-.04-.18-.06-.55-.16-1.11-.3-1.67-.41,0,0-.01,0-.02,0-.03,0-.05-.01-.08-.02-.27-.05-.53.12-.59.39-.05.27.12.53.39.59.57.11,1.14.25,1.7.41.04.01.09.03.13.04.51.15,1.01.31,1.5.5.07.03.14.05.21.08.49.19.97.39,1.44.61.04.02.09.04.13.06,1.04.5,2.05,1.07,3,1.73.06.04.12.09.18.13.37.26.74.54,1.09.82.16.13.31.26.47.39.25.21.49.43.73.65.18.16.35.33.52.49.22.22.43.45.65.68.15.16.31.32.45.48.18.21.5.23.71.05.21-.18.23-.5.05-.71-.02-.02-.03-.03-.05-.05Z"/>
    </g>
  </g>
  <g id="Names">
    <text class="cls-3" transform="translate(0 53.99)"><tspan x="0" y="0">collabo</tspan><tspan class="cls-4" x="16.27" y="0">r</tspan><tspan x="17.87" y="0">ati</tspan><tspan class="cls-5" x="23.43" y="0">v</tspan><tspan x="25.82" y="0">e-idea</tspan></text>
  </g>
</svg>