<svg id="ad13b8ed-9e62-4271-a0e4-b522288dbffd" data-name="ICONS" xmlns="http://www.w3.org/2000/svg" viewBox="0 0 50 50"><path d="M30.7,34.63a.54.54,0,0,0,.36.14.52.52,0,0,0,.35-.14l7.21-7.21a.5.5,0,0,0,.14-.35.54.54,0,0,0-.14-.36l-7.21-7.2a.5.5,0,0,0-.71,0,.51.51,0,0,0,0,.71l6.85,6.85L30.7,33.92A.51.51,0,0,0,30.7,34.63Z"/><path d="M17.59,34.63a.52.52,0,0,0,.35.14.5.5,0,0,0,.35-.85l-6.85-6.85,6.85-6.85a.5.5,0,0,0,0-.71.48.48,0,0,0-.7,0l-7.21,7.2a.54.54,0,0,0-.14.36.5.5,0,0,0,.14.35Z"/><path d="M23.21,32.91h.12a.5.5,0,0,0,.49-.37L26.75,21.3a.51.51,0,0,0-.36-.61.5.5,0,0,0-.61.36L22.85,32.3A.5.5,0,0,0,23.21,32.91Z"/><path d="M43.5,4.83H5.75a4.51,4.51,0,0,0-4.5,4.5V39.92a4.51,4.51,0,0,0,4.5,4.5H43.5a4.51,4.51,0,0,0,4.5-4.5V9.33A4.51,4.51,0,0,0,43.5,4.83ZM47,39.92a3.5,3.5,0,0,1-3.5,3.5H5.75a3.5,3.5,0,0,1-3.5-3.5V9.33a3.5,3.5,0,0,1,3.5-3.5H43.5A3.5,3.5,0,0,1,47,9.33Z"/><path d="M43.83,14.21H5.66a.5.5,0,0,0-.5.5v25a.5.5,0,0,0,.5.5H43.83a.5.5,0,0,0,.5-.5v-25A.5.5,0,0,0,43.83,14.21Zm-.5,25H6.16v-24H43.33Z"/><path d="M6.66,11.53a1.13,1.13,0,1,0,0-2.25,1.13,1.13,0,0,0,0,2.25Z"/><path d="M11.08,11.53A1.13,1.13,0,1,0,10,10.4,1.13,1.13,0,0,0,11.08,11.53Z"/><path d="M15.22,11.5a1.12,1.12,0,1,0-1.12-1.12A1.13,1.13,0,0,0,15.22,11.5Z"/></svg>