<svg id="aa75857c-edfd-404e-b415-9472f9823a70" data-name="ICONS" xmlns="http://www.w3.org/2000/svg" viewBox="0 0 50 50"><path d="M48.47,20.54a.74.74,0,0,0-.34-.61.75.75,0,0,0-.71-.09h0a1.62,1.62,0,0,1-1.06.06,2,2,0,0,1-1.19-2,.84.84,0,0,0-.29-.64.74.74,0,0,0-.62-.17,1.77,1.77,0,0,1-1.6-3,.77.77,0,0,0-.32-1.25,2.21,2.21,0,0,1-1.52-1.43,2.48,2.48,0,0,1,2-2.64.76.76,0,0,0,.56-.62A.74.74,0,0,0,43,7.38,20.4,20.4,0,0,0,31.59,3.75h-.13c-6.92,0-11.19,2.92-13.56,5.37a19.52,19.52,0,0,0-3,4.19,17.54,17.54,0,0,0-9.44,5C4.07,19.7-.29,24.81.58,31.54c.69,5.39,4.17,8.67,5.84,10.24a18.48,18.48,0,0,0,10.91,5.34c.48,0,1.1.09,1.84.09A16.9,16.9,0,0,0,30.55,43a15.6,15.6,0,0,0,3.85-5.29,16.74,16.74,0,0,0,9.58-5A17.35,17.35,0,0,0,48.47,20.54ZM29.88,42.29a16.56,16.56,0,0,1-12.44,3.83A17.46,17.46,0,0,1,7.11,41.05c-1.59-1.49-4.89-4.61-5.54-9.63C.76,25.12,4.87,20.31,6.15,19a17.34,17.34,0,0,1,12.68-5.06h.29c1.64,0,10,.45,13.94,6.75a14.83,14.83,0,0,1,2,8.2h0C35.05,31,35.11,37.6,29.88,42.29Zm5-5.66A21.78,21.78,0,0,0,36,28.87h0a15.91,15.91,0,0,0-2.13-8.72c-4.2-6.74-13-7.2-14.78-7.22a22.84,22.84,0,0,0-3,.19,18.58,18.58,0,0,1,2.5-3.31c2.23-2.31,6.27-5.06,12.85-5.06h.12A19.41,19.41,0,0,1,42.07,8a3.36,3.36,0,0,0-2.22,3.67,3.09,3.09,0,0,0,1.86,2,2.88,2.88,0,0,0-.16,3.18,2.83,2.83,0,0,0,2.62,1.27,3,3,0,0,0,1.88,2.76,2.58,2.58,0,0,0,1.43,0A16.34,16.34,0,0,1,43.24,32,15.41,15.41,0,0,1,34.85,36.63Z"/><path d="M14.21,25.13A2.13,2.13,0,1,0,12.08,23,2.14,2.14,0,0,0,14.21,25.13Zm0-3.26A1.13,1.13,0,1,1,13.08,23,1.14,1.14,0,0,1,14.21,21.87Z"/><path d="M18.58,35.23A2.39,2.39,0,1,0,21,37.61,2.39,2.39,0,0,0,18.58,35.23Zm0,3.77A1.39,1.39,0,1,1,20,37.61,1.39,1.39,0,0,1,18.58,39Z"/><path d="M23.81,30.07a2.38,2.38,0,1,0,2.37-2.38A2.37,2.37,0,0,0,23.81,30.07Zm2.37-1.38a1.38,1.38,0,1,1-1.37,1.38A1.38,1.38,0,0,1,26.18,28.69Z"/><path d="M23.12,22.19A2.18,2.18,0,1,0,20.94,20,2.19,2.19,0,0,0,23.12,22.19Zm0-3.36A1.18,1.18,0,1,1,21.94,20,1.18,1.18,0,0,1,23.12,18.83Z"/><path d="M9.25,29.37A2.74,2.74,0,1,0,12,32.11,2.74,2.74,0,0,0,9.25,29.37Zm0,4.47A1.74,1.74,0,1,1,11,32.11,1.73,1.73,0,0,1,9.25,33.84Z"/><path d="M26.85,7.68a1.8,1.8,0,1,0,1.8,1.8A1.8,1.8,0,0,0,26.85,7.68Zm0,2.75a1,1,0,1,1,.95-.95A1,1,0,0,1,26.85,10.43Z"/><path d="M39.87,20.62A2.38,2.38,0,1,0,42.25,23,2.39,2.39,0,0,0,39.87,20.62Zm0,3.76A1.38,1.38,0,1,1,41.25,23,1.38,1.38,0,0,1,39.87,24.38Z"/><path d="M35.54,11.19A1.8,1.8,0,1,0,37.33,13,1.81,1.81,0,0,0,35.54,11.19Zm0,2.75a1,1,0,1,1,1-.95A.95.95,0,0,1,35.54,13.94Z"/></svg>