<svg xmlns="http://www.w3.org/2000/svg" viewBox="0 0 50 50"><g id="b99ba048-7493-4310-b4d4-42e2c73f506e" data-name="ICONS"><path d="M31.06.44H21.71C14.26.43,9.06,4.76,9.06,11c.06,1.29,1.48,31.61,11.66,31.61l1.62,0L25.94,48a.5.5,0,0,0,.42.22h0l.07,0h0a.5.5,0,0,0,.41-.23l3.35-5,.22-.33,1.61,0c10.19,0,11.61-30.32,11.67-31.63C43.71,4.76,38.51.44,31.06.44ZM29.89,41.62l-.37.55-3.11,4.58c-1-1.51-3.37-5-3.41-5.09a25,25,0,0,1-3.28-11.88c0-9.33,3.06-17.22,6.67-17.22,1.56,0,3.09,1.49,4.31,4.19a33.06,33.06,0,0,1,2.36,13A26.23,26.23,0,0,1,29.89,41.62Zm2.14,0H31a26.84,26.84,0,0,0,3.05-11.82,34,34,0,0,0-2.45-13.44c-1.39-3.08-3.25-4.78-5.22-4.78-4.3,0-7.67,8-7.67,18.22A25.81,25.81,0,0,0,21.85,41.6l-1.12,0c-4.74,0-7.39-8.24-8.78-15.15A115.13,115.13,0,0,1,10.06,11c0-6.58,5.85-9.52,11.65-9.52h9.35c5.8,0,11.65,2.94,11.65,9.5a114.77,114.77,0,0,1-1.89,15.48C39.43,33.34,36.78,41.59,32,41.59Z"/></g><g id="f6183802-b6fb-488a-be2d-e15a74f6e255" data-name="LABELS"><text transform="translate(0.02 54.91)" font-size="6" font-family="Roboto-Regular, Roboto">corn-<tspan x="13.56" y="0" letter-spacing="-0.01em">k</tspan><tspan x="16.54" y="0">ernel</tspan></text></g></svg>