<svg xmlns="http://www.w3.org/2000/svg" viewBox="0 0 50 50"><g id="a8b4a71e-bbf2-46e1-a815-463f27cc1223" data-name="ICONS"><path d="M38,34.63l-2.11-2.11a1.05,1.05,0,0,0-1.5,0l-7.24,7.23V22.36a.5.5,0,0,0-.5-.5H22.58a.5.5,0,0,0-.5.5V39.75l-7.24-7.23a1.09,1.09,0,0,0-1.5,0l-2.11,2.11a1.05,1.05,0,0,0,0,1.51L23.06,48a2.13,2.13,0,0,0,1.53.64h.07A2.14,2.14,0,0,0,26.21,48L38,36.14a1,1,0,0,0,.32-.75A1.07,1.07,0,0,0,38,34.63ZM25.5,47.27h0a1.19,1.19,0,0,1-.87.34,1.24,1.24,0,0,1-.86-.34L11.93,35.34l2.21-2.11,8.08,8.08a.49.49,0,0,0,.55.11.51.51,0,0,0,.31-.46V22.86h3.11V41a.5.5,0,0,0,.31.46.49.49,0,0,0,.55-.11l8.17-8.08,2.12,2.2Z"/><path d="M24.78,14.47a2.31,2.31,0,0,1-2.5-2.09h-2.8c.16,2.52,1.83,4,4.44,4.23v1.83h1.43V16.61c3.11-.24,4.44-2,4.44-4.15S28.86,9.06,25.31,8c-2-.57-2.66-.86-2.66-1.9s.61-1.54,1.86-1.54A2.18,2.18,0,0,1,26,5a2,2,0,0,1,.64,1.34h2.78c-.14-2-1.35-3.64-4.08-3.91V.64H23.92V2.46c-2.34.2-4.09,1.57-4.09,3.94,0,2,1.1,3.16,4.31,4,2,.57,2.77,1.09,2.77,2.35C26.91,13.78,26.36,14.47,24.78,14.47Z"/></g><g id="f766cd97-4a83-4c2c-9ebe-32328e973dd3" data-name="LABELS"><text transform="translate(0.25 55.07)" font-size="6" font-family="Roboto-Regular, Roboto">cost-decline</text></g></svg>