<?xml version="1.0" encoding="UTF-8"?><svg xmlns="http://www.w3.org/2000/svg" viewBox="0 0 50 50"><g id="uuid-99be41db-61a6-4d20-aeb8-40794b9758e0"><path d="M37.63,34.59c-1.33,0-2.62,.41-3.71,1.15v-.41c0-.28-.12-.55-.32-.74-.2-.19-.48-.3-.76-.28l-3.94,.22c3.39-5.74,10.42-17.68,11.13-19.99,.53-1.72,.25-3.63-.74-4.98-.85-1.16-2.13-1.81-3.62-1.82-.52,0-.77-.01-1-.02-.32,0-.6-.02-1.55-.01-.32-4.01-3.72-7.2-7.79-7.2-.33,0-.65,.03-.96,.07-.15,.02-.3,.04-.45,.07-.03,0-.07,0-.1,.02-3.5,.6-6.21,3.52-6.48,7.12-.48,0-1.31,0-2.83,.01-1.49,.01-2.78,.66-3.63,1.82-.99,1.35-1.27,3.26-.73,4.99,.69,2.22,6.49,12.53,10.96,20.37l-4.08,.22c-.43,.02-.84,.19-1.16,.47l-10.48,9.25c-.6,.53-.81,1.36-.52,2.11s.98,1.23,1.78,1.23h25.35c.96,0,1.75-.72,1.88-1.64,1.1,.76,2.39,1.17,3.74,1.17,3.64,0,6.6-2.96,6.6-6.6s-2.96-6.6-6.6-6.6ZM18.32,8.37c0-3.77,3.06-6.83,6.83-6.83s6.83,3.06,6.83,6.83-3.06,6.83-6.83,6.83-6.83-3.06-6.83-6.83Zm-6.61,1.83c.46-.64,1.33-1.4,2.83-1.41,1.08,0,1.8-.01,2.28-.01,.23,0,.39,0,.52,0,.21,4.13,3.63,7.42,7.81,7.42s7.63-3.33,7.81-7.49c1.07,0,1.36,0,1.7,.01,.23,0,.48,.01,1.02,.02,1.49,.01,2.36,.77,2.82,1.41,.8,1.1,1.03,2.67,.59,4.1h0c-.67,2.18-7.8,14.28-10.98,19.68-.08-.25-.18-.51-.32-.75-.39-.7-1.12-2.03-1.99-3.64,1.53-2.79,3.46-6.36,4.8-8.84,.9-1.66,1.53-2.83,1.59-2.94,.14-.24,.06-.54-.18-.68-.24-.14-.54-.06-.68,.18-.06,.11-.7,1.29-1.61,2.96-1.25,2.31-3.02,5.58-4.49,8.27-1.45-2.68-3.15-5.86-4.38-8.17-.93-1.74-1.58-2.96-1.65-3.07-.14-.24-.44-.32-.68-.19-.24,.14-.32,.44-.19,.68,.06,.11,.71,1.33,1.64,3.05,2.19,4.08,5.85,10.92,6.95,12.88,.44,.79,.39,1.45,.21,1.94-.04,.11-.09,.21-.14,.32h0c-.41,.74-1.25,1.3-2.11,1.38-.45,.04-1.29-.03-1.81-.96l-.74-1.3c-2.58-4.53-10.45-18.3-11.2-20.73-.44-1.43-.22-3,.59-4.1Zm20.31,37.06H6.66c-.46,0-.74-.3-.85-.59-.11-.28-.1-.7,.25-1l10.48-9.25c.15-.13,.35-.21,.55-.23l4.58-.25,.51,.89c.54,.95,1.43,1.48,2.49,1.48,.09,0,.19,0,.28-.01,1.38-.12,2.66-1.09,3.07-2.28l.26-.45,4.63-.24v1.25c-1.22,1.24-1.89,2.86-1.89,4.61s.69,3.39,1.89,4.6v.55c0,.5-.41,.91-.91,.91Zm5.62-.47c-1.44,0-2.81-.55-3.87-1.56-1.1-1.04-1.73-2.51-1.73-4.04s.62-2.99,1.73-4.05c1.05-1,2.43-1.55,3.86-1.55,3.09,0,5.6,2.51,5.6,5.6s-2.51,5.6-5.6,5.6Z"/></g><g id="uuid-6bb46cb3-c444-4c9c-a2f4-80ce663c3005"><text transform="translate(.02 54.89)" font-family="Roboto-Regular, Roboto" font-size="6"><tspan x="0" y="0">cpr-people</tspan></text></g></svg>