<svg xmlns="http://www.w3.org/2000/svg" viewBox="0 0 50 50"><g id="b76b0c94-a4ea-4c0b-bd95-ded846c3fda1" data-name="ICONS"><path d="M49.67,14.18A2.18,2.18,0,0,0,47.49,12H5a2.18,2.18,0,0,0-2.18,2.17v1.09H48.17v.5h1.5Z" fill="#fdd600"/><path d="M2.83,22.43V38.31A2.18,2.18,0,0,0,5,40.49H47.49a2.18,2.18,0,0,0,2.18-2.18V22.43ZM43.06,33.58h-7v-7h7Z" fill="#fdd600"/><path d="M35.58,34.58h8a.5.5,0,0,0,.5-.5v-8a.5.5,0,0,0-.5-.5h-8a.5.5,0,0,0-.5.5v8A.5.5,0,0,0,35.58,34.58Zm.5-8h7v7h-7Z" fill="#231f20"/><path d="M6,34.58H25.44a.5.5,0,0,0,.5-.5.5.5,0,0,0-.5-.5H6a.5.5,0,0,0-.5.5A.5.5,0,0,0,6,34.58Z" fill="#231f20"/><path d="M46,9.51H3.51A3.18,3.18,0,0,0,.33,12.68V36.81A3.18,3.18,0,0,0,3.51,40H46a3.18,3.18,0,0,0,3.18-3.18V12.68A3.18,3.18,0,0,0,46,9.51Zm2.18,27.3A2.18,2.18,0,0,1,46,39H3.51a2.18,2.18,0,0,1-2.18-2.18V20.93H48.17Zm0-16.88H1.33V15.27H48.17Zm0-5.66H1.33V12.68a2.18,2.18,0,0,1,2.18-2.17H46a2.18,2.18,0,0,1,2.18,2.17Z" fill="#231f20"/></g><g id="ac12ba8d-1e2d-48e7-b042-6f0fcffd6efa" data-name="LABELS"><text transform="translate(-0.16 55.07)" font-size="6" fill="#231f20" font-family="Roboto-Regular, Roboto">c<tspan x="3.14" y="0" letter-spacing="-0.01em">r</tspan><tspan x="5.12" y="0">edit-ca</tspan><tspan x="23.15" y="0" letter-spacing="-0.01em">r</tspan><tspan x="25.13" y="0">d</tspan></text></g></svg>