<svg id="af594839-8108-4b2f-bfaf-d2f9e264aa93" data-name="ICONS" xmlns="http://www.w3.org/2000/svg" viewBox="0 0 50 50"><path d="M26.44,3.87A22.88,22.88,0,1,0,49.32,26.75,22.9,22.9,0,0,0,26.44,3.87ZM38,27.57H28.28a.5.5,0,0,0-.5.5v11H21v-11a.5.5,0,0,0-.5-.5H10.75V21.18h9.74a.5.5,0,0,0,.5-.5V10.11h6.79V20.68a.5.5,0,0,0,.5.5H38Z" fill="#fdd600"/><path d="M38.5,20.18H28.78V9.61a.5.5,0,0,0-.5-.5H20.49a.51.51,0,0,0-.5.5V20.18H10.25a.5.5,0,0,0-.5.5v7.39a.5.5,0,0,0,.5.5H20v11a.5.5,0,0,0,.5.5h7.79a.5.5,0,0,0,.5-.5v-11H38.5a.5.5,0,0,0,.5-.5V20.68A.5.5,0,0,0,38.5,20.18ZM38,27.57H28.28a.5.5,0,0,0-.5.5v11H21v-11a.5.5,0,0,0-.5-.5H10.75V21.18h9.74a.5.5,0,0,0,.5-.5V10.11h6.79V20.68a.5.5,0,0,0,.5.5H38Z" fill="#231f20"/><path d="M24.69,1.12A23.88,23.88,0,1,0,48.57,25,23.9,23.9,0,0,0,24.69,1.12Zm0,46.76A22.88,22.88,0,1,1,47.57,25,22.9,22.9,0,0,1,24.69,47.88Z" fill="#231f20"/></svg>