<?xml version="1.0" encoding="UTF-8"?>
<svg xmlns="http://www.w3.org/2000/svg" viewBox="0 0 50 50">
  <defs>
    <style>
      .cls-1 {
        fill: #1f1c1d;
      }

      .cls-2 {
        fill: #221f1f;
        font-family: Roboto-Regular, Roboto;
        font-size: 5px;
      }

      .cls-3 {
        letter-spacing: 0em;
      }
    </style>
  </defs>
  <g id="Icon_Outline">
    <g>
      <path class="cls-1" d="M37.95,31c-.12-.15-.35-.33-.74-.34-2-.05-3.72-.95-4.82-2.51-1.8-2.6-4.99-3.52-7.19-3.52,0,0-.02,0-.02,0-2.3,0-5.39.92-7.19,3.51-1.1,1.56-2.97,2.53-5.02,2.58-.35,0-.68.17-.9.43-.19.24-.27.54-.22.84.06.32.1,1.8.09,2.25.01,2.52.21,5.07.57,7.58.29,1.65,1.46,7.06,4.63,7.36h.26c1.89,0,2.96-.85,6.66-9.84l.05-.11c.27-.65.6-1.46,1.08-1.47h.02c.53,0,.82.61,1.13,1.39,3.69,9.23,5.04,10.17,7.08,10.02,3.47-.3,4.48-6.54,4.49-6.61.22-1.61.29-3.25.22-4.86v-3.35c.01-.3,0-.75,0-1.2,0-.46-.02-1.08,0-1.25.08-.45-.05-.74-.18-.9ZM18.81,28.71c1.3-1.88,3.8-3.09,6.36-3.09h.03c2.11,0,4.89.95,6.37,3.09,1.25,1.78,3.16,2.81,5.38,2.87-1.02.74-5.03,1.64-11.95,1.64-6.33,0-10.22-.86-11.64-1.54,2.22-.16,4.24-1.25,5.46-2.98ZM37.13,37.72c.07,1.57,0,3.15-.21,4.69-.17,1.17-1.28,5.56-3.58,5.75-1.14.1-2.25.17-6.09-9.43-.3-.75-.79-1.97-2.08-1.98-1.14.03-1.63,1.22-1.98,2.09l-.04.11c-3.61,8.78-4.53,9.22-5.74,9.22h-.21c-1.92-.18-3.19-3.63-3.7-6.52-.36-2.45-.54-4.95-.56-7.42,0-.24,0-1.03-.04-1.68,2.21,1.09,7.33,1.66,12.09,1.66s9.87-.44,12.12-1.6c0,.16,0,.34,0,.54,0,.42.02.85,0,1.15v3.4Z"/>
      <path class="cls-1" d="M37.81,3.78c-1.28-1.33-2.7-2.21-4.21-2.6-1.87-.51-4.48-.34-6.98.44-.54.16-1.11.28-1.66.33-.61.04-1.22,0-1.74-.09l-.47-.17c-1.76-.64-3.43-1.24-5.94-.59-1.53.39-2.95,1.17-4.21,2.33-3.15,2.88-4.23,8.19-2.63,12.93.45,2.21,11.58,2.45,14.53,2.47v2.62l-.94-.94c-.2-.2-.51-.2-.71,0s-.2.51,0,.71l1.8,1.8.38.31,2.11-2.11c.2-.2.2-.51,0-.71s-.51-.2-.71,0l-.94.94v-2.62c2.62-.02,13.48-.21,14.61-2.26h.02s.02-.05.02-.08c.02-.05.03-.1.04-.15,1.14-3.89.69-9.39-2.38-12.57ZM25.5,17.83v-1.4c0-.28-.22-.5-.5-.5s-.5.22-.5.5v1.4c-7.8-.04-12.79-.94-13.51-1.61.74-.68,5.95-1.61,14.09-1.61s13.34.93,14.09,1.61c-.73.67-5.78,1.58-13.67,1.61ZM39.43,15.27c-2.9-1.61-13.03-1.66-14.35-1.66s-11.54.06-14.39,1.68c-1.13-4.17-.12-8.65,2.59-11.12,1.14-1.04,2.42-1.75,3.79-2.1,2.21-.58,3.6-.08,5.35.56l.55.19s.05,0,.07,0c0,0,0,0,.01,0,.12.06,3.09,1.39,6.26,1.63.01,0,.03,0,.04,0,.26,0,.48-.2.5-.46.02-.28-.18-.52-.46-.54-1.23-.1-2.44-.37-3.45-.67.33-.06.66-.14.98-.24,2.33-.73,4.73-.89,6.42-.43,1.33.35,2.6,1.13,3.75,2.33,2.57,2.67,3.1,7.32,2.34,10.8Z"/>
    </g>
  </g>
  <g id="Names">
    <text class="cls-2" transform="translate(0 53.78)"><tspan x="0" y="0">dental-c</tspan><tspan class="cls-3" x="17.79" y="0">r</tspan><tspan x="19.43" y="0">own</tspan></text>
  </g>
</svg>