<?xml version="1.0" encoding="UTF-8"?>
<svg xmlns="http://www.w3.org/2000/svg" viewBox="0 0 50 50">
  <defs>
    <style>
      .cls-1 {
        fill: #1f1c1d;
      }

      .cls-2 {
        fill: #221f1f;
        font-family: Roboto-Regular, Roboto;
        font-size: 5px;
      }
    </style>
  </defs>
  <g id="Icon_Outline">
    <g>
      <path class="cls-1" d="M16.63,16.01c-.56.22-.85.85-.63,1.41.22.56.85.85,1.41.63.56-.22.85-.85.63-1.41-.22-.56-.85-.85-1.41-.63Z"/>
      <path class="cls-1" d="M37.04,22.53c-11.9-3.26-14.97-5.68-15-5.7l-.73-.62-.02.02c-.15-.84-.55-1.64-1.2-2.29-.6-.6-1.34-.98-2.12-1.15-.02-1.74-.73-6.98-8.06-10.52-.54-.26-1.16-.49-1.75-.26-.39.15-.68.48-.88.98-.44,1.13.36,1.72.88,2.12l.47.36c2.41,1.79,3.67,3.35,3.74,4.65.03.59-.2,1.11-.68,1.59-.49.49-1.02.72-1.6.69-1.29-.07-2.86-1.33-4.65-3.74l-.35-.47c-.39-.53-.99-1.32-2.12-.88-.5.19-.83.49-.98.88-.23.58,0,1.21.26,1.75,3.54,7.33,8.78,8.04,10.52,8.06.17.78.55,1.51,1.15,2.12.63.63,1.42,1.04,2.28,1.2l-.02.02.61.73s2.44,3.09,5.7,15c2.66,9.69,8.83,10.95,11.36,11.04.02,0,.03,0,.05,0,.38,0,.75-.16,1.01-.45.27-.31.39-.72.33-1.12l-.19-1.24c-.1-.64-.64-1.13-1.29-1.16-1.57-.07-5.45-.99-7.4-8.12-2.47-8.99-4.5-13.31-5.64-15.24,1.93,1.14,6.25,3.17,15.24,5.64,7.13,1.95,8.06,5.83,8.12,7.4.03.65.51,1.19,1.16,1.29l1.24.19c.07.01.14.02.21.02.33,0,.66-.12.91-.35.3-.27.47-.65.46-1.06-.09-2.53-1.35-8.7-11.04-11.36ZM12.68,16.98c-1.63-.05-6.28-.82-9.51-7.5-.08-.17-.33-.69-.23-.95.05-.12.19-.22.42-.31.38-.15.52-.03.95.55.07.09.13.18.2.26l.15.2c.74.99,2.98,4.01,5.4,4.14.82.04,1.57-.26,2.23-.87h.01s.07-.07.11-.11c.04-.04.09-.07.13-.11h-.01c.61-.67.91-1.42.87-2.24-.13-2.42-3.15-4.66-4.14-5.39l-.2-.15c-.09-.07-.18-.14-.27-.2-.58-.43-.7-.57-.55-.96.09-.23.19-.37.31-.42.26-.1.78.15.95.23,6.68,3.22,7.44,7.88,7.5,9.51-1.1.01-2.2.43-3.03,1.27-.84.84-1.26,1.94-1.27,3.04ZM14.65,19.39c-1.31-1.31-1.31-3.43,0-4.74.65-.65,1.51-.98,2.37-.98s1.72.33,2.37.98c1.31,1.31,1.31,3.43,0,4.74-1.27,1.27-3.47,1.27-4.74,0ZM25.42,36.25c2.13,7.77,6.53,8.78,8.32,8.86.18,0,.32.13.35.31l.19,1.24c.02.11-.02.22-.09.31-.04.04-.12.12-.26.12,0,0,0,0-.01,0-2.31-.08-7.95-1.25-10.43-10.3-3.39-12.37-5.88-15.35-5.9-15.38l-.06-.08c.71-.08,1.38-.32,1.96-.72.9,1.32,3.09,5.3,5.93,15.65ZM46.97,34.19c-.08.07-.2.1-.3.09l-1.24-.19c-.17-.03-.3-.17-.31-.35-.08-1.79-1.09-6.19-8.86-8.32-10.35-2.84-14.33-5.03-15.65-5.93.41-.6.64-1.27.72-1.96l.08.07c.12.1,3.15,2.55,15.38,5.9,9.05,2.48,10.22,8.12,10.3,10.43,0,.14-.07.23-.12.27Z"/>
    </g>
  </g>
  <g id="Names">
    <text class="cls-2" transform="translate(0 53.78)"><tspan x="0" y="0">dental-pliers</tspan></text>
  </g>
</svg>