<?xml version="1.0" encoding="UTF-8"?>
<svg xmlns="http://www.w3.org/2000/svg" viewBox="0 0 50 50">
  <defs>
    <style>
      .cls-1 {
        fill: #1f1c1d;
      }

      .cls-2 {
        fill: #ffcd00;
      }

      .cls-3 {
        fill: #221f1f;
        font-family: Roboto-Regular, Roboto;
        font-size: 5px;
      }
    </style>
  </defs>
  <g id="Gold_Offset">
    <path class="cls-2" d="M22.16,15.82l-1.09,2.16c-.08.17-.26.27-.45.27H6l-2.33,24.3h43.6l2.57-26.74h-27.67ZM30.45,27.98c-.05.09-.21.36-.35.75-.19.53-.23.97-.25,1.25-.04.59-.03,1.21-.02,1.81.01.83.03,1.61-.08,2.27-.2,1.24-.74,2.29-.99,2.32-.17.03-.87-.23-2.18-4.28-.17-.52-.46-1.4-1.41-1.4s-1.25.85-1.41,1.31l-.04.11c-1.29,4.03-2.09,4.28-2.3,4.26-.29-.08-.83-1.35-1.05-2.71-.13-.82-.25-2.54-.25-3.69,0-.17,0-.63-.16-1.19-.16-.56-.39-.94-.48-1.1-.31-.52-.96-2.08-.87-3.34.1-1.37,1.2-3.06,2.88-3.53.31-.09.61-.12.89-.12.53,0,.99.12,1.37.26.39.14.66.31.94.49.49.32,1.05.68,2.23.84.02,0,.04,0,.07,0,.25,0,.46-.18.5-.43.04-.27-.16-.53-.43-.56-.58-.08-.95-.21-1.26-.36.11-.03.22-.05.33-.09.54-.18,1.39-.33,2.31-.05,1.41.43,2.68,1.9,2.9,3.36.27,1.81-.88,3.8-.9,3.83Z"/>
  </g>
  <g id="Icon_Outline">
    <g>
      <path class="cls-1" d="M49,13.24c-.09-.1-.23-.16-.37-.16h-1.94v-2.47c0-.28-.22-.5-.5-.5h-28.18l-.88-2.34c-.07-.2-.26-.32-.47-.32H1.59c-.28,0-.5.22-.5.5v30.98l-.22,2.34c-.01.14.03.28.13.38.09.1.23.16.37.16h44.6c.26,0,.47-.2.5-.45l.15-1.54c.05-.08.08-.84.08-.84l2.43-25.36c.01-.14-.03-.28-.13-.38ZM2.09,8.44h14.23l.88,2.34c.07.2.26.33.47.33h28.03v1.97h-25.59c-.19,0-.36.11-.45.27l-1.09,2.16H3.8c-.26,0-.47.2-.5.45l-1.21,12.55V8.44ZM45.52,40.81H1.92l2.33-24.3h14.62c.19,0,.36-.11.45-.27l1.09-2.16h27.67l-2.57,26.74Z"/>
      <path class="cls-1" d="M17.61,24.28c-.11,1.51.63,3.3,1.02,3.94.07.11.25.41.37.84s.12.78.12.93c0,1.18.12,2.97.26,3.83.09.57.6,3.41,1.93,3.55.05,0,.11,0,.16,0,.82,0,1.84-.72,3.2-4.95l.04-.11c.18-.55.26-.63.46-.63.18,0,.28.15.47.75,1.38,4.23,2.27,5,3.22,4.93,1.39-.13,1.86-3.03,1.88-3.16.12-.75.11-1.61.09-2.45,0-.58-.02-1.18.02-1.73,0-.14.03-.52.19-.98.11-.3.23-.51.28-.59.06-.09,1.35-2.32,1.02-4.48-.28-1.84-1.83-3.63-3.6-4.17-1.18-.36-2.24-.17-2.93.06-.27.1-.54.15-.82.18-.32.02-.63,0-.89-.05-.03,0-.05-.02-.07-.03-.01,0-.03,0-.04,0-.67-.24-1.66-.43-2.76-.12-2.19.61-3.49,2.74-3.61,4.43ZM21.49,20.81c.31-.09.61-.12.89-.12.53,0,.99.12,1.37.26.39.14.66.31.94.49.49.32,1.05.68,2.23.84.02,0,.04,0,.07,0,.25,0,.46-.18.5-.43.04-.27-.16-.53-.43-.56-.58-.08-.95-.21-1.26-.36.11-.03.22-.05.33-.09.54-.18,1.39-.33,2.31-.05,1.41.43,2.68,1.9,2.9,3.36.27,1.81-.88,3.8-.9,3.83-.05.09-.21.36-.35.75-.19.53-.23.97-.25,1.25-.04.59-.03,1.21-.02,1.81.01.83.03,1.61-.08,2.27-.2,1.24-.74,2.29-.99,2.32-.17.03-.87-.23-2.18-4.28-.17-.52-.46-1.4-1.41-1.4s-1.25.85-1.41,1.31l-.04.11c-1.29,4.03-2.09,4.28-2.3,4.26-.29-.08-.83-1.35-1.05-2.71-.13-.82-.25-2.54-.25-3.69,0-.17,0-.63-.16-1.19-.16-.56-.39-.94-.48-1.1-.31-.52-.96-2.08-.87-3.34.1-1.37,1.2-3.06,2.88-3.53Z"/>
    </g>
  </g>
  <g id="Names">
    <text class="cls-3" transform="translate(0 53.78)"><tspan x="0" y="0">dental-file</tspan></text>
  </g>
</svg>