<?xml version="1.0" encoding="utf-8"?>
<!-- Generator: Adobe Illustrator 26.3.1, SVG Export Plug-In . SVG Version: 6.00 Build 0)  -->
<svg version="1.1" id="Layer_1" xmlns="http://www.w3.org/2000/svg" xmlns:xlink="http://www.w3.org/1999/xlink" x="0px" y="0px"
	 viewBox="0 0 50 50" style="enable-background:new 0 0 50 50;" xml:space="preserve">
<g id="uuid-32c77dfb-d53b-4774-9504-7400071c5e7b">
	<path d="M24.8,31.5c-1.2,0-2.1,1-2.1,2.1s0.9,2.1,2.1,2.1s2.1-0.9,2.1-2.1S26,31.5,24.8,31.5z M24.8,34.8c-0.6,0-1.1-0.5-1.1-1.1
		s0.5-1.1,1.1-1.1s1.1,0.5,1.1,1.1S25.4,34.8,24.8,34.8z M25.5,26.3c-1,0-1.8,0.8-1.8,1.8s0.8,1.8,1.8,1.8s1.8-0.8,1.8-1.8
		S26.5,26.3,25.5,26.3z M25.5,28.9c-0.4,0-0.8-0.4-0.8-0.8s0.3-0.8,0.8-0.8s0.8,0.4,0.8,0.8S25.9,28.9,25.5,28.9z M25,22.1
		c-0.3,0-0.6-0.1-0.9-0.1l-11-0.1c-0.1,0-0.3,0-0.4,0.1c-0.1,0.1-0.1,0.2-0.1,0.4v22c0,0.3,0.2,0.5,0.5,0.5l17,0.1
		c0.1,0,0.3,0,0.4-0.2c0.1-0.1,0.1-0.2,0.1-0.3v-16C30.7,25.2,28.2,22.5,25,22.1z M29.7,44.1l-16-0.1v-21L24.2,23
		c1.5,0,2.9,0.6,3.9,1.6c1,1,1.6,2.4,1.6,3.9C29.7,28.5,29.7,44,29.7,44.1z M27.7,11.8V7.5c0-0.3-0.2-0.5-0.5-0.5h-1V1.5
		c0-0.3-0.2-0.5-0.5-0.5H15.2c-0.3,0-0.5,0.2-0.5,0.5V7h-1c-0.3,0-0.5,0.2-0.5,0.5v4.4c-2.6,0.9-4.6,3.3-4.6,6.3v27.3
		c0,2,1.6,3.5,3.5,3.5h25.6c2,0,3.5-1.6,3.5-3.5V27.3C41.4,19.3,35.4,12.7,27.7,11.8z M15.7,2h9.4V7h-9.4V2z M14.2,8h12.5v3.6H14.2
		C14.2,11.6,14.2,8,14.2,8z M40.3,45.5c0,1.4-1.1,2.5-2.5,2.5H12.2c-1.4,0-2.5-1.1-2.5-2.5V18.2c0-3.1,2.5-5.6,5.6-5.6h10.4
		c7.1,0,13.1,5.1,14.4,11.8c0.2,0.9,0.3,1.9,0.3,2.9V45.5z M19.4,33.1c1.5,0,2.7-1.2,2.7-2.7s-1.2-2.8-2.7-2.8s-2.7,1.2-2.7,2.8
		S17.9,33.1,19.4,33.1z M19.4,28.6c1,0,1.7,0.8,1.7,1.8s-0.8,1.7-1.7,1.7s-1.7-0.8-1.7-1.7S18.5,28.6,19.4,28.6z M18.9,34.8
		c-1.9,0-3.5,1.6-3.5,3.5s1.6,3.5,3.5,3.5s3.5-1.6,3.5-3.5S20.9,34.8,18.9,34.8z M18.9,40.8c-1.4,0-2.5-1.1-2.5-2.5s1.1-2.5,2.5-2.5
		s2.5,1.1,2.5,2.5S20.3,40.8,18.9,40.8z M25.6,15.4c-1.1,0-2,0.9-2,2c0,1,0.8,1.9,1.8,2c0.1,0,0.1,0,0.2,0c4.3,0,7.9,3.5,7.9,7.9
		c0,1.1,0.9,2,2,2s2-0.9,2-2c0-0.8-0.1-1.6-0.2-2.4C36.2,19.5,31.4,15.4,25.6,15.4z M35.5,28.3c-0.6,0-1-0.5-1-1
		c0-4.9-4-8.9-8.9-8.9c-0.6,0-1-0.5-1-1s0.5-1,1-1c6,0,10.9,4.9,10.9,10.9C36.5,27.9,36.1,28.3,35.5,28.3z"/>
</g>
</svg>
