<svg id="fb2b22ef-bec8-490b-a717-d3bd12c59c85" data-name="ICONS" xmlns="http://www.w3.org/2000/svg" viewBox="0 0 50 50"><path d="M35.54,16.08A17.55,17.55,0,0,0,28,17.87a.54.54,0,0,1-.21.05.49.49,0,0,1-.45-.29.48.48,0,0,1,.22-.66,18.49,18.49,0,0,1,8-1.89.51.51,0,0,1,.5.5.51.51,0,0,1-.5.5"/><path d="M35.54,19.08A17.55,17.55,0,0,0,28,20.87a.54.54,0,0,1-.21.05.5.5,0,0,1-.23-1,18.63,18.63,0,0,1,8-1.89.51.51,0,0,1,.5.5.51.51,0,0,1-.5.5"/><path d="M35.54,22.09A17.68,17.68,0,0,0,28,23.87a.41.41,0,0,1-.21.05.48.48,0,0,1-.45-.28.5.5,0,0,1,.22-.67,18.62,18.62,0,0,1,8-1.88.51.51,0,0,1,.5.5.51.51,0,0,1-.5.5"/><path d="M35.54,25.09A17.68,17.68,0,0,0,28,26.87a.41.41,0,0,1-.21.05.48.48,0,0,1-.45-.28.5.5,0,0,1,.22-.67,18.62,18.62,0,0,1,8-1.88.51.51,0,0,1,.5.5.51.51,0,0,1-.5.5"/><path d="M35.54,28.09A17.55,17.55,0,0,0,28,29.88a.54.54,0,0,1-.21.05.49.49,0,0,1-.45-.29.48.48,0,0,1,.22-.66,18.49,18.49,0,0,1,8-1.89.51.51,0,0,1,.5.5.51.51,0,0,1-.5.5"/><path d="M35.54,31.09A17.55,17.55,0,0,0,28,32.88a.54.54,0,0,1-.21,0,.5.5,0,0,1-.23-.95,18.63,18.63,0,0,1,8-1.89.51.51,0,0,1,.5.5.51.51,0,0,1-.5.5"/><path d="M25.52,44.72a1,1,0,1,1-1,1,1,1,0,0,1,1-1"/><path d="M25.52,2.74a.5.5,0,0,1,0,1,.5.5,0,0,1,0-1"/><path d="M15.49,15.08a18.48,18.48,0,0,1,8,1.89.49.49,0,0,1,.23.66.5.5,0,0,1-.45.29.59.59,0,0,1-.22-.05,17.51,17.51,0,0,0-7.53-1.79.5.5,0,0,1-.5-.5.51.51,0,0,1,.5-.5"/><path d="M23,29.88a17.55,17.55,0,0,0-7.54-1.79.5.5,0,0,1-.5-.5.51.51,0,0,1,.5-.5,18.48,18.48,0,0,1,8,1.89.49.49,0,0,1,.23.66.48.48,0,0,1-.45.29.58.58,0,0,1-.21-.05"/><path d="M23,32.88a17.55,17.55,0,0,0-7.54-1.79.5.5,0,0,1-.5-.5.51.51,0,0,1,.5-.5,18.62,18.62,0,0,1,8,1.89.5.5,0,0,1,.23.67.49.49,0,0,1-.45.28.58.58,0,0,1-.21,0"/><path d="M23,26.87a17.68,17.68,0,0,0-7.54-1.78.51.51,0,0,1-.5-.5.5.5,0,0,1,.5-.5,18.61,18.61,0,0,1,8,1.88.5.5,0,0,1,.23.67.47.47,0,0,1-.45.28.43.43,0,0,1-.21-.05"/><path d="M15.49,18.08a18.62,18.62,0,0,1,8,1.89.5.5,0,0,1,.23.67.51.51,0,0,1-.45.28.59.59,0,0,1-.22-.05,17.51,17.51,0,0,0-7.53-1.79.5.5,0,0,1-.5-.5.51.51,0,0,1,.5-.5"/><path d="M15.49,21.09a18.61,18.61,0,0,1,8,1.88.5.5,0,0,1,.23.67.49.49,0,0,1-.45.28.44.44,0,0,1-.22-.05,17.64,17.64,0,0,0-7.53-1.78.51.51,0,0,1-.5-.5.5.5,0,0,1,.5-.5"/><path d="M26,35.41A29.25,29.25,0,0,1,37.3,32.77V12.34A28.25,28.25,0,0,0,26,15.06ZM25,15.06a28.25,28.25,0,0,0-11.29-2.72V32.77A29.21,29.21,0,0,1,25,35.41ZM13.22,11.33a29.08,29.08,0,0,1,12.29,2.86A29.08,29.08,0,0,1,37.8,11.33a.47.47,0,0,1,.35.15.51.51,0,0,1,.15.35V33.27a.5.5,0,0,1-.5.5,28.13,28.13,0,0,0-12.07,2.86.51.51,0,0,1-.44,0,28.13,28.13,0,0,0-12.07-2.86.5.5,0,0,1-.5-.5V11.83a.51.51,0,0,1,.15-.35.47.47,0,0,1,.35-.15"/><path d="M10.1,4.94H40.93a.48.48,0,0,1,.46.48V43.08a.47.47,0,0,1-.46.47H10.1a.47.47,0,0,1-.47-.47V5.42a.48.48,0,0,1,.47-.48m.49,37.67H40.45V5.89H10.59V42.61Z"/><path d="M10.27,1.65A3.23,3.23,0,0,0,7,4.88V44.62a3.23,3.23,0,0,0,3.23,3.23h30.5A3.23,3.23,0,0,0,44,44.62V4.88a3.23,3.23,0,0,0-3.22-3.23H10.27ZM6,4.88A4.24,4.24,0,0,1,10.27.65h30.5A4.23,4.23,0,0,1,45,4.88V44.62a4.23,4.23,0,0,1-4.22,4.23H10.27A4.24,4.24,0,0,1,6,44.62Z"/></svg>