<svg xmlns="http://www.w3.org/2000/svg" viewBox="0 0 50 50"><g id="b057bf83-dc1a-4e18-b38e-19d645a5e27a" data-name="ICONS"><path d="M26.68,33.28a8.88,8.88,0,0,0-1.2-1.2c-.89-.73-1.12-.69-1.57-1.21A6.23,6.23,0,0,1,23,28.7c-.23-.7-.37-1.29-.46-1.69l-2.11-2.14c-4.5,4.39-9.1,8.74-13.72,13,.21.27.44.53.66.8L4.4,41.32c.2.25.41.49.62.73L2.7,44.35a23.44,23.44,0,0,0,2.45,2.91A24.2,24.2,0,0,0,8,49.74l2.35-2.27c.23.2.46.41.71.6l2.86-2.77c.21.18.42.37.64.54q2.88-3.06,5.84-6.15Q23.57,36.44,26.68,33.28Z" fill="#fdd600"/><path d="M47.66,10.63c.77-.77,1.53-1.55,2.29-2.33a23.4,23.4,0,0,0-2.44-2.9,24.38,24.38,0,0,0-2.88-2.49L42.33,5.2v0c-.26-.21-.5-.44-.76-.65L38.81,7.34v0l-.74-.59c-4.09,4.38-8.3,8.73-12.55,13L28,22.25a1.34,1.34,0,0,1,.65,0,1.44,1.44,0,0,1,.41.17c.69.41,1.68.4,2.42,1S32,24.84,33,25.68a3.58,3.58,0,0,0,.87.5q3-2.94,6.18-5.89,3-2.79,5.92-5.49c-.17-.22-.35-.43-.52-.66l2.77-2.8C48.06,11.1,47.86,10.87,47.66,10.63Z" fill="#fdd600"/><path d="M49.52,6.57A25,25,0,0,0,43.37.35a.5.5,0,0,0-.64.05l-2,2L40.35,2a.49.49,0,0,0-.66,0L37.2,4.52l-.39-.3a.52.52,0,0,0-.66.07C31.06,9.75,25.78,15.18,20.47,20.42S9.67,30.88,4.16,35.91a.49.49,0,0,0-.06.67l.29.36L1.88,39.42a.49.49,0,0,0,0,.66c.1.14.22.27.33.4l-2,2a.51.51,0,0,0-.06.64,26,26,0,0,0,2.81,3.38A24.46,24.46,0,0,0,6.28,49.3a.52.52,0,0,0,.29.09.5.5,0,0,0,.35-.14l2-2,.4.34a.45.45,0,0,0,.31.11A.5.5,0,0,0,10,47.6l2.51-2.48.36.3a.5.5,0,0,0,.31.1.48.48,0,0,0,.36-.16c4-4.31,8.16-8.59,12.33-12.79l.24.07,2.24,5.5a.5.5,0,0,0,.39.3h.08a.47.47,0,0,0,.38-.19l1.54-1.89,2.15.37a.49.49,0,0,0,.54-.68l-1.88-4.6c.08-.08.18-.13.25-.21s.14-.17.21-.25l4.59,1.94a.58.58,0,0,0,.19,0,.51.51,0,0,0,.31-.11.49.49,0,0,0,.18-.47l-.34-2.15,1.91-1.51a.51.51,0,0,0,.18-.46.5.5,0,0,0-.3-.4l-5.47-2.31c0-.07,0-.15-.07-.23,4.06-3.92,8.19-7.81,12.35-11.59a.52.52,0,0,0,.07-.66c-.09-.13-.2-.25-.3-.39l2.5-2.47a.5.5,0,0,0,0-.66c-.11-.14-.23-.27-.34-.4l2-2A.5.5,0,0,0,49.52,6.57ZM23.36,19,26,21.68a5.63,5.63,0,0,0-3.71,3.7l-2.65-2.67ZM6.52,48.24A24,24,0,0,1,1.2,42.85l1.61-1.59c.81,1,1.64,1.92,2.53,2.82s1.83,1.75,2.79,2.57Zm3.06-1.67a41.13,41.13,0,0,1-3.53-3.19A46.06,46.06,0,0,1,2.9,39.82L5,37.72a46.55,46.55,0,0,0,3.15,3.56,46.71,46.71,0,0,0,3.53,3.2Zm3.5-2.23a46.77,46.77,0,0,1-4.2-3.76,48.31,48.31,0,0,1-3.71-4.24c4.62-4.22,9.22-8.58,13.72-13L22,26.55a5.22,5.22,0,0,0,1.6,4.65,5.41,5.41,0,0,0,1.23.92C20.88,36.14,16.93,40.23,13.08,44.34Zm19.05-8.73-1.54-.27a.51.51,0,0,0-.48.18L28.92,37l-1.68-4.11c.15,0,.3,0,.45,0h0a5.63,5.63,0,0,0,3-.84Zm-1.07-5.07a5,5,0,0,1-3.37,1.37,4.75,4.75,0,0,1,0-9.5h0a4.75,4.75,0,0,1,3.31,8.13Zm2.41-3.34c0-.16,0-.3,0-.45l4.09,1.73-1.47,1.17a.52.52,0,0,0-.19.47l.25,1.55L32.6,30.18A5.66,5.66,0,0,0,33.47,27.2Zm-.75-2.83a5.56,5.56,0,0,0-.91-1.25,5.73,5.73,0,0,0-4-1.71,6.08,6.08,0,0,0-.61,0L24,18.28c4.25-4.25,8.46-8.61,12.55-13a35.55,35.55,0,0,1,7.92,8C40.53,16.92,36.59,20.63,32.72,24.37ZM44.66,11.9a36.88,36.88,0,0,0-3.09-3.62A38.25,38.25,0,0,0,38,5.12l2.07-2A44.41,44.41,0,0,1,43.6,6.27a42.75,42.75,0,0,1,3.15,3.57Zm2.18-3.51c-.8-1-1.64-1.92-2.53-2.82S42.49,3.83,41.52,3l1.61-1.6A24.38,24.38,0,0,1,46,3.9a23.4,23.4,0,0,1,2.44,2.9Z" fill="#231f20"/></g><g id="a1a14eed-4389-4609-b017-fd12a94f4ac7" data-name="LABELS"><text transform="translate(0.56 54.9)" font-size="6" fill="#231f20" font-family="Roboto-Regular, Roboto">diploma</text></g></svg>