<svg id="ab948bdf-2798-48c9-b96a-2045c955d879" data-name="ICONS" xmlns="http://www.w3.org/2000/svg" viewBox="0 0 50 50"><path d="M26.25,3.71A22.54,22.54,0,1,0,48.79,26.25,22.56,22.56,0,0,0,26.25,3.71Zm.94,14.12a2,2,0,1,1,4,0v.32l-4,4ZM9.53,24.63a1.56,1.56,0,0,1,.09-1.91,1.59,1.59,0,0,1,1.9-.37,7.65,7.65,0,0,1,2.84,1.87,8.23,8.23,0,0,1,1.52,2.37c.12.29.21.54.27.72a.49.49,0,0,0,.55.33.5.5,0,0,0,.42-.49V8.9a2,2,0,0,1,4,0V23.21a.51.51,0,0,0,.5.5.5.5,0,0,0,.5-.5V16a2,2,0,0,1,4,0v7.21L15.6,33.77Zm26.72,1.5a23.59,23.59,0,0,1-1.37,7.42,22.5,22.5,0,0,1-2,4.18.59.59,0,0,0-.07.29l0,4.59H19.35v-3a.57.57,0,0,0-.08-.28l-3.11-4.66L31.22,19.56v3.78a.5.5,0,0,0,.5.5.51.51,0,0,0,.5-.5v-3.4a2,2,0,0,1,4,0Z" fill="#fdd600"/><path d="M41.72,8.46a.21.21,0,0,0,0-.06l0,0A23.53,23.53,0,1,0,8.36,41.63s0,0,0,0,0,0,.06,0A23.52,23.52,0,0,0,41.72,8.46ZM2.21,24.75a22.54,22.54,0,0,1,38.41-16l-8.47,8.47a3,3,0,0,0-5-1.62,3,3,0,0,0-5-1.87V8.9a3,3,0,0,0-6,0v16a8.66,8.66,0,0,0-1-1.35,8.52,8.52,0,0,0-3.18-2.11A2.56,2.56,0,0,0,8.7,25.19l6.18,9.3L8.75,40.62A22.5,22.5,0,0,1,2.21,24.75ZM32.86,42.61H19.35v-3a.57.57,0,0,0-.08-.28l-3.11-4.66L31.22,19.56v3.78a.5.5,0,0,0,.5.5.51.51,0,0,0,.5-.5v-3.4a2,2,0,0,1,4,0v6.18a23.59,23.59,0,0,1-1.37,7.42,22.5,22.5,0,0,1-2,4.18.59.59,0,0,0-.07.29ZM31.22,18.15l-4,4V17.83a2,2,0,1,1,4,0Zm-5-.32v5.35L15.6,33.77,9.53,24.63a1.56,1.56,0,0,1,.09-1.91,1.59,1.59,0,0,1,1.9-.37,7.65,7.65,0,0,1,2.84,1.87,8.23,8.23,0,0,1,1.52,2.37c.12.29.21.54.27.72a.49.49,0,0,0,.55.33.5.5,0,0,0,.42-.49V8.9a2,2,0,0,1,4,0V23.21a.51.51,0,0,0,.5.5.5.5,0,0,0,.5-.5V16a2,2,0,0,1,4,0ZM24.75,47.29a22.47,22.47,0,0,1-15.28-6l6-6,2.91,4.37v3.4a.5.5,0,0,0,.5.5H33.36a.5.5,0,0,0,.5-.5l0-5a23.75,23.75,0,0,0,2-4.24,24.38,24.38,0,0,0,1.43-7.74V20a3,3,0,0,0-3-3,3,3,0,0,0-.42,0l7.5-7.5A22.53,22.53,0,0,1,24.75,47.29Z" fill="#231f20"/></svg>