<svg id="ee59085e-b7c0-416a-86e7-fff89d24dbb6" data-name="ICONS" xmlns="http://www.w3.org/2000/svg" viewBox="0 0 50 50"><path d="M44.14.53H11.57a.5.5,0,0,0-.5.5V2.7H8.74a.5.5,0,0,0-.5.5V4.65H5.86a.5.5,0,0,0-.5.5V48.47a.51.51,0,0,0,.5.5H38.43a.5.5,0,0,0,.5-.5V47h2.38a.5.5,0,0,0,.5-.5V44.85h2.33a.5.5,0,0,0,.5-.5V1A.51.51,0,0,0,44.14.53ZM37.93,48H6.36V5.65H25.59V17.49a.5.5,0,0,0,.5.5H37.93ZM26.59,17V6.36L37.22,17ZM40.81,46H38.93V17.49s0,0,0-.06,0,0,0-.07a.5.5,0,0,0-.13-.22L26.44,4.8a.48.48,0,0,0-.23-.13h-17v-1H40.81Zm2.83-2.17H41.81V3.2a.5.5,0,0,0-.5-.5H12.07V1.53H43.64Z"/></svg>