<svg xmlns="http://www.w3.org/2000/svg" viewBox="0 0 50 50"><g id="a54376a7-e2ff-409b-8caa-10f97371ae44" data-name="ICONS"><path d="M11.56,24.62a.09.09,0,0,0-.1-.09.09.09,0,0,0-.09.09C11.37,24.73,11.56,24.73,11.56,24.62Z" fill="#231f20"/><path d="M25,23.85c-1-.28-1.33-.43-1.33-1s.31-.77.93-.77a1.1,1.1,0,0,1,.75.23.94.94,0,0,1,.32.67H27a2,2,0,0,0-2-2v-.92h-.71v.91a2,2,0,0,0-2.05,2c0,1,.55,1.58,2.16,2,1,.28,1.38.54,1.38,1.17s-.27.83-1.06.83a1.15,1.15,0,0,1-1.25-1h-1.4a2.19,2.19,0,0,0,2.22,2.12v.91H25v-.91c1.56-.12,2.22-1,2.22-2.08S26.74,24.37,25,23.85Z" fill="#fdd600"/><path d="M3.36,16V36.72h46V16ZM24.62,31.25a6.63,6.63,0,1,1,6.63-6.63A6.63,6.63,0,0,1,24.62,31.25Z" fill="#fdd600"/><path d="M48.14,13.28h-47a.5.5,0,0,0-.5.5V35.47a.5.5,0,0,0,.5.5h47a.5.5,0,0,0,.5-.5V13.78A.5.5,0,0,0,48.14,13.28ZM47.64,35h-46V14.28h46Z" fill="#231f20"/><path d="M4.51,28.74a3,3,0,0,1,2.9,3,.5.5,0,0,0,.5.5H41.45a.5.5,0,0,0,.5-.5,2.94,2.94,0,0,1,2.81-3,.5.5,0,0,0,.48-.5V21a.5.5,0,0,0-.5-.5,3,3,0,0,1-2.9-3,.5.5,0,0,0-.5-.5H7.91a.5.5,0,0,0-.5.5,3,3,0,0,1-2.9,3A.5.5,0,0,0,4,21v7.23A.5.5,0,0,0,4.51,28.74ZM40.87,18a4,4,0,0,0,3.37,3.48V27.8A3.93,3.93,0,0,0,41,31.25H28.39a7.62,7.62,0,0,0,0-13.25ZM24.62,31.25a6.63,6.63,0,1,1,6.63-6.63A6.63,6.63,0,0,1,24.62,31.25ZM5,21.48A4,4,0,0,0,8.38,18H20.86a7.62,7.62,0,0,0,0,13.25H8.38A4,4,0,0,0,5,27.77Z" fill="#231f20"/><path d="M37.79,23.53a1.1,1.1,0,1,0,1.09,1.09A1.09,1.09,0,0,0,37.79,23.53Z" fill="#231f20"/><path d="M25,23.85c-1-.28-1.33-.43-1.33-1s.31-.77.93-.77a1.1,1.1,0,0,1,.75.23.94.94,0,0,1,.32.67H27a2,2,0,0,0-2-2v-.92h-.71v.91a2,2,0,0,0-2.05,2c0,1,.55,1.58,2.16,2,1,.28,1.38.54,1.38,1.17s-.27.83-1.06.83a1.15,1.15,0,0,1-1.25-1h-1.4a2.19,2.19,0,0,0,2.22,2.12v.91H25v-.91c1.56-.12,2.22-1,2.22-2.08S26.74,24.37,25,23.85Z" fill="#231f20"/><path d="M11.46,23.53a1.1,1.1,0,1,0,1.1,1.09A1.09,1.09,0,0,0,11.46,23.53Z" fill="#231f20"/></g><g id="bac0073c-edd2-40e6-b708-7b4e036fe80c" data-name="LABELS"><text transform="translate(0.22 55.09)" font-size="6" fill="#231f20" font-family="Roboto-Regular, Roboto">dollar-bill</text></g></svg>