<svg xmlns="http://www.w3.org/2000/svg" viewBox="0 0 50 50"><g id="bf48de41-b269-46ee-a830-f0ebbe66f161" data-name="ICONS"><path d="M43.42,49.12,38,36.55h4.35a.5.5,0,0,0,.5-.5.5.5,0,0,0-.5-.5H37.59L27.8,12.74a3.85,3.85,0,0,0-2.3-6.48V.68a.5.5,0,1,0-1,0V6.26a3.84,3.84,0,0,0-2.39,6.37L12.28,35.55H7.63a.5.5,0,0,0-.5.5.5.5,0,0,0,.5.5h4.22L6.58,48.81a.5.5,0,0,0,.27.65.43.43,0,0,0,.19,0,.49.49,0,0,0,.46-.3l5.43-12.65H24.5v6.27a.5.5,0,0,0,1,0V36.55H36.93l5.57,13a.5.5,0,0,0,.46.31.65.65,0,0,0,.19,0A.51.51,0,0,0,43.42,49.12ZM25,7.21a2.87,2.87,0,1,1-2.87,2.87A2.88,2.88,0,0,1,25,7.21ZM13.36,35.55l9.55-22.23A3.84,3.84,0,0,0,25,14a3.88,3.88,0,0,0,2-.57L36.5,35.55Z"/></g><g id="eb9b2125-9356-439c-817e-bacca0575503" data-name="LABELS"><text transform="translate(-0.1 54.84)" font-size="6" font-family="Roboto-Regular, Roboto">easel</text></g></svg>