<svg xmlns="http://www.w3.org/2000/svg" viewBox="0 0 50 50"><g id="b12f8bd9-e6f3-4fd7-9baf-2cc229c2639a" data-name="ICONS"><path d="M46.63,22.4l-13.77,0-17,.09h0a.55.55,0,0,1-.34-.13L6.26,14a1.89,1.89,0,0,0-2.47,2.86L13,25.66v1.23H6.28a2.48,2.48,0,0,0,0,5l40.35,0a2.53,2.53,0,0,0,2.53-2.53V24.93A2.53,2.53,0,0,0,46.63,22.4Z" fill="#fdd600"/><path d="M44.88,19.65H34.36l-3.26,0-14,.07c.9-2-.31-4.66-3.23-7s-6.51-2.67-8.28-.9l-.43-.4a2.9,2.9,0,0,0-2.1-.7,2.87,2.87,0,0,0-2,1,2.83,2.83,0,0,0-.7,2.1,2.88,2.88,0,0,0,1,2l8.71,8.33H4.53a3.48,3.48,0,0,0,0,7H8.44v7.7a.5.5,0,0,0,1,0v-7.7l33.29,0,0,7.71a.5.5,0,0,0,.5.5h0a.5.5,0,0,0,.5-.51l0-7.7h1.15a3.54,3.54,0,0,0,3.53-3.53V23.18A3.54,3.54,0,0,0,44.88,19.65ZM13.27,13.54c2.31,1.84,4,4.46,2.69,6.21H14.31l-8-7.23C7.77,11.15,10.77,11.55,13.27,13.54Zm34.14,14a2.53,2.53,0,0,1-2.53,2.53l-40.35,0a2.48,2.48,0,0,1,0-5H43.31a.51.51,0,0,0,.5-.5.5.5,0,0,0-.5-.5H11.51L2,15.07a1.88,1.88,0,0,1,1.11-3.31,1.86,1.86,0,0,1,1.36.45l9.27,8.42a.55.55,0,0,0,.34.13h0l17-.09,13.77,0a2.53,2.53,0,0,1,2.53,2.53Z" fill="#231f20"/></g><g id="b42a6062-c220-42bc-acd0-e64df4b2d24c" data-name="LABELS"><text transform="translate(0.44 55.09)" font-size="6" fill="#231f20" font-family="Roboto-Regular, Roboto">exam-bed-table</text></g></svg>