<svg xmlns="http://www.w3.org/2000/svg" viewBox="0 0 50 50"><g id="fcdc47ba-4777-40dc-b72c-fac6b00e8b69" data-name="ICONS"><path d="M26.25,2.64A23.61,23.61,0,1,0,49.86,26.25,23.63,23.63,0,0,0,26.25,2.64ZM39.82,28a14.4,14.4,0,0,1-.23,1.48s0,.07,0,.13c-.2.93-2.16,5.06-2.26,5.28a30.78,30.78,0,0,0-4.08.13,30.22,30.22,0,0,0-3.86.63l-1,.24A31.69,31.69,0,0,0,24,37.37a31.37,31.37,0,0,0-5.23,2.88,1.35,1.35,0,0,1-.32-.3,1.09,1.09,0,0,1-.15-.18,4.71,4.71,0,0,1-.49-.21,4.76,4.76,0,0,1-1.36-1.2,20.74,20.74,0,0,1-4.7-6.42A7.17,7.17,0,0,1,11,29.35a15,15,0,0,1-.32-2.43H38.89c0,.16,0,.33,0,.5h1C39.86,27.54,39.84,27.73,39.82,28Z" fill="#fdd600"/><path d="M11.1,18.15a.5.5,0,0,0,.5-.5h0a5.37,5.37,0,0,1,1.63-3.86,5.32,5.32,0,0,1,3.82-1.54,5.4,5.4,0,0,1,5.26,5.4h0a.5.5,0,0,0,.5.5.51.51,0,0,0,.5-.5,6.36,6.36,0,1,0-12.71,0A.51.51,0,0,0,11.1,18.15Z" fill="#231f20"/><path d="M27,18.15a.51.51,0,0,0,.5-.5h0a5.35,5.35,0,1,1,10.7,0h0a.5.5,0,0,0,1,0,6.35,6.35,0,1,0-12.7,0A.5.5,0,0,0,27,18.15Z" fill="#231f20"/><path d="M24.75.14A24.61,24.61,0,1,0,49.36,24.75,24.64,24.64,0,0,0,24.75.14Zm0,48.22A23.61,23.61,0,1,1,48.36,24.75,23.63,23.63,0,0,1,24.75,48.36Z" fill="#231f20"/><path d="M39.4,25.92H10.21a.5.5,0,0,0-.5.5A15.06,15.06,0,0,0,16.45,39a.1.1,0,0,0,.05,0,15.06,15.06,0,0,0,21.74-5.75.31.31,0,0,0,0-.1,15,15,0,0,0,1.61-6.74A.5.5,0,0,0,39.4,25.92ZM24.81,40.51a14,14,0,0,1-7.17-2,30.41,30.41,0,0,1,9.23-4.17l.9,1.81a.5.5,0,0,0,.45.27.44.44,0,0,0,.22,0,.5.5,0,0,0,.23-.67l-.81-1.6A30.4,30.4,0,0,1,37,33.43,14.09,14.09,0,0,1,24.81,40.51Zm12.72-8a31.75,31.75,0,0,0-20.81,5.48,14.08,14.08,0,0,1-6-11H38.89A14.08,14.08,0,0,1,37.53,32.46Z" fill="#231f20"/><path d="M37.53,32.46a31.75,31.75,0,0,0-20.81,5.48A14.13,14.13,0,0,1,11,29.35a7.17,7.17,0,0,0,.72,2.59,20.74,20.74,0,0,0,4.7,6.42,4.76,4.76,0,0,0,1.36,1.2,4.71,4.71,0,0,0,.49.21,1.09,1.09,0,0,0,.15.18,1.35,1.35,0,0,0,.32.3A31.37,31.37,0,0,1,24,37.37a31.69,31.69,0,0,1,4.36-1.51l1-.24A30.22,30.22,0,0,1,33.22,35a30.78,30.78,0,0,1,4.08-.13c.1-.22,2.06-4.35,2.26-5.28,0-.06,0-.13,0-.13A14.4,14.4,0,0,0,39.82,28c0-.24,0-.43,0-.55h-1A14,14,0,0,1,37.53,32.46Z" fill="none"/></g><g id="f4699cb9-f1ad-4456-b4ba-e386ccaabd7e" data-name="LABELS"><text transform="translate(0.03 54.86)" font-size="6" fill="#231f20" font-family="Roboto-Regular, Roboto">e<tspan x="3.18" y="0" letter-spacing="-0.01em">x</tspan><tspan x="6.09" y="0">cited</tspan></text></g></svg>