<svg xmlns="http://www.w3.org/2000/svg" viewBox="0 0 50 50"><g id="b588a903-f243-4c96-bd88-13582f8fd7c4" data-name="ICONS"><path d="M29.83,41.62v0h.07Z" fill="#231f20"/><path d="M45.79,16.7h-.32L29,16.66v0H25.5A1.49,1.49,0,0,0,24,18.19v1h0v.5H6.23v3.47H24v.5h0V45.84a1.63,1.63,0,0,0,.06.45,2,2,0,0,0,.38.62,2.47,2.47,0,0,0,1.56.61c1,.13,1.93.23,2.89.32h0c.86.09,1.75.15,2.67.2h0c.28,0,.56,0,.84,0l.77,0h1.62c.82,0,1.62,0,2.39,0a65.43,65.43,0,0,0,9.06-.91h0a1.18,1.18,0,0,0,.85-.54,1,1,0,0,0,.11-.49V44.54l0-26.35A1.49,1.49,0,0,0,45.79,16.7Z" fill="#fdd600"/><path d="M44,14H42.15a7.47,7.47,0,0,0-.52-1.77C38.61,5.33,29.11-.58,19.05,1.83,9.37,4.15,6.58,10.78,5.9,17H4a.5.5,0,0,0-.5.5v4.47a.5.5,0,0,0,.5.5H5.75a18.92,18.92,0,0,0,2.53,8.3,25,25,0,0,1,2.58,7c1.11,5.73-.55,8.34-1.35,9.59a5.66,5.66,0,0,0-.37.64.5.5,0,0,0,.26.66.48.48,0,0,0,.2,0,.5.5,0,0,0,.46-.3l.11-.21.18-.29c.87-1.36,2.67-4.2,1.5-10.32a25.67,25.67,0,0,0-2.68-7.26,18.36,18.36,0,0,1-2.42-7.85H21.27V44.09a2.35,2.35,0,0,0,.11.75h0a2.89,2.89,0,0,0,.6,1,3.36,3.36,0,0,0,2.21.92c1.54.21,3.09.38,4.64.48v.52a.48.48,0,0,0,.49.48.5.5,0,0,0,.5-.5v-.45c1.21.07,2.41.11,3.61.11q1,0,2,0a65.92,65.92,0,0,0,9.19-.92,2.16,2.16,0,0,0,1.61-1.07,1.84,1.84,0,0,0,.21-1l0-28A2.49,2.49,0,0,0,44,14Zm0,1a1.49,1.49,0,0,1,1.48,1.49l0,26.35c-.84-.2-1.67-.4-2.51-.55a47.24,47.24,0,0,0-5.16-.65c.11-.31.22-.64.33-1,.49-1.59,1.22-3.93,2.27-7.24l3.91-2a.5.5,0,0,0,.25-.3.51.51,0,0,0,0-.38c0-.06-3.08-5.64-3.08-7.91a17.28,17.28,0,0,1,.34-2.65A21.61,21.61,0,0,0,42.27,15ZM29.83,41.62l.07,0h-.07ZM4.48,21.42V18H21.27v3.47Zm16.79-5V17H6.9c.66-6,3.35-12,12.38-14.15,6.49-1.55,17.55,1,21.44,9.79A6.9,6.9,0,0,1,41.13,14H23.75A2.49,2.49,0,0,0,21.27,16.44Zm3,29.33a2.47,2.47,0,0,1-1.56-.61,2,2,0,0,1-.38-.62,1.63,1.63,0,0,1-.06-.45V21.92h0V17.45h0v-1A1.49,1.49,0,0,1,23.75,15H41.26a20.44,20.44,0,0,1-.43,4.94,17.8,17.8,0,0,0-.36,2.82c0,2.15,2.21,6.52,3,7.94l-3.65,1.89a.53.53,0,0,0-.24.29c-1.09,3.42-1.83,5.82-2.34,7.47-.36,1.16-.54,1.69-1,2-1.71,1.19-5.46-1.27-6.57-2a.51.51,0,0,0-.52,0,.52.52,0,0,0-.27.45v5.55C27.31,46.12,25.79,46,24.27,45.77Zm21.12-.85a1.18,1.18,0,0,1-.85.54h0a65.43,65.43,0,0,1-9.06.91c-1.87.06-3.74,0-5.62-.07V42.67c.55-.05,1.09-.07,1.64-.1,1.81.93,3.89,1.54,5.29.57a2.29,2.29,0,0,0,.56-.56,45.28,45.28,0,0,1,5.48.64c.91.17,1.81.37,2.7.59v.62A1,1,0,0,1,45.39,44.92Z" fill="#231f20"/></g><g id="a51c83a0-3a5c-436c-a176-50ad2a21230c" data-name="LABELS"><text transform="translate(-0.25 54.99)" font-size="6" fill="#231f20" font-family="Roboto-Regular, Roboto">face-shield</text></g></svg>