<svg id="b123b3a7-e045-44cf-a920-6892fe0edf22" data-name="ICONS" xmlns="http://www.w3.org/2000/svg" viewBox="0 0 50 50"><path d="M21.9,5.81a2,2,0,0,1-.77,1.69.5.5,0,0,0,.35.85.54.54,0,0,0,.36-.14,2.9,2.9,0,0,0,1-2.6,3.52,3.52,0,0,0-1.11-1.73A2.09,2.09,0,0,1,21,2.64a1.85,1.85,0,0,1,.82-1.4.5.5,0,0,0-.65-.75A2.75,2.75,0,0,0,20,2.69a2.93,2.93,0,0,0,1.07,1.89A2.65,2.65,0,0,1,21.9,5.81Z"/><path d="M26.45,6.78a2,2,0,0,1-.77,1.69.48.48,0,0,0,0,.7.47.47,0,0,0,.35.15.49.49,0,0,0,.35-.15,2.86,2.86,0,0,0,1.05-2.59,3.47,3.47,0,0,0-1.11-1.73,2.16,2.16,0,0,1-.79-1.24,1.88,1.88,0,0,1,.83-1.4.49.49,0,0,0,.05-.7.51.51,0,0,0-.71-.05,2.81,2.81,0,0,0-1.17,2.2,2.94,2.94,0,0,0,1.08,1.89A2.72,2.72,0,0,1,26.45,6.78Z"/><path d="M17.35,6.78a2,2,0,0,1-.77,1.69.5.5,0,0,0,0,.7.51.51,0,0,0,.36.15.5.5,0,0,0,.35-.15,2.87,2.87,0,0,0,1-2.59,3.53,3.53,0,0,0-1.1-1.73c-.41-.42-.77-.78-.79-1.24a1.86,1.86,0,0,1,.82-1.4.5.5,0,1,0-.65-.75,2.78,2.78,0,0,0-1.17,2.2,2.93,2.93,0,0,0,1.07,1.89A2.57,2.57,0,0,1,17.35,6.78Z"/><path d="M43.38,28.9,43.33,6.78a3.18,3.18,0,1,0-6.35,0v21.9a6.17,6.17,0,0,0-3.19,5,11.09,11.09,0,0,1,1,.65s0-.1,0-.16a5.18,5.18,0,0,1,2.94-4.7A.5.5,0,0,0,38,29V6.78a2.26,2.26,0,0,1,2.21-2.4,2.21,2.21,0,0,1,2.14,2.4V8.19H41.8a.5.5,0,0,0-.5.5.5.5,0,0,0,.5.5h.54v1.47h-.51a.5.5,0,0,0-.5.5.5.5,0,0,0,.5.5h.51v1.39h-.58a.5.5,0,0,0,0,1h.58l0,15.13a.5.5,0,0,0,.25.43A5.23,5.23,0,0,1,40,39.36a5.12,5.12,0,0,1-1.57-.27,11.77,11.77,0,0,1,.36,1.15,6,6,0,0,0,1.21.12A6.23,6.23,0,0,0,43.38,28.9Z"/><path d="M40.16,37.46A3.23,3.23,0,0,0,40.63,31V10.83a.5.5,0,0,0-.5-.5.5.5,0,0,0-.5.5V31a3.23,3.23,0,0,0,.53,6.42Zm0-5.47a2.24,2.24,0,1,1-2.24,2.24A2.24,2.24,0,0,1,40.16,32Z"/><path d="M14.54,28.14A10.72,10.72,0,1,0,10.74,20,10.74,10.74,0,0,0,14.54,28.14Zm6.91-17.9A9.71,9.71,0,1,1,11.74,20,9.73,9.73,0,0,1,21.45,10.24Z"/><path d="M38.43,39.09a10.79,10.79,0,0,0-3.65-4.8,11.09,11.09,0,0,0-1-.65,10.73,10.73,0,0,0-4.88-1.44H14A10.72,10.72,0,0,0,3.77,42.9v5.49a.5.5,0,0,0,.5.5h27a.51.51,0,0,1-.5-.5v-.5H12.09V48a.5.5,0,0,1-.5.5.5.5,0,0,1-.5-.5v-.08H4.77v-5A9.71,9.71,0,0,1,14,33.2h14.9a9.72,9.72,0,0,1,9.25,9.7v5H31.81v.5a.5.5,0,0,1-.5.5h7.33a.51.51,0,0,0,.5-.5V42.9a10.6,10.6,0,0,0-.35-2.66A11.77,11.77,0,0,0,38.43,39.09Z"/><path d="M11.59,42.85a.5.5,0,0,0-.5.5V48a.5.5,0,0,0,.5.5.5.5,0,0,0,.5-.5V43.35A.5.5,0,0,0,11.59,42.85Z"/><path d="M31.81,48.39V42.93a.5.5,0,0,0-.5-.5.51.51,0,0,0-.5.5v5.46a.51.51,0,0,0,.5.5A.5.5,0,0,0,31.81,48.39Z"/></svg>