<svg xmlns="http://www.w3.org/2000/svg" viewBox="0 0 50 50"><g id="ee7ae898-b8f7-4a1a-a95d-6a090a58876b" data-name="ICONS"><path d="M20.05,13.75l-.93,2.48a.5.5,0,0,1-.47.33H3.3V44.75H36.62a3.94,3.94,0,0,0,3.37,2h0a3.9,3.9,0,0,0,2.85-1.33,3.6,3.6,0,0,0,.49-.67H49.2v-31Z" fill="#fdd600"/><path d="M48.2,6.06H18.55l-.93-2.48a.5.5,0,0,0-.47-.33H1.3a.5.5,0,0,0-.5.5v40a.5.5,0,0,0,.5.5H34.59a4.94,4.94,0,0,0,3.9,2h0a4.94,4.94,0,0,0,3.6-1.66c.09-.1.18-.22.27-.33H48.2a.5.5,0,0,0,.5-.5V6.56A.5.5,0,0,0,48.2,6.06ZM43.43,40.67V30.61a.51.51,0,0,0-.5-.5.5.5,0,0,0-.5.5V40.72a4.19,4.19,0,0,1-1.07,3.2,3.9,3.9,0,0,1-2.85,1.33h0a4.08,4.08,0,0,1-4-4V25.55a2.53,2.53,0,0,1,.8-1.88A2.44,2.44,0,0,1,37.14,23a2.55,2.55,0,0,1,2.36,2.59V40.44a1.2,1.2,0,0,1-.35.9,1,1,0,0,1-.81.33,1.17,1.17,0,0,1-1.07-1.19l0-10a.5.5,0,0,0-.5-.5h0a.5.5,0,0,0-.5.5l0,10a2.15,2.15,0,0,0,2,2.2A2.06,2.06,0,0,0,39.86,42a2.21,2.21,0,0,0,.64-1.62V25.58a3.49,3.49,0,1,0-7,0V41.28a5.27,5.27,0,0,0,.46,2H1.8V15.06H17.15a.5.5,0,0,0,.47-.33l.93-2.48H47.7v31H43A5.16,5.16,0,0,0,43.43,40.67ZM18.2,7.06H47.7v4.19H18.2a.51.51,0,0,0-.47.33l-.93,2.48H1.8V4.25h15l.93,2.49A.51.51,0,0,0,18.2,7.06Z" fill="#231f20"/></g><g id="a24d04f5-26cf-4743-81af-6e8d1ec35b33" data-name="LABELS"><text transform="translate(-0.28 55.01)" font-size="6" fill="#231f20" font-family="Roboto-Regular, Roboto">file</text></g></svg>