<svg xmlns="http://www.w3.org/2000/svg" viewBox="0 0 50 50"><g id="bae9be06-d921-4851-a7ba-b3fa6530fba7" data-name="ICONS"><path d="M35.25,40.83a2.62,2.62,0,0,0-2.61-2.62.47.47,0,0,1-.47-.47h0a.47.47,0,0,1,.47-.46h2.6a2.62,2.62,0,0,0,0-5.24.47.47,0,1,1,0-.93h2.27a2.59,2.59,0,0,0,2.56-1.26,2.64,2.64,0,0,0-.32-2.92,2.94,2.94,0,0,0-1.74-1,.48.48,0,0,1-.39-.5.46.46,0,0,1,.47-.42l8.08-.08a2.62,2.62,0,1,0,0-5.23H23.81a.47.47,0,0,1-.15-.91,9.37,9.37,0,0,0,.89-.34,9.88,9.88,0,0,0,2.95-1.89A9.39,9.39,0,0,0,29.83,13a2.1,2.1,0,0,0-.5-2.49,2.06,2.06,0,0,0-2.51-.13l-18,11.94a.5.5,0,0,1-.26.08H4.71V39.28l5.79,0a.46.46,0,0,1,.26.07,29,29,0,0,0,14.3,4.12h7.57A2.61,2.61,0,0,0,35.25,40.83Z" fill="#fdd600"/><path d="M44,39a2.35,2.35,0,1,0,4.7,0c0-.91-1.32-3.58-2.39-5.49C45.26,35.44,44,38.1,44,39Z" fill="#fdd600"/><path d="M44.53,30.26a.51.51,0,0,0-.43.26c-.29.51-2.87,5.1-2.87,6.75a3.35,3.35,0,1,0,6.7,0c0-1.66-2.66-6.24-3-6.76A.45.45,0,0,0,44.53,30.26Zm0,9.36a2.35,2.35,0,0,1-2.35-2.35c0-.92,1.28-3.58,2.31-5.49,1.07,1.91,2.39,4.58,2.39,5.49A2.35,2.35,0,0,1,44.58,39.62Z" fill="#231f20"/><path d="M44.37,24.16a3.58,3.58,0,0,0,0-7.15H24.42a10.61,10.61,0,0,0,2-1.46A10.15,10.15,0,0,0,29,11.7a3,3,0,0,0-.76-3.59,3,3,0,0,0-3.67-.19L6.75,19.73H2.55a.51.51,0,0,0-.5.5V38a.5.5,0,0,0,.5.5l6.13,0a30.67,30.67,0,0,0,5.19,2.44,30.13,30.13,0,0,0,9.43,1.73h7.57a3.57,3.57,0,0,0,2.47-6.15h.12a3.57,3.57,0,0,0,2.47-6.15,3.58,3.58,0,0,0,2.27-6.15Zm-8.64,5.15h-9a.5.5,0,0,0-.5.5.5.5,0,0,0,.5.5h6.73a2.58,2.58,0,1,1,0,5.15H26.73a.5.5,0,0,0-.5.5.5.5,0,0,0,.5.5h4.14a2.58,2.58,0,0,1,0,5.15H23.32a29,29,0,0,1-9.11-1.67,29.8,29.8,0,0,1-5.14-2.43.44.44,0,0,0-.25-.08h0l-5.76,0V20.73H6.9a.5.5,0,0,0,.27-.08L25.09,8.75a2,2,0,0,1,2.46.12A2,2,0,0,1,28,11.31a9.41,9.41,0,0,1-2.32,3.52,10,10,0,0,1-2.93,1.87c-.35.15-.66.26-.88.34a.5.5,0,0,0,.16,1h22.3a2.58,2.58,0,0,1,0,5.15H26.89a.5.5,0,0,0,0,1h8.84a2.58,2.58,0,0,1,0,5.15Z" fill="#231f20"/></g><g id="b19271b4-cd26-4732-93fb-bb1d63f6ccf4" data-name="LABELS"><text transform="translate(0.23 54.89)" font-size="6" fill="#231f20" font-family="Roboto-Regular, Roboto">finger-blood</text></g></svg>