<svg xmlns="http://www.w3.org/2000/svg" viewBox="0 0 50 50"><g id="a532db45-98c3-4a14-85ee-1e389382eae5" data-name="ICONS"><path d="M38.82,22.49a2.31,2.31,0,0,0-2.3,2.31.42.42,0,0,1-.41.41h0a.41.41,0,0,1-.41-.42V22.51a2.31,2.31,0,1,0-4.61,0,.41.41,0,1,1-.82,0v-2a2.29,2.29,0,0,0-1.11-2.26,2.31,2.31,0,0,0-2.56.28,2.56,2.56,0,0,0-.88,1.53.42.42,0,0,1-.44.34.41.41,0,0,1-.37-.41l-.07-7.12a2.29,2.29,0,0,0-4.39-.95H23v2.52H20.24V32.58a.43.43,0,0,1-.35.41.41.41,0,0,1-.45-.28c-.07-.2-.17-.47-.3-.78a8.9,8.9,0,0,0-1.66-2.6,8.27,8.27,0,0,0-3.11-2.06,1.84,1.84,0,0,0-2.19.44,1.82,1.82,0,0,0-.11,2.22l10.5,15.83a.48.48,0,0,1,.07.23v3.43H37.46l0-5.11a.49.49,0,0,1,.06-.23,25.61,25.61,0,0,0,3.62-12.6V24.8A2.31,2.31,0,0,0,38.82,22.49Z" fill="#fdd600"/><path d="M26.91,11.4a.5.5,0,0,0,.5.5h5a.5.5,0,0,0,.5-.5.51.51,0,0,0-.5-.5h-5A.51.51,0,0,0,26.91,11.4Z" fill="#231f20"/><path d="M25.46,7.72a.49.49,0,0,0,.35-.15L29.36,4a.5.5,0,0,0,0-.7.5.5,0,0,0-.71,0L25.1,6.86a.51.51,0,0,0,0,.71A.51.51,0,0,0,25.46,7.72Z" fill="#231f20"/><path d="M21,6.6a.5.5,0,0,0,.5-.5v-5a.5.5,0,0,0-.5-.5.5.5,0,0,0-.5.5v5A.51.51,0,0,0,21,6.6Z" fill="#231f20"/><path d="M15.91,7.57a.51.51,0,0,0,.36.15.5.5,0,0,0,.35-.15.51.51,0,0,0,0-.71L13.07,3.32a.49.49,0,1,0-.7.7Z" fill="#231f20"/><path d="M9.48,11.9h5a.5.5,0,0,0,.5-.5.5.5,0,0,0-.5-.5h-5a.5.5,0,0,0-.5.5A.5.5,0,0,0,9.48,11.9Z" fill="#231f20"/><path d="M37.24,19.59A3.24,3.24,0,0,0,35,20.5a3.25,3.25,0,0,0-5.52-2.31,3.25,3.25,0,0,0-5.48-2V10.77a3.25,3.25,0,0,0-3.25-3.25h0a3.25,3.25,0,0,0-2.3,1,3.21,3.21,0,0,0-1,2.3V28.41a9.76,9.76,0,0,0-1.22-1.61,9.14,9.14,0,0,0-3.46-2.3,2.75,2.75,0,0,0-3.45,4l10.56,15.9v3.73a.5.5,0,0,0,.5.5H36.28a.5.5,0,0,0,.5-.5l0-5.47a26.69,26.69,0,0,0,3.73-13.09V22.84A3.26,3.26,0,0,0,37.24,19.59Zm2.25,10A25.76,25.76,0,0,1,38,37.73a24.89,24.89,0,0,1-2.17,4.58.59.59,0,0,0-.07.26l0,5.1H20.92V44.29a.54.54,0,0,0-.08-.28L10.19,28a1.74,1.74,0,0,1,.11-2.14,1.79,1.79,0,0,1,2.12-.42,8.46,8.46,0,0,1,3.13,2.06,9,9,0,0,1,1.66,2.61,6.53,6.53,0,0,1,.3.78.5.5,0,0,0,1-.16V15.41H23v11a.5.5,0,0,0,.5.5.5.5,0,0,0,.5-.5V18.5a2.25,2.25,0,0,1,4.5,0v8.05a.5.5,0,0,0,.5.5.51.51,0,0,0,.5-.5v-6a2.25,2.25,0,0,1,4.5,0v6a.5.5,0,1,0,1,0V22.84a2.25,2.25,0,1,1,4.5,0ZM20.74,8.52h0A2.25,2.25,0,0,1,23,10.77V11h-4.5v-.18a2.25,2.25,0,0,1,2.25-2.25ZM23,11.92v2.52h-4.5V11.92Z" fill="#231f20"/></g><g id="e9506e76-706a-4c4f-ae85-5e3bfc571393" data-name="LABELS"><text transform="translate(0.97 54.89)" font-size="6" fill="#231f20" font-family="Roboto-Regular, Roboto">finger-bandage</text></g></svg>