<?xml version="1.0" encoding="UTF-8"?>
<svg xmlns="http://www.w3.org/2000/svg" viewBox="0 0 50 50">
  <defs>
    <style>
      .cls-1 {
        fill: #1f1c1d;
      }

      .cls-2 {
        fill: #221f1f;
        font-family: Roboto-Regular, Roboto;
        font-size: 5px;
      }

      .cls-3 {
        letter-spacing: 0em;
      }
    </style>
  </defs>
  <g id="Icon_Outline">
    <g>
      <path class="cls-1" d="M24.48,38.65c-.15-.14-.71-.59-1.5-.54-.5.04-.87.26-1.12.48l-2.11,2.1c-1.99-1.47-3.87-3.11-5.61-4.87-1.64-1.68-3.17-3.5-4.54-5.41l1.79-1.82s.02-.02.03-.03c.2-.24.54-.74.55-1.46.01-.93-.55-1.54-.71-1.7l-3.93-3.93c-.88-.88-2.22-.96-3-.18-2.84,2.9-2.9,3.02-2.92,3.08-.48.86-1.02,2.28-.85,4.18.17,1.87.94,3.35,1.54,4.24,1.87,3.15,4.14,6.08,6.74,8.72,2.39,2.42,5.05,4.57,7.89,6.38,1.04.66,2.71,1.47,4.78,1.59.17,0,.34.01.51.01,1.62,0,2.86-.46,3.62-.85.1-.04.23-.1,3.12-2.94.78-.77.69-2.12-.18-3l-4.06-4.06ZM28.02,45c-1.27,1.24-2.71,2.64-2.85,2.75-.75.39-1.99.83-3.63.74-1.85-.11-3.36-.84-4.3-1.44-2.78-1.77-5.38-3.87-7.72-6.24-2.54-2.58-4.76-5.44-6.61-8.55-.55-.82-1.24-2.13-1.39-3.79-.15-1.65.32-2.87.71-3.57.14-.19,1.54-1.63,2.78-2.9.16-.16.38-.24.62-.24.33,0,.69.14.96.42l3.94,3.94c.07.07.42.43.41.97,0,.4-.21.7-.3.81l-2.06,2.1c-.17.17-.19.44-.05.64,1.47,2.08,3.11,4.05,4.89,5.87,1.87,1.91,3.92,3.67,6.08,5.24.2.14.47.12.65-.05l2.38-2.37c.11-.09.29-.2.53-.22.4-.03.69.22.73.26l4.05,4.05c.25.25.39.55.42.87.02.29-.06.54-.23.71Z"/>
      <path class="cls-1" d="M44.48,5.52C40.7,1.74,35.46-.04,30.11.65c-7.59.97-13.63,6.93-14.7,14.5-.54,3.79.15,7.53,1.98,10.81l-.94,6.79c-.03.22.04.45.2.61.16.16.37.23.6.2l6.81-.93c2.55,1.42,5.38,2.14,8.29,2.14.83,0,1.67-.06,2.52-.18,7.56-1.07,13.51-7.11,14.49-14.7.68-5.35-1.09-10.59-4.87-14.37ZM48.36,19.77c-.91,7.14-6.52,12.82-13.63,13.83-3.62.52-7.19-.15-10.32-1.93-.08-.04-.16-.07-.25-.07-.02,0-.04,0-.07,0l-6.61.9.92-6.58c.02-.11,0-.22-.06-.32-1.78-3.12-2.45-6.7-1.94-10.33,1-7.12,6.69-12.73,13.83-13.64,5.04-.64,9.98,1.03,13.54,4.59,3.56,3.56,5.23,8.5,4.59,13.54Z"/>
      <path class="cls-1" d="M40.01,18.21s-.12-.28-.15-.37c-.02-.07-.04-.13-.07-.19-.12-.29-.49-1.16-.7-2.27-.14-.73-.27-1.91-.11-3.34.11-.94.33-1.87.67-2.77.07-.18.02-.39-.12-.53-.14-.14-.34-.18-.53-.11-1.16.44-2.18,1.1-3.03,1.95-.97.97-1.54,2.01-1.88,2.94-.48-1.22-.76-2.49-.82-3.78-.05-1.01.03-2.03.24-3.03.04-.21-.05-.43-.24-.54-.19-.11-.42-.08-.58.06-1,.89-1.84,1.9-2.5,3.02-1.14,1.94-1.58,3.89-1.68,5.59-.44-.69-1.01-1.39-1.77-2.03-.71-.6-1.52-1.08-2.4-1.45-.18-.07-.39-.04-.54.1-.14.14-.19.35-.12.53.52,1.44.76,2.86.71,4.22-.04,1.17-.3,2.58-.45,3.42-.06.32-.1.57-.11.76-.46,2.13.03,4.3,1.33,5.83,1.9,2.22,4.91,2.4,6.71,2.4.11,0,.21,0,.31,0,.01,0,.02,0,.03,0h.04s.02,0,.03,0c.04,0,.09,0,.13,0,1.63-.02,5.46-.06,7.34-2.71,2.15-3.02.33-7.52.26-7.71,0,0,0,0,0,0ZM32.27,27.64s-.05,0-.07,0c-.92,0-1.84-.57-2.25-1.38-.46-.91-.18-2.03-.12-2.25.04-.14.08-.26.13-.39.1-.27.21-.58.3-1.08h0c.05-.3.1-.79.09-1.38,0-.15-.01-.3-.03-.45.09.07.19.15.27.23.46.41.82.91,1.09,1.46.1.22.35.33.58.26.23-.06.39-.29.37-.53-.05-.59,0-1.18.13-1.75.12-.49.29-.92.49-1.3.02.46.1.9.21,1.33.15.53.35,1.01.58,1.53.38.89.77,1.81.85,3.07.01.57-.29,1.26-.8,1.78-.51.53-1.16.83-1.82.84ZM38.94,25.35c-.96,1.36-2.63,1.9-4.11,2.12.69-.72,1.08-1.64,1.06-2.5,0,0,0-.1,0-.1-.09-1.36-.53-2.4-.93-3.32-.21-.48-.4-.94-.53-1.4-.22-.81-.25-1.7-.07-2.65.04-.22-.07-.43-.26-.54-.2-.1-.43-.06-.59.1-.6.61-1.38,1.65-1.72,3.11-.04.16-.07.31-.09.47-.13-.15-.28-.29-.43-.43-.42-.38-.89-.7-1.41-.94-.17-.08-.38-.06-.53.07-.15.12-.21.32-.17.51.11.45.17.9.19,1.36.01.4-.01.82-.07,1.19-.07.41-.16.65-.25.9-.05.15-.11.29-.15.46-.11.39-.42,1.76.19,2.97.14.28.32.53.53.76-1.3-.22-2.67-.72-3.66-1.88-1.1-1.29-1.52-3.15-1.11-4.98.01-.06.01-.12,0-.17.01-.11.05-.33.1-.61.16-.87.42-2.32.46-3.56.04-1.13-.1-2.29-.41-3.47.4.23.78.49,1.12.79,1.58,1.32,2.26,2.94,2.55,4.07.07.26.32.42.58.36.26-.05.43-.3.4-.56-.28-1.93-.27-4.83,1.42-7.69.36-.61.78-1.19,1.25-1.73-.05.59-.06,1.17-.03,1.76.1,1.88.6,3.71,1.5,5.43.1.19.3.3.52.26.21-.03.38-.2.42-.41.18-1.01.66-2.48,1.97-3.79.49-.49,1.05-.91,1.67-1.25-.17.62-.3,1.26-.37,1.9-.18,1.55-.03,2.84.12,3.64.23,1.18.62,2.12.79,2.52.03.11.09.27.2.51.07.17,1.65,4.22-.15,6.75Z"/>
    </g>
  </g>
  <g id="Names">
    <text class="cls-2" transform="translate(.22 53.82)"><tspan x="0" y="0">fi</tspan><tspan class="cls-3" x="2.95" y="0">r</tspan><tspan x="4.59" y="0">e-eme</tspan><tspan class="cls-3" x="18.3" y="0">r</tspan><tspan x="19.95" y="0">gency</tspan></text>
  </g>
</svg>