<svg xmlns="http://www.w3.org/2000/svg" viewBox="0 0 50 50"><g id="ae3e0981-0c90-4a44-8422-dfb50be3d94e" data-name="ICONS"><path d="M42,28.66h0l0,0a8.45,8.45,0,0,1-.39-1.06s0-.08-.07-.14a26.9,26.9,0,0,1-1.65-5.34,26.13,26.13,0,0,1-.26-7.85,27.07,27.07,0,0,1,1.2-5.43,17.31,17.31,0,0,0-5.1,3.51A16.2,16.2,0,0,0,31.21,21a.51.51,0,0,1-.42.41.5.5,0,0,1-.52-.26A28.36,28.36,0,0,1,27,9.41a27.69,27.69,0,0,1,.29-5.6,26.08,26.08,0,0,0-4.1,5.26A26.37,26.37,0,0,0,20,26.45a.51.51,0,0,1-.4.57.5.5,0,0,1-.58-.37,18,18,0,0,0-5.84-9.3,18.77,18.77,0,0,0-3.85-2.48,26,26,0,0,1,1.28,8.84,58.44,58.44,0,0,1-1,7.78c-.11.62-.23,1.25-.25,1.48a.6.6,0,0,1,0,.23,13.32,13.32,0,0,0,2.58,11.52c4.15,4.86,11.05,4.79,14.76,4.74,3.37,0,11.26-.14,14.93-5.31C45.86,38.2,42.05,28.76,42,28.66ZM29.72,45.75A6.92,6.92,0,0,1,24.85,48h-.06a7,7,0,0,1-6-3.65,8.56,8.56,0,0,1-.33-5.83c.1-.35.21-.66.33-1a12.5,12.5,0,0,0,.67-2.45h0a16.87,16.87,0,0,0,.2-3.14,17.65,17.65,0,0,0-.27-2.52,12.33,12.33,0,0,1,2,1.46,12.16,12.16,0,0,1,2.75,3.68.49.49,0,0,0,.58.27.51.51,0,0,0,.36-.53A13.82,13.82,0,0,1,28,24.57a14.89,14.89,0,0,0,.43,5.37,28.32,28.32,0,0,0,1.33,3.54,21.1,21.1,0,0,1,2.08,7.33V41A7,7,0,0,1,29.72,45.75Z" fill="#fdd600"/><path d="M41.34,26.91l0,0c0-.14-.27-.66-.33-.84a1.85,1.85,0,0,0-.13-.37,25.53,25.53,0,0,1-1.6-5.13A25.53,25.53,0,0,1,39,13a26.39,26.39,0,0,1,1.53-6.26.5.5,0,0,0-.65-.64,18.37,18.37,0,0,0-6.47,4.16,17,17,0,0,0-4.48,7.81A26.95,26.95,0,0,1,27,1.13.48.48,0,0,0,26.72.6a.5.5,0,0,0-.58.06,27.39,27.39,0,0,0-5.39,6.52,26.75,26.75,0,0,0-3.66,14.31,18.65,18.65,0,0,0-4.87-6.28,19.57,19.57,0,0,0-5.15-3.1.54.54,0,0,0-.54.1.51.51,0,0,0-.12.54A25.47,25.47,0,0,1,8,22.3a59,59,0,0,1-1,7.64,10.63,10.63,0,0,0-.27,1.81A14.35,14.35,0,0,0,9.58,44c4,4.69,10.24,5.09,14.27,5.09h1.26c3.52,0,11.76-.14,15.73-5.72C45.4,37,41.51,27.32,41.34,26.91ZM40,42.78C36.35,48,28.47,48,25.1,48.08c-3.72.05-10.62.13-14.76-4.73A13.36,13.36,0,0,1,7.75,31.83a.59.59,0,0,0,0-.23c0-.23.13-.86.24-1.48a58.53,58.53,0,0,0,1-7.78A26,26,0,0,0,7.72,13.5,18.32,18.32,0,0,1,11.57,16a18,18,0,0,1,5.84,9.31.5.5,0,0,0,.59.36.49.49,0,0,0,.39-.56A26.45,26.45,0,0,1,21.61,7.69a26.38,26.38,0,0,1,4.1-5.25A27.65,27.65,0,0,0,25.43,8a28.12,28.12,0,0,0,3.25,11.74.51.51,0,0,0,.52.27.5.5,0,0,0,.41-.41A16.16,16.16,0,0,1,34.13,11a17.2,17.2,0,0,1,5.09-3.51A26.82,26.82,0,0,0,38,12.86a26.43,26.43,0,0,0,.26,7.85,25.8,25.8,0,0,0,1.66,5.34.77.77,0,0,1,.06.15,8.77,8.77,0,0,0,.4,1.05v0h0C40.45,27.38,44.26,36.82,40,42.78Z" fill="#231f20"/><path d="M32.8,40.75a22.31,22.31,0,0,0-2.16-7.66,28.24,28.24,0,0,1-1.29-3.42,14.76,14.76,0,0,1-.17-6.61.5.5,0,0,0-.85-.44,15.21,15.21,0,0,0-3.91,7.06A14,14,0,0,0,24,32.41,12.89,12.89,0,0,0,18.88,28a.49.49,0,0,0-.53.06.49.49,0,0,0-.17.51A15.91,15.91,0,0,1,18.65,32a15.68,15.68,0,0,1-.19,2.95,11.08,11.08,0,0,1-.62,2.27c-.12.33-.25.66-.35,1a9.57,9.57,0,0,0,.4,6.55,7.89,7.89,0,0,0,6.9,4.2h.07a7.89,7.89,0,0,0,5.58-2.53A7.9,7.9,0,0,0,32.81,41Zm-3.08,5A6.92,6.92,0,0,1,24.85,48h-.06a7,7,0,0,1-6-3.65,8.56,8.56,0,0,1-.33-5.83c.1-.35.21-.66.33-1a12.5,12.5,0,0,0,.67-2.45h0a16.87,16.87,0,0,0,.2-3.14,17.65,17.65,0,0,0-.27-2.52,12.33,12.33,0,0,1,2,1.46,12.16,12.16,0,0,1,2.75,3.68.49.49,0,0,0,.58.27.51.51,0,0,0,.36-.53A13.82,13.82,0,0,1,28,24.57a14.89,14.89,0,0,0,.43,5.37,28.32,28.32,0,0,0,1.33,3.54,21.1,21.1,0,0,1,2.08,7.33V41A7,7,0,0,1,29.72,45.75Z" fill="#231f20"/></g><g id="b431f10a-1269-4736-be08-2cb0773e92cb" data-name="LABELS"><text transform="translate(0 54.98)" font-size="6" fill="#231f20" font-family="Roboto-Regular, Roboto">fi<tspan x="3.54" y="0" letter-spacing="-0.01em">r</tspan><tspan x="5.51" y="0">e</tspan></text></g></svg>