<svg xmlns="http://www.w3.org/2000/svg" viewBox="0 0 50 50"><g id="bde5637a-03dd-4a0c-a57f-ebbe56226076" data-name="ICONS"><path d="M49.51,19.07,35.13,10.52l.54-.91a.5.5,0,1,0-.86-.52L25,25.57,15.19,9.09a.5.5,0,1,0-.86.52l.54.91L.49,19.07a.5.5,0,0,0-.25.44.52.52,0,0,0,.25.43l6.12,3.59L7,30.87a.52.52,0,0,0,.26.42.53.53,0,0,0,.24.06.59.59,0,0,0,.26-.07l14.38-8.56,2.29,3.84L16.18,40.39a.51.51,0,0,0,.18.69.59.59,0,0,0,.26.07.51.51,0,0,0,.43-.25l8-13.36L33,40.9a.51.51,0,0,0,.43.25.59.59,0,0,0,.26-.07.51.51,0,0,0,.18-.69L25.58,26.56l2.29-3.84,14.38,8.56a.59.59,0,0,0,.26.07.53.53,0,0,0,.24-.06.52.52,0,0,0,.26-.42l.38-7.34,6.12-3.59a.52.52,0,0,0,.25-.43A.5.5,0,0,0,49.51,19.07ZM8,30,7.6,23.21a.5.5,0,0,0-.25-.4L1.73,19.5l13.65-8.12,6.24,10.47Zm34.7-7.18a.5.5,0,0,0-.25.4L42.05,30,28.38,21.85l6.24-10.47L48.27,19.5Z"/></g><g id="b9111509-d375-4daa-897c-ece2e845844f" data-name="LABELS"><text transform="translate(0 54.96)" font-size="6" font-family="Roboto-Regular, Roboto">flags</text></g></svg>