<svg xmlns="http://www.w3.org/2000/svg" viewBox="0 0 50 50"><g id="afd2fa73-4043-43e9-815f-47bc234cb42f" data-name="ICONS"><path d="M3.23,21.08l5.59,3.28a.51.51,0,0,1,.25.41l.35,6.73L23,23.42v0L16.81,13Z" fill="#fdd600"/><path d="M30,23.33v0l13.59,8.09.35-6.74a.48.48,0,0,1,.25-.4L49.72,21,36.14,12.93Z" fill="#fdd600"/><path d="M49.51,19.07,35.13,10.52l.54-.91a.5.5,0,1,0-.86-.52L25,25.57,15.19,9.09a.5.5,0,1,0-.86.52l.54.91L.49,19.07a.5.5,0,0,0-.25.44.52.52,0,0,0,.25.43l6.12,3.59L7,30.87a.52.52,0,0,0,.26.42.53.53,0,0,0,.24.06.59.59,0,0,0,.26-.07l14.38-8.56,2.29,3.84L16.18,40.39a.51.51,0,0,0,.18.69.59.59,0,0,0,.26.07.51.51,0,0,0,.43-.25l8-13.36L33,40.9a.51.51,0,0,0,.43.25.59.59,0,0,0,.26-.07.51.51,0,0,0,.18-.69L25.58,26.56l2.29-3.84,14.38,8.56a.59.59,0,0,0,.26.07.53.53,0,0,0,.24-.06.52.52,0,0,0,.26-.42l.38-7.34,6.12-3.59a.52.52,0,0,0,.25-.43A.5.5,0,0,0,49.51,19.07ZM8,30,7.6,23.21a.5.5,0,0,0-.25-.4L1.73,19.5l13.65-8.12,6.24,10.47Zm34.7-7.18a.5.5,0,0,0-.25.4L42.05,30,28.38,21.85l6.24-10.47L48.27,19.5Z" fill="#231f20"/></g><g id="a46bd959-811c-4109-92b9-3bc3d2cd791b" data-name="LABELS"><text transform="translate(0 54.96)" font-size="6" fill="#231f20" font-family="Roboto-Regular, Roboto">flags</text></g></svg>