<?xml version="1.0" encoding="UTF-8"?>
<svg xmlns="http://www.w3.org/2000/svg" viewBox="0 0 50 50">
  <defs>
    <style>
      .cls-1 {
        fill: #1f1c1d;
      }

      .cls-2 {
        fill: #221f1f;
        font-family: Roboto-Regular, Roboto;
        font-size: 5px;
      }
    </style>
  </defs>
  <g id="Icon_Outline">
    <path class="cls-1" d="M48.81,47.77l-2.53-5.92c-.69-1.62-1.59-3.15-2.68-4.54L17.2,3.36c-.84-1.08-2.04-1.76-3.39-1.93-1.35-.17-2.69.2-3.77,1.04L2.96,7.97l-.04-.05c-.17-.22-.49-.26-.7-.09-.22.17-.26.48-.09.7l.05.06c-1.17.98-1.37,2.72-.43,3.93.94,1.21,2.68,1.45,3.92.55l7.97,10.25c-1.17.98-1.37,2.72-.43,3.93.94,1.21,2.68,1.45,3.92.55l.05.06c.1.13.25.19.39.19.11,0,.22-.03.31-.11.22-.17.26-.48.09-.7l-.04-.05,2.24-1.74c1.18-.91,2.64-1.31,4.11-1.13,1.48.18,2.79.93,3.71,2.11l11.23,14.44c1.03,1.33,2.22,2.52,3.55,3.56l5.14,4.03c.11.09.24.13.37.13s.26-.04.37-.12c.22-.17.3-.46.19-.71ZM14.41,22.71l-7.96-10.24,5.24-4.07c.77-.6,1.89-.46,2.49.31l5.78,7.43c.29.38.42.84.36,1.31-.06.47-.3.89-.67,1.18l-5.24,4.07ZM43.36,43.66c-1.26-.99-2.39-2.13-3.38-3.39l-11.23-14.44c-1.08-1.39-2.63-2.27-4.37-2.49-.28-.04-.55-.05-.83-.05-1.45,0-2.86.48-4.02,1.38l-2.95,2.29c-.81.63-1.97.48-2.6-.33-.63-.81-.48-1.97.33-2.6l5.95-4.62c1.21-.94,1.43-2.69.49-3.89l-5.78-7.43c-.46-.59-1.11-.96-1.85-1.05-.74-.09-1.46.11-2.05.56l-5.95,4.62c-.81.62-1.97.48-2.6-.32-.63-.81-.48-1.97.33-2.6l7.8-6.06c.87-.67,1.95-.97,3.03-.83,1.09.14,2.06.69,2.73,1.55l26.4,33.95c1.03,1.33,1.89,2.78,2.54,4.32l1.92,4.49-3.92-3.07Z"/>
  </g>
  <g id="Names">
    <text class="cls-2" transform="translate(0 53.78)"><tspan x="0" y="0">flosser</tspan></text>
  </g>
</svg>