<svg xmlns="http://www.w3.org/2000/svg" viewBox="0 0 50 50"><g id="ad5ae016-12ca-46b4-9d45-3562a3e8f243" data-name="ICONS"><rect x="3.15" y="26.26" width="2.52" height="13.39" fill="#fdd600"/><rect x="45.99" y="26.02" width="2.17" height="13.62" fill="#fdd600"/><circle cx="27.36" cy="26.5" r="11.78" fill="#fdd600"/><path d="M25.86,8.31A16.69,16.69,0,1,0,42.55,25,16.71,16.71,0,0,0,25.86,8.31Zm0,32.38A15.69,15.69,0,1,1,41.55,25,15.71,15.71,0,0,1,25.86,40.69Z" fill="#231f20"/><path d="M25.86,12.22A12.78,12.78,0,1,0,38.64,25,12.79,12.79,0,0,0,25.86,12.22Zm0,24.56A11.78,11.78,0,1,1,37.64,25,11.79,11.79,0,0,1,25.86,36.78Z" fill="#231f20"/><path d="M47.48,10.83a4.73,4.73,0,0,0-2.44-1,.52.52,0,0,0-.39.13.51.51,0,0,0-.16.37V39.64a.5.5,0,0,0,.5.5h3.17a.5.5,0,0,0,.5-.5V25.05C50.7,18.71,50.23,13,47.48,10.83Zm-2,.12a3.57,3.57,0,0,1,1.37.66c2.35,1.85,2.72,7.11.93,12.87h-2.3Zm2.17,28.19H45.49V25.52h2.17Z" fill="#231f20"/><path d="M7.23,9.85a.5.5,0,0,0-.5.5v6.39a1.36,1.36,0,0,0-.29-.06H5.53l0-6.32A.49.49,0,0,0,5,9.87H5a.5.5,0,0,0-.5.5l0,6.31H3.3V10.35a.5.5,0,0,0-.5-.5.5.5,0,0,0-.5.5v6.33H1.37a1.5,1.5,0,0,0-.29.06V10.37a.5.5,0,0,0-.5-.5.5.5,0,0,0-.5.5v8.84h0a1.29,1.29,0,0,0,1.29,1.29H2V24.8a.49.49,0,0,0-.31.46V39.65a.5.5,0,0,0,.5.5H5.67a.5.5,0,0,0,.5-.5V25.26a.49.49,0,0,0-.32-.46V20.51h.59a1.27,1.27,0,0,0,1.24-1,.54.54,0,0,0,.05-.22V10.35A.5.5,0,0,0,7.23,9.85ZM5.35,19.51h-4a.29.29,0,0,1-.29-.29h0V18a.29.29,0,0,1,.29-.29H6.44a.29.29,0,0,1,.29.29v1.25a.29.29,0,0,1-.29.29ZM5.17,39.15H2.65V25.76H5.17Zm-.32-14.5H3V20.51H4.85Z" fill="#231f20"/></g><g id="a9f5bcce-acf3-495e-992a-c7c2382020a5" data-name="LABELS"><text transform="translate(-0.05 55.05)" font-size="6" fill="#231f20" font-family="Roboto-Regular, Roboto">fork-plate-kni<tspan x="34.92" y="0" letter-spacing="-0.01em">f</tspan><tspan x="36.93" y="0">e</tspan></text></g></svg>