<svg xmlns="http://www.w3.org/2000/svg" viewBox="0 0 50 50"><g id="bcdb34a9-3e28-4467-ac47-f97f2ad9f715" data-name="ICONS"><path d="M34.64,1.57A6.34,6.34,0,0,0,31.17,0a.52.52,0,0,0-.4.12.53.53,0,0,0-.16.38V49a.5.5,0,0,0,.5.5h4.65a.5.5,0,0,0,.5-.5V24.78C39.24,14.4,38.59,5.08,34.64,1.57Zm-3-.45A5.24,5.24,0,0,1,34,2.32c3.57,3.18,4.14,12.15,1.41,21.9H31.61Zm3.65,47.35H31.61V25.28h3.65Z"/><path d="M23.65,1.2a.75.75,0,1,0-1.5,0V12.79H20.26L20.18,1.23a.76.76,0,0,0-.75-.75h0a.76.76,0,0,0-.75.76l.08,11.55h-2V1.2a.75.75,0,0,0-1.5,0V12.79H13.38V1.23a.75.75,0,0,0-1.5,0V15h0v.47a1.29,1.29,0,0,0,1.29,1.29h2.19v7.71a.49.49,0,0,0-.42.48V48.8a.51.51,0,0,0,.5.5H20.1a.5.5,0,0,0,.5-.5V25a.5.5,0,0,0-.42-.49v-7.7h2.19a1.29,1.29,0,0,0,1.29-1.29v-1.4a.43.43,0,0,1,0-.05Zm-4,14.57H13.17a.29.29,0,0,1-.29-.29v-1.4a.29.29,0,0,1,.29-.29h9.2a.29.29,0,0,1,.29.29v1.4a.29.29,0,0,1-.29.29ZM19.6,48.3H15.94V25.46H19.6Zm-.42-24H16.36V16.77h2.82Z"/></g><g id="f67b3a57-e67d-475b-bc51-d4964bd5caa9" data-name="LABELS"><text transform="translate(0 55.05)" font-size="6" font-family="Roboto-Regular, Roboto">fork-kni<tspan x="20.04" y="0" letter-spacing="-0.01em">f</tspan><tspan x="22.05" y="0">e</tspan></text></g></svg>