<svg xmlns="http://www.w3.org/2000/svg" viewBox="0 0 50 50"><defs><style>.cls-1{font-size:6px;font-family:Roboto-Regular, Roboto;}</style></defs><g id="ICONS"><polygon points="44.91 6.63 44.91 6.63 44.91 6.63 44.91 6.63"/><path d="M49.75,16.13a14.37,14.37,0,0,0-4.48-9.84l-.36.34.36-.34h0c-2-2-6.21-5.41-12.11-4.9a14.69,14.69,0,0,0-8.37,3.69,13.74,13.74,0,0,0-9.43-3.74h0A13.77,13.77,0,0,0,5.57,5.38L4.3,6.66a13.84,13.84,0,0,0-.13,19.43c-.08.07-.17.13-.25.21l-.3.3A4.07,4.07,0,0,0,6.5,33.55a4.51,4.51,0,0,0,1.14-.18,3.89,3.89,0,0,0-.18,1.14,4,4,0,0,0,4.06,4.06,4.09,4.09,0,0,0,1.17-.19,4.21,4.21,0,0,0-.19,1.17,4,4,0,0,0,5.24,3.88,4.06,4.06,0,0,0,6.76,4l.3-.31A1.32,1.32,0,0,0,25,47a4.05,4.05,0,0,0,6.61-4.14,4,4,0,0,0,5.18-3.9,4,4,0,0,0-.16-1.15,4.08,4.08,0,0,0,4-1,4,4,0,0,0,1.19-2.88,4,4,0,0,0-.16-1.15,4.07,4.07,0,0,0,4-6.77A14.18,14.18,0,0,0,49.75,16.13Zm-24.6-10a13.74,13.74,0,0,1,8.1-3.71c5.47-.48,9.43,2.68,11.3,4.6l.36-.35L44.56,7a13.25,13.25,0,0,1,4.19,9.16A13.15,13.15,0,0,1,45,25.22L30.27,10.49a.48.48,0,0,0-.7,0L19.2,20.86a3.12,3.12,0,1,1-4.41-4.41ZM4.33,31.65a3.07,3.07,0,0,1,0-4.34l.3-.31A3.16,3.16,0,0,1,9,27a3,3,0,0,1,.9,2.17A3,3,0,0,1,9,31.34l-.3.31A3.07,3.07,0,0,1,4.33,31.65Zm5,5a3.07,3.07,0,0,1-.1-4.22s.09-.06.12-.1l.31-.31.1-.12a3,3,0,0,1,2.05-.8A3.07,3.07,0,0,1,14,36.37l-.31.31A3.16,3.16,0,0,1,9.35,36.68Zm5.05,5a3,3,0,0,1-.9-2.17,3,3,0,0,1,.9-2.17l.31-.3a3,3,0,0,1,2.16-.9,3.07,3.07,0,0,1,2.18,5.24l-.31.3A3.14,3.14,0,0,1,14.4,41.72Zm9.69,4.75-.3.3a3.07,3.07,0,1,1-4.34-4.34l.3-.3a3.14,3.14,0,0,1,4.34,0A3,3,0,0,1,25,44.3,3,3,0,0,1,24.09,46.47ZM45.87,28.81A3.06,3.06,0,0,1,40.64,31l-9.85-9.84a.5.5,0,0,0-.71,0,.51.51,0,0,0,0,.71l9.85,9.84h0a3,3,0,0,1,.89,2.17,3.06,3.06,0,0,1-5.17,2.22l-9.9-9.9a.5.5,0,0,0-.71.71l9.85,9.84h0a3,3,0,0,1,.89,2.17,3.05,3.05,0,0,1-5.13,2.25h0l-10-9.89a.51.51,0,0,0-.71,0A.5.5,0,0,0,20,32l10,9.89a3.06,3.06,0,0,1-4.4,4.25,4,4,0,0,0-3.62-5.89,4.21,4.21,0,0,0-1.17.19,4,4,0,0,0-3.88-5.24,4.21,4.21,0,0,0-1.17.19,4,4,0,0,0-5-5.06,4.25,4.25,0,0,0,.18-1.14A4,4,0,0,0,5,25.54l0,0A12.87,12.87,0,0,1,5,7.36L6.28,6.09a12.76,12.76,0,0,1,9.07-3.76h0a12.73,12.73,0,0,1,8.7,3.43l-10,10a4.12,4.12,0,0,0,5.83,5.82l10-10L45,26.64A3.08,3.08,0,0,1,45.87,28.81Z"/></g><g id="LABELS"><text class="cls-1" transform="translate(0.17 54.98)">friendship</text></g></svg>