<svg id="bac831a4-47a1-4869-929f-d36b913ba6a5" data-name="ICONS" xmlns="http://www.w3.org/2000/svg" viewBox="0 0 50 50"><path d="M46.68,31.78c.2-.63.36-1.26.5-1.9,0-.11.06-.21.08-.32.12-.58.21-1.16.28-1.74,0-.21.05-.42.07-.63,0-.49.08-1,.09-1.46,0-.31,0-.62,0-.93s0-.81,0-1.2-.06-.73-.1-1.09-.09-.74-.15-1.1-.06-.43-.1-.65-.11-.47-.16-.71-.12-.52-.19-.78c-.14-.52-.29-1-.46-1.53,0-.13-.09-.25-.13-.38-.2-.57-.43-1.13-.68-1.68l-.16-.36c-.24-.5-.49-1-.77-1.48-.15-.27-.3-.52-.46-.78,0,0-.05-.08-.07-.13L44,12.54c-.08-.11-.17-.22-.24-.33l-.07-.09c-.21-.31-.43-.61-.65-.9s-.45-.58-.68-.86-.52-.6-.8-.89-.43-.45-.66-.67-.69-.67-1.06-1l-.5-.42c-.45-.36-.91-.72-1.39-1l-.17-.12L37.46,6c-.47-.31-1-.61-1.45-.88l-.6-.32c-.38-.19-.76-.38-1.15-.55s-.61-.26-.92-.38-.78-.3-1.17-.43l-.79-.25c-.51-.15-1-.28-1.54-.39l-.37-.09q-1-.2-2-.3l-.09,0c-.74-.07-1.47-.11-2.2-.12h0A22.72,22.72,0,1,0,45.89,33.94c.28-.67.53-1.35.75-2C46.65,31.87,46.67,31.83,46.68,31.78ZM16.45,45A21.66,21.66,0,0,1,3.3,25.44l3.84,0h0a.5.5,0,0,0,.5-.5.5.5,0,0,0-.5-.5l-3.85,0A21.52,21.52,0,0,1,4.82,17l3.52,1.51a.65.65,0,0,0,.2,0A.51.51,0,0,0,9,18.27a.49.49,0,0,0-.27-.65L5.2,16.1A21.56,21.56,0,0,1,9.36,9.94l2.69,2.74a.51.51,0,0,0,.36.15.47.47,0,0,0,.35-.14.5.5,0,0,0,0-.71L10.08,9.24a21.65,21.65,0,0,1,6.23-4.12l1.57,3.81a.51.51,0,0,0,.46.31.41.41,0,0,0,.19,0,.5.5,0,0,0,.28-.65L17.24,4.73a21.75,21.75,0,0,1,7.47-1.44l0,4.13a.5.5,0,0,0,.5.51h0a.5.5,0,0,0,.5-.5l0-4.12c.51,0,1,0,1.54.09h.13c.65.07,1.3.17,1.93.3l.33.08c.5.1,1,.23,1.48.37l.73.24c.38.12.75.26,1.13.41l.13.05-1.63,3.8a.51.51,0,0,0,.27.66.43.43,0,0,0,.19,0,.51.51,0,0,0,.46-.3L34,5.27c.47.21.93.42,1.38.67l.12.06c.55.3,1.08.63,1.6,1l.16.1c.5.35,1,.72,1.46,1.1l.19.16c.42.35.83.74,1.23,1.13l-2.95,2.89a.49.49,0,0,0,0,.7.44.44,0,0,0,.35.15.46.46,0,0,0,.35-.14l2.94-2.88c.3.31.6.63.87,1l.27.31c.31.4.61.81.89,1.23s.37.55.55.83.41.68.6,1,.27.51.4.78.32.68.48,1l-3.59,1.47a.5.5,0,0,0,.19,1,.48.48,0,0,0,.2,0l3.58-1.47h0c.16.42.31.85.44,1.27s.17.57.25.85.19.77.27,1.15.1.49.14.74c.08.46.15.93.2,1.4,0,.14,0,.29,0,.44,0,.53.07,1.07.07,1.61l-3.88,0a.51.51,0,0,0-.5.5.5.5,0,0,0,.5.5l3.88,0c0,.45,0,.89-.08,1.34,0,.2,0,.4-.07.6-.07.55-.16,1.11-.27,1.66,0,.1-.05.2-.07.3-.14.61-.29,1.22-.48,1.83,0,0,0,.08,0,.12-.21.65-.45,1.3-.72,1.94A21.75,21.75,0,0,1,16.45,45Z"/><path d="M25,28.7a3.45,3.45,0,0,0,2.22-6.11L33.41,14a.51.51,0,0,0-.11-.7.5.5,0,0,0-.7.12L26.39,22v0A3.3,3.3,0,0,0,25,21.77a3.47,3.47,0,0,0,0,6.93Zm0-5.93a2.47,2.47,0,1,1-2.46,2.47A2.48,2.48,0,0,1,25,22.77Z"/><path d="M33.34,32.48H16.82a.5.5,0,0,0-.5.5v4.21a.51.51,0,0,0,.5.5H33.34a.51.51,0,0,0,.5-.5V33A.5.5,0,0,0,33.34,32.48Zm-.5,4.21H17.32V33.48H32.84Z"/></svg>