<?xml version="1.0" encoding="UTF-8"?>
<svg xmlns="http://www.w3.org/2000/svg" viewBox="0 0 50 50">
  <defs>
    <style>
      .cls-1 {
        font-family: ArialMT, Arial;
        font-size: 6px;
      }

      .cls-2 {
        fill: #ffcd00;
      }
    </style>
  </defs>
  <g id="Black">
    <g>
      <path class="cls-2" d="M33.6,25.71c-.23,0-.44-.16-.49-.39-.12-.53-.32-1.03-.62-1.49-.13-.2-.1-.46.07-.62l.98-.98-.86-.86-.98.98c-.17.17-.43.19-.62.07-.46-.29-.96-.5-1.49-.62-.23-.05-.39-.25-.39-.49v-1.38h-1.23v1.38c0,.23-.16.44-.39.49-.53.12-1.03.33-1.49.62-.2.12-.46.1-.62-.07l-.98-.98-.86.86.98.98c.17.17.19.42.07.62-.29.46-.5.96-.62,1.49-.05.23-.25.39-.49.39h-1.38v1.22h1.38c.23,0,.44.16.49.39.12.53.32,1.03.62,1.49.13.2.1.46-.07.62l-.98.98.86.86.98-.98c.17-.17.42-.19.62-.07.46.29.96.5,1.49.62.23.05.39.25.39.49v1.38h1.23v-1.38c0-.23.16-.44.39-.49.53-.12,1.03-.32,1.49-.62.2-.13.46-.1.62.07l.98.98.86-.86-.98-.98c-.17-.17-.19-.43-.07-.62.29-.46.5-.96.62-1.49.05-.23.25-.39.49-.39h1.38v-1.23h-1.38ZM27.32,26.95c-1.04,0-1.88-.84-1.88-1.88s.84-1.88,1.88-1.88,1.88.84,1.88,1.88-.84,1.88-1.88,1.88Z"/>
      <g>
        <path d="M34.23,23.46h-1.49c-.11-.37-.26-.73-.45-1.07l1.06-1.06c.19-.2.19-.51,0-.71l-1.57-1.57c-.2-.2-.51-.2-.71,0l-1.06,1.06c-.34-.19-.7-.34-1.07-.45v-1.49c0-.28-.23-.5-.5-.5h-1.05c-.97-1.05-2.14-2-3.49-2.81,4.14-2.48,6.59-6.25,6.59-10.25v-.2s-.01-.1-.01-.1h0s0-.02,0-.02v-1.68c0-.28-.22-.5-.5-.5s-.5.22-.5.5v1.22h-13.19v-1.18c0-.28-.22-.5-.5-.5s-.5.22-.5.5v1.77s-.01.2-.01.2c0,4,2.45,7.77,6.59,10.25-1.42.85-2.63,1.84-3.62,2.95l-.02.03c-1.89,2.13-2.94,4.65-2.94,7.27,0,4,2.45,7.77,6.59,10.25-1.28.77-2.4,1.67-3.34,2.66l-.09.09c-.97,1.04-1.73,2.18-2.26,3.39l-.04.09c-.52,1.2-.81,2.47-.84,3.76h0s0,.01,0,.01v2.03c0,.28.22.5.5.5s.5-.22.5-.5v-1.53h13.19v1.53c0,.28.22.5.5.5s.5-.22.5-.5v-2.03h0s0-.01,0-.01c-.03-1.29-.33-2.56-.85-3.77l-.03-.07c-.53-1.21-1.3-2.36-2.27-3.4l-.09-.09c-.94-.99-2.06-1.89-3.34-2.66,1.39-.83,2.58-1.8,3.56-2.88h.98c.28,0,.5-.22.5-.5v-1.48s0-.01,0-.01c.37-.11.72-.26,1.06-.44l1.06,1.06c.19.19.51.19.71,0l1.57-1.57c.09-.09.15-.22.15-.35s-.05-.26-.15-.35l-1.06-1.06c.19-.34.33-.7.45-1.07h1.5c.28,0,.5-.23.5-.5v-2.22c0-.28-.22-.5-.5-.5ZM29.48,4.83c-.02.93-.19,1.85-.5,2.73h-12.2c-.31-.89-.48-1.8-.5-2.73h13.2ZM17.21,8.56h11.35c-.52,1.1-1.25,2.13-2.18,3.08l-.12-.03h-6.75l-.12.03c-.92-.95-1.66-1.98-2.18-3.08ZM20.43,12.61h4.9c-.74.61-1.54,1.18-2.45,1.68-.9-.5-1.71-1.07-2.45-1.68ZM22.88,15.43c1.18.65,2.21,1.41,3.1,2.24h-6.2c.89-.84,1.92-1.59,3.1-2.24ZM18.82,18.67h6.89v.99c-.37.11-.73.26-1.07.45l-1.06-1.06c-.2-.19-.51-.19-.71,0l-1.57,1.57c-.09.09-.15.22-.15.35v.03s-3.89,0-3.89,0c.4-.82.93-1.6,1.56-2.33ZM16.85,28.25c-.32-.86-.51-1.74-.56-2.64h3.63v.57c0,.28.22.5.5.5h1.49c.11.37.26.73.45,1.07l-.49.49h-5.02ZM20.42,23.46c-.28,0-.5.22-.5.5v.65h-3.63c.05-.89.24-1.76.54-2.6h5.13s.39.38.39.38c-.19.34-.34.7-.45,1.07h-1.49ZM21.17,29.25c.02.1.05.2.13.27l1.57,1.57c.2.2.51.2.71,0l1.06-1.06c.34.19.7.34,1.07.45v.99s-6.95,0-6.95,0c-.59-.7-1.1-1.45-1.48-2.23h3.89ZM16.31,44.86c.07-.9.28-1.77.61-2.62h11.91c.33.84.54,1.72.61,2.62h-13.13ZM17.39,41.25c.43-.82.98-1.61,1.65-2.34h7.67c.67.73,1.22,1.52,1.65,2.34h-10.97ZM25.69,37.91h-5.63c.82-.73,1.76-1.39,2.81-1.98,1.06.58,1.99,1.25,2.82,1.98ZM22.88,34.79c-1.21-.67-2.27-1.45-3.18-2.32h6.35c-.9.86-1.97,1.65-3.18,2.32ZM33.73,25.68h-1.38c-.23,0-.44.17-.49.4-.12.53-.33,1.03-.62,1.49-.13.2-.1.46.07.62l.98.98-.86.86-.98-.98c-.17-.17-.42-.19-.62-.07-.46.3-.96.5-1.49.62-.23.05-.39.25-.39.49v1.38s-1,0-1,0h-.22v-1.38c0-.23-.17-.44-.4-.49-.53-.12-1.03-.33-1.49-.62-.2-.12-.46-.1-.62.07l-.98.98-.86-.86.98-.98c.17-.17.19-.42.07-.62-.29-.46-.5-.96-.62-1.49-.05-.23-.25-.39-.49-.39h-1.38v-1.22h1.38c.23,0,.44-.17.49-.4.12-.53.33-1.03.62-1.49.13-.2.1-.46-.07-.62l-.98-.98.86-.86.98.98c.17.16.42.19.62.07.46-.29.96-.5,1.49-.62.23-.05.39-.25.39-.49v-1.38s.46,0,.46,0h.76v1.38c0,.23.17.44.4.49.53.12,1.03.33,1.49.62.2.13.46.1.62-.07l.98-.98.86.86-.98.98c-.17.17-.19.42-.07.62.29.46.5.96.62,1.49.05.23.25.39.49.39h1.38v1.22Z"/>
        <path d="M27.32,22.19c-1.59,0-2.88,1.29-2.88,2.88s1.29,2.88,2.88,2.88,2.88-1.29,2.88-2.88-1.29-2.88-2.88-2.88ZM27.32,26.95c-1.04,0-1.88-.84-1.88-1.88s.84-1.88,1.88-1.88,1.88.84,1.88,1.88-.84,1.88-1.88,1.88Z"/>
      </g>
    </g>
  </g>
  <g id="Labels">
    <text class="cls-1" transform="translate(0 54.95)"><tspan x="0" y="0">Genetic Engineering</tspan></text>
  </g>
</svg>