<svg xmlns="http://www.w3.org/2000/svg" viewBox="0 0 50 50"><g id="b085ca68-972f-436e-8e6f-9e0af78cd740" data-name="ICONS"><path d="M34.4,27.18l-9.53,6.13L17.2,28.19a7.25,7.25,0,0,0-3,5.92V49.77H39.41V34.11A7.3,7.3,0,0,0,34.4,27.18ZM21,41.42,18.94,43.1l-2.08-1.68V29.16L21,31.94Zm12.19,0L31.13,43.1l-2.08-1.68V31.81l4.16-2.68Z" fill="#fdd600"/><path d="M36.72,26.66a.52.52,0,0,0-.14-.41,8.59,8.59,0,0,0-5.65-2.51.52.52,0,0,0-.28.06l-.46.27H19.56l-.43-.25a.53.53,0,0,0-.28-.07,8.67,8.67,0,0,0-2.84.72,8.18,8.18,0,0,0-2.52,1.72.46.46,0,0,0-.15.4.43.43,0,0,0,.13.27,8.27,8.27,0,0,0-2.09,5.5V48.52a.5.5,0,0,0,.5.5H38.12a.5.5,0,0,0,.5-.5V32.36a8.28,8.28,0,0,0-2-5.43A.49.49,0,0,0,36.72,26.66ZM18.44,48V44l.18.15a.54.54,0,0,0,.32.11.51.51,0,0,0,.31-.11l2.58-2.08a.51.51,0,0,0,.19-.39v-9l2.56,1.71a.51.51,0,0,0,.28.09.5.5,0,0,0,.27-.08l2.92-1.88v9.21a.51.51,0,0,0,.19.39l2.58,2.08a.51.51,0,0,0,.31.11.54.54,0,0,0,.32-.11l.18-.15v4Zm6.18-19.87a.5.5,0,0,0,.5,0l5.9-3.4a7.55,7.55,0,0,1,2.94.81,7.81,7.81,0,0,1,1.45,1L24.87,33.31,14.65,26.48a7.5,7.5,0,0,1,1.77-1.1,7.71,7.71,0,0,1,2.35-.62Zm-7.76,1L21,31.94v9.48L18.94,43.1l-2.08-1.68ZM29.05,41.42V31.81l4.16-2.68V41.42L31.13,43.1ZM24.87,27.14l-3.58-2.07h7.17ZM12.38,32.36a7.3,7.3,0,0,1,1.9-4.92l1.58,1.06V41.66a.53.53,0,0,0,.18.39l1.4,1.12V48H12.38ZM37.62,48h-5V43.17L34,42.05a.53.53,0,0,0,.18-.39V28.49l1.55-1a7.23,7.23,0,0,1,1.86,4.86Z" fill="#231f20"/><path d="M19.72,8.57v1.81a32,32,0,0,1,5.16-.44,34.76,34.76,0,0,1,6.6.66c.1.16.17.34.26.51.72.1,1.41.2,2.07.32l0-3L34.22,8l5.3-1.22L27.75,3,14,6.54l5.32,1.55A.5.5,0,0,1,19.72,8.57Z" fill="#fdd600"/><path d="M39.78,4.6,26.14.25a.53.53,0,0,0-.28,0l-15.62,4a.49.49,0,0,0-.37.48.5.5,0,0,0,.36.49l6.71,1.94v-1L12.26,4.79,26,1.25,37.74,5,33.06,6.08v1l3.21-.74v5.08a1.06,1.06,0,0,0-.59,1,.86.86,0,0,0,0,.16.49.49,0,0,0,0,.12v1.79a.5.5,0,0,0,.5.5h1.18a.5.5,0,0,0,.5-.5V12.67a.52.52,0,0,0,0-.11.88.88,0,0,0,0-.17,1.08,1.08,0,0,0-.59-1V6.22s0-.06,0-.08l2.49-.58a.5.5,0,0,0,.39-.47A.48.48,0,0,0,39.78,4.6Z" fill="#231f20"/><path d="M33.06,5a.52.52,0,0,0-.37-.49,30.06,30.06,0,0,0-7.67-1,29.67,29.67,0,0,0-7.71,1,.52.52,0,0,0-.37.49v5.27a.51.51,0,0,0,.19.39.6.6,0,0,0,.16.08,8.55,8.55,0,1,0,15.41,0,.49.49,0,0,0,.17-.06.51.51,0,0,0,.19-.39V5ZM25,22a7.56,7.56,0,0,1-7.55-7.56,7.46,7.46,0,0,1,1.07-3.86,31.72,31.72,0,0,1,6.36-.66,34.76,34.76,0,0,1,6.6.66,7.46,7.46,0,0,1,1.07,3.86A7.56,7.56,0,0,1,25,22ZM24.88,8.94a33.74,33.74,0,0,0-6.94.74V5.42A30.35,30.35,0,0,1,25,4.55a28.82,28.82,0,0,1,7,.87V9.68A34,34,0,0,0,24.88,8.94Z" fill="#231f20"/></g><g id="ef1e4189-6ee3-4dc6-8a64-af763e0e855b" data-name="LABELS"><text transform="translate(-0.1 54.9)" font-size="6" fill="#231f20" font-family="Roboto-Regular, Roboto">g<tspan x="3.37" y="0" letter-spacing="-0.02em">r</tspan><tspan x="5.28" y="0">aduate</tspan></text></g></svg>