<svg xmlns="http://www.w3.org/2000/svg" viewBox="0 0 50 50"><g id="a4907deb-53c8-4265-81ac-4f34bc1c6e34" data-name="ICONS"><path d="M26.34,15.08,4.45,20.82l10.1,2v9.12a47.52,47.52,0,0,1,24.08,0v-9l10-2.46Z" fill="#fdd600"/><path d="M49.4,18.47,25,12.58a.49.49,0,0,0-.24,0L.59,18.91a.49.49,0,0,0-.37.5.48.48,0,0,0,.4.47l4.27.84V32.54a1.08,1.08,0,0,0-.61,1,1.14,1.14,0,0,0,.16.55H4.27v3.37H6.5V34.06H6.33a1,1,0,0,0,.17-.55,1.12,1.12,0,0,0-.62-1V20.92l6.16,1.21v9a.5.5,0,0,0,.63.49,45.84,45.84,0,0,1,12.61-1.69A46.52,46.52,0,0,1,37.5,31.58h.13a.49.49,0,0,0,.5-.5V22.23L49.4,19.44a.48.48,0,0,0,.38-.48A.5.5,0,0,0,49.4,18.47Zm-12.27,12a48,48,0,0,0-11.84-1.55,47.12,47.12,0,0,0-12.24,1.55v-9.3a41.68,41.68,0,0,1,12-1.81h0a41.2,41.2,0,0,1,12,1.81Zm1-9.24v-.42a.5.5,0,0,0-.35-.48,42.33,42.33,0,0,0-12.69-2h0a42.46,42.46,0,0,0-12.66,2,.5.5,0,0,0-.35.48v.33L3,19.32l21.89-5.74L47.18,19Z" fill="#231f20"/></g><g id="a2b4a2a7-5fb7-4e87-a088-de07244d60b9" data-name="LABELS"><text transform="translate(0 54.9)" font-size="6" fill="#231f20" font-family="Roboto-Regular, Roboto">g<tspan x="3.37" y="0" letter-spacing="-0.02em">r</tspan><tspan x="5.28" y="0">aduation-cap</tspan></text></g></svg>