<svg id="b0ca342b-5b1f-463a-a973-237946b75f88" data-name="ICONS" xmlns="http://www.w3.org/2000/svg" viewBox="0 0 50 50"><path d="M7.18,28.57c-1.59,1.36-2.76,6-3.31,13A37.82,37.82,0,0,0,8.15,36a.78.78,0,0,1,.68-.39.75.75,0,0,1,.26,0,.77.77,0,0,1,.53.86l-.81,5.77a22.6,22.6,0,0,0,3.37-4.52.79.79,0,0,1,1.49.45l-.31,3.1a24.77,24.77,0,0,0,3.34-5.09.78.78,0,0,1,.87-.46.8.8,0,0,1,.65.75l.19,3.33a104.35,104.35,0,0,0,7.28-10.73C17.61,27.84,8.83,27.15,7.18,28.57Z" fill="#fdd600"/><path d="M36.21,11c-2,.81-5.43,8.93-8,16.71a100.79,100.79,0,0,0,12.88-1.55L38.24,24.5A.79.79,0,0,1,38.69,23a25.27,25.27,0,0,0,6-.64l-2.89-1.14a.8.8,0,0,1-.49-.9.78.78,0,0,1,.77-.64,22.65,22.65,0,0,0,5.57-.91l-5.5-1.93a.8.8,0,0,1-.53-.87.78.78,0,0,1,.74-.68A37.58,37.58,0,0,0,49.26,14c-5.09-2.14-9-3.25-11.44-3.25A4.35,4.35,0,0,0,36.21,11Z" fill="#fdd600"/><path d="M13.47,17.59c1.66,0,4.38-1.34,6.08-2.38,2.29-1.4,5.92-4.16,5-5.68h0c-.92-1.51-5,.44-7.33,1.84a20,20,0,0,0-3.89,3c-1.12,1.15-1.49,2.06-1.1,2.69A1.36,1.36,0,0,0,13.47,17.59Zm4.26-5.37A13.61,13.61,0,0,1,23.33,10a.59.59,0,0,1,.36.08c.11.43-1.41,2.33-4.66,4.31s-5.65,2.47-6,2.17C12.94,16.11,14.47,14.21,17.73,12.22Z" fill="#231f20"/><path d="M48.44,11.59c-5-2.12-11.48-4.4-14.36-3.24C31,9.62,26.69,22.15,25.46,26a.79.79,0,0,0,.11.71.81.81,0,0,0,.64.33h0a93.93,93.93,0,0,0,13.86-1.71.8.8,0,0,0,.59-.66.81.81,0,0,0-.39-.8l-2.63-1.54a31.76,31.76,0,0,0,6.18-.82A.8.8,0,0,0,44,20l-2.62-1a26.07,26.07,0,0,0,5.48-1.1.79.79,0,0,0,0-1.51l-5.19-1.82a43.37,43.37,0,0,0,6.67-1.39.79.79,0,0,0,.58-.72A.76.76,0,0,0,48.44,11.59Zm-7.79,2a.78.78,0,0,0-.74.68.8.8,0,0,0,.53.87L45.94,17a22.65,22.65,0,0,1-5.57.91.78.78,0,0,0-.77.64.8.8,0,0,0,.49.9L43,20.63a25.27,25.27,0,0,1-6,.64.79.79,0,0,0-.45,1.48l2.88,1.69A100.79,100.79,0,0,1,26.49,26c2.54-7.78,6-15.9,8-16.71A4.35,4.35,0,0,1,36.07,9c2.4,0,6.35,1.11,11.44,3.25A37.58,37.58,0,0,1,40.65,13.56Z" fill="#231f20"/><path d="M24.38,26.46c-3.95-.65-17-2.6-19.6-.4-2.35,2-3.31,8.86-3.7,14.25a.77.77,0,0,0,.47.78.79.79,0,0,0,.91-.19,43.74,43.74,0,0,0,4.29-5.29L6,41.06a.8.8,0,0,0,.44.83.85.85,0,0,0,.35.08.8.8,0,0,0,.57-.24,27,27,0,0,0,3.48-4.38l-.28,2.81a.8.8,0,0,0,1.41.6,31.86,31.86,0,0,0,3.56-5.12l.16,3a.79.79,0,0,0,.53.7.81.81,0,0,0,.87-.21A94.83,94.83,0,0,0,25,27.6a.83.83,0,0,0,0-.72A.79.79,0,0,0,24.38,26.46ZM16.66,38.13l-.19-3.33a.8.8,0,0,0-.65-.75.78.78,0,0,0-.87.46,24.77,24.77,0,0,1-3.34,5.09l.31-3.1a.79.79,0,0,0-1.49-.45,22.22,22.22,0,0,1-3.37,4.52l.81-5.77a.77.77,0,0,0-.53-.86.75.75,0,0,0-.26,0,.78.78,0,0,0-.68.39A37.82,37.82,0,0,1,2.12,39.8c.55-7,1.72-11.62,3.31-13s10.43-.73,18.51.58A104.35,104.35,0,0,1,16.66,38.13Z" fill="#231f20"/></svg>