<?xml version="1.0" encoding="UTF-8"?><svg id="uuid-e5b7ec75-6554-4409-92b5-7894a4e0d7b9" xmlns="http://www.w3.org/2000/svg" viewBox="0 0 50 50"><path d="M45.52,34c1.48-3.06,2.28-6.45,2.28-9.92s-.82-6.92-2.28-9.93l.79-.79c.16-.16,.19-.4,.08-.6C42.07,4.98,33.87,.14,25,.14S7.93,4.98,3.6,12.77c-.11,.2-.07,.44,.08,.6l.79,.79c-1.46,3-2.28,6.37-2.28,9.93s.81,6.86,2.29,9.92c-1.26,.7-1.82,2.25-1.25,3.6l3.2,7.6c.3,.71,.85,1.25,1.56,1.54,.35,.14,.72,.21,1.08,.21s.76-.08,1.11-.23l1.61-.68,.72,1.71c.32,.76,1.07,1.22,1.85,1.22,.26,0,.52-.05,.77-.16l3.75-1.58c1.02-.43,1.49-1.6,1.07-2.62l-7.16-17c-.21-.49-.59-.88-1.09-1.08-.5-.2-1.04-.2-1.53,0l-3.75,1.58c-1.02,.43-1.5,1.6-1.07,2.62l1.01,2.4-.98,.42c-1.42-2.93-2.19-6.15-2.19-9.5s.73-6.38,2.03-9.17l.95,.95c.11,.11,.28,.17,.43,.14,.16-.03,.3-.13,.37-.27,3.43-6.92,10.34-11.23,18.02-11.23s14.59,4.3,18.02,11.23c.07,.14,.21,.25,.37,.27,.03,0,.05,0,.08,0,.13,0,.26-.05,.35-.15l.95-.95c1.3,2.79,2.03,5.9,2.03,9.17s-.77,6.57-2.19,9.5l-.99-.42,1.01-2.4c.21-.49,.21-1.04,0-1.53-.2-.5-.58-.88-1.08-1.09l-3.75-1.58c-.49-.21-1.04-.21-1.53,0-.5,.2-.88,.58-1.09,1.08l-7.16,17c-.43,1.02,.05,2.19,1.07,2.62l3.75,1.58c.25,.1,.51,.16,.78,.16s.51-.05,.75-.15c.49-.2,.88-.58,1.09-1.08l.72-1.71,1.61,.68c.36,.15,.74,.23,1.11,.23s.73-.07,1.08-.21c.71-.29,1.26-.84,1.56-1.54l3.2-7.6c.57-1.36,0-2.9-1.25-3.6ZM6.82,29.06l3.75-1.58c.25-.1,.52-.11,.77,0,.25,.1,.44,.29,.54,.54l7.16,17c.21,.51-.03,1.1-.53,1.31l-3.75,1.58c-.51,.22-1.1-.02-1.31-.53l-.92-2.17h0l-5.04-11.97h0l-1.21-2.86c-.21-.51,.02-1.1,.53-1.31Zm4.6,16.07l-1.61,.68c-.95,.4-2.05-.05-2.45-1l-3.2-7.6c-.4-.95,.05-2.05,1-2.45l1.61-.68,4.65,11.04ZM25,1.14c8.38,0,16.14,4.5,20.34,11.78l-1.74,1.74c-3.7-6.9-10.77-11.17-18.6-11.17S10.1,7.76,6.4,14.67l-1.74-1.74C8.86,5.65,16.62,1.14,25,1.14Zm20.85,36.07l-3.2,7.6c-.19,.46-.56,.82-1.02,1-.46,.19-.97,.19-1.43,0l-1.61-.68,4.65-11.04,1.61,.68c.95,.4,1.4,1.5,1,2.45Zm-10.61,10.7l-3.75-1.58c-.51-.21-.75-.8-.53-1.31l7.16-17c.1-.25,.3-.44,.54-.54,.12-.05,.25-.07,.38-.07s.26,.03,.39,.08l3.75,1.58c.25,.1,.44,.3,.54,.54,.1,.25,.1,.52,0,.77l-1.21,2.86h0l-5.04,11.97h0l-.92,2.17c-.21,.51-.8,.75-1.31,.53Z"/></svg>