<svg xmlns="http://www.w3.org/2000/svg" viewBox="0 0 50 50"><g id="e878d992-c7d3-443a-87f0-8c3894ac71c2" data-name="ICONS"><path d="M3.19,18.92a10.73,10.73,0,0,0,3.15,7.62l17.8,17.8,2-10.51-5.73-5a.5.5,0,0,1-.07-.68L27,19.45,24,13.73l-2.42-2.42A10.77,10.77,0,0,0,3.19,18.92Z" fill="#fdd600"/><path d="M19.94,26.91l6.59-8.61a.5.5,0,0,0,0-.54l-3.23-6.07a.47.47,0,0,0-.09-.12L20.78,9.1A11.77,11.77,0,0,0,4.13,25.75L22.55,44.16a.47.47,0,0,0,.35.15.49.49,0,0,0,.35-.15l.08-.08a.4.4,0,0,0,.14-.26l2.22-11.59a.47.47,0,0,0-.16-.47Zm.13-17.1,2.42,2.42L25.54,18l-6.68,8.73a.5.5,0,0,0,.07.68l5.73,5-2,10.51L4.84,25A10.77,10.77,0,0,1,20.07,9.81Z" fill="#231f20"/><path d="M49.31,18.92a10.77,10.77,0,0,0-18.38-7.61l-2.22,2.21,3.06,5.74a.52.52,0,0,1,0,.54l-6.59,8.61,5.59,4.85a.47.47,0,0,1,.16.47L29,43.72,46.16,26.54A10.73,10.73,0,0,0,49.31,18.92Z" fill="#fdd600"/><path d="M45.37,9.1a11.79,11.79,0,0,0-16.65,0l-2.48,2.47a.5.5,0,0,0-.08.59L29.24,18l-6.68,8.73a.5.5,0,0,0,.07.68l5.73,5-2.17,11.3a.51.51,0,0,0,.26.54.46.46,0,0,0,.23,0,.54.54,0,0,0,.36-.14L45.37,25.75a11.79,11.79,0,0,0,0-16.65Zm-16,23.13a.5.5,0,0,0-.17-.47l-5.59-4.85,6.59-8.61a.52.52,0,0,0,0-.54L27.21,12l2.22-2.21A10.77,10.77,0,0,1,44.66,25L27.48,42.22Z" fill="#231f20"/></g><g id="a2784ce7-4dd6-43b4-bc9d-c23e0beacc48" data-name="LABELS"><text transform="translate(0.08 54.84)" font-size="6" fill="#231f20" font-family="Roboto-Regular, Roboto">hea<tspan x="9.75" y="0" letter-spacing="0.02em">r</tspan><tspan x="11.92" y="0">t-b</tspan><tspan x="18.91" y="0" letter-spacing="-0.01em">r</tspan><tspan x="20.88" y="0">eak</tspan></text></g></svg>