<svg xmlns="http://www.w3.org/2000/svg" viewBox="0 0 50 50"><defs><style>.cls-1{font-size:6px;font-family:Roboto-Regular, Roboto;}.cls-2{letter-spacing:0.02em;}.cls-3{letter-spacing:-0.01em;}</style></defs><g id="ICONS"><path d="M19.94,26.91l6.59-8.61a.5.5,0,0,0,0-.54l-3.23-6.07a.47.47,0,0,0-.09-.12L20.78,9.1A11.77,11.77,0,0,0,4.13,25.75L22.55,44.16a.47.47,0,0,0,.35.15.49.49,0,0,0,.35-.15l.08-.08a.4.4,0,0,0,.14-.26l2.22-11.59a.47.47,0,0,0-.16-.47Zm.13-17.1,2.42,2.42L25.54,18l-6.68,8.73a.5.5,0,0,0,.07.68l5.73,5-2,10.51L4.84,25A10.77,10.77,0,0,1,20.07,9.81Z"/><path d="M45.37,9.1a11.79,11.79,0,0,0-16.65,0l-2.48,2.47a.5.5,0,0,0-.08.59L29.24,18l-6.68,8.73a.5.5,0,0,0,.07.68l5.73,5-2.17,11.3a.51.51,0,0,0,.26.54.46.46,0,0,0,.23,0,.54.54,0,0,0,.36-.14L45.37,25.75a11.79,11.79,0,0,0,0-16.65Zm-16,23.13a.5.5,0,0,0-.17-.47l-5.59-4.85,6.59-8.61a.52.52,0,0,0,0-.54L27.21,12l2.22-2.21A10.77,10.77,0,0,1,44.66,25L27.48,42.22Z"/></g><g id="LABELS"><text class="cls-1" transform="translate(0.08 54.84)">hea<tspan class="cls-2" x="9.75" y="0">r</tspan><tspan x="11.92" y="0">t-b</tspan><tspan class="cls-3" x="18.91" y="0">r</tspan><tspan x="20.88" y="0">eak</tspan></text></g></svg>