<svg id="a96943fb-11b8-45a7-9d18-f3229326e22e" data-name="ICONS" xmlns="http://www.w3.org/2000/svg" viewBox="0 0 50 50"><path d="M26.42,15A11.74,11.74,0,0,0,14.83,25.08a.51.51,0,0,0,.43.56h.07a.49.49,0,0,0,.49-.43A10.74,10.74,0,0,1,26.42,16a.5.5,0,0,0,.5-.5A.51.51,0,0,0,26.42,15Z" fill="none"/><path d="M45,3.51H25.5V1.24a.5.5,0,1,0-1,0V3.51H5.05a.5.5,0,0,0-.5.5.5.5,0,0,0,.5.5H22l-.73,6.35c-4.89.91-9.89,6.22-9.89,10.94V32.15a9.47,9.47,0,0,0,4.54,8.08l-4.05,8H7.93a.5.5,0,0,0-.5.5.51.51,0,0,0,.5.5h4.24a.5.5,0,0,0,.45-.28l4.18-8.27a9.33,9.33,0,0,0,4.08.94h8.27a9.38,9.38,0,0,0,4-.91L37.33,49a.49.49,0,0,0,.44.27H42a.5.5,0,0,0,.5-.5.5.5,0,0,0-.5-.5H38.08l-4-7.95a9.49,9.49,0,0,0,4.59-8.12V21.8c0-5.1-4.75-10.46-9.54-11.06l-.87-6.23H45a.5.5,0,0,0,.5-.5A.5.5,0,0,0,45,3.51Zm-7.3,28.64a8.51,8.51,0,0,1-8.5,8.5H20.88a8.52,8.52,0,0,1-8.5-8.5V30.71a6.26,6.26,0,0,0,5.41,3.5c3.73,0,5.15-2.21,5.57-3.08,1.36,0,3.1,0,3.76,0a5.51,5.51,0,0,0,5.25,3.15,6.28,6.28,0,0,0,5.28-3.15Zm0-10.35v7.06c-.19.59-1.59,4.39-5.23,4.39h0A4.56,4.56,0,0,1,28,30.51a.41.41,0,0,0-.13-.23c-.19-.19-.23-.23-4.81-.15a.51.51,0,0,0-.46.35s-.93,2.73-4.76,2.73-5.27-4.53-5.41-5V21.8c0-4.62,5.59-10.09,10.32-10.09l5.54,0C32.73,11.68,37.65,17,37.65,21.8ZM28.09,10.65H22.3L23,4.51h4.22Z"/><path d="M26.42,15A11.74,11.74,0,0,0,14.83,25.08a.51.51,0,0,0,.43.56h.07a.49.49,0,0,0,.49-.43A10.74,10.74,0,0,1,26.42,16a.5.5,0,0,0,.5-.5A.51.51,0,0,0,26.42,15Z"/></svg>