<svg id="bf5140e4-09e4-41eb-9359-9e98b0c8ec79" data-name="ICONS" xmlns="http://www.w3.org/2000/svg" viewBox="0 0 50 50"><path d="M49.1,7.47c-.36-.63-1.42-1.2-3-1.6C42,4.8,34.93,5.07,31.66,7a19.67,19.67,0,0,0-6.22,6.69.54.54,0,0,1-.34.23.52.52,0,0,1-.4-.09l-.34-.26c-.05,0-5-3.83-9.94-4.58s-7.61.19-8.06,1,1.93,8.38,4.56,12c1,1.36,1.48,1.37,1.57,1.36h.07a.51.51,0,0,1,.48.35.52.52,0,0,1-.25.6,16.35,16.35,0,0,0-5.45,4.47C5,31.75,3.5,39.14,4.3,44c.3,1.77.87,3,1.66,3.48a4.9,4.9,0,0,0,3.36.07c4.17-.93,10.34-4.4,12.35-7.64a18.34,18.34,0,0,0,2.27-6.77.51.51,0,0,1,.34-.41.52.52,0,0,1,.52.14c.09.09,4.36,4.69,9.06,6.25s7.53,1.13,8.11.45c.61-.88-1-9.74-3.19-13.33-.5-.81-.89-1.07-1.09-1a.51.51,0,0,1-.57-.42.5.5,0,0,1,.42-.57l.15,0a.53.53,0,0,1,.15-.08,14.49,14.49,0,0,0,1.49-.6C42.81,21.87,47.51,16,49,11.3,49.53,9.6,49.57,8.28,49.1,7.47Zm-27,16.26,0,.06-.16.29-.06.09c0,.08-.09.15-.14.23l-.11.15c-.05.06-.09.13-.14.2l-.13.15-.17.21-.12.13-.23.23a.6.6,0,0,0-.08.08l-.32.29h0a4.91,4.91,0,0,1-.51.39l-.44.3a8.24,8.24,0,0,1-5.88,1.26,2.22,2.22,0,0,1-.95-.45.8.8,0,0,1-.15-.18c-.27-.46.08-2.52,1.21-4.28l0,0a2.75,2.75,0,0,1,.19-.28l.11-.16a6.7,6.7,0,0,1,1.1-1.16h0a4.73,4.73,0,0,1,.89-.59,9.38,9.38,0,0,1,4-1.08v0a3.1,3.1,0,0,0,.1.76c0,.06,0,.12,0,.17a2.37,2.37,0,0,0,.15.4A10.49,10.49,0,0,0,15,24.8a.5.5,0,0,0,.15.69.54.54,0,0,0,.27.07.48.48,0,0,0,.42-.23c.9-1.41,3.77-3.53,5-3.45a.51.51,0,0,0,.21,0,2.53,2.53,0,0,0,.32.21l.24.11a3,3,0,0,0,.45.17l.28.08.2,0A6.35,6.35,0,0,1,22.05,23.73ZM30.94,16a7.47,7.47,0,0,1-3.33,4.48,9,9,0,0,1-4.47,1.05,4.55,4.55,0,0,1-.6-.42.48.48,0,0,0,.11-.09c.91-1.44,3.46-3.38,4.71-3.32a.5.5,0,0,0,0-1c-1.76-.1-4.57,2.2-5.57,3.74l0-.05a3.74,3.74,0,0,1-.28-3,7,7,0,0,1,2.66-2.81,9.1,9.1,0,0,1,4.64-1.4,5,5,0,0,1,1.25.14,1.7,1.7,0,0,1,1.07.63A3.42,3.42,0,0,1,30.94,16Z" fill="#fdd600"/><path d="M48.21,5.47c-.51-.89-1.71-1.58-3.58-2.07C40.29,2.28,33,2.53,29.39,4.68a20.29,20.29,0,0,0-6.27,6.55c-.77-.57-5.48-4-10.3-4.69C7.59,5.76,4.49,6.69,3.75,8c-.9,1.52,2.2,9.52,4.33,12.7a7.06,7.06,0,0,0,1.53,1.74A17.22,17.22,0,0,0,4.8,26.62c-2.55,3.25-4.09,10.87-3.24,16,.35,2.09,1.06,3.49,2.1,4.16a3.58,3.58,0,0,0,2,.48A10.08,10.08,0,0,0,7.79,47c4.37-1,10.77-4.54,13-8.09A18.69,18.69,0,0,0,23,32.72c1.41,1.39,4.9,4.52,8.78,5.81,5,1.67,8.22,1.28,9.19.15,1.18-1.38-.9-10.57-2.88-14.12a5.69,5.69,0,0,0-.93-1.31c.28-.11.55-.23.83-.36,3.75-1.73,8.61-7.83,10.19-12.78C48.82,8.1,48.83,6.54,48.21,5.47Zm-39,15c-2.63-3.62-5-11.11-4.56-12s3-1.69,8.06-.94c4.83.73,9.74,4.42,9.93,4.56a18.46,18.46,0,0,0-2.05,5,5.82,5.82,0,0,0-.38,1c-.55-1.34-4.29-4.57-5-5.13a14.39,14.39,0,0,0-6.21-2.4.5.5,0,0,0,0,1,13.79,13.79,0,0,1,5.63,2.2c1,.79,4.37,3.81,4.72,4.73,0,0,.05.07.08.1a10.41,10.41,0,0,0-3.84,1.16,5.2,5.2,0,0,0-1,.65,17.07,17.07,0,0,0-3.82,1.42C10.53,21.82,10,21.68,9.17,20.47Zm22-6.5a3.42,3.42,0,0,1-.18,2,7.47,7.47,0,0,1-3.33,4.48,9,9,0,0,1-4.47,1.05,4.55,4.55,0,0,1-.6-.42.48.48,0,0,0,.11-.09c.91-1.44,3.46-3.38,4.71-3.32a.5.5,0,0,0,0-1c-1.76-.1-4.57,2.2-5.57,3.74l0-.05a3.74,3.74,0,0,1-.28-3,7,7,0,0,1,2.66-2.81,9.1,9.1,0,0,1,4.64-1.4,5,5,0,0,1,1.25.14A1.7,1.7,0,0,1,31.12,14ZM21.8,24.17c0,.08-.09.15-.14.23l-.11.15c-.05.06-.09.13-.14.2l-.13.15-.17.21-.12.13-.23.23a.6.6,0,0,0-.08.08l-.32.29h0a4.91,4.91,0,0,1-.51.39l-.44.3a8.24,8.24,0,0,1-5.88,1.26,2.22,2.22,0,0,1-.95-.45.8.8,0,0,1-.15-.18c-.27-.46.08-2.52,1.21-4.28l0,0a2.75,2.75,0,0,1,.19-.28l.11-.16a6.7,6.7,0,0,1,1.1-1.16h0a4.73,4.73,0,0,1,.89-.59,9.38,9.38,0,0,1,4-1.08v0a3.1,3.1,0,0,0,.1.76c0,.06,0,.12,0,.17a2.37,2.37,0,0,0,.15.4A10.49,10.49,0,0,0,15,24.8a.5.5,0,0,0,.15.69.54.54,0,0,0,.27.07.48.48,0,0,0,.42-.23c.9-1.41,3.77-3.53,5-3.45a.51.51,0,0,0,.21,0,2.53,2.53,0,0,0,.32.21l.24.11a3,3,0,0,0,.45.17l.28.08.2,0a6.35,6.35,0,0,1-.45,1.26l0,.06-.16.29Zm-1.88,14.2c-2,3.24-8.18,6.71-12.35,7.64a4.89,4.89,0,0,1-3.36-.07c-.79-.51-1.36-1.71-1.66-3.48-.8-4.82.67-12.21,3-15.22A16.52,16.52,0,0,1,11,22.78h.05a.49.49,0,0,0,.2-.11,16.17,16.17,0,0,1,1.87-.8C11.6,23.94,11,26.7,11.55,27.66a1.93,1.93,0,0,0,.28.36,2.53,2.53,0,0,0,.84.54C9,30.79,6.06,38.86,5.29,42a.5.5,0,0,0,.37.6l.12,0a.51.51,0,0,0,.49-.39c.9-3.73,4.5-12.84,8-13.24a.44.44,0,0,0,.19-.07h.27a9.16,9.16,0,0,0,1.33-.11l.16,0a6.86,6.86,0,0,0,.73-.16l.09,0c.29-.08.58-.17.87-.28l.12,0,.76-.33.19-.09c.29-.15.59-.3.89-.49l0,0a8,8,0,0,0,.82-.57l.2-.16c.22-.19.43-.38.63-.59l.12-.11c.19-.21.38-.42.55-.65a21.45,21.45,0,0,1-.08,6.33A18.29,18.29,0,0,1,19.92,38.37ZM40.21,38c-.57.68-3.29,1.16-8.1-.44-4.23-1.41-8.1-5.26-8.9-6.09A21,21,0,0,0,23,24a6.41,6.41,0,0,0,.39-1.14,13.88,13.88,0,0,0,2.53,1l.07,0c1.7.56,4.57,3.53,5.25,4.46s3.14,4.86,3.22,5.84a.5.5,0,0,0,.5.46h0a.5.5,0,0,0,.46-.54c-.11-1.4-2.86-5.61-3.42-6.36a22.81,22.81,0,0,0-3.39-3.39,16.26,16.26,0,0,0,2,.13,18,18,0,0,0,5.27-.8h0c.2,0,.58.22,1.08,1C39.26,28.29,40.83,37.16,40.21,38Zm7-28.23C45.75,14.46,41.06,20.38,37.58,22c-.49.22-1,.42-1.49.59h0a16.69,16.69,0,0,1-11.18-.16,10.89,10.89,0,0,0,3.15-1h0a8.57,8.57,0,0,0,3.84-5.09c.17-.59.53-2.06.09-2.82a2.23,2.23,0,0,0-.58-.61C33.48,10.64,39,7.39,42.07,7.5A.48.48,0,0,0,42.58,7a.5.5,0,0,0-.48-.52c-3.57-.11-9.58,3.5-11.65,5.92l-.15-.05a9.29,9.29,0,0,0-6.66,1.37,8.72,8.72,0,0,0-1.24.93,21.13,21.13,0,0,1,1.3-2.47,19.67,19.67,0,0,1,6.21-6.67c3.27-2,10.33-2.23,14.47-1.16,1.55.4,2.61,1,3,1.6C47.81,6.78,47.77,8.1,47.23,9.8Z" fill="#231f20"/></svg>