<?xml version="1.0" encoding="UTF-8"?><svg id="uuid-bc3af6d6-9f68-4359-9da9-db60619f9ebb" xmlns="http://www.w3.org/2000/svg" viewBox="0 0 50 50"><path d="M41.8,10.65c.5,0,.91.41.91.92s-.41.91-.91.91-.92-.41-.92-.91.41-.92.92-.92Z" stroke-width="0"/><path d="M32.1,17.09c.8,2.35.69,4.35-.33,5.77-.91,1.27-2.47,1.96-4.52,2.05v6.67c2.05,0,4.38-.15,6.76-.58.23-.04.45.08.54.28.93,2.01,1.87,3.4,2.77,4.15.12.09.18.23.19.38l.18,10.29h2.89l-1.11-2.87c-.02-.06-.03-.14-.03-.21l.41-5.67.97-5.94c.46-4.79-1.18-8.65-1.2-8.68-.02-.07-.04-.13-.04-.2-.01-2.81.23-5.03.71-6.62.04-.13.13-.23.25-.3.12-.06.26-.07.39-.03.45.15,1.02.42,1.74.75.87.41,1.95.9,3.17,1.36l2.06-2.06c-1.06-2.27-2.92-5.37-4.94-7.09-.16-.14-.22-.36-.14-.56.51-1.29.13-2.88-.4-3.98-1,.39-2,1.59-2.63,2.65-.05.09-.13.16-.23.2-2.23,1-6.15,3.65-7.46,10.24ZM28.85,16.96c.74-.05,1.5-.13,2.31-.28,1.41-6.74,5.45-9.57,7.85-10.68.26-.41.67-1,1.19-1.57-6.69.39-10.71,6.38-11.35,12.53ZM30.96,22.28c.78-1.1.87-2.69.28-4.61-3.52.65-6.43.26-8.88-.28-.58,2.05-.48,3.79.32,4.9.77,1.07,2.14,1.62,4.08,1.63,1.94,0,3.41-.55,4.2-1.64ZM12.63,19.19c-1.31,2.35-.44,4.91.46,6.88,1.59,3.47,1.49,7.23-.31,11.49l.61,8.54h2.66l-1.07-2.78c-.02-.07-.03-.14-.03-.21l.29-4.46c.01-.11.06-.22.13-.3,2.32-2.55,3.85-5.14,4.1-6.93.02-.13.09-.26.21-.34.11-.08.25-.11.38-.08.04.01,2.58.49,6.19.57v-6.67c-2.01-.11-3.49-.79-4.38-2.02-.99-1.38-1.15-3.35-.48-5.71-.31-.07-.61-.14-.9-.21-.73-.18-1.41-.35-2.05-.47-1.58-.31-2.76-.14-3.83.56-.19.12-.44.1-.61-.05-1.64-1.52-6.47-4.12-8.39-2.26-1.07,1.05-1.16,2.6-1.26,4.4-.12,2.07-.25,4.39-1.85,6.64,4.11-.23,5.5-5.47,5.92-7.84.05-.26.3-.43.55-.41,1.24.13,2.9.53,3.53,1.02.2.15.25.42.13.64ZM9.32,18.58c-.61,3.01-2.5,8.81-7.88,8.16-.18-.02-.34-.15-.41-.32-.06-.17-.03-.37.09-.51,1.97-2.23,2.11-4.67,2.23-6.83.11-1.92.21-3.74,1.56-5.05,2.57-2.5,7.74.56,9.48,1.98,1.2-.67,2.56-.83,4.24-.51.66.13,1.35.3,2.1.48,1.98.49,4.32,1.06,7.1,1.03.67-7,5.48-13.88,13.5-13.61.02,0,.03.01.05.02.37-.24.77-.42,1.2-.51.21-.04.43.06.53.25.72,1.26,1.26,3.16.76,4.85,2.13,1.93,4.01,5.12,5.09,7.53.08.19.04.41-.11.55l-2.53,2.53c-.14.14-.34.18-.52.12-1.39-.5-2.59-1.05-3.55-1.5-.43-.2-.81-.38-1.14-.52-.36,1.43-.53,3.35-.53,5.71.27.66,1.69,4.4,1.23,9.11l-.97,5.93-.39,5.51,1.33,3.44c.06.15.04.32-.05.46-.1.14-.25.22-.42.22h-4.11c-.28,0-.5-.22-.5-.49l-.19-10.56c-.92-.82-1.81-2.14-2.7-4-6.18,1.05-11.77.29-13.44.02-.45,1.91-1.93,4.36-4.14,6.82l-.27,4.17,1.28,3.36c.06.15.04.33-.06.46-.09.14-.24.22-.41.22h-3.84c-.27,0-.48-.21-.5-.47l-.65-9.12c0-.08,0-.16.03-.23,1.73-4.03,1.85-7.56.37-10.79-.95-2.07-1.85-4.74-.65-7.34-.49-.21-1.32-.44-2.21-.57Z" stroke-width="0"/></svg>