<svg xmlns="http://www.w3.org/2000/svg" viewBox="0 0 50 50"><g id="b4cd6d8b-e4a7-4423-9ef2-edbf376ab2c6" data-name="ICONS"><path d="M44.47,34.46A8.89,8.89,0,0,0,42,28.32V11.17s0,0,0-.06,0,0,0-.07a.59.59,0,0,0-.12-.22h0L31.72.67h0A.48.48,0,0,0,31.5.55H6a.5.5,0,0,0-.5.5V48.22a.5.5,0,0,0,.5.5H41.51a.5.5,0,0,0,.5-.5V40.6A8.91,8.91,0,0,0,44.47,34.46ZM6.53,47.72V1.53H30.87v9.64a.5.5,0,0,0,.5.5H41V27.42a8.83,8.83,0,0,0-5.46-1.88A8.92,8.92,0,1,0,41,41.5v6.22Zm29-5.34a7.92,7.92,0,1,1,7.92-7.92A7.93,7.93,0,0,1,35.55,42.38ZM40.3,10.67H31.87V2.23Z"/><path d="M39.32,30.05a.49.49,0,0,0-.68.18l-4.29,7.33-1.93-2.35a.5.5,0,0,0-.77.63L34,38.75a.49.49,0,0,0,.39.19h0a.54.54,0,0,0,.4-.25l4.65-8A.49.49,0,0,0,39.32,30.05Z"/><path d="M11.77,25.13H28.12a.51.51,0,0,0,.5-.5.5.5,0,0,0-.5-.5H11.77a.5.5,0,0,0-.5.5A.51.51,0,0,0,11.77,25.13Z"/><path d="M11.77,32.83H22.82a.5.5,0,0,0,0-1h-11a.5.5,0,1,0,0,1Z"/><path d="M23.66,39.54H11.77a.5.5,0,0,0-.5.5.51.51,0,0,0,.5.5H23.66a.5.5,0,0,0,.5-.5A.5.5,0,0,0,23.66,39.54Z"/><path d="M39.32,30.05a.49.49,0,0,0-.68.18l-4.29,7.33-1.93-2.35a.5.5,0,0,0-.77.63L34,38.75a.49.49,0,0,0,.39.19h0a.54.54,0,0,0,.4-.25l4.65-8A.49.49,0,0,0,39.32,30.05Z"/><path d="M11.94,15.42h3.73v3.73a.5.5,0,0,0,.5.5h4.31a.5.5,0,0,0,.5-.5V15.42h3.73a.5.5,0,0,0,.5-.5V10.6a.5.5,0,0,0-.5-.5H21V6.37a.5.5,0,0,0-.5-.5H16.17a.5.5,0,0,0-.5.5V10.1H11.94a.5.5,0,0,0-.5.5v4.32A.5.5,0,0,0,11.94,15.42Zm.5-4.32h3.73a.5.5,0,0,0,.5-.5V6.87H20V10.6a.5.5,0,0,0,.5.5h3.73v3.32H20.48a.5.5,0,0,0-.5.5v3.73H16.67V14.92a.5.5,0,0,0-.5-.5H12.44Z"/></g><g id="aab10263-958c-4902-b844-1fa715088a97" data-name="LABELS"><text transform="translate(0.46 54.96)" font-size="6" font-family="Roboto-Regular, Roboto">hospital-bill-checklist</text></g></svg>