<?xml version="1.0" encoding="UTF-8"?><svg xmlns="http://www.w3.org/2000/svg" viewBox="0 0 50 50"><g id="uuid-f065e605-44e3-4f57-b211-d9a92cfe1911"><path d="M44.47,34.46c0-2.38-.94-4.54-2.46-6.14V11.17s0-.04-.01-.06c0-.02,0-.04-.01-.06-.02-.08-.06-.16-.12-.22h0L31.72,.67h0c-.06-.06-.14-.1-.22-.12-.02,0-.04-.01-.07-.01-.02,0-.04-.01-.06-.01H6.03c-.28,0-.5,.22-.5,.5V48.22c0,.28,.22,.5,.5,.5H41.51c.28,0,.5-.22,.5-.5v-7.63c1.52-1.6,2.46-3.76,2.46-6.14ZM6.53,47.72V1.53H30.87V11.17c0,.28,.22,.5,.5,.5h9.64v15.75c-1.51-1.17-3.4-1.88-5.46-1.88-4.92,0-8.92,4-8.92,8.92s4,8.92,8.92,8.92c2.06,0,3.95-.71,5.46-1.88v6.22H6.53Zm29.03-5.34c-4.37,0-7.92-3.55-7.92-7.92s3.55-7.92,7.92-7.92,7.92,3.55,7.92,7.92-3.55,7.92-7.92,7.92Zm4.75-31.71h-8.44V2.23l8.44,8.44Z"/><path d="M39.32,30.05c-.24-.14-.54-.06-.68,.18l-4.29,7.34-1.92-2.36c-.17-.21-.49-.25-.7-.07-.21,.17-.25,.49-.07,.7l2.38,2.91c.1,.12,.24,.18,.39,.18h.04c.16-.01,.31-.11,.39-.25l4.65-7.96c.14-.24,.06-.54-.18-.68Z"/><path d="M11.77,25.13H28.12c.28,0,.5-.22,.5-.5s-.22-.5-.5-.5H11.77c-.28,0-.5,.22-.5,.5s.22,.5,.5,.5Z"/><path d="M11.77,32.83h11.05c.28,0,.5-.22,.5-.5s-.22-.5-.5-.5H11.77c-.28,0-.5,.22-.5,.5s.22,.5,.5,.5Z"/><path d="M23.66,39.54H11.77c-.28,0-.5,.22-.5,.5s.22,.5,.5,.5h11.89c.28,0,.5-.22,.5-.5s-.22-.5-.5-.5Z"/><path d="M39.32,30.05c-.24-.14-.54-.06-.68,.18l-4.29,7.34-1.92-2.36c-.17-.21-.49-.25-.7-.07-.21,.17-.25,.49-.07,.7l2.38,2.91c.1,.12,.24,.18,.39,.18h.04c.16-.01,.31-.11,.39-.25l4.65-7.96c.14-.24,.06-.54-.18-.68Z"/><path d="M11.94,15.42h3.73v3.73c0,.28,.22,.5,.5,.5h4.31c.28,0,.5-.22,.5-.5v-3.73h3.73c.28,0,.5-.22,.5-.5v-4.31c0-.28-.22-.5-.5-.5h-3.73v-3.73c0-.28-.22-.5-.5-.5h-4.31c-.28,0-.5,.22-.5,.5v3.73h-3.73c-.28,0-.5,.22-.5,.5v4.31c0,.28,.22,.5,.5,.5Zm.5-4.31h3.73c.28,0,.5-.22,.5-.5v-3.73h3.31v3.73c0,.28,.22,.5,.5,.5h3.73v3.31h-3.73c-.28,0-.5,.22-.5,.5v3.73h-3.31v-3.73c0-.28-.22-.5-.5-.5h-3.73v-3.31Z"/></g><g id="uuid-fe5069fd-9da3-4e8f-8e9b-223616df81b8"><text transform="translate(.46 54.96)" font-family="Roboto-Regular, Roboto" font-size="6"><tspan x="0" y="0">hospital-bill-checklist</tspan></text></g></svg>