<?xml version="1.0" encoding="UTF-8"?>
<svg xmlns="http://www.w3.org/2000/svg" viewBox="0 0 50 50">
  <defs>
    <style>
      .cls-1 {
        fill: #1f1c1d;
      }

      .cls-2 {
        fill: #ffcd00;
      }

      .cls-3 {
        fill: #221f1f;
        font-family: Roboto-Regular, Roboto;
        font-size: 5px;
      }

      .cls-4 {
        letter-spacing: -.02em;
      }

      .cls-5 {
        letter-spacing: 0em;
      }
    </style>
  </defs>
  <g id="Gold_Offset">
    <g>
      <path class="cls-2" d="M41.84,29.52c.05-.23.25-.39.49-.39h5.62v-6.24h-5.61c-.23,0-.44-.16-.49-.39-.41-1.84-1.13-3.6-2.16-5.21-.13-.2-.1-.46.07-.62l3.97-3.99-4.4-4.4-3.97,3.97c-.17.17-.42.2-.62.07-1.61-1.03-3.36-1.76-5.21-2.17-.23-.05-.39-.25-.39-.49v-5.62h-6.24v5.61c0,.23-.16.44-.39.49-1.84.41-3.6,1.13-5.21,2.16-.2.13-.45.1-.62-.07l-3.99-3.97-4.4,4.4,3.97,3.97c.17.17.19.42.07.62-1.03,1.61-1.76,3.36-2.17,5.21-.05.23-.25.39-.49.39h-5.62v6.24h5.61c.23,0,.44.16.49.39.41,1.84,1.13,3.6,2.16,5.21.13.2.1.46-.07.62l-3.97,3.99,4.4,4.4,3.97-3.97c.17-.17.42-.2.62-.07,1.61,1.03,3.36,1.76,5.21,2.17.23.05.39.25.39.49v5.62h6.24v-5.61c0-.23.16-.44.39-.49,1.85-.41,3.6-1.13,5.21-2.16.2-.13.46-.1.62.07l3.99,3.97,4.4-4.4-3.97-3.97c-.17-.17-.19-.42-.07-.62,1.03-1.61,1.76-3.36,2.17-5.21ZM26,37.28c-6.22,0-11.28-5.06-11.28-11.28,0-.17.02-.33.03-.5,0-.17-.03-.33-.03-.5,0-5.67,4.61-10.28,10.28-10.28.17,0,.33.02.5.03.17,0,.33-.03.5-.03,6.22,0,11.28,5.06,11.28,11.28s-5.06,11.28-11.28,11.28Z"/>
      <path class="cls-2" d="M28.6,25.39c-.06-.11-.11-.2-.16-.28l-3.44-5.96-3.43,5.94c-.07.11-.13.21-.18.31,0,0,0,.02-.01.03-.3.58-.45,1.2-.45,1.84,0,2.24,1.82,4.07,4.07,4.07s4.07-1.82,4.07-4.07c0-.64-.15-1.26-.45-1.84,0-.01-.01-.03-.02-.04Z"/>
    </g>
  </g>
  <g id="Icon_Outline">
    <g>
      <path class="cls-1" d="M47.8,21.03c-.09-.09-.22-.15-.35-.15h-5.71c-.41-1.68-1.08-3.3-1.99-4.8l4.04-4.06c.19-.2.19-.51,0-.71l-5.11-5.11c-.19-.19-.52-.19-.71,0l-4.04,4.05c-1.5-.91-3.11-1.58-4.8-1.99V2.55c-.01-.28-.24-.5-.51-.5h-7.22c-.13,0-.26.05-.35.15s-.15.22-.15.35v5.71c-1.69.41-3.3,1.08-4.8,1.99l-4.06-4.04c-.2-.19-.51-.19-.71,0l-5.11,5.11c-.09.09-.15.22-.15.35s.05.26.15.35l4.05,4.04c-.91,1.5-1.58,3.11-2,4.8H2.55c-.28.01-.5.24-.5.51v7.22c0,.13.05.26.15.35s.22.15.35.15h5.72c.41,1.68,1.08,3.3,1.99,4.8l-4.04,4.06c-.19.2-.19.51,0,.71l5.11,5.11c.19.19.52.19.71,0l4.04-4.05c1.5.91,3.11,1.58,4.8,2v5.72c.01.28.24.5.51.5h7.22c.28,0,.5-.22.5-.5v-5.71c1.69-.41,3.3-1.08,4.8-1.99l4.06,4.04c.2.19.51.19.71,0l5.11-5.11c.09-.09.15-.22.15-.35s-.05-.26-.15-.35l-4.05-4.04c.91-1.5,1.58-3.11,1.99-4.8h5.72c.28-.01.5-.24.5-.51v-7.22c0-.13-.05-.26-.15-.35ZM46.95,28.11h-5.62c-.23.01-.44.18-.49.4-.41,1.85-1.14,3.6-2.17,5.21-.13.2-.1.46.07.62l3.97,3.97-4.4,4.4-3.99-3.97c-.17-.16-.42-.19-.62-.07-1.61,1.03-3.36,1.76-5.21,2.16-.23.05-.39.25-.39.49v5.61s-6.22,0-6.22,0v-5.62c-.01-.23-.18-.44-.41-.49-1.85-.41-3.6-1.14-5.21-2.17-.2-.13-.46-.1-.62.07l-3.97,3.97-4.4-4.4,3.97-3.99c.17-.17.19-.42.07-.62-1.03-1.61-1.76-3.37-2.16-5.21-.05-.23-.25-.39-.49-.39H3.05s0-6.22,0-6.22h5.62c.23-.01.44-.18.49-.4.41-1.85,1.14-3.6,2.17-5.21.13-.2.1-.46-.07-.62l-3.97-3.97,4.4-4.4,3.99,3.97c.17.17.43.19.62.07,1.61-1.03,3.37-1.76,5.21-2.16.23-.05.39-.25.39-.49V3.05s6.22,0,6.22,0v5.62c.01.23.18.44.4.49,1.85.41,3.6,1.14,5.21,2.17.2.13.46.1.62-.07l3.97-3.97,4.4,4.4-3.97,3.99c-.17.17-.19.42-.07.62,1.03,1.61,1.76,3.37,2.16,5.21.05.23.25.39.49.39h5.61s0,6.22,0,6.22Z"/>
      <path class="cls-1" d="M25,13.72c-6.22,0-11.28,5.06-11.28,11.28s5.06,11.28,11.28,11.28,11.28-5.06,11.28-11.28-5.06-11.28-11.28-11.28ZM25,35.28c-5.67,0-10.28-4.61-10.28-10.28s4.61-10.28,10.28-10.28,10.28,4.61,10.28,10.28-4.61,10.28-10.28,10.28Z"/>
      <path class="cls-1" d="M29.5,24.95c-.07-.13-.14-.25-.2-.35l-3.86-6.69c-.18-.31-.69-.31-.87,0l-3.85,6.67c-.08.12-.15.24-.22.38-.01.02-.02.05-.03.07-.35.71-.53,1.46-.53,2.25,0,2.79,2.27,5.07,5.07,5.07s5.07-2.27,5.07-5.07c0-.8-.19-1.57-.55-2.29,0-.01,0-.02-.02-.03ZM25,31.34c-2.24,0-4.07-1.82-4.07-4.07,0-.64.15-1.26.45-1.84,0,0,0-.02.01-.03.05-.1.11-.19.18-.31l3.43-5.94,3.44,5.96c.05.08.1.16.16.28,0,.01.01.03.02.04.3.58.45,1.2.45,1.84,0,2.24-1.82,4.07-4.07,4.07Z"/>
      <path class="cls-1" d="M23.09,27.53c-.06-.73.21-1.29.37-1.57.14-.24.06-.54-.18-.68-.24-.14-.54-.06-.68.18-.38.65-.56,1.41-.5,2.15.08,1.07.61,1.81.92,2.15.1.11.24.17.37.17.12,0,.24-.04.33-.13.21-.18.22-.5.04-.71-.18-.2-.6-.75-.67-1.56Z"/>
    </g>
  </g>
  <g id="Names">
    <text class="cls-3" transform="translate(.22 53.87)"><tspan x="0" y="0">h</tspan><tspan class="cls-5" x="2.75" y="0">y</tspan><tspan x="5.09" y="0">d</tspan><tspan class="cls-4" x="7.91" y="0">r</tspan><tspan x="9.5" y="0">aulics</tspan></text>
  </g>
</svg>