<?xml version="1.0" encoding="UTF-8"?>
<svg xmlns="http://www.w3.org/2000/svg" viewBox="0 0 50 50">
  <defs>
    <style>
      .cls-1 {
        fill: #1f1c1d;
      }

      .cls-2 {
        fill: #221f1f;
        font-family: Roboto-Regular, Roboto;
        font-size: 5px;
      }
    </style>
  </defs>
  <g id="Icon_Outline">
    <g>
      <path class="cls-1" d="M44.66,26.39c.03-.46.07-.92.07-1.39,0-3.19-.78-6.19-2.13-8.85l2.22-3.92c.7-1.24,1.08-2.47,1.13-3.66.05-1.17-.24-2.27-.85-3.26-1.12-1.81-3.13-2.94-5.26-2.94s-4.03,1.1-5.2,2.86c-.45.68-.73,1.39-.86,2.15-1.19-.6-2.45-1.09-3.77-1.44-.02-.01-.04-.03-.07-.04-.07-.02-.13-.03-.2-.03-1.52-.38-3.11-.6-4.75-.6-4.55,0-8.73,1.56-12.07,4.16-.03.02-.06.03-.09.06-.01,0-.02.02-.03.03-3.33,2.62-5.78,6.29-6.88,10.51-.03.07-.03.14-.06.25-.37,1.52-.59,3.09-.59,4.72,0,10.88,8.85,19.73,19.73,19.73s18.86-8.03,19.65-18.19c.01-.05.01-.1,0-.16ZM35.48,5.79c.98-1.49,2.66-2.41,4.37-2.41s3.47.94,4.41,2.46c.5.81.74,1.72.7,2.69-.04,1.02-.38,2.1-1,3.2,0,0-2.97,5.25-4.11,7.26l-4.1-7.25c-.13-.25-.26-.51-.37-.77-.91-2.05-.88-3.7.11-5.19ZM25,6.27c1.39,0,2.75.16,4.05.45-.16.26-.34.46-.56.58-.28.16-.51.16-.88.16-.39,0-.88,0-1.53.2-.65.2-1.08.49-1.87,1.02-.63.42-1.01.75-1.26.97-.12.11-.26.23-.31.24-.39-.05-.91-1.17-1.16-2.49-.05-.26-.07-.52-.08-.78,1.17-.23,2.37-.36,3.61-.36ZM13.53,10.23c.55-.4.92-.28,1.05-.21.11.06.2.17.21.23-.01.05-.14.18-.22.27-.21.22-.5.52-.69,1-.3.75-.29,1.44.04,1.95.47.71,1.56,1.02,2.38.67.59-.25.83-.75,1-1.12.15-.32.23-.45.37-.49.27-.08.72.15.95.52.2.49,0,1.1-.08,1.35-.3.94-.11,1.69.03,2.23.08.32.13.54.07.6-.19.19-.88.07-1.29,0-.63-.11-1.28-.22-1.53.33-.17.35.03.66.13.81.01.02.03.04.04.06-.11.05-.33.1-.48.14-.53.13-1.18.29-1.49.89-.34.65-.06,1.33.17,1.88.21.5.33.84.19,1.05-.05.08-.13.15-.19.18-.06-.14-.13-.44-.17-.62-.13-.63-.3-1.41-.97-1.69-.76-.32-1.58.28-2.01.66-.48.44-.79,1.03-.9,1.71-.14.9.18,1.59.56,2.39.57,1.23.92,1.97,1.68,2.41.71.41,1.33.31,1.87.23.48-.08.94-.15,1.56.1.36.14.5.28.7.48.24.24.54.55,1.23.91.73.38,1.29.5,1.69.58.43.09.54.13.64.28.34.5.12,1.6-.46,2.21-.21.23-.39.3-.61.38-.28.11-.63.24-.92.68-.33.5-.29.93-.25,1.44.03.35.07.79.02,1.44-.05.62-.13.97-.2,1.23-.08.33-.16.61,0,1.04.31.86,1.15,1.28,1.92,1.54-.54-.01-1.17-.13-1.74-.48-.44-.27-.69-.58-1.18-1.2-.59-.75-1.28-1.88-1.97-3.24-.15-.29-.54-1.06-1.39-1.52-.11-.06-.18-.08-.28-.12-.59-.38-.71-1.3-.78-1.8-.11-.8.01-1.28.12-1.71.11-.44.22-.9.04-1.5-.31-.99-1.13-1.41-1.92-1.82-.33-.17-.67-.35-.99-.57-1.41-.98-2.29-2.89-2.62-5.66,1.05-4.08,3.42-7.62,6.65-10.13ZM25,43.73c-10.33,0-18.73-8.4-18.73-18.73,0-.69.04-1.37.12-2.04.53,1.77,1.37,3.08,2.53,3.89.37.26.76.46,1.11.64.79.4,1.24.66,1.42,1.22.1.33.04.57-.05.96-.12.49-.27,1.1-.14,2.08.08.61.25,1.88,1.23,2.51.1.06.17.09.24.12.03,0,.05.02.1.05.57.31.85.85.99,1.14.7,1.38,1.41,2.54,2.05,3.36.53.67.85,1.07,1.45,1.43.76.46,1.61.61,2.35.61.69,0,1.29-.14,1.6-.3.29-.15.44-.34.46-.58.05-.55-.52-.7-1.12-.86-.7-.18-1.77-.46-2.01-1.13-.05-.13-.04-.17.03-.45.07-.27.17-.69.23-1.4.05-.73,0-1.24-.02-1.6-.04-.47-.05-.6.08-.8.12-.18.22-.22.45-.3.26-.1.61-.24.98-.63.81-.87,1.23-2.46.55-3.45-.34-.5-.79-.6-1.26-.7-.37-.08-.82-.18-1.44-.49-.55-.28-.77-.5-.98-.72-.24-.24-.48-.49-1.05-.71-.87-.34-1.54-.24-2.08-.15-.49.08-.81.12-1.22-.11-.47-.27-.72-.77-1.27-1.97-.37-.8-.56-1.25-.48-1.82.07-.45.27-.84.58-1.13.43-.39.81-.53.95-.48.19.08.3.6.38.98.13.6.27,1.28.9,1.42.52.12,1.02-.26,1.27-.65.43-.67.13-1.39-.11-1.97-.17-.41-.33-.8-.21-1.03.1-.2.5-.3.85-.38.5-.12,1.13-.28,1.25-.9.03-.17.01-.32-.03-.46.08.01.15.02.21.04.72.12,1.61.28,2.17-.28.47-.47.32-1.05.19-1.56-.12-.47-.26-1.01-.04-1.7.1-.32.38-1.18.05-2.01-.03-.08-.07-.15-.11-.22-.39-.62-1.26-1.13-2.05-.9-.58.17-.81.64-.99,1.02-.16.33-.26.53-.49.63-.38.16-.95.01-1.16-.3-.14-.22-.12-.6.05-1.02.12-.3.31-.49.48-.68.25-.26.55-.58.49-1.08-.07-.56-.55-.88-.71-.97,0,0,0,0,0,0,1.63-1.03,3.43-1.8,5.35-2.29.02.25.03.5.08.74.18.93.74,3.13,2.02,3.29.05,0,.1,0,.15,0,.39,0,.64-.22.95-.49.25-.21.58-.51,1.16-.89.76-.51,1.1-.74,1.61-.9.51-.16.87-.15,1.22-.15.43,0,.87,0,1.39-.29.44-.26.8-.66,1.06-1.19,1.29.36,2.51.87,3.67,1.48.03.73.18,1.49.48,2.29-.27,0-.76-.13-1.09-.22-1.04-.27-2.34-.61-3.39.05-1.35.85-1.8,3.09-1.95,4.36-.03.22-.04.44-.05.65-.04.53-.07,1.02-.27,1.14-.1.06-.24.04-.46,0-.29-.06-.72-.14-1.09.17-.37.3-.53.9-.44,1.59.08.61.39,1.36,1.01,1.65.66.31,1.25-.07,1.77-.4.5-.31.96-.61,1.52-.48.64.14,1.09.76,1.3,1.06.2.28.37.59.47.83-.4-.18-1-.46-1.76-.48-1.24-.02-2.13.58-3,1.18-1.37.94-3.07,2.1-3.15,4.05-.05,1.26.61,2.88,1.81,3.39.34.15.62.16,1.01.18.37.02.87.04,1.72.19l.2.03c.41.07.5.09.55.12.46.27.74.98.78,2,.02.48-.05.66-.12.85-.11.29-.19.55-.1,1.04.08.41.22.74.38,1.09.19.44.39.89.51,1.63.12.77.46,2.08,1.37,2.24.06.01.12.02.19.02.81,0,1.52-.93,2.01-1.58.27-.35.36-.56.47-.78.04-.08.07-.16.12-.26.1-.2.18-.34.34-.59,0,0,.44-.69,1.17-1.56.25-.3.38-.67.43-1.06.12-.98.45-1.76.97-2.33.35-.38.75-.62,1.1-.84.53-.32,1.07-.66,1.09-1.32.02-.85-.9-1.48-1.44-1.72-.52-.23-.95-.22-1.26-.21-.29,0-.36,0-.45-.07-.14-.12-.26-.38-.28-.65-.02-.23.03-.37.02-.38.21-.05.97.38,1.33.59.78.45,1.45.84,1.93.4.51-.49.08-1.27-.46-2.27-.17-.31-.42-.77-.53-1.07.6.18,1.96.96,3.32,2,.65.5,1.27,1.05,1.85,1.63-.83,9.56-8.87,17.09-18.64,17.09ZM43.71,25.31c-.42-.39-.86-.76-1.31-1.11-1.76-1.34-4.02-2.78-4.77-2.01-.5.52-.04,1.37.5,2.35.12.23.3.55.42.81-.17-.09-.36-.2-.51-.29-.87-.51-1.78-1.03-2.42-.52-.28.22-.43.59-.44,1.05,0,.62.25,1.23.66,1.55.38.31.78.3,1.11.29.26-.01.51-.02.83.12.44.19.85.58.84.79,0,.12-.32.31-.61.49-.39.24-.87.53-1.31,1.01-.64.69-1.05,1.61-1.21,2.73-.04.31-.15.6-.35.84-.69.85-1.1,1.49-1.12,1.52-.18.29-.27.44-.39.67-.06.11-.1.21-.14.3-.09.2-.15.33-.37.62-.8,1.06-1.1,1.18-1.21,1.16-.12-.02-.41-.47-.57-1.46-.13-.82-.37-1.37-.57-1.82-.14-.31-.25-.58-.31-.88-.05-.26-.02-.33.05-.5.09-.24.22-.57.19-1.25-.07-1.75-.73-2.5-1.27-2.82-.22-.13-.39-.16-.89-.25l-.19-.03c-.91-.16-1.47-.19-1.84-.21-.37-.02-.5-.03-.67-.1-.77-.33-1.24-1.52-1.21-2.43.06-1.45,1.41-2.37,2.72-3.26.81-.55,1.54-1.04,2.41-1.01.56.02,1.01.23,1.38.39.4.19.9.42,1.28.02.63-.65-.24-1.97-.52-2.35-.26-.37-.88-1.23-1.9-1.45-.96-.21-1.72.26-2.27.61-.4.25-.67.41-.83.34-.19-.09-.37-.44-.43-.83-.06-.41.02-.68.06-.72.04-.01.18.02.28.04.29.06.73.14,1.16-.11.65-.39.71-1.17.76-1.94.01-.19.03-.4.05-.61.21-1.82.77-3.18,1.48-3.63.68-.43,1.71-.17,2.61.07.65.17,1.27.32,1.75.2.08.17.16.35.25.52l4.54,8.03c.09.16.25.25.44.25s.35-.1.44-.25l1.73-3.06c1.1,2.38,1.72,5.01,1.72,7.8,0,.11-.01.21-.02.31Z"/>
      <path class="cls-1" d="M7.07,11.83s.06.03.09.05c.02,0,.04,0,.05,0,.04,0,.07.04.11.04.05,0,.09-.02.14-.03,0,0,0,0,.01,0,.09-.03.18-.08.24-.16,0,0,0,0,0,0,0,0,.01,0,.02-.01.69-.9,1.46-1.73,2.27-2.51.09-.09.18-.18.27-.27.2-.19.22-.5.03-.71-.19-.2-.5-.22-.71-.03,0,0,0,0,0,0,0,0,0,0,0,0-.11.1-.21.21-.32.32-.85.81-1.65,1.68-2.36,2.6-.17.22-.13.53.09.7.02.01.04,0,.05.02Z"/>
      <path class="cls-1" d="M5.46,14.25c-.24-.13-.55-.03-.67.21,0,0,0,.01,0,.02-.28.54-.54,1.1-.78,1.67-.04.09-.07.17-.1.26-.11.27-.23.54-.33.82-.11.3-.21.61-.31.91-.08.26.06.53.31.62,0,0,.01,0,.02,0,.26.08.54-.06.63-.33,0,0,0-.02,0-.03,0,0,.01-.01.01-.02.18-.55.38-1.09.6-1.63.03-.07.06-.15.09-.22.23-.55.48-1.1.76-1.62.13-.25.03-.55-.21-.67Z"/>
      <path class="cls-1" d="M12.69,6.53s.08.08.13.1c.01,0,.02.02.03.03.04.02.09.01.14.02.02,0,.03.01.04.01,0,0,0,0,.01,0,.08,0,.15-.02.22-.06.01,0,.02,0,.03,0,1.07-.68,2.2-1.27,3.37-1.75.25-.11.38-.4.27-.65-.11-.25-.4-.38-.65-.27,0,0,0,0,0,0,0,0,0,0,0,0-1.22.51-2.41,1.12-3.52,1.83-.23.15-.3.46-.15.69.02.04.06.05.09.07Z"/>
      <path class="cls-1" d="M4.3,31.8c-.23-.69-.43-1.39-.59-2.1-.02-.07-.04-.13-.08-.19-.11-.16-.31-.24-.52-.2-.27.06-.44.33-.38.6.17.79.41,1.57.67,2.34.16.49.33.98.53,1.46.04.09.1.16.18.21,0,0,.01,0,.02.01.03.02.06.05.1.06.11.04.24.04.36,0,.19-.08.31-.27.31-.47,0-.07-.01-.13-.04-.2-.2-.5-.38-1-.55-1.51Z"/>
      <path class="cls-1" d="M19.77,3.51s.05.06.08.09c.02.02.04.03.07.04.03.02.05.04.08.06.02,0,.03,0,.05,0,.04.01.08.02.13.02.03,0,.05,0,.08,0,0,0,.01,0,.02,0,1.23-.27,2.5-.44,3.77-.5.14,0,.26-.07.35-.16.09-.09.14-.22.14-.36-.01-.28-.25-.49-.52-.48-1.32.06-2.64.23-3.94.52-.07.02-.13.04-.18.08-.16.11-.25.31-.2.52,0,.04.03.07.05.1.01.02.02.05.04.07Z"/>
      <path class="cls-1" d="M42.27,38.31h0c-.77,1-1.64,1.94-2.56,2.79,0,0,0,0-.01.01-.2.19-.22.5-.03.71.1.11.23.16.37.16.03,0,.06-.01.09-.02,0,0,0,0,.01,0,.08-.02.16-.05.23-.11.98-.89,1.88-1.88,2.69-2.92.17-.22.13-.53-.09-.7-.21-.16-.52-.13-.69.08Z"/>
      <path class="cls-1" d="M38.08,33.86s0,0,0,0c-.37-.16-.85.02-1.43.53-.85.68-1.81,1.65-1.52,2.4.1.27.35.48.71.59.19.06.42.1.66.1.4,0,.83-.1,1.2-.34.79-.52,1-1.52.94-2.22-.03-.31-.13-.87-.55-1.05ZM37.14,36.29c-.36.23-.84.19-1.04.11.13-.27.64-.82,1.19-1.26.1-.09.23-.18.33-.25.05.38-.02,1.09-.48,1.4Z"/>
      <path class="cls-1" d="M39.84,11.6c1.68,0,3.04-1.37,3.04-3.04s-1.37-3.04-3.04-3.04-3.04,1.37-3.04,3.04,1.37,3.04,3.04,3.04ZM39.84,6.51c1.13,0,2.04.92,2.04,2.04s-.92,2.04-2.04,2.04-2.04-.92-2.04-2.04.92-2.04,2.04-2.04Z"/>
      <path class="cls-1" d="M45.4,16c-.26.11-.38.4-.27.65.49,1.17.87,2.39,1.15,3.62.05.23.26.39.49.39.04,0,.07,0,.11-.01.27-.06.44-.33.38-.6-.29-1.29-.69-2.56-1.2-3.79-.11-.26-.4-.38-.65-.27Z"/>
      <path class="cls-1" d="M3.23,25.93c-.02-.57-.02-1.13,0-1.7,0-.11,0-.22.01-.33.03-.59.08-1.18.15-1.76,0,0,0,0,0-.01.04-.27-.16-.53-.43-.56-.27-.05-.53.15-.56.43,0,0,0,0,0,0,0,0,0,0,0,0,0,.02,0,.05,0,.07-.08.59-.12,1.18-.15,1.77,0,.12,0,.24-.01.35,0,.27-.03.53-.03.8,0,.32,0,.64.02.97,0,.1.04.18.1.26,0,.01.02.03.03.04.05.06.12.11.19.14,0,0,.01.01.02.01.06.02.13.03.19.03.28-.01.49-.25.48-.52Z"/>
      <path class="cls-1" d="M27.52,3.2s.08.08.13.11c.01,0,.02.01.03.02.02,0,.03.02.05.03.03.01.07.02.11.03.08.01.17.03.25.04,1.17.17,2.33.43,3.46.78.05.02.1.02.15.02.01,0,.02-.01.04-.01.07,0,.14-.03.2-.07.04-.02.07-.05.1-.08.04-.04.06-.08.09-.12.01-.03.04-.04.05-.07.04-.14.02-.27-.04-.39-.06-.12-.16-.21-.29-.25-1.12-.35-2.27-.6-3.43-.78-.15-.02-.29-.06-.43-.08,0,0,0,0,0,0,0,0,0,0,0,0-.27-.04-.52.16-.56.43-.02.14.03.27.11.37,0,0,0,0,0,0Z"/>
      <path class="cls-1" d="M29.68,46.29c-1.23.27-2.5.44-3.77.49-.07,0-.14.02-.2.05-.18.08-.3.27-.29.47,0,.1.05.2.11.27,0,0,0,0,0,0,.09.12.23.21.39.21h.02c1.32-.05,2.64-.23,3.94-.51.07-.02.13-.04.18-.08.16-.11.25-.31.2-.52-.06-.27-.33-.44-.6-.38Z"/>
      <path class="cls-1" d="M46.45,31.21s-.01,0-.02,0c-.26-.08-.54.06-.63.33,0,.03-.02.05-.03.08h0c-.18.56-.38,1.11-.61,1.65-.03.07-.05.14-.08.21-.24.56-.49,1.11-.77,1.65-.13.25-.03.55.21.67.07.04.15.06.23.06.18,0,.35-.1.44-.27.01-.02.02-.04.03-.06,0,0,0-.01.01-.02.28-.53.53-1.08.76-1.64.03-.08.06-.15.09-.23.12-.28.24-.56.34-.85.11-.32.22-.63.32-.95.08-.26-.06-.53-.31-.62Z"/>
      <path class="cls-1" d="M37.05,43.34c-.13-.03-.26,0-.38.07-1.07.68-2.2,1.26-3.37,1.75-.26.11-.38.4-.27.65.01.03.04.04.06.07.03.04.06.09.1.12.03.02.06.04.09.06.02,0,.03.03.05.03.04.02.09.02.13.02.01,0,.02,0,.03,0,0,0,0,0,.01,0,.06,0,.13-.01.19-.04,1.23-.5,2.41-1.12,3.53-1.83.23-.15.3-.46.15-.69-.07-.12-.19-.19-.32-.22Z"/>
      <path class="cls-1" d="M8.74,39.5c-.78-.88-1.5-1.82-2.13-2.81-.15-.23-.46-.3-.69-.15-.18.11-.26.31-.22.51.01.07.03.13.07.19.71,1.12,1.52,2.18,2.42,3.15.02.02.04.02.06.04.04.03.07.06.12.08,0,0,.01.01.02.01.03,0,.05,0,.08,0,.03,0,.05.02.08.02.01,0,.03,0,.04,0,.04,0,.07,0,.11-.02.04-.01.07-.03.11-.05.03-.02.06-.02.09-.04.2-.19.22-.5.03-.71-.06-.07-.12-.14-.18-.21Z"/>
      <path class="cls-1" d="M22.29,46.66c-.05-.03-.1-.05-.16-.06-.03,0-.05-.01-.08-.01-1.22-.17-2.45-.44-3.63-.82-.27-.08-.54.06-.63.33-.04.14-.02.28.05.4.06.1.15.19.26.23,0,0,.01,0,.02,0,1.26.4,2.56.69,3.88.86,0,0,0,0,0,0,.02,0,.04,0,.05,0,.02,0,.04,0,.06-.01.04,0,.07,0,.1-.02.02,0,.03-.02.05-.02.15-.07.27-.2.29-.38.03-.21-.08-.4-.25-.5,0,0-.01,0-.02,0Z"/>
      <path class="cls-1" d="M14.91,44.32s0,0,0,0,0,0,0,0c-.13-.07-.24-.15-.37-.21-.98-.54-1.93-1.14-2.82-1.83-.06-.04-.12-.07-.19-.09-.19-.05-.4.01-.52.18-.17.22-.13.53.09.7,1.02.79,2.12,1.49,3.26,2.09.03.02.06.04.09.05.02.01.04.02.06.03.23.08.5-.01.61-.24.13-.25.03-.55-.21-.67Z"/>
      <path class="cls-1" d="M47.78,23.99c0-.14-.07-.26-.16-.35-.04-.04-.08-.06-.13-.08,0,0-.01,0-.02-.01-.07-.03-.14-.05-.22-.04-.28.01-.49.25-.48.52.03.58.02,1.16,0,1.74,0,.09,0,.18,0,.27-.03.6-.08,1.2-.15,1.79,0,0,0,0,0,0,0,0,0,0,0,0,0,0,0,.02,0,.03,0,.05,0,.1.01.15,0,.04.03.07.04.11,0,.02.01.03.02.05.02.04.05.07.09.1,0,0,.02.02.03.02.04.03.08.05.12.07,0,0,0,0,.01,0,0,0,.02,0,.03,0,.03,0,.05.02.08.03.02,0,.04,0,.07,0,.25,0,.46-.18.5-.43.08-.62.13-1.24.16-1.87,0-.1,0-.2,0-.3,0-.27.03-.53.03-.79,0-.34,0-.67-.02-1.01Z"/>
    </g>
  </g>
  <g id="Names">
    <text class="cls-2" transform="translate(.01 53.99)"><tspan x="0" y="0">international-location</tspan></text>
  </g>
</svg>