<svg xmlns="http://www.w3.org/2000/svg" viewBox="0 0 50 50"><g id="f23e34e5-e470-47c3-896f-4d1071e0002c" data-name="ICONS"><path d="M48.54,23.27a1.15,1.15,0,0,0-.14-.17,4.15,4.15,0,0,0-.34-.37l-.19-.17-.09-.07-.15-.1-.22-.14-.28-.13a1.5,1.5,0,0,1-.73-.58,1.73,1.73,0,0,1-.27-.64,5.08,5.08,0,0,0,0-.59,1.13,1.13,0,0,0-.1-.48c-.15-.18-.36-.09-.8-.28l-.29-.14-.2-.13-.09-.07a4.35,4.35,0,0,1-.86-.87,3.82,3.82,0,0,1-.31-.42,4.82,4.82,0,0,1-.26-.42,3.9,3.9,0,0,1-.33-1,3.45,3.45,0,0,1-.08-.65l0,0a2.72,2.72,0,0,1,.06-.55,2.86,2.86,0,0,1,.38-.94c.12-.19.12-.21.11-.24s-.22-.29-.47-.49a2.4,2.4,0,0,0-.3-.22l0,.06-.13-.15c-.29-.31-.3-.26-.38-.37-.31-.43-.14-1-.24-1.45a1.53,1.53,0,0,1-.07-.36c0-.06,0-.11,0-.14s-.1,0-.19,0a4,4,0,0,1-.46,0h-38a4.57,4.57,0,0,1-.14,1,5.81,5.81,0,0,1-.26.8c-.11.26-.12.32-.1.39s0,.05.22.15a1.65,1.65,0,0,1,.79.7c.31.56.2,1.13,0,2.17a4.7,4.7,0,0,1-.42,1.39,3.33,3.33,0,0,1-.46.71c-.1.13-.1.14-.1.17,0,.24.3.57.73,1a4.07,4.07,0,0,0,.43.4,1.25,1.25,0,0,1,.4.46,1.9,1.9,0,0,1,.17,1.29,3,3,0,0,0,0,.7A4.35,4.35,0,0,0,5,24.38a5.2,5.2,0,0,0,.54.83,5.62,5.62,0,0,1,.67,1.08A4.69,4.69,0,0,1,6.78,28a3.83,3.83,0,0,1-.33,1.91c0,.1-.08.23-.11.32l.23,0a1.14,1.14,0,0,1,1.14.35,1,1,0,0,1,0,1,.77.77,0,0,0-.08.52c0,.11,0,.13.18.24a1.85,1.85,0,0,1,.54.68,1.88,1.88,0,0,1,.14,1,9.51,9.51,0,0,0,0,1.06,7.29,7.29,0,0,0,.07.79,1.42,1.42,0,0,1,0,.61,2.62,2.62,0,0,1-.49,1h0c-.05,0-.1.09-.15.15l-.17.2a2.27,2.27,0,0,1,.92.88,1.59,1.59,0,0,1,.12.27l18.32,0,11.53,0a1.72,1.72,0,0,1,.69.29,1.84,1.84,0,0,1,.31.24,1.74,1.74,0,0,1,.44,1,4.68,4.68,0,0,0,.26.47,4.92,4.92,0,0,0,.37.5,1.73,1.73,0,0,0,.11-1c0-.14-.09-.27-.14-.4a1.49,1.49,0,0,1-.09-1.17,1.45,1.45,0,0,1,.89-.7c.54-.25.94-.39,1.24-.5.46-.17.56-.22.63-.32a.25.25,0,0,0,0-.12,2.11,2.11,0,0,1,.18-.76,3.33,3.33,0,0,1,.41-.71,1.15,1.15,0,0,0,.22-.35,1.45,1.45,0,0,0,.07-1.07c-.06-.14-.1-.11-.47-.45s-.58-.53-.63-.71-.08-.42.36-.92a2,2,0,0,0,.3-.33l.13-.22a1,1,0,0,0,.1-.38,1.45,1.45,0,0,1,.14-.52c.31-.63.89-.75,1.57-.89a8.33,8.33,0,0,0,1.36-.37c.7-.27,1.66-.63,1.94-1.35a1.12,1.12,0,0,0,.07-.47,4,4,0,0,1,.09-.91,2.53,2.53,0,0,1,.54-1.11,1,1,0,0,0,.18-.3h0a.63.63,0,0,0,0-.11A24.62,24.62,0,0,0,48.54,23.27ZM37.72,37.71a.45.45,0,0,1,.12.06l.08.07ZM40,26.33l-2.28,2.28-2.28-2.28a1.12,1.12,0,0,1,0-1.57,1.09,1.09,0,0,1,.79-.32,1.07,1.07,0,0,1,.78.32l.36.35a.5.5,0,0,0,.71,0l.35-.35A1.11,1.11,0,0,1,40,26.33Zm2.26-12c0-.06,0-.12,0-.15h0C42.31,14.24,42.3,14.29,42.3,14.34Z" fill="#fdd600"/><path d="M38.12,25.11l.11-.11a2,2,0,0,0-1-.1l.22.21A.5.5,0,0,0,38.12,25.11Z" fill="none"/><path d="M8.56,35.82A7.29,7.29,0,0,1,8.49,35a9.51,9.51,0,0,1,0-1.06,1.88,1.88,0,0,0-.14-1,1.85,1.85,0,0,0-.54-.68c-.13-.11-.16-.13-.18-.24a.77.77,0,0,1,.08-.52,1,1,0,0,0,0-1,1.14,1.14,0,0,0-1.14-.35l-.23,0c0-.09.08-.22.11-.32A3.83,3.83,0,0,0,6.78,28a4.69,4.69,0,0,0-.62-1.69,5.62,5.62,0,0,0-.67-1.08A5.2,5.2,0,0,1,5,24.38a4.35,4.35,0,0,1-.69-1.93,3,3,0,0,1,0-.7,1.9,1.9,0,0,0-.17-1.29,1.25,1.25,0,0,0-.4-.46,4.07,4.07,0,0,1-.43-.4c-.43-.46-.74-.79-.73-1,0,0,0,0,.1-.17a3.33,3.33,0,0,0,.46-.71,4.7,4.7,0,0,0,.42-1.39c.21-1,.32-1.61,0-2.17a1.65,1.65,0,0,0-.79-.7c-.2-.1-.21-.11-.22-.15s0-.13.1-.39a5.81,5.81,0,0,0,.26-.8,4.57,4.57,0,0,0,.14-1H40.36c0-.12,0-.24,0-.35a3.32,3.32,0,0,0,0-.42,4.7,4.7,0,0,0-.14-.73H1.55a4.57,4.57,0,0,1-.14,1,5.81,5.81,0,0,1-.26.8c-.11.26-.12.32-.1.39s0,.05.22.15a1.65,1.65,0,0,1,.79.7c.31.56.2,1.13,0,2.17a4.85,4.85,0,0,1-.42,1.4,3.48,3.48,0,0,1-.46.7c-.1.13-.1.14-.1.17,0,.24.3.57.73,1a4.07,4.07,0,0,0,.43.4,1.25,1.25,0,0,1,.4.46,1.9,1.9,0,0,1,.17,1.29,3,3,0,0,0,0,.7,4.38,4.38,0,0,0,.7,1.93,5.28,5.28,0,0,0,.53.83,5.62,5.62,0,0,1,.67,1.08,4.69,4.69,0,0,1,.62,1.69A3.9,3.9,0,0,1,5,28.4l-.11.31.23,0A1.14,1.14,0,0,1,6.21,29a1,1,0,0,1,0,1,.77.77,0,0,0-.08.52c0,.11,0,.13.18.24a1.85,1.85,0,0,1,.54.68,1.88,1.88,0,0,1,.14,1,9.51,9.51,0,0,0,0,1.06,7.29,7.29,0,0,0,.07.79,1.42,1.42,0,0,1,0,.61,2.84,2.84,0,0,1-.71,1.26l-.07.08a2.11,2.11,0,0,1,.59.41,1.92,1.92,0,0,1,.45.74h.75a2.62,2.62,0,0,0,.49-1A1.42,1.42,0,0,0,8.56,35.82Z" fill="none"/><path d="M46.28,21l-.15-.09a1.73,1.73,0,0,0,.27.64,1.5,1.5,0,0,0,.73.58l.28.13A6.18,6.18,0,0,0,46.28,21Z" fill="none"/><path d="M44.61,19.21a2.75,2.75,0,0,1,0-.39c0-.29,0-.39-.1-.49s-.09-.08-.28-.12a2.6,2.6,0,0,1-.77-.29,3.82,3.82,0,0,0,.31.42A4.35,4.35,0,0,0,44.61,19.21Z" fill="none"/><path d="M39.22,40a1.92,1.92,0,0,0,.12-.68,1.71,1.71,0,0,0-.76-.3A4.1,4.1,0,0,0,39.22,40Z" fill="none"/><path d="M41.72,11.19a.58.58,0,0,0,0-.14H41.5A1.38,1.38,0,0,1,41.72,11.19Z" fill="#fdd600"/><path d="M42.3,14.34c0-.05,0-.1,0-.16h0S42.28,14.28,42.3,14.34Z" fill="none"/><path d="M37.72,37.71l.2.13-.08-.07A.45.45,0,0,0,37.72,37.71Z" fill="none"/><path d="M48.56,22.13a8.77,8.77,0,0,0-1.68-1.94A4.2,4.2,0,0,0,46,19.7c-.19-.08-.22-.1-.3-.21a1.09,1.09,0,0,1-.14-.67,1.57,1.57,0,0,0-.37-1.17,1.29,1.29,0,0,0-.79-.41,1.79,1.79,0,0,1-.67-.29,2.92,2.92,0,0,1-.72-.73,3.92,3.92,0,0,1-.25-.32,2.85,2.85,0,0,1-.37-.72,2.29,2.29,0,0,1-.09-1.13,1.69,1.69,0,0,1,.24-.59l0,0a1.22,1.22,0,0,0,.22-1,2.05,2.05,0,0,0-.79-1,2,2,0,0,0-.3-.22,1.38,1.38,0,0,0-.22-.13h0c-.08-.05-.09-.05-.1-.08s0-.07,0-.27a3.78,3.78,0,0,0,0-.54,7.28,7.28,0,0,0-.27-1.26.5.5,0,0,0-.48-.35H1a.52.52,0,0,0-.37.16.52.52,0,0,0-.13.38,3.78,3.78,0,0,1-.1,1.26A4.19,4.19,0,0,1,.22,11a1.48,1.48,0,0,0-.13,1.07,1.25,1.25,0,0,0,.73.74.77.77,0,0,1,.37.3c.12.23.05.62-.12,1.49a4,4,0,0,1-.34,1.14,2.88,2.88,0,0,1-.34.53A1.21,1.21,0,0,0,.07,17c0,.66.4,1.12,1,1.76a3.76,3.76,0,0,0,.53.49c.11.09.12.1.16.17a1.06,1.06,0,0,1,.05.69,4.26,4.26,0,0,0-.05.86,5.25,5.25,0,0,0,.81,2.36,5.74,5.74,0,0,0,.62,1,4.77,4.77,0,0,1,.58.93,3.78,3.78,0,0,1,.52,1.35A3,3,0,0,1,4,28c-.17.44-.36.94,0,1.36a1.29,1.29,0,0,0,1.14.28h.12a1.75,1.75,0,0,0-.1,1.09,1.31,1.31,0,0,0,.5.76,1,1,0,0,1,.29.34,1,1,0,0,1,0,.53,9.41,9.41,0,0,0,0,1.18,8.63,8.63,0,0,0,.08.9.44.44,0,0,1,0,.23,2,2,0,0,1-.5.84,1.08,1.08,0,0,0-.37,1.1.93.93,0,0,0,.58.51.92.92,0,0,1,.35.23,1.17,1.17,0,0,1,.3.63.49.49,0,0,0,.49.4H8.54c16.27,0,27.18,0,28,0a1,1,0,0,1,.66.15.79.79,0,0,1,.24.37l0,.09A5.69,5.69,0,0,0,39,41.18a.49.49,0,0,0,.35.13h.06a.48.48,0,0,0,.36-.24,3.74,3.74,0,0,0,.31-.59,2.82,2.82,0,0,0,.21-1.73,4.26,4.26,0,0,0-.17-.54.88.88,0,0,1-.12-.4,2,2,0,0,1,.39-.2c.52-.23.9-.37,1.18-.48a1.88,1.88,0,0,0,1.12-.72,1.1,1.1,0,0,0,.18-.58,1.29,1.29,0,0,1,.12-.45,1.6,1.6,0,0,1,.28-.48,2.36,2.36,0,0,0,.35-.6c0-.14.09-.27.13-.41a2.16,2.16,0,0,0-.08-1.43,1.43,1.43,0,0,0-.12-.21,2.15,2.15,0,0,0-.73-.68l-.11-.07,0,0a2.43,2.43,0,0,0,.62-.81,2,2,0,0,0,.2-.71.37.37,0,0,1,0-.18c.08-.17.29-.23.87-.35A8.67,8.67,0,0,0,46,29a3.92,3.92,0,0,0,2.52-1.92,2,2,0,0,0,.14-.83,2.94,2.94,0,0,1,.07-.7,1.62,1.62,0,0,1,.36-.72,2.26,2.26,0,0,0,.29-.49,1.41,1.41,0,0,0,.1-.54C49.46,23.34,49.14,22.91,48.56,22.13Zm-.29,2.11a2.53,2.53,0,0,0-.54,1.11,4,4,0,0,0-.09.91,1.12,1.12,0,0,1-.07.47c-.28.72-1.24,1.08-1.94,1.35a8.33,8.33,0,0,1-1.36.37c-.68.14-1.26.27-1.57.89a1.45,1.45,0,0,0-.14.52,1,1,0,0,1-.1.38,1.56,1.56,0,0,1-.4.51,1,1,0,0,0-.41.8,1.11,1.11,0,0,0,.65.87,1,1,0,0,1,.47.45,1.41,1.41,0,0,1-.07,1.07,1.15,1.15,0,0,1-.22.35,3.21,3.21,0,0,0-.41.72,2,2,0,0,0-.18.75.25.25,0,0,1,0,.12c-.07.1-.17.15-.63.32-.3.11-.7.25-1.24.5a1.22,1.22,0,0,0-.8,1.87c.05.13.1.26.14.4a1.51,1.51,0,0,1,0,.3,1.92,1.92,0,0,1-.12.68,4.1,4.1,0,0,1-.64-1c0-.1-.1-.19-.13-.29a1.87,1.87,0,0,0-.61-.91,1.83,1.83,0,0,0-1.16-.36H36.5c-.87.06-14,0-28.45,0H7.3a1.92,1.92,0,0,0-.45-.74,2.11,2.11,0,0,0-.59-.41l.07-.08A2.84,2.84,0,0,0,7,34.93a1.42,1.42,0,0,0,0-.61A7.29,7.29,0,0,1,7,33.53a9.51,9.51,0,0,1,0-1.06,1.88,1.88,0,0,0-.14-1,1.85,1.85,0,0,0-.54-.68c-.13-.11-.16-.13-.18-.24A.77.77,0,0,1,6.24,30a1,1,0,0,0,0-1,1.14,1.14,0,0,0-1.14-.35l-.23,0L5,28.4a3.9,3.9,0,0,0,.33-1.92,4.69,4.69,0,0,0-.62-1.69A5.62,5.62,0,0,0,4,23.71a5.28,5.28,0,0,1-.53-.83A4.38,4.38,0,0,1,2.76,21a3,3,0,0,1,0-.7A1.9,1.9,0,0,0,2.63,19a1.25,1.25,0,0,0-.4-.46,4.07,4.07,0,0,1-.43-.4c-.43-.46-.74-.79-.73-1,0,0,0,0,.1-.17a3.48,3.48,0,0,0,.46-.7,4.85,4.85,0,0,0,.42-1.4c.21-1,.32-1.61,0-2.17a1.65,1.65,0,0,0-.79-.7c-.2-.1-.21-.11-.22-.15s0-.13.1-.39a5.81,5.81,0,0,0,.26-.8,4.57,4.57,0,0,0,.14-1H40.19a4.7,4.7,0,0,1,.14.73,3.32,3.32,0,0,1,0,.42c0,.11,0,.23,0,.35a1.14,1.14,0,0,0,.17.45,1.17,1.17,0,0,0,.48.43,1.57,1.57,0,0,1,.36.25c.25.2.44.36.47.49s0,.05-.11.24a2.86,2.86,0,0,0-.38.94,3.11,3.11,0,0,0,.12,1.63,4,4,0,0,0,.78,1.36,4,4,0,0,0,1,.94,1.49,1.49,0,0,0,.24.14,2.6,2.6,0,0,0,.77.29c.19,0,.22.05.28.12s.1.2.1.49a2.75,2.75,0,0,0,0,.39,1.69,1.69,0,0,0,.29.83,1.5,1.5,0,0,0,.73.58,3,3,0,0,1,.5.28l.15.09a6.18,6.18,0,0,1,1.13,1.26l.35.47a4.56,4.56,0,0,1,.7,1.1C48.46,24,48.42,24,48.27,24.24Z" fill="#231f20"/><path d="M40.75,24.05a2.12,2.12,0,0,0-3,0,2.11,2.11,0,1,0-3,3l2.63,2.63a.49.49,0,0,0,.35.15.51.51,0,0,0,.36-.15L40.75,27A2.12,2.12,0,0,0,40.75,24.05ZM40,26.33l-2.28,2.28-2.28-2.28a1.12,1.12,0,0,1,0-1.57,1.09,1.09,0,0,1,.79-.32,1.07,1.07,0,0,1,.78.32l.36.35a.5.5,0,0,0,.71,0l.35-.35A1.11,1.11,0,0,1,40,26.33Z" fill="#231f20"/></g><g id="b3c22633-0f4d-4405-919a-fa2c9acf9b4b" data-name="LABELS"><text transform="translate(0 55.13)" font-size="6" fill="#231f20" font-family="Roboto-Regular, Roboto">iowa-hea<tspan x="24.05" y="0" letter-spacing="0.02em">r</tspan><tspan x="26.23" y="0">t</tspan></text></g></svg>