<svg id="ICONS" xmlns="http://www.w3.org/2000/svg" viewBox="0 0 50 50"><path d="M36.18,8.93a4.4,4.4,0,1,0,4.4,4.4A4.41,4.41,0,0,0,36.18,8.93Zm0,7.8a3.4,3.4,0,1,1,3.4-3.4A3.41,3.41,0,0,1,36.18,16.73Z"/><path d="M32.9,1.24A15.5,15.5,0,0,0,17.42,16.73a15.7,15.7,0,0,0,.48,3.86l-2.22,1.92a.5.5,0,0,0-.18.36.51.51,0,0,0,.15.37l1.87,1.88-2.44,2.44H10.62a.5.5,0,0,0-.5.5v3.68H6.41a.5.5,0,0,0-.5.5v3.43H2.86a.5.5,0,0,0-.5.5v4.57l-.6.6a.51.51,0,0,0-.15.35v6.07a.55.55,0,0,0,.15.36.52.52,0,0,0,.35.14h0l5.17-.14A.49.49,0,0,0,7.64,48l16.3-16.31,1.8,1.25a.48.48,0,0,0,.6,0L28,31.47a26.11,26.11,0,0,0,4.86.74,15.49,15.49,0,1,0,0-31Zm0,30A27.39,27.39,0,0,1,28,30.44a.5.5,0,0,0-.44.1L26,31.88l-1.82-1.27a.5.5,0,0,0-.64.05L7.07,47.13l-4.46.12V41.9l.6-.6a.49.49,0,0,0,.15-.36V36.67H6.41a.5.5,0,0,0,.5-.5V32.74h3.71a.5.5,0,0,0,.5-.5V28.56h4.17a.47.47,0,0,0,.35-.15l2.94-2.94a.5.5,0,0,0,0-.71l-1.84-1.84,2.06-1.78a.53.53,0,0,0,.15-.52,14.49,14.49,0,1,1,14,10.59Z"/><path d="M21.61,27.06,5,43.67a.5.5,0,0,0,.7.71L22.32,27.77a.5.5,0,0,0-.71-.71Z"/></svg>