<svg id="e05f071d-3c93-493a-9b8c-5c56c42cba01" data-name="ICONS" xmlns="http://www.w3.org/2000/svg" viewBox="0 0 50 50"><path d="M48.11,34.91v-24a.5.5,0,0,0-.22-.42.52.52,0,0,0-.47,0L35.89,15.1l5.16-9.41A.5.5,0,0,0,40.84,5,34.18,34.18,0,0,0,25,1.24,33.71,33.71,0,0,0,9.88,5a.5.5,0,0,0-.22.66l4.61,9.7-12.19-5a.52.52,0,0,0-.47,0,.5.5,0,0,0-.22.42v32.3a.47.47,0,0,0,.15.35.47.47,0,0,0,.35.15H6.26v4.11a.51.51,0,0,0,.5.5h37a.5.5,0,0,0,.5-.5V43.66h3.37a.49.49,0,0,0,.36-.15.5.5,0,0,0,.14-.35V35A.3.3,0,0,0,48.11,34.91Zm-1,7.75H44.26V40.23a.5.5,0,0,0-.5-.5H37.4l9.73-4ZM22.26,47.27V41.75h5.26v5.52Zm6.26-6a.5.5,0,0,0-.5-.5H21.76a.5.5,0,0,0-.5.5v6H16.6v-8.7H33.17v8.7H28.52Zm-21.26,6V40.73H15.6v6.54ZM19.93,32.33h9.92v5.24H19.93Zm10.42-1H19.43a.5.5,0,0,0-.5.5v5.74H17V17.45H32.51V37.57H30.85V31.83A.5.5,0,0,0,30.35,31.33Zm16.76,3.34L34.73,39.73h-.56V38.07a.5.5,0,0,0-.5-.5h-.16V17.15l13.6-5.55ZM16,37.59a.49.49,0,0,0-.39.48v1.66h-.83L2.39,34.67V11.6L16,17.15ZM2.39,35.75l9.74,4H6.76a.5.5,0,0,0-.5.5v2.43H2.39ZM34.2,47.27V40.73h9.06v6.54ZM10.77,5.68a32.62,32.62,0,0,1,29.15,0l-5.5,10-1.6.65s-.08.07-.12.1H16.8s-.07-.08-.12-.1l-1-.42Z"/><path d="M13,18.46a.5.5,0,0,0-.5.5V36.48a.5.5,0,0,0,1,0V19A.5.5,0,0,0,13,18.46Z"/><path d="M9.21,16.88a.51.51,0,0,0-.5.5V34.44a.5.5,0,0,0,.5.5.5.5,0,0,0,.5-.5V17.38A.5.5,0,0,0,9.21,16.88Z"/><path d="M5.14,15.21a.51.51,0,0,0-.5.5v17.4a.51.51,0,0,0,.5.5.5.5,0,0,0,.5-.5V15.71A.5.5,0,0,0,5.14,15.21Z"/><path d="M34.26,6.34A.5.5,0,0,0,34.89,6a.51.51,0,0,0-.31-.64,29.14,29.14,0,0,0-19.65.25.5.5,0,0,0-.29.65.49.49,0,0,0,.47.32l.17,0A28.12,28.12,0,0,1,34.26,6.34Z"/><path d="M33,10.13a.5.5,0,0,0,.63-.31.5.5,0,0,0-.3-.64A25.41,25.41,0,0,0,16.2,9.4a.52.52,0,0,0-.3.65.51.51,0,0,0,.47.32l.18,0A24.3,24.3,0,0,1,33,10.13Z"/><path d="M32.1,12.78A21.51,21.51,0,0,0,17.55,13a.52.52,0,0,0-.3.65.51.51,0,0,0,.47.32l.18,0a20.52,20.52,0,0,1,13.87-.18.5.5,0,0,0,.63-.31A.49.49,0,0,0,32.1,12.78Z"/><path d="M36.38,36.74a.5.5,0,0,0,.5-.5V18.73a.5.5,0,1,0-1,0V36.24A.5.5,0,0,0,36.38,36.74Z"/><path d="M40.17,34.71a.5.5,0,0,0,.5-.5V17.15a.5.5,0,0,0-.5-.5.5.5,0,0,0-.5.5V34.21A.5.5,0,0,0,40.17,34.71Z"/><path d="M44.24,33.38a.5.5,0,0,0,.5-.5V15.48a.5.5,0,1,0-1,0v17.4A.5.5,0,0,0,44.24,33.38Z"/><path d="M24.89,32.93c-2.07,0-3.63.89-3.63,2.06s1.56,2.07,3.63,2.07,3.63-.89,3.63-2.07S27,32.93,24.89,32.93Zm0,3.13c-1.61,0-2.63-.63-2.63-1.07s1-1.06,2.63-1.06,2.63.63,2.63,1.06S26.49,36.06,24.89,36.06Z"/><path d="M31.31,30.17a.37.37,0,0,0-.37-.38H18.75a.38.38,0,1,0,0,.75H30.94A.37.37,0,0,0,31.31,30.17Z"/><path d="M30.94,20.08H18.75a.38.38,0,1,0,0,.75H30.94a.38.38,0,0,0,0-.75Z"/><path d="M30.94,23.32H18.75a.38.38,0,1,0,0,.75H30.94a.38.38,0,0,0,0-.75Z"/><path d="M30.94,26.55H18.75a.38.38,0,0,0-.38.38.37.37,0,0,0,.38.37H30.94a.36.36,0,0,0,.37-.37A.37.37,0,0,0,30.94,26.55Z"/></svg>