<?xml version="1.0" encoding="UTF-8"?><svg xmlns="http://www.w3.org/2000/svg" viewBox="0 0 50 50"><g id="uuid-33695569-b153-43cc-b8b2-6e5945be609e"><g><path d="M47.46,26.06h-3.98v-6.5c0-1.98-1.61-3.59-3.59-3.59s-3.59,1.61-3.59,3.59v2.47c0,.28,.22,.5,.5,.5s.5-.22,.5-.5v-2.47c0-1.43,1.16-2.59,2.59-2.59s2.59,1.16,2.59,2.59v6.5H1.79c-.28,0-.5,.22-.5,.5v20.77c0,.28,.22,.5,.5,.5H47.46c.28,0,.5-.22,.5-.5V26.56c0-.28-.22-.5-.5-.5Zm-31.23,9.18h16.62v11.59H16.23v-11.59Zm16.62-1H16.23v-7.18h16.62v7.18ZM2.29,27.06H15.23v19.77H2.29V27.06Zm44.67,19.77h-13.11V27.06h8.99s.1,.03,.15,.03,.1-.01,.15-.03h3.83v19.77Z"/><path d="M16,16.18h16.99c.28,0,.5-.22,.5-.5v-5.87c0-.14-.06-.27-.16-.37l-3.79-3.48V1.93c0-.28-.22-.5-.5-.5h-8.81c-.27,0-.5,.22-.5,.5l-.03,4.08-4.02,3.39c-.11,.1-.18,.23-.18,.38v5.9c0,.28,.22,.5,.5,.5Zm.5-6.17l4.02-3.39c.11-.09,.18-.23,.18-.38l.03-3.82h7.81v3.75c0,.14,.06,.27,.16,.37l3.79,3.48v5.15h-15.99v-5.17Z"/><circle cx="24.73" cy="31.2" r=".74"/><path d="M20.21,31.96c.41,0,.74-.33,.74-.74s-.33-.74-.74-.74-.74,.33-.74,.74,.33,.74,.74,.74Z"/><path d="M29.22,31.93c.41,0,.74-.33,.74-.74s-.33-.74-.74-.74-.74,.33-.74,.74,.33,.74,.74,.74Z"/><path d="M12.86,33.8c-.41,0-.74,.33-.74,.74s.33,.74,.74,.74,.74-.33,.74-.74-.33-.74-.74-.74Z"/><path d="M36.26,33.81c-.41,0-.74,.33-.74,.74s.33,.74,.74,.74,.74-.33,.74-.74-.33-.74-.74-.74Z"/></g></g><g id="uuid-9d725f63-9844-4dae-8536-03f43add4318"><text transform="translate(.35 54.89)" font-family="Roboto-Regular, Roboto" font-size="6"><tspan x="0" y="0">kitchen</tspan></text></g></svg>