<?xml version="1.0" encoding="utf-8"?>
<!-- Generator: Adobe Illustrator 26.3.1, SVG Export Plug-In . SVG Version: 6.00 Build 0)  -->
<svg version="1.1" id="Layer_1" xmlns="http://www.w3.org/2000/svg" xmlns:xlink="http://www.w3.org/1999/xlink" x="0px" y="0px"
	 viewBox="0 0 50 50" style="enable-background:new 0 0 50 50;" xml:space="preserve">
<style type="text/css">
	.st0{fill:#FFCD00;}
</style>
<g id="uuid-bc44fb4d-15d5-4d1a-8826-79fbcb75457c">
	<g id="uuid-161b06ca-787a-4a46-9e48-5ac76ad89d2b">
		<g>
			<path class="st0" d="M20.1,4.8L24,16l-5.8-6.4l1-1c0.1-0.1,0.1-0.2,0.1-0.4s0-0.3-0.1-0.3L17,5.6l2.5-2.5L20.1,4.8
				C20.1,4.8,20.1,4.8,20.1,4.8z"/>
			<path class="st0" d="M30.4,2.6l-0.5,1.5c-2.9-0.6-6-0.7-8.9,0l-0.5-1.5C23.6,1.9,27,1.9,30.4,2.6L30.4,2.6z"/>
			<path class="st0" d="M26.7,16l4.5-12.9l2.5,2.5L31.4,8c-0.1,0.1-0.1,0.2-0.1,0.3s0,0.3,0.1,0.4l1,1C32.4,9.7,26.7,16,26.7,16z"/>
			<path d="M33.1,19.9h-4.8c-0.3,0-0.5,0.2-0.5,0.5s0.2,0.5,0.5,0.5h4.8c0.3,0,0.5-0.2,0.5-0.5S33.4,19.9,33.1,19.9z M22.4,20.9
				c0.3,0,0.5-0.2,0.5-0.5s-0.2-0.5-0.5-0.5s-0.5,0.2-0.5,0.5S22.1,20.9,22.4,20.9z M22.4,26.5c0.3,0,0.5-0.2,0.5-0.5
				s-0.2-0.5-0.5-0.5s-0.5,0.2-0.5,0.5S22.1,26.5,22.4,26.5z M22.4,32.1c0.3,0,0.5-0.2,0.5-0.5s-0.2-0.5-0.5-0.5s-0.5,0.2-0.5,0.5
				S22.1,32.1,22.4,32.1z M22.4,37.7c0.3,0,0.5-0.2,0.5-0.5s-0.2-0.5-0.5-0.5s-0.5,0.2-0.5,0.5S22.1,37.7,22.4,37.7z M22.4,43.3
				c0.3,0,0.5-0.2,0.5-0.5s-0.2-0.5-0.5-0.5s-0.5,0.2-0.5,0.5S22.1,43.3,22.4,43.3z M32.9,2.8L31.1,1l0,0c0-0.1-0.1-0.1-0.2-0.1
				c0,0,0,0,0,0c0,0,0,0,0,0C27-0.1,23-0.1,19.2,0.9c0,0,0,0,0,0c0,0,0,0,0,0c-0.1,0-0.1,0.1-0.2,0.1c0,0,0,0,0,0l-1.9,1.9
				c-4.9,0.4-8.6,4.6-8.6,9.5v19.4c0,0.3,0.2,0.5,0.5,0.5h4.3v17.2c0,0.3,0.2,0.5,0.5,0.5h22.3c0.3,0,0.5-0.2,0.5-0.5V32.2H41
				c0.3,0,0.5-0.2,0.5-0.5V12.3C41.5,7.4,37.7,3.3,32.9,2.8z M30.9,2.2l2.5,2.5l-2.3,2.3C31,7.2,31,7.3,31,7.4s0,0.3,0.1,0.4l1,1
				l-5.7,6.3C26.4,15.1,30.9,2.2,30.9,2.2z M30,1.7l-0.5,1.5c-2.9-0.6-6-0.6-8.9,0L20,1.7C23.3,1,26.7,1,30,1.7z M19.1,2.2l0.6,1.7
				l0,0l4,11.2l-5.8-6.3l1-1c0.1-0.1,0.1-0.2,0.1-0.4s0-0.3-0.1-0.3l-2.3-2.3C16.7,4.8,19.1,2.3,19.1,2.2z M24.5,48.8H14.4v-5h1.1
				c1.9,0,3.5-1.6,3.5-3.5v-4.8c0-0.3-0.2-0.5-0.5-0.5h-4.1V14.7c0-0.3-0.2-0.5-0.5-0.5s-0.5,0.2-0.5,0.5v16.5H9.5V12.3
				c0-3.9,2.7-7.3,6.4-8.2l-0.3,0.3c-0.1,0.1-0.1,0.2-0.1,0.3s0.1,0.3,0.1,0.4l2.3,2.3l-1,1c-0.2,0.2-0.2,0.5,0,0.7l7.6,8.4
				C24.5,17.5,24.5,48.8,24.5,48.8z M14.3,42.8v-6.8h3.5v4.3c0,1.4-1.1,2.5-2.5,2.5C15.4,42.8,14.3,42.8,14.3,42.8z M20.9,4.2
				c2.7-0.6,5.6-0.6,8.3,0L25,15.9C25,15.9,20.9,4.2,20.9,4.2z M35.7,42.8h-1c-1.4,0-2.5-1.1-2.5-2.5v-4.3h3.5V42.8z M40.5,31.2
				h-3.8V14.7c0-0.3-0.2-0.5-0.5-0.5s-0.5,0.2-0.5,0.5v20.4h-4c-0.3,0-0.5,0.2-0.5,0.5v4.8c0,1.9,1.6,3.5,3.5,3.5h1v5H25.5V17.6
				l7.7-8.5c0.2-0.2,0.2-0.5,0-0.7l-1-1l2.3-2.3c0.1-0.1,0.2-0.2,0.2-0.4s-0.1-0.3-0.2-0.3l-0.3-0.3c3.6,1,6.3,4.3,6.3,8.2V31.2z"/>
		</g>
	</g>
</g>
</svg>
