<?xml version="1.0" encoding="utf-8"?>
<!-- Generator: Adobe Illustrator 26.3.1, SVG Export Plug-In . SVG Version: 6.00 Build 0)  -->
<svg version="1.1" id="Layer_1" xmlns="http://www.w3.org/2000/svg" xmlns:xlink="http://www.w3.org/1999/xlink" x="0px" y="0px"
	 viewBox="0 0 50 50" style="enable-background:new 0 0 50 50;" xml:space="preserve">
<style type="text/css">
	.st0{fill:#FFCD00;}
</style>
<g id="uuid-617ff49b-9a52-45ef-956a-770663ea3cca">
	<g>
		<g>
			<path class="st0" d="M48.6,42.5v2.1c0,1.7-1.4,3-3,3H27.2c-1,0-1.8-0.8-1.8-1.8s0.8-1.8,1.8-1.8H43l1,1.4
				c0.1,0.1,0.2,0.2,0.4,0.2c0.1,0,0.2,0,0.3-0.1c0.2-0.2,0.3-0.5,0.1-0.7l-1-1.3l1-1.3c0.2-0.2,0.1-0.5-0.1-0.7c0,0,0,0-0.1,0
				c-0.2-0.1-0.5-0.1-0.6,0.1l-1,1.4H27.2c-0.2,0-0.4,0-0.5-0.1c-0.8-0.2-1.3-0.9-1.3-1.7c0-1,0.8-1.8,1.8-1.8h18.3
				C47.2,39.5,48.6,40.8,48.6,42.5z"/>
			<path class="st0" d="M46.8,30.2c1,0,1.8,0.8,1.8,1.8c0,1-0.8,1.8-1.8,1.8H31.1l-1-1.4c-0.2-0.2-0.5-0.3-0.7-0.1
				c-0.1,0.1-0.2,0.2-0.2,0.3v0.2c0,0.1,0,0.1,0.1,0.2l1,1.3l-1,1.3c-0.1,0.1-0.1,0.3-0.1,0.5c0,0.1,0.1,0.2,0.2,0.2
				c0.1,0.1,0.2,0.1,0.3,0.1c0.1,0,0.3-0.1,0.4-0.2l0.1-0.1l0.9-1.3h15.7c1,0,1.8,0.8,1.8,1.8s-0.8,1.8-1.8,1.8H28.5
				c-0.1,0-0.3,0-0.4,0c-0.9-0.1-1.7-0.6-2.1-1.3c-0.2-0.3-0.3-0.6-0.4-1c0-0.2-0.1-0.5-0.1-0.7v-2.1c0-1.6,1.2-2.9,2.8-3
				c0.1,0,0.2,0,0.2,0C28.5,30.2,46.8,30.2,46.8,30.2z"/>
			<path class="st0" d="M43.3,18.1H6c0.2-2.5,2.4-4.6,5.3-5.4c0.6-0.2,1.3-0.3,2-0.4c0.3,0,0.5,0,0.8,0c0.8,0,1.5,0.1,2.2,0.2
				c0.2,0,0.4,0,0.5-0.2c0-0.1,0.1-0.1,0.1-0.2c0.1-0.3-0.1-0.5-0.4-0.6c-0.8-0.2-1.6-0.2-2.4-0.2c-0.9,0-1.8,0.1-2.6,0.3
				c-0.4,0.1-0.7,0.2-1.1,0.3c0.2-4.5,4.7-8.1,10.2-8.1c3.3,0,6.4,1.4,8.3,3.5c0.4,0.4,0.7,0.9,1,1.4c-2.1,0.2-4.1,0.9-5.9,1.9
				c-0.2,0.1-0.3,0.4-0.2,0.7c0.1,0.2,0.5,0.3,0.7,0.2c1.7-1.1,3.8-1.7,5.9-1.9c0.4,0,0.9-0.1,1.3-0.1c4,0,7.5,1.6,9.6,3.9
				C42.5,14.9,43.2,16.4,43.3,18.1z"/>
		</g>
		<path d="M48.6,41.8v2.1c0,2.2-1.8,4-4,4H26.2c-1.5,0-2.8-1.3-2.8-2.8c0-0.7,0.3-1.4,0.7-1.9H6.4c-1.4,0-2.6-1.1-2.7-2.5L2.2,22.4
			c-0.9-0.4-1.6-1.2-1.6-2.3v-0.4c0-1.4,1.1-2.5,2.5-2.5H4c0.2-2.4,1.9-4.6,4.4-5.7c0,0,0,0,0-0.1c0-5.2,5-9.5,11.2-9.5
			c4.6,0,8.7,2.3,10.4,5.9c0.2,0,0.5,0,0.7,0c6.8,0,12.3,4.2,12.6,9.4h1.4c1.3,0,2.5,1.1,2.5,2.5v0.4c0,1.3-1,2.3-2.2,2.4l-0.5,5.9
			h1.2c1.5,0,2.8,1.3,2.8,2.8c0,1-0.5,1.8-1.2,2.3c0.7,0.5,1.2,1.4,1.2,2.3c0,1.2-0.7,2.1-1.7,2.6C47.9,39.2,48.6,40.4,48.6,41.8z
			 M47.6,43.9v-2.1c0-1.7-1.4-3-3-3H26.2c-1,0-1.8,0.8-1.8,1.8c0,0.8,0.5,1.5,1.3,1.7c0.2,0,0.3,0.1,0.5,0.1h15.7l1-1.4
			c0.2-0.2,0.4-0.2,0.6-0.1c0,0,0,0,0.1,0c0.2,0.2,0.3,0.5,0.1,0.7l-1,1.3l1,1.3c0.2,0.2,0.1,0.5-0.1,0.7c-0.1,0.1-0.2,0.1-0.3,0.1
			c-0.2,0-0.3-0.1-0.4-0.2l-1-1.4H26.2c-1,0-1.8,0.8-1.8,1.8s0.8,1.8,1.8,1.8h18.3C46.2,47,47.6,45.6,47.6,43.9z M46.2,20.2v-0.4
			c0-0.8-0.7-1.5-1.5-1.5H3.1c-0.8,0-1.5,0.6-1.5,1.5v0.4c0,0.8,0.7,1.5,1.5,1.5h41.6C45.5,21.6,46.2,21,46.2,20.2z M47.6,31.3
			c0-1-0.8-1.8-1.8-1.8H27.5c-0.1,0-0.2,0-0.2,0c-1.6,0.1-2.8,1.4-2.8,3v2.1c0,0.2,0,0.5,0.1,0.7c0.1,0.4,0.2,0.7,0.4,1
			c0.5,0.7,1.3,1.2,2.1,1.3c0.1,0,0.2,0,0.4,0h18.3c1,0,1.8-0.8,1.8-1.8s-0.8-1.8-1.8-1.8H30.1l-0.9,1.3L29,35.5
			c-0.1,0.1-0.2,0.2-0.4,0.2c-0.1,0-0.2,0-0.3-0.1c-0.1-0.1-0.1-0.2-0.2-0.2c0-0.2,0-0.3,0.1-0.5l1-1.3l-1-1.3
			c0-0.1-0.1-0.1-0.1-0.2v-0.2c0-0.1,0.1-0.2,0.2-0.3c0.2-0.2,0.5-0.1,0.7,0.1l1,1.4h15.7C46.8,33.1,47.6,32.3,47.6,31.3z
			 M43.5,28.5l0.5-5.9h-7.3l-0.3,5.9C36.4,28.5,43.5,28.5,43.5,28.5z M6,17.3h36.3c-0.1-1.7-0.8-3.2-2-4.5c-2.1-2.4-5.6-3.9-9.6-3.9
			c-0.4,0-0.9,0-1.3,0.1c-2.2,0.2-4.2,0.8-5.9,1.9c-0.2,0.1-0.5,0.1-0.7-0.2c-0.1-0.2-0.1-0.6,0.2-0.7c1.7-1.1,3.7-1.7,5.9-1.9
			c-0.3-0.5-0.6-1-1-1.4c-1.9-2.2-4.9-3.5-8.3-3.5c-5.5,0-10,3.6-10.2,8.1c0.3-0.1,0.7-0.2,1.1-0.3c0.8-0.2,1.7-0.3,2.6-0.3
			c0.8,0,1.6,0.1,2.4,0.2c0.3,0.1,0.4,0.3,0.4,0.6c0,0.1-0.1,0.1-0.1,0.2c-0.1,0.1-0.3,0.2-0.5,0.2c-0.7-0.1-1.5-0.2-2.2-0.2
			c-0.3,0-0.6,0-0.8,0c-0.7,0.1-1.4,0.2-2,0.4c-3,0.8-5.1,2.9-5.3,5.4C5,17.3,6,17.3,6,17.3z M35.4,28.5l0.3-5.9h-7.4l-0.1,5.9
			C28.2,28.5,35.4,28.5,35.4,28.5z M27.2,28.5l0.1-5.9H20l0.1,5.9C20,28.5,27.2,28.5,27.2,28.5z M24.8,29.5h-4.8l0.1,5.9h3.3
			c0-0.2-0.1-0.5-0.1-0.7v-2.1C23.4,31.3,24,30.2,24.8,29.5z M25.1,38c-0.6-0.4-1-1-1.3-1.6h-3.6l0.1,5.9H24
			c-0.4-0.5-0.6-1.1-0.6-1.7C23.4,39.4,24.1,38.4,25.1,38z M19.3,42.2l-0.1-5.9h-6.9l0.3,5.9H19.3z M19.2,35.4l-0.1-5.9h-7.1
			l0.3,5.9H19.2z M19,28.5L19,22.6h-7.4l0.3,5.9H19z M11.5,42.2l-0.3-5.9H4.3l0.3,4.3c0.1,0.9,0.8,1.6,1.7,1.6
			C6.4,42.2,11.5,42.2,11.5,42.2z M11.2,35.4l-0.3-5.9H3.8l0.5,5.9C4.2,35.4,11.2,35.4,11.2,35.4z M10.9,28.5l-0.3-5.9H3.3l0.5,5.9
			C3.7,28.5,10.9,28.5,10.9,28.5z"/>
	</g>
</g>
</svg>
