<?xml version="1.0" encoding="utf-8"?>
<!-- Generator: Adobe Illustrator 26.3.1, SVG Export Plug-In . SVG Version: 6.00 Build 0)  -->
<svg version="1.1" id="Layer_1" xmlns="http://www.w3.org/2000/svg" xmlns:xlink="http://www.w3.org/1999/xlink" x="0px" y="0px"
	 viewBox="0 0 50 50" style="enable-background:new 0 0 50 50;" xml:space="preserve">
<g id="uuid-38cb482e-4c72-4ee7-98e9-13005ac1d36c">
	<path d="M49,31.3c0-1.5-1.3-2.8-2.8-2.8h-1.2l0.5-5.9c1.2-0.1,2.2-1.2,2.2-2.4v-0.4c0-1.4-1.1-2.5-2.5-2.5h-1.4
		c-0.3-5.2-5.8-9.4-12.6-9.4c-0.2,0-0.5,0-0.7,0C28.7,4.4,24.6,2.1,20,2.1c-6.2,0-11.2,4.2-11.2,9.5c0,0,0,0,0,0.1
		c-2.5,1.2-4.2,3.3-4.4,5.7H3.5c-1.3,0-2.5,1.1-2.5,2.5v0.4c0,1,0.7,1.9,1.6,2.3L4,40.8c0.1,1.4,1.3,2.5,2.7,2.5h17.8
		c-0.5,0.5-0.7,1.2-0.7,1.9c0,1.5,1.3,2.8,2.8,2.8h18.3c2.2,0,4-1.8,4-4v-2.1c0-1.3-0.7-2.5-1.7-3.3c1-0.4,1.7-1.4,1.7-2.6
		c0-1-0.5-1.8-1.2-2.3C48.5,33.1,49,32.3,49,31.3z M10.7,11.9c0.6-0.2,1.3-0.3,2-0.4c0.3,0,0.5,0,0.8,0c0.8,0,1.5,0.1,2.2,0.2
		c0.2,0,0.4,0,0.5-0.2c0-0.1,0.1-0.1,0.1-0.2c0.1-0.3-0.1-0.5-0.4-0.6c-0.8-0.2-1.6-0.2-2.4-0.2c-0.9,0-1.8,0.1-2.6,0.3
		c-0.4,0.1-0.7,0.2-1.1,0.3C10,6.7,14.5,3.1,20,3.1c3.3,0,6.4,1.4,8.3,3.5C28.6,7,29,7.5,29.3,8c-2.1,0.2-4.1,0.9-5.9,1.9
		c-0.2,0.1-0.3,0.4-0.2,0.7c0.1,0.2,0.5,0.3,0.7,0.2c1.7-1.1,3.8-1.7,5.9-1.9c0.4,0,0.8-0.1,1.3-0.1c4,0,7.5,1.6,9.6,3.9
		c1.2,1.3,1.9,2.8,2,4.5H5.3C5.5,14.8,7.7,12.7,10.7,11.9z M3.6,22.6H11l0.3,5.9H4.1L3.6,22.6z M4.2,29.5h7.1l0.3,5.9h-7L4.2,29.5z
		 M6.7,42.2c-0.9,0-1.6-0.7-1.7-1.6l-0.3-4.3h6.9l0.3,5.9H6.7z M12,22.6h7.4l0.1,5.9h-7.2C12.3,28.5,12,22.6,12,22.6z M12.3,29.5
		h7.1l0.1,5.9h-6.9L12.3,29.5z M12.9,42.2l-0.3-5.9h6.9l0.1,5.9H12.9z M3.5,21.6C2.7,21.6,2,21,2,20.2v-0.4c0-0.8,0.6-1.5,1.5-1.5
		h41.6c0.8,0,1.5,0.6,1.5,1.5v0.4c0,0.8-0.7,1.5-1.5,1.5H3.5z M44.4,22.6l-0.5,5.9h-7.2l0.3-5.9H44.4z M36,22.6l-0.3,5.9h-7.2
		l0.1-5.9H36z M20.3,22.6h7.4l-0.1,5.9h-7.2L20.3,22.6z M20.4,29.5h4.8c-0.9,0.7-1.4,1.8-1.4,3v2.1c0,0.2,0,0.5,0.1,0.7h-3.3
		C20.5,35.4,20.4,29.5,20.4,29.5z M23.8,40.5c0,0.7,0.2,1.2,0.6,1.7h-3.8l-0.1-5.9h3.6c0.3,0.6,0.8,1.2,1.3,1.6
		C24.5,38.4,23.8,39.4,23.8,40.5L23.8,40.5z M48,41.8v2.1c0,1.7-1.4,3-3,3H26.6c-1,0-1.8-0.8-1.8-1.8s0.8-1.8,1.8-1.8h15.7l1,1.4
		c0.1,0.1,0.2,0.2,0.4,0.2c0.1,0,0.2,0,0.3-0.1c0.2-0.2,0.3-0.5,0.1-0.7l-1-1.3l1-1.3c0.2-0.2,0.1-0.5-0.1-0.7c0,0,0,0-0.1,0
		c-0.2-0.1-0.5-0.1-0.6,0.1l-1,1.4H26.6c-0.2,0-0.4,0-0.5-0.1c-0.7-0.2-1.3-0.9-1.3-1.7c0-1,0.8-1.8,1.8-1.8h18.3
		C46.6,38.7,48,40.1,48,41.8L48,41.8z M46.2,33.1H30.5l-1-1.4c-0.2-0.2-0.5-0.3-0.7-0.1c-0.1,0.1-0.2,0.2-0.2,0.3v0.2
		c0,0.1,0,0.1,0.1,0.2l1,1.3l-1,1.3c-0.1,0.1-0.1,0.3-0.1,0.5c0,0.1,0.1,0.2,0.2,0.2c0.1,0.1,0.2,0.1,0.3,0.1c0.1,0,0.3-0.1,0.4-0.2
		l0.1-0.1l0.9-1.3h15.7c1,0,1.8,0.8,1.8,1.8s-0.8,1.8-1.8,1.8H27.8c-0.1,0-0.3,0-0.4,0c-0.9-0.1-1.7-0.6-2.1-1.3
		c-0.2-0.3-0.3-0.6-0.4-1c0-0.2-0.1-0.5-0.1-0.7v-2.1c0-1.6,1.2-2.9,2.8-3c0.1,0,0.2,0,0.3,0h18.3c1,0,1.8,0.8,1.8,1.8
		S47.2,33.1,46.2,33.1L46.2,33.1z"/>
</g>
</svg>
