<svg xmlns="http://www.w3.org/2000/svg" viewBox="0 0 50 50"><g id="ae0f15d3-3e8a-4896-b0a0-508f912d2b06" data-name="ICONS"><path d="M40.46,26.8l-1,.71-5.1-6.93,6-4.37.29.39h0l.65.89a.2.2,0,0,0,.15.08.18.18,0,0,0,.16,0l1.12-.82a.21.21,0,0,0,.09-.14.22.22,0,0,0,0-.16L35.47,6.31a.2.2,0,0,0-.15-.08s0,0,0,0a.21.21,0,0,0-.13,0L34,7.09a.25.25,0,0,0-.09.14.28.28,0,0,0,0,.16l.35.47h0l.3.42L17.82,20.6,17,19.49a.21.21,0,0,0-.18-.09.24.24,0,0,0-.13.05l-1.12.81a.22.22,0,0,0-.05.31l7.39,10.11a.23.23,0,0,0,.31,0l1.12-.82a.21.21,0,0,0,0-.3l-.87-1.19q3-2.19,6.07-4.37l5.12,7-1,.74,9.34,12.77,6.75-4.94Z" fill="#fdd600"/><polygon points="21.08 43.78 20.92 43.78 20.92 40.75 4.51 40.75 4.51 43.78 4.36 43.78 1.7 43.78 1.7 45.82 23.73 45.82 23.73 43.78 21.08 43.78" fill="#fdd600"/><path d="M49.45,37.91l-10-13.66a.48.48,0,0,0-.33-.2.49.49,0,0,0-.37.09l-.61.45-3.82-5.24,4.4-3.22.37.5a1.24,1.24,0,0,0,1,.5,1.22,1.22,0,0,0,.72-.24l1.14-.83a1.22,1.22,0,0,0,.26-1.7L34.76,4.18a1.23,1.23,0,0,0-1.71-.26l-1.13.83a1.21,1.21,0,0,0-.27,1.7l.06.08L27.3,9.75,26.1,8.11A.51.51,0,0,0,25.4,8l-5.58,4.09a.49.49,0,0,0-.2.32.53.53,0,0,0,.09.37l1.2,1.64-4.4,3.23-.21-.29a1.25,1.25,0,0,0-.8-.48,1.19,1.19,0,0,0-.91.22l-1.13.83a1.21,1.21,0,0,0-.27,1.7l7.45,10.18a1.21,1.21,0,0,0,1.7.26l1.14-.83a1.22,1.22,0,0,0,.26-1.7l-.21-.29L27.94,24l3.83,5.23-.61.44a.5.5,0,0,0-.11.7L41,44.06a.5.5,0,0,0,.33.2h.08a.53.53,0,0,0,.29-.1l7.61-5.57A.48.48,0,0,0,49.45,37.91ZM32.51,5.56l1.13-.84a.22.22,0,0,1,.13,0,.21.21,0,0,1,.18.09L41.4,15a.2.2,0,0,1,0,.16.19.19,0,0,1-.08.14l-1.14.84A.22.22,0,0,1,39.9,16l-.66-.9h0l-6.43-8.8h0l-.35-.48A.21.21,0,0,1,32.51,5.56ZM25.59,9.11l.85,1.16-4.77,3.49-.85-1.16Zm-2.7,19.32-1.14.84a.23.23,0,0,1-.31-.05L14,19a.18.18,0,0,1,0-.16.2.2,0,0,1,.09-.15l1.13-.83a.27.27,0,0,1,.13,0h0a.29.29,0,0,1,.14.09l7.45,10.18A.21.21,0,0,1,22.89,28.43ZM32.3,7.33l5.84,8L22.94,26.44l-5.84-8ZM33.56,20l3.79,5.18-4.78,3.49-3.78-5.18Zm8,23.07-9.4-12.85,6.8-5,9.4,12.85Z" fill="#231f20"/><path d="M23.73,42.28H21.42V40.09a.83.83,0,0,0-.84-.84H3.86a.84.84,0,0,0-.85.84v2.19H.7a.51.51,0,0,0-.5.5v3a.51.51,0,0,0,.5.5h23a.5.5,0,0,0,.5-.5v-3A.5.5,0,0,0,23.73,42.28ZM4,40.25H20.42v2H4Zm19.22,5.07H1.2v-2h22Z" fill="#231f20"/></g><g id="fb7e219b-54a7-428b-aa80-29ceb40ac2ab" data-name="LABELS"><text transform="translate(-0.1 54.73)" font-size="6" fill="#231f20" font-family="Roboto-Regular, Roboto">law-g<tspan x="14.25" y="0" letter-spacing="-0.01em">a</tspan><tspan x="17.47" y="0" letter-spacing="-0.01em">v</tspan><tspan x="20.34" y="0">el</tspan></text></g></svg>