<svg id="b18210b8-6360-4e4b-abdc-260bb245345e" data-name="ICONS" xmlns="http://www.w3.org/2000/svg" viewBox="0 0 50 50"><path d="M25,10.55A13,13,0,0,0,18.31,34.8v3.58H17.19a.66.66,0,0,0-.66.66v3.12s0,.07,0,.11,0,.06,0,.09V45.7a.58.58,0,0,0,.55.55h3.18a5,5,0,0,0,9.48,0h3.18a.58.58,0,0,0,.55-.55V42.36s0-.06,0-.09,0-.07,0-.11V39a.66.66,0,0,0-.66-.66H31.69V34.8A13,13,0,0,0,25,10.55Zm-3.67,35.7h7.33a4,4,0,0,1-7.33,0Zm-3.8-1V42.81H32.47v2.44Zm14.94-3.44H17.53V39.38H32.47Zm-1.53-7.73a.49.49,0,0,0-.25.43v3.87H19.31V34.51a.49.49,0,0,0-.25-.43,12.05,12.05,0,1,1,11.88,0Z"/><path d="M20.32,14.89a9.72,9.72,0,0,0-5,9.53.49.49,0,0,0,.5.45h.05a.5.5,0,0,0,.44-.55c0-.22,0-.5,0-.82a8.74,8.74,0,0,1,3.86-7.31c.26-.17.5-.32.7-.43a.5.5,0,1,0-.48-.87Z"/><path d="M47.62,21H39.56a.5.5,0,0,0-.5.5.5.5,0,0,0,.5.5h8.06a.5.5,0,0,0,.5-.5A.51.51,0,0,0,47.62,21Z"/><path d="M35.73,13.6a.49.49,0,0,0,.35-.15l5.7-5.7a.5.5,0,0,0,0-.71.51.51,0,0,0-.71,0l-5.7,5.7a.51.51,0,0,0,0,.71A.51.51,0,0,0,35.73,13.6Z"/><path d="M14.25,13.45a.49.49,0,0,0,.35.15.47.47,0,0,0,.35-.15.5.5,0,0,0,0-.71L9.26,7a.51.51,0,0,0-.71,0,.5.5,0,0,0,0,.71Z"/><path d="M10.44,21.35H2.38a.51.51,0,0,0-.5.5.5.5,0,0,0,.5.5h8.06a.5.5,0,0,0,.5-.5A.5.5,0,0,0,10.44,21.35Z"/><path d="M25,9.35a.5.5,0,0,0,.5-.5V.79a.5.5,0,1,0-1,0V8.85A.5.5,0,0,0,25,9.35Z"/></svg>