<svg xmlns="http://www.w3.org/2000/svg" viewBox="0 0 50 50"><g id="f23e9d09-f809-4306-b092-47cb73457825" data-name="ICONS"><path d="M47.47,8.59H20.7v8.94H47.47ZM23.7,15.78l2-1.5,2.59,1.5Zm4.6-1.17a2.18,2.18,0,0,1,4.21-.6l-2.63,1.52Zm3.16,1.17,7.68-4.43,5.63,4.43Z" fill="#fdd600"/><path d="M46.18,32.63a.5.5,0,0,1-.5-.5v-.85a2.49,2.49,0,0,0-2.49-2.5H34.52a2.5,2.5,0,0,0-2.5,2.5l-1.18-.05a2.5,2.5,0,0,0-2.5-2.5H19.67a2.5,2.5,0,0,0-2.49,2.5v.9a.5.5,0,0,1-.5.5H14.06v9.78H48.8V32.63Z" fill="#fdd600"/><rect x="4.7" y="12.08" width="7.65" height="8.77" fill="#fdd600"/><path d="M18.45,16.78h27.8l.1,0,.08,0,.08,0a.27.27,0,0,0,.08-.07s0,0,0,0l0,0,0-.09s0-.07,0-.1,0,0,0-.06V6.34a.51.51,0,0,0-.5-.5H18.45a.51.51,0,0,0-.5.5v9.94A.51.51,0,0,0,18.45,16.78Zm20.69-5.43,5.63,4.43H31.46Zm-9.26,4.18-1.58-.92a2.18,2.18,0,0,1,4.21-.6Zm-1.57.25H23.7l2-1.5ZM19,6.84H45.72v8.41l-6.23-4.9a.52.52,0,0,0-.56,0l-5.55,3.2a3.17,3.17,0,0,0-6,.56l-1.43-.82a.5.5,0,0,0-.55,0L22,15.78H19Z" fill="#231f20"/><path d="M47.55,29.88H44.93v-.35A3.5,3.5,0,0,0,41.44,26H32.77A3.48,3.48,0,0,0,29.7,27.9,3.5,3.5,0,0,0,26.59,26H17.92a3.5,3.5,0,0,0-3.49,3.5v.4H11.81a.51.51,0,0,0-.5.5V41.16a.5.5,0,0,0,.5.5H13.3v2a.51.51,0,0,0,.5.5.5.5,0,0,0,.5-.5v-2H45.06v2a.5.5,0,0,0,1,0v-2h1.49a.5.5,0,0,0,.5-.5V30.38A.51.51,0,0,0,47.55,29.88Zm-32.12,6h28.5v2.17H15.43ZM32.77,27h8.67a2.49,2.49,0,0,1,2.49,2.5v5.36H30.27V29.53A2.5,2.5,0,0,1,32.77,27ZM15.43,29.48A2.5,2.5,0,0,1,17.92,27h8.67a2.5,2.5,0,0,1,2.5,2.5v5.41H15.43V29.48ZM47.05,40.66H12.31V30.88h2.12v7.68a.5.5,0,0,0,.5.5h29.5a.5.5,0,0,0,.5-.5V30.88h2.12Z" fill="#231f20"/><path d="M11.1,20.1a.5.5,0,0,0,.5-.5V9.83a.5.5,0,0,0-.5-.5H2.45a.5.5,0,0,0-.5.5V19.6a.5.5,0,0,0,.5.5H6.28V43.16H4.68a.5.5,0,0,0-.5.5.51.51,0,0,0,.5.5H8.87a.5.5,0,0,0,.5-.5.5.5,0,0,0-.5-.5H7.28V20.1ZM3,10.33H10.6V19.1H3Z" fill="#231f20"/></g><g id="fea2b918-f567-4a30-bfa8-b6d051e0f078" data-name="LABELS"><text transform="translate(0.19 54.89)" font-size="6" fill="#231f20" font-family="Roboto-Regular, Roboto">living-<tspan x="15.61" y="0" letter-spacing="-0.01em">r</tspan><tspan x="17.58" y="0">oom</tspan></text></g></svg>