<svg id="b6bd321a-9858-44dc-9cc4-cd77936c80cf" data-name="ICONS" xmlns="http://www.w3.org/2000/svg" viewBox="0 0 50 50"><path d="M25.58,4.55A10.56,10.56,0,0,0,15,15.1v7.49h0v1H36.13V15.1A10.56,10.56,0,0,0,25.58,4.55Z" fill="none"/><path d="M38.36,23.59V14.64a12.78,12.78,0,0,0-25.55,0v9h-3V41.23a8.41,8.41,0,0,0,8.41,8.4h16a8.41,8.41,0,0,0,8.41-8.4V23.59ZM26.5,34.17a.48.48,0,0,0-.25.43v6.49h-3V34.6a.48.48,0,0,0-.25-.43,3.58,3.58,0,1,1,3.5,0Zm9.63-11.58v1H15.05v-1h0V15.1a10.55,10.55,0,1,1,21.09,0Z" fill="#fdd600"/><path d="M41.65,21.09H38.52V14.14a13.77,13.77,0,0,0-27.54,0v7H7.85a.51.51,0,0,0-.5.5V39.73a9.42,9.42,0,0,0,9.41,9.4h16a9.42,9.42,0,0,0,9.41-9.4V21.59A.51.51,0,0,0,41.65,21.09Zm-.5,18.64a8.41,8.41,0,0,1-8.41,8.4h-16a8.41,8.41,0,0,1-8.41-8.4V22.09h32.8ZM34.3,21.09H15.21V14.6a9.55,9.55,0,1,1,19.09,0ZM12,14.14a12.77,12.77,0,0,1,25.54,0v7H35.3V14.6a10.55,10.55,0,1,0-21.09,0v6.49H12Z" fill="#231f20"/><path d="M24.75,26.48a4.57,4.57,0,0,0-2.5,8.4v6.71a.51.51,0,0,0,.5.5h4a.51.51,0,0,0,.5-.5V34.88a4.57,4.57,0,0,0-2.5-8.4Zm1.75,7.69a.48.48,0,0,0-.25.43v6.49h-3V34.6a.48.48,0,0,0-.25-.43,3.58,3.58,0,1,1,3.5,0Z" fill="#231f20"/></svg>