<svg xmlns="http://www.w3.org/2000/svg" viewBox="0 0 50 50"><g id="fc1ea8ef-0e53-4d6e-a63c-331c97e23d84" data-name="ICONS"><path d="M22.36,27.89h-.05v-2.5c-.34-.07-.68-.16-1-.25v3.25a.5.5,0,0,0,.5.5h.05v-.5A.5.5,0,0,1,22.36,27.89Z"/><path d="M27.22,27.89h0a.5.5,0,0,1,.5.5v.5h0a.5.5,0,0,0,.5-.5V25.12c-.33.1-.66.18-1,.25Z"/><path d="M24.72.17a12.72,12.72,0,0,0-3.41,25c.32.09.66.18,1,.25a12.68,12.68,0,0,0,4.91,0c.34-.07.67-.15,1-.25A12.72,12.72,0,0,0,24.72.17Zm0,24.45A11.73,11.73,0,1,1,36.45,12.9,11.74,11.74,0,0,1,24.72,24.62Z"/><path d="M24.72,3.44a9.46,9.46,0,1,0,9.46,9.46A9.47,9.47,0,0,0,24.72,3.44Zm0,17.91a8.46,8.46,0,1,1,8.46-8.45A8.46,8.46,0,0,1,24.72,21.35Z"/><path d="M27.17,27.89H22.36a.5.5,0,0,0-.5.5V48.83a.5.5,0,0,0,.5.5h4.81a.5.5,0,0,0,.5-.5V28.39A.5.5,0,0,0,27.17,27.89Zm-.5,20.44H22.86V28.89h3.81Z"/><path d="M24.63,6.69a6.85,6.85,0,0,0-6.2,6.68.49.49,0,0,0,.3.47.41.41,0,0,0,.19,0,.5.5,0,0,0,.52-.49,5.92,5.92,0,0,1,1.4-3.67,6,6,0,0,1,3.89-2,.5.5,0,0,0-.1-1Z"/></g><g id="a2d12ec6-7516-46c3-99e6-7a9c212a4bbc" data-name="LABELS"><text transform="translate(0 55.07)" font-size="6" font-family="Roboto-Regular, Roboto">magnifying-glass</text></g></svg>