<?xml version="1.0" encoding="UTF-8"?><svg xmlns="http://www.w3.org/2000/svg" viewBox="0 0 50 50"><g id="uuid-3edef766-f0a7-4998-b523-18d9b81ada41"><g><path d="M22.36,27.89h-.05v-2.51c-.34-.07-.67-.15-1-.24v3.25c0,.28,.22,.5,.5,.5h.05v-.5c0-.28,.22-.5,.5-.5Z"/><path d="M27.22,27.89h-.05c.28,0,.5,.22,.5,.5v.5h.05c.28,0,.5-.22,.5-.5v-3.27c-.33,.09-.66,.18-1,.25v2.52Z"/><path d="M24.72,.17C17.71,.17,12,5.88,12,12.9c0,5.83,3.95,10.75,9.31,12.24,.33,.09,.66,.18,1,.24,.78,.15,1.59,.24,2.42,.24s1.69-.09,2.5-.25c.34-.07,.67-.16,1-.25,5.32-1.53,9.23-6.42,9.23-12.22C37.45,5.88,31.74,.17,24.72,.17Zm0,24.45c-6.46,0-11.72-5.26-11.72-11.72S18.26,1.17,24.72,1.17s11.72,5.26,11.72,11.72-5.26,11.72-11.72,11.72Z"/><path d="M24.72,3.44c-5.21,0-9.45,4.24-9.45,9.45s4.24,9.45,9.45,9.45,9.45-4.24,9.45-9.45S29.94,3.44,24.72,3.44Zm0,17.91c-4.66,0-8.45-3.79-8.45-8.45s3.79-8.45,8.45-8.45,8.45,3.79,8.45,8.45-3.79,8.45-8.45,8.45Z"/><path d="M27.17,27.89h-4.81c-.28,0-.5,.22-.5,.5v20.44c0,.28,.22,.5,.5,.5h4.81c.28,0,.5-.22,.5-.5V28.39c0-.28-.22-.5-.5-.5Zm-.5,20.44h-3.81V28.89h3.81v19.44Z"/><path d="M24.63,6.69c-.83,.08-2.95,.48-4.56,2.37-1.37,1.61-1.62,3.39-1.64,4.3,0,.21,.12,.4,.3,.48,.06,.03,.12,.04,.19,.04,.28,0,.51-.21,.52-.49,.02-.78,.23-2.3,1.4-3.67,1.38-1.61,3.18-1.95,3.89-2.02,.28-.03,.48-.28,.45-.55-.03-.28-.28-.48-.55-.45Z"/></g></g><g id="uuid-8863a49f-af7c-4583-bd29-13eca0cdd309"><text transform="translate(0 55.07)" font-family="Roboto-Regular, Roboto" font-size="6"><tspan x="0" y="0">magnifying-glass</tspan></text></g></svg>