<?xml version="1.0" encoding="UTF-8"?><svg xmlns="http://www.w3.org/2000/svg" viewBox="0 0 50 50"><g id="uuid-59fc5e2a-a8fb-4541-bc60-55d1ad79ec8b"><path d="M48.95,8.09s0-.02,0-.02h0c-.03-.09-.09-.16-.16-.21-.02-.01-.03-.02-.05-.03-.08-.05-.16-.08-.25-.08H1.02c-.09,0-.18,.03-.25,.08-.02,.01-.03,.02-.05,.03-.07,.05-.13,.12-.16,.21h0s0,.02,0,.03c-.02,.05-.03,.1-.03,.15V41.28c0,.28,.22,.5,.5,.5H48.48c.28,0,.5-.22,.5-.5V8.24c0-.05-.01-.1-.03-.15ZM28.31,26.63L47.98,9.35v30.97l-19.67-13.69ZM47.15,8.74L24.75,28.42,2.35,8.74H47.15ZM21.26,26.68L1.52,40.42V9.35L21.26,26.68Zm.77,.68l2.39,2.1c.09,.08,.21,.12,.33,.12s.24-.04,.33-.12l2.45-2.16,19.35,13.47H2.76l19.27-13.41Z"/></g><g id="uuid-f8a4c2d8-061c-4042-83bc-14cf9f4ba1a5"><text transform="translate(-.07 54.91)" font-family="Roboto-Regular, Roboto" font-size="6"><tspan x="0" y="0">mail</tspan></text></g></svg>