<svg xmlns="http://www.w3.org/2000/svg" viewBox="0 0 50 50"><g id="a23c16ed-4a69-4cca-9de4-1ca4c02806fb" data-name="ICONS"><path d="M4,12.44V40.31H48.71V12.44ZM43.4,21.58H37.6V13.92h5.8Z" fill="#fdd600"/><path d="M47.46,9.69H1.79a.5.5,0,0,0-.5.5V39.06a.5.5,0,0,0,.5.5H47.46a.5.5,0,0,0,.5-.5V10.19A.5.5,0,0,0,47.46,9.69ZM47,38.56H2.29V10.69H47Z" fill="#231f20"/><path d="M37.1,22.58h6.8a.5.5,0,0,0,.5-.5V13.42a.5.5,0,0,0-.5-.5H37.1a.5.5,0,0,0-.5.5v8.66A.5.5,0,0,0,37.1,22.58Zm.5-8.66h5.8v7.66H37.6Z" fill="#231f20"/><path d="M12.81,21.4H30.68a.5.5,0,0,0,0-1H12.81a.5.5,0,0,0,0,1Z" fill="#231f20"/><path d="M12.81,25.65H30.68a.5.5,0,0,0,.5-.5.5.5,0,0,0-.5-.5H12.81a.5.5,0,0,0-.5.5A.51.51,0,0,0,12.81,25.65Z" fill="#231f20"/><path d="M12.81,29.9H30.68a.5.5,0,0,0,.5-.5.5.5,0,0,0-.5-.5H12.81a.5.5,0,0,0-.5.5A.51.51,0,0,0,12.81,29.9Z" fill="#231f20"/></g><g id="fb76dd71-8051-4046-8b5f-cf403c3f2614" data-name="LABELS"><text transform="translate(-0.28 54.91)" font-size="6" fill="#231f20" font-family="Roboto-Regular, Roboto">mail-f<tspan x="15.17" y="0" letter-spacing="-0.01em">r</tspan><tspan x="17.14" y="0">ont</tspan></text></g></svg>