<svg id="e45edf10-cc68-49e0-b622-307d088dc558" data-name="ICONS" xmlns="http://www.w3.org/2000/svg" viewBox="0 0 50 50"><path d="M48.27,22.17a.5.5,0,0,1,0,.49l-1,1.71,1,1.71a.55.55,0,0,1,0,.5l-1,1.7,1,1.72a.53.53,0,0,1,0,.49l-1,1.72,1,1.71a.52.52,0,0,1,0,.5.5.5,0,0,1-.43.25H35c-3.17,1.73-9.58,2.66-15.73,2.66-8.61,0-17.76-1.8-17.76-5.12,0-1.84,2.8-3.21,6.75-4.07V21.86C4.28,21,1.48,19.63,1.48,17.79c0-3.32,9.15-5.12,17.76-5.12S37,14.47,37,17.79c0,1.84-2.79,3.21-6.74,4.07v.06H47.84A.48.48,0,0,1,48.27,22.17Zm-1,4.16-1-1.71a.48.48,0,0,1,0-.49L47,22.92H19.24a56.31,56.31,0,0,1-10-.86v9.29c0,.95,3.89,2.32,10,2.32H47l-.68-1.22a.48.48,0,0,1,0-.49l1-1.72-1-1.71a.48.48,0,0,1,0-.49Zm-17-5.48c3.6-.81,5.74-2,5.74-3.06,0-1.94-6.88-4.12-16.75-4.12S2.48,15.85,2.48,17.79c0,1.09,2.14,2.25,5.75,3.06l1,.2a53.22,53.22,0,0,0,10,.87,53.3,53.3,0,0,0,10-.87Zm2.18,13.82H19.24c-5.48,0-11-1.14-11-3.32v-2.2c-3.61.81-5.75,2-5.75,3.06,0,1.94,6.88,4.12,16.76,4.12A45.28,45.28,0,0,0,32.43,34.67Z"/><path d="M19.24,15.73c.8,0,7.82.06,7.82,2.06s-7,2.07-7.82,2.07-7.83-.06-7.83-2.07S18.44,15.73,19.24,15.73ZM26,17.79c-.42-.4-2.86-1.06-6.79-1.06s-6.38.66-6.8,1.06c.42.41,2.86,1.07,6.8,1.07S25.61,18.2,26,17.79Z"/></svg>