<?xml version="1.0" encoding="UTF-8"?>
<svg xmlns="http://www.w3.org/2000/svg" viewBox="0 0 50 50">
  <defs>
    <style>
      .cls-1 {
        fill: #1f1c1d;
      }

      .cls-2 {
        fill: #221f1f;
        font-family: Roboto-Regular, Roboto;
        font-size: 5px;
      }
    </style>
  </defs>
  <g id="Icon_Outline">
    <g>
      <path class="cls-1" d="M37.84,42.39h-1.44c.09-.08.18-.14.26-.23.72-.78,1.08-1.83,1-2.89l-.8-10.03c-.56-4.58-3.54-7.53-7.59-7.53h-8.29s-.09.01-.13.03c-.04-.01-.08-.03-.13-.03-4.05,0-7.03,2.96-7.59,7.55l-.8,10c-.08,1.06.28,2.11,1,2.89.08.09.17.15.26.23h-1.44c-2.01,0-3.65,1.64-3.65,3.65s1.64,3.65,3.65,3.65h25.68c2.01,0,3.65-1.64,3.65-3.65s-1.64-3.65-3.65-3.65ZM13.33,39.35l.8-9.98c.5-4.1,3.03-6.65,6.6-6.65.05,0,.09-.01.13-.03.04.01.08.03.13.03h8.29c3.57,0,6.1,2.55,6.59,6.63l.8,10c.06.79-.2,1.55-.74,2.14-.54.58-1.28.91-2.07.91h-6.26c-1.09,0-1.97-.88-1.97-1.97s.88-1.97,1.97-1.97h3.51c.32,0,.63-.13.85-.37.22-.23.33-.55.32-.87l-.34-5.8c-.02-.28-.25-.5-.53-.47-.28.02-.49.25-.47.53l.34,5.8c0,.06-.03.1-.04.12-.02.02-.06.05-.12.05h-3.51c-1.13,0-2.09.64-2.6,1.56-.5-.92-1.47-1.56-2.6-1.56h-3.51c-.06,0-.1-.03-.12-.05-.02-.02-.05-.06-.04-.12l.34-5.8c.02-.28-.19-.51-.47-.53-.28-.02-.51.19-.53.47l-.34,5.8c-.02.32.1.63.32.87.22.23.53.37.85.37h3.51c1.09,0,1.97.88,1.97,1.97s-.88,1.97-1.97,1.97h-6.26c-.8,0-1.53-.32-2.07-.91-.54-.58-.8-1.34-.74-2.14ZM27.94,48.69h-15.78c-1.46,0-2.65-1.19-2.65-2.65s1.19-2.65,2.65-2.65h10.24c1.13,0,2.09-.64,2.6-1.56.5.92,1.47,1.56,2.6,1.56h.34c1.46,0,2.65,1.19,2.65,2.65s-1.19,2.65-2.65,2.65ZM37.84,48.69h-7.41c.71-.67,1.16-1.6,1.16-2.65s-.45-1.98-1.15-2.65h7.41c1.46,0,2.65,1.19,2.65,2.65s-1.19,2.65-2.65,2.65Z"/>
      <path class="cls-1" d="M25,20.05c3.56,0,6.46-2.9,6.46-6.46s-2.9-6.46-6.46-6.46-6.46,2.9-6.46,6.46,2.9,6.46,6.46,6.46ZM25,8.12c3.01,0,5.46,2.45,5.46,5.46s-2.45,5.46-5.46,5.46-5.46-2.45-5.46-5.46,2.45-5.46,5.46-5.46Z"/>
      <path class="cls-1" d="M12.23,14.08h3.26c.28,0,.5-.22.5-.5s-.22-.5-.5-.5h-3.26c-.28,0-.5.22-.5.5s.22.5.5.5Z"/>
      <path class="cls-1" d="M17.92,7.21c.1.1.23.15.35.15s.26-.05.35-.15c.2-.2.2-.51,0-.71l-2.3-2.3c-.2-.2-.51-.2-.71,0s-.2.51,0,.71l2.3,2.3Z"/>
      <path class="cls-1" d="M25,4.57c.28,0,.5-.22.5-.5V.81c0-.28-.22-.5-.5-.5s-.5.22-.5.5v3.26c0,.28.22.5.5.5Z"/>
      <path class="cls-1" d="M31.73,7.35c.13,0,.26-.05.35-.15l2.3-2.3c.2-.2.2-.51,0-.71s-.51-.2-.71,0l-2.3,2.3c-.2.2-.2.51,0,.71.1.1.23.15.35.15Z"/>
      <path class="cls-1" d="M34.02,13.58c0,.28.22.5.5.5h3.25c.28,0,.5-.22.5-.5s-.22-.5-.5-.5h-3.25c-.28,0-.5.22-.5.5Z"/>
    </g>
  </g>
  <g id="Names">
    <text class="cls-2" transform="translate(-.02 54.17)"><tspan x="0" y="0">meditation</tspan></text>
  </g>
</svg>