<svg xmlns="http://www.w3.org/2000/svg" viewBox="0 0 50 50"><g id="b1b1d079-0e48-482d-9ff9-bfd34f01abf0" data-name="ICONS"><path d="M37.69,25.92c5.31,0,11-.94,11-3s-5.71-3-11-3a27.1,27.1,0,0,0-9.32,1.31A15.68,15.68,0,0,0,28,19.51a.45.45,0,0,0,.11-.17c.53-.45,1.48-1.4,3.32-3.24l3.46-3.45a.48.48,0,0,0,.15-.39l-.33-5.21,4.37-5.6A.5.5,0,0,0,38.3.84L33.81,6.58a.52.52,0,0,0-.1.34L34,12.1l-6.37,6.36a6.82,6.82,0,0,0-.43-.94,3.59,3.59,0,0,0-1.59-6.4V2.22a.51.51,0,0,0-.5-.5.5.5,0,0,0-.5.5V11.1a3.59,3.59,0,0,0-1.82,6.41,8.37,8.37,0,0,0-.42.9L16,12l.33-5.17a.51.51,0,0,0-.1-.34L11.7.71A.49.49,0,0,0,11,.63a.5.5,0,0,0-.09.7l4.37,5.59L15,12.14a.46.46,0,0,0,.15.38L18.56,16c1.85,1.85,2.8,2.8,3.33,3.25a.45.45,0,0,0,.12.21l.06-.06h0a13.26,13.26,0,0,0-.38,1.72c-1.92-.82-5.47-1.34-9.41-1.34-5.3,0-11,.95-11,3s5.71,3,11,3a28,28,0,0,0,9.22-1.26,16,16,0,0,0,.18,1.88l-.14,0-9.49,5.27a.51.51,0,0,0-.26.45L12,39.26l-3.6,2.12a.5.5,0,0,0,.25.93.43.43,0,0,0,.25-.07L12.79,40a.5.5,0,0,0,.25-.45l-.22-7.07,9.05-5a11.23,11.23,0,0,0,.61,2,.5.5,0,0,0-.19.13L17.18,35a.52.52,0,0,0-.14.35l.12,9.79-2.94,3.38a.49.49,0,0,0,0,.7.46.46,0,0,0,.33.13.51.51,0,0,0,.37-.17L18,45.67a.5.5,0,0,0,.12-.34l-.11-9.78,3.83-4.09a17.43,17.43,0,0,0-.4,3.71c0,4.58,1.51,8,3.52,8s3.52-3.45,3.52-8a18,18,0,0,0-.35-3.53l3.78,4-.11,9.79a.5.5,0,0,0,.12.33L35,49.31a.51.51,0,0,0,.37.17.5.5,0,0,0,.33-.12.51.51,0,0,0,.05-.71l-2.94-3.37.12-9.8a.49.49,0,0,0-.14-.34l-5.11-5.45-.13-.1s0,0,0,0a11.14,11.14,0,0,0,.61-2l9,5L37,39.65a.5.5,0,0,0,.25.44l3.86,2.27a.45.45,0,0,0,.25.07.5.5,0,0,0,.25-.93L38,39.38l.22-7.08a.52.52,0,0,0-.26-.45l-9.49-5.26-.09,0a18.11,18.11,0,0,0,.19-1.88A27.52,27.52,0,0,0,37.69,25.92Zm-10.14-2a13.53,13.53,0,0,1-1,5.42.51.51,0,0,0,0,.42,14,14,0,0,1,1,5.42c0,4.15-1.32,7-2.52,7s-2.52-3-2.52-7a13.37,13.37,0,0,1,1-5.48.54.54,0,0,0,0-.43,13.53,13.53,0,0,1-1-5.5.5.5,0,0,0-.24-.43.59.59,0,0,0-.26-.07.44.44,0,0,0-.24.07c-1.57.88-5.37,1.47-9.46,1.47-6.48,0-10-1.33-10-2s3.53-2,10-2c4.21,0,8.05.62,9.56,1.53a.48.48,0,0,0,.48,0,.49.49,0,0,0,.27-.39,9.78,9.78,0,0,1,1.32-4.27.51.51,0,0,0,.07-.4.49.49,0,0,0-.24-.32,2.6,2.6,0,1,1,2.56,0,.47.47,0,0,0-.24.32.49.49,0,0,0,.07.39A10,10,0,0,1,27.46,22a.52.52,0,0,0,.27.4.48.48,0,0,0,.48,0c1.52-.89,5.33-1.49,9.48-1.49,6.49,0,10,1.33,10,2s-3.53,2-10,2c-4.09,0-7.78-.57-9.4-1.45a.5.5,0,0,0-.49,0A.53.53,0,0,0,27.55,23.91Z"/></g><g id="e5edcf27-74c4-4f7b-97bd-752b51c4826d" data-name="LABELS"><text transform="translate(-0.44 54.98)" font-size="6" font-family="Roboto-Regular, Roboto">mosqui<tspan x="19.95" y="0" letter-spacing="-0.01em">t</tspan><tspan x="21.85" y="0">o</tspan></text></g></svg>