<svg xmlns="http://www.w3.org/2000/svg" viewBox="0 0 612 792"><g id="b537c8a9-c8b7-48e1-a821-0601a0aefe84" data-name="ICONS"><path d="M131,128.5a.49.49,0,0,1-.57.25.5.5,0,0,1-.37-.5l.11-2.72a73.8,73.8,0,0,0-9.59,8.11l-.5.52-3.39,7.4a.49.49,0,0,1-.58.27.48.48,0,0,1-.37-.53l.28-3c-10,10.58-14.65,19.57-12.73,21.49,1,1,4.2.49,10.36-3.66l-2.43-.7a.5.5,0,0,1,.1-1l5.12-.3a104.35,104.35,0,0,0,10.77-9.44l.09-.09-.94.06a.51.51,0,0,1-.52-.39.49.49,0,0,1,.3-.57l3.56-1.51c1.58-1.6,3.09-3.26,4.49-5l-4.45.27a.51.51,0,0,1-.52-.39.5.5,0,0,1,.3-.57l7.73-3.27c3.73-5.21,6.23-10.35,7.11-14.57a35.15,35.15,0,0,0-10.55,4.45Z" fill="#fdd600"/><path d="M143.59,116a.52.52,0,0,0-.43-.14,35,35,0,0,0-11.73,4.79.47.47,0,0,0-.18.19l-1.84,3.51.06-1.5a.49.49,0,0,0-.26-.46.51.51,0,0,0-.52,0,74.33,74.33,0,0,0-10.56,8.8c-.17.18-.34.35-.5.53l-.07.07a.45.45,0,0,0-.1.14l-2.19,4.78.15-1.52a.51.51,0,0,0-.29-.5.49.49,0,0,0-.57.11c-8.85,9.14-16.28,19.92-14,23.53l-2.75,2.76a.5.5,0,0,0,.35.85.51.51,0,0,0,.36-.15l2.75-2.75a2.94,2.94,0,0,0,1.62.41c3,0,7.61-2.86,10.49-4.86a.51.51,0,0,0,.21-.5.48.48,0,0,0-.36-.39l-.65-.19,2.35-.14a.49.49,0,0,0,.27-.1,102.77,102.77,0,0,0,11-9.62l.94-.95.07-.08a.51.51,0,0,0,.1-.55.58.58,0,0,0-.15-.19l1.31-.56a.54.54,0,0,0,.16-.1,78.66,78.66,0,0,0,5.35-6,.5.5,0,0,0,.06-.54.49.49,0,0,0-.48-.27l-2.68.16,5.18-2.19a.43.43,0,0,0,.21-.17c4.08-5.67,6.74-11.29,7.49-15.81A.49.49,0,0,0,143.59,116Zm-8.08,15.56-7.73,3.26a.5.5,0,0,0,.22,1l4.45-.26c-1.4,1.69-2.91,3.35-4.49,4.94l-3.57,1.51a.5.5,0,0,0-.29.57.51.51,0,0,0,.52.39l.94-.06-.09.09a103.17,103.17,0,0,1-10.77,9.44l-5.12.3a.5.5,0,0,0-.46.45.48.48,0,0,0,.36.53l2.43.7c-5.45,3.67-8.6,4.47-9.93,3.94l25.9-25.89a.51.51,0,0,0,0-.71.5.5,0,0,0-.71,0l-25.9,25.89c-1-2.59,3.64-11.13,13-21.06l-.28,3a.5.5,0,0,0,.36.53.51.51,0,0,0,.59-.28l3.39-7.4h0l.49-.51a73.14,73.14,0,0,1,9.59-8.11l-.11,2.72a.5.5,0,0,0,.94.25l2.81-5.35A35.21,35.21,0,0,1,142.61,117C141.74,121.17,139.24,126.31,135.51,131.53Z" fill="#231f20"/><polygon points="280.09 138.8 280.18 138.92 280.86 138.8 280.09 138.8" fill="#231f20"/><polygon points="248.5 138.92 248.59 138.8 247.83 138.8 248.5 138.92" fill="#231f20"/><polygon points="270.79 146.41 257.9 146.41 264.34 152.26 270.79 146.41" fill="none"/><polygon points="257.1 147.04 257.1 158.82 263.6 152.93 257.1 147.04" fill="none"/><rect x="260.15" y="134.42" width="8.39" height="6.42" fill="none"/><polygon points="257.9 159.45 270.79 159.45 264.34 153.61 257.9 159.45" fill="none"/><polygon points="271.58 158.82 271.58 147.04 265.08 152.93 271.58 158.82" fill="none"/><path d="M277.61,130.81l-.48-.15,5.66,7.79-1.93.35h-.77l-5.69-7.69a.56.56,0,0,0-.25-.18l-9.66-3.08a.51.51,0,0,0-.3,0l-9.65,3.08a.47.47,0,0,0-.25.18l-5.7,7.69h-.76l-1.94-.35,6.82-9.39,1.72-.55v-2.32a6.85,6.85,0,0,0-2.77-5.5,6.77,6.77,0,0,1,1.12,3.64H240.15a6.69,6.69,0,0,0-.27,1.86v35H281.1q.06-9.9.11-19.82l3.55-.66Q281.19,135.77,277.61,130.81Zm-17.46,3.61h8.39v6.42h-8.39Zm10.63,12-6.44,5.85-6.44-5.85ZM257.1,147l6.5,5.89-6.5,5.89Zm.8,12.41,6.44-5.84,6.44,5.84Zm13.68-.63-6.5-5.89,6.5-5.89Z" fill="#fdd600"/><path d="M284.08,139.07s0-.06,0-.09l0-.09a.41.41,0,0,0,0-.11s0-.05,0-.07v0l0-.08-.05-.1h0l-7.38-10.15a.58.58,0,0,0-.25-.19l-11.94-3.88a.55.55,0,0,0-.31,0l-10.4,3.38v-3.22a7.9,7.9,0,0,0-7.89-7.89h-.77a7.9,7.9,0,0,0-7.89,7.89v35a1,1,0,0,0,1,1H280a.5.5,0,0,0,.5-.5V139.88l3.29-.59a.72.72,0,0,0,.2-.09h0a.12.12,0,0,0,.05,0A.6.6,0,0,0,284.08,139.07Zm-3.9-.15-.09-.12-5.69-7.69a.56.56,0,0,0-.25-.18l-9.66-3.08a.51.51,0,0,0-.3,0l-9.65,3.08a.47.47,0,0,0-.25.18l-5.7,7.69-.09.12-.67-.12-1.94-.35,6.82-9.39,11.63-3.78L276,129.06l6.82,9.39-1.93.35Zm-31,.71,5.77-7.79,9.35-3,9.35,3,5.77,7.79v19.82h-6.88V145.91a.24.24,0,0,0,0-.08.18.18,0,0,0,0-.1.21.21,0,0,0-.06-.1s0,0,0-.06h0l-.1-.08-.06,0-.08,0-.11,0h-15.5l-.1,0-.09,0-.06,0-.1.08h0l0,.06a.33.33,0,0,0-.06.1.36.36,0,0,0,0,.1.24.24,0,0,0,0,.08v13.54h-6.88Zm14.38,13.3-6.5,5.89V147Zm-5.7-6.52h12.88l-6.44,5.85Zm13.68.63v11.78l-6.5-5.89Zm-7.24,6.57,6.44,5.84H257.9Zm-19.21-36.06h.77a6.89,6.89,0,0,1,6.88,6.78H238.25A6.89,6.89,0,0,1,245.13,117.55Zm-6.89,41.89V125.33h14.55V128l-.54.17a.53.53,0,0,0-.25.19l-7.38,10.15h0a.42.42,0,0,0,0,.1l0,.08v0s0,0,0,.07v.11a.36.36,0,0,0,0,.09l0,.09.08.08,0,0h0a.94.94,0,0,0,.18.08h0l3.29.59v19.57Z" fill="#231f20"/><path d="M259.15,141.34a.5.5,0,0,0,.5.5H269a.5.5,0,0,0,.5-.5v-7.42a.5.5,0,0,0-.5-.5h-9.39a.5.5,0,0,0-.5.5Zm9.39-6.92v6.42h-8.39v-6.42Z" fill="#231f20"/><path d="M355.27,158.45,342.66,135l-.39.71,1.29,2.4-.54,2.18L341.65,139a.49.49,0,0,0-.66,0l-2,1.64-.95-2,.85-1.59-6-14.26-.49,1.16,2,4.68-.61,4.72-2.8-3.85a.48.48,0,0,0-.39-.21.53.53,0,0,0-.41.19l-.17.22-5.62,13.37a.5.5,0,0,1-.42.3.48.48,0,0,1-.46-.23l-1.9-2.94-.29.45.85,1.32-3,3.41-.46-.66-8.83,13.71Z" fill="#fdd600"/><path d="M354.83,157l-13.44-25a.51.51,0,0,0-.88,0l-2,3.79-6.81-16.19a.52.52,0,0,0-.92,0l-3.7,8.81h0l-4.91,11.68-1.81-2.8a.52.52,0,0,0-.84,0l-12.67,19.66a.52.52,0,0,0,0,.51.51.51,0,0,0,.44.26h47.16a.5.5,0,0,0,.43-.24A.48.48,0,0,0,354.83,157Zm-20.44-28.32-.61,4.72-2.8-3.85a.48.48,0,0,0-.39-.21.53.53,0,0,0-.41.19l-2.12,2.67-.06-3.5,3.2-7.61Zm-7.31,4.94a.49.49,0,0,0,.34.46.5.5,0,0,0,.55-.16l2.59-3.25,3.16,4.34a.49.49,0,0,0,.4.21l.13,0a.52.52,0,0,0,.37-.42l.54-4.26,2.7,6.41-8.09,15-7-10.85L327,131Zm16.48,4.54-.54,2.18L341.65,139a.49.49,0,0,0-.66,0l-2,1.64-.95-2,2.9-5.39ZM322.17,142l-3,3.41-1.92-2.78,2.67-4.15Zm-5.53,1.54,2.05,3a.49.49,0,0,0,.38.21h0a.54.54,0,0,0,.38-.17l3.25-3.69,6.5,10.08-2,3.76H308.15Zm29.54,13.17H328.34l9.12-16.95.92,1.9a.47.47,0,0,0,.34.27h.11a.56.56,0,0,0,.32-.11l2.13-1.77,1.68,1.58a.52.52,0,0,0,.49.12.51.51,0,0,0,.34-.37l.48-1.94,9.29,17.26Z" fill="#231f20"/><path d="M203.15,161l3.08.07a8.18,8.18,0,0,0-1.71-.16A9.87,9.87,0,0,0,203.15,161Z" fill="#231f20"/><path d="M178.66,160.59a8.15,8.15,0,0,0,1.36-.1l-3.07-.06A8.11,8.11,0,0,0,178.66,160.59Z" fill="#231f20"/><path d="M215.25,157.91a4.27,4.27,0,0,0-.48-4.06,5.76,5.76,0,0,1-.8-4.24,6.11,6.11,0,0,0,0-2.1,6,6,0,0,0-1-1.85,7.78,7.78,0,0,1-1.1-1.89,8,8,0,0,1-.32-2.18,6,6,0,0,0-.34-2.07,6.14,6.14,0,0,0-1.32-1.68,8,8,0,0,1-1.37-1.69,8.14,8.14,0,0,1-.66-2.1,5.88,5.88,0,0,0-.65-2,6.25,6.25,0,0,0-1.56-1.45,7.72,7.72,0,0,1-1.62-1.45,8.21,8.21,0,0,1-1-2,5.85,5.85,0,0,0-1-1.88,6.25,6.25,0,0,0-1.78-1.17,8.1,8.1,0,0,1-1.83-1.16,8,8,0,0,1-1.3-1.76,5.92,5.92,0,0,0-1.28-1.69,5.35,5.35,0,0,0-1.82-.8,8.74,8.74,0,0,1-1.62-.63,8.65,8.65,0,0,1-1.61.63,5.26,5.26,0,0,0-1.82.8,6.13,6.13,0,0,0-1.29,1.69,7.67,7.67,0,0,1-1.29,1.76,7.77,7.77,0,0,1-1.83,1.16,4.27,4.27,0,0,0-2.76,3,7.82,7.82,0,0,1-1,2,7.72,7.72,0,0,1-1.62,1.45,6.25,6.25,0,0,0-1.56,1.45,6.11,6.11,0,0,0-.66,2,5.77,5.77,0,0,1-2,3.79,6.14,6.14,0,0,0-1.32,1.68,6,6,0,0,0-.34,2.07,8,8,0,0,1-.32,2.18,7.92,7.92,0,0,1-1.1,1.89,6,6,0,0,0-1,1.85,6.11,6.11,0,0,0,0,2.1,5.76,5.76,0,0,1-.8,4.24,4.27,4.27,0,0,0-.48,4.06,11.78,11.78,0,0,1,.25,1.18l5.35-5a3,3,0,1,1,3.77,4.58l-3.54,3.09a8.8,8.8,0,0,1,1.66.33,7.46,7.46,0,0,0,.75.19l3.07.06a6.9,6.9,0,0,0,1.08-.25,9.92,9.92,0,0,1,5.44,0,8.75,8.75,0,0,0,4.9,0,9.92,9.92,0,0,1,5.44,0,8.79,8.79,0,0,0,4.91,0,9.92,9.92,0,0,1,5.44,0,7.33,7.33,0,0,0,1.25.27l-3.48-3.74a3,3,0,0,1,3.92-4.51L215,159C215.07,158.64,215.16,158.27,215.25,157.91Z" fill="#fdd600"/><path d="M214.77,154a6.84,6.84,0,0,0-.86-2.32,5,5,0,0,1-.7-3.7,5.16,5.16,0,0,0-1.25-4.62,5,5,0,0,1-1.24-3.54,6.63,6.63,0,0,0-.42-2.42,6.81,6.81,0,0,0-1.51-2,6.7,6.7,0,0,1-1.21-1.46,7.49,7.49,0,0,1-.56-1.84,6.84,6.84,0,0,0-.79-2.33,7,7,0,0,0-1.81-1.71,4.91,4.91,0,0,1-2.26-3,7.08,7.08,0,0,0-1.17-2.18,6.91,6.91,0,0,0-2.07-1.39,7.15,7.15,0,0,1-1.6-1A6.86,6.86,0,0,1,196.2,119a6.85,6.85,0,0,0-1.52-2,6.12,6.12,0,0,0-2.15-1,6.21,6.21,0,0,1-1.63-.67.5.5,0,0,0-.55,0,6.35,6.35,0,0,1-1.63.67,6.12,6.12,0,0,0-2.15,1,6.76,6.76,0,0,0-1.52,2,7.74,7.74,0,0,1-1.12,1.54,7,7,0,0,1-1.61,1,7,7,0,0,0-2.06,1.4,6.92,6.92,0,0,0-1.17,2.17,7.06,7.06,0,0,1-.84,1.72,7.33,7.33,0,0,1-1.42,1.26,5.13,5.13,0,0,0-2.6,4,7.36,7.36,0,0,1-.56,1.84,7,7,0,0,1-1.21,1.47,6.64,6.64,0,0,0-1.51,2,6.86,6.86,0,0,0-.43,2.42,6.6,6.6,0,0,1-.27,1.9,7,7,0,0,1-1,1.64A5.16,5.16,0,0,0,168,148a5,5,0,0,1-.7,3.7,6.64,6.64,0,0,0-.86,2.32,6.88,6.88,0,0,0,.3,2.43,7.07,7.07,0,0,1,.3,1.91.48.48,0,0,0,.3.48.5.5,0,0,0,.59,0l6-5.59a2,2,0,0,1,2.47,3.06L172.14,160a.48.48,0,0,0-.09.63.49.49,0,0,0,.47.39,7.58,7.58,0,0,1,2.45.35,9.92,9.92,0,0,0,5.44,0,8.75,8.75,0,0,1,4.9,0,9.92,9.92,0,0,0,5.44,0,8.75,8.75,0,0,1,4.9,0,10,10,0,0,0,5.45,0,7.32,7.32,0,0,1,1.09-.25,8.15,8.15,0,0,1,1.36-.1,8,8,0,0,1,1.71.16,7.25,7.25,0,0,1,.74.19,8.71,8.71,0,0,0,2.66.37l.08,0a.49.49,0,0,0,.37-.84l-4.38-4.71a2,2,0,0,1,2.57-3l6,5.48a.48.48,0,0,0,.4.2.51.51,0,0,0,.48-.53,7.07,7.07,0,0,1,.3-1.91A6.88,6.88,0,0,0,214.77,154Zm-11-1.22a3,3,0,0,0,.29,4.17l3.48,3.74a7.33,7.33,0,0,1-1.25-.27,9.92,9.92,0,0,0-5.44,0,8.79,8.79,0,0,1-4.91,0,9.92,9.92,0,0,0-5.44,0,8.75,8.75,0,0,1-4.9,0,9.92,9.92,0,0,0-5.44,0,6.9,6.9,0,0,1-1.08.25,8.37,8.37,0,0,1-1.37.1,8,8,0,0,1-1.7-.16,7.46,7.46,0,0,1-.75-.19,8.8,8.8,0,0,0-1.66-.33l3.54-3.09a3,3,0,1,0-3.77-4.58l-5.35,5a11.78,11.78,0,0,0-.25-1.18,4.27,4.27,0,0,1,.48-4.06,5.76,5.76,0,0,0,.8-4.24,6.11,6.11,0,0,1,0-2.1,6,6,0,0,1,1-1.85,7.92,7.92,0,0,0,1.1-1.89,8,8,0,0,0,.32-2.18,6,6,0,0,1,.34-2.07,6.14,6.14,0,0,1,1.32-1.68,5.77,5.77,0,0,0,2-3.79,6.11,6.11,0,0,1,.66-2,6.25,6.25,0,0,1,1.56-1.45A7.72,7.72,0,0,0,179,127.4a7.82,7.82,0,0,0,1-2,4.27,4.27,0,0,1,2.76-3,7.77,7.77,0,0,0,1.83-1.16,7.67,7.67,0,0,0,1.29-1.76,6.13,6.13,0,0,1,1.29-1.69A5.26,5.26,0,0,1,189,117a8.65,8.65,0,0,0,1.61-.63,8.74,8.74,0,0,0,1.62.63,5.35,5.35,0,0,1,1.82.8,5.92,5.92,0,0,1,1.28,1.69,8,8,0,0,0,1.3,1.76,8.1,8.1,0,0,0,1.83,1.16,6.25,6.25,0,0,1,1.78,1.17,5.85,5.85,0,0,1,1,1.88,8.21,8.21,0,0,0,1,2,7.72,7.72,0,0,0,1.62,1.45,6.25,6.25,0,0,1,1.56,1.45,5.88,5.88,0,0,1,.65,2,8.14,8.14,0,0,0,.66,2.1,8,8,0,0,0,1.37,1.69,6.14,6.14,0,0,1,1.32,1.68,6,6,0,0,1,.34,2.07,8,8,0,0,0,.32,2.18,7.78,7.78,0,0,0,1.1,1.89,6,6,0,0,1,1,1.85,6.11,6.11,0,0,1,0,2.1,5.76,5.76,0,0,0,.8,4.24,4.27,4.27,0,0,1,.48,4.06c-.09.36-.18.73-.24,1.1l-5.3-4.85A3,3,0,0,0,203.75,152.75Z" fill="#231f20"/><path d="M203.12,210.69a12.17,12.17,0,0,0,6,6,12.14,12.14,0,0,0-4.26,3.25c-.24.29-.47.59-.68.9a12.33,12.33,0,0,0-1,1.84,12,12,0,0,0-6-6,12.21,12.21,0,0,0,3.37-2.3,10,10,0,0,0,.71-.75A12.17,12.17,0,0,0,203.12,210.69Z" fill="#fdd600"/><circle cx="179.4" cy="207.33" r="4.07" fill="#fdd600"/><path d="M209.39,215a.5.5,0,0,1,.35.48.48.48,0,0,1-.35.47,11.13,11.13,0,0,0-5.32,3.81,14.22,14.22,0,1,1-25.78-.83l0-.09c.22-.42.42-.76.63-1.09l11.61-20.1a.51.51,0,0,1,.86,0l8,13.86a11,11,0,0,0,2-3.55.5.5,0,0,1,.47-.34.51.51,0,0,1,.48.34A11.07,11.07,0,0,0,209.39,215Zm-1.53.48a12.17,12.17,0,0,1-6-6,12.17,12.17,0,0,1-1.91,2.94,10,10,0,0,1-.71.75,12.21,12.21,0,0,1-3.37,2.3,12,12,0,0,1,6,6,12.33,12.33,0,0,1,1-1.84c.21-.31.44-.61.68-.9A12.14,12.14,0,0,1,207.86,215.43Zm-3.63,9.83a13,13,0,0,0-.83-4.58,10.89,10.89,0,0,0-1.05,2.27.51.51,0,0,1-.48.34.5.5,0,0,1-.47-.34,11.14,11.14,0,0,0-7.05-7,.49.49,0,0,1-.34-.47.51.51,0,0,1,.34-.48,10.93,10.93,0,0,0,4.38-2.71L191,198.85l-11.18,19.36c-.21.33-.39.65-.56,1l0,0s0,0,0,.06a13.07,13.07,0,0,0-1.45,6,13.23,13.23,0,0,0,26.46,0Z" fill="#231f20"/><path d="M183.7,205.61a.5.5,0,0,1,.34.47.51.51,0,0,1-.34.48,8,8,0,0,0-5.07,5.07.5.5,0,0,1-.95,0,8,8,0,0,0-5.07-5.07.5.5,0,0,1-.35-.48.49.49,0,0,1,.35-.47,8,8,0,0,0,5.07-5.07.5.5,0,0,1,.95,0A8,8,0,0,0,183.7,205.61Zm-1.48.47a9,9,0,0,1-4.07-4.07,9,9,0,0,1-4.07,4.07,9,9,0,0,1,4.07,4.07A9,9,0,0,1,182.22,206.08Z" fill="#231f20"/><path d="M183.45,231.4a.51.51,0,0,1,0,.71.5.5,0,0,1-.7-.05,10,10,0,0,1-2.5-5.87,10.19,10.19,0,0,1,1.37-5.88.5.5,0,1,1,.86.51,9,9,0,0,0,1,10.58Z" fill="#231f20"/><path d="M131,215.59,118.61,233l4-13.92a.53.53,0,0,0-.08-.44.51.51,0,0,0-.4-.2h-8.29l7.11-11.36h6.32l-4.94,7.76a.52.52,0,0,0,0,.51.49.49,0,0,0,.44.26Z" fill="#fdd600"/><path d="M145.54,208.55a.49.49,0,0,1,.22.67L143,214.56a.55.55,0,0,1-.31.25l-.14,0a.59.59,0,0,1-.26-.07l-5.12-3.14a.5.5,0,1,1,.52-.85l4.12,2.52a21.44,21.44,0,0,0-41.89,1.13.49.49,0,0,1-.49.41h-.09a.5.5,0,0,1-.4-.58,22.43,22.43,0,0,1,43.79-1.35l2.13-4.13A.5.5,0,0,1,145.54,208.55Z" fill="#231f20"/><path d="M142.65,222a.5.5,0,0,1,.4.58A22.43,22.43,0,0,1,99.26,224l-2.13,4.13a.5.5,0,0,1-.45.27.46.46,0,0,1-.22-.06.49.49,0,0,1-.22-.67L99,222.3a.55.55,0,0,1,.31-.25.51.51,0,0,1,.4,0l5.12,3.14a.5.5,0,0,1,.17.69.51.51,0,0,1-.69.16l-4.12-2.52a21.44,21.44,0,0,0,41.89-1.13A.5.5,0,0,1,142.65,222Z" fill="#231f20"/><path d="M131.12,213.78a.49.49,0,0,1,0,.52l-14.6,20.56a.49.49,0,0,1-.41.21.44.44,0,0,1-.22,0,.49.49,0,0,1-.26-.59l4.61-16.09h-8.52a.5.5,0,0,1-.44-.26.52.52,0,0,1,0-.51L119,205.22a.49.49,0,0,1,.42-.24h7.51a.51.51,0,0,1,.44.26.49.49,0,0,1,0,.51l-4.93,7.76h8.27A.5.5,0,0,1,131.12,213.78ZM117.36,231.9l12.35-17.39H121.5a.49.49,0,0,1-.44-.26.52.52,0,0,1,0-.51L126,206h-6.32l-7.11,11.36h8.29a.51.51,0,0,1,.4.2.53.53,0,0,1,.08.44Z" fill="#231f20"/><polygon points="493.62 135.97 495.32 154.59 466.39 154.59 468.1 135.97 493.62 135.97" fill="#fdd600"/><path d="M494.62,153.29a.5.5,0,0,1-.5.54h-12v4h2.94a.5.5,0,0,1,.5.5v3.75a.5.5,0,0,1-.5.5h-12a.5.5,0,0,1-.5-.5v-3.75a.51.51,0,0,1,.5-.5h2.94v-4H464.1a.49.49,0,0,1-.37-.16.45.45,0,0,1-.13-.38L465,137.6l.36-3.92a.5.5,0,0,1,.5-.46h26.44a.5.5,0,0,1,.49.46Zm-1.05-.46-.56-6.1h-8.6l.19,6.1Zm-.65-7.1-.5-5.51h-8.21l.17,5.51Zm-.59-6.51-.46-5H484l.15,5Zm-7.73,22.4v-2.75h-11v2.75Zm-1-8.79-.19-6.1h-8.6l-.19,6.1h9Zm-.22-7.1-.17-5.51H475l-.16,5.51Zm-.2-6.51-.15-5h-7.84l-.16,5Zm-2,18.6v-4h-4.11v4ZM474,139.22l.16-5h-7.84l-.46,5Zm-.2,6.51.17-5.51h-8.2l-.51,5.51Zm-.21,7.1.18-6.1h-8.6l-.56,6.1Z" fill="#231f20"/><path d="M474.53,119.91a.5.5,0,0,1,0,.71l-5.6,5.6a7.89,7.89,0,0,1,2,5.23.51.51,0,0,1-.5.5.5.5,0,0,1-.5-.5,6.92,6.92,0,1,0-6.92,6.92.5.5,0,0,1,.5.5.51.51,0,0,1-.5.5,7.89,7.89,0,0,1-5.23-2l-5.6,5.6a.51.51,0,0,1-.36.15.5.5,0,0,1-.35-.85l5.6-5.61a7.9,7.9,0,0,1-2-4.72h-7.92a.5.5,0,0,1-.5-.5.5.5,0,0,1,.5-.5h7.92a7.9,7.9,0,0,1,2-4.73l-5.6-5.6a.5.5,0,0,1,.71-.71l5.6,5.6a7.9,7.9,0,0,1,4.73-2v-7.92a.5.5,0,0,1,.5-.5.5.5,0,0,1,.5.5v7.92a7.9,7.9,0,0,1,4.72,2l5.61-5.6A.48.48,0,0,1,474.53,119.91Z" fill="#231f20"/><path d="M401.85,156.49l-.52.07Z" fill="#fdd600"/><path d="M380.58,141.8c-.08-.3-.16-.6-.22-.92C380.42,141.2,380.5,141.5,380.58,141.8Z" fill="#fdd600"/><path d="M402.82,118l.78.13Z" fill="#fdd600"/><path d="M405.51,155.7l-.1,0Z" fill="#fdd600"/><path d="M403.68,156.19l-.47.09Z" fill="#fdd600"/><path d="M380.19,139.78c0-.24-.08-.48-.1-.73C380.11,139.3,380.16,139.54,380.19,139.78Z" fill="#fdd600"/><path d="M382.71,147c-.23-.38-.44-.77-.64-1.17C382.27,146.27,382.48,146.66,382.71,147Z" fill="#fdd600"/><path d="M383.7,148.55c-.29-.39-.55-.8-.81-1.21C383.15,147.76,383.41,148.16,383.7,148.55Z" fill="#fdd600"/><path d="M399.49,156.65a19.56,19.56,0,0,1-7.59-1.53A19.56,19.56,0,0,0,399.49,156.65Z" fill="#fdd600"/><path d="M381.85,145.41c-.17-.36-.34-.73-.49-1.11C381.51,144.68,381.68,145.05,381.85,145.41Z" fill="#fdd600"/><path d="M381.13,143.67c-.12-.34-.24-.68-.34-1C380.89,143,381,143.33,381.13,143.67Z" fill="#fdd600"/><path d="M409.06,154.13l-.23.12Z" fill="#fdd600"/><path d="M413.2,149.06a.5.5,0,0,0-.05-.71.46.46,0,0,0-.42-.11.53.53,0,0,0-.28.16,19.38,19.38,0,0,1-27.65,1.54c-.35-.4-.68-.81-1-1.24a19.54,19.54,0,0,0,8.09,6.42,20.4,20.4,0,0,0,21.3-6.06Z" fill="#fdd600"/><path d="M406.66,119l.77.32Z" fill="#fdd600"/><path d="M407.47,154.93l-.38.17Z" fill="#fdd600"/><path d="M405.07,118.47l.76.26Z" fill="#fdd600"/><path d="M410.5,153.24v0a16.6,16.6,0,0,1-1.44.91C409.55,153.85,410,153.56,410.5,153.24Z" fill="#fdd600"/><path d="M383.81,148.7l-.11-.15Z" fill="#fdd600"/><path d="M405.41,155.73c-.56.18-1.14.33-1.73.46C404.27,156.06,404.85,155.91,405.41,155.73Z" fill="#fdd600"/><path d="M407.09,155.1c-.52.22-1,.42-1.58.6C406.05,155.52,406.57,155.32,407.09,155.1Z" fill="#fdd600"/><path d="M403.21,156.28c-.45.09-.9.16-1.36.21C402.31,156.44,402.76,156.37,403.21,156.28Z" fill="#fdd600"/><path d="M401.33,156.56c-.6.05-1.22.09-1.84.09C400.11,156.65,400.73,156.61,401.33,156.56Z" fill="#fdd600"/><path d="M408.83,154.25c-.44.25-.9.47-1.36.68C407.93,154.72,408.38,154.5,408.83,154.25Z" fill="#fdd600"/><path d="M380.79,142.64q-.12-.42-.21-.84Q380.67,142.22,380.79,142.64Z" fill="#fdd600"/><path d="M403.6,118.09c.5.11,1,.24,1.47.38C404.59,118.33,404.1,118.2,403.6,118.09Z" fill="#fdd600"/><polygon points="387.19 122.03 387.19 122.03 387.19 122.03 387.19 122.03" fill="#fdd600"/><path d="M402.18,117.84h0l.65.11C402.61,117.92,402.4,117.87,402.18,117.84Z" fill="#fdd600"/><path d="M407.65,119.44l-.22-.09.22.11Z" fill="#fdd600"/><path d="M405.83,118.73c.28.09.56.19.83.3C406.39,118.92,406.11,118.82,405.83,118.73Z" fill="#fdd600"/><path d="M380.09,139.05c-.06-.62-.1-1.26-.1-1.9C380,137.79,380,138.43,380.09,139.05Z" fill="#fdd600"/><path d="M382.07,145.87c-.08-.15-.15-.3-.22-.46C381.92,145.57,382,145.72,382.07,145.87Z" fill="#fdd600"/><path d="M381.36,144.3l-.23-.63Z" fill="#fdd600"/><path d="M380,136.33c0,.27,0,.54,0,.82,0-.28,0-.55,0-.82Z" fill="#fdd600"/><path d="M380.36,140.88c-.07-.36-.12-.73-.17-1.1C380.24,140.15,380.29,140.52,380.36,140.88Z" fill="#fdd600"/><path d="M382.89,147.34l-.18-.3Z" fill="#fdd600"/><path d="M413.53,133.57a.12.12,0,0,1,0,.08.51.51,0,0,1-.68.2,5.27,5.27,0,0,0-1-.44.09.09,0,0,1,0,.05l0,.09a1.75,1.75,0,0,1,.11.24.24.24,0,0,1,.05.1c.06.09.09.18.14.27a.56.56,0,0,0,.05.08l.17.31c.56,1,1,1.84.48,2.34s-1.17.05-2-.42c-.39-.22-1.18-.68-1.41-.61a.76.76,0,0,0,0,.39,1,1,0,0,0,.3.72c.09.07.19.08.47.07h.28a2.44,2.44,0,0,1,1,.21c.56.25,1.5.9,1.49,1.78,0,.68-.57,1-1.12,1.35a5,5,0,0,0-1.15.88,4.44,4.44,0,0,0-1.05,2.89.53.53,0,0,1-.12.3,22,22,0,0,0-1.51,2c-.09.13-.15.23-.21.33s-.09.18-.15.29a1,1,0,0,0-.12.26,4.16,4.16,0,0,1-.5.82l-.2.27s0,0-.05.05l-.19.24s0,.05-.06.07l-.19.22s-.06,0-.07.08l-.19.18-.11.08-.18.14a.47.47,0,0,1-.12.07l-.17.1-.15,0-.16.05-.16,0h-.26c-.94-.17-1.29-1.52-1.42-2.31a6.22,6.22,0,0,0-.52-1.71,4.18,4.18,0,0,1-.38-1.13,1.68,1.68,0,0,1,.09-1.07,1.78,1.78,0,0,0,.12-.9,2.44,2.44,0,0,0-.81-2.1,2.87,2.87,0,0,0-.59-.13l-.19,0a14.61,14.61,0,0,0-1.79-.2,2.81,2.81,0,0,1-1.06-.19,3.77,3.77,0,0,1-1.87-3.51c.09-2,1.86-3.22,3.28-4.19a5.2,5.2,0,0,1,3.1-1.23,4.73,4.73,0,0,1,1.84.51l0,0a3.75,3.75,0,0,0-.51-.92,2.59,2.59,0,0,0-1.37-1.11,2.12,2.12,0,0,0-1.59.5,1.87,1.87,0,0,1-1.83.41,2.09,2.09,0,0,1-1-1.69,1.8,1.8,0,0,1,.44-1.64,1.28,1.28,0,0,1,1.13-.17.74.74,0,0,0,.49,0c.21-.13.26-.66.3-1.21,0-.22,0-.45,0-.68.16-1.31.61-3.64,2-4.52,1.08-.68,2.43-.33,3.51-.05.44.11,1.18.3,1.32.19s0-.54,0-1a1.23,1.23,0,0,0,0-.2l-.22-.11-.77-.32c-.27-.11-.55-.21-.83-.3l-.76-.26c-.48-.14-1-.27-1.47-.38l-.78-.13-.65-.11L402,118a2.55,2.55,0,0,1-1.43.3,3.64,3.64,0,0,0-1.27.16,6.06,6.06,0,0,0-1.69.94,8.86,8.86,0,0,0-1.21.93,1.33,1.33,0,0,1-1.13.49c-.9-.12-1.45-1.22-1.77-2.21a19.44,19.44,0,0,0-6.31,3.43h0a.9.9,0,0,0,1.24,1.23c.25-.1.36-.32.52-.66a1.66,1.66,0,0,1,1-1,1.6,1.6,0,0,1,.92,0,2.25,2.25,0,0,1,1.19.91.94.94,0,0,1,.12.22,3,3,0,0,1-.06,2.08,2.9,2.9,0,0,0,.05,1.77,1.57,1.57,0,0,1-.19,1.61,1.41,1.41,0,0,1-.49.3,3.58,3.58,0,0,1-1.75,0l-.26,0a.84.84,0,0,1,0,.5c-.12.63-.77.79-1.28.92s-.79.19-.89.4,0,.66.21,1.09a2.14,2.14,0,0,1,.12,2,1.32,1.32,0,0,1-1.3.66c-.64-.14-.8-.84-.93-1.46-.08-.4-.2-.94-.4-1s-.55.09-1,.5a2,2,0,0,0-.62,1.18,3.06,3.06,0,0,0,.5,1.9c.58,1.25.83,1.77,1.33,2.06a1.72,1.72,0,0,0,1.27.11,3.93,3.93,0,0,1,2.17.16,2.82,2.82,0,0,1,1.07.74,3.71,3.71,0,0,0,1,.75,5.74,5.74,0,0,0,1.51.52,1.77,1.77,0,0,1,1.28.71,3.08,3.08,0,0,1-.57,3.57,2.43,2.43,0,0,1-1,.65c-.24.09-.36.13-.48.32s-.14.35-.09.84a10.73,10.73,0,0,1,0,1.67,7.66,7.66,0,0,1-.22,1.45c-.09.3-.1.34,0,.48.25.71,1.37,1,2.11,1.19s1.2.31,1.14.87a.74.74,0,0,1-.46.59l-.31.12-.09,0-.31.08-.15,0-.31,0-.21,0h-.31l-.34,0-.25,0-.37-.06-.23-.05c-.14,0-.28-.08-.41-.12l-.2-.07a4.3,4.3,0,0,1-.61-.3,5.51,5.51,0,0,1-1.5-1.48,22.2,22.2,0,0,1-2.13-3.5,2.54,2.54,0,0,0-1-1.18.45.45,0,0,0-.1,0,.91.91,0,0,1-.25-.12,3.53,3.53,0,0,1-1.28-2.6,5,5,0,0,1,.16-2.16,1.86,1.86,0,0,0,.05-1c-.18-.59-.68-.87-1.48-1.28a9.2,9.2,0,0,1-1.16-.66,5.89,5.89,0,0,1-.76-.66l-.2-.21-.16-.21c0,.27,0,.54,0,.82,0,.64,0,1.28.1,1.9,0,.25.07.49.1.73s.1.74.17,1.1.14.62.22.92.13.56.21.84.22.69.34,1l.23.63c.15.38.32.75.49,1.11.07.16.14.31.22.46.2.4.41.79.64,1.17l.18.3c.26.41.52.82.81,1.21l.11.15c.31.43.64.84,1,1.24a19.38,19.38,0,0,0,27.65-1.54.53.53,0,0,1,.28-.16.46.46,0,0,1,.42.11.5.5,0,0,1,.05.71,20.4,20.4,0,0,1-21.3,6.06,19.56,19.56,0,0,0,7.59,1.53c.62,0,1.24,0,1.84-.09l.52-.07c.46-.05.91-.12,1.36-.21l.47-.09c.59-.13,1.17-.28,1.73-.46l.1,0c.54-.18,1.06-.38,1.58-.6l.38-.17c.46-.21.92-.43,1.36-.68l.23-.12a16.6,16.6,0,0,0,1.44-.91,19.63,19.63,0,0,0,3-2.56V133.57Zm-2.47,14.54a2.27,2.27,0,0,1-1.25.34,2.38,2.38,0,0,1-.68-.09,1,1,0,0,1-.61-1.51,1.17,1.17,0,0,1,.15-.22,7.27,7.27,0,0,1,1.32-1.32v0c.6-.53,1.09-.72,1.47-.55s.54.75.56,1.07A2.51,2.51,0,0,1,411.06,148.11Z" fill="#fdd600"/><polygon points="413.54 142.42 413.54 149.22 413.54 149.22 413.54 142.42" fill="#fdd600"/><circle cx="419.25" cy="157.3" r="2.24" fill="#fdd600"/><path d="M421.78,151.3a6.21,6.21,0,1,1-6.39-.23V129.18a3.48,3.48,0,0,1,.92-2.43,3.14,3.14,0,0,1,2.3-1,3.21,3.21,0,0,1,3.14,3.4Zm1.85,5.23A5.24,5.24,0,0,0,421,152a.5.5,0,0,1-.24-.43l0-15.13h-.58a.5.5,0,0,1-.5-.5.5.5,0,0,1,.5-.5h.58v-1.4h-.53a.5.5,0,0,1-.5-.5.51.51,0,0,1,.5-.5h.51v-1.46h-.54a.5.5,0,0,1-.5-.5.51.51,0,0,1,.5-.5h.54v-1.41a2.21,2.21,0,0,0-2.14-2.4,2.27,2.27,0,0,0-2.22,2.4v22.2a.51.51,0,0,1-.28.45,5.23,5.23,0,0,0,2.29,9.93A5.23,5.23,0,0,0,423.63,156.53Z" fill="#231f20"/><path d="M419,153.43a3.24,3.24,0,1,1-1,0V133.23a.5.5,0,0,1,1,0Zm1.77,3.19a2.24,2.24,0,1,0-2.24,2.24A2.25,2.25,0,0,0,420.8,156.62Z" fill="#231f20"/><path d="M386.64,133.05s.13-.12.2-.24,0-.59-.21-1.11a2.3,2.3,0,0,1-.18-1.94,2.15,2.15,0,0,1,1.54-.91,3,3,0,0,0,.55-.17.29.29,0,0,1-.07-.08.79.79,0,0,1-.12-.82c.26-.55.92-.44,1.56-.32.47.07,1.15.19,1.36,0s0-.26-.07-.65a3.86,3.86,0,0,1,0-2.31,2.86,2.86,0,0,0,.17-1,1.89,1.89,0,0,0-.08-.4,1.11,1.11,0,0,0-1-.56c-.14,0-.22.19-.38.52a2,2,0,0,1-1.05,1.15,2.08,2.08,0,0,1-2.45-.69,2.21,2.21,0,0,1-.05-2,3.21,3.21,0,0,1,.72-1c.1-.11.24-.25.24-.3s-.15-.2-.24-.25-.74,0-1.26.31A19.54,19.54,0,0,0,379,130.67c0,.17,0,.33.07.5s.05.35.07.52.07.33.11.49.07.32.11.47.09.31.13.46.08.29.13.42.11.28.16.42l.16.37.19.38c.07.11.11.22.17.32s.16.23.23.34.13.19.2.27a1.7,1.7,0,0,0,.29.31,1.74,1.74,0,0,0,.18.22,4.33,4.33,0,0,0,.53.43,8.94,8.94,0,0,0,1,.59,6.72,6.72,0,0,1,1.18.71,2.32,2.32,0,0,1,.8,1.17,2.56,2.56,0,0,1,0,1.54,4.47,4.47,0,0,0-.13,1.79,2.66,2.66,0,0,0,.82,1.89,2.48,2.48,0,0,1,.3.13,3.48,3.48,0,0,1,1.42,1.57,21.39,21.39,0,0,0,2.05,3.37,4.86,4.86,0,0,0,1.24,1.25,3.64,3.64,0,0,0,1.92.49,3,3,0,0,1-2.08-1.62,1.62,1.62,0,0,1,0-1.07,9,9,0,0,0,.18-2.78,2,2,0,0,1,.25-1.48,1.75,1.75,0,0,1,.94-.7,1.57,1.57,0,0,0,.65-.41,2.21,2.21,0,0,0,.48-2.32c-.12-.16-.23-.2-.67-.3a6.61,6.61,0,0,1-1.77-.6,4.53,4.53,0,0,1-1.27-.94,1.72,1.72,0,0,0-.74-.51,2.79,2.79,0,0,0-1.62-.1,2.65,2.65,0,0,1-1.93-.23,2.08,2.08,0,0,1-.29-.19,6,6,0,0,1-1.46-2.31,4.06,4.06,0,0,1-.58-2.48,3,3,0,0,1,.93-1.77,2.12,2.12,0,0,1,2.08-.68c.68.29.85,1.09,1,1.74A2.35,2.35,0,0,0,386.64,133.05Zm28.43-8.64a.5.5,0,0,1-.14.69.57.57,0,0,1-.28.08.52.52,0,0,1-.42-.23,19.63,19.63,0,0,0-5.57-5.66v.37c0,.92,0,1.29-.21,1.58-.47.71-1.41.47-2.4.21s-2-.51-2.73-.06-1.34,1.88-1.55,3.78c0,.22,0,.43-.06.64,0,.78-.1,1.6-.77,2a1.58,1.58,0,0,1-1.2.11,1.24,1.24,0,0,0-.3,0,1.06,1.06,0,0,0-.08.73,1.24,1.24,0,0,0,.46.92c.17.07.45-.08.87-.36a3.07,3.07,0,0,1,2.35-.63,3.52,3.52,0,0,1,2,1.5c.28.4,1.18,1.76.54,2.42-.39.4-.9.17-1.31,0a3.6,3.6,0,0,0-1.44-.42,4.18,4.18,0,0,0-2.52,1.05c-1.35.94-2.76,1.9-2.84,3.41a2.8,2.8,0,0,0,1.27,2.55,2,2,0,0,0,.72.11,14.3,14.3,0,0,1,1.91.22l.18,0a2.49,2.49,0,0,1,.93.25c.57.33,1.24,1.1,1.32,2.92a3,3,0,0,1-.2,1.29.85.85,0,0,0-.05.54,3.46,3.46,0,0,0,.33.91,8.17,8.17,0,0,1,.59,1.89c.15,1,.44,1.51.6,1.54s.48-.17,1.28-1.21a3.13,3.13,0,0,0,.39-.65c.05-.09.09-.19.15-.31a5.63,5.63,0,0,1,.41-.7,20.59,20.59,0,0,1,1.47-1.94,5.45,5.45,0,0,1,1.31-3.35,6.57,6.57,0,0,1,1.36-1.05c.32-.19.64-.39.64-.52s-.42-.63-.89-.84a1.62,1.62,0,0,0-.65-.14h-.22a1.58,1.58,0,0,1-1.14-.3,2.09,2.09,0,0,1-.68-1.6,1.35,1.35,0,0,1,.46-1.08c.66-.52,1.59,0,2.5.55.17.1.38.22.58.32-.13-.28-.33-.64-.48-.9-.55-1-1-1.89-.51-2.42s1.43-.1,2.28.36a.5.5,0,0,1,.27.44.69.69,0,0,1-.05.24.51.51,0,0,1-.68.2,5.93,5.93,0,0,0-1-.44v.05a.36.36,0,0,1,0,.09l.12.24a.42.42,0,0,0,0,.1l.14.27a.59.59,0,0,0,0,.08l.17.31c.56,1,1,1.84.49,2.34s-1.18.05-2-.42c-.4-.22-1.19-.68-1.41-.61a1,1,0,0,0,0,.39,1.12,1.12,0,0,0,.3.72c.1.07.19.08.49.07h.26a2.49,2.49,0,0,1,1,.21c.56.25,1.5.9,1.48,1.78,0,.68-.57,1-1.11,1.35a5.31,5.31,0,0,0-1.16.88,4.5,4.5,0,0,0-1,2.89.47.47,0,0,1-.12.3,20.67,20.67,0,0,0-1.5,2c-.09.13-.15.23-.21.33s-.1.18-.14.29a1.12,1.12,0,0,0-.14.26,3.59,3.59,0,0,1-.49.82l-.2.27-.05.05a2,2,0,0,1-.19.24s0,.05-.06.07-.12.15-.19.22a.3.3,0,0,0-.08.08l-.18.18-.11.08a1.24,1.24,0,0,1-.18.14.47.47,0,0,1-.12.07l-.17.1-.15,0a.69.69,0,0,1-.17.05l-.15,0h-.27c-.93-.17-1.27-1.52-1.41-2.31a6.22,6.22,0,0,0-.52-1.71,4.57,4.57,0,0,1-.39-1.13,1.67,1.67,0,0,1,.1-1.07,2,2,0,0,0,.13-.9c0-1.07-.33-1.81-.82-2.1a3.12,3.12,0,0,0-.59-.13l-.2,0a14.11,14.11,0,0,0-1.78-.2,2.81,2.81,0,0,1-1.06-.19,3.78,3.78,0,0,1-1.87-3.51c.08-2,1.85-3.22,3.27-4.19a5.21,5.21,0,0,1,3.12-1.23,4.72,4.72,0,0,1,1.82.51.05.05,0,0,1,0,0,4.12,4.12,0,0,0-.51-.92,2.63,2.63,0,0,0-1.37-1.11,2.13,2.13,0,0,0-1.6.5,1.85,1.85,0,0,1-1.82.41,2.15,2.15,0,0,1-1-1.69,1.83,1.83,0,0,1,.45-1.64,1.28,1.28,0,0,1,1.13-.17.74.74,0,0,0,.49,0c.21-.13.26-.66.29-1.21,0-.22,0-.45,0-.68.16-1.31.61-3.64,2-4.52,1.09-.68,2.43-.33,3.51-.05.44.11,1.18.3,1.32.19a8.91,8.91,0,0,0,0-1c0-.35,0-.68-.05-1a19.34,19.34,0,0,0-4.5-1.89A2.91,2.91,0,0,1,402,118a2.58,2.58,0,0,1-1.44.3,3.71,3.71,0,0,0-1.28.16,6.32,6.32,0,0,0-1.68.94,9.56,9.56,0,0,0-1.21.93c-.36.31-.63.56-1.13.49-1.32-.17-1.89-2.44-2.08-3.41a6.89,6.89,0,0,1-.1-.81,19.56,19.56,0,0,0-5.62,2.42l.06,0a1.43,1.43,0,0,1,.73,1,1.36,1.36,0,0,1-.5,1.11,2.18,2.18,0,0,0-.52.71,1.21,1.21,0,0,0,0,1.08,1.11,1.11,0,0,0,1.23.32c.25-.1.35-.32.52-.66a1.63,1.63,0,0,1,1-1,1.6,1.6,0,0,1,.92,0,2.25,2.25,0,0,1,1.19.91,1.55,1.55,0,0,1,.12.22,3.1,3.1,0,0,1-.06,2.08,2.83,2.83,0,0,0,.05,1.77,1.55,1.55,0,0,1-.2,1.61,1.18,1.18,0,0,1-.49.3,3.58,3.58,0,0,1-1.75,0l-.26,0a.83.83,0,0,1,0,.5c-.12.63-.76.79-1.29.92-.35.09-.78.19-.88.4s0,.66.21,1.09a2.19,2.19,0,0,1,.12,2,1.32,1.32,0,0,1-1.3.66c-.65-.14-.79-.84-.93-1.46-.09-.4-.19-.94-.41-1s-.55.09-1,.5a2.06,2.06,0,0,0-.62,1.18,3.2,3.2,0,0,0,.5,1.9c.58,1.25.85,1.77,1.33,2.06a1.76,1.76,0,0,0,1.28.11,3.93,3.93,0,0,1,2.17.16,2.79,2.79,0,0,1,1.08.74,3.4,3.4,0,0,0,1,.75,6,6,0,0,0,1.51.52,1.83,1.83,0,0,1,1.3.71,3.13,3.13,0,0,1-.57,3.57,2.41,2.41,0,0,1-1,.65.8.8,0,0,0-.47.32c-.14.21-.14.35-.09.84a9.6,9.6,0,0,1,0,1.67,7.43,7.43,0,0,1-.23,1.45c-.08.3-.09.34,0,.48.25.71,1.36,1,2.1,1.19s1.2.31,1.15.87a.72.72,0,0,1-.47.59l-.31.12-.07,0-.32.08-.16,0-.3,0-.21,0h-.32l-.33,0-.25,0-.36-.06-.24-.05c-.14,0-.28-.08-.41-.12l-.21-.07a4.79,4.79,0,0,1-.6-.3,5.65,5.65,0,0,1-1.5-1.48,20.82,20.82,0,0,1-2.12-3.5,2.63,2.63,0,0,0-1.05-1.18l-.1,0a.79.79,0,0,1-.25-.12,3.44,3.44,0,0,1-1.27-2.6,5.07,5.07,0,0,1,.14-2.16,1.61,1.61,0,0,0,0-1c-.17-.59-.67-.87-1.48-1.28a9.1,9.1,0,0,1-1.15-.66,5.29,5.29,0,0,1-.76-.66c-.07-.07-.12-.14-.2-.21a7.35,7.35,0,0,1-.51-.67,2.2,2.2,0,0,1-.14-.18,7.77,7.77,0,0,1-.53-1c-.05-.09-.07-.18-.11-.26a8.68,8.68,0,0,1-.34-.94c0-.06,0-.12-.07-.19a18.27,18.27,0,0,0-.13,2.2,19.47,19.47,0,0,0,34.09,12.89.5.5,0,0,1,.27-.16.48.48,0,0,1,.43.11.51.51,0,0,1,.05.71A20.46,20.46,0,0,1,378,130.52a20.72,20.72,0,0,1,7.21-11.12,20.07,20.07,0,0,1,12.5-4.4,21.1,21.1,0,0,1,5.24.67,20.35,20.35,0,0,1,5.41,2.24A20.86,20.86,0,0,1,415.07,124.41ZM399,117.5a4.72,4.72,0,0,1,1.6-.21,1.51,1.51,0,0,0,.92-.17,1.79,1.79,0,0,0,.6-.62,19.33,19.33,0,0,0-8-.13,7.4,7.4,0,0,0,.11.84c.26,1.39.81,2.56,1.22,2.61a1.31,1.31,0,0,0,.34-.26" fill="#231f20"/><path d="M412,145.81a2.56,2.56,0,0,1-1,2.3,2.24,2.24,0,0,1-1.24.34,2.43,2.43,0,0,1-.68-.09,1.14,1.14,0,0,1-.73-.61,1.09,1.09,0,0,1,.12-.9,2.22,2.22,0,0,1,.14-.22,8,8,0,0,1,1.32-1.32v0c.62-.53,1.1-.72,1.48-.55S412,145.49,412,145.81Zm-1.51,1.46a1.61,1.61,0,0,0,.5-1.5,1.69,1.69,0,0,0-.38.28,4.93,4.93,0,0,0-1.25,1.33A1.34,1.34,0,0,0,410.51,147.27Z" fill="#231f20"/><path d="M285.21,230.38l-8.07-15.13a4.1,4.1,0,0,0-7.24,0l-8.08,15.13a4.1,4.1,0,0,0,3.62,6H281.6A4.1,4.1,0,0,0,285.21,230.38Zm-12.68,2.94a1.68,1.68,0,1,1,1.68-1.68A1.68,1.68,0,0,1,272.53,233.32Zm1.38-4.79h-2.76q-.28-5.92-.59-11.83h3.94Q274.22,222.61,273.91,228.53Z" fill="#fdd600"/><path d="M278.34,217.3h6.23a.49.49,0,0,0,.49-.39,7.85,7.85,0,0,0,.16-1.52,7.36,7.36,0,0,0-7.35-7.36,7.21,7.21,0,0,0-1.84.24,11.64,11.64,0,0,0-21.24-1.71,9.58,9.58,0,0,0-14.57,8.18,9.86,9.86,0,0,0,.14,1.51,5.52,5.52,0,0,0-3.94,6.47.49.49,0,0,0,.49.39h26.71l-3.22,6a4.6,4.6,0,0,0,4.05,6.77h16.16a4.6,4.6,0,0,0,4.06-6.77Zm-37.12-2.56a8.59,8.59,0,0,1,13.48-7.05.5.5,0,0,0,.41.07.47.47,0,0,0,.32-.26,10.65,10.65,0,0,1,19.8,1.53.5.5,0,0,0,.25.3.53.53,0,0,0,.39,0,6.21,6.21,0,0,1,2-.33,6.36,6.36,0,0,1,6.35,6.36,5.58,5.58,0,0,1-.07.91h-6.34L276.59,214a4.6,4.6,0,0,0-8.12,0l-1.06,2a7.13,7.13,0,0,0-8.63-1.09,8.66,8.66,0,0,0-15.7,1.28,5.42,5.42,0,0,0-1.26-.15,3.87,3.87,0,0,0-.48,0A7.76,7.76,0,0,1,241.22,214.74Zm-3.89,7.37a4.89,4.89,0,0,1,0-.54,4.52,4.52,0,0,1,3.38-4.36,4.75,4.75,0,0,1,1.14-.16,4.32,4.32,0,0,1,1.42.24h.22a.34.34,0,0,0,.17-.05.5.5,0,0,0,.25-.3c.07-.22.17-.43.26-.65a7.64,7.64,0,0,1,14-.45.51.51,0,0,0,.32.27.52.52,0,0,0,.42-.08,6.14,6.14,0,0,1,7.36.26,6.86,6.86,0,0,1,.68.64l-.2.36-2.56,4.81Zm46.37,11.07a3.59,3.59,0,0,1-3.09,1.75H264.45a3.6,3.6,0,0,1-3.17-5.3l3.47-6.52.54-1,2.3-4.3.27-.51.25-.48.28-.52,1-1.8a3.59,3.59,0,0,1,6.35,0l1,1.8.53,1,6.58,12.33A3.57,3.57,0,0,1,283.7,233.18Z" fill="#231f20"/><path d="M272.53,233.82a2.18,2.18,0,1,1,2.18-2.18A2.18,2.18,0,0,1,272.53,233.82Zm0-3.35a1.18,1.18,0,0,0,0,2.35,1.18,1.18,0,1,0,0-2.35Z" fill="#231f20"/><path d="M273.91,229h-2.76a.5.5,0,0,1-.5-.48l-.59-11.83a.55.55,0,0,1,.14-.37.49.49,0,0,1,.36-.15h3.94a.51.51,0,0,1,.37.15.5.5,0,0,1,.13.37l-.59,11.83A.5.5,0,0,1,273.91,229Zm-2.28-1h1.81L274,217.2h-2.89Z" fill="#231f20"/></g><g id="afe62c65-1fb1-4dfd-8495-11622116bb68" data-name="CATEGORIES"><text transform="translate(96 72.42)" font-size="40" fill="#231f20" font-family="Antonio-Bold, Antonio" font-weight="700">N<tspan x="20.88" y="0" letter-spacing="-0.01em">A</tspan><tspan x="39.57" y="0">TURE/RECRE</tspan><tspan x="215.12" y="0" letter-spacing="-0.01em">A</tspan><tspan x="233.81" y="0">TION</tspan></text></g><g id="fe575d03-85c3-4ef9-af1a-6c46a48e2fd7" data-name="LABELS"><text transform="translate(166 169.26)" font-size="6" fill="#231f20" font-family="Roboto-Regular, Roboto">ar<tspan x="5.29" y="0" letter-spacing="-0.01em">r</tspan><tspan x="7.27" y="0">owhead</tspan></text><text transform="translate(235.87 169.26)" font-size="6" fill="#231f20" font-family="Roboto-Regular, Roboto">barn</text><text transform="translate(306 169.26)" font-size="6" fill="#231f20" font-family="Roboto-Regular, Roboto">mountains</text><text transform="translate(377.03 169.26)" font-size="6" fill="#231f20" font-family="Roboto-Regular, Roboto">climate</text><text transform="translate(446.68 169.26)" font-size="6" fill="#231f20" font-family="Roboto-Regular, Roboto">solar-power</text><text transform="translate(96.17 248.6)" font-size="6" fill="#231f20" font-family="Roboto-Regular, Roboto"><tspan letter-spacing="-0.01em">r</tspan><tspan x="1.97" y="0">enewable-ene</tspan><tspan x="38.74" y="0" letter-spacing="-0.01em">r</tspan><tspan x="40.71" y="0">gy</tspan></text><text transform="translate(166.45 248.6)" font-size="6" fill="#231f20" font-family="Roboto-Regular, Roboto">clean-water</text><text transform="translate(236.4 248.6)" font-size="6" fill="#231f20" font-family="Roboto-Regular, Roboto">air-quality</text><text transform="translate(96 169.26)" font-size="6" fill="#231f20" font-family="Roboto-Regular, Roboto"><tspan letter-spacing="-0.01em">f</tspan><tspan x="2.01" y="0">eather</tspan></text></g></svg>