<svg id="f868d705-8987-4a4e-ba7b-a7ea0b7dee89" data-name="ICONS" xmlns="http://www.w3.org/2000/svg" viewBox="0 0 50 50"><circle cx="25.79" cy="6.63" r="3.15" fill="#fdd600"/><circle cx="43.11" cy="15.58" r="3.15" fill="#fdd600"/><circle cx="9.19" cy="15.58" r="3.15" fill="#fdd600"/><circle cx="9.39" cy="36.92" r="3.15" fill="#fdd600"/><circle cx="43.31" cy="36.92" r="3.15" fill="#fdd600"/><circle cx="26" cy="45.87" r="3.15" fill="#fdd600"/><circle cx="25.79" cy="26.23" r="5.71" fill="#fdd600"/><path d="M7.69,18.23a4.15,4.15,0,1,0-4.16-4.15A4.16,4.16,0,0,0,7.69,18.23Zm0-7.3a3.15,3.15,0,1,1-3.16,3.15A3.16,3.16,0,0,1,7.69,10.93Z" fill="#231f20"/><path d="M24.29,9.28a4.16,4.16,0,1,0-4.15-4.15A4.16,4.16,0,0,0,24.29,9.28Zm0-7.31a3.16,3.16,0,1,1-3.15,3.16A3.17,3.17,0,0,1,24.29,2Z" fill="#231f20"/><path d="M41.61,18.23a4.15,4.15,0,1,0-4.15-4.15A4.15,4.15,0,0,0,41.61,18.23Zm0-7.3a3.15,3.15,0,1,1-3.15,3.15A3.15,3.15,0,0,1,41.61,10.93Z" fill="#231f20"/><path d="M34.15,31a.47.47,0,0,0,.25.07.51.51,0,0,0,.44-.25.51.51,0,0,0-.19-.68l-4.32-2.5a6.63,6.63,0,0,0,0-5.81l4.32-2.5a.5.5,0,1,0-.5-.86L29.84,21A6.72,6.72,0,0,0,24.79,18v-5a.5.5,0,0,0-.5-.5.51.51,0,0,0-.5.5v5a6.7,6.7,0,0,0-5,2.91l-4.32-2.49a.5.5,0,1,0-.5.86l4.32,2.49a6.68,6.68,0,0,0,0,5.83l-4.32,2.49a.5.5,0,0,0,.25.93.45.45,0,0,0,.25-.07l4.31-2.48a6.73,6.73,0,0,0,5,2.9v5a.5.5,0,0,0,.5.5.5.5,0,0,0,.5-.5v-5a6.69,6.69,0,0,0,5.05-2.91Zm-9.86-.55a5.71,5.71,0,0,1,0-11.42h0a5.69,5.69,0,0,1,4.91,2.84v0s0,0,0,0A5.64,5.64,0,0,1,30,24.73,5.71,5.71,0,0,1,24.29,30.44Z" fill="#231f20"/><path d="M42.11,21.15v7.2a.5.5,0,0,0,.5.5.5.5,0,0,0,.5-.5v-7.2a.5.5,0,0,0-.5-.5A.5.5,0,0,0,42.11,21.15Z" fill="#231f20"/><path d="M6.3,21.15v7.2a.5.5,0,0,0,.5.5.5.5,0,0,0,.5-.5v-7.2a.5.5,0,0,0-.5-.5A.5.5,0,0,0,6.3,21.15Z" fill="#231f20"/><path d="M13.25,10.35a.46.46,0,0,0,.23-.06l4.06-2.14a.5.5,0,0,0,.21-.68.51.51,0,0,0-.67-.21L13,9.41a.49.49,0,0,0-.21.67A.5.5,0,0,0,13.25,10.35Z" fill="#231f20"/><path d="M31.43,8.15l4.06,2.14a.53.53,0,0,0,.23.06.51.51,0,0,0,.45-.27A.5.5,0,0,0,36,9.41L31.9,7.26a.52.52,0,0,0-.68.21A.51.51,0,0,0,31.43,8.15Z" fill="#231f20"/><path d="M7.89,31.27A4.15,4.15,0,1,0,12,35.42,4.15,4.15,0,0,0,7.89,31.27Zm0,7.3A3.15,3.15,0,1,1,11,35.42,3.15,3.15,0,0,1,7.89,38.57Z" fill="#231f20"/><path d="M24.5,40.22a4.16,4.16,0,1,0,4.15,4.15A4.15,4.15,0,0,0,24.5,40.22Zm0,7.31a3.16,3.16,0,1,1,3.15-3.16A3.16,3.16,0,0,1,24.5,47.53Z" fill="#231f20"/><path d="M41.81,31.27A4.15,4.15,0,1,0,46,35.42,4.16,4.16,0,0,0,41.81,31.27Zm0,7.3A3.15,3.15,0,1,1,45,35.42,3.16,3.16,0,0,1,41.81,38.57Z" fill="#231f20"/><path d="M17.75,41.35l-4.06-2.14a.5.5,0,1,0-.47.88l4.06,2.15a.59.59,0,0,0,.23,0,.5.5,0,0,0,.24-.94Z" fill="#231f20"/><path d="M35.69,39.21l-4.06,2.14a.5.5,0,0,0,.24.94.68.68,0,0,0,.23,0l4.06-2.15a.5.5,0,1,0-.47-.88Z" fill="#231f20"/></svg>