<?xml version="1.0" encoding="UTF-8"?>
<svg xmlns="http://www.w3.org/2000/svg" viewBox="0 0 50 50">
  <defs>
    <style>
      .cls-1 {
        font-family: ArialMT, Arial;
        font-size: 6px;
      }

      .cls-2 {
        fill: #ffcd00;
      }
    </style>
  </defs>
  <g id="Black">
    <g>
      <path class="cls-2" d="M13.02,44.91c0-.13.05-.26.15-.36.09-.09.22-.15.35-.15h0l24.98.02c.28,0,.5.22.5.5v3.36h5.01v-27.15H8.46v27.15h4.57v-3.38Z"/>
      <rect class="cls-2" x="22.19" y="4.21" width="8.2" height="9.39"/>
      <g>
        <path d="M43.25,18.89h-15.58c.05-.08.09-.17.09-.27,0-.28-.22-.5-.5-.5h-1.73v-4.76h4.1c.28,0,.5-.22.5-.5V2.46c0-.28-.22-.5-.5-.5h-9.2c-.28,0-.5.22-.5.5v10.39c0,.28.22.5.5.5h4.1v4.76h-1.73c-.28,0-.5.22-.5.5,0,.1.04.19.09.27H6.71c-.28,0-.5.22-.5.5v28.15c0,.28.22.5.5.5h5.57c.13,0,.26-.05.35-.15.09-.09.15-.22.15-.35v-3.38s23.97.02,23.97.02v3.36c0,.28.22.5.5.5h6.01c.28,0,.5-.22.5-.5v-28.15c0-.28-.22-.5-.5-.5ZM11.78,47.04h-4.57v-2.89h4.56s.01,2.89.01,2.89ZM37.25,43.18s0,0,0,0l-24.98-.02h0s0,0,0,0h-5.06v-2.96l35.54.07v2.92h-5.5ZM7.21,29.14h35.54v10.12l-35.54-.07v-10.05ZM42.75,19.89v8.25H7.21v-8.25h35.54ZM37.75,44.18h5.01v2.86h-5.01v-2.86ZM20.94,2.96h8.2v9.39h-4.1s0,0,0,0,0,0,0,0h-4.1V2.96Z"/>
        <path d="M22.69,24.52h4.51c.28,0,.5-.22.5-.5s-.22-.5-.5-.5h-4.51c-.28,0-.5.22-.5.5s.22.5.5.5Z"/>
        <path d="M27.19,33.67h-4.51c-.28,0-.5.22-.5.5s.22.5.5.5h4.51c.28,0,.5-.22.5-.5s-.22-.5-.5-.5Z"/>
      </g>
    </g>
  </g>
  <g id="Labels">
    <text class="cls-1" transform="translate(0 54.92)"><tspan x="0" y="0">Night Stand</tspan></text>
  </g>
</svg>