<svg id="ICONS" xmlns="http://www.w3.org/2000/svg" viewBox="0 0 50 50"><path d="M42.05,19.86H38.48a.51.51,0,0,0-.5.5v2.15a4.82,4.82,0,0,1-3.1,4.43l-.07,0H24.89V23.28H30.5c3.76,0,6-13,6.35-15.61a5.45,5.45,0,0,0-1.33-4.35,6.67,6.67,0,0,0-5-2.06H18.14a6.21,6.21,0,0,0-4.73,1.92,5.64,5.64,0,0,0-1.3,4.52c.34,2.6,2.27,15.58,6,15.58h5.75V27H14.3a4.79,4.79,0,0,1-3-4.39V20.43a.5.5,0,0,0-.5-.5H7.21a.5.5,0,0,0,0,1h3.07v1.65a5.71,5.71,0,0,0,2.52,4.69A3.16,3.16,0,0,0,11,30.14v.46a3.17,3.17,0,0,0,3.17,3.17h9.76V37.6H18.26a4.89,4.89,0,0,0-4.87,4.51,3.28,3.28,0,1,0,1,0,3.9,3.9,0,0,1,3.87-3.53h5.63v3.47a3.3,3.3,0,1,0,1,0V38.6h6a3.89,3.89,0,0,1,3.87,3.5,3.35,3.35,0,1,0,1,0,4.89,4.89,0,0,0-4.87-4.49h-6V33.77h9.8a3.17,3.17,0,0,0,3.17-3.17v-.46a3.16,3.16,0,0,0-1.65-2.77A5.72,5.72,0,0,0,39,22.51V20.86h3.07a.5.5,0,0,0,.5-.5A.51.51,0,0,0,42.05,19.86ZM13.1,7.58a4.66,4.66,0,0,1,1.05-3.73,5.25,5.25,0,0,1,4-1.59H30.5A5.72,5.72,0,0,1,34.78,4a4.5,4.5,0,0,1,1.08,3.56c-.94,6.12-3.23,14.74-5.36,14.74H18.14C16,22.28,13.91,13.68,13.1,7.58Zm3,37.83a2.33,2.33,0,1,1-2.33-2.34A2.33,2.33,0,0,1,16.1,45.41Zm10.56,0A2.34,2.34,0,1,1,24.33,43,2.34,2.34,0,0,1,26.66,45.36Zm11,0a2.34,2.34,0,1,1-2.33-2.33A2.33,2.33,0,0,1,37.62,45.38Zm-.76-15.24v.46a2.17,2.17,0,0,1-2.17,2.17H14.13A2.17,2.17,0,0,1,12,30.6v-.46A2.17,2.17,0,0,1,14.13,28H34.69A2.17,2.17,0,0,1,36.86,30.14Z"/></svg>