<svg xmlns="http://www.w3.org/2000/svg" viewBox="0 0 50 50"><g id="bfe30d43-09e3-4865-9f83-5ba185161a02" data-name="ICONS"><path d="M26.45,13.39A71.76,71.76,0,0,0,5.8,14V41.44a74.42,74.42,0,0,1,9.89-.73h.44a74.17,74.17,0,0,1,10.32.73L43.1,37.72V9.54Z" fill="#fdd600"/><path d="M49.11,13H46.69V12a.49.49,0,0,0-.4-.49c-1.22-.24-2.45-.43-3.69-.59V7.43A.51.51,0,0,0,42.41,7,.49.49,0,0,0,42,7L24.88,10.82a.38.38,0,0,0-.17.08,70,70,0,0,0-21,.65A.49.49,0,0,0,3.3,12V13H.89a.5.5,0,0,0-.5.5V42.57a.5.5,0,0,0,.5.5H49.11a.5.5,0,0,0,.5-.5V13.45A.5.5,0,0,0,49.11,13ZM24.49,11.88V39.94a70.78,70.78,0,0,0-10.08-.73H14a71.27,71.27,0,0,0-9.67.72V12.46a68.48,68.48,0,0,1,9.69-1A69.46,69.46,0,0,1,24.49,11.88ZM41.6,36.24,25.49,39.89V11.71L41.6,8.06Zm4.09,3.7a69.77,69.77,0,0,0-9.79-.72c-1.09,0-2.17,0-3.25.08l9.56-2.17a.5.5,0,0,0,.39-.49V12c1,.14,2.07.3,3.09.49ZM1.39,14H3.3V40.52a.52.52,0,0,0,.17.38.52.52,0,0,0,.4.11A70.23,70.23,0,0,1,24.49,41v1.12H1.39ZM48.61,42.07H25.49V41a69.9,69.9,0,0,1,20.63,0h.07a.55.55,0,0,0,.33-.12.52.52,0,0,0,.17-.38V14h1.92Z" fill="#231f20"/><path d="M38.65,12.89,27.84,15.5a.5.5,0,0,0-.37.6.5.5,0,0,0,.49.38h.11l10.81-2.6a.5.5,0,0,0-.23-1Z" fill="#231f20"/><path d="M38.39,19.09l-10.81,2.6a.5.5,0,0,0,.11,1l.12,0,10.81-2.6a.49.49,0,0,0,.37-.6A.5.5,0,0,0,38.39,19.09Z" fill="#231f20"/><path d="M38.39,25.29l-10.81,2.6a.5.5,0,0,0,.11,1h.12l10.81-2.6a.5.5,0,0,0,.37-.61A.5.5,0,0,0,38.39,25.29Z" fill="#231f20"/><path d="M38.39,31.48l-10.81,2.6a.5.5,0,0,0,.11,1h.12l10.81-2.61a.49.49,0,0,0,.37-.6A.5.5,0,0,0,38.39,31.48Z" fill="#231f20"/><path d="M20,15.89H7.72a.5.5,0,0,0-.5.5.5.5,0,0,0,.5.5H20a.5.5,0,0,0,.5-.5A.5.5,0,0,0,20,15.89Z" fill="#231f20"/><path d="M20,21.75H7.72a.5.5,0,0,0-.5.5.5.5,0,0,0,.5.5H20a.5.5,0,0,0,.5-.5A.5.5,0,0,0,20,21.75Z" fill="#231f20"/><path d="M20,28H7.72a.5.5,0,0,0-.5.5.5.5,0,0,0,.5.5H20a.5.5,0,0,0,.5-.5A.5.5,0,0,0,20,28Z" fill="#231f20"/><path d="M20,34.21H7.72a.5.5,0,1,0,0,1H20a.5.5,0,0,0,0-1Z" fill="#231f20"/></g><g id="f0c93fff-cfb7-4b11-a374-1e90a52dbca0" data-name="LABELS"><text transform="translate(0 55.13)" font-size="6" fill="#231f20" font-family="Roboto-Regular, Roboto">open-book</text></g></svg>