<svg xmlns="http://www.w3.org/2000/svg" viewBox="0 0 50 50"><g id="b7cb759d-6dae-41f2-bdf1-4190e6126ec2" data-name="ICONS"><path d="M35.55,7.39H9.75V49.56h33V7.39ZM15.05,34.56a2.67,2.67,0,1,1,2.66-2.66A2.67,2.67,0,0,1,15.05,34.56Zm9.7,0a2.67,2.67,0,1,1,2.66-2.66A2.67,2.67,0,0,1,24.75,34.56Zm0-14.37a2.66,2.66,0,1,1,2.66-2.66A2.66,2.66,0,0,1,24.75,20.19Zm9.7,14.37a2.67,2.67,0,1,1,2.66-2.66A2.67,2.67,0,0,1,34.45,34.56Z" fill="#fdd600"/><path d="M41.75,4.89H33.94a2.88,2.88,0,0,0-2.77-2.13H27.52a2.81,2.81,0,0,0-5.54,0H18.34a2.88,2.88,0,0,0-2.78,2.13H7.75a.5.5,0,0,0-.5.5V48.56a.5.5,0,0,0,.5.5h34a.5.5,0,0,0,.5-.5V5.39A.5.5,0,0,0,41.75,4.89ZM18.34,3.76h4.1a.51.51,0,0,0,.5-.5,1.81,1.81,0,1,1,3.62,0,.51.51,0,0,0,.5.5h4.11a1.88,1.88,0,0,1,1.88,1.88v1H16.45v-1A1.88,1.88,0,0,1,18.34,3.76Zm22.91,44.3h-33V5.89h7.2V7.16a.5.5,0,0,0,.5.5h17.6a.5.5,0,0,0,.5-.5V5.89h7.2Z" fill="#231f20"/><path d="M35,28.28V24.87a0,0,0,0,0,0,0s0,0,0,0a.5.5,0,0,0-.5-.5h-9.2V21.14a3.66,3.66,0,1,0-1,0V24.3h-9.2a.5.5,0,0,0-.5.5s0,0,0,0a0,0,0,0,0,0,0v3.41a3.66,3.66,0,1,0,1,0v-3h8.7v3a3.66,3.66,0,1,0,1,0v-3H34v3a3.66,3.66,0,1,0,1,0ZM17.71,31.9a2.66,2.66,0,1,1-2.66-2.67A2.67,2.67,0,0,1,17.71,31.9Zm9.7,0a2.66,2.66,0,1,1-2.66-2.67A2.67,2.67,0,0,1,27.41,31.9ZM24.75,20.19a2.66,2.66,0,1,1,2.66-2.66A2.66,2.66,0,0,1,24.75,20.19Zm9.7,14.37a2.67,2.67,0,1,1,2.66-2.66A2.67,2.67,0,0,1,34.45,34.56Z" fill="#231f20"/></g><g id="f54029a4-1b4a-4814-bfed-57bd97b60aac" data-name="LABELS"><text transform="translate(0.25 54.74)" font-size="6" fill="#231f20" font-family="Roboto-Regular, Roboto">o<tspan x="3.42" y="0" letter-spacing="-0.01em">r</tspan><tspan x="5.4" y="0">ganization-cha</tspan><tspan x="44.54" y="0" letter-spacing="0.02em">r</tspan><tspan x="46.72" y="0">t</tspan></text></g></svg>