<svg id="a3bf74ac-3764-46ea-863f-d2c6d18b4536" data-name="ICONS" xmlns="http://www.w3.org/2000/svg" viewBox="0 0 50 50"><path d="M31.28,3.2l-6.88,0L12.12,13.62V29.93a6,6,0,0,0,6,6H38.08a6,6,0,0,0,6-6V13.74ZM29.19,31.56h-5.4V28.09h5.4Zm1.58-4.47h-9V16.25h9Z" fill="#fdd600"/><path d="M43.19,11.37,30,.57a.57.57,0,0,0-.32-.12l-7.24,0a.47.47,0,0,0-.32.12L9.55,11.25a.5.5,0,0,0-.18.39V28.18a7.05,7.05,0,0,0,7,7H26a14.72,14.72,0,0,1-2.3,6.51C19.59,48,12.1,48.5,11.26,48.53a.5.5,0,0,0,0,1h0c1.45-.06,8.93-.71,13.24-7.26A15.79,15.79,0,0,0,27,35.22h9.3a7.05,7.05,0,0,0,7-7V11.76A.52.52,0,0,0,43.19,11.37Zm-.82,16.81a6,6,0,0,1-6,6H27.1c0-.61,0-1.17,0-1.66h2.59a.5.5,0,0,0,.5-.5v-4h1.08a.5.5,0,0,0,.5-.5V15.75a.5.5,0,0,0-.5-.5h-10a.5.5,0,0,0-.5.5V27.59a.5.5,0,0,0,.5.5h1.56v4a.5.5,0,0,0,.5.5h2.8a15.27,15.27,0,0,1,0,1.66H16.41a6,6,0,0,1-6-6V11.87L22.65,1.47l6.88,0L42.37,12ZM29.69,27.09h-8V16.25h9V27.09Zm-5.9,1h5.4v3.47h-5.4Z" fill="#231f20"/></svg>