<?xml version="1.0" encoding="UTF-8"?>
<svg xmlns="http://www.w3.org/2000/svg" viewBox="0 0 50 50">
  <defs>
    <style>
      .cls-1 {
        font-family: ArialMT, Arial;
        font-size: 6px;
      }

      .cls-2 {
        fill: #ffcd00;
      }
    </style>
  </defs>
  <g id="Black">
    <g>
      <path class="cls-2" d="M32.38,15.21c-.28,0-.5-.22-.5-.5v-2.25h-.75V3.32H8.98v46.11h34.79V15.21h-11.39Z"/>
      <g>
        <polygon points="30.98 .72 30.76 .6 30.98 .72 30.98 .72"/>
        <polygon points="42.99 12.84 42.87 12.61 42.87 12.61 42.99 12.84"/>
        <path d="M13.01,9.41h12.47c.28,0,.5-.22.5-.5s-.22-.5-.5-.5h-12.47c-.28,0-.5.22-.5.5s.22.5.5.5Z"/>
        <path d="M12.51,19.93c0,.28.22.5.5.5h23.23c.28,0,.5-.22.5-.5s-.22-.5-.5-.5H13.01c-.28,0-.5.22-.5.5Z"/>
        <path d="M36.24,25.41H13.01c-.28,0-.5.22-.5.5s.22.5.5.5h23.23c.28,0,.5-.22.5-.5s-.22-.5-.5-.5Z"/>
        <path d="M36.24,31.38H13.01c-.28,0-.5.22-.5.5s.22.5.5.5h23.23c.28,0,.5-.22.5-.5s-.22-.5-.5-.5Z"/>
        <path d="M27.49,41.79h-14.48c-.28,0-.5.22-.5.5s.22.5.5.5h14.48c.28,0,.5-.22.5-.5s-.22-.5-.5-.5Z"/>
        <path d="M43.01,12.9v-.06s-.13-.23-.13-.23h0S30.98.72,30.98.72h0s-.23-.12-.23-.12h-.06s-.07-.03-.07-.03H6.73c-.28,0-.5.22-.5.5v47.11c0,.28.22.5.5.5h35.79c.28,0,.5-.22.5-.5V12.9ZM31.13,2.28l10.18,10.18h-10.18V2.28ZM42.02,47.68H7.23V1.57h22.9v11.39c0,.28.22.5.5.5h11.39v34.21Z"/>
      </g>
    </g>
  </g>
  <g id="Labels">
    <text class="cls-1" transform="translate(0 54.92)"><tspan x="0" y="0">Paper</tspan></text>
  </g>
</svg>