<?xml version="1.0" encoding="UTF-8"?>
<svg xmlns="http://www.w3.org/2000/svg" viewBox="0 0 50 50">
  <defs>
    <style>
      .cls-1 {
        fill: #1f1c1d;
      }

      .cls-2 {
        fill: #ffcd00;
      }

      .cls-3 {
        fill: #221f1f;
        font-family: Roboto-Regular, Roboto;
        font-size: 5px;
      }

      .cls-4 {
        letter-spacing: 0em;
      }
    </style>
  </defs>
  <g id="Gold_Offset">
    <path class="cls-2" d="M8.19,45.28c-3.68-3.68-4.63-8.71,0-13.34L34.47,5.66c2.39-2.39,6.24-2.81,8.91-.74,3.24,2.5,3.46,7.19.66,9.99l-24.14,24.14c-1.31,1.31-3.38,1.61-4.92.59-2.12-1.4-2.33-4.29-.63-5.99l17.71-17.71c.43-.43,1.11-.43,1.54,0h0c.43.43.43,1.11,0,1.54l-17.65,17.65c-.6.6-.74,1.56-.25,2.24.63.87,1.85.95,2.58.22l24.08-24.08c1.65-1.65,1.92-4.33.44-6.14-1.7-2.07-4.78-2.18-6.63-.33l-26.45,26.45c-3.25,3.25-2.83,7.43,0,10.26,2.83,2.83,7.04,3.22,10.26,0l19.94-19.94c.43-.43,1.11-.43,1.54,0h0c.43.43.43,1.11,0,1.54l-19.94,19.94c-4.09,4.09-9.66,3.68-13.34,0Z"/>
  </g>
  <g id="Icon_Outline">
    <path class="cls-1" d="M14.33,47.8c-2.49,0-4.99-1.02-7.02-3.05h0c-2.01-2.01-3.14-4.31-3.26-6.64-.13-2.58.99-5.14,3.26-7.41L33.59,4.41c2.63-2.63,6.74-2.97,9.57-.79,1.64,1.26,2.65,3.17,2.78,5.22.13,2.05-.63,4.07-2.08,5.52l-24.14,24.14c-1.51,1.51-3.84,1.78-5.55.66-1.12-.74-1.83-1.91-1.97-3.23-.13-1.31.32-2.6,1.26-3.53L31.18,14.69c.3-.3.7-.47,1.12-.47h0c.42,0,.82.17,1.12.47.62.62.62,1.63,0,2.25l-17.65,17.65c-.45.45-.53,1.13-.2,1.6.21.29.52.47.88.5.34.03.69-.1.94-.34l24.08-24.08c1.51-1.51,1.69-3.91.41-5.47-.73-.88-1.75-1.4-2.88-1.45-1.12-.05-2.22.37-3,1.16l-26.45,26.45c-2.86,2.86-2.86,6.7,0,9.55,1.32,1.32,2.97,2.08,4.64,2.12,1.78.04,3.47-.69,4.91-2.12l19.94-19.94c.3-.3.7-.47,1.12-.47h0c.42,0,.82.17,1.12.47.3.3.46.7.46,1.12s-.17.82-.46,1.12l-19.94,19.94c-2.04,2.04-4.53,3.05-7.02,3.05ZM8.02,44.04c3.72,3.72,8.92,3.72,12.63,0l19.94-19.94c.11-.11.17-.26.17-.42s-.06-.3-.17-.42-.26-.17-.42-.17h0c-.16,0-.31.06-.42.17l-19.94,19.94c-3.23,3.23-7.74,3.23-10.97,0s-3.23-7.74,0-10.97L35.3,5.79c.99-.99,2.37-1.51,3.76-1.45,1.42.07,2.7.71,3.61,1.82,1.6,1.95,1.39,4.94-.47,6.81l-24.08,24.08c-.46.46-1.08.69-1.73.63-.64-.05-1.23-.39-1.61-.92-.61-.86-.48-2.1.31-2.89l17.65-17.65c.11-.11.17-.26.17-.42s-.06-.3-.17-.42-.26-.17-.42-.17h0c-.16,0-.31.06-.42.17l-17.71,17.71c-.72.72-1.07,1.71-.97,2.73.1,1.01.66,1.92,1.52,2.49,1.31.87,3.12.64,4.29-.53l24.14-24.14c1.25-1.25,1.9-2.98,1.79-4.75-.12-1.79-.97-3.39-2.4-4.49-2.43-1.88-5.97-1.57-8.25.7L8.02,31.4c-2.09,2.09-3.09,4.33-2.97,6.65.11,2.08,1.14,4.15,2.97,5.98h0Z"/>
  </g>
  <g id="Names">
    <text class="cls-3" transform="translate(0 53.76)"><tspan x="0" y="0">pape</tspan><tspan class="cls-4" x="10.98" y="0">r</tspan><tspan x="12.62" y="0">clip</tspan></text>
  </g>
</svg>