<?xml version="1.0" encoding="UTF-8"?><svg xmlns="http://www.w3.org/2000/svg" viewBox="0 0 50 50"><g id="uuid-b1f8f72a-1885-4319-a3a1-7fa474964a0f"><g><path d="M40.26,4.19h-2.05V.97c0-.14-.07-.28-.18-.38-.11-.09-.25-.14-.39-.12L9.18,4.2s-.05,.02-.07,.02c-.03,0-.05,.01-.07,.02-.03,.02-.06,.04-.09,.06-.02,.02-.04,.03-.06,.05-.03,.03-.05,.06-.07,.1-.01,.02-.03,.04-.03,.06-.02,.06-.04,.12-.04,.19V48.53c0,.28,.22,.5,.5,.5h31.01c.28,0,.5-.22,.5-.5V4.69c0-.28-.22-.5-.5-.5Zm-.5,43.84H9.74V5.19h30.01V48.03Zm-2.55-43.84H16.92L37.2,1.54v2.65Z"/><path d="M24.75,12.37c-3.98,0-7.5,2.04-9.56,5.12l-.06,.1c-1.19,1.81-1.88,3.97-1.88,6.29,0,6.34,5.16,11.5,11.5,11.5s11.5-5.16,11.5-11.5-5.16-11.5-11.5-11.5Zm8.32,5.12h-4.38c-.89-1.83-2-3.2-2.82-4.06,2.93,.31,5.49,1.84,7.2,4.06Zm-8.42,16.56c-.78-.73-2.21-2.29-3.26-4.55h6.51c-1.04,2.27-2.48,3.82-3.26,4.55Zm-3.67-5.55c-.49-1.31-.82-2.81-.84-4.5h9.01c-.02,1.69-.35,3.19-.84,4.5h-7.34Zm-6.73-4.5h4.89c.02,1.67,.32,3.18,.78,4.5h-4.59c-.67-1.36-1.06-2.89-1.08-4.5Zm10.4-10.37c.7,.66,1.92,1.97,2.92,3.86h-5.83c1-1.89,2.22-3.21,2.92-3.86Zm3.39,4.86c.56,1.29,.98,2.8,1.08,4.5h-8.95c.11-1.71,.53-3.21,1.08-4.5h6.79Zm-8.87,4.5h-4.89c.14-1.64,.65-3.16,1.46-4.5h4.43c-.52,1.31-.9,2.82-1,4.5Zm10.98,1h5.09c-.02,1.62-.41,3.14-1.08,4.5h-4.78c.45-1.33,.76-2.83,.78-4.5Zm-.03-1c-.1-1.69-.47-3.19-1-4.5h4.62c.8,1.34,1.32,2.87,1.46,4.5h-5.08Zm-6.73-9.53c-.82,.86-1.91,2.22-2.79,4.03h-4.19c1.66-2.16,4.14-3.66,6.98-4.03Zm-7.51,16.03h4.41c.94,2.21,2.25,3.83,3.17,4.79-3.19-.39-5.93-2.2-7.58-4.79Zm9.91,4.82c.92-.96,2.25-2.59,3.2-4.82h4.6c-1.69,2.65-4.52,4.49-7.8,4.82Z"/><path d="M31.61,40.27h-13.71c-.28,0-.5,.22-.5,.5s.22,.5,.5,.5h13.71c.28,0,.5-.22,.5-.5s-.22-.5-.5-.5Z"/></g></g><g id="uuid-ce703e77-e6fb-4f61-9673-aaf01a07904f"><text transform="translate(.38 54.96)" font-family="Roboto-Regular, Roboto" font-size="6"><tspan x="0" y="0">passpo</tspan><tspan x="19.61" y="0" letter-spacing=".02em">r</tspan><tspan x="21.78" y="0">t</tspan></text></g></svg>