<svg id="abbb6995-2a1c-467c-9d6d-b98821592060" data-name="ICONS" xmlns="http://www.w3.org/2000/svg" viewBox="0 0 50 50"><path d="M36.76,14.71a10.29,10.29,0,0,0-10.37-.55.73.73,0,0,1-.72,0,10.67,10.67,0,0,0-4.76-1.18,10.2,10.2,0,0,0-5.42,1.62C10.84,17.44,7.59,23.8,7.59,30a18.44,18.44,0,1,0,36.88,0C44.47,23.88,41.3,17.58,36.76,14.71Z" fill="#fdd600"/><polygon points="24.22 11.99 24.22 12 24.22 11.99 24.22 11.99" fill="#231f20"/><path d="M42.37,34.94l-.1.48.21-.46Z" fill="#fdd600"/><path d="M35.54,12.15a11.09,11.09,0,0,0-10.13-1.09,4.8,4.8,0,0,0,.1-1.78,8,8,0,0,0,3.72-2.4A9.14,9.14,0,0,0,30.84.75.51.51,0,0,0,30.29.3a9.19,9.19,0,0,0-5.66,2.86,6.93,6.93,0,0,0-1.16,2,12.42,12.42,0,0,0-3.58-2.74.51.51,0,0,0-.67.22.49.49,0,0,0,.22.67,10.44,10.44,0,0,1,4.36,4,4.36,4.36,0,0,1,.41,4.13,11,11,0,0,0-11,.55c-4.93,3-8.37,9.77-8.37,16.33a19.44,19.44,0,1,0,38.88,0C43.72,21.74,40.43,15.24,35.54,12.15Zm-11.31-6a5.69,5.69,0,0,1,1.18-2.32,7.87,7.87,0,0,1,4.46-2.41,7.82,7.82,0,0,1-1.42,4.87,6.89,6.89,0,0,1-3.14,2,7.75,7.75,0,0,0-.63-1.47C24.54,6.58,24.39,6.35,24.23,6.11Zm0,5.88Zm1.34,34.87A17,17,0,0,1,13.1,30.77,17.37,17.37,0,0,1,22.39,15a.5.5,0,1,0-.46-.89A18.39,18.39,0,0,0,12.1,30.8a18,18,0,0,0,10.46,16A18.57,18.57,0,0,1,5.84,28.32c0-6.23,3.25-12.6,7.9-15.48a10.29,10.29,0,0,1,5.42-1.62,10.56,10.56,0,0,1,4.76,1.19.76.76,0,0,0,.72,0A10.3,10.3,0,0,1,35,13c4.54,2.87,7.71,9.17,7.71,15.33A18.55,18.55,0,0,1,25.56,46.86Z" fill="#231f20"/></svg>