<svg xmlns="http://www.w3.org/2000/svg" viewBox="0 0 50 50"><g id="b932f30f-b8d5-498c-8cdd-c4610b17b5c5" data-name="ICONS"><path d="M40.51,33.05a.6.6,0,0,0-.27-.54c-1-.77-1-1.11-1-1.22s0,0,.08-.09a9.77,9.77,0,0,1,1.33-.5c2.22-.75,5.56-1.89,5.66-3.94.08-1.73-1.23-4.19-3.41-6.42-2.65-2.7-5.74-4.25-8.21-4.2S30.46,17.67,28.82,19c-1.41,1.12-2.71,2.19-4.12,2.15S21.92,20,20.44,19c-1.74-1.29-3.71-2.75-6.07-2.81s-5.56,1.5-8.2,4.2C4,22.57,2.68,25,2.76,26.76c.09,2,3.44,3.19,5.65,3.94a8.79,8.79,0,0,1,1.33.5c.08.05.08.08.08.09s-.09.45-1.11,1.28l-.22.21,0,.27c.08.7,3.83,2.68,6.06,3.79a.88.88,0,0,0,1.12-.33,1.15,1.15,0,0,1,1.12-.45,11.66,11.66,0,0,1,2.23.7c2,.75,4,1.53,4.94.54a.77.77,0,0,0,.21-.64c-.09-.65-1-1.2-2.77-2.28-2.64-1.57-6.26-3.73-5.28-5.94s4.82-1.27,7.13-.72c.58.15,1,.26,1.39.31h.13c.36-.05.85-.18,1.43-.32,2.12-.55,5.68-1.46,6.65.73s-2.64,4.37-5.28,5.94c-1.81,1.08-2.68,1.63-2.77,2.28a.74.74,0,0,0,.21.64,1.71,1.71,0,0,0,1.29.47,11.62,11.62,0,0,0,3.64-1,12.11,12.11,0,0,1,2.23-.7,1.15,1.15,0,0,1,1.12.45.89.89,0,0,0,1.13.33C36.67,35.73,40.42,33.76,40.51,33.05Zm-6.44,2.79a2.13,2.13,0,0,0-1.94-.78,10.75,10.75,0,0,0-2.51.77c-1.24.47-3.06,1.17-3.72.87a15.82,15.82,0,0,1,2.21-1.46c3-1.76,7-4.18,5.68-7.2s-5.38-1.92-7.81-1.3c-.51.13-.95.24-1.24.28s-.73-.15-1.23-.27c-2.6-.63-7-1.69-8.28,1.29s2.73,5.44,5.69,7.2a15,15,0,0,1,2.2,1.46c-.65.3-2.48-.4-3.71-.87a10.8,10.8,0,0,0-2.52-.77,2.14,2.14,0,0,0-1.93.78l-.05,0C13.74,35.3,10.76,33.7,9.75,33a2.5,2.5,0,0,0,1.07-1.74,1.1,1.1,0,0,0-.5-.88,7.75,7.75,0,0,0-1.59-.63c-1.72-.58-4.91-1.66-5-3S4.92,23.05,6.88,21c2.42-2.47,5.29-4,7.46-3.9s3.8,1.35,5.5,2.61,3.14,2.33,4.85,2.36,3.2-1.14,4.75-2.36,3.23-2.56,5.24-2.61c2.2-.06,5,1.43,7.46,3.9,2,2,3.19,4.23,3.13,5.68s-3.26,2.45-5,3a7.58,7.58,0,0,0-1.58.63,1.12,1.12,0,0,0-.51.88A2.53,2.53,0,0,0,39.27,33c-1,.7-4,2.31-5.16,2.89Z"/><path d="M10.36,36.45a3.34,3.34,0,0,0-2.29,1.12l-.84-.31a2.55,2.55,0,0,0-.67-1.52A2.76,2.76,0,0,0,4.36,35a2.68,2.68,0,0,0-1.95,1A8.05,8.05,0,0,0,.89,41.05a3.36,3.36,0,0,0,1.35,2.21,3.66,3.66,0,0,1,.81.91A28.35,28.35,0,0,1,4.19,48.3a.5.5,0,0,0,.49.4H9.86a.51.51,0,0,0,.39-.19.52.52,0,0,0,.1-.42c-.47-2.16-.76-5.52.05-6.21a5,5,0,0,1,2.22-.69c1-.14,1.77-.27,2.16-.83a1.21,1.21,0,0,0,.15-1C14.69,38.25,11.27,36.35,10.36,36.45ZM14,39.79c-.14.21-.92.33-1.48.42a5.41,5.41,0,0,0-2.71.91c-1.35,1.13-.82,4.93-.51,6.58H5.08a25.71,25.71,0,0,0-1.14-4,4.57,4.57,0,0,0-1-1.19A2.63,2.63,0,0,1,1.88,41a7.15,7.15,0,0,1,1.27-4.35A1.7,1.7,0,0,1,4.4,36a1.84,1.84,0,0,1,1.44.42,1.72,1.72,0,0,1,.41,1.15.51.51,0,0,0,.33.51l1.51.55a.5.5,0,0,0,.63-.27,2.08,2.08,0,0,1,1.74-.92c.61,0,3.32,1.59,3.5,2.16A.25.25,0,0,1,14,39.79Z"/><path d="M46.84,36a2.76,2.76,0,0,0-2-1,2.81,2.81,0,0,0-2.2.73A2.68,2.68,0,0,0,42,37.3l-.83.3a3.3,3.3,0,0,0-2.29-1.11c-.9-.09-4.33,1.8-4.57,2.94a1.2,1.2,0,0,0,.15,1c.39.57,1.21.7,2.16.84a4.77,4.77,0,0,1,2.22.69c.81.68.52,4,0,6.21a.53.53,0,0,0,.1.42.51.51,0,0,0,.39.19h5.18a.5.5,0,0,0,.49-.4A28.84,28.84,0,0,1,46.2,44.2a4,4,0,0,1,.81-.91,3.34,3.34,0,0,0,1.35-2.2A8.08,8.08,0,0,0,46.84,36Zm.53,5a2.58,2.58,0,0,1-1,1.53,4.78,4.78,0,0,0-1,1.2,25.71,25.71,0,0,0-1.14,4H40c.31-1.65.83-5.45-.51-6.58a5.52,5.52,0,0,0-2.71-.92c-.57-.08-1.34-.2-1.48-.41a.26.26,0,0,1,0-.18c.18-.58,2.89-2.16,3.49-2.17a2.08,2.08,0,0,1,1.74.92.5.5,0,0,0,.63.28l1.52-.56a.5.5,0,0,0,.33-.5,1.72,1.72,0,0,1,.41-1.15A1.81,1.81,0,0,1,44.85,36a1.77,1.77,0,0,1,1.25.63A7.19,7.19,0,0,1,47.37,41Z"/><path d="M19.32,6.09h1.33a4.09,4.09,0,0,0,7,2.43,4,4,0,0,0,1.15-2.43H30a.49.49,0,0,0,.5-.49c0-1.59,0-4.17.05-4.5a.5.5,0,0,0-.77-.5s-.08.05-.1.09c-.67.61-3.26,2.69-5,2.69A5.94,5.94,0,0,1,20,1.14c-.11-.13-.2-.26-.3-.39a.5.5,0,0,0-.91.28V5.59A.5.5,0,0,0,19.32,6.09Zm.5-3.69a6.93,6.93,0,0,0,4.86,2c1.59,0,3.64-1.3,4.85-2.25,0,.64,0,1.58,0,3H28.31a.53.53,0,0,0-.36.15.54.54,0,0,0-.14.36,3.07,3.07,0,0,1-.89,2.22,3.18,3.18,0,0,1-4.4,0,3.07,3.07,0,0,1-.89-2.22.54.54,0,0,0-.14-.36.55.55,0,0,0-.36-.15H19.82Z"/><path d="M19.07,14.91H20.4a4.09,4.09,0,0,0,7,2.43,4,4,0,0,0,1.15-2.43h1.22a.5.5,0,0,0,.5-.5c0-1.58,0-4.16.05-4.49a.5.5,0,0,0-.77-.5.44.44,0,0,0-.1.08c-.67.62-3.26,2.7-5,2.7A5.94,5.94,0,0,1,19.78,10h0c-.11-.13-.2-.26-.3-.39a.48.48,0,0,0-.56-.2.5.5,0,0,0-.35.48v4.56A.5.5,0,0,0,19.07,14.91Zm.5-3.69a6.93,6.93,0,0,0,4.86,2c1.59,0,3.64-1.3,4.85-2.25,0,.64,0,1.58,0,3H28.06a.53.53,0,0,0-.36.15.54.54,0,0,0-.14.36,3.09,3.09,0,0,1-.89,2.22,3.18,3.18,0,0,1-4.4,0,3.09,3.09,0,0,1-.89-2.22.54.54,0,0,0-.14-.36.53.53,0,0,0-.36-.15H19.57Z"/></g><g id="a930c704-8890-447b-9883-da03016c3a2c" data-name="LABELS"><text transform="translate(-0.05 54.97)" font-size="6" font-family="Roboto-Regular, Roboto">pelvis</text></g></svg>