<svg xmlns="http://www.w3.org/2000/svg" viewBox="0 0 50 50"><g id="b8847c3d-73ba-4ad7-ad67-1e0479bea943" data-name="ICONS"><path d="M48.67,3.47A.54.54,0,0,0,48,3.33L2.43,25.4a.54.54,0,0,0-.3.36.57.57,0,0,0,.09.46l2.14,2.89-2.9,2.06a.51.51,0,0,0-.21.32.48.48,0,0,0,.09.37l1.47,2.08a.51.51,0,0,0,.41.21.52.52,0,0,0,.29-.09l3-2.1,6.81,9.22-3.11,2.2a.5.5,0,0,0-.2.33.45.45,0,0,0,.08.37l1.48,2.08a.46.46,0,0,0,.32.2h.08a.48.48,0,0,0,.29-.09L15.39,44l1.82,2.48a.55.55,0,0,0,.89,0L48.7,4.14A.54.54,0,0,0,48.67,3.47ZM3.34,33l-.9-1.26,4.07-2.88.9,1.26Zm8.71,12.22-.89-1.26L15.22,41l.9,1.27Zm5.6.08L16.28,43.4l.82-.59a.47.47,0,0,0,.21-.32.48.48,0,0,0-.09-.37L15.75,40a.5.5,0,0,0-.7-.12l-.88.62L7.36,31.33l1-.73a.56.56,0,0,0,.21-.33.49.49,0,0,0-.09-.37L7,27.82a.5.5,0,0,0-.33-.2.49.49,0,0,0-.37.08l-1.09.77L3.5,26.1l43-20.84Z"/></g><g id="ba4254ce-43d2-4e0d-b52b-34bc0db4d820" data-name="LABELS"><text transform="translate(0 54.9)" font-size="6" font-family="Roboto-Regular, Roboto">pennant</text></g></svg>