<svg id="fadbeb4f-05c7-4283-9921-466c8889994f" data-name="ICONS" xmlns="http://www.w3.org/2000/svg" viewBox="0 0 50 50"><path d="M15.57,16.53a9,9,0,1,0-3.18-6.84A9,9,0,0,0,15.57,16.53ZM21.36,1.72a8,8,0,1,1-8,8A8,8,0,0,1,21.36,1.72Z"/><path d="M37.66,32a2.89,2.89,0,0,0,.52-1.59,2.4,2.4,0,0,0-.7-1.83,1.56,1.56,0,0,0-.35-.27,8.3,8.3,0,0,1,.53,2.91Z" fill="none"/><path d="M44.19,32.71A8.69,8.69,0,0,0,35.51,24l-.34,0a9.43,9.43,0,0,0-7.25-4H14.79a9.45,9.45,0,0,0-9,9.44V48a.5.5,0,0,0,.5.5h30.1a.51.51,0,0,0,.5-.5V41.27A8.69,8.69,0,0,0,44.19,32.71ZM6.81,29.49a8.45,8.45,0,0,1,8-8.44H27.71a.5.5,0,0,0,.27,0,8.42,8.42,0,0,1,6,3.11,8.66,8.66,0,0,0-5,14.31v9.05H13.76V31.27a.5.5,0,0,0-.5-.5.5.5,0,0,0-.5.5V47.53H6.81ZM30,47.53V39.45a8.67,8.67,0,0,0,5.47,1.95l.4,0v6.15Zm5.47-7.13a7.69,7.69,0,1,1,7.68-7.69A7.69,7.69,0,0,1,35.51,40.4Z"/><path d="M37.13,32.68a3.3,3.3,0,0,0,1-2.26,2.4,2.4,0,0,0-.7-1.83,2.66,2.66,0,0,0-1.94-.68,2.88,2.88,0,0,0-1.94.66,2.21,2.21,0,0,0-.76,1.74s0,.06,0,.09a.16.16,0,0,0,.09,0h1.16a.12.12,0,0,0,.13-.12,1,1,0,0,1,.35-.82,1.4,1.4,0,0,1,.94-.31,1.17,1.17,0,0,1,.92.34,1.32,1.32,0,0,1,.31.94,1.81,1.81,0,0,1-.49,1.2l-.83.85a2.91,2.91,0,0,0-.66,1,3.88,3.88,0,0,0-.18,1.22.16.16,0,0,0,0,.09.18.18,0,0,0,.09,0H35.9a.12.12,0,0,0,.12-.13,2,2,0,0,1,.42-1.37Z"/><path d="M35.37,35.93a.78.78,0,0,0-.61.24.88.88,0,0,0,0,1.12.8.8,0,0,0,.61.22.78.78,0,0,0,.6-.22.8.8,0,0,0,.22-.56.84.84,0,0,0-.21-.56A.79.79,0,0,0,35.37,35.93Z"/></svg>