<svg xmlns="http://www.w3.org/2000/svg" viewBox="0 0 50 50"><g id="adfaddb6-5bdb-4e90-b140-1ff43e4a5d1f" data-name="ICONS"><path d="M22.8,26.46a.5.5,0,0,1,.07-.5L35.39,9.75a20.59,20.59,0,0,0-12.1-3.93,20.25,20.25,0,0,0-7.71,1.51A20.45,20.45,0,0,0,4.44,34,20.43,20.43,0,0,0,31.1,45.14,20.49,20.49,0,0,0,43.5,29.5L23.19,26.76A.5.5,0,0,1,22.8,26.46Z" fill="#fdd600"/><path d="M42,8,30,23.49l19.45,2.63A20.31,20.31,0,0,0,42,8Z" fill="#fdd600"/><path d="M42.63,27.08,22.69,24.39,35,8.46a.5.5,0,0,0,.1-.37.53.53,0,0,0-.19-.33,21.44,21.44,0,1,0,8.16,19.88.49.49,0,0,0-.09-.37A.53.53,0,0,0,42.63,27.08Zm-13,16.56A20.43,20.43,0,0,1,2.94,32.5,20.45,20.45,0,0,1,14.08,5.83a20.25,20.25,0,0,1,7.71-1.51,20.59,20.59,0,0,1,12.1,3.93L21.37,24.46a.5.5,0,0,0-.07.5.48.48,0,0,0,.39.3L42,28A20.49,20.49,0,0,1,29.6,43.64Z" fill="#231f20"/><path d="M47.5,14.2a21.39,21.39,0,0,0-6.77-8.84.5.5,0,0,0-.7.09L27.2,22.07a.49.49,0,0,0-.07.49.49.49,0,0,0,.4.31l20.8,2.81h.07a.49.49,0,0,0,.49-.43A21.37,21.37,0,0,0,47.5,14.2ZM48,24.62,28.52,22l12-15.54A20.31,20.31,0,0,1,48,24.62Z" fill="#231f20"/></g><g id="b24fbeb5-6cdc-42f7-9c42-08cdf86d5191" data-name="LABELS"><text transform="translate(0 54.74)" font-size="6" fill="#231f20" font-family="Roboto-Regular, Roboto">pie-cha<tspan x="19.37" y="0" letter-spacing="0.02em">r</tspan><tspan x="21.54" y="0">t</tspan></text></g></svg>