<svg id="b96972b5-0a26-4dfa-8331-f99f469f76d2" data-name="ICONS" xmlns="http://www.w3.org/2000/svg" viewBox="0 0 50 50"><path d="M26.75,15.64c-7.47,0-13.54,9.05-13.54,20.18a26.49,26.49,0,0,0,3.45,13.42H36.84a26.49,26.49,0,0,0,3.45-13.42C40.29,24.69,34.22,15.64,26.75,15.64Z" fill="#fdd600"/><path d="M42.41,12A10.42,10.42,0,0,0,31,6.61a9.43,9.43,0,0,1,7.12-2.72.47.47,0,0,0,.49-.33A.5.5,0,0,0,38.4,3a10.2,10.2,0,0,0-2.79-1.56,10.35,10.35,0,0,0-8,.28,10.52,10.52,0,0,0-3.1,2.18A10.42,10.42,0,0,0,14.39,2.28,10.2,10.2,0,0,0,11.6,3.84a.5.5,0,0,0-.16.57.49.49,0,0,0,.49.33A9.45,9.45,0,0,1,17.8,6.42,10.41,10.41,0,0,0,7.59,12a.5.5,0,0,0,.09.58.52.52,0,0,0,.59.09,9.4,9.4,0,0,1,11,1.71l.11.12h0a15.68,15.68,0,0,0-4.66,4.57l0,0h0s0,.05,0,.07-.05.06-.06.1a.06.06,0,0,0,0,0,23.88,23.88,0,0,0-3,6.78.49.49,0,0,0-.06.23,30.13,30.13,0,0,0-1,7.12.33.33,0,0,0,0,.14c0,.16,0,.3,0,.45,0,.39,0,.78,0,1.17a.33.33,0,0,0,0,.14,29.43,29.43,0,0,0,1.14,7,.47.47,0,0,0,.06.2,23.63,23.63,0,0,0,2.51,5.69.49.49,0,0,0,.42.24H35.37a.49.49,0,0,0,.42-.24,23.8,23.8,0,0,0,2.51-5.69.7.7,0,0,0,.06-.19,29.6,29.6,0,0,0,1.14-7,.33.33,0,0,0,0-.14c0-.39,0-.78,0-1.17a29.92,29.92,0,0,0-1-7.71.43.43,0,0,0-.06-.22,23.82,23.82,0,0,0-3-6.79.06.06,0,0,0,0,0s0-.06-.06-.09a.35.35,0,0,0,0-.08h0v0a15.71,15.71,0,0,0-4.69-4.59l.12-.12h0a9.4,9.4,0,0,1,11-1.71.52.52,0,0,0,.59-.09A.5.5,0,0,0,42.41,12ZM30,13.69h0l-.33.34a10.55,10.55,0,0,0-3.1-1,10.18,10.18,0,0,0-1-1.89,8.54,8.54,0,0,1,.84-1,9.45,9.45,0,0,1,13.35,0,8.77,8.77,0,0,1,.89,1A10.4,10.4,0,0,0,30,13.69Zm-6.47-3.55a9.35,9.35,0,0,1,1.91,2.77l-.45,0A10.46,10.46,0,0,0,20.32,14L20,13.69h0a10.41,10.41,0,0,0-7.37-3.07,10.23,10.23,0,0,0-3.32.55,8.77,8.77,0,0,1,.89-1A9.45,9.45,0,0,1,23.54,10.14Zm3.25-1.6a9.61,9.61,0,0,0-1,.89,9.8,9.8,0,0,0-.75.84,9.8,9.8,0,0,0-.75-.84A10.34,10.34,0,0,0,19.8,6.8a10.38,10.38,0,0,0-6.3-3,9.27,9.27,0,0,1,1.24-.57A9.46,9.46,0,0,1,26.79,8.54Zm8.47-6.18a9.27,9.27,0,0,1,1.24.57,10.38,10.38,0,0,0-7.32,4.23,9.57,9.57,0,0,0-1.56.8,10.36,10.36,0,0,0-2.34-3.41,9.39,9.39,0,0,1,10-2.19ZM26.12,47.48H23.88l-3.14-3.14L25,40.08l4.26,4.26ZM30,45.05l2.43,2.43H27.53Zm-7.49,2.43H17.61L20,45.05ZM29,14.76l-3.93,4-4-4a9.28,9.28,0,0,1,7.89,0ZM24.29,29.45,20,33.71l-4.27-4.27L20,25.17Zm.71.71,4.26,4.25L25,38.67l-4.26-4.26Zm.71-.71L30,25.12l4.26,4.25L30,33.71ZM25,28.74l-4.28-4.28L25,20.12l4.3,4.29Zm.73-9.33,4.1-4.12,4.41,4.21L30,23.71Zm-5.59-4.16,4.18,4.17L20,23.75l-4.26-4.26L20,15.35Zm-.84,9.21-4.24,4.27L12.53,26.2a23.05,23.05,0,0,1,2.6-5.91Zm-5,5-2.83,2.85a29,29,0,0,1,.73-5Zm-2.86,5.65c0-.34,0-.68,0-1,0-.1,0-.2,0-.3l3.59-3.62,4.27,4.27-4.26,4.26Zm2.88,4.29-2,2a28.16,28.16,0,0,1-.81-4.76ZM20,35.12l4.25,4.26L20,43.63l-4.26-4.25Zm5.67,4.26L30,35.12l4.26,4.26L30,43.63Zm5-5L35,30.07l3.5,3.5h0c0,.17,0,.33,0,.49,0,.35,0,.69,0,1l-3.58,3.58Zm7.75,2.18a28.16,28.16,0,0,1-.81,4.76l-2-2Zm-2.7-7.22,2-2a28.22,28.22,0,0,1,.72,4.78ZM35,28.66l-4.27-4.25,4.13-4.12a23.05,23.05,0,0,1,2.6,5.91ZM15.07,40.08l4.26,4.26-3.14,3.14H14.91a23.07,23.07,0,0,1-2.2-5Zm18.74,7.4-3.14-3.14,4.26-4.26,2.36,2.37a23.07,23.07,0,0,1-2.2,5Z" fill="#231f20"/></svg>