<?xml version="1.0" encoding="UTF-8"?>
<svg xmlns="http://www.w3.org/2000/svg" viewBox="0 0 50 50">
  <defs>
    <style>
      .cls-1 {
        fill: #1f1c1d;
      }

      .cls-2 {
        fill: #221f1f;
        font-family: Roboto-Regular, Roboto;
        font-size: 5px;
      }

      .cls-3 {
        letter-spacing: 0em;
      }
    </style>
  </defs>
  <g id="Icon_Outline">
    <g>
      <path class="cls-1" d="M37.24,15.47l-2.76-.42-1.22-2.52c-.17-.34-.51-.56-.89-.56h0c-.38,0-.72.21-.89.55l-1.26,2.5-2.77.38c-.38.05-.69.31-.81.67-.12.36-.03.76.24,1.03l1.99,1.97-.49,2.75c-.07.37.08.75.39.98.18.13.38.19.59.19.16,0,.31-.04.46-.11l2.48-1.28,2.47,1.32c.15.08.31.12.47.12.21,0,.41-.06.58-.19.31-.22.47-.6.4-.98l-.46-2.76,2.02-1.94c.27-.26.38-.66.26-1.02s-.43-.63-.8-.69ZM34.77,18.68s-.07.11-.06.18l.52,3.17-2.83-1.51s-.07-.02-.1-.02-.07,0-.09.02l-2.86,1.48.56-3.17c.01-.07,0-.14-.06-.18l-2.28-2.26,3.18-.44c.07,0,.13-.05.16-.11l1.44-2.87,1.4,2.89c.03.06.09.1.15.11l3.18.48-2.32,2.23Z"/>
      <path class="cls-1" d="M40.8,8.32c-.18-.13-.39-.2-.6-.2-.15,0-.31.04-.45.11-.38.19-1.74.82-3.31.82-.83,0-1.59-.18-2.27-.53l-1.35-.78c-.15-.09-.33-.13-.5-.13s-.35.04-.5.13l-1.38.8c-.64.33-1.4.51-2.24.51-1.56,0-2.92-.62-3.3-.82-.14-.07-.3-.11-.45-.11-.21,0-.42.07-.6.2l-1.4,1.04c-.44.33-.54.95-.21,1.4,1.28,1.73,1.43,2.8.87,6.03-.57,3.25-1.28,7.29,2.36,9.12.99.5,2.04.7,2.96.87,1.54.3,2.48.52,3.02,1.45.18.31.51.5.87.5s.69-.19.87-.5c.54-.93,1.48-1.15,2.98-1.44.96-.18,2.01-.38,3-.88,3.64-1.83,2.93-5.87,2.36-9.11-.57-3.24-.41-4.31.87-6.04.33-.44.23-1.07-.21-1.4l-1.4-1.04ZM40.55,16.95c.57,3.22,1.15,6.56-1.82,8.05-.87.44-1.81.61-2.71.79-1.48.29-2.89.55-3.68,1.93-.8-1.38-2.21-1.64-3.68-1.93-.9-.17-1.84-.35-2.71-.79-2.98-1.5-2.39-4.83-1.82-8.05.57-3.27.51-4.69-1.05-6.8l1.4-1.04c.44.22,1.96.92,3.75.92.88,0,1.82-.17,2.74-.65l1.38-.8,1.39.8c.91.47,1.85.64,2.73.64,1.79,0,3.31-.7,3.75-.92l1.4,1.04c-1.56,2.11-1.62,3.52-1.05,6.8Z"/>
      <path class="cls-1" d="M24.48,38.65c-.15-.14-.72-.59-1.5-.54-.5.04-.87.26-1.12.48l-2.11,2.1c-1.99-1.47-3.87-3.11-5.61-4.87-1.64-1.68-3.17-3.5-4.54-5.41l1.79-1.82s.02-.02.02-.03c.2-.24.54-.74.55-1.46.01-.93-.55-1.54-.71-1.7l-3.93-3.93c-.88-.88-2.22-.96-3-.18-2.84,2.9-2.9,3.02-2.92,3.08-.48.86-1.02,2.28-.85,4.18.16,1.87.94,3.35,1.54,4.24,1.87,3.15,4.14,6.08,6.74,8.72,2.39,2.42,5.05,4.57,7.89,6.38,1.04.66,2.71,1.47,4.78,1.59.17,0,.34.01.51.01,1.62,0,2.86-.46,3.62-.85.1-.04.23-.1,3.12-2.94.39-.39.57-.92.52-1.5-.04-.55-.3-1.08-.71-1.5l-4.06-4.06ZM28.02,45c-1.27,1.24-2.71,2.64-2.85,2.75-.75.39-1.99.83-3.63.74-1.85-.11-3.36-.84-4.3-1.44-2.78-1.77-5.38-3.87-7.72-6.24-2.54-2.58-4.76-5.44-6.61-8.55-.55-.82-1.24-2.14-1.39-3.79-.15-1.65.32-2.87.71-3.57.14-.19,1.54-1.63,2.78-2.9.16-.16.37-.24.62-.24.03,0,.06,0,.09,0,.32.03.62.17.87.42l3.94,3.94c.07.07.42.43.41.97,0,.41-.21.7-.3.81l-2.06,2.1c-.17.17-.19.44-.05.64,1.47,2.08,3.11,4.05,4.89,5.87,1.87,1.91,3.92,3.67,6.08,5.24.2.14.47.12.65-.05l2.38-2.37c.11-.09.29-.2.53-.22.4-.03.69.22.73.26l4.05,4.05c.25.25.39.55.42.87.02.28-.06.54-.23.71Z"/>
      <path class="cls-1" d="M44.48,5.52C40.7,1.74,35.46-.04,30.11.65c-7.59.97-13.63,6.93-14.7,14.5-.54,3.79.15,7.53,1.98,10.81l-.94,6.79c-.03.22.04.45.2.61.16.16.37.23.6.2l6.81-.93c2.55,1.42,5.38,2.14,8.29,2.14.83,0,1.67-.06,2.52-.18,7.56-1.07,13.51-7.11,14.49-14.7.68-5.35-1.09-10.59-4.87-14.37ZM48.36,19.77c-.91,7.14-6.52,12.82-13.63,13.83-3.62.52-7.19-.15-10.32-1.93-.08-.04-.16-.07-.25-.07-.02,0-.04,0-.07,0l-6.61.9.92-6.58c.02-.11,0-.22-.06-.32-1.78-3.12-2.45-6.7-1.94-10.33,1.01-7.12,6.69-12.73,13.83-13.64,5.04-.64,9.98,1.03,13.54,4.59,3.56,3.56,5.23,8.5,4.59,13.54Z"/>
    </g>
  </g>
  <g id="Names">
    <text class="cls-2" transform="translate(.32 53.82)"><tspan x="0" y="0">police-eme</tspan><tspan class="cls-3" x="24.41" y="0">r</tspan><tspan x="26.05" y="0">gency</tspan></text>
  </g>
</svg>