<svg xmlns="http://www.w3.org/2000/svg" viewBox="0 0 50 50"><g id="b3ef0bc1-8769-440a-bfd9-9e49d67f905f" data-name="ICONS"><path d="M12.28,27.59a.51.51,0,0,0,.39.41c.61.13,1.38.26,2.25.37a140.68,140.68,0,0,1-.14-15.93,1.66,1.66,0,0,0-.28-.38,1.7,1.7,0,0,0-.69-.4A10.48,10.48,0,0,0,12,11.2,120,120,0,0,0,12.28,27.59Z" fill="none"/><path d="M45.33,37.93s-.57-1.78-1.2-3.72L40.31,38,35.87,33.6a2.43,2.43,0,0,1,1.72-4.15,2.4,2.4,0,0,1,1.72.71l.64.64a.53.53,0,0,0,.36.15.51.51,0,0,0,.35-.15l.64-.64a2.4,2.4,0,0,1,1.23-.66.51.51,0,0,0,0-.1c-3.89-6.75-14-7.76-14.12-7.77a.52.52,0,0,1-.46-.49.52.52,0,0,1,.44-.51c3.09-.43,3.53-4.55,3.34-6-.16-1.23-.82-3-4.48-5.32l-.84-.66a29.22,29.22,0,0,1-4.44-4.34,12.76,12.76,0,0,1-7.67,1l-2.07-.67v0A2.13,2.13,0,0,0,12,4.52a3.65,3.65,0,0,0-1.41-.38A3.66,3.66,0,0,0,6.7,7.59c-.06,1-.1,1.94-.15,2.87A9.79,9.79,0,0,1,12,11a2,2,0,0,0,0,.25,10.48,10.48,0,0,1,1.79.46,1.7,1.7,0,0,1,.69.4,1.66,1.66,0,0,1,.28.38,140.68,140.68,0,0,0,.14,15.93c3.56.47,9,.81,13.12.91a3.65,3.65,0,0,1-.19,7.3h0c-9.23-.24-14.42-1-17.33-1.74-.4.65-.77,1.29-1.1,1.9-.76,1.58-3.1,7-2,12.58,2.42,0,15.32,0,25.12,0,8,0,10.58,0,11.23,0C45.48,47.47,46.06,42.8,45.33,37.93Z" fill="#fdd600"/><path d="M45.45,29.45a3.45,3.45,0,0,0-3.13-.93c-.23-.47-.46-.94-.71-1.37-3.13-5.43-9.77-7.35-13-8,2.15-1.49,2.56-4.8,2.35-6.42-.28-2.15-1.8-4-4.89-6l-.8-.63a28.08,28.08,0,0,1-4.5-4.47.51.51,0,0,0-.61-.16,11.69,11.69,0,0,1-8.87.74,5.76,5.76,0,0,0-.63-.37.05.05,0,0,1,0,0h-.05a4.49,4.49,0,0,0-1.7-.43A4.55,4.55,0,0,0,5.5,2.57,4.62,4.62,0,0,0,4,5.78c-.1,1.72-.17,3.32-.23,4.82,0,0,0,.05,0,.08s0,.05,0,.08c-.8,20.55,1.44,22.37,2.92,23.57l.18.14c-.8,1.61-3.43,7.58-2,13.71a.49.49,0,0,0,.48.39s14.67,0,25.53,0h4.32c7.3,0,7.33,0,7.49-.18,2.34-2.34,2.72-7.82,1.77-13.09l1-1A3.43,3.43,0,0,0,45.45,29.45ZM40.31,38,35.87,33.6a2.43,2.43,0,0,1,1.72-4.15,2.4,2.4,0,0,1,1.72.71l.64.64a.53.53,0,0,0,.36.15.51.51,0,0,0,.35-.15l.64-.64a2.43,2.43,0,0,1,3.44,3.44ZM5,5.84A3.66,3.66,0,0,1,8.79,2.39a3.65,3.65,0,0,1,1.41.38,3.65,3.65,0,0,1,2,3.47c-.06,1.19-.12,2.43-.17,3.67a11.33,11.33,0,0,0-7.31,0C4.8,8.61,4.87,7.26,5,5.84ZM4.71,11A10.37,10.37,0,0,1,12,11c-.26,7.42-.16,13.93.25,16.64a.51.51,0,0,0,.39.41A111.75,111.75,0,0,0,28,29.28a3.65,3.65,0,0,1-.19,7.3h0c-13.67-.35-18.5-1.86-20.16-2.73h0l-.39-.29C6.1,32.61,4,30.86,4.71,11ZM42.06,47.58c-.65,0-3.26,0-11.23,0-9.8,0-22.7,0-25.12,0-1.14-5.53,1.2-11,2-12.58a.42.42,0,0,0,.16,0h0c2.46,1,7.91,2.24,20,2.55H28a4.65,4.65,0,0,0,.11-9.3,113.88,113.88,0,0,1-14.83-1.19,128.26,128.26,0,0,1-.2-16.4c.06-1.49.12-3,.2-4.4a4.64,4.64,0,0,0-.72-2.72,12.76,12.76,0,0,0,7.67-1A29.22,29.22,0,0,0,24.62,6.9l.84.66c3.66,2.37,4.32,4.09,4.48,5.32.19,1.45-.25,5.57-3.34,6a.52.52,0,0,0-.44.51.52.52,0,0,0,.46.49c.1,0,10.23,1,14.12,7.77.23.4.45.81.65,1.23a3.3,3.3,0,0,0-.79.57l-.29.29L40,29.45a3.43,3.43,0,0,0-4.86,4.85L40,39.09a.49.49,0,0,0,.36.15.47.47,0,0,0,.35-.15l2.92-2.91C44.31,41.05,43.73,45.72,42.06,47.58Z" fill="#231f20"/></g><g id="eeb9cbbe-0840-40f6-9f30-42e8a2d835df" data-name="LABELS"><text transform="translate(-0.16 55.01)" font-size="6" fill="#231f20" font-family="Roboto-Regular, Roboto">p<tspan x="3.37" y="0" letter-spacing="-0.01em">r</tspan><tspan x="5.34" y="0">egnant</tspan></text></g></svg>