<svg id="a5bd5ad6-28e4-46f0-84d7-d0e4d0e8ddab" data-name="ICONS" xmlns="http://www.w3.org/2000/svg" viewBox="0 0 50 50"><path d="M40.77,23.75a5,5,0,1,1-4-8,5.48,5.48,0,0,1,4,2,3.72,3.72,0,0,0,1.95-.26V4.54H10V37.28H23.55a.5.5,0,0,1,.47.33c.28.77.86,2.64.12,3.35a4.43,4.43,0,0,0-1.63,3.24,4,4,0,0,0,8,0A4.09,4.09,0,0,0,28.81,41c-.73-.67-.22-2.54,0-3.22h0a.5.5,0,0,1,.5-.5h0l13.42,0,0-13.32A4.15,4.15,0,0,0,40.77,23.75Z" fill="#fdd600"/><path d="M41.74,21.4s-2.64-1-3.45-.08A4,4,0,1,1,35.07,15a4.47,4.47,0,0,1,3.23,1.63c.71.75,2.58.17,3.35-.11a.51.51,0,0,0,.33-.47V2.29a.5.5,0,0,0-.5-.5H7.74a.5.5,0,0,0-.5.5V36a.5.5,0,0,0,.5.5h13.7a3.75,3.75,0,0,1,.26,2,5.43,5.43,0,0,0-1.94,4,5,5,0,1,0,8-4,4.15,4.15,0,0,1,.21-2l13.53,0a.39.39,0,0,0,.35-.15A.47.47,0,0,0,42,36l0-14.19A.5.5,0,0,0,41.74,21.4ZM41,35.53l-13.42,0h0a.5.5,0,0,0-.5.5h0c-.22.68-.73,2.55,0,3.22a4.09,4.09,0,0,1,1.73,3.22,4,4,0,0,1-8,0,4.43,4.43,0,0,1,1.63-3.24c.74-.71.16-2.58-.12-3.35a.5.5,0,0,0-.47-.33H8.24V2.79H41V15.7A3.72,3.72,0,0,1,39,16a5.48,5.48,0,0,0-4-2,5,5,0,1,0,4,8,4.15,4.15,0,0,1,2,.21Z" fill="#231f20"/></svg>