<?xml version="1.0" encoding="UTF-8"?>
<svg xmlns="http://www.w3.org/2000/svg" viewBox="0 0 50 50">
  <defs>
    <style>
      .cls-1 {
        fill: #1f1c1d;
      }

      .cls-2 {
        fill: #221f1f;
        font-family: Roboto-Regular, Roboto;
        font-size: 5px;
      }
    </style>
  </defs>
  <g id="Icon_Outline">
    <g>
      <path class="cls-1" d="M45.52,41.75c-1.52,0-2.75.97-2.75,2.17s1.23,2.18,2.75,2.18,2.75-.98,2.75-2.18-1.23-2.17-2.75-2.17ZM45.52,45.1c-.95,0-1.75-.54-1.75-1.18s.8-1.17,1.75-1.17,1.75.53,1.75,1.17-.8,1.18-1.75,1.18Z"/>
      <path class="cls-1" d="M44.59,37.82c0-1.82-1.92-3.3-4.27-3.3s-4.27,1.48-4.27,3.3,1.92,3.3,4.27,3.3,4.27-1.48,4.27-3.3ZM40.32,40.12c-1.8,0-3.27-1.03-3.27-2.3s1.47-2.3,3.27-2.3,3.27,1.03,3.27,2.3-1.47,2.3-3.27,2.3Z"/>
      <path class="cls-1" d="M41.45,28.45c-.08-.82-.44-1.56-1.05-2.19,2.45-1.45,3.92-3.89,3.92-6.51,0-.24-.01-.49-.04-.73-.22-2.03-1.29-3.85-3.03-5.12-1.67-1.2-3.75-1.77-5.89-1.6-1.77-5.49-7.44-8.97-13.65-8.32-5.5.58-9.99,4.27-11.31,9.24-.37-.01-.71,0-1.05.05-2.23.23-4.24,1.23-5.67,2.82-1.45,1.6-2.13,3.6-1.91,5.63.44,4.18,4.56,7.18,9.17,6.7.5-.05,1-.15,1.5-.29,2.3,3.6,6.46,5.76,10.94,5.76.49,0,.98-.03,1.47-.08,2.32-.24,4.51-1.05,6.39-2.36,1.06,1.4,3.07,2.18,5.18,1.96,3.03-.32,5.29-2.55,5.03-4.96ZM31.81,30.49c-.07-.12-.2-.21-.34-.24-.14-.03-.29,0-.4.09-1.82,1.38-4.01,2.24-6.33,2.48-4.77.5-9.35-1.67-11.65-5.53-.09-.16-.26-.24-.43-.24-.05,0-.1,0-.15.02-.56.18-1.12.3-1.67.36-4.07.42-7.7-2.18-8.08-5.81-.18-1.75.41-3.47,1.66-4.86,1.26-1.4,3.05-2.29,5.03-2.5.42-.04.84-.05,1.31-.03.24.03.46-.15.51-.38,1.09-4.76,5.32-8.33,10.55-8.88,5.88-.61,11.22,2.75,12.71,8.01.06.24.29.39.54.36l.16-.02c1.98-.21,3.9.29,5.43,1.39,1.51,1.1,2.44,2.67,2.62,4.42.28,2.69-1.27,5.27-3.96,6.58-.15.07-.26.22-.28.4-.02.17.06.34.2.44.5.39,1.12,1.05,1.22,2,.19,1.87-1.66,3.6-4.14,3.87-1.94.2-3.76-.57-4.51-1.93Z"/>
      <path class="cls-1" d="M22.85,24.09c-.49,0-.89.15-1.18.43-.29.29-.44.67-.44,1.13,0,.43.14.8.42,1.09.28.29.69.44,1.2.44s.92-.15,1.21-.44c.28-.29.43-.66.43-1.09s-.15-.82-.44-1.12-.7-.45-1.19-.45Z"/>
      <path class="cls-1" d="M23.11,10.66c-1.45,0-2.63.39-3.51,1.16-.89.77-1.35,1.83-1.36,3.16,0,.03.01.07.04.09s.06.04.09.04h2.66c.07,0,.12-.06.12-.12,0-.57.17-1.01.53-1.34.36-.33.84-.5,1.43-.5s1.09.17,1.4.5c.31.33.47.83.47,1.48,0,.49-.14.95-.42,1.37-.18.28-.63.77-1.33,1.45-.72.7-1.21,1.35-1.46,1.94-.25.59-.37,1.38-.37,2.37,0,.07.06.12.12.12h2.48c.07,0,.12-.05.12-.12.01-1.02.25-1.79.71-2.31l1.35-1.33c1.13-1.17,1.7-2.38,1.7-3.6,0-1.37-.43-2.45-1.27-3.21-.84-.76-2.02-1.15-3.51-1.15Z"/>
    </g>
  </g>
  <g id="Names">
    <text class="cls-2" transform="translate(0 53.76)"><tspan x="0" y="0">question-thought</tspan></text>
  </g>
</svg>