<svg xmlns="http://www.w3.org/2000/svg" viewBox="0 0 50 50"><g id="aa18b8f7-6ae1-4899-874e-d06ca495c43e" data-name="ICONS"><path d="M43.7.9a.52.52,0,0,0-.52-.45,23.93,23.93,0,0,0-8.49,2.06.46.46,0,0,0-.27.29L33,6.74l-.49-2.42A.49.49,0,0,0,32.26,4a.45.45,0,0,0-.45,0,28.31,28.31,0,0,0-7.26,6.13c-.55.66-1.1,1.37-1.66,2.17a.5.5,0,0,0-.09.24l-.4,4-.52-1.11a.51.51,0,0,0-.44-.29.47.47,0,0,0-.45.27,26.13,26.13,0,0,0-3,14.43q-1.36,1.77-2.68,3.57H9.37a.5.5,0,0,0-.5.5v3h-3a.5.5,0,0,0-.5.5V48.3a.5.5,0,0,0,.5.5h20.2a.5.5,0,0,0,.5-.5V37.46a.5.5,0,0,0-.5-.5h-3V34a.5.5,0,0,0-.5-.5H16.54c.68-.93,1.37-1.85,2.08-2.76A26.31,26.31,0,0,0,37.16,21a29.73,29.73,0,0,0,3.49-5.18.49.49,0,0,0,0-.47.48.48,0,0,0-.38-.26l-3-.4L42.57,11a.49.49,0,0,0,.19-.26A24.69,24.69,0,0,0,43.7.9ZM25.61,38V47.8H6.41V38h19.2Zm-3.46-3.51V37H9.87V34.45Zm19.7-24.21-6.14,4.4a.49.49,0,0,0-.2.52.51.51,0,0,0,.42.38l3.49.47a28.23,28.23,0,0,1-3,4.37,25.5,25.5,0,0,1-16.94,9.24c.46-.59.93-1.19,1.41-1.77A146,146,0,0,1,31.66,16a.5.5,0,1,0-.7-.71,150,150,0,0,0-10.87,12c-.4.49-.79,1-1.19,1.5a25.4,25.4,0,0,1,2.51-11.89l.85,1.82a.5.5,0,0,0,.95-.16l.57-5.73c.52-.74,1-1.39,1.53-2a27.64,27.64,0,0,1,6.4-5.56l.71,3.52a.5.5,0,0,0,1,.06l1.91-5.45a22.65,22.65,0,0,1,7.47-1.86A24.34,24.34,0,0,1,41.85,10.24Z"/></g><g id="ae0e0e1b-f7cc-41e6-9c3d-51afbd153e29" data-name="LABELS"><text transform="translate(-0.1 55.08)" font-size="6" font-family="Roboto-Regular, Roboto">quill-pen-ink</text></g></svg>