<svg xmlns="http://www.w3.org/2000/svg" viewBox="0 0 50 50"><g id="e3dd0d04-2fba-4120-8450-d86c8a33d3e7" data-name="ICONS"><path d="M39.06,36.56A3.53,3.53,0,0,1,42.58,33a3.47,3.47,0,0,1,1.25.24v-5H9.67v5.59a3.45,3.45,0,0,1,0,5.35v9.94H43.83V39.83a3.47,3.47,0,0,1-1.25.24A3.52,3.52,0,0,1,39.06,36.56Z" fill="#fdd600"/><path d="M19.4,16.33a8.65,8.65,0,1,0-3.07-6.6A8.65,8.65,0,0,0,19.4,16.33ZM25,2.07a7.65,7.65,0,1,1-7.65,7.66A7.67,7.67,0,0,1,25,2.07Z" fill="#231f20"/><path d="M47.09,36.56a4.51,4.51,0,0,0-4-4.47V26a.5.5,0,0,0-.5-.5H39.37A9.11,9.11,0,0,0,31.3,19.7H18.66a9.09,9.09,0,0,0-8.06,5.84H7.42a.5.5,0,0,0-.5.5v6.05a4.49,4.49,0,0,0,0,8.93v6.9a.5.5,0,0,0,.5.5H42.58a.5.5,0,0,0,.5-.5V41A4.5,4.5,0,0,0,47.09,36.56Zm-36.15,0A3.52,3.52,0,1,1,7.42,33,3.52,3.52,0,0,1,10.94,36.56ZM7.92,41a4.49,4.49,0,0,0,0-8.93V26.54H24.49V47.42H7.92ZM18.68,20.7H31.11a.57.57,0,0,0,.26,0,8.13,8.13,0,0,1,6.92,4.84H11.68A8.08,8.08,0,0,1,18.68,20.7ZM25.5,47.42V46h0V26.54H42.08v5.55a4.49,4.49,0,0,0,0,8.93v6.4ZM39.06,36.56a3.52,3.52,0,1,1,3.52,3.51A3.53,3.53,0,0,1,39.06,36.56Z" fill="#231f20"/></g><g id="f257b388-6253-4547-9e3a-9e46d0184e02" data-name="LABELS"><text transform="translate(-0.1 54.83)" font-size="6" fill="#231f20" font-family="Roboto-Regular, Roboto"><tspan letter-spacing="-0.01em">r</tspan><tspan x="1.97" y="0">eading</tspan></text></g></svg>