<svg xmlns="http://www.w3.org/2000/svg" viewBox="0 0 50 50"><g id="a03551ab-222f-4ec3-8bec-b340a989c215" data-name="ICONS"><path d="M26.33,17.38a.5.5,0,0,0-.2.55.49.49,0,0,0,.45.36l9.36.68a.51.51,0,0,0,.52-.35l2.62-9a.5.5,0,0,0-.77-.55l-1.46,1-3.5-5a4.1,4.1,0,0,0-3.14-1.75H18.08l-.12,0a4.11,4.11,0,0,0-2.5,1.89L10,14.36a.56.56,0,0,0,0,.38.52.52,0,0,0,.23.31L18.64,20a.45.45,0,0,0,.25.07.51.51,0,0,0,.43-.24l5.15-8.68L28,16.22Zm-7.62,1.5-7.57-4.44,5.19-8.73a3,3,0,0,1,1.82-1.42h1.59a.52.52,0,0,0,.06.13l4,5.82Zm6.14-8.95,0,0,0,0L20.93,4.29h9.25A3.08,3.08,0,0,1,32.53,5.6l3.79,5.45a.5.5,0,0,0,.69.12l.71-.49L35.61,18l-7.55-.55.93-.64a.54.54,0,0,0,.2-.33.45.45,0,0,0-.08-.37Z"/><path d="M47.91,29.66,43.49,20a.48.48,0,0,0-.28-.26.5.5,0,0,0-.38,0L34,23.82a.49.49,0,0,0-.24.66l4.18,9.18H31.7v-2a.51.51,0,0,0-.33-.48.52.52,0,0,0-.56.16l-5.9,7.3a.5.5,0,0,0,0,.63l5.9,7.3a.5.5,0,0,0,.56.16.5.5,0,0,0,.33-.47V44.44h6.13a4.09,4.09,0,0,0,3.23-1.58l1.46-2.11L48,32.89a.37.37,0,0,0,.05-.11A4.06,4.06,0,0,0,47.91,29.66Zm-7.65,12.6a3.09,3.09,0,0,1-2.43,1.18H31.2a.5.5,0,0,0-.5.5v.86l-4.76-5.88L30.7,33v1.13a.5.5,0,0,0,.5.5H45.53Zm6.86-9.88-.91,1.31a.35.35,0,0,0-.14,0H39l-4.17-9.15,8-3.68L47,30.07A3.08,3.08,0,0,1,47.12,32.38Z"/><path d="M21.2,33.7l-10.09,0,2.58-5.62,1.85.84a.5.5,0,0,0,.66-.67L12,19.82a.51.51,0,0,0-.58-.26L2.35,21.89a.49.49,0,0,0-.37.44.48.48,0,0,0,.29.5l1.61.74L1.33,29.15a4.08,4.08,0,0,0,.1,3.59L7.61,43.18l.08.1a4.11,4.11,0,0,0,2.88,1.18h0l10.66,0h0a.53.53,0,0,0,.36-.15.51.51,0,0,0,.14-.36l0-9.77A.5.5,0,0,0,21.2,33.7ZM2.3,32.26a3.1,3.1,0,0,1-.06-2.69l2.76-6a.5.5,0,0,0,0-.38.53.53,0,0,0-.27-.28L4,22.51l7.33-1.88,3.37,6.78-1-.47a.5.5,0,0,0-.67.24L9.89,34h0L7,40.22,3.6,34.44Zm8.28,11.2a3.2,3.2,0,0,1-2.14-.85l-.82-1.38s.07-.06.09-.1l3-6.45,10,0,0,8.78Z"/></g><g id="a8ff03b1-8ea8-4759-bac9-afb72cb0f33b" data-name="LABELS"><text transform="translate(0.39 54.98)" font-size="6" font-family="Roboto-Regular, Roboto"><tspan letter-spacing="-0.01em">r</tspan><tspan x="1.97" y="0">ec</tspan><tspan x="8.29" y="0" letter-spacing="-0.01em">y</tspan><tspan x="11.09" y="0">cle</tspan></text></g></svg>