<?xml version="1.0" encoding="UTF-8"?><svg xmlns="http://www.w3.org/2000/svg" viewBox="0 0 50 50"><g id="uuid-eb2fad40-598a-4a21-abc4-c8d23ebbff5f"><g><path d="M48.38,.5H20.65c-.28,0-.5,.22-.5,.5V9.5H1.13c-.28,0-.5,.22-.5,.5V48.5c0,.28,.22,.5,.5,.5H48.38c.28,0,.5-.22,.5-.5V1c0-.28-.22-.5-.5-.5ZM20.15,48H1.63V10.5H20.15V48Zm27.73,0H21.15V1.5h26.73V48Z"/><path d="M44.04,7.23h-7.29c-.28,0-.5,.22-.5,.5v7.29c0,.28,.22,.5,.5,.5h7.29c.28,0,.5-.22,.5-.5V7.73c0-.28-.22-.5-.5-.5Zm-.5,7.29h-6.29v-6.29h6.29v6.29Z"/><path d="M44.04,20.61h-7.29c-.28,0-.5,.22-.5,.5v7.29c0,.28,.22,.5,.5,.5h7.29c.28,0,.5-.22,.5-.5v-7.29c0-.28-.22-.5-.5-.5Zm-.5,7.29h-6.29v-6.29h6.29v6.29Z"/><path d="M44.04,33.98h-7.29c-.28,0-.5,.22-.5,.5v7.29c0,.28,.22,.5,.5,.5h7.29c.28,0,.5-.22,.5-.5v-7.29c0-.28-.22-.5-.5-.5Zm-.5,7.29h-6.29v-6.29h6.29v6.29Z"/><path d="M32.27,7.23h-7.29c-.28,0-.5,.22-.5,.5v7.29c0,.28,.22,.5,.5,.5h7.29c.28,0,.5-.22,.5-.5V7.73c0-.28-.22-.5-.5-.5Zm-.5,7.29h-6.29v-6.29h6.29v6.29Z"/><path d="M32.27,20.61h-7.29c-.28,0-.5,.22-.5,.5v7.29c0,.28,.22,.5,.5,.5h7.29c.28,0,.5-.22,.5-.5v-7.29c0-.28-.22-.5-.5-.5Zm-.5,7.29h-6.29v-6.29h6.29v6.29Z"/><path d="M32.27,33.98h-7.29c-.28,0-.5,.22-.5,.5v7.29c0,.28,.22,.5,.5,.5h7.29c.28,0,.5-.22,.5-.5v-7.29c0-.28-.22-.5-.5-.5Zm-.5,7.29h-6.29v-6.29h6.29v6.29Z"/><path d="M15.12,31.03H6.65c-1.26,0-2.29,1.03-2.29,2.29v.34c0,1.26,1.03,2.29,2.29,2.29H15.12c1.26,0,2.29-1.03,2.29-2.29v-.34c0-1.26-1.03-2.29-2.29-2.29Zm1.29,2.63c0,.71-.58,1.29-1.29,1.29H6.65c-.71,0-1.29-.58-1.29-1.29v-.34c0-.71,.58-1.29,1.29-1.29H15.12c.71,0,1.29,.58,1.29,1.29v.34Z"/><path d="M15.12,14.07H6.65c-1.26,0-2.29,1.03-2.29,2.29v.34c0,1.26,1.03,2.29,2.29,2.29H15.12c1.26,0,2.29-1.03,2.29-2.29v-.34c0-1.26-1.03-2.29-2.29-2.29Zm1.29,2.63c0,.71-.58,1.29-1.29,1.29H6.65c-.71,0-1.29-.58-1.29-1.29v-.34c0-.71,.58-1.29,1.29-1.29H15.12c.71,0,1.29,.58,1.29,1.29v.34Z"/><path d="M15.12,22.55H6.65c-1.26,0-2.29,1.03-2.29,2.29v.34c0,1.26,1.03,2.29,2.29,2.29H15.12c1.26,0,2.29-1.03,2.29-2.29v-.34c0-1.26-1.03-2.29-2.29-2.29Zm1.29,2.64c0,.71-.58,1.29-1.29,1.29H6.65c-.71,0-1.29-.58-1.29-1.29v-.34c0-.71,.58-1.29,1.29-1.29H15.12c.71,0,1.29,.58,1.29,1.29v.34Z"/><path d="M15.12,39.51H6.65c-1.26,0-2.29,1.03-2.29,2.29v.34c0,1.26,1.03,2.29,2.29,2.29H15.12c1.26,0,2.29-1.03,2.29-2.29v-.34c0-1.26-1.03-2.29-2.29-2.29Zm1.29,2.63c0,.71-.58,1.29-1.29,1.29H6.65c-.71,0-1.29-.58-1.29-1.29v-.34c0-.71,.58-1.29,1.29-1.29H15.12c.71,0,1.29,.58,1.29,1.29v.34Z"/></g></g><g id="uuid-de708194-8238-4f1c-b8fb-053bf85f5408"><text transform="translate(.44 54.92)" font-family="Roboto-Regular, Roboto" font-size="6"><tspan x="0" y="0" letter-spacing="0em">r</tspan><tspan x="1.97" y="0">esidence-hall</tspan></text></g></svg>