<svg xmlns="http://www.w3.org/2000/svg" viewBox="0 0 50 50"><g id="bf29b3b1-9218-4569-8c48-53b66fb42a6f" data-name="ICONS"><path d="M46,44.84,8.39,1.05A.51.51,0,0,0,7.68,1L4,4.15a.51.51,0,0,0-.17.34A.48.48,0,0,0,4,4.85l37.65,43.8a.51.51,0,0,0,.71.05L46,45.55a.51.51,0,0,0,.17-.35A.48.48,0,0,0,46,44.84Zm-4,2.78-1.69-2,.42-.36.61-.52h0l.85-.73a.5.5,0,0,0-.65-.75l-1.17,1-.36.31h0l-.35.3-2.33-2.71a.53.53,0,0,0,.1-.06l.68-.58a.5.5,0,1,0-.65-.76l-.68.58a.61.61,0,0,0-.07.1l-2.19-2.54.11-.06.68-.59a.49.49,0,0,0,0-.7.51.51,0,0,0-.71-.06l-.68.59L34,38.2l-2.18-2.54a.53.53,0,0,0,.1-.06l.68-.58a.51.51,0,0,0,.05-.71.49.49,0,0,0-.7-.05l-.68.58-.08.1L29,32.4a.33.33,0,0,0,.1-.06l.68-.59a.49.49,0,0,0,.06-.7.51.51,0,0,0-.71-.05l-.68.58a.36.36,0,0,0-.07.1l-2.19-2.54.11-.07.68-.58a.49.49,0,0,0,0-.7.51.51,0,0,0-.71-.06l-.68.59a.31.31,0,0,0-.07.09l-2.18-2.54a.53.53,0,0,0,.1-.06l.68-.58a.51.51,0,0,0,.05-.71.49.49,0,0,0-.7-.05l-.68.58-.08.1-2.18-2.54.1-.06.68-.59a.49.49,0,0,0,.06-.7.51.51,0,0,0-.71-.06l-.68.59a.31.31,0,0,0-.07.09l-2.19-2.54a.39.39,0,0,0,.11-.06l.68-.58a.5.5,0,0,0-.66-.76l-.68.58a.61.61,0,0,0-.07.1l-2.18-2.54L15,16l.68-.59a.5.5,0,0,0-.65-.76l-.68.59-.08.09-2.18-2.54a.21.21,0,0,0,.1-.06l.68-.58a.5.5,0,1,0-.65-.76l-.68.59a.31.31,0,0,0-.07.09L9.31,9.55l.11-.06.68-.59a.49.49,0,0,0,.05-.7.51.51,0,0,0-.71,0l-.68.58a.36.36,0,0,0-.07.1L6.75,6.57,8.69,4.91A.5.5,0,1,0,8,4.15L6.1,5.82,5,4.58,8,2.08l37,43Z"/></g><g id="fdf384f4-eecc-4ac4-85c7-948f82bac28b" data-name="LABELS"><text transform="translate(0.21 55.07)" font-size="6" font-family="Roboto-Regular, Roboto">ruler</text></g></svg>