<svg id="bcda619a-cabc-4cd0-91c5-b0830a729283" data-name="ICONS" xmlns="http://www.w3.org/2000/svg" viewBox="0 0 50 50"><path d="M39.94,14.33H35.81V9.28a.5.5,0,0,0-.5-.5h-5.4V1.52h2.82a.5.5,0,0,0,.5-.5.5.5,0,0,0-.5-.5H12.07a.5.5,0,0,0-.5.5.5.5,0,0,0,.5.5H28.91V8.78h-5.4a.51.51,0,0,0-.5.5v5.05H18.89a.5.5,0,0,0-.5.5V48.48a.5.5,0,0,0,.5.5h21a.5.5,0,0,0,.5-.5V14.83A.51.51,0,0,0,39.94,14.33ZM24,9.78h10.8v4.55H24ZM39.44,48h-20V15.33h20Z"/><path d="M14.74,8.77a1.76,1.76,0,0,0-.12-.2L12.5,4.9a.49.49,0,0,0-.86,0L9.53,8.55a2.55,2.55,0,0,0-.14.24,3,3,0,0,0-.33,1.36,3,3,0,1,0,6,0,3,3,0,0,0-.33-1.36Zm-2.67,3.39a2,2,0,0,1-2-2,2,2,0,0,1,.23-.91,1.47,1.47,0,0,1,.09-.17l1.69-2.92,1.7,2.94a.88.88,0,0,1,.07.13h0v0a2,2,0,0,1-1.79,2.91Z"/><path d="M26.56,34h-3v.75h3.48V34.5A.5.5,0,0,0,26.56,34Z" fill="none"/><path d="M32.26,29.31h.25V25.83h-.75v3A.5.5,0,0,0,32.26,29.31Z" fill="none"/><path d="M36,34H32.26a.5.5,0,0,0-.5.5v3.74h-4V39h4.7V35.25a.5.5,0,0,1,.5-.5h3.73V30.06H36Z" fill="none"/><path d="M36.49,28.31H32.76V24.58a.5.5,0,0,0-.5-.5h-5.7a.5.5,0,0,0-.5.5v3.73H22.33a.5.5,0,0,0-.5.5V34.5a.5.5,0,0,0,.5.5h3.73v3.74a.5.5,0,0,0,.5.5h5.7a.5.5,0,0,0,.5-.5V35h3.73a.5.5,0,0,0,.5-.5V28.81A.5.5,0,0,0,36.49,28.31ZM36,34H32.26a.5.5,0,0,0-.5.5v3.74h-4.7V34.5a.5.5,0,0,0-.5-.5H22.83V29.31h3.73a.5.5,0,0,0,.5-.5V25.08h4.7v3.73a.5.5,0,0,0,.5.5H36Z"/></svg>