<svg xmlns="http://www.w3.org/2000/svg" viewBox="0 0 50 50"><g id="bd407aa2-5b2d-4fe4-91fa-7cea8f820642" data-name="ICONS"><path d="M48.54,23.26a.52.52,0,0,0-.35-.23L32.38,20.69l-1.88-.28c.49-.74,1-1.48,1.46-2.22L40.12,5.82a.46.46,0,0,0,.06-.41.47.47,0,0,0-.28-.32c-4.7-2-8.44,2-8.51,2.11L22.83,19.28l-5.7-.84a8.07,8.07,0,0,0-5.87-6.28C7,10.89,2.72,12.79,1.64,16.4S3.11,24,7.33,25.24a8.91,8.91,0,0,0,5,.07l5.77.66c-1.31,1.84-2.38,3.36-3,4.28l-.56.79a8.94,8.94,0,0,0-3.26,3.74c-1.87,4-.62,8.54,2.79,10.14a5.93,5.93,0,0,0,2.53.56,8.1,8.1,0,0,0,7-4.9A8,8,0,0,0,22.83,32l3.39-5.12,15.16,1.72c.06,0,5.57-.08,7.21-4.94A.52.52,0,0,0,48.54,23.26Zm-36.24,1h-.05l-.15,0a7.81,7.81,0,0,1-4.49,0c-3.69-1.11-5.94-4.52-5-7.6S7.28,12,11,13.12a7,7,0,0,1,5.2,5.64h0v.14a.51.51,0,0,0,.42.46l5.57.82L18.72,25Zm9.53,8.1a7,7,0,0,1,.84,7.75C21,43.65,17.34,45.38,14.43,44s-3.95-5.32-2.31-8.81a7.79,7.79,0,0,1,3-3.37.5.5,0,0,0,.15-.14l.61-.87,3.52-5,4.1-5.75L32.17,7.83c.13-.15,3-3.25,6.77-2L31.12,17.64c-.62,1-1.26,1.92-1.89,2.87h0c-1.31,2-2.58,3.9-3.68,5.58h0c-2,3.08-3.54,5.36-3.77,5.7A.5.5,0,0,0,21.83,32.41Zm19.61-4.78L26.83,26l3.05-4.63,2.35.35,15.19,2.25C45.8,27.54,41.57,27.62,41.44,27.63Z"/><path d="M10.46,15.88A3.74,3.74,0,0,0,7.9,16a2.79,2.79,0,0,0-1.62,1.76,2.82,2.82,0,0,0,.38,2.36,3.81,3.81,0,0,0,2.07,1.51,4.09,4.09,0,0,0,1.14.17,3.61,3.61,0,0,0,1.42-.29,2.74,2.74,0,0,0,1.24-4.12A3.76,3.76,0,0,0,10.46,15.88ZM12,19.46a1.79,1.79,0,0,1-1.06,1.13,2.85,2.85,0,0,1-3.39-1A1.81,1.81,0,0,1,7.24,18,1.84,1.84,0,0,1,8.3,16.91a2.69,2.69,0,0,1,1-.2,2.79,2.79,0,0,1,.85.13,2.73,2.73,0,0,1,1.52,1.09A1.81,1.81,0,0,1,12,19.46Z"/><path d="M24.49,24.64a1.08,1.08,0,1,0-.88-2,1.08,1.08,0,1,0,.88,2Z"/><path d="M19,34.3a2.78,2.78,0,0,0-2.14-.08A3.82,3.82,0,0,0,14.67,39a2.77,2.77,0,0,0,1.42,1.58,2.66,2.66,0,0,0,1.14.25,3,3,0,0,0,1-.18,3.66,3.66,0,0,0,2-1.92,3.71,3.71,0,0,0,.17-2.82A2.73,2.73,0,0,0,19,34.3Zm.34,4a2.73,2.73,0,0,1-1.47,1.41,1.8,1.8,0,0,1-1.39,0,1.76,1.76,0,0,1-.9-1,2.68,2.68,0,0,1,.14-2,2.65,2.65,0,0,1,1.48-1.41,1.92,1.92,0,0,1,.66-.12,1.8,1.8,0,0,1,.72.16,1.74,1.74,0,0,1,.89,1A2.72,2.72,0,0,1,19.37,38.27Z"/></g><g id="ae93b286-3d2e-4020-8945-57221f12d2d6" data-name="LABELS"><text transform="translate(0.14 54.43)" font-size="6" font-family="Roboto-Regular, Roboto">scissors</text></g></svg>