<?xml version="1.0" encoding="UTF-8"?>
<svg xmlns="http://www.w3.org/2000/svg" viewBox="0 0 50 50">
  <defs>
    <style>
      .cls-1 {
        fill: #1f1c1d;
      }

      .cls-2 {
        fill: #ffcd00;
      }

      .cls-3 {
        fill: #221f1f;
        font-family: Roboto-Regular, Roboto;
        font-size: 5px;
      }
    </style>
  </defs>
  <g id="Gold_Offset">
    <path class="cls-2" d="M43.97,18.66c-2.91-5.93-8.79-9.62-15.33-9.63H12.46c.04,6.63,5.45,12.01,12.09,12.01,5.07,0,9.21,4.14,9.21,9.21,0,.27,0,.54-.02.8-.31,4.28-4.08,7.64-8.58,7.64h-4.22l-.09-.38c-.41-1.7-1.16-3.12-2.11-4.02-1.42-1.34-3.27-2.09-5.21-2.11h-.11c-.23,0-.46,0-.69.03l-.29.03v.29c-.09,2.25.77,4.34,2.41,5.88,1.41,1.33,3.24,2.08,5.17,2.11l-.06,1c-1.91,0-3.75.71-5.17,1.98-1.67,1.51-2.58,3.57-2.56,5.82v.29s.29.03.29.03c.27.03.54.05.82.05h.1c1.9,0,3.72-.7,5.15-1.98.98-.88,1.8-2.38,2.23-4.1l.1-.38h8.78c5-.3,9.59-2.77,12.6-6.77,3.93-5.1,4.57-11.92,1.68-17.81Z"/>
  </g>
  <g id="Icon_Outline">
    <g>
      <path class="cls-1" d="M43.87,17.2c-3.08-6.27-9.3-10.18-16.23-10.19H10.96c-.28,0-.5.22-.5.5v.43c0,.95.11,1.88.3,2.78-.16,0-.44,0-.78,0-.67,0-2.07.02-2.37-.06-1.62-.34-2.66-1.93-2.32-3.55.29-1.38,1.52-2.38,2.93-2.39h13.03c2.16,0,3.91-1.76,3.91-3.92,0-.28-.22-.5-.5-.5h0c-.28,0-.5.22-.5.5,0,1.61-1.31,2.92-2.92,2.92h-2.27c.81-.72,1.33-1.75,1.33-2.92,0-.28-.22-.5-.5-.5h0c-.28,0-.5.22-.5.5,0,1.61-1.31,2.92-2.92,2.92h-8.17c-1.88,0-3.52,1.34-3.91,3.18-.45,2.16.94,4.28,3.05,4.72.24.07.76.09,1.7.09.27,0,.58,0,.92,0,.37,0,.67,0,.81,0,.08,0,.15,0,.21-.03.69,2.3,2,4.32,3.72,5.9-1.69.43-2.95,1.96-2.96,3.78,0,.28.22.5.5.5h0c.28,0,.5-.22.5-.5,0-1.61,1.31-2.91,2.92-2.92.03,0,.05-.01.07-.01.42.31.85.6,1.3.86-1.47.56-2.53,1.98-2.53,3.65,0,.28.22.5.5.5h0c.28,0,.5-.22.5-.5,0-1.61,1.31-2.91,2.92-2.92.02,0,.04,0,.06-.01,1.55.65,3.25,1.01,5.03,1.01,4.53,0,8.21,3.69,8.21,8.22,0,.24,0,.47-.02.71-.28,3.76-3.6,6.71-7.58,6.71h-3.38s-.04,0-.06.01c-.42-1.55-1.16-3.08-2.28-4.14-1.6-1.51-3.69-2.36-5.89-2.38-.3,0-.6,0-.9.03l-.73.07c-.25.02-.45.23-.46.48l-.02.73c-.09,2.54.88,4.9,2.73,6.64.87.82,1.88,1.45,2.98,1.85-1.1.38-2.13.98-3.02,1.78-1.89,1.7-2.91,4.03-2.89,6.57v.73c0,.25.2.46.45.49l.73.08c.31.04.61.05.92.06.04,0,.07,0,.11,0,2.14,0,4.21-.79,5.82-2.24,1.18-1.07,1.97-2.64,2.43-4.22h8.07c5.29-.32,10.15-2.93,13.34-7.16,4.16-5.4,4.84-12.63,1.78-18.86ZM17.58,46.7c-1.43,1.28-3.25,1.99-5.15,1.99-.03,0-.06,0-.09,0-.27,0-.54-.02-.81-.05l-.29-.03v-.29c-.03-2.25.88-4.32,2.55-5.82,1.43-1.28,3.26-1.99,5.17-1.99.03,0,.05,0,.08,0h.37c.27.02.52.02.73.03-.11,2.09-.97,4.74-2.56,6.17ZM19.83,39.5c-.12,0-.26,0-.39,0h-.43c-1.92-.03-3.75-.78-5.16-2.11-1.63-1.55-2.49-3.63-2.41-5.88v-.29s.3-.03.3-.03c.27-.02.53-.04.8-.03,1.94.02,3.79.77,5.21,2.11,1.54,1.46,2.35,4.12,2.41,6.23-.1,0-.21,0-.32,0ZM23.54,20.03c-6.64,0-12.05-5.38-12.09-12.01h16.18c.11,0,.21,0,.32.01.3,1.79.34,3.81.11,5.84-.27,2.42-.92,4.73-1.82,6.57-.86-.26-1.76-.41-2.7-.41ZM27.18,20.79c.94-1.94,1.59-4.28,1.88-6.81.23-2.05.19-4.09-.09-5.91,5.34.42,10.11,3.3,13.01,7.83-.81,2.25-2.63,4.77-5.03,6.92-1.51,1.36-3.15,2.48-4.77,3.27-.87-2.38-2.69-4.3-5-5.3ZM28.71,42.22h-7.8c.15-.77.23-1.52.23-2.18h0c.02-.72-.05-1.53-.21-2.37h3.22c2.48,0,4.73-1.02,6.31-2.66,1.43.86,3.08,1.61,4.82,2.17,1.2.38,2.4.67,3.59.85-2.82,2.46-6.38,3.96-10.16,4.18ZM41.29,35.46c-.46.61-.96,1.17-1.49,1.7-1.38-.16-2.79-.47-4.2-.92-1.61-.52-3.14-1.2-4.46-1.99.91-1.2,1.49-2.64,1.6-4.21.02-.26.03-.53.02-.79,0-.75-.1-1.48-.27-2.18,1.74-.83,3.51-2.03,5.14-3.49,2.25-2.03,4.03-4.38,5-6.58.12.22.24.43.35.66,2.89,5.88,2.25,12.71-1.68,17.81Z"/>
      <path class="cls-1" d="M18.69,10.07c-.64,0-1.16.52-1.16,1.16s.52,1.16,1.16,1.16,1.16-.52,1.16-1.16-.52-1.16-1.16-1.16Z"/>
    </g>
  </g>
  <g id="Names">
    <text class="cls-3" transform="translate(-.01 53.8)"><tspan x="0" y="0">shellfish</tspan></text>
  </g>
</svg>