<svg xmlns="http://www.w3.org/2000/svg" viewBox="0 0 50 50"><g id="ad61fe30-ad8c-432b-89b9-9d771d0f77d2" data-name="ICONS"><path d="M48.63,25.68a12.3,12.3,0,0,1,.87,4.55,12.16,12.16,0,0,1-.25,2.37l0,.16a5.81,5.81,0,0,1-.61,1.9c-.2.32-.51.45-1.09.59a16.72,16.72,0,0,1-3.14.37c-.49,0-1,0-1.48.05h-.1c-.28,0-34,.49-36.26.39A4.11,4.11,0,0,1,5,35.65a4.24,4.24,0,0,1-2.19-4.14,4.43,4.43,0,0,1,1.61-3,10.64,10.64,0,0,1,1.28-1,31.83,31.83,0,0,1,6.56-3.09c2.47-.91,5.06-1.63,7.56-2.33l.9-.25h.13a.48.48,0,0,1,.4.21c.22.37,1.37,2.24,2.27,2.62a2.22,2.22,0,0,0,1.39-.07,2.09,2.09,0,0,1,1-.11c.15.05.36.32.55.56a2.47,2.47,0,0,0,1.21,1A2.25,2.25,0,0,0,29,25.81a2,2,0,0,1,.89-.23,2,2,0,0,1,.65.51,2.37,2.37,0,0,0,1.3.84,2.36,2.36,0,0,0,1.41-.42,2.12,2.12,0,0,1,.84-.33,1.94,1.94,0,0,1,.71.43,2.51,2.51,0,0,0,1.39.68,2.63,2.63,0,0,0,1.35-.6,1.91,1.91,0,0,1,.79-.42c.19-.06.49.18.76.34a2.52,2.52,0,0,0,1.45.51,2.41,2.41,0,0,0,1.28-.76,2,2,0,0,1,.73-.51,1.84,1.84,0,0,1,.8.26,2.46,2.46,0,0,0,1.5.32c.24-.05.7-.23,1.83-1.22A1.18,1.18,0,0,1,47.79,25,1.2,1.2,0,0,1,48.63,25.68Z" fill="#fdd600"/><path d="M48.29,24a13.13,13.13,0,0,1,1,4.95A12.78,12.78,0,0,1,49,31.56l0,.15a6.81,6.81,0,0,1-.74,2.23,2.52,2.52,0,0,1-1.7,1,17.39,17.39,0,0,1-3.33.4l-1.5.05h-.11c-.25,0-28.47.41-35.08.41l-1.24,0a5,5,0,0,1-2-.52A5.25,5.25,0,0,1,.51,30.18a5.44,5.44,0,0,1,1.94-3.7,12.72,12.72,0,0,1,1.4-1.06,33,33,0,0,1,6.76-3.19c2.52-.92,5.12-1.65,7.64-2.35l.9-.25a1.49,1.49,0,0,1,1.56.53c6.44-4.52,9.3-6.39,10.21-6.23s.95,1.12,1,1.72l0,.2a8.87,8.87,0,0,0,.89,2.69c1,1.67,3,1.76,4.16,1.67a3.43,3.43,0,0,0,2.39-1.66,8.08,8.08,0,0,0,.45-.76c.62-1.12,1.66-3,3.27-2.14a4.4,4.4,0,0,1,1.59,1.93,16.86,16.86,0,0,1,1.14,2.67c.14.41.27.83.38,1.25a9,9,0,0,1,.28,1.2l.22,0A2.15,2.15,0,0,1,48.29,24Zm0,4.95a12.3,12.3,0,0,0-.87-4.55,1.2,1.2,0,0,0-.84-.73,1.18,1.18,0,0,0-1.08.26c-1.13,1-1.59,1.17-1.83,1.22a2.46,2.46,0,0,1-1.5-.32,1.84,1.84,0,0,0-.8-.26,2,2,0,0,0-.73.51,2.41,2.41,0,0,1-1.28.76,2.52,2.52,0,0,1-1.45-.51c-.27-.16-.57-.4-.76-.34a1.91,1.91,0,0,0-.79.42A2.63,2.63,0,0,1,35,26a2.51,2.51,0,0,1-1.39-.68,1.94,1.94,0,0,0-.71-.43,2.12,2.12,0,0,0-.84.33,2.36,2.36,0,0,1-1.41.42,2.37,2.37,0,0,1-1.3-.84,2,2,0,0,0-.65-.51,2,2,0,0,0-.89.23,2.25,2.25,0,0,1-1.43.25,2.47,2.47,0,0,1-1.21-1c-.19-.24-.4-.51-.55-.56a2.09,2.09,0,0,0-1,.11,2.22,2.22,0,0,1-1.39.07c-.9-.38-2-2.25-2.27-2.62a.48.48,0,0,0-.4-.21h-.13l-.9.25c-2.5.7-5.09,1.42-7.56,2.33A31.83,31.83,0,0,0,4.4,26.26a10.64,10.64,0,0,0-1.28,1,4.43,4.43,0,0,0-1.61,3A4.24,4.24,0,0,0,3.7,34.4a4.11,4.11,0,0,0,1.58.41c2.29.1,36-.38,36.26-.39h.1c.5,0,1,0,1.48-.05A16.72,16.72,0,0,0,46.26,34c.58-.14.89-.27,1.09-.59a5.81,5.81,0,0,0,.61-1.9l0-.16A12.16,12.16,0,0,0,48.25,29Zm-2.69-6.19a7.07,7.07,0,0,0-.23-1c-.12-.45-.24-.84-.37-1.22a17.47,17.47,0,0,0-1.08-2.53,3.67,3.67,0,0,0-1.18-1.52c-.62-.33-1.14.32-1.92,1.74a9.65,9.65,0,0,1-.53.88,4.57,4.57,0,0,1-3.11,2.06c-2.3.19-4.16-.6-5.1-2.16a9.79,9.79,0,0,1-1-3c0-.06,0-.15,0-.24a2.76,2.76,0,0,0-.27-.92,18.06,18.06,0,0,0-3.8,2.2l1.81,1.81a.5.5,0,0,1-.35.85.51.51,0,0,1-.36-.15l-1.95-1.95-1.17.8,2,2a.51.51,0,0,1,0,.71.52.52,0,0,1-.71,0L24.08,19h0c-1,.7-2,1.39-2.8,1.95a5,5,0,0,0,1.33,1.5,1.79,1.79,0,0,0,.76-.11,2.71,2.71,0,0,1,1.55-.09,2.44,2.44,0,0,1,1,.9c.23.3.46.6.68.66a1.75,1.75,0,0,0,.8-.21,2.64,2.64,0,0,1,1.46-.28,2.47,2.47,0,0,1,1.16.79c.24.24.52.52.73.55s.5-.15.79-.31a2.56,2.56,0,0,1,1.4-.45,2.44,2.44,0,0,1,1.25.65A2,2,0,0,0,35,25a2,2,0,0,0,.75-.41A2.51,2.51,0,0,1,37.07,24a2.6,2.6,0,0,1,1.32.49,1.89,1.89,0,0,0,.83.36,1.79,1.79,0,0,0,.7-.49,2.52,2.52,0,0,1,1.25-.77,2.44,2.44,0,0,1,1.38.34,1.94,1.94,0,0,0,.87.26,5,5,0,0,0,1.38-1A2.19,2.19,0,0,1,45.56,22.79Z" fill="#231f20"/><path d="M46.84,27a.5.5,0,0,1,.09.7.53.53,0,0,1-.4.19.52.52,0,0,1-.31-.1l-1.48-1.16a.5.5,0,1,1,.61-.79Z" fill="#231f20"/><path d="M43.6,29a.5.5,0,0,1-.37.83.49.49,0,0,1-.37-.16l-1.82-2a.5.5,0,0,1,0-.71.5.5,0,0,1,.7,0Z" fill="#231f20"/><path d="M38.75,30.45a.51.51,0,0,1-.23.67.54.54,0,0,1-.22.05.52.52,0,0,1-.45-.28L36.45,28a.5.5,0,1,1,.89-.44Z" fill="#231f20"/><path d="M32.78,27.57v3.77a.5.5,0,1,1-1,0V27.57a.5.5,0,0,1,1,0Z" fill="#231f20"/><path d="M28.16,26.34a.5.5,0,0,1,.23.67L27,29.86a.51.51,0,0,1-.45.28.46.46,0,0,1-.22-.06.5.5,0,0,1-.23-.67l1.41-2.84A.5.5,0,0,1,28.16,26.34Z" fill="#231f20"/><path d="M24.51,25.17a.48.48,0,0,1,0,.7l-1.82,2a.49.49,0,0,1-.37.16A.46.46,0,0,1,22,27.9a.5.5,0,0,1,0-.71l1.83-2A.49.49,0,0,1,24.51,25.17Z" fill="#231f20"/><path d="M21.24,23.73a.5.5,0,0,1-.08.7l-1.49,1.16a.51.51,0,0,1-.31.11.49.49,0,0,1-.39-.2.5.5,0,0,1,.08-.7l1.49-1.16A.5.5,0,0,1,21.24,23.73Z" fill="#231f20"/></g><g id="a7e89a91-6930-48aa-8500-c52c7e2f5702" data-name="LABELS"><text transform="translate(0.44 54.93)" font-size="6" fill="#231f20" font-family="Roboto-Regular, Roboto">shoe-c<tspan x="17.79" y="0" letter-spacing="-0.01em">o</tspan><tspan x="21.17" y="0" letter-spacing="-0.01em">v</tspan><tspan x="24.04" y="0">er</tspan></text></g></svg>