<svg xmlns="http://www.w3.org/2000/svg" viewBox="0 0 50 50"><g id="a3339ff8-ce2e-49a3-b559-b3280001953c" data-name="ICONS"><path d="M42.31,14.11a.5.5,0,0,0-.5-.43H39.43l3-5.83a.51.51,0,0,0-.22-.68L29.33.4a.51.51,0,0,0-.68.21L24.54,8.48H22l-1.34-6a.47.47,0,0,0-.22-.31A.48.48,0,0,0,20,2.11L9,4.58a.5.5,0,0,0-.38.59l1.9,8.52H7.13a.51.51,0,0,0-.5.45L2.8,48.6a.51.51,0,0,0,.12.39.53.53,0,0,0,.38.16h43a.48.48,0,0,0,.37-.17.46.46,0,0,0,.12-.39Zm-38.46,34L7.57,14.69h33.8L45.7,48.15ZM19.77,3.2l1.17,5.28H19.12a.5.5,0,0,0-.5.5v4.71H11.53L9.69,5.45ZM41.36,7.83,38.3,13.68H30.94V9a.5.5,0,0,0-.5-.5H25.67l3.63-7ZM29.94,9.48v4.2H19.62V9.48Z"/><path d="M32,17.9a2.5,2.5,0,0,0-.5,4.94v9.31A6.76,6.76,0,0,1,29.27,37a6.51,6.51,0,0,1-4.78,1.8,6.75,6.75,0,0,1-6.38-6.6V22.84a2.5,2.5,0,1,0-1,0v9.34a7.76,7.76,0,0,0,7.34,7.59h.32A7.56,7.56,0,0,0,30,37.7a7.82,7.82,0,0,0,2.5-5.53V22.84A2.49,2.49,0,0,0,32,17.9ZM16.11,20.39a1.5,1.5,0,1,1,1.5,1.5A1.5,1.5,0,0,1,16.11,20.39ZM32,21.89a1.5,1.5,0,1,1,1.5-1.5A1.5,1.5,0,0,1,32,21.89Z"/></g><g id="f9752059-6ad6-47e8-93de-91863e2ae53e" data-name="LABELS"><text transform="translate(0 55.07)" font-size="6" font-family="Roboto-Regular, Roboto">shopping-bag</text></g></svg>