<svg xmlns="http://www.w3.org/2000/svg" viewBox="0 0 50 50"><g id="b8842ea2-56d1-4cc5-9698-1d8c8027b11e" data-name="ICONS"><path d="M23.45,27a2.18,2.18,0,0,0,.32-3.06,2.13,2.13,0,0,0-.3-.3l.06,0a2.18,2.18,0,0,0,2.83-2.86l-1.3-3.09a2,2,0,0,0-1-1.06L24,16.56l-3.16-1.89,2,.09,2,1.63a2.17,2.17,0,0,0,1.6.47,2.15,2.15,0,0,0,1.46-.8A2.18,2.18,0,0,0,27.63,13L25,10.91a2.11,2.11,0,0,0-1.37-.47h-.11l-2.78-.11,4.39-1.24A2.18,2.18,0,0,0,24,4.89L18.72,6.37l1.22-1.45a2.18,2.18,0,0,0-1.86-3.56,2.14,2.14,0,0,0-1.48.77L12.78,6.69,4.57,17.11H4.49l-3.3.83a.51.51,0,0,0-.36.61l2,7.81a.52.52,0,0,0,.23.31.59.59,0,0,0,.26.07l.12,0,3.29-.82a.46.46,0,0,0,.23-.15l6.7,2.75.07,0a1.87,1.87,0,0,0,.67.14l.1,0,5.2.54h.23a2.07,2.07,0,0,0,1.49-.61l.18-.12ZM3.64,25.63,1.92,18.79l2.32-.58L6,25.05Zm17.29,2.09-.11.07a.34.34,0,0,0-.09.08,1.2,1.2,0,0,1-1,.35l-5.16-.53-.14,0a1.27,1.27,0,0,1-.46-.1l-.07,0-7-2.89L5.2,17.92l8.35-10.6,3.82-4.55A1.17,1.17,0,0,1,19,2.62a1.18,1.18,0,0,1,.15,1.66L16.91,7a.53.53,0,0,0,0,.6.51.51,0,0,0,.56.21l6.81-1.92a1.18,1.18,0,0,1,1.45.81,1.11,1.11,0,0,1-.11.89,1.15,1.15,0,0,1-.7.56L16.2,10.57a.5.5,0,0,0-.33.33.55.55,0,0,0,.09.48.48.48,0,0,0,.5.18l1.31-.27.14,0a1.08,1.08,0,0,1,.37,0l5.18.2a.23.23,0,0,0,.14,0,1.15,1.15,0,0,1,.8.26L27,13.78a1.18,1.18,0,0,1-.61,2.09,1.19,1.19,0,0,1-.86-.25l-2.17-1.75a.64.64,0,0,0-.3-.11l-4.6-.18a.7.7,0,0,0-.47.29.51.51,0,0,0,0,.48.52.52,0,0,0,.41.24,1.26,1.26,0,0,1,.56.15l4.45,2.65.12.08a1.17,1.17,0,0,1,.58.6l1.3,3.09a1.17,1.17,0,0,1,0,.9,1.2,1.2,0,0,1-.63.64,1.19,1.19,0,0,1-1.54-.63L22.19,19.5a.52.52,0,0,0-.2-.24l-3.61-2.14a.5.5,0,0,0-.38-.06l-2.06.53h0a4.38,4.38,0,0,0-3.13,3.15,4.28,4.28,0,0,0,.49,3.05.53.53,0,0,0,.1.12l1.47,1.34a.52.52,0,0,0,.28.13l4.18.43a.44.44,0,0,0,.36-.11l1.66-1.34a1.17,1.17,0,0,1,1.65.17,1.19,1.19,0,0,1-.17,1.66Zm2-4.43a2.15,2.15,0,0,0-2.25.29l-1.5,1.22-3.8-.4-1.29-1.17A3.26,3.26,0,0,1,13.78,21a3.36,3.36,0,0,1,2.41-2.41l1.86-.47,3.28,2,1,2.41A2.25,2.25,0,0,0,23,23.29Z"/><path d="M49.17,31.25l-1.83-7.84a.5.5,0,0,0-.22-.31.51.51,0,0,0-.38-.07l-3.3.78a.45.45,0,0,0-.24.14l-6.65-2.86-.07,0a2.21,2.21,0,0,0-.66-.15l-.1,0-5.19-.63a2.11,2.11,0,0,0-1.74.58l-.17.11-1.92,1.5a2.18,2.18,0,0,0-.37,3.06,2.76,2.76,0,0,0,.29.3l-.06,0a2.13,2.13,0,0,0-1.66,0,2.09,2.09,0,0,0-1.19,1.16,2.13,2.13,0,0,0,0,1.66l1.24,3.11a2.05,2.05,0,0,0,1,1.09l.08.06,3.13,1.93-2-.11-2-1.68a2.18,2.18,0,0,0-1.59-.49,2.15,2.15,0,0,0-1.48.78,2.17,2.17,0,0,0,.29,3.06l2.57,2.14a2,2,0,0,0,1.37.49h.1l2.78.16L24.69,40.3A2.17,2.17,0,0,0,23.15,43a2.17,2.17,0,0,0,2.65,1.55l5.28-1.39-1.24,1.43a2.18,2.18,0,0,0,.21,3.07,2.2,2.2,0,0,0,1.43.53,2.15,2.15,0,0,0,1.64-.75L37,42.91,45.4,32.63h.09l3.31-.77A.5.5,0,0,0,49.17,31.25Zm-12.91,11-3.89,4.48a1.18,1.18,0,1,1-1.78-1.54l2.31-2.65a.51.51,0,0,0-.38-.83l-.13,0-6.84,1.8a1.18,1.18,0,0,1-1.44-.84,1.21,1.21,0,0,1,.12-.89,1.19,1.19,0,0,1,.72-.54L33.67,39a.5.5,0,0,0,.33-.33.52.52,0,0,0-.09-.49.49.49,0,0,0-.48-.18l-1.31.25-.15,0a1.3,1.3,0,0,1-.37,0L26.43,38h-.15a1.14,1.14,0,0,1-.79-.27l-2.58-2.14a1.18,1.18,0,0,1-.15-1.65,1.19,1.19,0,0,1,1.66-.16l2.14,1.78a.5.5,0,0,0,.29.12l4.6.26a.43.43,0,0,0,.45-.23.51.51,0,0,0,0-.51.52.52,0,0,0-.43-.27,1.14,1.14,0,0,1-.55-.16L26.54,32a.5.5,0,0,0-.12-.08,1.13,1.13,0,0,1-.56-.61l-1.25-3.11a1.22,1.22,0,0,1,0-.9,1.16,1.16,0,0,1,.65-.62,1.13,1.13,0,0,1,.9,0,1.16,1.16,0,0,1,.63.64l1,2.59a.5.5,0,0,0,.2.23l3.57,2.21a.5.5,0,0,0,.38.06L34.05,32h0A4.16,4.16,0,0,0,36.8,25.8a.27.27,0,0,0-.09-.12l-1.45-1.37a.52.52,0,0,0-.28-.13l-4.17-.51a.47.47,0,0,0-.37.11l-1.67,1.31a1.19,1.19,0,0,1-.87.24,1.15,1.15,0,0,1-.78-.44,1.13,1.13,0,0,1-.24-.87,1.11,1.11,0,0,1,.44-.78l1.91-1.5.12-.07.09-.07a1.17,1.17,0,0,1,1-.34l5.14.62.14,0a1.11,1.11,0,0,1,.46.11l.07,0,7,3,1.58,6.76ZM27.13,26.14a2,2,0,0,0,.65.19,2.19,2.19,0,0,0,1.6-.45l1.52-1.19,3.79.46L36,26.35a3.24,3.24,0,0,1,.31,2.27A3.37,3.37,0,0,1,33.81,31L32,31.42l-3.25-2-1-2.43A2.17,2.17,0,0,0,27.13,26.14Zm18.62,5.4-1.6-6.87,2.33-.55L48.08,31Z"/></g><g id="a304adc0-b708-4118-91bb-c271f8c608d5" data-name="LABELS"><text transform="translate(-0.67 55.01)" font-size="6" font-family="Roboto-Regular, Roboto">sign-language</text></g></svg>