<?xml version="1.0" encoding="UTF-8"?>
<svg xmlns="http://www.w3.org/2000/svg" viewBox="0 0 50 50">
  <defs>
    <style>
      .cls-1 {
        fill: #1f1c1d;
      }

      .cls-2 {
        fill: #ffcd00;
      }

      .cls-3 {
        fill: #221f1f;
        font-family: Roboto-Regular, Roboto;
        font-size: 5px;
      }

      .cls-4 {
        letter-spacing: 0em;
      }
    </style>
  </defs>
  <g id="Gold_Offset">
    <path class="cls-2" d="M48.26,16.53l.11-.61-.07-.09-.62-.04c-1.38-.1-2.84-.47-4.33-1.11-1.28-.55-2.6-.83-3.94-.83-.42,0-.83.03-1.24.08l-1.13.15v-1.14c0-1.68-.46-3.32-1.34-4.85-.81-1.4-1.34-2.81-1.6-4.17l-.11-.61-.1-.06-.59.18c-1.17.36-2.46.54-3.84.54-.2,0-.4,0-.59-.01-.12,0-.24,0-.36,0-3.62,0-6.54,1.67-8.45,4.83-1.24,2.06-1.75,4.31-1.47,6.51l.1.79-.75.28c-.32.12-.62.25-.91.4-1.61.81-3.02,2.12-4.11,3.86l-.06.1c-1.16,1.97-1.65,4.11-1.42,6.21l.08.79-.75.26c-.37.13-.74.28-1.08.46-1.68.85-3.12,2.21-4.17,3.95-.76,1.27-1.24,2.59-1.42,3.93-.28,2.07.16,4.18,1.26,6.11.82,1.43,1.34,2.79,1.6,4.17l.11.61.1.06.73-.22.29.18c1.36.11,2.73.48,4.19,1.1,1.31.56,2.64.85,3.96.85,2.12,0,4.14-.72,5.99-2.15,1.85-1.42,3.12-3.27,3.68-5.35l.21-.76.79.02h.31c.29,0,.59,0,.87-.03,1.85-.18,3.67-.92,5.26-2.13,1.88-1.46,3.16-3.37,3.69-5.5l.19-.76h.78c.34,0,.68,0,1-.04,1.87-.18,3.71-.93,5.32-2.17,1.17-.9,2.1-1.96,2.75-3.14,1.01-1.82,1.37-3.95,1.04-6.15-.24-1.63-.24-3.09.02-4.47ZM16.14,38.2c-1.34,2.21-4.22,2.93-6.44,1.59-2.21-1.34-2.93-4.22-1.59-6.44,1.34-2.21,4.22-2.93,6.44-1.6,1.07.65,1.83,1.67,2.13,2.89.3,1.22.11,2.48-.54,3.55ZM23.46,26.54c-.65,1.07-1.67,1.83-2.89,2.13-1.22.3-2.48.11-3.55-.54-2.21-1.34-2.93-4.22-1.59-6.44.65-1.07,1.67-1.83,2.89-2.13.38-.09.76-.14,1.14-.14.84,0,1.67.23,2.41.68,2.21,1.33,2.93,4.22,1.59,6.44ZM30.57,14.75c-1.33,2.21-4.22,2.93-6.44,1.6-2.21-1.34-2.93-4.23-1.59-6.44.65-1.07,1.67-1.83,2.89-2.13.38-.09.76-.14,1.14-.14.84,0,1.67.23,2.41.68,2.21,1.34,2.93,4.22,1.59,6.44Z"/>
  </g>
  <g id="Icon_Outline">
    <g>
      <path class="cls-1" d="M48.03,19.65c-.23-1.51-.22-2.87.02-4.14l.11-.61c.06-.3-.02-.62-.21-.86-.19-.24-.47-.4-.78-.42l-.62-.04c-1.27-.09-2.62-.44-4-1.04-1.86-.8-3.82-1.07-5.71-.82,0-1.83-.5-3.65-1.47-5.35-.75-1.31-1.25-2.6-1.49-3.86l-.11-.61c-.06-.3-.24-.57-.5-.72-.26-.16-.58-.2-.87-.11l-.59.18c-1.22.38-2.61.54-4.11.49-4.14-.13-7.54,1.74-9.69,5.31-1.36,2.26-1.91,4.72-1.6,7.15-.36.13-.69.28-1.01.44-1.8.9-3.34,2.35-4.48,4.19,0,.01-.02.02-.03.03l-.06.1s0,.02,0,.03c-1.27,2.16-1.8,4.5-1.56,6.82-.42.15-.82.32-1.2.51-1.85.93-3.43,2.43-4.57,4.33-.83,1.38-1.36,2.83-1.56,4.31-.31,2.29.17,4.62,1.39,6.74.76,1.33,1.25,2.59,1.49,3.86l.11.61c.06.3.24.57.5.72.17.1.36.15.56.15.11,0,.21-.02.32-.05l.29-.09c.07.04.14.07.22.08,1.29.09,2.6.43,4.01,1.04,1.45.62,2.91.93,4.36.93,2.32,0,4.57-.79,6.6-2.36,2.03-1.56,3.42-3.59,4.04-5.88.44.01.88,0,1.31-.04,2.03-.2,4.03-1,5.78-2.33,2.07-1.61,3.46-3.69,4.05-6.05.37,0,.74,0,1.1-.04,2.06-.2,4.08-1.02,5.83-2.37,1.28-.99,2.29-2.15,3.01-3.45,1.12-2.02,1.52-4.37,1.15-6.79ZM6.58,45.88l-.59.18s-.1-.06-.1-.06l-.11-.61c-.26-1.36-.79-2.77-1.6-4.17-1.11-1.93-1.54-4.04-1.26-6.11.18-1.34.66-2.66,1.42-3.93,1.05-1.74,2.49-3.1,4.17-3.95.46-.23.94-.42,1.45-.58.24-.07.38-.31.35-.55-.33-2.25.16-4.55,1.42-6.66,1.05-1.71,2.47-3.06,4.13-3.89.39-.2.81-.37,1.27-.52.23-.08.38-.31.34-.56-.39-2.33.09-4.71,1.41-6.89,1.96-3.24,5.08-4.96,8.8-4.83,1.61.06,3.11-.12,4.44-.53l.59-.18s.1.06.1.06l.11.61c.26,1.37.8,2.77,1.6,4.17,1.11,1.93,1.54,4.04,1.26,6.11-.18,1.34-.66,2.66-1.42,3.93-1.05,1.74-2.49,3.1-4.17,3.95-.39.2-.82.37-1.27.52-.23.08-.38.31-.34.56.39,2.31-.09,4.67-1.38,6.84-1.04,1.71-2.47,3.06-4.13,3.89-.45.23-.94.42-1.45.58-.24.07-.38.31-.35.55.33,2.27-.16,4.58-1.44,6.71-1.96,3.24-5.1,4.96-8.8,4.83-1.62-.05-3.11.12-4.44.53ZM47.04,19.8c.33,2.2-.03,4.33-1.04,6.15-.65,1.18-1.58,2.24-2.75,3.14-1.61,1.24-3.44,1.99-5.32,2.17-.44.04-.9.05-1.37.03-.24-.03-.47.16-.52.4-.47,2.29-1.78,4.32-3.77,5.87-1.6,1.22-3.42,1.95-5.26,2.13-.5.05-1.03.05-1.56.01-.26-.02-.47.15-.52.39-.51,2.23-1.82,4.21-3.78,5.73-3,2.31-6.53,2.77-9.95,1.3-.69-.3-1.38-.53-2.06-.72.59-.05,1.2-.08,1.84-.06,4.13.13,7.54-1.74,9.7-5.31,1.32-2.19,1.88-4.58,1.63-6.95.42-.15.82-.32,1.2-.51,1.81-.91,3.36-2.37,4.5-4.22h0s.06-.1.06-.1c0,0,.01-.02.02-.03,0,0,0-.02,0-.02,1.29-2.22,1.82-4.62,1.52-6.99.35-.13.69-.28,1.01-.44h0c1.85-.93,3.43-2.43,4.57-4.33.83-1.38,1.36-2.83,1.56-4.31.02-.13.02-.26.04-.39,1.76-.27,3.61-.02,5.36.73,1.49.64,2.94,1.01,4.33,1.12l.62.04.07.09-.11.61c-.26,1.38-.27,2.84-.02,4.47Z"/>
      <path class="cls-1" d="M33.54,30.66c-.26-.06-.54.12-.59.39-.32,1.55-1.23,2.94-2.62,4.02-1.11.85-2.37,1.36-3.63,1.48-.33.03-.67.04-1.02,0-.27-.02-.51.19-.54.46-.02.28.19.51.46.54.18.01.37.02.55.02.22,0,.43-.01.65-.03,1.45-.14,2.88-.72,4.14-1.68,1.59-1.23,2.62-2.83,2.99-4.61.06-.27-.12-.54-.39-.59Z"/>
      <path class="cls-1" d="M44.34,19.7c-.27.04-.46.3-.42.57.23,1.53,0,2.93-.68,4.16-.45.8-1.09,1.54-1.92,2.17-1.14.88-2.41,1.4-3.69,1.53-.28.03-.59.03-.91.02-.29-.03-.51.2-.52.47s.2.51.47.52c.14,0,.27.01.41.01.22,0,.44,0,.64-.03,1.47-.14,2.92-.74,4.21-1.73.94-.72,1.67-1.56,2.18-2.48.79-1.43,1.06-3.04.79-4.79-.04-.27-.3-.46-.57-.42Z"/>
      <path class="cls-1" d="M16.99,38.72c.79-1.3,1.02-2.83.65-4.31-.37-1.48-1.28-2.72-2.59-3.5-2.68-1.62-6.19-.75-7.81,1.94h0c-1.62,2.69-.75,6.19,1.94,7.81.92.55,1.93.82,2.93.82,1.93,0,3.82-.98,4.88-2.75ZM8.1,33.36c1.34-2.21,4.22-2.93,6.44-1.6,1.07.65,1.83,1.67,2.13,2.89.3,1.22.11,2.48-.54,3.55-1.34,2.21-4.22,2.93-6.44,1.59-2.21-1.34-2.93-4.22-1.59-6.44Z"/>
      <path class="cls-1" d="M23.62,17.2c.92.55,1.93.82,2.93.82,1.93,0,3.82-.98,4.88-2.75h0c1.62-2.69.75-6.19-1.94-7.81-1.3-.79-2.83-1.02-4.31-.65-1.48.37-2.72,1.28-3.5,2.59-1.62,2.69-.75,6.19,1.93,7.81ZM22.54,9.9c.65-1.07,1.67-1.83,2.89-2.13.38-.09.76-.14,1.14-.14.84,0,1.67.23,2.41.68,2.21,1.34,2.93,4.22,1.59,6.44s-4.22,2.93-6.44,1.6c-2.21-1.34-2.93-4.23-1.59-6.44Z"/>
      <path class="cls-1" d="M16.51,28.99c.9.54,1.91.82,2.93.82.46,0,.92-.06,1.38-.17,1.48-.37,2.72-1.28,3.5-2.59h0c1.62-2.69.75-6.19-1.94-7.81-1.3-.79-2.83-1.02-4.31-.65-1.48.37-2.72,1.28-3.5,2.59-1.62,2.69-.75,6.19,1.93,7.81ZM15.43,21.7c.65-1.07,1.67-1.83,2.89-2.13.38-.09.76-.14,1.14-.14.84,0,1.67.23,2.41.68,2.21,1.33,2.93,4.22,1.59,6.44-.65,1.07-1.67,1.83-2.89,2.13-1.22.3-2.48.11-3.55-.54-2.21-1.34-2.93-4.22-1.59-6.44Z"/>
    </g>
  </g>
  <g id="Names">
    <text class="cls-3" transform="translate(0 53.66)"><tspan x="0" y="0">s</tspan><tspan class="cls-4" x="2.58" y="0">o</tspan><tspan x="5.39" y="0">y-bean</tspan></text>
  </g>
</svg>