<svg xmlns="http://www.w3.org/2000/svg" viewBox="0 0 50 50"><g id="b43eafb9-2e8d-4b21-b4ea-f28ea57baf1a" data-name="ICONS"><path d="M50,23.3A11.72,11.72,0,0,0,38.29,11.6H14.38A11.7,11.7,0,0,0,13.65,35a.51.51,0,0,1,.37.2l4.31,5.73,4.27-5.69A.52.52,0,0,1,23,35H38.29A11.72,11.72,0,0,0,50,23.3Z" fill="#fdd600"/><path d="M36.62,9.1H12.71a12.7,12.7,0,0,0-1,25.36l4.56,6.08a.54.54,0,0,0,.4.2.51.51,0,0,0,.4-.2l4.53-6h15a12.71,12.71,0,1,0,0-25.41ZM20.93,33.71,16.65,39.4l-4.3-5.73a.53.53,0,0,0-.37-.2,11.7,11.7,0,0,1,.73-23.37H36.62a11.71,11.71,0,1,1,0,23.41H21.33A.51.51,0,0,0,20.93,33.71Z" fill="#231f20"/></g><g id="a36e796e-8966-4236-a872-1b002c9689d2" data-name="LABELS"><text transform="translate(-0.35 54.86)" font-size="6" fill="#231f20" font-family="Roboto-Regular, Roboto">speech-bubble</text></g></svg>