<svg xmlns="http://www.w3.org/2000/svg" viewBox="0 0 50 50"><g id="f056569b-1678-49b3-a834-45cf657e380f" data-name="ICONS"><path d="M40.71,16.82A10.47,10.47,0,0,0,33,13.28H13.86C7.92,13.28,3.08,18.51,3.08,25c0,6.14,4.44,11.25,10.12,11.62a.51.51,0,0,1,.46.44l.85,6.29,7-6.55a.48.48,0,0,1,.34-.14H33a10.45,10.45,0,0,0,1.07-.06l.72-.1c-.14-.45-.27-.89-.41-1.33ZM11.77,26.55a2.43,2.43,0,1,1,2.43-2.43A2.43,2.43,0,0,1,11.77,26.55Zm10.15,0a2.43,2.43,0,1,1,2.43-2.43A2.43,2.43,0,0,1,21.92,26.55Zm10.15,0a2.43,2.43,0,1,1,2.43-2.43A2.43,2.43,0,0,1,32.07,26.55Z" fill="#fdd600"/><path d="M11.77,20.69a3.43,3.43,0,1,0,3.43,3.43A3.44,3.44,0,0,0,11.77,20.69Zm0,5.86a2.43,2.43,0,1,1,2.43-2.43A2.43,2.43,0,0,1,11.77,26.55Z" fill="#231f20"/><path d="M32.07,20.69a3.43,3.43,0,1,0,3.43,3.43A3.44,3.44,0,0,0,32.07,20.69Zm0,5.86a2.43,2.43,0,1,1,2.43-2.43A2.43,2.43,0,0,1,32.07,26.55Z" fill="#231f20"/><path d="M21.92,20.69a3.43,3.43,0,1,0,3.43,3.43A3.44,3.44,0,0,0,21.92,20.69Zm0,5.86a2.43,2.43,0,1,1,2.43-2.43A2.43,2.43,0,0,1,21.92,26.55Z" fill="#231f20"/><path d="M49.08,8.55,43.59,6.7a.5.5,0,0,0-.38,0A.48.48,0,0,0,43,7l-1.31,3.87h0L40.26,15a11.43,11.43,0,0,0-8.77-4.24H12.36C5.87,10.78.58,16.46.58,23.45.58,30,5.22,35.42,11.22,36l.92,6.85a.51.51,0,0,0,.5.43.48.48,0,0,0,.34-.13l7.55-7.08h11a10.86,10.86,0,0,0,2.22-.23L34,38.17h0l.39,3.6a.53.53,0,0,0,.34.42.45.45,0,0,0,.16,0,.48.48,0,0,0,.36-.16l4.75-5a.46.46,0,0,0,.1-.18h0l8-23.81h0l1.3-3.88A.5.5,0,0,0,49.08,8.55ZM20,35.25,13,41.8l-.85-6.29a.51.51,0,0,0-.46-.44C6,34.7,1.58,29.59,1.58,23.45c0-6.43,4.84-11.67,10.78-11.67H31.49a10.47,10.47,0,0,1,8.39,4.37L33.63,34.71h0a.31.31,0,0,0,0,.1.13.13,0,0,0,0,.06,10,10,0,0,1-2.12.23H20.33A.48.48,0,0,0,20,35.25ZM42.44,11.69,47,13.22,39.36,35.84a7,7,0,0,0-2-1.14,6.91,6.91,0,0,0-2.51-.39ZM34.66,35.31a5.91,5.91,0,0,1,4.22,1.43L37.3,38.41a3.84,3.84,0,0,0-1.2-.64,4,4,0,0,0-1.19-.16Zm1.14,3.41a3.06,3.06,0,0,1,.81.42L35.23,40.6l-.22-2A3,3,0,0,1,35.8,38.72ZM47.3,12.27l-4.54-1.53,1-2.93,4.54,1.53Z" fill="#231f20"/></g><g id="a3037d96-0b56-47da-82bd-cdcd4234ef2a" data-name="LABELS"><text transform="translate(-0.28 54.86)" font-size="6" fill="#231f20" font-family="Roboto-Regular, Roboto">speech-bubble-pen</text></g></svg>