<svg xmlns="http://www.w3.org/2000/svg" viewBox="0 0 50 50"><g id="a5c83a98-9059-4982-9442-f2d5197b2b57" data-name="ICONS"><path d="M45.2,2.28c-1.57-1.41-4-1.65-6.78-.68a19.29,19.29,0,0,0-7.8,5.5C27.2,11,25.37,15.57,25.9,19L3.2,44.46a.53.53,0,0,0-.13.38.5.5,0,0,0,.18.36l4.09,3.65a.51.51,0,0,0,.35.13h0a.53.53,0,0,0,.36-.17L30.7,23.38c3.48.22,7.92-2.13,11.41-6.06,3.16-3.55,5-7.82,4.81-11.15A5.45,5.45,0,0,0,45.2,2.28ZM41.33,16.62c-3.32,3.74-7.65,6-10.79,5.7a.55.55,0,0,0-.45.17L7.65,47.72,4.33,44.77l22.51-25.3a.58.58,0,0,0,.14-.33A.49.49,0,0,0,27,19c-.61-3.11,1.14-7.52,4.43-11.23a18.28,18.28,0,0,1,7.36-5.2c2.43-.84,4.47-.68,5.75.47a4.47,4.47,0,0,1,1.36,3.17c.18,3.07-1.56,7-4.54,10.39Z"/><path d="M41.56,12.38a.53.53,0,0,0-.72.19,13.62,13.62,0,0,1-4.6,4.7,13.13,13.13,0,0,1-4.07,1.64.53.53,0,0,0-.4.63.52.52,0,0,0,.51.41h.11a14.28,14.28,0,0,0,4.39-1.78,14.57,14.57,0,0,0,5-5.06A.52.52,0,0,0,41.56,12.38Z"/></g><g id="b20623ef-e28c-4341-8f79-b89387f5670a" data-name="LABELS"><text transform="translate(-0.22 55.05)" font-size="6" font-family="Roboto-Regular, Roboto">spoon</text></g></svg>