<svg id="a4c06d19-0ff5-4920-98a7-033862f7aa59" data-name="ICONS" xmlns="http://www.w3.org/2000/svg" viewBox="0 0 50 50"><path d="M45.44,27.73,40.56,16V6.51h3.5a.5.5,0,0,0,.5-.5V1.22a.5.5,0,0,0-.5-.5H20.75a.49.49,0,0,0-.42.24.51.51,0,0,0,0,.48l2.4,4.8a.5.5,0,0,0,.45.27h5.66l-1.93,4.82a.5.5,0,0,0,.28.65.58.58,0,0,0,.19,0,.51.51,0,0,0,.46-.31l2.07-5.19h.69v9.37L21.1,27.6a.47.47,0,0,0-.12.32V48.28a.5.5,0,0,0,.5.5H45a.5.5,0,0,0,.5-.5V27.92A.41.41,0,0,0,45.44,27.73Zm-22-22.22-1.9-3.79h22V5.51H23.46Zm21,42.27H22V28.09l9.47-11.72a.52.52,0,0,0,.11-.32V6.51h8v9.54a.64.64,0,0,0,0,.2L44.48,28Z"/><path d="M36.72,27a.5.5,0,0,0-.5-.5h-6a.5.5,0,0,0-.5.5v3.94H25.79a.51.51,0,0,0-.5.5v6a.51.51,0,0,0,.5.5h3.95v4a.5.5,0,0,0,.5.5h6a.5.5,0,0,0,.5-.5v-4h4a.5.5,0,0,0,.5-.5v-6a.5.5,0,0,0-.5-.5h-4Zm3.45,4.94v5h-4a.5.5,0,0,0-.5.5v4h-5v-4a.5.5,0,0,0-.5-.5H26.29v-5h3.95a.5.5,0,0,0,.5-.5V27.5h5v3.94a.5.5,0,0,0,.5.5Z"/><path d="M17.79,3h1a.51.51,0,0,0,.5-.5.5.5,0,0,0-.5-.5h-1a.49.49,0,0,0-.5.49A.51.51,0,0,0,17.79,3Z"/><path d="M8.46,3H10.8a.51.51,0,0,0,.5-.49A.52.52,0,0,0,10.8,2H8.46a.5.5,0,0,0,0,1Z"/><path d="M13.13,3h2.33a.5.5,0,0,0,0-1H13.13a.5.5,0,1,0,0,1Z"/><path d="M6.13,2h-1a.5.5,0,0,0-.5.5.5.5,0,0,0,.5.5h1a.5.5,0,0,0,0-1Z"/><path d="M19.31,4.33A.5.5,0,1,0,19,3.39L18,3.72a.5.5,0,1,0,.34.95Z"/><path d="M14.09,5.67a.5.5,0,0,0,.64.3l1.82-.65a.5.5,0,0,0-.34-.94L14.39,5A.5.5,0,0,0,14.09,5.67Z"/><path d="M13.21,6a.5.5,0,0,0-.64-.3l-1.82.65a.5.5,0,0,0-.3.64.49.49,0,0,0,.47.33.51.51,0,0,0,.17,0l1.82-.65A.49.49,0,0,0,13.21,6Z"/><path d="M9.57,7.29A.49.49,0,0,0,8.93,7l-1.82.65a.5.5,0,0,0-.3.64.52.52,0,0,0,.47.33.47.47,0,0,0,.17,0l1.82-.65A.5.5,0,0,0,9.57,7.29Z"/><path d="M5.29,8.29l-.94.34a.5.5,0,0,0,.17,1,.51.51,0,0,0,.17,0l.94-.34a.49.49,0,0,0,.3-.64A.5.5,0,0,0,5.29,8.29Z"/><path d="M19.23,4.83l-.76.64a.51.51,0,0,0-.06.71.52.52,0,0,0,.38.17.57.57,0,0,0,.33-.11l.76-.65a.5.5,0,1,0-.65-.76Z"/><path d="M14.54,8.8,13.23,9.91a.49.49,0,0,0-.06.7.49.49,0,0,0,.7.06l1.31-1.11a.5.5,0,0,0-.64-.76Z"/><path d="M17.16,6.58,15.85,7.69a.51.51,0,0,0-.06.71.52.52,0,0,0,.38.17.47.47,0,0,0,.32-.12l1.32-1.11a.5.5,0,0,0-.65-.76Z"/><path d="M11.91,11,10.6,12.13a.5.5,0,0,0,.33.88.51.51,0,0,0,.32-.12l1.31-1.11a.49.49,0,0,0,.06-.7A.51.51,0,0,0,11.91,11Z"/><path d="M9.29,13.24l-.76.64a.51.51,0,0,0-.06.71.52.52,0,0,0,.38.17.48.48,0,0,0,.32-.11L9.94,14a.5.5,0,1,0-.65-.76Z"/></svg>