<svg xmlns="http://www.w3.org/2000/svg" viewBox="0 0 50 50"><g id="e65272e2-56b4-4728-80a0-d6efbfe59907" data-name="ICONS"><path d="M38.38,23.69a.5.5,0,0,1-.5.5H26.75v6.22a.5.5,0,0,1-.5.5H15.12v6.22a.5.5,0,0,1-.5.5H3.49V48.27H49V17.55H38.38Z" fill="#fdd600"/><path d="M48,15.05H36.38a.5.5,0,0,0-.5.5v6.14H24.75a.5.5,0,0,0-.5.5v6.22H13.12a.5.5,0,0,0-.5.5v6.22H1.49a.5.5,0,0,0-.5.5V47.27a.51.51,0,0,0,.5.5H48a.51.51,0,0,0,.5-.5V15.55A.51.51,0,0,0,48,15.05Zm-.5,31.72H2V36.13H13.12a.5.5,0,0,0,.5-.5V29.41H24.75a.5.5,0,0,0,.5-.5V22.69H36.38a.5.5,0,0,0,.5-.5V16.05H47.51Z" fill="#231f20"/><path d="M21.05,8.68a.49.49,0,0,0,.34.62l6.88,2L9.1,21.85a.5.5,0,0,0-.2.68.51.51,0,0,0,.44.25.5.5,0,0,0,.24-.06l19.09-10.5L26.7,19a.5.5,0,0,0,.34.62l.14,0a.51.51,0,0,0,.48-.36L30,11.4v0a.53.53,0,0,0,0-.41l0,0a.52.52,0,0,0-.31-.29l-7.92-2.3A.5.5,0,0,0,21.05,8.68Z" fill="#231f20"/><path d="M1.18,13.29a.49.49,0,0,0,.27.22l.08,0L9.42,16a.39.39,0,0,0,.15,0,.49.49,0,0,0,.47-.35A.5.5,0,0,0,9.71,15L2.92,12.93,22.15,2.67a.49.49,0,0,0,.2-.67.49.49,0,0,0-.67-.21L2.37,12.09,4.46,5.23a.51.51,0,0,0-.33-.63.5.5,0,0,0-.63.34L1.1,12.83a.48.48,0,0,0,.07.42A.06.06,0,0,0,1.18,13.29Z" fill="#231f20"/></g><g id="a94113f3-cecc-450d-984d-a6098b96f81f" data-name="LABELS"><text transform="translate(-0.11 55.05)" font-size="6" fill="#231f20" font-family="Roboto-Regular, Roboto">stairs up-down</text></g></svg>