<svg id="ab0ee98d-85fe-4aed-b3b0-e9e578ada7c9" data-name="ICONS" xmlns="http://www.w3.org/2000/svg" viewBox="0 0 50 50"><path d="M48.28,14.8,34.7,1.22a.5.5,0,0,0-.35-.14H15.15a.5.5,0,0,0-.35.14L1.22,14.8a.5.5,0,0,0-.14.35v19.2a.5.5,0,0,0,.14.35L14.8,48.28a.5.5,0,0,0,.35.14h19.2a.5.5,0,0,0,.35-.14L48.28,34.7a.5.5,0,0,0,.14-.35V15.15A.5.5,0,0,0,48.28,14.8Zm-.86,19.34L34.14,47.42H15.36L2.08,34.14V15.36L15.36,2.08H34.14L47.42,15.36Z"/><path d="M35.79,22.58A2.61,2.61,0,0,0,33.19,20a2.57,2.57,0,0,0-1.61.55V12.88A2.61,2.61,0,0,0,29,10.27a2.58,2.58,0,0,0-1.61.56v-.41a2.61,2.61,0,0,0-5.22,0v.41a2.58,2.58,0,0,0-1.61-.56,2.61,2.61,0,0,0-2.61,2.61v4.2a2.58,2.58,0,0,0-1.61-.56,2.61,2.61,0,0,0-2.6,2.61V30a.58.58,0,0,0,0,.19v.14a2.81,2.81,0,0,0,0,.29,11,11,0,1,0,22.08,0,2.71,2.71,0,0,0,0-.29v-.12a1.48,1.48,0,0,0,0-.21Zm-1,7.85a1.55,1.55,0,0,1,0,.22,10,10,0,1,1-20.08,0,1.55,1.55,0,0,1,0-.22V19.13a1.61,1.61,0,1,1,3.21,0v3.1h0v3.56a.5.5,0,0,0,.5.5.5.5,0,0,0,.5-.5V12.88a1.61,1.61,0,1,1,3.22,0V25.79a.5.5,0,0,0,.5.5.5.5,0,0,0,.5-.5V10.42a1.61,1.61,0,0,1,3.22,0V25.79a.5.5,0,0,0,1,0V12.88a1.61,1.61,0,1,1,3.22,0v9.35l0,.28v5.65a4.46,4.46,0,0,0-1.92.74c-2.45,1.65-2.17,5-2.15,5.11a.5.5,0,0,0,.49.46h0a.49.49,0,0,0,.45-.54s-.24-2.87,1.72-4.2a3.86,3.86,0,0,1,1.89-.62.49.49,0,0,0,.47-.49v-6.3a1.6,1.6,0,0,1,3.18.27V30.1l0,.11Z"/></svg>