<svg xmlns="http://www.w3.org/2000/svg" viewBox="0 0 50 50"><g id="bc3630ec-e0ae-4a8a-954b-bc63fb0f27d8" data-name="ICONS"><path d="M26.5,15.92A10.58,10.58,0,1,0,37.08,26.5,10.6,10.6,0,0,0,26.5,15.92Z" fill="#fdd600"/><path d="M48.61,24.5H36.55a11.48,11.48,0,0,0-3-7.31l8.53-8.53A.5.5,0,1,0,41.34,8l-8.53,8.53a11.48,11.48,0,0,0-7.31-3V1.39a.5.5,0,0,0-1,0V13.45a11.48,11.48,0,0,0-7.31,3L8.66,8A.5.5,0,1,0,8,8.66l8.53,8.53a11.48,11.48,0,0,0-3,7.31H1.39a.5.5,0,0,0,0,1H13.45a11.48,11.48,0,0,0,3,7.31L8,41.34a.5.5,0,0,0,0,.71.49.49,0,0,0,.35.15.51.51,0,0,0,.36-.15l8.53-8.53a11.48,11.48,0,0,0,7.31,3V48.61a.5.5,0,0,0,1,0V36.55a11.48,11.48,0,0,0,7.31-3l8.53,8.53a.51.51,0,0,0,.36.15.49.49,0,0,0,.35-.15.5.5,0,0,0,0-.71l-8.53-8.53a11.48,11.48,0,0,0,3-7.31H48.61a.5.5,0,0,0,0-1ZM25,35.58A10.58,10.58,0,1,1,35.58,25,10.6,10.6,0,0,1,25,35.58Z" fill="#231f20"/></g><g id="b56c0e05-f6cc-4e22-8c64-102d48eb1da7" data-name="LABELS"><text transform="translate(0.39 54.88)" font-size="6" fill="#231f20" font-family="Roboto-Regular, Roboto">sun</text></g></svg>