<svg xmlns="http://www.w3.org/2000/svg" viewBox="0 0 50 50"><g id="a2edf6b8-925a-4810-beaf-445dfa2e5ddb" data-name="ICONS"><path d="M46.9,1.07a.52.52,0,0,0-.53-.1L37.76,4.49a.38.38,0,0,0-.18.13l-2.5,2.85A25,25,0,0,1,24.87,1.55a.51.51,0,0,0-.69,0A25.12,25.12,0,0,1,8.8,8.46a.49.49,0,0,0-.43.35A25.93,25.93,0,0,0,12.8,33L10.4,35.7,7.45,33a.52.52,0,0,0-.36-.13.5.5,0,0,0-.34.16L3.46,36.55a.49.49,0,0,0,0,.7L6,39.59,2.63,43.22a.53.53,0,0,0-.13.36.52.52,0,0,0,.16.35l4.81,4.46a.51.51,0,0,0,.71,0l3.36-3.63,2.52,2.34a.55.55,0,0,0,.34.13h0a.48.48,0,0,0,.35-.16l3.29-3.54a.5.5,0,0,0,0-.71l-3-2.75,2.44-2.47a25.91,25.91,0,0,0,6.84,3.74.51.51,0,0,0,.17,0,.47.47,0,0,0,.17,0A26.19,26.19,0,0,0,41.92,16.77a26.86,26.86,0,0,0-.27-3.7l2.4-2.44a.47.47,0,0,0,.12-.2L47,1.59A.5.5,0,0,0,46.9,1.07ZM8.12,16.77a25.06,25.06,0,0,1,1.1-7.34A26.12,26.12,0,0,0,24.52,2.6a26.27,26.27,0,0,0,9.84,5.7l-2.27,2.6A26.3,26.3,0,0,1,24.83,7a.5.5,0,0,0-.61,0A26.54,26.54,0,0,1,12.6,12a.5.5,0,0,0-.4.39A20.78,20.78,0,0,0,16,29.31l-2.52,2.88A25,25,0,0,1,8.12,16.77Zm23.26-5.06L16.66,28.54A19.8,19.8,0,0,1,13.11,13,27.72,27.72,0,0,0,24.52,8,27.57,27.57,0,0,0,31.38,11.71ZM7.78,47.31,3.71,43.53l3-3.26,4.07,3.78ZM17,43.18,14.38,46,4.53,36.86l2.61-2.81Zm7.53-2.87a24.87,24.87,0,0,1-6.3-3.46L21,34a20.8,20.8,0,0,0,3.31,1.82.48.48,0,0,0,.2,0,.45.45,0,0,0,.2,0A20.8,20.8,0,0,0,37.27,17.51L40.75,14a26.11,26.11,0,0,1,.17,2.79A25.19,25.19,0,0,1,24.52,40.31Zm-2.8-7L36.2,18.6A19.81,19.81,0,0,1,24.52,34.83,20.53,20.53,0,0,1,21.72,33.29ZM43.26,10,14.34,39.36l-3.21-3,27.12-31,7.5-3.07Z"/></g><g id="a83b7db0-4691-44fe-8057-25ce4f09e92b" data-name="LABELS"><text transform="translate(-0.1 54.84)" font-size="6" font-family="Roboto-Regular, Roboto">swo<tspan x="11.02" y="0" letter-spacing="-0.01em">r</tspan><tspan x="13" y="0">d-shield</tspan></text></g></svg>