<svg id="aa42924d-61fc-44ae-b2fe-8810dd046975" data-name="ICONS" xmlns="http://www.w3.org/2000/svg" viewBox="0 0 50 50"><path d="M46.17,35.52a21.62,21.62,0,0,0,.28-3.42c0-.39,0-.78-.05-1.17A20.57,20.57,0,1,0,10.14,46.51a1.19,1.19,0,0,0,.88.42,1.15,1.15,0,0,0,.88-.41,18.42,18.42,0,0,1,28.17,0,1.15,1.15,0,0,0,.88.41h0a1.16,1.16,0,0,0,.87-.42,20.58,20.58,0,0,0,4.63-11.16Zm-5,8a.51.51,0,0,1-.36.22.5.5,0,0,1-.4-.14,20.72,20.72,0,0,0-28.94,0,.52.52,0,0,1-.35.14h-.06a.53.53,0,0,1-.36-.22c-.23-.35-.45-.71-.65-1.07H10a.55.55,0,0,1-.37-.22A18.27,18.27,0,0,1,39.29,20.9a18.19,18.19,0,0,1,1.93,22.59Z" fill="#fdd600"/><path d="M49.28,32.1A4.85,4.85,0,0,0,46,27.51a21.26,21.26,0,0,0-2.89-7,4.76,4.76,0,0,0,.53-2.17,4.83,4.83,0,0,0-7-4.35,21.53,21.53,0,0,0-7-3,4.83,4.83,0,0,0-9.1-.06,21.45,21.45,0,0,0-7.2,3,4.84,4.84,0,0,0-6.43,6.37,21.47,21.47,0,0,0-3,7.27,4.85,4.85,0,0,0,0,9,21.45,21.45,0,0,0,4.46,9.24,2.15,2.15,0,0,0,1.65.78,2.18,2.18,0,0,0,1.64-.76,17.42,17.42,0,0,1,26.65,0,2.13,2.13,0,0,0,1.63.76h0a2.18,2.18,0,0,0,1.64-.78,21.61,21.61,0,0,0,4.44-9.17A4.84,4.84,0,0,0,49.28,32.1ZM39.85,45.64h0a1.15,1.15,0,0,1-.87-.41,18.42,18.42,0,0,0-28.17,0,1.19,1.19,0,0,1-.89.41A1.12,1.12,0,0,1,9,45.22a20.57,20.57,0,1,1,31.69,0A1.19,1.19,0,0,1,39.85,45.64ZM38.74,14.51a3.86,3.86,0,0,1,3.85,3.86,3.89,3.89,0,0,1-.2,1.18,21.91,21.91,0,0,0-4.81-4.85A4.2,4.2,0,0,1,38.74,14.51ZM25,8.82a3.84,3.84,0,0,1,3.37,2,21.16,21.16,0,0,0-3.49-.31,21.54,21.54,0,0,0-3.23.27A3.84,3.84,0,0,1,25,8.82ZM8.54,15.64a3.85,3.85,0,0,1,2.72-1.13,4.15,4.15,0,0,1,1,.14,21.73,21.73,0,0,0-4.71,4.67A3.85,3.85,0,0,1,8.54,15.64ZM1.72,32.1a3.84,3.84,0,0,1,1.87-3.29,19.82,19.82,0,0,0,0,6.58A3.85,3.85,0,0,1,1.72,32.1Zm44.45,3.42a20.72,20.72,0,0,0,0-6.85,3.83,3.83,0,0,1,0,6.85Z" fill="#231f20"/><path d="M4.59,19.24l.14,0a.5.5,0,0,0,.34-.63,3.85,3.85,0,0,1,.79-3.65.5.5,0,1,0-.75-.65,4.82,4.82,0,0,0-1,4.59A.51.51,0,0,0,4.59,19.24Z" fill="#231f20"/><path d="M2.34,17.56h0A.5.5,0,0,0,2.84,17a3.87,3.87,0,0,1,.41-1.92A.5.5,0,0,0,3,14.44a.51.51,0,0,0-.67.22,4.87,4.87,0,0,0-.52,2.43A.49.49,0,0,0,2.34,17.56Z" fill="#231f20"/><path d="M43,13.17a3.85,3.85,0,0,1,2,3.13.5.5,0,0,0,.5.47h0a.51.51,0,0,0,.47-.54,4.85,4.85,0,0,0-2.56-3.94.5.5,0,1,0-.47.88Z" fill="#231f20"/><path d="M46.73,14.33a.5.5,0,0,0,.48.35l.16,0a.49.49,0,0,0,.31-.63,4.8,4.8,0,0,0-1.34-2.08.5.5,0,0,0-.71,0,.49.49,0,0,0,0,.7A3.75,3.75,0,0,1,46.73,14.33Z" fill="#231f20"/><path d="M23.65,6.5a3.84,3.84,0,0,1,3.72.4.47.47,0,0,0,.28.09.48.48,0,0,0,.41-.21.5.5,0,0,0-.12-.7,4.86,4.86,0,0,0-4.68-.5.5.5,0,0,0-.26.66A.5.5,0,0,0,23.65,6.5Z" fill="#231f20"/><path d="M25,4.12a3.87,3.87,0,0,1,2,.21.47.47,0,0,0,.17,0A.49.49,0,0,0,27.56,4a.5.5,0,0,0-.29-.65,4.83,4.83,0,0,0-2.47-.26.5.5,0,0,0-.41.57A.51.51,0,0,0,25,4.12Z" fill="#231f20"/><path d="M42.16,32.1a17.25,17.25,0,0,0-.26-2.89,3.81,3.81,0,0,0,0,5.79A17.46,17.46,0,0,0,42.16,32.1Z" fill="none"/><path d="M25,16.53a3.82,3.82,0,0,0,2.87-1.32c-.62-.06-1.25-.1-1.88-.1a18.44,18.44,0,0,0-3.59.36A3.73,3.73,0,0,0,25,16.53Z" fill="none"/><path d="M34.91,18.06A3.8,3.8,0,0,0,39,22.19,17.52,17.52,0,0,0,34.91,18.06Z" fill="none"/><path d="M43.16,32.1a18.26,18.26,0,0,1-3,10.1.53.53,0,0,1-.36.22.51.51,0,0,1-.41-.14,20.72,20.72,0,0,0-28.94,0,.52.52,0,0,1-.31.14c.2.36.42.72.65,1.07a.53.53,0,0,0,.36.22h.06a.52.52,0,0,0,.35-.14,20.72,20.72,0,0,1,28.94,0,.5.5,0,0,0,.4.14.51.51,0,0,0,.36-.22A18.19,18.19,0,0,0,39.29,20.9,18.13,18.13,0,0,1,43.16,32.1Z" fill="none"/><path d="M25,17.53a4.83,4.83,0,0,1-3.74-1.77,17.93,17.93,0,0,0-5.17,2.29,4.82,4.82,0,0,1-4.83,5.17,3.11,3.11,0,0,1-.43,0,18.19,18.19,0,0,0-2.37,5,4.81,4.81,0,0,1-.35,8,17.17,17.17,0,0,0,2.05,4.91,21.73,21.73,0,0,1,29.45,0,17.3,17.3,0,0,0,2.07-5,4.84,4.84,0,0,1,0-8,17.29,17.29,0,0,0-2.06-5,5.24,5.24,0,0,1-.88.08A4.85,4.85,0,0,1,34,17.43a17.21,17.21,0,0,0-4.65-2l-.3,0A4.85,4.85,0,0,1,25,17.53Z" fill="none"/><path d="M20.92,15.3a17.06,17.06,0,0,0-4.93,2,3.66,3.66,0,0,1,.1.74,17.93,17.93,0,0,1,5.17-2.29C21.14,15.61,21,15.46,20.92,15.3Z" fill="#fdd600"/><path d="M29,15.39l.3,0-.27-.08Z" fill="#fdd600"/><path d="M10.17,23.08A17.25,17.25,0,0,0,8.12,28l.34.25a18.19,18.19,0,0,1,2.37-5A5,5,0,0,1,10.17,23.08Z" fill="#fdd600"/><path d="M24.88,36.39a20.59,20.59,0,0,1,14.47,5.89.51.51,0,0,0,.41.14.53.53,0,0,0,.36-.22,18.21,18.21,0,0,0-.83-21.3,18.22,18.22,0,0,0-10-5.47,17.21,17.21,0,0,1,4.65,2,4.85,4.85,0,0,0,4.77,5.79,5.24,5.24,0,0,0,.88-.08,17.29,17.29,0,0,1,2.06,5,4.84,4.84,0,0,0,0,8,17.3,17.3,0,0,1-2.07,5,21.73,21.73,0,0,0-29.45,0,17.17,17.17,0,0,1-2.05-4.91,4.81,4.81,0,0,0,.35-8c-.1.35-.19.7-.27,1.06a3.82,3.82,0,0,1-.3,5.88c-.07-.37-.11-.74-.16-1.11a18.21,18.21,0,0,0,2.37,8.36.52.52,0,0,0,.31-.14A20.63,20.63,0,0,1,24.88,36.39ZM36,21.09a3.81,3.81,0,0,1-1.1-3A17.52,17.52,0,0,1,39,22.19,3.8,3.8,0,0,1,36,21.09Zm4.56,11a3.84,3.84,0,0,1,1.33-2.89,17.25,17.25,0,0,1,.26,2.89,17.46,17.46,0,0,1-.25,2.9A3.82,3.82,0,0,1,40.57,32.1Z" fill="#231f20"/><path d="M14.7,21.8a4.82,4.82,0,0,0,1.39-3.75c-.34.22-.68.46-1,.7a3.8,3.8,0,0,1-3.52,3.44c-.25.33-.51.66-.74,1a3.11,3.11,0,0,0,.43,0A4.84,4.84,0,0,0,14.7,21.8Z" fill="#231f20"/><path d="M25,17.53a4.85,4.85,0,0,0,4-2.14c-.38-.07-.76-.14-1.15-.18A3.82,3.82,0,0,1,25,16.53a3.73,3.73,0,0,1-2.6-1.06c-.39.08-.76.18-1.14.29A4.83,4.83,0,0,0,25,17.53Z" fill="#231f20"/><path d="M7.6,32.1A17.16,17.16,0,0,1,7.89,29l.3.25c.08-.36.17-.71.27-1.06L8.12,28a17.25,17.25,0,0,1,2.05-4.9,5,5,0,0,0,.66.11c.23-.34.49-.67.74-1a3.66,3.66,0,0,1-.81,0,17.7,17.7,0,0,1,4.31-4.28,4.14,4.14,0,0,1,0,.86c.32-.24.66-.48,1-.7a3.66,3.66,0,0,0-.1-.74,17.06,17.06,0,0,1,4.93-2c.11.16.22.31.34.46.38-.11.75-.21,1.14-.29a2.87,2.87,0,0,1-.39-.39,17,17,0,0,1,2.87-.26,17.29,17.29,0,0,1,3.08.29.43.43,0,0,1-.09.1c.39,0,.77.11,1.15.18l0,0,.27.08a18.22,18.22,0,0,1,10,5.47A18.27,18.27,0,0,0,9.64,42.2a.55.55,0,0,0,.37.22h.09a18.21,18.21,0,0,1-2.37-8.36A18.25,18.25,0,0,1,7.6,32.1Z" fill="#231f20"/><path d="M24.88,13.82A18.28,18.28,0,0,0,9.64,42.2a.55.55,0,0,0,.37.22h.09c.2.36.42.72.65,1.07a.53.53,0,0,0,.36.22h.06a.52.52,0,0,0,.35-.14,20.72,20.72,0,0,1,28.94,0,.5.5,0,0,0,.4.14.51.51,0,0,0,.36-.22A18.19,18.19,0,0,0,39.29,20.9,18.23,18.23,0,0,0,24.88,13.82ZM25,16.53a3.83,3.83,0,0,1-3-1.45,17,17,0,0,1,2.87-.26,17.29,17.29,0,0,1,3.08.29A3.81,3.81,0,0,1,25,16.53Z" fill="none"/></svg>