<svg xmlns="http://www.w3.org/2000/svg" viewBox="0 0 50 50"><g id="adb396ec-e439-44ed-ab4e-7b0eb1f48a10" data-name="ICONS"><path d="M47.46,23.29a.51.51,0,0,0-.35-.15H33V17.65c0-4-6.72-7.16-15.3-7.16S2.41,13.64,2.41,17.65v0l0,14.67c0,2.25,2.13,4.23,5.52,5.54a.53.53,0,0,0,.37.17l.05,0a27.33,27.33,0,0,0,8.39,1.46H47a.51.51,0,0,0,.5-.5l.11-15.36A.49.49,0,0,0,47.46,23.29ZM32,23.14H27.63A10.37,10.37,0,0,0,32,20.23ZM17.7,11.49c7.76,0,14.3,2.82,14.3,6.16s-6.54,6.17-14.3,6.17S3.43,21,3.41,17.67v-.08h0C3.49,14.28,10,11.49,17.7,11.49Zm28.8,27H43.23V31.13a.5.5,0,0,0-1,0v7.38H39.4V33.12a.5.5,0,0,0-.5-.5.5.5,0,0,0-.5.5v5.39H35.5V31.18a.5.5,0,0,0-.5-.5.5.5,0,0,0-.5.5v7.33H31.67V33.18a.5.5,0,0,0-.5-.5.5.5,0,0,0-.5.5v5.33H27.79V31.07a.5.5,0,0,0-.5-.5.5.5,0,0,0-.5.5V38.5H24V33.07a.5.5,0,0,0-1,0V38.5H20.09V31.18a.5.5,0,0,0-1,0V38.5H16.75l-.48,0V33.18a.5.5,0,0,0-.5-.5.5.5,0,0,0-.5.5v5.24c-.92-.07-1.81-.18-2.66-.33v-7a.5.5,0,0,0-.5-.5.5.5,0,0,0-.5.5V37.9a22.69,22.69,0,0,1-2.83-.78v-4a.5.5,0,0,0-.5-.5.5.5,0,0,0-.5.5v3.66C5.09,35.6,3.39,34,3.39,32.35l0-12.12c2.16,2.71,7.67,4.59,14.29,4.59a31,31,0,0,0,6.56-.68H46.6Z"/><path d="M17.57,21.22c3.95,0,6.93-1.46,6.93-3.4s-3-3.4-6.93-3.4-6.94,1.47-6.94,3.4S13.61,21.22,17.57,21.22Zm0-5.8c3.5,0,5.93,1.27,5.93,2.4s-2.43,2.4-5.93,2.4-5.94-1.26-5.94-2.4S14.07,15.42,17.57,15.42Z"/></g><g id="f5174ad2-babc-4355-a47f-faa4a887f436" data-name="LABELS"><text transform="translate(0.58 55.09)" font-size="6" font-family="Roboto-Regular, Roboto">tape-measu<tspan x="31.53" y="0" letter-spacing="-0.01em">r</tspan><tspan x="33.5" y="0">e</tspan></text></g></svg>