<svg xmlns="http://www.w3.org/2000/svg" viewBox="0 0 612 792"><g id="a42dd4a5-298b-43a7-b256-6699e0905168" data-name="ICONS"><path d="M385,441.56a21.07,21.07,0,0,1,37.2,0l1.74-1.75a23.45,23.45,0,0,0-40.68,0Z" fill="#fdd600"/><path d="M423.3,461.57,422,461l-1-.45h0c.45-1.08.91-2.16,1.37-3.24a1.13,1.13,0,0,0-.61-1.48l-3.48-1.46a1.12,1.12,0,0,0-.44-.09,1.07,1.07,0,0,0-.43.09,1.09,1.09,0,0,0-.62.61l-7.15,16.85a1.13,1.13,0,0,0,.61,1.49l3.48,1.46a1.19,1.19,0,0,0,.87,0,1.12,1.12,0,0,0,.62-.61l.86-2a.54.54,0,0,1,.31-.3.56.56,0,0,1,.44,0l1.84.77a2.13,2.13,0,0,0,2.79-1.13l3-7.16a2.09,2.09,0,0,0,0-1.61A2.06,2.06,0,0,0,423.3,461.57Z" fill="#fdd600"/><path d="M397.64,471.83,390.46,455h0a1.14,1.14,0,0,0-.63-.61,1.17,1.17,0,0,0-.88,0l-3.5,1.46a1.13,1.13,0,0,0-.61,1.48l1.38,3.23-1.05.45-1.33.55a2.16,2.16,0,0,0-1.15,1.15,2.12,2.12,0,0,0,0,1.62l3.05,7.14a2.17,2.17,0,0,0,2.81,1.13l1.85-.78a.93.93,0,0,1,.23,0,.52.52,0,0,1,.21,0,.56.56,0,0,1,.31.31l.87,2a1.12,1.12,0,0,0,.62.61,1.21,1.21,0,0,0,.88,0l3.5-1.46A1.12,1.12,0,0,0,397.64,471.83Z" fill="#fdd600"/><path d="M479.52,438.16l-20,22,.9.89a.51.51,0,0,1,0,.71l-2.95,2.95.95.95,2.95-2.95a.51.51,0,0,1,.71,0l.89.9,22-20Zm-5.31,8.13-1.06-1.07,3-3,1.06,1.06Z" fill="#fdd600"/><path d="M205.93,364.28c-.89-5-7-8.74-14.22-8.74-7,0-11.84,3.33-12.24,8.49-.28,3.74,3.21,7.13,6.48,9.62a9.53,9.53,0,0,1,9.21-1.77c1.65-2.08,4.21-2.93,6.47-3.69C204.64,367.18,206.33,366.5,205.93,364.28Z" fill="#fdd600"/><path d="M212.65,374.4c-3.57-2.3-9.07-.12-13.06,1.85v0a7.18,7.18,0,0,1,.29,1.06c0,.13,0,.26.06.39s0,.34.05.52,0,.32,0,.49a7.13,7.13,0,0,1-2.24,5.19c1.09,2.42.75,5.17.44,7.6-.42,3.38-.55,5.33,1.65,6.05,4.81,1.58,11-2,14.44-8.38C217.65,383,217,377.19,212.65,374.4Z" fill="#fdd600"/><path d="M192,385.79a7,7,0,0,1-6.11-5.41c-2.67-.39-4.69-2.22-6.48-3.84-1.63-1.47-2.82-2.47-4-2.47a2.42,2.42,0,0,0-1.56.65c-3.9,3.22-4.17,10.39-.62,16.68,3.45,6.13,8.71,8.67,13.4,6.48C190.74,396,191.7,388.72,192,385.79Z" fill="#fdd600"/><polygon points="408.71 365.88 408.71 364.88 407.96 364.88 407.96 354.44 388.08 354.44 388.08 399.76 421.91 399.76 421.91 367.97 421.91 367.63 421.91 365.88 408.71 365.88" fill="#fdd600"/><path d="M105.68,355.27a1.71,1.71,0,0,0-3.41,0,1.71,1.71,0,1,0,3.41,0Z" fill="#fdd600"/><path d="M144.41,355.29a1.68,1.68,0,1,0-1.67,1.68A1.68,1.68,0,0,0,144.41,355.29Z" fill="#fdd600"/><path d="M142.57,365h-3.3v-4.43a1.9,1.9,0,0,0-1.9-1.9H109.65a1.91,1.91,0,0,0-1.91,1.9V365h-3.82a1.91,1.91,0,0,0-1.91,1.9v6.22a1.91,1.91,0,0,0,1.91,1.9h3.82v4.22a1.92,1.92,0,0,0,1.91,1.91H119v5.95H106.12a1.49,1.49,0,0,0-1.49,1.48v11l37.75,0V388.59a1.48,1.48,0,0,0-1.48-1.48H127.58v-5.95h9.79a1.91,1.91,0,0,0,1.9-1.91V375h3.3a1.9,1.9,0,0,0,1.91-1.9v-6.22A1.9,1.9,0,0,0,142.57,365Zm-28.4,3.6a2.2,2.2,0,1,1,2.21-2.2A2.2,2.2,0,0,1,114.17,368.61Zm15.11,0a2.21,2.21,0,1,1,2.21-2.21A2.21,2.21,0,0,1,129.28,368.61Z" fill="#fdd600"/><path d="M141.65,362.37v-5.92a2.7,2.7,0,1,0-1,0v5.83h-2.09v-3.41a2.92,2.92,0,0,0-2.92-2.92H107.9a2.93,2.93,0,0,0-2.93,2.92v3.41h-2.08v-5.78a2.71,2.71,0,1,0-1,0v5.84a2.92,2.92,0,0,0-2.63,2.89v6.22a2.93,2.93,0,0,0,2.93,2.92H105v3.2a2.93,2.93,0,0,0,2.93,2.93h8.29v3.91H104.37a2.5,2.5,0,0,0-2.51,2.5v11.55a.51.51,0,0,0,.51.52h38.78a.51.51,0,0,0,.36-.15.55.55,0,0,0,.15-.36V386.84a2.51,2.51,0,0,0-2.51-2.5H126.86v-3.91h8.76a2.93,2.93,0,0,0,2.92-2.93v-3.2h2.28a2.93,2.93,0,0,0,2.93-2.92v-6.22A2.92,2.92,0,0,0,141.65,362.37Zm-2.09-8.58a1.68,1.68,0,1,1,1.68,1.68A1.68,1.68,0,0,1,139.56,353.79Zm-38.79,0a1.71,1.71,0,1,1,1.71,1.71A1.71,1.71,0,0,1,100.77,353.77Zm1.4,19.51a1.91,1.91,0,0,1-1.91-1.9v-6.22a1.91,1.91,0,0,1,1.91-1.9H105v10Zm38.46,13.56V397.9l-37.75,0v-11a1.49,1.49,0,0,1,1.49-1.48h34.78A1.48,1.48,0,0,1,140.63,386.84Zm-14.8-2.5h-8.62v-3.91h8.62Zm11.69-6.84a1.91,1.91,0,0,1-1.9,1.91H107.9A1.92,1.92,0,0,1,106,377.5V358.83a1.91,1.91,0,0,1,1.91-1.9h27.72a1.9,1.9,0,0,1,1.9,1.9V377.5Zm5.21-6.12a1.9,1.9,0,0,1-1.91,1.9h-2.28v-10h2.28a1.9,1.9,0,0,1,1.91,1.9Z" fill="#231f20"/><path d="M117.4,366.41a3.23,3.23,0,1,0-3.23,3.23A3.23,3.23,0,0,0,117.4,366.41Zm-3.23,2.2a2.2,2.2,0,1,1,2.21-2.2A2.2,2.2,0,0,1,114.17,368.61Z" fill="#231f20"/><path d="M129.28,363.18a3.23,3.23,0,1,0,3.23,3.22A3.23,3.23,0,0,0,129.28,363.18Zm0,5.43a2.21,2.21,0,1,1,2.21-2.21A2.21,2.21,0,0,1,129.28,368.61Z" fill="#231f20"/><path d="M127.38,373a8.77,8.77,0,0,1-5.48,1.9,8.86,8.86,0,0,1-5.56-2,.51.51,0,0,0-.65.79,9.89,9.89,0,0,0,6.21,2.2,9.76,9.76,0,0,0,6.12-2.12.51.51,0,1,0-.64-.8Z" fill="#231f20"/><circle cx="270.93" cy="127.94" r="2.47" fill="#fdd600"/><path d="M251.12,140.54a2.47,2.47,0,1,0-2.47,2.47A2.47,2.47,0,0,0,251.12,140.54Z" fill="#fdd600"/><path d="M258.59,119.23a2.47,2.47,0,1,0-2.47,2.47A2.48,2.48,0,0,0,258.59,119.23Z" fill="#fdd600"/><path d="M265.1,135.92a2.47,2.47,0,1,0-2.47,2.47A2.48,2.48,0,0,0,265.1,135.92Z" fill="#fdd600"/><path d="M277.57,133.74a2.47,2.47,0,1,0,2.47,2.47A2.48,2.48,0,0,0,277.57,133.74Z" fill="#fdd600"/><path d="M264.6,134.42a3.47,3.47,0,1,0-4,3.42V147a.51.51,0,0,0,.15.35l1.82,1.82v13.69a.5.5,0,0,0,.5.5.5.5,0,0,0,.5-.5v-13.9a.51.51,0,0,0-.15-.35l-1.82-1.82v-8.9A3.47,3.47,0,0,0,264.6,134.42Zm-5.94,0a2.47,2.47,0,1,1,2.47,2.47A2.48,2.48,0,0,1,258.66,134.42Z" fill="#231f20"/><path d="M247.65,148.12v-5.66a3.47,3.47,0,1,0-1,0v5.89a.5.5,0,0,0,.17.37l4.44,4v10.09a.5.5,0,0,0,.5.5.5.5,0,0,0,.5-.5V152.49a.5.5,0,0,0-.17-.37Zm-3-9.08a2.47,2.47,0,1,1,2.47,2.47A2.48,2.48,0,0,1,244.68,139Z" fill="#231f20"/><path d="M255.12,141.67V121.15a3.47,3.47,0,1,0-1,0v20.72a.52.52,0,0,0,.14.36l2.31,2.31v18.27a.5.5,0,0,0,.5.5.5.5,0,0,0,.5-.5V144.33a.47.47,0,0,0-.15-.35Zm-3-23.94a2.47,2.47,0,1,1,2.47,2.47A2.48,2.48,0,0,1,252.15,117.73Z" fill="#231f20"/><path d="M272.9,126.44a3.47,3.47,0,1,0-4,3.41v12l-2.58,2.58a.53.53,0,0,0-.15.36v18a.5.5,0,0,0,.5.5.5.5,0,0,0,.5-.5V145l2.59-2.58a.5.5,0,0,0,.14-.35V129.86A3.48,3.48,0,0,0,272.9,126.44Zm-5.94,0a2.47,2.47,0,1,1,2.47,2.47A2.47,2.47,0,0,1,267,126.44Z" fill="#231f20"/><path d="M279.54,134.71a3.47,3.47,0,1,0-4,3.42v12.21l-5.19,5.23a.51.51,0,0,0-.15.35v6.92a.5.5,0,0,0,.5.5.5.5,0,0,0,.5-.5v-6.71l5.19-5.23a.53.53,0,0,0,.15-.35V138.13A3.47,3.47,0,0,0,279.54,134.71Zm-3.47,2.47a2.47,2.47,0,1,1,2.47-2.47A2.48,2.48,0,0,1,276.07,137.18Z" fill="#231f20"/><path d="M103.35,158.06a4.38,4.38,0,1,0,4.38-4.39A4.39,4.39,0,0,0,103.35,158.06Z" fill="#fdd600"/><path d="M123.39,125.71a.51.51,0,0,1,.2,0l5,2.17-5.17-9.49-5,9.48,4.76-2.16A.49.49,0,0,1,123.39,125.71Z" fill="#fdd600"/><circle cx="123.39" cy="158.1" r="4.38" fill="#fdd600"/><circle cx="138.75" cy="158.09" r="4.38" fill="#fdd600"/><path d="M137.5,151c0-6.49-.07-6.56-.41-6.73-4.38-2.22-14.61-7.41-15-8.63V125.22l5.62,2.45a.51.51,0,0,0,.57-.12.48.48,0,0,0,.07-.58l-6.31-11.59a.48.48,0,0,0-.43-.26h0a.52.52,0,0,0-.44.27L115.11,127a.48.48,0,0,0,.08.57.5.5,0,0,0,.57.12l5.36-2.43v10.27s0,.06,0,.1c-.23,1.18-10.32,6.22-15.17,8.65-.34.16-.45.23-.41,6.71a5.39,5.39,0,1,0,1,0c0-2.16,0-5.13.08-5.94,9.05-4.53,13-6.71,14.52-8v14a5.41,5.41,0,1,0,1,0V137.08c1.59,1.31,5.46,3.49,14.31,8,.07.81.08,3.78.07,5.95a5.38,5.38,0,1,0,1,0Zm-27.14,5.3a4.39,4.39,0,1,1-4.38-4.39A4.39,4.39,0,0,1,110.36,156.31Zm11.28-39.63,5.17,9.49-5-2.17a.51.51,0,0,0-.2,0,.49.49,0,0,0-.21,0l-4.76,2.16ZM126,156.35a4.39,4.39,0,1,1-4.39-4.38A4.39,4.39,0,0,1,126,156.35Zm11,4.37a4.38,4.38,0,1,1,4.38-4.38A4.39,4.39,0,0,1,137,160.72Z" fill="#231f20"/><path d="M208.47,139.61a7.46,7.46,0,0,0-3.69,1,.53.53,0,0,1-.46,0,.55.55,0,0,1-.3-.35,12.88,12.88,0,0,0-25.21,1.19.52.52,0,0,1-.62.43,6.55,6.55,0,0,0-7.56,8.62l44.41,0a7.43,7.43,0,0,0-6.57-10.94Z" fill="#fdd600"/><path d="M206.72,136.83a8.41,8.41,0,0,0-3.62.82,13.91,13.91,0,0,0-27,1.39A7,7,0,0,0,175,139a7.57,7.57,0,0,0-7.56,7.56,7.48,7.48,0,0,0,.6,2.95.51.51,0,0,0,.47.31l45.06.05h0a.51.51,0,0,0,.44-.26,8.46,8.46,0,0,0-7.31-12.74Zm6.57,12-44.41,0a6.53,6.53,0,0,1,7.56-8.62.52.52,0,0,0,.62-.43,12.88,12.88,0,0,1,25.21-1.19.55.55,0,0,0,.3.35.53.53,0,0,0,.46,0,7.44,7.44,0,0,1,10.26,10Z" fill="#231f20"/><path d="M211.44,371.8c-4-2.55-9.8-.29-14,1.79a7.16,7.16,0,0,0-3.07-3c1.48-1.71,3.78-2.5,5.82-3.18,2.85-.95,5.54-1.85,5-5-1-5.45-7.5-9.56-15.2-9.56s-12.79,3.69-13.23,9.41c-.37,4.71,4.34,8.72,8.1,11.4a7,7,0,0,0-.81,3.28c0,.24,0,.47,0,.7-2.25-.44-4.08-2.07-5.7-3.53-2.23-2-4.34-3.91-6.83-1.85-4.28,3.52-4.65,11.23-.86,17.94,2.82,5,6.81,7.78,10.84,7.78a9,9,0,0,0,3.85-.88c4.66-2.17,5.62-10.15,5.93-13.07a7.15,7.15,0,0,0,3.9-1.25c.9,2.14.59,4.67.31,6.92-.39,3.15-.76,6.11,2.33,7.13a8.51,8.51,0,0,0,2.66.42c4.7,0,9.91-3.6,13-9.27C217.05,381.23,216.26,374.9,211.44,371.8Zm-13.31,24c-2.2-.72-2.07-2.67-1.65-6.05.31-2.43.65-5.18-.44-7.6a7.13,7.13,0,0,0,2.24-5.19c0-.17,0-.33,0-.49s0-.35-.05-.52,0-.26-.06-.39a7.18,7.18,0,0,0-.29-1.06v0c4-2,9.49-4.15,13.06-1.85,4.35,2.79,5,8.6,1.67,14.79C209.14,393.8,202.94,397.4,198.13,395.82Zm-26.6-6.17c-3.55-6.29-3.28-13.46.62-16.68a2.42,2.42,0,0,1,1.56-.65c1.15,0,2.34,1,4,2.47,1.79,1.62,3.81,3.45,6.48,3.84a7,7,0,0,0,6.11,5.41c-.32,2.93-1.28,10.2-5.34,12.09C180.24,398.32,175,395.78,171.53,389.65Zm6.19-27.37c.4-5.16,5.2-8.49,12.24-8.49,7.22,0,13.33,3.75,14.22,8.74.4,2.22-1.29,2.9-4.3,3.91-2.26.76-4.82,1.61-6.47,3.69a6.39,6.39,0,0,0-2.26-.41,7.16,7.16,0,0,0-5.82,3C181.79,370.2,177.4,366.45,177.72,362.28Zm19.54,14.6a6.12,6.12,0,1,1-6.12-6.09A6.12,6.12,0,0,1,197.26,376.88Z" fill="#231f20"/><path d="M347.12,157.37a.5.5,0,0,1-.5.5H319.86a.5.5,0,0,1-.5-.5v-4.32h-4.44v8.65h36.63v-8.65h-4.43Z" fill="#fdd600"/><path d="M330,127.36a.48.48,0,0,1,.54-.11.5.5,0,0,1,.31.46v24.34h4.5V127.71a.5.5,0,0,1,.31-.46.47.47,0,0,1,.54.11l5.31,5.3,3.17-3.19-10.3-10.3a1.77,1.77,0,0,0-1.27-.51,1.73,1.73,0,0,0-1.29.51L321.1,129.91l3.16,3.19Z" fill="#fdd600"/><path d="M350.3,150.3h-5.43a.5.5,0,0,0-.5.5v4.32H318.61V150.8a.51.51,0,0,0-.5-.5h-5.44a.5.5,0,0,0-.5.5v9.65a.5.5,0,0,0,.5.5H350.3a.5.5,0,0,0,.5-.5V150.8A.5.5,0,0,0,350.3,150.3Zm-.5,9.65H313.17V151.3h4.44v4.32a.5.5,0,0,0,.5.5h26.76a.5.5,0,0,0,.5-.5V151.3h4.43Z" fill="#231f20"/><path d="M322.16,132.41a.47.47,0,0,0,.35.15c.17,0,.26-.05.36-.15l5.24-5.24V150.8a.5.5,0,0,0,.5.5h5.5a.5.5,0,0,0,.5-.5V127.17l4.81,4.8a.47.47,0,0,0,.35.15h0a.47.47,0,0,0,.35-.15l3.88-3.9a.51.51,0,0,0,0-.71l-10.65-10.65a2.86,2.86,0,0,0-4,0L318.29,127.8a.5.5,0,0,0,0,.71Zm7.92-15a1.73,1.73,0,0,1,1.29-.51,1.77,1.77,0,0,1,1.27.51l10.3,10.3-3.17,3.19-5.31-5.3a.47.47,0,0,0-.54-.11.5.5,0,0,0-.31.46V150.3h-4.5V126a.5.5,0,0,0-.31-.46.47.47,0,0,0-.54.11l-5.75,5.74-3.17-3.19Z" fill="#231f20"/><path d="M403,152.05a1.8,1.8,0,0,0,1.28-.51L415,140.8l-3.17-3.19-5.74,5.74a.49.49,0,0,1-.55.11.51.51,0,0,1-.3-.46V118.66h-4.5V143a.5.5,0,0,1-.31.46.51.51,0,0,1-.55-.11l-5.3-5.3-3.17,3.19,10.3,10.3A1.73,1.73,0,0,0,403,152.05Z" fill="#fdd600"/><path d="M417.12,157.37a.5.5,0,0,1-.5.5H389.86a.5.5,0,0,1-.5-.5v-4.32h-4.44v8.65h36.63v-8.65h-4.43Z" fill="#fdd600"/><path d="M420.3,150.3h-5.43a.5.5,0,0,0-.5.5v4.32H388.61V150.8a.51.51,0,0,0-.5-.5h-5.44a.5.5,0,0,0-.5.5v9.65a.5.5,0,0,0,.5.5H420.3a.5.5,0,0,0,.5-.5V150.8A.5.5,0,0,0,420.3,150.3Zm-.5,9.65H383.17V151.3h4.44v4.32a.5.5,0,0,0,.5.5h26.76a.5.5,0,0,0,.5-.5V151.3h4.43Z" fill="#231f20"/><path d="M399.28,150.5a2.72,2.72,0,0,0,1.93.8h.05a2.88,2.88,0,0,0,2-.8l11.09-11.09a.5.5,0,0,0,0-.71l-3.87-3.9a.47.47,0,0,0-.35-.15h0a.49.49,0,0,0-.35.15L404.52,140V116.41a.5.5,0,0,0-.5-.5h-5.5a.5.5,0,0,0-.5.5V140l-4.81-4.8a.47.47,0,0,0-.35-.15h0a.49.49,0,0,0-.36.15l-3.87,3.9a.51.51,0,0,0,0,.71Zm-6.42-14.2,5.3,5.3a.51.51,0,0,0,.55.11.5.5,0,0,0,.31-.46V116.91h4.5v24.34a.51.51,0,0,0,.3.46.49.49,0,0,0,.55-.11l5.74-5.74,3.17,3.19-10.74,10.74a1.8,1.8,0,0,1-1.28.51,1.73,1.73,0,0,1-1.27-.51l-10.3-10.3Z" fill="#231f20"/><path d="M130.34,204.77v-1h-.75v-7.54H106v46.2h34.49V204.77ZM128,218l-3.92-3.92a.5.5,0,0,0-.85.36v18.26h-3.15V214.48a.51.51,0,0,0-.86-.36L115,218.37l-2.22-2.23,8-8a1.28,1.28,0,0,1,1.76,0l7.69,7.69Z" fill="#fdd600"/><path d="M139.58,203.77l-10.14-10.14a.47.47,0,0,0-.35-.15H103.74a.5.5,0,0,0-.5.5v47.2a.51.51,0,0,0,.5.5h35.49a.51.51,0,0,0,.5-.5V204.12A.47.47,0,0,0,139.58,203.77Zm-1.56,0h-8.43v-8.44Zm-33.78-9.29h24.35v9.79a.5.5,0,0,0,.5.5h9.64v35.91H104.24Z" fill="#231f20"/><path d="M123.24,207.41a2.26,2.26,0,0,0-3.17,0l-8.38,8.37a.51.51,0,0,0,0,.71l2.93,2.95a.5.5,0,0,0,.35.14.41.41,0,0,0,.35-.14l3.76-3.76v17.56a.5.5,0,0,0,.5.5h4.15a.51.51,0,0,0,.5-.5V215.68l3.42,3.42a.47.47,0,0,0,.35.15h0a.49.49,0,0,0,.36-.15l2.92-2.95a.48.48,0,0,0,0-.7ZM128,218l-3.92-3.92a.5.5,0,0,0-.85.36v18.26h-3.15V214.48a.51.51,0,0,0-.86-.36L115,218.37l-2.22-2.23,8-8a1.28,1.28,0,0,1,1.76,0l7.69,7.69Z" fill="#231f20"/><path d="M352.11,357.93H314.36a3.5,3.5,0,0,0-3.5,3.5V392a3.5,3.5,0,0,0,3.5,3.5h37.75a3.5,3.5,0,0,0,3.5-3.5V361.43A3.5,3.5,0,0,0,352.11,357.93Zm-1.91,31.62H313v-24H350.2Z" fill="#fdd600"/><path d="M337.56,385a.51.51,0,0,0,.36.15.49.49,0,0,0,.35-.15l7.21-7.2a.5.5,0,0,0,.14-.35.52.52,0,0,0-.14-.36l-7.21-7.2a.5.5,0,0,0-.71,0,.5.5,0,0,0,0,.7l6.86,6.86-6.86,6.85A.5.5,0,0,0,337.56,385Z" fill="#231f20"/><path d="M324.45,385a.49.49,0,0,0,.35.15.51.51,0,0,0,.36-.15.5.5,0,0,0,0-.7l-6.85-6.85,6.85-6.86a.5.5,0,0,0,0-.7.5.5,0,0,0-.71,0l-7.21,7.2a.52.52,0,0,0-.14.36.5.5,0,0,0,.14.35Z" fill="#231f20"/><path d="M330.07,383.25l.13,0a.5.5,0,0,0,.48-.37l2.93-11.25a.5.5,0,1,0-1-.25l-2.93,11.24A.5.5,0,0,0,330.07,383.25Z" fill="#231f20"/><path d="M350.36,355.18H312.61a4.51,4.51,0,0,0-4.5,4.5v30.59a4.51,4.51,0,0,0,4.5,4.5h37.75a4.51,4.51,0,0,0,4.5-4.5V359.68A4.51,4.51,0,0,0,350.36,355.18Zm3.5,35.09a3.5,3.5,0,0,1-3.5,3.5H312.61a3.5,3.5,0,0,1-3.5-3.5V359.68a3.5,3.5,0,0,1,3.5-3.5h37.75a3.5,3.5,0,0,1,3.5,3.5Z" fill="#231f20"/><path d="M350.7,364.56H312.52a.51.51,0,0,0-.5.5v25a.51.51,0,0,0,.5.5H350.7a.51.51,0,0,0,.5-.5v-25A.51.51,0,0,0,350.7,364.56Zm-.5,25H313v-24H350.2Z" fill="#231f20"/><path d="M313.53,361.87a1.12,1.12,0,1,0-1.13-1.12A1.12,1.12,0,0,0,313.53,361.87Z" fill="#231f20"/><path d="M317.94,361.87a1.12,1.12,0,1,0-1.12-1.12A1.12,1.12,0,0,0,317.94,361.87Z" fill="#231f20"/><path d="M322.08,361.85a1.13,1.13,0,1,0-1.12-1.12A1.13,1.13,0,0,0,322.08,361.85Z" fill="#231f20"/><path d="M421.14,365.32a.13.13,0,0,0,0-.06A.46.46,0,0,0,421,365l-13.2-13.2a.48.48,0,0,0-.22-.12H385.83a.5.5,0,0,0-.5.5v46.32a.5.5,0,0,0,.5.5h34.83a.5.5,0,0,0,.5-.5V365.38A.14.14,0,0,0,421.14,365.32ZM386.33,398V352.69H407v12.69a.5.5,0,0,0,.5.5h12.7V398ZM408,364.88V353.39l11.49,11.49Z" fill="#231f20"/><path d="M392.69,364h1.82l1.67,3.13h1.1V367l-1.82-3.28a2.25,2.25,0,0,0,1.09-.8,2,2,0,0,0,.39-1.25,2.13,2.13,0,0,0-.71-1.73,3,3,0,0,0-2-.6h-2.56v7.73h1Zm0-3.76h1.56a1.84,1.84,0,0,1,1.24.38,1.43,1.43,0,0,1,.42,1.1,1.38,1.38,0,0,1-.44,1.06,1.8,1.8,0,0,1-1.21.39h-1.57Z" fill="#231f20"/><polygon points="398.97 367.08 400.88 364.07 402.78 367.08 403.99 367.08 401.49 363.19 403.93 359.36 402.73 359.36 400.88 362.32 399.02 359.36 397.83 359.36 400.27 363.19 397.77 367.08 398.97 367.08" fill="#231f20"/><path d="M415.6,371.79H391.87a.5.5,0,0,0,0,1H415.6a.5.5,0,0,0,0-1Z" fill="#231f20"/><path d="M415.6,377H391.87a.5.5,0,0,0-.5.5.5.5,0,0,0,.5.5H415.6a.5.5,0,0,0,.5-.5A.5.5,0,0,0,415.6,377Z" fill="#231f20"/><path d="M415.6,382.79H391.87a.5.5,0,0,0,0,1H415.6a.5.5,0,0,0,0-1Z" fill="#231f20"/><path d="M415.6,388H391.87a.5.5,0,0,0-.5.5.5.5,0,0,0,.5.5H415.6a.5.5,0,0,0,.5-.5A.5.5,0,0,0,415.6,388Z" fill="#231f20"/><path d="M102.3,457.65h26l-.24-.41a.5.5,0,0,1,.17-.69l6.65-4a.55.55,0,0,1,.38-.05.5.5,0,0,1,.31.22l3,4.94h2.09v-23H102.3Z" fill="none"/><path d="M135.15,465.15a2.42,2.42,0,0,0,2.08,1.18,2.46,2.46,0,0,0,1.25-.35,2.39,2.39,0,0,0,1.1-1.5,2.36,2.36,0,0,0-.13-1.53h-1.19a1.9,1.9,0,0,1,.19.21,1.37,1.37,0,0,1,.16,1.08,1.39,1.39,0,0,1-.65.88,1.43,1.43,0,0,1-2-.48,1.46,1.46,0,0,1-.16-1.08,1.38,1.38,0,0,1,.35-.61H135a2.32,2.32,0,0,0-.13.37A2.4,2.4,0,0,0,135.15,465.15Z" fill="none"/><path d="M136.49,462.68a1.41,1.41,0,0,1,.74-.21,2,2,0,0,1,.34,0,1.44,1.44,0,0,1,.69.44h1.19a1.64,1.64,0,0,0-.14-.3,2.44,2.44,0,0,0-1.5-1.11,2.47,2.47,0,0,0-1.84.28,2.43,2.43,0,0,0-1,1.13h1.19A1.29,1.29,0,0,1,136.49,462.68Z" fill="#fdd600"/><path d="M132.75,457.82a.87.87,0,0,0-1.19-.29.91.91,0,0,0-.39.53.89.89,0,0,0,.1.66.88.88,0,0,0,.74.41.92.92,0,0,0,.45-.12A.88.88,0,0,0,132.75,457.82Z" fill="#fdd600"/><path d="M134.28,460.37a.85.85,0,0,0-1.18-.29.84.84,0,0,0-.39.53.82.82,0,0,0,.1.65.85.85,0,0,0,.74.42.86.86,0,0,0,.74-1.31Z" fill="#fdd600"/><path d="M100.63,432.8V463h17.42v4h6.87v-4h7.79l-3.5-5.8,5.8-3.49L140.6,463h5.24V432.8Zm40,24.85h-2.09l-3-4.94a.5.5,0,0,0-.31-.22.55.55,0,0,0-.38.05l-6.65,4a.5.5,0,0,0-.17.69l.24.41h-26v-23h38.37Z" fill="#fdd600"/><path d="M134.19,456a.89.89,0,0,0-.4.53.86.86,0,0,0,.1.65.88.88,0,0,0,.54.4l.2,0a.89.89,0,0,0,.45-.12.86.86,0,0,0,.29-1.19h0a.91.91,0,0,0-.53-.39A.82.82,0,0,0,134.19,456Z" fill="#fdd600"/><path d="M135.33,459a.82.82,0,0,0,.1.65.89.89,0,0,0,.53.4l.21,0a.83.83,0,0,0,.44-.12.88.88,0,0,0,.3-1.19h0a.84.84,0,0,0-.53-.39.85.85,0,0,0-.66.1A.91.91,0,0,0,135.33,459Z" fill="#fdd600"/><path d="M125.82,453.22l.15,0a.5.5,0,0,0,.48-.35,5.39,5.39,0,0,1,6.09-3.66.51.51,0,0,0,.58-.41.51.51,0,0,0-.41-.58,6.4,6.4,0,0,0-7.21,4.35A.5.5,0,0,0,125.82,453.22Z" fill="#fdd600"/><path d="M131.88,450.63A3.46,3.46,0,0,0,128,453a.5.5,0,0,0,.33.63.39.39,0,0,0,.15,0,.5.5,0,0,0,.48-.34,2.43,2.43,0,0,1,1.06-1.35,2.57,2.57,0,0,1,1.7-.32.49.49,0,0,0,.58-.4A.51.51,0,0,0,131.88,450.63Z" fill="#fdd600"/><path d="M144.59,430.05H98.38a.5.5,0,0,0-.5.5V461.7a.5.5,0,0,0,.5.5h18.67V467h-8.89a.5.5,0,0,0,0,1h26.66a.5.5,0,0,0,0-1h-8.9V462.2h5.17l-.61-1H98.88V431.05h45.21V461.2h-3.37l.6,1h3.27a.5.5,0,0,0,.5-.5V430.55A.5.5,0,0,0,144.59,430.05ZM124.92,467h-6.87V462.2h6.87Z" fill="#231f20"/><path d="M141.67,458.15v-24a.5.5,0,0,0-.5-.5H101.8a.5.5,0,0,0-.5.5v24a.51.51,0,0,0,.5.5H129l-.61-1h-26v-23h38.37v23h-2.09l.6,1h2A.5.5,0,0,0,141.67,458.15Z" fill="#231f20"/><path d="M140.72,461.2l-1.54-2.55-.6-1-3-4.94a.5.5,0,0,0-.31-.22.55.55,0,0,0-.38.05l-6.65,4a.5.5,0,0,0-.17.69l.24.41.61,1,1.53,2.55.61,1L134,467h.87a.5.5,0,0,1,0,1h-.27l1.23,2a.5.5,0,0,0,.31.22l.12,0a.52.52,0,0,0,.25-.07l6.66-4a.51.51,0,0,0,.17-.69l-2-3.26Zm-11.51-4.05,5.8-3.49,7.16,11.89L136.38,469Z" fill="#231f20"/><path d="M134.43,457.53l.2,0a.89.89,0,0,0,.45-.12.86.86,0,0,0,.29-1.19h0a.91.91,0,0,0-.53-.39.82.82,0,0,0-.65.1.89.89,0,0,0-.4.53.86.86,0,0,0,.1.65A.88.88,0,0,0,134.43,457.53Z" fill="#231f20"/><path d="M132.46,459a.88.88,0,0,0,.29-1.19.87.87,0,0,0-1.19-.29.91.91,0,0,0-.39.53.89.89,0,0,0,.1.66.88.88,0,0,0,.74.41A.92.92,0,0,0,132.46,459Z" fill="#231f20"/><path d="M136.38,458.4a.85.85,0,0,0-.66.1.91.91,0,0,0-.39.53.82.82,0,0,0,.1.65.89.89,0,0,0,.53.4l.21,0a.83.83,0,0,0,.44-.12.88.88,0,0,0,.3-1.19h0A.84.84,0,0,0,136.38,458.4Z" fill="#231f20"/><path d="M133.55,461.68a.86.86,0,0,0,.74-1.31h0a.85.85,0,0,0-1.18-.29.84.84,0,0,0-.39.53.82.82,0,0,0,.1.65A.85.85,0,0,0,133.55,461.68Z" fill="#231f20"/><path d="M138.48,466a2.44,2.44,0,0,0,.83-3.33,2.44,2.44,0,0,0-1.5-1.11,2.47,2.47,0,0,0-1.84.28,2.44,2.44,0,0,0-1.1,1.5,2.44,2.44,0,0,0,2.36,3A2.46,2.46,0,0,0,138.48,466ZM136,464.64a1.46,1.46,0,0,1-.16-1.08,1.39,1.39,0,0,1,.65-.88,1.41,1.41,0,0,1,.74-.21,2,2,0,0,1,.34,0,1.49,1.49,0,0,1,.88.65,1.37,1.37,0,0,1,.16,1.08,1.39,1.39,0,0,1-.65.88A1.43,1.43,0,0,1,136,464.64Z" fill="#231f20"/><path d="M132.71,448.24a6.4,6.4,0,0,0-7.21,4.35.5.5,0,0,0,.32.63l.15,0a.5.5,0,0,0,.48-.35,5.39,5.39,0,0,1,6.09-3.66.51.51,0,0,0,.58-.41A.51.51,0,0,0,132.71,448.24Z" fill="#231f20"/><path d="M131.88,450.63A3.46,3.46,0,0,0,128,453a.5.5,0,0,0,.33.63.39.39,0,0,0,.15,0,.5.5,0,0,0,.48-.34,2.43,2.43,0,0,1,1.06-1.35,2.57,2.57,0,0,1,1.7-.32.49.49,0,0,0,.58-.4A.51.51,0,0,0,131.88,450.63Z" fill="#231f20"/><path d="M457.73,134.63h-2.08a.5.5,0,0,1-.5-.5v-4.41a2.2,2.2,0,0,1,2.2-2.19H489.3a2.19,2.19,0,0,1,2.19,2.19v3.91h2.37v-5.8a2.81,2.81,0,0,0-2.81-2.81H455.6a2.81,2.81,0,0,0-2.81,2.81v6.3a.5.5,0,0,1-.5.5h-2l3.72,6.45Z" fill="#fdd600"/><path d="M488.91,145.51H491a.5.5,0,0,1,.5.5v4.41a2.2,2.2,0,0,1-2.19,2.19H457.35a2.2,2.2,0,0,1-2.2-2.19v-3.91h-2.36v5.8a2.81,2.81,0,0,0,2.81,2.81h35.45a2.81,2.81,0,0,0,2.81-2.81V146a.5.5,0,0,1,.5-.5h2l-3.72-6.45Z" fill="#fdd600"/><path d="M452.46,141.08a.47.47,0,0,0,.43-.25l4.6-8a.5.5,0,0,0,0-.5.48.48,0,0,0-.43-.25h-2.45V128.2a1.19,1.19,0,0,1,1.19-1.2h32a1.19,1.19,0,0,1,1.19,1.2v4.42a.5.5,0,0,0,.5.5h3.37a.5.5,0,0,0,.5-.5V126.3a3.82,3.82,0,0,0-3.81-3.82H454.05a3.82,3.82,0,0,0-3.81,3.82v5.82h-2.38a.5.5,0,0,0-.43.75l4.6,8A.48.48,0,0,0,452.46,141.08Zm-1.72-8a.51.51,0,0,0,.5-.5V126.3a2.82,2.82,0,0,1,2.81-2.82h35.53a2.82,2.82,0,0,1,2.81,2.82v5.82H490V128.2a2.2,2.2,0,0,0-2.19-2.2h-32a2.2,2.2,0,0,0-2.19,2.2v4.42a.5.5,0,0,0,.5.5h2.08l-3.73,6.46-3.73-6.46Z" fill="#231f20"/><path d="M496.2,144.27l-4.6-8a.52.52,0,0,0-.87,0l-4.59,8a.5.5,0,0,0,.43.75H489v3.92a1.19,1.19,0,0,1-1.19,1.19h-32a1.19,1.19,0,0,1-1.19-1.19v-4.42a.5.5,0,0,0-.5-.5h-3.37a.5.5,0,0,0-.5.5v6.32a3.82,3.82,0,0,0,3.81,3.81h35.53a3.82,3.82,0,0,0,3.81-3.81V145h2.37a.52.52,0,0,0,.44-.25A.5.5,0,0,0,496.2,144.27Zm-3.31-.25a.5.5,0,0,0-.5.5v6.32a2.81,2.81,0,0,1-2.81,2.81H454.05a2.81,2.81,0,0,1-2.81-2.81V145h2.37v3.92a2.19,2.19,0,0,0,2.19,2.19h32a2.19,2.19,0,0,0,2.19-2.19v-4.42a.5.5,0,0,0-.5-.5h-2.09l3.74-6.46L494.9,144Z" fill="#231f20"/><path d="M449.4,215.48v19.15h47.43V215.48Zm31.5,14.71H451.1V216.25h29.8Zm10.43-.53h-6.86V217.2h6.86Z" fill="#fdd600"/><path d="M470.67,210.45a4.48,4.48,0,0,1,3.34-1.59l11.77.13a3.87,3.87,0,0,0,.29-7.72l-15.7,0a.5.5,0,0,0,0,1h0l15.65,0a2.87,2.87,0,0,1-.24,5.72L474,207.86a5.54,5.54,0,0,0-4.12,2,5.24,5.24,0,0,0-1.05,2.35h1A4.21,4.21,0,0,1,470.67,210.45Z" fill="#231f20"/><path d="M447.4,213a.5.5,0,0,0-.5.5v20.15a.5.5,0,0,0,.5.5h48.43a.5.5,0,0,0,.5-.5V213.48a.51.51,0,0,0-.5-.5H469.76a5.53,5.53,0,0,1,.11-.81h-1a6.68,6.68,0,0,0-.08.81Zm47.93,1v19.15H447.9V214Z" fill="#231f20"/><path d="M450.53,226.45v3.71a.5.5,0,0,0,.5.5h29.7a.5.5,0,0,0,.5-.5V216.7a.5.5,0,0,0-.5-.5H451a.5.5,0,0,0-.5.5V219h0v7.47Zm29.7,3.21h-6.42V227h6.42Zm-2.71-12.46h2.71v1.27h-2.71Zm0,2.32h2.71v2.71h-2.71Zm-.5,3.71h3.21V226h-6.42v-2.72H477Zm-3.21-6h2.71v1.27h-2.71Zm0,2.32h2.71v2.71H473.8Zm-1,6.43H470.1v-2.72h2.71Zm-2.71-8.75h2.71v1.27H470.1Zm0,2.32h2.7v2.71h-2.7Zm-3.71-2.32h2.7v1.27h-2.7Zm0,2.32h2.71v2.71h-2.71Zm2.71,3.71V226h-2.7v-2.72Zm-6.42-6h2.72v1.27h-2.72Zm0,2.32h2.71v2.71h-2.71Zm2.72,3.71V226h-2.72v-2.72Zm.5,3.72h6.91v2.71H459V227h6.93ZM459,226v-2.72h2.71V226Zm0-8.75h2.71v1.27H459Zm0,2.32h2.71v2.71H459Zm-4.71,10.14h-2.72V227h2.72Zm3.71,0h-2.71V227H458Zm-2.71-12.46H458v1.27h-2.71Zm0,2.32H458v2.71h-2.72Zm2.72,3.71V226h-6.43v-2.72H458Zm-6.43-6h2.72v1.27h-2.72Zm0,2.32h2.71v2.71h-2.71Z" fill="#231f20"/><path d="M484.4,230.66h7.43a.5.5,0,0,0,.5-.5V219h0v-2.26a.51.51,0,0,0-.5-.5H484.4a.51.51,0,0,0-.5.5V219h0v11.14A.5.5,0,0,0,484.4,230.66Zm4.22-13.41h2.71v1.27h-2.71Zm0,2.27h2.71v2.71h-2.71Zm0,3.71h2.71V226h-2.71Zm0,3.72h2.71v2.71h-2.71Zm-3.72-9.7h2.71v1.27H484.9Zm0,2.27h2.72v2.72H484.9Zm0,3.72h2.72V226H484.9Zm0,3.71h2.72v2.71H484.9Z" fill="#231f20"/><path d="M422.69,231.54V203.92H383.54v27.62h-4.07V233a1.51,1.51,0,0,0,1.51,1.51h44.26a1.51,1.51,0,0,0,1.51-1.51v-1.43ZM417,225.41H386.19V206.05H417Z" fill="#fdd600"/><path d="M417.53,205.05H385.69a.51.51,0,0,0-.5.5v20.36a.51.51,0,0,0,.5.5h31.84a.51.51,0,0,0,.5-.5V205.55A.51.51,0,0,0,417.53,205.05Zm-.5,20.36H386.19V206.05H417Z" fill="#231f20"/><path d="M425.75,229h-3.56V201.92a.51.51,0,0,0-.5-.5H381.54a.5.5,0,0,0-.5.5V229h-3.57a.5.5,0,0,0-.5.5v1.94a2.5,2.5,0,0,0,2.5,2.5h44.28a2.5,2.5,0,0,0,2.5-2.5v-1.94A.5.5,0,0,0,425.75,229ZM382,202.42h39.15V229H382Zm43.21,29.06a1.5,1.5,0,0,1-1.5,1.5H379.47a1.5,1.5,0,0,1-1.5-1.5V230h47.28Z" fill="#231f20"/><path d="M335.54,230.59h20.74V198.67H309.94v31.92h21.24v6.6h-8.95v2.54H344v-2.54h-9v-6.6Zm-23.34-6.47V201H351v23.13Z" fill="#fdd600"/><path d="M355.21,196.17H308a.58.58,0,0,0-.57.58v32.76a.58.58,0,0,0,.57.58h20.67v5.06h-8.45a.5.5,0,0,0-.5.5v3.08a.5.5,0,0,0,.5.5H343a.5.5,0,0,0,.5-.5v-3.08a.5.5,0,0,0-.5-.5h-8.46v-5.06h20.67a.57.57,0,0,0,.57-.58V196.75A.57.57,0,0,0,355.21,196.17ZM342.5,238.23H320.73v-2.08H342.5Zm-9-3.08h-3.86v-5.06h3.86Zm21.24-6.06H308.44V197.17h46.34Z" fill="#231f20"/><path d="M351.52,200H311.7a.5.5,0,0,0-.5.5v24.13a.51.51,0,0,0,.5.5h39.82a.51.51,0,0,0,.5-.5V200.49A.5.5,0,0,0,351.52,200Zm-.5,24.13H312.2V201H351Z" fill="#231f20"/><circle cx="331.61" cy="227.04" r="1.07" fill="#231f20"/><circle cx="262.36" cy="203.87" r="2.18" fill="#fdd600"/><path d="M270.75,241.6v-.06h0L263,206.33a3.18,3.18,0,1,0-2.4,0l-7.72,35.23h0v.06a.56.56,0,0,0,0,.13l0,.09a.36.36,0,0,0,0,.09.39.39,0,0,0,.08.1l.05,0h0a.61.61,0,0,0,.18.09h.11a.46.46,0,0,0,.2-.05l0,0a.69.69,0,0,0,.13-.11s0,0,0,0l8-10.89,8,10.89s0,0,0,0a.69.69,0,0,0,.13.11l.05,0a.46.46,0,0,0,.2.05h.11a.51.51,0,0,0,.18-.09h0s0,0,0,0a.39.39,0,0,0,.08-.1.36.36,0,0,0,0-.09.32.32,0,0,0,0-.09A.56.56,0,0,0,270.75,241.6Zm-6.7-38.23a2.19,2.19,0,1,1-2.19-2.19A2.19,2.19,0,0,1,264.05,203.37Zm-2.19,3.18.18,0,3.73,17h-7.9l3.73-17Zm3.54,18-3.58,4.85-3.58-4.85Zm-11,14.95,3.13-14.27,3.7,5Zm11.77-14.27,3.13,14.27-6.83-9.26Z" fill="#231f20"/><path d="M261.82,198.39a.5.5,0,0,0,.5-.5v-3.64a.5.5,0,0,0-1,0v3.64A.5.5,0,0,0,261.82,198.39Z" fill="#231f20"/><path d="M257.61,199.88a.5.5,0,0,0,.35.14.52.52,0,0,0,.35-.14.5.5,0,0,0,0-.71l-2.57-2.57a.48.48,0,0,0-.7,0,.5.5,0,0,0,0,.71Z" fill="#231f20"/><path d="M256.88,203.41a.5.5,0,0,0-.5-.5h-3.63a.5.5,0,0,0,0,1h3.63A.5.5,0,0,0,256.88,203.41Z" fill="#231f20"/><path d="M257.66,206.92l-2.57,2.57a.5.5,0,0,0,0,.7.51.51,0,0,0,.36.15.5.5,0,0,0,.35-.15l2.57-2.57a.5.5,0,0,0,0-.7A.5.5,0,0,0,257.66,206.92Z" fill="#231f20"/><path d="M265.41,206.86a.51.51,0,0,0,0,.71l2.57,2.57a.52.52,0,0,0,.71,0,.51.51,0,0,0,0-.71l-2.57-2.57A.5.5,0,0,0,265.41,206.86Z" fill="#231f20"/><path d="M271,202.83h-3.63a.5.5,0,0,0-.5.5.5.5,0,0,0,.5.5H271a.5.5,0,0,0,.5-.5A.5.5,0,0,0,271,202.83Z" fill="#231f20"/><path d="M265.71,200a.47.47,0,0,0,.35-.14l2.57-2.57a.5.5,0,0,0,0-.71.51.51,0,0,0-.71,0l-2.57,2.57a.51.51,0,0,0,0,.71A.5.5,0,0,0,265.71,200Z" fill="#231f20"/><path d="M190.31,209.71a11,11,0,0,0-15.43,0,11.36,11.36,0,0,0-3.11,8.76V230a10.82,10.82,0,0,0,21.64,0V218.09A11.12,11.12,0,0,0,190.31,209.71Z" fill="#fdd600"/><path d="M214.14,235.08a.49.49,0,0,0-.54.46,6.21,6.21,0,0,1-5.31,5.93,5.83,5.83,0,0,1-4.4-1.52,6.58,6.58,0,0,1-2.2-4.81V205.59a11.53,11.53,0,0,0-3.26-8.94,10.26,10.26,0,0,0-7.85-3.23c-5.25.28-9.62,5-10,10.56a12,12,0,0,0-11.5,12v12.54a12,12,0,0,0,23.94,0V215.93a12,12,0,0,0-11.44-12c.33-5.06,4.28-9.31,9-9.56a9.37,9.37,0,0,1,7.09,2.93,10.57,10.57,0,0,1,3,8.2v29.6a7.58,7.58,0,0,0,2.53,5.55,6.89,6.89,0,0,0,4.55,1.8c.21,0,.41,0,.62,0a7.23,7.23,0,0,0,6.21-6.86A.49.49,0,0,0,214.14,235.08ZM180.59,205v10.45H170.14A11,11,0,0,1,180.59,205Zm.5,34.46a11,11,0,0,1-11-11v-12h21.94v12A11,11,0,0,1,181.09,239.44Zm10.95-24H181.59V205A11,11,0,0,1,192,215.43Z" fill="#231f20"/><rect x="101.62" y="309.37" width="40.8" height="7.03" fill="none"/><path d="M124.11,291.15H112.7L102,308.37h40l-10.69-17.22h-7.23ZM118,304.69a1.13,1.13,0,0,1-1.13,1.13h-.34a1.14,1.14,0,0,1-1.13-1.13v-.35a1.13,1.13,0,0,1,1.13-1.12h.34a1.12,1.12,0,0,1,1.13,1.12Zm0-4.81a1.13,1.13,0,0,1-1.13,1.13h-.34a1.14,1.14,0,0,1-1.13-1.13v-.34a1.13,1.13,0,0,1,1.13-1.13h.34a1.12,1.12,0,0,1,1.13,1.13Zm0-4.81a1.13,1.13,0,0,1-1.13,1.13h-.34a1.14,1.14,0,0,1-1.13-1.13v-.34a1.13,1.13,0,0,1,1.13-1.13h.34a1.12,1.12,0,0,1,1.13,1.13Zm4.93,9.62a1.13,1.13,0,0,1-1.13,1.13h-.34a1.14,1.14,0,0,1-1.13-1.13v-.35a1.13,1.13,0,0,1,1.13-1.12h.34a1.12,1.12,0,0,1,1.13,1.12Zm0-4.81a1.13,1.13,0,0,1-1.13,1.13h-.34a1.14,1.14,0,0,1-1.13-1.13v-.34a1.13,1.13,0,0,1,1.13-1.13h.34a1.12,1.12,0,0,1,1.13,1.13Zm0-4.81a1.13,1.13,0,0,1-1.13,1.13h-.34a1.14,1.14,0,0,1-1.13-1.13v-.34a1.13,1.13,0,0,1,1.13-1.13h.34a1.12,1.12,0,0,1,1.13,1.13Zm4.94,9.62a1.14,1.14,0,0,1-1.13,1.13h-.35a1.14,1.14,0,0,1-1.13-1.13v-.35a1.13,1.13,0,0,1,1.13-1.12h.35a1.13,1.13,0,0,1,1.13,1.12Zm0-4.81a1.14,1.14,0,0,1-1.13,1.13h-.35a1.14,1.14,0,0,1-1.13-1.13v-.34a1.13,1.13,0,0,1,1.13-1.13h.35a1.13,1.13,0,0,1,1.13,1.13Zm0-5.15v.34a1.14,1.14,0,0,1-1.13,1.13h-.35a1.14,1.14,0,0,1-1.13-1.13v-.34a1.13,1.13,0,0,1,1.13-1.13h.35A1.13,1.13,0,0,1,127.89,294.73Z" fill="none"/><path d="M143.93,310.91q-5.55-9.12-11.09-18.26H114.2q-5.53,9.14-11.08,18.26h0v7h40.81v-7Z" fill="#fdd600"/><path d="M134,281.94a.5.5,0,0,1,.42.49l.05,4.2a2.09,2.09,0,0,0,.57,1.26,2.21,2.21,0,0,0,1.55.62l7.92,0a1.84,1.84,0,0,0,2-1.62c0-2-.08-5.41-.13-5.74a9,9,0,0,0-3-4.43,11.83,11.83,0,0,0-5.32-2.46,63.93,63.93,0,0,0-15.29-1.93h-.25a63.45,63.45,0,0,0-13.84,1.52,13.12,13.12,0,0,0-5.86,2.94,10.16,10.16,0,0,0-3,4.49c0,.3-.08,3.67-.1,5.71a1.47,1.47,0,0,0,.56,1.11,2.19,2.19,0,0,0,1.42.5h0l8.16,0a1.66,1.66,0,0,0,1.15-.55,1.5,1.5,0,0,0,.36-.87v-4.8a.51.51,0,0,1,.42-.5,66.29,66.29,0,0,1,11.35-.86A67.3,67.3,0,0,1,134,281.94Z" fill="#fdd600"/><rect x="115.42" y="293.6" width="2.6" height="2.6" rx="1.13" fill="#231f20"/><rect x="120.35" y="293.6" width="2.6" height="2.6" rx="1.13" fill="#231f20"/><rect x="125.28" y="293.6" width="2.6" height="2.6" rx="1.13" fill="#231f20"/><rect x="115.42" y="298.41" width="2.6" height="2.6" rx="1.13" fill="#231f20"/><rect x="120.35" y="298.41" width="2.6" height="2.6" rx="1.13" fill="#231f20"/><rect x="125.28" y="298.41" width="2.6" height="2.6" rx="1.13" fill="#231f20"/><rect x="115.42" y="303.22" width="2.6" height="2.6" rx="1.13" fill="#231f20"/><rect x="120.35" y="303.22" width="2.6" height="2.6" rx="1.13" fill="#231f20"/><rect x="125.28" y="303.22" width="2.6" height="2.6" rx="1.13" fill="#231f20"/><path d="M131.89,281.36l.05,3.8v0a3,3,0,0,0,.86,1.89,3.22,3.22,0,0,0,2.28.92l7.91,0a2.81,2.81,0,0,0,3-2.62,53.08,53.08,0,0,0-.16-6,10,10,0,0,0-3.29-4.95,12.74,12.74,0,0,0-5.74-2.66,64.42,64.42,0,0,0-29.82-.41,14,14,0,0,0-6.31,3.16,11,11,0,0,0-3.24,4.92c0,.1-.12.29-.16,6a2.42,2.42,0,0,0,.91,1.87,3.18,3.18,0,0,0,2.07.74h0l8.17,0a2.66,2.66,0,0,0,1.9-.9,2.57,2.57,0,0,0,.6-1.48v-4.42a64.63,64.63,0,0,1,10.76-.78A66.09,66.09,0,0,1,131.89,281.36Zm-21.56-1a.51.51,0,0,0-.42.5v4.8a1.5,1.5,0,0,1-.36.87,1.66,1.66,0,0,1-1.15.55l-8.16,0h0a2.19,2.19,0,0,1-1.42-.5,1.46,1.46,0,0,1-.56-1.11c0-2,.06-5.41.1-5.7a10.13,10.13,0,0,1,3-4.5,13.12,13.12,0,0,1,5.86-2.94A63.45,63.45,0,0,1,121,270.81h.25a63.93,63.93,0,0,1,15.29,1.93,11.83,11.83,0,0,1,5.32,2.46,9,9,0,0,1,3,4.43c0,.33.11,3.7.13,5.74a1.84,1.84,0,0,1-2,1.62l-7.92,0a2.21,2.21,0,0,1-1.55-.62,2.09,2.09,0,0,1-.57-1.26l-.05-4.2a.5.5,0,0,0-.42-.49,67.3,67.3,0,0,0-10.79-1A66.29,66.29,0,0,0,110.33,280.34Z" fill="#231f20"/><path d="M143.42,308.87v0a.66.66,0,0,0-.06-.2s0,0,0,0L132,290.39a.49.49,0,0,0-.42-.24h-3.93v-4.39a.51.51,0,0,0-.5-.5h-3.08a.51.51,0,0,0-.5.5v4.39h-3.18v-4.39a.5.5,0,0,0-.5-.5h-3.07a.5.5,0,0,0-.5.5v4.39h-3.93a.5.5,0,0,0-.43.24l-11.3,18.22a0,0,0,0,0,0,0,.47.47,0,0,0-.06.2s0,0,0,0h0v8a.51.51,0,0,0,.5.5h41.81a.51.51,0,0,0,.5-.5v-8Zm-18.81-22.61h2.08v3.89h-2.08v-3.89Zm-7.25,2.47v-2.47h2.07v3.89h-2.07Zm-4.66,2.42h18.64L142,308.37H102Zm29.73,25.26H101.62v-7h40.81Z" fill="#231f20"/><path d="M202.15,271.67H184.07a3.16,3.16,0,0,0-3.16,3.17v40a3.16,3.16,0,0,0,3.16,3.17h18.08a3.17,3.17,0,0,0,3.17-3.17v-40A3.17,3.17,0,0,0,202.15,271.67Zm-1.86,34.76H182.94V278.11h17.35Z" fill="#fdd600"/><path d="M200.69,269.67H182.53a4.13,4.13,0,0,0-4.12,4.13v40.12a4.13,4.13,0,0,0,4.12,4.13h18.16a4.14,4.14,0,0,0,4.13-4.13V273.8A4.14,4.14,0,0,0,200.69,269.67Zm3.13,44.25a3.13,3.13,0,0,1-3.13,3.13H182.53a3.13,3.13,0,0,1-3.12-3.13V273.8a3.13,3.13,0,0,1,3.12-3.13h18.16a3.13,3.13,0,0,1,3.13,3.13Z" fill="#231f20"/><path d="M200.79,277.11H182.44a.5.5,0,0,0-.5.5v29.32a.5.5,0,0,0,.5.5h18.35a.5.5,0,0,0,.5-.5V277.61A.5.5,0,0,0,200.79,277.11Zm-.5,29.32H182.94V278.11h17.35Z" fill="#231f20"/><path d="M191.61,309.63a2.44,2.44,0,1,0,2.44,2.44A2.44,2.44,0,0,0,191.61,309.63Z" fill="#231f20"/><path d="M189.11,274.34h5.13a.5.5,0,0,0,0-1h-5.13a.5.5,0,0,0,0,1Z" fill="#231f20"/><path d="M187,274.45a.61.61,0,0,0,.61-.61.61.61,0,0,0-.61-.61.62.62,0,0,0-.61.61A.61.61,0,0,0,187,274.45Z" fill="#231f20"/><circle cx="267.72" cy="279.48" r="6.61" fill="#fdd600"/><path d="M252.41,286.09a5.49,5.49,0,1,0-5.49-5.48A5.49,5.49,0,0,0,252.41,286.09Z" fill="#fdd600"/><polygon points="277.88 293.19 277.84 293.13 277.84 287.09 243.42 287.09 243.42 294.34 243.42 303.75 243.42 311 277.84 311 277.84 304.96 277.88 304.9 286.23 309.14 286.23 288.95 277.88 293.19" fill="#fdd600"/><path d="M285.48,286.15a.5.5,0,0,0-.5,0l-7.64,4.41v-5.47a.51.51,0,0,0-.5-.5H270a7.61,7.61,0,1,0-7.52,0h-8.11a6.49,6.49,0,1,0-6.88,0h-6.05a.5.5,0,0,0-.5.5v7.25H238a.51.51,0,0,0-.5.5v9.41a.5.5,0,0,0,.5.5h2.93V310a.5.5,0,0,0,.5.5h18.51l-7.05,6a.51.51,0,0,0-.06.71.52.52,0,0,0,.38.17.57.57,0,0,0,.33-.11l7.77-6.58,7.77,6.58a.56.56,0,0,0,.32.11.52.52,0,0,0,.39-.17.52.52,0,0,0-.06-.71l-7.06-6h14.18a.5.5,0,0,0,.5-.5v-5.47l7.64,4.41a.48.48,0,0,0,.5,0,.5.5,0,0,0,.25-.43V286.59A.52.52,0,0,0,285.48,286.15Zm-9.14,23.35H241.92V285.59h34.42Zm-37.85-16.16h2.43v8.41h-2.43ZM259.61,278a6.61,6.61,0,1,1,6.61,6.61A6.61,6.61,0,0,1,259.61,278Zm-14.19,1.13a5.49,5.49,0,1,1,5.49,5.48A5.49,5.49,0,0,1,245.42,279.11Zm39.31,28.53-7.35-4.24,0,.06V291.63l0,.07,7.35-4.25Z" fill="#231f20"/><path d="M246.51,289.87a.5.5,0,0,0,.5.5h24.24a.5.5,0,0,0,.5-.5.51.51,0,0,0-.5-.5H247A.5.5,0,0,0,246.51,289.87Z" fill="#231f20"/><path d="M353.32,284.68H342.65l-1.86-6-15.41-.06c-.6,2-1.19,4.07-1.78,6.1h-3.82v-2.6h-6.2v2.6h-.68a3.35,3.35,0,0,0-3.34,3.35V308.3a3.35,3.35,0,0,0,3.34,3.35h40.42a3.35,3.35,0,0,0,3.35-3.35V288A3.35,3.35,0,0,0,353.32,284.68Zm-21.71,20.13a8.15,8.15,0,1,1,8.42-8.15A8.3,8.3,0,0,1,331.61,304.81Z" fill="#fdd600"/><path d="M351.82,282.18h-9.91l-1.77-5.69a.5.5,0,0,0-.48-.35l-16.15-.07h0a.5.5,0,0,0-.48.36l-1.72,5.75h-2v-2.1a.5.5,0,0,0-.5-.5h-7.2a.5.5,0,0,0-.5.5v2.14a4.33,4.33,0,0,0-4,4.31V306.8a4.35,4.35,0,0,0,4.34,4.35h40.42a4.35,4.35,0,0,0,4.35-4.35V286.53A4.35,4.35,0,0,0,351.82,282.18Zm-27.94-5.1,15.41.06,1.57,5H322.35Zm-11.8,3.5h6.2v1.6h-6.2Zm-4,10.13h12.51a11.77,11.77,0,0,0-.76,10.29H308.06Zm23.55-5.31A11.27,11.27,0,1,1,320,296.66,11.47,11.47,0,0,1,331.61,285.4Zm23.56,21.4a3.35,3.35,0,0,1-3.35,3.35H311.4a3.35,3.35,0,0,1-3.34-3.35V302h12.19A12.78,12.78,0,0,0,343,302h12.2Zm0-5.8H343.42a11.82,11.82,0,0,0-.77-10.29h12.52Zm0-11.29H342a12.84,12.84,0,0,0-20.8,0H308.06v-3.18a3.35,3.35,0,0,1,3.34-3.35h40.42a3.35,3.35,0,0,1,3.35,3.35Z" fill="#231f20"/><path d="M331.61,287.52a9.15,9.15,0,1,0,9.42,9.14A9.3,9.3,0,0,0,331.61,287.52Zm0,17.29a8.15,8.15,0,1,1,8.42-8.15A8.3,8.3,0,0,1,331.61,304.81Z" fill="#231f20"/><path d="M333.9,291.79a5.07,5.07,0,0,1,3.49,4.87.5.5,0,0,0,.5.5h0a.49.49,0,0,0,.5-.49,6.08,6.08,0,0,0-4.17-5.83.5.5,0,1,0-.32,1Z" fill="#231f20"/><path d="M335.28,279.13h-7.34a.5.5,0,0,0-.5.5.5.5,0,0,0,.5.5h7.34a.5.5,0,0,0,.5-.5A.5.5,0,0,0,335.28,279.13Z" fill="#231f20"/><path d="M387,302.67l13,10.25V277.8l-13,10.25a.46.46,0,0,1-.3.11H380v14.41h6.67A.45.45,0,0,1,387,302.67Z" fill="#fdd600"/><path d="M403.5,283.34a.49.49,0,0,0-.7.07.49.49,0,0,0,.07.7,13.27,13.27,0,0,1,4.77,9.47,13.65,13.65,0,0,1-4.88,10.61.49.49,0,0,0-.08.7.49.49,0,0,0,.7.08c.57-.46,5.53-4.64,5.26-11.43A14.2,14.2,0,0,0,403.5,283.34Z" fill="#231f20"/><path d="M417.46,293.64a23.43,23.43,0,0,0-9-17,.51.51,0,0,0-.7.1.5.5,0,0,0,.1.7,21.58,21.58,0,0,1,1.27,33.5.5.5,0,0,0,.33.88.51.51,0,0,0,.33-.13A23.34,23.34,0,0,0,417.46,293.64Z" fill="#231f20"/><path d="M426.2,293.15c-.66-14.17-10.65-22.38-12.64-23.88a.49.49,0,0,0-.7.1.5.5,0,0,0,.1.7c1.93,1.45,11.6,9.4,12.24,23.12.65,14-8.57,22.86-10.43,24.49a.49.49,0,0,0,0,.7.48.48,0,0,0,.38.17.5.5,0,0,0,.33-.12C417.35,316.75,426.87,307.63,426.2,293.15Z" fill="#231f20"/><path d="M378,302.07h7l13.71,10.77a.45.45,0,0,0,.31.11.44.44,0,0,0,.22-.05.5.5,0,0,0,.28-.45V275.27a.5.5,0,0,0-.28-.45.51.51,0,0,0-.53.06L385,285.66h-7a.5.5,0,0,0-.5.5v15.41A.5.5,0,0,0,378,302.07Zm.5-15.41h6.67a.46.46,0,0,0,.3-.11l13-10.25v35.12l-13-10.25a.45.45,0,0,0-.3-.1h-6.67Z" fill="#231f20"/><path d="M478.16,291.42h0l-8.64-2.72-2.5-.84V291a2.38,2.38,0,0,1-4.76,0v-4.77l-4.76-1.61-5.2,15.41,20.54,7.12h0l4.36,4.21,7-20.67Z" fill="#fdd600"/><path d="M483.79,288.31a.5.5,0,0,0-.45-.18l-7,.82L468,286.14V271.77a.5.5,0,0,0-.5-.5h-5.76a.5.5,0,0,0-.5.5v12.09L455.84,282a.5.5,0,0,0-.38,0,.48.48,0,0,0-.25.29l-.56,1.66-.88-.29a3,3,0,0,0-3.82,1.89l-2.47,7.32a3,3,0,0,0,1.89,3.81l.88.3-.56,1.66a.51.51,0,0,0,.31.64l20.5,6.91,5.07,4.89a.49.49,0,0,0,.35.15l.12,0a.51.51,0,0,0,.36-.32l7.47-22.17A.5.5,0,0,0,483.79,288.31Zm-21.53-16H467V291a2.38,2.38,0,0,1-4.76,0Zm-12.57,23.52a2,2,0,0,1-1.26-2.54l2.47-7.32a2,2,0,0,1,1.91-1.37,1.8,1.8,0,0,1,.64.11l.88.29-3.76,11.13Zm20.76,9.39-19.65-6.63,5.2-15.41,5.26,1.78V291a3.38,3.38,0,0,0,6.76,0V287.2l7.63,2.57Zm5.25,4.7-4.36-4.21L474,297.8l2.66-7.88,6-.71Z" fill="#231f20"/><path d="M496.06,304.42l-11.9-4a.5.5,0,0,0-.63.31.5.5,0,0,0,.31.64l11.9,4a.41.41,0,0,0,.16,0,.5.5,0,0,0,.16-1Z" fill="#231f20"/><path d="M483.35,303.92a.49.49,0,0,0-.67-.22.5.5,0,0,0-.23.67l5.86,11.81a.49.49,0,0,0,.44.27.46.46,0,0,0,.23-.05.5.5,0,0,0,.22-.67Z" fill="#231f20"/><path d="M485.16,298a.43.43,0,0,0,.22-.06l10.34-5.12a.5.5,0,0,0,.22-.67.5.5,0,0,0-.67-.22L484.94,297a.5.5,0,0,0,.22.95Z" fill="#231f20"/><path d="M283.26,396.68h-.5v-3.79h-2.9V372.45h2.9v-3.63H286l-22.91-15.45-23,15.45h3.36v3.63h2.9v20.44h-2.9v3.79H240v3.25h46.23v-3.25Zm-27.06-3.79h-5.83V372.45h5.83Zm9.83,0H260.2V372.45H266Zm9.83,0H270V372.45h5.83Z" fill="#fdd600"/><path d="M285.23,394.68h-3v-3.24a.5.5,0,0,0-.5-.5h-2.4V371.43h2.4a.5.5,0,0,0,.5-.5v-3.24h3a.5.5,0,0,0,.48-.35.53.53,0,0,0-.2-.57l-23.62-15.91a.48.48,0,0,0-.56,0l-23.61,15.91a.5.5,0,0,0,.28.92h3v3.24a.5.5,0,0,0,.5.5h2.4v19.51h-2.4a.5.5,0,0,0-.5.5v3.24h-3a.5.5,0,0,0-.5.5v3.75a.5.5,0,0,0,.5.5h47.23a.51.51,0,0,0,.5-.5v-3.75A.5.5,0,0,0,285.23,394.68Zm-6.87-3.74h-4V371.49h4Zm-5,0h-3.83V371.43h3.83ZM254.7,371.49h4v19.45h-4Zm5-.06h3.83v19.51H259.7ZM242,367.69h39.29v2.74H242Zm22.56,3.8h4v19.45h-4Zm-2.92-19.62,22,14.82h-44Zm-7.91,19.56v19.51h-3.83V371.43Zm-8.83.06h4v19.45h-4ZM242,391.94h39.29v2.74H242Zm42.76,6.49H238.5v-2.75h46.23Z" fill="#231f20"/><path d="M261.61,364.58a3.41,3.41,0,1,0-3.6-3.4A3.52,3.52,0,0,0,261.61,364.58Zm0-5.8a2.41,2.41,0,1,1-2.6,2.4A2.52,2.52,0,0,1,261.61,358.78Z" fill="#231f20"/><path d="M475.06,373.37v-2.75h-3.4v2.75a.44.44,0,0,1-.44.44h-2.75v3.4h2.75a.44.44,0,0,1,.44.44v2.74h3.4v-2.74a.44.44,0,0,1,.44-.44h2.75v-3.4H475.5A.44.44,0,0,1,475.06,373.37Z" fill="#fdd600"/><path d="M476.93,371.18h-2.74v-2.74a.44.44,0,0,0-.44-.44h-4.28a.43.43,0,0,0-.43.44v2.74h-2.75a.44.44,0,0,0-.44.44v4.28a.44.44,0,0,0,.44.43H469v2.75a.44.44,0,0,0,.43.44h4.28a.44.44,0,0,0,.44-.44v-2.75h2.74a.44.44,0,0,0,.44-.43v-4.28A.44.44,0,0,0,476.93,371.18Zm-.43,4.28h-2.75a.44.44,0,0,0-.44.44v2.74h-3.4V375.9a.44.44,0,0,0-.44-.44h-2.75v-3.4h2.75a.44.44,0,0,0,.44-.44v-2.75h3.4v2.75a.44.44,0,0,0,.44.44h2.75Z" fill="#231f20"/><path d="M482.15,353.16H464.07a3.16,3.16,0,0,0-3.16,3.17v40a3.16,3.16,0,0,0,3.16,3.17h18.08a3.17,3.17,0,0,0,3.17-3.17v-40A3.17,3.17,0,0,0,482.15,353.16Zm-1.86,34.76H462.94V359.59h17.35Z" fill="#fdd600"/><path d="M480.69,351.16H462.53a4.13,4.13,0,0,0-4.12,4.13v40.12a4.13,4.13,0,0,0,4.12,4.13h18.16a4.14,4.14,0,0,0,4.13-4.13V355.29A4.14,4.14,0,0,0,480.69,351.16Zm3.13,44.25a3.13,3.13,0,0,1-3.13,3.13H462.53a3.13,3.13,0,0,1-3.12-3.13V355.29a3.13,3.13,0,0,1,3.12-3.13h18.16a3.13,3.13,0,0,1,3.13,3.13Z" fill="#231f20"/><path d="M480.79,358.59H462.44a.5.5,0,0,0-.5.5v29.33a.5.5,0,0,0,.5.5h18.35a.5.5,0,0,0,.5-.5V359.09A.51.51,0,0,0,480.79,358.59Zm-.5,29.33H462.94V359.59h17.35Z" fill="#231f20"/><path d="M471.61,391.11a2.45,2.45,0,1,0,2.44,2.45A2.45,2.45,0,0,0,471.61,391.11Z" fill="#231f20"/><path d="M469.11,355.83h5.13a.5.5,0,0,0,.5-.5.5.5,0,0,0-.5-.5h-5.13a.5.5,0,0,0-.5.5A.5.5,0,0,0,469.11,355.83Z" fill="#231f20"/><path d="M467,355.94a.61.61,0,0,0,.61-.61.61.61,0,0,0-.61-.61.61.61,0,0,0-.61.61A.62.62,0,0,0,467,355.94Z" fill="#231f20"/><path d="M193.45,443.13V432.29H174.72v42.32h31.57q0-15.74,0-31.47H193.45Z" fill="#fdd600"/><path d="M211,425.67H178.43a.5.5,0,0,0-.5.5v1.67h-2.32a.5.5,0,0,0-.5.5v1.45h-2.39a.5.5,0,0,0-.5.5v43.32a.51.51,0,0,0,.5.5h32.57a.5.5,0,0,0,.5-.5v-1.45h2.38a.5.5,0,0,0,.5-.5V470H211a.5.5,0,0,0,.5-.5V426.17A.5.5,0,0,0,211,425.67Zm-6.21,47.44H173.22V430.79h19.23v11.84a.5.5,0,0,0,.5.5h11.84Zm-11.34-31V431.5l10.64,10.63Zm14.22,29h-1.88V442.63s0,0,0-.06,0-.05,0-.07a.59.59,0,0,0-.12-.22L193.3,429.94a.48.48,0,0,0-.23-.13h-17v-1h31.56ZM210.5,469h-1.83V428.34a.5.5,0,0,0-.5-.5H178.93v-1.17H210.5Z" fill="#231f20"/><path d="M342.11,437.13l-.49.2v1.95h0v3.42h0v5.42h0v3.42h0V457h0v3.41h0v5.42h0v3.42h0v1.94l.49-.17,14.14-5.48V431.85Z" fill="#fdd600"/><path d="M324.11,431.85,310,437.13V471l14.13-5.48.5-.19V431.64Z" fill="#fdd600"/><path d="M322.59,454.05v4.39a.5.5,0,0,0,.5.5v-5.39A.51.51,0,0,0,322.59,454.05Z" fill="none"/><path d="M355.53,429.22a.47.47,0,0,0-.46-.06l-15,5.59-16.83-5.6-.13,0h0a.47.47,0,0,0-.17,0l-15.14,5.66a.5.5,0,0,0-.32.46v34.93a.51.51,0,0,0,.21.41.52.52,0,0,0,.29.09l.18,0,15-5.81L340,470.68a.41.41,0,0,0,.16,0h0a.52.52,0,0,0,.18,0l15.14-5.87a.51.51,0,0,0,.32-.47V429.63A.48.48,0,0,0,355.53,429.22ZM354.75,464l-14.14,5.48v-1.27a.5.5,0,0,0-.5-.5.5.5,0,0,0-.5.5v1.3l-16-5.53v-1.64a.5.5,0,0,0-1,0V464l-14.13,5.48V435.63l14.13-5.28v1.28a.5.5,0,0,0,1,0v-1.31l16,5.32v1.64a.5.5,0,0,0,.5.5.5.5,0,0,0,.5-.5v-1.65l14.14-5.28Z" fill="#231f20"/><path d="M340.11,441.2a.51.51,0,0,0-.5.5v4.42a.5.5,0,0,0,.5.5.5.5,0,0,0,.5-.5V441.7A.5.5,0,0,0,340.11,441.2Z" fill="#231f20"/><path d="M340.11,450a.5.5,0,0,0-.5.5V455a.51.51,0,0,0,.5.5.5.5,0,0,0,.5-.5v-4.42A.5.5,0,0,0,340.11,450Z" fill="#231f20"/><path d="M323.11,444.29a.5.5,0,0,0-.5.5v4.39a.5.5,0,0,0,1,0v-4.39A.5.5,0,0,0,323.11,444.29Z" fill="#231f20"/><path d="M323.11,435.51a.5.5,0,0,0-.5.5v4.39a.5.5,0,0,0,1,0V436A.5.5,0,0,0,323.11,435.51Z" fill="#231f20"/><path d="M340.09,459.36a.51.51,0,0,0-.5.5v4.42a.5.5,0,0,0,.5.5.5.5,0,0,0,.5-.5v-4.42A.5.5,0,0,0,340.09,459.36Z" fill="#231f20"/><path d="M323.09,453.55a.51.51,0,0,0-.5.5v4.39a.5.5,0,0,0,.5.5.5.5,0,0,0,.5-.5v-4.39A.5.5,0,0,0,323.09,453.55Z" fill="#231f20"/><path d="M251.83,465.21h19.8a.5.5,0,0,0,.5-.5s0-.06,0-.09H251.35s0,.06,0,.09A.5.5,0,0,0,251.83,465.21Z" fill="none"/><path d="M271.63,464.21h-19.8a.5.5,0,0,0-.48.41h20.76A.5.5,0,0,0,271.63,464.21Z" fill="#fdd600"/><path d="M240.4,441.67v22.95h6.43V452.14h29.86V463.3s0,0,0,.07,0,0,0,.07v1.18h9.38V441.67Z" fill="#fdd600"/><path d="M272.12,458.1H251.83a.51.51,0,0,0-.5.5.5.5,0,0,0,.5.5h20.29a.5.5,0,0,0,.5-.5A.51.51,0,0,0,272.12,458.1Z" fill="#fdd600"/><path d="M275.84,444.43a1.28,1.28,0,1,0,1.29,1.28A1.28,1.28,0,0,0,275.84,444.43Z" fill="#231f20"/><path d="M271.63,464.21h-19.8a.5.5,0,1,0,0,1h19.8a.5.5,0,0,0,0-1Z" fill="#231f20"/><path d="M272.12,458.1H251.83a.51.51,0,0,0-.5.5.5.5,0,0,0,.5.5h20.29a.5.5,0,0,0,.5-.5A.51.51,0,0,0,272.12,458.1Z" fill="#231f20"/><path d="M284.82,438.92h-7.44V431c0-1.6-1.71-2.9-3.81-2.9H249.63c-2.09,0-3.8,1.3-3.8,2.9v7.92h-7.68a.5.5,0,0,0-.5.5v23.95a.5.5,0,0,0,.5.5h7.68v7.8a.5.5,0,0,0,.5.5h30.86a.5.5,0,0,0,.5-.5v-7.8h7.13a.5.5,0,0,0,.5-.5V439.42A.5.5,0,0,0,284.82,438.92Zm-38-7.92c0-1,1.28-1.9,2.8-1.9h23.94c1.53,0,2.81.87,2.81,1.9v7.92H246.83Zm0,40.17v-19h29.86V463.3s0,0,0,.07,0,0,0,.07v7.73Zm37.49-8.3h-6.63V451.64a.5.5,0,0,0-.5-.5H246.33a.5.5,0,0,0-.5.5v11.23h-7.18V439.92h45.67Z" fill="#231f20"/><path d="M422.38,459.14a22.7,22.7,0,0,0,0-19.85l.79-.79a.5.5,0,0,0,.08-.6,24.45,24.45,0,0,0-42.8,0,.5.5,0,0,0,.08.6l.79.79a22.77,22.77,0,0,0,0,19.84,2.88,2.88,0,0,0-1.25,3.61l3.21,7.6a2.81,2.81,0,0,0,1.56,1.54,2.71,2.71,0,0,0,1.08.22,2.87,2.87,0,0,0,1.11-.23l1.62-.68.72,1.71a2,2,0,0,0,1.84,1.23A2,2,0,0,0,392,474l3.75-1.58a2,2,0,0,0,1.07-2.62l-7.17-17a1.93,1.93,0,0,0-1.09-1.08,2,2,0,0,0-1.53,0l-3.75,1.58a2,2,0,0,0-1.07,2.62l1,2.4-1,.42a21.71,21.71,0,0,1-.16-18.67l1,.95a.5.5,0,0,0,.8-.13,20.07,20.07,0,0,1,36,0,.52.52,0,0,0,.37.27h.08a.5.5,0,0,0,.35-.14l1-.95a21.71,21.71,0,0,1-.16,18.67l-1-.42,1-2.4a2,2,0,0,0,0-1.53,2,2,0,0,0-1.08-1.09l-3.75-1.58a2,2,0,0,0-1.53,0,2,2,0,0,0-1.09,1.08l-7.16,17a2,2,0,0,0,1.06,2.62l3.75,1.58a2.13,2.13,0,0,0,.78.16,2,2,0,0,0,.76-.15,2,2,0,0,0,1.08-1.08l.73-1.71,1.61.68a2.9,2.9,0,0,0,1.11.23,2.76,2.76,0,0,0,1.09-.22,2.87,2.87,0,0,0,1.56-1.54l3.2-7.6A2.85,2.85,0,0,0,422.38,459.14Zm-38.7-4.94,3.75-1.58a1,1,0,0,1,.77,0,1,1,0,0,1,.54.54l7.17,17a1,1,0,0,1-.54,1.31l-3.75,1.58a1,1,0,0,1-1.31-.54l-.92-2.17h0l-5-12h0l-1.2-2.86A1,1,0,0,1,383.68,454.2Zm4.6,16.07-1.62.68a1.86,1.86,0,0,1-2.44-1l-3.21-7.6a1.87,1.87,0,0,1,1-2.45l1.61-.68Zm13.58-44a23.53,23.53,0,0,1,20.34,11.78l-1.74,1.75a21.07,21.07,0,0,0-37.2,0l-1.74-1.75A23.53,23.53,0,0,1,401.86,426.28Zm20.85,36.07-3.2,7.6a1.9,1.9,0,0,1-1,1,1.87,1.87,0,0,1-1.43,0l-1.62-.68,4.66-11,1.61.68A1.87,1.87,0,0,1,422.71,462.35Zm-10.61,10.7-3.75-1.58a1,1,0,0,1-.53-1.31l7.16-17a1,1,0,0,1,.55-.54,1,1,0,0,1,.37-.08,1,1,0,0,1,.39.08L420,454.2a1,1,0,0,1,.54,1.31l-1.21,2.86h0l-5,12h0l-.92,2.17A1,1,0,0,1,412.1,473.05Z" fill="#231f20"/><path d="M491.24,428.2a8.31,8.31,0,0,0-11.71,0,8.22,8.22,0,0,0-2.42,5.85,8.05,8.05,0,0,0,.11,1.3L456.65,458a.5.5,0,0,0,0,.69l.88.88-3,3a.51.51,0,0,0,0,.71l.57.57-3.87,3.87a3.86,3.86,0,0,0-1.16,2.84,3.79,3.79,0,0,0,3.81,3.78,3.94,3.94,0,0,0,2.8-1.16l11.54-11.56a2.36,2.36,0,0,1,1.75-.75,1.81,1.81,0,0,1,1.34.61,2.1,2.1,0,0,1-.51,2.75l-5.24,5.24a.5.5,0,0,0,0,.7.5.5,0,0,0,.71,0l5.2-5.2a3.07,3.07,0,0,0,.62-4.11,2.73,2.73,0,0,0-2.08-1,3.25,3.25,0,0,0-2.51,1.07L456,472.38a2.89,2.89,0,0,1-4,.11,2.79,2.79,0,0,1-.87-2,2.88,2.88,0,0,1,.86-2.12l3.88-3.88.38.38a.5.5,0,0,0,.35.15.51.51,0,0,0,.36-.15l3-2.94.88.88a.51.51,0,0,0,.69,0l22.61-20.58a8,8,0,0,0,1.29.11,8.27,8.27,0,0,0,5.86-14.12Zm-.71.71a7.26,7.26,0,0,1,.33,9.92l-10.25-10.26a7.27,7.27,0,0,1,9.92.34Zm-29.37,32.82-3.45-3.45,20-22,5.43,5.43Zm-4.56,2-1-.95,2.6-2.59.95.95ZM484,441.19l-5.72-5.73a7.33,7.33,0,0,1-.14-1.41,7.24,7.24,0,0,1,1.79-4.77l10.26,10.25A7.29,7.29,0,0,1,484,441.19Z" fill="#231f20"/><path d="M476.52,441.15a.5.5,0,0,0-.71,0l-3.72,3.72a.51.51,0,0,0-.15.35.53.53,0,0,0,.15.36l1.77,1.77a.5.5,0,0,0,.35.14.52.52,0,0,0,.36-.14l3.72-3.73a.48.48,0,0,0,0-.7Zm-2.31,5.14-1.06-1.07,3-3,1.06,1.06Z" fill="#231f20"/><circle cx="208.54" cy="543.24" r="5.61" fill="#fdd600"/><path d="M201.52,512.59v4.72h-1.58v-4.4a7.44,7.44,0,0,0-14.88,0v4.4h-1.58v-4.72a9,9,0,0,1,18,0" fill="#fdd600"/><path d="M192.73,518.33H181.16v13.2H204.3v-13.2Zm1.16,7.76v2.51a1,1,0,0,1-1,1h-2.12a1,1,0,0,1-1-1v-2.51a3.53,3.53,0,1,1,4.12,0Z" fill="#fdd600"/><path d="M214.09,531.13v11.2a6.5,6.5,0,0,1-13,.5h-31a.5.5,0,0,1-.5-.5v-11.2a.5.5,0,0,1,.5-.5h9.19v-13.2a1,1,0,0,1,1-1h1.55v-4.61a10,10,0,0,1,20,0v4.61h1.55a1,1,0,0,1,1,1v13.2h9.19a.5.5,0,0,1,.5.5m-1,7.75v-7.25H170.57v10.2h30.54a6.49,6.49,0,0,1,12-3m0,3.45a4.19,4.19,0,0,0,0-.5,5.5,5.5,0,0,0-10.95,0c0,.17,0,.33,0,.5s0,.34,0,.5a5.5,5.5,0,0,0,10.95,0,4.07,4.07,0,0,0,0-.5m-9.69-11.7v-13.2H180.26v13.2H203.4Zm-2.55-14.09v-4.72a9,9,0,0,0-18,0v4.72h1.58v-4.4a7.44,7.44,0,0,1,14.88,0v4.4Zm-2.58-.11v-4.29a6.44,6.44,0,0,0-12.88,0v4.29Z" fill="#231f20"/><path d="M210.35,539.07a.5.5,0,0,1,.17.68l-1.21,2.08-.59,1-1.51,2.59a.52.52,0,0,1-.39.25h0a.51.51,0,0,1-.39-.19l-1.7-2.07a.51.51,0,0,1,0-.58.41.41,0,0,1,.11-.12.49.49,0,0,1,.7.07l.05.05,1.19,1.46.85-1.46.59-1,1.51-2.58a.51.51,0,0,1,.69-.18" fill="#231f20"/><polygon points="200.88 535.38 201.26 536.56 199.19 537.14 200.55 538.86 199.52 539.59 198.34 537.7 197.18 539.52 196.15 538.82 197.55 537.06 195.52 536.49 195.9 535.32 197.91 536.13 197.78 533.87 199.05 533.87 198.92 536.17 200.88 535.38" fill="#231f20"/><path d="M191.83,519.7a3.53,3.53,0,0,1,2.06,6.39v2.51a1,1,0,0,1-1,1h-2.12a1,1,0,0,1-1-1v-2.51a3.53,3.53,0,0,1,2.06-6.39m2.53,3.53a2.53,2.53,0,1,0-3.77,2.2.35.35,0,0,1,.18.3v2.87h2.12v-2.87a.35.35,0,0,1,.18-.3,2.52,2.52,0,0,0,1.29-2.2" fill="#231f20"/><polygon points="193.09 535.38 193.47 536.56 191.4 537.14 192.76 538.86 191.73 539.59 190.55 537.7 189.39 539.52 188.36 538.82 189.76 537.06 187.73 536.49 188.11 535.32 190.12 536.13 189.99 533.87 191.26 533.87 191.13 536.17 193.09 535.38" fill="#231f20"/><polygon points="185.3 535.38 185.68 536.56 183.62 537.14 184.97 538.86 183.95 539.59 182.77 537.7 181.6 539.52 180.58 538.82 181.97 537.06 179.94 536.49 180.32 535.32 182.34 536.13 182.21 533.87 183.47 533.87 183.34 536.17 185.3 535.38" fill="#231f20"/><polygon points="177.52 535.38 177.9 536.56 175.83 537.14 177.19 538.86 176.16 539.59 174.98 537.7 173.82 539.52 172.79 538.82 174.19 537.06 172.16 536.49 172.54 535.32 174.55 536.13 174.42 533.87 175.69 533.87 175.56 536.17 177.52 535.38" fill="#231f20"/><path d="M282.36,541.65a.51.51,0,0,1,.49-.39h1.82v-1.74h-1.82a.49.49,0,0,1-.48-.39,5.9,5.9,0,0,0-.78-1.87.5.5,0,0,1,.07-.63l1.28-1.28-1.23-1.23-1.28,1.28a.5.5,0,0,1-.63.07,5.71,5.71,0,0,0-1.87-.78.49.49,0,0,1-.39-.48v-1.82H275.8v1.81a.49.49,0,0,1-.39.49,5.9,5.9,0,0,0-1.87.78.5.5,0,0,1-.63-.07l-1.28-1.28-1.23,1.22,1.28,1.29a.49.49,0,0,1,.07.62,5.9,5.9,0,0,0-.78,1.87.51.51,0,0,1-.48.4h-1.82v1.74h1.81a.5.5,0,0,1,.49.4,5.9,5.9,0,0,0,.78,1.87.5.5,0,0,1-.07.62l-1.28,1.29,1.22,1.23,1.29-1.29a.5.5,0,0,1,.62-.06,5.87,5.87,0,0,0,1.87.77.52.52,0,0,1,.4.49v1.82h1.74v-1.82a.49.49,0,0,1,.39-.48,5.9,5.9,0,0,0,1.87-.78.49.49,0,0,1,.62.07l1.29,1.28,1.23-1.23-1.29-1.28a.51.51,0,0,1-.06-.63,5.48,5.48,0,0,0,.77-1.87m-6.69,1.17a3.43,3.43,0,1,1,3.43-3.43,3.44,3.44,0,0,1-3.43,3.43" fill="#fdd600"/><path d="M273.4,531.18l.4.26v-.55a.5.5,0,0,1,.5-.5H277a.5.5,0,0,1,.5.5v1h1a.5.5,0,0,1,.5.5v1l1.32-1.32a.5.5,0,0,1,.71,0l1.5,1.5.43.43.73.73c.22-.57.42-1.16.59-1.75a.61.61,0,0,1,0-.14,22.06,22.06,0,1,0-35.68,10.63v-4.82a8.8,8.8,0,0,1,8.37-8.8h12.16a8.78,8.78,0,0,1,4.22,1.34m-4.9-6.61a8.35,8.35,0,1,1,3-6.38,8.38,8.38,0,0,1-3,6.38" fill="#fdd600"/><path d="M267.62,546.55a22,22,0,0,1-13-.31v-7.45a.5.5,0,0,0-.5-.5.5.5,0,0,0-.5.5v7.08a21.91,21.91,0,0,1-5.44-3.08v-5.65a7.8,7.8,0,0,1,7.39-7.8h12.11a7.77,7.77,0,0,1,3.72,1.19.5.5,0,1,0,.53-.85,8.78,8.78,0,0,0-4.22-1.34H255.52a8.8,8.8,0,0,0-8.37,8.8V542a22.06,22.06,0,1,1,35.68-10.63.5.5,0,1,0,1,.27,23.09,23.09,0,1,0-15.9,15.91.51.51,0,0,0,.35-.62.5.5,0,0,0-.62-.34" fill="#231f20"/><path d="M253.26,516.69a8.36,8.36,0,1,0,8.35-8.36,8.36,8.36,0,0,0-8.35,8.36m15.71,0a7.36,7.36,0,1,1-7.36-7.36,7.34,7.34,0,0,1,7.36,7.36" fill="#231f20"/><path d="M284.17,537.52h-1.93a6.53,6.53,0,0,0-.6-1.45L283,534.7a.5.5,0,0,0,0-.71l-1.93-1.93a.5.5,0,0,0-.71,0L279,533.42a6.6,6.6,0,0,0-1.46-.6v-1.93a.5.5,0,0,0-.5-.5H274.3a.5.5,0,0,0-.5.5v1.92a7.08,7.08,0,0,0-1.45.61L271,532.06a.5.5,0,0,0-.71,0L268.34,534a.5.5,0,0,0,0,.71l1.36,1.36a6.41,6.41,0,0,0-.6,1.46h-1.93a.5.5,0,0,0-.5.5v2.74a.5.5,0,0,0,.5.5h1.92a7.08,7.08,0,0,0,.61,1.45l-1.36,1.37a.5.5,0,0,0,0,.71l1.93,1.93a.5.5,0,0,0,.71,0l1.36-1.36a6.41,6.41,0,0,0,1.46.6v1.93a.5.5,0,0,0,.5.5H277a.5.5,0,0,0,.5-.5V546a6.53,6.53,0,0,0,1.45-.6l1.37,1.36a.5.5,0,0,0,.71,0l1.93-1.93a.53.53,0,0,0,.15-.36.51.51,0,0,0-.15-.35l-1.36-1.36a6.6,6.6,0,0,0,.6-1.46h1.93a.5.5,0,0,0,.5-.5V538a.5.5,0,0,0-.5-.5m-.5,2.74h-1.82a.49.49,0,0,0-.48.39,5.85,5.85,0,0,1-.78,1.88.5.5,0,0,0,.06.62l1.29,1.28-1.23,1.23-1.29-1.28a.49.49,0,0,0-.62-.07,5.9,5.9,0,0,1-1.87.78.49.49,0,0,0-.39.48v1.82H274.8v-1.82a.5.5,0,0,0-.39-.48,5.85,5.85,0,0,1-1.88-.78.5.5,0,0,0-.62.06l-1.28,1.29-1.23-1.23,1.28-1.29a.49.49,0,0,0,.07-.62,5.9,5.9,0,0,1-.78-1.87.49.49,0,0,0-.49-.39h-1.81v-1.74h1.82a.5.5,0,0,0,.48-.4,5.9,5.9,0,0,1,.78-1.87.49.49,0,0,0-.07-.62l-1.28-1.28,1.23-1.23,1.29,1.28a.49.49,0,0,0,.62.07,5.9,5.9,0,0,1,1.87-.78.49.49,0,0,0,.39-.49v-1.81h1.74v1.82a.5.5,0,0,0,.39.48,5.85,5.85,0,0,1,1.88.78.49.49,0,0,0,.62-.07l1.28-1.28,1.23,1.23-1.28,1.29a.49.49,0,0,0-.07.62,5.9,5.9,0,0,1,.78,1.87.49.49,0,0,0,.49.39h1.81Z" fill="#231f20"/><path d="M275.67,536a3.43,3.43,0,1,0,3.43,3.43,3.44,3.44,0,0,0-3.43-3.43m0,5.86a2.43,2.43,0,1,1,2.43-2.43,2.43,2.43,0,0,1-2.43,2.43" fill="#231f20"/><path d="M333.22,538.76a2.43,2.43,0,1,1-2.43,2.43,2.43,2.43,0,0,1,2.43-2.43" fill="#fdd600"/><path d="M341.84,531.86l-3.46,3.47a9.36,9.36,0,0,0-10.32,0l-3.46-3.47a14.28,14.28,0,0,1,17.24,0" fill="#fdd600"/><path d="M348.73,525l-3.47,3.47a18.94,18.94,0,0,0-24.08,0L317.71,525a24,24,0,0,1,31,0" fill="#fdd600"/><path d="M355.59,518.12l-3.45,3.45a28.7,28.7,0,0,0-37.84,0l-3.45-3.45a33.92,33.92,0,0,1,44.74,0" fill="#fdd600"/><path d="M328.29,539.69a3.43,3.43,0,1,1,3.43,3.43,3.44,3.44,0,0,1-3.43-3.43m3.43-2.43a2.43,2.43,0,1,0,2.43,2.43,2.43,2.43,0,0,0-2.43-2.43" fill="#231f20"/><path d="M326.56,533.83a9.36,9.36,0,0,1,10.32,0l3.46-3.47a14.28,14.28,0,0,0-17.24,0ZM322,529.94a15.26,15.26,0,0,1,19.38,0,.5.5,0,0,1,.18.36.5.5,0,0,1-.15.38l-4.15,4.15a.51.51,0,0,1-.36.15.46.46,0,0,1-.29-.1,8.34,8.34,0,0,0-9.84,0,.49.49,0,0,1-.65,0L322,530.68a.5.5,0,0,1-.15-.38.5.5,0,0,1,.18-.36" fill="#231f20"/><path d="M319.68,526.94a18.94,18.94,0,0,1,24.08,0l3.47-3.47a24,24,0,0,0-31,0Zm-4.54-3.86a25,25,0,0,1,33.16,0,.48.48,0,0,1,.16.35.5.5,0,0,1-.14.37L344.15,528a.51.51,0,0,1-.36.15.54.54,0,0,1-.33-.12A17.92,17.92,0,0,0,320,528a.51.51,0,0,1-.69,0l-4.17-4.17a.5.5,0,0,1-.14-.37.48.48,0,0,1,.16-.35" fill="#231f20"/><path d="M309.35,516.62l3.45,3.45a28.7,28.7,0,0,1,37.84,0l3.45-3.45a33.92,33.92,0,0,0-44.74,0m-1.06-.38a34.45,34.45,0,0,1,46.86,0,.48.48,0,0,1,.16.36.51.51,0,0,1-.15.36L351,521.11a.5.5,0,0,1-.35.15.48.48,0,0,1-.34-.14,27.71,27.71,0,0,0-37.2,0,.49.49,0,0,1-.69,0L308.28,517a.51.51,0,0,1-.15-.36.48.48,0,0,1,.16-.36" fill="#231f20"/><path d="M418.36,503.48h-30.5a3.23,3.23,0,0,0-3.23,3.23v39.74a3.23,3.23,0,0,0,3.23,3.23h30.5a3.23,3.23,0,0,0,3.23-3.23V506.71a3.23,3.23,0,0,0-3.23-3.23m.63,41.43a.47.47,0,0,1-.47.47H387.7a.47.47,0,0,1-.47-.47V507.25a.48.48,0,0,1,.47-.48h30.82a.48.48,0,0,1,.47.48Z" fill="#fdd600"/><path d="M411.63,516.41a17.51,17.51,0,0,0-7.53,1.79.59.59,0,0,1-.22,0,.5.5,0,0,1-.45-.29.49.49,0,0,1,.23-.66,18.48,18.48,0,0,1,8-1.89.51.51,0,0,1,.5.5.5.5,0,0,1-.5.5" fill="#231f20"/><path d="M411.63,519.41a17.51,17.51,0,0,0-7.53,1.79.59.59,0,0,1-.22,0,.51.51,0,0,1-.45-.28.5.5,0,0,1,.23-.67,18.62,18.62,0,0,1,8-1.89.51.51,0,0,1,.5.5.5.5,0,0,1-.5.5" fill="#231f20"/><path d="M411.63,522.42a17.64,17.64,0,0,0-7.53,1.78.44.44,0,0,1-.22,0,.49.49,0,0,1-.45-.28.5.5,0,0,1,.23-.67,18.61,18.61,0,0,1,8-1.88.5.5,0,0,1,.5.5.51.51,0,0,1-.5.5" fill="#231f20"/><path d="M411.63,525.42a17.64,17.64,0,0,0-7.53,1.78.44.44,0,0,1-.22,0,.49.49,0,0,1-.45-.28.5.5,0,0,1,.23-.67,18.61,18.61,0,0,1,8-1.88.5.5,0,0,1,.5.5.51.51,0,0,1-.5.5" fill="#231f20"/><path d="M411.63,528.42a17.51,17.51,0,0,0-7.53,1.79.59.59,0,0,1-.22,0,.5.5,0,0,1-.45-.29.49.49,0,0,1,.23-.66,18.48,18.48,0,0,1,8-1.89.51.51,0,0,1,.5.5.5.5,0,0,1-.5.5" fill="#231f20"/><path d="M411.63,531.42a17.51,17.51,0,0,0-7.53,1.79.59.59,0,0,1-.22,0,.51.51,0,0,1-.45-.28.5.5,0,0,1,.23-.67,18.62,18.62,0,0,1,8-1.89.51.51,0,0,1,.5.5.5.5,0,0,1-.5.5" fill="#231f20"/><path d="M401.61,545.05a1,1,0,1,1-1,1,1,1,0,0,1,1-1" fill="#231f20"/><path d="M401.61,503.07a.5.5,0,1,1-.5.5.5.5,0,0,1,.5-.5" fill="#231f20"/><path d="M391.59,515.41a18.48,18.48,0,0,1,8,1.89.49.49,0,0,1,.23.66.5.5,0,0,1-.45.29.59.59,0,0,1-.22,0,17.51,17.51,0,0,0-7.53-1.79.5.5,0,0,1-.5-.5.51.51,0,0,1,.5-.5" fill="#231f20"/><path d="M399.12,530.21a17.51,17.51,0,0,0-7.53-1.79.5.5,0,0,1-.5-.5.51.51,0,0,1,.5-.5,18.48,18.48,0,0,1,8,1.89.49.49,0,0,1,.23.66.5.5,0,0,1-.45.29.59.59,0,0,1-.22,0" fill="#231f20"/><path d="M399.12,533.21a17.51,17.51,0,0,0-7.53-1.79.5.5,0,0,1-.5-.5.51.51,0,0,1,.5-.5,18.62,18.62,0,0,1,8,1.89.5.5,0,0,1,.23.67.51.51,0,0,1-.45.28.59.59,0,0,1-.22,0" fill="#231f20"/><path d="M399.12,527.2a17.64,17.64,0,0,0-7.53-1.78.51.51,0,0,1-.5-.5.5.5,0,0,1,.5-.5,18.61,18.61,0,0,1,8,1.88.5.5,0,0,1,.23.67.49.49,0,0,1-.45.28.44.44,0,0,1-.22,0" fill="#231f20"/><path d="M391.59,518.41a18.62,18.62,0,0,1,8,1.89.5.5,0,0,1,.23.67.51.51,0,0,1-.45.28.59.59,0,0,1-.22,0,17.51,17.51,0,0,0-7.53-1.79.5.5,0,0,1-.5-.5.51.51,0,0,1,.5-.5" fill="#231f20"/><path d="M391.59,521.42a18.61,18.61,0,0,1,8,1.88.5.5,0,0,1,.23.67.49.49,0,0,1-.45.28.44.44,0,0,1-.22,0,17.64,17.64,0,0,0-7.53-1.78.51.51,0,0,1-.5-.5.5.5,0,0,1,.5-.5" fill="#231f20"/><path d="M402.11,535.74a29.21,29.21,0,0,1,11.29-2.64V512.67a28.25,28.25,0,0,0-11.29,2.72Zm-1-20.35a28.25,28.25,0,0,0-11.29-2.72V533.1a29.21,29.21,0,0,1,11.29,2.64Zm-11.79-3.73a29.08,29.08,0,0,1,12.29,2.86,29.08,29.08,0,0,1,12.29-2.86.47.47,0,0,1,.35.15.51.51,0,0,1,.15.35V533.6a.5.5,0,0,1-.5.5A28.13,28.13,0,0,0,401.83,537a.51.51,0,0,1-.44,0,28.13,28.13,0,0,0-12.07-2.86.5.5,0,0,1-.5-.5V512.16a.51.51,0,0,1,.15-.35.47.47,0,0,1,.35-.15" fill="#231f20"/><path d="M386.2,505.27H417a.48.48,0,0,1,.47.48v37.66a.47.47,0,0,1-.47.47H386.2a.47.47,0,0,1-.47-.47V505.75a.48.48,0,0,1,.47-.48m.48,37.67h29.86V506.22H386.68v36.72Z" fill="#231f20"/><path d="M386.36,502a3.23,3.23,0,0,0-3.23,3.23V545a3.23,3.23,0,0,0,3.23,3.23h30.5a3.23,3.23,0,0,0,3.23-3.23V505.21a3.23,3.23,0,0,0-3.23-3.23h-30.5Zm-4.23,3.23a4.24,4.24,0,0,1,4.23-4.23h30.5a4.24,4.24,0,0,1,4.23,4.23V545a4.24,4.24,0,0,1-4.23,4.23h-30.5a4.24,4.24,0,0,1-4.23-4.23Z" fill="#231f20"/><path d="M138.37,520V503.18H106.85v15l3-2.53a.5.5,0,0,1,.47-.09l4.26,1.31,7.62-6.87a.47.47,0,0,1,.47-.11l6.17,1.71,6.24-6.19a.49.49,0,0,1,.7,0,.48.48,0,0,1,0,.7l-6.45,6.39a.48.48,0,0,1-.48.13l-6.19-1.72-7.62,6.88a.51.51,0,0,1-.49.11l-4.27-1.32-3.46,2.89V520h10.91a4.13,4.13,0,0,1,8.21,0Z" fill="#fdd600"/><path d="M117.76,521H106.85v.5h11a4,4,0,0,1-.11-.5" fill="#fdd600"/><path d="M139.37,503.18v17.34a.51.51,0,0,1-.5.5H126a4,4,0,0,1-.1.5h14V503.18Z" fill="#fdd600"/><polygon points="142.58 549.99 104.14 549.99 106.11 547.35 106.85 546.35 110.35 541.64 111.35 540.3 114.52 536.04 116.36 536.04 117.36 536.04 119.36 536.04 120.36 536.04 126.36 536.04 127.36 536.04 129.36 536.04 130.36 536.04 132.21 536.04 135.37 540.3 136.37 541.64 139.87 546.35 140.62 547.35 142.58 549.99" fill="#fdd600"/><path d="M104.85,531.77a4.17,4.17,0,1,0-2.68-1,4.13,4.13,0,0,0,2.68,1m0-7.32a3.16,3.16,0,0,1,2,5.57,3.24,3.24,0,0,1-4.07,0,3.12,3.12,0,0,1-1.12-2.41,3.16,3.16,0,0,1,3.15-3.16" fill="#231f20"/><path d="M139.71,532.77H138a4.36,4.36,0,0,0-4.15,4.35l-2.51-3.38a.51.51,0,0,0-.4-.2h-2.1V530a4.36,4.36,0,0,0-4.18-4.36H119a4.36,4.36,0,0,0-4.15,4.36v3.5h-2.1a.51.51,0,0,0-.4.2l-2.51,3.38a4.36,4.36,0,0,0-4.15-4.35H104a4.37,4.37,0,0,0-4.15,4.36v8.22a.51.51,0,0,0,.5.5h3l-2.11,2.84a.49.49,0,0,0,0,.52.51.51,0,0,0,.45.28h40.42a.51.51,0,0,0,.45-.28.49.49,0,0,0-.05-.52l-2.11-2.84h3a.51.51,0,0,0,.5-.5v-8.22a4.37,4.37,0,0,0-4.16-4.36M115.86,530a3.36,3.36,0,0,1,3.18-3.36h5.62a3.36,3.36,0,0,1,3.2,3.36v3.5h-2V530.8a.5.5,0,0,0-1,0v2.74h-6V530.8a.5.5,0,0,0-1,0v2.74h-2Zm-15,14.81v-7.72a3.36,3.36,0,0,1,3.18-3.36h1.62a3.36,3.36,0,0,1,3.2,3.36v1.33l-4.75,6.39Zm40.23,3.64H102.64l2-2.64.74-1,3.5-4.71,1-1.34,3.16-4.26h17.7l3.16,4.26,1,1.34,3.5,4.71.75,1Zm1.79-3.64h-3.25l-4.75-6.39v-1.33a3.36,3.36,0,0,1,3.17-3.36h1.63a3.36,3.36,0,0,1,3.2,3.36Z" fill="#231f20"/><path d="M134.71,527.61a4.16,4.16,0,1,0,4.16-4.16,4.17,4.17,0,0,0-4.16,4.16m7.31,0A3.12,3.12,0,0,1,140.9,530a3.24,3.24,0,0,1-4.07,0,3.16,3.16,0,1,1,5.19-2.41" fill="#231f20"/><path d="M104.39,520.69a.41.41,0,0,0,0,.09s0,0,0,.06h0l.13.1,0,0a.46.46,0,0,0,.2,0h12.91a4.13,4.13,0,0,0,8.2,0h12.91a.51.51,0,0,0,.5-.5V501.17a.51.51,0,0,0-.5-.5h-34a.51.51,0,0,0-.5.5v19.35a.14.14,0,0,0,0,.06.22.22,0,0,0,0,.11M125,521a3.14,3.14,0,0,1-1.06,1.91,3.25,3.25,0,0,1-4.08,0,3.14,3.14,0,0,1-1.06-1.91,2.84,2.84,0,0,1-.06-.5,4,4,0,0,1,0-.5,3.15,3.15,0,0,1,6.22,0,4,4,0,0,1,0,.5,2.84,2.84,0,0,1-.06.5m-19.61-19.34h33V520H126a4.13,4.13,0,0,0-8.21,0H106.23l4.08-3.41,4.27,1.32a.54.54,0,0,0,.49-.1l7.62-6.89,6.19,1.72a.48.48,0,0,0,.48-.13l6.45-6.39a.49.49,0,0,0,0-.7.5.5,0,0,0-.71,0l-6.24,6.19-6.17-1.71a.47.47,0,0,0-.47.11l-7.62,6.87-4.26-1.31a.5.5,0,0,0-.47.09l-4.53,3.78Z" fill="#231f20"/></g><g id="a0f5662a-5172-4564-8659-98cf56682eb2" data-name="CATEGORIES"><text transform="translate(91.8 66.67)" font-size="40" fill="#231f20" font-family="Antonio-Bold, Antonio" font-weight="700">TECHNO<tspan x="109.14" y="0" letter-spacing="0em">L</tspan><tspan x="123.83" y="0">O</tspan><tspan x="143.34" y="0" letter-spacing="0em">G</tspan><tspan x="162.77" y="0">Y/BUSINESS</tspan></text></g><g id="e2076e32-fa49-41e4-bdb2-9e154fb2237b" data-name="LABELS"><text transform="translate(97.08 405.73)" font-size="6" fill="#231f20" font-family="Roboto-Regular, Roboto"><tspan letter-spacing="-0.01em">r</tspan><tspan x="1.97" y="0">obot</tspan></text><text transform="translate(306.86 405.73)" font-size="6" fill="#231f20" font-family="Roboto-Regular, Roboto">computer-code-bar</text><text transform="translate(376.86 405.73)" font-size="6" fill="#231f20" font-family="Roboto-Regular, Roboto">p<tspan x="3.37" y="0" letter-spacing="-0.01em">r</tspan><tspan x="5.34" y="0">escription</tspan></text><text transform="translate(166.83 405.73)" font-size="6" fill="#231f20" font-family="Roboto-Regular, Roboto">fan</text><text transform="translate(236.79 405.73)" font-size="6" fill="#231f20" font-family="Roboto-Regular, Roboto">bank</text><text transform="translate(446.86 405.73)" font-size="6" fill="#231f20" font-family="Roboto-Regular, Roboto">vi<tspan x="4.36" y="0" letter-spacing="0.02em">r</tspan><tspan x="6.54" y="0">tual-telehealth</tspan></text><text transform="translate(306.83 324.58)" font-size="6" fill="#231f20" font-family="Roboto-Regular, Roboto">came<tspan x="14.84" y="0" letter-spacing="-0.02em">r</tspan><tspan x="16.75" y="0">a</tspan></text><text transform="translate(446.71 324.58)" font-size="6" fill="#231f20" font-family="Roboto-Regular, Roboto">spotlight</text><text transform="translate(166.68 324.58)" font-size="6" fill="#231f20" font-family="Roboto-Regular, Roboto">cellphone</text><text transform="translate(96.79 324.58)" font-size="6" fill="#231f20" font-family="Roboto-Regular, Roboto">telephone</text><text transform="translate(236.71 324.58)" font-size="6" fill="#231f20" font-family="Roboto-Regular, Roboto">video-<tspan x="16" y="0" letter-spacing="-0.01em">r</tspan><tspan x="17.98" y="0">eco</tspan><tspan x="27.72" y="0" letter-spacing="-0.01em">r</tspan><tspan x="29.69" y="0">der</tspan></text><text transform="translate(376.22 324.58)" font-size="6" fill="#231f20" font-family="Roboto-Regular, Roboto"><tspan letter-spacing="-0.01em">v</tspan><tspan x="2.86" y="0">olume</tspan></text><text transform="translate(96.75 169.62)" font-size="6" fill="#231f20" font-family="Roboto-Regular, Roboto">consolidation</text><text transform="translate(166.72 169.62)" font-size="6" fill="#231f20" font-family="Roboto-Regular, Roboto">cloud</text><text transform="translate(236.96 169.62)" font-size="6" fill="#231f20" font-family="Roboto-Regular, Roboto">ci<tspan x="4.6" y="0" letter-spacing="-0.01em">r</tspan><tspan x="6.57" y="0">cuits</tspan></text><text transform="translate(306.75 169.62)" font-size="6" fill="#231f20" font-family="Roboto-Regular, Roboto">upload</text><text transform="translate(377.53 169.62)" font-size="6" fill="#231f20" font-family="Roboto-Regular, Roboto">download</text><text transform="translate(446.75 169.62)" font-size="6" fill="#231f20" font-family="Roboto-Regular, Roboto">data-t<tspan x="15.49" y="0" letter-spacing="-0.02em">r</tspan><tspan x="17.4" y="0">ans</tspan><tspan x="27.07" y="0" letter-spacing="-0.01em">f</tspan><tspan x="29.08" y="0">er</tspan></text><text transform="translate(446.75 248.18)" font-size="6" fill="#231f20" font-family="Roboto-Regular, Roboto"><tspan letter-spacing="-0.01em">k</tspan><tspan x="2.98" y="0" letter-spacing="-0.01em">e</tspan><tspan x="6.12" y="0">yboa</tspan><tspan x="19.01" y="0" letter-spacing="-0.01em">r</tspan><tspan x="20.99" y="0">d</tspan></text><text transform="translate(97.24 248.18)" font-size="6" fill="#231f20" font-family="Roboto-Regular, Roboto">file-upload</text><text transform="translate(307.39 248.18)" font-size="6" fill="#231f20" font-family="Roboto-Regular, Roboto">computer-moni<tspan x="40.77" y="0" letter-spacing="-0.01em">t</tspan><tspan x="42.67" y="0">or</tspan></text><text transform="translate(377.5 248.18)" font-size="6" fill="#231f20" font-family="Roboto-Regular, Roboto">lap<tspan x="8.09" y="0" letter-spacing="-0.01em">t</tspan><tspan x="9.99" y="0">op</tspan></text><text transform="translate(237.49 248.18)" font-size="6" fill="#231f20" font-family="Roboto-Regular, Roboto">power-sou<tspan x="27.98" y="0" letter-spacing="-0.01em">r</tspan><tspan x="29.96" y="0">ce</tspan></text><text transform="translate(167.25 248.18)" font-size="6" fill="#231f20" font-family="Roboto-Regular, Roboto">mouse</text><text transform="translate(97 480.34)" font-size="6" fill="#231f20" font-family="Roboto-Regular, Roboto">tv-<tspan x="6.52" y="0" letter-spacing="-0.01em">r</tspan><tspan x="8.5" y="0">emote</tspan></text><text transform="translate(167 480.49)" font-size="6" fill="#231f20" font-family="Roboto-Regular, Roboto">documents-files</text><text transform="translate(236.96 480.34)" font-size="6" fill="#231f20" font-family="Roboto-Regular, Roboto">printer</text><text transform="translate(307.14 480.55)" font-size="6" fill="#231f20" font-family="Roboto-Regular, Roboto">b<tspan x="3.37" y="0" letter-spacing="-0.01em">r</tspan><tspan x="5.34" y="0">ochu</tspan><tspan x="18.51" y="0" letter-spacing="-0.01em">r</tspan><tspan x="20.49" y="0">e</tspan></text><text transform="translate(376.44 480.55)" font-size="6" fill="#231f20" font-family="Roboto-Regular, Roboto">headphones</text><text transform="translate(446.96 480.55)" font-size="6" fill="#231f20" font-family="Roboto-Regular, Roboto">mic<tspan x="9.86" y="0" letter-spacing="-0.01em">r</tspan><tspan x="11.83" y="0">ophone</tspan></text><text transform="translate(98 557.41)" font-size="6" fill="#231f20" font-family="Roboto-Regular, Roboto">boa<tspan x="10.05" y="0" letter-spacing="-0.01em">r</tspan><tspan x="12.03" y="0">d</tspan><tspan x="15.41" y="0" letter-spacing="-0.01em">r</tspan><tspan x="17.38" y="0">oom</tspan></text><text transform="translate(168 557.57)" font-size="6" fill="#231f20" font-family="Roboto-Regular, Roboto">passwo<tspan x="20.75" y="0" letter-spacing="-0.01em">r</tspan><tspan x="22.72" y="0">d</tspan></text><text transform="translate(237.96 557.41)" font-size="6" fill="#231f20" font-family="Roboto-Regular, Roboto">user-p<tspan x="16.63" y="0" letter-spacing="-0.01em">r</tspan><tspan x="18.6" y="0">ofile</tspan></text><text transform="translate(308.14 557.63)" font-size="6" fill="#231f20" font-family="Roboto-Regular, Roboto">wifi</text><text transform="translate(377.44 557.63)" font-size="6" fill="#231f20" font-family="Roboto-Regular, Roboto">digital-textbook</text></g></svg>