<?xml version="1.0" encoding="utf-8"?>
<!-- Generator: Adobe Illustrator 27.7.0, SVG Export Plug-In . SVG Version: 6.00 Build 0)  -->
<svg version="1.1" id="Layer_1" xmlns="http://www.w3.org/2000/svg" xmlns:xlink="http://www.w3.org/1999/xlink" x="0px" y="0px"
	 viewBox="0 0 50 50" style="enable-background:new 0 0 50 50;" xml:space="preserve">
<style type="text/css">
	.st0{display:none;}
	.st1{display:inline;fill:none;stroke:#EA008A;stroke-width:0.2;stroke-miterlimit:10;}
	.st2{font-family:'Roboto-Regular';}
	.st3{font-size:6px;}
</style>
<g id="ICONS_00000031165542127692736420000002692518830807990202_">
	<path d="M48.4,38.1h-1.5c-0.3,0-0.5,0.2-0.5,0.5V41C38.9,30.7,30.7,18.9,25.4,8c-0.2-0.3-0.7-0.3-0.9,0C19.3,18.9,11.1,30.7,3.6,41
		v-2.5c0-0.3-0.2-0.5-0.5-0.5H1.6c-0.3,0-0.5,0.2-0.5,0.5s0.2,0.5,0.5,0.5h1v3.2c0,0,0,0.1,0,0.1c-0.2,0.3-0.4,0.5-0.6,0.8
		c-0.1,0.2-0.1,0.4,0,0.5C2.1,43.9,2.3,44,2.4,44h45.1c0.2,0,0.4-0.1,0.4-0.3c0.1-0.2,0.1-0.4,0-0.5c-0.2-0.3-0.4-0.5-0.6-0.8
		c0,0,0-0.1,0-0.1v-3.2h1c0.3,0,0.5-0.2,0.5-0.5S48.7,38.1,48.4,38.1z M36.2,43H18.2l6.8-16.6C28.6,32,32.4,37.7,36.2,43z
		 M17.4,42.4c-2.2-1.8-3.1-4-3.7-6c3.4-1.7,6.4-4.2,9.3-7.7L17.4,42.4z M37.4,43c-4.1-5.6-8.3-11.9-12-18c0,0,0,0,0,0
		c0-0.1-0.1-0.1-0.1-0.1c0,0,0,0,0,0c0,0-0.1,0-0.1,0c-0.1,0-0.1,0-0.2,0c0,0,0,0,0,0c0,0,0,0,0,0c-0.1,0-0.2,0-0.2,0.1c0,0,0,0,0,0
		c0,0-0.1,0.1-0.1,0.1c-3.6,5.3-7.3,8.7-11.7,10.7c-0.2,0.1-0.3,0.4-0.3,0.6c0.7,2.4,1.6,4.8,3.9,6.7H3.4C11,32.6,19.4,20.5,25,9.4
		C30.6,20.5,39,32.6,46.6,43H37.4z"/>
</g>
<g id="Margin" class="st0">
	<rect x="1" y="1" class="st1" width="48" height="48"/>
</g>
<g id="Guides" class="st0">
</g>
<g id="LABELS">
</g>
<g id="LABELS_00000028314804555359890980000001028868075481009280_">
	<g>
		<g>
			<g>
				<g>
					<g>
						<text transform="matrix(1 0 0 1 -0.114 55.1228)" class="st2 st3">tent</text>
					</g>
				</g>
			</g>
		</g>
	</g>
</g>
</svg>
