<?xml version="1.0" encoding="UTF-8"?><svg id="uuid-c0d00f03-9998-4467-8c0f-a8f9ce63d810" xmlns="http://www.w3.org/2000/svg" viewBox="0 0 50 50"><text transform="translate(.5 56.67)" font-family="MyriadPro-Regular, &apos;Myriad Pro&apos;" font-size="8"><tspan x="0" y="0" letter-spacing="0em">t</tspan><tspan x="2.6" y="0" letter-spacing="0em">e</tspan><tspan x="6.58" y="0" letter-spacing=".01em">x</tspan><tspan x="10.39" y="0" letter-spacing="0em">ting</tspan></text><g><path d="M24.53,33.5c-1.59,0-2.89,1.29-2.89,2.89s1.3,2.89,2.89,2.89,2.9-1.29,2.9-2.89-1.3-2.89-2.9-2.89Zm0,4.78c-1.04,0-1.89-.85-1.89-1.89s.85-1.89,1.89-1.89,1.9,.85,1.9,1.89-.85,1.89-1.9,1.89Z"/><path d="M16.59,33.5c-1.6,0-2.9,1.29-2.9,2.89s1.3,2.89,2.9,2.89,2.89-1.29,2.89-2.89-1.3-2.89-2.89-2.89Zm0,4.78c-1.05,0-1.9-.85-1.9-1.89s.85-1.89,1.9-1.89,1.89,.85,1.89,1.89-.85,1.89-1.89,1.89Z"/><path d="M8.64,33.5c-1.59,0-2.89,1.29-2.89,2.89s1.3,2.89,2.89,2.89,2.9-1.29,2.9-2.89-1.3-2.89-2.9-2.89Zm0,4.78c-1.04,0-1.89-.85-1.89-1.89s.85-1.89,1.89-1.89,1.9,.85,1.9,1.89-.85,1.89-1.9,1.89Z"/><path d="M42.46,19.01H24.37c-.28,0-.5,.22-.5,.5s.22,.5,.5,.5h18.09c.27,0,.5-.22,.5-.5s-.23-.5-.5-.5Z"/><path d="M42.46,22.48H24.37c-.28,0-.5,.22-.5,.5s.22,.5,.5,.5h18.09c.27,0,.5-.23,.5-.5s-.23-.5-.5-.5Z"/><path d="M37.83,25.94h-13.46c-.28,0-.5,.23-.5,.5s.22,.5,.5,.5h13.46c.28,0,.5-.22,.5-.5s-.22-.5-.5-.5Z"/><path d="M8.21,6.36H26.3c.27,0,.5-.23,.5-.5s-.23-.5-.5-.5H8.21c-.28,0-.5,.22-.5,.5s.22,.5,.5,.5Z"/><path d="M8.21,9.82H26.3c.27,0,.5-.22,.5-.5s-.23-.5-.5-.5H8.21c-.28,0-.5,.23-.5,.5s.22,.5,.5,.5Z"/><path d="M18.67,12.29H8.21c-.28,0-.5,.22-.5,.5s.22,.5,.5,.5h10.46c.28,0,.5-.22,.5-.5s-.22-.5-.5-.5Z"/><path d="M41.12,14.07h-9.08c.82-1.37,1.3-3,1.3-4.75C33.34,4.41,29.58,.42,24.97,.42H9.54C4.92,.42,1.17,4.41,1.17,9.32c0,4.61,3.32,8.45,7.61,8.86l2.9,4.12c.09,.14,.24,.22,.41,.22,.16,0,.31-.08,.41-.22l2.86-4.07h3.26c-.81,1.38-1.3,3-1.3,4.75,0,1.64,.43,3.18,1.17,4.5H8.88c-4.62,0-8.38,4-8.38,8.91,0,4.6,3.33,8.45,7.61,8.86l2.9,4.12c.1,.13,.25,.21,.41,.21s.32-.08,.41-.21l2.87-4.07h9.6c4.62,0,8.38-4,8.38-8.91,0-1.65-.43-3.18-1.17-4.51h3.79l2.87,4.08c.09,.13,.25,.21,.41,.21s.31-.08,.41-.21l2.9-4.12c4.28-.42,7.61-4.26,7.61-8.86,0-4.91-3.76-8.91-8.38-8.91Zm-26.02,3.16c-.16,0-.31,.08-.41,.21l-2.6,3.71-2.63-3.73c-.08-.13-.22-.21-.37-.22-3.88-.25-6.92-3.71-6.92-7.88S5.47,1.42,9.54,1.42h15.43c4.06,0,7.37,3.54,7.37,7.9,0,1.79-.56,3.43-1.49,4.75h-5.15c-2.56,0-4.85,1.23-6.39,3.16h-4.21Zm16.58,19.16c0,4.36-3.31,7.91-7.38,7.91H14.44c-.17,0-.32,.07-.41,.21l-2.61,3.7-2.62-3.73c-.09-.12-.23-.2-.38-.21-3.88-.25-6.92-3.72-6.92-7.88s3.31-7.91,7.38-7.91h10.25c1.53,2.07,3.91,3.4,6.57,3.4h4.65c.84,1.28,1.33,2.84,1.33,4.51Zm9.9-5.53c-.15,.01-.29,.09-.38,.21l-2.62,3.73-2.61-3.7c-.09-.14-.24-.22-.41-.22h-9.86c-2.07,0-3.94-.92-5.28-2.4-.28-.31-.54-.64-.77-1-.84-1.28-1.33-2.83-1.33-4.5,0-1.79,.56-3.43,1.5-4.75,.25-.36,.53-.69,.83-1,1.32-1.33,3.09-2.16,5.05-2.16h15.42c4.07,0,7.38,3.55,7.38,7.91s-3.04,7.62-6.92,7.88Z"/></g></svg>