<svg id="a91df8e8-93a5-4663-8d5e-09887b7c2b1d" data-name="ICONS" xmlns="http://www.w3.org/2000/svg" viewBox="0 0 50 50"><path d="M32.58,17.28a.45.45,0,0,0,.45.44h7.52a.45.45,0,0,0,.45-.44V15.34H32.58Z" fill="none"/><path d="M8.94,17.28a.45.45,0,0,0,.45.44h7.52a.45.45,0,0,0,.45-.44V15.34H8.94Z" fill="none"/><path d="M23.41,28.21h-.53V27.16h0l0-8.15A8.09,8.09,0,0,0,6.69,19l-.05,8.14h0v1.05H6.11A2.11,2.11,0,0,0,4,30.31H4v1.9a.5.5,0,0,0,.5.5H8.23v-.5h10v.5H25a.5.5,0,0,0,.5-.5v-1.9h0A2.12,2.12,0,0,0,23.41,28.21ZM17.36,17.28a.45.45,0,0,1-.45.44H9.39a.45.45,0,0,1-.45-.44V15.34h8.42Z" fill="#fdd600"/><path d="M49.17,30.31a2.12,2.12,0,0,0-2.12-2.1h-.53V27.16h0l0-8.15a8.09,8.09,0,0,0-16.16,0l0,8.14h0v1.05h-.53a2.12,2.12,0,0,0-2.12,2.1h0v1.9a.5.5,0,0,0,.5.5h3.74v-.5H41.93v.5h6.74a.5.5,0,0,0,.5-.5v-1.9ZM41,17.28a.45.45,0,0,1-.45.44H33a.45.45,0,0,1-.45-.44V15.34H41Z" fill="#fdd600"/><path d="M49.11,23.17v-.34a2.35,2.35,0,0,0-2-2.5,1.75,1.75,0,0,0-1.07.38V17.46a9.09,9.09,0,0,0-18.15,0v3.43a1.79,1.79,0,0,0-1.3-.59,1.86,1.86,0,0,0-1.54.91,1.86,1.86,0,0,0-1.54-.91,1.68,1.68,0,0,0-1.07.39l0-3.23v0a9.09,9.09,0,0,0-18.15,0l0,3.43a1.77,1.77,0,0,0-1.29-.59,2.35,2.35,0,0,0-2,2.5v.34h0v5.9a.5.5,0,0,0,.5.5.51.51,0,0,0,.17,0v1.17A1.5,1.5,0,0,0,3,32.21H7.24l0,5.13H4.42a.5.5,0,0,0-.5.5V40.6a.5.5,0,0,0,.5.5H22.11a.5.5,0,0,0,.5-.5V37.84a.51.51,0,0,0-.5-.5h-2.8l0-5.13h4.24a1.5,1.5,0,0,0,1.5-1.5V29.56l.1,0v1.17a1.5,1.5,0,0,0,1.5,1.5h4.24l0,5.13H28.06a.5.5,0,0,0-.5.5V40.6a.5.5,0,0,0,.5.5H45.74a.5.5,0,0,0,.5-.5V37.84a.5.5,0,0,0-.5-.5H43l0-5.13h4.24a1.5,1.5,0,0,0,1.5-1.5V29.56a.5.5,0,0,0,.44-.49v-5.9ZM23.43,21.33c.49,0,.93.59,1,1.34H22.4C22.5,21.92,22.93,21.33,23.43,21.33ZM5.19,17.52a8.09,8.09,0,0,1,16.15,0l0,8.2H5.14ZM2.88,21.33c.49,0,.93.59,1,1.34h-2C2,21.92,2.38,21.33,2.88,21.33Zm-1,6.12V23.67H4.15v2.09A3.12,3.12,0,0,0,1.83,27.45ZM21.61,38.34V40.1H4.92V38.34H21.61Zm-13.4-1,0-5.13h10l0,5.13ZM24,30.71a.5.5,0,0,1-.5.5H3a.5.5,0,0,1-.5-.5V30H24ZM24,29H2.5v-.18a2.11,2.11,0,0,1,2.11-2.12h17.3A2.12,2.12,0,0,1,24,28.83Zm.44-2a3.14,3.14,0,0,0-2.09-1.29V23.67h2.1Zm22.59-5.72c.5,0,.93.59,1,1.34H46C46.13,21.92,46.57,21.33,47.06,21.33ZM28.82,17.52a8.09,8.09,0,0,1,16.16,0l0,8.2H28.78Zm-2.31,3.81c.5,0,.94.59,1,1.34H25.49C25.58,21.92,26,21.33,26.51,21.33Zm-1,6.12V23.67h2.32v2.09A3.08,3.08,0,0,0,25.47,27.45ZM45.24,38.34V40.1H28.56V38.34H45.24Zm-13.39-1,0-5.13H41.93l0,5.13Zm15.82-6.63a.5.5,0,0,1-.5.5H26.63a.5.5,0,0,1-.5-.5V30H47.67Zm0-1.7H26.13v-.18a2.12,2.12,0,0,1,2.12-2.12h17.3a2.12,2.12,0,0,1,2.12,2.12Zm.44-2A3.14,3.14,0,0,0,46,25.76V23.67h2.1Z" fill="#231f20"/><path d="M17.86,14.34H8.44a.51.51,0,0,0-.5.5v2.44a1.44,1.44,0,0,0,1.45,1.44h7.52a1.44,1.44,0,0,0,1.45-1.44V14.84A.51.51,0,0,0,17.86,14.34Zm-.5,2.94a.45.45,0,0,1-.45.44H9.39a.45.45,0,0,1-.45-.44V15.34h8.42Z" fill="#231f20"/><path d="M41.5,14.34H32.08a.51.51,0,0,0-.5.5v2.44A1.44,1.44,0,0,0,33,18.72h7.52A1.44,1.44,0,0,0,42,17.28V14.84A.51.51,0,0,0,41.5,14.34ZM41,17.28a.45.45,0,0,1-.45.44H33a.45.45,0,0,1-.45-.44V15.34H41Z" fill="#231f20"/></svg>