<svg xmlns="http://www.w3.org/2000/svg" viewBox="0 0 50 50"><g id="e9b3a580-a4b9-4699-8076-fdd6148b95f2" data-name="ICONS"><path d="M48.91,29.71A3.88,3.88,0,0,0,46.21,26a3.88,3.88,0,0,0-2.32-7H32.56A2.32,2.32,0,0,1,31,18.55a3.19,3.19,0,0,1-.33-3.81c1.36-1.31,3.56-4,3.46-7.48,0-.9-.11-3.66-2-4.58a3.85,3.85,0,0,0-3-.1,4.19,4.19,0,0,0-2.35,2.25C26.64,5,18.86,19.14,16.44,22H12.85V21a.5.5,0,0,0-.5-.5H1.09a.5.5,0,0,0-.5.5V43.61a.5.5,0,0,0,.5.5H12.35a.51.51,0,0,0,.5-.5v-1h3.36l2.22,0a28.81,28.81,0,0,0,5.16,2.69A27.47,27.47,0,0,0,33,47.18h7.53a3.75,3.75,0,0,0,3.56-3.9,4,4,0,0,0-1.19-2.89h.21a3.75,3.75,0,0,0,3.56-3.89,4.07,4.07,0,0,0-1.19-2.91A3.9,3.9,0,0,0,48.91,29.71ZM45.35,32.6h-5a.5.5,0,0,0-.5.5.5.5,0,0,0,.5.5h2.75a2.92,2.92,0,0,1,0,5.79H38.21a.5.5,0,1,0,0,1h2.32a2.92,2.92,0,0,1,0,5.79H33a26.23,26.23,0,0,1-9-1.85,27.4,27.4,0,0,1-5.11-2.68.5.5,0,0,0-.27-.08h0l-5.72,0V23h3.82a.52.52,0,0,0,.37-.16c2.32-2.55,10.22-16.94,10.58-17.6a3.12,3.12,0,0,1,1.81-1.75,2.84,2.84,0,0,1,2.22.06c1.34.66,1.41,3,1.43,3.71.09,3.18-2,5.61-3.21,6.78a.64.64,0,0,0-.1.13c-1,1.88-.76,4,.54,5.11a3.25,3.25,0,0,0,2.27.71h11.3a2.9,2.9,0,0,1,0,5.79H41.36a.5.5,0,0,0-.5.5.5.5,0,0,0,.5.5H45.3a2.91,2.91,0,0,1,.05,5.79ZM1.59,21.5H11.85V43.11H1.59Z"/></g><g id="ae1f03aa-c423-456e-b02d-7064ecdd984e" data-name="LABELS"><text transform="translate(0 54.62)" font-size="6" font-family="Roboto-Regular, Roboto">thumbs-up</text></g></svg>