<?xml version="1.0" encoding="UTF-8"?>
<svg xmlns="http://www.w3.org/2000/svg" viewBox="0 0 50 50">
  <defs>
    <style>
      .cls-1 {
        font-family: ArialMT, Arial;
        font-size: 6px;
      }

      .cls-2 {
        letter-spacing: -.11em;
      }
    </style>
  </defs>
  <g id="Black">
    <g>
      <path d="M39.07,5.34H10.84c-4.43,0-7.9,6.29-7.9,14.31s3.47,14.31,7.9,14.31c.13,0,.25-.02.37-.03v.03h6.52v10.18c0,.28.22.5.5.5h28.32c.28,0,.5-.22.5-.5V15.84c0-9.28-7.84-10.48-7.99-10.5ZM10.84,32.97c-3.8,0-6.9-5.97-6.9-13.31s3.09-13.31,6.9-13.31,6.9,5.97,6.9,13.31-3.09,13.31-6.9,13.31ZM17.74,32.97h-3.96c1.7-1.2,3.09-3.41,3.96-6.26v6.26ZM46.05,43.66h-27.32v-9.68s-.02-13.69-.01-13.81h1.51c.28,0,.5-.22.5-.5s-.22-.5-.5-.5h-1.51c-.11-5.91-2.1-10.8-4.95-12.81h25.22c.29.04,7.06,1.1,7.06,9.5v3.32h-1.5c-.28,0-.5.22-.5.5s.22.5.5.5h1.5v23.5Z"/>
      <path d="M27.19,19.16h-3.47c-.28,0-.5.22-.5.5s.22.5.5.5h3.47c.28,0,.5-.22.5-.5s-.22-.5-.5-.5Z"/>
      <path d="M41.08,19.16h-3.47c-.28,0-.5.22-.5.5s.22.5.5.5h3.47c.28,0,.5-.22.5-.5s-.22-.5-.5-.5Z"/>
      <path d="M34.13,19.16h-3.47c-.28,0-.5.22-.5.5s.22.5.5.5h3.47c.28,0,.5-.22.5-.5s-.22-.5-.5-.5Z"/>
      <path d="M10.18,16.68c-1.06,0-1.86,1.28-1.86,2.98s.8,2.98,1.86,2.98,1.86-1.28,1.86-2.98-.8-2.98-1.86-2.98ZM10.18,21.63c-.35,0-.86-.77-.86-1.98s.51-1.98.86-1.98.86.77.86,1.98-.51,1.98-.86,1.98Z"/>
    </g>
  </g>
  <g id="Labels">
    <text class="cls-1" transform="translate(0 54.95)"><tspan class="cls-2" x="0" y="0">T</tspan><tspan x="3" y="0">oilet Paper</tspan></text>
  </g>
</svg>