<svg xmlns="http://www.w3.org/2000/svg" viewBox="0 0 50 50"><g id="b9a8643b-75ad-4cd9-b229-9fe047cc8b81" data-name="ICONS"><path d="M8.86,39.58a3.28,3.28,0,1,0,3.28-3.29A3.28,3.28,0,0,0,8.86,39.58Z" fill="none"/><path d="M38.27,29.28a6.15,6.15,0,1,0,6.15,6.15A6.16,6.16,0,0,0,38.27,29.28Z" fill="none"/><path d="M43.55,26.17V8.05h1a.5.5,0,0,0,.5-.5V4.39a.51.51,0,0,0-.5-.5H16.34a.5.5,0,0,0-.5.5V7.55a.5.5,0,0,0,.5.5H17.4l-.64,12.78-.07,1.58H12.64V20.05A6.35,6.35,0,0,0,6.3,13.71a.5.5,0,0,0-.5.5v3.68a.5.5,0,0,0,.5.5A1.66,1.66,0,0,1,8,20.05v2.36H3.71a.5.5,0,0,0-.5.44l-.54,4.33-.48,3.93L1.06,40.23a.47.47,0,0,0,.12.39.48.48,0,0,0,.37.17H5.73a6.52,6.52,0,0,0,12.82,0h10.5a10.67,10.67,0,1,0,14.5-14.61ZM16.84,7.05V4.89H44.05V7.05H16.84Zm7.82,11.58-3.12-3.11a.5.5,0,0,0-.71.71l1.35,1.34-2.84,2.79H17.79L18.4,8.05h20V20.36H20.77l2.12-2.08L24,19.34a.51.51,0,0,0,.36.15.5.5,0,0,0,.35-.15A.51.51,0,0,0,24.66,18.63ZM6.8,17.44V14.73a5.35,5.35,0,0,1,4.84,5.32v2.36H9V20.05A2.65,2.65,0,0,0,6.8,17.44ZM3.61,27.74H7.8v2.93H3.25Zm8.53,17.37a5.53,5.53,0,1,1,5.53-5.53A5.54,5.54,0,0,1,12.14,45.11Zm6.52-5.33c0-.07,0-.13,0-.2a6.53,6.53,0,0,0-13.06,0c0,.07,0,.14,0,.21H2.12l1-8.12H8.3a.5.5,0,0,0,.5-.5V27.24a.5.5,0,0,0-.5-.5H3.74l.41-3.33h13a.49.49,0,0,0,.5-.47l.08-1.58h21.2a.51.51,0,0,0,.5-.5V8.05h3.11V25.66a10.55,10.55,0,0,0-4.28-.9,10.66,10.66,0,0,0-9.74,15Zm19.61,5.33A9.68,9.68,0,1,1,48,35.43,9.69,9.69,0,0,1,38.27,45.11Z"/><path d="M38.27,29.28a6.15,6.15,0,1,0,6.15,6.15A6.16,6.16,0,0,0,38.27,29.28Zm0,11.3a5.15,5.15,0,1,1,5.15-5.15A5.16,5.16,0,0,1,38.27,40.58Z"/><path d="M12.14,36.29a3.29,3.29,0,1,0,3.28,3.29A3.29,3.29,0,0,0,12.14,36.29Zm0,5.57a2.29,2.29,0,1,1,2.28-2.28A2.29,2.29,0,0,1,12.14,41.86Z"/></g><g id="be9770d7-480e-4b0d-bb5c-1cb87b276d70" data-name="LABELS"><text transform="translate(0 55.12)" font-size="6" font-family="Roboto-Regular, Roboto">t<tspan x="1.96" y="0" letter-spacing="-0.02em">r</tspan><tspan x="3.87" y="0">ac</tspan><tspan x="10.28" y="0" letter-spacing="-0.01em">t</tspan><tspan x="12.18" y="0">or</tspan></text></g></svg>