<?xml version="1.0" encoding="UTF-8"?>
<svg xmlns="http://www.w3.org/2000/svg" viewBox="0 0 50 50">
  <defs>
    <style>
      .cls-1 {
        fill: #1f1c1d;
      }

      .cls-2 {
        fill: #221f1f;
        font-family: Roboto-Regular, Roboto;
        font-size: 5px;
      }

      .cls-3 {
        letter-spacing: -.02em;
      }
    </style>
  </defs>
  <g id="Icon_Outline">
    <g>
      <path class="cls-1" d="M40.17,20.64l-9.4-.03c.98-1.54,1.55-3.39,1.55-5.38,0-5.3-4.04-9.62-9-9.62h-13.46C4.9,5.61.86,9.93.86,15.23c0,4.98,3.58,9.13,8.2,9.57l3.14,4.49c.09.13.25.21.41.21s.32-.08.41-.21l3.1-4.44h3.11c-.96,1.52-1.54,3.33-1.54,5.3-.02,5.28,4.01,9.58,8.97,9.6l7.2.02,3.09,4.42c.09.13.25.21.41.21s.32-.08.41-.21l3.15-4.45c4.62-.42,8.21-4.54,8.23-9.5.02-5.28-4.01-9.58-8.97-9.6ZM15.86,23.85c-.16,0-.32.08-.41.21l-2.84,4.07-2.87-4.09c-.09-.12-.22-.2-.38-.21-4.21-.28-7.5-4.05-7.5-8.59s3.59-8.62,8-8.62h13.46c4.41,0,8,3.87,8,8.62s-3.59,8.62-8,8.62h-7.46ZM40.61,38.76c-.15,0-.29.09-.38.21l-2.88,4.06-2.83-4.05c-.09-.13-.25-.21-.41-.21l-7.46-.02c-4.41-.01-7.99-3.87-7.97-8.59,0-2.01.67-3.84,1.75-5.3h2.88c2.67,0,5.06-1.26,6.71-3.24l10.14.03c4.41.01,7.99,3.87,7.97,8.59-.01,4.51-3.32,8.26-7.53,8.52Z"/>
      <path class="cls-1" d="M15.8,9.74l-4.14,10.95h1.98l.89-2.55h4.24l.89,2.55h1.99l-4.15-10.95h-1.71ZM15.07,16.61l1.59-4.54,1.59,4.54h-3.18Z"/>
      <path class="cls-1" d="M36.13,30.11c.48-.89.69-1.43,1.03-2.66h.7c.69,0,1.14.03,1.62.08v-1.5c-.49.07-.95.09-1.67.09h-3.7v-.95c0-.38.03-.7.09-1.01h-1.68c.07.3.09.62.09,1.02v.94h-3.53c-.7,0-1.15-.03-1.66-.09v1.5c.48-.05.99-.08,1.62-.08h.62c.45,1.35.69,1.92,1.19,2.78.45.77.93,1.42,1.56,2.12-1.37,1.13-2.84,1.82-5.21,2.46.38.48.61.85.85,1.42,1.26-.42,2.01-.73,2.82-1.14.94-.49,1.84-1.09,2.6-1.72,1.47,1.26,3.09,2.12,5.34,2.86.29-.71.48-1.03.91-1.55-2.13-.48-3.72-1.19-5.18-2.33.62-.72,1.11-1.41,1.56-2.24ZM33.48,31.37c-.5-.53-.86-.99-1.27-1.66-.46-.78-.68-1.26-1.01-2.27h4.4c-.32,1.07-.52,1.54-.91,2.25-.36.62-.74,1.15-1.21,1.67Z"/>
    </g>
  </g>
  <g id="Names">
    <text class="cls-2" transform="translate(0 53.99)"><tspan x="0" y="0">t</tspan><tspan class="cls-3" x="1.63" y="0">r</tspan><tspan x="3.23" y="0">anslation</tspan></text>
  </g>
</svg>