<svg xmlns="http://www.w3.org/2000/svg" viewBox="0 0 50 50"><defs><style>.cls-1{font-size:6px;font-family:Roboto-Regular, Roboto;}.cls-2{letter-spacing:-0.02em;}.cls-3{letter-spacing:-0.01em;}</style></defs><g id="ICONS"><path d="M32.21,18.86H17.79a.5.5,0,0,0-.5.5.5.5,0,0,0,.5.5H32.21a.5.5,0,0,0,.5-.5A.5.5,0,0,0,32.21,18.86Z"/><path d="M32.21,24.12H17.79a.5.5,0,0,0-.5.5.5.5,0,0,0,.5.5H32.21a.5.5,0,0,0,.5-.5A.5.5,0,0,0,32.21,24.12Z"/><path d="M46.12,1.13a.23.23,0,0,0,0-.11A.33.33,0,0,0,46,.92s0,0,0-.06h0a.56.56,0,0,0-.15-.1h0l-.08,0-.11,0H38.49a.5.5,0,0,0-.5.5.5.5,0,0,0,.5.5h5.9l-9.21,8.81a15.27,15.27,0,0,0-20.36,0L11.93,7.76l3.23-3.23a.5.5,0,0,0,0-.71.5.5,0,0,0-.7,0L11.21,7.07,5.61,1.71h5.9a.5.5,0,0,0,.5-.5.5.5,0,0,0-.5-.5H4.35l-.1,0A.5.5,0,0,0,4,.86H4s0,0,0,.06A.33.33,0,0,0,3.9,1a.23.23,0,0,0,0,.11.24.24,0,0,0,0,.08V8a.5.5,0,1,0,1,0V2.38l5.64,5.4L7.27,11a.5.5,0,0,0,0,.71.5.5,0,0,0,.35.15A.51.51,0,0,0,8,11.72l3.24-3.25,2.86,2.74A15.33,15.33,0,0,0,24.5,37.32v7.15H19.84a.51.51,0,0,0-.5.5.5.5,0,0,0,.5.5H24.5v3.32a.5.5,0,0,0,1,0V45.47H30a.5.5,0,0,0,.5-.5.5.5,0,0,0-.5-.5H25.5V37.32A15.33,15.33,0,0,0,35.92,11.21l9.22-8.83V8a.5.5,0,0,0,1,0V1.21A.24.24,0,0,0,46.12,1.13ZM39.36,22A14.36,14.36,0,1,1,25,7.63,14.37,14.37,0,0,1,39.36,22Z"/></g><g id="LABELS"><text class="cls-1" transform="translate(0.08 54.84)">t<tspan class="cls-2" x="1.96" y="0">r</tspan><tspan x="3.87" y="0">ans-inclusi</tspan><tspan class="cls-3" x="32.42" y="0">v</tspan><tspan x="35.29" y="0">e</tspan></text></g></svg>