<svg xmlns="http://www.w3.org/2000/svg" viewBox="0 0 50 50"><g id="a5244fdc-6c75-4e51-94a1-590987f4dc0b" data-name="ICONS"><path d="M32.6,24.18c0-11.61-3.75-21.43-8.19-21.43s-8.2,9.82-8.2,21.43c0,5.42,3.41,9.85,7.7,10.17h1C29.19,34,32.6,29.6,32.6,24.18Z" fill="#fdd600"/><path d="M32.1,22.68c0-12.58-4-22.43-9.19-22.43s-9.2,9.85-9.2,22.43c0,6,3.86,10.85,8.7,11.17V49.28a.5.5,0,0,0,.5.5.5.5,0,0,0,.5-.5V33.85C28.24,33.53,32.1,28.65,32.1,22.68Zm-8.69,1.19h0l3.72-3.72a.5.5,0,0,0,0-.7.5.5,0,0,0-.71,0l-3,3V9.55a.5.5,0,0,0-.5-.5.5.5,0,0,0-.5.5v6L20,13.14a.5.5,0,0,0-.71,0,.48.48,0,0,0,0,.7L22.41,17V29.16L20,26.7a.5.5,0,0,0-.71,0,.48.48,0,0,0,0,.7l3.17,3.17v2.28c-4.29-.32-7.7-4.75-7.7-10.17,0-11.61,3.75-21.43,8.2-21.43s8.19,9.82,8.19,21.43c0,5.42-3.41,9.85-7.69,10.17Z" fill="#231f20"/></g><g id="b52646c4-00c8-496f-ac32-6e9f4f0303fb" data-name="LABELS"><text transform="translate(0.25 55)" font-size="6" fill="#231f20" font-family="Roboto-Regular, Roboto">t<tspan x="1.96" y="0" letter-spacing="-0.01em">r</tspan><tspan x="3.93" y="0">ee-four</tspan></text></g></svg>