<svg id="b89c9bf4-4b34-45b8-bab4-d1bf31ed8c54" data-name="ICONS" xmlns="http://www.w3.org/2000/svg" viewBox="0 0 50 50"><path d="M34.84,3.53l-1.53,10.9a.54.54,0,0,1-.15.29L6.83,41.05l1.35,1.36,3.87-3.86a.47.47,0,0,1,.35-.15l.15,0a.5.5,0,0,1,.34.4,6.4,6.4,0,0,0,10.84,3.45l9.56-9.56a6.4,6.4,0,0,0-3.45-10.84.5.5,0,0,1-.4-.34.49.49,0,0,1,.13-.5l5.2-5.21a.62.62,0,0,1,.28-.14L45.52,14.2Zm-3.24,21,.81.81a3.92,3.92,0,0,1,0,5.54L22,41.25a3.91,3.91,0,0,1-5.54,0l-.81-.81a3.92,3.92,0,0,1,0-5.54L26.06,24.53A4,4,0,0,1,31.6,24.53Z" fill="#fdd600"/><path d="M46.25,13.54,34.16,1.45a.46.46,0,0,0-.51-.12.5.5,0,0,0-.34.4L31.66,13.46l-10,10-1.59-1.59.14-.13a.5.5,0,0,0-.71-.71l-1,1a.51.51,0,0,0,0,.71.52.52,0,0,0,.71,0l.13-.14,1.59,1.59L18.82,26.3l-1.59-1.59.14-.13a.51.51,0,0,0,0-.71.5.5,0,0,0-.71,0l-1,1a.5.5,0,0,0,0,.7.51.51,0,0,0,.36.15.5.5,0,0,0,.35-.15l.13-.13L18.11,27,16,29.13,14.4,27.54l.14-.13a.51.51,0,0,0,0-.71.5.5,0,0,0-.71,0l-1,1a.5.5,0,0,0,0,.7.51.51,0,0,0,.36.15.5.5,0,0,0,.35-.15l.13-.13,1.59,1.59-2,2h0L5.44,39.68l-.87-.87a.5.5,0,0,0-.71,0l-2,2a.5.5,0,0,0,0,.7L6.2,45.83a.51.51,0,0,0,.7,0l2-2a.5.5,0,0,0,0-.71l-.68-.68,3.23-3.23a7.29,7.29,0,0,0,1.84,3.09,7.41,7.41,0,0,0,10.48,0l9.56-9.56a7.4,7.4,0,0,0-3.09-12.32L34.68,16,46,14.39a.5.5,0,0,0,.4-.34A.48.48,0,0,0,46.25,13.54ZM34.09,15.15l-5.21,5.21-3.5,3.51-.78.77-.89.89-1.36-1.35L32.48,14.05a.54.54,0,0,0,.15-.29l1.53-10.9L44.84,13.54,34.37,15A.62.62,0,0,0,34.09,15.15ZM14,41.6a6.32,6.32,0,0,1-1.78-3.45s0,0,0-.08A6.45,6.45,0,0,1,14,32.57l2-2,1.35,1.36L15,34.23a3.92,3.92,0,0,0,0,5.54l.81.81a3.91,3.91,0,0,0,5.54,0L31.73,30.22a3.93,3.93,0,0,0,0-5.55l-.81-.8a3.88,3.88,0,0,0-3-1.13l1.47-1.47A6.28,6.28,0,0,1,32.61,23a6.42,6.42,0,0,1,0,9.07l-9.56,9.56A6.42,6.42,0,0,1,14,41.6ZM6.15,40.38l5.21-5.21a7.45,7.45,0,0,0-.19,2.9L7.5,41.74Zm19.16-15,.78-.78a2.92,2.92,0,0,1,4.12,0l.81.81a2.92,2.92,0,0,1,0,4.13l-1.67,1.67-4.93-4.94Zm3.34,6.53L26.52,34l-4.93-4.94L23.71,27ZM23.7,36.83,18.76,31.9l2.12-2.12,4.94,4.93Zm-.71.71-2.34,2.34a2.93,2.93,0,0,1-4.12,0l-.81-.81a2.92,2.92,0,0,1,0-4.13l2.33-2.33Zm-2.11-9.18L19.53,27l2.12-2.13L23,26.24Zm-.71.71-2.12,2.12L16.7,29.84l2.12-2.13ZM6.55,44.77,2.93,41.15l1.28-1.28.88.87L7.15,42.8l.68.68Z" fill="#231f20"/></svg>