<?xml version="1.0" encoding="UTF-8"?><svg xmlns="http://www.w3.org/2000/svg" viewBox="0 0 50 50"><g id="uuid-511a51ed-4ce2-42fe-9c17-ae43239f302b"><path d="M48.78,13.38c-.12-.07-.21-.12-.3-.26-.1-.16-.1-.27-.1-.46,0-.22,0-.53-.21-.86-.32-.52-.91-.78-1.36-.85-.43-.07-.8,.01-1.05,.23-.33,.28-.31,.66-.3,.96,.01,.23,.03,.52-.07,.92-.05,.21-.16,.69-.51,1.08-.17,.19-.35,.31-.86,.56-.76,.37-1.26,.56-1.62,.7-.54,.2-.86,.33-1.16,.76-.26,.37-.31,.73-.35,.99-.01,.09-.03,.21-.04,.23-.06,.03-.18,.01-.31,0-.25-.03-.64-.09-.97,.22-.26,.24-.26,.51-.27,.7,0,.09,0,.17-.03,.28-.15,.58-.77,.91-.96,1-.16,.08-.31,.13-.43,.16,.12-.32,.29-.8,0-1.24-.25-.39-.66-.44-.92-.48-.08-.01-.21-.03-.22,0,0-.04,.03-.14,.05-.21,.08-.26,.21-.64-.03-1.06-.17-.29-.4-.41-.58-.5-.14-.07-.22-.11-.3-.24-.04-.06-.04-.07-.05-.12-.02-.09-.04-.22-.14-.39-.39-.68-1.35-.86-2.07-.85h-.19c-.23,.02-.92,.05-1.05,.04-.1-.01-.2-.04-.2-.04l-.12-.05c-.1-.05-.17-.08-.23-.12-.32-.16-.64-.03-.9,.12,.03-.05,.07-.1,.11-.14,.14-.13,.2-.33,.15-.51-.05-.19-.21-.32-.4-.36-1.39-.24-1.76-.38-1.85-.43-.05-.03-.29-.16-.65-.27-.08-.03-.18-.05-.29-.07-.33-.06-.57-.03-.75-.02-.14,.01-.17,.01-.18,0-.05-.06-.12-.17-.28-.28-.35-.25-.81-.33-1.35-.22-3.41,0-6.86-.25-10.25-.73-3.42-.49-6.82-1.22-10.13-2.18-.15-.04-.31-.01-.43,.07-.12,.09-.2,.23-.21,.39,0,.16-.02,.35-.04,.59l-.77-.51c-.16-.11-.36-.11-.52-.02-.16,.09-.26,.27-.25,.46,0,.21,.02,.51,.03,.88,.01,.92,.02,1.38-.05,1.73-.06,.3-.32,.78-.76,1.57-.28,.51-.47,.82-.61,1.04-.23,.37-.34,.54-.38,.92-.06,.46,.02,.81,.08,1.06,.06,.28,.07,.34,0,.45-.06,.1-.13,.15-.27,.24-.2,.12-.49,.31-.58,.73-.07,.34,.05,.57,.15,.76,.07,.13,.14,.27,.19,.51,.03,.16,.03,.22,.03,.33,0,.13-.01,.28,.03,.54,.05,.36,.14,.56,.23,.77,.06,.14,.13,.3,.21,.57,.11,.37,.16,.69,.27,1.32,.07,.41,.11,.77,.17,1.19l.05,.43c.08,.67,.11,.9,.31,1.2,.19,.28,.37,.38,.59,.5,.1,.06,.24,.13,.42,.25,.58,.39,1.02,.82,1.33,1.27,.24,.36,.42,.78,.52,1.24,.05,.21,.22,.37,.43,.39l1.81,.21c1.06,.93,2.26,1.63,3.58,2.08,.86,.29,1.77,.48,2.69,.54,.13,.01,.27-.04,.38-.13s.16-.23,.16-.37v-.23c.29-.03,.65,.05,.98,.24,.39,.21,.63,.54,.88,.89,.15,.21,.31,.42,.43,.74,.07,.19,.09,.3,.1,.42,.02,.16,.05,.35,.19,.59,.28,.47,.91,.94,1.58,.87,.43-.05,.68-.3,.84-.47,.14-.15,.2-.2,.32-.21,.26-.05,.52,.15,.61,.21,.13,.1,.18,.17,.37,.49,.08,.13,.17,.29,.3,.49,.26,.41,.39,.57,.49,.7,.07,.09,.12,.15,.21,.32,.18,.33,.24,.53,.3,.73,.08,.25,.15,.51,.42,.86,.19,.24,.63,.82,1.39,.91,.07,0,.14,.01,.23,.01,.42,0,1-.13,1.25-.62,.19-.38,.05-.73-.04-.96-.06-.14-.11-.27-.11-.42,0-.3,.23-.57,.62-.97,.68-.71,1.41-.96,3-1.53l.1-.04c.6-.21,.83-.25,1.09-.19,.16,.04,.23,.1,.37,.21,.16,.12,.35,.27,.68,.42,.5,.22,1.87,.63,2.27-.1,.24-.42-.06-.83-.26-1.1-.05-.07-.13-.18-.18-.24,.1-.04,.29-.09,.64-.17,.93-.2,1.49-.33,1.78-.26,.3,.07,.47,.2,.65,.34,.25,.19,.56,.42,1.07,.37,.44-.04,.7-.28,.88-.43,.14-.13,.18-.16,.27-.16h0c.3,0,.71,.32,.75,.6,0,.04,0,.07,0,.16-.02,.15-.04,.36,0,.71,.04,.38,.14,.79,.53,.97,.1,.04,.19,.06,.25,.06,.02,.06,.04,.14,.06,.2,.04,.15,.08,.32,.15,.48,.08,.2,.37,.91,1.02,1.38,.34,.26,.75,.42,1.21,.49,.2,.03,.4-.06,.5-.24,.31-.51,.46-1.04,.47-1.58,0-.87-.41-1.52-.84-2.21-.25-.4-.41-.58-.53-.73-.08-.1-.16-.18-.25-.34-.46-.76-.6-1.8-.37-2.65,.2-.71,.7-1.23,1.82-2.38,.28-.28,.5-.49,.68-.66,.44-.41,.73-.67,1-1.27,.36-.79,.46-1.6,.31-2.35-.03-.12-.05-.23-.08-.32-.05-.17-.06-.22-.04-.31,.01-.06,.02-.07,.07-.14,.07-.09,.17-.22,.24-.45,.14-.45,.03-.81-.05-1.05-.05-.17-.07-.23-.02-.27,.11-.06,.29-.17,.44-.43,.21-.36,.16-.68,.13-.89-.02-.14-.03-.21,0-.29,.07-.19,.28-.33,.45-.45,.19-.13,.58-.4,.43-.83,.04-.02,.08-.03,.12-.05,.39-.16,.73-.24,.98-.31,.38-.09,.82-.2,.85-.66,.02-.41-.33-.58-.49-.65-.1-.04-.19-.09-.25-.15-.19-.24-.08-.93,.24-1.49,.3-.52,.74-.82,1.1-1.07,.41-.28,.87-.6,.76-1.16-.07-.36-.34-.52-.5-.61Zm-.83,.95c-.42,.29-.99,.68-1.4,1.39-.47,.81-.7,1.92-.17,2.6-.2,.06-.43,.13-.68,.23-.78,.32-1.28,.63-1.15,1.13,.01,.04,.03,.08,.05,.12-.18,.16-.37,.38-.47,.67-.11,.32-.08,.58-.05,.77,.02,.16,.02,.19-.08,.31-.11,.06-.29,.17-.42,.42-.21,.4-.1,.76-.02,1.01,.06,.2,.09,.32,.05,.46-.02,.06-.04,.08-.08,.14-.08,.1-.19,.26-.25,.54-.07,.34,0,.57,.06,.78,.02,.07,.04,.15,.06,.25,.11,.54,.03,1.15-.25,1.75-.18,.4-.36,.57-.76,.94-.2,.18-.43,.4-.72,.7-1.16,1.19-1.8,1.85-2.07,2.81-.31,1.12-.13,2.44,.48,3.44,.13,.22,.23,.34,.35,.47,.11,.13,.24,.28,.44,.61,.43,.68,.69,1.13,.69,1.68,0,.25-.05,.5-.16,.75-.16-.05-.3-.13-.42-.22-.44-.33-.65-.87-.67-.93-.05-.13-.09-.27-.12-.39-.1-.36-.22-.82-.68-.93-.04,0-.07-.01-.11-.02,0-.04-.02-.09-.02-.15-.03-.24-.01-.36,0-.48,.01-.12,.03-.26,0-.45-.13-.75-.96-1.43-1.74-1.43h-.03c-.46,.01-.73,.25-.91,.41-.14,.13-.2,.17-.31,.18-.1,0-.14,0-.36-.17-.22-.17-.52-.4-1.03-.52-.51-.12-1.08,0-2.22,.25-.86,.19-1.24,.33-1.4,.72-.18,.45,.06,.86,.27,1.15-.21-.03-.47-.09-.74-.21-.22-.1-.35-.19-.48-.29-.18-.14-.38-.29-.73-.38-.58-.15-1.08,0-1.67,.21l-.1,.04c-1.64,.58-2.55,.9-3.39,1.78-.42,.44-.9,.94-.9,1.67,0,.34,.11,.6,.19,.79,.02,.05,.05,.12,.07,.12h0c-.06,.04-.26,.09-.46,.07-.35-.04-.58-.35-.72-.53-.15-.2-.19-.32-.25-.53-.07-.22-.15-.5-.38-.92-.14-.25-.21-.34-.31-.47-.08-.11-.2-.25-.43-.61-.12-.19-.21-.34-.28-.46-.21-.36-.34-.57-.66-.8-.38-.26-.75-.39-1.11-.39-.07,0-.14,0-.21,.01-.46,.07-.71,.33-.88,.5-.14,.14-.17,.17-.24,.17-.23,.01-.49-.19-.62-.4-.04-.06-.04-.09-.06-.21-.02-.14-.05-.34-.16-.64-.17-.45-.38-.75-.56-.99-.29-.4-.62-.85-1.2-1.17-.75-.42-1.52-.4-2.05-.31-.24,.04-.42,.25-.42,.49v.13c-.65-.08-1.29-.23-1.9-.44-1.23-.42-2.36-1.09-3.35-1.98-.08-.07-.17-.12-.28-.13l-1.63-.19c-.13-.45-.33-.86-.57-1.23-.38-.56-.92-1.08-1.6-1.55-.21-.14-.37-.23-.49-.3-.18-.1-.2-.11-.25-.19-.06-.09-.07-.16-.15-.76l-.05-.43c-.05-.43-.1-.81-.17-1.23-.11-.65-.16-1.01-.3-1.45-.1-.32-.18-.51-.25-.68-.08-.18-.12-.28-.16-.52-.03-.17-.02-.27-.02-.36,0-.14,.01-.3-.05-.57-.08-.38-.2-.61-.28-.77-.02-.04-.05-.11-.06-.09,.02-.02,.08-.06,.13-.09,.17-.1,.42-.26,.61-.59,.26-.46,.17-.85,.1-1.17-.05-.22-.1-.43-.06-.71,.02-.15,.03-.17,.24-.52,.14-.22,.34-.55,.63-1.08,.5-.91,.78-1.41,.87-1.87,.09-.45,.08-.93,.07-1.88l.16,.11c.07,.5,.22,.9,.64,.91,.51,0,.57-.48,.66-1.29,.02-.18,.04-.35,.05-.5,3.16,.89,6.41,1.58,9.67,2.04,3.44,.49,6.95,.74,10.42,.74,.04,0,.08,0,.12-.01,.19-.04,.46-.06,.67,.11,.06,.08,.15,.21,.37,.31,.28,.13,.52,.11,.72,.09,.14-.01,.28-.03,.48,0,.07,.01,.12,.03,.17,.04,.26,.08,.43,.17,.47,.19,.17,.09,.5,.22,1.45,.4-.12,.45-.09,1.05,.36,1.28,.38,.19,.75-.03,1.03-.19,.05-.03,.13-.08,.18-.1,.04,.02,.1,.05,.16,.08l.18,.07s.2,.07,.43,.1c.16,.02,.55,0,1.21-.03h.18c.45-.04,1.02,.1,1.19,.42,.02,.12,.06,.26,.18,.46,.23,.37,.51,.52,.7,.61,.11,.05,.14,.07,.16,.1,.02,.04,0,.13-.05,.27-.08,.25-.2,.62,.04,1.01,.25,.4,.66,.46,.94,.49,.08,.01,.21,.03,.21,.02,.01,.06-.06,.26-.1,.37-.11,.3-.27,.75,.05,1.11,.41,.46,1.17,.24,1.74-.02,.37-.17,1.26-.68,1.51-1.65,.04-.17,.05-.31,.06-.46,.04,0,.07,0,.1,.01,.23,.03,.58,.08,.92-.11,.45-.25,.52-.68,.56-.97,.03-.21,.06-.39,.18-.57,.11-.16,.19-.2,.69-.39,.36-.14,.91-.35,1.71-.74,.57-.28,.87-.46,1.17-.79,.52-.58,.67-1.26,.73-1.52,.13-.54,.1-.94,.09-1.21,0-.05,0-.1,0-.14,.19-.03,.68,.1,.86,.4,.06,.09,.06,.17,.06,.35,0,.25,0,.59,.25,.98,.16,.26,.35,.41,.53,.53-.07,.05-.15,.11-.22,.15Z"/></g><g id="uuid-05179656-540e-4eb0-9dd4-17ffcd59df5c"><text transform="translate(0 55.13)" font-family="Roboto-Regular, Roboto" font-size="6"><tspan x="0" y="0">united-states</tspan></text></g></svg>