<svg id="b31df3df-d003-4608-b853-e28acdb0f572" data-name="ICONS" xmlns="http://www.w3.org/2000/svg" viewBox="0 0 50 50"><path d="M6.13,12.18c0,.56-.28.84-.8.84a.83.83,0,0,1-.6-.21.86.86,0,0,1-.21-.65v-3H3.58v3a1.47,1.47,0,0,0,.48,1.16,1.82,1.82,0,0,0,1.27.42,1.82,1.82,0,0,0,1.28-.43,1.55,1.55,0,0,0,.46-1.19v-3H6.13Z"/><path d="M11,11.31a1.46,1.46,0,0,0,.2-.78,1.25,1.25,0,0,0-.44-1,1.92,1.92,0,0,0-1.25-.36H7.85v4.56h.94V12h.75l.85,1.67h1v0l-1-1.87A1.42,1.42,0,0,0,11,11.31Zm-.94-.21a.78.78,0,0,1-.55.18H8.79V9.91h.75a.77.77,0,0,1,.56.18.69.69,0,0,1,.19.51A.65.65,0,0,1,10.09,11.1Z"/><path d="M14.83,13.61a1.66,1.66,0,0,0,.72-.48V11.31H13.76V12h.85v.78a1,1,0,0,1-.75.23.92.92,0,0,1-.8-.37,1.79,1.79,0,0,1-.28-1.08v-.29A2,2,0,0,1,13,10.2,1,1,0,0,1,14.36,10a1,1,0,0,1,.28.57h.91A1.67,1.67,0,0,0,15,9.47a1.91,1.91,0,0,0-1.27-.38,1.89,1.89,0,0,0-1,.26,1.69,1.69,0,0,0-.66.76,2.9,2.9,0,0,0-.23,1.19v.31a2.57,2.57,0,0,0,.25,1.15,1.76,1.76,0,0,0,.69.76,2.05,2.05,0,0,0,1,.25A3,3,0,0,0,14.83,13.61Z"/><polygon points="19.37 12.96 17.25 12.96 17.25 11.73 19.06 11.73 19.06 11 17.25 11 17.25 9.91 19.37 9.91 19.37 9.15 16.31 9.15 16.31 13.71 19.37 13.71 19.37 12.96"/><polygon points="20.86 10.71 22.69 13.71 23.63 13.71 23.63 9.15 22.7 9.15 22.7 12.16 20.86 9.15 19.92 9.15 19.92 13.71 20.86 13.71 20.86 10.71"/><polygon points="25.46 13.71 26.4 13.71 26.4 9.91 27.8 9.91 27.8 9.15 24.08 9.15 24.08 9.91 25.46 9.91 25.46 13.71"/><path d="M31.49,13.77a1.89,1.89,0,0,0,1.29-.42,1.62,1.62,0,0,0,.55-1.16h-.94a.78.78,0,0,1-.9.82.79.79,0,0,1-.71-.35,2,2,0,0,1-.22-1.08v-.34a1.85,1.85,0,0,1,.24-1.05.81.81,0,0,1,.7-.33.89.89,0,0,1,.65.2.92.92,0,0,1,.24.64h.94a1.74,1.74,0,0,0-.55-1.19,1.9,1.9,0,0,0-1.28-.42,1.84,1.84,0,0,0-1,.26,1.72,1.72,0,0,0-.66.77,2.67,2.67,0,0,0-.23,1.16v.28a2.38,2.38,0,0,0,.5,1.62A1.71,1.71,0,0,0,31.49,13.77Z"/><path d="M35.26,9.15l-1.7,4.56h1l.31-.94h1.65l.32.94h1L36.13,9.15ZM35.13,12l.56-1.71L36.27,12Z"/><path d="M41.44,11.31a1.37,1.37,0,0,0,.2-.78,1.25,1.25,0,0,0-.43-1A1.94,1.94,0,0,0,40,9.15h-1.7v4.56h.94V12H40l.86,1.67h1v0l-1-1.87A1.38,1.38,0,0,0,41.44,11.31Zm-.93-.21a.78.78,0,0,1-.55.18H39.2V9.91H40a.77.77,0,0,1,.56.18.72.72,0,0,1,.18.51A.65.65,0,0,1,40.51,11.1Z"/><polygon points="43.3 11.73 45.1 11.73 45.1 11 43.3 11 43.3 9.91 45.41 9.91 45.41 9.15 42.36 9.15 42.36 13.71 45.42 13.71 45.42 12.96 43.3 12.96 43.3 11.73"/><path d="M43,1.5h-37a5,5,0,0,0-5,5v37a5,5,0,0,0,5,5H43a5,5,0,0,0,5-5v-37A5,5,0,0,0,43,1.5Zm4,42a4,4,0,0,1-4,4h-37a4,4,0,0,1-4-4v-37a4,4,0,0,1,4-4H43a4,4,0,0,1,4,4Z"/><path d="M35.65,26.52H28.82V19.69a.5.5,0,0,0-.5-.5H20.85a.5.5,0,0,0-.5.5v6.83H13.52a.5.5,0,0,0-.5.5v7.47a.5.5,0,0,0,.5.5h6.83v6.83a.5.5,0,0,0,.5.5h7.47a.5.5,0,0,0,.5-.5V35h6.83a.5.5,0,0,0,.5-.5V27A.5.5,0,0,0,35.65,26.52ZM35.15,34H28.32a.51.51,0,0,0-.5.5v6.83H21.35V34.49a.5.5,0,0,0-.5-.5H14V27.52h6.83a.5.5,0,0,0,.5-.5V20.19h6.47V27a.5.5,0,0,0,.5.5h6.83Z"/></svg>