<?xml version="1.0" encoding="utf-8"?>
<!-- Generator: Adobe Illustrator 26.3.1, SVG Export Plug-In . SVG Version: 6.00 Build 0)  -->
<svg version="1.1" id="Layer_1" xmlns="http://www.w3.org/2000/svg" xmlns:xlink="http://www.w3.org/1999/xlink" x="0px" y="0px"
	 viewBox="0 0 50 50" style="enable-background:new 0 0 50 50;" xml:space="preserve">
<g id="uuid-e3b24050-e966-48d1-b469-a049865869c5">
	<path d="M24.6,27.3c1.5,0,2.7-1.2,2.7-2.7s-1.2-2.7-2.7-2.7s-2.7,1.2-2.7,2.7S23.1,27.3,24.6,27.3z M24.6,22.8c1,0,1.7,0.8,1.7,1.7
		s-0.8,1.7-1.7,1.7s-1.7-0.8-1.7-1.7S23.7,22.8,24.6,22.8z M30,30c1.2,0,2.1-1,2.1-2.1s-0.9-2.1-2.1-2.1s-2.1,0.9-2.1,2.1
		S28.8,30,30,30z M30,26.8c0.6,0,1.1,0.5,1.1,1.1S30.6,29,30,29s-1.1-0.5-1.1-1.1S29.4,26.8,30,26.8z M30.7,24.1
		c1,0,1.8-0.8,1.8-1.8s-0.8-1.8-1.8-1.8s-1.8,0.8-1.8,1.8S29.7,24.1,30.7,24.1z M30.7,21.5c0.4,0,0.8,0.3,0.8,0.8s-0.3,0.8-0.8,0.8
		s-0.8-0.4-0.8-0.8S30.2,21.5,30.7,21.5z M40.4,5.5c0.3,0,0.5-0.2,0.5-0.5s-0.2-0.5-0.5-0.5S39.9,4.7,39.9,5S40.1,5.5,40.4,5.5z
		 M32.7,5c0,1.5,1.2,2.7,2.8,2.7s2.7-1.2,2.7-2.7s-1.2-2.7-2.7-2.7S32.7,3.5,32.7,5z M37.2,5c0,1-0.8,1.7-1.7,1.7S33.7,6,33.7,5
		s0.8-1.7,1.8-1.7S37.2,4,37.2,5z M30.4,4.5c-0.3,0-0.5,0.2-0.5,0.5s0.2,0.5,0.5,0.5s0.5-0.2,0.5-0.5S30.7,4.5,30.4,4.5z M45,0.5H5
		C4.7,0.5,4.5,0.7,4.5,1v48c0,0.3,0.2,0.5,0.5,0.5h40c0.3,0,0.5-0.2,0.5-0.5V1C45.5,0.7,45.3,0.5,45,0.5z M44.5,48.5h-39v-39h39
		C44.5,9.5,44.5,48.5,44.5,48.5z M44.5,8.5h-39v-7h39C44.5,1.5,44.5,8.5,44.5,8.5z M25,41.9c5.8,0,10.9-3.9,12.5-9.5
		c0-0.1,0-0.3-0.1-0.4c-0.1-0.1-0.2-0.2-0.3-0.2c-1.4-0.2-2.4-1.4-2.4-2.8s1-2.6,2.4-2.8c0.1,0,0.3-0.1,0.3-0.2
		c0.1-0.1,0.1-0.3,0.1-0.4c-1.5-5.6-6.6-9.5-12.5-9.5c-7.1,0-12.9,5.8-12.9,12.9S17.9,41.9,25,41.9z M13.1,29
		c0-6.6,5.3-11.9,11.9-11.9c5.2,0,9.8,3.4,11.3,8.3c-1.6,0.5-2.7,1.9-2.7,3.6c0,1.5,0.9,2.8,2.1,3.4c-3.1,1-6.2-0.4-9.5-1.8
		c-4.3-1.9-8.6-3.8-13.1-0.4C13.1,29.8,13.1,29.4,13.1,29z M25.8,31.5c2.5,1.1,5.1,2.2,7.8,2.2c0.8,0,1.7-0.1,2.5-0.4
		c-1.8,4.5-6.1,7.6-11.1,7.6c-5.8,0-10.6-4.1-11.7-9.6C17.4,27.8,21.5,29.6,25.8,31.5z M25,45.1c8.9,0,16.1-7.2,16.1-16.1
		S33.9,12.9,25,12.9S8.9,20.1,8.9,29S16.1,45.1,25,45.1z M25,13.9c8.3,0,15.1,6.8,15.1,15.1S33.3,44.1,25,44.1S9.9,37.3,9.9,29
		S16.7,13.9,25,13.9z M24.8,4.5H8.4C8.1,4.5,7.9,4.7,7.9,5s0.2,0.5,0.5,0.5h16.4c0.3,0,0.5-0.2,0.5-0.5S25.1,4.5,24.8,4.5z"/>
</g>
</svg>
