<svg xmlns="http://www.w3.org/2000/svg" viewBox="0 0 50 50"><g id="b56a18d6-984c-4d46-b0f0-33cd9bd0d7e5" data-name="ICONS"><path d="M36,4.07c-.85-.67-2.15-.8-4.17-.41v-2a.51.51,0,0,0-.5-.5H15.15a.51.51,0,0,0-.5.5V6.05a.5.5,0,0,0,.5.5h1.14a5.11,5.11,0,0,1,0,.58,5.28,5.28,0,0,1,0,.58,2.64,2.64,0,0,1,0,.28A4.52,4.52,0,0,0,13,12.33V43.55a4.54,4.54,0,0,0,4.53,4.54H29.05a4.54,4.54,0,0,0,4.53-4.54V12.33a4.5,4.5,0,0,0-1.4-3.26h.07a15.64,15.64,0,0,0,2.29.25,2.61,2.61,0,0,0,1.78-.53A2.3,2.3,0,0,0,37,6.92,3.42,3.42,0,0,0,36,4.07ZM15.65,2.16H30.79V5.55H15.65Zm1.64,5.65c0-.21,0-.44,0-.68s0-.39,0-.58H29.14c0,.19,0,.37,0,.58s0,.46,0,.67H17.5l-.21,0Zm15.29,4.52V43.55a3.54,3.54,0,0,1-3.53,3.54H17.5A3.54,3.54,0,0,1,14,43.55V12.33A3.54,3.54,0,0,1,17.5,8.8H29.05A3.53,3.53,0,0,1,32.58,12.33ZM35.67,8c-.55.47-1.87.27-3.27.05-.73-.12-1.49-.23-2.25-.28v-.1a5.28,5.28,0,0,1,0-.58,5.11,5.11,0,0,1,0-.58h1.14a.5.5,0,0,0,.5-.5V4.68c1.79-.37,2.93-.32,3.54.17A2.52,2.52,0,0,1,36,6.92,1.4,1.4,0,0,1,35.67,8Z"/><path d="M17.88,12.82a.5.5,0,0,0-.5.5V42.59a.5.5,0,0,0,1,0V13.32A.5.5,0,0,0,17.88,12.82Z"/></g><g id="b5e00938-d0e2-42ff-969e-eda74a3a7c83" data-name="LABELS"><text transform="translate(0 55.07)" font-size="6" font-family="Roboto-Regular, Roboto">water-bottle</text></g></svg>