<svg xmlns="http://www.w3.org/2000/svg" viewBox="0 0 50 50"><g id="bd1bbdae-0799-489b-9e4e-10418fed7de4" data-name="ICONS"><path d="M39.52,25.32a.93.93,0,0,0-.05-.1l0-.08c-.22-.41-.45-.81-.69-1.18L25.18.47a.51.51,0,0,0-.86,0L10.77,23.94c-.25.39-.48.79-.69,1.18l-.05.1a.3.3,0,0,0,0,.1,16.24,16.24,0,0,0-1.77,7.41,16.53,16.53,0,0,0,33.06,0A16.36,16.36,0,0,0,39.52,25.32ZM24.75,48.26A15.55,15.55,0,0,1,9.22,32.73a15.33,15.33,0,0,1,1.7-7,.14.14,0,0,0,0-.06l0,0c.2-.39.42-.76.66-1.14L24.75,1.72,37.89,24.47c.23.37.45.74.66,1.15h0a.14.14,0,0,0,0,.06,15.33,15.33,0,0,1,1.7,7A15.54,15.54,0,0,1,24.75,48.26Z"/><path d="M13.22,33.73a10.71,10.71,0,0,1,1.45-6.23.49.49,0,0,0-.17-.68.5.5,0,0,0-.69.17,11.59,11.59,0,0,0,1.31,13.63.5.5,0,0,0,.37.17.46.46,0,0,0,.33-.13.49.49,0,0,0,0-.7A10.64,10.64,0,0,1,13.22,33.73Z"/></g><g id="f6d2e639-b9d6-45d1-816f-d2c1b230d788" data-name="LABELS"><text transform="translate(0.39 54.88)" font-size="6" font-family="Roboto-Regular, Roboto">water-d<tspan x="19.98" y="0" letter-spacing="-0.01em">r</tspan><tspan x="21.95" y="0">op</tspan></text></g></svg>