<?xml version="1.0" encoding="utf-8"?>
<!-- Generator: Adobe Illustrator 27.7.0, SVG Export Plug-In . SVG Version: 6.00 Build 0)  -->
<svg version="1.1" id="Layer_1" xmlns="http://www.w3.org/2000/svg" xmlns:xlink="http://www.w3.org/1999/xlink" x="0px" y="0px"
	 viewBox="0 0 50 50" style="enable-background:new 0 0 50 50;" xml:space="preserve">
<style type="text/css">
	.st0{display:none;}
	.st1{display:inline;fill:none;stroke:#EA008A;stroke-width:0.2;stroke-miterlimit:10;}
	.st2{font-family:'Roboto-Regular';}
	.st3{font-size:6px;}
</style>
<g id="ICONS_00000031165542127692736420000002692518830807990202_">
	<path d="M48.3169,9.9102l-10.2505-7.478c-0.1074-0.0781-0.2437-0.1099-0.3721-0.0903c-0.1313,0.0205-0.2485,0.0923-0.3267,0.1997
		c-1.0776,1.4766-1.5151,3.2847-1.2329,5.0908c0.1663,1.0627,0.5759,2.0463,1.181,2.8984l-9.3024,14.4269l-0.8557-8.6262
		c-0.0254-0.2559-0.2407-0.4507-0.4976-0.4507h-7.6929V3.6831c0-0.2764-0.2236-0.5-0.5-0.5h-4.5635c-0.2764,0-0.5,0.2236-0.5,0.5
		v12.1978H5.7104c-0.2568,0-0.4722,0.1948-0.4976,0.4507L2.8702,39.9473H1.978c-0.2764,0-0.5,0.2236-0.5,0.5s0.2236,0.5,0.5,0.5
		h0.7929l-0.6118,6.167C2.145,47.2549,2.1914,47.3955,2.2861,47.5s0.2295,0.1641,0.3706,0.1641h27.0571
		c0.1411,0,0.2759-0.0596,0.3706-0.1641s0.1411-0.2451,0.127-0.3857l-0.6118-6.167h0.7929c0.2764,0,0.5-0.2236,0.5-0.5
		s-0.2236-0.5-0.5-0.5H29.659c0.0192-0.0285,0.0502-0.0449,0.0636-0.0781L40.538,12.9825c0.7631,0.2804,1.5563,0.434,2.3497,0.434
		c2.1138,0,4.2002-0.9736,5.5381-2.8081C48.5889,10.3857,48.5396,10.0728,48.3169,9.9102z M14.4038,4.1831h3.5635v11.6978h-3.5635
		C14.4038,15.8809,14.4038,4.1831,14.4038,4.1831z M6.1631,16.8809h20.0444l0.9399,9.4765
		c-0.0303,0.1147-0.0164,0.2311,0.0334,0.3365l1.3146,13.2534H3.8752L6.1631,16.8809z M29.1616,46.6641H3.209l0.567-5.7168h24.8186
		L29.1616,46.6641z M29.325,38.1784l-1.1529-11.6217l9.8148-15.2208c0.2691,0.2764,0.5584,0.5362,0.8764,0.7681
		c0.2451,0.1788,0.503,0.3257,0.7624,0.4674L29.325,38.1784z M39.4526,11.2964c-1.2612-0.9199-2.0889-2.2764-2.3301-3.8184
		c-0.2148-1.3765,0.0596-2.7544,0.7749-3.9312l9.4087,6.8638C45.3398,12.6763,41.9199,13.0972,39.4526,11.2964z"/>
</g>
<g id="Margin" class="st0">
	<rect x="1" y="1" class="st1" width="48" height="48"/>
</g>
<g id="Guides" class="st0">
</g>
<g id="LABELS">
	<g>
		<g>
			<g>
				<g>
					<g>
						<g>
							<text transform="matrix(1 0 0 1 -0.116 55.1226)" class="st2 st3">watering-can</text>
						</g>
					</g>
				</g>
			</g>
		</g>
	</g>
</g>
</svg>
