<?xml version="1.0" encoding="UTF-8"?><svg xmlns="http://www.w3.org/2000/svg" viewBox="0 0 50 50"><g id="uuid-42aaa2a3-e04e-4fe9-8299-dd5b36f8915a"><g><path d="M49.17,14.79c-3.86,0-5.41-3.44-5.47-3.59-.09-.22-.31-.36-.55-.34-.23,0-.44,.16-.52,.38-.05,.14-1.3,3.55-5.47,3.55s-5.51-3.41-5.56-3.56c-.08-.22-.3-.37-.53-.37h0c-.24,0-.45,.14-.54,.37-.01,.04-1.41,3.56-5.39,3.56s-5.44-3.43-5.5-3.58c-.09-.21-.3-.35-.53-.35h0c-.23,0-.44,.15-.53,.37-.06,.15-1.44,3.56-5.57,3.56s-5.36-3.4-5.41-3.54c-.08-.24-.32-.37-.57-.38-.25,.01-.47,.19-.53,.44-.83,3.4-5.4,3.49-5.45,3.49-.32,0-.57,.26-.57,.58,0,.31,.26,.57,.57,.57,.15,.02,4.41-.05,6.08-3.12,.84,1.28,2.61,3.12,5.87,3.12,3.42,0,5.28-2.04,6.11-3.31,.82,1.27,2.67,3.31,6.03,3.31s5.11-2.03,5.93-3.3c.82,1.27,2.66,3.3,6.1,3.3s5.24-2.02,6.03-3.3c.85,1.26,2.71,3.3,5.97,3.3,.32,0,.57-.26,.57-.57s-.26-.57-.57-.57Z"/><path d="M48.95,26.39c-3.86,0-5.41-3.44-5.47-3.59-.09-.21-.28-.36-.55-.34-.23,0-.44,.16-.52,.38-.05,.14-1.3,3.55-5.47,3.55s-5.51-3.41-5.56-3.56c-.08-.22-.3-.37-.53-.37h0c-.24,0-.45,.14-.53,.37-.01,.04-1.41,3.56-5.4,3.56s-5.44-3.43-5.5-3.58c-.09-.22-.34-.34-.54-.35-.23,0-.44,.15-.53,.37-.06,.15-1.44,3.56-5.57,3.56s-5.36-3.4-5.41-3.54c-.08-.24-.32-.38-.57-.38-.25,.01-.47,.19-.53,.44-.83,3.4-5.4,3.49-5.45,3.49-.32,0-.57,.26-.57,.58,0,.31,.26,.57,.57,.57h0c.2,0,4.43-.08,6.08-3.12,.84,1.28,2.61,3.12,5.87,3.12,3.42,0,5.28-2.04,6.11-3.31,.82,1.27,2.67,3.31,6.03,3.31s5.11-2.03,5.93-3.3c.82,1.27,2.66,3.3,6.1,3.3s5.24-2.02,6.03-3.3c.85,1.26,2.71,3.3,5.97,3.3,.32,0,.57-.26,.57-.57s-.26-.57-.57-.57Z"/><path d="M48.95,38c-3.86,0-5.41-3.44-5.47-3.59-.09-.21-.28-.37-.55-.34-.23,0-.44,.16-.52,.38-.05,.14-1.3,3.55-5.47,3.55s-5.51-3.41-5.56-3.56c-.08-.22-.3-.37-.53-.37h0c-.24,0-.45,.14-.53,.37-.01,.04-1.41,3.56-5.4,3.56s-5.44-3.43-5.5-3.58c-.09-.21-.3-.35-.53-.35h0c-.23,0-.44,.15-.53,.37-.06,.15-1.44,3.56-5.57,3.56s-5.36-3.4-5.41-3.54c-.08-.24-.32-.38-.57-.38-.25,.01-.47,.19-.53,.44-.83,3.4-5.4,3.49-5.45,3.49-.32,0-.57,.26-.57,.58,0,.31,.26,.57,.57,.57h0c.2,0,4.43-.08,6.08-3.12,.84,1.28,2.61,3.12,5.87,3.12,3.42,0,5.28-2.04,6.11-3.31,.82,1.27,2.67,3.31,6.03,3.31s5.11-2.03,5.93-3.3c.82,1.27,2.66,3.3,6.1,3.3s5.24-2.02,6.03-3.3c.85,1.26,2.71,3.3,5.97,3.3,.32,0,.57-.26,.57-.57s-.26-.57-.57-.57Z"/></g></g><g id="uuid-817dce6b-d937-43f1-935c-9a9049f2ae6c"><text transform="translate(0 54.88)" font-family="Roboto-Regular, Roboto" font-size="6"><tspan x="0" y="0">w</tspan><tspan x="4.51" y="0" letter-spacing="0em">a</tspan><tspan x="7.73" y="0" letter-spacing="0em">v</tspan><tspan x="10.6" y="0">es</tspan></text></g></svg>