<?xml version="1.0" encoding="UTF-8"?>
<svg xmlns="http://www.w3.org/2000/svg" viewBox="0 0 50 50">
  <defs>
    <style>
      .cls-1 {
        fill: #1f1c1d;
      }

      .cls-2 {
        fill: #ffcd00;
      }

      .cls-3 {
        fill: #221f1f;
        font-family: Roboto-Regular, Roboto;
        font-size: 5px;
      }
    </style>
  </defs>
  <g id="Gold_Offset">
    <path class="cls-2" d="M27.22,7.88l1.37-1.37c.04.06.09.12.14.19.23.31.61.83,1.27,2.25,1.89,4.08,2.28,10.04-.71,13.05,0,0-.01,0-.02.01,0,0,0,0,0,0l-1.89,1.89c-3.05-3.73-5.44-10.75-.16-16.04ZM18.01,17.09l1.37-1.37c.04.06.09.12.14.19.23.31.61.83,1.27,2.25,1.89,4.08,2.28,10.04-.72,13.06,0,0,0,0-.01.01,0,0,0,0,0,0l-1.89,1.89c-3.05-3.73-5.44-10.75-.16-16.04ZM8.8,26.3l1.37-1.37c.04.06.09.12.14.19.23.31.61.83,1.27,2.25,1.89,4.08,2.28,10.04-.72,13.06,0,0,0,0-.01.01,0,0,0,0,0,0l-1.89,1.89c-3.05-3.73-5.44-10.75-.16-16.04ZM24.62,40.43c1.43.66,1.95,1.04,2.25,1.27.07.05.13.09.19.14l-1.37,1.37c-5.28,5.28-12.31,2.89-16.04-.16l1.92-1.92c3.02-2.99,8.97-2.6,13.05-.7ZM33.83,31.22c1.43.66,1.94,1.04,2.25,1.27.07.05.13.09.19.14l-1.37,1.37c-5.28,5.28-12.31,2.89-16.04-.16l1.92-1.92c3.02-2.99,8.97-2.6,13.05-.71ZM43.05,22.01c1.43.66,1.94,1.04,2.25,1.27.07.05.13.09.19.14l-1.37,1.37c-5.28,5.28-12.31,2.89-16.04-.16l1.89-1.89s0,0,0,0c0,0,0,0,0,0h.01c3.02-3,8.97-2.61,13.05-.72ZM47.59,5.54c-1.11,4.12-2.49,9.26-6.75,10.4-1.31.35-3.94.73-5.74.96.23-1.8.61-4.43.96-5.74,1.14-4.26,6.28-5.64,10.4-6.75.54-.14,1.06-.29,1.56-.43-.14.5-.28,1.02-.43,1.56Z"/>
  </g>
  <g id="Icon_Outline">
    <path class="cls-1" d="M48.11,1.88c-.13-.13-.33-.18-.5-.12-.74.23-1.55.45-2.41.68-4.37,1.17-9.82,2.64-11.11,7.46-.4,1.5-.82,4.55-1.05,6.35l-2.09,2.09c1.05-3.35.46-7.55-1.05-10.8-.7-1.52-1.12-2.09-1.38-2.43-.11-.14-.17-.23-.21-.33l.9-.9c.2-.2.2-.51,0-.71s-.51-.2-.71,0l-3,3c-5.79,5.8-3.16,13.45.16,17.46l-3.92,3.92c1.05-3.35.46-7.55-1.05-10.8-.7-1.52-1.12-2.09-1.38-2.43-.11-.15-.17-.23-.21-.33l.9-.9c.2-.2.2-.51,0-.71s-.51-.2-.71,0l-3,3c-5.79,5.8-3.16,13.45.16,17.46l-3.92,3.92c1.05-3.35.46-7.55-1.05-10.81-.7-1.52-1.12-2.09-1.38-2.43-.11-.15-.17-.23-.21-.33l.9-.9c.2-.2.2-.51,0-.71s-.51-.2-.71,0l-3,3c-5.79,5.79-3.16,13.45.16,17.46l-5.36,5.36c-.2.2-.2.51,0,.71.1.1.23.15.35.15s.26-.05.35-.15l5.36-5.36c2.29,1.9,5.76,3.57,9.42,3.57,2.73,0,5.56-.94,8.04-3.42l1.89-1.89,1.11-1.11c.2-.2.2-.51,0-.71s-.51-.2-.71,0l-.9.9c-.1-.04-.18-.1-.33-.21-.34-.25-.91-.67-2.43-1.38-3.25-1.51-7.45-2.1-10.8-1.05l3.92-3.92c2.29,1.9,5.76,3.57,9.42,3.57,2.73,0,5.56-.94,8.04-3.42l3-3c.2-.2.2-.51,0-.71s-.51-.2-.71,0l-.9.9c-.1-.04-.18-.1-.33-.21-.34-.25-.91-.67-2.43-1.38-3.25-1.51-7.45-2.1-10.8-1.05l3.92-3.92c2.29,1.9,5.76,3.57,9.42,3.57,2.73,0,5.56-.94,8.04-3.42l3-3c.2-.2.2-.51,0-.71s-.51-.2-.71,0l-.9.9c-.1-.04-.18-.1-.33-.21-.34-.25-.91-.67-2.43-1.38-3.25-1.51-7.45-2.1-10.8-1.05l2.09-2.09c1.8-.23,4.86-.65,6.35-1.05,4.82-1.29,6.28-6.74,7.46-11.11.23-.86.45-1.67.68-2.41.06-.18,0-.37-.12-.5ZM26.22,6.88l1.37-1.37c.04.06.09.12.14.19.23.31.61.83,1.27,2.25,1.89,4.08,2.28,10.04-.71,13.05,0,0-.01,0-.02.01,0,0,0,0,0,0l-1.89,1.89c-3.05-3.73-5.44-10.75-.16-16.04ZM17.01,16.09l1.37-1.37c.04.06.09.12.14.19.23.31.61.83,1.27,2.25,1.89,4.08,2.28,10.04-.72,13.06,0,0,0,0-.01.01,0,0,0,0,0,0l-1.89,1.89c-3.05-3.73-5.44-10.75-.16-16.04ZM7.8,25.3l1.37-1.37c.04.06.09.12.14.19.23.31.61.83,1.27,2.25,1.89,4.08,2.28,10.04-.72,13.06,0,0,0,0-.01.01,0,0,0,0,0,0l-1.89,1.89c-3.05-3.73-5.44-10.75-.16-16.04ZM23.62,39.43c1.43.66,1.95,1.04,2.25,1.27.07.05.13.09.19.14l-1.37,1.37c-5.28,5.28-12.31,2.89-16.04-.16l1.92-1.92c3.02-2.99,8.97-2.6,13.05-.7ZM32.83,30.22c1.43.66,1.94,1.04,2.25,1.27.07.05.13.09.19.14l-1.37,1.37c-5.28,5.28-12.31,2.89-16.04-.16l1.92-1.92c3.02-2.99,8.97-2.6,13.05-.71ZM42.05,21.01c1.43.66,1.94,1.04,2.25,1.27.07.05.13.09.19.14l-1.37,1.37c-5.28,5.28-12.31,2.89-16.04-.16l1.89-1.89s0,0,0,0c0,0,0,0,0,0h.01c3.02-3,8.97-2.61,13.05-.72ZM46.59,4.54c-1.11,4.12-2.49,9.26-6.75,10.4-1.31.35-3.94.73-5.74.96.23-1.8.61-4.43.96-5.74,1.14-4.26,6.28-5.64,10.4-6.75.54-.14,1.06-.29,1.56-.43-.14.5-.28,1.02-.43,1.56Z"/>
  </g>
  <g id="Names">
    <text class="cls-3" transform="translate(0 53.89)"><tspan x="0" y="0">wheat</tspan></text>
  </g>
</svg>