<svg id="f64c2afc-ee84-467a-b1a4-43efc45d94f3" data-name="ICONS" xmlns="http://www.w3.org/2000/svg" viewBox="0 0 50 50"><path d="M22.2,39.36a3.43,3.43,0,1,1,3.43,3.43,3.43,3.43,0,0,1-3.43-3.43m3.43-2.43a2.43,2.43,0,1,0,2.42,2.43,2.43,2.43,0,0,0-2.42-2.43"/><path d="M20.46,33.5a9.38,9.38,0,0,1,10.33,0L34.24,30A14.27,14.27,0,0,0,17,30Zm-4.52-3.89a15.24,15.24,0,0,1,19.37,0,.47.47,0,0,1,.18.36.46.46,0,0,1-.15.38L31.2,34.5a.54.54,0,0,1-.36.15.47.47,0,0,1-.3-.1,8.34,8.34,0,0,0-9.84,0,.49.49,0,0,1-.65,0L15.9,30.35a.46.46,0,0,1-.14-.38.47.47,0,0,1,.18-.36"/><path d="M13.59,26.61a18.94,18.94,0,0,1,24.08,0l3.46-3.47a24,24,0,0,0-31,0ZM9.05,22.75a25,25,0,0,1,33.15,0,.48.48,0,0,1,.16.35.47.47,0,0,1-.14.37l-4.16,4.17a.53.53,0,0,1-.36.15.59.59,0,0,1-.34-.12,17.91,17.91,0,0,0-23.47,0,.51.51,0,0,1-.69,0L9,23.47a.5.5,0,0,1-.14-.37.48.48,0,0,1,.16-.35"/><path d="M3.26,16.29l3.45,3.45a28.68,28.68,0,0,1,37.83,0L48,16.29a33.91,33.91,0,0,0-44.73,0M2.2,15.91a34.45,34.45,0,0,1,46.86,0,.52.52,0,0,1,.16.36.48.48,0,0,1-.16.36l-4.14,4.15a.53.53,0,0,1-.36.15.49.49,0,0,1-.34-.14A27.7,27.7,0,0,0,7,20.79a.49.49,0,0,1-.69,0L2.19,16.63A.51.51,0,0,1,2,16.27a.48.48,0,0,1,.16-.36"/></svg>