<svg xmlns="http://www.w3.org/2000/svg" viewBox="0 0 50 50"><g id="b9579945-f2e6-4090-9bb5-624c74876135" data-name="ICONS"><polygon points="41.35 28.34 41.35 28.34 41.35 28.34 41.35 28.34"/><path d="M8.35,23.34A17.51,17.51,0,0,1,8,20,17.17,17.17,0,0,1,20,3.63a.5.5,0,0,0-.3-.95A18.16,18.16,0,0,0,7,20a17.82,17.82,0,0,0,.34,3.5.49.49,0,0,0,.49.4H8A.5.5,0,0,0,8.35,23.34Z"/><path d="M30.32,2.65A.49.49,0,0,0,29.7,3,.5.5,0,0,0,30,3.6,17.15,17.15,0,0,1,42,20a17.33,17.33,0,0,1-.32,3.3.51.51,0,0,0,.4.59h.09a.49.49,0,0,0,.49-.41A17.72,17.72,0,0,0,43,20,18.15,18.15,0,0,0,30.32,2.65Z"/></g><g id="bd0ff7f2-5089-46a7-adc5-a35127de98bd" data-name="LABELS"><text transform="translate(0.39 54.98)" font-size="6" font-family="Roboto-Regular, Roboto">wind-turbine</text></g></svg>