<svg xmlns="http://www.w3.org/2000/svg" viewBox="0 0 50 50"><g id="a9c8f091-a7c0-459a-99f6-694e5fdbe404" data-name="ICONS"><path d="M26.25,17.74a8.54,8.54,0,0,1,3.39.71l.37-.37a8.43,8.43,0,0,0-5.26-1.84,8.5,8.5,0,0,0-5.21,15.22,8.49,8.49,0,0,1,6.71-13.72Z" fill="none"/><path d="M24.75,41.13A16.36,16.36,0,0,0,37,13.91l-4.86,4.87a9.38,9.38,0,0,1,1.93,4.13,8.42,8.42,0,0,1,.69,3.34,8.52,8.52,0,0,1-8.51,8.51,8.4,8.4,0,0,1-3.33-.68,9.51,9.51,0,1,1,7.8-16.72l4.87-4.86a16.32,16.32,0,0,0-5.2-3.11,17.14,17.14,0,0,0-4.14-.52A17.33,17.33,0,0,0,9.38,30.37,16.39,16.39,0,0,0,24.75,41.13Z" fill="none"/><path d="M24.75,42.13a17.28,17.28,0,0,1-11.5-4.38A17.36,17.36,0,1,0,37.73,13.24a17.35,17.35,0,0,1-13,28.89Z" fill="none"/><path d="M24.75,27.69a2.94,2.94,0,0,0,2.94-2.94,2.9,2.9,0,0,0-.29-1.24l-1.94,1.95a1,1,0,0,1-1.42,0A1,1,0,0,1,24,24l1.68-1.68a3.94,3.94,0,0,0-3.41,3.89c0,.05,0,.1,0,.16A2.94,2.94,0,0,0,24.75,27.69Z" fill="none"/><path d="M24.75,28.69a3.91,3.91,0,0,1-1.92-.52,3.93,3.93,0,1,0,5.34-5.34,3.91,3.91,0,0,1-3.42,5.86Z" fill="none"/><path d="M39.06,6.37,41,7.5l-3.29,2.87.46,1,2.75,1.28L47.17,6.4l-3.09-.58a.51.51,0,0,1-.4-.4L43.1,2.33,38.85,6.59h0Z" fill="none"/><path d="M31.42,19.49h0l.05,0A.1.1,0,0,0,31.42,19.49Z" fill="none"/><path d="M41.4,13.58a.47.47,0,0,1-.35.15.5.5,0,0,1-.21-.05l-2.38-1.11.4.87a.56.56,0,0,0,.24.24l3.24,1.5a.5.5,0,0,0,.21.05.47.47,0,0,0,.35-.15L45,13q-.54-.94-1.17-1.83Z" fill="none"/><path d="M26.25,2.87A23.21,23.21,0,0,1,38,6.05l.33-.33A23.17,23.17,0,0,0,24.75,1.37,23.37,23.37,0,0,0,9,42,23.37,23.37,0,0,1,26.25,2.87Z" fill="none"/><path d="M38.85,6.59h0l-2,2C37.53,7.9,38.19,7.24,38.85,6.59Z" fill="#fdd600"/><path d="M37.39,9.65l.34.72h0l-.34-.72Z" fill="#fdd600"/><path d="M36.88,8.56l.51,1.09h0Z" fill="#fdd600"/><path d="M48.34,18.63A24.37,24.37,0,0,1,18.67,48.36,23.35,23.35,0,0,0,48.34,18.63Z" fill="#fdd600"/><path d="M36.09,45.61c8-4.2,12-13.29,12-20.86a22.61,22.61,0,0,0-.43-4.48,23.56,23.56,0,0,0-3.92-9.07l-2.21,1.44-.73.48-2.38-.55-.08,0-.67.67,0,0A17.9,17.9,0,0,1,42,22.34a16.35,16.35,0,0,1,.1,3.95c-.83,7.79-9,15.65-17,15.85a18.36,18.36,0,0,1-5.45-.8,17.53,17.53,0,0,1-6.32-3.59,17.35,17.35,0,1,1,23-26l.68-.68L35.82,8.67a.5.5,0,0,1,.1-.57l.17-.17L38,6.05A23.36,23.36,0,0,0,9,42a23.47,23.47,0,0,0,9.53,5.28,24.52,24.52,0,0,0,6.23.84A24.11,24.11,0,0,0,36.09,45.61Z" fill="#fdd600"/><path d="M26.25,17.74a8.51,8.51,0,1,0,8.5,8.51A8.51,8.51,0,0,0,26.25,17.74Zm-1.5,9.94a2.93,2.93,0,1,1,2.93-2.93A2.93,2.93,0,0,1,24.75,27.68Z" fill="#fdd600"/><path d="M48.34,18.63a24.15,24.15,0,0,0-3.84-8.15l4-4a.52.52,0,0,0,.13-.5.53.53,0,0,0-.39-.35l-2.49-.47,1.26-1.26a1,1,0,0,0-1.41-1.41L44.38,3.71l-.47-2.49a.53.53,0,0,0-.35-.39.51.51,0,0,0-.5.13L39,5a24.43,24.43,0,1,0,9.32,13.63ZM43.1,2.33l.58,3.09a.51.51,0,0,0,.4.4l3.09.58-6.23,6.23-2.75-1.28-.46-1-.34-.72-.51-1.09,2-2ZM24,25.46a1,1,0,0,0,1.42,0l1.94-1.95a2.9,2.9,0,0,1,.29,1.24,2.94,2.94,0,0,1-5.36,1.66,2.87,2.87,0,0,1-.52-1.66,2.94,2.94,0,0,1,2.94-2.94A2.9,2.9,0,0,1,26,22.1l-.27.26L24,24A1,1,0,0,0,24,25.46Zm2.68-4.1a3.89,3.89,0,0,0-2-.55,4,4,0,1,0,3.42,2l0,0,3.27-3.28h0a.1.1,0,0,1,0,.05A8.55,8.55,0,1,1,30,18.08l-.37.37Zm4-4a9.5,9.5,0,1,0-7.8,16.72,10,10,0,0,0,1.83.18,9.53,9.53,0,0,0,9.51-9.51,9.26,9.26,0,0,0-.19-1.84,9.38,9.38,0,0,0-1.93-4.13L37,13.91a16.42,16.42,0,1,1-1.41-1.41Zm-6,30.77a23.38,23.38,0,0,1,0-46.76A23.17,23.17,0,0,1,38.3,5.72L38,6.05l-2,2.05a.5.5,0,0,0-.1.57L37,11.11l-.68.68a17.56,17.56,0,1,0,1.44,1.45l0,0,.67-.67.08,0,2.38,1.11a.5.5,0,0,0,.21.05.47.47,0,0,0,.35-.15l2.38-2.38q.63.88,1.17,1.83a23.34,23.34,0,0,1-20.2,35.1Z" fill="#231f20"/></g><g id="abf5b472-f86c-4209-9629-baa42fbb1c41" data-name="LABELS"><text transform="translate(0 55.01)" font-size="6" fill="#231f20" font-family="Roboto-Regular, Roboto">a<tspan x="3.26" y="0" letter-spacing="-0.01em">r</tspan><tspan x="5.24" y="0">che</tspan><tspan x="14.86" y="0" letter-spacing="0.01em">r</tspan><tspan x="16.95" y="0">y</tspan></text></g></svg>