<svg id="b446d9ec-53b0-4a76-a616-2f99036f0b09" data-name="ICONS" xmlns="http://www.w3.org/2000/svg" viewBox="0 0 50 50"><path d="M26.28,5.72c-10.2,0-21.31,5-23.14,16.08a11.75,11.75,0,0,0,3.55,9.6,3.33,3.33,0,0,0,3.15.9,6.09,6.09,0,0,0,2.67-2c1.34-1.48,2.86-3.18,7.57-3A23.1,23.1,0,0,1,27,28.68c3.13,1,5.82,1.91,11.59-.19,3-1.08,9.67-6.28,11.17-7.46A25.62,25.62,0,0,0,26.28,5.72Z" fill="#fdd600"/><path d="M49,19.24A26.6,26.6,0,0,0,24.47,3C13.85,3,2.27,8.2.35,19.89A12.63,12.63,0,0,0,4.24,30.41a4.73,4.73,0,0,0,3,1.28,3.5,3.5,0,0,0,1.11-.19,5.79,5.79,0,0,0,2.23-1.39l13.63,9a2,2,0,0,0-.06.48,2.11,2.11,0,0,0,3,1.93l4.05,5.28a.51.51,0,0,0,.39.19.49.49,0,0,0,.4-.8l-4.06-5.29a2.08,2.08,0,0,0,.47-1.31A2.11,2.11,0,0,0,27.55,38L30.83,29a19.51,19.51,0,0,0,6.3-1.33c3.47-1.27,11.41-7.58,11.75-7.85A.51.51,0,0,0,49,19.24ZM24.47,4A25.59,25.59,0,0,1,47.7,18.77H1.62C4.07,8.57,14.68,4,24.47,4Zm1.81,33.55a2.11,2.11,0,0,0-1.6.74L11.3,29.38l.15-.17c1.3-1.45,2.54-2.81,6.79-2.68a21.81,21.81,0,0,1,6.65,1.35A18.35,18.35,0,0,0,29.77,29l-3.14,8.56A2.07,2.07,0,0,0,26.28,37.52ZM36.79,26.74C31,28.84,28.32,28,25.2,26.93a23.1,23.1,0,0,0-6.93-1.4c-4.71-.16-6.23,1.53-7.57,3a6.12,6.12,0,0,1-2.66,2,3.35,3.35,0,0,1-3.16-.9,11.73,11.73,0,0,1-3.54-9.6,2.3,2.3,0,0,1,.06-.28H47.33C45.12,21.48,39.44,25.77,36.79,26.74Z" fill="#231f20"/><path d="M8.78,14.55a.52.52,0,0,0,.36-.16C12.46,10.93,18,8.87,24,8.87a21.7,21.7,0,0,1,13.47,4.3.51.51,0,0,0,.71-.08.5.5,0,0,0-.08-.7A22.7,22.7,0,0,0,24,7.87c-6.22,0-12,2.18-15.53,5.83a.5.5,0,0,0,0,.71A.52.52,0,0,0,8.78,14.55Z" fill="#231f20"/></svg>