<svg xmlns="http://www.w3.org/2000/svg" viewBox="0 0 50 50"><g id="fdeeaf37-af3f-4adc-a70b-eb0fd56f6572" data-name="ICONS"><path d="M29.53,7.14a34.8,34.8,0,0,0-3.07-4.31,37,37,0,0,0-3.37,42.3h0A36.24,36.24,0,0,0,26.46,50a35.4,35.4,0,0,0,3.38-4.82h0a37.14,37.14,0,0,0,5.1-18.74A37.18,37.18,0,0,0,29.53,7.14Zm-1.65,14v8.74a2.64,2.64,0,0,1-2.64,2.64h-.55A2.65,2.65,0,0,1,22,29.85V19.93a2.65,2.65,0,0,1,2.65-2.64h.55a2.64,2.64,0,0,1,2.64,2.64Z" fill="#fdd600"/><path d="M13.89,11a2.37,2.37,0,0,0-.66-1.69L8.9,4.78,5.48,8.05l4.34,4.52a2.37,2.37,0,0,0,3.34.07A2.34,2.34,0,0,0,13.89,11Z" fill="#fdd600"/><path d="M39.56,40.14a2.39,2.39,0,0,0-.07,3.35L43.83,48l3.41-3.27-4.33-4.52A2.38,2.38,0,0,0,39.56,40.14Z" fill="#fdd600"/><path d="M7.39,3.26,4,6.55l4.35,4.53a2.38,2.38,0,1,0,3.43-3.29Z" fill="none"/><path d="M25,1.32a36.19,36.19,0,0,0-3.08,4.33h6.17A36.27,36.27,0,0,0,25,1.32Z" fill="none"/><path d="M28.88,29.85a3.64,3.64,0,0,1-3.64,3.64h-.55A3.65,3.65,0,0,1,21,29.85V21.63l-3.85-4a36.61,36.61,0,0,0,3.81,25h7.93a36.79,36.79,0,0,0,3.51-9.11L28.88,29.8Z" fill="none"/><path d="M38.05,38.63A2.37,2.37,0,0,0,38,42l4.35,4.53,3.43-3.29L41.41,38.7A2.37,2.37,0,0,0,38.05,38.63Z" fill="none"/><path d="M21.28,6.65a37,37,0,0,0-3.84,9.79L21,20.19v-.26a3.65,3.65,0,0,1,3.65-3.64h.55a3.64,3.64,0,0,1,3.64,3.64v8.43l3.83,4a37.08,37.08,0,0,0,.77-7.45A37,37,0,0,0,28.65,6.65Z" fill="none"/><path d="M25,48.46a37.33,37.33,0,0,0,3.4-4.84H21.57A38.25,38.25,0,0,0,25,48.46Z" fill="none"/><path d="M46.83,42.9,42.13,38a3.37,3.37,0,0,0-4.38-.4l-4.2-4.38a38,38,0,0,0,.93-8.33A37.93,37.93,0,0,0,25.34.22a.5.5,0,0,0-.76,0,37.91,37.91,0,0,0-4,5.68.43.43,0,0,0,0,.07,38.19,38.19,0,0,0-3.9,9.61L12.7,11.49a3.37,3.37,0,0,0-.23-4.39L7.77,2.2a.51.51,0,0,0-.35-.15.52.52,0,0,0-.36.14l-4.15,4a.5.5,0,0,0,0,.71l4.7,4.9a3.35,3.35,0,0,0,2.43,1,3.39,3.39,0,0,0,2-.62l4.37,4.55a37.69,37.69,0,0,0,3.87,26.54.64.64,0,0,0,.08.14,38.59,38.59,0,0,0,4.28,6.14.53.53,0,0,0,.38.18.49.49,0,0,0,.38-.18,37.8,37.8,0,0,0,7.92-15.2L37,38.29a3.37,3.37,0,0,0,.23,4.39l4.7,4.9a.49.49,0,0,0,.35.15h0a.48.48,0,0,0,.34-.14l4.15-4A.5.5,0,0,0,46.83,42.9ZM11.68,11.15a2.37,2.37,0,0,1-3.36-.07L4,6.55,7.39,3.26l4.36,4.53A2.39,2.39,0,0,1,11.68,11.15ZM25,1.32a36.27,36.27,0,0,1,3.09,4.33H21.88A36.19,36.19,0,0,1,25,1.32Zm0,47.14a38.25,38.25,0,0,1-3.39-4.84h6.79A37.33,37.33,0,0,1,25,48.46Zm4-5.84H21a36.61,36.61,0,0,1-3.81-25l3.85,4v8.22a3.65,3.65,0,0,0,3.65,3.64h.55a3.64,3.64,0,0,0,3.64-3.64V29.8l3.56,3.71A36.79,36.79,0,0,1,28.93,42.62ZM27.88,28.76v1.09a2.64,2.64,0,0,1-2.64,2.64h-.55A2.65,2.65,0,0,1,22,29.85V22.68ZM22,21.23v-1.3a2.65,2.65,0,0,1,2.65-2.64h.55a2.64,2.64,0,0,1,2.64,2.64v7.39ZM32.71,32.34l-3.83-4V19.93a3.64,3.64,0,0,0-3.64-3.64h-.55A3.65,3.65,0,0,0,21,19.93v.26l-3.6-3.75a37,37,0,0,1,3.84-9.79h7.37a37,37,0,0,1,4.83,18.24A37.08,37.08,0,0,1,32.71,32.34Zm9.62,14.18L38,42a2.38,2.38,0,0,1,3.43-3.29l4.35,4.53Z" fill="#231f20"/><path d="M22,29.85a2.65,2.65,0,0,0,2.65,2.64h.55a2.64,2.64,0,0,0,2.64-2.64v-.3H22Z" fill="none"/><path d="M25.24,17.29h-.55A2.65,2.65,0,0,0,22,19.93v1.18h5.84V19.93A2.64,2.64,0,0,0,25.24,17.29Z" fill="none"/></g><g id="ebe2081b-7ea1-4453-9891-4bb3aa54a3a5" data-name="LABELS"><text transform="translate(0.39 54.96)" font-size="6" fill="#231f20" font-family="Roboto-Regular, Roboto">canoe</text></g></svg>