<svg id="e9968fe8-ebf4-47f6-a385-65c689615a87" data-name="ICONS" xmlns="http://www.w3.org/2000/svg" viewBox="0 0 50 50"><path d="M37.12,17.26a12.17,12.17,0,0,0,6,6,12.14,12.14,0,0,0-4.26,3.25c-.24.29-.47.59-.68.9a12.33,12.33,0,0,0-1.05,1.84,12,12,0,0,0-6-6A12.21,12.21,0,0,0,34.5,21a10,10,0,0,0,.71-.75A12.17,12.17,0,0,0,37.12,17.26Z" fill="#fdd600"/><circle cx="13.4" cy="13.9" r="4.07" fill="#fdd600"/><path d="M43.39,21.52a.5.5,0,0,1,.35.48.48.48,0,0,1-.35.47,11.13,11.13,0,0,0-5.32,3.81,14.22,14.22,0,1,1-25.78-.83l0-.09c.22-.42.42-.76.63-1.09L24.57,4.17a.51.51,0,0,1,.86,0l8,13.86a11,11,0,0,0,2-3.55.5.5,0,0,1,.47-.34.51.51,0,0,1,.48.34A11.07,11.07,0,0,0,43.39,21.52ZM41.86,22a12.17,12.17,0,0,1-6-6A12.17,12.17,0,0,1,34,19a10,10,0,0,1-.71.75A12.21,12.21,0,0,1,29.88,22a12,12,0,0,1,6,6,12.33,12.33,0,0,1,1.05-1.84c.21-.31.44-.61.68-.9A12.14,12.14,0,0,1,41.86,22Zm-3.63,9.83a13,13,0,0,0-.83-4.58,10.89,10.89,0,0,0-1,2.27.51.51,0,0,1-.48.34.5.5,0,0,1-.47-.34,11.14,11.14,0,0,0-7-7A.49.49,0,0,1,28,22a.51.51,0,0,1,.34-.48,10.93,10.93,0,0,0,4.38-2.71L25,5.42,13.82,24.78c-.21.33-.39.65-.56,1l0,0s0,0,0,.06a13.07,13.07,0,0,0-1.45,6,13.23,13.23,0,0,0,26.46,0Z" fill="#231f20"/><path d="M17.7,12.18a.5.5,0,0,1,.34.47.51.51,0,0,1-.34.48,8,8,0,0,0-5.07,5.07.5.5,0,0,1-1,0,8,8,0,0,0-5.07-5.07.5.5,0,0,1-.35-.48.49.49,0,0,1,.35-.47,8,8,0,0,0,5.07-5.07.5.5,0,0,1,1,0A8,8,0,0,0,17.7,12.18Zm-1.48.47a9,9,0,0,1-4.07-4.07,9,9,0,0,1-4.07,4.07,9,9,0,0,1,4.07,4.07A9,9,0,0,1,16.22,12.65Z" fill="#231f20"/><path d="M17.45,38a.51.51,0,0,1-.05.71.5.5,0,0,1-.7,0,10,10,0,0,1-2.5-5.87,10.19,10.19,0,0,1,1.37-5.88.5.5,0,1,1,.86.51,9,9,0,0,0,1,10.58Z" fill="#231f20"/></svg>