<svg xmlns="http://www.w3.org/2000/svg" viewBox="0 0 50 50"><g id="e71a1099-e105-4d82-a459-d469d1f2e5cd" data-name="ICONS"><path d="M42,9.89a22.81,22.81,0,0,1,5.38,14.75c0,.22,0,.43,0,.65a21.45,21.45,0,0,0-1.78-1.53c-1.74-1.32-4.78-3.4-5.69-2.46-.55.57,0,1.53.63,2.74a10.18,10.18,0,0,1,.64,1.28c-.26-.12-.62-.33-.89-.49-1-.6-2.11-1.22-2.84-.65A1.53,1.53,0,0,0,37,25.39a2.34,2.34,0,0,0,.76,1.81,1.8,1.8,0,0,0,1.29.33,2.31,2.31,0,0,1,1.06.15c.52.24,1.1.73,1.1,1.07s-.31.39-.8.69a7.09,7.09,0,0,0-1.58,1.21,6.24,6.24,0,0,0-1.52,3.91,25.93,25.93,0,0,0-1.75,2.3,8.56,8.56,0,0,0-.47.82c-.07.13-.12.25-.17.35a3.39,3.39,0,0,1-.47.78c-.29.38-1.17,1.52-1.59,1.46-.25,0-.6-.73-.78-1.88a8.42,8.42,0,0,0-.69-2.2A4.43,4.43,0,0,1,31,35.1a1,1,0,0,1,.06-.67,3.22,3.22,0,0,0,.22-1.49c-.08-2.09-.86-3-1.49-3.35a2.65,2.65,0,0,0-1.07-.29l-.22,0A16.33,16.33,0,0,0,26.25,29a2.41,2.41,0,0,1-.86-.14,3.4,3.4,0,0,1-1.54-3.08c.08-1.82,1.83-3,3.37-4.07a5.06,5.06,0,0,1,3-1.25A4.22,4.22,0,0,1,32,21c.49.23,1,.48,1.44.06.72-.75-.41-2.41-.65-2.74a4.08,4.08,0,0,0-2.25-1.73,3.48,3.48,0,0,0-2.69.74c-.53.33-.87.53-1.11.41a1.52,1.52,0,0,1-.6-1.14,1.29,1.29,0,0,1,.15-.95c.05,0,.25,0,.41,0A1.79,1.79,0,0,0,28,15.52c.75-.45.81-1.34.87-2.28,0-.24,0-.49.07-.75.26-2.26.95-3.94,1.86-4.51s2.15-.22,3.27.07,2.21.57,2.74-.22c.2-.29.21-.7.22-1.61A22.85,22.85,0,0,0,26.13,3.47l-.36.09A8.6,8.6,0,0,0,23.52,4.8,13.17,13.17,0,0,0,22,6c-.35.3-.4.32-.46.32-.45-.06-.93-1-1.26-2.07a22.94,22.94,0,0,0-9.58,5.21,1.92,1.92,0,0,0,.3,1,2.37,2.37,0,0,0,2.77.78A2.29,2.29,0,0,0,14.93,10c.19-.38.3-.6.52-.66a1.35,1.35,0,0,1,1.3.71,2.75,2.75,0,0,1-.1,1.73,4.43,4.43,0,0,0,0,2.66c.14.55.17.73.06.84-.28.28-1.09.14-1.68,0-.76-.13-1.48-.26-1.75.33a.85.85,0,0,0,.15.88l.1.17a2.19,2.19,0,0,1-.71.25,2.45,2.45,0,0,0-1.76,1,2.54,2.54,0,0,0,.22,2.21c.27.66.42,1.08.22,1.39a1,1,0,0,1-.35.31,2.58,2.58,0,0,1-.28-.89c-.16-.74-.35-1.66-1.12-2s-1.85.34-2.35.79a3.43,3.43,0,0,0-1.06,2,4.74,4.74,0,0,0,.67,2.85c.72,1.54,1.11,2.38,2,2.9a3.06,3.06,0,0,0,2.21.27,3.48,3.48,0,0,1,2,.12,2.27,2.27,0,0,1,.9.62,5.32,5.32,0,0,0,1.47,1.08,7.62,7.62,0,0,0,2,.71c.52.11.69.15.85.39a2.61,2.61,0,0,1-.57,2.83,1.67,1.67,0,0,1-.79.49,2.06,2.06,0,0,0-1.07.79,2.31,2.31,0,0,0-.29,1.69,9.84,9.84,0,0,1,0,1.79,9,9,0,0,1-.24,1.51,1.76,1.76,0,0,0,0,1.2c.44,1.24,1.83,1.71,2.9,2a4.65,4.65,0,0,1-2.85-.56A5.45,5.45,0,0,1,14.14,41a25.41,25.41,0,0,1-2.42-4,4,4,0,0,0-1.64-1.81A3.73,3.73,0,0,0,9.73,35a3.14,3.14,0,0,1-1-2.27,5.19,5.19,0,0,1,.15-2.14,3,3,0,0,0,0-1.77,3.88,3.88,0,0,0-2.29-2.15A10.16,10.16,0,0,1,5.41,26a6.57,6.57,0,0,1-2.07-2.57,23.7,23.7,0,0,0-.21,3.06A23,23,0,1,0,42,9.89Zm-2.1,27.58a1.58,1.58,0,0,1-.61,1.06,1.79,1.79,0,0,1-1.48.14A4.56,4.56,0,0,1,39.35,37v0a3.37,3.37,0,0,1,.56-.39A2,2,0,0,1,39.93,37.47Z" fill="#fdd600"/><path d="M36.75,4.06,36.64,4a23.64,23.64,0,0,0-6.21-2.59h0a24.24,24.24,0,0,0-6-.76A23.87,23.87,0,0,0,9.62,5.78a5.79,5.79,0,0,0-1.15,1l0,0A24.1,24.1,0,0,0,1.17,18.7a.06.06,0,0,1,0,0,24,24,0,1,0,47.18,7.67h0c0-.59.07-1.18.07-1.77A24,24,0,0,0,36.75,4.06ZM24.42,1.64a23,23,0,0,1,5.14.59,2.22,2.22,0,0,1-.82.89,1.92,1.92,0,0,1-1.13.21,5.46,5.46,0,0,0-1.84.23A8.6,8.6,0,0,0,23.52,4.8,13.17,13.17,0,0,0,22,6c-.35.3-.4.32-.46.32-.59-.08-1.24-1.65-1.52-3.13a7.93,7.93,0,0,1-.12-1.08A23.35,23.35,0,0,1,24.42,1.64Zm-14.23,5c.67-.42,1.26-.53,1.57-.35.09,0,.28.2.3.35s-.08.19-.3.42a3.65,3.65,0,0,0-.82,1.18A2.44,2.44,0,0,0,11,10.48a2.37,2.37,0,0,0,2.77.78A2.29,2.29,0,0,0,14.93,10c.19-.38.3-.6.52-.66a1.35,1.35,0,0,1,1.3.71,2.75,2.75,0,0,1-.1,1.73,4.43,4.43,0,0,0,0,2.66c.14.55.17.73.06.84-.28.28-1.09.14-1.68,0-.76-.13-1.48-.26-1.75.33a.85.85,0,0,0,.15.88l.1.17a2.19,2.19,0,0,1-.71.25,2.45,2.45,0,0,0-1.76,1,2.54,2.54,0,0,0,.22,2.21c.27.66.42,1.08.22,1.39a1,1,0,0,1-.35.31,2.58,2.58,0,0,1-.28-.89c-.16-.74-.35-1.66-1.12-2s-1.85.34-2.35.79a3.43,3.43,0,0,0-1.06,2,4.74,4.74,0,0,0,.67,2.85c.72,1.54,1.11,2.38,2,2.9a3.06,3.06,0,0,0,2.21.27,3.48,3.48,0,0,1,2,.12,2.27,2.27,0,0,1,.9.62,5.32,5.32,0,0,0,1.47,1.08,7.62,7.62,0,0,0,2,.71c.52.11.69.15.85.39a2.61,2.61,0,0,1-.57,2.83,1.67,1.67,0,0,1-.79.49,2.06,2.06,0,0,0-1.07.79,2.31,2.31,0,0,0-.29,1.69,9.84,9.84,0,0,1,0,1.79,9,9,0,0,1-.24,1.51,1.76,1.76,0,0,0,0,1.2c.44,1.24,1.83,1.71,2.9,2a4.65,4.65,0,0,1-2.85-.56A5.45,5.45,0,0,1,14.14,41a25.41,25.41,0,0,1-2.42-4,4,4,0,0,0-1.64-1.81A3.73,3.73,0,0,0,9.73,35a3.14,3.14,0,0,1-1-2.27,5.19,5.19,0,0,1,.15-2.14,3,3,0,0,0,0-1.77,3.88,3.88,0,0,0-2.29-2.15A10.16,10.16,0,0,1,5.41,26c-1.76-1.23-2.85-3.62-3.25-7.09A23,23,0,0,1,10.19,6.6Zm14.23,41a23,23,0,0,1-23-23,23.52,23.52,0,0,1,.2-3,8.75,8.75,0,0,0,3.21,5.2,11.7,11.7,0,0,0,1.34.77c.87.45,1.55.79,1.79,1.56a2,2,0,0,1-.06,1.23,5.94,5.94,0,0,0-.17,2.51,4.05,4.05,0,0,0,1.45,3,1.52,1.52,0,0,0,.27.13l.14.06a3.15,3.15,0,0,1,1.26,1.43,25.07,25.07,0,0,0,2.5,4.09A6.19,6.19,0,0,0,15.1,43.3a5.54,5.54,0,0,0,2.81.73,4.54,4.54,0,0,0,1.9-.35.81.81,0,0,0,.51-.63c.05-.58-.54-.74-1.29-.93s-2.22-.57-2.53-1.45c-.07-.19-.05-.26,0-.61a9.92,9.92,0,0,0,.27-1.69,11.4,11.4,0,0,0,0-1.94c-.05-.6-.06-.78.12-1a1,1,0,0,1,.6-.41,2.74,2.74,0,0,0,1.16-.75c1-1,1.46-2.91.67-4.08a2.07,2.07,0,0,0-1.47-.8,6.7,6.7,0,0,1-1.79-.61,4.4,4.4,0,0,1-1.22-.9A3.12,3.12,0,0,0,13.61,27a4.43,4.43,0,0,0-2.49-.18,2.11,2.11,0,0,1-1.56-.15c-.6-.34-.91-1-1.6-2.45a3.78,3.78,0,0,1-.59-2.28,2.4,2.4,0,0,1,.75-1.44c.5-.46,1-.71,1.28-.61s.42.76.53,1.28c.15.7.32,1.49,1,1.65a1.49,1.49,0,0,0,1.44-.75,2.43,2.43,0,0,0-.15-2.3c-.22-.53-.42-1-.25-1.36s.64-.41,1.11-.52,1.31-.32,1.45-1a1.13,1.13,0,0,0-.1-.68l.45.07c.85.15,1.91.33,2.55-.31a1.73,1.73,0,0,0,.21-1.8A3.52,3.52,0,0,1,17.61,12a3.52,3.52,0,0,0,.07-2.38,2,2,0,0,0-.13-.25,2.28,2.28,0,0,0-2.38-1.05A1.88,1.88,0,0,0,14,9.52c-.2.42-.34.68-.66.82a1.39,1.39,0,0,1-1.54-.41,1.52,1.52,0,0,1,0-1.35,2.66,2.66,0,0,1,.62-.87,1.49,1.49,0,0,0,.56-1.23,1.63,1.63,0,0,0-.8-1.11L12,5.29a22.54,22.54,0,0,1,6.87-3,7.39,7.39,0,0,0,.13,1c.21,1.11.87,3.74,2.36,3.93h.17a1.65,1.65,0,0,0,1.09-.57,12.8,12.8,0,0,1,1.43-1.1,7.29,7.29,0,0,1,2-1.11,4.24,4.24,0,0,1,1.52-.19A2.89,2.89,0,0,0,29.25,4a3.4,3.4,0,0,0,1.29-1.51A22.72,22.72,0,0,1,36,4.76,10.59,10.59,0,0,1,36,6,8.43,8.43,0,0,1,36,7.28c-.13.19-1,0-1.66-.2-1.25-.32-2.81-.73-4.05,0-1.62,1-2.15,3.72-2.33,5.25,0,.27-.05.54-.06.79-.05.7-.09,1.31-.39,1.49a.92.92,0,0,1-.64,0,1.39,1.39,0,0,0-1.24.18,2.06,2.06,0,0,0-.5,1.85,2.45,2.45,0,0,0,1.17,1.92c.75.35,1.44-.09,2.06-.48a2.64,2.64,0,0,1,1.94-.6,3.05,3.05,0,0,1,1.66,1.34,6,6,0,0,1,.71,1.3l-.27-.11a5.11,5.11,0,0,0-2.11-.59,6,6,0,0,0-3.61,1.43C25,22,23,23.43,22.85,25.75c-.06,1.51.72,3.43,2.15,4a3.33,3.33,0,0,0,1.2.22,15.34,15.34,0,0,1,2.12.23l.22,0c.55.1.64.11.73.17a3,3,0,0,1,1,2.53,2.28,2.28,0,0,1-.15,1.09A1.93,1.93,0,0,0,30,35.28a6,6,0,0,0,.45,1.31,7.55,7.55,0,0,1,.63,2c.14.91.54,2.46,1.59,2.64a.75.75,0,0,0,.21,0c.94,0,1.78-1.11,2.37-1.88a4.28,4.28,0,0,0,.56-.94c0-.1.09-.2.15-.32a8,8,0,0,1,.43-.73,22,22,0,0,1,1.77-2.31.53.53,0,0,0,.12-.3,5.36,5.36,0,0,1,1.26-3.45,5.91,5.91,0,0,1,1.37-1c.65-.4,1.26-.77,1.28-1.53,0-1-1.06-1.72-1.7-2A3.17,3.17,0,0,0,39,26.53c-.36,0-.49,0-.63-.11a1.42,1.42,0,0,1-.39-1c0-.27.07-.4.11-.43.2-.15,1.34.51,1.72.73.95.55,1.7,1,2.22.5s.06-1.47-.59-2.64a10.07,10.07,0,0,1-.72-1.51A15,15,0,0,1,45,24.56a22.42,22.42,0,0,1,2.32,2A23,23,0,0,1,24.42,47.63Zm23-22.34a21.45,21.45,0,0,0-1.78-1.53c-1.74-1.32-4.78-3.4-5.69-2.46-.55.57,0,1.53.63,2.74a10.18,10.18,0,0,1,.64,1.28c-.26-.12-.62-.33-.89-.49-1-.6-2.11-1.22-2.84-.65A1.53,1.53,0,0,0,37,25.39a2.34,2.34,0,0,0,.76,1.81,1.8,1.8,0,0,0,1.29.33,2.31,2.31,0,0,1,1.06.15c.52.24,1.1.73,1.1,1.07s-.31.39-.8.69a7.09,7.09,0,0,0-1.58,1.21,6.24,6.24,0,0,0-1.52,3.91,25.93,25.93,0,0,0-1.75,2.3,8.56,8.56,0,0,0-.47.82c-.07.13-.12.25-.17.35a3.39,3.39,0,0,1-.47.78c-.29.38-1.17,1.52-1.59,1.46-.25,0-.6-.73-.78-1.88a8.42,8.42,0,0,0-.69-2.2A4.43,4.43,0,0,1,31,35.1a1,1,0,0,1,.06-.67,3.22,3.22,0,0,0,.22-1.49c-.08-2.09-.86-3-1.49-3.35a2.65,2.65,0,0,0-1.07-.29l-.22,0A16.33,16.33,0,0,0,26.25,29a2.41,2.41,0,0,1-.86-.14,3.4,3.4,0,0,1-1.54-3.08c.08-1.82,1.83-3,3.37-4.07a5.06,5.06,0,0,1,3-1.25A4.22,4.22,0,0,1,32,21c.49.23,1,.48,1.44.06.72-.75-.41-2.41-.65-2.74a4.08,4.08,0,0,0-2.25-1.73,3.48,3.48,0,0,0-2.69.74c-.53.33-.87.53-1.11.41a1.52,1.52,0,0,1-.6-1.14,1.29,1.29,0,0,1,.15-.95c.05,0,.25,0,.41,0A1.79,1.79,0,0,0,28,15.52c.75-.45.81-1.34.87-2.28,0-.24,0-.49.07-.75.26-2.26.95-3.94,1.86-4.51s2.15-.22,3.27.07,2.21.57,2.74-.22C37,7.51,37,7.08,37,6c0-.21,0-.41,0-.62A23,23,0,0,1,47.41,24.64C47.41,24.86,47.4,25.07,47.4,25.29Z" fill="#231f20"/><path d="M40.35,35.56h0c-.51-.22-1.17.23-1.63.63-1,.82-2.15,2-1.83,2.8a1.21,1.21,0,0,0,.81.66,2.55,2.55,0,0,0,.77.11,2.59,2.59,0,0,0,1.4-.39A2.86,2.86,0,0,0,41,36.76C40.93,36.4,40.81,35.76,40.35,35.56Zm-.42,1.91a1.58,1.58,0,0,1-.61,1.06,1.79,1.79,0,0,1-1.48.14A4.56,4.56,0,0,1,39.35,37v0a3.37,3.37,0,0,1,.56-.39A2,2,0,0,1,39.93,37.47Z" fill="#231f20"/></g><g id="ad4efd62-ec7e-48bb-9334-39b20ee0330b" data-name="LABELS"><text transform="translate(0 54.89)" font-size="6" fill="#231f20" font-family="Roboto-Regular, Roboto">ea<tspan x="6.44" y="0" letter-spacing="0.02em">r</tspan><tspan x="8.62" y="0">th</tspan></text></g></svg>