<svg xmlns="http://www.w3.org/2000/svg" viewBox="0 0 50 50"><g id="f66b2e25-faba-48f0-9933-88d677f11a4a" data-name="ICONS"><path d="M30.12,11.14a20.3,20.3,0,0,1,1.26-5.85L28.75,6.8a.48.48,0,0,1-.39,0,.5.5,0,0,1-.3-.25l-1.3-2.51L25.57,6.5a.47.47,0,0,1-.29.26.51.51,0,0,1-.4,0l-2.74-1.5a25,25,0,0,1,1.05,5.93.5.5,0,0,1-.48.5L16,12l6,4a.5.5,0,0,1,.19.59l-1,2.88-1.26,3.57,6.57-4.92a.5.5,0,0,1,.59,0L33.61,23l-2.28-6.47a.49.49,0,0,1,.19-.58l6-4-6.93-.26A.51.51,0,0,1,30.12,11.14Z" fill="#fdd600"/><path d="M37.82,9.58a.5.5,0,0,0-.46-.36l-8-.3a24,24,0,0,1,1.67-6.31A.51.51,0,0,0,30.93,2,.5.5,0,0,0,30.35,2L27,3.92,25.44,1A.47.47,0,0,0,25,.71a.49.49,0,0,0-.44.28L23.16,3.84,19.79,2a.5.5,0,0,0-.56.06.49.49,0,0,0-.15.54,29.32,29.32,0,0,1,1.34,6.33l-7.78.37a.5.5,0,0,0-.46.37.49.49,0,0,0,.2.55l7,4.66-2.7,7.64a.5.5,0,0,0,.18.57.45.45,0,0,0,.29.1.54.54,0,0,0,.3-.1l7.21-5.4V37.86c-2.57-5.44-6.79-12-7.82-12.39a.64.64,0,0,0-.47,0c-2.05,1.2-.33,8.17.24,10.27,1.35,5,4.61,13.35,8.29,13.5h.26a.5.5,0,0,0,.21,0c3.26-.48,6.24-7.25,7.83-13.09.42-1.55,2.41-9.33.26-10.59A.62.62,0,0,0,33,25.5c-.24.07-.85.24-7.38,12V17.87l7,5.14a.49.49,0,0,0,.59,0,.5.5,0,0,0,.18-.57l-2.7-7.64,7-4.67A.49.49,0,0,0,37.82,9.58ZM20.39,3.47,23.13,5a.51.51,0,0,0,.4,0,.47.47,0,0,0,.29-.26L25,2.33l1.3,2.51a.5.5,0,0,0,.3.25.48.48,0,0,0,.39,0l2.63-1.51a20.3,20.3,0,0,0-1.26,5.85h0v.14a3.72,3.72,0,0,1-3.48,3.9,3.74,3.74,0,0,1-3.45-3.87V9.4h0A25.28,25.28,0,0,0,20.39,3.47ZM17.54,35.52c-1.38-5.09-1.36-8.1-.88-8.94A62.63,62.63,0,0,1,24.48,40a.65.65,0,0,0,.15.18v8.08C22.13,47.7,19.16,41.44,17.54,35.52ZM33.15,26.7c.51,1,.32,4.52-.95,9.19C30.67,41.52,28,47.2,25.63,48.14V39.56C28.15,35,32,28.24,33.15,26.7ZM29.77,14.18a.49.49,0,0,0-.19.58l2.28,6.47L25.3,16.38a.5.5,0,0,0-.59,0L18.14,21.3l1.26-3.57,1-2.88a.5.5,0,0,0-.19-.59l-6-4,6.26-.3a4.7,4.7,0,0,0,4.43,4.5,4.66,4.66,0,0,0,4.45-4.51l6.44.24Z" fill="#231f20"/></g><g id="be85fa7b-5412-4ef9-b126-f17c84d82d7d" data-name="LABELS"><text transform="translate(-0.01 55.05)" font-size="6" fill="#231f20" font-family="Roboto-Regular, Roboto">flower-two</text></g></svg>