<svg xmlns="http://www.w3.org/2000/svg" viewBox="0 0 50 50"><g id="a30ce00e-19c2-4440-bc6e-178435d3fab3" data-name="ICONS"><path d="M46.38,19.2c-.29,0-1,1.06-1.48,1.71-1,1.44-2.11,3.08-3.61,3-2.08-.09-12.57-4.07-13.64-4.5h0c-1.07.78-6.93,5.12-8.65,6.06-1,.56-4.78,2-8.39,3.47L7.8,30.06c-1.37.55-3,1.2-3.5,1.46a1.74,1.74,0,0,0-.87,1.09,1.7,1.7,0,0,0,.17,1.21h0c.16,0,15.81.88,20.35.22,1.5-.21,3.16-.53,4.74-.84l.82-.16a58.93,58.93,0,0,1,9.25-1.35,104.92,104.92,0,0,0,10.51-1c0-.26,0-.61.05-1.13a19.49,19.49,0,0,0-.16-5.07C48.57,22.14,47.18,19.25,46.38,19.2Z" fill="#fdd600"/><path d="M33.41,21.71a10.49,10.49,0,0,0-.18-4A8.18,8.18,0,0,0,33,17a.47.47,0,0,0-.31-.39.44.44,0,0,0-.26,0A18.22,18.22,0,0,0,29.62,18a17.11,17.11,0,0,0-2,1.42,8.94,8.94,0,0,0,5.76,2.29Z" fill="#fdd600"/><path d="M48.43,29.21c0-.19,0-.76,0-1.27a20.17,20.17,0,0,0-.19-5.37c0-.06-1.59-5.9-3.71-6-.87-.07-1.53.91-2.37,2.14s-1.8,2.62-2.74,2.58a42,42,0,0,1-6.66-2c0-.4.4-5.22-1.57-5.54-1.4-.24-4.19,1.75-5.72,2.95l-.13.1-.07.06c-.06.05-6.87,5.11-8.66,6.09-1,.53-4.86,2.06-8.29,3.42L5.55,27.46C3.5,28.28,2.4,28.74,2,29a2.67,2.67,0,0,0-1,3.91H1a3.07,3.07,0,0,0,.39.52,10.47,10.47,0,0,0,6.73,2.85l1.18,0c6.08,0,31.51-.37,33.14-.41h.17c4-.09,5.92-.5,6.36-1.3C50.08,33.27,49.16,30.3,48.43,29.21Zm-1-1.32c0,.51,0,.87,0,1.13-.92.12-6.41.89-9.9,1a12.45,12.45,0,0,1,2.2-3.09.41.41,0,0,0,.07-.15c2-1.8,6.47-2.59,7.71-2.79A29.73,29.73,0,0,1,47.47,27.89Zm-28.86-5,2,1.79a.54.54,0,0,0,.34.12.5.5,0,0,0,.37-.16.51.51,0,0,0,0-.71l-1.83-1.62,1-.7,2.13,1.8a.5.5,0,0,0,.64-.76l-1.91-1.62.64-.45,2.58,1.73a.49.49,0,0,0,.69-.13.5.5,0,0,0-.13-.7L22.86,20l1.95-1.34a20.47,20.47,0,0,0,5.05,5,50.62,50.62,0,0,0,8.58,3.14,12.27,12.27,0,0,0-1.88,2.87l-13,2.2-6.35-7.63L17,24.05ZM43,19.24c.44-.65,1.21-1.73,1.47-1.71.81,0,2.2,2.94,2.81,5.29a1,1,0,0,0,0,.17c-1.33.21-5.94,1-8.19,3-1.37-.38-6.83-2-8.79-3.15-.89-.53-2.46-1.82-4.86-4.91l.26-.2h0c1.07.42,11.55,4.41,13.64,4.5C40.91,22.33,42,20.68,43,19.24Zm-11.19-.31c-2.13-.76-4.11-1.5-5.14-1.9,2-1.5,3.73-2.43,4.37-2.32S32,17.66,31.84,18.93Zm-30.28,12a1.75,1.75,0,0,1,.87-1.08c.52-.27,2.24-1,3.49-1.46l2.81-1.11c2.74-1.09,5.55-2.2,7.2-2.92l6.62,8-.45.07c-4.54.66-20.19-.22-20.35-.23h0A1.72,1.72,0,0,1,1.56,30.93ZM48.17,34c-.1.17-.79.75-5.56.86h-.17c-.27,0-32,.48-34.26.4A10,10,0,0,1,2.61,33.2c2.34.12,8.68.43,13.78.43a46.9,46.9,0,0,0,5.85-.26c1.54-.22,3.28-.55,4.79-.85l.81-.16A56.49,56.49,0,0,1,36.92,31,107.48,107.48,0,0,0,47.7,30h0C48.3,31,48.84,33.2,48.17,34Z" fill="#231f20"/></g><g id="ff039ea0-a966-4e9b-9b8e-357e9347adad" data-name="LABELS"><text transform="translate(0.39 55.01)" font-size="6" fill="#231f20" font-family="Roboto-Regular, Roboto">gym-shoes</text></g></svg>