<svg xmlns="http://www.w3.org/2000/svg" viewBox="0 0 50 50"><g id="b87e8ea7-0e2e-463e-8230-4b580361f3a9" data-name="ICONS"><path d="M37.35,17a5.61,5.61,0,0,0-4.25-5.4,5.71,5.71,0,0,0-6.69,3.73l-1.25,3.48a.51.51,0,0,1-.29.3.48.48,0,0,1-.42,0L9,10.66a37.34,37.34,0,0,0,1.66,6.82.5.5,0,0,1-.58.65l-5.81-1.4c4.22,9.81,10.91,14.91,15.53,14.91h.08a.49.49,0,0,1,.4.21.51.51,0,0,1,.07.46l-3.6,10.06c6.6-1.16,11-3.1,12.93-5.78,1.81-2.46,1.46-5.15,1.08-8-.44-3.28-.89-6.68,2.4-9.4A12.7,12.7,0,0,1,37.35,17Z" fill="#fdd600"/><path d="M48.52,20.08l-12-4.68a6.5,6.5,0,0,0-5-6.4,6.73,6.73,0,0,0-7.87,4.37L22.66,16.3,6.84,7.7a.51.51,0,0,0-.52,0,.5.5,0,0,0-.21.48,37.18,37.18,0,0,0,1.61,7.15L1.78,13.91a.48.48,0,0,0-.49.16.48.48,0,0,0-.09.51C4.57,23,11.39,30.63,17.39,31L13.75,41.22a.5.5,0,0,0,.47.67h.08c7.34-1.18,12.19-3.3,14.41-6.31,2.06-2.78,1.66-5.81,1.27-8.73-.42-3.16-.82-6.14,2.05-8.5a11.63,11.63,0,0,1,4-2.06L48.15,21a.58.58,0,0,0,.19,0,.49.49,0,0,0,.46-.32A.5.5,0,0,0,48.52,20.08ZM29,27c.37,2.86.73,5.55-1.08,8-2,2.67-6.33,4.62-12.93,5.77L18.46,31a6.76,6.76,0,0,0,1.71-.35c4.16-1.53,5.57-7.78,6-10.39a.49.49,0,0,0-.37-.56l-3-.74,1.9-5.3A5.69,5.69,0,0,1,31.35,10a5.6,5.6,0,0,1,4.25,5.4,12.6,12.6,0,0,0-4.21,2.2C28.1,20.28,28.55,23.68,29,27Zm-7.21-8.21-13-3.15A37.66,37.66,0,0,1,7.23,9l15.09,8.21Zm3.31,1.83c-.47,2.64-1.82,7.88-5.27,9.15C15.13,31.46,7.18,26,2.5,15.11Z" fill="#231f20"/></g><g id="bcccb119-c3fd-4535-ab80-ebdfe65b0b6f" data-name="LABELS"><text transform="translate(0 54.89)" font-size="6" fill="#231f20" font-family="Roboto-Regular, Roboto">hummingbi<tspan x="30.08" y="0" letter-spacing="-0.01em">r</tspan><tspan x="32.06" y="0">d</tspan></text></g></svg>