<svg xmlns="http://www.w3.org/2000/svg" viewBox="0 0 50 50"><g id="fa196958-e6bd-4606-b0e8-386fa8237eda" data-name="ICONS"><path d="M26.82,17.46a.49.49,0,0,1,0-.51l8.1-12.73H24.23L12.61,22.79H26.26a.48.48,0,0,1,.4.2.46.46,0,0,1,.08.44L20,47.1,40.82,17.72H27.26A.5.5,0,0,1,26.82,17.46Z" fill="#fdd600"/><path d="M40.48,15.24A.49.49,0,0,0,40,15H26.42l8.1-12.73a.49.49,0,0,0,0-.51.48.48,0,0,0-.43-.26H22.21a.5.5,0,0,0-.43.24L9.54,21.27a.49.49,0,0,0,0,.51A.51.51,0,0,0,10,22H23.85L16.44,47.89a.5.5,0,0,0,.26.59.54.54,0,0,0,.22.05.52.52,0,0,0,.41-.21L40.45,15.76A.49.49,0,0,0,40.48,15.24ZM18.21,45.35,25,21.68a.46.46,0,0,0-.08-.44.48.48,0,0,0-.4-.2H10.86L22.48,2.47H33.19L25.09,15.2a.5.5,0,0,0,.42.77H39.07Z" fill="#231f20"/></g><g id="bd057db9-1a4c-47f7-92ad-09ccf3ae7928" data-name="LABELS"><text transform="translate(0.39 54.88)" font-size="6" fill="#231f20" font-family="Roboto-Regular, Roboto">lightning-bolt</text></g></svg>