<svg xmlns="http://www.w3.org/2000/svg" viewBox="0 0 50 50"><g id="e4144be2-fc1f-4c59-a316-afba0aaa4a20" data-name="ICONS"><path d="M25.49,21.92a2.06,2.06,0,0,0-1.58-.35,2.09,2.09,0,0,0-1.35.87l-2,2.9a.51.51,0,0,1-.49.21.49.49,0,0,1-.4-.36l-1.79-6.3A7.12,7.12,0,0,0,11,13.71,7.26,7.26,0,0,0,9.08,14a7.12,7.12,0,0,0-4.9,8.78L7.54,34.65a4.25,4.25,0,0,0,.43,1l1.4-.4.32,1.12,1-.28L10.33,35,13,34.21l.31,1.12,1-.27L14,33.94l2.7-.76L17,34.29,18,34l-.32-1.12,2.7-.76.32,1.12.49-.14A8,8,0,0,0,21.4,32a3.17,3.17,0,0,1,.17-.69,3,3,0,0,1,.25-.47l4.2-6A2.45,2.45,0,0,0,25.49,21.92Z" fill="#fdd600"/><path d="M47.6,8.47a7.11,7.11,0,0,0-9.89-1.84,7,7,0,0,0-3,4.56l-1.2,6.44a.5.5,0,0,1-.88.23l-2.27-2.7a2.14,2.14,0,0,0-1.62-.75,2.08,2.08,0,0,0-1.35.49,2.47,2.47,0,0,0-.2,3l4.66,5.53a2.35,2.35,0,0,1,.3.45,2.53,2.53,0,0,1,.23.66c0,.14.1.38.18.64l.3.05-.08.4,1,.18.07-.39,2.76.51-.07.39,1,.19.07-.4,2.76.52-.07.39,1,.19.07-.4,2.76.52-.07.39,1.41.26a4.51,4.51,0,0,0,1-2.08L48.72,13.8A7.08,7.08,0,0,0,47.6,8.47Z" fill="#fdd600"/><path d="M46.67,6.16A8.11,8.11,0,0,0,32,9.26l-1,5.4-1.6-1.89A3.1,3.1,0,0,0,25,12.39a3.49,3.49,0,0,0-.38,4.38l4.71,5.6a2.11,2.11,0,0,1,.18.27,1.74,1.74,0,0,1,.14.41c0,.14.1.38.18.65h0a.56.56,0,0,0-.38.08.52.52,0,0,0-.2.32l-1.17,6.24a.5.5,0,0,0,.4.58l6.85,1.28c-1.21,3.4-2.49,6.61-3.83,9.53l-.08.18c-.21.46-.44.94-.62,1.42l-.31,0a20.39,20.39,0,0,1-6.55.29,15.08,15.08,0,0,1-7.59-3.79l6.23-1.77a.49.49,0,0,0,.34-.61l-1.72-6.1a.51.51,0,0,0-.62-.35h0c.06-.28.1-.52.12-.67a1.45,1.45,0,0,1,.1-.41,1.25,1.25,0,0,1,.15-.28l4.23-6.1a3.48,3.48,0,0,0-.82-4.25,3.07,3.07,0,0,0-2.32-.5,3,3,0,0,0-2,1.28l-1.42,2-1.49-5.28A8.12,8.12,0,0,0,1.46,21.28L4.83,33.17a5.58,5.58,0,0,0,1.07,2,.44.44,0,0,0-.28.22.51.51,0,0,0,0,.38L7.3,41.9a.49.49,0,0,0,.48.37l.14,0,7.3-2.07a16.32,16.32,0,0,0,8.56,4.47,21.13,21.13,0,0,0,6.66-.26,2.1,2.1,0,0,0,1.91,3l.29,0a2.41,2.41,0,0,0,2.25-3.46c-.51-.87-1.53-.93-2.95-.76.12-.28.25-.57.38-.83l.08-.19c1.37-3,2.69-6.27,3.91-9.76l7.13,1.33h.09a.52.52,0,0,0,.29-.09A.51.51,0,0,0,44,33.3l1.16-6.23a.5.5,0,0,0-.39-.58,5.43,5.43,0,0,0,.89-2.11L48,12.23A8,8,0,0,0,46.67,6.16ZM21.82,37.28,19.11,38,17.66,32.9l2.7-.76Zm-16-4.38L2.43,21a7.12,7.12,0,0,1,4.9-8.78A7.26,7.26,0,0,1,9.27,12a7.12,7.12,0,0,1,6.84,5.18l1.79,6.3a.49.49,0,0,0,.4.36.51.51,0,0,0,.49-.21l2-2.9a2.09,2.09,0,0,1,1.35-.87,2.06,2.06,0,0,1,1.58.35,2.45,2.45,0,0,1,.53,2.93l-4.2,6a3,3,0,0,0-.25.47,3.17,3.17,0,0,0-.17.69,8,8,0,0,1-.23,1.09l-2.51.71h0L7,34.88A4.43,4.43,0,0,1,5.79,32.9Zm2.34,8.25L6.67,36l2.7-.76,1.46,5.14Zm3.66-1L10.33,35,13,34.21l1.45,5.14ZM15.44,39,14,33.94l2.7-.76,1.45,5.13-2.66.76ZM34,44.41a1.52,1.52,0,0,1-.45,1.66,1.54,1.54,0,0,1-1.13.29,1.39,1.39,0,0,1-1-.43c-.3-.35-.21-1,0-1.71C32.77,44,33.77,44,34,44.41ZM31.91,30.53,29.15,30l1-5.25,2.76.51Zm3.74.7-2.76-.51,1-5.25,2.76.51Zm3.74.7-2.76-.52,1-5.25,2.76.52Zm3.74.7-2.75-.52,1-5.25,2.76.52ZM47,12.05,44.71,24.2a4.51,4.51,0,0,1-1,2.08l-2.65-.49h0l-3.73-.7h0L31,23.91a6.8,6.8,0,0,1-.34-1.07,2.53,2.53,0,0,0-.23-.66,2.35,2.35,0,0,0-.3-.45L25.47,16.2a2.47,2.47,0,0,1,.2-3A2.08,2.08,0,0,1,27,12.66a2.14,2.14,0,0,1,1.62.75l2.27,2.7a.5.5,0,0,0,.88-.23L33,9.44a7,7,0,0,1,3-4.56,7.11,7.11,0,0,1,11,7.17Z" fill="#231f20"/></g><g id="a29acea7-3417-46dd-8d81-3d0a3c14a2f4" data-name="LABELS"><text transform="translate(0.85 55.01)" font-size="6" fill="#231f20" font-family="Roboto-Regular, Roboto">mittens</text></g></svg>