<svg id="a1f5cd3b-6ebe-44b7-889a-d78f29c7764a" data-name="ICONS" xmlns="http://www.w3.org/2000/svg" viewBox="0 0 50 50"><path d="M49.27,44.58,36.66,21.14l-.39.72,1.29,2.39L37,26.44l-1.37-1.3a.5.5,0,0,0-.66,0l-2,1.64-1-2,.85-1.59-6-14.25-.49,1.15,2,4.68-.61,4.73L25,15.64a.51.51,0,0,0-.39-.21.53.53,0,0,0-.41.19l-.17.23L18.39,29.21a.48.48,0,0,1-.42.3.48.48,0,0,1-.46-.23l-1.9-2.94-.29.45.85,1.32-3,3.42-.46-.66L3.86,44.58Z" fill="#fdd600"/><path d="M48.83,43.09l-13.44-25a.52.52,0,0,0-.88,0l-2,3.79L25.66,5.7a.52.52,0,0,0-.92,0L21,14.51h0L16.13,26.2l-1.81-2.8a.51.51,0,0,0-.84,0L.81,43.06a.52.52,0,0,0,0,.51.51.51,0,0,0,.44.26H48.39a.5.5,0,0,0,.43-.25A.48.48,0,0,0,48.83,43.09ZM28.39,14.77l-.61,4.73L25,15.64a.51.51,0,0,0-.39-.21.53.53,0,0,0-.41.19L22.06,18.3,22,14.79l3.2-7.6Zm-7.31,4.94A.5.5,0,0,0,22,20l2.59-3.25,3.16,4.34a.49.49,0,0,0,.4.21l.13,0a.5.5,0,0,0,.37-.42l.54-4.26L31.86,23l-8.09,15-7-10.85L21,17.08Zm16.48,4.54L37,26.44l-1.37-1.3a.5.5,0,0,0-.66,0l-2,1.64-1-2L35,19.39ZM16.17,28.11l-3,3.42-1.92-2.79,2.67-4.15Zm-5.53,1.54,2,3a.5.5,0,0,0,.38.22h0a.5.5,0,0,0,.38-.17L16.73,29l6.5,10.08-2,3.77h-19ZM40.18,42.83H22.34l9.12-17,.92,1.9a.47.47,0,0,0,.34.27h.11a.56.56,0,0,0,.32-.11l2.13-1.77L37,27.75a.52.52,0,0,0,.49.12.5.5,0,0,0,.34-.36l.48-2,9.29,17.27Z" fill="#231f20"/></svg>