<svg xmlns="http://www.w3.org/2000/svg" viewBox="0 0 50 50"><g id="eb1ac927-3404-46ff-8860-b913546daeb0" data-name="ICONS"><path d="M27.73,24.89H25.28c.56,3.12.77,3.81,1.42,3.84s1.26.06,1.87.1c5.7.44,8.35,1.68,8.35,2.39,0,.3-.7,1-3.37,1.68a41,41,0,0,1-9,.9h-.11c-7.47,0-12.23-1.5-12.24-2.53,0-.7,2.61-1.94,8.21-2.41.57-.05,1.16-.09,1.76-.11s.91-.78,1.51-3.82c-11.39.42-20.44,4-20.44,8.15,0,4.45,10.58,8.21,23.1,8.21s23.09-3.76,23.09-8.21S39.75,25.07,27.73,24.89Z" fill="#fdd600"/><path d="M23.85,12.73c0,1.28.95,3.33,1.74,3.33s1.74-2,1.74-3.33a1.9,1.9,0,0,0-1.74-2A1.9,1.9,0,0,0,23.85,12.73Z" fill="#fdd600"/><path d="M24.59,16.06c1.68,0,2.74-2.85,2.74-4.33a2.89,2.89,0,0,0-2.74-3,2.89,2.89,0,0,0-2.74,3C21.85,13.21,22.92,16.06,24.59,16.06Zm1.74-4.33c0,1.28-.95,3.33-1.74,3.33S22.85,13,22.85,11.73a1.9,1.9,0,0,1,1.74-2A1.9,1.9,0,0,1,26.33,11.73Z" fill="#231f20"/><path d="M25.79,22.13c-.4-2-.67-2.57-1.23-2.57h0c-.58,0-.87.58-1.3,2.58C10.3,22.33.53,26.28.53,31.33s10.58,9.21,24.1,9.21,24.09-4,24.09-9.21S38.87,22.29,25.79,22.13ZM24.63,39.54c-12.52,0-23.1-3.76-23.1-8.21s9.63-8,21.52-8.19l-.2,1A24.6,24.6,0,0,1,22,27.76c-.56,0-1.11.06-1.63.1-2.15.18-9.13,1-9.13,3.41s6.65,3.53,13.24,3.53h.11a41.78,41.78,0,0,0,9.19-.93c2.75-.66,4.14-1.55,4.14-2.66,0-2.47-7.1-3.21-9.27-3.37-.56-.05-1.13-.08-1.72-.1a28.23,28.23,0,0,1-.77-3.61c-.07-.36-.12-.69-.18-1,12,.18,21.74,3.83,21.74,8.19S37.14,39.54,24.63,39.54Zm.54-15.24c.64,3.62.84,4.4,1.53,4.43s1.26.06,1.87.1c5.7.44,8.35,1.68,8.35,2.39,0,.3-.7,1-3.37,1.68a41,41,0,0,1-9,.9h-.11c-7.47,0-12.23-1.5-12.24-2.53,0-.7,2.61-1.94,8.21-2.41.57-.05,1.16-.09,1.76-.11s.94-.87,1.62-4.42c.2-1,.47-2.41.71-3.22C24.75,21.92,25,23.3,25.17,24.3Z" fill="#231f20"/></g><g id="a7bf1456-f7d8-46ca-b059-542bf66d411e" data-name="LABELS"><text transform="translate(0.7 55)" font-size="6" fill="#231f20" font-family="Roboto-Regular, Roboto"><tspan letter-spacing="-0.02em">r</tspan><tspan x="1.91" y="0">ain-d</tspan><tspan x="14.98" y="0" letter-spacing="-0.01em">r</tspan><tspan x="16.95" y="0">op</tspan></text></g></svg>