<svg xmlns="http://www.w3.org/2000/svg" viewBox="0 0 50 50"><g id="b463a928-3cd5-493f-b592-97c6625b7f75" data-name="ICONS"><path d="M4.09,12.64H17.65a.5.5,0,0,0,.5-.5.51.51,0,0,0-.5-.5H4.09a.51.51,0,0,0-.5.5A.5.5,0,0,0,4.09,12.64Z" fill="#231f20"/><path d="M2.8,19.73h12a.5.5,0,1,0,0-1H2.8a.5.5,0,0,0,0,1Z" fill="#231f20"/><path d="M2.8,26.82H13.61a.51.51,0,0,0,.5-.5.5.5,0,0,0-.5-.5H2.8a.5.5,0,0,0-.5.5A.5.5,0,0,0,2.8,26.82Z" fill="#231f20"/><path d="M14.81,33.4a.5.5,0,0,0-.5-.5H2.8a.5.5,0,0,0-.5.5.5.5,0,0,0,.5.5H14.31A.5.5,0,0,0,14.81,33.4Z" fill="#231f20"/><path d="M15.4,40H4.09a.5.5,0,1,0,0,1H15.4a.5.5,0,0,0,0-1Z" fill="#231f20"/><path d="M45.89,20h-4.6a.52.52,0,0,1-.37-.16c-2.16-2.31-3.77-3.91-4.49-4.57a5.27,5.27,0,0,0-1.24-.86,6.15,6.15,0,0,0-1.08-.38,17.45,17.45,0,0,0-4.8-.06,5.25,5.25,0,0,0-.65.13s-.28.08-.57.2a9.46,9.46,0,0,0-1.92,1.18,14.68,14.68,0,0,0-1.12,1s-2.3,2.18-3.91,3.73a1.23,1.23,0,0,0-.3.48,1.6,1.6,0,0,0-.16.57l-.51,6.12a1.81,1.81,0,1,0,3.61.3l.43-5.23a.53.53,0,0,1,.15-.32l1.9-1.83a.53.53,0,0,1,.55-.1.51.51,0,0,1,.3.46V31.32c0,.1,0,.15-2.35,8.42a.69.69,0,0,1-.1.19l-4.34,5.19a1.81,1.81,0,0,0,2.78,2.32l4.71-5.63a1.37,1.37,0,0,0,.27-.57l.05-.15,2.56-8.67,0-.13a.49.49,0,0,1,.49-.41h.61a.5.5,0,0,1,.49.37.79.79,0,0,0,.1.27l4,7.85a.67.67,0,0,1,0,.19l.43,6.82a1.81,1.81,0,0,0,3.62-.23L40,39.69a1.13,1.13,0,0,0-.23-.63.46.46,0,0,1-.07-.16c-1.12-2.17-4.07-8-4.19-8.2a.52.52,0,0,1-.07-.25V20.72a.5.5,0,0,1,.31-.47.51.51,0,0,1,.54.11L39,23.11a1.6,1.6,0,0,0,1.17.54h5.68a1.81,1.81,0,1,0,0-3.62Z" fill="#fdd600"/><path d="M44.14,17.28H39.76c-2.11-2.25-3.69-3.81-4.41-4.47a6.13,6.13,0,0,0-1.47-1,7.69,7.69,0,0,0-1.29-.45,18.55,18.55,0,0,0-5.15-.08,4.58,4.58,0,0,0-.79.16,7.2,7.2,0,0,0-.7.24A10.46,10.46,0,0,0,23.81,13a14.91,14.91,0,0,0-1.2,1L18.7,17.73a2.24,2.24,0,0,0-.54.84,2.75,2.75,0,0,0-.23.86l-.51,6.12A2.81,2.81,0,0,0,23,26L23.44,21l.92-.88v9.38c-.06.26-1.39,5-2.3,8.15L17.8,42.73a2.81,2.81,0,1,0,4.31,3.6l4.71-5.63a2.2,2.2,0,0,0,.47-.94l.05-.13L29.8,31.3,33.69,39l.43,6.72a2.81,2.81,0,0,0,2.8,2.63h.18a2.81,2.81,0,0,0,2.62-3l-.47-7.46a2.24,2.24,0,0,0-.4-1.13h0c-3.13-6.16-4-7.74-4.17-8.17V20.17l1.92,1.91a2.52,2.52,0,0,0,1.85.82h5.68a2.81,2.81,0,1,0,0-5.62Zm0,4.62H38.46a1.6,1.6,0,0,1-1.17-.54l-2.75-2.75A.51.51,0,0,0,34,18.5a.5.5,0,0,0-.31.47V28.7a.52.52,0,0,0,.07.25c.12.22,3.07,6,4.19,8.2a.46.46,0,0,0,.07.16,1.13,1.13,0,0,1,.23.63l.48,7.46a1.81,1.81,0,0,1-3.62.23l-.43-6.82a.67.67,0,0,0,0-.19l-4-7.85a.79.79,0,0,1-.1-.27.5.5,0,0,0-.49-.37h-.61a.49.49,0,0,0-.49.41l0,.13-2.56,8.67-.05.15a1.37,1.37,0,0,1-.27.57l-4.71,5.63a1.81,1.81,0,0,1-2.78-2.32l4.34-5.19A.69.69,0,0,0,23,38c2.35-8.27,2.35-8.32,2.35-8.42V18.91a.51.51,0,0,0-.3-.46.55.55,0,0,0-.55.1l-1.9,1.83a.53.53,0,0,0-.15.32L22,25.93a1.81,1.81,0,1,1-3.61-.3l.51-6.12a1.6,1.6,0,0,1,.16-.57,1.23,1.23,0,0,1,.3-.48c1.61-1.55,3.91-3.73,3.91-3.73a14.68,14.68,0,0,1,1.12-1,9.46,9.46,0,0,1,1.92-1.18c.29-.12.55-.19.57-.2a5.25,5.25,0,0,1,.65-.13,17.45,17.45,0,0,1,4.8.06,6.15,6.15,0,0,1,1.08.38,5.27,5.27,0,0,1,1.24.86c.72.66,2.33,2.26,4.49,4.57a.52.52,0,0,0,.37.16h4.6a1.81,1.81,0,1,1,0,3.62Z" fill="#231f20"/><path d="M29.39,9.79A4.44,4.44,0,1,0,25,5.36,4.43,4.43,0,0,0,29.39,9.79Zm3.43-4.43a3.43,3.43,0,1,1-3.43-3.44A3.44,3.44,0,0,1,32.82,5.36Z" fill="#231f20"/></g><g id="b9765d4f-9d27-4716-b395-5b01eaeefbb0" data-name="LABELS"><text transform="translate(2.52 55.01)" font-size="6" fill="#231f20" font-family="Roboto-Regular, Roboto">running</text></g></svg>