<svg xmlns="http://www.w3.org/2000/svg" viewBox="0 0 50 50"><g id="aa8b7b35-e496-49dc-8809-7d11ffe23b46" data-name="ICONS"><path d="M26,23.38A2.62,2.62,0,1,0,28.62,26,2.62,2.62,0,0,0,26,23.38Z" fill="#fdd600"/><path d="M46,36.52l-6.47-3.73,5.2-1.39a.5.5,0,0,0,.35-.61.51.51,0,0,0-.61-.36l-6.16,1.65L32.88,29,36,28.13a.5.5,0,0,0-.26-1l-4.12,1.1-3.3-1.9a3.56,3.56,0,0,0,0-2.72l3.3-1.9,4.12,1.1h.13a.49.49,0,0,0,.48-.37.5.5,0,0,0-.35-.61L32.88,21l5.39-3.11,6.16,1.65h.13a.49.49,0,0,0,.48-.37.5.5,0,0,0-.35-.61l-5.2-1.39L46,13.48a.5.5,0,0,0,.18-.68.5.5,0,0,0-.68-.19L39,16.34l1.4-5.19a.5.5,0,0,0-.36-.61.5.5,0,0,0-.61.35l-1.65,6.16-5.39,3.11L33.22,17a.5.5,0,1,0-1-.26l-1.11,4.11-3.31,1.91a3.58,3.58,0,0,0-2.34-1.35V17.6l3-3a.48.48,0,0,0,0-.7.5.5,0,0,0-.71,0l-2.3,2.3V10L30,5.46a.5.5,0,0,0-.71-.71l-3.8,3.8V1.09a.5.5,0,1,0-1,0V8.55l-3.8-3.8a.5.5,0,0,0-.71.71L24.5,10v6.22l-2.3-2.3a.5.5,0,0,0-.71,0,.48.48,0,0,0,0,.7l3,3v3.83a3.58,3.58,0,0,0-2.34,1.35l-3.31-1.91-1.11-4.11a.5.5,0,1,0-1,.26l.84,3.14-5.39-3.11-1.65-6.16a.5.5,0,0,0-.61-.35.48.48,0,0,0-.35.61L11,16.34,4.54,12.61a.5.5,0,0,0-.5.87l6.47,3.73L5.31,18.6a.5.5,0,0,0-.35.61.49.49,0,0,0,.48.37h.13l6.16-1.65L17.12,21,14,21.87a.5.5,0,0,0-.35.61.49.49,0,0,0,.48.37h.13l4.12-1.1,3.3,1.9a3.56,3.56,0,0,0,0,2.72l-3.3,1.9-4.12-1.1a.5.5,0,0,0-.26,1l3.15.84-5.39,3.11L5.57,30.43a.51.51,0,0,0-.61.36.5.5,0,0,0,.35.61l5.2,1.39L4,36.52a.5.5,0,0,0-.18.68.5.5,0,0,0,.43.25.51.51,0,0,0,.25-.06L11,33.66,9.62,38.85a.48.48,0,0,0,.35.61l.13,0a.5.5,0,0,0,.48-.37L12.23,33l5.39-3.11L16.78,33a.51.51,0,0,0,.35.62h.13a.49.49,0,0,0,.48-.37l1.11-4.11,3.31-1.91a3.58,3.58,0,0,0,2.34,1.35V32.4l-3,3a.48.48,0,0,0,0,.7.5.5,0,0,0,.35.15.51.51,0,0,0,.36-.15l2.3-2.3V40L20,44.54a.51.51,0,0,0,0,.71.5.5,0,0,0,.36.14.49.49,0,0,0,.35-.14l3.8-3.8v7.46a.5.5,0,0,0,1,0V41.45l3.8,3.8a.49.49,0,0,0,.35.14.5.5,0,0,0,.36-.14.51.51,0,0,0,0-.71L25.5,40V33.81l2.3,2.3a.51.51,0,0,0,.36.15.5.5,0,0,0,.35-.15.48.48,0,0,0,0-.7l-3-3V28.57a3.58,3.58,0,0,0,2.34-1.35l3.31,1.91,1.11,4.11a.49.49,0,0,0,.48.37h.13a.51.51,0,0,0,.35-.62l-.84-3.14L37.77,33l1.65,6.16a.5.5,0,0,0,.48.37l.13,0a.5.5,0,0,0,.36-.61L39,33.66l6.47,3.73a.51.51,0,0,0,.25.06.5.5,0,0,0,.43-.25A.5.5,0,0,0,46,36.52Zm-21-8.9A2.62,2.62,0,1,1,27.62,25,2.62,2.62,0,0,1,25,27.62Z" fill="#231f20"/></g><g id="ec03551d-9fc2-4a9d-85ea-8a5f76ba7af7" data-name="LABELS"><text transform="translate(1.16 54.88)" font-size="6" fill="#231f20" font-family="Roboto-Regular, Roboto">snowfla<tspan x="21.14" y="0" letter-spacing="-0.01em">k</tspan><tspan x="24.12" y="0">e</tspan></text></g></svg>