<svg xmlns="http://www.w3.org/2000/svg" viewBox="0 0 50 50"><g id="bcb31f39-ab03-420b-a994-3ab7c1eaa4ea" data-name="ICONS"><path d="M17.28,21.28l6.29,3.31-1.2-7a.51.51,0,0,1,.14-.44l5.09-5-7-1a.5.5,0,0,1-.38-.27L17.05,4.51,13.9,10.88a.47.47,0,0,1-.38.27l-7,1,5.09,5a.51.51,0,0,1,.15.44l-1.21,7,6.29-3.31A.49.49,0,0,1,17.28,21.28Z" fill="#fdd600"/><path d="M25,37.66l-2.48-5-2.48,5a.51.51,0,0,1-.37.28l-5.55.8,4,3.92a.51.51,0,0,1,.15.44l-.95,5.52,5-2.61a.55.55,0,0,1,.47,0l5,2.61-1-5.52a.51.51,0,0,1,.14-.44l4-3.92-5.55-.8A.54.54,0,0,1,25,37.66Z" fill="#fdd600"/><path d="M41.22,21.81,39,17.36l-2.2,4.45a.47.47,0,0,1-.37.27l-4.92.72,3.56,3.46a.49.49,0,0,1,.14.44l-.83,4.9,4.39-2.31a.47.47,0,0,1,.46,0l4.4,2.31-.84-4.9a.52.52,0,0,1,.14-.44l3.56-3.46-4.92-.72A.47.47,0,0,1,41.22,21.81Z" fill="#fdd600"/><path d="M22.5,24.44a.49.49,0,0,0,.53,0,.51.51,0,0,0,.2-.49L21.9,16.17l5.63-5.48a.53.53,0,0,0,.12-.52.5.5,0,0,0-.4-.34L19.47,8.7,16,1.66a.51.51,0,0,0-.45-.28.5.5,0,0,0-.45.28l-3.48,7L3.84,9.83a.51.51,0,0,0-.4.34.51.51,0,0,0,.13.52L9.2,16.17,7.87,23.91a.47.47,0,0,0,.2.49.45.45,0,0,0,.29.1.46.46,0,0,0,.23-.06l7-3.65ZM9,23.08l1.21-7a.51.51,0,0,0-.15-.44L5,10.68l7-1a.47.47,0,0,0,.37-.27L15.55,3l3.14,6.37a.5.5,0,0,0,.38.27l7,1-5.09,5a.51.51,0,0,0-.14.44l1.2,7-6.29-3.3a.47.47,0,0,0-.46,0Z" fill="#231f20"/><path d="M30.62,36.4l-6.3-.92-2.81-5.69a.5.5,0,0,0-.45-.28.49.49,0,0,0-.44.28L17.8,35.48l-6.29.92a.5.5,0,0,0-.4.34.49.49,0,0,0,.13.51l4.55,4.44L14.71,48a.5.5,0,0,0,.73.53l5.62-3,5.63,3a.46.46,0,0,0,.23.06.54.54,0,0,0,.3-.1.51.51,0,0,0,.2-.49l-1.08-6.26,4.55-4.44a.49.49,0,0,0,.13-.51A.51.51,0,0,0,30.62,36.4Zm-5.17,4.76a.51.51,0,0,0-.14.44l1,5.52-5-2.61a.55.55,0,0,0-.47,0l-5,2.61,1-5.52a.51.51,0,0,0-.15-.44l-4-3.92,5.55-.8a.51.51,0,0,0,.37-.28l2.48-5,2.48,5a.54.54,0,0,0,.38.28l5.55.8Z" fill="#231f20"/><path d="M46.56,20.79a.51.51,0,0,0-.4-.34l-5.66-.82L38,14.5a.52.52,0,0,0-.9,0l-2.53,5.13-5.65.82a.49.49,0,0,0-.4.34.5.5,0,0,0,.12.51l4.09,4-1,5.64a.48.48,0,0,0,.2.48.45.45,0,0,0,.29.1.46.46,0,0,0,.23-.06l5.06-2.66,5.06,2.66a.49.49,0,0,0,.53,0,.5.5,0,0,0,.2-.48l-1-5.64,4.09-4A.49.49,0,0,0,46.56,20.79Zm-5.11,4a.52.52,0,0,0-.14.44l.84,4.9-4.4-2.31a.47.47,0,0,0-.46,0L32.9,30.1l.83-4.9a.49.49,0,0,0-.14-.44L30,21.3,35,20.58a.47.47,0,0,0,.37-.27l2.2-4.45,2.2,4.45a.47.47,0,0,0,.37.27L45,21.3Z" fill="#231f20"/></g><g id="edcde10d-a4ee-4cf5-8c99-949795235511" data-name="LABELS"><text transform="translate(0 54.98)" font-size="6" fill="#231f20" font-family="Roboto-Regular, Roboto">stars</text></g></svg>