<svg xmlns="http://www.w3.org/2000/svg" viewBox="0 0 50 50"><g id="f42e2c6c-e30d-4335-8029-95d9ae8e6717" data-name="ICONS"><path d="M40.34,40.12,33.05,27.49a.5.5,0,0,1,.43-.75h2L28.58,14.81a.5.5,0,0,1,0-.5.5.5,0,0,1,.43-.25h1.51L24.59,3.79,18.66,14.06h1.51a.5.5,0,0,1,.43.25.5.5,0,0,1,0,.5L13.71,26.74h2a.5.5,0,0,1,.43.25.5.5,0,0,1,0,.5L8.84,40.12h31.5Z" fill="#fdd600"/><path d="M40.14,38.87l-7.3-12.63h2a.48.48,0,0,0,.43-.25.5.5,0,0,0,0-.5L28.38,13.56h1.51a.48.48,0,0,0,.43-.25.5.5,0,0,0,0-.5L23.52,1a.51.51,0,0,0-.86,0l-6.8,11.77a.5.5,0,0,0,0,.5.48.48,0,0,0,.43.25H17.8L10.91,25.49a.5.5,0,0,0,.44.75h2L6,38.87a.5.5,0,0,0,0,.5.48.48,0,0,0,.43.25H22.59v9.11a.5.5,0,0,0,.5.5.51.51,0,0,0,.5-.5V39.62H39.7a.5.5,0,0,0,.44-.75Zm-17-19.17a.5.5,0,0,0-.5.5V38.62H7.34L14.63,26a.5.5,0,0,0,0-.5.5.5,0,0,0-.43-.25h-2L19.1,13.31a.5.5,0,0,0,0-.5.5.5,0,0,0-.43-.25H17.16L23.09,2.29,29,12.56H27.51a.5.5,0,0,0-.43.25.5.5,0,0,0,0,.5L34,25.24H32a.5.5,0,0,0-.43.75l7.29,12.63H23.59V20.2A.51.51,0,0,0,23.09,19.7Z" fill="#231f20"/></g><g id="aaddbb4c-650f-4e8a-a6d4-f7da1db7fb7f" data-name="LABELS"><text transform="translate(-0.13 54.69) scale(1.06 1)" font-size="5.64" fill="#231f20" font-family="Roboto-Regular, Roboto">t<tspan x="1.84" y="0" letter-spacing="-0.01em">r</tspan><tspan x="3.7" y="0">ee-two</tspan></text></g></svg>