<svg id="aa68410a-4c6e-4446-a485-90351763e540" data-name="ICONS" xmlns="http://www.w3.org/2000/svg" viewBox="0 0 50 50"><polygon points="10.04 15.67 10.04 18.41 10.04 18.91 5.92 18.91 5.92 23.74 5.92 28.76 5.92 33.59 10.04 33.59 10.04 34.09 10.04 36.83 16.23 36.83 16.23 28.76 16.23 23.74 16.23 15.67 10.04 15.67" fill="#fdd600"/><polygon points="42.9 18.91 42.9 18.41 42.9 15.67 36.77 15.67 36.77 23.74 36.77 28.76 36.77 36.83 42.9 36.83 42.9 34.09 42.9 33.59 47.08 33.59 47.08 28.76 47.08 23.74 47.08 18.91 42.9 18.91" fill="#fdd600"/><path d="M46.86,21.74h-.29V16.91a.5.5,0,0,0-.5-.5H42V13.67a.51.51,0,0,0-.5-.5H34.77a.5.5,0,0,0-.5.5v8.07H15.73V13.68a.53.53,0,0,0-.51-.51H8.53a.53.53,0,0,0-.51.51v2.73H3.93a.5.5,0,0,0-.5.5v4.83H3.09a3,3,0,0,0-3,3v.1a3,3,0,0,0,3,3h.34V32.6a.5.5,0,0,0,.5.5H8v2.72a.53.53,0,0,0,.51.51h6.69a.53.53,0,0,0,.51-.51V27.76H34.27v8.07a.5.5,0,0,0,.5.5h6.71a.51.51,0,0,0,.5-.5V33.1h4.09a.5.5,0,0,0,.5-.5V27.76h.29a3,3,0,0,0,0-6Zm-43.77,5a2,2,0,0,1-2-2v-.1a2,2,0,0,1,2-2h.34v4ZM4.43,32.1V17.41H8V32.1Zm10.3,3.23H9V14.17h5.71V35.33Zm1-8.57v-4H34.27v4ZM41,35.33H35.27V14.17H41V35.33Zm4.59-3.23H42V17.41h3.59V32.1Zm1.29-5.34h-.29v-4h.29a2,2,0,0,1,0,4Z" fill="#231f20"/></svg>