<svg id="b469c124-fbd3-4e3b-b407-b2fed778cfb1" data-name="ICONS" xmlns="http://www.w3.org/2000/svg" viewBox="0 0 50 50"><path d="M49.21,37,41.14,21.82a4.1,4.1,0,0,0-7.24,0L25.82,37a4.1,4.1,0,0,0,3.62,6H45.6A4.1,4.1,0,0,0,49.21,37ZM36.53,39.89a1.68,1.68,0,1,1,1.68-1.68A1.68,1.68,0,0,1,36.53,39.89Zm1.38-4.79H35.15q-.28-5.93-.59-11.83H38.5Q38.22,29.18,37.91,35.1Z" fill="#fdd600"/><path d="M42.34,23.87h6.23a.49.49,0,0,0,.49-.39A7.85,7.85,0,0,0,49.22,22a7.36,7.36,0,0,0-7.35-7.36,7.21,7.21,0,0,0-1.84.24,11.64,11.64,0,0,0-21.24-1.71,9.49,9.49,0,0,0-5-1.4,9.59,9.59,0,0,0-9.58,9.58,9.75,9.75,0,0,0,.14,1.51A5.52,5.52,0,0,0,.42,29.29a.49.49,0,0,0,.49.39H27.62l-3.22,6a4.6,4.6,0,0,0,4.05,6.77H44.61a4.6,4.6,0,0,0,4.06-6.77ZM5.22,21.31a8.59,8.59,0,0,1,13.48-7,.5.5,0,0,0,.41.07.47.47,0,0,0,.32-.26,10.65,10.65,0,0,1,19.8,1.53.5.5,0,0,0,.25.3.53.53,0,0,0,.39,0,6.21,6.21,0,0,1,2-.33A6.36,6.36,0,0,1,48.22,22a5.58,5.58,0,0,1-.07.91H41.81L40.59,20.6a4.6,4.6,0,0,0-8.12,0l-1.06,2a7.13,7.13,0,0,0-8.63-1.09,8.66,8.66,0,0,0-15.7,1.28,5.42,5.42,0,0,0-1.26-.15,3.87,3.87,0,0,0-.48,0A7.76,7.76,0,0,1,5.22,21.31ZM1.33,28.68a4.89,4.89,0,0,1,0-.54,4.52,4.52,0,0,1,3.38-4.36,4.75,4.75,0,0,1,1.14-.16,4.32,4.32,0,0,1,1.42.24h.22a.34.34,0,0,0,.17-.05.51.51,0,0,0,.25-.29c.07-.23.17-.44.26-.66a7.64,7.64,0,0,1,14-.45.51.51,0,0,0,.32.27.52.52,0,0,0,.42-.08,6.14,6.14,0,0,1,7.36.26,6.86,6.86,0,0,1,.68.64l-.2.36-2.56,4.81ZM47.7,39.75a3.59,3.59,0,0,1-3.09,1.75H28.45a3.6,3.6,0,0,1-3.17-5.3l3.47-6.52.54-1,2.3-4.3.27-.51.25-.48.28-.52,1-1.8a3.59,3.59,0,0,1,6.35,0l1,1.8.53,1L47.79,36.2A3.57,3.57,0,0,1,47.7,39.75Z" fill="#231f20"/><path d="M36.53,40.39a2.18,2.18,0,1,1,2.18-2.18A2.18,2.18,0,0,1,36.53,40.39Zm0-3.35a1.18,1.18,0,0,0,0,2.35,1.18,1.18,0,1,0,0-2.35Z" fill="#231f20"/><path d="M37.91,35.6H35.15a.5.5,0,0,1-.5-.48l-.59-11.83a.57.57,0,0,1,.14-.37.49.49,0,0,1,.36-.15H38.5a.48.48,0,0,1,.5.52l-.59,11.83A.5.5,0,0,1,37.91,35.6Zm-2.28-1h1.81L38,23.77H35.09Z" fill="#231f20"/></svg>