<svg xmlns="http://www.w3.org/2000/svg" viewBox="0 0 50 50"><g id="f5a25ded-7e37-4654-8ff1-7c65d239c43f" data-name="ICONS"><path d="M49.4,31.86a6.33,6.33,0,0,0-4.6-6.47l-2.67-6.3-1.58-3.84a.5.5,0,0,0-.46-.31H32.84l-.31-2.26,2.89,1.21a.43.43,0,0,0,.19,0,.48.48,0,0,0,.46-.31.5.5,0,0,0-.26-.65l-3.43-1.44-.12-.83h3.17a.5.5,0,0,0,.5-.5.5.5,0,0,0-.5-.5h-3.3L32,8.94l3.49-1.45a.5.5,0,1,0-.38-.92L31.8,8a.47.47,0,0,0-.37-.18H26.3a.51.51,0,0,0-.36.15L22.53,6.51a.51.51,0,0,0-.65.27.5.5,0,0,0,.27.66L25.7,8.9h0l-.09.75H22.09a.5.5,0,0,0,0,1h3.43l-.11.93L21.9,13.07a.49.49,0,0,0-.27.65.51.51,0,0,0,.46.31.41.41,0,0,0,.19,0l3-1.26L25,14.94H1.1a.5.5,0,0,0-.5.5V38.05a.5.5,0,0,0,.5.5H6.84a5.08,5.08,0,0,0,10.15,0H31.9a5.07,5.07,0,0,0,10.14,0H48.9a.49.49,0,0,0,.36-.15A.51.51,0,0,0,49.4,38S49.39,37.1,49.4,31.86ZM31,8.77l.84,6.14H26l.71-6.14Zm2.44,16.44V16h6.29l4,9.33ZM16,38.44a4.09,4.09,0,1,1-4.09-4.09A4.09,4.09,0,0,1,16,38.44Zm25.06,0A4.09,4.09,0,1,1,37,34.34,4.09,4.09,0,0,1,41.06,38.43Zm7.34-.88H42a5.07,5.07,0,0,0-10,0H16.91a5.07,5.07,0,0,0-10,0H1.6V15.94H32.43v9.77a.5.5,0,0,0,.49.5l11.37.08a5.28,5.28,0,0,1,4.11,5.57C48.39,35.26,48.39,36.85,48.4,37.55Z"/><path d="M23.26,22.3H20.13V19.18a.5.5,0,0,0-.5-.5H14.71a.51.51,0,0,0-.5.5l0,3.12h-3a.48.48,0,0,0-.5.5v4.9a.51.51,0,0,0,.15.36.5.5,0,0,0,.35.14h3v3.05a.5.5,0,0,0,.5.5h4.89a.5.5,0,0,0,.5-.5V28.2h3.11a.5.5,0,0,0,.5-.5V22.8A.5.5,0,0,0,23.26,22.3Zm-.51,4.9H19.64a.5.5,0,0,0-.5.5v3.05H15.24V27.69a.51.51,0,0,0-.5-.5h-3V23.3h3a.5.5,0,0,0,.35-.14.49.49,0,0,0,.15-.36l0-3.12h3.92v3.11a.5.5,0,0,0,.5.5h3.13Z"/></g><g id="ef1a8fd2-e174-4bef-bc7f-d9faa892d17e" data-name="LABELS"><text transform="translate(-0.14 55.12)" font-size="6" font-family="Roboto-Regular, Roboto">ambulance</text></g></svg>