<svg id="a350702c-6da5-4fca-84e3-1ccd41e393e7" data-name="ICONS" xmlns="http://www.w3.org/2000/svg" viewBox="0 0 50 50"><path d="M37.15,47.08l3.08.06A8.18,8.18,0,0,0,38.52,47,8.37,8.37,0,0,0,37.15,47.08Z"/><path d="M12.66,46.71a8.15,8.15,0,0,0,1.36-.1L11,46.55A8.11,8.11,0,0,0,12.66,46.71Z"/><path d="M48.77,40.1a6.89,6.89,0,0,0-.86-2.33A6.91,6.91,0,0,1,47.2,36a6.94,6.94,0,0,1,0-1.93,7,7,0,0,0-.05-2.45A6.93,6.93,0,0,0,46,29.45a6.94,6.94,0,0,1-1-1.63,7.09,7.09,0,0,1-.28-1.91,6.63,6.63,0,0,0-.42-2.42,6.77,6.77,0,0,0-1.51-2,7,7,0,0,1-1.21-1.47A7.36,7.36,0,0,1,41,18.21a6.84,6.84,0,0,0-.79-2.33,7,7,0,0,0-1.81-1.71A7,7,0,0,1,37,12.91a7.17,7.17,0,0,1-.84-1.71A6.86,6.86,0,0,0,35,9a6.94,6.94,0,0,0-2.07-1.4,7.15,7.15,0,0,1-1.6-1A7,7,0,0,1,30.2,5.08a6.76,6.76,0,0,0-1.52-2,6.12,6.12,0,0,0-2.15-1,6.21,6.21,0,0,1-1.63-.67.54.54,0,0,0-.55,0,6.35,6.35,0,0,1-1.63.67,6.12,6.12,0,0,0-2.15,1,6.76,6.76,0,0,0-1.52,2,7.74,7.74,0,0,1-1.12,1.54,7,7,0,0,1-1.61,1A7,7,0,0,0,14.26,9a6.86,6.86,0,0,0-1.17,2.18,7,7,0,0,1-.84,1.71,7,7,0,0,1-1.42,1.26A6.85,6.85,0,0,0,9,15.88a6.92,6.92,0,0,0-.79,2.33,7.36,7.36,0,0,1-.56,1.84,7,7,0,0,1-1.21,1.47,6.77,6.77,0,0,0-1.51,2,6.86,6.86,0,0,0-.43,2.42,6.73,6.73,0,0,1-.27,1.91,6.94,6.94,0,0,1-1,1.63,6.93,6.93,0,0,0-1.2,2.18,7,7,0,0,0,0,2.45,6.94,6.94,0,0,1,0,1.93,6.91,6.91,0,0,1-.71,1.76A6.69,6.69,0,0,0,.48,40.1a6.85,6.85,0,0,0,.3,2.42,7.08,7.08,0,0,1,.3,1.92.48.48,0,0,0,.3.47.5.5,0,0,0,.59,0l6-5.59a2,2,0,0,1,2.47,3.06L6.14,46.11a.48.48,0,0,0-.09.63.48.48,0,0,0,.47.39A7.58,7.58,0,0,1,9,47.48a8.94,8.94,0,0,0,2.72.38,8.94,8.94,0,0,0,2.72-.38,7.63,7.63,0,0,1,2.45-.35,7.58,7.58,0,0,1,2.45.35,8.94,8.94,0,0,0,2.72.38,8.89,8.89,0,0,0,2.72-.38,7.63,7.63,0,0,1,2.45-.35,7.58,7.58,0,0,1,2.45.35,10,10,0,0,0,5.45,0,7.32,7.32,0,0,1,1.09-.25,8.15,8.15,0,0,1,1.36-.1,8,8,0,0,1,1.71.16,7.25,7.25,0,0,1,.74.19,9,9,0,0,0,2.66.38h.08a.49.49,0,0,0,.37-.84l-4.38-4.71a2,2,0,0,1,2.57-3l6,5.47a.46.46,0,0,0,.4.2.5.5,0,0,0,.48-.52,7.08,7.08,0,0,1,.3-1.92A6.85,6.85,0,0,0,48.77,40.1Zm-11-1.23A3,3,0,0,0,38,43l3.48,3.75a8.36,8.36,0,0,1-1.25-.28,9.92,9.92,0,0,0-5.44,0,7.65,7.65,0,0,1-2.46.35,7.63,7.63,0,0,1-2.45-.35,8.94,8.94,0,0,0-2.72-.38,8.94,8.94,0,0,0-2.72.38,7.58,7.58,0,0,1-2.45.35,7.63,7.63,0,0,1-2.45-.35,8.89,8.89,0,0,0-2.72-.38,8.94,8.94,0,0,0-2.72.38,6.9,6.9,0,0,1-1.08.25,8.37,8.37,0,0,1-1.37.1A8,8,0,0,1,10,46.7a7.46,7.46,0,0,1-.75-.19,8.8,8.8,0,0,0-1.66-.33l3.54-3.09a2.93,2.93,0,0,0,1.07-2,3,3,0,0,0-4.84-2.57L2,43.46a11.78,11.78,0,0,0-.25-1.18,6.2,6.2,0,0,1-.28-2.07,6.3,6.3,0,0,1,.76-2,7.76,7.76,0,0,0,.81-2A7.79,7.79,0,0,0,3,34a6.05,6.05,0,0,1,0-2.09A6.11,6.11,0,0,1,4.1,30a7.86,7.86,0,0,0,1.1-1.88A8.17,8.17,0,0,0,5.52,26a6.07,6.07,0,0,1,.34-2.07,6.1,6.1,0,0,1,1.32-1.67,8,8,0,0,0,1.37-1.7,7.75,7.75,0,0,0,.65-2.1,6.2,6.2,0,0,1,.66-2A6.25,6.25,0,0,1,11.42,15,7.45,7.45,0,0,0,13,13.52a7.65,7.65,0,0,0,1-2,6,6,0,0,1,1-1.87,5.94,5.94,0,0,1,1.78-1.18,7.46,7.46,0,0,0,1.83-1.16A7.67,7.67,0,0,0,19.9,5.59a5.93,5.93,0,0,1,1.29-1.68A5.28,5.28,0,0,1,23,3.1a8.65,8.65,0,0,0,1.61-.63,8.74,8.74,0,0,0,1.62.63,5.36,5.36,0,0,1,1.82.81,5.73,5.73,0,0,1,1.28,1.68,8,8,0,0,0,1.3,1.76,7.77,7.77,0,0,0,1.83,1.16,6.07,6.07,0,0,1,1.78,1.18,5.8,5.8,0,0,1,1,1.87,8.21,8.21,0,0,0,1,2A7.72,7.72,0,0,0,37.83,15a6.25,6.25,0,0,1,1.56,1.45,5.88,5.88,0,0,1,.65,2,8.14,8.14,0,0,0,.66,2.1,8,8,0,0,0,1.37,1.7,6,6,0,0,1,1.32,1.67A6.07,6.07,0,0,1,43.73,26a8.17,8.17,0,0,0,.32,2.19A7.72,7.72,0,0,0,45.15,30a6,6,0,0,1,1,1.86,6.05,6.05,0,0,1,0,2.09,7.79,7.79,0,0,0,0,2.21,7.76,7.76,0,0,0,.81,2,6.3,6.3,0,0,1,.76,2,6.2,6.2,0,0,1-.28,2.07c-.09.36-.18.73-.24,1.1L42,38.54A3,3,0,0,0,37.75,38.87Z"/></svg>