<svg id="b7e34804-3f1c-4d72-87da-cad3e40f0110" data-name="ICONS" xmlns="http://www.w3.org/2000/svg" viewBox="0 0 50 50"><path d="M5.11,28.36v-1.3H4.05v5H7.53V29H5.61a.5.5,0,0,1-.5-.5Z" fill="none"/><path d="M16.63,21.13H12.9a.5.5,0,0,1-.5-.5V15.05H11V27.86h5.68Z" fill="none"/><rect x="13.4" y="15.05" width="3.47" height="5.07" fill="none"/><rect x="6.11" y="26.12" width="3.84" height="1.74" fill="none"/><rect x="6.11" y="15.05" width="3.84" height="10.06" fill="none"/><polygon points="20.14 22.23 17.86 21.97 17.86 27.76 20.14 27.33 20.14 22.23" fill="none"/><path d="M29.9,27.06H26.84v5H29.9Z" fill="none"/><polygon points="26.15 18.77 17.86 15.3 17.86 20.96 26.15 21.93 26.15 18.77" fill="none"/><polygon points="23.27 22.6 21.14 22.35 21.14 27.14 23.27 26.74 23.27 22.6" fill="none"/><polygon points="21.78 28.04 20.18 28.34 20.18 32.06 21.78 32.06 21.78 28.04" fill="none"/><polygon points="25.84 27.28 22.78 27.85 22.78 32.06 25.84 32.06 25.84 27.28" fill="none"/><polygon points="26.15 22.94 24.27 22.72 24.27 26.55 26.15 26.2 26.15 22.94" fill="none"/><polygon points="43.94 12.05 33.39 12.05 33.39 17.63 34.84 17.63 34.86 17.63 34.87 17.63 43.94 18.06 43.94 12.05" fill="none"/><rect x="27.15" y="18.62" width="7.19" height="7.44" fill="none"/><path d="M48,19.25l-12.63-.6v15.8l6.39-.52V27a.5.5,0,0,1,.5-.5H48Z" fill="none"/><rect x="30.9" y="27.06" width="3.44" height="5" fill="none"/><polygon points="5.11 25.62 5.11 18.63 1.52 18.63 1.52 26.06 5.11 26.06 5.11 25.62" fill="none"/><polygon points="42.73 33.79 47.98 33.39 47.98 27.51 42.73 27.51 42.73 33.79" fill="none"/><rect x="1.53" y="33.06" width="10.12" height="1.43" fill="none"/><rect x="20.18" y="33.06" width="14.16" height="1.43" fill="none"/><rect x="1.53" y="27.06" width="1.52" height="5" fill="none"/><path d="M17.72,28.8a.48.48,0,0,1-.36.15H12.64v8.5h6.54V28.53Z" fill="none"/><rect x="8.53" y="28.95" width="3.11" height="3.11" fill="none"/><path d="M49,25.89V18.78a.5.5,0,0,0-.47-.5l-3.56-.17V11.55a.5.5,0,0,0-.5-.5H32.89a.5.5,0,0,0-.5.5v6.07H26L17.56,14.1a.46.46,0,0,0-.2,0H5.61a.5.5,0,0,0-.5.5v3.07H1a.5.5,0,0,0-.5.5V35a.5.5,0,0,0,.5.5H11.64V38a.5.5,0,0,0,.5.5h7.54a.5.5,0,0,0,.5-.5V35.5h14.7l7.39-.6a.49.49,0,0,0,.21-.08l6-.46a.5.5,0,0,0,.46-.5v-8ZM26.84,27.07H29.9v5H26.84Zm-9-11.76,8.29,3.46v3.16l-8.29-1Zm2.32,13,1.6-.3v4h-1.6Zm1-1.2V22.35l2.13.25v4.14Zm1.64.71,3.06-.57v4.78H22.78Zm1.49-1.3V22.72l1.88.22V26.2ZM17.86,22l2.28.27v5.09l-2.28.43ZM13.4,15.05h3.46v5.08H13.4ZM11,25.62V15.05H12.4v5.58a.5.5,0,0,0,.5.5h3.73v6.73H11ZM6.11,15.05H10V25.12H6.11Zm0,11.07H10v1.74H6.11ZM5.61,29H7.53v3.11H4.05v-5H5.11v1.39A.5.5,0,0,0,5.61,29ZM1.53,18.62H5.11v7.44H1.53Zm0,8.44H3.05v5H1.53ZM11.64,34.5H1.53V33.06H11.64ZM8.53,32.06V29h3.11v3.11Zm10.65,5.39H12.64V29h4.72a.48.48,0,0,0,.36-.15l1.46-.27v8.92Zm15.16-3H20.18V33.06H34.34Zm0-2.44H30.9v-5h3.44Zm0-6H27.15V18.62h7.19Zm.52-8.43H33.39V12.05H43.94v6Zm7.37,8.88a.5.5,0,0,0-.5.5v6.92l-6.39.52V18.65l12.63.6v7.26ZM48,33.39l-5.24.4V27.51H48Z"/></svg>