<svg xmlns="http://www.w3.org/2000/svg" viewBox="0 0 50 50"><g id="b7d6b2b6-46db-437c-873a-04aab5c21e65" data-name="ICONS"><circle cx="25.5" cy="25.5" r="2.92" fill="#fdd600"/><path d="M47.25,13.69c-1.66-3.26-6.86-4.18-13.53-2.9C31.84,4.26,28.66,0,25,0s-6.84,4.23-8.73,10.78a31.45,31.45,0,0,0-3.43-.49c-5.2-.42-8.77.78-10.09,3.36C1.25,16.65,3,20.8,7,25c-4,4.2-5.78,8.35-4.28,11.31,1.14,2.24,4,3.44,8.13,3.44.63,0,1.28,0,2-.08a31.45,31.45,0,0,0,3.43-.49C18.16,45.73,21.33,50,25,50s6.84-4.23,8.73-10.78a31.45,31.45,0,0,0,3.43.49c.68,0,1.33.08,2,.08,4.13,0,7-1.2,8.13-3.44C48.75,33.35,47,29.2,43,25,47,20.8,48.75,16.65,47.25,13.69Zm-.89.45c1.27,2.51-.45,6.26-4.13,10.11a45.65,45.65,0,0,0-7-5.52A48,48,0,0,0,34,11.82C40.13,10.67,45,11.37,46.36,14.14Zm-17,19.37q-2.16,1.1-4.32,2c-1.44-.59-2.89-1.25-4.33-2-1.73-.89-3.38-1.84-4.93-2.83-.18-1.83-.28-3.73-.28-5.68s.1-3.85.28-5.68c1.55-1,3.2-1.94,4.93-2.83,1.45-.73,2.9-1.4,4.34-2,1.43.59,2.88,1.25,4.31,2,1.74.89,3.39,1.84,4.94,2.83.18,1.83.28,3.73.28,5.68s-.1,3.85-.28,5.68C32.71,31.67,31.06,32.62,29.32,33.51ZM34.11,32A46.62,46.62,0,0,1,33,38a45.52,45.52,0,0,1-6.63-2c1.15-.49,2.3-1,3.45-1.6C31.3,33.63,32.75,32.81,34.11,32ZM23.67,36A45.52,45.52,0,0,1,17,38a46.62,46.62,0,0,1-1.15-6c1.36.84,2.81,1.66,4.33,2.43C21.37,35,22.52,35.51,23.67,36Zm-9-6a44.88,44.88,0,0,1-6.15-5,44.88,44.88,0,0,1,6.15-5c-.13,1.6-.2,3.26-.2,5S14.53,28.36,14.66,30ZM15.89,18A46.62,46.62,0,0,1,17,12a46.7,46.7,0,0,1,6.63,2c-1.14.5-2.29,1-3.45,1.61C18.7,16.37,17.25,17.19,15.89,18Zm10.45-4A47.16,47.16,0,0,1,33,12a47.91,47.91,0,0,1,1.14,6c-1.36-.84-2.81-1.66-4.33-2.43C28.63,15,27.49,14.5,26.34,14Zm9,6a44.88,44.88,0,0,1,6.15,5,44.88,44.88,0,0,1-6.15,5c.13-1.61.2-3.26.2-5S35.47,21.63,35.34,20ZM25,1c3.11,0,5.93,4,7.69,10A49.35,49.35,0,0,0,25,13.43,49.53,49.53,0,0,0,17.31,11C19.06,5,21.88,1,25,1ZM3.64,14.14c.95-1.87,3.56-2.89,7.28-2.89.58,0,1.2,0,1.84.08,1,.09,2.13.25,3.25.46a47.07,47.07,0,0,0-1.23,6.94,45.65,45.65,0,0,0-7,5.52C4.09,20.4,2.37,16.65,3.64,14.14Zm9.12,24.53c-4.69.38-8-.65-9.12-2.82-1.27-2.5.45-6.25,4.13-10.1a45.65,45.65,0,0,0,7,5.52A47.07,47.07,0,0,0,16,38.21C14.89,38.42,13.8,38.58,12.76,38.67ZM25,49c-3.12,0-5.94-4-7.69-10A48.65,48.65,0,0,0,25,36.56,48.65,48.65,0,0,0,32.69,39C30.94,45,28.12,49,25,49ZM46.36,35.85c-1.1,2.17-4.44,3.2-9.12,2.82-1-.09-2.13-.25-3.25-.46a47.07,47.07,0,0,0,1.23-6.94,45.65,45.65,0,0,0,7-5.52C45.91,29.6,47.63,33.35,46.36,35.85Z" fill="#231f20"/><path d="M25,21.08A3.92,3.92,0,1,0,28.92,25,3.93,3.93,0,0,0,25,21.08Zm0,6.84A2.92,2.92,0,1,1,27.92,25,2.92,2.92,0,0,1,25,27.92Z" fill="#231f20"/></g><g id="efbf0100-febe-47f4-8186-77b316166eb4" data-name="LABELS"><text transform="translate(0.04 55.09)" font-size="6" fill="#231f20" font-family="Roboto-Regular, Roboto">a<tspan x="3.26" y="0" letter-spacing="-0.01em">t</tspan><tspan x="5.17" y="0">om</tspan></text></g></svg>