<svg xmlns="http://www.w3.org/2000/svg" viewBox="0 0 50 50"><g id="b7cdd857-14c3-4bca-969e-8f0b9707511c" data-name="ICONS"><path d="M46.06,36.43a3.65,3.65,0,0,0-3-.47L32.67,38.05a2.87,2.87,0,0,0-.47-2,2.83,2.83,0,0,0-1.89-1.18l-10.69-2.8-.12,0H13.07v-.18a.5.5,0,0,0-.5-.5H7.69V30a.5.5,0,0,0-.5-.5h-5a.5.5,0,0,0-.5.5V44.75a.5.5,0,0,0,.5.5h5a.5.5,0,0,0,.5-.5V43.33h4.88a.5.5,0,0,0,.5-.5v-.77L29.26,45.3a.45.45,0,0,0,.2,0h.09a.5.5,0,0,0,.24-.06l14.74-3a3.43,3.43,0,0,0,3-3.67A3.16,3.16,0,0,0,46.06,36.43Zm-34,5.9H7.69V32.39h4.38ZM6.69,44.25h-4V30.47h4V44.25Zm37.66-2.91-14.87,3L13.07,41v-1.2l0-.1a.49.49,0,0,0,0-.27v-6.4h6.36l10.69,2.8a1.84,1.84,0,0,1,1.55,2.18,1.81,1.81,0,0,1-.86,1.15,1.89,1.89,0,0,1-1.51.17l-10.74-2.7a.5.5,0,0,0-.53.2A.48.48,0,0,0,18,37a.51.51,0,0,0,.36.61L29,40.33a3,3,0,0,0,.84.13,2.94,2.94,0,0,0,1.44-.39,2.88,2.88,0,0,0,.95-.92l11-2.21h0a2.63,2.63,0,0,1,2.17.33,2.16,2.16,0,0,1,1,1.52A2.46,2.46,0,0,1,44.35,41.34Z"/><path d="M17.26,18.53l.08.09a2.29,2.29,0,0,0,.21.23L30.94,32.24a.42.42,0,0,0,.16.11h0a.41.41,0,0,0,.19,0,.43.43,0,0,0,.19,0h0a.42.42,0,0,0,.16-.11l13.4-13.39.2-.22.09-.1h0a8.7,8.7,0,0,0-12.6-12L31.3,8,29.85,6.55a8.69,8.69,0,0,0-12.59,12ZM29.14,7.25,30.8,8.91v1.32a2.77,2.77,0,0,0-.86-.14,2.72,2.72,0,0,0,0,5.44,2.77,2.77,0,0,0,.86-.14V17.7H26.92a.5.5,0,0,0-.41.78,1.72,1.72,0,1,1-3.12,1,1.78,1.78,0,0,1,.31-1,.49.49,0,0,0-.4-.78H17.85A7.7,7.7,0,0,1,29.14,7.25Zm15.2,0a7.7,7.7,0,0,1,.4,10.45H40.56a0,0,0,0,1,0,0,2.58,2.58,0,0,0,.14-.39c0-.06,0-.12.07-.19a3.08,3.08,0,0,0,.07-.61,2.72,2.72,0,0,0-5.44,0,3.08,3.08,0,0,0,.07.61c0,.07.05.12.07.19a3,3,0,0,0,.14.39,0,0,0,0,1,0,0H31.8V14.56a.5.5,0,0,0-.81-.39,1.69,1.69,0,0,1-1,.36,1.72,1.72,0,1,1,1-3.07.5.5,0,0,0,.81-.39V8.91l1.65-1.66A7.71,7.71,0,0,1,44.34,7.25ZM22.5,18.7a2.81,2.81,0,0,0-.11.77,2.72,2.72,0,0,0,5.44,0,2.48,2.48,0,0,0-.12-.77H30.8v3.54a.5.5,0,0,0,.34.47.49.49,0,0,0,.56-.19,1.76,1.76,0,0,1,1.41-.73A1.72,1.72,0,1,1,31.7,24.5a.49.49,0,0,0-.56-.19.5.5,0,0,0-.34.48v5.89l-12-12Zm9.3,7.19a2.66,2.66,0,0,0,1.31.34,2.72,2.72,0,0,0,0-5.44,2.66,2.66,0,0,0-1.31.34V18.7h4.94a.46.46,0,0,0,.2-.05l.05,0h0l0,0a.34.34,0,0,0,.06-.06h0l0-.06a.56.56,0,0,0,.05-.08h0s0-.06,0-.09,0,0,0-.06h0a.49.49,0,0,0-.17-.39,1.72,1.72,0,1,1,2.14,0,.45.45,0,0,0-.17.39h0s0,0,0,.06a.29.29,0,0,0,0,.09s0,0,0,0h0a.22.22,0,0,0,.05.08l0,.06,0,0,.06,0,0,0,0,0,.09,0,.1,0h4.3l-12,12Z"/></g><g id="b2d7436a-0261-4a4b-8bc8-e0c8d1aef0da" data-name="LABELS"><text transform="translate(0.07 54.97)" font-size="6" font-family="Roboto-Regular, Roboto">autism</text></g></svg>