<svg xmlns="http://www.w3.org/2000/svg" viewBox="0 0 50 50"><g id="b7d55ae7-b9a6-4296-bd2b-dea9aa2f3880" data-name="ICONS"><path d="M30.62,31.91a.5.5,0,0,1-.09-.63,44.85,44.85,0,0,0,3.91-7.57A8.35,8.35,0,0,0,35,21.57C35.22,17.16,33.8,9,31.05,6.34A7.44,7.44,0,0,0,26,4.11h-.38a7,7,0,0,0-4.86,2.14,10,10,0,0,0-2,3.53A8.52,8.52,0,0,1,24,8h.21a9.09,9.09,0,0,1,6.14,2.45l.17.16C29.63,13,26.62,17.88,23.91,22,22.39,19.88,21,17.8,19.83,16c-.85-1.37-1.51-2.54-2-3.51a32.87,32.87,0,0,0-1,9c.09,1.74,1.79,5.36,4.53,9.67l.06.09a.5.5,0,0,1-.08.62l-10.17,9.4c.78,2.89,1.95,7.11,2.44,8.66,1.79-1.66,8.1-7.85,11.79-11.7l.21-.22a.39.39,0,0,1,.36-.15.47.47,0,0,1,.35.15C30,41.89,36.39,48.17,38.2,49.84c.49-1.55,1.66-5.76,2.44-8.66Z" fill="#fdd600"/><path d="M39.78,38.74l-8.64-8c-.59-.55-1-.93-1.31-1.19a45.09,45.09,0,0,0,3.79-7.42,8.73,8.73,0,0,0,.6-2.42C34.47,15,33,6.63,30,3.71a8.24,8.24,0,0,0-5.73-2.5H24.2v.5l-.15-.51h-.23a7.88,7.88,0,0,0-5.55,2.43c-3,2.92-4.48,11.28-4.23,16,.1,1.9,1.74,5.49,4.52,9.89L8.49,38.83a.51.51,0,0,0-.14.5c2.7,10,2.76,10,3.26,10S22.8,38.56,24.18,37.15c2,2.08,11.88,12.1,12.48,12.1s.56,0,3.27-10A.5.5,0,0,0,39.78,38.74ZM19,4.34A6.92,6.92,0,0,1,23.83,2.2h.38A7.39,7.39,0,0,1,29.3,4.43c1.36,1.33,2.39,4,3.06,6.89a8.53,8.53,0,0,0-.86-1.11s0,0,0,0a.46.46,0,0,1-.07-.07.1.1,0,0,1,0,0l0,0L31,9.73A10.07,10.07,0,0,0,24.15,7H24a9.7,9.7,0,0,0-6.79,2.61,7.68,7.68,0,0,0-1,1.1h0a5.52,5.52,0,0,0-.32.47C16.58,8.34,17.62,5.67,19,4.34ZM23.91,22C22.39,19.88,21,17.8,19.83,16a34.6,34.6,0,0,1-2.61-4.82,5.56,5.56,0,0,1,.7-.74A8.62,8.62,0,0,1,24,8h.21a9.09,9.09,0,0,1,6.14,2.45l.17.16C29.63,13,26.62,17.88,23.91,22Zm-8.86-2.44a28.51,28.51,0,0,1,.26-5,14.92,14.92,0,0,1,1.24-2.53A38.73,38.73,0,0,0,19,16.47c1.23,2,2.73,4.2,4.36,6.46-1.56,2.36-3.16,4.61-4.08,5.79C16.71,24.64,15.14,21.24,15.05,19.57ZM11.82,48c-.49-1.55-1.65-5.75-2.43-8.63l9.8-9.06.09-.06a2.08,2.08,0,0,0,.2-.21l.08-.07,0-.06c.9-1.06,2.92-3.89,4.71-6.61a.51.51,0,0,0,.07-.15c1.34-2,5.44-8.33,6.9-11.66a13.74,13.74,0,0,1,1.67,3.11l0,0a28.66,28.66,0,0,1,.27,5,8.4,8.4,0,0,1-.55,2.13,45.52,45.52,0,0,1-3.87,7.51l0,.05a45.9,45.9,0,0,1-4.94,6.71l0,0-.2.22C19.92,40.15,13.63,46.32,11.82,48Zm24.63-.09c-1.78-1.64-7.85-7.6-11.59-11.49a47.64,47.64,0,0,0,4.43-6l9.59,8.88C38.1,42.15,36.94,46.35,36.45,47.9Z" fill="#231f20"/></g><g id="ae75c94b-f168-4339-9aae-fd98ce7f7544" data-name="LABELS"><text transform="translate(0.85 55.07)" font-size="6" fill="#231f20" font-family="Roboto-Regular, Roboto">awa<tspan x="11.04" y="0" letter-spacing="-0.01em">r</tspan><tspan x="13.01" y="0">eness-ribbon</tspan></text></g></svg>