<svg xmlns="http://www.w3.org/2000/svg" viewBox="0 0 50 50"><g id="b533d406-55b8-417e-a15f-819354e5c9c8" data-name="ICONS"><path d="M9.08,6.64a9.46,9.46,0,0,0-2.9,3.28,9.93,9.93,0,0,0-.53,1.2.51.51,0,0,0,.31.64.44.44,0,0,0,.16,0,.48.48,0,0,0,.47-.33,7.8,7.8,0,0,1,.48-1.07A8.48,8.48,0,0,1,9.66,7.46a.5.5,0,1,0-.58-.82Z"/><path d="M45.31,9.39A9.28,9.28,0,0,0,31.46,5.64a11.64,11.64,0,0,0-3.08,3,9.21,9.21,0,0,0-5.62-1.95,8.92,8.92,0,0,0-2.59.39,11.63,11.63,0,0,0-1.28-1.35,9.5,9.5,0,0,0-7.56-2.43,9.46,9.46,0,0,0-6.67,4.3A12.25,12.25,0,0,0,2.8,16c.78,6,5.77,12.58,11,12.58H14c-.46,2.67-.12,4.86,1,6.49a7,7,0,0,0,1.89,1.73,9.44,9.44,0,0,1,1.55,1.26,10.37,10.37,0,0,1,2.47,6.79.49.49,0,0,0,.5.47h0a.5.5,0,0,0,.48-.52,11.36,11.36,0,0,0-2.75-7.43,10.55,10.55,0,0,0-1.7-1.4,5.86,5.86,0,0,1-1.65-1.48c-1-1.46-1.3-3.49-.81-6a6.3,6.3,0,0,0,1-.3c1.71,2.26,3.93,3.83,6.38,4A8.36,8.36,0,0,1,23.37,35,9.2,9.2,0,0,1,23,38.49c-.1.4-.2.82-.28,1.26a17,17,0,0,0,.14,6.61.5.5,0,0,0,.49.4h.1a.5.5,0,0,0,.39-.59,15.84,15.84,0,0,1-.14-6.23c.08-.42.18-.82.27-1.21a9.94,9.94,0,0,0,.37-3.8,9.51,9.51,0,0,0-.82-2.81c2.54-.32,4.81-2.18,6.48-4.7a6.87,6.87,0,0,0,1.56,1,6.13,6.13,0,0,0-2.83,3.46,4.13,4.13,0,0,0,0,2.19A9,9,0,0,1,29,36.34a10.2,10.2,0,0,1-1.73,5.73,9.13,9.13,0,0,1-2.38,2.38.5.5,0,1,0,.57.82,10.2,10.2,0,0,0,2.64-2.64A11.26,11.26,0,0,0,30,36.36a9.76,9.76,0,0,0-.26-2.48,3.24,3.24,0,0,1,0-1.72,5.7,5.7,0,0,1,3.12-3.3,6.31,6.31,0,0,0,1.44.18c5,0,10.27-5.56,11.75-11A12.3,12.3,0,0,0,45.31,9.39ZM22.76,31.18c-4.91,0-9.12-7.13-9.12-13S17.73,7.71,22.76,7.71s9.11,4.71,9.11,10.51S27.67,31.18,22.76,31.18Zm-8.25-3.6c-4.86.63-10-5.88-10.72-11.67a11.29,11.29,0,0,1,1.7-7.74,8.49,8.49,0,0,1,6-3.86,7.41,7.41,0,0,1,1-.07A8.69,8.69,0,0,1,18.23,6.5a9.55,9.55,0,0,1,.94,1,11.56,11.56,0,0,0-6.53,10.75,17.35,17.35,0,0,0,2.83,9.14A5.15,5.15,0,0,1,14.51,27.58Zm30.55-9.85c-1.53,5.63-7.45,11.41-12.19,10.12a5.67,5.67,0,0,1-2.32-1.31,17.26,17.26,0,0,0,2.32-8.32,12.48,12.48,0,0,0-2.09-7,8,8,0,0,1,1.83-2.11,7.79,7.79,0,0,1,2.5-1.36.52.52,0,0,0,.32-.64.5.5,0,0,0-.64-.31,8.88,8.88,0,0,0-4.65,3.56,10,10,0,0,0-1-1.06A10.73,10.73,0,0,1,32,6.47a8.84,8.84,0,0,1,4.9-1.55A7.92,7.92,0,0,1,39,5.2a8.52,8.52,0,0,1,5.4,4.63A11.25,11.25,0,0,1,45.06,17.73Z"/><path d="M19.9,10.54a.51.51,0,0,0,.1-.7.5.5,0,0,0-.7-.1,11.51,11.51,0,0,0-4.37,6.83.5.5,0,0,0,.38.6h.11a.5.5,0,0,0,.49-.4,10.39,10.39,0,0,1,4-6.24Z"/></g><g id="f2e05126-6f9d-44eb-a260-3f6ef34d4d28" data-name="LABELS"><text transform="translate(0 54.94)" font-size="6" font-family="Roboto-Regular, Roboto">balloons</text></g></svg>