<svg xmlns="http://www.w3.org/2000/svg" viewBox="0 0 50 50"><g id="fd74b542-622f-46e1-b2e0-c1855d96174f" data-name="ICONS"><path d="M46,16l-.54-.86c-.36-.58-.15-2.36,0-3.93.28-2.34.56-4.77-.4-5.92a1.82,1.82,0,0,0-1.36-.66c-1.57-.1-2.44-.15-3,.39s-.58,1.65-.55,3.57c0,.52,0,1.07.07,1.63s.06,1.34.07,2.05v.1a18.12,18.12,0,0,1-5.89,6.27C31.72,20.52,20,24.83,3.1,19.92a.49.49,0,0,0-.52.15L.48,22.46a.64.64,0,0,0-.08.14,1.57,1.57,0,0,0,.1,1.27c1,2.34,6.16,6.4,12,9a57.74,57.74,0,0,1-8.16-.32.5.5,0,0,0-.48.24L2.25,35.47l-.06.15c-.34,1.53,2.68,3.45,4.52,4.46A35.82,35.82,0,0,0,22.82,44.5h.44c14.4-.28,25.68-9.1,25.68-20.08C48.94,20.6,47.72,18.66,46,16ZM1.41,23.47a1.06,1.06,0,0,1-.1-.43L3.13,21c17.12,4.88,29.07.43,31.92-1.52a19.74,19.74,0,0,0,5.27-5.14c-.23,3.56-1.4,7.38-5.61,11.53-1.63,1.61-8.37,6-19.84,6.87C8,30.19,2.33,25.56,1.41,23.47Zm21.83,20c-5.89.14-12.33-2.24-16-4.29-3.06-1.68-4-2.91-4-3.32l1.41-2.34a57.27,57.27,0,0,0,10.2.17h.07c11.83-.91,18.85-5.48,20.57-7.17,5.2-5.14,6-10,5.95-14.07h0V12h0c0-.64,0-1.26-.06-1.85s-.06-1.09-.07-1.61c0-1.42,0-2.55.25-2.83s1.08-.18,2.24-.11a.84.84,0,0,1,.65.3c.69.82.41,3.23.18,5.16s-.44,3.7.1,4.58l.54.86c1.66,2.64,2.75,4.38,2.75,7.91C47.94,34.85,37.09,43.23,23.24,43.5Z"/><path d="M44.19,24.65a.49.49,0,0,0-.68.2c-3.43,6.32-10.6,11.11-19.2,12.8-5.91,1.16-12.75-.09-16.8-1.51a.49.49,0,0,0-.64.3.5.5,0,0,0,.3.64,38.61,38.61,0,0,0,12.12,2,27.37,27.37,0,0,0,5.21-.48c8.89-1.75,16.32-6.72,19.89-13.31A.49.49,0,0,0,44.19,24.65Z"/></g><g id="e7255862-f371-46c5-909b-364c85237701" data-name="LABELS"><text transform="translate(-0.33 55.02)" font-size="6" font-family="Roboto-Regular, Roboto">bananas</text></g></svg>