<svg xmlns="http://www.w3.org/2000/svg" viewBox="0 0 50 50"><g id="b298905c-2d4d-438f-97d5-a4825f481538" data-name="ICONS"><path d="M49.59,45.47a.29.29,0,0,0,0-.09.44.44,0,0,0,0-.1.29.29,0,0,0,0-.09.41.41,0,0,0,0-.09l0-.06h0v0L47,42.72a.49.49,0,0,0-.7,0,.5.5,0,0,0,0,.71l1.53,1.42h-5v-32a.5.5,0,0,0-.5-.5H36.55a.5.5,0,0,0-.5.5v32H33.21V23.08a.5.5,0,0,0-.5-.5H26.9a.5.5,0,0,0-.5.5v21.8H23.56V18.8a.5.5,0,0,0-.5-.5H17.25a.5.5,0,0,0-.5.5V44.88H13.91V27.31a.5.5,0,0,0-.5-.5H7.6a.5.5,0,0,0-.5.5V44.88H3.68V3.54L5.12,5a.52.52,0,0,0,.35.14A.54.54,0,0,0,5.83,5a.51.51,0,0,0,0-.71L3.54,2h0l-.06,0A.49.49,0,0,0,3,1.87l0,0A.57.57,0,0,0,2.83,2h0L.54,4.28A.5.5,0,0,0,.54,5a.54.54,0,0,0,.35.14A.54.54,0,0,0,1.25,5L2.68,3.54V45.38a.5.5,0,0,0,.5.5H47.84L46.31,47.3a.5.5,0,0,0,0,.71.46.46,0,0,0,.36.16A.48.48,0,0,0,47,48l2.46-2.29a0,0,0,0,0,0,0h0l0-.07a.35.35,0,0,0,0-.08A.3.3,0,0,0,49.59,45.47ZM8.1,44.88V27.81h4.81V44.88Zm9.65,0V19.3h4.81V44.88Zm9.65,0V23.58h4.81v21.3Zm9.65,0V13.42h4.81V44.88Z"/></g><g id="b12108cc-ce96-430d-8d8f-ea980facbc77" data-name="LABELS"><text transform="translate(-0.26 54.74)" font-size="6" font-family="Roboto-Regular, Roboto">bar-g<tspan x="13.68" y="0" letter-spacing="-0.02em">r</tspan><tspan x="15.59" y="0">aph</tspan></text></g></svg>