<svg id="aa6d3927-f391-43e6-812a-e5c3099fb65d" data-name="ICONS" xmlns="http://www.w3.org/2000/svg" viewBox="0 0 50 50"><polygon points="44.09 24.92 44.18 25.04 44.85 24.92 44.09 24.92"/><polygon points="12.5 25.04 12.59 24.92 11.83 24.92 12.5 25.04"/><polygon points="34.78 32.53 21.9 32.53 28.34 38.38 34.78 32.53" fill="none"/><polygon points="21.1 33.16 21.1 44.95 27.6 39.05 21.1 33.16" fill="none"/><rect x="24.15" y="20.54" width="8.39" height="6.42" fill="none"/><polygon points="21.9 45.58 34.78 45.58 28.34 39.73 21.9 45.58" fill="none"/><polygon points="35.58 44.95 35.58 33.16 29.09 39.05 35.58 44.95" fill="none"/><path d="M48.08,25.19s0-.06,0-.09l0-.09a.34.34,0,0,0,0-.1s0-.06,0-.08h0l0-.09s0-.07,0-.1h0L40.69,14.47a.49.49,0,0,0-.25-.18L28.5,10.41a.42.42,0,0,0-.31,0l-10.4,3.37V10.56A7.89,7.89,0,0,0,9.9,2.68H9.13a7.89,7.89,0,0,0-7.89,7.88v35a1,1,0,0,0,1,1H44a.5.5,0,0,0,.5-.5V26l3.29-.6a.4.4,0,0,0,.2-.09h0a.12.12,0,0,0,0-.05A.6.6,0,0,0,48.08,25.19ZM44.18,25l-.09-.12L38.4,17.23a.64.64,0,0,0-.25-.18L28.49,14a.51.51,0,0,0-.3,0l-9.65,3.07a.52.52,0,0,0-.25.18l-5.7,7.69L12.5,25l-.67-.12-1.94-.35,6.82-9.38,11.63-3.78L40,15.19l6.82,9.38-1.93.35Zm-31,.71L19,18l9.35-3,9.35,3,5.77,7.79V45.58H36.58V32a.14.14,0,0,0,0-.07.22.22,0,0,0,0-.11.37.37,0,0,0-.06-.1s0,0,0-.06h0l-.1-.07s0,0-.06,0-.05,0-.08,0l-.11,0H20.59l-.1,0a.32.32,0,0,0-.09,0s0,0-.06,0l-.1.07h0l0,.06s-.05.07-.06.1a.43.43,0,0,0,0,.11.14.14,0,0,0,0,.07V45.58H13.22ZM27.6,39.05,21.1,45V33.16Zm-5.7-6.52H34.78l-6.44,5.85Zm13.68.63V45l-6.5-5.9Zm-7.24,6.57,6.44,5.85H21.9ZM9.13,3.68H9.9a6.88,6.88,0,0,1,6.88,6.77H2.25A6.88,6.88,0,0,1,9.13,3.68ZM2.24,45.56V11.45H16.79v2.66l-.54.18a.45.45,0,0,0-.25.18L8.62,24.62h0a.42.42,0,0,0,0,.1l0,.09h0s0,.05,0,.08V25a.36.36,0,0,0,0,.09l0,.09.08.08.05.05h0l.1,0,.08,0h0l3.29.6V45.57Z"/><path d="M23.15,27.46a.5.5,0,0,0,.5.5H33a.5.5,0,0,0,.5-.5V20a.5.5,0,0,0-.5-.5H23.65a.5.5,0,0,0-.5.5Zm9.39-6.92V27H24.15V20.54Z"/></svg>