<svg xmlns="http://www.w3.org/2000/svg" viewBox="0 0 50 50"><g id="b7a8db9d-5772-41d3-bcf5-af0f0eeba7a6" data-name="ICONS"><path d="M24.27.82a.5.5,0,0,0-.5.5V47.75a.5.5,0,0,0,.5.5.51.51,0,0,0,.5-.5V1.32A.5.5,0,0,0,24.27.82Z"/><path d="M18.33,14.56a5.37,5.37,0,0,0-3.41-1.06L9,13.52A5.55,5.55,0,0,0,5.77,14.8a6,6,0,0,0-1.9,4.91v10.2a2.24,2.24,0,0,0,.64,1.54A2.18,2.18,0,0,0,7,31.86a2.29,2.29,0,0,0,.27-.14v14a2.68,2.68,0,0,0,4.88,1.56A2.69,2.69,0,0,0,17,45.74v-14a2.11,2.11,0,0,0,1.19.36,2.19,2.19,0,0,0,2.18-2.19V19.42A5.76,5.76,0,0,0,18.33,14.56ZM19.39,29.9a1.19,1.19,0,1,1-2.37,0V19.19a.51.51,0,0,0-.5-.5.5.5,0,0,0-.5.5V45.74a1.7,1.7,0,1,1-3.39,0h0V31.27a.5.5,0,0,0-1,0V45.74h0a1.69,1.69,0,1,1-3.38,0V29.9h0V19.19a.51.51,0,0,0-.5-.5.5.5,0,0,0-.5.5v10.7A1.25,1.25,0,0,1,6.56,31a1.22,1.22,0,0,1-1.35-.22,1.24,1.24,0,0,1-.34-.84V19.66a5,5,0,0,1,1.54-4.1,4.56,4.56,0,0,1,2.66-1l5.86,0h0a4.34,4.34,0,0,1,2.77.85,4.86,4.86,0,0,1,1.67,4Z"/><path d="M12.13,12A4.72,4.72,0,1,0,7.41,7.27,4.73,4.73,0,0,0,12.13,12Zm0-8.44A3.72,3.72,0,1,1,8.41,7.27,3.73,3.73,0,0,1,12.13,3.55Z"/><path d="M44.62,14.56a5.07,5.07,0,0,0-1.32-.72v-.38a.5.5,0,0,0-.5-.5H34a.51.51,0,0,0-.5.5v.46a5.15,5.15,0,0,0-1.48.88,6,6,0,0,0-1.89,4.91v10.2a2.24,2.24,0,0,0,.64,1.54,2.18,2.18,0,0,0,2.47.41l.26-.14v14a2.69,2.69,0,0,0,4.89,1.56,2.68,2.68,0,0,0,4.88-1.56v-14a2.14,2.14,0,0,0,1.19.36,2.2,2.2,0,0,0,2.19-2.19V19.42A5.78,5.78,0,0,0,44.62,14.56ZM45.68,29.9a1.19,1.19,0,1,1-2.38,0v-15a4.8,4.8,0,0,1,.71.43,4.86,4.86,0,0,1,1.67,4ZM38.92,45.74V39.41H42.3v6.33a1.69,1.69,0,1,1-3.38,0Zm-4.39,0V39.41h3.39v6.33a1.7,1.7,0,1,1-3.39,0Zm-3-15a1.24,1.24,0,0,1-.34-.84V19.66a5,5,0,0,1,1.55-4.1,4.11,4.11,0,0,1,.83-.55V29.88A1.23,1.23,0,0,1,32.84,31,1.21,1.21,0,0,1,31.5,30.74ZM42.3,14V38.41H34.53V14Z"/><path d="M38.42,12A4.72,4.72,0,1,0,33.7,7.27,4.73,4.73,0,0,0,38.42,12Zm0-8.44A3.72,3.72,0,1,1,34.7,7.27,3.73,3.73,0,0,1,38.42,3.55Z"/></g><g id="ef58d205-c9e9-482b-bb8c-9484e3ceca27" data-name="LABELS"><text transform="translate(0.32 55.07)" font-size="6" font-family="Roboto-Regular, Roboto">bath<tspan x="11.89" y="0" letter-spacing="-0.01em">r</tspan><tspan x="13.87" y="0">oom</tspan></text></g></svg>