<svg id="a10ffad9-1bb8-4df4-90ca-aea5da02b365" data-name="ICONS" xmlns="http://www.w3.org/2000/svg" viewBox="0 0 50 50"><path d="M37.3,7.88a8.87,8.87,0,0,0-1.48-.12,8.76,8.76,0,0,0-5.95,2.34A8,8,0,0,1,29.94,8a8.79,8.79,0,0,1,1.49-3.62.47.47,0,0,0,.09-.28c.07-2.48-.33-3.81-1.26-4.18-1.17-.46-3.34.37-9.66,10.74a8.78,8.78,0,0,0-6.39-2.81,9.2,9.2,0,0,0-1.5.12A8.77,8.77,0,0,0,5.57,18.05L9,37.75A8.78,8.78,0,0,0,17.09,45a11.16,11.16,0,0,0,7.69,3h1.44a11.19,11.19,0,0,0,7.91-3.26A8.81,8.81,0,0,0,41,37.69L44.43,18A8.78,8.78,0,0,0,37.3,7.88Zm6.14,10L40,37.52a7.79,7.79,0,0,1-4.7,5.83,11.2,11.2,0,0,0,2.14-6.58V21.41A11.2,11.2,0,0,0,30.4,11a7.81,7.81,0,0,1,5.42-2.21,7,7,0,0,1,1.31.11A7.76,7.76,0,0,1,43.44,17.84ZM24.78,47a10.22,10.22,0,0,1-7.14-2.9,10.35,10.35,0,0,1-3.12-7.37V21.41a10.26,10.26,0,0,1,6.35-9.48h0a10.25,10.25,0,0,1,3.91-.77h1.44a10,10,0,0,1,3.13.5h0a10.22,10.22,0,0,1,7.12,9.76V36.77A10.28,10.28,0,0,1,26.22,47ZM12.88,8.93a7.24,7.24,0,0,1,1.33-.11,7.82,7.82,0,0,1,5.65,2.47,11.27,11.27,0,0,0-6.34,10.12V36.77A11.29,11.29,0,0,0,16,43.84,7.78,7.78,0,0,1,10,37.58L6.56,17.88A7.76,7.76,0,0,1,12.88,8.93ZM29.75.8a.33.33,0,0,1,.15,0c.16.06.68.47.63,3.07A9.68,9.68,0,0,0,29,7.81a10,10,0,0,0-.05,2.67,11.37,11.37,0,0,0-2.68-.33H24.78a11.16,11.16,0,0,0-3,.39C27.18,1.85,29.13.8,29.75.8Z"/></svg>