<svg xmlns="http://www.w3.org/2000/svg" viewBox="0 0 50 50"><g id="e0ee906e-f026-41ad-94c0-af5322f00900" data-name="ICONS"><path d="M42.2,9.43V28.71a.5.5,0,0,0,1,0V9.43a7.71,7.71,0,1,0-15.41,0V40.57a6.71,6.71,0,1,1-13.41,0V37.69H16.3a3.5,3.5,0,0,0,3.5-3.5V32.32h1.37a3.5,3.5,0,0,0,3.5-3.5V5.52A3.5,3.5,0,0,0,21.17,2H6.56a3.5,3.5,0,0,0-3.5,3.5v23.3a3.4,3.4,0,0,0,.6,1.95,3.49,3.49,0,0,0,2.9,1.55H8v1.87a3.5,3.5,0,0,0,3.5,3.5h1.89v2.88a7.71,7.71,0,1,0,15.41,0V9.43a6.71,6.71,0,1,1,13.41,0ZM4.06,5.52A2.5,2.5,0,0,1,6.56,3H21.17a2.51,2.51,0,0,1,2.5,2.5v5.57H4.06Zm2.5,25.8a2.5,2.5,0,0,1-2.08-1.11,2.45,2.45,0,0,1-.42-1.39V12.09H23.67V28.82a2.51,2.51,0,0,1-2.5,2.5H6.56ZM9,34.19V32.32H18.8v1.87a2.51,2.51,0,0,1-2.5,2.5H11.49A2.5,2.5,0,0,1,9,34.19Z"/><path d="M43.05,30.91a.46.46,0,0,0-.43-.24.47.47,0,0,0-.43.25c-.39.68-3.77,6.69-3.77,8.83a4.26,4.26,0,0,0,8.52,0C46.94,37.61,43.45,31.59,43.05,30.91ZM42.68,43a3.26,3.26,0,0,1-3.26-3.26c0-1.4,2-5.41,3.21-7.57,1.21,2.16,3.31,6.17,3.31,7.57A3.26,3.26,0,0,1,42.68,43Z"/><path d="M20.32,24.16V19.21a.5.5,0,0,0-.5-.51H16.68V15.52a.51.51,0,0,0-.5-.5H11.27a.5.5,0,0,0-.5.5V18.7H7.63a.51.51,0,0,0-.51.51v4.95a.5.5,0,0,0,.51.5h3.14v3.18a.5.5,0,0,0,.5.5h4.91a.5.5,0,0,0,.5-.5V24.66h3.14A.5.5,0,0,0,20.32,24.16Zm-1-.5H16.18a.5.5,0,0,0-.51.5v3.18h-3.9V24.16a.5.5,0,0,0-.5-.5H8.13V19.71h3.14a.5.5,0,0,0,.5-.5V16h3.9v3.19a.51.51,0,0,0,.51.5h3.14Z"/></g><g id="ba205dee-f73e-40ab-897c-a24d33b708ec" data-name="LABELS"><text transform="translate(0.93 54.84)" font-size="6" font-family="Roboto-Regular, Roboto">blood-donation</text></g></svg>