<svg id="b17f5bbd-8ed7-4eba-990a-b49614421ce7" data-name="ICONS" xmlns="http://www.w3.org/2000/svg" viewBox="0 0 50 50"><path d="M8.76,31.44a4.17,4.17,0,1,0-2.68-1,4.13,4.13,0,0,0,2.68,1m0-7.32a3.16,3.16,0,0,1,2,5.57,3.24,3.24,0,0,1-4.07,0,3.12,3.12,0,0,1-1.12-2.41,3.16,3.16,0,0,1,3.15-3.16"/><path d="M43.61,32.44H41.92a4.35,4.35,0,0,0-4.14,4.35l-2.52-3.38a.49.49,0,0,0-.39-.2H32.76v-3.5a4.36,4.36,0,0,0-4.18-4.36H22.91a4.35,4.35,0,0,0-4.14,4.36v3.5H16.66a.5.5,0,0,0-.39.2l-2.51,3.38a4.36,4.36,0,0,0-4.15-4.35H7.91A4.37,4.37,0,0,0,3.76,36.8V45a.5.5,0,0,0,.5.5h3L5.16,48.36a.47.47,0,0,0,0,.52.5.5,0,0,0,.44.28H46a.51.51,0,0,0,.45-.28.47.47,0,0,0-.05-.52l-2.11-2.84h3a.51.51,0,0,0,.5-.5V36.8a4.38,4.38,0,0,0-4.17-4.36M19.77,29.71A3.36,3.36,0,0,1,23,26.35h5.62a3.36,3.36,0,0,1,3.19,3.36v3.5h-2V30.47a.5.5,0,0,0-.5-.5.5.5,0,0,0-.5.5v2.74h-6V30.47a.5.5,0,0,0-.5-.5.5.5,0,0,0-.5.5v2.74h-2Zm-15,14.81V36.8a3.35,3.35,0,0,1,3.18-3.36H9.55a3.36,3.36,0,0,1,3.21,3.36v1.33L8,44.52ZM45,48.16H6.55l2-2.64.74-1,3.51-4.71,1-1.34,3.16-4.26H34.61l3.17,4.26,1,1.34,3.5,4.71.74,1Zm1.8-3.64H43.53l-4.75-6.39V36.8a3.36,3.36,0,0,1,3.16-3.36h1.63a3.37,3.37,0,0,1,3.21,3.36Z"/><path d="M38.62,27.28a4.16,4.16,0,1,0,4.16-4.16,4.13,4.13,0,0,0-4.16,4.16m7.31,0a3.1,3.1,0,0,1-1.13,2.41,3.24,3.24,0,0,1-4.07,0,3.16,3.16,0,1,1,5.2-2.41"/><path d="M8.29,20.36a.41.41,0,0,0,.05.09s0,0,0,.06h0l.13.1s0,0,0,0a.46.46,0,0,0,.2.05H21.66a4.13,4.13,0,0,0,8.2,0H42.77a.51.51,0,0,0,.5-.5V.84a.51.51,0,0,0-.5-.5h-34a.51.51,0,0,0-.5.5V20.19a.14.14,0,0,0,0,.06.22.22,0,0,0,0,.11m20.57.33A3.14,3.14,0,0,1,27.8,22.6a3.25,3.25,0,0,1-4.08,0,3.14,3.14,0,0,1-1.06-1.91,2.84,2.84,0,0,1-.06-.5,4,4,0,0,1,0-.5,3.15,3.15,0,0,1,6.22,0,4,4,0,0,1,.05.5,2.84,2.84,0,0,1-.06.5M9.26,1.34h33V19.69H29.87a4.13,4.13,0,0,0-8.21,0H10.14l4.08-3.41,4.27,1.32a.5.5,0,0,0,.48-.11l7.63-6.88,6.18,1.72a.52.52,0,0,0,.49-.13l6.45-6.39A.5.5,0,0,0,39,5.1l-6.24,6.19L26.6,9.57a.51.51,0,0,0-.47.12l-7.62,6.87-4.26-1.31a.5.5,0,0,0-.47.09L9.26,19.12Z"/></svg>