<svg id="ad094a5d-3436-446f-8b52-b149524dc915" data-name="ICONS" xmlns="http://www.w3.org/2000/svg" viewBox="0 0 50 50"><g id="a4a0a03c-0818-4a04-9ef3-95a6cf770de4" data-name="Layer 4"><path d="M48.46,29.84H42.91l-.32,0v-2.2s0,0,0-.06a.43.43,0,0,1,0-.05v-1.9s0,0,0,0V23.16a.51.51,0,0,0-.15-.36.5.5,0,0,0-.35-.14H31.37V19.38a.5.5,0,0,0-.31-.46,6.38,6.38,0,0,0-5.93-5.81V7.81a.5.5,0,0,0-.5-.5.5.5,0,0,0-.5.5v5.3a6.39,6.39,0,0,0-5.94,5.81.5.5,0,0,0-.31.46v3.28H7.14a.5.5,0,0,0-.5.5v6.71l-.3,0H.79a.5.5,0,0,0-.5.5V41.28a.5.5,0,0,0,.5.5H48.46a.5.5,0,0,0,.5-.5V30.34A.5.5,0,0,0,48.46,29.84ZM48,33.69h-4.5V30.84H48ZM7.64,26.13H17.88v1H7.64Zm17-11.75a6.11,6.11,0,0,1,1.69,4.12l-1.39-.06c-.66,0-1.32,0-2,0A6.21,6.21,0,0,1,24.59,14.38Zm-5.71,5.44a44.45,44.45,0,0,1,6-.38,43.78,43.78,0,0,1,5.49.38v10.3L29,29.91V22.84s0,0,0-.05,0-.06,0-.09,0,0,0,0,0,0,0-.05l0-.08s0,0,0,0h0l0,0-.08-.05,0,0h-.05l-.05,0a19.12,19.12,0,0,0-4.2-.41,19.49,19.49,0,0,0-3.81.41l-.05,0h-.05l0,0-.08.05,0,0h0s0,0,0,0l0,.08s0,0,0,.05,0,0,0,0,0,.06,0,.09,0,0,0,.05v7.07l-1.34.21ZM41.6,27.11H31.37v-1H41.6Zm.86,13.67H39.18V35l3.28-.27ZM21.72,33.69h-.5V30.84H28v2.85H21.72ZM10.07,34H9.92l-3.13-.26V30.89l3.28.27Zm-3.28.74,3.28.27v5.77H6.79Zm4.28-3.54h6.81v2.85H11.07Zm31.39-.31v2.84L39.33,34h-.15V31.16Zm-4.28,3.16H31.37V31.2h6.81ZM18.88,34V31.13l1.34-.2v2.83Zm2.93-10.8a19.32,19.32,0,0,1,2.63-.23,18.77,18.77,0,0,1,3,.24L26.3,24.25H23Zm1.44,2.08H26v1.83H23.25ZM23,28.08h3.25l1.35,1.76h-6Zm6,2.85,1.34.2V34L29,33.76Zm-2-3.52V25l1-1v4.75ZM22.25,25v2.44l-1,1.34V24ZM18.88,35l1.91-.29h.43v6.09H18.88Zm9.57-.29h0l1.91.29v5.8H27.75V34.69Zm2.92.36h6.81v5.73H31.37Zm7.29-4.85H31.37V28.11H41.6V30Zm3-6.54v1.47H31.37V23.66ZM30,18.79c-.92-.11-1.83-.2-2.75-.25a7.41,7.41,0,0,0-1.49-4.32A5.35,5.35,0,0,1,30,18.79Zm-6.66-4.55a7.43,7.43,0,0,0-1.47,4.29c-.9,0-1.8.14-2.69.25A5.34,5.34,0,0,1,23.38,14.24Zm-5.5,9.42v1.47H7.64V23.66ZM7.64,28.11H17.88V30.2H10.59L7.64,30ZM5.79,30.84v2.85H1.29V30.84Zm-4.5,3.85h4.5v6.09H1.29Zm9.78.36h6.81v5.73H11.07Zm11.15-.36H24v6.09H22.22ZM25,40.78V34.69h1.76v6.09Zm18.47,0V34.69H48v6.09Z"/></g></svg>