<svg xmlns="http://www.w3.org/2000/svg" viewBox="0 0 50 50"><g id="f9f4e007-bf40-493c-9390-38ff54bdb85f" data-name="ICONS"><polygon points="20.27 20.27 20.27 30.45 22.48 30.45 22.48 20.27 21.37 18.84 20.27 20.27" fill="none"/><polygon points="27.7 20.28 27.7 30.45 29.9 30.45 29.9 20.28 28.8 18.86 27.7 20.28" fill="none"/><path d="M43.32,42.42a.5.5,0,0,1-.5-.5v-10l-2.77-1.54a.5.5,0,0,1-.26-.44v-17H35.55V48h-2.5V12.92H16.93V48H14.44V12.92h-.75V30a.51.51,0,0,1-.26.44l-2.77,1.53v10a.5.5,0,0,1-.5.5H8.5v6.89H26.19l.12,0H45V42.42Zm-22.11,1.9h-.58V37.15l.29-.25.29.25Zm1.27-13.87H20.27V20.27l1.1-1.43,1.11,1.43Zm2.81,13.87h-.58V37.16l.29-.25.29.25Zm4.09,0H28.8V37.15l.29-.25.29.25Zm.52-13.87H27.7V20.28l1.1-1.42,1.1,1.42Z" fill="#fdd600"/><path d="M43.74,39.67H42.08V29.88a.48.48,0,0,0-.26-.43l-2.77-1.54V10.67a.5.5,0,0,0-.5-.5h-2v-4a.55.55,0,0,0-.12-.33L34.79,4v-2a.5.5,0,0,0-.5-.5.51.51,0,0,0-.5.5V4L32.17,5.85a.5.5,0,0,0-.12.33v4H25.6V8.4a.5.5,0,0,0-.5-.5.5.5,0,0,0-.5.5v1.77H17.93v-4a.49.49,0,0,0-.12-.32L16.21,4v-2a.5.5,0,0,0-.5-.5.5.5,0,0,0-.5.5v2L13.56,5.85a.49.49,0,0,0-.12.32v4h-2a.5.5,0,0,0-.5.5V27.92L8.18,29.46a.51.51,0,0,0-.26.44v9.79H6.25a.5.5,0,0,0-.5.5v7.89a.51.51,0,0,0,.5.5H37.13a.41.41,0,0,0,.16,0h6.45a.5.5,0,0,0,.5-.5V40.17A.5.5,0,0,0,43.74,39.67Zm-5.69-28.5v17a.5.5,0,0,0,.26.44l2.77,1.54V39.7H36.55V11.17ZM14.44,48V6.36L15.69,4.9l1.24,1.46V48H14.44Zm8-17.55H20.27V20.27l1.1-1.43,1.11,1.43Zm9.57,1v2.49H17.93V31.45Zm-2.15-1H27.7V20.28l1.1-1.42,1.1,1.42Zm-.52,13.87H28.8V37.15l.29-.25.29.25Zm.82-7.79-.79-.66a.49.49,0,0,0-.64,0l-.79.66a.5.5,0,0,0-.18.39v7.4H26.29v-7.4a.46.46,0,0,0-.18-.38l-.79-.67a.5.5,0,0,0-.64,0l-.8.66a.49.49,0,0,0-.17.38v7.4h-1.5v-7.4a.5.5,0,0,0-.18-.39l-.79-.66a.49.49,0,0,0-.64,0l-.8.66a.52.52,0,0,0-.17.39v7.4h-1.7V34.94H32.05v9.38H30.38v-7.4A.5.5,0,0,0,30.2,36.53Zm-4.91,7.79h-.58V37.16l.29-.25.29.25Zm-4.08,0h-.58V37.15l.29-.25.29.25Zm-3.28,1H32.05v2.24H17.93ZM32.05,30.45h-1.2V20.12a.45.45,0,0,0-.1-.29l-1.57-2a.5.5,0,0,0-.76,0l-1.58,2a.5.5,0,0,0-.09.29V30.45H25.6V14.13h6.45Zm-7.45,0H23.43V20.1a.53.53,0,0,0-.1-.29l-1.58-2a.49.49,0,0,0-.75,0l-1.58,2a.53.53,0,0,0-.1.29V30.45H17.93V14.13H24.6ZM33.05,48V6.36L34.3,4.91l1.25,1.45V48h-2.5Zm-1-36.83v1.92H25.6V11.17Zm-7.45,0v1.92H17.93V11.17ZM11.69,28.66a.51.51,0,0,0,.26-.44v-17h1.49V39.71H8.92V30.19Zm-4.94,12H8.34l.1,0h5v6.85H11.83l-.09,0h-5Zm36.49,6.87H36.55V40.7h5a.45.45,0,0,0,.11,0h1.55Z" fill="#231f20"/></g><g id="be89bbc0-26c3-4b23-bcb0-4c5fb920cafd" data-name="LABELS"><text transform="translate(0 54.92)" font-size="6" fill="#231f20" font-family="Roboto-Regular, Roboto">b<tspan x="3.37" y="0" letter-spacing="-0.01em">o</tspan><tspan x="6.74" y="0" letter-spacing="-0.01em">y</tspan><tspan x="9.54" y="0">d-</tspan><tspan x="14.58" y="0" letter-spacing="-0.01em">t</tspan><tspan x="16.49" y="0">ower</tspan></text></g></svg>