<svg xmlns="http://www.w3.org/2000/svg" viewBox="0 0 50 50"><g id="e6cfbdf8-a225-4fed-99dd-40e45af04172" data-name="ICONS"><path d="M47,27.77l-.51-10.66h-.09l-.52,10.66a.5.5,0,0,1-.5.48H8a.51.51,0,0,1-.5-.48L7,17.28H6.94L6.43,27.77a.5.5,0,0,1-.5.48H4.59v3.16H5.73a.48.48,0,0,1,.36.15.47.47,0,0,1,.14.37L6,37.11H8l-.25-5.18a.55.55,0,0,1,.14-.37.51.51,0,0,1,.36-.15h37a.51.51,0,0,1,.37.15.5.5,0,0,1,.13.37l-.24,5h2l-.24-5a.55.55,0,0,1,.14-.37.48.48,0,0,1,.36-.15h1.17V28.25H47.54A.5.5,0,0,1,47,27.77Z" fill="#fdd600"/><path d="M47.66,25.41H46.4a.38.38,0,0,0,0-.1l-.12-.2-.49-10.36a.51.51,0,0,0-.5-.47h-1a.5.5,0,0,0-.5.47l-.31,6.41C39.08,16.54,32.34,13.73,25,13.73A27.65,27.65,0,0,0,16.61,15a.6.6,0,0,0-.19.06,23.23,23.23,0,0,0-9.86,6.15l-.31-6.31a.49.49,0,0,0-.49-.47h-1a.5.5,0,0,0-.5.47l-.5,10.3a.41.41,0,0,1,0,.09.38.38,0,0,0,0,.1H2.34a.51.51,0,0,0-.51.5v4.16a.5.5,0,0,0,.51.5H3.46l-.25,5.18a.5.5,0,0,0,.13.37.51.51,0,0,0,.37.15H6.76a.51.51,0,0,0,.36-.15.55.55,0,0,0,.14-.37L7,30.57H43l-.24,5a.47.47,0,0,0,.14.37.48.48,0,0,0,.36.15h3a.49.49,0,0,0,.36-.15.55.55,0,0,0,.14-.37l-.24-5h1.14a.5.5,0,0,0,.51-.5V25.91A.51.51,0,0,0,47.66,25.41ZM45.73,35.1h-2l1-19.82h.09Zm-2.4-12.52-.13,2.83H41.26l0-5A20.37,20.37,0,0,1,43.33,22.58ZM9.22,25.41l-.05-5.28a21.32,21.32,0,0,1,3-2.08l.06,7.36Zm4,0-.06-7.9a25.23,25.23,0,0,1,3-1.29l.05,9.19Zm4,0-.05-9.52a24.77,24.77,0,0,1,3-.73l.06,10.25Zm4,0L21.18,15a27.14,27.14,0,0,1,3-.26l0,10.66Zm4,0,0-10.68a29.65,29.65,0,0,1,3,.18l.06,10.5Zm4,0-.06-10.35a26.77,26.77,0,0,1,3,.64l0,9.71Zm4,0,0-9.41a24.6,24.6,0,0,1,3,1.18l.06,8.23Zm4,0,0-7.73a23.82,23.82,0,0,1,3,1.94.09.09,0,0,0,0,.05l0,5.74ZM8.18,21l0,4.4H6.76l-.13-2.74A18.59,18.59,0,0,1,8.18,21ZM6.23,35.27h-2l.95-19.82h.1Zm-3.39-5.7V26.42h.82L3.5,29.57Zm4.12,0-.15-3.15H43.15L43,29.57Zm40.2,0h-.69l-.15-3.15h.84Z" fill="#231f20"/></g><g id="b08ac91f-8589-409f-ae88-414c927747c5" data-name="LABELS"><text transform="translate(-0.34 54.92)" font-size="6" fill="#231f20" font-family="Roboto-Regular, Roboto">bridge</text></g></svg>