<svg id="becac39f-0a5b-43c7-a1d6-2392c0997f44" data-name="ICONS" xmlns="http://www.w3.org/2000/svg" viewBox="0 0 50 50"><path d="M15.73,28.92V33.3a.5.5,0,0,0,.5.5V28.42A.5.5,0,0,0,15.73,28.92Z" fill="none"/><path d="M48.67,4.08A.48.48,0,0,0,48.21,4l-15,5.6L16.41,4l-.13,0h0l-.17,0L.94,9.68a.5.5,0,0,0-.33.47V45.07a.5.5,0,0,0,.22.41.49.49,0,0,0,.28.09.58.58,0,0,0,.19,0l15-5.81,16.83,5.81a.4.4,0,0,0,.15,0h0a.57.57,0,0,0,.18,0l15.14-5.87a.51.51,0,0,0,.32-.47V4.49A.48.48,0,0,0,48.67,4.08Zm-.78,34.78L33.75,44.34V43.07a.5.5,0,1,0-1,0v1.3l-16-5.53V37.2a.5.5,0,0,0-1,0v1.66L1.61,44.34V10.49L15.75,5.21V6.49a.5.5,0,1,0,1,0V5.18l16,5.33v1.64a.5.5,0,0,0,1,0V10.49L47.89,5.21Z"/><path d="M33.25,16.06a.5.5,0,0,0-.5.5V21a.5.5,0,1,0,1,0V16.56A.5.5,0,0,0,33.25,16.06Z"/><path d="M33.25,24.9a.5.5,0,0,0-.5.5v4.42a.5.5,0,0,0,1,0V25.4A.5.5,0,0,0,33.25,24.9Z"/><path d="M16.25,19.15a.5.5,0,0,0-.5.5V24a.5.5,0,0,0,1,0V19.65A.5.5,0,0,0,16.25,19.15Z"/><path d="M16.25,10.38a.5.5,0,0,0-.5.5v4.38a.5.5,0,0,0,1,0V10.88A.5.5,0,0,0,16.25,10.38Z"/><path d="M33.23,34.23a.5.5,0,0,0-.5.5v4.41a.5.5,0,0,0,.5.5.5.5,0,0,0,.5-.5V34.73A.5.5,0,0,0,33.23,34.23Z"/><path d="M16.23,28.42a.5.5,0,0,0-.5.5V33.3a.5.5,0,0,0,.5.5.5.5,0,0,0,.5-.5V28.92A.5.5,0,0,0,16.23,28.42Z"/></svg>