<svg xmlns="http://www.w3.org/2000/svg" viewBox="0 0 50 50"><g id="a468556c-be13-4e4e-baef-1e3ba4ed9263" data-name="ICONS"><path d="M38.78,7.76a.51.51,0,0,1-.44.25.47.47,0,0,1-.25-.07.5.5,0,0,1-.18-.68l.24-.42A3.59,3.59,0,0,0,32.75,10v4.27a.84.84,0,0,1-.82.82h-2V7.93a4.92,4.92,0,0,0-1.11-3.09l.09-.09,1.16-2a.5.5,0,0,0-.19-.68.49.49,0,0,0-.68.18L28.12,4.13A4.85,4.85,0,0,0,25.51,3V.88a.5.5,0,1,0-1,0V3a4.94,4.94,0,0,0-4.44,4.89V26h-2a.84.84,0,0,1-.82-.82V13.92a3.62,3.62,0,0,0-3.33-3.59V8.49a.5.5,0,0,0-.5-.5.5.5,0,0,0-.5.5v1.89a3.57,3.57,0,0,0-1.5.7l-1.3-1.47a.51.51,0,0,0-.71,0,.51.51,0,0,0,0,.71l1.35,1.52A3.61,3.61,0,0,0,10,13.92V25.23a8.07,8.07,0,0,0,8.06,8.05h2V43.83a4.94,4.94,0,0,0,9.87,0V22.29h2a8.07,8.07,0,0,0,8.06-8V10a3.64,3.64,0,0,0-1-2.52ZM18.09,32.28a7.07,7.07,0,0,1-7.06-7V13.92a2.62,2.62,0,0,1,5.24,0v11.3A1.84,1.84,0,0,0,18.09,27h2v5.24ZM28.94,43.83a3.94,3.94,0,0,1-7.87,0V7.93a3.94,3.94,0,1,1,7.87,0v35.9ZM39,14.24a7.06,7.06,0,0,1-7.06,7h-2V16.06h2a1.85,1.85,0,0,0,1.82-1.82V10A2.62,2.62,0,0,1,39,10Z"/><path d="M26.43,9.15a.5.5,0,0,0-.5.5V12a.5.5,0,0,0,1,0V9.65A.5.5,0,0,0,26.43,9.15Z"/><path d="M23.51,20.13a.5.5,0,0,0-.5.5V23a.5.5,0,0,0,.5.5A.5.5,0,0,0,24,23V20.63A.5.5,0,0,0,23.51,20.13Z"/><path d="M35.74,11a.5.5,0,0,0-.5.5v2.32a.5.5,0,0,0,.5.5.5.5,0,0,0,.5-.5V11.53A.5.5,0,0,0,35.74,11Z"/><path d="M14.46,23.06a.5.5,0,0,0-.5.5v2.32a.5.5,0,1,0,1,0V23.56A.5.5,0,0,0,14.46,23.06Z"/><path d="M26.43,31.89a.5.5,0,0,0-.5.5v2.32a.5.5,0,0,0,1,0V32.39A.5.5,0,0,0,26.43,31.89Z"/><path d="M38.09,7.94a.47.47,0,0,0,.25.07.51.51,0,0,0,.44-.25L39,7.45l1-1.7a.5.5,0,0,0-.87-.5l-.92,1.59-.24.42A.5.5,0,0,0,38.09,7.94Z"/></g><g id="bda54756-32d6-42f3-8f93-4d0888e821df" data-name="LABELS"><text transform="translate(-0.44 54.89)" font-size="6" font-family="Roboto-Regular, Roboto">cactus</text></g></svg>