<svg xmlns="http://www.w3.org/2000/svg" viewBox="0 0 50 50"><g id="fd6b96a9-0ca6-4278-8e73-ab285a0e5f8b" data-name="ICONS"><path d="M48.53,7.41H41.37V5.89a2.33,2.33,0,0,0-4.65,0V7.41H13.21V5.89a2.33,2.33,0,0,0-4.65,0V7.41H1a.5.5,0,0,0-.5.5v38a.5.5,0,0,0,.5.5H48.53a.5.5,0,0,0,.5-.5v-38A.5.5,0,0,0,48.53,7.41ZM39.05,4.57a1.32,1.32,0,0,1,1.32,1.32V8.56a1.33,1.33,0,0,1-2.65,0V5.89A1.32,1.32,0,0,1,39.05,4.57Zm-28.16,0a1.32,1.32,0,0,1,1.32,1.32V8.56a1.33,1.33,0,0,1-2.65,0V5.89A1.33,1.33,0,0,1,10.89,4.57ZM8.56,8.41v.15a2.33,2.33,0,0,0,4.65,0V8.41H36.72v.15a2.33,2.33,0,0,0,4.65,0V8.41H48v5.83H1.47V8.41Zm-7.09,37V15.24H48V45.43Z"/><path d="M43.52,19H6a.5.5,0,0,0-.5.5V41.16a.5.5,0,0,0,.5.5H43.52a.5.5,0,0,0,.5-.5V19.47A.5.5,0,0,0,43.52,19Zm-37,8.34H13v6H6.48Zm7.52,0h6.5v6H14Zm14-1H21.5V20H28ZM29,20h6.5v6.34H29Zm-1,7.34v6H21.5v-6Zm-7.5-1H14V20h6.5Zm0,8v6.34H14V34.32Zm1,0H28v6.34H21.5Zm7.5,0h6.5v6.34H29Zm0-1v-6h6.5v6Zm7.5-6H43v6H36.5Zm6.52-1H36.5V20H43ZM13,20v6.34H6.48V20ZM6.48,34.32H13v6.34H6.48Zm30,6.34V34.32H43v6.34Z"/></g><g id="bbfe81b0-436f-44a6-8e0d-bf67022e6bcc" data-name="LABELS"><text transform="translate(-0.31 55.01)" font-size="6" font-family="Roboto-Regular, Roboto">calendar</text></g></svg>