<svg id="bca67745-63a9-4403-a19d-e07defb94492" data-name="ICONS" xmlns="http://www.w3.org/2000/svg" viewBox="0 0 50 50"><path d="M45,13.32H35.05L33.28,7.63a.5.5,0,0,0-.48-.35L16.65,7.21h0a.49.49,0,0,0-.47.36l-1.72,5.75h-2v-2.1a.5.5,0,0,0-.5-.5H4.71a.5.5,0,0,0-.5.5v2.14a4.32,4.32,0,0,0-4,4.31V37.94a4.35,4.35,0,0,0,4.34,4.35H45a4.35,4.35,0,0,0,4.34-4.35V17.67A4.35,4.35,0,0,0,45,13.32ZM17,8.22l15.41.06,1.57,5H15.49ZM5.21,11.72h6.21v1.6H5.21Zm-4,10.13H13.71A11.77,11.77,0,0,0,13,32.14H1.2Zm23.55-5.31A11.47,11.47,0,0,1,36.39,27.8,11.47,11.47,0,0,1,24.75,39.07,11.47,11.47,0,0,1,13.11,27.8,11.47,11.47,0,0,1,24.75,16.54ZM48.3,37.94A3.35,3.35,0,0,1,45,41.29H4.54A3.35,3.35,0,0,1,1.2,37.94v-4.8H13.39a12.78,12.78,0,0,0,22.72,0H48.3Zm0-5.8H36.55a11.77,11.77,0,0,0-.76-10.29H48.3Zm0-11.29H35.15a12.84,12.84,0,0,0-20.8,0H1.2V17.67a3.35,3.35,0,0,1,3.34-3.35H45a3.35,3.35,0,0,1,3.34,3.35Z"/><path d="M24.75,18.66a9.3,9.3,0,0,0-9.42,9.14,9.42,9.42,0,0,0,18.84,0A9.3,9.3,0,0,0,24.75,18.66Zm0,17.29a8.3,8.3,0,0,1-8.42-8.15,8.29,8.29,0,0,1,8.42-8.14,8.29,8.29,0,0,1,8.42,8.14A8.3,8.3,0,0,1,24.75,36Z"/><path d="M27,22.93a5.07,5.07,0,0,1,3.49,4.87.5.5,0,0,0,.5.5h0a.49.49,0,0,0,.5-.49,6.15,6.15,0,0,0-1.21-3.7,6.22,6.22,0,0,0-3-2.13.5.5,0,0,0-.63.32A.51.51,0,0,0,27,22.93Z"/><path d="M28.42,10.27H21.08a.5.5,0,0,0,0,1h7.34a.5.5,0,0,0,0-1Z"/></svg>