<svg xmlns="http://www.w3.org/2000/svg" viewBox="0 0 50 50"><g id="b4f885ed-e99c-4055-9455-081ee205c247" data-name="ICONS"><path d="M6,9.9V36.46H47V9.9ZM20,24.47a23.36,23.36,0,0,0-8.58,0,22,22,0,0,0-2.68.78,6,6,0,0,1-.4-2.13,5.92,5.92,0,0,1,11.83,0A6.21,6.21,0,0,1,20,24.47Z" fill="#fdd600"/><path d="M48.38,49.11,42.18,36H46a.5.5,0,0,0,.5-.5V7.9a.5.5,0,0,0-.5-.5H28.72L25.45.46l0-.06L25.35.32,25.26.25l-.05,0s0,0,0,0l-.11,0H25l-.1,0-.09,0s0,0,0,0l-.06,0-.08.06a.28.28,0,0,0-.06.09.1.1,0,0,0,0,.05L21.28,7.4H4a.5.5,0,0,0-.5.5V35.46A.5.5,0,0,0,4,36h3.8L1.62,49.11a.51.51,0,0,0,.24.67.54.54,0,0,0,.22,0,.51.51,0,0,0,.45-.29L8.93,36H24.5V49.33a.5.5,0,0,0,1,0V36H41.07l6.4,13.58a.51.51,0,0,0,.45.29.54.54,0,0,0,.22,0A.51.51,0,0,0,48.38,49.11ZM25,1.84,27.62,7.4H22.38ZM4.52,8.4h41V27.79a33.57,33.57,0,0,1-11,.12,20.16,20.16,0,0,1-2.16-.46v-4l1.61,1.4a.46.46,0,0,0,.33.13.5.5,0,0,0,.37-.17.51.51,0,0,0-.05-.71l-2.26-2V20l1.61,1.41a.5.5,0,0,0,.7-.05.51.51,0,0,0-.05-.71l-2.26-2v-.7a.5.5,0,0,0-1,0v.69L29,20.6a.51.51,0,0,0-.05.71.52.52,0,0,0,.38.17.5.5,0,0,0,.33-.13l1.6-1.4v2.2l-2.26,2a.49.49,0,0,0-.05.7.48.48,0,0,0,.38.17.54.54,0,0,0,.33-.12l1.6-1.4v3.69c-.63-.18-1.43-.4-2.63-.71-2.81-.73-5.3-1.37-7.63-1.81a6.66,6.66,0,0,0,.19-1.56A6.92,6.92,0,1,0,7.85,25.58a23,23,0,0,0-3.33,1.74ZM20.21,23.09A6.21,6.21,0,0,1,20,24.47a23.36,23.36,0,0,0-8.58,0,22,22,0,0,0-2.68.78,6,6,0,0,1-.4-2.13,5.92,5.92,0,0,1,11.83,0ZM4.52,35V28.5a20,20,0,0,1,7.14-3.07c5.07-1.05,9.71.16,16.74,2,1.31.34,2.16.58,2.81.76a19.44,19.44,0,0,0,3.08.7,33.34,33.34,0,0,0,5.3.42,35.67,35.67,0,0,0,5.89-.5V35Z" fill="#231f20"/><path d="M38.17,24.8a.51.51,0,0,0-.05.71.52.52,0,0,0,.38.17.5.5,0,0,0,.33-.13l1.6-1.4v4.07h1V24.15L43,25.56a.5.5,0,0,0,.7,0,.51.51,0,0,0,0-.71l-2.27-2v-2.2L43,22a.5.5,0,0,0,.66-.75l-2.27-2v-.69a.5.5,0,0,0-1,0v.69l-2.26,2a.51.51,0,0,0-.05.71.52.52,0,0,0,.38.17.54.54,0,0,0,.33-.12l1.6-1.4v2.19Z" fill="#231f20"/></g><g id="acb7dd30-424b-4c9c-8dff-c664ef19f0e8" data-name="LABELS"><text transform="translate(0 54.84)" font-size="6" fill="#231f20" font-family="Roboto-Regular, Roboto">can<tspan x="9.71" y="0" letter-spacing="-0.01em">v</tspan><tspan x="12.58" y="0">as-displ</tspan><tspan x="33.35" y="0" letter-spacing="-0.01em">a</tspan><tspan x="36.57" y="0">y</tspan></text></g></svg>