<svg id="b6177b4a-1301-4cf6-a3d1-25e1d5aded39" data-name="ICONS" xmlns="http://www.w3.org/2000/svg" viewBox="0 0 50 50"><path d="M47.84,16a10.19,10.19,0,0,0-5.77-2.83,9.78,9.78,0,0,0,1.74-6.7.49.49,0,0,0-.45-.44,10.14,10.14,0,0,0-6.82,1.72,9.8,9.8,0,0,0-2.88-5.69A.5.5,0,0,0,33,2,9.72,9.72,0,0,0,28.81,12.9a6.55,6.55,0,0,0-.89-.05,8.49,8.49,0,0,0-6.05,2.51,8.87,8.87,0,0,0-.78.9s-.43.62-.59.9L2.29,44.83a1.57,1.57,0,0,0,.2,2,1.57,1.57,0,0,0,2,.2L32.14,28.85c.31-.18.93-.61.93-.61l0,0a8.4,8.4,0,0,0,.86-.75,8.5,8.5,0,0,0,2.51-6.05c0-.24,0-.48,0-.71a9.94,9.94,0,0,0,3,.47,9.16,9.16,0,0,0,1-.05,10,10,0,0,0,7.38-4.46A.51.51,0,0,0,47.84,16Zm-5-9a8.73,8.73,0,0,1-2.62,6.82,9,9,0,0,1-5.41,2.53,7.26,7.26,0,0,0-.85-1,7,7,0,0,0-.64-.58,8.76,8.76,0,0,1,2.56-5.2A9.09,9.09,0,0,1,42.85,7ZM29.49,9.39a8.82,8.82,0,0,1,3.75-6.3A8.78,8.78,0,0,1,35.61,8.5c-.14.12-.29.24-.42.37a9.72,9.72,0,0,0-2.77,5.26,8.55,8.55,0,0,0-2.52-1A8.71,8.71,0,0,1,29.49,9.39Zm5.06,15.66-5.48-5.48a.5.5,0,0,0-.71.71L34,25.9a7.35,7.35,0,0,1-.72.85,7.76,7.76,0,0,1-.73.64l-.06,0c-.09.06-.58.4-.86.56L24,33l-4.44-4.44a.49.49,0,0,0-.7.7l4.29,4.3L12.84,40.35l-2.07-2.08a.5.5,0,1,0-.71.71L12,40.91l-8,5.3a.56.56,0,0,1-.74-.08.57.57,0,0,1-.08-.75l9-13.62,2.74,2.74a.5.5,0,0,0,.35.15.51.51,0,0,0,.36-.15.51.51,0,0,0,0-.71L12.65,30.9l6.78-10.3,4.05,4a.5.5,0,0,0,.36.14.49.49,0,0,0,.35-.14.51.51,0,0,0,0-.71L20,19.75l1.36-2.07c.16-.28.56-.84.56-.85a9.74,9.74,0,0,1,.67-.77,7.57,7.57,0,0,1,10.69,0,7.55,7.55,0,0,1,2.21,5.35A7.63,7.63,0,0,1,34.55,25.05Zm5.87-4.93a9,9,0,0,1-4.14-.54,8.12,8.12,0,0,0-.86-2.29,10,10,0,0,0,5.52-2.75c.13-.13.25-.27.37-.41a9.07,9.07,0,0,1,5.52,2.32A9,9,0,0,1,40.42,20.12Z"/></svg>