<svg xmlns="http://www.w3.org/2000/svg" viewBox="0 0 50 50"><g id="ac4e6f6c-8624-4a71-90df-f47d54952cdd" data-name="ICONS"><path d="M42,4.61H34.22a2.93,2.93,0,0,0-2.81-2.17H27.7a2.85,2.85,0,0,0-5.6,0H18.39a2.93,2.93,0,0,0-2.81,2.17H7.5a.5.5,0,0,0-.5.5V48.9a.5.5,0,0,0,.5.5H42a.5.5,0,0,0,.5-.5V5.11A.5.5,0,0,0,42,4.61ZM18.39,3.44h4.17a.5.5,0,0,0,.5-.5,1.85,1.85,0,0,1,3.69,0,.5.5,0,0,0,.5.5h4.16a1.93,1.93,0,0,1,1.92,1.93v1H16.47v-1A1.93,1.93,0,0,1,18.39,3.44Zm23.11,45H8V5.61h7.47v1.3a.51.51,0,0,0,.5.5H33.83a.5.5,0,0,0,.5-.5V5.61H41.5Z"/><path d="M19.51,11.88a.49.49,0,0,0-.68.18l-.57,1-4,6.89-2.06-2.52,0,0a.5.5,0,0,0-.7-.07.52.52,0,0,0-.07.71l2.54,3.1a.46.46,0,0,0,.38.18h0a.49.49,0,0,0,.39-.24l5-8.48A.49.49,0,0,0,19.51,11.88Z"/><path d="M19.44,23.08a.49.49,0,0,0-.68.18l-.57,1-4,6.89L12.11,28.6l0,0a.5.5,0,0,0-.78.63l2.54,3.11a.49.49,0,0,0,.38.18h0a.51.51,0,0,0,.4-.25l5-8.47A.51.51,0,0,0,19.44,23.08Z"/><path d="M23.4,15.05a.5.5,0,0,0,0,1H38a.5.5,0,0,0,0-1Z"/><path d="M38,28.25a.5.5,0,0,0,.5-.5.51.51,0,0,0-.5-.5H23.34a.5.5,0,0,0-.5.5.5.5,0,0,0,.5.5Z"/><path d="M23.63,39.8a.5.5,0,0,0-.5.5.5.5,0,0,0,.5.5H38.26a.5.5,0,0,0,.5-.5.5.5,0,0,0-.5-.5Z"/><path d="M18.43,36.81h-6a.5.5,0,0,0-.5.5v6a.5.5,0,0,0,.5.5h6a.5.5,0,0,0,.5-.5v-6A.5.5,0,0,0,18.43,36.81Zm-.5,6H13v-5h5Z"/></g><g id="e55a30d6-95c8-49b5-8b70-64c019ed54d8" data-name="LABELS"><text transform="translate(0.64 54.74)" font-size="6" font-family="Roboto-Regular, Roboto">checklist</text></g></svg>