<svg xmlns="http://www.w3.org/2000/svg" viewBox="0 0 50 50"><g id="fde7b824-9a00-4a19-9010-3e180983e7b6" data-name="ICONS"><path d="M18.07,24.94c4-4.78,5.83-14.1,6.46-18A2.92,2.92,0,0,0,24,4.8a2.92,2.92,0,0,0-4.08-.67A2.94,2.94,0,0,0,18.74,6c-1,6.33-3.3,13-5.14,15.23-1.07-2-1.67-6.87-2.29-12-.26-2.07-.52-4.21-.83-6.35A2.88,2.88,0,0,0,9.34,1,2.86,2.86,0,0,0,7.17.43,2.94,2.94,0,0,0,4.68,3.74c.17,1.16.29,2.62.44,4.31.45,5.29,1,12.48,3.73,16.52-3.56,4.36-4.44,13.17-5,18.49-.07.62-.13,1.2-.18,1.71a2.93,2.93,0,1,0,5.82.64c1-9.12,2.31-15.11,3.71-17,.94.89,2.82,3.06,5.44,7.88a56.29,56.29,0,0,1,4.11,9.47l.13.39c.34.89,1,2.75,2.9,2.75a2.93,2.93,0,0,0,2.93-2.93c0-3.31-4.59-11.87-4.79-12.23A42.89,42.89,0,0,0,18.07,24.94Zm7.74,22.91c-1,0-1.48-.84-2-2.09l-.12-.37a57.85,57.85,0,0,0-4.18-9.63c-3-5.52-5.08-7.69-6.05-8.5L13.16,27l-.33.31c-1.72,1.65-3.17,7.72-4.3,18A1.93,1.93,0,0,1,6.61,47H6.4a1.94,1.94,0,0,1-1.71-2.13c.06-.52.12-1.1.18-1.72.53-5.32,1.43-14.22,5-18.22l.26-.3-.23-.33C7.18,20.56,6.56,13.28,6.11,8,6,6.26,5.84,4.79,5.67,3.6A1.93,1.93,0,0,1,7.31,1.42a1.88,1.88,0,0,1,1.43.36,1.91,1.91,0,0,1,.75,1.27c.31,2.13.57,4.27.82,6.33.77,6.28,1.38,11.24,2.83,13l.33.4.39-.34c2.37-2.09,4.84-9.9,5.87-16.24a1.91,1.91,0,0,1,.78-1.26,1.95,1.95,0,0,1,2.69.44,1.94,1.94,0,0,1,.34,1.44c-.49,3-2.4,13.21-6.51,17.8l-.31.35.32.33a40.76,40.76,0,0,1,6,8.86c1.88,3.48,4.67,9.49,4.67,11.76A1.93,1.93,0,0,1,25.81,47.85Z"/><path d="M45.55,43.5c-.48-4-1.6-11-3.73-14.78,1.93-2.87,2.23-8.16,2.45-12.06,0-.94.1-1.8.17-2.51a2.22,2.22,0,0,0-1.75-2.47,2.06,2.06,0,0,0-2.22,2c-.08.86-.15,1.73-.23,2.57-.34,3.93-.7,8-1.41,9.5-.37-.29-.72-.59-1.95-3.24a40.09,40.09,0,0,1-2.57-9.19,2,2,0,1,0-4,0c0,1.93,1.9,8.84,2.94,11.11h0a12.24,12.24,0,0,0,2.25,3.79l.21.25c-1.93,2.85-2.35,7.72-2.63,11-.06.78-.12,1.44-.19,1.93A2.25,2.25,0,0,0,34.55,44a1.77,1.77,0,0,0,1.4-.31,2.31,2.31,0,0,0,.9-1.56c.12-.87.23-1.77.34-2.66.38-3,.81-6.4,1.51-7.93.95,2,2.21,6.94,2.91,12.62a2.3,2.3,0,0,0,.87,1.57,1.87,1.87,0,0,0,1.1.37l.3,0A2.23,2.23,0,0,0,45.55,43.5Zm-1.84,1.55a.84.84,0,0,1-.63-.16A1.29,1.29,0,0,1,42.6,44c-.74-6-2.26-12.06-3.46-13.76l-.34-.5-.42.44c-1.19,1.23-1.65,4.89-2.18,9.12-.11.89-.22,1.79-.34,2.66a1.27,1.27,0,0,1-.5.88.78.78,0,0,1-.62.14,1.26,1.26,0,0,1-.84-1.45c.07-.5.13-1.19.2-2,.26-3.09.7-8.25,2.66-10.8l.24-.32-.26-.31-.46-.55A11.32,11.32,0,0,1,34.18,24c-1-2.09-2.85-8.94-2.85-10.69a1.15,1.15,0,0,1,1-1.26,1.16,1.16,0,0,1,1,1.29A40.44,40.44,0,0,0,36,22.93c1.29,2.8,1.69,3.19,2.27,3.63a3.8,3.8,0,0,1,.35.29l.38.37.34-.39c1-1.18,1.41-4.76,1.92-10.49.07-.85.15-1.71.23-2.57a1.11,1.11,0,0,1,1-1.11h.1a1.23,1.23,0,0,1,.89,1.39c-.07.72-.12,1.58-.17,2.54-.22,3.9-.52,9.25-2.44,11.79l-.21.27.18.29c2.21,3.62,3.37,11.46,3.76,14.67A1.26,1.26,0,0,1,43.71,45.05Z"/></g><g id="a61f62c6-5685-451f-99f2-ed834366517f" data-name="LABELS"><text transform="translate(0.33 55.11)" font-size="6" font-family="Roboto-Regular, Roboto">ch<tspan x="6.45" y="0" letter-spacing="-0.01em">r</tspan><tspan x="8.42" y="0">omosomes</tspan></text></g></svg>