<svg id="ac2efe16-4fb4-4613-bc26-f9a25bb47d1a" data-name="ICONS" xmlns="http://www.w3.org/2000/svg" viewBox="0 0 50 50"><path d="M40.47,32.14a.47.47,0,0,1-.12-.32l0-6.66L26.46,14.73l-14,10.51v6.5a.47.47,0,0,1-.12.32L6.82,38.64V49h5.07l29,0h5.07V38.62ZM28,47.16l-6.31.05V33.85a3.16,3.16,0,0,1,6.31,0Z" fill="#fdd600"/><path d="M45.06,36.36,39.6,29.89l0-6.07h4.3a.5.5,0,0,0,.47-.33.51.51,0,0,0-.16-.56L25.1,8V4.87h1.33a.5.5,0,0,0,.5-.5.5.5,0,0,0-.5-.5H25.1V2.26a.5.5,0,0,0-.5-.5.51.51,0,0,0-.5.5V3.87H22.78a.5.5,0,0,0-.5.5.5.5,0,0,0,.5.5H24.1V8.12L5.25,22.93a.51.51,0,0,0-.16.56.5.5,0,0,0,.47.33H9.72v6L4.19,36.38a.47.47,0,0,0-.12.32v11a.5.5,0,0,0,.5.5h5.57l24.45,0c2.48,0,3.72,0,4.36-.06a.43.43,0,0,0,.16.05h5.57a.5.5,0,0,0,.5-.5v-11A.5.5,0,0,0,45.06,36.36ZM24.72,8.91l17.7,13.91h-3s0-.05-.05-.06l-9.26-7-5-3.92a.5.5,0,0,0-.61,0l-10.1,7.62L10,22.82H7Zm-19.65,28,4.67-5.54,0,15.89H5.07Zm16.6,10.32V33.85a3.16,3.16,0,0,1,6.31,0V47.16Zm7.31,0V33.85a4.16,4.16,0,0,0-8.31,0V47.23H10.76l0-17.1s0-.05,0-.07,0-.05,0-.08V23.51l4.22-3.19L24.71,13l4.8,3.61,9.06,7.05,0,6.44a.06.06,0,0,0,0,0,0,0,0,0,0,0,0l.07,17.08Zm15.2,0H39.67L39.6,31.44l4.58,5.43Z" fill="#231f20"/></svg>