<svg xmlns="http://www.w3.org/2000/svg" viewBox="0 0 50 50"><g id="f0556e45-5d5b-405f-8e8e-3d94f0a92b79" data-name="ICONS"><path d="M26.25,2.68a23.57,23.57,0,0,0-2.34,47,22.88,22.88,0,0,0,4.68,0,23.57,23.57,0,0,0-2.34-47Zm-1.5,40.81A18.74,18.74,0,1,1,43.49,24.75,18.77,18.77,0,0,1,24.75,43.49Z" fill="#fdd600"/><path d="M25.25,23.44a1.81,1.81,0,1,0,1.81,1.81A1.81,1.81,0,0,0,25.25,23.44Z" fill="#fdd600"/><path d="M22.41,48.2a22.88,22.88,0,0,0,4.68,0,22.88,22.88,0,0,1-4.68,0Z" fill="none"/><path d="M24.75.18A24.57,24.57,0,1,0,49.32,24.75,24.6,24.6,0,0,0,24.75.18Zm2.34,48a22.88,22.88,0,0,1-4.68,0,23.57,23.57,0,1,1,4.68,0Z" fill="#231f20"/><path d="M24.75,1.18a23.57,23.57,0,0,0-2.34,47,23.57,23.57,0,1,1,4.68,0,23.57,23.57,0,0,0-2.34-47Z" fill="#231f20"/><path d="M24.75,5A19.74,19.74,0,1,0,44.49,24.75,19.77,19.77,0,0,0,24.75,5Zm0,38.48A18.74,18.74,0,1,1,43.49,24.75,18.77,18.77,0,0,1,24.75,43.49Z" fill="#231f20"/><path d="M24.75,11.14a.5.5,0,0,0,.5-.5V8.34a.5.5,0,0,0-1,0v2.3A.5.5,0,0,0,24.75,11.14Z" fill="#231f20"/><path d="M12.83,13.21a.49.49,0,0,0-.7,0,.48.48,0,0,0,0,.7l1.7,1.56a.46.46,0,0,0,.33.13.5.5,0,0,0,.34-.86Z" fill="#231f20"/><path d="M24.75,38.36a.5.5,0,0,0-.5.5v2.3a.5.5,0,0,0,1,0v-2.3A.5.5,0,0,0,24.75,38.36Z" fill="#231f20"/><path d="M10.5,24.25H8.19a.5.5,0,1,0,0,1H10.5a.5.5,0,0,0,0-1Z" fill="#231f20"/><path d="M41.14,24.25H38.83a.5.5,0,0,0,0,1h2.31a.5.5,0,0,0,0-1Z" fill="#231f20"/><path d="M35.44,33.94a.51.51,0,0,0-.71,0,.5.5,0,0,0,0,.71l1.7,1.56a.48.48,0,0,0,.34.13.46.46,0,0,0,.36-.16.5.5,0,0,0,0-.71Z" fill="#231f20"/><path d="M13.86,33.94l-1.7,1.56a.5.5,0,0,0,0,.71.49.49,0,0,0,.37.16.46.46,0,0,0,.33-.13l1.7-1.56a.5.5,0,0,0,0-.71A.5.5,0,0,0,13.86,33.94Z" fill="#231f20"/><path d="M36.46,13.21l-1.7,1.57a.49.49,0,0,0,0,.7.49.49,0,0,0,.37.16.5.5,0,0,0,.34-.13L37.13,14a.48.48,0,0,0,0-.7A.49.49,0,0,0,36.46,13.21Z" fill="#231f20"/><path d="M30.17,29.28,27,26.39a2.85,2.85,0,0,0,.54-1.64A2.79,2.79,0,0,0,25.25,22l0-6.71a.5.5,0,0,0-.5-.5h0a.5.5,0,0,0-.5.5l0,6.71a2.8,2.8,0,0,0,.5,5.56,2.76,2.76,0,0,0,1.55-.48L29.49,30a.55.55,0,0,0,.34.13A.54.54,0,0,0,30.2,30,.5.5,0,0,0,30.17,29.28Zm-5.42-2.72a1.81,1.81,0,1,1,1.81-1.81A1.81,1.81,0,0,1,24.75,26.56Z" fill="#231f20"/></g><g id="ac8aa0b4-3661-444c-a559-3cc41f167d5f" data-name="LABELS"><text transform="translate(0.17 55.02)" font-size="6" fill="#231f20" font-family="Roboto-Regular, Roboto">clock</text></g></svg>