<svg id="bcc60b21-8bad-4013-8518-368002b8e132" data-name="ICONS" xmlns="http://www.w3.org/2000/svg" viewBox="0 0 50 50"><path d="M41.61,25.8a7.37,7.37,0,0,0-3.69,1,.5.5,0,0,1-.46,0,.51.51,0,0,1-.3-.34A12.88,12.88,0,0,0,12,27.66a.52.52,0,0,1-.62.43,6.12,6.12,0,0,0-1.42-.16A6.52,6.52,0,0,0,3.77,36.7l44.41,0A7.46,7.46,0,0,0,41.61,25.8Z" fill="#fdd600"/><path d="M39.86,23a8.54,8.54,0,0,0-3.62.81,13.91,13.91,0,0,0-27,1.4,7,7,0,0,0-1.12-.08,7.56,7.56,0,0,0-7,10.51.51.51,0,0,0,.47.31l45.06,0h0a.5.5,0,0,0,.44-.25A8.46,8.46,0,0,0,39.86,23Zm6.57,12L2,35a6.52,6.52,0,0,1,6.14-8.77,6.12,6.12,0,0,1,1.42.16.52.52,0,0,0,.62-.43,12.88,12.88,0,0,1,25.21-1.19.51.51,0,0,0,.3.34.5.5,0,0,0,.46,0,7.37,7.37,0,0,1,3.69-1,7.46,7.46,0,0,1,6.57,11Z" fill="#231f20"/></svg>