<svg xmlns="http://www.w3.org/2000/svg" viewBox="0 0 50 50"><g id="a40066b3-d40b-4b5a-96b7-1b8ec72a7ddb" data-name="ICONS"><path d="M38.54,44.44h0Z"/><polygon points="49.15 34.52 49.15 34.52 49.15 34.52 49.15 34.52"/><polygon points="38.16 34.37 38.16 34.37 38.16 34.37 38.16 34.37"/><path d="M38.56,44.44h-.11l0,0h0Z"/><path d="M8.78,23.55a12.7,12.7,0,0,0-5.55,8.11.5.5,0,0,0,.38.58h.1a.5.5,0,0,0,.49-.39,11.71,11.71,0,0,1,1.65-4,12,12,0,0,1,3.47-3.47.49.49,0,0,0-.54-.82Z"/><path d="M49.79,27.17a.55.55,0,0,0-.06-.22c-.45-1.56-5.5-1.62-6.1-1.62a21,21,0,0,0-4.07.41c-2.49-3.74-6.87-6.63-12.2-7.93l.32-4.87a9.16,9.16,0,0,0,1.83-6.4A4.47,4.47,0,0,0,27.9,3.23c-1.66-1.1-4.29-.32-5.78,1a5.13,5.13,0,0,0-1.2,1.67c-.22.44-.3.56-.45.59s-.63-.33-1.16-1a5.66,5.66,0,0,0-2.89-2.22,4.64,4.64,0,0,0-4.71,1.51c-1.82,2.52,1,6.53,1.56,7.31a10.27,10.27,0,0,0,1.08,1.2l.35,4.44c-8.39,2-14.49,8-14.49,15,0,5,3.19,9.73,8.53,12.68l.11.07H27.36a5,5,0,0,0,8.58-1.84,19.93,19.93,0,0,0,1.53-1.35v2s0,0,0,0a.24.24,0,0,0,0,.08c0,1.78,5.53,1.84,6.16,1.84s6.17-.06,6.17-1.84c0,0,0,0,0-.06s0,0,0-.05Zm-6.16-.85c2.89,0,4.74.52,5.12.85-.38.34-2.23.86-5.12.86s-4.74-.52-5.12-.86C38.89,26.84,40.73,26.32,43.63,26.32ZM12.51,5.41a3.51,3.51,0,0,1,2.77-1.24,3.8,3.8,0,0,1,.89.11,4.85,4.85,0,0,1,2.38,1.89c.62.77,1.2,1.5,2.1,1.32.66-.12.91-.62,1.15-1.11a4.25,4.25,0,0,1,1-1.39c1.21-1.1,3.34-1.74,4.56-.93a3.54,3.54,0,0,1,1.18,2.6,8.27,8.27,0,0,1-1.6,5.63,29,29,0,0,0-4.14-.54l.78-1.89a.51.51,0,0,0-.27-.65.49.49,0,0,0-.64.27l-.92,2.22c-.37,0-.75,0-1.12,0h-.26l-.88-2.12a.5.5,0,0,0-.65-.26.48.48,0,0,0-.26.64l.74,1.78a30.42,30.42,0,0,0-4.57.61,8.57,8.57,0,0,1-.68-.79C13.75,11.14,11.06,7.42,12.51,5.41ZM23,17.14h0c-.64,0-1.29-.08-1.94-.08a27.29,27.29,0,0,0-5.33.54l-.34-4.36a29.51,29.51,0,0,1,5.3-.55,28.58,28.58,0,0,1,6.05.56l-.29,4.37A26.76,26.76,0,0,0,23,17.14ZM31.15,46.3a4,4,0,1,1,4-4A4,4,0,0,1,31.15,46.3ZM37.53,27a.55.55,0,0,0-.06.22V40.94a14.53,14.53,0,0,1-1.31,1.29,5,5,0,0,0-10,0,4.92,4.92,0,0,0,.57,2.26H9.1c-5-2.82-7.9-7.1-7.9-11.76,0-7.4,7.38-13.53,17-14.56l-.9,1.5a.49.49,0,0,0,.17.68.45.45,0,0,0,.25.07.49.49,0,0,0,.42-.24l1.27-2.12c.54,0,1.09-.06,1.64-.06s1.09,0,1.62.06l1.44,2.09a.48.48,0,0,0,.4.21.54.54,0,0,0,.28-.08.5.5,0,0,0,.13-.69l-1-1.42c6.41.71,11.82,3.7,14.69,7.83A1.62,1.62,0,0,0,37.53,27Zm.63,7.42h0Zm10.64,9h0v1h-.1l.06,0c-.38.33-2.23.85-5.14.85s-4.76-.52-5.13-.85h0l0,0V42a18,18,0,0,0,5,.83h.33a18.2,18.2,0,0,0,5-.71Zm0-2.32a17,17,0,0,1-10.35-.13V38.5a18,18,0,0,0,5,.81h.33a17.9,17.9,0,0,0,5-.73Zm0-3.51a16.63,16.63,0,0,1-5.34.76,16.92,16.92,0,0,1-5-.85V35a17.69,17.69,0,0,0,5.1.85h.32a18.15,18.15,0,0,0,4.92-.69Zm0-3.45a16.8,16.8,0,0,1-5.22.72A17.15,17.15,0,0,1,38.46,34V31.49a17.82,17.82,0,0,0,5.07.84h.33a18,18,0,0,0,4.94-.7Zm0-3.5a16.66,16.66,0,0,1-5.25.73,17.2,17.2,0,0,1-5.09-.87V28.26a16.17,16.17,0,0,0,5.17.75,16.2,16.2,0,0,0,5.17-.75Zm.35,3.91Z"/><path d="M21.41,30.72c-1.37-.39-1.86-.6-1.86-1.32s.43-1.08,1.3-1.08a1.55,1.55,0,0,1,1,.32,1.45,1.45,0,0,1,.45.94h1.94a2.81,2.81,0,0,0-2.85-2.73V25.57h-1v1.27a2.77,2.77,0,0,0-2.86,2.75c0,1.4.77,2.21,3,2.83,1.41.4,1.94.76,1.94,1.64,0,.69-.39,1.17-1.49,1.17a1.62,1.62,0,0,1-1.75-1.46H17.34a3.06,3.06,0,0,0,3.1,3V38h1V36.73c2.17-.17,3.1-1.43,3.1-2.9S23.89,31.45,21.41,30.72Z"/></g><g id="bd607d78-852b-419a-b654-5fe92fc239d7" data-name="LABELS"><text transform="translate(0.47 55.09)" font-size="6" font-family="Roboto-Regular, Roboto">coins</text></g></svg>