<svg id="f24d728e-cb5c-4e4f-91f0-13b02382819e" data-name="ICONS" xmlns="http://www.w3.org/2000/svg" viewBox="0 0 50 50"><path d="M48.11,3a.5.5,0,0,0-.5-.5h-46a.51.51,0,0,0-.35.15A.49.49,0,0,0,1.14,3V8a.47.47,0,0,0,.15.35.47.47,0,0,0,.35.15h6v4.12a.5.5,0,0,0,.5.5h2.74L11,39.23a.59.59,0,0,0,.07.26l4.8,7.78a.52.52,0,0,0,.43.24l.14,0a.5.5,0,0,0,.36-.48V13.14H21.6V42a.54.54,0,0,0,0,.22L24,46.87a.5.5,0,0,0,.44.28.47.47,0,0,0,.45-.27l2.48-4.59a.48.48,0,0,0,.06-.24V13.14h4.69V47a.49.49,0,0,0,.37.48.49.49,0,0,0,.56-.21l4.8-7.68a.48.48,0,0,0,.07-.26V13.13h3.16A.5.5,0,0,0,41.4,13a.49.49,0,0,0,.15-.36V8.52h6.06a.5.5,0,0,0,.5-.5ZM15.83,45.24,12,39.09l-.17-25.95h4ZM26.4,41.93l-2,3.63L22.6,41.88V13.14h3.8Zm6.69,3.32V13.14h3.8v26Zm4.3-33.12H8.62V8.52H40.55v3.61Zm3.66-4.61H2.14v-4h45v4Z"/></svg>