<svg id="ed2ed3fb-8ffa-4931-9206-f9df98ed5b82" data-name="ICONS" xmlns="http://www.w3.org/2000/svg" viewBox="0 0 50 50"><path d="M48.35,3.22H1.15a.57.57,0,0,0-.57.58V36.56a.56.56,0,0,0,.57.57H21.82V42.2H13.37a.5.5,0,0,0-.5.5v3.08a.5.5,0,0,0,.5.5H36.13a.5.5,0,0,0,.5-.5V42.7a.5.5,0,0,0-.5-.5H27.68V37.13H48.35a.57.57,0,0,0,.57-.57V3.8A.58.58,0,0,0,48.35,3.22ZM35.63,45.28H13.87V43.2H35.63Zm-9-3.08H22.82V37.13h3.86Zm21.24-6.07H1.58V4.22H47.92Z"/><path d="M44.66,7H4.84a.5.5,0,0,0-.5.5V31.66a.5.5,0,0,0,.5.5H44.66a.5.5,0,0,0,.5-.5V7.54A.5.5,0,0,0,44.66,7Zm-.5,24.12H5.34V8H44.16Z"/><circle cx="24.75" cy="34.09" r="1.07"/></svg>