<svg xmlns="http://www.w3.org/2000/svg" viewBox="0 0 50 50"><g id="bea95606-9e9f-4ae0-afc0-426057a80882" data-name="ICONS"><path d="M26.5,15A15.55,15.55,0,1,0,42.05,30.5,15.56,15.56,0,0,0,26.5,15Zm3.4,19-6.64-2.43h0l-.54-.2-.2-.54h0l-2.43-6.64h0l2.39.88,4.25,1.55h0l.62.23,2.57,7.16Z" fill="#fdd600"/><path d="M26.69,28a2,2,0,0,1-.32,2.34A2,2,0,0,1,25,31,2,2,0,0,1,24,30.7l-.78.77,6.64,2.44-2.43-6.65Z" fill="none"/><path d="M23.6,27.61A1.94,1.94,0,0,1,26,27.3l.77-.78L22.48,25l-2.39-.88,2.43,6.64.77-.77A1.94,1.94,0,0,1,23.6,27.61Z" fill="none"/><path d="M26.73,26.52,22.48,25l4.24,1.55Z" fill="#fdd600"/><path d="M23.26,31.48l6.64,2.43h0l-6.64-2.44Z" fill="#fdd600"/><path d="M20.08,24.09l2.43,6.64h0l-2.43-6.64Z" fill="#fdd600"/><path d="M20.09,24.09h0l2.39.88Z" fill="#231f20"/><path d="M27.57,8.92a4.51,4.51,0,1,0-5.14,0,20.26,20.26,0,1,0,5.14,0ZM21.49,5.23A3.51,3.51,0,1,1,25,8.74,3.51,3.51,0,0,1,21.49,5.23Zm3.51,43A19.27,19.27,0,1,1,44.26,29,19.28,19.28,0,0,1,25,48.27Z" fill="#231f20"/><path d="M36.75,17.33l0,0s0,0,0,0a16.54,16.54,0,0,0-23.36,0s0,0,0,0l0,0a16.53,16.53,0,0,0,0,23.35l0,0,0,0a16.55,16.55,0,0,0,23.35,0l0,0s0,0,0,0a16.53,16.53,0,0,0,0-23.35Zm-.4,22.31-2.2-2.19a.5.5,0,0,0-.7,0,.5.5,0,0,0,0,.71l2.19,2.19A15.51,15.51,0,0,1,25.5,44.56V41.45a.5.5,0,0,0-1,0v3.11a15.51,15.51,0,0,1-10.14-4.21l2.19-2.19a.5.5,0,0,0,0-.71.5.5,0,0,0-.7,0l-2.2,2.19a15.49,15.49,0,0,1-4.2-10.13h3.1a.5.5,0,0,0,.5-.5.5.5,0,0,0-.5-.5H9.45a15.5,15.5,0,0,1,4.2-10.14l2.2,2.19a.48.48,0,0,0,.7,0,.5.5,0,0,0,0-.71l-2.19-2.19a15.45,15.45,0,0,1,10.14-4.2v3.1a.5.5,0,1,0,1,0v-3.1a15.45,15.45,0,0,1,10.14,4.2l-2.19,2.19a.5.5,0,0,0,0,.71.48.48,0,0,0,.7,0l2.2-2.19a15.5,15.5,0,0,1,4.2,10.14h-3.1a.5.5,0,0,0-.5.5.5.5,0,0,0,.5.5h3.1A15.49,15.49,0,0,1,36.35,39.64Z" fill="#231f20"/><path d="M23.6,27.61A1.94,1.94,0,0,1,26,27.3l.77-.78h0L22.48,25l-2.39-.88h0l2.43,6.64h0l.77-.77A1.94,1.94,0,0,1,23.6,27.61Z" fill="none"/><path d="M27.47,27.26l-.78.78a2,2,0,0,1-.32,2.34A2,2,0,0,1,25,31,2,2,0,0,1,24,30.7l-.78.77h0l6.64,2.43h0Z" fill="none"/><path d="M31.21,34.58l-3.07-8.4A.48.48,0,0,0,28,26s0,0,0,0l0,0a.52.52,0,0,0-.17-.12l-8.4-3.07a.5.5,0,0,0-.52.11.52.52,0,0,0-.12.53l3.07,8.39A.59.59,0,0,0,22,32s0,0,0,0l0,0a.52.52,0,0,0,.17.12l8.39,3.07.17,0a.51.51,0,0,0,.36-.15A.5.5,0,0,0,31.21,34.58Zm-8.7-3.85-2.43-6.64h0l2.39.88,4.25,1.55h0L26,27.3A1.95,1.95,0,0,0,23.29,30l-.77.77Zm.75.75h0L24,30.7A2,2,0,0,0,25,31a2,2,0,0,0,1.38-.57A2,2,0,0,0,26.69,28l.78-.78,2.43,6.65h0Z" fill="#231f20"/></g><g id="a6f52c17-3d09-461d-8e79-48de9a1e4a4a" data-name="LABELS"><text transform="translate(0.39 54.96)" font-size="6" fill="#231f20" font-family="Roboto-Regular, Roboto">compass</text></g></svg>