<svg xmlns="http://www.w3.org/2000/svg" viewBox="0 0 50 50"><g id="a33d779d-ea09-4d79-86f5-d14a4570f42a" data-name="ICONS"><path d="M47.7,34.37h-.45a21.17,21.17,0,0,0-.82-6.12,21.81,21.81,0,0,0-7-10.57c-.11-.09-.23-.19-.36-.28l-.45-.32a21,21,0,0,0-5.21-2.78,22.32,22.32,0,0,0-3.18-.87V11.15H22.5v2.28a21.17,21.17,0,0,0-3.24.9,20.61,20.61,0,0,0-5.15,2.75l-.81.6.75.25a.74.74,0,0,1-.75-.25,21.85,21.85,0,0,0-7,10.58,20.76,20.76,0,0,0-.81,6.11H3.75v4.16a83.3,83.3,0,0,0,22.73,3.1A83.06,83.06,0,0,0,49,38.53V34.37Z" fill="#fdd600"/><path d="M47.75,31.62H46.44A21.8,21.8,0,0,0,38,14.91h0l0,0a21.76,21.76,0,0,0-8.47-4V8.9a.5.5,0,0,0-.5-.5H20.25a.5.5,0,0,0-.5.5v1.95a21.76,21.76,0,0,0-8.47,4l0,0h0A21.8,21.8,0,0,0,2.81,31.62H1.5a.5.5,0,0,0-.5.5v5a.5.5,0,0,0,.36.48,84.16,84.16,0,0,0,23.27,3.24h.1a84.18,84.18,0,0,0,23.16-3.24.5.5,0,0,0,.36-.48v-5A.5.5,0,0,0,47.75,31.62ZM2,36.78V32.62H47.25v4.16a83.06,83.06,0,0,1-22.52,3.1A83.3,83.3,0,0,1,2,36.78ZM28.5,9.4V31.62H20.75V9.4Zm8.39,5.93a15,15,0,0,0-1.74,2.16,16.16,16.16,0,0,0-2.54,8.65.5.5,0,0,0,.5.5h0a.49.49,0,0,0,.5-.49A15.15,15.15,0,0,1,36,18a14.34,14.34,0,0,1,1.72-2.1,20.79,20.79,0,0,1,7.74,15.69H29.5V11.9A20.6,20.6,0,0,1,36.89,15.33Zm-25.34.6A14.34,14.34,0,0,1,13.27,18a15.15,15.15,0,0,1,2.37,8.12.49.49,0,0,0,.5.49h0a.5.5,0,0,0,.5-.5,16.16,16.16,0,0,0-2.54-8.65,15,15,0,0,0-1.74-2.16,20.6,20.6,0,0,1,7.39-3.43V31.62H3.81A20.79,20.79,0,0,1,11.55,15.93Z" fill="#231f20"/></g><g id="a400f841-4855-4dc2-b7cb-f28c7628f264" data-name="LABELS"><text transform="translate(-0.01 54.89)" font-size="6" fill="#231f20" font-family="Roboto-Regular, Roboto">construction-helmet-f<tspan x="57.28" y="0" letter-spacing="-0.01em">r</tspan><tspan x="59.26" y="0">ont</tspan></text></g></svg>