<svg xmlns="http://www.w3.org/2000/svg" viewBox="0 0 50 50"><g id="bdda5d5d-12ea-4fc3-91ef-d1d083853a2c" data-name="ICONS"><path d="M33,13.55h4.5l1.13,6.12a18.67,18.67,0,0,1,1.87,4.59L38.38,13a.5.5,0,0,0-.49-.41H31.36A19,19,0,0,1,33,13.55Z" fill="#231f20"/><path d="M42.2,30.71a.52.52,0,0,1-.36-.46,17.87,17.87,0,0,0-35.73.59.51.51,0,0,1-.5.5H3.68v2.09H5l-.1-.75H21.41l-2,.75H39.79L49.07,35V32.74Zm-16.78,1H19.05V27.23h6.37Z" fill="#fdd600"/><path d="M18.53,32.68h2.88L5.67,38.6l-.82-5.92h-1l.93,6.68a.5.5,0,0,0,.24.36.45.45,0,0,0,.25.07.57.57,0,0,0,.18,0l18.81-7.08H18.53Z" fill="#231f20"/><path d="M25.92,26.23H18.55a.5.5,0,0,0-.5.5v4.95h1V27.23h6.37v4.45h1V26.73A.5.5,0,0,0,25.92,26.23Z" fill="#231f20"/><path d="M34.66,22.52a.5.5,0,0,0,.68.16A.49.49,0,0,0,35.5,22a15.68,15.68,0,0,0-26.26-.41.5.5,0,0,0,.14.69.51.51,0,0,0,.69-.13,14.68,14.68,0,0,1,24.59.38Z" fill="#231f20"/><path d="M48,30.14l-6.88-2a19.35,19.35,0,0,0-.6-3.84A18.71,18.71,0,0,0,33,13.55a18.9,18.9,0,0,0-29.62,15H1.43a.5.5,0,0,0-.5.5v3.09a.5.5,0,0,0,.5.5H38l9.78,1.62h.08a.52.52,0,0,0,.33-.12.5.5,0,0,0,.17-.38V30.62A.48.48,0,0,0,48,30.14Zm-.64,3.07L38,31.68H1.93V29.59H3.86a.51.51,0,0,0,.5-.5,17.87,17.87,0,0,1,35.73-.59.52.52,0,0,0,.36.46l6.87,2Z" fill="#231f20"/></g><g id="fc440cdf-bf99-475b-80be-a4dd254e025f" data-name="LABELS"><text transform="translate(0 54.89)" font-size="6" fill="#231f20" font-family="Roboto-Regular, Roboto">construction-helmet-side</text></g></svg>