<svg id="ea5e08dd-814e-4438-ba83-e9400767f966" data-name="ICONS" xmlns="http://www.w3.org/2000/svg" viewBox="0 0 50 50"><path d="M6.48,44.25a4.38,4.38,0,1,0,4.38-4.38A4.39,4.39,0,0,0,6.48,44.25Z" fill="#fdd600"/><path d="M26.52,11.91a.45.45,0,0,1,.2,0l5,2.17L26.53,4.63l-5,9.47L26.32,12A.45.45,0,0,1,26.52,11.91Z" fill="#fdd600"/><circle cx="26.53" cy="44.3" r="4.38" fill="#fdd600"/><circle cx="41.89" cy="44.28" r="4.38" fill="#fdd600"/><path d="M40.64,37.2c0-6.48-.07-6.55-.41-6.72-4.38-2.23-14.61-7.41-15-8.63V11.42l5.62,2.45a.71.71,0,0,0,.2,0,.52.52,0,0,0,.37-.16.5.5,0,0,0,.07-.58L25.21,1.58a.49.49,0,0,0-.44-.26h0a.52.52,0,0,0-.44.27L18.25,13.18a.5.5,0,0,0,.65.68l5.36-2.42V21.7a.43.43,0,0,0,0,.11C24,23,13.92,28,9.07,30.45c-.34.17-.45.24-.41,6.72a5.38,5.38,0,1,0,1,0c0-2.16,0-5.13.07-5.94,9.06-4.53,13-6.71,14.53-8v14a5.4,5.4,0,1,0,1,0V23.28c1.59,1.31,5.46,3.49,14.31,8,.07.8.08,3.78.07,5.94a5.38,5.38,0,1,0,1,0ZM13.49,42.5a4.38,4.38,0,1,1-4.38-4.38A4.38,4.38,0,0,1,13.49,42.5ZM24.78,2.88,30,12.37,25,10.2a.52.52,0,0,0-.4,0l-4.76,2.15Zm4.38,39.67a4.38,4.38,0,1,1-4.38-4.38A4.39,4.39,0,0,1,29.16,42.55Zm11,4.36a4.38,4.38,0,1,1,4.38-4.38A4.39,4.39,0,0,1,40.14,46.91Z" fill="#231f20"/></svg>