<svg xmlns="http://www.w3.org/2000/svg" viewBox="0 0 50 50"><g id="a9e37a29-02ee-4863-9932-e3887b18b1b7" data-name="ICONS"><path d="M40.68,41.8a.5.5,0,1,0-.74.68l2.53,2.72a.49.49,0,0,0,.36.15.48.48,0,0,0,.34-.13.5.5,0,0,0,0-.71Z" fill="#231f20"/><path d="M46.15,40.81,42,38.88a.5.5,0,0,0-.66.25.49.49,0,0,0,.24.66l4.16,1.93a.5.5,0,0,0,.21.05.49.49,0,0,0,.45-.29A.5.5,0,0,0,46.15,40.81Z" fill="#231f20"/><path d="M46.64,36.35l-3.7-.28a.5.5,0,0,0-.54.46.5.5,0,0,0,.46.54l3.7.28h0a.5.5,0,0,0,0-1Z" fill="#231f20"/><path d="M40.86,24.87A18.13,18.13,0,0,1,41.22,22c.4-2.29.89-5.12-.11-7.39C37.18,5.71,26,3.15,19.4,4.72,7.92,7.47,6.57,16.3,6.67,23.69a18.12,18.12,0,0,0,2.5,8.84,26,26,0,0,1,2.71,7.34c1.14,5.92-.48,8.8-1.39,10.25h16c1.26,0,2.08,0,2.62,0V43.06a.51.51,0,0,1,.26-.44.5.5,0,0,1,.5,0c2.57,1.56,6.59,3.31,7.72,2.44,0-.19,0-.64,0-1a7.14,7.14,0,0,1,0-1.39,1.54,1.54,0,0,1,1.25-1.2,1.85,1.85,0,0,0,.33-.12,14.6,14.6,0,0,0-1.85-1.59.51.51,0,0,1-.19-.5.52.52,0,0,1,.38-.39A19.62,19.62,0,0,0,40.53,38c-.09-.47-.37-1.62-.63-2.6a.5.5,0,0,1,.26-.57l3.22-1.67a.55.55,0,0,0,.23-.73C42.58,30.43,40.86,26.79,40.86,24.87Z" fill="#fdd600"/><path d="M42.75,30.23c-.79-1.55-2.64-5.34-2.64-7.11a17.76,17.76,0,0,1,.34-2.68c.42-2.42.95-5.42-.18-8C37.21,5.54,27.61-.44,17.42,2,5.11,5,3.82,14.8,3.92,22a19.06,19.06,0,0,0,2.6,9.28,24.79,24.79,0,0,1,2.62,7.08c1.12,5.8-.56,8.45-1.37,9.72a4.32,4.32,0,0,0-.37.64.49.49,0,0,0,0,.47.52.52,0,0,0,.42.23h20a.49.49,0,0,0,.49-.5V42.18c2,1.13,6.61,3.43,8.25,1.78.26-.26.25-.69.21-1.64a6.93,6.93,0,0,1,0-1.2c0-.17.12-.24.57-.39s1-.33,1.07-1c0-.19,0-.56-1.48-1.79,2.86-.75,2.86-1.14,2.86-1.47a20.4,20.4,0,0,0-.58-2.66l2.87-1.49A1.53,1.53,0,0,0,42.75,30.23Zm-1.12,1.18-3.22,1.67a.5.5,0,0,0-.26.57c.26,1,.54,2.13.63,2.6a19.62,19.62,0,0,1-3.07.93.52.52,0,0,0-.38.39.51.51,0,0,0,.19.5,14.6,14.6,0,0,1,1.85,1.59,1.85,1.85,0,0,1-.33.12A1.54,1.54,0,0,0,35.79,41a7.14,7.14,0,0,0,0,1.39c0,.31,0,.76,0,1-1.13.87-5.15-.88-7.72-2.44a.5.5,0,0,0-.5,0,.51.51,0,0,0-.26.44v7.08c-.54,0-1.36,0-2.62,0h-16c.91-1.45,2.53-4.33,1.39-10.25a26,26,0,0,0-2.71-7.34,18.12,18.12,0,0,1-2.5-8.84C4.82,14.55,6.17,5.72,17.65,3c6.58-1.57,17.78,1,21.71,9.91,1,2.27.51,5.1.11,7.39a18.13,18.13,0,0,0-.36,2.85c0,1.92,1.72,5.56,2.75,7.56A.55.55,0,0,1,41.63,31.41Z" fill="#231f20"/></g><g id="b9dfec39-ee2c-4c84-b00c-ef3051837298" data-name="LABELS"><text transform="translate(0.49 55.06)" font-size="6" fill="#231f20" font-family="Roboto-Regular, Roboto">cough</text></g></svg>