<svg id="a61875e3-d833-4103-84e9-3508c234edc1" data-name="ICONS" xmlns="http://www.w3.org/2000/svg" viewBox="0 0 50 50"><path d="M41.5,3.15H11A3.23,3.23,0,0,0,7.77,6.38V46.12A3.23,3.23,0,0,0,11,49.35H41.5a3.23,3.23,0,0,0,3.23-3.23V6.38A3.23,3.23,0,0,0,41.5,3.15m.63,41.43a.47.47,0,0,1-.47.47H10.84a.47.47,0,0,1-.47-.47V6.92a.48.48,0,0,1,.47-.48H41.66a.48.48,0,0,1,.47.48Z" fill="#fdd600"/><path d="M34.77,16.08a17.51,17.51,0,0,0-7.53,1.79.59.59,0,0,1-.22.05.5.5,0,0,1-.45-.29A.49.49,0,0,1,26.8,17a18.48,18.48,0,0,1,8-1.89.51.51,0,0,1,.5.5.5.5,0,0,1-.5.5" fill="#231f20"/><path d="M34.77,19.08a17.51,17.51,0,0,0-7.53,1.79.59.59,0,0,1-.22.05.51.51,0,0,1-.45-.28A.5.5,0,0,1,26.8,20a18.62,18.62,0,0,1,8-1.89.51.51,0,0,1,.5.5.5.5,0,0,1-.5.5" fill="#231f20"/><path d="M34.77,22.09a17.64,17.64,0,0,0-7.53,1.78.44.44,0,0,1-.22.05.49.49,0,0,1-.45-.28A.5.5,0,0,1,26.8,23a18.61,18.61,0,0,1,8-1.88.5.5,0,0,1,.5.5.51.51,0,0,1-.5.5" fill="#231f20"/><path d="M34.77,25.09a17.64,17.64,0,0,0-7.53,1.78.44.44,0,0,1-.22.05.49.49,0,0,1-.45-.28A.5.5,0,0,1,26.8,26a18.61,18.61,0,0,1,8-1.88.5.5,0,0,1,.5.5.51.51,0,0,1-.5.5" fill="#231f20"/><path d="M34.77,28.09a17.51,17.51,0,0,0-7.53,1.79.59.59,0,0,1-.22.05.5.5,0,0,1-.45-.29A.49.49,0,0,1,26.8,29a18.48,18.48,0,0,1,8-1.89.51.51,0,0,1,.5.5.5.5,0,0,1-.5.5" fill="#231f20"/><path d="M34.77,31.09a17.51,17.51,0,0,0-7.53,1.79.59.59,0,0,1-.22,0,.51.51,0,0,1-.45-.28A.5.5,0,0,1,26.8,32a18.62,18.62,0,0,1,8-1.89.51.51,0,0,1,.5.5.5.5,0,0,1-.5.5" fill="#231f20"/><path d="M24.75,44.72a1,1,0,1,1-1,1,1,1,0,0,1,1-1" fill="#231f20"/><path d="M24.75,2.74a.5.5,0,1,1-.5.5.5.5,0,0,1,.5-.5" fill="#231f20"/><path d="M14.73,15.08a18.48,18.48,0,0,1,8,1.89.49.49,0,0,1,.23.66.5.5,0,0,1-.45.29.59.59,0,0,1-.22-.05,17.51,17.51,0,0,0-7.53-1.79.5.5,0,0,1-.5-.5.51.51,0,0,1,.5-.5" fill="#231f20"/><path d="M22.26,29.88a17.51,17.51,0,0,0-7.53-1.79.5.5,0,0,1-.5-.5.51.51,0,0,1,.5-.5,18.48,18.48,0,0,1,8,1.89.49.49,0,0,1,.23.66.5.5,0,0,1-.45.29.59.59,0,0,1-.22-.05" fill="#231f20"/><path d="M22.26,32.88a17.51,17.51,0,0,0-7.53-1.79.5.5,0,0,1-.5-.5.51.51,0,0,1,.5-.5,18.62,18.62,0,0,1,8,1.89.5.5,0,0,1,.23.67.51.51,0,0,1-.45.28.59.59,0,0,1-.22,0" fill="#231f20"/><path d="M22.26,26.87a17.64,17.64,0,0,0-7.53-1.78.51.51,0,0,1-.5-.5.5.5,0,0,1,.5-.5,18.61,18.61,0,0,1,8,1.88.5.5,0,0,1,.23.67.49.49,0,0,1-.45.28.44.44,0,0,1-.22-.05" fill="#231f20"/><path d="M14.73,18.08a18.62,18.62,0,0,1,8,1.89.5.5,0,0,1,.23.67.51.51,0,0,1-.45.28.59.59,0,0,1-.22-.05,17.51,17.51,0,0,0-7.53-1.79.5.5,0,0,1-.5-.5.51.51,0,0,1,.5-.5" fill="#231f20"/><path d="M14.73,21.09a18.61,18.61,0,0,1,8,1.88.5.5,0,0,1,.23.67.49.49,0,0,1-.45.28.44.44,0,0,1-.22-.05,17.64,17.64,0,0,0-7.53-1.78.51.51,0,0,1-.5-.5.5.5,0,0,1,.5-.5" fill="#231f20"/><path d="M25.25,35.41a29.21,29.21,0,0,1,11.29-2.64V12.34a28.25,28.25,0,0,0-11.29,2.72Zm-1-20.35A28.25,28.25,0,0,0,13,12.34V32.77a29.21,29.21,0,0,1,11.29,2.64ZM12.46,11.33a29.08,29.08,0,0,1,12.29,2.86A29.08,29.08,0,0,1,37,11.33a.47.47,0,0,1,.35.15.51.51,0,0,1,.15.35V33.27a.5.5,0,0,1-.5.5A28.13,28.13,0,0,0,25,36.63a.51.51,0,0,1-.44,0,28.13,28.13,0,0,0-12.07-2.86.5.5,0,0,1-.5-.5V11.83a.51.51,0,0,1,.15-.35.47.47,0,0,1,.35-.15" fill="#231f20"/><path d="M9.34,4.94H40.16a.48.48,0,0,1,.47.48V43.08a.47.47,0,0,1-.47.47H9.34a.47.47,0,0,1-.47-.47V5.42a.48.48,0,0,1,.47-.48m.48,37.67H39.68V5.89H9.82V42.61Z" fill="#231f20"/><path d="M9.5,1.65A3.23,3.23,0,0,0,6.27,4.88V44.62A3.23,3.23,0,0,0,9.5,47.85H40a3.23,3.23,0,0,0,3.23-3.23V4.88A3.23,3.23,0,0,0,40,1.65H9.5ZM5.27,4.88A4.24,4.24,0,0,1,9.5.65H40a4.24,4.24,0,0,1,4.23,4.23V44.62A4.24,4.24,0,0,1,40,48.85H9.5a4.24,4.24,0,0,1-4.23-4.23Z" fill="#231f20"/></svg>