<svg xmlns="http://www.w3.org/2000/svg" viewBox="0 0 50 50"><g id="f6ff7492-dad6-4d8e-9115-75b17c5d84a8" data-name="ICONS"><polygon points="45.59 17.1 49.62 11.97 45.59 6.83 6.31 6.83 6.31 17.1 45.59 17.1" fill="#fdd600"/><polygon points="7.05 23.47 3.01 28.6 7.05 33.73 46.35 33.73 46.35 23.47 7.05 23.47" fill="#fdd600"/><path d="M44.33,16.6a.49.49,0,0,0,.39-.19l4.43-5.64a.5.5,0,0,0,0-.61L44.72,4.52a.49.49,0,0,0-.39-.19H30.22V1.57a.5.5,0,0,0-.5-.5h-9.8a.5.5,0,0,0-.5.5V4.33H4.31a.5.5,0,0,0-.5.5V16.1a.51.51,0,0,0,.5.5H19.42V21H5.31a.49.49,0,0,0-.39.19L.48,26.79a.51.51,0,0,0,0,.62L4.92,33a.49.49,0,0,0,.39.19H19.42v15.2a.5.5,0,0,0,.5.5h9.8a.5.5,0,0,0,.5-.5V33.23H45.36a.5.5,0,0,0,.5-.5V21.47a.55.55,0,0,0-.15-.36.52.52,0,0,0-.35-.14H30.22V16.6ZM4.81,5.33H44.09l4,5.14-4,5.13H4.81ZM20.42,2.07h8.8V4.33h-8.8ZM44.86,32.23H5.55l-4-5.13,4-5.13H44.86ZM29.22,47.93h-8.8V33.23h8.8Zm0-27h-8.8V16.6h8.8Z" fill="#231f20"/></g><g id="f98e7dd3-6321-4b32-9260-07f8747e694d" data-name="LABELS"><text transform="translate(-0.16 55.05)" font-size="6" fill="#231f20" font-family="Roboto-Regular, Roboto">di<tspan x="4.84" y="0" letter-spacing="-0.01em">r</tspan><tspan x="6.81" y="0">ectional-sign</tspan></text></g></svg>