<svg xmlns="http://www.w3.org/2000/svg" viewBox="0 0 50 50"><g id="a3d8f0cc-98a2-474c-ad48-9e0a27f7fbfa" data-name="ICONS"><circle cx="26.75" cy="27.31" r="15.58" fill="#fdd600"/><path d="M8.41,25.61A16.59,16.59,0,1,0,28.91,9.5V7.43a.5.5,0,0,0-.5-.5H25.5V.85a.5.5,0,0,0-1,0V6.93H21.59a.5.5,0,0,0-.5.5V9.5A16.6,16.6,0,0,0,8.41,25.61ZM23.65,10.08A23.47,23.47,0,0,0,19.1,16.5H12.37A15.55,15.55,0,0,1,23.65,10.08ZM40.54,24.55H33.06a20.81,20.81,0,0,0-1.6-7H38.3A15.5,15.5,0,0,1,40.54,24.55Zm.05,1.06a15.41,15.41,0,0,1-1.68,7h-7a20.43,20.43,0,0,0,1.22-7,.33.33,0,0,0,0-.1h7.49Zm-31.18,0v-.06H17v.06a21,21,0,0,0,1.24,7H11.09A15.41,15.41,0,0,1,9.41,25.61ZM11.7,17.5h7a20.81,20.81,0,0,0-1.59,7.05H9.46A15.5,15.5,0,0,1,11.7,17.5Zm12.8-6.85V16.5H20.22A22.08,22.08,0,0,1,24.5,10.65Zm0,6.85v7.05H18.07a19.8,19.8,0,0,1,1.68-7ZM18,25.61v-.06H24.5v7.06H19.33A20,20,0,0,1,18,25.61Zm6.47,8v6.86a22.27,22.27,0,0,1-4.76-6.86Zm1,7v-7h4.91A22.22,22.22,0,0,1,25.5,40.65Zm0-8V25.55h6.6a.33.33,0,0,1,0,.1,19.53,19.53,0,0,1-1.28,7Zm6.56-8.06H25.5v-7h4.87A19.8,19.8,0,0,1,32.06,24.55Zm-6.56-8V10.56a22.4,22.4,0,0,1,4.4,5.94ZM18.65,33.61a23.54,23.54,0,0,0,5.1,7.53,15.59,15.59,0,0,1-12.11-7.53Zm7.79,7.52a23.16,23.16,0,0,0,5.06-7.52h6.86A15.59,15.59,0,0,1,26.44,41.13ZM31,16.5a23.15,23.15,0,0,0-4.58-6.41A15.54,15.54,0,0,1,37.63,16.5ZM22.09,7.93h5.82V9.28A17.49,17.49,0,0,0,25,9a17.49,17.49,0,0,0-2.91.27Z" fill="#231f20"/><path d="M15.75,9.75a.5.5,0,0,0,.43.25.45.45,0,0,0,.25-.07.5.5,0,0,0,.19-.68L13.9,4.55a.5.5,0,0,0-.86.5Z" fill="#231f20"/><path d="M4.5,13.75l4.7,2.71a.45.45,0,0,0,.25.07.5.5,0,0,0,.25-.93L5,12.88a.5.5,0,1,0-.5.87Z" fill="#231f20"/><path d="M8.92,33.71l-4.7,2.72a.5.5,0,0,0,.25.93.47.47,0,0,0,.25-.07l4.7-2.71a.49.49,0,0,0,.18-.68A.51.51,0,0,0,8.92,33.71Z" fill="#231f20"/><path d="M16,40.45a.49.49,0,0,0-.68.18l-2.72,4.7a.51.51,0,0,0,.18.69.57.57,0,0,0,.25.06.5.5,0,0,0,.44-.25l2.71-4.7A.49.49,0,0,0,16,40.45Z" fill="#231f20"/><path d="M25,43.22a.5.5,0,0,0-.5.5v5.43a.5.5,0,1,0,1,0V43.72A.5.5,0,0,0,25,43.22Z" fill="#231f20"/><path d="M34.25,40.91a.5.5,0,0,0-.68-.18.51.51,0,0,0-.19.68l2.72,4.7a.5.5,0,0,0,.43.25.45.45,0,0,0,.25-.07.49.49,0,0,0,.18-.68Z" fill="#231f20"/><path d="M45.5,36.91,40.8,34.2a.5.5,0,1,0-.5.86L45,37.78a.59.59,0,0,0,.25.07.52.52,0,0,0,.44-.25A.52.52,0,0,0,45.5,36.91Z" fill="#231f20"/><path d="M7.38,25.33a.5.5,0,0,0-.5-.5H1.45a.5.5,0,1,0,0,1H6.88A.5.5,0,0,0,7.38,25.33Z" fill="#231f20"/><path d="M48.55,24.83H43.12a.5.5,0,1,0,0,1h5.43a.5.5,0,0,0,0-1Z" fill="#231f20"/><path d="M40.83,17a.54.54,0,0,0,.25-.06l4.7-2.72a.5.5,0,1,0-.5-.86l-4.7,2.71a.5.5,0,0,0,.25.93Z" fill="#231f20"/><path d="M34.05,10.21a.45.45,0,0,0,.25.07.5.5,0,0,0,.43-.25l2.72-4.7a.5.5,0,0,0-.18-.68.51.51,0,0,0-.69.18l-2.71,4.7A.49.49,0,0,0,34.05,10.21Z" fill="#231f20"/></g><g id="a3ebd004-8215-4c14-9a8e-7968a567a024" data-name="LABELS"><text transform="translate(-0.03 54.94)" font-size="6" fill="#231f20" font-family="Roboto-Regular, Roboto">disco-ball</text></g></svg>