<svg id="af8c3d48-d5c8-4753-a739-5f316bd2690e" data-name="ICONS" xmlns="http://www.w3.org/2000/svg" viewBox="0 0 50 50"><path d="M33.51,23.41l-14.23,0a9.25,9.25,0,0,0-8.79,9.22l0,16.66H42.26l0-16.61A9.24,9.24,0,0,0,33.51,23.41Zm-17.72,10a1.91,1.91,0,1,1,1.91-1.91A1.92,1.92,0,0,1,15.79,33.43Z" fill="#fdd600"/><path d="M24.54,19.13a9.2,9.2,0,1,0-9.21-9.2A9.21,9.21,0,0,0,24.54,19.13Zm8.2-9.2a8.21,8.21,0,1,1-8.2-8.2A8.2,8.2,0,0,1,32.74,9.93Z" fill="#231f20"/><path d="M31.82,20.61h-.05l-14.24,0h0A10.25,10.25,0,0,0,7.74,30.81L7.72,48a.51.51,0,0,0,.15.36.5.5,0,0,0,.35.14H41a.5.5,0,0,0,.5-.5l0-17.11A10.25,10.25,0,0,0,31.82,20.61ZM8.74,30.81A9.25,9.25,0,0,1,15.29,22v6.68a2.91,2.91,0,1,0,1,0V21.75a2.84,2.84,0,0,1,.31-.06l0,0,7.53,11.08V47.47H16.29V36.73a.5.5,0,0,0-1,0V47.47H8.72Zm15.9,1L17.73,21.59l13.47,0Zm-8.85-2.14a1.91,1.91,0,1,1-1.91,1.9A1.91,1.91,0,0,1,15.79,29.62ZM40.51,47.47H34V36.73a.5.5,0,0,0-.5-.5.5.5,0,0,0-.5.5V47.47H25.15V32.81l7.16-11.08s0,0,0-.06c.23,0,.46.06.69.1v5.88a5.62,5.62,0,0,0-4.39,3.91A8.48,8.48,0,0,0,28.15,35a.5.5,0,0,0,.5.47h2.82a.5.5,0,0,0,0-1H29.13a7.4,7.4,0,0,1,.44-2.56,4.69,4.69,0,0,1,3.71-3.29,4.15,4.15,0,0,1,3.9,2.59,7.46,7.46,0,0,1,.74,3.26H35.68a.5.5,0,0,0,0,1h2.73a.51.51,0,0,0,.5-.47,8.71,8.71,0,0,0-.83-4.24,5.41,5.41,0,0,0-4-3.12V22a9.24,9.24,0,0,1,6.5,8.84Z" fill="#231f20"/></svg>