<svg id="bb9312cc-0db8-4087-92cb-bd64b6ff44ce" data-name="ICONS" xmlns="http://www.w3.org/2000/svg" viewBox="0 0 50 50"><path d="M34,11.89a1.44,1.44,0,0,0-1.23-1.42,8.53,8.53,0,0,1,.29,2.16c0,.21,0,.41,0,.62A1.45,1.45,0,0,0,34,11.89Z" fill="#231f20"/><circle cx="16.43" cy="32.61" r="1.73" fill="none"/><path d="M36.42,26.18q-1-4.59-2-9.19L34,10.86a8.27,8.27,0,0,0-7.76-7.22c-3.89-.08-7.19,3-7.89,7.1.12,0,.23,0,.35,0a10.11,10.11,0,0,0,2-.19,11.05,11.05,0,0,0,5.45-2.83L31.56,9.9a7.55,7.55,0,0,1-13.64,6.39l-.14,2-1.62,8a8.53,8.53,0,0,0-4.43,7.46l0,15.38H41.05l0-15.34A8.51,8.51,0,0,0,36.42,26.18Zm-20,8.15a1.73,1.73,0,1,1,1.73-1.72A1.72,1.72,0,0,1,16.43,34.33Z" fill="#fdd600"/><path d="M35.47,23.71l-2-9.55a2.43,2.43,0,0,0-.14-4.58C32.85,4.73,29,.93,24.51.89s-8.6,3.83-9,8.85A2.42,2.42,0,0,0,15.44,14l-1.59,9.64A9.5,9.5,0,0,0,9,32l0,15.88a.5.5,0,0,0,.14.35.51.51,0,0,0,.36.15H39.77a.51.51,0,0,0,.5-.5l0-15.84A9.51,9.51,0,0,0,35.47,23.71ZM10,32a8.51,8.51,0,0,1,6-8.11v6.09a2.73,2.73,0,1,0,1,0V23.59l.23,0v0l7,10.25V47.33h-7.2V37.42a.5.5,0,0,0-.5-.5.5.5,0,0,0-.5.5v9.91h-6ZM16.53,9.51c.49-4.35,3.92-7.7,8-7.62a8.27,8.27,0,0,1,7.76,7.22L26.2,6.71a.48.48,0,0,0-.53.11A10.23,10.23,0,0,1,20.49,9.6,9.44,9.44,0,0,1,16.53,9.51ZM17,12.63a7.55,7.55,0,0,1,.27-2,10.39,10.39,0,0,0,1.47.11,10.11,10.11,0,0,0,2-.19,11.05,11.05,0,0,0,5.45-2.83L31.56,9.9A7.55,7.55,0,1,1,17,12.63Zm16.08.62c0-.21,0-.41,0-.62a8.53,8.53,0,0,0-.29-2.16,1.44,1.44,0,0,1,.26,2.78Zm-16.8-2.74A8.27,8.27,0,0,0,16,12.63c0,.18,0,.36,0,.55a1.45,1.45,0,0,1-.8-1.29A1.43,1.43,0,0,1,16.25,10.51Zm8.28,10.67a8.57,8.57,0,0,0,8.14-5.94l1.67,7.92a9.81,9.81,0,0,0-3.07-.69h-.05L18,22.45h0a9.62,9.62,0,0,0-3.05.68l1.35-8.19A8.56,8.56,0,0,0,24.53,21.18Zm.09,11.58-6.33-9.31,12.33,0Zm-8.19-1.88a1.73,1.73,0,1,1-1.72,1.73A1.73,1.73,0,0,1,16.43,30.88ZM39.27,47.33H33.35V37.42a.5.5,0,0,0-.5-.5.5.5,0,0,0-.5.5v9.91H25.13V33.81l6.62-10.25,0,0a5.81,5.81,0,0,1,.58.09V29a5.23,5.23,0,0,0-4.06,3.64,8,8,0,0,0-.46,3.19.51.51,0,0,0,.5.48h2.61a.5.5,0,0,0,.5-.5.5.5,0,0,0-.5-.5H28.82a6.83,6.83,0,0,1,.4-2.33,4.3,4.3,0,0,1,3.4-3,3.86,3.86,0,0,1,3.58,2.38,6.87,6.87,0,0,1,.67,3h-2a.5.5,0,0,0-.5.5.5.5,0,0,0,.5.5h2.52a.5.5,0,0,0,.5-.48,8.1,8.1,0,0,0-.77-3.94A5,5,0,0,0,33.35,29V23.87A8.5,8.5,0,0,1,39.29,32Z" fill="#231f20"/></svg>