<svg xmlns="http://www.w3.org/2000/svg" viewBox="0 0 50 50"><g id="ad6dc74f-261d-4ab9-808d-8ce51a4892d8" data-name="ICONS"><path d="M24.39,40.87v.05h.06Z" fill="#231f20"/><polygon points="22.22 3.63 6.22 6.34 6.22 46.25 22.72 49.04 22.72 44.4 22.22 44.4 22.22 3.63" fill="#fdd600"/><polygon points="46.28 6.25 30.28 3.55 30.28 49.04 46.78 46.25 46.78 44.4 46.28 44.4 46.28 6.25" fill="#fdd600"/><path d="M48.59,2.46H37.19L28.36,1a.52.52,0,0,0-.4.11.53.53,0,0,0-.18.39v1H22.22v-1A.53.53,0,0,0,22,1.07a.52.52,0,0,0-.4-.11l-8.83,1.5H1.41a.5.5,0,0,0-.5.5V44.89a.5.5,0,0,0,.5.5H3.78a.51.51,0,0,0,.36.28l17.5,3h.08a.51.51,0,0,0,.5-.5V45.39h5.56v2.75a.51.51,0,0,0,.5.5h.08l17.5-3a.51.51,0,0,0,.36-.28h2.37a.5.5,0,0,0,.5-.5V3A.5.5,0,0,0,48.59,2.46Zm-44.87,2v40H1.91V3.46h5l-2.76.46A.51.51,0,0,0,3.72,4.42Zm17.5,43.12L4.72,44.75V4.84l16.5-2.79Zm6.56-3.15H22.22V3.46h5.56Zm17.5.36-16.5,2.79V2.05l16.5,2.79Zm2.81-.36H46.28v-40a.51.51,0,0,0-.42-.5L43.1,3.46h5Z" fill="#231f20"/><ellipse cx="18.49" cy="26.43" rx="1.17" ry="1.83" fill="#231f20"/><ellipse cx="31.51" cy="26.43" rx="1.17" ry="1.83" fill="#231f20"/></g><g id="f847c12d-3740-4b0f-a73d-efe2f3a9b7f5" data-name="LABELS"><text transform="translate(0.08 54.89)" font-size="6" fill="#231f20" font-family="Roboto-Regular, Roboto">doors-open-two</text></g></svg>