<svg xmlns="http://www.w3.org/2000/svg" viewBox="0 0 50 50"><g id="b618e2ea-7d12-44d2-9959-96e72816608d" data-name="ICONS"><path d="M24.65,13.61l0,0,0,0,0,0Z"/><path d="M36.71,15.53c6.19-.26,12.4-1.72,12.3-4s-6.41-3.21-12.59-3a37.24,37.24,0,0,0-8.53,1.25c-.36.11-.68.21-1,.33,0-.73,0-1.3,0-1.68A2.21,2.21,0,1,0,24.62,5a2.18,2.18,0,0,0-1.72-.84,2.22,2.22,0,0,0-.6,4.35c0,.38,0,.95,0,1.68a34.1,34.1,0,0,0-9.51-1.58,37.79,37.79,0,0,0-8.61.53c-2.6.54-3.94,1.36-4,2.43s1.22,2,3.77,2.76a37.24,37.24,0,0,0,8.53,1.25c.67,0,1.34,0,2,0s1.45,0,2.15-.05l-.77.43c-3.65,2.1-7.15,5.09-6.24,6.67a1.6,1.6,0,0,0,1.51.65,7.22,7.22,0,0,0,1.9-.31,24.11,24.11,0,0,0,5.48-2.41,27.31,27.31,0,0,0,4-2.76c.08,2.75.17,5.82.28,8.89.68,19.21,1.12,19.21,1.79,19.21s1.12,0,1.8-19.21c.11-3.07.2-6.14.28-8.89a28.07,28.07,0,0,0,4,2.76A24.36,24.36,0,0,0,36.16,23a7.22,7.22,0,0,0,1.9.31,1.61,1.61,0,0,0,1.51-.65C40.48,21,37,18.05,33.33,16l-.78-.43c.69,0,1.4.05,2.13.05S36,15.56,36.71,15.53Zm2,6.59c-.07.11-.63.33-2.29-.12a24.12,24.12,0,0,1-5.25-2.32c-4.42-2.55-6.12-4.88-5.87-5.3,0-.07.17-.11.34-.14A11.08,11.08,0,0,0,28.1,15c.51.11,1.07.19,1.64.27a27.81,27.81,0,0,1,3.09,1.55C37.25,19.37,39,21.69,38.71,22.12ZM12.83,22c-1.66.45-2.22.23-2.29.12-.24-.43,1.46-2.75,5.88-5.3a28.64,28.64,0,0,1,3.08-1.55,14.53,14.53,0,0,0,4.08-1c.19,0,.33.06.37.14s0,.71-1.24,1.92a23.63,23.63,0,0,1-4.64,3.38A23.86,23.86,0,0,1,12.83,22ZM1.24,11.57c0-.32.7-1,3.19-1.5a32.85,32.85,0,0,1,6.37-.55c.65,0,1.32,0,2,0,7,.3,11.39,1.95,11.35,3s-4.57,2.29-11.56,2a35.72,35.72,0,0,1-8.29-1.21C1.85,12.6,1.22,11.88,1.24,11.57ZM24.12,6.34A1.22,1.22,0,1,1,22.9,5.11,1.22,1.22,0,0,1,24.12,6.34Zm3.45,0a1.23,1.23,0,1,1-1.22-1.23A1.22,1.22,0,0,1,27.57,6.34ZM23.31,8.52a2.17,2.17,0,0,0,1.31-.8,2.22,2.22,0,0,0,1.32.8c0,.67,0,1.35,0,2.05a4.51,4.51,0,0,0-1.29.86,4.53,4.53,0,0,0-1.26-.85C23.34,9.88,23.32,9.19,23.31,8.52Zm1.28,5.09,0,0,0,0,0,0Zm-1.07,3.28a6.85,6.85,0,0,0,1.11-1.39,7.42,7.42,0,0,0,1.1,1.4c-.28,10-.68,20.81-1.11,25.65C24.2,37.71,23.8,26.91,23.52,16.89Zm1.61-4.3v0s0-.06,0-.09c0-.33.71-1,3.05-1.71a36.27,36.27,0,0,1,8.29-1.21c.69,0,1.35,0,2,0,5.85,0,9.52,1.13,9.56,2.05s-4.35,2.67-11.34,3A36.32,36.32,0,0,1,28.3,14C26,13.54,25.22,12.92,25.13,12.59Z"/></g><g id="f6f1780f-3d04-49c2-9566-de60023e1764" data-name="LABELS"><text transform="translate(0 54.89)" font-size="6" font-family="Roboto-Regular, Roboto">d<tspan x="3.38" y="0" letter-spacing="-0.02em">r</tspan><tspan x="5.3" y="0">agonfly</tspan></text></g></svg>