<svg id="a0fa1158-ca66-490f-82c8-8d05b0c5301b" data-name="ICONS" xmlns="http://www.w3.org/2000/svg" viewBox="0 0 50 50"><path d="M39.22,27.3a.48.48,0,0,1,.26-.43l10.65-5.81L44.4,11.15l-10.76,6a.52.52,0,0,1-.8-.4V4H21.39l0,12.83a.5.5,0,0,1-.25.44.54.54,0,0,1-.51,0L10.49,11.06,4.77,21l10.66,5.85a.51.51,0,0,1,.26.43.5.5,0,0,1-.25.44L5,33.92l5.73,9.92,10-6.05a.48.48,0,0,1,.26-.07.54.54,0,0,1,.25.06.5.5,0,0,1,.25.44V49.55l11.41,0-.05-11.33a.5.5,0,0,1,.25-.43.52.52,0,0,1,.5,0l10.67,6,5.73-9.92L39.46,27.74A.49.49,0,0,1,39.22,27.3ZM25.31,11.49a1.4,1.4,0,1,1,0-2.79,1.4,1.4,0,0,1,0,2.79Z" fill="#fdd600"/><path d="M49.5,19.26,43.27,8.47a.51.51,0,0,0-.68-.19l-10.5,5.9V1.7a.5.5,0,0,0-.5-.5H19.13a.51.51,0,0,0-.5.5l.05,12.44-9.86-6a.46.46,0,0,0-.38,0,.52.52,0,0,0-.31.23L1.9,19.16a.56.56,0,0,0,0,.38.57.57,0,0,0,.24.31l10.34,5.67-10.16,6a.5.5,0,0,0-.17.68L8.32,43a.48.48,0,0,0,.31.23.49.49,0,0,0,.39,0l9.66-5.86V48.3a.51.51,0,0,0,.5.5h0l12.4,0A.49.49,0,0,0,32,48.6a.5.5,0,0,0,.14-.35l0-11L42.4,43.12a.51.51,0,0,0,.68-.19l6.23-10.79a.51.51,0,0,0-.18-.68L39,25.57,49.31,20a.57.57,0,0,0,.24-.31A.46.46,0,0,0,49.5,19.26ZM37.73,25.12a.48.48,0,0,0-.26.43.49.49,0,0,0,.24.44l10.48,6.09L42.46,42,31.79,36a.52.52,0,0,0-.5,0,.5.5,0,0,0-.25.43l.05,11.33-11.41,0V36.47a.5.5,0,0,0-.25-.44.54.54,0,0,0-.25-.06.48.48,0,0,0-.26.07l-10,6.05L3.21,32.17l10.48-6.23a.5.5,0,0,0,0-.87L3,19.22,8.74,9.31l10.18,6.15a.52.52,0,0,0,.51,0,.47.47,0,0,0,.25-.43l0-12.83H31.09V15a.52.52,0,0,0,.8.4l10.76-6,5.73,9.91Z" fill="#231f20"/><path d="M32,21.82l-6.22,0V19.15H33a.5.5,0,0,0,.5-.5.5.5,0,0,0-.5-.5H25.81V12.43a2.4,2.4,0,1,0-1,0v5.72h-6.2a2.27,2.27,0,0,0-1.68.66,2.31,2.31,0,0,0-.69,1.66A2.28,2.28,0,0,0,17,22.09a2.21,2.21,0,0,0,1.65.65l2.89,0,3.32,0v2.55l-1.51,0h0l-2.14,0a2.31,2.31,0,0,0-2.38,2.3,2.27,2.27,0,0,0,.69,1.63,2.22,2.22,0,0,0,1.65.66l3.69,0v2.62l-3,0h0a.51.51,0,0,0-.5.5.5.5,0,0,0,.5.5l3,0v7.39a.5.5,0,0,0,.5.5.5.5,0,0,0,.5-.5V33.55l3.9,0h.07a2.32,2.32,0,0,0,2.31-2.31,2.3,2.3,0,0,0-.69-1.63A2.27,2.27,0,0,0,29.75,29l-1.93,0v0h-2V26.34h.36l5.82.06h.08a2.29,2.29,0,0,0,1.6-.66A2.3,2.3,0,0,0,32,21.82ZM23.91,10.09a1.4,1.4,0,1,1,1.4,1.4A1.4,1.4,0,0,1,23.91,10.09ZM21.59,21.76h0l-2.39,0h-.58a1.24,1.24,0,0,1-.95-.37,1.3,1.3,0,0,1,1-2.22h6.21v2.63ZM29.76,30a1.31,1.31,0,0,1,.94.38,1.28,1.28,0,0,1,0,1.85,1.29,1.29,0,0,1-1,.37l-3.92,0V29.93Zm-5-1-3.7,0a1.26,1.26,0,0,1-.94-.37,1.28,1.28,0,0,1,0-1.85,1.36,1.36,0,0,1,1-.37l3.67,0Zm5.92-2.53v0ZM33,25a1.29,1.29,0,0,1-1,.37H30.64l-4.54,0h-.29V22.78l6.23,0a1.24,1.24,0,0,1,.94.37A1.29,1.29,0,0,1,33,25Z" fill="#231f20"/><line x1="30.73" y1="25.89" x2="30.73" y2="26.39" fill="#231f20"/></svg>