<svg id="b17ce216-79c1-45e5-9ed0-0a201c735718" data-name="ICONS" xmlns="http://www.w3.org/2000/svg" viewBox="0 0 50 50"><path d="M35,14.62a.49.49,0,0,1-.57.25.5.5,0,0,1-.37-.5l.11-2.72a73.8,73.8,0,0,0-9.59,8.11l-.5.52-3.39,7.4a.51.51,0,0,1-.58.28.5.5,0,0,1-.37-.53l.28-3C10.05,35,5.38,44,7.3,45.89c1,1,4.2.48,10.36-3.67l-2.43-.7a.48.48,0,0,1-.36-.53.5.5,0,0,1,.46-.45l5.12-.3A103.17,103.17,0,0,0,31.22,30.8l.09-.09-.94.06a.51.51,0,0,1-.52-.39.5.5,0,0,1,.3-.57l3.56-1.51c1.58-1.59,3.09-3.25,4.49-4.94l-4.45.26a.51.51,0,0,1-.52-.38.51.51,0,0,1,.3-.58l7.73-3.26C45,14.18,47.49,9,48.37,4.82A35.15,35.15,0,0,0,37.82,9.27Z" fill="#fdd600"/><path d="M47.59,2.09A.52.52,0,0,0,47.16,2,35,35,0,0,0,35.43,6.74a.49.49,0,0,0-.18.2l-1.84,3.5.06-1.5a.49.49,0,0,0-.26-.46.51.51,0,0,0-.52,0,74.41,74.41,0,0,0-10.56,8.81c-.17.17-.34.34-.5.52l-.07.07a.45.45,0,0,0-.1.14l-2.19,4.79.15-1.53a.5.5,0,0,0-.86-.39c-8.85,9.15-16.28,19.92-14,23.54L1.78,47.2a.51.51,0,0,0,0,.71.52.52,0,0,0,.71,0l2.75-2.75a3,3,0,0,0,1.62.4c3,0,7.61-2.86,10.49-4.86a.5.5,0,0,0-.15-.89l-.65-.19,2.35-.14a.49.49,0,0,0,.27-.1,102.77,102.77,0,0,0,11-9.62l.94-1,.07-.07a.52.52,0,0,0,.1-.56.58.58,0,0,0-.15-.19l1.31-.55a.91.91,0,0,0,.16-.11,78.66,78.66,0,0,0,5.35-6,.5.5,0,0,0,.06-.54.53.53,0,0,0-.48-.27l-2.68.16L40,18.51a.47.47,0,0,0,.21-.16C44.32,12.67,47,7.05,47.73,2.53A.49.49,0,0,0,47.59,2.09ZM39.51,17.65l-7.73,3.26a.51.51,0,0,0-.3.58.5.5,0,0,0,.52.38l4.45-.26C35.05,23.3,33.54,25,32,26.55l-3.57,1.51a.51.51,0,0,0-.29.57.51.51,0,0,0,.52.39l.94-.06-.09.09A103.17,103.17,0,0,1,18.7,38.49l-5.12.31a.48.48,0,0,0-.46.44.5.5,0,0,0,.36.54l2.43.7c-5.45,3.66-8.6,4.46-9.93,3.93l25.9-25.89a.5.5,0,0,0-.71-.71L5.27,43.71c-1-2.6,3.64-11.13,13-21.07l-.28,3a.49.49,0,0,0,.36.53.5.5,0,0,0,.59-.28l3.39-7.4h0l.49-.51A73.14,73.14,0,0,1,32.43,9.9l-.11,2.72a.5.5,0,0,0,.94.25l2.81-5.35A35.21,35.21,0,0,1,46.61,3.07C45.74,7.29,43.24,12.43,39.51,17.65Z" fill="#231f20"/></svg>