<svg xmlns="http://www.w3.org/2000/svg" viewBox="0 0 50 50"><g id="f68a212c-92db-4944-ba48-53972ab50849" data-name="ICONS"><path d="M24.63.66a24,24,0,1,0,24,24A24,24,0,0,0,24.63.66Zm0,46.93a23,23,0,1,1,23-23A23,23,0,0,1,24.63,47.59Z"/><path d="M18.48,7.51A19,19,0,0,1,31.29,8l.18,0a.5.5,0,0,0,.19-1,20.07,20.07,0,0,0-13.48-.51.51.51,0,0,0-.33.63A.5.5,0,0,0,18.48,7.51Z"/><path d="M25,13.35A18.11,18.11,0,0,0,9.85,21.77a.5.5,0,0,0,.15.69.45.45,0,0,0,.27.08.51.51,0,0,0,.42-.23A16.9,16.9,0,0,1,39.19,22a.5.5,0,0,0,.83-.56A18.13,18.13,0,0,0,25,13.35Z"/><path d="M14.15,13.49a.51.51,0,0,0,.28-.09,18.11,18.11,0,0,1,20.38-.12.5.5,0,0,0,.7-.13.51.51,0,0,0-.14-.7,19.11,19.11,0,0,0-21.51.13.5.5,0,0,0,.29.91Z"/><path d="M29.23,42.28c-8.61-1.41-8.93-11-8.94-11.45a3.91,3.91,0,0,1,7.81,0s0,0,0,.06A4.91,4.91,0,0,0,33,35.78a5,5,0,0,0,4.9-4.89,13.75,13.75,0,0,0-3.58-10.16,12.24,12.24,0,0,0-8.77-3.86c-9.85-.16-14.77,7.81-15.14,15.28-.16,3.25,1.28,10.23,7.88,13.44a.41.41,0,0,0,.21,0,.48.48,0,0,0,.45-.28.5.5,0,0,0-.23-.67c-6.12-3-7.46-9.47-7.31-12.49.49-10.05,7.44-14.45,14.12-14.33a11.26,11.26,0,0,1,8.06,3.54,12.76,12.76,0,0,1,3.31,9.44A4,4,0,0,1,33,34.78a3.91,3.91,0,0,1-3.91-3.89.14.14,0,0,0,0-.06,4.91,4.91,0,1,0-9.82,0c0,.11.34,10.88,9.77,12.43h.09a.5.5,0,0,0,.08-1Z"/><path d="M16.35,30.29c.75-5.19,3.24-7.51,8.09-7.51a8.94,8.94,0,0,1,8.67,8.43.51.51,0,0,0,.54.46.5.5,0,0,0,.46-.54,10,10,0,0,0-9.67-9.35c-5.37,0-8.26,2.66-9.08,8.37-.71,5,1,8.89,5.54,12.67a.49.49,0,0,0,.32.12.48.48,0,0,0,.38-.18.49.49,0,0,0-.06-.7C17.29,38.52,15.69,34.89,16.35,30.29Z"/><path d="M37.47,36.73a6.77,6.77,0,0,1-5,2.3c-3.94,0-7.15-3.57-7.15-8a7.14,7.14,0,0,1,0-.8.51.51,0,0,0-.46-.54.5.5,0,0,0-.54.46,8.51,8.51,0,0,0,0,.88c0,4.94,3.66,9,8.15,9a7.73,7.73,0,0,0,5.77-2.63.5.5,0,1,0-.74-.67Z"/></g><g id="fda1fe51-9076-42f8-98c9-09139b3b6d3d" data-name="LABELS"><text transform="translate(-0.1 54.97)" font-size="6" font-family="Roboto-Regular, Roboto">fingerprint</text></g></svg>