<svg id="babf51a3-37dc-4fae-aab8-cc7e6c366dcb" data-name="ICONS" xmlns="http://www.w3.org/2000/svg" viewBox="0 0 50 50"><path d="M41.44,24h.14C39.79,13.61,32.13,6.41,22.79,6.41A19.64,19.64,0,0,0,3.18,26c0,5,2.18,10.88,5.2,14,.4,0,1.6.05,2.59.08s2,0,2.74.07c1.61.07,3,1.55,4.49,3.11,1.79,1.89,3.63,3.86,6.07,3.82,3.82,0,6.47-.9,8.08-2.62s2.25-4.32,2-8c-.11-2-1.38-3.75-2.41-5.13A4.84,4.84,0,0,1,30.75,29C30.59,24.72,38.75,24.18,41.44,24ZM25.18,41.4a3,3,0,1,1,3-3A3,3,0,0,1,25.18,41.4Z" fill="#fdd600"/><path d="M25.18,34.47a4,4,0,1,0,4,4A4,4,0,0,0,25.18,34.47Zm0,6.93a3,3,0,1,1,3-3A3,3,0,0,1,25.18,41.4Z" fill="#231f20"/><path d="M48.7,29.09c-1.42-.9-3.8-.34-6.81.37-1.47.34-3,.71-4.64.94-.2-2.38-.35-4.78-.45-6.86.9-.12,1.88-.22,3-.29.81-.05.89-.06,1-.25a.5.5,0,0,0,.1-.39C39.21,11.45,31,3.66,21,3.66A20.64,20.64,0,0,0,.43,24.27C.43,29.6,2.79,35.83,6,39.07c.19.2.19.2,3.16.26l2.72.08c1.21.05,2.47,1.39,3.81,2.8,1.83,1.93,3.91,4.13,6.74,4.13h.06c4.11,0,7-1,8.8-2.93s2.54-4.77,2.32-8.8a7.52,7.52,0,0,0-.89-3,18.74,18.74,0,0,0,3.59-.05c.44,4.76,1.17,10,2.31,11.24a8.16,8.16,0,0,0,6.19,2.55,10.55,10.55,0,0,0,2.82-.37.5.5,0,0,0,.35-.38C48.68,41.25,50.68,30.37,48.7,29.09Zm-6.58,1.34c2.67-.63,5-1.17,6-.49.53.34.51,2.87.16,6.18-2.76.86-8.69,1-10.3,1-.26-1.71-.49-3.69-.68-5.73C39,31.16,40.66,30.77,42.12,30.43ZM30.6,42.72c-1.61,1.72-4.26,2.58-8.08,2.62-2.44,0-4.28-1.93-6.07-3.82C15,40,13.57,38.48,12,38.41c-.73,0-1.76,0-2.74-.07S7,38.29,6.63,38.26c-3-3.11-5.2-9-5.2-14A19.64,19.64,0,0,1,21,4.66c9.34,0,17,7.2,18.79,17.58h-.14c-2.69.18-10.85.72-10.69,5a4.84,4.84,0,0,0,1.24,2.28c1,1.38,2.3,3.1,2.41,5.13C32.85,38.4,32.18,41,30.6,42.72Zm1.53-12.24c-.37-.56-.75-1.08-1.08-1.53A5.47,5.47,0,0,1,30,27.22c-.07-1.7,1.89-2.88,5.81-3.53,0,1.22.19,3.86.45,6.84A16.3,16.3,0,0,1,32.13,30.48Zm15,13.57c-1.1.25-5.1.89-7.7-2a10.19,10.19,0,0,1-1.21-4,52.43,52.43,0,0,0,10-.92C47.93,39.35,47.55,41.75,47.1,44.05Z" fill="#231f20"/></svg>