<svg xmlns="http://www.w3.org/2000/svg" viewBox="0 0 50 50"><g id="f88d5711-7a56-429f-bb92-c6904aa4e6a5" data-name="ICONS"><path d="M37.13,39.45c-2.49-.67-8.3-2.24-10.17-6.6C24.69,27.55,24.43,19.3,24.82,15c.11-1.22.31-3.1.62-5.58-3.19,1.15-13.95,4-18.09,5.07.12,1.71.58,8,.56,10A54,54,0,0,1,6.7,35.89,28.15,28.15,0,0,0,6,40.81a9.32,9.32,0,0,0,2.74,7.13,5.66,5.66,0,0,0,4.41,1.62c6.48-.66,14.56-1.28,19.79-.26.88-1,4.14-7.84,4.91-9.64C37.67,39.59,37.39,39.52,37.13,39.45Z" fill="#fdd600"/><path d="M24.45,1A.51.51,0,0,0,24,.42a.5.5,0,0,0-.56.43S23,4,22.62,7c.47-.15.83-.27,1.06-.36C24,3.77,24.44,1,24.45,1Z" fill="#231f20"/><path d="M5.11.86a.5.5,0,0,0-1,.12c0,.05.68,5.34,1.24,10.83l1-.25C5.77,6.11,5.11.91,5.11.86Z" fill="#231f20"/><path d="M22.92,17.28h-17l.06,1h17C22.93,17.94,22.93,17.6,22.92,17.28Z" fill="#231f20"/><path d="M46.72,42.84A2.73,2.73,0,0,0,44,40.71a10.5,10.5,0,0,1-7-2.41l-.42,1A11.2,11.2,0,0,0,44.1,41.7c1.21-.08,1.62,1.31,1.63,1.31h0a3.56,3.56,0,0,1-2.55,3.51c-2.46.87-8.32.41-10.26.22-.22.39-.41.71-.57,1,.74.08,3.4.34,6.08.34a16.92,16.92,0,0,0,5.09-.57A4.62,4.62,0,0,0,46.72,42.84Z" fill="#231f20"/><path d="M23.23,22.63,5.34,32.09c-.08.43-.16.85-.23,1.25l18.25-9.65C23.31,23.34,23.27,23,23.23,22.63Z" fill="#231f20"/><path d="M23.81,26.39,14.22,47.54l1.14-.1L24.18,28C24,27.47,23.92,26.94,23.81,26.39Z" fill="#231f20"/><path d="M28,34.49l-1.6,12.56,1,.05,1.53-12Q28.43,34.82,28,34.49Z" fill="#231f20"/><path d="M34.69,43.31c.66-1.34,1.41-2.93,1.93-4.06l.42-1c.11-.26.18-.45.2-.51.15-.59-.37-.72-1.6-1.06-2.34-.63-7.83-2.11-9.51-6-2.2-5.13-2.44-13.17-2.07-17.33.12-1.34.37-3.49.72-6.39a.49.49,0,0,0-.43-.55h-.09a.47.47,0,0,0-.34.12l-.24.12c-.23.09-.59.21-1.06.36-3,1-10.65,3-16.29,4.53l-1,.25-.41.11a.5.5,0,0,0-.37.52c0,.08.61,8.13.59,10.37A53.38,53.38,0,0,1,4,34,28.63,28.63,0,0,0,3.28,39a10.37,10.37,0,0,0,3.06,7.89,6.79,6.79,0,0,0,4.59,1.9q.3,0,.6,0c6.49-.66,14.6-1.28,19.69-.23.26,0,.48.1,1.13-.89.16-.24.35-.56.57-1C33.36,46,33.93,44.86,34.69,43.31Zm-3.47,4.24a31.7,31.7,0,0,0-3.84-.45l-1-.05a94.11,94.11,0,0,0-11,.39l-1.14.1-2.79.27A5.66,5.66,0,0,1,7,46.19a9.32,9.32,0,0,1-2.74-7.13A28.15,28.15,0,0,1,5,34.14c0-.26.11-.53.16-.8s.15-.82.23-1.25a52.62,52.62,0,0,0,.82-9.28c0-.9-.08-2.69-.19-4.53l-.06-1c-.13-1.9-.26-3.7-.31-4.5C9.74,11.7,20.5,8.86,23.69,7.71c-.31,2.48-.51,4.36-.62,5.58s-.16,2.47-.15,4c0,.32,0,.66,0,1,0,1.38.13,2.86.29,4.35,0,.35.08.71.13,1.06.12.91.27,1.82.45,2.7.11.55.23,1.08.37,1.61a20.86,20.86,0,0,0,1,3.1A8.5,8.5,0,0,0,28,34.49q.45.33.93.63a23.84,23.84,0,0,0,6.47,2.58l.62.17.13,0c-.08.16-.18.39-.29.64C34.76,41,32,46.64,31.22,47.55Z" fill="#231f20"/></g><g id="a3034d64-887d-4d1d-9877-661106e163fc" data-name="LABELS"><text transform="translate(-0.1 54.96)" font-size="6" fill="#231f20" font-family="Roboto-Regular, Roboto">foot-inju<tspan x="22.05" y="0" letter-spacing="0.01em">r</tspan><tspan x="24.13" y="0">y</tspan></text></g></svg>