<svg xmlns="http://www.w3.org/2000/svg" viewBox="0 0 50 50"><g id="a42569c2-3eb5-44f1-84b5-04a580470f52" data-name="ICONS"><circle cx="23.44" cy="23.46" r="14.49" fill="#fdd600"/><path d="M43.54.91a.52.52,0,0,0,0-.11.23.23,0,0,0-.07-.1s0,0,0-.06h0a.42.42,0,0,0-.14-.09s0,0,0,0h-.07a.28.28,0,0,0-.13,0H35.84a.5.5,0,0,0,0,1h6l-9.44,9h0a15.48,15.48,0,1,0-10.93,26.9v7.23H16.81a.5.5,0,0,0-.5.5.5.5,0,0,0,.5.5h4.63V49a.5.5,0,0,0,.5.5.5.5,0,0,0,.5-.5V45.66h4.63a.51.51,0,0,0,.5-.5.5.5,0,0,0-.5-.5H22.44V37.43a15.46,15.46,0,0,0,10.65-26.2l9.47-9.07V7.87a.5.5,0,0,0,.5.5.51.51,0,0,0,.5-.5V1A.24.24,0,0,0,43.54.91ZM21.94,36.46A14.5,14.5,0,1,1,36.43,22,14.52,14.52,0,0,1,21.94,36.46Z" fill="#231f20"/><path d="M29.22,18.8H14.66a.5.5,0,0,0-.5.5.5.5,0,0,0,.5.5H29.22a.5.5,0,0,0,.5-.5A.51.51,0,0,0,29.22,18.8Z" fill="#231f20"/><path d="M29.22,24.12H14.66a.5.5,0,0,0,0,1H29.22a.5.5,0,0,0,0-1Z" fill="#231f20"/></g><g id="e6e043d2-615a-4da3-a36f-da58f87375a4" data-name="LABELS"><text transform="translate(0.07 54.84)" font-size="6" fill="#231f20" font-family="Roboto-Regular, Roboto">gender-equality</text></g></svg>