<svg xmlns="http://www.w3.org/2000/svg" viewBox="0 0 50 50"><g id="a44c735f-5c57-4971-b1c2-a5e9c6275eef" data-name="ICONS"><path d="M7.56,26.42c3.14,7,7.7,11.72,10.75,11a5.91,5.91,0,0,0,3.36-2.6,5.81,5.81,0,0,0,.73-4.23C21.69,28,16.26,25.75,7.56,26.42Z" fill="#fdd600"/><path d="M26.23,3.07c-5.29,7.43-7.35,15-4.79,17.68a7,7,0,0,0,4.71,1.87,6.84,6.84,0,0,0,4.77-1.81C33.52,18.13,31.5,10.57,26.23,3.07Z" fill="#fdd600"/><path d="M30.06,37.34a5.92,5.92,0,0,0,3.4,7.2c2.54.85,7.47-2.35,11.79-9.9a34.54,34.54,0,0,0-6.06-.58C34.05,34.06,30.78,35.5,30.06,37.34Z" fill="#fdd600"/><path d="M45,32.46a.49.49,0,0,0-.36-.28C36,30.5,29,31.82,27.63,35.39A6.91,6.91,0,0,0,27.78,40L25,41.31l.13-19.18a8,8,0,0,0,5-2.09c3-3.16.94-11.43-5-19.66a.49.49,0,0,0-.4-.21h0a.51.51,0,0,0-.41.2c-6,8.16-8.15,16.4-5.13,19.59a7.9,7.9,0,0,0,4.94,2.16l-.09,13-2.83-1.69a6.87,6.87,0,0,0,.61-4.59C20.83,25.16,14,23.16,5.2,24a.47.47,0,0,0-.38.24.48.48,0,0,0,0,.45C8,32.16,12.54,37,16.16,37A4,4,0,0,0,17,37a6.87,6.87,0,0,0,3.72-2.66l3.19,1.91a.33.33,0,0,0,.14,0L24,49.33a.5.5,0,0,0,.5.5h0a.5.5,0,0,0,.5-.5L25,42.42l3.19-1.51a6.81,6.81,0,0,0,3.44,3,3.76,3.76,0,0,0,1.25.2c3.57,0,8.35-4.34,12.13-11.21A.51.51,0,0,0,45,32.46ZM20.89,29.12a5.79,5.79,0,0,1-.5,3.8l-2.2-1.32-.92-3.66a.51.51,0,0,0-.61-.37.51.51,0,0,0-.36.61l.68,2.7L14.2,29.21h0L10.44,27l-.28-1.13a.51.51,0,0,0-.61-.37.5.5,0,0,0-.36.61l0,.16L6.94,24.86C15.12,24.42,20.2,26.64,20.89,29.12ZM16.78,36c-2.94.67-7.3-3.69-10.44-10.3l6.31,3.78-1.54.38a.5.5,0,0,0,.12,1l.12,0,2.51-.63,6,3.61A5.79,5.79,0,0,1,16.78,36ZM29.46,19.34a6.9,6.9,0,0,1-4.29,1.79l0-3.14,3.19-3.14a.51.51,0,0,0,0-.71.5.5,0,0,0-.71,0L25.2,16.58l.06-9.21,1-1a.5.5,0,1,0-.7-.72L25.27,6l0-3.64C30.17,9.59,32,16.74,29.46,19.34ZM20,19.28c-2.5-2.65-.62-9.84,4.34-17.08l-.06,9.14L22.77,9.86a.5.5,0,0,0-.71.71l2.16,2.19,0,8.36A7,7,0,0,1,20,19.28Zm8.61,16.47c.72-1.85,4-3.29,9.16-3.29a33.67,33.67,0,0,1,5.14.43L40.45,34l.06-.16a.5.5,0,0,0-.94-.34l-.4,1.1-4,1.87h0l-2.93,1.38.94-2.61a.5.5,0,0,0-.94-.34L31,38.49l-2.31,1.09A5.78,5.78,0,0,1,28.56,35.75ZM32,43a5.76,5.76,0,0,1-2.85-2.49l6.33-3,2.44.87a.47.47,0,0,0,.17,0,.5.5,0,0,0,.17-1l-1.5-.53,6.65-3.14C39.61,40,34.85,43.94,32,43Z" fill="#231f20"/></g><g id="b3137a33-100a-4a0c-a667-f7584bbe3b89" data-name="LABELS"><text transform="translate(0 55.05)" font-size="6" fill="#231f20" font-family="Roboto-Regular, Roboto">g<tspan x="3.37" y="0" letter-spacing="-0.01em">r</tspan><tspan x="5.34" y="0">owing-plant</tspan></text></g></svg>