<svg id="bd5ddd7f-1516-4420-bd4f-c084d827b20a" data-name="ICONS" xmlns="http://www.w3.org/2000/svg" viewBox="0 0 50 50"><path d="M45,28.46a9.64,9.64,0,0,0-7.24-2.77,2.54,2.54,0,0,1-2.58-1.79,7.16,7.16,0,0,0-3-4.06,7.38,7.38,0,0,0-8.49.35L12.31,8.76l.51-.51a.5.5,0,0,0,0-.71l-.74-.74,1-1a.51.51,0,0,0,0-.71.5.5,0,0,0-.71,0l-1,1-1-1,1-1a.5.5,0,0,0,0-.71.5.5,0,0,0-.7,0l-1,1-1-1,1-1a.5.5,0,0,0,0-.7.5.5,0,0,0-.71,0l-1,1-.74-.75a.51.51,0,0,0-.71,0L1.88,6.56a.51.51,0,0,0,0,.71L2.62,8l-1,1a.51.51,0,0,0,0,.71A.51.51,0,0,0,2,9.9a.49.49,0,0,0,.35-.15l1-1,1,1-1,1a.51.51,0,0,0,0,.71.52.52,0,0,0,.71,0l1-1,1,1-1,1a.48.48,0,0,0,0,.7.48.48,0,0,0,.7,0l1-1,.75.75a.5.5,0,0,0,.35.14.52.52,0,0,0,.35-.14l.52-.52L20.14,23.79a7.38,7.38,0,0,0-.35,8.5,7.15,7.15,0,0,0,4.06,3,2.54,2.54,0,0,1,1.79,2.59,9.54,9.54,0,0,0,16.27,7.23L45,42A9.56,9.56,0,0,0,45,28.46ZM7.84,11.81,2.94,6.92,6.87,3l4.89,4.9ZM11.6,9.47,27.08,25a4.15,4.15,0,0,0-1.3.88,4,4,0,0,0-.88,1.31L9.42,11.65ZM31,26.54a3.16,3.16,0,1,1-2.24-.93A3.17,3.17,0,0,1,31,26.54ZM44.3,41.26l-3.1,3.1a8.53,8.53,0,0,1-14.56-6.48,3.55,3.55,0,0,0-2.52-3.6,6.15,6.15,0,0,1-3.5-2.55,6.36,6.36,0,0,1,.23-7.23l3.76,3.76a4.16,4.16,0,1,0,3.59-3.6l-3.75-3.75a6.58,6.58,0,0,1,3.84-1.26,6.1,6.1,0,0,1,3.39,1,6.24,6.24,0,0,1,2.55,3.5,3.52,3.52,0,0,0,3.59,2.52A8.54,8.54,0,0,1,44.3,41.26Z"/><path d="M38.22,32.37a.5.5,0,0,0-.7,0l-5.2,5.2a.5.5,0,0,0,0,.71l2.1,2.1a.5.5,0,0,0,.35.14.52.52,0,0,0,.36-.14l5.2-5.2a.5.5,0,0,0,.14-.35.52.52,0,0,0-.14-.36Zm-4.84,5.55,4.49-4.49,1.4,1.4-4.5,4.49Z"/></svg>