<svg xmlns="http://www.w3.org/2000/svg" viewBox="0 0 50 50"><g id="ff752ad8-796b-4f10-9bcb-91d109f8648e" data-name="ICONS"><path d="M46.55,27.24H32.8l-16.95.09h0a.46.46,0,0,1-.33-.13l-9.25-8.4a1.89,1.89,0,0,0-2.48,2.85l9.41,9v1H6.28a2.47,2.47,0,1,0,0,4.94l40.26,0a2.52,2.52,0,0,0,2.53-2.52V29.76A2.52,2.52,0,0,0,46.55,27.24Z" fill="#fdd600"/><path d="M44.8,24.49H38.47a.58.58,0,0,0,0-.18V9.23h2.17a.5.5,0,0,0,.5-.5.5.5,0,0,0-.5-.5H38.51V6.47A.51.51,0,0,0,38,6a.5.5,0,0,0-.5.5V8.23H32.67a.51.51,0,0,0-.35.15.51.51,0,0,0-.15.36v1.84H30.94a.5.5,0,0,0-.5.5v6.59a.5.5,0,0,0,.5.5h1.2c-.34,4.27-1.2,6.27-2.71,6.28a.51.51,0,0,0-.22.06l-12.11.07A3.82,3.82,0,0,0,17,21.43a10.31,10.31,0,0,0-3.14-3.82,9,9,0,0,0-4.7-2,4.33,4.33,0,0,0-3.59,1.1l-.41-.38a2.89,2.89,0,0,0-2.09-.7,2.85,2.85,0,0,0-2,1,2.89,2.89,0,0,0,.26,4.06L10.05,29H4.53a3.47,3.47,0,1,0,0,6.94H8.45v2.61a2.8,2.8,0,1,0,1,0v-2.6l33.24,0v2.65a2.8,2.8,0,1,0,1,0V35.87H44.8a3.53,3.53,0,0,0,3.52-3.52V28A3.53,3.53,0,0,0,44.8,24.49Zm-34,16.75A1.79,1.79,0,1,1,9,39.46,1.79,1.79,0,0,1,10.78,41.24Zm34.24,0a1.79,1.79,0,1,1-1.78-1.78A1.79,1.79,0,0,1,45,41.24ZM31.44,11.58h2.44v5.59H31.44Zm1.7,6.59h1.24a.5.5,0,0,0,.5-.5V11.08a.5.5,0,0,0-.5-.5H33.17V9.23h4.34V24.31a.57.57,0,0,0,0,.18H31.41C32.57,23.15,33,20.58,33.14,18.17ZM9.08,16.58a8,8,0,0,1,4.16,1.81,9.41,9.41,0,0,1,2.85,3.43,2.63,2.63,0,0,1-.16,2.76H14.29L6.34,17.37A3.42,3.42,0,0,1,9.08,16.58ZM47.32,32.35a2.52,2.52,0,0,1-2.53,2.52l-40.26,0a2.47,2.47,0,1,1,0-4.94H43.22a.5.5,0,0,0,0-1H11.49L2,19.91a1.89,1.89,0,0,1,2.48-2.85l9.25,8.4a.46.46,0,0,0,.33.13h0l17-.09H44.8A2.52,2.52,0,0,1,47.32,28Z" fill="#231f20"/></g><g id="f79b6656-208a-44b0-878c-4d71be84c419" data-name="LABELS"><text transform="translate(-0.52 54.91)" font-size="6" fill="#231f20" font-family="Roboto-Regular, Roboto">gurn<tspan x="12.01" y="0" letter-spacing="-0.01em">e</tspan><tspan x="15.16" y="0">y-st</tspan><tspan x="24.7" y="0" letter-spacing="-0.01em">r</tspan><tspan x="26.68" y="0">etcher</tspan></text></g></svg>