<svg id="ICONS" xmlns="http://www.w3.org/2000/svg" viewBox="0 0 50 50"><path d="M24.42,16.84l.61-.6a.51.51,0,0,0,0-.71l-4.61-4.61,2.26-2.26a3.39,3.39,0,0,1,4.77,0l.53.53a.5.5,0,0,0,.7,0l2.5-2.51a.48.48,0,0,0,0-.7L27.94,2.73a5.79,5.79,0,0,0-8.2,0L15.63,6.84h0l-8.3,8.31a.5.5,0,0,0,0,.71,2,2,0,0,1,0,2.84,2,2,0,0,1-1.94.5l-.9-.9a.51.51,0,0,0-.71,0L.62,21.46a.51.51,0,0,0,0,.71L9.7,31.25a.5.5,0,0,0,.36.14.49.49,0,0,0,.35-.14l3.16-3.16a.51.51,0,0,0,.15-.35.53.53,0,0,0-.15-.36l-.91-.9A2,2,0,0,1,16,24.54a.5.5,0,0,0,.71,0l.68-.68,25,25a.53.53,0,0,0,.36.15.51.51,0,0,0,.35-.15l6.32-6.32a.5.5,0,0,0,0-.7Zm-4-13.4a4.8,4.8,0,0,1,6.78,0l2.89,2.89L28.33,8.12,28.16,8A4.38,4.38,0,0,0,22,8l-2.26,2.26-3-3ZM10.06,30.19,1.68,21.81l2.45-2.45,8.38,8.38Zm6.28-6.68a3,3,0,0,0-3.88.33,2.89,2.89,0,0,0-.83,1.6l-5.2-5.2A3,3,0,0,0,8,19.41a3,3,0,0,0,.33-3.88L16,7.9l8,8ZM42.71,47.76l-24.6-24.6,5.61-5.61,24.6,24.6Z"/></svg>