<svg xmlns="http://www.w3.org/2000/svg" viewBox="0 0 50 50"><g id="bcc1ff7f-692e-448a-b077-e963a39e0874" data-name="ICONS"><path d="M31.72,43.81A15.9,15.9,0,1,1,17.19,16.46a.5.5,0,0,0,.36-.61.5.5,0,0,0-.61-.35A16.9,16.9,0,1,0,32.38,44.56a.49.49,0,0,0,0-.7A.51.51,0,0,0,31.72,43.81Z"/><path d="M42.44,42.61,37.58,31.13A3.85,3.85,0,0,0,34,28.79H26.9V23.12H31a3.29,3.29,0,1,0,0-6.58H26.9v-2.2a2.36,2.36,0,0,0-.47-1.56,2.53,2.53,0,0,0-2-.93H21.67a2.68,2.68,0,0,0-1.94,1,2.57,2.57,0,0,0-.55,1.48V32.59A3.84,3.84,0,0,0,23,36.4h8.4l3.87,9.14a3.88,3.88,0,0,0,3.57,2.35,4.1,4.1,0,0,0,1.48-.29,3.83,3.83,0,0,0,2.09-2.09A3.74,3.74,0,0,0,42.44,42.61Zm-.91,2.52A2.82,2.82,0,0,1,40,46.67a2.88,2.88,0,0,1-3.75-1.52l-4-9.45a.51.51,0,0,0-.46-.3H23a2.84,2.84,0,0,1-2.86-2.81V14.35a1.61,1.61,0,0,1,.34-.9,1.65,1.65,0,0,1,1.17-.59h2.77a1.52,1.52,0,0,1,1.18.54,1.41,1.41,0,0,1,.26.92V17a.51.51,0,0,0,.5.5H31a2.29,2.29,0,1,1,0,4.58H26.4a.5.5,0,0,0-.5.5v6.66a.5.5,0,0,0,.5.5H34a2.85,2.85,0,0,1,2.65,1.73L41.52,43A2.76,2.76,0,0,1,41.53,45.13Z"/><path d="M23.2,10.68A4.71,4.71,0,1,0,18.49,6,4.71,4.71,0,0,0,23.2,10.68Zm0-8.41A3.71,3.71,0,1,1,19.49,6,3.7,3.7,0,0,1,23.2,2.27Z"/></g><g id="b4379387-b4ee-4f93-9894-f91d9cbe4626" data-name="LABELS"><text transform="translate(-0.27 55.01)" font-size="6" font-family="Roboto-Regular, Roboto">handicap</text></g></svg>