<svg xmlns="http://www.w3.org/2000/svg" viewBox="0 0 50 50"><g id="bd30bf93-04eb-4e46-bbfa-bccfefa18a11" data-name="ICONS"><path d="M24.24,9.06,22.05,13,13.48,28.13l4.7,1.16,7.93-14,2.2-3.89Z" fill="#fdd600"/><path d="M14.3,36.18,9.77,34.71,8.2,37.48a6.83,6.83,0,0,1,4.07,2.29Z" fill="#fdd600"/><path d="M7.29,41a2.34,2.34,0,0,0-.71-.26l-.16,1.92L8,41.56A2.66,2.66,0,0,0,7.29,41Z" fill="#fdd600"/><rect x="38.77" y="23.5" width="10.55" height="19.29" fill="#fdd600"/><path d="M48.32,21H36.77a.5.5,0,0,0-.5.5V24c-5.63-5.72-10.12-6.47-12.47-6.34l-.25,0,2.18-3.86h0l2.19-3.89a.49.49,0,0,0-.19-.68L22.8,6.44a.51.51,0,0,0-.68.19L15,19.28a50,50,0,0,0-5.76,1.54,9.5,9.5,0,0,0-4.15,2.46,9.4,9.4,0,0,0-1.82,2.64L.74,33.08a.54.54,0,0,0,0,.1,3.75,3.75,0,0,0,2.07,3.91,3.49,3.49,0,0,0,2.55.09l-.48,5.9a.52.52,0,0,0,.26.48.51.51,0,0,0,.53,0l5.48-3.94h0l.06-.07a.27.27,0,0,0,.07-.08h0l.56-1v.25a3.54,3.54,0,0,0,6.42,2.06,3.53,3.53,0,0,0,6.58-.41,14.4,14.4,0,0,0,3.59,1c.25,0,.64.08,1.14.11l.67,0a13.8,13.8,0,0,0,6-1.4V41.8a.5.5,0,0,0,.5.5H48.32a.5.5,0,0,0,.5-.5V21.5A.5.5,0,0,0,48.32,21Zm-.5,20.3H37.27V22H47.82Zm-28.9-2V36.65L20,37a13.79,13.79,0,0,0,2,1.74,14.41,14.41,0,0,0,1.93,1.17,2.54,2.54,0,0,1-5-.64Zm-3.55,2a2.55,2.55,0,0,1-2.54-2.55v-2L13.77,35l4.15,1.34v2.35A2.55,2.55,0,0,1,15.37,41.23Zm-12.18-5A2.72,2.72,0,0,1,1.7,33.36L4.17,26.3A8.19,8.19,0,0,1,5.78,24a8.59,8.59,0,0,1,3.75-2.22c1.9-.62,3.56-1.06,4.79-1.33L11,26.38l-2-.49a3.6,3.6,0,0,0-2.11,6.86l.44.15L5.53,36A2.74,2.74,0,0,1,3.19,36.18ZM26.8,9.85l-1.7,3L21,10.58l1.7-3ZM10.13,39.07,8.3,40.39a3.75,3.75,0,0,0-1-.85,4,4,0,0,0-1.12-.37l.18-2.23a5.71,5.71,0,0,1,2.17.74A5.79,5.79,0,0,1,10.13,39.07Zm-4,1.09a3.1,3.1,0,0,1,.72.26A2.86,2.86,0,0,1,7.5,41L5.94,42.09ZM16.68,27.79,12,26.63l8.56-15.18,4.07,2.29ZM9,36.82A6.93,6.93,0,0,0,6.7,36l1.57-2.77,4.53,1.47-2,3.59A6.9,6.9,0,0,0,9,36.82Zm13.53,1.11a13.13,13.13,0,0,1-1.94-1.71.55.55,0,0,0-.22-.14L7.2,31.82a2.7,2.7,0,0,1-1.61-3,2.67,2.67,0,0,1,3.15-1.95l15.11,3.71a.48.48,0,0,0,.6-.36.51.51,0,0,0-.36-.61L17.69,28l5.23-9.28a7.16,7.16,0,0,1,.93-.12c1.85-.1,6.48.44,12.42,6.79V38.92a12.7,12.7,0,0,1-6.65,1.53c-.47,0-.83-.07-1.07-.1A13.71,13.71,0,0,1,22.56,37.93Z" fill="#231f20"/></g><g id="b857e994-d0cc-48f1-8132-588117f975b0" data-name="LABELS"><text transform="translate(0 54.5)" font-size="6" fill="#231f20" font-family="Roboto-Regular, Roboto">hand-writing-with-pen</text></g></svg>