<svg xmlns="http://www.w3.org/2000/svg" viewBox="0 0 50 50"><g id="fc74d889-dae7-409f-a9b2-812cbbb442cf" data-name="ICONS"><path d="M6.29,26.45h6.6l4.23-5.79a.44.44,0,0,1,.43-.2.47.47,0,0,1,.4.24l6.82,11.59,6.8-17.67A.51.51,0,0,1,32,14.3h0a.5.5,0,0,1,.46.32l4.59,11.8,9.12,0A11.85,11.85,0,0,0,29.31,9.84L26.6,12.55a.52.52,0,0,1-.36.14.52.52,0,0,1-.35-.14L23.18,9.84A11.84,11.84,0,0,0,6.29,26.45Z" fill="#fdd600"/><path d="M45.28,7.63a12.87,12.87,0,0,0-18.18,0L24.74,10,22.39,7.63A12.85,12.85,0,0,0,4.21,25.8h0L24.39,46a.47.47,0,0,0,.35.15A.49.49,0,0,0,25.1,46L45.28,25.8A12.86,12.86,0,0,0,45.28,7.63Zm-32-2.76a11.81,11.81,0,0,1,8.38,3.47l2.71,2.71a.5.5,0,0,0,.35.14.52.52,0,0,0,.36-.14l2.71-2.71A11.85,11.85,0,0,1,44.71,25l-9.12,0L31,13.12a.5.5,0,0,0-.46-.32h0a.51.51,0,0,0-.47.32l-6.8,17.67L16.45,19.2a.47.47,0,0,0-.4-.24.44.44,0,0,0-.43.2L11.39,25H4.79A11.84,11.84,0,0,1,13.3,4.87ZM11.65,26a.51.51,0,0,0,.4-.2L16,20.36l7,11.83a.5.5,0,0,0,.43.25h0a.52.52,0,0,0,.43-.32l6.71-17.43L34.79,25.6a.49.49,0,0,0,.46.32l8.47,0-19,19-19-19Z" fill="#231f20"/></g><g id="e237438a-92a6-47d2-be21-1b38d83a604c" data-name="LABELS"><text transform="translate(-0.05 54.92)" font-size="6" fill="#231f20" font-family="Roboto-Regular, Roboto">hea<tspan x="9.75" y="0" letter-spacing="0.02em">r</tspan><tspan x="11.92" y="0">tbeat</tspan></text></g></svg>