<svg xmlns="http://www.w3.org/2000/svg" viewBox="0 0 50 50"><g id="a758d868-d80a-4a85-8ca8-7b19d80d3759" data-name="ICONS"><path d="M13.46,24.92A10.34,10.34,0,1,0,23.8,35.26,10.35,10.35,0,0,0,13.46,24.92Z" fill="#fdd600"/><path d="M7.69,30.26a.5.5,0,0,0-.64.78,3.61,3.61,0,0,1,1.3,2.57A3.7,3.7,0,0,1,7,36.49a.49.49,0,0,0-.07.7.49.49,0,0,0,.7.08,4.49,4.49,0,0,0,0-7Z" fill="#231f20"/><path d="M44.29,6.81a15.69,15.69,0,0,0-11.3-5c-9,0-16.38,8.1-16.38,18.06a.5.5,0,0,0,.5.5h.06a.5.5,0,0,0,.44-.49c0-9.41,6.9-17.06,15.38-17.06A14.7,14.7,0,0,1,43.57,7.5a17,17,0,0,1,4.8,12.31C48,28.75,40.08,33.53,39.7,33.75a5.5,5.5,0,0,0-1.48,1.56,6.47,6.47,0,0,0-1,2.95c-.47,5-4.25,8.91-8.61,9A7.16,7.16,0,0,1,23.33,45a12.62,12.62,0,0,1-2.67-4,11.33,11.33,0,0,0,2.45-5.28,3.11,3.11,0,0,0,2.32,1.15,2.43,2.43,0,0,0,.75-.11,2.76,2.76,0,0,0,1.66-1.62,3.34,3.34,0,0,0-.11-2.8c-.52-1.18-3.12-7.23-3.67-10.54-.13-.81-.18-1.63-.19-1.64a16.35,16.35,0,0,1,.25-3.83c1.32.08,5.52.63,7.76,4.33A9.21,9.21,0,0,1,33,27a.51.51,0,0,0,.4.59h.1a.51.51,0,0,0,.49-.41,10.24,10.24,0,0,0-1.22-7.08c-2.36-3.88-6.65-4.61-8.33-4.77a9.86,9.86,0,0,1,5.77-5.77c4.25-1.42,8.53.86,10.72,3.59A10.17,10.17,0,0,1,43,18a10.28,10.28,0,0,1-.6,5,.5.5,0,1,0,.93.36,11.27,11.27,0,0,0,.66-5.51,11,11,0,0,0-2.26-5.39c-2.4-3-7.12-5.5-11.82-3.91-4.55,1.52-6.24,5.86-6.61,7a0,0,0,0,1,0,0l0,.07a16.65,16.65,0,0,0-.34,4.5s.06.88.2,1.74c.57,3.43,3.21,9.58,3.74,10.81a2.35,2.35,0,0,1,.1,2,1.79,1.79,0,0,1-1.05,1,2.07,2.07,0,0,1-2.36-1.31.51.51,0,0,0-.24-.24c0-.17,0-.33,0-.5a11.37,11.37,0,1,0-3.37,8,13.54,13.54,0,0,0,2.7,4,8.2,8.2,0,0,0,5.9,2.54h.12c4.94-.07,9.06-4.31,9.59-9.89a5.42,5.42,0,0,1,.82-2.49,4.64,4.64,0,0,1,1.19-1.26c.35-.21,8.75-5.26,9.12-14.74A18,18,0,0,0,44.29,6.81ZM1.62,33.68A10.34,10.34,0,1,1,12,44,10.35,10.35,0,0,1,1.62,33.68Z" fill="#231f20"/><path d="M10.18,28.24a.51.51,0,0,0-.7.1.49.49,0,0,0,.09.7,6.1,6.1,0,0,1,.37,9.47.49.49,0,0,0,0,.7.52.52,0,0,0,.38.17.54.54,0,0,0,.33-.12,7.1,7.1,0,0,0-.42-11Z" fill="#231f20"/><path d="M13.15,26.05a.5.5,0,1,0-.6.8,8.81,8.81,0,0,1,.52,13.68.5.5,0,0,0,0,.7.48.48,0,0,0,.37.17.5.5,0,0,0,.33-.12,9.8,9.8,0,0,0-.58-15.23Z" fill="#231f20"/></g><g id="a1bc0273-43f0-4229-a973-6fc04a478c1a" data-name="LABELS"><text transform="translate(-0.36 55.01)" font-size="6" fill="#231f20" font-family="Roboto-Regular, Roboto">hearing-able</text></g></svg>