<svg xmlns="http://www.w3.org/2000/svg" viewBox="0 0 612 792"><g id="a6487067-19a6-448c-928f-411da4ff0f61" data-name="ICONS"><path d="M477,642.9v-1.22h0v-.89h-4.06v2.11a4.7,4.7,0,0,0-4.17,4.66v.28h12.36v-.28A4.71,4.71,0,0,0,477,642.9Z" fill="#fdd600"/><polygon points="292.88 568.45 277.36 560.76 271.83 563.45 287.72 571.11 292.88 568.45" fill="#fdd600"/><path d="M287.73,572.23l-16.34,8.42-1.23.51-.94-.52-.6.31h0l.6-.31-15.7-8.27-6.3,3.06,5.27,2.69.33.17v1.2h0v15.07l16.87,8.24.48.27.52-.28,16.81-8.32v-13.6c0-1,0-2,0-3l.18-.1,5.4-2.95Z" fill="#fdd600"/><path d="M352.85,490.45H353a3.77,3.77,0,1,0-3.41-3.75.57.57,0,0,1-.24.53.49.49,0,0,1-.53,0,15.76,15.76,0,0,0-16.28-.66.5.5,0,0,1-.43,0,.48.48,0,0,1-.3-.32,3.63,3.63,0,0,0-3.5-2.57,3.59,3.59,0,0,0-3.66,3.51,3.51,3.51,0,0,0,2.81,3.4.5.5,0,0,1,.34.72,9.3,9.3,0,0,0-1.07,4.32c0,4.07,2.71,7.63,6.72,9.54h0a11.75,11.75,0,0,0-5.79,4.69,11.88,11.88,0,0,0-1.69,5.64c0,6.7,6.61,12.15,14.74,12.15,6.79,0,14.83-5.08,14.74-12.15-.06-4.28-3.1-8.41-7.71-10.75,3.55-2,5.88-5.33,5.88-9.11a9.35,9.35,0,0,0-1.18-4.51.49.49,0,0,1,0-.51A.48.48,0,0,1,352.85,490.45Zm-14.11.8a8.09,8.09,0,0,1,1.74.2l-1.78,1.78L337,491.44A7.2,7.2,0,0,1,338.74,491.25Zm-7,6c0-2.26,2-4.17,4.81-4.84l1.76,1.84a.5.5,0,0,0,.36.16h0a.53.53,0,0,0,.36-.15l1.84-1.84c2.77.67,4.78,2.58,4.78,4.83,0,2.8-3.12,5.08-6.95,5.08S331.76,500.09,331.76,497.29Z" fill="#fdd600"/><polygon points="491.01 205.4 485.39 201.45 468.83 201.45 468.83 231.22 491.01 231.22 491.01 205.4" fill="#fdd600"/><path d="M428.73,211.24H390.85a4.06,4.06,0,0,0-4.05,4V226.9h4.68v-4h36.18v4h5.12V215.29A4.05,4.05,0,0,0,428.73,211.24Z" fill="#fdd600"/><path d="M394.24,206.65h-.36v.4a.5.5,0,0,0,.5.5H406.3a.5.5,0,0,0,.5-.5v-.4Z" fill="none"/><path d="M409.43,207.05a.5.5,0,0,0,.5.5h11.92a.5.5,0,0,0,.5-.5v-.4H409.43Z" fill="none"/><path d="M393.88,206.65H406.8v-.82h2.63v.81h12.92v-.76h2.58l.35.76h1.18l0-5.8h0a4,4,0,0,0-4-4.05H397.15a4.05,4.05,0,0,0-4,4.05v5h.78Zm16.55-1.31v-5h10.92v6.23H410.43Zm-15.55-5H405.8v6.23H394.88Z" fill="#fdd600"/><path d="M432,221.45v-3.68s0,0,0,0,0,0,0,0v-4.17a5,5,0,0,0-4.77-5l-1.54-3.33,0-6.1a5,5,0,0,0-5-5.05H395.4a5.06,5.06,0,0,0-5,5.05v6.23l-1.78,3.23a5,5,0,0,0-4.52,5v12.11a.5.5,0,0,0,.5.5h5.68a.51.51,0,0,0,.5-.5v-3.46H424.9v3.46a.5.5,0,0,0,.5.5h6.12a.5.5,0,0,0,.5-.5v-3.82a.45.45,0,0,0,0-.2A.58.58,0,0,0,432,221.45ZM391.18,205.9h2.7v1.16a.5.5,0,0,0,.5.5H406.3a.5.5,0,0,0,.5-.5v-1.22h2.63v1.21a.5.5,0,0,0,.5.5h11.92a.5.5,0,0,0,.5-.5v-1.16h2.58l1.21,2.6h-36.4Zm14.62-.57v1.22H394.88v-6.23H405.8Zm4.63,0v-5h10.92v6.23H410.43Zm-19.08-6.25a4.05,4.05,0,0,1,4-4.05h25.24a4,4,0,0,1,4,4.05h0l0,5.8h-2.33l0-5.07a.29.29,0,0,0,0-.09.18.18,0,0,0,0-.1s0,0,0,0a.35.35,0,0,0-.07-.12h0l-.13-.1a.65.65,0,0,0-.2,0H409.93a.5.5,0,0,0-.5.5v5H406.8v-5a.5.5,0,0,0-.5-.5H394.38a.65.65,0,0,0-.2,0l-.07,0-.09.06a.56.56,0,0,0,0,.08.22.22,0,0,0-.05.08s0,.05,0,.08a.43.43,0,0,0,0,.11l-.07,5.07h-2.46Zm-2.25,10.4H427a4.05,4.05,0,0,1,4,4v3.7l-46-.08v-3.62A4.06,4.06,0,0,1,389.1,209.49Zm-4.05,15.66v-3h4.67v3Zm46,0H425.9v-3l5.12-.05Zm-5.62-4H385.05v-3l46,.08v2.9Z" fill="#231f20"/><path d="M492.68,229.46h-2.42v-26.1s0,0,0,0v-13h2.41a.5.5,0,0,0,.5-.5V187a.5.5,0,0,0-.5-.5H464.15a.51.51,0,0,0-.5.5v2.9a.5.5,0,0,0,.5.5h1.93v39.11h-1.91a.5.5,0,0,0-.5.5v3.28a.5.5,0,0,0,.5.5h28.51a.5.5,0,0,0,.5-.5V230A.5.5,0,0,0,492.68,229.46Zm-22.76-30.77v-2.43a3.5,3.5,0,0,1,3.5-3.5h9a3.5,3.5,0,0,1,3.5,3.5v2.43a3.47,3.47,0,0,1-.23,1.21l-1.58-1.11a.48.48,0,0,0-.29-.09H469.92Zm-2.84,1h16.56l5.62,4v25.81H467.08Zm-2.43-12.25h27.52v1.9H464.65Zm24.61,2.9v12.08l-2.75-1.93a4.55,4.55,0,0,0,.38-1.81v-2.43a4.51,4.51,0,0,0-4.5-4.5h-9a4.51,4.51,0,0,0-4.5,4.5v2.43h-1.84v-8.35Zm2.92,42.39H464.67v-2.28h27.51Z" fill="#231f20"/><path d="M359,509.8l-5.16-6.09a4.42,4.42,0,0,0-5.91-.74,11.26,11.26,0,0,0,4.92-9,10.28,10.28,0,0,0-.94-4.27,4.67,4.67,0,0,0,3.85-4.72,4.61,4.61,0,0,0-4.45-4.76,4.56,4.56,0,0,0-4.39,4,16.88,16.88,0,0,0-16.09-.5,4.66,4.66,0,0,0-4.25-2.72,4.59,4.59,0,0,0-4.66,4.51,4.47,4.47,0,0,0,3,4.2A10.28,10.28,0,0,0,324,494a11,11,0,0,0,3.81,8.12,4.4,4.4,0,0,0-4.44,1.27L318,509.26a4.4,4.4,0,0,0,5.27,6.88c0,.14.07.28.1.42a8,8,0,0,0-1.88,5.19,7.57,7.57,0,0,0,7.35,7.76,7.23,7.23,0,0,0,5.83-3,3,3,0,0,0,.32.06,15.46,15.46,0,0,0,1.54.26h0a20.67,20.67,0,0,0,2.38.16,18.72,18.72,0,0,0,3.38-.31,7,7,0,0,0,5.66,3h.39a6.81,6.81,0,0,0,4.72-2.34,7.74,7.74,0,0,0,.71-9.16q.25-.63.45-1.29a4.4,4.4,0,0,0,4.75-7ZM326,489.63a.5.5,0,0,0-.34-.72,3.51,3.51,0,0,1-2.81-3.4,3.59,3.59,0,0,1,3.66-3.51,3.63,3.63,0,0,1,3.5,2.57.48.48,0,0,0,.3.32.5.5,0,0,0,.43,0,15.76,15.76,0,0,1,16.28.66.49.49,0,0,0,.53,0,.57.57,0,0,0,.24-.53,3.46,3.46,0,1,1,3.41,3.75h-.13a.48.48,0,0,0-.46.23.49.49,0,0,0,0,.51,9.35,9.35,0,0,1,1.18,4.51c0,6.08-6,11-13.43,11S325,500,325,494A9.3,9.3,0,0,1,326,489.63Zm27.61,24.18c0,6.7-6.61,12.15-14.74,12.15s-14.74-5.45-14.74-12.15c0-4.07,2.45-7.67,6.19-9.88a16.7,16.7,0,0,0,16.56-.3C351,505.8,353.64,509.55,353.64,513.81Zm-34.68.94a3.42,3.42,0,0,1-.25-4.82l5.36-5.92a3.42,3.42,0,0,1,4.75-.29,12.41,12.41,0,0,0-5.66,10.09,11.11,11.11,0,0,0,.07,1.16A3.39,3.39,0,0,1,319,514.75Zm9.85,13.76a6.58,6.58,0,0,1-6.35-6.76,7,7,0,0,1,1.36-4.18c1.43,4,5.09,7.2,9.77,8.61A6.2,6.2,0,0,1,328.81,528.51Zm25.11-6.71a6.58,6.58,0,0,1-1.62,4.81,5.89,5.89,0,0,1-4,2,6,6,0,0,1-4.9-2.2,15.24,15.24,0,0,0,9.86-7.2A6.51,6.51,0,0,1,353.92,521.8Zm3.88-6.54h0a3.41,3.41,0,0,1-3.36.59,11.47,11.47,0,0,0,.21-2,12.45,12.45,0,0,0-5.87-10.22,3.42,3.42,0,0,1,4.27.77l5.16,6.09A3.43,3.43,0,0,1,357.8,515.26Z" fill="#231f20"/><path d="M338.72,503.37c4.38,0,7.95-2.73,7.95-6.08,0-2.55-2.06-4.74-5-5.64l.1-.11a.49.49,0,0,0,.14-.47.51.51,0,0,0-.34-.36,10.09,10.09,0,0,0-2.86-.46,8.67,8.67,0,0,0-2.85.45.48.48,0,0,0-.34.35.5.5,0,0,0,.12.47l.11.11c-2.93.9-5,3.09-5,5.66C330.76,500.64,334.33,503.37,338.72,503.37Zm-2.15-10.92,1.76,1.84a.5.5,0,0,0,.36.16h0a.53.53,0,0,0,.36-.15l1.84-1.84c2.77.67,4.78,2.58,4.78,4.83,0,2.8-3.12,5.08-6.95,5.08s-7-2.28-7-5.08C331.76,495,333.78,493.12,336.57,492.45Zm.41-1a7.2,7.2,0,0,1,1.76-.19,8.09,8.09,0,0,1,1.74.2l-1.78,1.78Z" fill="#231f20"/><path d="M334.45,490.16a1,1,0,1,0-1-1A1,1,0,0,0,334.45,490.16Z" fill="#231f20"/><path d="M342.56,490.16a1,1,0,1,0-1-1A1,1,0,0,0,342.56,490.16Z" fill="#231f20"/><path d="M198.37,210.17a.49.49,0,0,0,.1-.15A.49.49,0,0,1,198.37,210.17Z" fill="#231f20"/><path d="M127.81,226v0h.06Z" fill="#231f20"/><rect x="358.81" y="556.02" width="2.08" height="2.08" rx="1.04" fill="none"/><path d="M418.07,262.76a14.5,14.5,0,0,0-13.95,18.38.49.49,0,0,1-.16.51l-2,1.78,1.84,1.85a.5.5,0,0,1,0,.71l-2.94,2.94a.51.51,0,0,1-.35.15h-4.17v3.67a.5.5,0,0,1-.5.5h-3.71v3.44a.5.5,0,0,1-.5.5h-3.05v4.27a.47.47,0,0,1-.15.35l-.6.61v5.34l2.94-.07,1.52,0,16.46-16.47a.51.51,0,0,1,.64-.06l1.82,1.28,1.6-1.34a.5.5,0,0,1,.44-.1,27.39,27.39,0,0,0,4.87.77,14.49,14.49,0,1,0,0-29Zm1.53,12.74a3.41,3.41,0,1,1,3.4-3.4A3.41,3.41,0,0,1,419.6,275.5Z" fill="#fdd600"/><path d="M419.6,267.69a4.41,4.41,0,1,0,4.4,4.41A4.42,4.42,0,0,0,419.6,267.69Zm0,7.81a3.41,3.41,0,1,1,3.4-3.4A3.41,3.41,0,0,1,419.6,275.5Z" fill="#231f20"/><path d="M416.32,260a15.51,15.51,0,0,0-15,19.34l-2.22,1.93a.5.5,0,0,0-.18.36.51.51,0,0,0,.15.37l1.87,1.87-2.44,2.45H394a.5.5,0,0,0-.5.5v3.67h-3.71a.5.5,0,0,0-.5.5v3.44h-3.05a.5.5,0,0,0-.5.5v4.56l-.6.6a.51.51,0,0,0-.15.36v6.07a.55.55,0,0,0,.15.36.52.52,0,0,0,.35.14h0l5.17-.14a.49.49,0,0,0,.34-.15l16.31-16.31,1.79,1.26a.5.5,0,0,0,.61,0l1.7-1.42a26.83,26.83,0,0,0,4.86.74,15.49,15.49,0,1,0,0-31Zm0,30a27.39,27.39,0,0,1-4.87-.77.5.5,0,0,0-.44.1l-1.6,1.34-1.82-1.28a.51.51,0,0,0-.64.06L390.49,305.9,386,306v-5.34l.6-.61a.47.47,0,0,0,.15-.35v-4.27h3.05a.5.5,0,0,0,.5-.5V291.5H394a.5.5,0,0,0,.5-.5v-3.67h4.17a.51.51,0,0,0,.35-.15l2.94-2.94a.5.5,0,0,0,0-.71l-1.84-1.85,2-1.78a.49.49,0,0,0,.16-.51A14.49,14.49,0,1,1,416.32,290Z" fill="#231f20"/><path d="M405,285.83,388.4,302.44a.49.49,0,0,0,0,.7.51.51,0,0,0,.36.15.52.52,0,0,0,.35-.14l16.64-16.61a.5.5,0,0,0-.71-.71Z" fill="#231f20"/><path d="M408.82,596.23a18.91,18.91,0,0,1,20.34-31.67,23.28,23.28,0,0,0-16.46-6.78,23,23,0,0,0-2.74.16,23.5,23.5,0,0,0,5.35,46.69,23.28,23.28,0,0,0,13.79-6.56,17.88,17.88,0,0,1-20.28-1.84Z" fill="#fdd600"/><path d="M422,578.74l-2-5-2,5a.5.5,0,0,1-.44.32l-5.37.31,4.16,3.41a.49.49,0,0,1,.17.51l-1.36,5.21,4.53-2.91a.52.52,0,0,1,.54,0l4.52,2.91-1.36-5.21a.49.49,0,0,1,.17-.51l4.16-3.41-5.37-.31A.5.5,0,0,1,422,578.74Z" fill="#fdd600"/><path d="M427.82,577a.48.48,0,0,0-.45-.34l-6.32-.37-2.31-5.91a.52.52,0,0,0-.93,0l-2.31,5.91-6.32.37a.48.48,0,0,0-.45.34.5.5,0,0,0,.16.54l4.9,4-1.6,6.13a.48.48,0,0,0,.19.53.5.5,0,0,0,.56,0l5.34-3.42,5.33,3.42a.53.53,0,0,0,.27.08.51.51,0,0,0,.29-.1.48.48,0,0,0,.19-.53l-1.6-6.13,4.9-4A.5.5,0,0,0,427.82,577Zm-5.94,4a.49.49,0,0,0-.17.51l1.36,5.21-4.52-2.91a.52.52,0,0,0-.54,0l-4.53,2.91,1.36-5.21a.49.49,0,0,0-.17-.51l-4.16-3.41,5.37-.31a.5.5,0,0,0,.44-.32l2-5,2,5a.5.5,0,0,0,.44.32l5.37.31Z" fill="#231f20"/><path d="M430.36,593.84a.51.51,0,0,0-.69-.13l-.06,0c-1.43,1-5,3.29-8.71,3.71a17.94,17.94,0,1,1-4.09-35.65,18.06,18.06,0,0,1,12.71,3.46.62.62,0,0,0,.56,0,.49.49,0,0,0,.28-.33.48.48,0,0,0-.09-.43,24.5,24.5,0,1,0,0,30A.49.49,0,0,0,430.36,593.84Zm-16.8,9a23.5,23.5,0,0,1-5.35-46.69A23,23,0,0,1,411,556a23.28,23.28,0,0,1,16.46,6.78,19.14,19.14,0,1,0-.06,33.51A23.28,23.28,0,0,1,413.56,602.88Z" fill="#231f20"/><polygon points="268 562.71 262.92 560.26 247.41 568.02 253.54 571.25 254.35 570.85 252.88 570.08 268 562.71" fill="#fdd600"/><path d="M292.7,572.61l-5.6-2.71,5.37-2.76a.5.5,0,0,0,.27-.45.51.51,0,0,0-.28-.45L275.83,558a.52.52,0,0,0-.44,0l-6.46,3.15-7.55-3.64a.49.49,0,0,0-.44,0l-16.59,8.3a.51.51,0,0,0-.28.45.49.49,0,0,0,.27.44l6.33,3.34-6.54,3.18a.53.53,0,0,0-.28.45.51.51,0,0,0,.28.45l6,3s0,.05,0,.08v15.88a.51.51,0,0,0,.28.45l17.87,8.73h0a.54.54,0,0,0,.21.05.46.46,0,0,0,.21-.05h0l17.82-8.82a.48.48,0,0,0,.27-.44v-16.3l6-3.25A.49.49,0,0,0,293,573,.48.48,0,0,0,292.7,572.61ZM275.61,559l15.52,7.69L286,569.36l-15.89-7.66Zm-7.05,19.33-15.68-8.26,16.06-7.82,15.92,7.67Zm-22.9-12.07,15.51-7.76,6.62,3.2-16,7.79Zm6.11,4.35,15.7,8.27-5.85,3-10.88-5.54-5.27-2.69Zm-.68,7,10.3,5.25a.53.53,0,0,0,.46,0l6.11-3.15v21.29l-16.87-8.24Zm34.68,15.06L269,601.05V579.68l6.11,3.22a.51.51,0,0,0,.48,0l10.22-5.6ZM286,576l-10.69,5.85-5.66-3L286,570.48l5.41,2.61Z" fill="#231f20"/><path d="M186.6,305.92a2.34,2.34,0,1,0,2.34-2.33A2.34,2.34,0,0,0,186.6,305.92Z" fill="#fdd600"/><path d="M197.16,305.87a2.34,2.34,0,1,0,2.34-2.33A2.34,2.34,0,0,0,197.16,305.87Z" fill="#fdd600"/><path d="M211,268.05a4.45,4.45,0,0,0-1.09-3.55,5.7,5.7,0,0,0-4.27-1.72H193.31a5.21,5.21,0,0,0-4,1.59,4.62,4.62,0,0,0-1,3.73c.81,6.09,2.91,14.69,5,14.69h12.36C207.8,282.79,210.09,274.17,211,268.05Z" fill="#fdd600"/><path d="M208.12,305.9a2.34,2.34,0,1,0,2.34-2.34A2.34,2.34,0,0,0,208.12,305.9Z" fill="#fdd600"/><path d="M189.37,288.49h-.08a2.16,2.16,0,0,0-2.16,2.16v.47a2.17,2.17,0,0,0,2.16,2.17h20.57a2.17,2.17,0,0,0,2.17-2.17v-.47a2.17,2.17,0,0,0-2.17-2.16Z" fill="#fdd600"/><path d="M215.47,278.63H211.9a.5.5,0,0,0-.5.5v2.15a4.82,4.82,0,0,1-3.11,4.43l-.06,0h-9.92V282h5.61c3.76,0,6-13,6.35-15.61a5.47,5.47,0,0,0-1.33-4.35,6.7,6.7,0,0,0-5-2.05H191.56a6.18,6.18,0,0,0-4.73,1.92,5.57,5.57,0,0,0-1.3,4.52c.34,2.6,2.26,15.57,6,15.57h5.75v3.7h-9.59a4.82,4.82,0,0,1-3-4.4V279.2a.5.5,0,0,0-.5-.5h-3.56a.5.5,0,0,0-.5.5.5.5,0,0,0,.5.5h3.06v1.64a5.72,5.72,0,0,0,2.53,4.7,3.16,3.16,0,0,0-1.84,2.86v.47a3.17,3.17,0,0,0,3.16,3.17h9.77v3.82h-5.64a4.89,4.89,0,0,0-4.86,4.52,3.28,3.28,0,1,0,1,0,3.89,3.89,0,0,1,3.86-3.54h5.64v3.47a3.34,3.34,0,1,0,1,0v-3.49h6a3.91,3.91,0,0,1,3.87,3.51,3.35,3.35,0,1,0,1,0,4.91,4.91,0,0,0-4.87-4.5h-6v-3.82h9.8a3.17,3.17,0,0,0,3.17-3.17v-.47a3.15,3.15,0,0,0-1.65-2.76,5.75,5.75,0,0,0,2.77-4.86v-1.65h3.07a.5.5,0,1,0,0-1Zm-28.95-12.28a4.62,4.62,0,0,1,1-3.73,5.21,5.21,0,0,1,4-1.59h12.36a5.7,5.7,0,0,1,4.27,1.72,4.45,4.45,0,0,1,1.09,3.55c-.94,6.12-3.23,14.74-5.36,14.74H191.56C189.43,281,187.33,272.44,186.52,266.35Zm3,37.82a2.34,2.34,0,1,1-2.33-2.33A2.34,2.34,0,0,1,189.52,304.17Zm10.56-.05a2.34,2.34,0,1,1-2.33-2.33A2.34,2.34,0,0,1,200.08,304.12Zm11,0a2.34,2.34,0,1,1-2.33-2.34A2.34,2.34,0,0,1,211,304.15Zm-.76-15.25v.47a2.17,2.17,0,0,1-2.17,2.17H187.54a2.17,2.17,0,0,1-2.16-2.17v-.47a2.16,2.16,0,0,1,2.16-2.16h20.57A2.17,2.17,0,0,1,210.28,288.9Z" fill="#231f20"/><path d="M361.52,597.29h-4l-.15,0-.12,0H357v-1.22c0-3.31,0-16.36,0-16.36,0-8.18-7.52-14.85-16.76-14.85s-16.77,6.67-16.77,14.85v17.57h-.39l-.14,0h-4.12V601h16.93a2.56,2.56,0,0,1-.14-.75h5.14a2.56,2.56,0,0,1-.14.75h20.92Z" fill="#fdd600"/><path d="M360.27,594.54h-4c0-2.9,0-16.59,0-16.59,0-8-6.75-14.68-15.45-15.7a3.54,3.54,0,0,0,1.2-2.65,3.58,3.58,0,1,0-5.93,2.67c-8.66,1.06-15.35,7.68-15.35,15.68v16.59h-4.15a.5.5,0,0,0-.5.5v4.73a.5.5,0,0,0,.5.5h18a3.57,3.57,0,0,0,7.14,0h18.53a.5.5,0,0,0,.5-.5V595A.5.5,0,0,0,360.27,594.54Zm-24.67,5.73h5.14a2.57,2.57,0,0,1-5.14,0Zm24.17-1H317.06v-3.73h4.12l.14,0h34.16l.12,0,.15,0h4ZM335.84,559.6a2.58,2.58,0,1,1,3.07,2.52l-.43,0c-.18,0-.35,0-.52,0A2.59,2.59,0,0,1,335.84,559.6Zm2.64,3.5c9.24,0,16.76,6.67,16.76,14.85,0,0,0,13.69,0,16.58H321.71V578C321.71,569.77,329.23,563.1,338.48,563.1Z" fill="#231f20"/><path d="M490.47,576.12c-2.43,1.33-3.54,4.66-4.23,7.44a.49.49,0,0,1-.3.46.5.5,0,0,1-.66-.26,9.3,9.3,0,0,0-8.52-5.57c-1.95,0-14,.35-16.49.43A18.38,18.38,0,0,0,463,589.05a12.86,12.86,0,0,0,2,2.9.45.45,0,0,1,.12.21,17.27,17.27,0,0,0,16.55,12.07,17.67,17.67,0,0,0,17.65-17.66c0-3.45-.06-9.64-.08-11.15C497.86,575.19,492.51,575,490.47,576.12Z" fill="#fdd600"/><path d="M498.45,573.05l0,0a16.48,16.48,0,0,0-.88-2.53,18.75,18.75,0,0,0-.86-1.67,5.07,5.07,0,0,0-.16-8.08.53.53,0,0,0-.61,0,5.19,5.19,0,0,0-2.13,4.11,2.83,2.83,0,0,0,0,.29,16.39,16.39,0,0,0-3.4-2.48,5.06,5.06,0,0,0-3.71-7.07.48.48,0,0,0-.54.26,5.18,5.18,0,0,0-.15,4.63c.1.19.2.37.31.55a17.07,17.07,0,0,0-3.69-.5h0a5.08,5.08,0,0,0-8.05,1.8.51.51,0,0,0,.13.59,5.25,5.25,0,0,0,3.4,1.28,5,5,0,0,0,4.43-2.66A15.87,15.87,0,0,1,486,562a5.31,5.31,0,0,0-.86.26,5.12,5.12,0,0,0-3,3.51.5.5,0,0,0,.23.56,5.35,5.35,0,0,0,2.73.77,4.88,4.88,0,0,0,1.88-.37,5.14,5.14,0,0,0,2.93-3.21,15.55,15.55,0,0,1,3.9,3,5.07,5.07,0,0,0-1.54-.35A5.14,5.14,0,0,0,488,568a.5.5,0,0,0,0,.6,5.11,5.11,0,0,0,4,2.36h.3a5.16,5.16,0,0,0,3.67-1.58,14.42,14.42,0,0,1,.74,1.47,15.42,15.42,0,0,1,.63,1.72c-2.31-.36-7.28-.09-9,.87-2.43,1.33-3.66,4.22-4.42,6.92a10.32,10.32,0,0,0-8.81-5c-2.19,0-16.38.42-17,.44a.51.51,0,0,0-.49.45,19.59,19.59,0,0,0,2.13,10.27.21.21,0,0,0,.06.1c.2.37.42.74.66,1.1a13.25,13.25,0,0,0,2.07,3,18.05,18.05,0,0,0,17.48,12.7,18.68,18.68,0,0,0,18.66-18.66c0-3.72-.08-10.61-.09-11.43A.51.51,0,0,0,498.45,573.05Zm-15.29-7.42a4.09,4.09,0,0,1,2.32-2.46h0a1.86,1.86,0,1,1-2.32,2.47Zm3.72-9a4.05,4.05,0,1,1,0,3.39A4.13,4.13,0,0,1,486.88,556.67Zm-11.21,5.72a4.17,4.17,0,0,1,2.69-2,4.12,4.12,0,0,1,3.31.72,4.17,4.17,0,0,1-2.69,2.05A4.12,4.12,0,0,1,475.67,562.39ZM492,570a1.86,1.86,0,1,1,3.15-1.23A4.14,4.14,0,0,1,492,570Zm2.81-5.14a4.12,4.12,0,0,1,1.43-3.07,4.09,4.09,0,0,1,1.4,3.08A4.14,4.14,0,0,1,496.2,568,4.15,4.15,0,0,1,494.79,564.87ZM461,586.94h15.55a.5.5,0,0,0,0-1H460.44a16.86,16.86,0,0,1-1.4-3.81h13.13a.5.5,0,0,0,.5-.5.5.5,0,0,0-.5-.5H458.83a19.66,19.66,0,0,1-.33-4.26c2.51-.08,14.54-.43,16.5-.43a9.3,9.3,0,0,1,8.51,5.57,9.17,9.17,0,0,1,.78,3.73A9.3,9.3,0,0,1,475,595a17.28,17.28,0,0,1-11.75-4.86h0a12.74,12.74,0,0,1-2-2.87C461.16,587.18,461.09,587.06,461,586.94Zm18.91,15.54A17.37,17.37,0,0,1,464,592.16,18.55,18.55,0,0,0,475,596a10.29,10.29,0,0,0,9.49-14.27c.69-2.77,1.8-6.07,4.21-7.39,2.05-1.12,7.4-.93,8.8-.7,0,1.51.09,7.7.09,11.15A17.68,17.68,0,0,1,479.93,602.48Z" fill="#231f20"/><path d="M493.89,577.43a1.23,1.23,0,1,0,1.22,1.23A1.23,1.23,0,0,0,493.89,577.43Z" fill="#231f20"/><path d="M479.67,415.1a7.11,7.11,0,0,0-7.1,7.09v36.49a1,1,0,0,0,2,0V422.19a5.1,5.1,0,0,1,10.19,0,1,1,0,1,0,2,0A7.1,7.1,0,0,0,479.67,415.1Z" fill="#fdd600"/><path d="M478.42,412.85a8.1,8.1,0,0,0-8.1,8.09v36.49a2,2,0,0,0,4,0V420.94a4.1,4.1,0,0,1,8.19,0,2,2,0,1,0,4,0A8.1,8.1,0,0,0,478.42,412.85Zm6.09,9.09a1,1,0,0,1-1-1,5.1,5.1,0,0,0-10.19,0v36.49a1,1,0,0,1-2,0V420.94a7.1,7.1,0,0,1,14.19,0A1,1,0,0,1,484.51,421.94Z" fill="#231f20"/><path d="M290.89,193.69H264.12v8.93h26.77Zm-23.77,7.18,2-1.5,2.59,1.5Zm4.6-1.16a2.17,2.17,0,0,1,4.21-.6l-2.63,1.51Zm3.16,1.16,7.68-4.43,5.63,4.43Z" fill="#fdd600"/><path d="M289.6,217.73a.51.51,0,0,1-.5-.5v-.86a2.5,2.5,0,0,0-2.49-2.49h-8.67a2.5,2.5,0,0,0-2.5,2.49l-1.18-.05a2.5,2.5,0,0,0-2.5-2.49h-8.67a2.5,2.5,0,0,0-2.49,2.49v.91a.51.51,0,0,1-.5.5h-2.62v9.77h34.74v-9.77Z" fill="#fdd600"/><rect x="248.12" y="197.17" width="7.65" height="8.77" fill="#fdd600"/><path d="M261.87,201.87h27.79l.11,0,.08,0,.08-.06.08-.06,0,0,0-.06a.36.36,0,0,0,0-.09.18.18,0,0,0,0-.1.14.14,0,0,0,0-.06v-9.93a.5.5,0,0,0-.5-.5H261.87a.5.5,0,0,0-.5.5v9.93A.5.5,0,0,0,261.87,201.87Zm20.69-5.43,5.63,4.43H274.88Zm-9.26,4.18-1.58-.91a2.17,2.17,0,0,1,4.21-.6Zm-1.57.25h-4.61l2-1.5Zm-9.36-8.93h26.77v8.4l-6.23-4.89a.48.48,0,0,0-.56,0l-5.55,3.2a3.17,3.17,0,0,0-6,.56l-1.43-.83a.5.5,0,0,0-.55,0l-3.36,2.5h-3.08Z" fill="#231f20"/><path d="M291,215h-2.62v-.36a3.49,3.49,0,0,0-3.49-3.49h-8.67a3.49,3.49,0,0,0-3.08,1.86,3.48,3.48,0,0,0-3.1-1.91h-8.67a3.49,3.49,0,0,0-3.49,3.49V215h-2.62a.5.5,0,0,0-.5.5v10.77a.5.5,0,0,0,.5.5h1.49v2a.5.5,0,0,0,1,0v-2h30.76v2a.5.5,0,0,0,1,0v-2H291a.5.5,0,0,0,.5-.5V215.48A.5.5,0,0,0,291,215Zm-32.12,6h28.5v2.18h-28.5Zm17.34-8.85h8.67a2.5,2.5,0,0,1,2.49,2.49V220H273.69v-5.36A2.5,2.5,0,0,1,276.19,212.13Zm-17.34,2.44a2.5,2.5,0,0,1,2.49-2.49H270a2.5,2.5,0,0,1,2.5,2.49V220H258.85v-5.41Zm31.62,11.18H255.73V216h2.12v7.68a.5.5,0,0,0,.5.5h29.5a.5.5,0,0,0,.5-.5V216h2.12Z" fill="#231f20"/><path d="M254.52,205.19a.5.5,0,0,0,.5-.5v-9.77a.5.5,0,0,0-.5-.5h-8.65a.5.5,0,0,0-.5.5v9.77a.5.5,0,0,0,.5.5h3.83v23.06h-1.6a.5.5,0,0,0,0,1h4.19a.5.5,0,0,0,0-1H250.7V205.19Zm-8.15-9.77H254v8.77h-7.65Z" fill="#231f20"/><path d="M408.57,519.85,402,515a.48.48,0,0,1-.2-.4V500h0v-3.13h-9.37v16.77a4.92,4.92,0,0,1,3.23,4.61,4.87,4.87,0,0,1-1.38,3.39l-.39-.29a9.23,9.23,0,0,0,3,2.62l5.65,4.16a5.14,5.14,0,0,0,7.17-1.1A5.14,5.14,0,0,0,408.57,519.85Z" fill="#fdd600"/><path d="M425.83,507.2l-6.55-4.82a.48.48,0,0,1-.2-.4V487.34h0V484.2h-9.37V501a4.93,4.93,0,0,1,3.23,4.61,4.86,4.86,0,0,1-1.34,3.34,9.19,9.19,0,0,0,2.53,2.39l5.65,4.15a5.13,5.13,0,1,0,6.07-8.26Z" fill="#fdd600"/><path d="M407.42,517.3l-6.35-4.67V497.74a.24.24,0,0,0,0-.08v-3.05a.5.5,0,0,0-.5-.5H390.18a.5.5,0,0,0-.5.5v18.14s0,.07,0,.11v3.33a6.14,6.14,0,0,0,2.49,5.12l1.87,1.37h0l6.1,4.48a6.08,6.08,0,0,0,3.61,1.19,5.86,5.86,0,0,0,.94-.07,6,6,0,0,0,4-2.43A6.12,6.12,0,0,0,407.42,517.3Zm-2.86,10a5.08,5.08,0,0,1-3.81-.93l-5.65-4.16a5.91,5.91,0,0,0-4.37-9.91h-.05V498.24h9.39v14.65a.48.48,0,0,0,.2.4l6.55,4.81a5.14,5.14,0,0,1,1.1,7.17A5,5,0,0,1,404.56,527.3Zm-11.81-6.8a5.2,5.2,0,0,1-2.09-4.37v-2.82h.07a4.94,4.94,0,0,1,4.93,4.94,4.87,4.87,0,0,1-1.38,3.39Zm7.3-23.26h-9.37v-2.13h9.37Z" fill="#231f20"/><path d="M424.67,504.64,418.33,500V485.09s0-.06,0-.09V482a.5.5,0,0,0-.5-.5H407.44a.5.5,0,0,0-.5.5v18.14a.52.52,0,0,0,0,.11v3.34a6.1,6.1,0,0,0,2.49,5.11l1.87,1.38h0l6.1,4.49a6.13,6.13,0,0,0,7.25-9.88ZM418,513.71l-5.65-4.15a5.91,5.91,0,0,0-4.38-9.91h0V485.59h9.39v14.64a.48.48,0,0,0,.2.4l6.55,4.82a5.13,5.13,0,1,1-6.07,8.26Zm-10.07-31.26h9.37v2.14h-9.37Zm2.07,25.4a5.23,5.23,0,0,1-2.09-4.38v-2.82H408a4.94,4.94,0,0,1,4.94,4.93,4.83,4.83,0,0,1-1.38,3.39Z" fill="#231f20"/><path d="M272.42,269.24l-.64.64a.5.5,0,0,0,0,.71.52.52,0,0,0,.35.14.54.54,0,0,0,.36-.14l.63-.64a.5.5,0,0,0,0-.71A.5.5,0,0,0,272.42,269.24Z" fill="#fdd600"/><path d="M264.88,269a.5.5,0,0,0-.71,0,.5.5,0,0,0,0,.7l.64.64a.51.51,0,0,0,.36.15.5.5,0,0,0,.35-.15.51.51,0,0,0,0-.71Z" fill="#fdd600"/><path d="M268.47,267.3a.5.5,0,0,0-.5.5v.9a.5.5,0,0,0,.5.5.51.51,0,0,0,.5-.5v-.9A.5.5,0,0,0,268.47,267.3Z" fill="#fdd600"/><path d="M286.34,263.19H254a2.5,2.5,0,0,0-2.5,2.5l2,39.63a2.88,2.88,0,0,0,2.91,2.53h27.35c1.39,0,3.1-1.15,3.1-2.5l2-39.69A2.51,2.51,0,0,0,286.34,263.19Zm-17.42,11.28,0-2.46a.51.51,0,0,0-.5-.51h0a.5.5,0,0,0-.5.5l0,2.47h-8.61c.24-5.37,4.27-9.66,9.2-9.66s9,4.29,9.2,9.65Z" fill="#fdd600"/><path d="M268.51,263.81c-5.63,0-10.21,5-10.21,11.16a.5.5,0,0,0,.5.5h19.43a.51.51,0,0,0,.5-.5C278.73,268.81,274.14,263.81,268.51,263.81Zm.41,10.66,0-2.46a.51.51,0,0,0-.5-.51h0a.5.5,0,0,0-.5.5l0,2.47h-8.61c.24-5.37,4.27-9.66,9.2-9.66s9,4.29,9.2,9.65Z" fill="#231f20"/><path d="M268.47,267.3a.5.5,0,0,0-.5.5v.9a.5.5,0,0,0,.5.5.51.51,0,0,0,.5-.5v-.9A.5.5,0,0,0,268.47,267.3Z" fill="#231f20"/><path d="M264.88,269a.5.5,0,0,0-.71,0,.5.5,0,0,0,0,.7l.64.64a.51.51,0,0,0,.36.15.5.5,0,0,0,.35-.15.51.51,0,0,0,0-.71Z" fill="#231f20"/><path d="M272.42,269.24l-.64.64a.5.5,0,0,0,0,.71.52.52,0,0,0,.35.14.54.54,0,0,0,.36-.14l.63-.64a.5.5,0,0,0,0-.71A.5.5,0,0,0,272.42,269.24Z" fill="#231f20"/><path d="M284.59,260.44H252.24a3.51,3.51,0,0,0-3.5,3.52l2,39.64c0,2,2.06,3.5,3.91,3.5H282c1.89,0,4.1-1.53,4.1-3.48l2-39.68A3.5,3.5,0,0,0,284.59,260.44Zm.51,43.16c0,1.35-1.71,2.5-3.1,2.5H254.65a2.88,2.88,0,0,1-2.91-2.53l-2-39.63a2.5,2.5,0,0,1,2.5-2.5h32.35a2.51,2.51,0,0,1,2.51,2.47Z" fill="#231f20"/><path d="M317.46,213.9v19.77h44.67V213.9Z" fill="#fdd600"/><path d="M347.65,196.87l-3.79-3.48a.51.51,0,0,1-.16-.37v-3.75h-7.82l0,3.82a.53.53,0,0,1-.18.38l-4,3.38V202h16Z" fill="#fdd600"/><path d="M360.88,211.15h-4v-6.49a3.59,3.59,0,0,0-7.18,0v2.47a.51.51,0,0,0,.5.5.5.5,0,0,0,.5-.5v-2.47a2.59,2.59,0,0,1,5.18,0v6.49H315.21a.5.5,0,0,0-.5.5v20.77a.5.5,0,0,0,.5.5h45.67a.51.51,0,0,0,.5-.5V211.65A.51.51,0,0,0,360.88,211.15Zm-31.24,9.18h16.62v11.59H329.64Zm16.62-1H329.64v-7.18h16.62Zm-30.55-7.18h12.93v19.77H315.71Zm44.67,19.77H347.26V212.15h9a.37.37,0,0,0,.15,0,.32.32,0,0,0,.14,0h3.84Z" fill="#231f20"/><path d="M329.41,201.27h17a.5.5,0,0,0,.5-.5V194.9a.52.52,0,0,0-.16-.37L343,191.05v-4a.5.5,0,0,0-.5-.5h-8.81a.5.5,0,0,0-.5.5l0,4.08-4,3.39a.49.49,0,0,0-.18.38v5.9A.5.5,0,0,0,329.41,201.27Zm.5-6.17,4-3.38a.53.53,0,0,0,.18-.38l0-3.82H342v3.75a.51.51,0,0,0,.16.37l3.79,3.48v5.15h-16Z" fill="#231f20"/><circle cx="338.14" cy="216.29" r="0.74" fill="#231f20"/><path d="M333.63,217.05a.74.74,0,1,0-.74-.74A.74.74,0,0,0,333.63,217.05Z" fill="#231f20"/><path d="M342.64,217a.75.75,0,1,0-.74-.74A.74.74,0,0,0,342.64,217Z" fill="#231f20"/><path d="M326.27,218.89a.74.74,0,0,0,0,1.48.74.74,0,1,0,0-1.48Z" fill="#231f20"/><path d="M349.68,218.9a.74.74,0,0,0-.74.74.74.74,0,1,0,1.48,0A.74.74,0,0,0,349.68,218.9Z" fill="#231f20"/><path d="M199.79,414.22a23.3,23.3,0,1,0,23.29,23.29A23.32,23.32,0,0,0,199.79,414.22Z" fill="#fdd600"/><path d="M198,411.47a24.3,24.3,0,1,0,24.29,24.29A24.32,24.32,0,0,0,198,411.47Zm0,47.59a23.3,23.3,0,1,1,23.29-23.3A23.32,23.32,0,0,1,198,459.06Z" fill="#231f20"/><path d="M210.19,440.47a.49.49,0,0,0-.68.19,13.16,13.16,0,0,1-22.93,0,.5.5,0,0,0-.87.49,14.16,14.16,0,0,0,24.67,0A.5.5,0,0,0,210.19,440.47Z" fill="#231f20"/><ellipse cx="204.81" cy="428.64" rx="1.59" ry="1.65" fill="#231f20"/><ellipse cx="191.27" cy="428.64" rx="1.59" ry="1.65" fill="#231f20"/><path d="M129.68,663.83a3.6,3.6,0,0,1,3.6-3.6H148V648.79H110.44v30.34H148v-11.7H133.28A3.61,3.61,0,0,1,129.68,663.83Z" fill="#fdd600"/><path d="M149,644.58a.46.46,0,0,0-.37-.14l-5.9.23-7-13a.55.55,0,0,0-.3-.24.53.53,0,0,0-.39,0L108.83,646l-.66,0-.09,0-.09,0-.06,0-.1.07h0s0,0,0,.06a.47.47,0,0,0-.06.09s0,.07,0,.1,0,.06,0,.08v31.34a.5.5,0,0,0,.5.5h38.53a.48.48,0,0,0,.47-.36h1.45a.5.5,0,0,0,.5-.5V644.94A.48.48,0,0,0,149,644.58Zm-15.71,22.85a3.6,3.6,0,0,1,0-7.2h14.85v7.2Zm-24.59-14V647h37.53v6.37ZM136.62,646h-9.45a6,6,0,0,0-5.32-2.55l9.73-5.51a3.42,3.42,0,0,0,3.84,1.23l2.44,4.53A3.34,3.34,0,0,0,136.62,646Zm-16.79-1a5.09,5.09,0,0,1,2.4-.61,5.41,5.41,0,0,1,1.48.22,5.21,5.21,0,0,1,2.17,1.35h-4.76a.5.5,0,0,0-.68-.2.45.45,0,0,0-.2.21H118.6A5.08,5.08,0,0,1,119.83,645.08Zm22.49,1h-4.69a2.34,2.34,0,0,1,1.13-1.71.5.5,0,0,0,.19-.67l-2.86-5.33a.5.5,0,0,0-.68-.21,2.39,2.39,0,0,1-3.22-1,.5.5,0,0,0-.3-.25.53.53,0,0,0-.39,0L115.31,646h-4.47l24.26-13.48Zm-33.63,8.37h37.53v4.82H133.28a4.6,4.6,0,0,0,0,9.2h12.94v9H108.69Zm39.45-8.95v13.77h-.92V646.54a.5.5,0,0,0-.5-.5h-3.27l-.21-.39ZM147.22,677v-8.59h.92V677Z" fill="#231f20"/><polygon points="132.38 643.74 131.94 643.98 131.94 643.98 132.38 643.74" fill="#231f20"/><path d="M132,645a1,1,0,0,0,.87-1.47h0a1,1,0,0,0-1.35-.4,1,1,0,0,0-.48.59,1,1,0,0,0,.08.76A1,1,0,0,0,132,645Zm.43-1.23-.44.24h0Z" fill="#231f20"/><path d="M134,661.86a2,2,0,1,0,2,2A2,2,0,0,0,134,661.86Z" fill="#fdd600"/><rect x="147.97" y="660.23" width="0.16" height="7.2" fill="#231f20"/><path d="M134,662.86a1,1,0,1,0,1,1A1,1,0,0,0,134,662.86Z" fill="#231f20"/><path d="M134,661.86a2,2,0,1,0,2,2A2,2,0,0,0,134,661.86Zm0,2.94a1,1,0,1,1,1-1A1,1,0,0,1,134,664.8Z" fill="#231f20"/><rect x="123.59" y="161.92" width="0.5" height="0.5" fill="#231f20"/><polygon points="124.8 149.42 120.98 149.42 120.98 150.08 125.38 150.08 125.38 144.75 124.8 144.75 124.8 149.42" fill="none"/><polygon points="124.8 143.09 120.98 143.09 120.98 143.75 125.38 143.75 125.38 138.42 124.8 138.42 124.8 143.09" fill="none"/><polygon points="119.4 149.42 115.58 149.42 115.58 150.08 119.98 150.08 119.98 144.75 119.4 144.75 119.4 149.42" fill="none"/><path d="M133.25,149.13h-1.72v.67h2.19a.9.9,0,0,0,0-.16A.5.5,0,0,0,133.25,149.13Z" fill="none"/><polygon points="141.84 160.77 131.53 160.77 131.53 161.44 142.42 161.44 142.42 138.42 141.84 138.42 141.84 160.77" fill="none"/><path d="M119.4,143.09h-3.82v.66H120v-5.27s0,0,0-.06h-.59Z" fill="none"/><path d="M129.75,116.32l-9.37,7.36v-6.17h-4v9.34l-8.48,6.66h4.77v28.68h34.21V133.51h4.78ZM120,150.08h-4.4v-.66H115v-5.33h4.4v.66H120Zm0-11.6v5.27h-4.4v-.66H115v-5.34h4.41s0,0,0,.06v.61H120S120,138.46,120,138.48Zm5.4,11.6H121v-.66h-.58v-5.33h4.4v.66h.58Zm0-6.33H121v-.66h-.58v-5.28s0,0,0-.06h4.41v.67h.58Zm17,17.69H131.53v-.67H131V150.11l.05,0h2.25a.51.51,0,0,0,.47-.34h-2.19v-.67H131V137.75h10.89v.67h.58Z" fill="#fdd600"/><path d="M152.05,132.2l-23.32-18.32a.51.51,0,0,0-.62,0l-8.06,6.33V115.6a.5.5,0,0,0-.5-.5h-5a.5.5,0,0,0-.5.5V125l-9.24,7.25a.5.5,0,0,0-.16.56.51.51,0,0,0,.47.34h5.22v28.17a.5.5,0,0,0,.5.5H146a.5.5,0,0,0,.5-.5V133.1h5.23a.5.5,0,0,0,.3-.9Zm-37-16.1h4V121l-4,3.17Zm26.82,44.67H131V150.11l.05,0h2.25a.5.5,0,0,0,.5-.5.5.5,0,0,0-.5-.5H131V137.75h10.89Zm3.68,0h-2.68V137.25a.51.51,0,0,0-.5-.5H130.45a.5.5,0,0,0-.5.5v23.52H111.31V133.1h34.21Zm-39-28.67,21.88-17.19L150.3,132.1Z" fill="#231f20"/><path d="M114.5,150.42h10.8a.51.51,0,0,0,.5-.5V137.25a.51.51,0,0,0-.5-.5H114.5a.5.5,0,0,0-.5.5v12.67A.5.5,0,0,0,114.5,150.42Zm10.3-1h-4.4v-5.33h4.4Zm0-11.67v5.34h-4.4v-5.28s0,0,0-.06Zm-9.8,0h4.41s0,0,0,.06v5.28H115Zm0,6.34h4.4v5.33H115Z" fill="#231f20"/><path d="M118.48,572.61a22.42,22.42,0,0,1,1.83-8.89,21.66,21.66,0,1,0,29.41,29.87,22.32,22.32,0,0,1-8.57,1.7A22.7,22.7,0,0,1,118.48,572.61Z" fill="#fdd600"/><path d="M149.74,590.66a.5.5,0,0,0-.58-.09,21.64,21.64,0,0,1-28.81-29.27.5.5,0,0,0-.09-.58.52.52,0,0,0-.58-.1,22.66,22.66,0,1,0,30.15,30.62A.52.52,0,0,0,149.74,590.66Zm-20.11,12a21.67,21.67,0,0,1-10.82-40.44,22.64,22.64,0,0,0,29.41,29.88A21.57,21.57,0,0,1,129.63,602.65Z" fill="#231f20"/><path d="M133.91,586.14h8.69a.12.12,0,0,0,.12-.13v-1.52a.12.12,0,0,0-.12-.13h-6.15l5.94-7.89a.09.09,0,0,0,0-.07v-1.32a.13.13,0,0,0-.13-.13H134a.12.12,0,0,0-.12.13v1.54a.12.12,0,0,0,.12.13h5.7l-5.89,7.81a.19.19,0,0,0,0,.08V586A.12.12,0,0,0,133.91,586.14Z" fill="#231f20"/><path d="M125.75,571.91h6.13a.13.13,0,0,0,.13-.13V570.7a.12.12,0,0,0-.13-.12h-4.27l4.16-5.52a.14.14,0,0,0,0-.07v-.94a.12.12,0,0,0-.12-.12h-5.86a.12.12,0,0,0-.12.12v1.1a.12.12,0,0,0,.12.12h3.95l-4.11,5.46a.11.11,0,0,0,0,.08v1A.13.13,0,0,0,125.75,571.91Z" fill="#231f20"/><path d="M135.68,562.55H141a.12.12,0,0,0,.13-.12v-.93a.12.12,0,0,0-.13-.12h-3.63l3.54-4.71a.11.11,0,0,0,0-.07v-.81a.12.12,0,0,0-.13-.12h-5a.12.12,0,0,0-.13.12v.94a.13.13,0,0,0,.13.13h3.35l-3.51,4.66a.19.19,0,0,0,0,.07v.84A.12.12,0,0,0,135.68,562.55Z" fill="#231f20"/><path d="M246.6,498.83a10.7,10.7,0,0,0,3.16,7.62l17.8,17.8,2-10.52-5.73-5a.5.5,0,0,1-.07-.68l6.68-8.73-3-5.73L265,491.21a10.78,10.78,0,0,0-18.39,7.62Z" fill="#fdd600"/><path d="M263.36,506.82l6.59-8.61a.53.53,0,0,0,0-.54l-3.23-6.07a.27.27,0,0,0-.09-.12L264.2,489a11.77,11.77,0,1,0-16.65,16.64L266,524.07a.54.54,0,0,0,.36.14.49.49,0,0,0,.35-.14l.08-.08a.59.59,0,0,0,.14-.27l2.22-11.58a.51.51,0,0,0-.16-.48Zm.13-17.11,2.42,2.42,3,5.73-6.68,8.73a.5.5,0,0,0,.07.68l5.73,5-2,10.52L248.26,505a10.77,10.77,0,0,1,15.23-15.24Z" fill="#231f20"/><path d="M292.73,498.83a10.77,10.77,0,0,0-18.39-7.62l-2.21,2.21,3.06,5.75a.51.51,0,0,1-.05.54l-6.58,8.61,5.59,4.84a.51.51,0,0,1,.16.48l-1.91,10,17.18-17.18A10.73,10.73,0,0,0,292.73,498.83Z" fill="#fdd600"/><path d="M288.78,489a11.78,11.78,0,0,0-16.64,0l-2.48,2.47a.51.51,0,0,0-.09.59l3.09,5.79L266,506.59a.5.5,0,0,0,.07.68l5.73,5-2.17,11.31a.49.49,0,0,0,.26.53.48.48,0,0,0,.58-.09l18.33-18.33a11.76,11.76,0,0,0,0-16.64Zm-16,23.13a.51.51,0,0,0-.16-.48l-5.59-4.84,6.58-8.61a.51.51,0,0,0,.05-.54l-3.06-5.75,2.21-2.21A10.78,10.78,0,0,1,288.08,505L270.9,522.13Z" fill="#231f20"/><circle cx="200.17" cy="503.65" r="14.36" fill="#fdd600"/><path d="M205.63,498.76H191.21a.5.5,0,0,0-.5.5.5.5,0,0,0,.5.5h14.42a.5.5,0,0,0,.5-.5A.5.5,0,0,0,205.63,498.76Z" fill="#231f20"/><path d="M205.63,504H191.21a.5.5,0,0,0,0,1h14.42a.5.5,0,0,0,0-1Z" fill="#231f20"/><path d="M219.54,481a.36.36,0,0,0,0-.11l-.07-.11s0,0,0-.05h0a.28.28,0,0,0-.14-.1h0a.13.13,0,0,0-.08,0l-.12,0h-7.15a.5.5,0,0,0-.5.5.5.5,0,0,0,.5.5h5.9l-9.21,8.82a15.28,15.28,0,0,0-20.37,0l-2.88-2.76,3.23-3.23a.5.5,0,0,0,0-.71.5.5,0,0,0-.7,0L184.63,487,179,481.61h5.91a.5.5,0,0,0,.5-.5.51.51,0,0,0-.5-.5h-7.16l-.1,0a.47.47,0,0,0-.25.13h0s0,0,0,.05a.6.6,0,0,0-.06.11.35.35,0,0,0,0,.11s0,0,0,.07v6.82a.5.5,0,0,0,.5.5.5.5,0,0,0,.5-.5v-5.65l5.64,5.41-3.23,3.23a.5.5,0,0,0,0,.71.52.52,0,0,0,.35.14.5.5,0,0,0,.35-.14l3.25-3.25,2.86,2.73a15.34,15.34,0,0,0,10.42,26.12v7.15h-4.66a.51.51,0,0,0-.5.5.5.5,0,0,0,.5.5h4.66v3.32a.5.5,0,0,0,.5.5.5.5,0,0,0,.5-.5v-3.32h4.51a.5.5,0,0,0,.5-.5.51.51,0,0,0-.5-.5h-4.51v-7.15a15.34,15.34,0,0,0,10.42-26.12l9.22-8.83v5.65a.5.5,0,0,0,.5.5.5.5,0,0,0,.5-.5v-6.82A.25.25,0,0,0,219.54,481Zm-6.76,20.86a14.36,14.36,0,1,1-14.36-14.36A14.38,14.38,0,0,1,212.78,501.9Z" fill="#231f20"/><polygon points="499.4 515.1 478.62 515.1 477.74 515.1 477.74 516.3 477.74 516.8 456.58 516.8 456.58 520.57 477.74 520.57 483.41 520.57 500.29 520.57 500.29 515.1 499.4 515.1" fill="#fdd600"/><path d="M487.51,509.91a.5.5,0,0,0,.5-.5v-5.83h-1v5.83A.51.51,0,0,0,487.51,509.91Z" fill="none"/><path d="M492.71,509.91a.51.51,0,0,0,.5-.5v-5.83h-1v5.83A.5.5,0,0,0,492.71,509.91Z" fill="none"/><path d="M482.32,509.91a.51.51,0,0,0,.5-.5v-5.83h-1v5.83A.5.5,0,0,0,482.32,509.91Z" fill="none"/><path d="M502.76,497.65a6,6,0,0,0-3.24-5.27,3.11,3.11,0,0,1,.36,1.45A3.19,3.19,0,0,1,496.7,497H480.6a3.27,3.27,0,0,0-1.72,6.07h2.94v.5h1v-.5H487v.5h1v-.5h4.2v.5h1v-.5h4.19v.47A5.94,5.94,0,0,0,502.76,497.65Z" fill="#fdd600"/><path d="M502.26,496.15a7,7,0,0,0-6.36-6.9.5.5,0,0,0-.17,1,2.17,2.17,0,0,1-.53,4.28H479.1a4.28,4.28,0,0,0-2.41,7.83.51.51,0,0,0-.07.24v10h-.88a.5.5,0,0,0-.5.5v1.2H454.58a.5.5,0,0,0-.5.5v4.77a.5.5,0,0,0,.5.5h44.7a.5.5,0,0,0,.5-.5V513.1a.5.5,0,0,0-.5-.5h-.88v-10a.46.46,0,0,0,0-.2A6.94,6.94,0,0,0,502.26,496.15Zm-27,22.92H455.08V515.3h20.16Zm23.54-5.47v5.47H476.24V513.6h22.54Zm-16.46-3.69a.51.51,0,0,0,.5-.5v-6.33H487v6.33a.51.51,0,0,0,.5.5.5.5,0,0,0,.5-.5v-6.33h4.2v6.33a.5.5,0,0,0,.5.5.51.51,0,0,0,.5-.5v-6.33h4.19v9.52H477.62v-9.52h4.2v6.33A.5.5,0,0,0,482.32,509.91Zm13-7.83H479.1a3.29,3.29,0,1,1,0-6.57h16.1a3.19,3.19,0,0,0,3.18-3.18,3.11,3.11,0,0,0-.36-1.45,5.92,5.92,0,0,1-2.74,11.2Z" fill="#231f20"/><polygon points="322.46 137.17 319.2 133.91 319.2 133.91 318.62 133.33 316.41 135.54 324.09 143.23 326.3 141.02 322.46 137.17" fill="#fdd600"/><path d="M335.07,122.72a4.08,4.08,0,0,1,5.78,0l.12.12,1.61-1.6-2.65-2.65a4.4,4.4,0,0,0-6.21,0L330.28,122l2.73,2.73Z" fill="#fdd600"/><path d="M326.28,137.39a2.89,2.89,0,0,1,3.61-.33l7-7-7.32-7.31-4.37,4.36-2.63,2.64a2.74,2.74,0,0,1,.5,1.61,2.81,2.81,0,0,1-2.26,2.76l4.71,4.7A2.71,2.71,0,0,1,326.28,137.39Z" fill="#fdd600"/><path d="M363.13,130.73l-3.5,3.5a.5.5,0,0,1-.39.14l-5.42-.41a.5.5,0,0,1-.47-.46l-.41-5.42a.54.54,0,0,1,.15-.4l3.49-3.49h-.38a6.92,6.92,0,0,0-6.74,8.54l-14.83,15a6.92,6.92,0,0,0-8.44,7.14l3.49-3.49a.54.54,0,0,1,.4-.15l5.42.41a.5.5,0,0,1,.46.47l.41,5.42a.5.5,0,0,1-.14.39l-3.5,3.5a6.94,6.94,0,0,0,7.06-8.82l14.81-14.69a6.93,6.93,0,0,0,8.53-7.13Z" fill="#fdd600"/><path d="M354.7,137.55a7.93,7.93,0,0,0,7.78-9.49.49.49,0,0,0-.34-.38.51.51,0,0,0-.5.13l-4.05,4.05-4.77-.36-.36-4.77,4.05-4a.49.49,0,0,0,.12-.5.5.5,0,0,0-.38-.35,7.93,7.93,0,0,0-9.38,9.07l-4.75,4.75-6.2-6.2.53-.53a.51.51,0,0,0,0-.71L332.22,124l2.06-2.06a3.17,3.17,0,0,1,4.36,0l.48.48a.5.5,0,0,0,.71,0l2.31-2.31a.51.51,0,0,0,0-.71l-3-3a5.39,5.39,0,0,0-7.63,0l-3.8,3.8-5.07,5.07-2.6,2.6a.51.51,0,0,0-.15.35.53.53,0,0,0,.15.36,1.81,1.81,0,0,1-1.74,3l-.83-.83a.51.51,0,0,0-.71,0l-2.92,2.92a.51.51,0,0,0,0,.71l8.4,8.39a.47.47,0,0,0,.35.15.49.49,0,0,0,.35-.15l2.92-2.92a.47.47,0,0,0,.15-.35.49.49,0,0,0-.15-.36l-.83-.82a1.82,1.82,0,0,1,.46-1.75,1.89,1.89,0,0,1,2.58,0,.48.48,0,0,0,.7,0l.6-.6,6.21,6.21-2.89,2.89a7.92,7.92,0,0,0-8.86,9.4.5.5,0,0,0,.85.26l4.05-4.05,4.77.36.36,4.77-4.05,4a.51.51,0,0,0-.13.5.49.49,0,0,0,.38.34,7.51,7.51,0,0,0,1.56.16,7.94,7.94,0,0,0,7.79-9.43l2.71-2.71L352.41,159a.5.5,0,0,0,.35.14.52.52,0,0,0,.35-.14l5.84-5.84a.51.51,0,0,0,0-.71L348.67,142.2l4.75-4.76A7.81,7.81,0,0,0,354.7,137.55ZM348,142.9l9.93,9.93L352.76,158,342.83,148Zm-8.85,7.44a7.9,7.9,0,0,0-5.25-5L347.15,132a7.83,7.83,0,0,0,5.13,5.13Zm-2.59,7.51a6.94,6.94,0,0,1-5.29,2l3.5-3.5a.5.5,0,0,0,.14-.39l-.41-5.42a.49.49,0,0,0-.46-.46l-5.42-.42a.54.54,0,0,0-.4.15l-3.49,3.49a6.94,6.94,0,1,1,11.83,4.53Zm-8.13-22.28a2.87,2.87,0,0,0-3.61.32,2.71,2.71,0,0,0-.76,1.43l-4.71-4.7a2.81,2.81,0,0,0,2.26-2.76,2.74,2.74,0,0,0-.5-1.61l2.63-2.64,4.37-4.36,7.32,7.32ZM314.91,134l2.21-2.21.58.58h0l3.26,3.26,3.84,3.85-2.21,2.21Zm23.52-16.95,2.65,2.65-1.61,1.6-.13-.12a4.07,4.07,0,0,0-5.77,0l-2.06,2.06-2.73-2.74,3.44-3.45A4.4,4.4,0,0,1,338.43,117.09Zm-3.22,13.07,6.2,6.2-5.13,5.13-6.2-6.2Zm14.58-5.45a7,7,0,0,1,4.91-2h.38l-3.49,3.5a.51.51,0,0,0-.15.39l.41,5.42a.5.5,0,0,0,.47.46l5.42.41a.51.51,0,0,0,.39-.14l3.5-3.49a6.94,6.94,0,1,1-11.84-4.53Z" fill="#231f20"/><path d="M397.17,122.77h22v4.39h1v-4.89a.5.5,0,0,0-.5-.5h-23a.5.5,0,0,0-.5.5v4.89h1Z" fill="#231f20"/><path d="M386.64,129.66v24.76H432.7V129.66Zm9.53,11.43h-3.65V136.3h3.65Zm16.88-2.22h-9.76V137h9.76Zm10.77,2.22h-3.65V136.3h3.65Z" fill="#fdd600"/><path d="M431.7,127.16H384.64a.5.5,0,0,0-.5.5v25.76a.5.5,0,0,0,.5.5H431.7a.5.5,0,0,0,.5-.5V127.66A.51.51,0,0,0,431.7,127.16Zm-.5,25.76H385.14v-14.5h6.38v3.17a.5.5,0,0,0,.5.5h4.65a.5.5,0,0,0,.5-.5v-3.17h5.12v1a.5.5,0,0,0,.5.5h10.76a.5.5,0,0,0,.5-.5v-1h5.12v3.17a.5.5,0,0,0,.5.5h4.65a.5.5,0,0,0,.5-.5v-3.17h6.38Zm-38.68-11.83V136.3h3.65v4.79Zm10.77-2.22V137h9.76v1.89Zm16.88,2.22V136.3h3.65v4.79Zm11-3.67h-6.38V135.8a.51.51,0,0,0-.5-.5h-4.65a.5.5,0,0,0-.5.5v1.62h-5.12v-.94a.5.5,0,0,0-.5-.5H402.79a.5.5,0,0,0-.5.5v.94h-5.12V135.8a.5.5,0,0,0-.5-.5H392a.5.5,0,0,0-.5.5v1.62h-6.38v-9.26H431.2Z" fill="#231f20"/><path d="M212.52,161.61a20.94,20.94,0,0,0-6.55-5h0a8.75,8.75,0,0,0,1.57-3.59,7.86,7.86,0,0,0,.14-1.45v-9.36a12,12,0,0,1-7.3,2.84h-1a12,12,0,0,1-7.3-2.84v9.36a8,8,0,0,0,.12,1.4,8.66,8.66,0,0,0,1.59,3.6h0a21.43,21.43,0,0,0-6.53,5.09c-.35.38-.69.78-1,1.19h27.3A16.4,16.4,0,0,0,212.52,161.61Z" fill="#fdd600"/><path d="M211.77,159.45a22.39,22.39,0,0,0-5.9-4.71,8.72,8.72,0,0,0,1.33-4.62V139.6a.51.51,0,0,0-.31-.46.51.51,0,0,0-.55.11,11,11,0,0,1-7.44,3.35v-21l6.24-7.5a.5.5,0,0,0-.39-.82H192a.51.51,0,0,0-.39.82l6.25,7.5v21a11,11,0,0,1-7.45-3.35.49.49,0,0,0-.54-.11.5.5,0,0,0-.31.46v10.52a8.68,8.68,0,0,0,1.31,4.59,23.16,23.16,0,0,0-5.87,4.83,20,20,0,0,0-1.68,2.07.51.51,0,0,0,0,.52.52.52,0,0,0,.45.27H213a.51.51,0,0,0,.45-.26.54.54,0,0,0,0-.52A18.91,18.91,0,0,0,211.77,159.45Zm-18.66-45.16h10.58l-5.29,6.36Zm-2.51,35.83v-9.36a12,12,0,0,0,7.3,2.84v4.08a.5.5,0,0,0,.5.5.5.5,0,0,0,.5-.5V143.6a12,12,0,0,0,7.3-2.84v9.36a7.75,7.75,0,0,1-1.22,4.17,14.86,14.86,0,0,0-13.18,0A7.68,7.68,0,0,1,190.6,150.12Zm-5.83,11.28c.32-.41.66-.81,1-1.19,1.52-1.65,5.56-6.05,11.66-6.45,6.73-.45,11.75,4.29,13.58,6.35a16.4,16.4,0,0,1,1,1.29Z" fill="#231f20"/><path d="M272.15,118a4.8,4.8,0,0,0-6.78,0l-4.47,4.47h0l-7.63,7.63a3,3,0,0,1-1.92,4.71l5.2,5.19a2.92,2.92,0,0,1,.83-1.6,3,3,0,0,1,3.87-.32l7.63-7.63L262.42,124l1.51,1.51,3-3a4.38,4.38,0,0,1,6.19,0l.17.17,1.79-1.8Z" fill="#fdd600"/><path d="M255.93,140.83c.2-.27.41-.53.62-.8l-5.2-5.19-.81.6L249.05,134l-2.45,2.45,8.37,8.37,2.46-2.45-1.51-1.51Z" fill="#fdd600"/><path d="M267.84,129.93l.6-.6a.5.5,0,0,0,0-.71l-4.6-4.6,2.26-2.26a3.37,3.37,0,0,1,4.77,0l.52.52a.51.51,0,0,0,.71,0l2.5-2.5a.5.5,0,0,0,0-.71l-3.24-3.25a5.81,5.81,0,0,0-8.2,0l-4.11,4.11h0l-8.31,8.3a.51.51,0,0,0,0,.71,2,2,0,0,1-1.93,3.35l-.9-.91a.51.51,0,0,0-.71,0L244,134.55a.5.5,0,0,0,0,.71l9.08,9.08a.5.5,0,0,0,.35.15.51.51,0,0,0,.36-.15l3.16-3.16a.51.51,0,0,0,0-.7l-.91-.91a2,2,0,0,1,3.35-1.93.51.51,0,0,0,.71,0l.68-.68,24.95,24.95a.49.49,0,0,0,.36.15.47.47,0,0,0,.35-.15l6.32-6.31a.51.51,0,0,0,0-.71Zm-4-13.4a4.8,4.8,0,0,1,6.78,0l2.89,2.89-1.79,1.8-.17-.17a4.38,4.38,0,0,0-6.19,0l-2.26,2.26-3-3Zm-10.4,26.75-8.37-8.37,2.45-2.45,8.38,8.37Zm6.28-6.67a3,3,0,0,0-3.87.32,2.92,2.92,0,0,0-.83,1.6l-5.2-5.19a3,3,0,0,0,1.6-.84,3,3,0,0,0,.33-3.87L259.4,121l8,8Zm26.38,24.24-24.61-24.6,5.61-5.61,24.61,24.6Z" fill="#231f20"/><path d="M199.67,557.59a23.57,23.57,0,0,0-2.34,47c.77.07,1.55.11,2.34.11s1.57,0,2.34-.11a23.57,23.57,0,0,0-2.34-47Zm-1.5,40.8a18.74,18.74,0,1,1,18.73-18.73A18.76,18.76,0,0,1,198.17,598.39Z" fill="#fdd600"/><path d="M198.67,578.35a1.81,1.81,0,1,0,1.8,1.81A1.81,1.81,0,0,0,198.67,578.35Z" fill="#fdd600"/><path d="M195.83,603.11c.77.07,1.55.11,2.34.11s1.57,0,2.34-.11c-.77.07-1.55.11-2.34.11S196.6,603.18,195.83,603.11Z" fill="none"/><path d="M198.17,555.09a24.57,24.57,0,1,0,24.56,24.57A24.6,24.6,0,0,0,198.17,555.09Zm2.34,48c-.77.07-1.55.11-2.34.11s-1.57,0-2.34-.11a23.57,23.57,0,1,1,4.68,0Z" fill="#231f20"/><path d="M198.17,556.09a23.57,23.57,0,0,0-2.34,47,23.56,23.56,0,1,1,4.68,0,23.57,23.57,0,0,0-2.34-47Z" fill="#231f20"/><path d="M198.17,559.92a19.74,19.74,0,1,0,19.73,19.74A19.77,19.77,0,0,0,198.17,559.92Zm0,38.47a18.74,18.74,0,1,1,18.73-18.73A18.76,18.76,0,0,1,198.17,598.39Z" fill="#231f20"/><path d="M198.17,566.05a.5.5,0,0,0,.5-.5v-2.31a.51.51,0,0,0-.5-.5.5.5,0,0,0-.5.5v2.31A.5.5,0,0,0,198.17,566.05Z" fill="#231f20"/><path d="M186.25,568.12a.5.5,0,0,0-.68.74l1.7,1.56a.5.5,0,0,0,.34.13.49.49,0,0,0,.37-.16.5.5,0,0,0,0-.71Z" fill="#231f20"/><path d="M198.17,593.26a.5.5,0,0,0-.5.5v2.31a.5.5,0,0,0,.5.5.5.5,0,0,0,.5-.5v-2.31A.51.51,0,0,0,198.17,593.26Z" fill="#231f20"/><path d="M183.92,579.16h-2.31a.5.5,0,0,0-.5.5.5.5,0,0,0,.5.5h2.31a.51.51,0,0,0,.5-.5A.5.5,0,0,0,183.92,579.16Z" fill="#231f20"/><path d="M214.56,579.16h-2.31a.5.5,0,0,0-.5.5.51.51,0,0,0,.5.5h2.31a.51.51,0,0,0,.5-.5A.5.5,0,0,0,214.56,579.16Z" fill="#231f20"/><path d="M208.85,588.85a.5.5,0,0,0-.7,0,.5.5,0,0,0,0,.71l1.7,1.56a.46.46,0,0,0,.33.13.49.49,0,0,0,.37-.16.5.5,0,0,0,0-.71Z" fill="#231f20"/><path d="M187.27,588.85l-1.7,1.56a.5.5,0,0,0,0,.71.46.46,0,0,0,.36.16.48.48,0,0,0,.34-.13l1.7-1.56a.5.5,0,0,0,0-.71A.51.51,0,0,0,187.27,588.85Z" fill="#231f20"/><path d="M209.88,568.12l-1.7,1.56a.5.5,0,0,0,0,.71.49.49,0,0,0,.37.16.46.46,0,0,0,.33-.13l1.7-1.56a.5.5,0,0,0,0-.71A.5.5,0,0,0,209.88,568.12Z" fill="#231f20"/><path d="M203.59,584.19l-3.15-2.9a2.8,2.8,0,0,0-1.77-4.39l0-6.71a.49.49,0,0,0-.5-.49h0a.5.5,0,0,0-.5.5l0,6.7a2.8,2.8,0,0,0,.5,5.56,2.78,2.78,0,0,0,1.55-.47l3.19,2.93a.49.49,0,0,0,.71,0A.5.5,0,0,0,203.59,584.19Zm-5.42-2.73a1.81,1.81,0,1,1,1.8-1.8A1.81,1.81,0,0,1,198.17,581.46Z" fill="#231f20"/><polygon points="484.06 117.76 484.56 117.76 484.56 116.36 467.85 119.18 467.85 159.6 484.56 162.42 484.56 158.02 484.06 158.02 484.06 117.76" fill="#fdd600"/><rect x="484.06" y="117.76" width="0.5" height="40.26" fill="#fdd600"/><path d="M491,116.76h-6.93v-2.5a.49.49,0,0,0-.18-.38.52.52,0,0,0-.4-.11l-17.72,3a.49.49,0,0,0-.41.49v41.26a.49.49,0,0,0,.41.49l17.72,3h.08a.53.53,0,0,0,.32-.12.49.49,0,0,0,.18-.38V159H491a.5.5,0,0,0,.5-.5V117.26A.5.5,0,0,0,491,116.76Zm-7.93,44.16-16.71-2.82V117.68l16.71-2.83Zm7.43-2.9h-6.43V117.76h6.43Z" fill="#231f20"/><path d="M480.29,141.39c.68,0,1.17-.78,1.17-1.85s-.49-1.84-1.17-1.84-1.17.77-1.17,1.84S479.61,141.39,480.29,141.39Z" fill="#231f20"/><polygon points="125.64 188.73 109.64 191.43 109.64 231.35 126.14 234.14 126.14 229.49 125.64 229.49 125.64 188.73" fill="#fdd600"/><polygon points="149.7 191.35 133.7 188.64 133.7 234.14 150.2 231.35 150.2 229.49 149.7 229.49 149.7 191.35" fill="#fdd600"/><path d="M152,187.55h-11.4l-8.83-1.49a.46.46,0,0,0-.4.11.46.46,0,0,0-.18.38v1h-5.56v-1a.49.49,0,0,0-.18-.38.47.47,0,0,0-.41-.11l-8.82,1.49h-11.4a.5.5,0,0,0-.5.5V230a.5.5,0,0,0,.5.5h2.37a.48.48,0,0,0,.36.27l17.49,3h.09a.47.47,0,0,0,.32-.12.49.49,0,0,0,.18-.38v-2.74h5.56v2.74a.46.46,0,0,0,.18.38.47.47,0,0,0,.32.12h.08l17.5-3a.5.5,0,0,0,.36-.27H152a.5.5,0,0,0,.5-.5V188.05A.5.5,0,0,0,152,187.55Zm-44.87,2v40h-1.81V188.55h5l-2.76.47A.5.5,0,0,0,107.14,189.51Zm17.5,43.13-16.5-2.79V189.93l16.5-2.79Zm6.56-3.15h-5.56V188.55h5.56Zm17.5.36-16.5,2.79v-45.5l16.5,2.79Zm2.81-.36H149.7v-40a.5.5,0,0,0-.42-.49l-2.76-.47h5Z" fill="#231f20"/><ellipse cx="121.91" cy="211.52" rx="1.17" ry="1.83" fill="#231f20"/><ellipse cx="134.93" cy="211.52" rx="1.17" ry="1.83" fill="#231f20"/><path d="M144,290.77a4.44,4.44,0,0,0-4.33-4.43V261.86H119.7v24.48a4.44,4.44,0,0,0-4.33,4.43v.44h.93v.5H140v-.5h2.42v.5H144Z" fill="#fdd600"/><path d="M139.13,283.94V259.86a.5.5,0,0,0-.5-.5H117.7a.5.5,0,0,0-.5.5v24.08a5.46,5.46,0,0,0-4.33,5.33v18.4a.5.5,0,0,0,.5.5h3.43a.5.5,0,0,0,.5-.5V291.21H139v16.46a.5.5,0,0,0,.5.5H143a.5.5,0,0,0,.5-.5v-18.4A5.46,5.46,0,0,0,139.13,283.94ZM118.2,260.36h19.93v23.47H118.2Zm-1.9,46.81h-2.43v-16h2.43Zm26.16,0H140v-16h2.42Zm0-17H113.87v-.94a4.44,4.44,0,0,1,4.44-4.44H138a4.44,4.44,0,0,1,4.44,4.44Z" fill="#231f20"/><polygon points="177.51 194.88 177.5 199.65 179.32 199.66 179.82 199.66 179.74 227.94 184.76 227.95 184.77 226.21 184.01 226.21 184.07 205.65 211.96 205.73 211.96 206.48 212.93 206.48 212.93 228.04 215.34 228.04 215.34 228.04 219.67 228.05 219.75 199.77 220.25 199.78 222.08 199.78 222.09 195.01 177.51 194.88" fill="#fdd600"/><path d="M204.94,225.92c1.41-2,.17-5.13.12-5.24a3.18,3.18,0,0,1-.15-.41,9.39,9.39,0,0,1-.71-4.93,11.29,11.29,0,0,1,.23-1.27,6,6,0,0,0-1.08.85,5.48,5.48,0,0,0-1.54,2.94.52.52,0,0,1-.42.41.51.51,0,0,1-.52-.27,10.68,10.68,0,0,1-1.19-4.34c0-.37,0-.73,0-1.09a8.52,8.52,0,0,0-.78,1.11,9.13,9.13,0,0,0-1.13,6,.49.49,0,0,1-.39.56.51.51,0,0,1-.59-.37,6,6,0,0,0-2-3.17,4.71,4.71,0,0,0-.66-.49,8.82,8.82,0,0,1,.26,2.53,22.86,22.86,0,0,1-.37,2.83c0,.22-.07.39-.09.48a.26.26,0,0,1,0,.15,4.52,4.52,0,0,0,.85,3.86c1.39,1.63,3.77,1.61,5,1.6S203.71,227.64,204.94,225.92Z" fill="#fdd600"/><path d="M220.84,192.26l-45.58-.13a.51.51,0,0,0-.5.5v5.77a.49.49,0,0,0,.49.5h1.83L177,226.69a.5.5,0,0,0,.5.5h6l28.89.09h6a.49.49,0,0,0,.5-.49L219,199h1.82a.5.5,0,0,0,.51-.5v-5.76A.51.51,0,0,0,220.84,192.26Zm-27.79,32.07a4.52,4.52,0,0,1-.85-3.86.26.26,0,0,0,0-.15c0-.09,0-.26.09-.48a22.86,22.86,0,0,0,.37-2.83,8.82,8.82,0,0,0-.26-2.53,4.71,4.71,0,0,1,.66.49,6,6,0,0,1,2,3.17.51.51,0,0,0,.59.37A.49.49,0,0,0,196,218a9.13,9.13,0,0,1,1.13-6,8.52,8.52,0,0,1,.78-1.11c0,.36,0,.72,0,1.09a10.68,10.68,0,0,0,1.19,4.34.51.51,0,0,0,.52.27.52.52,0,0,0,.42-.41,5.48,5.48,0,0,1,1.54-2.94,6,6,0,0,1,1.08-.85,11.29,11.29,0,0,0-.23,1.27,9.39,9.39,0,0,0,.71,4.93,3.18,3.18,0,0,0,.15.41c.05.11,1.29,3.28-.12,5.24-1.23,1.72-3.94,1.75-5.1,1.76S194.44,226,193.05,224.33Zm18.85,2-9.84,0a4.63,4.63,0,0,0,1.95-1.5c1.74-2.43.29-6.06.23-6.21h0s-.1-.23-.12-.3a.51.51,0,0,1,0,.32.75.75,0,0,0,0-.47,8.25,8.25,0,0,1-.55-1.78,8.69,8.69,0,0,1-.08-2.61,9.6,9.6,0,0,1,.53-2.16.49.49,0,0,0-.11-.53.5.5,0,0,0-.53-.12,6.9,6.9,0,0,0-2.44,1.56,6.43,6.43,0,0,0-1.41,2.11,9.4,9.4,0,0,1-.55-2.71,9.09,9.09,0,0,1,.2-2.38.5.5,0,0,0-.82-.48,10.23,10.23,0,0,0-2,2.41,9.77,9.77,0,0,0-1.33,4.17,7.13,7.13,0,0,0-3.18-2.55.54.54,0,0,0-.54.1.51.51,0,0,0-.12.54,8.62,8.62,0,0,1,.54,3.3,20,20,0,0,1-.35,2.68,5.88,5.88,0,0,0-.11.69,5.46,5.46,0,0,0,1.08,4.63,4.8,4.8,0,0,0,1.69,1.26l-10,0,.06-20.56,27.89.08Zm6,0h-5l.06-21a.5.5,0,0,0-.5-.5l-28.88-.09a.52.52,0,0,0-.51.5l-.06,21h-5l.08-27.28L218,199ZM220.33,198H218.5l-40.93-.12h-1.82v-4.76l44.58.12Z" fill="#231f20"/><path d="M204,218.71a.49.49,0,0,0,.1-.15A.4.4,0,0,1,204,218.71Z" fill="#231f20"/><path d="M339,263.32a10.55,10.55,0,0,0-10.54,10.54v7.5h0v1h21.08v-8.5A10.56,10.56,0,0,0,339,263.32Z" fill="none"/><path d="M351.77,282.36v-8.95a12.77,12.77,0,1,0-25.54,0v8.95h-3V300a8.42,8.42,0,0,0,8.41,8.41h16a8.41,8.41,0,0,0,8.4-8.41V282.36Zm-11.85,10.58a.48.48,0,0,0-.26.43v6.48h-3v-6.48a.47.47,0,0,0-.25-.43,3.58,3.58,0,1,1,3.5,0Zm9.63-11.58v1H328.47v-1h0v-7.5a10.55,10.55,0,0,1,21.09,0Z" fill="#fdd600"/><path d="M355.06,279.86h-3.12v-6.95a13.77,13.77,0,1,0-27.54,0v6.95h-3.13a.5.5,0,0,0-.5.5v18.13a9.42,9.42,0,0,0,9.41,9.41h16a9.41,9.41,0,0,0,9.4-9.41V280.36A.5.5,0,0,0,355.06,279.86Zm-.5,18.63a8.41,8.41,0,0,1-8.4,8.41h-16a8.42,8.42,0,0,1-8.41-8.41V280.86h32.79Zm-6.85-18.63H328.62v-6.5a9.55,9.55,0,0,1,19.09,0Zm-22.31-6.95a12.77,12.77,0,1,1,25.54,0v6.95h-2.23v-6.5a10.55,10.55,0,0,0-21.09,0v6.5H325.4Z" fill="#231f20"/><path d="M338.17,285.25a4.57,4.57,0,0,0-2.5,8.4v6.7a.5.5,0,0,0,.5.5h4a.5.5,0,0,0,.5-.5v-6.7a4.56,4.56,0,0,0-2.49-8.4Zm1.75,7.69a.48.48,0,0,0-.26.43v6.48h-3v-6.48a.47.47,0,0,0-.25-.43,3.58,3.58,0,1,1,3.5,0Z" fill="#231f20"/><path d="M360.36,439l-16.57-16.57-10.5,9.81a2.84,2.84,0,0,1-1.4.82,3,3,0,0,1-1.49-.08c-.26-.07-2.71-.76-3-2.72a3.29,3.29,0,0,1,.86-2.48l10.3-10.39a12.76,12.76,0,0,0-7.85-2.7h0a12.7,12.7,0,0,0-9.07,3.76l-1.28,1.27a12.85,12.85,0,0,0-.66,17.43,3.2,3.2,0,0,1,2.66.34,2.58,2.58,0,0,1,1.65,1.42,2.93,2.93,0,0,1,0,1.32,5.58,5.58,0,0,1-.33,1.32c.15,0,2.2-.62,2.51,0a.55.55,0,0,1,0,.51,3.06,3.06,0,0,1,1.22.48,2.78,2.78,0,0,1,1.22,1.05,3.46,3.46,0,0,1,0,3.26,2.38,2.38,0,0,1,1.53-.24,2.21,2.21,0,0,1,1.08.5,3,3,0,0,1,1.26.47,3.83,3.83,0,0,1,1.13,1.71c.35,1.17-.13,1.94.33,2.52.25.32.83.62,2.33.37a3,3,0,0,1,1.24.45c.78.26,1,.6,1.13.87a2.55,2.55,0,0,1,.09.58,7.57,7.57,0,0,0,.24,1.07c.24,1-.38,1.47-.2,2.11.12.42.58.92,2.15,1.24a3.06,3.06,0,0,0,4.4-4.25l-.42-.42.76-.66.37.37h0a3.05,3.05,0,0,0,4.23-.09,3,3,0,0,0,.9-2.17,3.27,3.27,0,0,0-.22-1.15,3.15,3.15,0,0,0-1.11-1.38l1.23-.27a3.06,3.06,0,0,0,4.6-4c-.92-.81-1.34-1.29-1.24-1.43s.8.07,2.09.7a3.16,3.16,0,0,0,1.37.48,3.32,3.32,0,0,0,2.48-.88,3.12,3.12,0,0,0,.58-.81,3.06,3.06,0,0,0-.58-3.53Z" fill="#fdd600"/><polygon points="358.33 417.77 358.33 417.77 358.33 417.77 358.33 417.77" fill="#231f20"/><path d="M363.17,427.27a14.37,14.37,0,0,0-4.48-9.84l-.36.34.36-.34h0c-2-2.05-6.21-5.41-12.11-4.9a14.69,14.69,0,0,0-8.37,3.69,13.74,13.74,0,0,0-9.43-3.74h0a13.75,13.75,0,0,0-9.78,4l-1.27,1.28a13.83,13.83,0,0,0-.13,19.43c-.08.07-.17.13-.25.21l-.3.3a4.07,4.07,0,0,0,2.87,6.95,4.13,4.13,0,0,0,1.15-.19,4,4,0,0,0,3.88,5.21,4.15,4.15,0,0,0,1.17-.19,4.21,4.21,0,0,0-.19,1.17,4.06,4.06,0,0,0,4.07,4.07,4.21,4.21,0,0,0,1.17-.19,4.06,4.06,0,0,0,6.75,4.05l.31-.31a1.32,1.32,0,0,0,.18-.22A4.05,4.05,0,0,0,345,454a4,4,0,0,0,4-1,4.1,4.1,0,0,0,1-4,4.07,4.07,0,0,0,4-1,4,4,0,0,0,1.19-2.87,4.37,4.37,0,0,0-.16-1.15,4.07,4.07,0,0,0,4-6.77A14.18,14.18,0,0,0,363.17,427.27Zm-24.6-10a13.74,13.74,0,0,1,8.1-3.71c5.47-.48,9.43,2.68,11.3,4.6l.36-.35-.36.35a12.46,12.46,0,0,1,.45,18.24l-14.73-14.73a.51.51,0,0,0-.35-.15.55.55,0,0,0-.36.15L332.62,432a3.12,3.12,0,0,1-4.41-4.41Zm-20.83,25.56a3.08,3.08,0,0,1,0-4.34l.31-.31a3.16,3.16,0,0,1,4.34,0,3,3,0,0,1,.9,2.17,3,3,0,0,1-.9,2.17l-.3.31A3.08,3.08,0,0,1,317.74,442.79Zm5,5a3.07,3.07,0,0,1-.1-4.22l.12-.1.31-.31.1-.12a3,3,0,0,1,2.05-.8,3.07,3.07,0,0,1,2.17,5.24l-.31.31A3.16,3.16,0,0,1,322.77,447.82Zm5.05,5a3,3,0,0,1-.9-2.17,3,3,0,0,1,.9-2.17l.3-.3a3,3,0,0,1,2.17-.9,3,3,0,0,1,2.17.9,3.07,3.07,0,0,1,0,4.34l-.3.3A3.14,3.14,0,0,1,327.82,452.86Zm9.69,4.75-.3.3a3.07,3.07,0,1,1-4.34-4.34l.3-.3a3.14,3.14,0,0,1,4.34,0,3,3,0,0,1,.9,2.17A3,3,0,0,1,337.51,457.61ZM359.29,440a3.07,3.07,0,0,1-5.24,2.17l-9.84-9.84a.5.5,0,0,0-.71,0,.51.51,0,0,0,0,.71l9.85,9.84h0a3,3,0,0,1,.9,2.17,3.06,3.06,0,0,1-5.17,2.22l-9.9-9.9a.5.5,0,0,0-.71,0,.51.51,0,0,0,0,.71l9.84,9.84h0a3,3,0,0,1,.89,2.17,3.05,3.05,0,0,1-5.13,2.25h0l-10-9.89a.5.5,0,0,0-.7,0,.5.5,0,0,0,0,.71l10,9.89a3.06,3.06,0,0,1-4.39,4.25,4,4,0,0,0-3.62-5.89,4.21,4.21,0,0,0-1.17.19,4,4,0,0,0-3.88-5.24,4.21,4.21,0,0,0-1.17.19,4,4,0,0,0-5-5.06,4.25,4.25,0,0,0,.18-1.14,4,4,0,0,0-5.86-3.63v0a12.86,12.86,0,0,1,0-18.16l1.28-1.27a12.75,12.75,0,0,1,9.07-3.76h0a12.75,12.75,0,0,1,8.7,3.43l-10,10a4.13,4.13,0,0,0,0,5.82,4.25,4.25,0,0,0,2,1.1,4.13,4.13,0,0,0,3.83-1.1l10-10,15.07,15.07A3,3,0,0,1,359.29,440Z" fill="#231f20"/><polygon points="251.47 439.57 251.47 439.07 251.47 437.52 246.53 437.52 246.53 452.26 251.47 452.26 251.47 450.71 251.47 450.21 256.62 450.21 256.62 439.57 251.47 439.57" fill="#fdd600"/><path d="M276.08,436.84l7.24-7.24a4.14,4.14,0,0,0,0-5.86,4.13,4.13,0,0,0-5.86,0l-1,1a.51.51,0,0,1-.71,0l-1-1a4.14,4.14,0,1,0-5.86,5.86Z" fill="#fdd600"/><path d="M292.78,444.77a3.35,3.35,0,0,0-1.53-2.35,3.82,3.82,0,0,0-3.14-.49L277,444.16a2.93,2.93,0,0,0-.49-2.12,3,3,0,0,0-2-1.25l-11.38-3-.13,0h-6.87v-.22a.5.5,0,0,0-.5-.5h-5.23v-1.55a.5.5,0,0,0-.5-.5h-5.36a.5.5,0,0,0-.5.5v15.74a.5.5,0,0,0,.5.5h5.36a.5.5,0,0,0,.5-.5v-1.55h5.23a.5.5,0,0,0,.5-.5v-.86l17.27,3.47.22,0h.08a.52.52,0,0,0,.25-.07l15.71-3.15A3.63,3.63,0,0,0,292.78,444.77Zm-43.39-7.2v13.19H245V436h4.36Zm5.73,11.14h-4.73V438.07h4.73Zm34.35-1-15.85,3.18-17.5-3.51V446l0-.11a.58.58,0,0,0,0-.29v-6.84h6.81l11.38,3a2,2,0,0,1,1.36.84,1.92,1.92,0,0,1,.31,1.52,2,2,0,0,1-.92,1.25,2.06,2.06,0,0,1-1.63.18L262,442.68a.51.51,0,0,0-.54.21.46.46,0,0,0-.07.16.48.48,0,0,0,.36.6l11.42,2.87a2.89,2.89,0,0,0,.88.13,2.94,2.94,0,0,0,1.52-.41,2.9,2.9,0,0,0,1-1l11.77-2.36h0a2.83,2.83,0,0,1,2.34.35,2.39,2.39,0,0,1,1.09,1.65A2.65,2.65,0,0,1,289.47,447.66Z" fill="#231f20"/><path d="M274.23,436.4a.51.51,0,0,0,.35.15.53.53,0,0,0,.36-.15l7.59-7.59a5.15,5.15,0,1,0-7.28-7.28l-.67.67-.66-.67a5.15,5.15,0,1,0-7.28,7.28Zm-6.88-14.16a4.13,4.13,0,0,1,5.86,0l1,1a.51.51,0,0,0,.71,0l1-1a4.13,4.13,0,0,1,5.86,0,4.14,4.14,0,0,1,0,5.86l-7.24,7.24-7.23-7.24a4.13,4.13,0,0,1,0-5.86Z" fill="#231f20"/><circle cx="126.86" cy="503.37" r="14.49" fill="#fdd600"/><path d="M147,480.82a.43.43,0,0,0,0-.11.36.36,0,0,0-.07-.1l0-.06h0a.3.3,0,0,0-.13-.09l0,0-.06,0-.13,0h-7.22a.5.5,0,0,0-.5.5.51.51,0,0,0,.5.5h6l-9.45,9h0a15.48,15.48,0,1,0-10.92,26.9v7.23h-4.63a.5.5,0,0,0-.5.5.5.5,0,0,0,.5.5h4.63v3.35a.5.5,0,0,0,.5.5.51.51,0,0,0,.5-.5v-3.35h4.63a.51.51,0,0,0,.5-.5.5.5,0,0,0-.5-.5h-4.63v-7.23a15.46,15.46,0,0,0,10.64-26.21l9.48-9.06v5.71a.5.5,0,0,0,.5.5.51.51,0,0,0,.5-.5V480.9A.24.24,0,0,0,147,480.82Zm-21.6,35.54a14.5,14.5,0,1,1,14.49-14.49A14.51,14.51,0,0,1,125.36,516.36Z" fill="#231f20"/><path d="M132.63,498.71H118.08a.5.5,0,1,0,0,1h14.55a.5.5,0,0,0,0-1Z" fill="#231f20"/><path d="M132.63,504H118.08a.5.5,0,0,0-.5.5.5.5,0,0,0,.5.5h14.55a.5.5,0,0,0,.5-.5A.5.5,0,0,0,132.63,504Z" fill="#231f20"/><path d="M129.67,413.78a23.61,23.61,0,1,0,23.61,23.61A23.64,23.64,0,0,0,129.67,413.78Zm13.57,25.33c-.08.69-.18,1.24-.23,1.48,0,0,0,.07,0,.13-.21.93-2.16,5.06-2.27,5.28a30.59,30.59,0,0,0-4.07.13,30.22,30.22,0,0,0-3.86.63l-1,.24a31.69,31.69,0,0,0-4.36,1.51,31.37,31.37,0,0,0-5.23,2.88,1.35,1.35,0,0,1-.32-.3,1.09,1.09,0,0,1-.15-.18,3.94,3.94,0,0,1-.49-.21,4.85,4.85,0,0,1-1.37-1.2,20.81,20.81,0,0,1-4.69-6.42,7.17,7.17,0,0,1-.72-2.59,13.93,13.93,0,0,1-.32-2.43h28.17c0,.16,0,.33,0,.5h1C143.28,438.68,143.26,438.87,143.24,439.11Z" fill="#fdd600"/><path d="M114.52,429.29a.5.5,0,0,0,.5-.5h0a5.37,5.37,0,0,1,1.63-3.86,5.32,5.32,0,0,1,3.82-1.54,5.41,5.41,0,0,1,5.26,5.4h0a.5.5,0,0,0,.5.5.51.51,0,0,0,.5-.5,6.41,6.41,0,0,0-6.24-6.4,6.4,6.4,0,0,0-6.47,6.4A.5.5,0,0,0,114.52,429.29Z" fill="#231f20"/><path d="M130.45,429.29a.5.5,0,0,0,.5-.5h0a5.43,5.43,0,0,1,5.46-5.4,5.4,5.4,0,0,1,5.25,5.4h0a.5.5,0,0,0,.5.5.51.51,0,0,0,.5-.5,6.41,6.41,0,0,0-6.24-6.4,6.31,6.31,0,0,0-4.53,1.82,6.4,6.4,0,0,0-1.94,4.58A.51.51,0,0,0,130.45,429.29Z" fill="#231f20"/><path d="M128.17,411.28a24.61,24.61,0,1,0,24.61,24.61A24.64,24.64,0,0,0,128.17,411.28Zm0,48.22a23.61,23.61,0,1,1,23.61-23.61A23.63,23.63,0,0,1,128.17,459.5Z" fill="#231f20"/><path d="M142.82,437.06H113.63a.5.5,0,0,0-.5.5,15.09,15.09,0,0,0,6.73,12.55l.06,0a15.06,15.06,0,0,0,21.74-5.75.93.93,0,0,0,.05-.1,15,15,0,0,0,1.61-6.74A.5.5,0,0,0,142.82,437.06Zm-14.6,14.59a14,14,0,0,1-7.16-2,30.41,30.41,0,0,1,9.23-4.17l.9,1.81a.5.5,0,0,0,.45.27.44.44,0,0,0,.22-.05.49.49,0,0,0,.22-.67l-.8-1.6a30.4,30.4,0,0,1,9.17-.69A14.1,14.1,0,0,1,128.22,451.65Zm12.72-8a31.59,31.59,0,0,0-20.8,5.48,14.08,14.08,0,0,1-6-11h28.17A13.92,13.92,0,0,1,140.94,443.6Z" fill="#231f20"/><path d="M140.94,443.6a31.59,31.59,0,0,0-20.8,5.48,14.13,14.13,0,0,1-5.68-8.59,7.17,7.17,0,0,0,.72,2.59,20.81,20.81,0,0,0,4.69,6.42,4.85,4.85,0,0,0,1.37,1.2,3.94,3.94,0,0,0,.49.21,1.09,1.09,0,0,0,.15.18,1.35,1.35,0,0,0,.32.3,31.37,31.37,0,0,1,5.23-2.88,31.69,31.69,0,0,1,4.36-1.51l1-.24a30.22,30.22,0,0,1,3.86-.63,30.59,30.59,0,0,1,4.07-.13c.11-.22,2.06-4.35,2.27-5.28,0-.06,0-.13,0-.13.05-.24.15-.79.23-1.48,0-.24,0-.43,0-.55h-1A14,14,0,0,1,140.94,443.6Z" fill="none"/><path d="M176,648.26a11.94,11.94,0,0,0,3.52,8.5l20.12,20.12,20.11-20.12a12,12,0,0,0,0-17,12,12,0,0,0-17,0L200,642.5a.51.51,0,0,1-.35.15.53.53,0,0,1-.36-.15l-2.74-2.75A12,12,0,0,0,176,648.26Z" fill="#fdd600"/><path d="M219,637.44a13,13,0,0,0-18.43,0l-2.39,2.4-2.4-2.4a13,13,0,0,0-18.43,18.43l20.47,20.47a.52.52,0,0,0,.36.14.5.5,0,0,0,.35-.14L219,655.87a13,13,0,0,0,0-18.43Zm-23.92.71,2.74,2.75a.52.52,0,0,0,.36.14.5.5,0,0,0,.35-.14l2.75-2.75a12,12,0,0,1,17,0,12,12,0,0,1,0,17l-20.11,20.12-20.12-20.12a12,12,0,0,1,17-17Z" fill="#231f20"/><path d="M342.78,658.08l.21-.22a2.66,2.66,0,0,0,0-3.75l-13.77-13.77a2.7,2.7,0,0,0-3.75,0l-.22.21a.5.5,0,0,1-.71,0L323,639l-3.1,3.11,36.95,37,3.11-3.11-17.15-17.16A.48.48,0,0,1,342.78,658.08Z" fill="#fdd600"/><path d="M359.24,673.83l-17.17-17.16a3.62,3.62,0,0,0,.89-3h5.41a.5.5,0,0,0,0-1h-5.72a3.79,3.79,0,0,0-.7-1l-.05,0,6.5-2.47a.5.5,0,0,0,.29-.65.52.52,0,0,0-.65-.29l-6.92,2.64-1-1,5.26-5.26a.5.5,0,0,0-.71-.71l-5.26,5.26L337,646.68l5.26-5.26a.5.5,0,0,0,0-.71.48.48,0,0,0-.7,0L336.26,646l-2.45-2.46,5.26-5.26a.5.5,0,0,0,0-.7.5.5,0,0,0-.71,0l-5.26,5.26-2.46-2.46,5.26-5.26a.5.5,0,0,0,0-.71.5.5,0,0,0-.7,0l-5.26,5.26-.79-.78s.05,0,.06-.07l2.84-6.73a.5.5,0,0,0-.92-.39l-2.72,6.44-.24-.23a3.63,3.63,0,0,0-.85-.62.29.29,0,0,0,0-.09V631.5a.5.5,0,0,0-.5-.5.5.5,0,0,0-.5.5v5.39a3.64,3.64,0,0,0-3.18.87l-1.58-1.59a.51.51,0,0,0-.71,0L317.05,640a.5.5,0,0,0,0,.7l37.67,37.67a.51.51,0,0,0,.7,0l3.82-3.82A.51.51,0,0,0,359.24,673.83Zm-31.77-35.24,13.77,13.77a2.66,2.66,0,0,1,.13,3.61l-17.51-17.52A2.66,2.66,0,0,1,327.47,638.59Zm27.6,38.71-36.95-37,3.1-3.11,1.57,1.57h0L341,657h0l17.15,17.16Z" fill="#231f20"/><path d="M430.6,641.91,423.67,635a2.34,2.34,0,0,0-3.32,0l-32.21,32.2a2.35,2.35,0,0,0,0,3.33l7.09,7.08a2.39,2.39,0,0,0,2.93.32l-5.75-5.75a.5.5,0,0,1,0-.71l32.2-32.21a.51.51,0,0,1,.71,0l5.6,5.6A2.35,2.35,0,0,0,430.6,641.91Z" fill="#fdd600"/><path d="M431.15,641.05l-8.52-8.53a3.35,3.35,0,0,0-4.74,0l-32.21,32.21a3.36,3.36,0,0,0,0,4.73l8.53,8.53a3.33,3.33,0,0,0,2.37,1,3.36,3.36,0,0,0,2.37-1,.51.51,0,0,0,0-.71l-7.23-7.23,2.54-2.54,6.94,6.93a.48.48,0,0,0,.7,0,.5.5,0,0,0,0-.71L395,666.8l2.48-2.48,6.93,6.93a.51.51,0,0,0,.36.15.49.49,0,0,0,.35-.15.5.5,0,0,0,0-.71l-6.93-6.93,2.48-2.48,6.93,6.93a.51.51,0,0,0,.36.15.5.5,0,0,0,.35-.85l-6.93-6.94,2.48-2.48,6.93,6.93a.5.5,0,0,0,.35.15.51.51,0,0,0,.36-.15.5.5,0,0,0,0-.7l-6.94-6.94,2.49-2.48,6.93,6.94a.52.52,0,0,0,.35.14.54.54,0,0,0,.36-.14.51.51,0,0,0,0-.71l-6.94-6.93,2.48-2.48,6.94,6.93a.48.48,0,0,0,.7,0,.5.5,0,0,0,0-.71l-6.93-6.93,2.48-2.48,6.93,6.93a.51.51,0,0,0,.36.15.49.49,0,0,0,.35-.15.5.5,0,0,0,0-.71l-6.93-6.93,2.48-2.48,6.93,6.93a.51.51,0,0,0,.36.15.5.5,0,0,0,.35-.15.48.48,0,0,0,0-.7l-6.93-6.94,2.48-2.48,6.93,6.93a.5.5,0,0,0,.35.15.51.51,0,0,0,.36-.15.5.5,0,0,0,0-.7l-6.93-6.94,2.74-2.74,7.23,7.23a.48.48,0,0,0,.7,0A3.34,3.34,0,0,0,431.15,641.05Zm-7.58-3.56a.51.51,0,0,0-.71,0l-32.2,32.21a.5.5,0,0,0,0,.71l7.19,7.19a2.4,2.4,0,0,1-2.93-.32l-8.53-8.52a2.35,2.35,0,0,1,0-3.33l32.21-32.2a2.34,2.34,0,0,1,3.32,0l8.53,8.52a2.35,2.35,0,0,1,.31,2.93Z" fill="#231f20"/><path d="M481.36,631.15a8.72,8.72,0,0,0-8.53,6.94h-2.19a.5.5,0,0,0-.5.5v1.77a5.71,5.71,0,0,0-4.17,5.49v.28H464.9a.5.5,0,0,0-.5.5.5.5,0,0,0,.5.5h16.5a.5.5,0,0,0,.5-.5.5.5,0,0,0-.5-.5h-1.07v-.28a5.71,5.71,0,0,0-4.13-5.48v-1.78a.5.5,0,0,0-.5-.5h-1.84a7.71,7.71,0,0,1,15.22,1.77v39a.5.5,0,0,0,.5.5.51.51,0,0,0,.5-.5v-39A8.72,8.72,0,0,0,481.36,631.15Zm-2,15H467v-.28a4.71,4.71,0,0,1,4.71-4.71h2.94a4.71,4.71,0,0,1,4.71,4.71Zm-4.13-6h-4.06v-1h4.06Z" fill="#231f20"/><path d="M467.76,649.17a.5.5,0,0,0-.5.5v2a.5.5,0,0,0,.5.5.5.5,0,0,0,.5-.5v-2A.51.51,0,0,0,467.76,649.17Z" fill="#231f20"/><path d="M467.76,654.56a.5.5,0,0,0-.5.5v3.38a.5.5,0,0,0,.5.5.5.5,0,0,0,.5-.5v-3.38A.5.5,0,0,0,467.76,654.56Z" fill="#231f20"/><path d="M467.76,661.33a.5.5,0,0,0-.5.5v3.39a.5.5,0,0,0,.5.5.51.51,0,0,0,.5-.5v-3.39A.5.5,0,0,0,467.76,661.33Z" fill="#231f20"/><path d="M467.76,668.1a.5.5,0,0,0-.5.5v2a.5.5,0,0,0,.5.5.5.5,0,0,0,.5-.5v-2A.51.51,0,0,0,467.76,668.1Z" fill="#231f20"/><path d="M473.15,651.11a.5.5,0,0,0-.5.5v2a.5.5,0,0,0,1,0v-2A.5.5,0,0,0,473.15,651.11Z" fill="#231f20"/><path d="M473.15,656.91a.5.5,0,0,0-.5.5v3.8a.5.5,0,0,0,1,0v-3.8A.5.5,0,0,0,473.15,656.91Z" fill="#231f20"/><path d="M473.15,664.52a.5.5,0,0,0-.5.5v3.8a.5.5,0,0,0,1,0V665A.5.5,0,0,0,473.15,664.52Z" fill="#231f20"/><path d="M473.15,672.13a.5.5,0,0,0-.5.5v2a.5.5,0,0,0,1,0v-2A.5.5,0,0,0,473.15,672.13Z" fill="#231f20"/><path d="M478.54,649.17a.51.51,0,0,0-.5.5v2a.5.5,0,0,0,.5.5.5.5,0,0,0,.5-.5v-2A.5.5,0,0,0,478.54,649.17Z" fill="#231f20"/><path d="M478.54,655.26a.5.5,0,0,0-.5.5v4.09a.51.51,0,0,0,.5.5.5.5,0,0,0,.5-.5v-4.09A.5.5,0,0,0,478.54,655.26Z" fill="#231f20"/><path d="M478.54,663.43a.51.51,0,0,0-.5.5v2a.5.5,0,0,0,.5.5.5.5,0,0,0,.5-.5v-2A.5.5,0,0,0,478.54,663.43Z" fill="#231f20"/><path d="M129.81,715.78a19.94,19.94,0,0,0-19.9,19,13.36,13.36,0,0,1,5.79-1.57h.49a13.57,13.57,0,0,1,6.87,1.9,13.5,13.5,0,0,1,7-1.89h0a13.27,13.27,0,0,1,6.52,1.86,13.36,13.36,0,0,1,13.09-.29,19.92,19.92,0,0,0-19.89-19Z" fill="#fdd600"/><path d="M143.29,719.61A21.38,21.38,0,0,0,128.56,713v-3.37a.5.5,0,0,0-.5-.5.5.5,0,0,0-.5.5v3.39A20.91,20.91,0,0,0,107.14,734a.51.51,0,0,0,.26.44.5.5,0,0,0,.5,0A12.4,12.4,0,0,1,114,732.5a12.61,12.61,0,0,1,7.06,1.9.5.5,0,0,0,.27.08.5.5,0,0,0,.26-.08,12.5,12.5,0,0,1,6.25-1.89v20.2a3.52,3.52,0,0,1-1.09,2.65,3.29,3.29,0,0,1-2.46.93,3.42,3.42,0,0,1-3-3.58.5.5,0,0,0-1,0,4.42,4.42,0,0,0,4,4.6h.29a4.26,4.26,0,0,0,2.93-1.21,4.48,4.48,0,0,0,1.4-3.38V732.53a12.34,12.34,0,0,1,5.77,1.84.51.51,0,0,0,.53,0,12.36,12.36,0,0,1,13.08,0,.49.49,0,0,0,.51,0A.47.47,0,0,0,149,734,21.31,21.31,0,0,0,143.29,719.61ZM141.9,731.5a13.35,13.35,0,0,0-7,1.86,13.27,13.27,0,0,0-6.52-1.86h0a13.5,13.5,0,0,0-7,1.89,13.57,13.57,0,0,0-6.87-1.9H114a13.36,13.36,0,0,0-5.79,1.57,19.94,19.94,0,0,1,19.9-19,19.92,19.92,0,0,1,19.89,19A13.29,13.29,0,0,0,141.9,731.5Z" fill="#231f20"/><path d="M145,364.13H132.16a8.32,8.32,0,0,0-4,1.28.48.48,0,0,1-.58,0,6.74,6.74,0,0,0-3.84-1.43H113.11a6.79,6.79,0,0,0-6.43,6.78v3.41h17.1a.5.5,0,0,1,.5.5v2h28.63v-4.22A8.31,8.31,0,0,0,145,364.13Z" fill="#fdd600"/><path d="M111.66,358.55a7.78,7.78,0,1,0-2.76-5.94A7.79,7.79,0,0,0,111.66,358.55Zm11.81-5.94a6.79,6.79,0,1,1-6.78-6.79A6.78,6.78,0,0,1,123.47,352.61Z" fill="#231f20"/><path d="M130.84,358a9.3,9.3,0,1,0-3.31-7.1A9.31,9.31,0,0,0,130.84,358Zm6-15.41a8.3,8.3,0,1,1-8.31,8.31A8.32,8.32,0,0,1,136.84,342.58Z" fill="#231f20"/><path d="M143.28,361.38h-12.9a9.12,9.12,0,0,0-4.22,1.25A7.89,7.89,0,0,0,122,361.2H111.34a7.78,7.78,0,0,0-7.41,7.78v3.91a.5.5,0,0,0,.5.5h17.1v2a.5.5,0,0,0,.5.5h29.63a.5.5,0,0,0,.5-.5v-4.72A9.31,9.31,0,0,0,143.28,361.38Zm7.88,13.52H122.53v-4.22a8.3,8.3,0,0,1,7.88-8.3h12.84a8.31,8.31,0,0,1,7.91,8.3ZM104.93,369a6.79,6.79,0,0,1,6.43-6.78H122a6.79,6.79,0,0,1,3.28,1,9.29,9.29,0,0,0-3.73,7.45v1.71h-16.6Z" fill="#231f20"/><path d="M218,363.72h-8.23a5.14,5.14,0,0,0-1.93.49.49.49,0,0,1-.47,0,6.14,6.14,0,0,0-2.82-.85h-9.62a6.06,6.06,0,0,0-2.79.85.49.49,0,0,1-.47,0,5.2,5.2,0,0,0-2-.49h-8.24a5.13,5.13,0,0,0-4.87,5.14v2.54h12a.5.5,0,0,1,.5.5v.58h21.2v-.58a.5.5,0,0,1,.5-.5h12.06v-2.54A5.15,5.15,0,0,0,218,363.72Z" fill="#fdd600"/><path d="M208.26,359.11a6.15,6.15,0,1,0-2.19-4.69A6.11,6.11,0,0,0,208.26,359.11Zm4-9.85a5.15,5.15,0,0,1,3.32,9.09,5.27,5.27,0,0,1-6.64,0,5.15,5.15,0,0,1,3.32-9.09Z" fill="#231f20"/><path d="M216.35,361h-8.28a6.09,6.09,0,0,0-2.1.49,7.23,7.23,0,0,0-3.07-.87h-9.67a7.1,7.1,0,0,0-3,.87,6.26,6.26,0,0,0-2.12-.49h-8.29a6.14,6.14,0,0,0-5.85,6.14v3a.5.5,0,0,0,.5.5h12.05v.58a.51.51,0,0,0,.5.5h22.21a.51.51,0,0,0,.5-.5v-.58h12a.5.5,0,0,0,.5-.5v-3A6.15,6.15,0,0,0,216.35,361Zm4.88,8.68H209.68v-2a7.06,7.06,0,0,0-2.67-5.53,4.88,4.88,0,0,1,1.08-.18h8.24a5.14,5.14,0,0,1,4.9,5.14Zm-33.76,1.08v-3.05a6.1,6.1,0,0,1,5.78-6.09h9.62a6.1,6.1,0,0,1,5.81,6.09v3.05Zm-12.55-3.62A5.13,5.13,0,0,1,179.8,362H188a5,5,0,0,1,1.1.18,7.09,7.09,0,0,0-2.66,5.53v2H174.92Z" fill="#231f20"/><path d="M180,359.11a6.15,6.15,0,1,0-2.18-4.69A6.15,6.15,0,0,0,180,359.11Zm4-9.85a5.15,5.15,0,0,1,3.32,9.09,5.27,5.27,0,0,1-6.64,0,5.15,5.15,0,0,1,3.32-9.09Z" fill="#231f20"/><path d="M193.5,358.28a7.1,7.1,0,1,0-2.52-5.42A7.1,7.1,0,0,0,193.5,358.28Zm10.67-5.42a6.1,6.1,0,1,1-6.09-6.1A6.06,6.06,0,0,1,204.17,352.86Z" fill="#231f20"/><path d="M288,367.75h-.94a.42.42,0,0,1-.42-.43v-6a5,5,0,0,1-1,1.18,5.3,5.3,0,0,1-6.68,0,5.17,5.17,0,0,1-1.84-3.95,5.11,5.11,0,0,1,1.33-3.43h-3a4.1,4.1,0,0,0-1.44.34,6.26,6.26,0,0,1,.2,1.52,6.14,6.14,0,0,1-2.18,4.68,6.53,6.53,0,0,1-.74.52V367a.42.42,0,0,1-.42.42H268.7a.43.43,0,0,1-.43-.42v-3.84l-.18,0A6.14,6.14,0,0,1,262,357a6,6,0,0,1,.29-1.86h-4.52a5.13,5.13,0,0,1-.51,7.38,5.28,5.28,0,0,1-4.31,1.09v3.71a.43.43,0,0,1-.43.43h-1a5.23,5.23,0,0,0-5,5.22v2.6h12.12a.43.43,0,0,1,.43.43v.65h21.34V376a.43.43,0,0,1,.43-.43H293V373A5.22,5.22,0,0,0,288,367.75Z" fill="#fdd600"/><path d="M273.89,351a5.35,5.35,0,0,0,6.9,0,5.34,5.34,0,1,0-6.9,0Zm3.45-8.43a4.34,4.34,0,0,1,2.8,7.66,4.43,4.43,0,0,1-5.6,0,4.34,4.34,0,0,1,2.8-7.66Z" fill="#231f20"/><path d="M255.4,351a5.34,5.34,0,1,0-1.9-4.08A5.34,5.34,0,0,0,255.4,351Zm3.44-8.43a4.34,4.34,0,0,1,2.81,7.66,4.44,4.44,0,0,1-5.61,0,4.34,4.34,0,0,1,2.8-7.66Z" fill="#231f20"/><path d="M286.46,365.15H286V363.5l.31-.22a6.17,6.17,0,0,0-4-10.89,6.58,6.58,0,0,0-1.19.11l-.21,0h-7.13l-.16,0a7.12,7.12,0,0,0-11.05,0l-.16,0h-7.13l-.21,0a6.75,6.75,0,0,0-1.19-.11,6.17,6.17,0,0,0-4,10.89l.3.22v1.65h-.49a6.19,6.19,0,0,0-5.88,6.18v3a.5.5,0,0,0,.5.5h12.12v.59a.5.5,0,0,0,.5.5h22.31a.5.5,0,0,0,.5-.5v-.59h12.11a.5.5,0,0,0,.5-.5v-3A6.19,6.19,0,0,0,286.46,365.15Zm4.9,8.72H279.75v-2a7.08,7.08,0,0,0-2.69-5.56,5.07,5.07,0,0,1,1.1-.19h8.28a5.18,5.18,0,0,1,4.92,5.18ZM257.44,375V371.9a6.14,6.14,0,0,1,5.81-6.13h9.67a6.14,6.14,0,0,1,5.83,6.13V375Zm-12.62-3.63a5.18,5.18,0,0,1,4.91-5.18H258a5,5,0,0,1,1.11.19,7.11,7.11,0,0,0-2.67,5.56v2H244.82Zm9.06-17.94a5.17,5.17,0,0,1,3.34,9.13,5.3,5.3,0,0,1-6.68,0,5.17,5.17,0,0,1,3.34-9.13Zm0,11.35a6.19,6.19,0,0,0,6.18-6.17,6.19,6.19,0,0,0-2.69-5.1h4.53A7.13,7.13,0,1,0,275.23,357a7,7,0,0,0-1-3.53h4.54a6.17,6.17,0,0,0,3.49,11.27,6,6,0,0,0,2.68-.64v1h-6.86a6.26,6.26,0,0,0-2.11.49,7.23,7.23,0,0,0-3.08-.87h-9.72a7.23,7.23,0,0,0-3.07.87,6.2,6.2,0,0,0-2.12-.49h-6.84v-1A6.12,6.12,0,0,0,253.88,364.74ZM274.23,357a6.14,6.14,0,1,1-6.14-6.13A6.14,6.14,0,0,1,274.23,357Zm11.42,5.52a5.3,5.3,0,0,1-6.68,0,5.18,5.18,0,1,1,6.68,0Z" fill="#231f20"/><path d="M268.27,367a.43.43,0,0,0,.43.42h2.19a.42.42,0,0,0,.42-.42V362.2a6.14,6.14,0,0,1-3,.91Z" fill="none"/><path d="M469.5,282.6A12.6,12.6,0,1,0,465,273,12.61,12.61,0,0,0,469.5,282.6Zm8.12-21.22A11.59,11.59,0,1,1,466,273,11.61,11.61,0,0,1,477.62,261.38Z" fill="#231f20"/><path d="M488.19,290.32H470.53a11.58,11.58,0,0,0-11,11.58v6h39.69v-6A11.6,11.6,0,0,0,488.19,290.32Z" fill="#fdd600"/><path d="M486.46,287.58h-17.7a12.59,12.59,0,0,0-12,12.58v6.49a.5.5,0,0,0,.5.5H498a.5.5,0,0,0,.5-.5v-6.49A12.59,12.59,0,0,0,486.46,287.58Zm11,18.57H457.78v-6a11.58,11.58,0,0,1,11-11.58h17.66a11.6,11.6,0,0,1,11,11.59Z" fill="#231f20"/><path d="M353.74,349.39a6.16,6.16,0,0,0-3.51-2h-5.36a5.49,5.49,0,0,0-4.16,1.85,4.53,4.53,0,0,0-.45.64l-.12.19a2.84,2.84,0,1,1-.95-.53c-.1-.16-.21-.3-.31-.43a5.48,5.48,0,0,0-4.15-1.85h-5.46a6,6,0,0,0-4.84,6.28v10.75a1.39,1.39,0,0,0,.4,1,1.37,1.37,0,0,0,2.32-1,.56.56,0,0,1,.52-.63.55.55,0,0,1,.48.64v17.48a1.92,1.92,0,0,0,3.84,0,.58.58,0,0,1,.55-.65.57.57,0,0,1,.45.65,2.06,2.06,0,0,0,4.1.11l.33,1a1.14,1.14,0,0,0,2.22-.35.53.53,0,0,1,.56-.56.54.54,0,0,1,.44.56c.19.73.64,1.24,1.13,1.27s1.2-.47,1.2-.91h0l.38.37a1.89,1.89,0,0,0,1.33.54,1.92,1.92,0,0,0,1.92-1.91.51.51,0,1,1,1,0,1.92,1.92,0,0,0,3.83,0V364.41a.55.55,0,0,1,.49-.63.53.53,0,0,1,.51.62,1.49,1.49,0,0,0,.23.73,1.42,1.42,0,0,0,.56.5,1.39,1.39,0,0,0,1.54-.26,1.44,1.44,0,0,0,.4-1V353.69A6.18,6.18,0,0,0,353.74,349.39Z" fill="#fdd600"/><path d="M352.75,347a7.13,7.13,0,0,0-4.18-2.37h-5.45a6.47,6.47,0,0,0-4.92,2.2,1.71,1.71,0,0,1-.11.14c-.07-.09-.12-.18-.2-.27a6.5,6.5,0,0,0-4.93-2.2h-5.53a7,7,0,0,0-5.75,7.3v10.73a2.5,2.5,0,0,0,.69,1.67,2.36,2.36,0,0,0,2.67.44,2.12,2.12,0,0,0,.36-.21V380a2.92,2.92,0,0,0,5.34,1.63,2.92,2.92,0,0,0,2.42,1.28,2.88,2.88,0,0,0,2-.77,5.95,5.95,0,0,1,4.91.77,2.1,2.1,0,0,0,1.23-.4,2.86,2.86,0,0,0,1.67.53,2.93,2.93,0,0,0,2.42-1.28,2.92,2.92,0,0,0,5.33-1.63V364.57a3.35,3.35,0,0,0,.36.21,2.36,2.36,0,0,0,2.67-.44,2.48,2.48,0,0,0,.7-1.68V352A7.16,7.16,0,0,0,352.75,347Zm.66,4.94v10.71a1.44,1.44,0,0,1-.4,1,1.37,1.37,0,0,1-1.54.26,1.43,1.43,0,0,1-.79-1.23V351.24a.5.5,0,0,0-.5-.5.5.5,0,0,0-.5.5v28.9a1.92,1.92,0,0,1-3.83,0v-16a.5.5,0,0,0-.5-.5.5.5,0,0,0-.5.5v16a1.92,1.92,0,0,1-2.93,1.62,2.11,2.11,0,0,0,.24-1V370.54a1.81,1.81,0,0,0,.77.17,1.76,1.76,0,0,0,1.76-1.76v-7.82a4.46,4.46,0,0,0-1.59-3.74,3.73,3.73,0,0,0-.75-.45,4.28,4.28,0,0,0-1.88-.37l-4.4,0a4.45,4.45,0,0,0-1.65.42,4.25,4.25,0,0,0-.87.56,4.61,4.61,0,0,0-1.46,3.77V369a1.75,1.75,0,0,0,2.51,1.57h0v10.27a2.71,2.71,0,0,0,0,.4,1.9,1.9,0,0,1-1.49.73,1.92,1.92,0,0,1-1.92-1.91h0V364.05a.5.5,0,1,0-1,0v16h0a1.92,1.92,0,0,1-3.84,0V362.53h0V351.11a.5.5,0,0,0-.5-.5.5.5,0,0,0-.5.5v11.41a1.39,1.39,0,0,1-.79,1.23,1.37,1.37,0,0,1-1.53-.26,1.39,1.39,0,0,1-.4-1V351.78a6,6,0,0,1,4.84-6.28H333a5.42,5.42,0,0,1,4.15,1.85,4.94,4.94,0,0,1,.7,1.1,3.65,3.65,0,0,0-3.1,3.59c0,.13,0,.24,0,.36a3.64,3.64,0,0,0,7.24,0c0-.12,0-.23,0-.36a3.66,3.66,0,0,0-3.13-3.6,5.38,5.38,0,0,0-.25-.56c.1-.13.19-.27.3-.4a5.43,5.43,0,0,1,4.07-1.85h5.45a6,6,0,0,1,4.93,6.32Zm-14.52,28.85V370a.5.5,0,0,0-1,0v10.82a1.14,1.14,0,0,1-2.28,0V361a.5.5,0,0,0-.5-.5.5.5,0,0,0-.5.5v8a.81.81,0,0,1-.44.7.78.78,0,0,1-.86-.15.79.79,0,0,1-.22-.53v-7.66a3.61,3.61,0,0,1,1.11-3,3.39,3.39,0,0,1,1.9-.75h4.4a3.18,3.18,0,0,1,2,.61,3.51,3.51,0,0,1,1.2,2.91V369a.77.77,0,0,1-1.53,0v-8a.5.5,0,0,0-.5-.5.5.5,0,0,0-.5.5v19.84a1.14,1.14,0,0,1-2.27,0Zm-.5-26.09A2.66,2.66,0,1,1,341,352,2.67,2.67,0,0,1,338.39,354.7Z" fill="#231f20"/><path d="M345.35,343.57a4.57,4.57,0,1,0-4.58-4.57A4.58,4.58,0,0,0,345.35,343.57Zm0-8.14a3.57,3.57,0,1,1-3.58,3.57A3.57,3.57,0,0,1,345.35,335.43Z" fill="#231f20"/><path d="M330.74,343.57a4.57,4.57,0,1,0-4.57-4.57A4.58,4.58,0,0,0,330.74,343.57Zm0-8.14a3.57,3.57,0,1,1-3.57,3.57A3.57,3.57,0,0,1,330.74,335.43Z" fill="#231f20"/><path d="M425.09,425.14a5.16,5.16,0,0,0-3.12-1l-5.75,0a7,7,0,0,0-2.57.69,7.09,7.09,0,0,0-1.83,1.3l-2.3,2.17a.49.49,0,0,1-.49.11.51.51,0,0,1-.34-.37,4.72,4.72,0,0,0-1.75-2.92,4.93,4.93,0,0,0-3.1-1l-6.51,0a5.14,5.14,0,0,0-3,1.17,5.55,5.55,0,0,0-1.73,4.58v11.33a1.39,1.39,0,0,0,.4,1,1.37,1.37,0,0,0,1.54.26,1.43,1.43,0,0,0,.8-1.24.5.5,0,0,1,1,0v17.53a1.93,1.93,0,1,0,3.85,0,.5.5,0,1,1,1,0,1.93,1.93,0,1,0,3.85,0V441.28a.5.5,0,0,1,.5-.5.5.5,0,0,1,.5.5,1.37,1.37,0,0,0,2.74,0V432.6a.5.5,0,0,1,.36-.48,1.36,1.36,0,0,0,.6-.36l0-.06,3.7-3.93a.5.5,0,0,1,.64-.08c.23.14.25.32.32,1a3.93,3.93,0,0,1,.05.82c-.1,8.63-.07,11,0,11.58a.65.65,0,0,1,0,.21v17.53a1.93,1.93,0,1,0,3.85,0,.51.51,0,0,1,.5-.5.5.5,0,0,1,.5.5,1.93,1.93,0,0,0,3.86,0V441.28a.5.5,0,0,1,.5-.5.5.5,0,0,1,.5.5,1.37,1.37,0,0,0,2.74,0V429.63a5.24,5.24,0,0,0-.79-3.36A4.82,4.82,0,0,0,425.09,425.14Z" fill="#fdd600"/><path d="M399,420.33a4.4,4.4,0,1,0-4.39-4.4A4.4,4.4,0,0,0,399,420.33Zm0-7.79a3.4,3.4,0,1,1-3.39,3.39A3.4,3.4,0,0,1,399,412.54Z" fill="#231f20"/><path d="M417.11,420.33a4.4,4.4,0,1,0-4.39-4.4A4.4,4.4,0,0,0,417.11,420.33Zm3.4-4.4a3.4,3.4,0,1,1-3.4-3.39A3.41,3.41,0,0,1,420.51,415.93Z" fill="#231f20"/><path d="M425.25,424a5.88,5.88,0,0,0-1.31-1.37h0a6.22,6.22,0,0,0-3.73-1.16l-5.77,0a7.89,7.89,0,0,0-5.06,2.27l-1.69,1.59a5.5,5.5,0,0,0-1.89-2.67,5.92,5.92,0,0,0-3.74-1.17l-6.51,0a6.18,6.18,0,0,0-3.59,1.41,6.56,6.56,0,0,0-2.08,5.39v11.29a2.44,2.44,0,0,0,.7,1.67,2.36,2.36,0,0,0,2.67.44,2.71,2.71,0,0,0,.37-.21v15.62A2.92,2.92,0,0,0,399,458.7a2.92,2.92,0,0,0,5.35-1.64v-15.6a2.33,2.33,0,0,0,1.37.44,2.38,2.38,0,0,0,2.37-2.37v-8.34a2.27,2.27,0,0,0,.75-.57l0-.05,2.91-3.1a.57.57,0,0,0,0,.14.15.15,0,0,0,0,.07c-.08,7.32-.12,10.31,0,11.54v.31a.37.37,0,0,0,0,.18l0,17.35a2.92,2.92,0,0,0,5.35,1.64,2.93,2.93,0,0,0,5.36-1.64v-15.6a2.31,2.31,0,0,0,1.37.44,2.37,2.37,0,0,0,2.36-2.37v-11.6A6.14,6.14,0,0,0,425.25,424Zm-.05,3.92v11.65a1.37,1.37,0,1,1-2.73,0h0V427.68a.51.51,0,0,0-.5-.5.5.5,0,0,0-.5.5v11.85h0v17.53a1.93,1.93,0,0,1-3.86,0v-16a.5.5,0,0,0-.5-.5.5.5,0,0,0-.5.5v16a1.93,1.93,0,1,1-3.85,0V427.68h0a4.54,4.54,0,0,0,0-.65c-.08-.79-.11-.95-.33-1.09a.5.5,0,0,0-.64.08l-3.7,3.94,0,.05a1.31,1.31,0,0,1-1.81.09l-4.52-4a1.31,1.31,0,0,1-.12-1.84,1.29,1.29,0,0,1,1.84-.13l3.24,2.84a.5.5,0,0,0,.67,0l2.76-2.61a7.09,7.09,0,0,1,1.83-1.3,6.93,6.93,0,0,1,2.57-.69l5.75,0a5.23,5.23,0,0,1,3.12,1,4.82,4.82,0,0,1,1.08,1.13A5.16,5.16,0,0,1,425.2,427.88Zm-19.51,13a1.38,1.38,0,0,1-1.37-1.37v-9.75l1.23,1.07a2.26,2.26,0,0,0,1.51.56v8.12A1.37,1.37,0,0,1,405.69,440.9ZM401.4,459a1.92,1.92,0,0,1-1.93-1.93h0v-16a.5.5,0,1,0-1,0v16h0a1.93,1.93,0,1,1-3.85,0V439.53h0V427.68a.51.51,0,0,0-.5-.5.5.5,0,0,0-.5.5v11.84a1.42,1.42,0,0,1-.8,1.23,1.37,1.37,0,0,1-1.54-.26,1.39,1.39,0,0,1-.4-1V428.2a5.55,5.55,0,0,1,1.73-4.58,5.12,5.12,0,0,1,3-1.17l6.49,0h0a5,5,0,0,1,3.1,1,4.65,4.65,0,0,1,1.63,2.46l-2.76-2.42a2.31,2.31,0,0,0-1.67-.56,2.3,2.3,0,0,0-1.36,4l2.29,2v28.15A1.92,1.92,0,0,1,401.4,459Z" fill="#231f20"/><path d="M425.74,343.52a1.74,1.74,0,0,0-1.74.31.72.72,0,0,1-.19.11l-8.11,5.52a.47.47,0,0,1-.28.09l-11.59,0h0a.43.43,0,0,1-.29-.1l-7.78-5.55a.37.37,0,0,1-.16-.09,1.76,1.76,0,0,0-1.75-.31,1.79,1.79,0,0,0-1.09,2.28,1.75,1.75,0,0,0,.77.94.57.57,0,0,1,.16.15l10.39,7.35a.48.48,0,0,1,.21.41v26.82a2.2,2.2,0,0,0,2.25,2.14h.4a2.19,2.19,0,0,0,2.24-2.14.5.5,0,0,1,.5-.5.5.5,0,0,1,.5.5,2.2,2.2,0,0,0,2.25,2.14h.3a2.2,2.2,0,0,0,2.25-2.14l-.05-26.82a.48.48,0,0,1,.22-.41l10.78-7.37a.86.86,0,0,1,.14-.13,1.66,1.66,0,0,0,.76-.94,1.78,1.78,0,0,0-1.08-2.28Z" fill="#fdd600"/><path d="M425.92,342.27a2.82,2.82,0,0,0-1.6-1.45,2.76,2.76,0,0,0-2.59.4l-.1,0-8.11,5.53H402.24l-7.77-5.54a.27.27,0,0,0-.1-.06,2.76,2.76,0,0,0-2.6-.4,2.81,2.81,0,0,0-1.7,3.56,2.72,2.72,0,0,0,1,1.37.52.52,0,0,0,.11.1l10.33,7.31v26.56a3.2,3.2,0,0,0,3.25,3.14h.4a3.27,3.27,0,0,0,2.74-1.47,3.3,3.3,0,0,0,2.75,1.47h.3a3.2,3.2,0,0,0,3.24-3.15l0-26.55,10.7-7.3a.32.32,0,0,0,.1-.1,2.69,2.69,0,0,0,1-1.37A2.78,2.78,0,0,0,425.92,342.27Zm-.85,1.78a1.7,1.7,0,0,1-.76.94.86.86,0,0,0-.14.13l-10.78,7.37a.48.48,0,0,0-.22.41l0,26.82a2.19,2.19,0,0,1-2.24,2.14h-.3a2.2,2.2,0,0,1-2.25-2.14.49.49,0,0,0,0-.21V364a.5.5,0,1,0-1,0V380s0,0,0,0a2.22,2.22,0,0,1-2.21,1.8h-.4a2.2,2.2,0,0,1-2.25-2.14V352.9a.48.48,0,0,0-.21-.41l-10.39-7.35a.57.57,0,0,0-.16-.15,1.75,1.75,0,0,1-.77-.94,1.79,1.79,0,0,1,1.09-2.28,1.76,1.76,0,0,1,1.75.31.51.51,0,0,0,.16.09l7.78,5.55a.59.59,0,0,0,.29.1h11.59a.47.47,0,0,0,.28-.09l8.11-5.53a.5.5,0,0,0,.19-.1,1.77,1.77,0,0,1,1.74-.32,1.81,1.81,0,0,1,1,.94A1.75,1.75,0,0,1,425.07,344.05Z" fill="#231f20"/><path d="M407.88,345.59a5.49,5.49,0,1,0-5.48-5.48A5.49,5.49,0,0,0,407.88,345.59Zm0-10a4.49,4.49,0,1,1-4.48,4.49A4.49,4.49,0,0,1,407.88,335.62Z" fill="#231f20"/><path d="M479.79,337.7a11.13,11.13,0,0,0-11.21,11v22.4a13.3,13.3,0,0,0,.33,2.9c1.24,5.45,5.71,9.26,10.88,9.26,6.19,0,11.22-5.46,11.22-12.16v-22.4A11.13,11.13,0,0,0,479.79,337.7Zm-1.74,24.76-6.21-5a4.78,4.78,0,0,1,2.33-.77h7.72a4.89,4.89,0,0,1,2.36.77Zm0-9.48a6.76,6.76,0,0,1-.13-13.52v0a.94.94,0,0,1,.64,1,.9.9,0,0,1-.39.55.91.91,0,0,1-.72.13.5.5,0,1,0-.22,1,2.15,2.15,0,0,0,.43,0,1.9,1.9,0,0,0,1.88-1.51,1.82,1.82,0,0,0-.12-1.06A6.76,6.76,0,0,1,478,353Z" fill="#fdd600"/><path d="M478,335a12.13,12.13,0,0,0-12.21,12v22.4a14.17,14.17,0,0,0,.36,3.12c1.34,5.91,6.21,10,11.85,10,6.74,0,12.22-5.91,12.22-13.16V347A12.13,12.13,0,0,0,478,335Zm-10.81,37.62,11.14-9.08,10.89-8.88v14.76c0,6.7-5,12.16-11.22,12.16A11.38,11.38,0,0,1,467.23,372.57ZM478,336a11.13,11.13,0,0,1,11.22,11v6.35l-4.2,3.42a5.83,5.83,0,0,0-3.14-1.1h-7.78a5.85,5.85,0,0,0-3.12,1.1l-4.19-3.42V347A11.13,11.13,0,0,1,478,336Zm-11.21,33.42V354.61l10.43,8.49L467,371.47A12.77,12.77,0,0,1,466.83,369.37Zm11.22-6.91-6.21-5a4.78,4.78,0,0,1,2.33-.77h7.72a4.89,4.89,0,0,1,2.36.77Z" fill="#231f20"/><path d="M478,354a7.76,7.76,0,0,0,0-15.52H478A7.76,7.76,0,0,0,478,354Zm-.13-14.52v0a.94.94,0,0,1,.64,1,.9.9,0,0,1-.39.55.91.91,0,0,1-.72.13.5.5,0,1,0-.22,1,2.15,2.15,0,0,0,.43,0,1.9,1.9,0,0,0,1.88-1.51,1.82,1.82,0,0,0-.12-1.06,6.76,6.76,0,1,1-1.5-.14Z" fill="#231f20"/><path d="M292.77,657.22a14.91,14.91,0,0,0-7.57-1.1.5.5,0,0,1-.42-.16.51.51,0,0,1-.12-.44,15,15,0,0,0-.19-7.62,15.38,15.38,0,0,0-8.82,4.22.49.49,0,0,1-.49.11.48.48,0,0,1-.34-.35,15.5,15.5,0,0,0-5-8.24,15.44,15.44,0,0,0-5,8.24.48.48,0,0,1-.34.35.49.49,0,0,1-.49-.11,15.4,15.4,0,0,0-8.82-4.22,15,15,0,0,0-.19,7.62.5.5,0,0,1-.54.6,15,15,0,0,0-7.58,1.1,17,17,0,0,0,21.66,11.56l.77-.26a4.52,4.52,0,0,1,1,0c.13,0,.57.23.59.23l.18,0a16.31,16.31,0,0,0,12.95-1A16.14,16.14,0,0,0,292.77,657.22Z" fill="#fdd600"/><path d="M291.81,654.8a15.59,15.59,0,0,0-7.77-1.4,15.71,15.71,0,0,0-.5-7.87.49.49,0,0,0-.51-.34,16.12,16.12,0,0,0-9.21,4,16,16,0,0,0-5.44-8.23.5.5,0,0,0-.61,0,16,16,0,0,0-5.43,8.23,16.12,16.12,0,0,0-9.21-4,.48.48,0,0,0-.51.34,15.6,15.6,0,0,0-.5,7.87,15.59,15.59,0,0,0-7.77,1.4.5.5,0,0,0-.28.55A17.08,17.08,0,0,0,253.38,667a18.37,18.37,0,0,0,8.25,2,15.65,15.65,0,0,0,5.34-.92c.2,0,.4,0,.61.06h1l.6-.06a15.69,15.69,0,0,0,5.34.92,18.31,18.31,0,0,0,8.25-2,17.1,17.1,0,0,0,9.32-11.65A.5.5,0,0,0,291.81,654.8Zm-9.49,11.31a16.76,16.76,0,0,1-10.95,1.55,17.67,17.67,0,0,0,9.88-7.39,18.74,18.74,0,0,0,2.57-5.85,14.79,14.79,0,0,1,7.2,1.12A16.14,16.14,0,0,1,282.32,666.11Zm-28.49,0a16.2,16.2,0,0,1-8.7-10.57,14.85,14.85,0,0,1,7.21-1.12,18.51,18.51,0,0,0,2.57,5.85,17.59,17.59,0,0,0,9.88,7.39A16.73,16.73,0,0,1,253.83,666.11Zm-.39-19.89a15.36,15.36,0,0,1,8.6,4,19.21,19.21,0,0,0-.49,4.24,17.44,17.44,0,0,0,5,12.52,17,17,0,0,1-13.15-20.79ZM268.08,642a17,17,0,0,1,0,25.06,17,17,0,0,1,0-25.06Zm12.34,17.76A16.33,16.33,0,0,1,269.56,667a17.4,17.4,0,0,0,5-12.52,19.2,19.2,0,0,0-.48-4.24,15.36,15.36,0,0,1,8.6-4A16.22,16.22,0,0,1,280.42,659.72Z" fill="#231f20"/></g><g id="e4442d96-804c-45fd-8825-b1e6c563f888" data-name="CATEGORIES"><text transform="translate(96.7 72.42)" font-size="40" fill="#231f20" font-family="Antonio-Bold, Antonio" font-weight="700">HOME/PERSONAL</text></g><g id="ab6a0214-e7b8-4d11-9a4e-e6e8264154e7" data-name="LABELS"><text transform="translate(103.48 389.13)" font-size="6" fill="#231f20" font-family="Roboto-Regular, Roboto">person-two</text><text transform="translate(173.42 389.13)" font-size="6" fill="#231f20" font-family="Roboto-Regular, Roboto">person-th<tspan x="25.32" y="0" letter-spacing="-0.01em">r</tspan><tspan x="27.3" y="0">ee</tspan></text><text transform="translate(243.11 389.13)" font-size="6" fill="#231f20" font-family="Roboto-Regular, Roboto">person-fi<tspan x="23.6" y="0" letter-spacing="-0.01em">v</tspan><tspan x="26.46" y="0">e</tspan></text><text transform="translate(453.32 389.13)" font-size="6" fill="#231f20" font-family="Roboto-Regular, Roboto">ba<tspan x="6.63" y="0" letter-spacing="-0.01em">b</tspan><tspan x="9.96" y="0">y</tspan></text><text transform="translate(173.66 239.98)" font-size="6" fill="#231f20" font-family="Roboto-Regular, Roboto">fi<tspan x="3.54" y="0" letter-spacing="-0.01em">r</tspan><tspan x="5.51" y="0">eplace</tspan></text><text transform="translate(243.61 239.98)" font-size="6" fill="#231f20" font-family="Roboto-Regular, Roboto">living-<tspan x="15.61" y="0" letter-spacing="-0.01em">r</tspan><tspan x="17.58" y="0">oom</tspan></text><text transform="translate(313.76 239.98)" font-size="6" fill="#231f20" font-family="Roboto-Regular, Roboto">kitchen</text><text transform="translate(383.72 239.98)" font-size="6" fill="#231f20" font-family="Roboto-Regular, Roboto">bed</text><text transform="translate(453.94 239.98)" font-size="6" fill="#231f20" font-family="Roboto-Regular, Roboto">bed-<tspan x="11.58" y="0" letter-spacing="-0.01em">t</tspan><tspan x="13.49" y="0">op</tspan></text><text transform="translate(103.49 534.75)" font-size="6" fill="#231f20" font-family="Roboto-Regular, Roboto">gender-equality</text><text transform="translate(173.5 534.75)" font-size="6" fill="#231f20" font-family="Roboto-Regular, Roboto">t<tspan x="1.96" y="0" letter-spacing="-0.02em">r</tspan><tspan x="3.87" y="0">ans-inclusi</tspan><tspan x="32.42" y="0" letter-spacing="-0.01em">v</tspan><tspan x="35.29" y="0">e</tspan></text><text transform="translate(383.61 534.75)" font-size="6" fill="#231f20" font-family="Roboto-Regular, Roboto">socks</text><text transform="translate(313.25 534.75)" font-size="6" fill="#231f20" font-family="Roboto-Regular, Roboto">teddy-bear</text><text transform="translate(453.5 534.75)" font-size="6" fill="#231f20" font-family="Roboto-Regular, Roboto"><tspan letter-spacing="-0.01em">t</tspan><tspan x="1.9" y="0">oothbrush-</tspan><tspan x="30.77" y="0" letter-spacing="-0.01em">t</tspan><tspan x="32.67" y="0">oothpaste</tspan></text><text transform="translate(243.5 534.75)" font-size="6" fill="#231f20" font-family="Roboto-Regular, Roboto">hea<tspan x="9.75" y="0" letter-spacing="0.02em">r</tspan><tspan x="11.92" y="0">t-b</tspan><tspan x="18.91" y="0" letter-spacing="-0.01em">r</tspan><tspan x="20.88" y="0">eak</tspan></text><text transform="translate(103.5 239.98)" font-size="6" fill="#231f20" font-family="Roboto-Regular, Roboto">doors-open-two</text><text transform="translate(103.59 314.1)" font-size="6" fill="#231f20" font-family="Roboto-Regular, Roboto">chair</text><text transform="translate(173.95 314.1)" font-size="6" fill="#231f20" font-family="Roboto-Regular, Roboto">office chair</text><text transform="translate(243.43 314.1)" font-size="6" fill="#231f20" font-family="Roboto-Regular, Roboto">scale</text><text transform="translate(313.78 314.1)" font-size="6" fill="#231f20" font-family="Roboto-Regular, Roboto">lock</text><text transform="translate(383.77 314.1)" font-size="6" fill="#231f20" font-family="Roboto-Regular, Roboto"><tspan letter-spacing="-0.01em">k</tspan><tspan x="2.98" y="0" letter-spacing="-0.01em">e</tspan><tspan x="6.12" y="0">y</tspan></text><text transform="translate(453.59 314.1)" font-size="6" fill="#231f20" font-family="Roboto-Regular, Roboto">person-one</text><text transform="translate(383.42 389.13)" font-size="6" fill="#231f20" font-family="Roboto-Regular, Roboto">child</text><text transform="translate(103.48 685.34)" font-size="6" fill="#231f20" font-family="Roboto-Regular, Roboto">wallet</text><text transform="translate(173.58 685.34)" font-size="6" fill="#231f20" font-family="Roboto-Regular, Roboto">hea<tspan x="9.75" y="0" letter-spacing="0.02em">r</tspan><tspan x="11.92" y="0">t</tspan></text><text transform="translate(103.69 609.92)" font-size="6" fill="#231f20" font-family="Roboto-Regular, Roboto">sleep</text><text transform="translate(173.59 609.92)" font-size="6" fill="#231f20" font-family="Roboto-Regular, Roboto">clock</text><text transform="translate(243.43 609.92)" font-size="6" fill="#231f20" font-family="Roboto-Regular, Roboto">b<tspan x="3.37" y="0" letter-spacing="-0.01em">o</tspan><tspan x="6.73" y="0">x-open</tspan></text><text transform="translate(313.24 609.92)" font-size="6" fill="#231f20" font-family="Roboto-Regular, Roboto">bell</text><text transform="translate(453.32 609.92)" font-size="6" fill="#231f20" font-family="Roboto-Regular, Roboto">spiritual-se<tspan x="29.32" y="0" letter-spacing="0.01em">r</tspan><tspan x="31.4" y="0">vices</tspan></text><text transform="translate(383.93 609.92)" font-size="6" fill="#231f20" font-family="Roboto-Regular, Roboto">islam</text><text transform="translate(313.59 466.12)" font-size="6" fill="#231f20" font-family="Roboto-Regular, Roboto">friendship</text><text transform="translate(383.42 466.12)" font-size="6" fill="#231f20" font-family="Roboto-Regular, Roboto">suppo<tspan x="16.56" y="0" letter-spacing="0.02em">r</tspan><tspan x="18.73" y="0">t</tspan></text><text transform="translate(173.59 466.12)" font-size="6" fill="#231f20" font-family="Roboto-Regular, Roboto">hap<tspan x="9.93" y="0" letter-spacing="-0.01em">p</tspan><tspan x="13.27" y="0">y</tspan></text><text transform="translate(103.45 466)" font-size="6" fill="#231f20" font-family="Roboto-Regular, Roboto">e<tspan x="3.18" y="0" letter-spacing="-0.01em">x</tspan><tspan x="6.09" y="0">cited</tspan></text><text transform="translate(243.33 466.12)" font-size="6" fill="#231f20" font-family="Roboto-Regular, Roboto">donate</text><text transform="translate(453.58 466.12)" font-size="6" fill="#231f20" font-family="Roboto-Regular, Roboto">cane</text><text transform="translate(103.42 168.26)" font-size="6" fill="#231f20" font-family="Roboto-Regular, Roboto">house</text><text transform="translate(173.42 168.26)" font-size="6" fill="#231f20" font-family="Roboto-Regular, Roboto">sh<tspan x="6.4" y="0" letter-spacing="-0.01em">o</tspan><tspan x="9.78" y="0" letter-spacing="-0.01em">v</tspan><tspan x="12.64" y="0">el</tspan></text><text transform="translate(243.83 168.26)" font-size="6" fill="#231f20" font-family="Roboto-Regular, Roboto">hammer</text><text transform="translate(313.59 168.26)" font-size="6" fill="#231f20" font-family="Roboto-Regular, Roboto">hammer-w<tspan x="28.46" y="0" letter-spacing="-0.01em">r</tspan><tspan x="30.43" y="0">ench</tspan></text><text transform="translate(383.69 168.26)" font-size="6" fill="#231f20" font-family="Roboto-Regular, Roboto"><tspan letter-spacing="-0.01em">t</tspan><tspan x="1.9" y="0">oolb</tspan><tspan x="13.57" y="0" letter-spacing="-0.01em">o</tspan><tspan x="16.93" y="0">x</tspan></text><text transform="translate(453.59 168.26)" font-size="6" fill="#231f20" font-family="Roboto-Regular, Roboto">door-open</text><text transform="translate(243.43 685.34)" font-size="6" fill="#231f20" font-family="Roboto-Regular, Roboto">lotus</text><text transform="translate(313.65 685.34)" font-size="6" fill="#231f20" font-family="Roboto-Regular, Roboto">hair-brush</text><text transform="translate(383.42 685.34)" font-size="6" fill="#231f20" font-family="Roboto-Regular, Roboto">hair-comb</text><text transform="translate(453.32 685.34)" font-size="6" fill="#231f20" font-family="Roboto-Regular, Roboto">shower-head</text><text transform="translate(103.42 763.13)" font-size="6" fill="#231f20" font-family="Roboto-Regular, Roboto">umb<tspan x="11.93" y="0" letter-spacing="-0.01em">r</tspan><tspan x="13.91" y="0">ella</tspan></text></g></svg>