<svg xmlns="http://www.w3.org/2000/svg" viewBox="0 0 50 50"><g id="abf99e58-f530-470d-9738-f1a110f71980" data-name="ICONS"><path d="M41,39.44a8.24,8.24,0,0,1-3.73.34,9.19,9.19,0,0,1-6-3.78,8.38,8.38,0,0,1,9.73-13.09,7.3,7.3,0,0,1,2.33.79,7.12,7.12,0,0,1,2,1.61l0-12.59-9.83,0a1.87,1.87,0,0,0-.52-.34,1.73,1.73,0,0,0-.33-.1v-.56h-.5V3.48H9V45.11H5.34A4.49,4.49,0,0,0,9.73,49H41.38a4.84,4.84,0,0,0,1.37-.31,4.52,4.52,0,0,0,1.68-1.14,3.74,3.74,0,0,0,.73-1.15,3.3,3.3,0,0,0,.27-1.31q0-4.51,0-9A8.65,8.65,0,0,1,41,39.44ZM25.77,14.87a.5.5,0,0,1-.5.5H21.54V19.1a.5.5,0,0,1-.5.5H16.73a.5.5,0,0,1-.5-.5V15.37H12.5a.5.5,0,0,1-.5-.5V10.56a.5.5,0,0,1,.5-.5h3.73V6.33a.5.5,0,0,1,.5-.5H21a.5.5,0,0,1,.5.5v3.73h3.73a.5.5,0,0,1,.5.5Z" fill="#fdd600"/><path d="M47.19,30.63a9.39,9.39,0,0,0-2.26-6.1V12.19s0,0,0-.07,0,0,0-.06a.4.4,0,0,0-.12-.22L34.07,1.12A.46.46,0,0,0,33.84,1H7a.5.5,0,0,0-.5.5V42.61H3.31a.5.5,0,0,0-.5.5,5.3,5.3,0,0,0,1.25,3.42,5.37,5.37,0,0,0,4.17,2H39.92a5.76,5.76,0,0,0,1.69-.38,5.32,5.32,0,0,0,2-1.4,4.64,4.64,0,0,0,.93-1.43,4.56,4.56,0,0,0,.34-1.7V36.72A9.37,9.37,0,0,0,47.19,30.63ZM43.66,44.92a3.8,3.8,0,0,1-.73,1.14,4.48,4.48,0,0,1-1.69,1.14,4.7,4.7,0,0,1-1.36.31h-.47a4.46,4.46,0,0,1-4.31-4.4.5.5,0,0,0-.5-.5H7.46V2H33.22V12.19a.5.5,0,0,0,.5.5H43.93V23.53a9.4,9.4,0,1,0,0,14.19V43.6A3.39,3.39,0,0,1,43.66,44.92Zm-9.53-1.31a5.34,5.34,0,0,0,1.22,2.92,5.52,5.52,0,0,0,1.06,1H8.23a4.49,4.49,0,0,1-4.39-3.91ZM37.79,39a8.4,8.4,0,1,1,8.4-8.39A8.41,8.41,0,0,1,37.79,39Zm5.43-27.33h-9v-9Z" fill="#231f20"/><path d="M38.16,29.81c-1.06-.3-1.43-.46-1.43-1s.33-.83,1-.83a1.13,1.13,0,0,1,.8.25,1.11,1.11,0,0,1,.35.71h1.48a2.13,2.13,0,0,0-2.07-2.08V25.74h-1v1.1a2.11,2.11,0,0,0-2.07,2.1c0,1.08.59,1.7,2.31,2.17,1.08.31,1.49.59,1.49,1.26s-.3.9-1.15.9a1.24,1.24,0,0,1-1.34-1.12H35a2.32,2.32,0,0,0,2.26,2.26v1.1h1v-1.1a2.19,2.19,0,0,0,2.26-2.22C40.55,31.13,40.06,30.37,38.16,29.81Z" fill="#231f20"/><path d="M26.19,23.86H13a.5.5,0,0,0-.5.5.5.5,0,0,0,.5.5H26.19a.5.5,0,0,0,.5-.5A.5.5,0,0,0,26.19,23.86Z" fill="#231f20"/><path d="M12.93,31.36H24.84a.51.51,0,0,0,.5-.5.5.5,0,0,0-.5-.5H12.93a.5.5,0,0,0-.5.5A.51.51,0,0,0,12.93,31.36Z" fill="#231f20"/><path d="M38.29,25.74h-1v1.1a2.11,2.11,0,0,0-2.07,2.1c0,1.08.59,1.7,2.31,2.17,1.08.31,1.49.59,1.49,1.26s-.3.9-1.15.9a1.24,1.24,0,0,1-1.34-1.12H35a2.32,2.32,0,0,0,2.26,2.26v1.1h1v-1.1a2.19,2.19,0,0,0,2.26-2.22c0-1.06-.49-1.82-2.39-2.38-1.06-.3-1.43-.46-1.43-1s.33-.83,1-.83a1.13,1.13,0,0,1,.8.25,1.11,1.11,0,0,1,.35.71h1.48a2.13,2.13,0,0,0-2.07-2.08Z" fill="none"/><path d="M25.69,36.85H12.47a.5.5,0,1,0,0,1H25.69a.5.5,0,1,0,0-1Z" fill="#231f20"/><path d="M25.27,10.06H21.54V6.33a.5.5,0,0,0-.5-.5H16.73a.5.5,0,0,0-.5.5v3.73H12.5a.5.5,0,0,0-.5.5v4.31a.5.5,0,0,0,.5.5h3.73V19.1a.5.5,0,0,0,.5.5H21a.5.5,0,0,0,.5-.5V15.37h3.73a.5.5,0,0,0,.5-.5V10.56A.5.5,0,0,0,25.27,10.06Zm-.5,4.31H21a.5.5,0,0,0-.5.5V18.6H17.23V14.87a.5.5,0,0,0-.5-.5H13V11.06h3.73a.51.51,0,0,0,.5-.5V6.83h3.31v3.73a.51.51,0,0,0,.5.5h3.73Z" fill="#231f20"/></g><g id="af0d5b86-f1ea-4297-bc56-4dd016949dea" data-name="LABELS"><text transform="translate(0.25 54.96)" font-size="6" fill="#231f20" font-family="Roboto-Regular, Roboto">hospital-bill-p<tspan x="35.73" y="0" letter-spacing="-0.01em">a</tspan><tspan x="38.95" y="0">yment</tspan></text></g></svg>