<svg id="a41ca940-a68b-4a0e-aa8c-7515d30a0628" data-name="ICONS" xmlns="http://www.w3.org/2000/svg" viewBox="0 0 50 50"><rect x="20.17" y="48.82" width="0.5" height="0.5" fill="#231f20"/><polygon points="21.38 36.32 17.56 36.32 17.56 36.99 21.96 36.99 21.96 31.66 21.38 31.66 21.38 36.32" fill="none"/><polygon points="21.38 29.99 17.56 29.99 17.56 30.66 21.96 30.66 21.96 25.32 21.38 25.32 21.38 29.99" fill="none"/><polygon points="15.98 36.32 12.16 36.32 12.16 36.99 16.56 36.99 16.56 31.66 15.98 31.66 15.98 36.32" fill="none"/><path d="M29.83,36H28.11v.68H30.3a.51.51,0,0,0,0-.17A.5.5,0,0,0,29.83,36Z" fill="none"/><polygon points="38.42 47.68 28.11 47.68 28.11 48.34 39 48.34 39 25.32 38.42 25.32 38.42 47.68" fill="none"/><path d="M16,30H12.16v.67h4.4V25.38s0,0,0-.06H16Z" fill="none"/><path d="M26.33,3.23,17,10.58V4.42h-4v9.33L4.45,20.42H9.23V49.09h34.2V20.42h4.78ZM16.56,37h-4.4v-.67h-.58V31H16v.67h.58Zm0-11.61v5.28h-4.4V30h-.58V24.66H16s0,0,0,.06v.6h.59S16.56,25.36,16.56,25.38ZM22,37h-4.4v-.67H17V31h4.4v.67H22Zm0-6.33h-4.4V30H17V24.72s0,0,0-.06h4.41v.66H22ZM39,48.34H28.11v-.66h-.58V37h2.3a.5.5,0,0,0,.47-.33H28.11V36h-.58V24.66H38.42v.66H39Z" fill="#fdd600"/><path d="M48.64,19.11,25.31.79a.48.48,0,0,0-.62,0L16.63,7.11V2.51a.5.5,0,0,0-.5-.5h-5a.5.5,0,0,0-.5.5v9.34L1.36,19.11a.51.51,0,0,0-.16.56.5.5,0,0,0,.47.33H6.9V48.18a.5.5,0,0,0,.5.5H42.6a.5.5,0,0,0,.5-.5V20h5.23a.5.5,0,0,0,.47-.33A.51.51,0,0,0,48.64,19.11ZM11.6,3h4V7.9l-4,3.17ZM38.42,47.68H27.53V37h2.3a.5.5,0,0,0,.5-.5.5.5,0,0,0-.5-.5h-2.3V24.66H38.42Zm3.68,0H39.42V24.16a.5.5,0,0,0-.5-.5H27a.5.5,0,0,0-.5.5V47.68H7.9V20H42.1ZM3.12,19,25,1.81,46.88,19Z" fill="#231f20"/><path d="M11.08,37.32h10.8a.5.5,0,0,0,.5-.5V24.16a.5.5,0,0,0-.5-.5H11.08a.5.5,0,0,0-.5.5V36.82A.5.5,0,0,0,11.08,37.32Zm10.3-1H17V31h4.4Zm0-11.66V30H17V24.72s0,0,0-.06Zm-9.8,0H16s0,0,0,.06V30h-4.4Zm0,6.33H16v5.33h-4.4Z" fill="#231f20"/></svg>