<svg xmlns="http://www.w3.org/2000/svg" viewBox="0 0 50 50"><g id="e8de0be5-525d-4d6e-bca2-d4a9d75079bf" data-name="ICONS"><path d="M44.16,36.16a.51.51,0,0,0-.5.5.5.5,0,0,0,.5.5,2.9,2.9,0,1,1,0,5.79H31.45V37.16h9.71a.5.5,0,0,0,.5-.5v-3A12.23,12.23,0,0,0,29.44,21.44h-5.5V10.72H25a.5.5,0,0,0,.5-.5V6.55a.5.5,0,0,0-.5-.5H6.58a.5.5,0,0,0-.5.5v3.67a.5.5,0,0,0,.5.5H7.66V36.66a.5.5,0,0,0,.5.5H14V43H2.44a.51.51,0,0,0-.5.5.5.5,0,0,0,.5.5H44.16a3.9,3.9,0,1,0,0-7.79ZM25.72,22.44v2.39a.5.5,0,0,0,1,0V22.44h2.72c.26,0,.51,0,.76,0v2.35a.51.51,0,0,0,.5.5.5.5,0,0,0,.5-.5V22.59a11.25,11.25,0,0,1,9.45,10.57h-32V10.72H22.94V14H20.67a.5.5,0,0,0,0,1h2.27v3.05H20.67a.5.5,0,0,0-.5.5.51.51,0,0,0,.5.5h2.27v2.63L21.11,23.5a.51.51,0,0,0,0,.71.51.51,0,0,0,.36.15.49.49,0,0,0,.35-.15l1.77-1.77ZM7.08,9.72V7.05H24.5V9.72H7.08ZM8.66,36.16v-2h32v2ZM30.45,43H15V37.16H30.45Z"/></g><g id="a82c7b37-cedf-4c95-82a2-62a4a7c99963" data-name="LABELS"><text transform="translate(1.03 55.01)" font-size="6" font-family="Roboto-Regular, Roboto">ice-skate</text></g></svg>