<svg xmlns="http://www.w3.org/2000/svg" viewBox="0 0 50 50"><g id="a758b2e4-0ae4-4f45-8aa1-64d43af40bb4" data-name="ICONS"><path d="M32.79,23.27l-12.9,0A8.3,8.3,0,0,0,12,31.53l0,17.76,28.65.06,0-17.76A8.31,8.31,0,0,0,32.79,23.27Zm-11,9.43v1.22h0v1.68a1.11,1.11,0,0,1-1.11,1.11l-2.23.06V34a3.42,3.42,0,0,1,3.34-3.41Zm3.64,8.23c-1.51,0-2.51-.57-2.51-1s1-.95,2.51-.95,2.5.57,2.5.95S26.88,40.93,25.38,40.93Zm3.44-4.2a1.11,1.11,0,0,1-1.11-1.11V33.94h0V30.57A3.42,3.42,0,0,1,31.05,34l.06,2.75Z" fill="#fdd600"/><path d="M31.38,20.55a.65.65,0,0,0-.2,0H18.24a9.31,9.31,0,0,0-8.86,9.28l0,18.26a.5.5,0,0,0,.5.5l6.07,0h0l23.56,0h0a.5.5,0,0,0,.5-.5l0-18.26A9.31,9.31,0,0,0,31.38,20.55ZM25.38,39c1.5,0,2.5.57,2.5.95s-1,1-2.5,1-2.51-.57-2.51-1S23.87,39,25.38,39Zm-15-9.24a8.31,8.31,0,0,1,7.9-8.28h6v8.42l-1.58,1.58v-1a.92.92,0,0,0-.92-.92A4.42,4.42,0,0,0,17.4,34v2.81a.94.94,0,0,0,.94.94h2.29a2.12,2.12,0,0,0,2.11-2.11V33.94h0v-1l1.58-1.59v6.78c-1.45.24-2.45,1-2.45,1.86,0,.05,0,.09,0,.13h-1a2.37,2.37,0,1,0,0,4.74h7.57a1.37,1.37,0,1,1,0,2.74h-12l0-16a.5.5,0,0,0-.5-.5h0a.5.5,0,0,0-.5.5l0,16H10.35ZM21.74,32.7v1.22h0v1.68a1.11,1.11,0,0,1-1.11,1.11l-2.23.06V34a3.42,3.42,0,0,1,3.34-3.41ZM39,47.61H33.92l0-16a.5.5,0,0,0-.5-.5h0a.5.5,0,0,0-.5.5l0,16H30.41a2.3,2.3,0,0,0,.47-1.38,2.42,2.42,0,0,0-2.45-2.37H20.86a1.37,1.37,0,1,1,0-2.74h1.51l.09,0a4.64,4.64,0,0,0,2.92.84c2,0,3.5-.84,3.5-2S27.37,38,25.38,38h-.06V31.56L26.71,33v1h0v1.68a2.12,2.12,0,0,0,2.11,2.11h2.29a.94.94,0,0,0,.94-.94V34a4.43,4.43,0,0,0-4.42-4.41.92.92,0,0,0-.92.92v1.05l-1.39-1.39V21.51h5.74l.1,0A8.3,8.3,0,0,1,39,29.85Zm-11.28-12V33.94h0V30.57A3.42,3.42,0,0,1,31.05,34l.06,2.75H28.82A1.11,1.11,0,0,1,27.71,35.62Z" fill="#231f20"/><path d="M24.72,19.3A9.33,9.33,0,1,0,15.4,10,9.34,9.34,0,0,0,24.72,19.3Zm0-17.65A8.33,8.33,0,1,1,16.4,10,8.34,8.34,0,0,1,24.72,1.65Z" fill="#231f20"/></g><g id="b8105557-7b3e-425d-b948-fe69d33afc21" data-name="LABELS"><text transform="translate(0.52 54.81)" font-size="6" fill="#231f20" font-family="Roboto-Regular, Roboto">internal-medicine</text></g></svg>