<svg id="f137129d-1c6c-4ff9-ba81-8254675437ac" data-name="ICONS" xmlns="http://www.w3.org/2000/svg" viewBox="0 0 50 50"><path d="M41.65,45.47V36.1h1.89V33.61H41.26V32.43a15.25,15.25,0,0,0-13-14.69V11.17h.18a2.13,2.13,0,0,0-4.15,0h.18V17.7A15.25,15.25,0,0,0,11.23,32.43v1.18h-2V36.1H11.1v9.37H7.37V48h38V45.47ZM31.39,23.73a.6.6,0,0,1,.31-.46h.07c.3,0,.81.44,1.06,1.26s0,1.59-.26,1.67a.61.61,0,0,1-.51-.21,2.42,2.42,0,0,1-.61-1h0A2.3,2.3,0,0,1,31.39,23.73ZM24.49,23a1.77,1.77,0,1,1-1.77,1.77A1.78,1.78,0,0,1,24.49,23ZM16,24.52c.25-.82.76-1.26,1.06-1.26h.07a.6.6,0,0,1,.31.46,2.3,2.3,0,0,1-.06,1.21c-.27.89-.84,1.34-1.12,1.25S15.72,25.42,16,24.52Zm2,21H14V36.1h4Zm6.91,0h-4V36.1h4Zm6.91,0h-4V36.1h4Zm6.91,0h-4V36.1h4Z" fill="#fdd600"/><path d="M44.13,42.72H40.84V35.35h1.45a.5.5,0,0,0,.5-.5V31.36a.51.51,0,0,0-.5-.5H40.5a16.67,16.67,0,0,0-.62-4.26l.89-4.31a.49.49,0,0,0-.11-.42.48.48,0,0,0-.39-.19l-2.69,0a16,16,0,0,0-10.06-6.63V10.42H28.6a.5.5,0,0,0,.5-.5.5.5,0,0,0-.5-.5h-.89a3.12,3.12,0,0,0-2.37-2.55,1.21,1.21,0,0,0,.53-1,1.23,1.23,0,0,0-.71-1.11V2.57a.54.54,0,0,0-1.07,0v2.2a1.23,1.23,0,0,0-.71,1.11,1.21,1.21,0,0,0,.53,1,3.12,3.12,0,0,0-2.37,2.55h-.89a.5.5,0,0,0-.5.5.5.5,0,0,0,.5.5h1.08V15a16,16,0,0,0-10,6.31L9,21.24a.51.51,0,0,0-.51.59l.75,4.32a16.63,16.63,0,0,0-.74,4.71H7a.51.51,0,0,0-.5.5v3.49a.5.5,0,0,0,.5.5H8.41v7.37H5.12a.51.51,0,0,0-.5.5v3.49a.5.5,0,0,0,.5.5h39a.5.5,0,0,0,.5-.5V43.22A.51.51,0,0,0,44.13,42.72ZM9.35,35.32h2.91v7.36H9.35Zm3.85,0h2.12v7.37H13.2Zm6,7.33H16.26V35.33h2.91Zm.94-7.33h2.12v7.37H20.11Zm6,7.35H23.17V35.34h2.91ZM27,35.35h2.12v7.37H27Zm6,7.4H30.08V35.4H33Zm.94-7.4h2.12v7.37H33.93Zm6,7.34H37V35.33H39.9ZM23.31,15.84h.14c-5.32,5.11-5.34,12.68-5.23,14.79H13.65C13.49,28.54,13.44,19.73,23.31,15.84Zm2.22.05a14.34,14.34,0,0,1,9.63,14.73H30.63c.11-2,.13-9.69-5.27-14.8h.07Zm-1.12.4c5.34,4.8,5.31,12.51,5.21,14.33H19.22C19.13,28.7,19.15,21.09,24.41,16.29Zm15.25,6.4-.42,2c-.17-.42-.36-.82-.56-1.22s-.28-.53-.43-.79Zm-2.21.68.13.23c.19.33.36.68.52,1l.15.33c.12.29.24.6.34.9s.14.37.2.56a15.73,15.73,0,0,1,.72,4.2H36.15a15.54,15.54,0,0,0-7.24-14.17A15.19,15.19,0,0,1,37.45,23.37ZM24.62,7.78A2.14,2.14,0,0,1,26.7,9.42H22.55A2.13,2.13,0,0,1,24.62,7.78Zm-1.89,2.64h3.79v4.5c-.54-.07-1.1-.11-1.66-.13H24.5a17.18,17.18,0,0,0-1.77.1Zm-3.16,6.22a15.7,15.7,0,0,0-6.92,14H9.48a15.56,15.56,0,0,1,.78-4.39c.05-.16.12-.31.17-.47.12-.31.22-.61.36-.91,0-.11.11-.22.16-.33.17-.37.36-.74.56-1.1s.46-.78.72-1.15A15.08,15.08,0,0,1,19.57,16.64ZM9.93,24.31l-.36-2,1.42.06c-.16.25-.32.51-.46.77S10.11,23.9,9.93,24.31ZM7.46,31.86H41.79v2.49H7.46ZM43.63,46.21h-38V43.72h38Z" fill="#231f20"/><path d="M24.49,22a2.77,2.77,0,1,0,2.78,2.77A2.77,2.77,0,0,0,24.49,22Zm0,4.54a1.77,1.77,0,1,1,1.78-1.77A1.77,1.77,0,0,1,24.49,26.5Z" fill="#231f20"/><path d="M17.39,22.31c-.92-.28-2,.57-2.37,1.93s0,2.63.93,2.91a1.12,1.12,0,0,0,.36.05,2.44,2.44,0,0,0,2-2,3.35,3.35,0,0,0,.07-1.74A1.53,1.53,0,0,0,17.39,22.31Zm0,2.63c-.27.89-.84,1.34-1.12,1.25s-.52-.77-.26-1.67.76-1.26,1.06-1.26h.07a.6.6,0,0,1,.31.46A2.3,2.3,0,0,1,17.36,24.94Z" fill="#231f20"/><path d="M33.78,24.24c-.4-1.36-1.44-2.21-2.37-1.93a1.54,1.54,0,0,0-1,1.17,3.25,3.25,0,0,0,.07,1.74,3.34,3.34,0,0,0,.89,1.5,1.72,1.72,0,0,0,1.12.48,1.49,1.49,0,0,0,.36-.05C33.78,26.87,34.19,25.59,33.78,24.24Zm-1.21,2a.61.61,0,0,1-.51-.21,2.42,2.42,0,0,1-.61-1h0a2.3,2.3,0,0,1-.06-1.21.6.6,0,0,1,.31-.46h.07c.3,0,.81.44,1.06,1.26S32.85,26.11,32.57,26.19Z" fill="#231f20"/></svg>