<svg id="a05f095c-446e-4e2b-b044-c9ed446ba730" data-name="ICONS" xmlns="http://www.w3.org/2000/svg" viewBox="0 0 50 50"><path d="M40.67,12.1H8.83a.5.5,0,0,0-.5.5V33a.5.5,0,0,0,.5.5H40.67a.5.5,0,0,0,.5-.5V12.6A.5.5,0,0,0,40.67,12.1Zm-.5,20.35H9.33V13.1H40.17Z"/><path d="M48.89,36.08H45.33V9a.5.5,0,0,0-.5-.5H4.67a.5.5,0,0,0-.5.5V36.08H.61a.51.51,0,0,0-.5.5v2A2.5,2.5,0,0,0,2.61,41H46.89a2.5,2.5,0,0,0,2.5-2.5v-2A.51.51,0,0,0,48.89,36.08ZM5.17,9.47H44.33V36.08H5.17ZM48.39,38.53a1.5,1.5,0,0,1-1.5,1.5H2.61a1.5,1.5,0,0,1-1.5-1.5V37.08H48.39Z"/></svg>