<svg xmlns="http://www.w3.org/2000/svg" viewBox="0 0 50 50"><g id="e6773024-c5be-4845-a91b-2f9fd0fcf3bb" data-name="ICONS"><path d="M46.49.33a.48.48,0,0,0-.44-.11C21.72,5.67,4.37,17.32,4.8,27.93a19.38,19.38,0,0,0,6,12.17L3,49a.5.5,0,0,0,0,.71.53.53,0,0,0,.33.13.52.52,0,0,0,.38-.17l7.83-8.87a19.79,19.79,0,0,0,12,4.62c.32,0,.63,0,.93,0C35.08,44.43,44.39,25.68,46.66.75A.51.51,0,0,0,46.49.33ZM5.8,27.89C5.39,18,21.78,7,44.94,1.5L27,21.8l-.43-7a.5.5,0,0,0-.53-.47.49.49,0,0,0-.47.53l.49,8L11.5,39.35A18.25,18.25,0,0,1,5.8,27.89ZM24.43,44.35A18.32,18.32,0,0,1,12.24,40l5.93-6.7,11.48-.71a.5.5,0,0,0,.47-.53.51.51,0,0,0-.53-.47l-10.49.65L27,23.36h0l8.78-9.93,3.82-.23a.5.5,0,0,0,.46-.53.48.48,0,0,0-.53-.47l-2.82.17,8.82-10C43,26,34.27,43.5,24.43,44.35Z"/></g><g id="bb7e6b4d-1b36-4b50-9c2b-67a984cb9e91" data-name="LABELS"><text transform="translate(0.39 55.05)" font-size="6" font-family="Roboto-Regular, Roboto">leaf</text></g></svg>