<svg xmlns="http://www.w3.org/2000/svg" viewBox="0 0 50 50"><g id="e2be1128-b2c5-42a6-8665-8e625985c041" data-name="ICONS"><path d="M42.11,43.41h-2.3v-4a.5.5,0,0,0-.5-.5h-3V12.31h2.47a.5.5,0,0,0,.5-.5V7.34a.5.5,0,0,0-.5-.5H29.54v-3a.5.5,0,0,0-.14-.35L26.66.77a.48.48,0,0,0-.7,0,.48.48,0,0,0,0,.7l2.58,2.59V6.84H10.71a.5.5,0,0,0-.5.5v4.47a.5.5,0,0,0,.5.5h2.47V38.93h-3a.5.5,0,0,0-.5.5v4H7.39a.5.5,0,0,0-.5.5v4.47a.5.5,0,0,0,.5.5H42.11a.5.5,0,0,0,.5-.5V43.91A.5.5,0,0,0,42.11,43.41ZM11.21,7.84H38.29v3.47H11.21Zm3,4.47H35.32V38.93H14.18ZM10.69,39.93H38.81v3.48H10.69Zm30.92,8H7.89V44.41H41.61Z"/><path d="M31.87,14.72H17.63a.5.5,0,0,0-.5.5V36a.51.51,0,0,0,.5.5H31.87a.51.51,0,0,0,.5-.5V15.22A.5.5,0,0,0,31.87,14.72Zm-.5,20.81H18.13V15.72H31.37Z"/></g><g id="be11c84f-652f-4491-9e5f-1a59556ee2f3" data-name="LABELS"><text transform="translate(0 54.9)" font-size="6" font-family="Roboto-Regular, Roboto">lectu<tspan x="13.04" y="0" letter-spacing="-0.01em">r</tspan><tspan x="15.02" y="0">e-podium</tspan></text></g></svg>