<svg xmlns="http://www.w3.org/2000/svg" viewBox="0 0 50 50"><g id="f30613b6-e931-460c-9216-e776393abb91" data-name="ICONS"><path d="M40.48,15.24A.49.49,0,0,0,40,15H26.42l8.1-12.73a.49.49,0,0,0,0-.51.48.48,0,0,0-.43-.26H22.21a.5.5,0,0,0-.43.24L9.54,21.27a.49.49,0,0,0,0,.51A.51.51,0,0,0,10,22H23.85L16.44,47.89a.5.5,0,0,0,.26.59.54.54,0,0,0,.22.05.52.52,0,0,0,.41-.21L40.45,15.76A.49.49,0,0,0,40.48,15.24ZM18.21,45.35,25,21.68a.46.46,0,0,0-.08-.44.48.48,0,0,0-.4-.2H10.86L22.48,2.47H33.19L25.09,15.2a.5.5,0,0,0,.42.77H39.07Z"/></g><g id="ed48debb-4ccb-48cd-92d5-e10987fd7410" data-name="LABELS"><text transform="translate(0.39 54.88)" font-size="6" font-family="Roboto-Regular, Roboto">lightning-bolt</text></g></svg>