<svg id="a511ba35-5432-4c8d-8703-8701d59b66f5" data-name="ICONS" xmlns="http://www.w3.org/2000/svg" viewBox="0 0 50 50"><path d="M47.44,4.86A7.67,7.67,0,0,0,42,2.69a9.91,9.91,0,0,0-7,3l-7.09,7.15A10,10,0,0,0,25,19.28a8.13,8.13,0,0,0,.51,3.4l4.21-4.24a4,4,0,0,0,.57-1.56,4.1,4.1,0,0,0-.41-2.35l7.43-6.88a2.87,2.87,0,0,1,1-.93,3,3,0,0,1,1.49-.33,2.9,2.9,0,0,1,1.43.27C42,7,41.83,7.4,42.78,8c.34.23.53.29.62.53s0,.62-.27,1.18c-.6,1.34-.14.52-.62,1.48-.32.63-.76,1.47-1.33,2.47L35.41,19a2.13,2.13,0,0,1-1.13,1.54,1.65,1.65,0,0,1-.86.11l-.44,1a1.43,1.43,0,0,0-.49.17,1.41,1.41,0,0,0-.61.71l3.75-2.62a12.9,12.9,0,0,0-1.1-1.84,12.47,12.47,0,0,0-3.8-3.41l-1.93,3.8c.37.39.7.58.84.49s.13-.1.05-.49c-1.4,1.41-2.8,2.83-4.21,4.24a7.83,7.83,0,0,0,.45,1L23.65,26a7.74,7.74,0,0,0-1-.43A8,8,0,0,0,19.84,25a9.86,9.86,0,0,0-7,3L5.79,35.18a9.89,9.89,0,0,0-2.94,6.43,7.74,7.74,0,0,0,2.21,6,7.71,7.71,0,0,0,6,2.16,9.93,9.93,0,0,0,6.4-3l7.09-7.16A9.46,9.46,0,0,0,27.07,30a8.27,8.27,0,0,0-.43-1L29,26.61A6.21,6.21,0,0,0,30,27h0a8.29,8.29,0,0,0,3.28.44,10,10,0,0,0,6.4-3l7.09-7.16C50.35,13.65,50.67,8.07,47.44,4.86ZM19.88,34.29a1.68,1.68,0,0,1-.36.77,1.25,1.25,0,0,1-.41.28l-6.66,7a6.9,6.9,0,0,1-1.93.77,3.51,3.51,0,0,1-2,.06A3.36,3.36,0,0,1,6.62,41a3.75,3.75,0,0,1,.77-3.3l7.48-7.49a1.34,1.34,0,0,1,.17-.55c.42-.72,1.56-.84,1.65-.66s-.12.32-1.16,1l-.11,1.27a10.27,10.27,0,0,0,2.86,3.05,10.62,10.62,0,0,0,1.24.74l.53-1.48A4.66,4.66,0,0,1,19.88,34.29Z" fill="#fdd600"/><path d="M46.65,2.65C43-.94,36.81-.56,32.79,3.5L25.7,10.65a10.94,10.94,0,0,0-3.23,7.08A9.13,9.13,0,0,0,23.23,22l-1.29,1.3a10.37,10.37,0,0,0-11.28,2.57L3.57,33A11,11,0,0,0,.35,40.06a8.69,8.69,0,0,0,2.51,6.78A8.62,8.62,0,0,0,9,49.31l.64,0a11,11,0,0,0,7-3.29l7.09-7.16a10.38,10.38,0,0,0,2.52-11.16l1.36-1.37a9.08,9.08,0,0,0,3.46.67c.21,0,.43,0,.64,0a10.9,10.9,0,0,0,7.05-3.29l7.09-7.15C50,12.46,50.27,6.24,46.65,2.65ZM23.09,38.14,16,45.3a9.91,9.91,0,0,1-6.4,3,7.71,7.71,0,0,1-6-2.16,7.74,7.74,0,0,1-2.21-6,9.94,9.94,0,0,1,2.94-6.43l7.09-7.15a9.86,9.86,0,0,1,7-3,8,8,0,0,1,2.84.51L17,28.26a4.6,4.6,0,0,0-2.45,1.28L7.33,36.8A4.58,4.58,0,0,0,6,39.74a3.69,3.69,0,0,0,1.07,2.87,3.64,3.64,0,0,0,2.6,1,4.53,4.53,0,0,0,3.2-1.37L20.05,35a4.57,4.57,0,0,0,1.23-2.25l4.29-4.32A9.46,9.46,0,0,1,23.09,38.14Zm-7-4.62a4.64,4.64,0,0,0,2.73,1.34l-6.66,6.71a3.12,3.12,0,0,1-4.38.33A2.72,2.72,0,0,1,7,39.8a3.58,3.58,0,0,1,1-2.29l6.73-6.79v0A4.63,4.63,0,0,0,16.07,33.52Zm2.74.33a3.62,3.62,0,0,1-2-1,3.67,3.67,0,0,1-1-1.95L31.11,15.41a4.46,4.46,0,0,1,3,3ZM31,14.36l6.39-6.44a3.51,3.51,0,0,1,2.28-1.07h.2A2.62,2.62,0,0,1,42.51,9.7a3.53,3.53,0,0,1-1,2.29l-6.31,6.37a5.48,5.48,0,0,0-1.41-2.51,5.58,5.58,0,0,0-2.66-1.49Zm14.25,1.45L38.13,23a10,10,0,0,1-6.4,3,8.29,8.29,0,0,1-3.28-.44l4.29-4.33A4.56,4.56,0,0,0,35,20l7.19-7.26a4.51,4.51,0,0,0,1.34-2.94,3.69,3.69,0,0,0-1.06-2.86,3.66,3.66,0,0,0-2.87-1,4.54,4.54,0,0,0-2.93,1.37l-7.2,7.26a4.59,4.59,0,0,0-1.26,2.46L24,21.18a8.29,8.29,0,0,1-.51-3.4,10,10,0,0,1,2.94-6.43L33.5,4.2a9.91,9.91,0,0,1,7-3,7.67,7.67,0,0,1,5.48,2.17C49.17,6.57,48.85,12.15,45.22,15.81Z" fill="#231f20"/><path d="M19.1,13.64a.49.49,0,0,0,.45.29.5.5,0,0,0,.21,0,.51.51,0,0,0,.25-.66L16.94,6.67a.5.5,0,1,0-.9.42Z" fill="#231f20"/><path d="M15.48,16.55a.51.51,0,0,0,.33.13.5.5,0,0,0,.34-.87l-5.33-4.88a.5.5,0,0,0-.68.74Z" fill="#231f20"/><path d="M6.45,18.15l6.79,2.47a.5.5,0,0,0,.64-.3.49.49,0,0,0-.3-.64L6.79,17.21a.5.5,0,0,0-.64.3A.49.49,0,0,0,6.45,18.15Z" fill="#231f20"/><path d="M31,35.62a.5.5,0,0,0-.9.45l3.19,6.48a.5.5,0,0,0,.45.28.59.59,0,0,0,.22,0,.5.5,0,0,0,.23-.67Z" fill="#231f20"/><path d="M34.6,32.65a.51.51,0,0,0-.71,0,.51.51,0,0,0,0,.71l5.43,4.77a.51.51,0,0,0,.71-.05.51.51,0,0,0,0-.71Z" fill="#231f20"/><path d="M43.6,30.86l-6.85-2.33a.5.5,0,0,0-.32.95l6.84,2.33.16,0a.5.5,0,0,0,.48-.34A.5.5,0,0,0,43.6,30.86Z" fill="#231f20"/></svg>