<svg xmlns="http://www.w3.org/2000/svg" viewBox="0 0 50 50"><g id="a250ab1d-1b8a-498f-adb4-bef76a148b23" data-name="ICONS"><path d="M40.69,8.56C34.91,5.85,28,7,26.85,7.17a6.81,6.81,0,0,0-2-.63C20,5.79,5.49,7,2,17.64-.65,25.76,3.55,35.45,6.46,39.9c.86,1.31,2.07,2.9,3,3h.05c2.26,0,16.76-12.22,17.81-13.27a7.79,7.79,0,0,0,2.55-6.7,5.59,5.59,0,0,0,5.58-.36l.74-.41c12-6.7,12-7.32,12-7.82C48.11,13,43.64,9.94,40.69,8.56Zm-5,12.72-.75.42c-3.38,1.95-5.5-.25-5.58-.35h0a.53.53,0,0,0-.14-.12.5.5,0,0,0-.62.15.48.48,0,0,0,0,.6c.11.25,1.4,3.54-2,6.92-2,2-15.52,12.92-17,13-.27,0-1.37-1-2.88-3.61C3.57,33.06.77,24.61,3,18,5.75,9.45,16.13,7.35,22,7.35a17.63,17.63,0,0,1,2.66.18,6,6,0,0,1,4.8,4.55.5.5,0,0,0,.6.38.49.49,0,0,0,.38-.59A7.88,7.88,0,0,0,28.09,8c2.34-.29,7.7-.63,12.17,1.46,3.42,1.6,6.51,4.09,6.83,4.81C46.7,14.73,44.6,16.27,35.65,21.28Z"/></g><g id="a1c559ba-0504-4d55-859a-ee6d96633839" data-name="LABELS"><text transform="translate(0.66 55.03)" font-size="6" font-family="Roboto-Regular, Roboto">li<tspan x="2.91" y="0" letter-spacing="-0.01em">v</tspan><tspan x="5.78" y="0">er</tspan></text></g></svg>