<svg xmlns="http://www.w3.org/2000/svg" viewBox="0 0 50 50"><g id="b653aceb-4e9b-42d1-89ba-68b685d4cbf3" data-name="ICONS"><path d="M34.2,5.91,3.61,27.25,17.69,47.44,48.28,26.1l1.4-16Zm9.83,7a2.06,2.06,0,0,1-.86,1.34h0a2.08,2.08,0,0,1-2.91-.51,2.1,2.1,0,0,1,.52-2.91,2.09,2.09,0,0,1,2.9.52A2.06,2.06,0,0,1,44,12.89Z" fill="#fdd600"/><path d="M48.6,7.51,32.48,3.13a.47.47,0,0,0-.41.08L.87,25a.51.51,0,0,0-.12.7l14.65,21a.51.51,0,0,0,.7.12L47.29,25a.52.52,0,0,0,.22-.37L49,8A.5.5,0,0,0,48.6,7.51ZM46.53,24.35,15.94,45.69,1.86,25.5,32.45,4.16,47.93,8.37Z" fill="#231f20"/><path d="M41.43,15.56a3.41,3.41,0,0,0,.55,0,3.09,3.09,0,0,0,3-2.55,3,3,0,0,0-.51-2.3A3.08,3.08,0,0,0,40.21,10a3.1,3.1,0,0,0-.77,4.3A3.07,3.07,0,0,0,41.43,15.56Zm-1.51-3.4a2.09,2.09,0,0,1,4.11.73,2.06,2.06,0,0,1-.86,1.34h0a2.08,2.08,0,0,1-2.91-.51A2.06,2.06,0,0,1,39.92,12.16Z" fill="#231f20"/><polygon points="10.54 32.11 8.18 28.73 7.34 29.32 10.17 33.37 12.78 31.55 12.31 30.88 10.54 32.11" fill="#231f20"/><path d="M15,27.11l-.12-.18a3.1,3.1,0,0,0-1-.9,2,2,0,0,0-1.1-.27,2.1,2.1,0,0,0-1.07.38A2.13,2.13,0,0,0,11,27a2,2,0,0,0-.12,1.12,3,3,0,0,0,.52,1.2l.14.2a2.89,2.89,0,0,0,.94.88,2,2,0,0,0,1.09.27,2.06,2.06,0,0,0,1.07-.39,2,2,0,0,0,.73-.87,1.93,1.93,0,0,0,.12-1.12A2.86,2.86,0,0,0,15,27.11Zm-.81,2.51a.87.87,0,0,1-.89.11,2.12,2.12,0,0,1-.9-.8l-.14-.2a2,2,0,0,1-.43-1.12.92.92,0,0,1,.42-.78.93.93,0,0,1,.88-.12,2.2,2.2,0,0,1,.9.81l.14.2a2.05,2.05,0,0,1,.44,1.12A.92.92,0,0,1,14.2,29.62Z" fill="#231f20"/><path d="M18,27c-.54.38-1,.34-1.27-.11l-.84.59a1.5,1.5,0,0,0,.68.55,1.76,1.76,0,0,0,.92.06,2.68,2.68,0,0,0,1-.43,2.18,2.18,0,0,0,.86-1,1.18,1.18,0,0,0-.18-1.1,1.28,1.28,0,0,0-.88-.57,3.16,3.16,0,0,0-1.4.19,2.4,2.4,0,0,1-.76.16.46.46,0,0,1-.43-.19.5.5,0,0,1-.07-.46.94.94,0,0,1,.38-.46.88.88,0,0,1,.6-.19.68.68,0,0,1,.48.31l.84-.58a1.43,1.43,0,0,0-.65-.52,1.53,1.53,0,0,0-.83-.08,2.25,2.25,0,0,0-.89.39,2.54,2.54,0,0,0-.67.68,1.41,1.41,0,0,0-.25.78,1.17,1.17,0,0,0,.22.71,1.37,1.37,0,0,0,1.39.52,4.39,4.39,0,0,0,.88-.2,2.53,2.53,0,0,1,.79-.15.54.54,0,0,1,.42.24.51.51,0,0,1,.07.46A1,1,0,0,1,18,27Z" fill="#231f20"/><polygon points="19.01 22.18 21.36 25.56 22.2 24.98 19.84 21.6 21.09 20.74 20.61 20.06 17.32 22.36 17.79 23.04 19.01 22.18" fill="#231f20"/><path d="M25.63,22.58l-.3-1,1.46-1,.86.64.89-.62-4.34-3-.77.54,1.31,5.1ZM26.09,20l-1,.71-.55-1.87Z" fill="#231f20"/><polygon points="29.71 19.73 27.86 17.07 31.34 18.6 32.17 18.02 29.35 13.97 28.52 14.55 30.38 17.22 26.89 15.69 26.05 16.27 28.88 20.32 29.71 19.73" fill="#231f20"/><path d="M31.28,12.62,30,13.49l2.82,4,1.26-.88a2.27,2.27,0,0,0,.78-.91,2,2,0,0,0,.18-1.13,2.61,2.61,0,0,0-.47-1.17l-.13-.19a2.59,2.59,0,0,0-.94-.84,2,2,0,0,0-1.13-.23A2.35,2.35,0,0,0,31.28,12.62Zm1.45.47a1.83,1.83,0,0,1,.9.76l.15.21a1.76,1.76,0,0,1,.38,1.1,1.13,1.13,0,0,1-.53.85l-.4.28-1.89-2.71.42-.28A1.11,1.11,0,0,1,32.73,13.09Z" fill="#231f20"/><polygon points="19.54 33.05 17.93 34.17 17.2 33.12 19.01 31.86 18.54 31.19 15.9 33.03 18.72 37.08 19.56 36.5 18.4 34.84 20 33.72 19.54 33.05" fill="#231f20"/><path d="M23.78,30.68l-.12-.18a3,3,0,0,0-.95-.9,1.93,1.93,0,0,0-1.1-.28,2.2,2.2,0,0,0-1.8,1.26,1.92,1.92,0,0,0-.12,1.12,3,3,0,0,0,.52,1.2l.14.2a2.79,2.79,0,0,0,.94.88,2,2,0,0,0,1.09.27,2,2,0,0,0,1.07-.39,2,2,0,0,0,.73-.87,1.93,1.93,0,0,0,.12-1.12A2.89,2.89,0,0,0,23.78,30.68ZM23,33.18a.87.87,0,0,1-.89.11,2.05,2.05,0,0,1-.9-.8l-.14-.2a2.05,2.05,0,0,1-.44-1.11A.89.89,0,0,1,21,30.4a.93.93,0,0,1,.89-.13,2.2,2.2,0,0,1,.9.81l.14.2a2.05,2.05,0,0,1,.44,1.12A.92.92,0,0,1,23,33.18Z" fill="#231f20"/><path d="M25.94,26l-.84.58L27,29.31a.78.78,0,0,1-.2,1.23.88.88,0,0,1-.65.19.94.94,0,0,1-.6-.45l-1.86-2.67-.84.58,1.89,2.7a1.62,1.62,0,0,0,1.14.73,2,2,0,0,0,1.39-.41A1.94,1.94,0,0,0,28.12,30a1.7,1.7,0,0,0-.32-1.34Z" fill="#231f20"/><polygon points="29.04 23.86 30.91 26.53 27.42 25 26.58 25.58 29.41 29.63 30.24 29.04 28.38 26.38 31.87 27.91 32.7 27.33 29.88 23.28 29.04 23.86" fill="#231f20"/><path d="M34.07,21.73a2.08,2.08,0,0,0-1.14-.23,2.36,2.36,0,0,0-1.12.43l-1.25.87,2.83,4.05L34.64,26a2.22,2.22,0,0,0,.79-.91,2,2,0,0,0,.18-1.13,2.61,2.61,0,0,0-.47-1.17L35,22.57A2.67,2.67,0,0,0,34.07,21.73Zm.09,3.59-.4.28-1.89-2.71.41-.28a1.11,1.11,0,0,1,1-.21,1.85,1.85,0,0,1,.91.76l.15.21a1.74,1.74,0,0,1,.37,1.1A1.09,1.09,0,0,1,34.16,25.32Z" fill="#231f20"/></g><g id="e1088acd-fd28-48bd-9eeb-60ff47e16348" data-name="LABELS"><text transform="translate(-0.06 54.88)" font-size="6" fill="#231f20" font-family="Roboto-Regular, Roboto">lost-found</text></g></svg>