<svg xmlns="http://www.w3.org/2000/svg" viewBox="0 0 50 50"><g id="f2a25b23-6cf4-4781-906c-2f85ed6b3dd1" data-name="ICONS"><path d="M47.46,9.69H1.79a.5.5,0,0,0-.5.5V39.06a.5.5,0,0,0,.5.5H47.46a.5.5,0,0,0,.5-.5V10.19A.5.5,0,0,0,47.46,9.69ZM47,38.56H2.29V10.69H47Z"/><path d="M37.1,22.58h6.8a.5.5,0,0,0,.5-.5V13.42a.5.5,0,0,0-.5-.5H37.1a.5.5,0,0,0-.5.5v8.66A.5.5,0,0,0,37.1,22.58Zm.5-8.66h5.8v7.66H37.6Z"/><path d="M12.81,21.4H30.68a.5.5,0,0,0,0-1H12.81a.5.5,0,0,0,0,1Z"/><path d="M12.81,25.65H30.68a.5.5,0,0,0,.5-.5.5.5,0,0,0-.5-.5H12.81a.5.5,0,0,0-.5.5A.51.51,0,0,0,12.81,25.65Z"/><path d="M12.81,29.9H30.68a.5.5,0,0,0,.5-.5.5.5,0,0,0-.5-.5H12.81a.5.5,0,0,0-.5.5A.51.51,0,0,0,12.81,29.9Z"/></g><g id="fed1f5ec-5287-442a-8115-6f4212ca3175" data-name="LABELS"><text transform="translate(-0.28 54.91)" font-size="6" font-family="Roboto-Regular, Roboto">mail-f<tspan x="15.17" y="0" letter-spacing="-0.01em">r</tspan><tspan x="17.14" y="0">ont</tspan></text></g></svg>