<svg xmlns="http://www.w3.org/2000/svg" viewBox="0 0 50 50"><g id="bb3b5306-38b6-4ad7-915c-72143e07dd34" data-name="ICONS"><path d="M13.4,29.54l-10-8.92v9.45l10,9.15L49.1,32.71V22.92Z" fill="#fdd600"/><path d="M48.59,31.68s0,0,0-.06V20.82a.29.29,0,0,0,0-.09.15.15,0,0,0,0-.07.46.46,0,0,0-.13-.2h0L38,10.91a.5.5,0,0,0-.43-.12L1.31,17.5h0a.56.56,0,0,0-.19.09l0,0a.57.57,0,0,0-.13.21s0,0,0,0v0a.3.3,0,0,0,0,.1v10.8h0a.53.53,0,0,0,0,.12.17.17,0,0,0,0,.07l.05.07a.31.31,0,0,0,.07.09h0L11.48,38.7l.09,0,.06,0a.58.58,0,0,0,.19,0h.09l36.28-6.71h.05l.1,0,.07-.05a.46.46,0,0,0,.07-.07.35.35,0,0,0,.05-.08.25.25,0,0,0,0-.09S48.58,31.71,48.59,31.68ZM1.9,22.87l9.42,8.62v2.13L1.9,25Zm10.42,8.67L47.6,25v2.63L12.32,34.17ZM47.6,24,12.32,30.53V27.94L47.6,21.42ZM12,27,2.48,18.3l35.05-6.48L47,20.51Zm-.65.75v2.4L1.9,21.52v-2.4ZM1.9,26.35,11.32,35v2.22L1.9,28.57Zm10.42,8.84L47.6,28.67v2.54L12.32,37.73Z" fill="#231f20"/><path d="M34.13,13.4,21.24,15.78h0L8.34,18.16a.5.5,0,0,0-.38.36.47.47,0,0,0,.14.5c.25.23.37.46.32.62s-.35.43-1,.55a.5.5,0,0,0-.39.35.49.49,0,0,0,.14.51l3.47,3.18a.5.5,0,0,0,.43.12,5.13,5.13,0,0,1,3.88.94.51.51,0,0,0,.34.13h.09l25.87-4.78a.5.5,0,0,0,.25-.86c-.25-.23-.37-.45-.32-.61s.32-.41.94-.54a.5.5,0,0,0,.24-.86l-3.48-3.18a.48.48,0,0,0-.43-.12,5.19,5.19,0,0,1-3.88-.94A.46.46,0,0,0,34.13,13.4Zm4.24,2.08,2.68,2.45a1.63,1.63,0,0,0-.85,1,1.32,1.32,0,0,0,.08.89l-9,1.66a2.28,2.28,0,0,0,.36-.69A2.72,2.72,0,0,0,30.58,18,10,10,0,0,0,26,15.91l8.07-1.49A6.31,6.31,0,0,0,38.37,15.48ZM11.13,23.33,8.47,20.9a1.63,1.63,0,0,0,.91-1A1.3,1.3,0,0,0,9.31,19l8.89-1.64a2.25,2.25,0,0,0-.35.69,2.72,2.72,0,0,0,1.07,2.74,9.84,9.84,0,0,0,4.57,2.1l-8.07,1.49a6.18,6.18,0,0,0-3.58-1.1A5.52,5.52,0,0,0,11.13,23.33Zm10.29-6.57a10.38,10.38,0,0,1,1.79-.15,10.65,10.65,0,0,1,6.7,2.15,1.82,1.82,0,0,1,.78,1.72c-.21.72-1.18,1.3-2.61,1.56-2.9.54-6.7-.36-8.49-2a1.83,1.83,0,0,1-.78-1.73C19,17.61,20,17,21.42,16.76Z" fill="#231f20"/><path d="M15.39,20.82a1.47,1.47,0,0,0-1.17-.29.76.76,0,0,0-.64.51.67.67,0,0,0,.22.69,1.43,1.43,0,0,0,.93.32A1,1,0,0,0,15,22a.76.76,0,0,0,.64-.51A.68.68,0,0,0,15.39,20.82Z" fill="#231f20"/><path d="M34.11,18a1.41,1.41,0,0,0,.92.32l.25,0a.77.77,0,0,0,.64-.51.68.68,0,0,0-.22-.7,1.48,1.48,0,0,0-1.17-.3.75.75,0,0,0-.64.52A.67.67,0,0,0,34.11,18Z" fill="#231f20"/><path d="M27.45,19.59a1.89,1.89,0,0,0-.65-.38,3.76,3.76,0,0,0-.86-.2,10.8,10.8,0,0,0-1.22,0,4.43,4.43,0,0,1-1,0,1,1,0,0,1-.44-.18l-.06,0a1,1,0,0,1,.45-.15,2.22,2.22,0,0,1,.85,0,1.21,1.21,0,0,1,.6.29.23.23,0,0,0,.21.06l.65-.12a.25.25,0,0,0,.19-.18.23.23,0,0,0-.07-.25,2.31,2.31,0,0,0-.76-.44,3.62,3.62,0,0,0-1-.2,4,4,0,0,0-.69,0,.15.15,0,0,0-.05-.07l-.36-.33a.49.49,0,0,0-.71.68.91.91,0,0,0-.38.3.66.66,0,0,0,.16,1,2.15,2.15,0,0,0,1,.47,7.48,7.48,0,0,0,1.62.12,6.29,6.29,0,0,1,1.1.05.85.85,0,0,1,.47.2l.05.05a1.21,1.21,0,0,1-.49.16,2.48,2.48,0,0,1-.94,0,1.15,1.15,0,0,1-.63-.27.25.25,0,0,0-.22-.06l-.64.12a.24.24,0,0,0-.2.17.27.27,0,0,0,.07.26,2.25,2.25,0,0,0,.8.44,4.25,4.25,0,0,0,1.06.19h.28l.3,0,0,.05.36.33a.51.51,0,0,0,.33.13.48.48,0,0,0,.37-.17.49.49,0,0,0,.07-.57,1.31,1.31,0,0,0,.53-.34C27.72,20.42,27.94,20,27.45,19.59Z" fill="#231f20"/></g><g id="abc395c2-7f7e-4ab1-b7b1-9b4c961d59d2" data-name="LABELS"><text transform="translate(0.47 55.09)" font-size="6" fill="#231f20" font-family="Roboto-Regular, Roboto">mon<tspan x="11.99" y="0" letter-spacing="-0.01em">e</tspan><tspan x="15.13" y="0">y-stack</tspan></text></g></svg>