<svg xmlns="http://www.w3.org/2000/svg" viewBox="0 0 50 50"><g id="e0537f57-a63a-494a-9077-e64152e11c22" data-name="ICONS"><path d="M14.07,16A23.22,23.22,0,0,1,16,6.67,22.61,22.61,0,1,0,46.67,37.83a23.29,23.29,0,0,1-9,1.79A23.65,23.65,0,0,1,14.07,16Z" fill="#fdd600"/><path d="M33.3,24.75a.47.47,0,0,1-.37.27l-2.14.32,1.54,1.51a.49.49,0,0,1,.15.44l-.37,2.13,1.92-1a.53.53,0,0,1,.46,0l1.92,1L36,27.29a.49.49,0,0,1,.15-.44l1.54-1.51L35.59,25a.47.47,0,0,1-.37-.27l-1-1.94Z" fill="#fdd600"/><path d="M26.37,10l-.49,2.84,2.56-1.34a.47.47,0,0,1,.46,0l2.56,1.34L31,10a.48.48,0,0,1,.14-.44l2.07-2-2.86-.41A.49.49,0,0,1,30,6.82L28.67,4.23,27.39,6.82a.49.49,0,0,1-.37.27l-2.86.41,2.07,2A.48.48,0,0,1,26.37,10Z" fill="#fdd600"/><path d="M45.59,14.1l-.82-1.67L44,14.1a.53.53,0,0,1-.38.27l-1.84.27,1.33,1.29a.53.53,0,0,1,.15.45l-.32,1.82,1.65-.86a.47.47,0,0,1,.46,0l1.64.86-.31-1.82a.53.53,0,0,1,.14-.45l1.33-1.29L46,14.37A.49.49,0,0,1,45.59,14.1Z" fill="#fdd600"/><path d="M46.11,34.8a22.3,22.3,0,0,1-9.92,2.32A22.65,22.65,0,0,1,13.57,14.5,22.35,22.35,0,0,1,16,4.26.5.5,0,0,0,16,3.68a.51.51,0,0,0-.58-.1,23.61,23.61,0,1,0,31.4,31.9.5.5,0,0,0-.09-.58A.52.52,0,0,0,46.11,34.8ZM25.74,47.4A22.6,22.6,0,0,1,14.51,5.17a23.22,23.22,0,0,0-1.94,9.33A23.65,23.65,0,0,0,36.19,38.12a23.29,23.29,0,0,0,9-1.79A22.52,22.52,0,0,1,25.74,47.4Z" fill="#231f20"/><path d="M23.84,8.55l-.61,3.58a.49.49,0,0,0,.2.49.45.45,0,0,0,.29.1.46.46,0,0,0,.23-.06L27.17,11l3.22,1.69a.49.49,0,0,0,.52,0,.47.47,0,0,0,.2-.49L30.5,8.55,33.1,6a.49.49,0,0,0,.13-.51.51.51,0,0,0-.41-.34l-3.59-.52L27.62,1.38a.5.5,0,0,0-.45-.28.51.51,0,0,0-.45.28L25.11,4.64l-3.59.52a.51.51,0,0,0-.41.34.51.51,0,0,0,.13.51Zm1.68-3a.49.49,0,0,0,.37-.27l1.28-2.59,1.28,2.59a.49.49,0,0,0,.37.27L31.68,6,29.61,8a.48.48,0,0,0-.14.44L30,11.3,27.4,10a.47.47,0,0,0-.46,0L24.39,11.3l.48-2.84A.48.48,0,0,0,24.73,8L22.66,6Z" fill="#231f20"/><path d="M32.31,20,31,22.57,28.14,23a.49.49,0,0,0-.4.34.5.5,0,0,0,.12.51l2.09,2-.49,2.87a.49.49,0,0,0,.19.49.51.51,0,0,0,.53,0l2.58-1.36,2.58,1.36a.46.46,0,0,0,.23,0,.53.53,0,0,0,.3-.09.49.49,0,0,0,.19-.49l-.49-2.87,2.09-2a.51.51,0,0,0,.13-.51.51.51,0,0,0-.41-.34l-2.88-.42L33.21,20A.52.52,0,0,0,32.31,20Zm1.78,3.56,2.15.32-1.55,1.51a.49.49,0,0,0-.15.44l.37,2.13-1.92-1a.53.53,0,0,0-.46,0l-1.92,1L31,25.79a.49.49,0,0,0-.15-.44l-1.54-1.51,2.14-.32a.47.47,0,0,0,.37-.27l1-1.94,1,1.94A.47.47,0,0,0,34.09,23.52Z" fill="#231f20"/><path d="M47.85,12.63a.5.5,0,0,0-.4-.34l-2.58-.37L43.72,9.58a.52.52,0,0,0-.9,0l-1.15,2.34-2.58.37a.49.49,0,0,0-.4.34.53.53,0,0,0,.12.52L40.68,15l-.44,2.56a.49.49,0,0,0,.2.49.45.45,0,0,0,.29.1.46.46,0,0,0,.23-.06l2.31-1.21,2.31,1.21a.47.47,0,0,0,.52,0,.49.49,0,0,0,.2-.49L45.86,15l1.87-1.82A.53.53,0,0,0,47.85,12.63ZM45,14.43a.53.53,0,0,0-.14.45l.31,1.82-1.64-.86a.47.47,0,0,0-.46,0l-1.65.86.32-1.82a.5.5,0,0,0-.15-.45l-1.33-1.29,1.84-.27a.51.51,0,0,0,.38-.27l.82-1.67.82,1.67a.49.49,0,0,0,.38.27l1.83.27Z" fill="#231f20"/></g><g id="edfacbaf-d849-4ff9-a440-2adff4861a66" data-name="LABELS"><text transform="translate(0 54.98)" font-size="6" fill="#231f20" font-family="Roboto-Regular, Roboto">moon-stars</text></g></svg>