<svg xmlns="http://www.w3.org/2000/svg" viewBox="0 0 50 50"><g id="ae18beec-487e-45ee-9418-d9eb229cfa1a" data-name="ICONS"><path d="M47.29,14.59a6.75,6.75,0,1,0-11.88-4.54L25.65,21.48H24c-7.17,0-13.55,0-17.65,0l-4.73,0h0a.47.47,0,0,0-.35.15.51.51,0,0,0-.15.35A19.91,19.91,0,0,0,12.26,40.19v5.86a.5.5,0,0,0,.5.5H35.61a.51.51,0,0,0,.5-.5V40A20,20,0,0,0,46.87,21.86a.5.5,0,0,0-.51-.5c-.06,0-3.11,0-7.86.07l4.11-4.5A6.65,6.65,0,0,0,47.29,14.59Zm-34,31V40.2H35.11v5.35ZM35.41,39.2H12.71a.35.35,0,0,0-.11,0A18.89,18.89,0,0,1,2.1,22.42l4.23,0h0c4.09,0,10.48,0,17.65,0,10.66,0,19.68-.09,21.88-.12A19,19,0,0,1,35.41,39.2ZM42,16.1l-4.88,5.34L27,21.48l9.33-10.92a.45.45,0,0,0,.12-.33,5.75,5.75,0,1,1,10.12,3.71,5.6,5.6,0,0,1-4.16,2A.53.53,0,0,0,42,16.1Z"/></g><g id="b63f4a6b-8cf0-4b3e-b824-941ec93befcd" data-name="LABELS"><text transform="translate(0 54.84)" font-size="6" font-family="Roboto-Regular, Roboto">mo<tspan x="8.68" y="0" letter-spacing="0.02em">r</tspan><tspan x="10.86" y="0">tar-pestel</tspan></text></g></svg>