<svg id="aea7deec-d6a7-4441-9ab2-72968ec73e8d" data-name="ICONS" xmlns="http://www.w3.org/2000/svg" viewBox="0 0 50 50"><path d="M47.27,42.12a.5.5,0,0,0-.53.47,6.22,6.22,0,0,1-5.32,5.93A5.84,5.84,0,0,1,37,47a6.62,6.62,0,0,1-2.19-4.81V12.63A11.54,11.54,0,0,0,31.57,3.7,10.26,10.26,0,0,0,23.72.47c-5.25.28-9.62,5-10,10.56A12,12,0,0,0,2.26,23V35.51a12,12,0,0,0,23.94,0V23A12,12,0,0,0,14.76,11c.33-5.07,4.28-9.31,9-9.56A9.35,9.35,0,0,1,30.86,4.4a10.57,10.57,0,0,1,3,8.2V42.19a7.6,7.6,0,0,0,2.53,5.56,6.88,6.88,0,0,0,4.55,1.79c.21,0,.41,0,.62,0a7.21,7.21,0,0,0,6.21-6.86A.5.5,0,0,0,47.27,42.12ZM13.73,12V22.48H3.28A11,11,0,0,1,13.73,12Zm.5,34.45a11,11,0,0,1-11-11v-12H25.2v12A11,11,0,0,1,14.23,46.48Zm11-24H14.73V12A11,11,0,0,1,25.18,22.48Z"/></svg>