<svg xmlns="http://www.w3.org/2000/svg" viewBox="0 0 50 50"><g id="b141c2d4-7d8d-4184-aa41-a38a32417665" data-name="ICONS"><path d="M33.94,44,30,31.07a4,4,0,0,0-1.49-1.79,3.89,3.89,0,0,0-2.11-.62H20.6l-.89-4.58h4.85a3.13,3.13,0,0,0,0-6.25h-4.7l-3.34-4.47,0,0a3.63,3.63,0,0,0-3.23-1.75,3.55,3.55,0,0,0-2.34,1.3,3.49,3.49,0,0,0-.74,2.56l2,17.08a3.48,3.48,0,0,0,3,3l.37,0a1.27,1.27,0,0,0,.28,0h8.34L27.27,46a3.5,3.5,0,0,0,3.33,2.47,3.6,3.6,0,0,0,1-.15,3.46,3.46,0,0,0,2.06-1.69A3.52,3.52,0,0,0,33.94,44Zm-1.15,2.19a2.48,2.48,0,0,1-3.35,1,2.43,2.43,0,0,1-1.21-1.47L25,35a.48.48,0,0,0-.47-.35H15.77l-.14,0h-.15l-.25,0a2.47,2.47,0,0,1-2.09-2.16l-2-17.08a2.46,2.46,0,0,1,.52-1.83,2.52,2.52,0,0,1,1.64-.92,2.66,2.66,0,0,1,2.35,1.35l.06.08,3.46,4.62a.48.48,0,0,0,.4.2h4.95a2.13,2.13,0,0,1,0,4.25H19.13a.47.47,0,0,0-.4.18.53.53,0,0,0-.12.42l1.09,5.59a.49.49,0,0,0,.49.4H26.4a2.9,2.9,0,0,1,1.57.46,2.93,2.93,0,0,1,1.09,1.29L33,44.27A2.45,2.45,0,0,1,32.79,46.16Z"/><path d="M45.79,25.22H43.38V22.5a.5.5,0,0,0-.5-.5h-2.3V12.82a.48.48,0,0,0-.27-.44l-3.43-1.79.43-5.37a.48.48,0,0,0-.12-.36.46.46,0,0,0-.34-.18l-3.22-.25a.5.5,0,0,0-.54.46L32,19a.52.52,0,0,0,.12.37.51.51,0,0,0,.34.17l3.22.25h0a.5.5,0,0,0,.5-.46l.61-7.7,2.78,1.45V22H31.44a.5.5,0,0,0-.5.5v2.72H23.31a.5.5,0,0,0-.5.5.5.5,0,0,0,.5.5H45.79a.5.5,0,0,0,.5-.5A.51.51,0,0,0,45.79,25.22ZM35.23,18.79,33,18.61l1-13.15,2.22.18Zm-3.29,6.43V23H42.38v2.22Z"/><path d="M13.79,10.67A4.36,4.36,0,1,0,9.44,6.31,4.36,4.36,0,0,0,13.79,10.67Zm0-7.72a3.36,3.36,0,1,1-3.35,3.36A3.37,3.37,0,0,1,13.79,3Z"/><path d="M21.85,38l-8-.13a3.79,3.79,0,0,1-2.63-1,3.73,3.73,0,0,1-1.09-2L8,15.33a.51.51,0,0,0-.55-.45.5.5,0,0,0-.45.55L9.11,35.06a4.8,4.8,0,0,0,1.39,2.53,4.91,4.91,0,0,0,3.32,1.28l1.71,0v9.34H11.25a.5.5,0,0,0-.5.5.5.5,0,0,0,.5.5h9.57a.51.51,0,0,0,.5-.5.5.5,0,0,0-.5-.5H16.53V38.91l5.31.09h0a.5.5,0,0,0,.5-.5A.49.49,0,0,0,21.85,38Z"/></g><g id="a46d6e25-a1e7-48a1-83b3-065eb152bc4b" data-name="LABELS"><text transform="translate(-0.1 54.83)" font-size="6" font-family="Roboto-Regular, Roboto">office-workplace</text></g></svg>