<svg xmlns="http://www.w3.org/2000/svg" viewBox="0 0 50 50"><g id="bff9b362-77e0-4808-ba9b-64e0d2ace143" data-name="ICONS"><path d="M24.62,44.93a.55.55,0,0,0,.36.15h0a.48.48,0,0,0,.36-.16l7.5-7.81a5.78,5.78,0,0,0-8-8.33A6.23,6.23,0,0,0,21,27.23a5.62,5.62,0,0,0-4.22,1.7c-2.37,2.37-2.23,6,.33,8.52Zm-7.1-15.3a4.63,4.63,0,0,1,3.3-1.4H21a5.2,5.2,0,0,1,3.47,1.59.52.52,0,0,0,.36.14.5.5,0,0,0,.35-.14,4.79,4.79,0,1,1,7,6.59L25,43.86l-7.12-7.12C15.69,34.59,15.55,31.6,17.52,29.63Z"/><path d="M8,3.15H42V16.7h1v-14a.5.5,0,0,0-.5-.5h-35a.51.51,0,0,0-.5.5V16.7H8Z"/><path d="M21.43,37.1H23v1.54a.5.5,0,0,0,.5.5h2.75a.5.5,0,0,0,.5-.5V37.1h1.55a.5.5,0,0,0,.5-.5V33.84a.5.5,0,0,0-.5-.5H26.73V31.79a.5.5,0,0,0-.5-.5H23.48a.5.5,0,0,0-.5.5v1.55H21.43a.51.51,0,0,0-.5.5V36.6A.51.51,0,0,0,21.43,37.1Zm.5-2.76h1.55a.5.5,0,0,0,.5-.5V32.29h1.75v1.55a.5.5,0,0,0,.5.5h1.55V36.1H26.23a.5.5,0,0,0-.5.5v1.54H24V36.6a.5.5,0,0,0-.5-.5H21.93Z"/><path d="M43.37,16.7H41.2V14.38A4.22,4.22,0,0,0,37,10.17H13.17A4.22,4.22,0,0,0,9,14.38V16.7H6.63a.5.5,0,0,0-.5.5V24a.5.5,0,0,0,.5.5h2L9.84,43.69c.16,1.56.43,4.16,3.1,4.16h24c2.68,0,3-2.36,3.28-4.11l1.35-19.2h1.83a.5.5,0,0,0,.5-.5V17.2A.5.5,0,0,0,43.37,16.7Zm-.5,6.84H7.13V17.7H42.87ZM10,14.38a3.21,3.21,0,0,1,3.21-3.21H37a3.21,3.21,0,0,1,3.21,3.21V16.7H10ZM39.19,43.63c-.32,2.23-.73,3.22-2.28,3.22h-24c-1.49,0-1.88-1.1-2.1-3.24L9.61,24.54H40.54Z"/></g><g id="ae36c731-529a-4997-9f32-dc7fe1a309d9" data-name="LABELS"><text transform="translate(-0.05 55.09)" font-size="6" font-family="Roboto-Regular, Roboto">o<tspan x="3.42" y="0" letter-spacing="-0.01em">r</tspan><tspan x="5.4" y="0">gan-t</tspan><tspan x="18.95" y="0" letter-spacing="-0.02em">r</tspan><tspan x="20.87" y="0">ansplant-cooler</tspan></text></g></svg>