<svg xmlns="http://www.w3.org/2000/svg" viewBox="0 0 50 50"><g id="b0e06d12-1264-41ed-b209-7e752e81e933" data-name="ICONS"><rect x="17.85" y="30.5" width="15.3" height="2.34" fill="#fdd600"/><polygon points="15.73 40.29 15.73 38.7 8.63 38.7 8.85 40.29 15.73 40.29" fill="#fdd600"/><polygon points="42.52 38.7 35.42 38.7 35.42 40.29 42.3 40.29 42.52 38.7" fill="#fdd600"/><polygon points="35.56 14.4 47.89 14.4 28.13 3.91 35.56 14.4" fill="#fdd600"/><polygon points="24.87 3.07 5.11 13.56 17.44 13.56 24.87 3.07" fill="#fdd600"/><path d="M48.63,13,25.23.54h-.06l-.07,0h-.19l-.1,0h0L1.37,13a.5.5,0,0,0,.24.94H24.5V29H14.68a.5.5,0,0,0-.5.5.51.51,0,0,0,.5.5h1.67v2.84a.5.5,0,0,0,.5.5H24.5V47.68H20.73a.5.5,0,0,0-.5.5.49.49,0,0,0,.13.33H15.94l-1.08-7.72h.77a.51.51,0,0,0,.5-.5V37.7a.51.51,0,0,0-.5-.5H7.88L6.1,24.54a.49.49,0,0,0-.56-.43.51.51,0,0,0-.43.56l1.83,13s0,.07,0,.11l.38,2.53v0h0s0,0,0,0a.5.5,0,0,0,0,.13l0,0a.36.36,0,0,0,.07.1l.09,0,.06,0a.57.57,0,0,0,.18,0h.38L7.12,48.51H3.53a.5.5,0,0,0,0,1H46.47a.5.5,0,0,0,0-1H42.88l-1.07-7.72h.38a.47.47,0,0,0,.17,0l.06,0,.09-.06s0-.05.06-.07a.18.18,0,0,0,0-.07.36.36,0,0,0,0-.09s0,0,0-.08h0v0l.38-2.55s0-.08,0-.11l1.82-13a.5.5,0,0,0-.42-.56.51.51,0,0,0-.57.43L42.12,37.2H34.37a.5.5,0,0,0-.5.5v2.59a.5.5,0,0,0,.5.5h.77l-1.08,7.72H29.64a.49.49,0,0,0,.13-.33.5.5,0,0,0-.5-.5H25.5V33.34h7.65a.5.5,0,0,0,.5-.5V30h1.67a.51.51,0,0,0,.5-.5.5.5,0,0,0-.5-.5H25.5V13.9H48.39a.5.5,0,0,0,.24-.94ZM15.13,38.2v1.59H8.25L8,38.2ZM9.2,40.79h4.65l1.08,7.72H8.13ZM34.87,38.2H42l-.23,1.59H34.87Zm1.28,2.59H40.8l1.07,7.72h-6.8Zm-3.5-8.45H17.35V30h15.3ZM17.16,12.9,25,1.85,32.84,12.9ZM23.37,2.41,15.94,12.9H3.61ZM34.06,12.9,26.63,2.41,46.39,12.9Z" fill="#231f20"/></g><g id="e84bb48e-0f26-42c3-be84-222137c01b4e" data-name="LABELS"><text transform="translate(-0.22 55.07)" font-size="6" fill="#231f20" font-family="Roboto-Regular, Roboto">outdoor-table</text></g></svg>