<svg xmlns="http://www.w3.org/2000/svg" viewBox="0 0 50 50"><g id="e1c1b0ca-38fe-4698-bcfd-f8acf7c501c3" data-name="ICONS"><path d="M48.87,3.08C48.29,2.5,47,2.34,41.74,6.3A131.41,131.41,0,0,0,29.27,17.43c-.14.15-11.72,11.77-14.17,17.2a5.79,5.79,0,0,0-4.69-.47c-1.53.57-2.19,1.74-3.11,3.35C7,38.14,6.54,38.86,6,39.66a27.88,27.88,0,0,1-5.45,6.1.51.51,0,0,0-.15.54.51.51,0,0,0,.45.34c.85,0,1.69.07,2.5.07,7.91,0,13.64-2.14,14.56-5.57a6.07,6.07,0,0,0-.6-4.26,27.38,27.38,0,0,0,4.72-3.06A130.44,130.44,0,0,0,34.52,22.68,129.24,129.24,0,0,0,45.66,10.21C49.62,5,49.46,3.66,48.87,3.08ZM24.33,24.24l3.38,3.38.1.07c-1,.92-2,1.78-2.91,2.55l-3.17-3.16,0,0c.77-.91,1.63-1.89,2.56-2.92A.53.53,0,0,0,24.33,24.24ZM17,40.87c-.84,3.11-6.84,5.05-14.8,4.82A28.16,28.16,0,0,0,6.86,40.2c.54-.82.95-1.55,1.31-2.19.87-1.54,1.4-2.47,2.58-2.91a4.91,4.91,0,0,1,4.94,1.21A5.11,5.11,0,0,1,17,40.87Zm-.19-4.81a5.45,5.45,0,0,0-.38-.46,5.34,5.34,0,0,0-.5-.43,41,41,0,0,1,5.17-7.34l3.05,3.05A40.66,40.66,0,0,1,16.78,36.06ZM33.81,22c-1.89,1.89-3.66,3.57-5.3,5.07a.55.55,0,0,0-.09-.14L25,23.53a.42.42,0,0,0-.14-.09Q27.15,21,30,18.14c10-10,16.62-14.39,18-14.39a.4.4,0,0,1,.17,0C48.65,4.67,44.28,11.51,33.81,22Z"/></g><g id="ab2fd726-21ba-4e5e-beee-d4414af50840" data-name="LABELS"><text transform="translate(-0.1 54.84)" font-size="6" font-family="Roboto-Regular, Roboto">paint brush</text></g></svg>