<svg xmlns="http://www.w3.org/2000/svg" viewBox="0 0 50 50"><g id="ee234b9a-7f98-47dd-aaa1-f1d2d736902c" data-name="ICONS"><path d="M28.78,16.61a1.85,1.85,0,0,0-.84-.59,6.72,6.72,0,0,0,1.24-.35l2.45-.56L32,13.48a.48.48,0,0,1,.25-.32.51.51,0,0,1,.4,0l2.92,1,2.67-.76.19-1.07a.5.5,0,0,1,.73-.35l1.53.81,3.52-.87a15.21,15.21,0,0,0-8-2.13,15.52,15.52,0,0,0-9.48,3.53,15.06,15.06,0,0,0-4.29-6.5,15.23,15.23,0,0,0-7.43-3.56l2.11,3,1.69.38a.52.52,0,0,1,.35.29.51.51,0,0,1,0,.45l-.54.93,1.06,1.49,1.89.49a.54.54,0,0,1,.34.29.49.49,0,0,1,0,.44l-.58,1,.34.47a8.63,8.63,0,0,1,1,.38,8.75,8.75,0,0,1,1.3.77h0a1.88,1.88,0,0,0-.3.64A24.66,24.66,0,0,0,16,12.46a18.24,18.24,0,0,0-2.15.16A12.63,12.63,0,0,0,12,13a15.39,15.39,0,0,0-7,4.3l3.62-.17,1.24-1.21a.55.55,0,0,1,.44-.14.52.52,0,0,1,.36.27l.49,1,2.77,0,2.51-1.81a.45.45,0,0,1,.39-.09.51.51,0,0,1,.33.24L18,16.79h4.26a2.11,2.11,0,0,0-.31.7l-1,.13a15.21,15.21,0,0,0-6.57,4.86,15.46,15.46,0,0,0-3,7.66l2.8-2.3.27-1.72a.5.5,0,0,1,.26-.37.51.51,0,0,1,.45,0l1,.48,1.41-1.16.36-1.92a.5.5,0,0,1,.27-.35.52.52,0,0,1,.44,0l1.08.51,1.46-1.2.38-1.53a.51.51,0,0,1,.61-.36l1,.25.87-.8a1.81,1.81,0,0,0,1.56-1.51,1.86,1.86,0,0,0,1.83,1.5,1.8,1.8,0,0,0,1.07-.34l1.53,1,1-.32a.5.5,0,0,1,.63.33L32,21.78l1.54,1.11,1-.59a.5.5,0,0,1,.73.32l.49,1.89,1.48,1.06.93-.54a.51.51,0,0,1,.45,0,.47.47,0,0,1,.29.35L39.38,27l2.94,2.11a15.33,15.33,0,0,0-3.56-7.43A16,16,0,0,0,28.78,16.61ZM23.84,16h0s.07-.14.12-.26a1.61,1.61,0,0,0,.33.36A2.3,2.3,0,0,0,23.84,16Zm1.65,1.45Z" fill="#fdd600"/><path d="M44.28,10.2a16.77,16.77,0,0,0-9.53-2.92,16.25,16.25,0,0,0-9,3,15.85,15.85,0,0,0-4.08-5.68,16.65,16.65,0,0,0-9.13-4A.48.48,0,0,0,12,.84a.48.48,0,0,0,0,.54L15,5.44a.49.49,0,0,0,.3.19l1.21.28-.36.62a.5.5,0,0,0,0,.54L17.51,9a.43.43,0,0,0,.28.19l1.43.38-.42.75a.52.52,0,0,0-.05.24,16.12,16.12,0,0,0-8.52,0,16.63,16.63,0,0,0-8.3,5.51.48.48,0,0,0-.06.54.5.5,0,0,0,.45.27h0l5-.23a.47.47,0,0,0,.32-.14l.89-.87.32.64a.46.46,0,0,0,.46.28l3.24,0a.56.56,0,0,0,.29-.1L15,14.82l.72,1.24a.46.46,0,0,0,.46.25l.58,0a15.56,15.56,0,0,0-4.72,4.08,16.61,16.61,0,0,0-3.35,9.38.5.5,0,0,0,.27.47.46.46,0,0,0,.23.05.51.51,0,0,0,.31-.11L13.39,27a.48.48,0,0,0,.17-.31l.2-1.23.64.32a.48.48,0,0,0,.54-.06l1.8-1.48a.52.52,0,0,0,.18-.3l.27-1.46.79.37a.49.49,0,0,0,.53-.07l1.83-1.5a.52.52,0,0,0,.17-.27l.3-1.2.77.19a.51.51,0,0,0,.44-.1l2-1.65a41.5,41.5,0,0,1,4.1,13.35,42.69,42.69,0,0,1-1.3,17.23.5.5,0,0,0,.34.62l.14,0a.5.5,0,0,0,.48-.36,43.82,43.82,0,0,0,1.34-17.64,43,43,0,0,0-3.79-12.83,2.05,2.05,0,0,0,1.2,0l1.53,1.1a.52.52,0,0,0,.44.07l.75-.24.38,1.18a.47.47,0,0,0,.19.25l1.93,1.38a.49.49,0,0,0,.53,0L33,22l.37,1.44a.47.47,0,0,0,.2.28l1.9,1.36a.48.48,0,0,0,.54,0l.62-.37L36.94,26a.5.5,0,0,0,.2.29l4.06,2.91a.5.5,0,0,0,.29.09.57.57,0,0,0,.25-.06.49.49,0,0,0,.24-.49,16.62,16.62,0,0,0-4-9.14,16.26,16.26,0,0,0-8-4.89l.63-.15a.48.48,0,0,0,.37-.37l.34-1.39,2.54.89a.44.44,0,0,0,.3,0l3.12-.88a.51.51,0,0,0,.36-.39l.12-.71,1.1.58a.5.5,0,0,0,.36,0l4.84-1.19a.51.51,0,0,0,.17-.9Zm-5.07,1.08-1.53-.81a.5.5,0,0,0-.73.35l-.19,1.07-2.67.76-2.92-1a.51.51,0,0,0-.4,0,.45.45,0,0,0-.25.32l-.39,1.63-2.45.56c-.62-.08-1.16-.13-1.56-.15a2.22,2.22,0,0,0,.2-.93,2.32,2.32,0,0,0-.63-1.59,15.49,15.49,0,0,1,9.08-3.22,15.3,15.3,0,0,1,8,2.13ZM37.88,25.54l-.39-1.69a.47.47,0,0,0-.29-.35.51.51,0,0,0-.45,0l-.93.54L34.34,23l-.49-1.89a.5.5,0,0,0-.73-.32l-1,.59-1.54-1.11-.48-1.49a.5.5,0,0,0-.63-.33l-1,.32-.92-.66a2.33,2.33,0,0,0,.81-1.76A2.31,2.31,0,0,0,28,15.23a15.66,15.66,0,0,1,9.25,5,15.4,15.4,0,0,1,3.56,7.43ZM20.57,18.7a.51.51,0,0,0-.61.36l-.38,1.53-1.46,1.2L17,21.28a.52.52,0,0,0-.44,0,.5.5,0,0,0-.27.35L16,23.56l-1.41,1.16-1-.48a.51.51,0,0,0-.45,0,.5.5,0,0,0-.26.37l-.27,1.72-2.8,2.3a15.46,15.46,0,0,1,3-7.66,15.21,15.21,0,0,1,6.57-4.86l.4,0a2.31,2.31,0,0,0,1.78,2.83l0,0Zm-5.28-5.1a.48.48,0,0,0-.4.09l-2.5,1.81-2.77,0-.49-1a.52.52,0,0,0-.36-.27.55.55,0,0,0-.44.14L7.09,15.64l-3.62.17a15.39,15.39,0,0,1,7-4.3,14.64,14.64,0,0,1,4-.55,16.57,16.57,0,0,1,7.18,1.71,2.85,2.85,0,0,0,0,.42,2.36,2.36,0,0,0,.34,1.2,2.31,2.31,0,0,0-1.58.76l-3.91.24-.84-1.45A.51.51,0,0,0,15.29,13.6Zm4.54-3.1.58-1a.49.49,0,0,0,0-.44.54.54,0,0,0-.34-.29l-1.89-.49L17.15,6.75l.54-.93a.51.51,0,0,0,0-.45.52.52,0,0,0-.35-.29L15.68,4.7,13.56,1.75A15.57,15.57,0,0,1,21,5.31a15,15,0,0,1,3.92,5.53l-.09.06a2.49,2.49,0,0,0-.87-.17,2.36,2.36,0,0,0-1.92,1A19,19,0,0,0,20.16,11Zm2.28,4.77a1.35,1.35,0,1,1-1.35,1.35A1.35,1.35,0,0,1,22.11,15.27ZM24,11.73a1.36,1.36,0,1,1-1.35,1.36A1.36,1.36,0,0,1,24,11.73Zm.65,4.63A1.36,1.36,0,1,1,26,17.72,1.36,1.36,0,0,1,24.61,16.36Z" fill="#231f20"/></g><g id="bd35d05f-e536-4a0a-8e41-cddbc14fa2b6" data-name="LABELS"><text transform="translate(0 55)" font-size="6" fill="#231f20" font-family="Roboto-Regular, Roboto">palm-t<tspan x="16.96" y="0" letter-spacing="-0.01em">r</tspan><tspan x="18.93" y="0">ee</tspan></text></g></svg>