<svg xmlns="http://www.w3.org/2000/svg" viewBox="0 0 50 50"><g id="a8c269ed-4b72-419b-a1ba-fb865c7f3db6" data-name="ICONS"><path d="M49.27,9.39c-.35-.16-2.1.81-3.51,1.59C41.82,13.17,35.17,16.84,27,16.74c-1.39-.06-2.32-.12-3.19-.18-1.39-.1-2.59-.18-5.11-.21h-.54a11,11,0,0,0,.54,22,10.82,10.82,0,0,0,8-3.51l0,0,0,0a1.7,1.7,0,0,1,.19-.19l.29-.31a6.14,6.14,0,0,1,3.17-1.71c.05,0,3.37-.5,7.89-6.93,1.62-2.3,3.4-4.44,5.11-6.51,3.17-3.83,5.9-7.13,5.89-9.46A.62.62,0,0,0,49.27,9.39Z" fill="#fdd600"/><path d="M48,6.78c-.82-.48-2.13.25-4.51,1.58C39.67,10.5,33.21,14.05,25.28,14c-1.35-.06-2.28-.12-3.15-.18-1.24-.08-2.34-.16-4.36-.2a1.47,1.47,0,0,0,.17-.69,1.72,1.72,0,0,0-1.72-1.72,14.75,14.75,0,1,0,8.25,27,4.32,4.32,0,0,0,1,3.71,5.26,5.26,0,0,0,3.93,1.45,7.78,7.78,0,0,0,1.41-.12,1.73,1.73,0,0,0,1.38-2,1.76,1.76,0,0,0-.72-1.11,1.73,1.73,0,0,0-1.29-.27A3.12,3.12,0,0,1,28,39.58c-.15-.16-.22-.64,0-1.51.75-2.75,1.17-4.77-.4-5.61l-.19-.09a4.71,4.71,0,0,1,1.39-.52c.15,0,3.75-.48,8.58-7.34,1.6-2.28,3.36-4.4,5.06-6.45,3.29-4,6.13-7.41,6.12-10.1A1.26,1.26,0,0,0,48,6.78Zm-21,31a2.56,2.56,0,0,0,.2,2.46c.75.81,2.53.69,3.1.59a.72.72,0,1,1,.27,1.41c-.23,0-3,.53-4.43-1-.81-.87-1-2.15-.54-3.8l.08-.3a.5.5,0,0,0-.21-.55.53.53,0,0,0-.27-.08.54.54,0,0,0-.32.11A13.77,13.77,0,1,1,16.22,12.2a.72.72,0,0,1,.72.72.81.81,0,0,1-.84.69.58.58,0,0,0-.19,0,12,12,0,0,0,1.05,24,11.8,11.8,0,0,0,8.77-3.84l0,0h0v0l0,0,.1-.11a1,1,0,0,1,1.22-.25C27.88,33.74,27.86,34.83,27.05,37.8ZM41.68,17.42c-1.71,2.07-3.49,4.21-5.11,6.51-4.52,6.43-7.84,6.92-7.89,6.93a6.14,6.14,0,0,0-3.17,1.71l-.29.31a1.7,1.7,0,0,0-.19.19,0,0,0,0,0,0,0l0,0a10.82,10.82,0,0,1-8,3.51,11,11,0,0,1-.54-22H17c2.52,0,3.72.11,5.11.21.87.06,1.8.12,3.19.18,8.16.1,14.81-3.57,18.75-5.76,1.41-.78,3.16-1.75,3.51-1.59a.62.62,0,0,1,0,.32C47.58,10.29,44.85,13.59,41.68,17.42Z" fill="#231f20"/><path d="M38.82,14.61A45.77,45.77,0,0,1,28.3,21.5L30,18.71a.5.5,0,1,0-.86-.52l-2.25,3.74a.35.35,0,0,0-.06.17,15,15,0,0,1-4.93,1A24.33,24.33,0,0,0,8,28.06a.5.5,0,0,0,.32.89.56.56,0,0,0,.32-.11A24,24,0,0,1,16.15,25l4.39,1.4.15,0a.5.5,0,0,0,.15-1L18,24.56a19.88,19.88,0,0,1,3.94-.45c7.93-.08,17.2-8.4,17.59-8.76a.49.49,0,0,0,0-.7A.5.5,0,0,0,38.82,14.61Z" fill="#231f20"/></g><g id="a9f0aab4-e9da-491a-81d4-c7803dd9d3ca" data-name="LABELS"><text transform="translate(0.8 54.92)" font-size="6" fill="#231f20" font-family="Roboto-Regular, Roboto">panc<tspan x="13.08" y="0" letter-spacing="-0.01em">r</tspan><tspan x="15.06" y="0">eas</tspan></text></g></svg>