<svg id="f5d4a546-c05d-4379-a0d5-1b31d3c173d0" data-name="ICONS" xmlns="http://www.w3.org/2000/svg" viewBox="0 0 50 50"><path d="M48,30.8V42a6.5,6.5,0,0,1-13,.5H4a.5.5,0,0,1-.5-.5V30.8a.5.5,0,0,1,.5-.5h9.19V17.1a1,1,0,0,1,1-1h1.55V11.49a10,10,0,0,1,20,0V16.1H37.3a1,1,0,0,1,1,1V30.3h9.19a.5.5,0,0,1,.5.5m-1,7.75V31.3H4.47V41.5H35a6.49,6.49,0,0,1,12-3M47,42a4.19,4.19,0,0,0,0-.5,5.5,5.5,0,0,0-11,0c0,.17,0,.33,0,.5s0,.34,0,.5a5.5,5.5,0,0,0,11,0,4.07,4.07,0,0,0,0-.5M37.3,30.3V17.1H14.16V30.3H37.3ZM34.75,16.21V11.49a9,9,0,0,0-18,0v4.72h1.58v-4.4a7.44,7.44,0,0,1,14.88,0v4.4Zm-2.58-.11V11.81a6.44,6.44,0,0,0-12.88,0V16.1Z"/><path d="M44.25,38.74a.5.5,0,0,1,.17.68L43.21,41.5l-.59,1-1.51,2.59a.52.52,0,0,1-.39.25h0a.51.51,0,0,1-.39-.19l-1.7-2.07a.51.51,0,0,1,0-.58.41.41,0,0,1,.11-.12.49.49,0,0,1,.7.07l.05,0L40.61,44l.85-1.46.59-1,1.51-2.58a.51.51,0,0,1,.69-.18"/><polygon points="34.78 35.05 35.16 36.23 33.09 36.81 34.45 38.53 33.42 39.26 32.24 37.37 31.08 39.19 30.05 38.49 31.45 36.73 29.42 36.16 29.8 34.99 31.81 35.8 31.68 33.54 32.95 33.54 32.82 35.84 34.78 35.05"/><path d="M25.73,19.37a3.53,3.53,0,0,1,2.06,6.39v2.51a1,1,0,0,1-1,1H24.67a1,1,0,0,1-1-1V25.76a3.53,3.53,0,0,1,2.06-6.39m2.53,3.53a2.53,2.53,0,1,0-3.77,2.2.35.35,0,0,1,.18.3v2.87h2.12V25.4a.35.35,0,0,1,.18-.3,2.52,2.52,0,0,0,1.29-2.2"/><polygon points="26.99 35.05 27.37 36.23 25.3 36.81 26.66 38.53 25.63 39.26 24.45 37.37 23.29 39.19 22.26 38.49 23.66 36.73 21.63 36.16 22.01 34.99 24.02 35.8 23.89 33.54 25.16 33.54 25.03 35.84 26.99 35.05"/><polygon points="19.2 35.05 19.58 36.23 17.52 36.81 18.87 38.53 17.85 39.26 16.67 37.37 15.5 39.19 14.48 38.49 15.87 36.73 13.84 36.16 14.22 34.99 16.24 35.8 16.11 33.54 17.37 33.54 17.24 35.84 19.2 35.05"/><polygon points="11.42 35.05 11.8 36.23 9.73 36.81 11.09 38.53 10.06 39.26 8.88 37.37 7.72 39.19 6.69 38.49 8.09 36.73 6.06 36.16 6.44 34.99 8.45 35.8 8.32 33.54 9.59 33.54 9.46 35.84 11.42 35.05"/></svg>