<svg xmlns="http://www.w3.org/2000/svg" viewBox="0 0 50 50"><g id="a1a690b7-d7bc-4ce6-ac69-f9a25acd6d77" data-name="ICONS"><polygon points="5.25 27.85 6.15 29.06 6.51 28.81 7.41 30.07 7.07 30.31 9.11 33.08 15.07 41.13 15.22 41.02 16.12 42.29 15.99 42.38 18.03 45.15 19.4 47 48.28 7.01 5.25 27.85" fill="#fdd600"/><path d="M48.67,3.47A.54.54,0,0,0,48,3.33L2.43,25.4a.54.54,0,0,0-.3.36.57.57,0,0,0,.09.46l2.14,2.89-2.9,2.06a.51.51,0,0,0-.21.32.48.48,0,0,0,.09.37l1.47,2.08a.51.51,0,0,0,.41.21.52.52,0,0,0,.29-.09l3-2.1,6.81,9.22-3.11,2.2a.5.5,0,0,0-.2.33.45.45,0,0,0,.08.37l1.48,2.08a.46.46,0,0,0,.32.2h.08a.48.48,0,0,0,.29-.09L15.39,44l1.82,2.48a.55.55,0,0,0,.89,0L48.7,4.14A.54.54,0,0,0,48.67,3.47ZM3.34,33l-.9-1.26,4.07-2.88.9,1.26Zm8.71,12.22-.89-1.26L15.22,41l.9,1.27Zm5.6.08L16.28,43.4l.82-.59a.47.47,0,0,0,.21-.32.48.48,0,0,0-.09-.37L15.75,40a.5.5,0,0,0-.7-.12l-.88.62L7.36,31.33l1-.73a.56.56,0,0,0,.21-.33.49.49,0,0,0-.09-.37L7,27.82a.5.5,0,0,0-.33-.2.49.49,0,0,0-.37.08l-1.09.77L3.5,26.1l43-20.84Z" fill="#231f20"/></g><g id="b6fc877a-52e6-4332-87d2-a939af549173" data-name="LABELS"><text transform="translate(0 54.9)" font-size="6" fill="#231f20" font-family="Roboto-Regular, Roboto">pennant</text></g></svg>