<svg id="adaf7de0-0b9b-442d-8520-32b7b42704f0" data-name="ICONS" xmlns="http://www.w3.org/2000/svg" viewBox="0 0 50 50"><polygon points="25.22 48.98 25.22 27.86 21.39 27.86 21.39 48.98 22.34 48.98 24.26 48.98 25.22 48.98" fill="#fdd600"/><path d="M20,5.15a1.14,1.14,0,0,0-.43-.09,1.08,1.08,0,0,0-.62.19,1.09,1.09,0,0,0-.49.92V17.53a1.11,1.11,0,0,0,1.54,1l.6-.25V5.4Z" fill="#fdd600"/><path d="M33.65,10.83,25.3,7.35,22.51,6.19V17.5l2.79-1.15,8.35-3.48a1.1,1.1,0,0,0,0-2Z" fill="#fdd600"/><path d="M32.3,8.12,23.55,4.48V1.54A.53.53,0,0,0,23,1h-3a.53.53,0,0,0-.52.52V2.82l-.92-.38a2.12,2.12,0,0,0-2,.19,2.15,2.15,0,0,0-1,1.79V15.78a2.15,2.15,0,0,0,1,1.79,2.21,2.21,0,0,0,1.19.36,2.11,2.11,0,0,0,.82-.17l.92-.38v7.69h-.43a.52.52,0,0,0-.52.52V47.75a.52.52,0,0,0,.52.52H24a.52.52,0,0,0,.52-.52V25.59a.52.52,0,0,0-.52-.52h-.43V15.72l8.75-3.64a2.14,2.14,0,0,0,0-4ZM20.59,47.23h-.95V26.11h3.83V47.23H20.59Zm0-22.16v-23h1.92v23Zm-3.4-8.37a1.09,1.09,0,0,1-.49-.92V4.42a1.09,1.09,0,0,1,.49-.92,1.08,1.08,0,0,1,.62-.19,1.14,1.14,0,0,1,.43.09l1.31.54V16.25l-1.31.55A1.09,1.09,0,0,1,17.19,16.7ZM23.55,5.6,31.9,9.08a1.1,1.1,0,0,1,0,2L23.55,14.6Z" fill="#231f20"/></svg>