<svg xmlns="http://www.w3.org/2000/svg" viewBox="0 0 50 50"><g id="bc8c1614-7a72-4a52-876a-38623034df5c" data-name="ICONS"><path d="M24.65,1.4A23.25,23.25,0,1,0,47.9,24.65,23.28,23.28,0,0,0,24.65,1.4Zm0,45.45a22.2,22.2,0,1,1,22.2-22.2A22.23,22.23,0,0,1,24.65,46.85Z"/><path d="M28.57,11l4.54,2.13a.5.5,0,0,0,.21,0,.5.5,0,0,0,.21-.95L29,10.11a.51.51,0,0,0-.67.24A.5.5,0,0,0,28.57,11Z"/><path d="M11.59,31.64a.5.5,0,0,0-.71.71l4.17,4.21a.49.49,0,0,0,.35.15.51.51,0,0,0,.36-.15.5.5,0,0,0,0-.7Z"/><path d="M24.77,38.41l-6.62-1.49a.51.51,0,0,0-.6.38.5.5,0,0,0,.38.6l6.62,1.48h.11a.5.5,0,0,0,.11-1Z"/><path d="M36.57,19.59a.49.49,0,0,0,.45.3.54.54,0,0,0,.21-.05.5.5,0,0,0,.25-.66L35.6,15a.5.5,0,0,0-.92.41Z"/><path d="M15.82,25a3.07,3.07,0,0,0,3.06-3.07,3.15,3.15,0,0,0-.34-1.41,3.07,3.07,0,0,0,1.12-2.36,3,3,0,0,0-.5-1.67,3.06,3.06,0,1,0-4.61-.62,3.1,3.1,0,0,0-1,2.29,3.19,3.19,0,0,0,.34,1.42,3.06,3.06,0,0,0,2,5.42Zm-1-4.85a.51.51,0,0,0,.24-.33.48.48,0,0,0-.09-.4,2.16,2.16,0,0,1-.42-1.26,2.06,2.06,0,0,1,1-1.77.5.5,0,0,0,.24-.36.49.49,0,0,0-.14-.41A2.07,2.07,0,1,1,18.2,16a.5.5,0,0,0-.24.36.51.51,0,0,0,.13.41A2.06,2.06,0,0,1,17.62,20a.5.5,0,0,0-.24.33.48.48,0,0,0,.09.4,2.1,2.1,0,0,1,.41,1.25,2.06,2.06,0,1,1-3.08-1.78Z"/><path d="M35.35,32.71a3.06,3.06,0,0,0-2.62-3.13,3.09,3.09,0,0,0-1-2.28,3.07,3.07,0,1,0-2.47,5.34,3.09,3.09,0,0,0,1,2.28,3.17,3.17,0,0,0,1.3.67,3.06,3.06,0,0,0,3.05,3.16h.2a3.05,3.05,0,0,0,2.11-1,3.11,3.11,0,0,0,.75-2.22,3.06,3.06,0,0,0-1-2.11A3.15,3.15,0,0,0,35.35,32.71Zm.81,4.34a2,2,0,0,1-1.41.69,2,2,0,0,1-2.15-2.46.48.48,0,0,0-.09-.4.53.53,0,0,0-.36-.2,2.19,2.19,0,0,1-1.23-.51,2.08,2.08,0,0,1-.67-1.91.49.49,0,0,0-.12-.42.48.48,0,0,0-.37-.17h0a2.07,2.07,0,0,1-1.62-3.43,2.06,2.06,0,0,1,1.41-.7A2.07,2.07,0,0,1,31.7,30a.49.49,0,0,0,.51.58,2,2,0,0,1,1.44.51,2.05,2.05,0,0,1,.66,2,.52.52,0,0,0,.09.4.52.52,0,0,0,.36.19,2.1,2.1,0,0,1,1.21.52,2.06,2.06,0,0,1,.19,2.91Z"/></g><g id="f8a92578-d3a8-438b-876f-b50840104004" data-name="LABELS"><text transform="translate(0.18 54.97)" font-size="6" font-family="Roboto-Regular, Roboto">petri-dish</text></g></svg>