<svg xmlns="http://www.w3.org/2000/svg" viewBox="0 0 50 50"><g id="aefce9ec-9669-44ff-a00a-e9f38e1035bd" data-name="ICONS"><path d="M24.12,14.31a7,7,0,0,0-4.51,1.76A6.3,6.3,0,0,0,18,20.17v.21c0,1.32,0,3.76-.07,8.56a2.16,2.16,0,0,0,.56,1.7,1.9,1.9,0,0,0,1.42.63,2,2,0,0,0,1.88-2v-.12a.51.51,0,0,1,.07-.24v-8a.5.5,0,0,1,.5-.5.5.5,0,0,1,.5.5v8.24a.48.48,0,0,1-.07.23V47.17A2.32,2.32,0,0,0,25,49.42h0a2.31,2.31,0,0,0,2.29-2.16v0s0-.06,0-.1l1,0s0,0,0,0,0,0,0,0a.76.76,0,0,0,0,.15,2.21,2.21,0,0,0,4.42-.14V20.51a.51.51,0,0,1,.4-.49.5.5,0,0,1,.56.3L37,28.13a2,2,0,1,0,3.7-1.55c-1.87-4.35-3.13-7.29-3.53-8.42a5.11,5.11,0,0,0-1-1.72h0s-.3-.31-.65-.62a7,7,0,0,0-4.7-1.51C30.53,14.29,24.4,14.31,24.12,14.31Z" fill="#fdd600"/><path d="M40.94,26.67H39.88a3,3,0,0,0,0-2.24c-1.8-4.2-3.11-7.26-3.52-8.39a6,6,0,0,0-1.16-2s-.33-.35-.73-.7a7.82,7.82,0,0,0-5.36-1.75H22.36a7.91,7.91,0,0,0-5.24,2.07,7.25,7.25,0,0,0-1.93,4.75v.24c0,1.27,0,3.61-.06,8.05H9.63a4.62,4.62,0,0,0-4.76,4.46V47.72a.5.5,0,0,0,1,0V31.13a3.63,3.63,0,0,1,3.76-3.46h5.5a3.07,3.07,0,0,0,.82,1.9,2.89,2.89,0,0,0,2.18.94A2.83,2.83,0,0,0,20,29.73V45.42a3.31,3.31,0,0,0,3.24,3.24h.05A3.27,3.27,0,0,0,26,47.14,3.22,3.22,0,0,0,32,45.45V27.67h2.92a3,3,0,0,0,4.35,0h1.68a3.34,3.34,0,0,1,3.19,3.46V47.72a.5.5,0,0,0,1,0V31.13A4.34,4.34,0,0,0,40.94,26.67Zm-5.71-.29L32,18.57a.52.52,0,0,0-.56-.3.49.49,0,0,0-.4.49v7.91H21.05V19.13a.5.5,0,0,0-.5-.5.5.5,0,0,0-.5.5v7.54H16.13c.05-4.45.06-6.78.06-8v-.21a6.26,6.26,0,0,1,1.66-4.09,7,7,0,0,1,4.52-1.76h6.71a7,7,0,0,1,4.7,1.5c.35.31.65.62.65.62a5.12,5.12,0,0,1,1,1.72c.41,1.14,1.66,4.08,3.53,8.42a2,2,0,0,1,0,1.54,2,2,0,0,1-3.71,0ZM28.77,47.66a2.21,2.21,0,0,1-2.21-2.08s0-.09,0-.13a0,0,0,0,0,0,0,.13.13,0,0,0,0-.06V31.24a.5.5,0,0,0-.5-.5.5.5,0,0,0-.5.5V45.35s0,.08,0,.1v0A2.29,2.29,0,0,1,21,45.41V27.67H31V45.45A2.22,2.22,0,0,1,28.77,47.66ZM16.68,28.89a2.14,2.14,0,0,1-.55-1.22H20a2,2,0,0,1-1.86,1.84A1.93,1.93,0,0,1,16.68,28.89ZM32,26.67V21.24l2.28,5.43Z" fill="#231f20"/><path d="M25.72,11a5.2,5.2,0,1,0-5.2-5.2A5.2,5.2,0,0,0,25.72,11Zm4.2-5.2a4.2,4.2,0,1,1-4.2-4.2A4.2,4.2,0,0,1,29.92,5.78Z" fill="#231f20"/></g><g id="aa78d8bf-cc99-428d-b58c-e9b1c7b04fb1" data-name="LABELS"><text transform="translate(0 54.91)" font-size="6" fill="#231f20" font-family="Roboto-Regular, Roboto">physical-the<tspan x="32.02" y="0" letter-spacing="-0.02em">r</tspan><tspan x="33.93" y="0">aphy</tspan></text></g></svg>