<svg xmlns="http://www.w3.org/2000/svg" viewBox="0 0 50 50"><g id="fb50e7d0-70c0-4cfd-82c5-dc5cacb18f22" data-name="ICONS"><path d="M25.67,11A3.18,3.18,0,1,0,22.49,7.8,3.18,3.18,0,0,0,25.67,11Z" fill="none"/><path d="M49.33,26.43c-1.21.14-2.15.2-2.89.22a1.83,1.83,0,0,0,0-1,2,2,0,0,0-1.74-1.55h0a2,2,0,0,0-1.51.91,1.79,1.79,0,0,0-.34,1.53c.14.41.5.81,1.64,1a2.44,2.44,0,0,1-.3.21l-.19.1a3.42,3.42,0,0,1-1.86.32,4.63,4.63,0,0,1-.83-.15C40.92,20.52,32.88,14.49,23,14.49a23.43,23.43,0,0,0-5.23.59,7.89,7.89,0,0,0-4.47-2.59.52.52,0,0,0-.54.26A8.13,8.13,0,0,0,12,17.36a14.46,14.46,0,0,0-4.13,3.37,14.64,14.64,0,0,0-2.45,4.11L2.43,25h0C1.09,25.07.12,26.8.12,29.1s1,4.1,2.34,4.1l.15,0,3.18.27A14.77,14.77,0,0,0,8,36.74a15,15,0,0,0,3.61,3v5.68a.5.5,0,0,0,.5.5h5.17a.5.5,0,0,0,.5-.5v-3.2a23.31,23.31,0,0,0,10.51,0v3.2a.5.5,0,0,0,.5.5H34a.5.5,0,0,0,.5-.5V39.69c4.25-2.61,6.74-6.45,6.9-10.61a5.91,5.91,0,0,0,1.2.14,4.1,4.1,0,0,0,2.18-.59,5.68,5.68,0,0,0,1.12-1,30.57,30.57,0,0,0,3.59-.24.5.5,0,0,0,.44-.55A.51.51,0,0,0,49.33,26.43ZM2.46,32.2c-.64,0-1.34-1.33-1.34-3.1S1.82,26,2.46,26,3.8,27.32,3.8,29.1,3.09,32.2,2.46,32.2Zm32,6.3v-.44a.5.5,0,0,0-1,0v6.82H29.28V42s0,0,0,0V40.63a.5.5,0,0,0-.5-.5.5.5,0,0,0-.5.5v.51a22.23,22.23,0,0,1-10.51,0v-.51a.5.5,0,0,0-1,0v4.25H12.6V38.06a.5.5,0,0,0-.5-.5.5.5,0,0,0-.5.5v.45a13.62,13.62,0,0,1-5-5.75.5.5,0,0,0-.41-.28L4,32.29A5.65,5.65,0,0,0,4.8,29.1,5.61,5.61,0,0,0,4,25.92l1.81-.1a.51.51,0,0,0,.45-.33,13.35,13.35,0,0,1,6-7.1.11.11,0,0,0,0,.05c.11.33.22.63.34.9a.5.5,0,0,0,.46.3.45.45,0,0,0,.2,0,.51.51,0,0,0,.26-.66c-.11-.24-.21-.51-.31-.8s-.12-.42-.16-.62a6.7,6.7,0,0,1,.5-4,6.59,6.59,0,0,1,3.67,2.37c.15.24.3.5.45.77l.36.71a.49.49,0,0,0,.45.3.54.54,0,0,0,.21-.05A.5.5,0,0,0,18.9,17c-.12-.25-.24-.51-.39-.77a1.88,1.88,0,0,0-.14-.24,22.6,22.6,0,0,1,4.65-.5c9.57,0,17.35,5.9,17.35,13.15C40.37,32.44,38.22,36,34.45,38.5ZM45.36,26.64c-1.41-.08-1.54-.38-1.55-.39a.91.91,0,0,1,.22-.62,1,1,0,0,1,.7-.49h0a1,1,0,0,1,.78.77A1.08,1.08,0,0,1,45.36,26.64Z"/><path d="M30.1,17.79A23.35,23.35,0,0,0,26,16.88a23.67,23.67,0,0,0-4.61-.11.5.5,0,0,0,.07,1,21.92,21.92,0,0,1,8.38,1,.39.39,0,0,0,.15,0,.5.5,0,0,0,.15-1Z"/><path d="M11.67,21.41a1.87,1.87,0,1,0,1.87,1.86A1.86,1.86,0,0,0,11.67,21.41Zm0,2.73a.87.87,0,1,1,.87-.87A.86.86,0,0,1,11.67,24.14Z"/><path d="M25.67,12A4.18,4.18,0,1,0,21.49,7.8,4.18,4.18,0,0,0,25.67,12Zm0-7.36A3.18,3.18,0,1,1,22.49,7.8,3.19,3.19,0,0,1,25.67,4.62Z"/></g><g id="b1ac7c04-ed32-44d3-9230-7cdf407a4213" data-name="LABELS"><text transform="translate(0.25 55.09)" font-size="6" font-family="Roboto-Regular, Roboto">piggy-bank</text></g></svg>