<svg id="b7047c16-6e7c-4538-ab64-b558fd0da0df" data-name="ICONS" xmlns="http://www.w3.org/2000/svg" viewBox="0 0 50 50"><path d="M47,16.52,32.91,2.34a4.38,4.38,0,0,0-6.19,0L1.6,27.29A4.35,4.35,0,0,0,.32,30.38a4.27,4.27,0,0,0,1.27,3.1L15.67,47.66a4.38,4.38,0,0,0,6.2,0L47,22.71a4.38,4.38,0,0,0,0-6.19ZM27.42,3a3.4,3.4,0,0,1,4.79,0l6.58,6.62-9.6,9.55-9-9Zm1.77,36L20,29.75l9.17-9.12,9.18,9.24ZM19.31,29l-9-9,9.17-9.12,9,9Zm-18,1.34a3.32,3.32,0,0,1,1-2.38l7.32-7.28,9,9L8.88,39.4,2.29,32.78A3.35,3.35,0,0,1,1.32,30.38ZM21.16,47a3.39,3.39,0,0,1-4.78,0l-6.8-6.84,9.72-9.66,9.18,9.24ZM46.28,22l-7.21,7.17-9.18-9.24,9.61-9.55,6.79,6.84a3.4,3.4,0,0,1,1,2.4A3.36,3.36,0,0,1,46.28,22Z"/><path d="M26.09,13.32A4.31,4.31,0,1,0,29.16,6h0a4.31,4.31,0,0,0-3.06,7.36Zm.72-5.39a3.28,3.28,0,0,1,2.34-1,3.32,3.32,0,1,1-3.32,3.31A3.26,3.26,0,0,1,26.81,7.93Z"/><path d="M36,17.21a4.32,4.32,0,0,0,3,7.38h0a4.32,4.32,0,1,0-3-7.38Zm5.38,5.42a3.32,3.32,0,1,1,1-2.35A3.32,3.32,0,0,1,41.34,22.63Z"/><path d="M16.36,16.94a4.33,4.33,0,0,0,0,6.11,4.32,4.32,0,1,0,0-6.11Zm5.39,5.42a3.32,3.32,0,1,1-2.34-5.67,3.28,3.28,0,0,1,2.35,1A3.33,3.33,0,0,1,21.75,22.36Z"/><path d="M32.32,27a4.29,4.29,0,0,0-3.05-1.27h0A4.34,4.34,0,0,0,24.94,30a4.32,4.32,0,0,0,4.32,4.33A4.31,4.31,0,0,0,32.32,27Zm-.72,5.4a3.32,3.32,0,1,1,0-4.69,3.31,3.31,0,0,1,0,4.69Z"/><path d="M9.65,34.1a4.32,4.32,0,0,0,0-8.64h0a4.33,4.33,0,0,0-3.06,7.37A4.32,4.32,0,0,0,9.65,34.1ZM7.31,27.43A3.32,3.32,0,0,1,13,29.79a3.26,3.26,0,0,1-1,2.34,3.32,3.32,0,0,1-4.69,0,3.33,3.33,0,0,1,0-4.69Z"/><path d="M22.51,36.67a4.31,4.31,0,0,0-3.05-1.27h0a4.31,4.31,0,0,0-3.06,7.36,4.24,4.24,0,0,0,3,1.27h0a4.26,4.26,0,0,0,3-1.25A4.32,4.32,0,0,0,22.51,36.67Zm-.72,5.4a3.25,3.25,0,0,1-2.35,1,3.29,3.29,0,0,1-2.34-1,3.31,3.31,0,0,1,2.35-5.66h0a3.28,3.28,0,0,1,2.34,1A3.33,3.33,0,0,1,21.79,42.07Z"/></svg>