<svg xmlns="http://www.w3.org/2000/svg" viewBox="0 0 50 50"><g id="b33b2627-76f7-4113-ba37-1c7c8b5e6803" data-name="ICONS"><path d="M26.72,4A22.38,22.38,0,1,0,49.18,26.38,22.45,22.45,0,0,0,26.72,4Z" fill="#fdd600"/><path d="M25,1.25A23.46,23.46,0,0,0,8.29,8.19l0,0,0,0A23.47,23.47,0,1,0,25,1.25ZM2.5,24.63A22.22,22.22,0,0,1,8.63,9.29L40.36,40.9A22.46,22.46,0,0,1,2.5,24.63ZM41.07,40.2,9.33,8.58a22.47,22.47,0,0,1,38.1,16A22.24,22.24,0,0,1,41.07,40.2Z" fill="#231f20"/></g><g id="af501eb9-6183-4bb6-92d2-9ca1463824de" data-name="LABELS"><text transform="translate(-0.04 55.07)" font-size="6" fill="#231f20" font-family="Roboto-Regular, Roboto">pill-tablet</text></g></svg>