<svg xmlns="http://www.w3.org/2000/svg" viewBox="0 0 50 50"><g id="a3f681e5-d935-4ae1-836c-0ef116e3d49e" data-name="ICONS"><path d="M25.79,15.29a2.2,2.2,0,1,0,2.2,2.2A2.2,2.2,0,0,0,25.79,15.29Z" fill="none"/><path d="M20.67,21.48a.69.69,0,0,0-.69.69.69.69,0,1,0,.69-.69Z" fill="none"/><path d="M34.89,24.23a.88.88,0,1,0-.87-.87A.87.87,0,0,0,34.89,24.23Z" fill="none"/><path d="M49.32,16.13c-1.37-3.77-7.26-5.36-15.78-4.29A15.57,15.57,0,0,0,9.76,20.56C2.73,25.15-.66,30.08.69,33.79c1.07,3,5.14,4.61,11,4.61a40,40,0,0,0,4.94-.34,15.53,15.53,0,0,0,13.47,1.37,15.5,15.5,0,0,0,9.41-9.6C47,25.18,50.7,19.94,49.32,16.13ZM10.66,21a14.62,14.62,0,0,1,27.86-1.25,14.47,14.47,0,0,1,.86,4.68A56.09,56.09,0,0,1,27,30.57a55.32,55.32,0,0,1-13.71,3.24,14.35,14.35,0,0,1-3.15-8.58A14.33,14.33,0,0,1,10.66,21Zm26.91-5.18c3.9-.19,6.5.49,7,1.89s-1.07,3.64-4.24,6a15.73,15.73,0,0,0-.88-4.32A15.23,15.23,0,0,0,37.57,15.83ZM9.49,27.9l.18.77.09.33c.1.37.21.72.34,1.08s.3.75.46,1.12l.17.34c.12.25.25.5.39.74s.14.26.22.39.28.45.42.67l.25.37a1.63,1.63,0,0,1,.11.17H10.49l-.69,0-.55,0-.6-.08c-.18,0-.34-.06-.51-.09l-.49-.11c-.17,0-.31-.09-.46-.14l-.38-.14a3.91,3.91,0,0,1-.41-.2l-.27-.15a2.36,2.36,0,0,1-.33-.29s-.12-.09-.16-.14a1.62,1.62,0,0,1-.3-.5,1.79,1.79,0,0,1-.09-.57,1.52,1.52,0,0,1,0-.21,2.26,2.26,0,0,1,.07-.43c0-.09.07-.18.1-.28s.11-.27.18-.42.12-.21.19-.31a3.68,3.68,0,0,1,.28-.45L6.36,29c.12-.16.24-.31.38-.47s.21-.23.33-.35.31-.33.48-.49l.39-.36.59-.52L9,26.42l.27-.2a.88.88,0,0,0,0,.16c0,.12,0,.24,0,.36s.07.52.12.77S9.47,27.77,9.49,27.9ZM29.77,38.49a14.56,14.56,0,0,1-11.5-.67l.85-.16c.35-.07.71-.13,1.06-.21L22,37.06,23,36.8c.64-.16,1.29-.35,1.93-.54.3-.08.61-.16.91-.26.94-.29,1.89-.61,2.83-1s1.82-.69,2.7-1l.85-.37L34,32.84l1-.47c.52-.25,1-.51,1.54-.78l1-.53c.23-.13.48-.25.71-.39A14.53,14.53,0,0,1,29.77,38.49Zm9.08-9.42a56.92,56.92,0,0,1-10.52,5,59.17,59.17,0,0,1-8.81,2.47c-1,.19-1.91.34-2.83.47-8,1.07-13.88-.35-15.06-3.6C.52,30.4,3.49,26.07,9.42,22l0,.18c-.06.38-.11.75-.14,1.13,0,.14,0,.28,0,.42q0,.51,0,1c0,.09,0,.18,0,.26l-.07.06c-.43.32-.83.63-1.2.94a.52.52,0,0,0-.11.1c-.37.31-.71.61-1,.92l-.09.09c-.31.3-.59.6-.84.89a.27.27,0,0,1-.07.08c-.24.3-.46.59-.65.87a.43.43,0,0,1,0,.07,6.6,6.6,0,0,0-.47.85l0,.05a4.81,4.81,0,0,0-.27.81v0a3,3,0,0,0-.07.78v0a2.38,2.38,0,0,0,.15.74,2.44,2.44,0,0,0,.36.65c0,.06.11.12.16.18a4.54,4.54,0,0,0,.38.38l.26.18A5.55,5.55,0,0,0,6,34l.32.15c.19.08.4.16.62.23l.35.11c.26.07.54.13.83.18l.32.06a12.76,12.76,0,0,0,1.31.15h.12c.38,0,.78,0,1.19,0h.44l1.34-.06h0l.26,0,1-.07v0a57.46,57.46,0,0,0,13.29-3.23,56.27,56.27,0,0,0,12.79-6.4l.21-.15h0c4-2.88,5.87-5.57,5.14-7.57s-3.79-2.87-8.67-2.52a1.54,1.54,0,0,0-.17-.19,10,10,0,0,0-.69-.76l-.3-.31c-.27-.26-.55-.51-.83-.75l-.15-.14c7.35-.75,12.54.66,13.67,3.76C49.58,19.78,45.84,24.73,38.85,29.07Z"/><path d="M25.79,20.69a3.2,3.2,0,1,0-3.21-3.2A3.21,3.21,0,0,0,25.79,20.69Zm0-5.4a2.2,2.2,0,1,1-2.21,2.2A2.2,2.2,0,0,1,25.79,15.29Z"/><path d="M20.67,23.85a1.69,1.69,0,0,0,0-3.37,1.69,1.69,0,1,0,0,3.37Zm0-2.37a.69.69,0,0,1,.68.69.69.69,0,0,1-1.37,0A.69.69,0,0,1,20.67,21.48Z"/><path d="M34.89,25.23A1.88,1.88,0,1,0,33,23.36,1.88,1.88,0,0,0,34.89,25.23Zm0-2.75a.88.88,0,1,1-.87.88A.87.87,0,0,1,34.89,22.48Z"/></g><g id="b02708e4-bb0c-4fa8-b345-64d8bb297cf3" data-name="LABELS"><text transform="translate(-0.1 55.08)" font-size="6" font-family="Roboto-Regular, Roboto">planet</text></g></svg>