<svg xmlns="http://www.w3.org/2000/svg" viewBox="0 0 50 50"><g id="ed29b5e9-6259-4610-b61e-bfa91cfcaad2" data-name="ICONS"><path d="M45.13,32.5a5.28,5.28,0,0,0,1.59-8,5.26,5.26,0,0,0-1.59,8Z" fill="#fdd600"/><path d="M40,40.85a5.26,5.26,0,0,0,8.14-.28,5.28,5.28,0,0,0-8.14.28Z" fill="#fdd600"/><path d="M39.2,39.68a5.25,5.25,0,0,1,.28-8.13,5.27,5.27,0,0,1-.28,8.13Z" fill="#fdd600"/><path d="M30,45.59A5.26,5.26,0,0,0,37.39,49,5.26,5.26,0,0,0,30,45.59Z" fill="#fdd600"/><path d="M29.59,44.11a5.26,5.26,0,0,1,3.78-7.21,5.26,5.26,0,0,1-3.78,7.21Z" fill="#fdd600"/><path d="M22.7,45.56A5.35,5.35,0,0,1,19.79,49a5.29,5.29,0,0,1-4.5-.07,5.27,5.27,0,0,1,7.41-3.36Z" fill="#fdd600"/><path d="M23,44.17a5.25,5.25,0,0,0-3.67-7.27A5.28,5.28,0,0,0,23,44.17Z" fill="#fdd600"/><path d="M12.68,40.85a5.36,5.36,0,0,1-4.13,1.79,5.33,5.33,0,0,1-4-2.07,5.27,5.27,0,0,1,8.13.28Z" fill="#fdd600"/><path d="M13.46,39.68a5.27,5.27,0,0,0-.28-8.13,5.25,5.25,0,0,0,.28,8.13Z" fill="#fdd600"/><path d="M7.16,32.47a5.27,5.27,0,0,0-1.58-8,5.27,5.27,0,0,0,1.58,8Z" fill="#fdd600"/><path d="M29,42.36l.21-.1c0-.09,0-.18,0-.27Z" fill="#fdd600"/><path d="M20.41,45l.38,0,.19-.35Z" fill="#fdd600"/><path d="M41.18,36.46c0-.06,0-.12,0-.18l-.16.21Z" fill="#fdd600"/><path d="M11.19,6.59A68.07,68.07,0,0,0,12.84,16.7c1.09,4.52,1.75,7.25,3.51,10.1a22.5,22.5,0,0,0,10.4,8.54,22.86,22.86,0,0,0,10.31-8.55c1.84-2.93,2.54-5.78,3.6-10.11A65.11,65.11,0,0,0,42.31,6.59a35.6,35.6,0,0,0-31.12,0Zm15,1.4a.74.74,0,0,0,.22.47.49.49,0,0,0,.25.11l1.21,3.06,4.82,1,.24,0c.31,0,.7.08.72.22s0,.13-.36.27l-1.6,2-2.06,1.68q.54,2.64,1.07,5.26s0,0,0,0a2.41,2.41,0,0,1-2.32.05,2.11,2.11,0,0,1-.52-.38l-2.56-1.54-2.92,1.34-2.12,1c-.2.2-.34.29-.41.25s-.08-.36.08-.91q.46-2.62.91-5.26l-3-2.5a1.22,1.22,0,0,1-.66-1.27.77.77,0,0,1,.25-.36l4.89-.85,2.92-4.84C26,7.39,26.19,7.76,26.23,8Z" fill="#fdd600"/><path d="M41.56,4.35a36.56,36.56,0,0,0-32.62,0,.48.48,0,0,0-.28.48,69.58,69.58,0,0,0,1.71,10.61c1.08,4.46,1.79,7.4,3.64,10.39a23.52,23.52,0,0,0,11,9,.45.45,0,0,0,.2,0,.51.51,0,0,0,.2,0,24,24,0,0,0,11-9c1.92-3.06,2.64-6,3.72-10.4A66.76,66.76,0,0,0,41.84,4.83.51.51,0,0,0,41.56,4.35Zm-2.4,10.83c-1.06,4.33-1.76,7.18-3.6,10.11a22.86,22.86,0,0,1-10.31,8.55A22.42,22.42,0,0,1,14.86,25.3c-1.77-2.85-2.43-5.58-3.52-10.1A68.07,68.07,0,0,1,9.69,5.09a35.6,35.6,0,0,1,31.12,0A65.11,65.11,0,0,1,39.16,15.18Z" fill="#231f20"/><path d="M24.85,6.1l-2.62,5.2-5.76.8a.49.49,0,0,0-.41.33.53.53,0,0,0,.12.52L20.32,17l-1,5.73a.49.49,0,0,0,.19.49.51.51,0,0,0,.53,0l2.17-1.12,3-1.55,1.09.59,4,2.16a.53.53,0,0,0,.24.06.46.46,0,0,0,.29-.1s0-.05.07-.08a.46.46,0,0,0,.13-.4l-.94-5.75L33,14.35l1.32-1.27a.51.51,0,0,0-.27-.86l-5.76-.87L25.74,6.11a.51.51,0,0,0-.44-.29h0A.5.5,0,0,0,24.85,6.1Zm1.54,3.64L27.5,12a.47.47,0,0,0,.37.27l.58.09,4.43.68-1.14,1.1-2.51,2.41a.49.49,0,0,0-.15.44l.82,5-4.47-2.39a.5.5,0,0,0-.24-.06.64.64,0,0,0-.23.05l-2.55,1.32-1.95,1,.89-5a.48.48,0,0,0-.11-.4l0,0-2.09-2.06L17.61,13l5-.69A.54.54,0,0,0,23,12l2.28-4.54Z" fill="#231f20"/><path d="M47.69,38.76a6.48,6.48,0,0,0-5.2-2.49,7.13,7.13,0,0,0-1.31.19l-.12,0,.16-.21A21.64,21.64,0,0,0,43.84,32c.25-.13.48-.27.71-.42a6.16,6.16,0,0,0,2.81-6.08A6.59,6.59,0,0,0,45.72,22a.49.49,0,0,0-.59-.11,6.28,6.28,0,0,0-2.23,9.74,20,20,0,0,1-1.71,2.94c-.19.28-.37.57-.57.83a7.14,7.14,0,0,0,.17-1.23,6.37,6.37,0,0,0-.06-1A6.48,6.48,0,0,0,38.3,29a.48.48,0,0,0-.6,0,6.28,6.28,0,0,0-.57,10,21,21,0,0,1-6,3.27,6.35,6.35,0,0,0,1.49-1.87h0a6.18,6.18,0,0,0,.65-3.43,7,7,0,0,0-.65-2.32.48.48,0,0,0-.53-.28,6.44,6.44,0,0,0-4.69,3.35,6.36,6.36,0,0,0-.14,5.43,18.74,18.74,0,0,1-2.5.18c-.47,0-.93,0-1.38-.06l-.91-.08a6.58,6.58,0,0,0,.5-3.45,6.09,6.09,0,0,0-.63-2,6.42,6.42,0,0,0-4.68-3.35.48.48,0,0,0-.53.28,6.4,6.4,0,0,0,0,5.75,6.15,6.15,0,0,0,1.69,2,19.94,19.94,0,0,1-6.34-3.33l.18-.18A6.36,6.36,0,0,0,14.76,34c0-.21,0-.42,0-.62A6.46,6.46,0,0,0,12,29a.5.5,0,0,0-.61,0A6.43,6.43,0,0,0,8.9,34.18a6,6,0,0,0,.32,1.74,19.58,19.58,0,0,1-2.34-3.61c-.13-.26-.26-.51-.38-.77a6.45,6.45,0,0,0,1.32-4.73c0-.13,0-.27-.06-.4A6.42,6.42,0,0,0,4.19,21.9.5.5,0,0,0,3.6,22a6.3,6.3,0,0,0,2,10.05h0l.05,0a21.71,21.71,0,0,0,2.69,4.34,6.14,6.14,0,0,0-1.14-.16A6.52,6.52,0,0,0,2,38.76a.51.51,0,0,0,0,.6,6.47,6.47,0,0,0,4.36,2.71,4,4,0,0,0,.69.06h.18A6.38,6.38,0,0,0,11.89,40l.08-.08a21,21,0,0,0,5,2.86c-.24.08-.47.16-.7.26a6.43,6.43,0,0,0-3.61,4.49.5.5,0,0,0,.25.55,6.69,6.69,0,0,0,2.33.78,5.46,5.46,0,0,0,.9.07,6.13,6.13,0,0,0,2.52-.53,6.62,6.62,0,0,0,3.55-4.29,22.61,22.61,0,0,0,2.48.16,19.92,19.92,0,0,0,2.69-.2A6.42,6.42,0,0,0,31,48.42a6.25,6.25,0,0,0,1.69.47,5.79,5.79,0,0,0,.83.06,6.64,6.64,0,0,0,3.23-.85.47.47,0,0,0,.22-.26.48.48,0,0,0,0-.29,6.41,6.41,0,0,0-3.61-4.49,6,6,0,0,0-.84-.29,20.6,20.6,0,0,0,5.09-2.94,6.52,6.52,0,0,0,4,2.24,6.23,6.23,0,0,0,.86.07h.18a6.39,6.39,0,0,0,4.66-2.28c.13-.16.26-.32.38-.49A.49.49,0,0,0,47.69,38.76ZM42.54,26.61A5.4,5.4,0,0,1,45.22,23a5.67,5.67,0,0,1,1,1.85,5.28,5.28,0,0,1,.14,2.53,5.36,5.36,0,0,1-2,3.21L44.66,29a.5.5,0,0,0-.37-.6.59.59,0,0,0-.3,0,.47.47,0,0,0-.3.34l-.41,1.74A5.31,5.31,0,0,1,42.54,26.61ZM5.62,28.41a.5.5,0,0,0-1,.21L5,30.31l.06.27A5.3,5.3,0,0,1,3,27.35,5.4,5.4,0,0,1,4.09,23,5.54,5.54,0,0,1,6,24.75a5,5,0,0,1,.78,1.86,5.32,5.32,0,0,1-.72,3.82ZM8.89,39.9h0l1.69,0a5.26,5.26,0,0,1-3.53,1.25,5.15,5.15,0,0,1-2.4-.67A5.73,5.73,0,0,1,3,39.09a5.49,5.49,0,0,1,4.14-1.82,5.35,5.35,0,0,1,3.63,1.61H8.89a.5.5,0,0,0-.5.5A.51.51,0,0,0,8.89,39.9Zm3-4.36a.5.5,0,0,0-.45.29.46.46,0,0,0-.05.21l0,1.55A5.3,5.3,0,0,1,9.9,34.15,5.36,5.36,0,0,1,11.72,30a5.71,5.71,0,0,1,1.37,1.62,5.18,5.18,0,0,1,.67,2.4,5.3,5.3,0,0,1-1.43,3.75l0-1.74A.51.51,0,0,0,11.85,35.54Zm8.94,9.52a5.19,5.19,0,0,1-2.5,2.44,5.11,5.11,0,0,1-2.62.42,5.62,5.62,0,0,1-1.89-.52A5.33,5.33,0,0,1,16.72,44a5.27,5.27,0,0,1,3.81-.17l-1.36.79a.48.48,0,0,0-.2.62s0,0,0,.06a.5.5,0,0,0,.43.25.54.54,0,0,0,.25-.06l.74-.43.57-.33Zm1-3-.86-1.54a.5.5,0,0,0-.68-.19A.49.49,0,0,0,20,41l.75,1.36a5.8,5.8,0,0,1-1.07-.58A5.12,5.12,0,0,1,18,39.91a5.4,5.4,0,0,1-.15-4.52,5.45,5.45,0,0,1,3.33,2.31,3.83,3.83,0,0,1,.25.44A5.29,5.29,0,0,1,21.77,42.09Zm6.17.08a5.35,5.35,0,0,1,.32-4,5.42,5.42,0,0,1,3.59-2.75,5.72,5.72,0,0,1,.41,1.88,5.12,5.12,0,0,1-3.07,5l-.21.1.2-.37.47-.84a.51.51,0,0,0-.19-.68h0a.51.51,0,0,0-.65.21ZM33,44a5.25,5.25,0,0,1,2.22,1.93,5.56,5.56,0,0,1,.72,1.49,5.32,5.32,0,0,1-4.51.1,4.57,4.57,0,0,1-.72-.4,5.33,5.33,0,0,1-1.9-2.24l1.21.71h0a.43.43,0,0,0,.25.07.5.5,0,0,0,.43-.25.76.76,0,0,0,0-.11.49.49,0,0,0-.22-.57L29,43.85c.14-.05.29-.07.44-.11a5.27,5.27,0,0,1,1.67-.19A5.15,5.15,0,0,1,33,44Zm5.39-8.14a.51.51,0,0,0-.5-.49h0a.48.48,0,0,0-.43.27.46.46,0,0,0-.06.23v2A5.27,5.27,0,0,1,38,30a5.6,5.6,0,0,1,1.28,1.69,5.16,5.16,0,0,1-.88,5.86Zm8.09,3.48a5.33,5.33,0,0,1-3.82,1.81,4.9,4.9,0,0,1-2.43-.55,5.78,5.78,0,0,1-1.34-.89l2,0h0a.5.5,0,0,0,.5-.5.49.49,0,0,0-.49-.5H39.1a5.37,5.37,0,0,1,1.71-1.06,5.28,5.28,0,0,1,1.71-.36,5.39,5.39,0,0,1,4.13,1.82C46.59,39.17,46.52,39.24,46.45,39.32Z" fill="#231f20"/></g><g id="a43303c7-b6cf-441b-90ff-a5ec0b7bbe68" data-name="LABELS"><text transform="translate(-0.1 54.79)" font-size="6" fill="#231f20" font-family="Roboto-Regular, Roboto">plaque</text></g></svg>