<svg xmlns="http://www.w3.org/2000/svg" viewBox="0 0 50 50"><g id="f5a164ed-23d6-48f8-9aa8-3af93b5a060c" data-name="ICONS"><path d="M34.89,31h-.58V21.2H18.19v5.34H2.65V46h47.2V31ZM13.28,32.82c-.09,1.82-1.15,4-3.09,4.67a3.72,3.72,0,0,1-1.9.12c-2.61-.52-5.38-4.13-4.13-7.1a4.77,4.77,0,0,1,9.12,2.31Zm16.14-4.17c-.1.41-.84,3.49-3.51,4.26A4.63,4.63,0,0,1,23,32.74,5.07,5.07,0,0,1,20,27a5,5,0,0,1,4.54-3.75,4.88,4.88,0,0,1,5,3.05A4.12,4.12,0,0,1,29.42,28.65ZM45.57,38.73a5,5,0,0,1-4.34,3.18,4.37,4.37,0,0,1-1.49-.17c-1.84-.53-4.23-2.55-3.92-5.32a5,5,0,0,1,4.34-4.26c3-.34,5.33,2.42,5.61,4.67A4.29,4.29,0,0,1,45.57,38.73Z" fill="#fdd600"/><path d="M17.27,44.46h15V19.7h-15Zm7.48-21.69a5.37,5.37,0,0,1,5.32,4.78,4.32,4.32,0,0,1,.57,2.11A4.39,4.39,0,0,1,26.25,34a4.28,4.28,0,0,1-2.1-.56,5.37,5.37,0,0,1,.6-10.71Z" fill="none"/><path d="M24.62,10A.49.49,0,0,0,25,9.7L25.88,8,24.77,5.67,23.5,8.2a.5.5,0,0,1-.38.27l-2.81.39,1.52,1.5Z" fill="none"/><path d="M1.15,44.46h15V25h-15ZM8.63,27.27A5.39,5.39,0,0,1,14,32.05,4.35,4.35,0,0,1,8,38a5.37,5.37,0,0,1,.6-10.71Z" fill="none"/><path d="M6.39,36.4a4.31,4.31,0,0,1-.64-2.25,4.39,4.39,0,0,1,4.38-4.38,4.31,4.31,0,0,1,2.25.64,4.37,4.37,0,1,0-6,6Z" fill="none"/><path d="M22.5,31.91a4.36,4.36,0,0,1,3.75-6.64,4.34,4.34,0,0,1,2.25.64,4.38,4.38,0,1,0-6,6Z" fill="none"/><path d="M23.83,12.35l-1.48-1.46a.46.46,0,0,1,.12.4L22,14.08l2-1,0-.29A.49.49,0,0,0,23.83,12.35Z" fill="none"/><path d="M33.39,44.46h15v-15h-15Zm7.48-12.87a5.37,5.37,0,0,1,5.32,4.78,4.31,4.31,0,0,1,.56,2.11,4.38,4.38,0,0,1-4.38,4.38,4.25,4.25,0,0,1-2.1-.56,5.37,5.37,0,0,1,.6-10.71Z" fill="none"/><path d="M38.62,40.72A4.4,4.4,0,0,1,38,38.48a4.34,4.34,0,0,1,1.44-3.22v-.33h.39a4.36,4.36,0,0,1,2.56-.84,4.27,4.27,0,0,1,2.24.64,4.35,4.35,0,0,0-3.74-2.14,4.37,4.37,0,0,0-2.25,8.13Z" fill="none"/><path d="M26.88,9a.51.51,0,0,1-.37-.28l-.13-.27L25.27,6.17,24,8.7a.5.5,0,0,1-.38.27l-2.81.39,1.52,1.5.5.49s0,0,0,0a.46.46,0,0,1,.12.4l-.5,2.79,2-1,.57-.29a.46.46,0,0,1,.23-.06.53.53,0,0,1,.24.06L28,14.63l-.46-2.8a.51.51,0,0,1,.15-.44l.9-.87,1.14-1.09-2.22-.34Z" fill="#fdd600"/><path d="M48.85,28.5H33.23V19.2a.5.5,0,0,0-.5-.5h-16a.5.5,0,0,0-.5.5V24H.65a.5.5,0,0,0-.5.5V45a.5.5,0,0,0,.5.5h16l.08,0,.08,0h16l.08,0,.08,0h16a.5.5,0,0,0,.5-.5V29A.5.5,0,0,0,48.85,28.5Zm-32.74,16h-15V25h15Zm16.12,0h-15V19.7h15Zm16.12,0h-15v-15h15Z" fill="#231f20"/><polygon points="23.6 26.35 23.76 26.96 24.53 26.75 24.53 30.29 25.27 30.29 25.27 25.98 24.75 25.98 23.6 26.35" fill="#231f20"/><path d="M30.73,8.44a.48.48,0,0,0-.4-.35l-3.54-.54L25.23,4.32A.51.51,0,0,0,24.78,4h0a.51.51,0,0,0-.45.28l-1.61,3.2L19.17,8a.51.51,0,0,0-.4.34.53.53,0,0,0,.12.52l2.55,2.52-.63,3.53a.5.5,0,0,0,.72.53l2.17-1.12,1-.52,1.1.58,2.06,1.11a.53.53,0,0,0,.24.06.46.46,0,0,0,.29-.1s0,0,.07-.08a.46.46,0,0,0,.13-.4L28,11.43l1.27-1.22L30.6,9A.49.49,0,0,0,30.73,8.44ZM28,10l-.9.87a.51.51,0,0,0-.15.44l.46,2.8L25,12.79a.53.53,0,0,0-.24-.06.46.46,0,0,0-.23.06l-.57.29-2,1,.5-2.79a.46.46,0,0,0-.12-.4s0,0,0,0l-.5-.49-1.52-1.5,2.81-.39a.5.5,0,0,0,.38-.27l1.27-2.53L25.88,8l.13.27a.51.51,0,0,0,.37.28l.58.09,2.22.34Z" fill="#231f20"/><path d="M10.19,31.71h0a1.28,1.28,0,0,0-1.41-1.28,1.76,1.76,0,0,0-1.57.9l.53.42c.33-.43.6-.64,1-.64a.64.64,0,0,1,.69.66c0,.39-.22.65-.8,1.15L7.15,34.17v.59h3.08V34.1h-2l.88-.73C9.84,32.75,10.19,32.38,10.19,31.71Z" fill="#231f20"/><path d="M24.15,33.48a3.93,3.93,0,0,0,.6.06,5.39,5.39,0,0,0,5.39-5.38,4.22,4.22,0,0,0-.07-.61,5.37,5.37,0,1,0-5.92,5.93Zm.6-9.71a4.38,4.38,0,1,1-4.39,4.39A4.4,4.4,0,0,1,24.75,23.77Z" fill="#231f20"/><path d="M8,38c.2,0,.4.06.6.06A5.4,5.4,0,0,0,14,32.65c0-.2,0-.4-.06-.6A5.37,5.37,0,1,0,8,38Zm.6-9.71a4.36,4.36,0,0,1,3.75,2.14A4.3,4.3,0,0,1,13,32.65,4.4,4.4,0,0,1,8.63,37a4.3,4.3,0,0,1-2.24-.64,4.37,4.37,0,0,1,2.24-8.13Z" fill="#231f20"/><path d="M40.87,31.59a5.37,5.37,0,0,0-.6,10.71,5.8,5.8,0,0,0,.6.06A5.38,5.38,0,0,0,46.25,37a4.07,4.07,0,0,0-.06-.61A5.37,5.37,0,0,0,40.87,31.59Zm0,9.77a4.31,4.31,0,0,1-2.25-.64,4.37,4.37,0,1,1,6-6A4.31,4.31,0,0,1,45.25,37,4.38,4.38,0,0,1,40.87,41.36Z" fill="#231f20"/><path d="M41.27,35.59l-1.16,1.22.12.47h.35c.6,0,1,.24,1,.66h0a.66.66,0,0,1-.73.65A1.41,1.41,0,0,1,39.7,38l-.52.49a2,2,0,0,0,1.63.75,1.37,1.37,0,0,0,1.5-1.36h0c0-.79-.61-1.12-1.26-1.2l1.19-1.22v-.56H39.42v.66Z" fill="#231f20"/></g><g id="b389a17b-0822-4da7-9afe-799b0b48e974" data-name="LABELS"><text transform="translate(-0.1 54.62)" font-size="6" fill="#231f20" font-family="Roboto-Regular, Roboto">podium</text></g></svg>