<svg id="bc39834f-4f36-4d4f-beba-c12fc1a4c1c5" data-name="ICONS" xmlns="http://www.w3.org/2000/svg" viewBox="0 0 50 50"><path d="M41.37,17.18a2.8,2.8,0,0,0-2.8,2.8.51.51,0,0,1-.5.5h0a.5.5,0,0,1-.5-.5V17.19a2.81,2.81,0,0,0-5.61,0,.5.5,0,0,1-.5.5.5.5,0,0,1-.5-.5V14.76A2.81,2.81,0,0,0,29.61,12a2.86,2.86,0,0,0-3.13.34,3.12,3.12,0,0,0-1.06,1.87.53.53,0,0,1-.54.41.51.51,0,0,1-.46-.49l-.08-8.67a2.81,2.81,0,1,0-5.61,0v24a.51.51,0,0,1-.42.5.49.49,0,0,1-.55-.34c-.08-.24-.2-.57-.36-1a10.76,10.76,0,0,0-2-3.16A10,10,0,0,0,11.58,23a2.22,2.22,0,0,0-2.66.54,2.19,2.19,0,0,0-.14,2.69l12.8,19.26a.54.54,0,0,1,.08.28v4.16H39.72l0-6.21a.55.55,0,0,1,.07-.28,31.67,31.67,0,0,0,2.62-5.52,31.35,31.35,0,0,0,1.8-9.81V20A2.81,2.81,0,0,0,41.37,17.18Z" fill="#fdd600"/><path d="M39.93,14.64a3.81,3.81,0,0,0-2.82,1.25v-.23a3.82,3.82,0,0,0-6.64-2.57,3.82,3.82,0,0,0-6.63-2.45V3.89A3.82,3.82,0,0,0,20,.08h0A3.75,3.75,0,0,0,17.33,1.2,3.76,3.76,0,0,0,16.2,3.89V25.57a10.84,10.84,0,0,0-5.78-5,3.21,3.21,0,0,0-4,4.72l12.75,19.2V49a.5.5,0,0,0,.5.5H38.77a.5.5,0,0,0,.5-.5V44.83l0-2.44a32.16,32.16,0,0,0,4.51-15.77V18.46A3.83,3.83,0,0,0,39.93,14.64Zm2.82,12a31.55,31.55,0,0,1-1.81,9.84A32,32,0,0,1,38.31,42a.48.48,0,0,0-.07.26l0,6.25H20.14V44.33a.54.54,0,0,0-.08-.28L7.21,24.72A2.21,2.21,0,0,1,10,21.48,10.1,10.1,0,0,1,13.84,24a11.13,11.13,0,0,1,2,3.17c.16.38.28.71.36.95a.49.49,0,0,0,.55.34A.5.5,0,0,0,17.2,28V3.89A2.83,2.83,0,0,1,20,1.08h0a2.81,2.81,0,0,1,2.82,2.81V22.76a.5.5,0,0,0,1,0V13.22a2.82,2.82,0,0,1,5.64,0v9.71a.5.5,0,0,0,.5.5.51.51,0,0,0,.5-.5V15.66a2.82,2.82,0,1,1,5.63,0v7.27a.51.51,0,0,0,.5.5.5.5,0,0,0,.5-.5V18.45a2.82,2.82,0,0,1,5.64,0Z" fill="#231f20"/></svg>