<svg xmlns="http://www.w3.org/2000/svg" viewBox="0 0 50 50"><g id="bfbcb0bf-5dc8-42c9-ae53-caffeee493ef" data-name="ICONS"><path d="M42,31.45a.54.54,0,0,1-.1-.46.51.51,0,0,1,.33-.34,11.53,11.53,0,0,0,2.26-1l5.26-3-5.26-3a9.52,9.52,0,0,0-1.39-.67.5.5,0,0,1-.29-.34.47.47,0,0,1,.1-.44,14.23,14.23,0,0,0,.91-1.25l3.21-5.16L41,15.53a11.49,11.49,0,0,0-2.46.19.49.49,0,0,1-.45-.14.47.47,0,0,1-.13-.45,11.65,11.65,0,0,0,.27-2.46V6.6L33,9.64a10.41,10.41,0,0,0-1.28.87.53.53,0,0,1-.44.08.52.52,0,0,1-.33-.3,11.53,11.53,0,0,0-.62-1.42L27.43,3.51,24.22,8.67a12.09,12.09,0,0,0-1.07,2.23.51.51,0,0,1-.81.2,11.34,11.34,0,0,0-2-1.46l-5.26-3v6.07a11,11,0,0,0,.11,1.54.49.49,0,0,1-.15.43.48.48,0,0,1-.43.13,10.21,10.21,0,0,0-1.53-.16L7,14.4l2.86,5.36a11.16,11.16,0,0,0,1.39,2,.48.48,0,0,1,.1.46.49.49,0,0,1-.33.34,12.08,12.08,0,0,0-2.26,1l-5.26,3,5.26,3a10.21,10.21,0,0,0,1.4.67.52.52,0,0,1,.29.34.49.49,0,0,1-.1.44,12.88,12.88,0,0,0-.91,1.25L6.26,37.52l6.07.2a11.49,11.49,0,0,0,2.46-.19.5.5,0,0,1,.45.14.51.51,0,0,1,.13.46,11.49,11.49,0,0,0-.27,2.45v6.07l5.26-3a9.66,9.66,0,0,0,1.27-.87.57.57,0,0,1,.31-.1l.14,0a.51.51,0,0,1,.33.31A10.57,10.57,0,0,0,23,44.38l2.86,5.36,3.21-5.16a12.09,12.09,0,0,0,1.07-2.23.48.48,0,0,1,.35-.31.49.49,0,0,1,.45.11,11.27,11.27,0,0,0,2,1.46l5.26,3V40.58A12.93,12.93,0,0,0,38.11,39a.49.49,0,0,1,.14-.43.53.53,0,0,1,.43-.13,10.47,10.47,0,0,0,1.54.16l6.07.21-2.86-5.36A11.75,11.75,0,0,0,42,31.45Zm-18-2.32a.43.43,0,0,1-.11-.2l.22.27A.26.26,0,0,1,24.06,29.13Zm.85-.38a3.88,3.88,0,1,1,3.87-3.88A3.88,3.88,0,0,1,24.91,28.75Z" fill="#fdd600"/><path d="M49.22,25.31a.5.5,0,0,0,0-.87l-6-3.47c-.31-.17-.61-.33-.92-.47.2-.28.41-.54.59-.83l3.67-5.89a.51.51,0,0,0-.41-.77l-6.94-.23a12.74,12.74,0,0,0-2,.1,12.64,12.64,0,0,0,.16-2V4a.48.48,0,0,0-.25-.43.5.5,0,0,0-.5,0L30.64,7c-.29.17-.57.36-.85.55-.14-.31-.28-.62-.44-.92L26.08.53a.49.49,0,0,0-.86,0L21.55,6.39a14.49,14.49,0,0,0-.9,1.75A11.53,11.53,0,0,0,19,7L13,3.55a.5.5,0,0,0-.5,0,.48.48,0,0,0-.25.43v6.94c0,.34,0,.68.05,1-.34,0-.67-.07-1-.08l-6.93-.23a.46.46,0,0,0-.44.23.47.47,0,0,0,0,.5l3.27,6.12a11.67,11.67,0,0,0,1.07,1.65A13.13,13.13,0,0,0,6.48,21l-6,3.47a.5.5,0,0,0,0,.87l6,3.47c.3.17.6.3.91.45-.2.27-.4.56-.59.85L3.14,36a.48.48,0,0,0,0,.5.49.49,0,0,0,.42.27l6.94.23h.42a12.85,12.85,0,0,0,1.54-.1,12.64,12.64,0,0,0-.16,2v6.94a.48.48,0,0,0,.25.43.48.48,0,0,0,.5,0l6-3.47c.3-.17.58-.36.86-.55.13.31.27.62.43.92l3.27,6.12a.49.49,0,0,0,.42.27h0a.49.49,0,0,0,.42-.24l3.67-5.89a12.09,12.09,0,0,0,.9-1.75,13.18,13.18,0,0,0,1.61,1.12l6,3.47a.59.59,0,0,0,.25.07.52.52,0,0,0,.25-.07.48.48,0,0,0,.25-.43V38.83c0-.35,0-.68,0-1,.33,0,.67.07,1,.08l6.94.23h0a.49.49,0,0,0,.44-.73l-3.27-6.12a12.38,12.38,0,0,0-1.07-1.66,12.58,12.58,0,0,0,1.79-.83ZM36.4,38.83V44.9l-5.26-3a11.43,11.43,0,0,1-5.51-12.18,4.84,4.84,0,0,0,3-1.71A11.46,11.46,0,0,1,36.4,38.83ZM13.28,44.9V38.83a11.47,11.47,0,0,1,7.86-10.9,4.87,4.87,0,0,0,2.91,1.73,11.44,11.44,0,0,1-5.51,12.2Zm0-34V4.85l5.26,3a11.44,11.44,0,0,1,5.51,12.2,4.87,4.87,0,0,0-2.91,1.73A11.47,11.47,0,0,1,13.28,10.92ZM36.4,4.85v6.07a11.46,11.46,0,0,1-7.76,10.86,4.84,4.84,0,0,0-3-1.71A11.43,11.43,0,0,1,31.14,7.89Zm-7.62,20A3.88,3.88,0,1,1,24.91,21,3.88,3.88,0,0,1,28.78,24.87ZM20.35,23.2A5,5,0,0,0,20,24.87a4.86,4.86,0,0,0,.32,1.67A11.45,11.45,0,0,1,7,27.91l-5.26-3,5.26-3A11.46,11.46,0,0,1,20.35,23.2Zm9.09,3.43a4.64,4.64,0,0,0,.34-1.76,4.71,4.71,0,0,0-.34-1.76,11.47,11.47,0,0,1,13.27-1.27l5.26,3-5.26,3A11.46,11.46,0,0,1,29.44,26.63Zm9.73-12.85,6.07.2L42,19.14a11.2,11.2,0,0,1-.68,1,12.43,12.43,0,0,0-7.59-.39A12.32,12.32,0,0,0,37,13.91,11.67,11.67,0,0,1,39.17,13.78ZM22.4,6.92l3.21-5.16,2.86,5.36A11.5,11.5,0,0,1,29,8.19a12.4,12.4,0,0,0-4.13,6.38,12.39,12.39,0,0,0-3.4-5.74A11,11,0,0,1,22.4,6.92ZM8.07,18,5.21,12.65l6.07.21a11.07,11.07,0,0,1,1.17.1,12.38,12.38,0,0,0,3.47,6.76,12.49,12.49,0,0,0-6.67.08A11.54,11.54,0,0,1,8.07,18Zm2.44,18-6.07-.2,3.21-5.16a11.2,11.2,0,0,1,.68-1,12,12,0,0,0,7.59.38,12.49,12.49,0,0,0-3.27,5.82A11.61,11.61,0,0,1,10.51,36Zm16.77,6.86L24.07,48l-2.86-5.36c-.18-.35-.35-.71-.5-1.07a12.34,12.34,0,0,0,4.13-6.38,12.39,12.39,0,0,0,3.4,5.74A11,11,0,0,1,27.28,42.83ZM41.61,31.74l2.86,5.36-6.07-.21a11.07,11.07,0,0,1-1.17-.1A12.44,12.44,0,0,0,33.76,30,12,12,0,0,0,40.43,30,11.09,11.09,0,0,1,41.61,31.74Z" fill="#231f20"/><path d="M24.22,29.26a1.05,1.05,0,0,0,.11.07l-.22-.27A.56.56,0,0,0,24.22,29.26Z" fill="none"/></g><g id="f0751604-5575-412f-b87c-50aa532c77be" data-name="LABELS"><text transform="translate(0 55.05)" font-size="6" fill="#231f20" font-family="Roboto-Regular, Roboto">poinsettia</text></g></svg>