<svg xmlns="http://www.w3.org/2000/svg" viewBox="0 0 50 50"><g id="a8890b2c-65e8-4b61-8fce-c90b0ceb25b7" data-name="ICONS"><path d="M12.26,12.33l2.44,37h23l2.44-37ZM24.71,35.07c-3.68,0-6.68-2.25-6.68-5s3-5,6.68-5,6.69,2.25,6.69,5S28.4,35.07,24.71,35.07Z" fill="#fdd600"/><path d="M39.59,10.42v-.06a.11.11,0,0,0,0-.08A5.51,5.51,0,0,0,37.94,6.5s0-.06,0-.09a3.9,3.9,0,0,0-5.78-3.47A3,3,0,0,0,27,2.31a3.91,3.91,0,0,0-6.53.18,2.85,2.85,0,0,0-.29,0,5.38,5.38,0,0,0-2.47.62A3,3,0,0,0,12.48,5a2.61,2.61,0,0,0,.09.69,5.47,5.47,0,0,0-2.72,4.56.5.5,0,0,0,0,.12v.19c0,.18,0,.35,0,.53l2.44,37a.51.51,0,0,0,.5.47H36.6a.5.5,0,0,0,.5-.47l2.44-37a5.06,5.06,0,0,0,.05-.68ZM15.27,5.94a3.56,3.56,0,0,1,.47,0l.13,0a.52.52,0,0,0,.5-.25,4.4,4.4,0,0,1,8.19,1.31.51.51,0,0,0,.4.4.53.53,0,0,0,.52-.23,4.41,4.41,0,0,1,3.74-2.1A4.28,4.28,0,0,1,32,6.19a.54.54,0,0,0,.51.08,4.23,4.23,0,0,1,1.62-.33,4.45,4.45,0,0,1,4.38,3.89H10.9A4.44,4.44,0,0,1,15.27,5.94Zm8.56-4.3a3,3,0,0,1,2.94,3,1,1,0,0,1,0,.16,5.68,5.68,0,0,0-1.5,1.14,5.49,5.49,0,0,0-3.64-3.23A3,3,0,0,1,23.83,1.64Zm10.32,3.3a5.4,5.4,0,0,0-1.72.29,5.44,5.44,0,0,0-.83-.51,2.92,2.92,0,0,1,5.24,1A5.34,5.34,0,0,0,34.15,4.94ZM25.21,47.58V36.05a8,8,0,0,0,6.35-3.28l-1,14.81Zm-6.37,0-1-14.81a8,8,0,0,0,6.35,3.28V47.58Zm5.37-36.75V24.07a7.73,7.73,0,0,0-6.67,3.84L16.41,10.83Zm.5,14.22c3.69,0,6.69,2.25,6.69,5s-3,5-6.69,5S18,32.82,18,30.06,21,25.05,24.71,25.05Zm.5-1V10.83H33L31.88,27.91A7.73,7.73,0,0,0,25.21,24.07ZM10.86,10.83h4.55l2.43,36.75H13.29ZM31.59,47.58,34,10.83h4.55L36.14,47.58ZM29.41,2.1a2,2,0,0,1,1.9,1.44,4.39,4.39,0,0,0-.66.82,5.27,5.27,0,0,0-1.43-.22,5.13,5.13,0,0,0-1.47.22,3.88,3.88,0,0,0-.19-1A2,2,0,0,1,29.41,2.1ZM13.48,5A2,2,0,0,1,16.9,3.63,5.83,5.83,0,0,0,15.67,5a2.6,2.6,0,0,0-.4,0,5.23,5.23,0,0,0-1.77.31A2.28,2.28,0,0,1,13.48,5Z" fill="#231f20"/></g><g id="e6f3758c-b01c-4b5f-91a0-e4670ef1de31" data-name="LABELS"><text transform="translate(0 55.01)" font-size="6" fill="#231f20" font-family="Roboto-Regular, Roboto">popcorn</text></g></svg>