<svg xmlns="http://www.w3.org/2000/svg" viewBox="0 0 50 50"><g id="aa8e67c2-a5fe-4f78-bd3f-84082676f23d" data-name="ICONS"><rect x="14.65" y="8.97" width="23.37" height="35.56" fill="#fdd600"/><path d="M36.77,6.22H12.4a.5.5,0,0,0-.5.5V43.28a.5.5,0,0,0,.5.5H36.77a.5.5,0,0,0,.5-.5V6.72A.5.5,0,0,0,36.77,6.22Zm-.5,36.56H12.9V7.22H36.27Z" fill="#231f20"/><path d="M42.14,41.67a.41.41,0,0,0-.16,0,1.2,1.2,0,0,1,0-2.4.5.5,0,0,0,.5-.5V36.21a.56.56,0,0,0-.24-.43A.54.54,0,0,0,42,35.7a1.19,1.19,0,0,1-1.18-1.2A1.18,1.18,0,0,1,42,33.31h0a.51.51,0,0,0,.56-.5l0-2.8s0-.1,0-.12a.49.49,0,0,0-.49-.43,1.19,1.19,0,0,1-1.19-1.2A1.17,1.17,0,0,1,42,27.06h.12a.5.5,0,0,0,.4-.49V24a.51.51,0,0,0-.52-.5,1.17,1.17,0,0,1-1.17-1.2,1.19,1.19,0,0,1,1.25-1.2.51.51,0,0,0,.45-.5V17a.53.53,0,0,0-.52-.5,1.19,1.19,0,0,1-.09-2.38.5.5,0,0,0,.34,0,.48.48,0,0,0,.27-.44V11.05a.53.53,0,0,0-.52-.5,1.2,1.2,0,0,1,0-2.39.59.59,0,0,0,.23-.05.51.51,0,0,0,.3-.46V4.17a.52.52,0,0,0-.37-.49.52.52,0,0,0-.52.09,1.43,1.43,0,0,1-2,0,1.18,1.18,0,0,1-.06-1.66l.08-.1a.5.5,0,0,0-.39-.81h-4a.53.53,0,0,0-.5.52,1.18,1.18,0,1,1-2.35,0,.68.68,0,0,0,0-.14.51.51,0,0,0-.49-.38l-2.52,0a.54.54,0,0,0-.5.53,1.18,1.18,0,0,1-2.35,0,.5.5,0,0,0-.5-.5l-3.56,0a.4.4,0,0,0-.36.14.55.55,0,0,0-.15.36,1.18,1.18,0,1,1-2.35,0,.52.52,0,0,0-.52-.5H16.52a.5.5,0,0,0-.5.5,1.18,1.18,0,1,1-2.35,0,.5.5,0,0,0-.51-.5H9.47A.49.49,0,0,0,9,1.5.49.49,0,0,0,9.08,2l.16.19A1.18,1.18,0,0,1,7.64,4l-.15-.13A.49.49,0,0,0,7,3.74a.51.51,0,0,0-.29.46V7.77A.52.52,0,0,0,7,8.25a.45.45,0,0,0,.16,0,1.18,1.18,0,1,1,0,2.35.5.5,0,0,0-.5.5v2.52a.56.56,0,0,0,.25.43.5.5,0,0,0,.27.08,1.18,1.18,0,0,1,1.17,1.18,1.16,1.16,0,0,1-1.15,1.17h0a.49.49,0,0,0-.4.13.44.44,0,0,0-.16.37l0,2.77s0,.09,0,.11a.51.51,0,0,0,.5.44A1.17,1.17,0,0,1,8.34,21.5a1.15,1.15,0,0,1-1.15,1.18H7.07a.51.51,0,0,0-.4.5v2.52a.53.53,0,0,0,.52.5,1.15,1.15,0,0,1,1.15,1.17,1.18,1.18,0,0,1-1.23,1.19.51.51,0,0,0-.45.49v3.57a.52.52,0,0,0,.52.5,1.18,1.18,0,0,1,.1,2.35.47.47,0,0,0-.35,0,.5.5,0,0,0-.27.44v2.55a.52.52,0,0,0,.53.5,1.18,1.18,0,0,1,0,2.35.64.64,0,0,0-.47.33.48.48,0,0,0-.06.24v4a.49.49,0,0,0,.3.47.51.51,0,0,0,.56-.11,1.19,1.19,0,1,1,1.74,1.63l-.07.1a.5.5,0,0,0,.39.81h4.07a.53.53,0,0,0,.5-.52,1.2,1.2,0,1,1,2.39,0,.51.51,0,0,0,0,.13.49.49,0,0,0,.48.39h0l2.55,0a.54.54,0,0,0,.5-.53,1.2,1.2,0,0,1,2.39,0,.5.5,0,0,0,.5.5l3.61,0a.61.61,0,0,0,.35-.14.51.51,0,0,0,.15-.36,1.2,1.2,0,0,1,2.39,0,.52.52,0,0,0,.53.5h2.53a.5.5,0,0,0,.5-.5,1.2,1.2,0,0,1,2.39,0,.5.5,0,0,0,.51.5h3.73a.5.5,0,0,0,.45-.28.51.51,0,0,0,0-.53l-.16-.19A1.2,1.2,0,0,1,41.53,46l.15.13a.51.51,0,0,0,.54.08.52.52,0,0,0,.29-.46V42.15A.54.54,0,0,0,42.14,41.67Zm-3,3.75a2.17,2.17,0,0,0-.41,2.36H36.37a2.19,2.19,0,0,0-4.27,0H30.42a2.19,2.19,0,0,0-4.27,0l-2.73,0a2.18,2.18,0,0,0-2.14-1.7,2.21,2.21,0,0,0-2.13,1.7l-1.67,0a2.19,2.19,0,0,0-4.28,0H10.45A2.19,2.19,0,0,0,7.66,45V42.31a2.19,2.19,0,0,0,0-4.24V36.43a2.19,2.19,0,0,0,0-4.25V29.51a2.19,2.19,0,0,0,0-4.25V23.63a2.19,2.19,0,0,0,0-4.25l0-1.91a2.18,2.18,0,0,0,0-4.25V11.58a2.17,2.17,0,0,0,0-4.24V5.11a2.18,2.18,0,0,0,2.77-2.89h2.29a2.17,2.17,0,0,0,4.23,0h1.65a2.17,2.17,0,0,0,4.23,0l2.69,0a2.17,2.17,0,0,0,4.23,0l1.65,0a2.17,2.17,0,0,0,4.23,0h2.71a2.14,2.14,0,0,0,.58,2.3A2.39,2.39,0,0,0,41.51,5v2.2a2.21,2.21,0,0,0,0,4.29v1.66a2.21,2.21,0,0,0,0,4.29v2.72a2.2,2.2,0,0,0,0,4.28v1.67a2.2,2.2,0,0,0,0,4.28l0,2a2.2,2.2,0,0,0,0,4.29v1.67a2.2,2.2,0,0,0,0,4.28v2.27A2.18,2.18,0,0,0,39.12,45.42Z" fill="#231f20"/></g><g id="f9f6a017-5128-4c93-8d7a-142483bf09b3" data-name="LABELS"><text transform="translate(-0.54 54.86)" font-size="6" fill="#231f20" font-family="Roboto-Regular, Roboto">postage-stamp</text></g></svg>