<svg id="b5acfa41-fa20-429f-9f7f-e41f481a2fd9" data-name="ICONS" xmlns="http://www.w3.org/2000/svg" viewBox="0 0 50 50"><circle cx="25.5" cy="10.91" r="2.18" fill="#fdd600"/><path d="M33.89,48.65v-.06h0L26.16,13.37a3.16,3.16,0,1,0-2.4,0L16,48.58h0v.06a.57.57,0,0,0,0,.13.32.32,0,0,0,0,.09.36.36,0,0,0,0,.09.34.34,0,0,0,.08.09l0,.05h0a.51.51,0,0,0,.18.09h.11a.46.46,0,0,0,.2-.05l.05,0a.41.41,0,0,0,.13-.1l0,0,8-10.9L33,49l0,0a.41.41,0,0,0,.13.1l.05,0a.46.46,0,0,0,.2.05h.11a.51.51,0,0,0,.18-.09h0l0-.05a.34.34,0,0,0,.08-.09.36.36,0,0,0,0-.09.32.32,0,0,0,0-.09A.57.57,0,0,0,33.89,48.65ZM27.18,10.42A2.18,2.18,0,1,1,25,8.23,2.19,2.19,0,0,1,27.18,10.42ZM25,13.6l.18,0,3.73,17H21l3.73-17A2.3,2.3,0,0,0,25,13.6Zm3.54,18L25,36.42l-3.58-4.85Zm-11,14.94,3.13-14.26,3.7,5ZM29.28,32.25l3.13,14.26-6.83-9.25Z" fill="#231f20"/><path d="M25,5.44a.5.5,0,0,0,.5-.5V1.3a.5.5,0,0,0-1,0V4.94A.5.5,0,0,0,25,5.44Z" fill="#231f20"/><path d="M20.74,6.92a.51.51,0,0,0,.36.15.5.5,0,0,0,.35-.85L18.88,3.65a.5.5,0,0,0-.71,0,.5.5,0,0,0,0,.7Z" fill="#231f20"/><path d="M20,10.46a.5.5,0,0,0-.5-.5H15.89a.5.5,0,0,0-.5.5.5.5,0,0,0,.5.5h3.63A.5.5,0,0,0,20,10.46Z" fill="#231f20"/><path d="M20.8,14l-2.57,2.57a.51.51,0,0,0,0,.71.51.51,0,0,0,.36.15.5.5,0,0,0,.35-.15l2.57-2.57A.5.5,0,0,0,20.8,14Z" fill="#231f20"/><path d="M28.55,13.91a.48.48,0,0,0,0,.7l2.57,2.57a.5.5,0,0,0,.35.15.51.51,0,0,0,.36-.15.5.5,0,0,0,0-.7l-2.57-2.57A.5.5,0,0,0,28.55,13.91Z" fill="#231f20"/><path d="M34.11,9.87H30.48a.5.5,0,0,0-.5.5.5.5,0,0,0,.5.5h3.63a.5.5,0,0,0,.5-.5A.5.5,0,0,0,34.11,9.87Z" fill="#231f20"/><path d="M28.85,7a.54.54,0,0,0,.35-.14L31.77,4.3a.51.51,0,0,0,0-.71.5.5,0,0,0-.71,0L28.49,6.16a.51.51,0,0,0,0,.71A.54.54,0,0,0,28.85,7Z" fill="#231f20"/></svg>