<svg xmlns="http://www.w3.org/2000/svg" viewBox="0 0 50 50"><g id="ad17fef4-c95c-4381-812f-ecf37bff13f6" data-name="ICONS"><path d="M42.49,22a2.46,2.46,0,0,0-2-2.5l.21-.2a2.43,2.43,0,0,0,.15-3.44,2.46,2.46,0,0,0-1.26-.73l1.42-1.3a2.45,2.45,0,0,0,.15-3.45,2.5,2.5,0,0,0-1.32-.74l.21-.2a2.44,2.44,0,1,0-3.3-3.59l-.21.2A2.45,2.45,0,0,0,32.5,4.53l-5.12,4.7a2.42,2.42,0,0,0-.62-1.38,2.45,2.45,0,0,0-1.7-.79,2.42,2.42,0,0,0-1.75.65l-5,4.63a.42.42,0,0,0-.11.13l-.11.08-.2.18A10.1,10.1,0,0,0,14.71,22l-3.27,3,0-.05a.51.51,0,0,0-.35-.17.49.49,0,0,0-.36.13l-3,2.71a.51.51,0,0,0-.17.34.46.46,0,0,0,.13.36l5.23,5.83-.54.49-.05,0a.5.5,0,0,0-.71,0L8.09,37.72a.51.51,0,0,0-.17.34.54.54,0,0,0,.13.37l7.77,8.65a.51.51,0,0,0,.35.17h0a.53.53,0,0,0,.34-.13L20,44a.5.5,0,0,0,0-.71l-.1-.1,3.37-3.09a10.2,10.2,0,0,0,9-2.47l.19-.19.08-.08.15-.12,7.38-6.78a2.44,2.44,0,0,0-1.17-4.19L41.7,23.7A2.43,2.43,0,0,0,42.49,22Zm-7.8,6.77h0L32.27,31a.5.5,0,0,0,0,.71.52.52,0,0,0,.37.16.5.5,0,0,0,.34-.13l2.41-2.22h0l2.1-1.93a1.41,1.41,0,0,1,1-.37,1.44,1.44,0,0,1,1,.46h0a1.41,1.41,0,0,1,.37,1,1.42,1.42,0,0,1-.46,1L32,36.52l-.12.1-.11.12-.14.14a9.22,9.22,0,0,1-8.33,2.18.47.47,0,0,0-.45.12l-3.55,3.25-6.28-7,3.24-3a.49.49,0,0,0,.15-.47,9.1,9.1,0,0,1,2.78-8.65.64.64,0,0,1,.15-.13l.17-.15a1.09,1.09,0,0,1,.1-.11l5-4.63a1.4,1.4,0,0,1,1-.38,1.42,1.42,0,0,1,1,.46,1.44,1.44,0,0,1,.06,1.87s0,0,0,0l-5.33,4.92a.5.5,0,0,0,0,.7.49.49,0,0,0,.71,0l5.43-5h0l6.34-5.82a1.44,1.44,0,0,1,2,2.12h0l-8.76,8a.5.5,0,0,0,.68.73l8.75-8h0l1.66-1.52a1.44,1.44,0,0,1,2,2.12L38.4,20.11h0l-8.75,8a.5.5,0,0,0,0,.71A.49.49,0,0,0,30,29a.46.46,0,0,0,.33-.13l8.76-8h0a1.45,1.45,0,0,1,2,.09,1.47,1.47,0,0,1,.38,1A1.43,1.43,0,0,1,41,23Zm-19.1-6.19a.49.49,0,0,0,.15-.47,9.12,9.12,0,0,1,2.78-8.66l.15-.12.18-.16a.81.81,0,0,1,.09-.1l5-4.64a1.39,1.39,0,0,1,1-.38,1.47,1.47,0,0,1,1,.47,1.43,1.43,0,0,1,.07,1.85l-4.26,3.91a.49.49,0,0,0,0,.68,3.43,3.43,0,0,1,.75,1.65c.31,2.13-1.74,3.72-1.77,3.74a.5.5,0,0,0-.18.31L18.91,22.2l-.11.13-.11.09-.2.17A10.26,10.26,0,0,0,15.27,29l-3.06-3.33ZM34.21,4.89a1.4,1.4,0,0,1,1,.46,1.45,1.45,0,0,1-.08,2h0l-8.75,8a.5.5,0,0,0,0,.71.46.46,0,0,0,.36.16.48.48,0,0,0,.34-.13l8.75-8h0l1.66-1.53a1.44,1.44,0,0,1,2,.09,1.42,1.42,0,0,1,.38,1,1.4,1.4,0,0,1-.46,1l-1.67,1.54-4.19,3.84a3.91,3.91,0,0,0-.41.3L28,19.09a2.31,2.31,0,0,0-.63-1.37,2.43,2.43,0,0,0-1.69-.79,2.39,2.39,0,0,0-1.75.64l-.52.48a3.94,3.94,0,0,0,.07-1.58,4.25,4.25,0,0,0-.68-1.74l3.9-3.58.12-.07,6.33-5.81A1.42,1.42,0,0,1,34.21,4.89Zm3.64,10.53a2.26,2.26,0,0,0-.41.3l-.21.2a2.5,2.5,0,0,0-.63-1.38,2.38,2.38,0,0,0-1.26-.72L38.43,11h0a1.43,1.43,0,0,1,2,.09,1.43,1.43,0,0,1-.09,2ZM8.72,28.07,11,26l4.24,4.72a9,9,0,0,0,.13,1.15l-1.75,1.61Zm7.51,18-7.1-7.91,2.61-2.35a.56.56,0,0,0,0,.08l7,7.67.11.08Z"/></g><g id="bee77ba4-58d9-4e69-a159-6e20826ff386" data-name="LABELS"><text transform="translate(0.62 55.06)" font-size="6" font-family="Roboto-Regular, Roboto">ppe-gl<tspan x="16.39" y="0" letter-spacing="-0.01em">o</tspan><tspan x="19.77" y="0" letter-spacing="-0.01em">v</tspan><tspan x="22.63" y="0">es</tspan></text></g></svg>