<svg xmlns="http://www.w3.org/2000/svg" viewBox="0 0 50 50"><g id="b0bb2921-8ea2-457f-946d-8d3ec08fb7a9" data-name="ICONS"><path d="M33.14,5.16a3.87,3.87,0,0,0-1.89,1.18A6.65,6.65,0,0,1,26.7,8.5a6.49,6.49,0,0,1-4.5-2.19c-.68-.62-1.27-1.16-1.85-1.19C18,5,15.09,5.54,13.52,10.7,12.17,15.12,11.45,24,11.29,26.22h5.44a.51.51,0,0,1,.5.51l-.3,20.63a68.48,68.48,0,0,0,9.82,1,50.1,50.1,0,0,0,6.85-.51h0c1.34-.19,2.41-.37,3-.47l-.3-20.63a.51.51,0,0,1,.14-.36.49.49,0,0,1,.36-.15h5.44C42,24,41.33,15.17,40,10.74,38.41,5.58,35.5,5.05,33.14,5.16Z" fill="#fdd600"/><path d="M39.19,8.7c-1.35-4.42-3.91-6.47-7.84-6.29a4.43,4.43,0,0,0-2.51,1.44A5.8,5.8,0,0,1,25,5.75a5.58,5.58,0,0,1-3.83-1.93,4.32,4.32,0,0,0-2.48-1.45c-3.94-.19-6.49,1.87-7.84,6.29-1.58,5.18-2.28,15.83-2.3,16.28a.52.52,0,0,0,.13.38.49.49,0,0,0,.36.15h5.47L14.17,46a.51.51,0,0,0,.41.5A71.79,71.79,0,0,0,25,47.64h.31A52.06,52.06,0,0,0,32,47.12c2-.27,3.42-.56,3.43-.56a.51.51,0,0,0,.41-.5l-.3-20.54H41a.5.5,0,0,0,.36-.16A.52.52,0,0,0,41.5,25C41.47,24.54,40.77,13.88,39.19,8.7Zm-3.7,15.82L35,11.45a.5.5,0,1,0-1,0l.5,13.33a.58.58,0,0,0,0,.14s0,0,0,.07l.3,20.63c-.55.1-1.63.28-3,.47h0a50.23,50.23,0,0,1-6.85.51,68.49,68.49,0,0,1-9.83-1l.21-14.18a.63.63,0,0,0,.1-.27L16,17.38a.5.5,0,0,0-.48-.52.49.49,0,0,0-.52.48l-.26,7.13H9.54c.16-2.25.88-11.1,2.23-15.52,1.57-5.16,4.48-5.69,6.83-5.58.58,0,1.17.57,1.86,1.19A6.44,6.44,0,0,0,25,6.75a6.67,6.67,0,0,0,4.55-2.16A3.83,3.83,0,0,1,31.4,3.41c2.35-.11,5.26.42,6.83,5.58,1.35,4.43,2.07,13.27,2.23,15.53Z" fill="#231f20"/><path d="M31.33,28.43a.5.5,0,0,0-.5.5V42.64a.5.5,0,0,0,.5.5.5.5,0,0,0,.5-.5V28.93A.5.5,0,0,0,31.33,28.43Z" fill="#231f20"/><path d="M27.37,35.42a.5.5,0,0,0-.5.5v3.94a.5.5,0,0,0,.5.5.5.5,0,0,0,.5-.5V35.92A.5.5,0,0,0,27.37,35.42Z" fill="#231f20"/></g><g id="aa381121-a510-45e5-af21-60d6fb46e3c5" data-name="LABELS"><text transform="translate(0.22 55.07)" font-size="6" fill="#231f20" font-family="Roboto-Regular, Roboto">ppe-gown</text></g></svg>