<svg xmlns="http://www.w3.org/2000/svg" viewBox="0 0 50 50"><g id="a98231f3-43f0-48e0-be58-e5fa116acbdd" data-name="ICONS"><path d="M7.71,33.2a.54.54,0,0,1-.35-.14.5.5,0,0,1,0-.71l6-6.09a.5.5,0,0,1,.53-.12l4.73,1.79,8.49-9.39a.5.5,0,0,1,.53-.13l6.85,2.33,7-8.45a.5.5,0,1,1,.77.63L35,21.64a.49.49,0,0,1-.54.15l-6.87-2.33-8.5,9.39a.5.5,0,0,1-.55.14l-4.73-1.8L8.07,33.05A.51.51,0,0,1,7.71,33.2Z"/><path d="M44.47,5H25.25V1.43h.84a.5.5,0,0,0,.5-.5.5.5,0,0,0-.5-.5H23.41a.5.5,0,0,0-.5.5.5.5,0,0,0,.5.5h.84V5H5a.5.5,0,0,0-.5.5V33a.5.5,0,0,0,.5.5H20.3l-7.72,15h-1a.5.5,0,0,0,0,1h2.68a.5.5,0,0,0,0-1h-.52l7.72-15h2.82v15h-.84a.5.5,0,0,0,0,1h2.68a.5.5,0,0,0,0-1h-.84v-15H28.3l7.71,15h-.52a.5.5,0,0,0,0,1h2.69a.5.5,0,0,0,0-1h-1l-7.72-15h15A.5.5,0,0,0,45,33V5.54A.5.5,0,0,0,44.47,5ZM44,32.52H5.53V6H44Z"/></g><g id="e4a45705-68e6-4421-a04b-4ed97698eca3" data-name="LABELS"><text transform="translate(-0.06 54.74)" font-size="6" font-family="Roboto-Regular, Roboto">p<tspan x="3.37" y="0" letter-spacing="-0.01em">r</tspan><tspan x="5.34" y="0">esentation-g</tspan><tspan x="38.5" y="0" letter-spacing="-0.01em">r</tspan><tspan x="40.47" y="0">owth</tspan></text></g></svg>