<svg id="a11a2dd6-cc91-4819-b21b-9147ef5e20fb" data-name="ICONS" xmlns="http://www.w3.org/2000/svg" viewBox="0 0 50 50"><path d="M44.28,15a.13.13,0,0,0,0-.06.57.57,0,0,0-.12-.23L31,1.48a.56.56,0,0,0-.23-.12H9a.5.5,0,0,0-.5.5V48.16a.5.5,0,0,0,.5.5H43.8a.5.5,0,0,0,.5-.5V15A.14.14,0,0,0,44.28,15ZM9.47,47.66V2.34H30.1V15a.5.5,0,0,0,.5.5H43.3V47.66ZM31.1,14.54V3l11.49,11.5Z"/><path d="M15.83,13.61h1.82l1.67,3.13h1.1v-.07L18.6,13.4a2.43,2.43,0,0,0,1.09-.8,2.1,2.1,0,0,0,.39-1.26,2.14,2.14,0,0,0-.71-1.73,3,3,0,0,0-2-.59H14.81v7.72h1Zm0-3.76h1.56a1.79,1.79,0,0,1,1.24.39,1.4,1.4,0,0,1,.42,1.1,1.33,1.33,0,0,1-.45,1.05,1.75,1.75,0,0,1-1.2.39H15.83Z"/><polygon points="22.11 16.74 24.02 13.72 25.92 16.74 27.13 16.74 24.63 12.85 27.07 9.02 25.87 9.02 24.02 11.97 22.16 9.02 20.97 9.02 23.41 12.85 20.91 16.74 22.11 16.74"/><path d="M38.74,21.44H15a.5.5,0,0,0-.5.5.5.5,0,0,0,.5.5H38.74a.5.5,0,0,0,.5-.5A.5.5,0,0,0,38.74,21.44Z"/><path d="M38.74,26.68H15a.5.5,0,1,0,0,1H38.74a.5.5,0,0,0,0-1Z"/><path d="M38.74,32.44H15a.5.5,0,1,0,0,1H38.74a.5.5,0,1,0,0-1Z"/><path d="M38.74,37.68H15a.5.5,0,0,0-.5.5.5.5,0,0,0,.5.5H38.74a.5.5,0,0,0,.5-.5A.5.5,0,0,0,38.74,37.68Z"/></svg>