<svg xmlns="http://www.w3.org/2000/svg" viewBox="0 0 50 50"><g id="ac709388-346a-435e-8556-e143d80173b1" data-name="ICONS"><path d="M37.54,17.17A2.95,2.95,0,0,0,32.65,15v-9a2.94,2.94,0,0,0-4.89-2.21V3.07a2.95,2.95,0,0,0-5.89,0v.65A2.94,2.94,0,0,0,17,5.93v5a2.95,2.95,0,0,0-4.89,2.21V25.81a.86.86,0,0,0,0,.23v.18c0,.1,0,.21,0,.32a12.71,12.71,0,0,0,5.34,10.35V49a.51.51,0,0,0,.5.5H31.06a.5.5,0,0,0,.5-.5V37.31a12.72,12.72,0,0,0,6-10.77c0-.12,0-.23,0-.34v-.15a1.79,1.79,0,0,0,0-.24Zm-7,31.32H18.43v-11a12.65,12.65,0,0,0,12.13.35Zm6-22.68a.41.41,0,0,1,0,.11v.35c0,.09,0,.18,0,.27a11.73,11.73,0,0,1-23.45,0,2,2,0,0,1,0-.25V13.18a1.95,1.95,0,0,1,3.89,0v3.59h0v4.14a.5.5,0,0,0,.5.5.51.51,0,0,0,.5-.5V15.36h0V5.93a1.95,1.95,0,1,1,3.89,0h0v15a.5.5,0,0,0,.5.5.51.51,0,0,0,.5-.5v-15h0V3.07a1.95,1.95,0,0,1,3.89,0V20.91a.5.5,0,0,0,1,0v-15a1.95,1.95,0,1,1,3.89,0V16.77l0,.3v6.65a5.25,5.25,0,0,0-2.27.85C26.64,26.45,27,30.27,27,30.43a.49.49,0,0,0,.49.45h.05a.49.49,0,0,0,.45-.54S27.68,27,30,25.4a4.38,4.38,0,0,1,2.24-.73.51.51,0,0,0,.47-.5V16.85a1.94,1.94,0,0,1,3.85.32Z"/></g><g id="ba4ce140-267d-4774-9395-4b12ab69fa9f" data-name="LABELS"><text transform="translate(0.31 54.83)" font-size="6" font-family="Roboto-Regular, Roboto"><tspan letter-spacing="-0.02em">r</tspan><tspan x="1.91" y="0">aised-hand</tspan></text></g></svg>