<svg xmlns="http://www.w3.org/2000/svg" viewBox="0 0 50 50"><g id="ac8b816b-2b05-497b-b9b3-7955a205c509" data-name="ICONS"><path d="M22.65,3v9H3.12V49.5H49.37V3ZM16.42,42.14a1.3,1.3,0,0,1-1.3,1.29H6.65a1.29,1.29,0,0,1-1.29-1.29V41.8a1.29,1.29,0,0,1,1.29-1.29h8.47a1.3,1.3,0,0,1,1.3,1.29Zm0-8.48A1.3,1.3,0,0,1,15.12,35H6.65a1.29,1.29,0,0,1-1.29-1.29v-.34A1.29,1.29,0,0,1,6.65,32h8.47a1.3,1.3,0,0,1,1.3,1.29Zm0-8.48a1.29,1.29,0,0,1-1.3,1.29H6.65a1.29,1.29,0,0,1-1.29-1.29v-.34a1.29,1.29,0,0,1,1.29-1.29h8.47a1.3,1.3,0,0,1,1.3,1.29Zm0-8.48a1.3,1.3,0,0,1-1.3,1.3H6.65a1.3,1.3,0,0,1-1.29-1.3v-.34a1.29,1.29,0,0,1,1.29-1.29h8.47a1.3,1.3,0,0,1,1.3,1.29ZM31.77,41.27H25.48V35h6.29Zm0-13.37H25.48V21.61h6.29Zm0-13.38H25.48V8.23h6.29ZM43.54,41.27H37.25V35h6.29Zm0-13.37H37.25V21.61h6.29Zm0-13.38H37.25V8.23h6.29Z" fill="#fdd600"/><path d="M48.38.5H20.65a.5.5,0,0,0-.5.5V9.5h-19a.5.5,0,0,0-.5.5V48.5a.5.5,0,0,0,.5.5H48.38a.5.5,0,0,0,.5-.5V1A.5.5,0,0,0,48.38.5ZM20.15,48H1.63V10.5H20.15Zm27.73,0H21.15V1.5H47.88Z" fill="#231f20"/><path d="M44,7.23H36.75a.5.5,0,0,0-.5.5V15a.5.5,0,0,0,.5.5H44a.5.5,0,0,0,.5-.5V7.73A.5.5,0,0,0,44,7.23Zm-.5,7.29H37.25V8.23h6.29Z" fill="#231f20"/><path d="M44,20.61H36.75a.5.5,0,0,0-.5.5V28.4a.5.5,0,0,0,.5.5H44a.5.5,0,0,0,.5-.5V21.11A.5.5,0,0,0,44,20.61Zm-.5,7.29H37.25V21.61h6.29Z" fill="#231f20"/><path d="M44,34H36.75a.5.5,0,0,0-.5.5v7.29a.5.5,0,0,0,.5.5H44a.5.5,0,0,0,.5-.5V34.48A.5.5,0,0,0,44,34Zm-.5,7.29H37.25V35h6.29Z" fill="#231f20"/><path d="M32.27,7.23H25a.5.5,0,0,0-.5.5V15a.51.51,0,0,0,.5.5h7.29a.5.5,0,0,0,.5-.5V7.73A.5.5,0,0,0,32.27,7.23Zm-.5,7.29H25.48V8.23h6.29Z" fill="#231f20"/><path d="M32.27,20.61H25a.5.5,0,0,0-.5.5V28.4a.51.51,0,0,0,.5.5h7.29a.5.5,0,0,0,.5-.5V21.11A.5.5,0,0,0,32.27,20.61Zm-.5,7.29H25.48V21.61h6.29Z" fill="#231f20"/><path d="M32.27,34H25a.51.51,0,0,0-.5.5v7.29a.5.5,0,0,0,.5.5h7.29a.5.5,0,0,0,.5-.5V34.48A.5.5,0,0,0,32.27,34Zm-.5,7.29H25.48V35h6.29Z" fill="#231f20"/><path d="M15.12,31H6.65a2.3,2.3,0,0,0-2.29,2.29v.34A2.29,2.29,0,0,0,6.65,36h8.47a2.29,2.29,0,0,0,2.3-2.29v-.34A2.3,2.3,0,0,0,15.12,31Zm1.3,2.63A1.3,1.3,0,0,1,15.12,35H6.65a1.29,1.29,0,0,1-1.29-1.29v-.34A1.29,1.29,0,0,1,6.65,32h8.47a1.3,1.3,0,0,1,1.3,1.29Z" fill="#231f20"/><path d="M15.12,14.07H6.65a2.3,2.3,0,0,0-2.29,2.29v.34A2.3,2.3,0,0,0,6.65,19h8.47a2.3,2.3,0,0,0,2.3-2.3v-.34A2.3,2.3,0,0,0,15.12,14.07Zm1.3,2.63a1.3,1.3,0,0,1-1.3,1.3H6.65a1.3,1.3,0,0,1-1.29-1.3v-.34a1.29,1.29,0,0,1,1.29-1.29h8.47a1.3,1.3,0,0,1,1.3,1.29Z" fill="#231f20"/><path d="M15.12,22.55H6.65a2.3,2.3,0,0,0-2.29,2.29v.34a2.29,2.29,0,0,0,2.29,2.29h8.47a2.29,2.29,0,0,0,2.3-2.29v-.34A2.3,2.3,0,0,0,15.12,22.55Zm1.3,2.63a1.29,1.29,0,0,1-1.3,1.29H6.65a1.29,1.29,0,0,1-1.29-1.29v-.34a1.29,1.29,0,0,1,1.29-1.29h8.47a1.3,1.3,0,0,1,1.3,1.29Z" fill="#231f20"/><path d="M15.12,39.51H6.65A2.3,2.3,0,0,0,4.36,41.8v.34a2.29,2.29,0,0,0,2.29,2.29h8.47a2.29,2.29,0,0,0,2.3-2.29V41.8A2.3,2.3,0,0,0,15.12,39.51Zm1.3,2.63a1.3,1.3,0,0,1-1.3,1.29H6.65a1.29,1.29,0,0,1-1.29-1.29V41.8a1.29,1.29,0,0,1,1.29-1.29h8.47a1.3,1.3,0,0,1,1.3,1.29Z" fill="#231f20"/></g><g id="a75b92af-18d7-4dfa-a5ff-3bd602e6c915" data-name="LABELS"><text transform="translate(0.44 54.92)" font-size="6" fill="#231f20" font-family="Roboto-Regular, Roboto"><tspan letter-spacing="-0.01em">r</tspan><tspan x="1.97" y="0">esidence-hall</tspan></text></g></svg>