<svg xmlns="http://www.w3.org/2000/svg" viewBox="0 0 50 50"><g id="f12ce762-22b6-484b-9cba-adc817038fb6" data-name="ICONS"><path d="M18,44.54a.53.53,0,0,0-.17,0l2.53,3.6.12-.47-2.08-3A.49.49,0,0,0,18,44.54Z" fill="none"/><path d="M37.1,32.61l-.6-2.28a15.74,15.74,0,1,0-20.57-.08c.24.21.5.41.76.61Q14.5,39,12.32,47.18l2.18-1,3.25-1.55a.54.54,0,0,1,.21-.05.49.49,0,0,1,.41.22l.93,1.32,2.53,3.6.12-.47,3.33-12.78.24-.94.35-1.37.39,0c.33,0,.65,0,1,0l.39,1.58,3.8,14,.81-1.16,2.65-3.77a.49.49,0,0,1,.62-.17l5.43,2.59L37.38,33.65ZM29.61,14.76l3.16.94-1.13,1.1-2.4,2.34.89,5.17a.48.48,0,0,1-.16.42s0,.05,0,.06a.49.49,0,0,1-.53,0L25.92,23l-1.16-.61-2.44,1.28-2.2,1.16a.46.46,0,0,1-.23.06.47.47,0,0,1-.3-.1s0,0,0-.05l1.14-4L20.14,20l.14-.83-3.15-3.08A2.62,2.62,0,0,1,18,14.84l4.59-.39q1-2.2,1.9-4.43a4.23,4.23,0,0,1,1.26.19l1.81,3.66,1.62.24Z" fill="#fdd600"/><path d="M25,34.11h.05l0-.1Z" fill="#231f20"/><path d="M36.44,30.44l-.33-1.29a16.7,16.7,0,0,0,5.37-12.26A16.74,16.74,0,0,0,8,16.89a16.7,16.7,0,0,0,6,12.84L9.56,46.47a.49.49,0,0,0,.16.51.51.51,0,0,0,.54.07l2.38-1.14,3.64-1.73.58.83,3.25,4.63a.51.51,0,0,0,.41.21h.09a.48.48,0,0,0,.39-.36l.18-.69,3.57-13.73.25-1L25,34l0,.1.27,1,.14.54,3.75,13.84a.51.51,0,0,0,.4.36h.09a.52.52,0,0,0,.41-.21l.94-1.35,2.89-4.11,1.07.51,5,2.36a.5.5,0,0,0,.51-.06h0a.49.49,0,0,0,.16-.51l-3.92-15ZM24,34l-.24.94L20.43,47.71l-.12.47-2.53-3.6-.93-1.32a.49.49,0,0,0-.41-.22.54.54,0,0,0-.21.05L13,44.64l-2.17,1,4-15.26.46.31.13.08a14.53,14.53,0,0,0,1.3.79l0,0q.7.38,1.44.69l.09,0,.48.19-.19.74L17,39.33a.5.5,0,0,0,.35.61l.13,0a.5.5,0,0,0,.48-.37l1.59-5.88.23-.84.23.06.61.16.6.15.28.07c.51.1,1,.18,1.52.23l.25,0c.29,0,.58,0,.88.06Zm.74-1.35a14.76,14.76,0,0,1-1.5-.08l-.4-.05c-.36,0-.72-.1-1.07-.16l-.47-.1c-.33-.08-.65-.16-1-.26l-.44-.13c-.34-.11-.68-.24-1-.37l-.33-.14a15.87,15.87,0,0,1-4.12-2.6,15.73,15.73,0,1,1,20.46.18l-.27.22c-.27.22-.56.43-.85.64l-.33.23c-.34.22-.68.42-1,.62a1.18,1.18,0,0,0-.19.11q-.64.34-1.32.63l-.18.07A15.62,15.62,0,0,1,24.74,32.64ZM34,43.09a.51.51,0,0,0-.62.17L30.71,47l-.81,1.16-3.8-14L26,33.64a17.47,17.47,0,0,0,3.74-.75h0l.56-.18.24.88.26,1,1.36,5a.5.5,0,0,0,.48.37l.13,0a.49.49,0,0,0,.35-.61l-1.36-5.07-.27-1-.25-.94.05,0,.14-.06c.42-.18.82-.38,1.22-.6l.24-.13c.37-.21.73-.42,1.08-.66l.22-.14c.37-.26.74-.53,1.1-.81l.31,1.2.28,1,3.55,13.53Z" fill="#231f20"/><path d="M38,16.89a13.29,13.29,0,1,0-13.3,13.3A13.24,13.24,0,0,0,38,16.89Zm-13.3,12.3a12.3,12.3,0,0,1,0-24.6,12.14,12.14,0,0,1,4.68.94,12.29,12.29,0,0,1-4.68,23.66Z" fill="#231f20"/><path d="M32.69,14.63l-5.18-.76-2.32-4.7a.52.52,0,0,0-.9,0L22,13.87l-5.19.76a.51.51,0,0,0-.4.34.49.49,0,0,0,.13.51l3.75,3.66-.88,5.17a.48.48,0,0,0,.19.48.49.49,0,0,0,.3.1.46.46,0,0,0,.23-.06l2.2-1.16,2.44-1.28L25.9,23l3.48,1.83a.49.49,0,0,0,.53,0s0,0,0-.06a.48.48,0,0,0,.16-.42l-.89-5.17,2.4-2.34L33,15.48A.49.49,0,0,0,33.1,15,.5.5,0,0,0,32.69,14.63Zm-2.32,2-2,2a.48.48,0,0,0-.14.44L29,23.48l-4-2.09a.47.47,0,0,0-.46,0l-2,1-2,1.05.76-4.43a.51.51,0,0,0-.08-.34.33.33,0,0,0-.06-.1L19.51,17l-1.58-1.54,4.45-.64a.51.51,0,0,0,.37-.28l2-4,1.15,2.33.84,1.69a.51.51,0,0,0,.37.28l.58.08,3.87.56Z" fill="#231f20"/></g><g id="e4b7b815-b584-4780-b13d-066531d13807" data-name="LABELS"><text transform="translate(-0.1 54.62)" font-size="6" fill="#231f20" font-family="Roboto-Regular, Roboto">ribbon</text></g></svg>