<svg xmlns="http://www.w3.org/2000/svg" viewBox="0 0 50 50"><g id="bb9cc45c-49a8-4e04-bc72-2822d05f5e32" data-name="ICONS"><path d="M32.53,31.52l-5-.76-2.2-4.54a.52.52,0,0,0-.45-.29h0a.5.5,0,0,0-.45.28l-2.27,4.51-5,.69a.51.51,0,0,0-.41.34.5.5,0,0,0,.12.51l3.6,3.55-.89,5a.49.49,0,0,0,.19.49.51.51,0,0,0,.53,0L24.79,39l4.46,2.38a.46.46,0,0,0,.23.06.5.5,0,0,0,.5-.58l-.82-5,3.64-3.5a.49.49,0,0,0,.13-.51A.5.5,0,0,0,32.53,31.52Zm-4.25,3.82a.49.49,0,0,0-.15.44L28.82,40,25,38a.47.47,0,0,0-.46,0l-3.82,2,.76-4.23a.54.54,0,0,0-.14-.44l-3.06-3,4.26-.58a.56.56,0,0,0,.38-.27l1.93-3.85,1.87,3.87a.51.51,0,0,0,.38.28l4.25.65Z"/><path d="M48.34,6.91a.5.5,0,0,0-.23-.3L37.64.56A.51.51,0,0,0,37,.75L26.76,18.41a14.17,14.17,0,0,0-3.83,0L12.74.75a.51.51,0,0,0-.69-.19L1.58,6.61a.47.47,0,0,0-.23.3.5.5,0,0,0,0,.38L11.87,25.42a15.19,15.19,0,0,0-2.43,8.27,15.41,15.41,0,1,0,28.38-8.27L48.29,7.29A.5.5,0,0,0,48.34,6.91ZM2.52,7.22l9.6-5.54,9.75,16.89a15.33,15.33,0,0,0-5,1.94l-4.72-8.16a.5.5,0,1,0-.86.5l4.73,8.2a15.54,15.54,0,0,0-3.55,3.46ZM39.25,33.69A14.41,14.41,0,1,1,24.84,19.28,14.43,14.43,0,0,1,39.25,33.69Zm-2.06-9.18A15.27,15.27,0,0,0,33.7,21.1l4.76-8.25a.5.5,0,1,0-.86-.5l-4.74,8.2a15.56,15.56,0,0,0-5-2L37.57,1.68l9.6,5.54Z"/><path d="M24.84,21.28A12.41,12.41,0,1,0,37.25,33.69,12.42,12.42,0,0,0,24.84,21.28Zm0,23.81a11.41,11.41,0,1,1,11.41-11.4A11.41,11.41,0,0,1,24.84,45.09Z"/></g><g id="afb6d1e9-65db-4905-899a-875ebf01273a" data-name="LABELS"><text transform="translate(-0.1 54.62)" font-size="6" font-family="Roboto-Regular, Roboto">ribbon-two</text></g></svg>