<svg xmlns="http://www.w3.org/2000/svg" viewBox="0 0 50 50"><g id="b4a24e8a-34e5-4ac3-bdeb-aa7d3cf54be7" data-name="ICONS"><path d="M18.36,9.9a14.42,14.42,0,0,0-9.13,3.25A14.41,14.41,0,0,0,6,31.67a13.7,13.7,0,0,0,1.82,2.44A14.42,14.42,0,1,0,18.36,9.9Zm.06,26.52A12,12,0,0,1,10,33a11.83,11.83,0,0,1-2-2.54,12,12,0,0,1,2.75-15.35,12.35,12.35,0,0,1,3-1.81,12,12,0,1,1,4.61,23.15Z" fill="#fdd600"/><path d="M35.15,14.82a14.18,14.18,0,0,0-6.23,1.42,14.34,14.34,0,0,0-8.19,13,14.32,14.32,0,0,0,2,7.35A13.69,13.69,0,0,0,24.57,39,14.42,14.42,0,1,0,35.15,14.82Zm.06,26.52a12,12,0,0,1-8.44-3.45,11.59,11.59,0,0,1-2-2.54A12,12,0,0,1,27.56,20a12.45,12.45,0,0,1,3-1.82,12,12,0,1,1,4.61,23.15Z" fill="#fdd600"/><path d="M33.4,12.07a15.07,15.07,0,0,0-4.79.78,15.4,15.4,0,0,0-12-5.77,15.56,15.56,0,0,0-9.76,3.48A15.41,15.41,0,0,0,3.34,30.37a15.16,15.16,0,0,0,2,2.61,15.46,15.46,0,0,0,11.32,5,15.22,15.22,0,0,0,4.79-.78c.23.28.44.55.68.81A15.42,15.42,0,1,0,33.4,12.07ZM22.82,37.28A13.69,13.69,0,0,1,21,34.85a14.45,14.45,0,0,1,3.28-18.53,14.49,14.49,0,0,1,2.9-1.83,14.18,14.18,0,0,1,6.23-1.42A14.43,14.43,0,1,1,22.82,37.28Zm.82-21.73a15.44,15.44,0,0,0-4.52,17.77A11,11,0,0,1,8.93,30.44a10.61,10.61,0,0,1-1.8-2.33,11,11,0,0,1-1.49-5.54,11.07,11.07,0,0,1,4-8.53,11.5,11.5,0,0,1,2.79-1.66,11,11,0,0,1,12.12,2.5C24.25,15.1,23.93,15.31,23.64,15.55Zm-7,21.38A14.44,14.44,0,0,1,6,32.29,13.64,13.64,0,0,1,4.2,29.86,14.42,14.42,0,0,1,10.38,9.5a14.15,14.15,0,0,1,6.23-1.42,14.38,14.38,0,0,1,11,5.14c-.29.12-.59.23-.88.37-.46.22-.9.47-1.33.73a12,12,0,0,0-8.74-3.78,12,12,0,0,0-12,12,11.92,11.92,0,0,0,1.63,6,11.36,11.36,0,0,0,2,2.54,12,12,0,0,0,8.44,3.45,11.73,11.73,0,0,0,2.86-.36c.19.38.38.76.6,1.12s.42.64.64,1A14.34,14.34,0,0,1,16.61,36.93Z" fill="#231f20"/><path d="M33.46,15.53a12,12,0,0,0-4.61.91,12.45,12.45,0,0,0-3,1.82A12,12,0,0,0,23.06,33.6a11.59,11.59,0,0,0,2,2.54,12,12,0,1,0,8.44-20.61Zm-7.74,19.9c-.09-.1-.17-.21-.27-.31a15.33,15.33,0,0,0,5.48-18.29,11.29,11.29,0,0,1,2.53-.3,11,11,0,1,1-7.74,18.9Zm2-12.86a11,11,0,0,1-4.54,8.9A11,11,0,0,1,26.44,19c.17-.13.36-.24.53-.37A11,11,0,0,1,27.7,22.57Zm1,0a12,12,0,0,0-.88-4.49,13.37,13.37,0,0,1,1.41-.72c.24-.1.49-.18.73-.26a14.34,14.34,0,0,1-5.17,17.27,11.9,11.9,0,0,1-.87-1.27,7.56,7.56,0,0,1-.34-.7A12,12,0,0,0,28.7,22.57Z" fill="#231f20"/></g><g id="a92f39d4-8000-4fe0-817a-4e72c9a3aec7" data-name="LABELS"><text transform="translate(-0.22 54.91)" font-size="6" fill="#231f20" font-family="Roboto-Regular, Roboto">rings</text></g></svg>