<svg xmlns="http://www.w3.org/2000/svg" viewBox="0 0 50 50"><g id="befeae7b-b369-4b3e-9b90-410da019f8da" data-name="ICONS"><path d="M47.61,18.34a3.36,3.36,0,0,1-.91-1.56,3.89,3.89,0,0,1,.41-1.88c.21-.52.44-1.1.3-1.35s-.82-.36-1.44-.42a4.24,4.24,0,0,1-1.63-.38,4.09,4.09,0,0,1-1.15-1.22c-.35-.48-.74-1-1.09-1h0c-.28,0-.67.5-1,.94a3.92,3.92,0,0,1-1.42,1.31,3.47,3.47,0,0,1-1.81,0,5.82,5.82,0,0,0-1-.12,1.31,1.31,0,0,0-.54.13,3.68,3.68,0,0,0-1.33.92,9.68,9.68,0,0,0-2-4.22,9.85,9.85,0,0,0-2.27,1.59v0a2.62,2.62,0,0,0-1-1.17,9.61,9.61,0,0,0-.91-.35,3.8,3.8,0,0,1-1.4-.73A3.18,3.18,0,0,1,27,7.15c-.05-.35-.12-.93-.27-1s-.71.16-1.09.35A3.4,3.4,0,0,1,24.2,7a3,3,0,0,1-1.4-.43,3.11,3.11,0,0,0-1-.35.25.25,0,0,0-.13,0c-.15.09-.2.68-.24,1A3.21,3.21,0,0,1,21,8.86a2.85,2.85,0,0,1-1.38.78c-.43.14-1,.32-1,.56s.17.65.34,1a2.82,2.82,0,0,1,.46,1.69.26.26,0,0,1,0,.11,3.92,3.92,0,0,1-.47,1,10.71,10.71,0,0,0-2.33-1.07,10.5,10.5,0,0,0-.52,1,12.14,12.14,0,0,0-.73,2.22h0a.56.56,0,0,0-.05-.23c-.16-.2-.71-.24-1.16-.26a2.85,2.85,0,0,1-1.53-.37,3.31,3.31,0,0,1-.87-1.42c-.14-.35-.35-.87-.52-.92s-.64.31-1,.6A3.32,3.32,0,0,1,9,14.36a3.43,3.43,0,0,1-1.45-.07,5,5,0,0,0-.81-.11.48.48,0,0,0-.33.09c-.13.13,0,.69,0,1.06a3.2,3.2,0,0,1,0,1.66,2.83,2.83,0,0,1-1.13,1.09c-.37.25-.83.56-.86.81s.32.6.57.9a2.9,2.9,0,0,1,.84,1.51,2.73,2.73,0,0,1-.58,1.55c-.23.37-.51.83-.45,1.06s.54.49.93.7a4.19,4.19,0,0,1,1,.64H45c0,.26,0,.5,0,.75h.41a1.73,1.73,0,0,0,1-.5h0c.17-.3,0-.92-.15-1.47a3.32,3.32,0,0,1-.17-1.9,3.59,3.59,0,0,1,1.37-1.48c.43-.32.92-.69,1-1S48,18.79,47.61,18.34Z" fill="#fdd600"/><path d="M46.63,15.94a2.91,2.91,0,0,1-.69-1,3.29,3.29,0,0,1,.35-1.38,2.61,2.61,0,0,0,.24-2.2c-.43-.76-1.38-.85-2.21-.93a3.29,3.29,0,0,1-1.23-.25,3.39,3.39,0,0,1-.84-.93c-.49-.68-1-1.45-1.9-1.45h0c-.76,0-1.28.68-1.78,1.32a3.16,3.16,0,0,1-1,1A2.79,2.79,0,0,1,36.28,10a2.92,2.92,0,0,0-2.31.21,1.5,1.5,0,0,0-.11.13,10.85,10.85,0,0,0-2.05-3.59.51.51,0,0,0-.59-.13,11.81,11.81,0,0,0-2.14,1.29.07.07,0,0,0,0,0c-.28-.66-1-.88-1.68-1.09a2.34,2.34,0,0,1-.92-.4,2.66,2.66,0,0,1-.28-1.1c-.09-.71-.18-1.43-.76-1.77s-1.4,0-2.05.33a2.78,2.78,0,0,1-.94.37h0a2.89,2.89,0,0,1-.95-.34c-.66-.31-1.4-.66-2.05-.26s-.65,1.08-.71,1.79a2.82,2.82,0,0,1-.24,1.11,2.49,2.49,0,0,1-.91.43c-.65.22-1.39.48-1.65,1.14A2.33,2.33,0,0,0,16.3,9.9a3.29,3.29,0,0,1,.36,1,11.63,11.63,0,0,0-1.94-.75.5.5,0,0,0-.56.21A12.2,12.2,0,0,0,12.94,13l-.52,0a2.43,2.43,0,0,1-1-.17,2.74,2.74,0,0,1-.55-1c-.26-.66-.54-1.33-1.18-1.51s-1.36.33-1.9.8a3,3,0,0,1-.83.59,2.89,2.89,0,0,1-1-.09c-.71-.13-1.52-.28-2.05.26s-.36,1.2-.26,1.9a2.78,2.78,0,0,1,0,1.14,2.74,2.74,0,0,1-.76.64c-.57.38-1.21.81-1.3,1.51a2.28,2.28,0,0,0,.79,1.67,2.37,2.37,0,0,1,.61,1,2.35,2.35,0,0,1-.43.94,2.43,2.43,0,0,0-.56,1.85c.17.65.83,1,1.42,1.31a3.4,3.4,0,0,1,.78.51H2.77a.5.5,0,0,0-.5.5,21.89,21.89,0,1,0,43.78,0,.5.5,0,0,0-.5-.5h-.08a3,3,0,0,0,0-2.24,2.85,2.85,0,0,1-.18-1.3c.11-.33.57-.67,1-1,.62-.46,1.26-.94,1.35-1.65A2.91,2.91,0,0,0,46.63,15.94ZM31.29,7.71a9.72,9.72,0,0,1,1.94,8.21,10,10,0,0,1-.41,1.35A8.88,8.88,0,0,0,30,15.78l.47-2.13a.49.49,0,0,0-.38-.59.5.5,0,0,0-.6.38l-.45,2.07a9.46,9.46,0,0,0-1.86-.19,9.08,9.08,0,0,0-1.28.1c0-.35.1-.7.17-1.05A9.73,9.73,0,0,1,31.29,7.71Zm-4.07,9.85a6.8,6.8,0,0,0-6.8,6.69H19.18a8,8,0,0,1,16.08,0H34A6.82,6.82,0,0,0,27.22,17.56ZM33,24.25H21.42a5.81,5.81,0,0,1,11.61,0ZM16.85,8.45c.09-.24.62-.42,1-.56a2.85,2.85,0,0,0,1.38-.78,3.21,3.21,0,0,0,.43-1.62c0-.35.09-.94.24-1a.25.25,0,0,1,.13,0,3.11,3.11,0,0,1,1,.35,3,3,0,0,0,1.4.43,3.4,3.4,0,0,0,1.39-.48c.38-.19.9-.46,1.09-.35s.22.67.27,1A3.18,3.18,0,0,0,25.69,7a2.85,2.85,0,0,0,1.4.73c.43.13,1,.29,1.07.52a1.13,1.13,0,0,1-.12.58,10.64,10.64,0,0,0-3.11,6.78,10,10,0,0,0-1.8.68l0-2.21,1.91-2a.5.5,0,1,0-.72-.7l-1.22,1.26L23,10a.5.5,0,0,0-.5-.5h0A.52.52,0,0,0,22,10l0,2.73-1.25-1.22a.5.5,0,0,0-.7.72l2,1.91,0,2.43a11.41,11.41,0,0,0-4.56-5.19.74.74,0,0,0,.07-.21,2.82,2.82,0,0,0-.46-1.69C17,9.1,16.78,8.62,16.85,8.45Zm-2,2.73a10.43,10.43,0,0,1,6.61,6.21v0A9,9,0,0,0,19,20.61l-.77-2a.5.5,0,1,0-.93.37l1.18,3.06a9.41,9.41,0,0,0-.3,2.2H17a1.22,1.22,0,0,0,.13-.38,2.32,2.32,0,0,0-.8-1.66,2.55,2.55,0,0,1-.61-1,2.29,2.29,0,0,1,.43-.94,2.48,2.48,0,0,0,.57-1.85c-.18-.65-.84-1-1.42-1.31a2.35,2.35,0,0,1-.85-.6,2.45,2.45,0,0,1,0-1.13,2.31,2.31,0,0,0-.15-1.84,1.21,1.21,0,0,0-.41-.34A10.22,10.22,0,0,1,14.82,11.18ZM3.94,22.86c-.39-.21-.86-.46-.93-.7s.22-.69.45-1.06A2.73,2.73,0,0,0,4,19.55,2.9,2.9,0,0,0,3.2,18c-.25-.3-.6-.71-.57-.9s.49-.56.86-.81a2.83,2.83,0,0,0,1.13-1.09,3.2,3.2,0,0,0,0-1.66c0-.37-.14-.93,0-1.06A.48.48,0,0,1,5,12.43a5,5,0,0,1,.81.11,3.43,3.43,0,0,0,1.45.07,3.32,3.32,0,0,0,1.22-.79c.34-.29.76-.65,1-.6s.38.57.52.92a3.31,3.31,0,0,0,.87,1.42,2.85,2.85,0,0,0,1.53.37c.45,0,1,.06,1.16.26s0,.68,0,1.06a2.86,2.86,0,0,0,0,1.74,2.74,2.74,0,0,0,1.28,1c.38.2.86.46.92.69s-.22.69-.45,1.07a2.75,2.75,0,0,0-.58,1.54,3,3,0,0,0,.85,1.52c.25.3.59.7.57.89s-.22.34-.45.51H11.87l.77-1.34a.5.5,0,0,0-.87-.5L10.85,24l-.79-2.94,1.37-2.38a.52.52,0,0,0-.19-.69.5.5,0,0,0-.68.19l-.87,1.52L9,17.08a.5.5,0,1,0-1,.26L8.72,20,7.2,19.1a.5.5,0,1,0-.5.86l2.39,1.37.79,2.92H9.71l-1.3-.74a.5.5,0,0,0-.64.74H5.33a2,2,0,0,0-.11-.35A2.78,2.78,0,0,0,3.94,22.86ZM24.16,45.65A20.94,20.94,0,0,1,3.78,29.37H44.54A20.94,20.94,0,0,1,24.16,45.65ZM44.71,28.37H3.61a21.13,21.13,0,0,1-.34-3.12H45A19.86,19.86,0,0,1,44.71,28.37Zm.95-9.48a3.59,3.59,0,0,0-1.37,1.48,3.32,3.32,0,0,0,.17,1.9c.15.55.32,1.17.15,1.47h0a1.73,1.73,0,0,1-1,.5h-5.2a.71.71,0,0,0,0-.14.5.5,0,0,0-.61-.35l-1.57.43a8.59,8.59,0,0,0-.08-1l1.39-2.41,3.28-.89a.5.5,0,1,0-.26-1l-2.32.63,1.78-3.11a.5.5,0,1,0-.86-.5L37.4,19l-.63-2.32a.5.5,0,1,0-1,.26l.89,3.29-.83,1.44A9,9,0,0,0,33.61,18a9.63,9.63,0,0,0,.59-1.84,10.62,10.62,0,0,0,.07-4.2,1.53,1.53,0,0,1,.32-.92.85.85,0,0,1,.54-.13,5.82,5.82,0,0,1,1,.12,3.47,3.47,0,0,0,1.81,0,3.92,3.92,0,0,0,1.42-1.31c.34-.44.73-.93,1-.94h0c.35,0,.74.55,1.09,1A4.09,4.09,0,0,0,42.59,11a4.24,4.24,0,0,0,1.63.38c.62.06,1.27.12,1.44.42s-.09.83-.3,1.35A3.89,3.89,0,0,0,45,15a3.36,3.36,0,0,0,.91,1.56c.38.45.81,1,.76,1.32S46.09,18.57,45.66,18.89Z" fill="#231f20"/><path d="M27.22,19.44a.5.5,0,0,0-.5.5v1.2a.5.5,0,0,0,1,0v-1.2A.5.5,0,0,0,27.22,19.44Z" fill="#231f20"/><path d="M25,20.49a.5.5,0,1,0-.81.59l.71,1a.49.49,0,0,0,.4.21.47.47,0,0,0,.3-.1.51.51,0,0,0,.11-.7Z" fill="#231f20"/><path d="M24.31,22.89l-1.15-.37a.5.5,0,1,0-.3,1l1.14.37.15,0a.5.5,0,0,0,.48-.35A.51.51,0,0,0,24.31,22.89Z" fill="#231f20"/><path d="M30.14,22.89a.51.51,0,0,0-.33.63.5.5,0,0,0,.48.35l.15,0,1.15-.37a.5.5,0,0,0-.31-1Z" fill="#231f20"/><path d="M30.12,20.38a.51.51,0,0,0-.7.11l-.71,1a.51.51,0,0,0,.11.7.49.49,0,0,0,.7-.11l.71-1A.51.51,0,0,0,30.12,20.38Z" fill="#231f20"/></g><g id="e2f4774f-66f7-4161-bed9-224fde793a3e" data-name="LABELS"><text transform="translate(0 54.91)" font-size="6" fill="#231f20" font-family="Roboto-Regular, Roboto">salad</text></g></svg>