<svg xmlns="http://www.w3.org/2000/svg" viewBox="0 0 50 50"><g id="a69c5397-a85f-44a0-9070-8257428db1f8" data-name="ICONS"><path d="M24.7,6a.86.86,0,0,0,0-1.72A.86.86,0,1,0,24.7,6Z"/><path d="M20.56,7.81a.86.86,0,1,0,0-1.72.86.86,0,0,0,0,1.72Z"/><path d="M28.85,7.81A.86.86,0,1,0,28,7,.86.86,0,0,0,28.85,7.81Z"/><path d="M35.69,16.13a.53.53,0,0,0-.12-.25V11.4h0a10.87,10.87,0,1,0-21.73,0l0,4.45a.53.53,0,0,0-.14.29l-4,32.05a.53.53,0,0,0,.13.41.52.52,0,0,0,.39.17H39.16a.5.5,0,0,0,.51-.58Zm-20.83-.45,0-2.4H34.53v2.4Zm9.86-14.1a9.84,9.84,0,0,1,9.82,9.82v.83H14.89V11.4A9.82,9.82,0,0,1,24.72,1.58ZM10.8,47.72l3.85-30.93,20.06,0,3.85,31Z"/><path d="M18.62,19.73a.51.51,0,0,0-.58.45L14.87,44.34a.51.51,0,0,0,.45.58h.07a.51.51,0,0,0,.51-.45l3.17-24.17A.52.52,0,0,0,18.62,19.73Z"/><path d="M31.2,20.17a.53.53,0,0,0-.59-.45.54.54,0,0,0-.45.59l3.17,24.16a.52.52,0,0,0,.52.45h.07a.52.52,0,0,0,.44-.59Z"/><path d="M24.47,34.69a1.57,1.57,0,0,1,1.08.34,1.19,1.19,0,0,1,.39.95h1.83a2.6,2.6,0,0,0-.41-1.43,2.73,2.73,0,0,0-1.16-1,4,4,0,0,0-1.7-.34,4.27,4.27,0,0,0-1.71.32,2.6,2.6,0,0,0-1.17.88,2.18,2.18,0,0,0-.41,1.29,2.49,2.49,0,0,0,1.52,2.21,9.92,9.92,0,0,0,1.51.61,4.7,4.7,0,0,1,1.32.58.93.93,0,0,1,.37.8.84.84,0,0,1-.37.74,1.67,1.67,0,0,1-1,.27c-1.17,0-1.76-.49-1.76-1.47H20.94A2.65,2.65,0,0,0,21.38,41a3,3,0,0,0,1.29,1,4.56,4.56,0,0,0,1.87.38,3.84,3.84,0,0,0,2.36-.66,2.14,2.14,0,0,0,.87-1.81,2.35,2.35,0,0,0-.71-1.74A5.72,5.72,0,0,0,24.77,37a4.77,4.77,0,0,1-1.28-.55.84.84,0,0,1-.44-.73.89.89,0,0,1,.37-.75A1.7,1.7,0,0,1,24.47,34.69Z"/></g><g id="f2c64e35-38f9-4602-9fa2-f4c6d6faa2b0" data-name="LABELS"><text transform="translate(0.11 55.05)" font-size="6" font-family="Roboto-Regular, Roboto">salt</text></g></svg>