<svg id="f3738b88-3f8f-4216-8eb6-9822ed676be5" data-name="ICONS" xmlns="http://www.w3.org/2000/svg" viewBox="0 0 50 50"><path d="M48.53,1.72a.51.51,0,0,0-.61-.17c-.45.19-11.19,4.85-14.68,9.24l-.12.15a.53.53,0,0,0-.1.29l-.08,2.83-.83-.8h0l-.15-.1h0l-.18,0h0a.55.55,0,0,0-.26.06h0a.35.35,0,0,0-.1.08h0L1.5,46.08c-.05.08-.43.76.53,1.68a2.27,2.27,0,0,0,1.55.73h.1A.55.55,0,0,0,4,48.35L35.53,17.26a.48.48,0,0,0,.15-.36.51.51,0,0,0-.15-.35l-.26-.25L48.48,2.35A.51.51,0,0,0,48.53,1.72ZM32,19.33l-1.34-1.26a.5.5,0,1,0-.68.73L31.29,20l-1.67,1.65-1.24-1.17a.5.5,0,0,0-.69.73l1.22,1.15L3.44,47.48A1.64,1.64,0,0,1,2.72,47a1.08,1.08,0,0,1-.33-.47L31.78,14.33l2.68,2.58Zm5.39-6.77-2.85,3L33.91,15l.1-3.56v0c2.37-3,8.53-6.21,11.94-7.85Z"/></svg>