<svg id="e62a9dbf-7826-49fe-94a0-e4bfe11a0d2c" data-name="ICONS" xmlns="http://www.w3.org/2000/svg" viewBox="0 0 50 50"><path d="M47.42,37.53H21c-1.14,0-1.91-.27-2.17-.76a1.3,1.3,0,0,1,.18-1.3c.85-1.3,3.49-4.42,3.51-4.45h0l22.59-2a.5.5,0,0,0,.45-.42l2.74-16a.52.52,0,0,0-.11-.4.49.49,0,0,0-.37-.18l-33.57-.74L11.78,5.09a.49.49,0,0,0-.39-.3L2.27,3.35a.51.51,0,0,0-.57.42.5.5,0,0,0,.42.57L11,5.73l2.5,6.2h0l8,18.8c-.74.89-2.56,3.09-3.28,4.18a2.31,2.31,0,0,0-.22,2.33c.31.58,1.1,1.28,3,1.28h.8a4.38,4.38,0,1,0,4.41,0H39.73a4.38,4.38,0,1,0,5,0h2.74a.51.51,0,0,0,.5-.5A.5.5,0,0,0,47.42,37.53Zm-.2-24.59L44.64,28,22.22,30,14.67,12.22ZM27.37,42.28A3.38,3.38,0,1,1,24,38.91,3.37,3.37,0,0,1,27.37,42.28Zm18.21-.15a3.38,3.38,0,1,1-3.38-3.38A3.38,3.38,0,0,1,45.58,42.13Z"/></svg>