<svg id="f54b287b-299c-4d3b-bbfd-ad3f479a4ff5" data-name="ICONS" xmlns="http://www.w3.org/2000/svg" viewBox="0 0 50 50"><path d="M39.11,48.52a21.28,21.28,0,0,0-6.56-5h0A8.7,8.7,0,0,0,34.14,40a7.88,7.88,0,0,0,.14-1.46V29.16A11.92,11.92,0,0,1,27,32H26a11.9,11.9,0,0,1-7.3-2.84v9.36a7.93,7.93,0,0,0,.13,1.4,8.42,8.42,0,0,0,1.58,3.6h0a21.58,21.58,0,0,0-6.53,5.1c-.35.38-.69.77-1,1.18h27.3C39.82,49.36,39.47,48.93,39.11,48.52Z" fill="#fdd600"/><path d="M38.35,46.35a22.59,22.59,0,0,0-5.9-4.71A8.66,8.66,0,0,0,33.78,37V26.51a.49.49,0,0,0-.31-.46.51.51,0,0,0-.55.11,11,11,0,0,1-7.44,3.34v-21L31.72,1a.51.51,0,0,0,.07-.53A.5.5,0,0,0,31.34.2H18.62a.5.5,0,0,0-.45.28.49.49,0,0,0,.07.53l6.24,7.51v21A10.93,10.93,0,0,1,17,26.16a.51.51,0,0,0-.55-.11.49.49,0,0,0-.31.46V37a8.69,8.69,0,0,0,1.31,4.6,23.36,23.36,0,0,0-5.87,4.82,24.08,24.08,0,0,0-1.68,2.07.51.51,0,0,0,0,.52.48.48,0,0,0,.44.27H39.61a.51.51,0,0,0,.44-.26.49.49,0,0,0,0-.51A18.77,18.77,0,0,0,38.35,46.35ZM19.69,1.2H30.27L25,7.56ZM17.18,37V27.66a11.9,11.9,0,0,0,7.3,2.84v4.09a.5.5,0,0,0,1,0V30.5a11.92,11.92,0,0,0,7.3-2.84V37a7.72,7.72,0,0,1-1.22,4.17,14.89,14.89,0,0,0-13.18,0A7.71,7.71,0,0,1,17.18,37ZM11.35,48.3c.32-.41.66-.8,1-1.18,1.52-1.66,5.57-6,11.67-6.46C30.75,40.22,35.77,45,37.6,47c.37.41.72.84,1,1.28Z" fill="#231f20"/></svg>