<svg id="a64676f7-1eee-4cbd-bbae-384feb25299e" data-name="ICONS" xmlns="http://www.w3.org/2000/svg" viewBox="0 0 50 50"><path d="M49.22,33.21C49,30.8,47,28.78,43.71,27.31V15.17a.29.29,0,0,0,0-.09.25.25,0,0,0,0-.07.52.52,0,0,0-.11-.19s0,0,0,0h0a20.33,20.33,0,0,0-5.29-3.54,20,20,0,0,0-3.31-1.18,3.19,3.19,0,0,0-2.64-2.35,4.21,4.21,0,0,1,.93-2A4,4,0,0,1,34.07,5a.5.5,0,1,0-.53-.84,5.06,5.06,0,0,0-1.08.92,5.3,5.3,0,0,0-1.19,2.66A3.19,3.19,0,0,0,29,9.39c-.46,0-.9,0-1.3.07l-.21.06L9.19,20a.5.5,0,0,0-.25.43h0v8.29c-.54.24-1.06.49-1.57.76C2.87,31.8.53,34.67.78,37.51c.45,5,8.86,8.42,20,8.42,1.66,0,3.39-.08,5.16-.23a46,46,0,0,0,16.7-4.43C47.13,38.91,49.47,36.05,49.22,33.21Zm-18-24.42a6.25,6.25,0,0,0,.05.85.5.5,0,0,0,.49.45h.06a.5.5,0,0,0,.44-.55c0-.2,0-.49,0-.82a2.2,2.2,0,1,1-1,.08Zm-3.26,1.66.77,0a3.73,3.73,0,0,0,0,.47,3.19,3.19,0,0,0,6.37.25,19.4,19.4,0,0,1,7,3.72l-30,4.65Zm-18,10.38,27.52-4.26,5.25-.82v4L9.94,25.24Zm0,5.42,32.77-5.49v4.48L9.94,30.73Zm0,5.49,32.77-5.49v4L9.94,35.73Zm0,5,32.77-5.49v3.86L9.94,40.19Zm32.22,3.64A44.88,44.88,0,0,1,25.83,44.7C13.24,45.81,2.22,42.48,1.77,37.42c-.21-2.38,2-5,6.07-7.09.35-.18.73-.35,1.1-.53v11a.46.46,0,0,0,.18.38.47.47,0,0,0,.32.12h.08L43.29,36a.49.49,0,0,0,.42-.49V28.46c2.68,1.27,4.35,2.93,4.52,4.83C48.44,35.67,46.23,38.26,42.16,40.38Z"/></svg>