<svg xmlns="http://www.w3.org/2000/svg" viewBox="0 0 50 50"><g id="e1b51ab5-c037-48da-aac2-730cb2595ce6" data-name="ICONS"><circle cx="40.08" cy="40.39" r="0.64" fill="#231f20"/><path d="M44.35,34.74a.65.65,0,0,0-.64.65.65.65,0,0,0,1.29,0A.65.65,0,0,0,44.35,34.74Z" fill="#231f20"/><circle cx="41.45" cy="37.8" r="0.64" fill="#231f20"/><circle cx="44.35" cy="38.44" r="0.64" fill="#231f20"/><circle cx="43" cy="41.68" r="0.64" fill="#231f20"/><circle cx="46.36" cy="41.37" r="0.64" fill="#231f20"/><path d="M39.87,24.08a17.24,17.24,0,0,1,.36-2.86c.39-2.28.89-5.12-.11-7.39C36.18,4.92,25,2.35,18.41,3.93,6.92,6.68,5.57,15.51,5.68,22.9a18.13,18.13,0,0,0,2.49,8.84,25.4,25.4,0,0,1,2.71,7.34C12,45,10.41,47.88,9.5,49.33h16c1.26,0,2.08,0,2.62,0V42.26a.5.5,0,0,1,.25-.43.49.49,0,0,1,.51,0c2.57,1.56,6.59,3.31,7.71,2.44a7.93,7.93,0,0,0,0-1,9.16,9.16,0,0,1,0-1.39,1.53,1.53,0,0,1,1.26-1.2l.32-.12A13.69,13.69,0,0,0,36.28,39a.5.5,0,0,1,.18-.89,19.46,19.46,0,0,0,3.08-.93c-.09-.47-.37-1.62-.63-2.6a.52.52,0,0,1,.25-.58l3.23-1.67a.54.54,0,0,0,.23-.72C41.59,29.64,39.87,26,39.87,24.08Z" fill="#fdd600"/><path d="M41.76,29.44c-.8-1.55-2.64-5.34-2.64-7.11a18,18,0,0,1,.34-2.69c.42-2.41.94-5.41-.18-8C36.22,4.74,26.61-1.23,16.43,1.2c-12.32,3-13.6,12.81-13.5,20a19,19,0,0,0,2.6,9.28,24.68,24.68,0,0,1,2.62,7.08c1.12,5.8-.56,8.44-1.37,9.71a4.89,4.89,0,0,0-.37.65.49.49,0,0,0,0,.47.5.5,0,0,0,.42.23h20a.51.51,0,0,0,.49-.5V41.39c2,1.13,6.6,3.43,8.25,1.78.26-.26.25-.69.2-1.64a8.11,8.11,0,0,1,0-1.2c0-.17.13-.24.58-.39s1-.33,1.07-1c0-.19,0-.56-1.48-1.8,2.86-.74,2.86-1.14,2.86-1.46A22.22,22.22,0,0,0,38.23,33L41.1,31.5A1.54,1.54,0,0,0,41.76,29.44Zm-1.12,1.17-3.23,1.67a.52.52,0,0,0-.25.58c.26,1,.54,2.13.63,2.6a19.46,19.46,0,0,1-3.08.93.5.5,0,0,0-.18.89,13.69,13.69,0,0,1,1.84,1.59l-.32.12a1.53,1.53,0,0,0-1.26,1.2,9.16,9.16,0,0,0,0,1.39,7.93,7.93,0,0,1,0,1c-1.12.87-5.14-.88-7.71-2.44a.49.49,0,0,0-.51,0,.5.5,0,0,0-.25.43V47.6c-.54,0-1.36,0-2.62,0h-16c.91-1.45,2.52-4.33,1.38-10.25A25.4,25.4,0,0,0,6.42,30a18.13,18.13,0,0,1-2.49-8.84c-.11-7.39,1.24-16.22,12.73-19,6.57-1.58,17.77,1,21.71,9.9,1,2.27.5,5.11.11,7.39a17.24,17.24,0,0,0-.36,2.86c0,1.92,1.72,5.56,2.75,7.56A.54.54,0,0,1,40.64,30.61Z" fill="#231f20"/></g><g id="f1c90887-6069-4c50-bcb4-fc603ed86269" data-name="LABELS"><text transform="translate(-0.03 55.06)" font-size="6" fill="#231f20" font-family="Roboto-Regular, Roboto">snee<tspan x="12.76" y="0" letter-spacing="-0.01em">z</tspan><tspan x="15.69" y="0">e</tspan></text></g></svg>