<svg xmlns="http://www.w3.org/2000/svg" viewBox="0 0 50 50"><g id="bd5ba1ec-d7cb-4fae-9d5e-d2c256d15fa8" data-name="ICONS"><path d="M38.19,5.69a10,10,0,0,0-5.25,1.49A12.2,12.2,0,0,0,10.66,9a7.54,7.54,0,0,0-1.94-.25A7.67,7.67,0,0,0,1.19,18a.49.49,0,0,0,.49.4H47.47A.51.51,0,0,0,48,18a9.93,9.93,0,0,0,.27-2.28A10.06,10.06,0,0,0,38.19,5.69ZM47.06,17.4H2.1a6.61,6.61,0,0,1-.08-1,6.7,6.7,0,0,1,8.81-6.35.5.5,0,0,0,.63-.33A11.21,11.21,0,0,1,32.3,8.12a.47.47,0,0,0,.32.26A.53.53,0,0,0,33,8.31a9,9,0,0,1,5.15-1.62,9.06,9.06,0,0,1,9,9A8.68,8.68,0,0,1,47.06,17.4Z"/><path d="M18.36,24.58a.49.49,0,0,0-.68-.18l-.59.34.06-.22a.5.5,0,0,0-.35-.61.52.52,0,0,0-.62.35l-.31,1.19-1.94,1.12V24.33l.86-.87a.5.5,0,0,0,0-.71.5.5,0,0,0-.7,0l-.16.16v-.68a.5.5,0,1,0-1,0v.68l-.16-.16a.5.5,0,1,0-.71.71l.87.87v2.24L11,25.45l-.32-1.19a.5.5,0,0,0-1,.26l.06.22-.59-.34a.49.49,0,0,0-.68.18.51.51,0,0,0,.18.69l.59.33-.22.06a.49.49,0,0,0-.35.62.5.5,0,0,0,.48.37l.13,0,1.18-.32,1.94,1.12-1.94,1.12-1.18-.32a.51.51,0,0,0-.61.36.49.49,0,0,0,.35.61l.22.06-.59.34a.5.5,0,0,0,.25.93.47.47,0,0,0,.25-.07l.58-.34,0,.22a.49.49,0,0,0,.35.61l.13,0a.5.5,0,0,0,.48-.37L11,29.42l1.94-1.12v2.24l-.87.86a.51.51,0,0,0,0,.71.5.5,0,0,0,.36.14.47.47,0,0,0,.35-.14l.16-.16v.68a.5.5,0,0,0,1,0V32l.16.16a.51.51,0,0,0,.7,0,.5.5,0,0,0,0-.71l-.86-.86V28.3l1.94,1.12.31,1.18a.51.51,0,0,0,.49.37l.13,0a.5.5,0,0,0,.35-.61l-.06-.22.59.34a.45.45,0,0,0,.25.07.5.5,0,0,0,.25-.93l-.59-.34.22-.06a.5.5,0,0,0,.35-.61.51.51,0,0,0-.61-.36l-1.18.32-1.94-1.12,1.94-1.12,1.18.32.13,0a.5.5,0,0,0,.13-1l-.22-.06.59-.33A.51.51,0,0,0,18.36,24.58Z"/><path d="M40.75,28.15a.49.49,0,0,0-.68-.18l-.59.34.06-.22a.49.49,0,0,0-.35-.61.5.5,0,0,0-.61.35L38.26,29l-1.94,1.12V27.89l.87-.86a.5.5,0,0,0-.71-.71l-.16.16V25.8a.5.5,0,0,0-1,0v.68l-.16-.16a.5.5,0,0,0-.7,0,.5.5,0,0,0,0,.71l.86.86v2.24L33.38,29l-.31-1.18a.52.52,0,0,0-.62-.35.5.5,0,0,0-.35.61l.06.22L31.57,28a.5.5,0,1,0-.5.86l.59.34-.22.06a.5.5,0,0,0-.35.61.49.49,0,0,0,.48.37h.13l1.18-.32L34.82,31l-1.94,1.12L31.7,31.8a.51.51,0,0,0-.61.36.5.5,0,0,0,.35.61l.22.06-.59.33a.51.51,0,0,0-.18.69.5.5,0,0,0,.43.25.45.45,0,0,0,.25-.07l.59-.34-.06.22a.5.5,0,0,0,.35.61l.13,0a.51.51,0,0,0,.49-.37L33.38,33l1.94-1.12V34.1l-.86.87a.5.5,0,0,0,.7.71l.16-.16v.68a.5.5,0,0,0,1,0v-.68l.16.16a.52.52,0,0,0,.71,0,.51.51,0,0,0,0-.71l-.87-.87V31.86L38.26,33l.32,1.19a.5.5,0,0,0,.48.37l.13,0a.5.5,0,0,0,.35-.61l-.06-.22.59.34a.47.47,0,0,0,.25.07.5.5,0,0,0,.43-.25.51.51,0,0,0-.18-.69L40,32.83l.22-.06a.49.49,0,0,0,.35-.61.51.51,0,0,0-.61-.36l-1.18.32L36.82,31l1.94-1.12,1.18.32h.13a.48.48,0,0,0,.48-.37.49.49,0,0,0-.35-.61L40,29.17l.59-.34A.49.49,0,0,0,40.75,28.15Z"/><path d="M28.56,40.7a.5.5,0,0,0-.68-.18l-.59.34.06-.22a.5.5,0,0,0-1-.26l-.32,1.19-1.93,1.12V40.45l.86-.87a.5.5,0,0,0,0-.71.51.51,0,0,0-.71,0l-.15.16v-.67a.5.5,0,0,0-.5-.5.5.5,0,0,0-.5.5V39L23,38.87a.51.51,0,0,0-.71,0,.5.5,0,0,0,0,.71l.87.87v2.24l-1.94-1.12-.32-1.19a.5.5,0,0,0-1,.26l.06.22-.58-.34a.5.5,0,1,0-.5.87l.58.33-.21.06a.5.5,0,0,0,.12,1l.13,0,1.19-.32,1.94,1.12-1.94,1.12-1.19-.32a.51.51,0,0,0-.61.36.5.5,0,0,0,.36.61l.21.06-.58.34a.5.5,0,0,0,.25.93.47.47,0,0,0,.25-.07l.58-.34-.06.22a.5.5,0,0,0,.36.61l.13,0a.5.5,0,0,0,.48-.37l.32-1.18,1.94-1.12v2.24l-.87.86a.5.5,0,0,0,0,.71.5.5,0,0,0,.35.15.51.51,0,0,0,.36-.15l.16-.16v.68a.5.5,0,0,0,.5.5.51.51,0,0,0,.5-.5v-.68l.15.16a.51.51,0,0,0,.36.15.5.5,0,0,0,.35-.15.5.5,0,0,0,0-.71l-.86-.86V44.42l1.93,1.12.32,1.18a.5.5,0,0,0,.48.37l.13,0a.5.5,0,0,0,.36-.61l-.06-.22.59.34a.42.42,0,0,0,.24.07.5.5,0,0,0,.26-.93l-.59-.34.21-.06a.5.5,0,0,0,.36-.61.51.51,0,0,0-.61-.36l-1.19.32-1.94-1.12,1.94-1.12,1.19.32.13,0a.5.5,0,0,0,.12-1l-.21-.06.59-.33A.51.51,0,0,0,28.56,40.7Z"/></g><g id="faf17435-962d-44d4-bdb2-3633d680a8e6" data-name="LABELS"><text transform="translate(0.39 54.88)" font-size="6" font-family="Roboto-Regular, Roboto">snow-cloud</text></g></svg>