<svg id="e1eb0a8a-c473-4964-882f-d76dddfa2458" data-name="ICONS" xmlns="http://www.w3.org/2000/svg" viewBox="0 0 50 50"><path d="M48.62,39.42a.5.5,0,0,1-.5.54h-12v4H39.1a.5.5,0,0,1,.5.5v3.75a.5.5,0,0,1-.5.5h-12a.5.5,0,0,1-.5-.5V44.5a.51.51,0,0,1,.5-.5h2.94V40H18.1a.49.49,0,0,1-.37-.16.45.45,0,0,1-.13-.38L19,23.73l.36-3.92a.5.5,0,0,1,.5-.46H46.33a.5.5,0,0,1,.49.46Zm-1-.46L47,32.86h-8.6L38.6,39Zm-.65-7.1-.5-5.51H38.21l.17,5.51Zm-.59-6.51-.46-5H38l.15,5ZM38.6,47.75V45h-11v2.75ZM37.6,39l-.19-6.1h-8.6L28.62,39h9Zm-.22-7.1-.17-5.51H29l-.16,5.51Zm-.2-6.51-.15-5H29.19l-.16,5Zm-2,18.6V40H31.05v4ZM28,25.35l.16-5H20.35l-.46,5Zm-.2,6.51L28,26.35H19.8l-.51,5.51ZM27.62,39l.18-6.1H19.2L18.64,39Z"/><path d="M28.53,6a.5.5,0,0,1,0,.71l-5.6,5.6a7.89,7.89,0,0,1,2,5.23.51.51,0,0,1-.5.5.5.5,0,0,1-.5-.5A6.92,6.92,0,1,0,17,24.49a.5.5,0,0,1,.5.5.51.51,0,0,1-.5.5,7.89,7.89,0,0,1-5.23-2l-5.6,5.6a.51.51,0,0,1-.36.15.5.5,0,0,1-.35-.85l5.6-5.61a7.9,7.9,0,0,1-2-4.72H1.18a.5.5,0,0,1-.5-.5.5.5,0,0,1,.5-.5H9.1a7.9,7.9,0,0,1,2-4.73l-5.6-5.6A.5.5,0,1,1,6.17,6l5.6,5.6a7.9,7.9,0,0,1,4.73-2V1.75a.5.5,0,0,1,.5-.5.5.5,0,0,1,.5.5V9.67a7.9,7.9,0,0,1,4.72,2L27.83,6A.48.48,0,0,1,28.53,6Z"/></svg>