<svg xmlns="http://www.w3.org/2000/svg" viewBox="0 0 50 50"><g id="e5b12dfe-903d-435c-9b69-dc33857361e8" data-name="ICONS"><path d="M4.43,28.38c.23,5.93,4.44,11.3,11.1,14.08a.51.51,0,0,1,.31.52.52.52,0,0,1-.4.44c-3.22.64-3.93,1.39-3.93,1.62,0,.83,4.81,2.44,13.62,2.44S38.74,45.87,38.74,45c0-.23-.69-1-3.88-1.62a.5.5,0,0,1-.09-1c6.68-2.78,10.9-8.15,11.12-14.09Z" fill="#fdd600"/><path d="M48.18,7.34,45.36,5.19a.53.53,0,0,0-.37-.1.5.5,0,0,0-.33.2L29.17,25.63h-27a.5.5,0,0,0-.5.5C1.62,32.42,5.77,37.93,12,41c-1.93.52-3.27,1.25-3.27,2.27,0,2.72,9.56,3.44,14.62,3.44S37.94,46,37.94,43.29c0-1-1.31-1.74-3.22-2.26C40.94,38,45.1,32.42,45.1,26.13a.5.5,0,0,0-.5-.5H34.89L48.28,8A.5.5,0,0,0,48.18,7.34Zm-11.24,36c0,.83-4.8,2.44-13.61,2.44S9.71,44.12,9.71,43.29c0-.43,1.31-1.07,3.8-1.59a26.37,26.37,0,0,0,19.68,0C35.65,42.23,36.94,42.86,36.94,43.29Zm-13.58-.68c-11.22,0-20.4-7.12-20.73-16H44.09C43.76,35.49,34.59,42.61,23.36,42.61Zm10.27-17h-3.2L45.15,6.29l2,1.54Z" fill="#231f20"/><path d="M19.07,22.32a.51.51,0,0,0,.36.15.48.48,0,0,0,.34-.13.5.5,0,0,0,0-.71,6.84,6.84,0,0,1,0-9.42c1.65-1.88,2.37-3.7,2.12-5.42A5.27,5.27,0,0,0,19.7,3.35a.49.49,0,0,0-.69.16.5.5,0,0,0,.15.69A4.24,4.24,0,0,1,20.94,7c.2,1.41-.43,3-1.88,4.6C14.21,17.05,19,22.27,19.07,22.32Z" fill="#231f20"/><path d="M10.08,22.23a.5.5,0,0,0,.36.16.49.49,0,0,0,.34-.14.5.5,0,0,0,0-.71,4.61,4.61,0,0,1,0-6.31,4.87,4.87,0,0,0,1.51-3.87,3.85,3.85,0,0,0-1.61-2.5A.51.51,0,0,0,10,9a.5.5,0,0,0,.15.69,2.79,2.79,0,0,1,1.16,1.79,3.93,3.93,0,0,1-1.27,3.07C6.62,18.48,10,22.19,10.08,22.23Z" fill="#231f20"/><path d="M27.16,22.23a.54.54,0,0,0,.37.16.51.51,0,0,0,.34-.14.5.5,0,0,0,0-.71,4.61,4.61,0,0,1,0-6.31,4.87,4.87,0,0,0,1.51-3.87,3.81,3.81,0,0,0-1.62-2.5.5.5,0,1,0-.53.85,2.79,2.79,0,0,1,1.16,1.79,4,4,0,0,1-1.27,3.07C23.71,18.48,27.13,22.19,27.16,22.23Z" fill="#231f20"/></g><g id="e49bf606-a040-429c-b4c7-662c46b4a6b1" data-name="LABELS"><text transform="translate(0 55.01)" font-size="6" fill="#231f20" font-family="Roboto-Regular, Roboto">soup</text></g></svg>