<svg xmlns="http://www.w3.org/2000/svg" viewBox="0 0 50 50"><g id="b5c299c2-baa4-4122-adbe-98a6f3d86e2a" data-name="ICONS"><path d="M35.37,7H14.13c-7.19,0-13,6.28-13,14,0,7.24,5.16,13.27,11.82,13.94l1,7.66a.49.49,0,0,0,.33.4.45.45,0,0,0,.16,0,.51.51,0,0,0,.35-.13L23.18,35H35.37c7.19,0,13-6.29,13-14S42.56,7,35.37,7Zm0,27H23a.51.51,0,0,0-.34.13L14.8,41.49l-1-7.09a.5.5,0,0,0-.47-.43C7.05,33.55,2.09,27.85,2.09,21c0-7.17,5.4-13,12-13H35.37c6.64,0,12,5.84,12,13S42,34,35.37,34Z"/><path d="M24.75,11.66a9.47,9.47,0,1,0,9.47,9.47A9.48,9.48,0,0,0,24.75,11.66ZM24.67,29.3a12.33,12.33,0,0,1-2.51-3.49h5A12.13,12.13,0,0,1,24.67,29.3Zm-2.92-4.49a10.68,10.68,0,0,1-.65-3.49h7.15a11,11,0,0,1-.65,3.49Zm-5.46-3.49H20.1a11.8,11.8,0,0,0,.58,3.49H17.14A8.35,8.35,0,0,1,16.29,21.32Zm8.38-8.42a12.5,12.5,0,0,1,2.23,2.93H22.45A12.52,12.52,0,0,1,24.67,12.9Zm2.71,3.93a11,11,0,0,1,.85,3.49H21.12A10.71,10.71,0,0,1,22,16.83Zm-7.26,3.49h-3.8a8.46,8.46,0,0,1,1.14-3.49h3.43A11.54,11.54,0,0,0,20.12,20.32Zm9.13,1h4a8.35,8.35,0,0,1-.85,3.49h-3.7A12.13,12.13,0,0,0,29.25,21.32Zm0-1a12.17,12.17,0,0,0-.77-3.49H32a8.46,8.46,0,0,1,1.14,3.49Zm2.12-4.49H28a13.37,13.37,0,0,0-2.1-3.08A8.47,8.47,0,0,1,31.35,15.83Zm-8-3.05a13.57,13.57,0,0,0-2.07,3.05H18.15A8.47,8.47,0,0,1,23.4,12.78Zm-5.7,13h3.37a13.13,13.13,0,0,0,2.39,3.67A8.49,8.49,0,0,1,17.7,25.81Zm8.16,3.7a13.27,13.27,0,0,0,2.42-3.7H31.8A8.45,8.45,0,0,1,25.86,29.51Z"/></g><g id="e7ca4071-1c0e-48c2-87cf-fa7b9dfc498b" data-name="LABELS"><text transform="translate(-0.28 54.86)" font-size="6" font-family="Roboto-Regular, Roboto">speech-bubble-world</text></g></svg>