<svg xmlns="http://www.w3.org/2000/svg" viewBox="0 0 50 50"><g id="e4c086b5-036c-44a1-aa1c-7b6210dfa6bd" data-name="ICONS"><path d="M19.41,22.05v.25c0,1.42,1.18,3.25,2.44,3.25l6.71-.81a2.46,2.46,0,0,0,2.49-2.44v-.25a.5.5,0,0,1,.5-.5h.89a1.14,1.14,0,0,0,1.13-1.13V20.2a2.2,2.2,0,0,0-.09-.87s-.08,0-.23,0h-1.7a.51.51,0,0,1-.5-.5v-.25c0-.44,0-1.62-2.43-1.62l-6.83-.82a2.43,2.43,0,0,0-2.38,2.44v.25a.5.5,0,0,1-.5.5H16.8a.43.43,0,0,0-.23,0,2.06,2.06,0,0,0-.08.87v.22a1.13,1.13,0,0,0,1.13,1.13h1.29A.5.5,0,0,1,19.41,22.05Z" fill="#fdd600"/><path d="M18.75,9.14s.08,0,.23,0h1.29a.5.5,0,0,1,.5.5v.24a2.44,2.44,0,0,0,2.44,2.44l6,.82c1.35,0,3.18-1.19,3.18-2.44V10.5a.51.51,0,0,1,.5-.5h1.7a.48.48,0,0,0,.23,0,2.2,2.2,0,0,0,.09-.87V8.87a1.14,1.14,0,0,0-1.14-1.13h-.88a.5.5,0,0,1-.5-.5V7A2.43,2.43,0,0,0,30,4.56l-.12,0L23.15,2.93c-1.23,0-2.38,1.85-2.38,3.25v.24a.5.5,0,0,1-.5.5H19c-.15,0-.21,0-.23,0a2.14,2.14,0,0,0-.09.86v.45A2.14,2.14,0,0,0,18.75,9.14Z" fill="#fdd600"/><path d="M20.27,34.7a.5.5,0,0,1,.5.5v.25a2.43,2.43,0,0,0,2.44,2.43l6.71-.81c2.49,0,2.49-1.18,2.49-1.62V35.2a.5.5,0,0,1,.5-.5h.88a1.14,1.14,0,0,0,1.14-1.13v-.22a2.17,2.17,0,0,0-.09-.87.4.4,0,0,0-.23,0h-1.7a.51.51,0,0,1-.5-.5v-.25c0-1.42-1.18-3.25-2.43-3.25l-6.71.81a2.46,2.46,0,0,0-2.5,2.44v.25a.5.5,0,0,1-.5.5H19c-.15,0-.21,0-.23,0a2.17,2.17,0,0,0-.09.87v.44a2.14,2.14,0,0,0,.09.86s.08.05.23.05Z" fill="#fdd600"/><path d="M36,45.15l-1.28-.22a.5.5,0,0,1-.4-.58l0-.24A3.93,3.93,0,0,0,34,41.82a2.25,2.25,0,0,0-1.41-1.32l-6.88.44h-.12a2.44,2.44,0,0,0-2.82,2l0,.24a.51.51,0,0,1-.21.32.49.49,0,0,1-.37.09l-.87-.15a.68.68,0,0,0-.2,0,1.18,1.18,0,0,0-.65.2,1.17,1.17,0,0,0-.46.74l0,.21a2,2,0,0,0-.06.87s.08.06.22.08l1.67.3a.46.46,0,0,1,.32.2.47.47,0,0,1,.08.38l0,.24a2.23,2.23,0,0,0,.76,1.83,4,4,0,0,0,2,1.13l5.94.21a2.45,2.45,0,0,0,1.88-.4,2.37,2.37,0,0,0,1-1.57l.05-.24a.5.5,0,0,1,.2-.33.54.54,0,0,1,.37-.08l1.28.22a.38.38,0,0,0,.23,0,2.18,2.18,0,0,0,.24-.84l.07-.44a1.93,1.93,0,0,0,.06-.86S36.16,45.18,36,45.15Z" fill="#fdd600"/><path d="M20.35,9.27a.5.5,0,0,1-.49-.44A9.07,9.07,0,0,1,21,2.49a.5.5,0,1,1,.8.59h0a8.38,8.38,0,0,0-1,5.62.5.5,0,0,1-.43.56Z" fill="#231f20"/><path d="M20.26,22.82a.56.56,0,0,1-.32-.11c-1.48-1.23-1.08-5.05-1-5.48a.5.5,0,1,1,1,.12c-.17,1.42-.13,3.92.68,4.59a.5.5,0,0,1,.07.7A.51.51,0,0,1,20.26,22.82Z" fill="#231f20"/><path d="M21.44,34.14a.49.49,0,0,1-.39-.19,5.53,5.53,0,0,1-.69-3.79.5.5,0,0,1,.57-.42.51.51,0,0,1,.41.58,4.66,4.66,0,0,0,.5,3,.5.5,0,0,1-.09.7A.51.51,0,0,1,21.44,34.14Z" fill="#231f20"/><path d="M20.15,24.79h0L26.87,24A3.44,3.44,0,0,0,30.3,20.8h.39a2.14,2.14,0,0,0,2.13-2.13v-.21a2.11,2.11,0,0,0-.38-1.58,1.25,1.25,0,0,0-.94-.34H30.29c-.08-1-.67-2.37-3.35-2.37h0l-6.83-.82a3.45,3.45,0,0,0-3.43,3.19H15.05a1.26,1.26,0,0,0-.94.34,2.1,2.1,0,0,0-.37,1.58v.21a2.13,2.13,0,0,0,2.13,2.13h.8C16.79,22.67,18.28,24.79,20.15,24.79Zm-5.41-6.12v-.22a2.06,2.06,0,0,1,.08-.87.43.43,0,0,1,.23,0h2.11a.5.5,0,0,0,.5-.5v-.25A2.43,2.43,0,0,1,20,14.35l6.83.82c2.43,0,2.43,1.18,2.43,1.62V17a.51.51,0,0,0,.5.5h1.7c.15,0,.21,0,.23,0a2.2,2.2,0,0,1,.09.87v.22a1.14,1.14,0,0,1-1.13,1.13H29.8a.5.5,0,0,0-.5.5v.25A2.46,2.46,0,0,1,26.81,23l-6.71.81c-1.26,0-2.44-1.83-2.44-3.25V20.3a.5.5,0,0,0-.5-.5H15.87A1.13,1.13,0,0,1,14.74,18.67Z" fill="#231f20"/><path d="M18,34a3.46,3.46,0,0,0,3.48,3.18h0l6.71-.81c2.74,0,3.34-1.39,3.42-2.37H32a2.14,2.14,0,0,0,2.14-2.13V31.6A2.09,2.09,0,0,0,33.8,30a1.25,1.25,0,0,0-.94-.34h-1.2c-.13-1.87-1.58-4-3.49-4l-6.71.81A3.45,3.45,0,0,0,18,29.69h-.8a1.25,1.25,0,0,0-.94.34,2.09,2.09,0,0,0-.38,1.57V32a2.12,2.12,0,0,0,.38,1.58,1.29,1.29,0,0,0,.94.34ZM16.91,32V31.6a2.17,2.17,0,0,1,.09-.87s.08,0,.23,0h1.29a.5.5,0,0,0,.5-.5v-.25a2.46,2.46,0,0,1,2.5-2.44l6.71-.81c1.25,0,2.43,1.83,2.43,3.25v.25a.51.51,0,0,0,.5.5h1.7a.4.4,0,0,1,.23,0,2.17,2.17,0,0,1,.09.87v.22A1.14,1.14,0,0,1,32,33h-.88a.5.5,0,0,0-.5.5v.25c0,.44,0,1.62-2.49,1.62l-6.71.81A2.43,2.43,0,0,1,19,33.7v-.25a.5.5,0,0,0-.5-.5H17.23c-.15,0-.21,0-.23-.05A2.14,2.14,0,0,1,16.91,32Z" fill="#231f20"/><path d="M16.29,8.1a1.29,1.29,0,0,0,.94.34H18a3.42,3.42,0,0,0,3.35,3.18h0l6,.82c1.84,0,4.05-1.4,4.24-3.19h1.21a1.25,1.25,0,0,0,.94-.34,2.11,2.11,0,0,0,.38-1.58V7.12A2.14,2.14,0,0,0,32,5h-.39a3.43,3.43,0,0,0-3.36-3.18L21.57.19h-.11c-1.82,0-3.31,2.12-3.43,4h-.8a1.29,1.29,0,0,0-.94.34,2.12,2.12,0,0,0-.38,1.58v.43A2.12,2.12,0,0,0,16.29,8.1Zm.62-2A2.14,2.14,0,0,1,17,5.22s.08,0,.23,0h1.29a.5.5,0,0,0,.5-.5V4.43c0-1.4,1.15-3.2,2.38-3.25l6.71,1.61.12,0a2.43,2.43,0,0,1,2.43,2.43v.25a.5.5,0,0,0,.5.5H32a1.14,1.14,0,0,1,1.14,1.13v.22a2.2,2.2,0,0,1-.09.87.48.48,0,0,1-.23,0h-1.7a.51.51,0,0,0-.5.5V9c0,1.25-1.83,2.44-3.18,2.44l-6-.82A2.44,2.44,0,0,1,19,8.18V7.94a.5.5,0,0,0-.5-.5H17.23c-.15,0-.21,0-.23-.05a2.14,2.14,0,0,1-.09-.86V6.08Z" fill="#231f20"/><path d="M35.31,42.92a1.28,1.28,0,0,0-.87-.5l-.79-.14a5,5,0,0,0-.5-2.65A3.15,3.15,0,0,0,31,37.75h-.12L24,38.18a3.46,3.46,0,0,0-2.51.59,3.4,3.4,0,0,0-1.35,2l-.39-.07a2.1,2.1,0,0,0-1.59.36,2,2,0,0,0-.87,1.37l0,.21a2.08,2.08,0,0,0,.1,1.62,1.27,1.27,0,0,0,.86.5l1.2.21a3.23,3.23,0,0,0,1.05,2.44,4.93,4.93,0,0,0,2.64,1.43L29,49a4,4,0,0,0,.6,0,3.46,3.46,0,0,0,3.33-2.6l.78.14a1.25,1.25,0,0,0,1-.18A2.07,2.07,0,0,0,35.33,45l.08-.42A2.1,2.1,0,0,0,35.31,42.92Zm-.89,1.43-.07.44a2.18,2.18,0,0,1-.24.84.38.38,0,0,1-.23,0l-1.28-.22a.54.54,0,0,0-.37.08.5.5,0,0,0-.2.33l-.05.24a2.37,2.37,0,0,1-1,1.57,2.45,2.45,0,0,1-1.88.4l-5.94-.21a4,4,0,0,1-2-1.13,2.23,2.23,0,0,1-.76-1.83l0-.24a.47.47,0,0,0-.08-.38A.46.46,0,0,0,20,44l-1.67-.3c-.14,0-.2-.05-.22-.08a2,2,0,0,1,.06-.87l0-.21a1.17,1.17,0,0,1,.46-.74,1.18,1.18,0,0,1,.65-.2.68.68,0,0,1,.2,0l.87.15a.49.49,0,0,0,.37-.09A.51.51,0,0,0,21,41.4l0-.24a2.44,2.44,0,0,1,2.82-2H24l6.88-.44a2.25,2.25,0,0,1,1.41,1.32,3.93,3.93,0,0,1,.38,2.29l0,.24a.5.5,0,0,0,.4.58l1.28.22c.14,0,.2.07.21.09A1.93,1.93,0,0,1,34.42,44.35Z" fill="#231f20"/><path d="M22.85,47.09a.51.51,0,0,1-.45-.28,9.12,9.12,0,0,1-.07-6.45.5.5,0,1,1,1,.29,8.34,8.34,0,0,0,0,5.71.5.5,0,0,1-.22.67A.46.46,0,0,1,22.85,47.09Z" fill="#231f20"/></g><g id="b22995d9-228c-45c5-9458-c91eacf5b2f7" data-name="LABELS"><text transform="translate(0.16 55.11)" font-size="6" fill="#231f20" font-family="Roboto-Regular, Roboto">spine-<tspan x="16.06" y="0" letter-spacing="-0.01em">v</tspan><tspan x="18.93" y="0">e</tspan><tspan x="22.11" y="0" letter-spacing="0.02em">r</tspan><tspan x="24.28" y="0">teb</tspan><tspan x="32.79" y="0" letter-spacing="-0.02em">r</tspan><tspan x="34.7" y="0">ae</tspan></text></g></svg>