<svg xmlns="http://www.w3.org/2000/svg" viewBox="0 0 50 50"><defs><style>.cls-1{font-size:6px;font-family:Roboto-Regular, Roboto;}.cls-2{letter-spacing:0.01em;}</style></defs><g id="ICONS"><path d="M45,18.15a0,0,0,0,0,0,0,16.23,16.23,0,0,0-.88-2.54,14.62,14.62,0,0,0-.86-1.67A5.1,5.1,0,0,0,45.21,10a5.17,5.17,0,0,0-2.1-4.13.5.5,0,0,0-.6,0A5.14,5.14,0,0,0,40.38,10a2.62,2.62,0,0,0,0,.28A16.39,16.39,0,0,0,37,7.76a5.12,5.12,0,0,0,0-4.25A5.16,5.16,0,0,0,33.28.69a.5.5,0,0,0-.54.26,5.15,5.15,0,0,0-.14,4.63,4.4,4.4,0,0,0,.31.56,16.63,16.63,0,0,0-3.69-.5h0a5.08,5.08,0,0,0-8,1.79A.5.5,0,0,0,21.3,8,5.23,5.23,0,0,0,24.7,9.3a5,5,0,0,0,1.08-.12,5.12,5.12,0,0,0,3.34-2.54,15.27,15.27,0,0,1,3.42.44,5.27,5.27,0,0,0-.86.25,5.19,5.19,0,0,0-3,3.51.5.5,0,0,0,.23.56,5.35,5.35,0,0,0,2.73.77,5.07,5.07,0,0,0,1.88-.36,5.16,5.16,0,0,0,2.93-3.22,15.59,15.59,0,0,1,3.9,3,4.73,4.73,0,0,0-1.54-.35,5.11,5.11,0,0,0-4.24,1.86.5.5,0,0,0,0,.6,5.18,5.18,0,0,0,4,2.36h.3a5.13,5.13,0,0,0,3.67-1.59q.41.72.75,1.47a17.64,17.64,0,0,1,.62,1.72c-2.31-.35-7.28-.08-9,.88-2.42,1.32-3.65,4.22-4.42,6.92a10.3,10.3,0,0,0-8.81-5c-2.19,0-16.38.42-17,.43a.51.51,0,0,0-.49.45A19.7,19.7,0,0,0,6.24,31.69l.06.11c.2.37.42.73.66,1.1a14.08,14.08,0,0,0,2.07,3A18,18,0,0,0,26.51,48.57,18.68,18.68,0,0,0,45.17,29.91c0-3.72-.08-10.61-.09-11.42A.49.49,0,0,0,45,18.15ZM29.74,10.73a4.14,4.14,0,0,1,2.32-2.47h0a4.12,4.12,0,0,1,3.38.15,4.06,4.06,0,0,1-5.7,2.32Zm3.72-9a4.13,4.13,0,0,1,2.6,2.17,4.11,4.11,0,0,1,0,3.38,4.11,4.11,0,0,1-2.6-2.17A4.1,4.1,0,0,1,33.46,1.77ZM22.25,7.49a4,4,0,0,1,6-1.34,4.08,4.08,0,0,1-2.69,2A4.16,4.16,0,0,1,22.25,7.49ZM38.56,15.1a4.15,4.15,0,0,1-3-1.6,4,4,0,0,1,6.14.37A4.08,4.08,0,0,1,38.56,15.1ZM41.38,10A4.14,4.14,0,0,1,42.8,6.89a4,4,0,0,1,0,6.15A4.1,4.1,0,0,1,41.38,10ZM7.6,32H23.15a.5.5,0,0,0,.5-.5.5.5,0,0,0-.5-.5H7a16.44,16.44,0,0,1-1.41-3.81H18.75a.5.5,0,0,0,.5-.5.5.5,0,0,0-.5-.5H5.41A19.59,19.59,0,0,1,5.08,22c2.51-.07,14.54-.42,16.5-.42a9.3,9.3,0,0,1,0,18.59A17.36,17.36,0,0,1,9.83,35.27h0a12.39,12.39,0,0,1-2-2.87ZM26.51,47.57A17.35,17.35,0,0,1,10.59,37.25a18.51,18.51,0,0,0,11,3.88,10.3,10.3,0,0,0,9.49-14.28c.69-2.77,1.8-6.06,4.22-7.39,2-1.11,7.39-.92,8.79-.7,0,1.51.09,7.7.09,11.15A17.68,17.68,0,0,1,26.51,47.57Z"/><path d="M40.47,22.52a1.23,1.23,0,1,0,1.22,1.23A1.23,1.23,0,0,0,40.47,22.52Z"/></g><g id="LABELS"><text class="cls-1" transform="translate(-0.1 55.02)">spiritual-se<tspan class="cls-2" x="29.32" y="0">r</tspan><tspan x="31.4" y="0">vices</tspan></text></g></svg>