<svg id="fd138cc2-2f8a-4035-870d-e8ccf5962819" data-name="ICONS" xmlns="http://www.w3.org/2000/svg" viewBox="0 0 50 50"><path d="M36.92,19.45a.49.49,0,0,0-.44-.18l-7,.82-8.32-2.81V2.91a.5.5,0,0,0-.5-.5H14.9a.5.5,0,0,0-.5.5V15L9,13.17a.5.5,0,0,0-.38,0,.48.48,0,0,0-.25.29l-.57,1.66-.87-.29a3,3,0,0,0-3.82,1.89L.62,24.07a3,3,0,0,0,1.89,3.81l.88.3-.56,1.66a.53.53,0,0,0,0,.39.49.49,0,0,0,.28.25l20.5,6.91,5.07,4.9a.52.52,0,0,0,.35.14l.12,0a.47.47,0,0,0,.35-.32L37,19.92A.5.5,0,0,0,36.92,19.45ZM15.4,3.41h4.76V22.16a2.38,2.38,0,1,1-4.76,0ZM2.83,26.93a2,2,0,0,1-1.26-2.54L4,17.07A2,2,0,0,1,6,15.7a1.84,1.84,0,0,1,.64.11l.87.29L3.71,27.23Zm20.76,9.39L3.94,29.69,9.13,14.28l5.27,1.78v6.1a3.38,3.38,0,1,0,6.76,0V18.34l7.63,2.57ZM28.84,41l-4.36-4.21,2.66-7.87,2.66-7.88,6-.71Z"/><path d="M49.19,35.56l-11.89-4a.5.5,0,0,0-.32.95l11.9,4a.4.4,0,0,0,.15,0,.5.5,0,0,0,.16-1Z"/><path d="M36.49,35.06a.49.49,0,0,0-.67-.22.5.5,0,0,0-.23.67l5.85,11.81a.51.51,0,0,0,.45.27.48.48,0,0,0,.23-.05.5.5,0,0,0,.22-.67Z"/><path d="M38.3,29.09a.54.54,0,0,0,.22-.05l10.34-5.12a.5.5,0,0,0-.45-.9L38.08,28.14a.5.5,0,0,0,.22.95Z"/></svg>