<svg xmlns="http://www.w3.org/2000/svg" viewBox="0 0 50 50"><g id="ad3f071f-8b23-48a9-ac04-01686b5f2dae" data-name="ICONS"><path d="M47.88,11.83H36.25a.5.5,0,0,0-.5.5v6.14H24.62a.5.5,0,0,0-.5.5v6.21H13a.5.5,0,0,0-.5.5V31.9H1.37a.5.5,0,0,0-.5.5V44a.5.5,0,0,0,.5.5H47.88a.5.5,0,0,0,.5-.5V12.33A.5.5,0,0,0,47.88,11.83Zm-.5,31.71H1.87V32.9H13a.5.5,0,0,0,.5-.5V26.18H24.62a.5.5,0,0,0,.5-.5V19.47H36.25a.5.5,0,0,0,.5-.5V12.83H47.38Z"/><path d="M28.31,7.39A.51.51,0,0,0,28,7.17l-.07,0-7.89-2.4-.15,0a.51.51,0,0,0-.48.35.5.5,0,0,0,.34.63l6.78,2.06L7.34,18a.5.5,0,1,0,.47.88L27.12,8.59,25,15.45a.51.51,0,0,0,.33.63.5.5,0,0,0,.63-.34l2.4-7.89a.51.51,0,0,0-.07-.42A.06.06,0,0,1,28.31,7.39Z"/></g><g id="aa8322fd-5d68-4b39-88d8-c6ff369725ad" data-name="LABELS"><text transform="translate(-0.32 55.05)" font-size="6" font-family="Roboto-Regular, Roboto">stairs-up</text></g></svg>