<svg xmlns="http://www.w3.org/2000/svg" viewBox="0 0 50 50"><g id="b597ebbd-4e13-4082-a36e-123c9e3e9b12" data-name="ICONS"><path d="M48.21,3.3H33.86a.5.5,0,0,0-.5.5v7H24.65a.51.51,0,0,0-.56.5v8H16.34a.5.5,0,0,0-.5.5v8H7.4a.5.5,0,0,0-.5.5v8.13L1,36.31a.5.5,0,0,0-.5.5v8.64A.5.5,0,0,0,1,46H48.21a.5.5,0,0,0,.5-.5V3.8A.5.5,0,0,0,48.21,3.3ZM47.71,45H1.54V37.31l5.85,0a.5.5,0,0,0,.5-.5V28.66h8.44a.51.51,0,0,0,.5-.5V20.21h7.75a.5.5,0,0,0,.5-.5v-8h8.77a.5.5,0,0,0,.35-.14.49.49,0,0,0,.15-.36v-7H47.71Z"/></g><g id="be51d616-4304-408f-a3ef-bae3a68b6574" data-name="LABELS"><text transform="translate(0.71 55.05)" font-size="6" font-family="Roboto-Regular, Roboto">stairs</text></g></svg>