<svg xmlns="http://www.w3.org/2000/svg" viewBox="0 0 50 50"><g id="b926ac9a-db93-46af-bd26-a40f47314383" data-name="ICONS"><path d="M47.88,11.78H36.25a.5.5,0,0,0-.5.5v6.14H24.62a.5.5,0,0,0-.5.5v6.21H13a.5.5,0,0,0-.5.5v6.22H1.37a.5.5,0,0,0-.5.5V44a.5.5,0,0,0,.5.5H47.88a.5.5,0,0,0,.5-.5V12.28A.5.5,0,0,0,47.88,11.78Zm-.5,31.71H1.87V32.85H13a.5.5,0,0,0,.5-.5V26.13H24.62a.5.5,0,0,0,.5-.5V19.42H36.25a.5.5,0,0,0,.5-.5V12.78H47.38Z"/><path d="M7.36,16.32a.49.49,0,0,0,.27.22l.08,0L15.6,19l.15,0a.49.49,0,0,0,.47-.35.5.5,0,0,0-.33-.63L9.1,16,28.33,5.7a.5.5,0,0,0,.2-.68.49.49,0,0,0-.67-.2L8.55,15.12l2.09-6.86a.5.5,0,1,0-1-.29l-2.4,7.89a.53.53,0,0,0,.07.42A.08.08,0,0,0,7.36,16.32Z"/></g><g id="a5e12ba5-7335-499c-bc7a-21ecf4bd7d5c" data-name="LABELS"><text transform="translate(-0.16 55.05)" font-size="6" font-family="Roboto-Regular, Roboto">stairs-down</text></g></svg>