<svg xmlns="http://www.w3.org/2000/svg" viewBox="0 0 50 50"><g id="ac7f37d5-b975-4279-ad7f-f151971f0014" data-name="ICONS"><path d="M39,13.66l1.57-2.12L38.37,9.9l-1.62,2.17a20,20,0,0,0-8.38-2.85V5h1.85V3H22.28V5h1.85V9.21a20,20,0,0,0-8.39,2.86L14.13,9.9,11.9,11.54l1.56,2.16a20.17,20.17,0,1,0,25.57,0ZM24.75,43.87a16,16,0,1,1,16-16A16.06,16.06,0,0,1,24.75,43.87Z" fill="#fdd600"/><path d="M38.87,12.08l1.33-1.79a.51.51,0,0,0-.11-.7l-3-2.24a.49.49,0,0,0-.37-.09.5.5,0,0,0-.33.2L35,9.3a21.24,21.24,0,0,0-7.13-2.4V4.6h1.35a.5.5,0,0,0,.5-.5V1a.5.5,0,0,0-.5-.5H20.28a.5.5,0,0,0-.5.5V4.1a.5.5,0,0,0,.5.5h1.35V6.9A21.24,21.24,0,0,0,14.5,9.3L13.14,7.46a.5.5,0,0,0-.33-.2.49.49,0,0,0-.37.09l-3,2.24a.5.5,0,0,0-.2.33.49.49,0,0,0,.09.37l1.33,1.79a21.19,21.19,0,1,0,28.24,0ZM24.75,48A20.19,20.19,0,1,1,44.94,27.84,20.21,20.21,0,0,1,24.75,48ZM36.87,8.45,39.1,10.1l-1,1.32a20.14,20.14,0,0,0-2.27-1.6ZM20.78,1.53h7.94V3.6H20.78ZM22.63,4.6h4.24V6.75c-.7-.06-1.41-.1-2.12-.1s-1.42,0-2.12.1ZM10.4,10.1l2.23-1.65,1,1.37a20.14,20.14,0,0,0-2.27,1.6Z" fill="#231f20"/><path d="M30.26,12.74A16,16,0,1,1,9.71,33.3,17,17,0,1,0,30.26,12.74Z" fill="none"/><path d="M24.75,10.8a17,17,0,1,0,17,17A17.06,17.06,0,0,0,24.75,10.8Zm0,33.07a16,16,0,1,1,16-16A16.06,16.06,0,0,1,24.75,43.87Z" fill="#231f20"/><circle cx="24.75" cy="27.84" r="1.48" fill="#231f20"/><path d="M24.75,16.21a.5.5,0,0,0,.5-.5v-2a.5.5,0,0,0-1,0v2A.5.5,0,0,0,24.75,16.21Z" fill="#231f20"/><path d="M14.55,17.87a.49.49,0,0,0-.7,0,.48.48,0,0,0,0,.7L15.34,20a.51.51,0,0,0,.34.13.5.5,0,0,0,.36-.16.5.5,0,0,0,0-.71Z" fill="#231f20"/><path d="M24.75,39.46a.5.5,0,0,0-.5.5v2a.5.5,0,0,0,1,0V40A.5.5,0,0,0,24.75,39.46Z" fill="#231f20"/><path d="M12.5,27.34h-2a.5.5,0,0,0-.5.5.51.51,0,0,0,.5.5h2a.51.51,0,0,0,.5-.5A.5.5,0,0,0,12.5,27.34Z" fill="#231f20"/><path d="M38.84,27.34h-2a.5.5,0,0,0-.5.5.5.5,0,0,0,.5.5h2a.5.5,0,0,0,.5-.5A.5.5,0,0,0,38.84,27.34Z" fill="#231f20"/><path d="M34,35.69a.5.5,0,1,0-.67.73l1.46,1.35a.51.51,0,0,0,.34.13.52.52,0,0,0,.36-.16.5.5,0,0,0,0-.71Z" fill="#231f20"/><path d="M15.34,35.69,13.88,37a.5.5,0,0,0,0,.71.52.52,0,0,0,.37.16.51.51,0,0,0,.33-.13L16,36.42a.5.5,0,1,0-.67-.73Z" fill="#231f20"/><path d="M34.77,17.87l-1.46,1.34a.5.5,0,0,0,0,.71.52.52,0,0,0,.37.16A.51.51,0,0,0,34,20l1.46-1.35a.48.48,0,0,0,0-.7A.49.49,0,0,0,34.77,17.87Z" fill="#231f20"/><path d="M26.8,29.23a2.48,2.48,0,0,0-1.55-3.82V19.7a.51.51,0,0,0-.5-.5h0a.49.49,0,0,0-.49.5v5.71a2.48,2.48,0,1,0,1.82,4.52l2.71,2.49a.53.53,0,0,0,.34.13.5.5,0,0,0,.36-.16.5.5,0,0,0,0-.71Zm-2.05-2.88a1.49,1.49,0,1,1-1.48,1.49A1.49,1.49,0,0,1,24.75,26.35Z" fill="#231f20"/></g><g id="f0559dee-5c7c-4ecd-ac59-fd9876864e8d" data-name="LABELS"><text transform="translate(0.39 54.96)" font-size="6" fill="#231f20" font-family="Roboto-Regular, Roboto">s<tspan x="3.09" y="0" letter-spacing="-0.01em">t</tspan><tspan x="5" y="0">opwatch-timer</tspan></text></g></svg>