<svg xmlns="http://www.w3.org/2000/svg" viewBox="0 0 50 50"><g id="ac5ee781-b78f-4503-9ccb-5595c175c5c8" data-name="ICONS"><path d="M47,25.3a14.88,14.88,0,0,1-8.18-5.89C34.1,13,30.2,9.83,26.19,9.24a10.7,10.7,0,0,0-5.41.22,4,4,0,0,0-1.82,1,9.54,9.54,0,0,0-1-.31h-.11l-4.73,0h-.15l0,0h0A13.35,13.35,0,0,0,10,11.32a10.27,10.27,0,0,0-1.18.77L2.11,18.47a3.12,3.12,0,0,0,0,3.78c.47.5.94,1,1.41,1.5.79.84,1.57,1.69,2.34,2.54a2.43,2.43,0,0,0,3.36.76v1.18a.5.5,0,0,0,.5.5h0L8.16,45.41a2.72,2.72,0,0,0-.15.86V47s0,.06,0,.09,0,.06,0,.09l.06.11s0,0,0,.05h0l.12.09s0,0,0,0a.42.42,0,0,0,.2,0h4.93a.52.52,0,0,0,.18,0s0,0,.06,0l.1-.07s0,0,.05-.06l.06-.09s0,0,0-.08a.19.19,0,0,0,0-.08l1.49-15.58h.35l1.48,15.58a.24.24,0,0,1,0,.08l0,.09s0,.05.06.08l.05.07.09.06.06,0a.57.57,0,0,0,.18,0h4.94a.45.45,0,0,0,.2,0s0,0,0,0l.12-.09h0l0-.05.07-.11a.28.28,0,0,0,0-.09.29.29,0,0,0,0-.09v-.77a2.72,2.72,0,0,0-.15-.86L21.44,28.73h0a.5.5,0,0,0,.5-.5v0l.19,0A2.56,2.56,0,0,0,24,27.45l.62,1.16,5.91,9.94a.5.5,0,0,0,.43.25h0a.52.52,0,0,0,.43-.25s3.11-5.3,7-6.18a23.33,23.33,0,0,0,9.65-5.18,1.05,1.05,0,0,0,.43-.93C48.41,25.76,47.88,25.59,47,25.3Zm-16,12-5.49-9.22-.8-1.49,3.95-4.33a3.33,3.33,0,0,0,.6-2,3.51,3.51,0,0,0-.92-2.08,75.48,75.48,0,0,0-6.45-6.1,8.62,8.62,0,0,0-1.05-.74,8.2,8.2,0,0,0-.82-.46,4.49,4.49,0,0,1,1.08-.47c1.18-.37,2.17-.58,5-.19,3.67.54,7.47,3.64,12,9.77a16,16,0,0,0,8.68,6.25c.24.08.5.16.68.24a22.3,22.3,0,0,1-9.15,4.9C34.75,32.17,32,35.79,31,37.34Zm-8.8,8.93v.27H18.25v-.27A1.74,1.74,0,0,1,20,44.53h.45A1.74,1.74,0,0,1,22.18,46.27Zm-1.74-2.74H20a2.74,2.74,0,0,0-2,.87L16.72,31a.5.5,0,0,0-.5-.45H15a.49.49,0,0,0-.5.45L13.19,44.4a2.74,2.74,0,0,0-2-.87h-.45A2.76,2.76,0,0,0,9.3,44l1.45-15.22h9.68L21.88,44A2.73,2.73,0,0,0,20.44,43.53Zm-7.5,3H9v-.27a1.74,1.74,0,0,1,1.74-1.74h.45a1.74,1.74,0,0,1,1.74,1.74ZM4.25,23.06,2.88,21.61a2.18,2.18,0,0,1-.41-1.1,2.25,2.25,0,0,1,.38-1.38l6.62-6.27c.32-.23.66-.45,1-.67a12.7,12.7,0,0,1,2.3-1l.34-.12,4.58,0c.1,0,.2.07.3.1a7.66,7.66,0,0,1,.85.27,8.56,8.56,0,0,1,1.42.71,8.68,8.68,0,0,1,.93.66,72.65,72.65,0,0,1,6.32,6,2.56,2.56,0,0,1,.69,1.5,2.23,2.23,0,0,1-.39,1.35l-3.14,3.45a2.62,2.62,0,0,0-2.08-2.05l2.53-2.53a.54.54,0,0,0,.15-.38.54.54,0,0,0-.18-.36l-3.35-2.74a.49.49,0,0,0-.53-.07.5.5,0,0,0-.28.45v5.62H10.22V17.48s0-.06,0-.1A.52.52,0,0,0,9.93,17a.49.49,0,0,0-.53.07L6.06,19.84a.4.4,0,0,0-.13.16s0,0,0,.06a.5.5,0,0,0,0,.13h0a.24.24,0,0,0,0,.08.2.2,0,0,0,0,.11s0,.05,0,.08l0,.09,1.79,2a2.44,2.44,0,0,0-2.25,1.91Zm5-4.52v4.1L7.1,20.28Zm12.75,0,2.09,1.72L22,22.33ZM6.48,25a1.45,1.45,0,1,1,1.44,1.44A1.45,1.45,0,0,1,6.48,25Zm3.74-.83v-.09h9.89a2.55,2.55,0,0,0,.55,3.66H10.22V25.81a2.34,2.34,0,0,0,0-1.65Zm10.35,1.47a1.6,1.6,0,1,1,1.59,1.59A1.59,1.59,0,0,1,20.57,25.63Z"/><path d="M11.39,15.47c0,1.29,2.06,2,4.09,2s4.1-.68,4.1-2A1.26,1.26,0,0,0,19.5,15a.08.08,0,0,1,0,0C18.54,12.89,11.39,13.05,11.39,15.47Zm4.09,1c-2,0-3.09-.68-3.09-1s1-1,3.09-1,3.1.68,3.1,1S17.53,16.44,15.48,16.44Z"/><path d="M28.7,13.83A.5.5,0,0,0,28,14a.51.51,0,0,0,.17.69c2.54,1.51,5.19,4.19,8.12,8.19a.51.51,0,0,0,.4.2A.49.49,0,0,0,37,23a.51.51,0,0,0,.11-.7C34.1,18.18,31.35,15.41,28.7,13.83Z"/><path d="M7.51,26.36l-1-1.08A1.44,1.44,0,0,0,7.51,26.36Z"/><path d="M15.44,9.06A4.24,4.24,0,1,0,11.2,4.82,4.24,4.24,0,0,0,15.44,9.06Zm0-7.47A3.24,3.24,0,1,1,12.2,4.82,3.23,3.23,0,0,1,15.44,1.59Z"/></g><g id="b096e948-8525-488c-965b-b59653a1b498" data-name="LABELS"><text transform="translate(-0.05 54.81)" font-size="6" font-family="Roboto-Regular, Roboto">superhe<tspan x="21.46" y="0" letter-spacing="-0.01em">r</tspan><tspan x="23.43" y="0">o</tspan></text></g></svg>