<svg xmlns="http://www.w3.org/2000/svg" viewBox="0 0 50 50"><g id="f536b99f-457b-49c9-aa34-1ca110b59f3d" data-name="ICONS"><path d="M48.52,28a16,16,0,0,1-8.68-6.25c-4.49-6.13-8.29-9.23-12-9.77-2.81-.39-3.79-.18-5,.19a3.12,3.12,0,0,0-1.36.68l-.1.18a.5.5,0,0,1-.64.24l-.16-.06h0l-.07,0a7.24,7.24,0,0,0-1-.32l-4.6,0a12.46,12.46,0,0,0-2.63,1.12c-.38.22-.72.44-1,.66L4.68,20.88a2.25,2.25,0,0,0-.38,1.38,2.09,2.09,0,0,0,.41,1.1l1.37,1.45c.14.16.28.32.43.47a1.36,1.36,0,0,1,0-.29,1.45,1.45,0,1,1,1.44,1.44,1.14,1.14,0,0,1-.41-.07c.31.35.63.69,1,1a1.48,1.48,0,0,0,2.63-.09.5.5,0,0,1,.56-.3.51.51,0,0,1,.4.49v2h.08a.5.5,0,0,1,.37.17.52.52,0,0,1,.13.38L11.24,44.54a1.74,1.74,0,0,1,1.7,1.73v.27H11.05l-.07.75a.31.31,0,0,1,0,.13,1.64,1.64,0,0,0-.12.6v.27h4L16.3,32.71a.49.49,0,0,1,.49-.45h1.26a.5.5,0,0,1,.5.45l1.13,11.85a3,3,0,0,1,.31,0h.45a1.74,1.74,0,0,1,1.74,1.74v.27H19.87L20,48.29h4V48a1.64,1.64,0,0,0-.12-.6l0-.13L22.22,30a.45.45,0,0,1,.13-.38.48.48,0,0,1,.37-.17h.08v-.14a.46.46,0,0,1,.21-.4.49.49,0,0,1,.45-.07,1.52,1.52,0,0,0,1.9-.68.36.36,0,0,1,.07-.1l.11-.12a.5.5,0,0,1,.43-.16.51.51,0,0,1,.38.25l1,1.81,5.49,9.22c1-1.55,3.77-5.17,7.24-6a22.37,22.37,0,0,0,9.15-4.9C49,28.16,48.76,28.08,48.52,28ZM7.1,20.28l2.12-1.74v4.1Zm8.38-3.84c-2,0-3.09-.68-3.09-1s1-1,3.09-1,3.1.68,3.1,1S17.53,16.44,15.48,16.44Zm6.68,10.78a1.59,1.59,0,1,1,1.6-1.59A1.59,1.59,0,0,1,22.16,27.22ZM22,22.33V18.51l2.09,1.72Z" fill="#fdd600"/><path d="M47,25.3a14.88,14.88,0,0,1-8.18-5.89C34.1,13,30.2,9.83,26.19,9.24a10.7,10.7,0,0,0-5.41.22,4,4,0,0,0-1.82,1,9.54,9.54,0,0,0-1-.31h-.11l-4.73,0h-.15l0,0h0A13.35,13.35,0,0,0,10,11.32a10.27,10.27,0,0,0-1.18.77L2.11,18.47a3.12,3.12,0,0,0,0,3.78c.47.5.94,1,1.41,1.5.79.84,1.57,1.69,2.34,2.54a2.43,2.43,0,0,0,3.36.76v1.18a.5.5,0,0,0,.5.5h0L8.16,45.41a2.72,2.72,0,0,0-.15.86V47s0,.06,0,.09,0,.06,0,.09l.06.11s0,0,0,.05h0l.12.09s0,0,0,0a.42.42,0,0,0,.2,0h4.93a.52.52,0,0,0,.18,0s0,0,.06,0l.1-.07s0,0,.05-.06l.06-.09s0,0,0-.08a.19.19,0,0,0,0-.08l1.49-15.58h.35l1.48,15.58a.24.24,0,0,1,0,.08l0,.09s0,.05.06.08l.05.07.09.06.06,0a.57.57,0,0,0,.18,0h4.94a.45.45,0,0,0,.2,0s0,0,0,0l.12-.09h0l0-.05.07-.11a.28.28,0,0,0,0-.09.29.29,0,0,0,0-.09v-.77a2.72,2.72,0,0,0-.15-.86L21.44,28.73h0a.5.5,0,0,0,.5-.5v0l.19,0A2.56,2.56,0,0,0,24,27.45l.62,1.16,5.91,9.94a.5.5,0,0,0,.43.25h0a.52.52,0,0,0,.43-.25s3.11-5.3,7-6.18a23.33,23.33,0,0,0,9.65-5.18,1.05,1.05,0,0,0,.43-.93C48.41,25.76,47.88,25.59,47,25.3Zm-16,12-5.49-9.22-.8-1.49,3.95-4.33a3.33,3.33,0,0,0,.6-2,3.51,3.51,0,0,0-.92-2.08,75.48,75.48,0,0,0-6.45-6.1,8.62,8.62,0,0,0-1.05-.74,8.2,8.2,0,0,0-.82-.46,4.49,4.49,0,0,1,1.08-.47c1.18-.37,2.17-.58,5-.19,3.67.54,7.47,3.64,12,9.77a16,16,0,0,0,8.68,6.25c.24.08.5.16.68.24a22.3,22.3,0,0,1-9.15,4.9C34.75,32.17,32,35.79,31,37.34Zm-8.8,8.93v.27H18.25v-.27A1.74,1.74,0,0,1,20,44.53h.45A1.74,1.74,0,0,1,22.18,46.27Zm-1.74-2.74H20a2.74,2.74,0,0,0-2,.87L16.72,31a.5.5,0,0,0-.5-.45H15a.49.49,0,0,0-.5.45L13.19,44.4a2.74,2.74,0,0,0-2-.87h-.45A2.76,2.76,0,0,0,9.3,44l1.45-15.22h9.68L21.88,44A2.73,2.73,0,0,0,20.44,43.53Zm-7.5,3H9v-.27a1.74,1.74,0,0,1,1.74-1.74h.45a1.74,1.74,0,0,1,1.74,1.74ZM4.25,23.06,2.88,21.61a2.18,2.18,0,0,1-.41-1.1,2.25,2.25,0,0,1,.38-1.38l6.62-6.27c.32-.23.66-.45,1-.67a12.7,12.7,0,0,1,2.3-1l.34-.12,4.58,0c.1,0,.2.07.3.1a7.66,7.66,0,0,1,.85.27,8.56,8.56,0,0,1,1.42.71,8.68,8.68,0,0,1,.93.66,72.65,72.65,0,0,1,6.32,6,2.56,2.56,0,0,1,.69,1.5,2.23,2.23,0,0,1-.39,1.35l-3.14,3.45a2.62,2.62,0,0,0-2.08-2.05l2.53-2.53a.54.54,0,0,0,.15-.38.54.54,0,0,0-.18-.36l-3.35-2.74a.49.49,0,0,0-.53-.07.5.5,0,0,0-.28.45v5.62H10.22V17.48s0-.06,0-.1A.52.52,0,0,0,9.93,17a.49.49,0,0,0-.53.07L6.06,19.84a.4.4,0,0,0-.13.16s0,0,0,.06a.5.5,0,0,0,0,.13h0a.24.24,0,0,0,0,.08.2.2,0,0,0,0,.11s0,.05,0,.08l0,.09,1.79,2a2.44,2.44,0,0,0-2.25,1.91Zm5-4.52v4.1L7.1,20.28Zm12.75,0,2.09,1.72L22,22.33ZM6.48,25a1.45,1.45,0,1,1,1.44,1.44A1.45,1.45,0,0,1,6.48,25Zm3.74-.83v-.09h9.89a2.55,2.55,0,0,0,.55,3.66H10.22V25.81a2.34,2.34,0,0,0,0-1.65Zm10.35,1.47a1.6,1.6,0,1,1,1.59,1.59A1.59,1.59,0,0,1,20.57,25.63Z" fill="#231f20"/><path d="M11.39,15.47c0,1.29,2.06,2,4.09,2s4.1-.68,4.1-2A1.26,1.26,0,0,0,19.5,15a.08.08,0,0,1,0,0C18.54,12.89,11.39,13.05,11.39,15.47Zm4.09,1c-2,0-3.09-.68-3.09-1s1-1,3.09-1,3.1.68,3.1,1S17.53,16.44,15.48,16.44Z" fill="#231f20"/><path d="M28.7,13.83A.5.5,0,0,0,28,14a.51.51,0,0,0,.17.69c2.54,1.51,5.19,4.19,8.12,8.19a.51.51,0,0,0,.4.2A.49.49,0,0,0,37,23a.51.51,0,0,0,.11-.7C34.1,18.18,31.35,15.41,28.7,13.83Z" fill="#231f20"/><path d="M7.51,26.36l-1-1.08A1.44,1.44,0,0,0,7.51,26.36Z" fill="#231f20"/><path d="M15.44,9.06A4.24,4.24,0,1,0,11.2,4.82,4.24,4.24,0,0,0,15.44,9.06Zm0-7.47A3.24,3.24,0,1,1,12.2,4.82,3.23,3.23,0,0,1,15.44,1.59Z" fill="#231f20"/></g><g id="bb0fd44d-8e0f-4d60-b5f7-722d7a43d0de" data-name="LABELS"><text transform="translate(-0.05 54.81)" font-size="6" fill="#231f20" font-family="Roboto-Regular, Roboto">superhe<tspan x="21.46" y="0" letter-spacing="-0.01em">r</tspan><tspan x="23.43" y="0">o</tspan></text></g></svg>