<svg xmlns="http://www.w3.org/2000/svg" viewBox="0 0 50 50"><g id="f041b196-749c-4977-bcae-1b2cbeda00a9" data-name="ICONS"><path d="M45.17,8.9a.53.53,0,0,0-.39-.41l-4.11-.86a4.51,4.51,0,0,0-1.94-3.28,4.24,4.24,0,0,0-2.09-.66L36.88,1a.51.51,0,0,0-.24-.48.51.51,0,0,0-.53,0,18.58,18.58,0,0,0-5.37,5.3,18.87,18.87,0,0,0-3,7.7.5.5,0,0,0-.58.39l-.56,2.66a.38.38,0,0,0,0,.15,32.06,32.06,0,0,0-5.78,4.19c-7.34,6.68-10,15.25-11,21.31a.82.82,0,0,1-.3.6A.73.73,0,0,1,9,43a.82.82,0,0,1-.74-.71V32.7a2,2,0,0,0-4,0V43.2A5.89,5.89,0,0,0,9.72,49h15.5a2.22,2.22,0,1,0,0-4.44H23.5A15.84,15.84,0,0,1,30,39.75l.76,8.84a.5.5,0,0,0,.5.46H35.1a2.22,2.22,0,0,0,0-4.44H35V29.13a23.6,23.6,0,0,0,1.34-3.63,23.84,23.84,0,0,0,.85-6.36.47.47,0,0,0,.18-.29L38,16.19a.51.51,0,0,0-.17-.48c.22-.46.44-.93.63-1.41s.31-.78.44-1.16h1.92a5,5,0,0,0,1.66-.24A5,5,0,0,0,44,12.11,3.44,3.44,0,0,0,45,10.57,3.5,3.5,0,0,0,45.17,8.9ZM35.4,25.23a23.37,23.37,0,0,1-1.33,3.58h0a.65.65,0,0,0,0,.2V45.11a.5.5,0,0,0,.5.5h.58a1.22,1.22,0,0,1,0,2.44H31.67L30.29,32A.51.51,0,0,0,30,31.6a3.61,3.61,0,0,1-.94-.75,3.83,3.83,0,0,1-.88-2.28.48.48,0,0,0-.52-.47.5.5,0,0,0-.48.52,4.8,4.8,0,0,0,1.13,2.89,4.53,4.53,0,0,0,1,.83l.55,6.38c-2.86.9-5.35,3.17-7.21,5.35-.31-4.53-2.65-7.94-5.58-7.94a.5.5,0,0,0-.5.5.51.51,0,0,0,.5.5c2.45,0,4.46,3.31,4.61,7.48H18.83a.5.5,0,0,0,0,1h6.39a1.22,1.22,0,1,1,0,2.44H13.87V45.11a.5.5,0,0,0-.5-.5.5.5,0,0,0-.5.5v2.94H9.78A4.88,4.88,0,0,1,5.29,43.2V32.7a1,1,0,1,1,2,0v9.67A1.85,1.85,0,0,0,9,44a1.69,1.69,0,0,0,1.28-.44,1.79,1.79,0,0,0,.63-1.25c.94-5.85,3.54-14.19,10.66-20.69a31.82,31.82,0,0,1,6-4.29l.63.05,8,1.7A22.86,22.86,0,0,1,35.4,25.23Zm1.12-7.07-8.8-1.86.36-1.69,8.8,1.86Zm7.56-7.91a2.54,2.54,0,0,1-.72,1.08,4.2,4.2,0,0,1-1.22.6,3.9,3.9,0,0,1-1.36.2H38.49a.51.51,0,0,0-.47.35c-.15.46-.33.94-.53,1.44s-.44,1-.68,1.5l-8-1.69a17.83,17.83,0,0,1,2.8-7.35A17.39,17.39,0,0,1,35.79,2L35.6,4.15a.49.49,0,0,0,.14.4.49.49,0,0,0,.4.15,3.29,3.29,0,0,1,2,.49,3.65,3.65,0,0,1,1.52,2.86.48.48,0,0,0,.39.48l4.11.87A2.32,2.32,0,0,1,44.08,10.25Z"/><path d="M37.93,6.9H36.44a.5.5,0,0,0-.5.5.5.5,0,0,0,.5.5h1.49a.5.5,0,0,0,.5-.5A.5.5,0,0,0,37.93,6.9Z"/><path d="M31.17,26.91a3.73,3.73,0,1,0-3.73-3.73A3.73,3.73,0,0,0,31.17,26.91Zm0-6.46a2.73,2.73,0,1,1-2.73,2.73A2.73,2.73,0,0,1,31.17,20.45Z"/><polygon points="30.5 24.83 31.83 24.83 31.83 23.84 32.82 23.84 32.82 22.52 31.83 22.52 31.83 21.53 30.5 21.53 30.5 22.52 29.52 22.52 29.52 23.84 30.5 23.84 30.5 24.83"/></g><g id="ba90b51d-e2a0-4fa3-8d23-ae786e294f94" data-name="LABELS"><text transform="translate(0 55.01)" font-size="6" font-family="Roboto-Regular, Roboto">suppo<tspan x="16.56" y="0" letter-spacing="0.02em">r</tspan><tspan x="18.73" y="0">t-animal</tspan></text></g></svg>