<svg id="b6569ee4-2d5a-4422-ba51-5e8c35d2de96" data-name="ICONS" xmlns="http://www.w3.org/2000/svg" viewBox="0 0 50 50"><path d="M29.31,34.37l-.07-29.3a4.07,4.07,0,0,0-4-4.32,4.12,4.12,0,0,0-4.08,4.32v29a8.07,8.07,0,1,0,11.89,7.11A8.11,8.11,0,0,0,29.31,34.37ZM25,48.25a7.07,7.07,0,0,1-3.1-13.42.49.49,0,0,0,.28-.44V5.07a3.14,3.14,0,0,1,3.08-3.32,3.07,3.07,0,0,1,3,3.32v2H26.31a.5.5,0,0,0-.5.5.5.5,0,0,0,.5.5h1.94v2.25H26.4a.5.5,0,0,0-.5.5.5.5,0,0,0,.5.5h1.86v2.19a.7.7,0,0,0-.14,0H26.23a.51.51,0,0,0-.5.5.5.5,0,0,0,.5.5h1.89a.32.32,0,0,0,.14,0l0,20.17a.48.48,0,0,0,.25.43A7.06,7.06,0,0,1,25,48.25Z"/><path d="M25.67,37.24V17.37a.5.5,0,0,0-.5-.5.5.5,0,0,0-.5.5V37.25a4.11,4.11,0,1,0,1,0Zm-.46,7.19a3.12,3.12,0,1,1,3.11-3.12A3.12,3.12,0,0,1,25.21,44.43Z"/></svg>