<svg xmlns="http://www.w3.org/2000/svg" viewBox="0 0 50 50"><g id="e16e10b6-11ac-4257-96a9-40b8790b66ec" data-name="ICONS"><path d="M39.18,38.94l.16-.07a2.4,2.4,0,0,0-.28-.29A.49.49,0,0,0,39.18,38.94Z" fill="none"/><path d="M13.85,39.08a25.7,25.7,0,0,0-2.71-7.34A18.13,18.13,0,0,1,8.65,22.9c-.11-7.39,1.24-16.22,12.73-19a21.27,21.27,0,0,1,17.48,4.3c-5-5.77-13.73-7.37-19.23-6.05C8.14,4.93,6.79,13.76,6.9,21.15A18.13,18.13,0,0,0,9.39,30a25.7,25.7,0,0,1,2.71,7.34c1.14,5.92-.47,8.8-1.39,10.25h2.68C14.1,45.86,14.65,43.21,13.85,39.08Z" fill="none"/><path d="M38.92,37.11c2.86-.74,2.86-1.14,2.86-1.46A22.22,22.22,0,0,0,41.2,33l2.86-1.49a1.52,1.52,0,0,0,.82-1.28,1.45,1.45,0,0,0-.16-.78c-.33-.66-.86-1.73-1.36-2.88a13.38,13.38,0,0,1-1.27-4.23,16.8,16.8,0,0,1,.34-2.69,17.25,17.25,0,0,0,.25-6.59,8.07,8.07,0,0,0-.43-1.37C39.19,4.74,29.58-1.23,19.39,1.2,7.08,4.15,5.79,14,5.9,21.16a18.88,18.88,0,0,0,2.6,9.28,25.09,25.09,0,0,1,2.62,7.08c1.12,5.8-.56,8.44-1.37,9.71a4.89,4.89,0,0,0-.37.65.49.49,0,0,0,0,.47.5.5,0,0,0,.42.23h9.5l3.21,0h0a.45.45,0,0,0,.2,0h7a.51.51,0,0,0,.5-.5.13.13,0,0,0,0-.06V41.39l.94.5a20.69,20.69,0,0,0,3.53,1.49c1.53.46,3,.58,3.79-.21.26-.26.25-.69.2-1.64a8.11,8.11,0,0,1,0-1.2c0-.17.13-.24.58-.39a2,2,0,0,0,.67-.32.89.89,0,0,0,.39-.71c0-.13,0-.36-.48-.89A13.18,13.18,0,0,0,38.92,37.11ZM22.08,41.05l0,6.53H19.79V37.32a1.4,1.4,0,0,1,1.4-1.39h13.9L35,38.64l-10.56,0A2.42,2.42,0,0,0,22.08,41.05Zm17.1-2.11L39,39a1.53,1.53,0,0,0-1.26,1.2,8,8,0,0,0,0,1.39,7.93,7.93,0,0,1,0,1c-1.12.87-5.15-.88-7.72-2.44a.47.47,0,0,0-.5,0,.49.49,0,0,0-.26.43V47.6c-.53,0-1.35,0-2.62,0H23.06l0-6.52a1.42,1.42,0,0,1,1.39-1.4l11.05,0a.51.51,0,0,0,.5-.49l.08-3.71a.5.5,0,0,0-.5-.51H21.19a2.39,2.39,0,0,0-2.4,2.39V47.58H10.71c.92-1.45,2.53-4.33,1.39-10.25A25.7,25.7,0,0,0,9.39,30,18.13,18.13,0,0,1,6.9,21.15c-.11-7.39,1.24-16.22,12.73-19,5.5-1.32,14.21.28,19.23,6.05a15.1,15.1,0,0,1,2.47,3.85c1,2.27.51,5.11.11,7.39a18.23,18.23,0,0,0-.35,2.86c0,1.92,1.72,5.56,2.74,7.56a.52.52,0,0,1-.23.72l-3.22,1.67a.51.51,0,0,0-.25.58c.26,1,.54,2.13.62,2.6a19.27,19.27,0,0,1-3.07.93.5.5,0,0,0-.18.89,17.84,17.84,0,0,1,1.56,1.3,2.4,2.4,0,0,1,.28.29Z"/></g><g id="f6193ba7-cb1d-4123-9bf7-667a5e09c6b9" data-name="LABELS"><text transform="translate(0.66 55.06)" font-size="6" font-family="Roboto-Regular, Roboto">th<tspan x="5.26" y="0" letter-spacing="-0.01em">r</tspan><tspan x="7.24" y="0">oat</tspan></text></g></svg>