<svg id="e4033420-0d0e-4938-a630-5ac38c46702c" data-name="ICONS" xmlns="http://www.w3.org/2000/svg" viewBox="0 0 50 50"><path d="M45,14.69H7.55A4.89,4.89,0,0,1,3.21,19V33.51a4.88,4.88,0,0,1,4.34,4.34H45a4.88,4.88,0,0,1,4.34-4.34V19A4.89,4.89,0,0,1,45,14.69Z" fill="#fdd600"/><polygon points="10.82 28.44 10.82 21.72 13.25 21.72 13.25 20.9 7.42 20.9 7.42 21.72 9.84 21.72 9.84 28.44 10.82 28.44" fill="#231f20"/><rect x="14.44" y="20.9" width="0.99" height="7.53" fill="#231f20"/><path d="M48.35,16.52a3.85,3.85,0,0,1-3.85-3.85.52.52,0,0,0-.52-.52H5.56a.52.52,0,0,0-.52.52,3.85,3.85,0,0,1-3.85,3.85A.52.52,0,0,0,.67,17V32.5a.52.52,0,0,0,.52.52A3.85,3.85,0,0,1,5,36.86a.52.52,0,0,0,.52.52H44a.52.52,0,0,0,.52-.52A3.85,3.85,0,0,1,48.35,33a.53.53,0,0,0,.52-.52V17A.52.52,0,0,0,48.35,16.52ZM47.83,32a4.88,4.88,0,0,0-4.34,4.34H6.05A4.88,4.88,0,0,0,1.71,32V17.53a4.89,4.89,0,0,0,4.34-4.34H43.49a4.89,4.89,0,0,0,4.34,4.34Z" fill="#231f20"/><path d="M42,17.3H7.55a.52.52,0,1,0,0,1H42a.52.52,0,1,0,0-1Z" fill="#231f20"/><path d="M42,31H7.55a.52.52,0,0,0,0,1H42a.52.52,0,0,0,0-1Z" fill="#231f20"/><path d="M18.53,22.32A1.77,1.77,0,0,1,20,21.61a1.7,1.7,0,0,1,1.21.41,2.16,2.16,0,0,1,.56,1.3h1a2.8,2.8,0,0,0-.85-1.85A2.69,2.69,0,0,0,20,20.8a2.89,2.89,0,0,0-1.59.43,2.78,2.78,0,0,0-1.07,1.22A4.3,4.3,0,0,0,17,24.3V25a3.86,3.86,0,0,0,.8,2.56,2.66,2.66,0,0,0,2.14,1,2.88,2.88,0,0,0,2-.65,2.82,2.82,0,0,0,.88-1.84h-1a2.06,2.06,0,0,1-.59,1.3,1.91,1.91,0,0,1-1.27.38A1.64,1.64,0,0,1,18.5,27,3.32,3.32,0,0,1,18,25.05v-.73A3.22,3.22,0,0,1,18.53,22.32Z" fill="#231f20"/><polygon points="24.14 20.9 24.14 28.44 25.14 28.44 25.14 25.89 26.06 24.93 28.73 28.44 29.92 28.44 26.72 24.23 29.68 20.9 28.48 20.9 25.14 24.63 25.14 20.9 24.14 20.9" fill="#231f20"/><polygon points="35.52 21.72 35.52 20.9 30.79 20.9 30.79 28.44 35.57 28.44 35.57 27.63 31.78 27.63 31.78 24.96 35.05 24.96 35.05 24.14 31.78 24.14 31.78 21.72 35.52 21.72" fill="#231f20"/><polygon points="39.7 28.44 39.7 21.72 42.12 21.72 42.12 20.9 36.29 20.9 36.29 21.72 38.71 21.72 38.71 28.44 39.7 28.44" fill="#231f20"/></svg>