<svg xmlns="http://www.w3.org/2000/svg" viewBox="0 0 50 50"><g id="bdba5d0c-b086-41fe-8f5a-2e2ef9fb7fd3" data-name="ICONS"><path d="M24.75,13.38a.5.5,0,0,0-.5.5v6.68h1V13.88A.5.5,0,0,0,24.75,13.38Z" fill="none"/><path d="M16.82,17.44a.49.49,0,0,0-.43.55l.31,2.57h1l-.33-2.69A.49.49,0,0,0,16.82,17.44Z" fill="none"/><path d="M32.68,17.44a.49.49,0,0,0-.56.43l-.33,2.69h1L33.11,18A.49.49,0,0,0,32.68,17.44Z" fill="none"/><polygon points="38.69 20.56 37.8 25.35 32.22 25.35 32.8 20.56 31.8 20.56 31.21 25.35 25.25 25.35 25.25 20.56 24.25 20.56 24.25 25.35 18.29 25.35 17.71 20.56 16.7 20.56 17.28 25.35 11.75 25.35 10.86 20.56 3.42 20.56 3.42 46.7 49.08 46.7 49.08 20.56 38.69 20.56" fill="#fdd600"/><path d="M48.08,18.06H40.17L42.46,5.79a.51.51,0,0,0-.21-.5.48.48,0,0,0-.54,0,9.08,9.08,0,0,1-5.22,1.49A9.24,9.24,0,0,1,31,5.1a10.17,10.17,0,0,0-6-1.8,10.15,10.15,0,0,0-6,1.8,9.27,9.27,0,0,1-5.5,1.66A9.24,9.24,0,0,1,8,5.1L7.79,5a.5.5,0,0,0-.54,0A.53.53,0,0,0,7,5.51L9.38,18.06h-8a.5.5,0,0,0-.5.5V45.7a.5.5,0,0,0,.5.5H48.08a.5.5,0,0,0,.5-.5V18.56A.5.5,0,0,0,48.08,18.06ZM8.23,6.4a9.73,9.73,0,0,0,5.25,1.36,10.22,10.22,0,0,0,6-1.8A9.21,9.21,0,0,1,25,4.3,9.17,9.17,0,0,1,30.48,6a10.24,10.24,0,0,0,6,1.8,9.69,9.69,0,0,0,4.79-1.11L37.8,25.35H32.22L33.11,18a.5.5,0,0,0-1-.12l-.91,7.48h-6V13.88a.5.5,0,0,0-1,0V25.35h-6l-.91-7.48a.5.5,0,0,0-1,.12l.89,7.36H11.75ZM47.58,45.2H1.92V34.58H47.58Zm0-11.62H1.92V19.06H9.56l1.17,6.29h-3a.5.5,0,0,0-.5.5.5.5,0,0,0,.5.5H41.79a.5.5,0,0,0,.5-.5.5.5,0,0,0-.5-.5h-3L40,19.06h7.59Z" fill="#231f20"/></g><g id="edb1e79e-647f-4a93-81b5-b1e083b9e2c7" data-name="LABELS"><text transform="translate(-0.38 54.91)" font-size="6" fill="#231f20" font-family="Roboto-Regular, Roboto">tissue</text></g></svg>