<svg xmlns="http://www.w3.org/2000/svg" viewBox="0 0 50 50"><g id="aa884435-da73-4580-ad94-0cfeb97785fd" data-name="ICONS"><path d="M40.44,4.42H37.78V1a.5.5,0,0,0-.5-.5H12.72a.5.5,0,0,0-.5.5V4.42H9.56a.5.5,0,0,0-.5.5V8.38a.5.5,0,0,0,.5.5H11.9l.82,7.33H12a.48.48,0,0,0-.37.17.49.49,0,0,0-.13.39l2.05,18.37a.51.51,0,0,0,.5.45h.81l1.45,13a.5.5,0,0,0,.5.45H33.17a.5.5,0,0,0,.5-.45l1.45-13h.81a.51.51,0,0,0,.5-.45l2-18.37a.49.49,0,0,0-.13-.39.48.48,0,0,0-.37-.17h-.7l.82-7.33h2.34a.5.5,0,0,0,.5-.5V4.92A.5.5,0,0,0,40.44,4.42Zm-.5,3.46H10.06V5.42H39.94ZM13.22,1.47H36.78v3H13.22Zm1.3,33.12L12.58,17.21H37.42L35.49,34.59ZM32.73,48H17.27L15.89,35.59H34.11Zm3.54-31.82H13.73l-.82-7.33H37.09Z"/></g><g id="b071761a-57eb-4a71-80af-669e94c8b98b" data-name="LABELS"><text transform="translate(0.02 55.07)" font-size="6" font-family="Roboto-Regular, Roboto"><tspan letter-spacing="-0.01em">t</tspan><tspan x="1.9" y="0">o-go-cup</tspan></text></g></svg>