<svg id="b1cd3fbe-7e19-4026-a799-7d3f7937c524" data-name="ICONS" xmlns="http://www.w3.org/2000/svg" viewBox="0 0 50 50"><path d="M13.75,9.67h22v4.4h1V9.17a.5.5,0,0,0-.5-.5h-23a.5.5,0,0,0-.5.5v4.9h1Z" fill="#231f20"/><path d="M3.22,16.57V41.33H49.28V16.57ZM12.75,28H9.1V23.21h3.65Zm16.88-2.22H19.87v-1.9h9.76ZM40.4,28H36.75V23.21H40.4Z" fill="#fdd600"/><path d="M48.28,14.07H1.22a.5.5,0,0,0-.5.5V40.33a.51.51,0,0,0,.5.5H48.28a.51.51,0,0,0,.5-.5V14.57A.5.5,0,0,0,48.28,14.07Zm-.5,25.76H1.72V25.33H8.1V28.5a.51.51,0,0,0,.5.5h4.65a.5.5,0,0,0,.5-.5V25.33h5.12v1a.5.5,0,0,0,.5.5H30.13a.5.5,0,0,0,.5-.5v-1h5.12V28.5a.5.5,0,0,0,.5.5H40.9a.51.51,0,0,0,.5-.5V25.33h6.38ZM9.1,28V23.21h3.65V28Zm10.77-2.22v-1.9h9.76v1.9ZM36.75,28V23.21H40.4V28Zm11-3.67H41.4V22.71a.5.5,0,0,0-.5-.5H36.25a.5.5,0,0,0-.5.5v1.62H30.63v-.95a.5.5,0,0,0-.5-.5H19.37a.5.5,0,0,0-.5.5v.95H13.75V22.71a.5.5,0,0,0-.5-.5H8.6a.5.5,0,0,0-.5.5v1.62H1.72V15.07H47.78Z" fill="#231f20"/></svg>