<svg id="f995f0d5-0e53-4709-8536-d2206d336f24" data-name="ICONS" xmlns="http://www.w3.org/2000/svg" viewBox="0 0 50 50"><path d="M36.93,21a3.13,3.13,0,0,0-2.19.88,3.19,3.19,0,0,0-5.4-2.26,3.19,3.19,0,0,0-5.36-2V12.4a3.19,3.19,0,0,0-6.38,0V29.62a9.59,9.59,0,0,0-1.16-1.55,9.12,9.12,0,0,0-3.39-2.25,2.73,2.73,0,0,0-3.22.68,2.69,2.69,0,0,0-.17,3.29L20,45.33V49a.5.5,0,0,0,.5.5H36a.5.5,0,0,0,.5-.5l0-5.34a26.14,26.14,0,0,0,2.14-4.54,26.48,26.48,0,0,0,1.52-8.26V24.21A3.19,3.19,0,0,0,36.93,21Zm2.19,9.79a25.43,25.43,0,0,1-1.47,8,24.45,24.45,0,0,1-2.12,4.48.59.59,0,0,0-.07.26l0,5H21V45.18a.54.54,0,0,0-.08-.28L10.49,29.23a1.7,1.7,0,0,1,.1-2.08,1.74,1.74,0,0,1,2.07-.41,8.25,8.25,0,0,1,3.05,2,8.55,8.55,0,0,1,1.62,2.55,6.12,6.12,0,0,1,.29.76.5.5,0,0,0,1-.15V12.4a2.19,2.19,0,0,1,4.38,0V27.69a.5.5,0,0,0,1,0V20a2.19,2.19,0,1,1,4.38,0v7.87a.5.5,0,0,0,1,0V21.94a2.19,2.19,0,0,1,4.38,0v5.89a.5.5,0,0,0,.5.5.5.5,0,0,0,.5-.5V24.21a2.19,2.19,0,1,1,4.38,0Z"/><path d="M26.7,10.78a.5.5,0,0,0,.5.5h4.7a.51.51,0,0,0,.5-.5.5.5,0,0,0-.5-.5H27.2A.5.5,0,0,0,26.7,10.78Z"/><path d="M20.61,5.73a.5.5,0,0,0,.5-.5V.53a.5.5,0,0,0-.5-.5.5.5,0,0,0-.5.5v4.7A.51.51,0,0,0,20.61,5.73Z"/><path d="M9.68,11.28h4.7a.5.5,0,0,0,.5-.5.5.5,0,0,0-.5-.5H9.68a.5.5,0,0,0-.5.5A.51.51,0,0,0,9.68,11.28Z"/><path d="M25.37,7.49a.52.52,0,0,0,.39-.19L28.7,3.64a.49.49,0,0,0-.07-.7.51.51,0,0,0-.71.07L25,6.67a.51.51,0,0,0,.07.71A.54.54,0,0,0,25.37,7.49Z"/><path d="M15.47,7.07a.5.5,0,1,0,.78-.63L13.3,2.78a.5.5,0,0,0-.78.63Z"/></svg>