<svg xmlns="http://www.w3.org/2000/svg" viewBox="0 0 50 50"><g id="a72d9373-917a-4c7f-afce-9fcd7682f233" data-name="ICONS"><path d="M34.28,10.42a8.13,8.13,0,0,0,.07-1.1A9,9,0,0,0,17.08,5.89a14.69,14.69,0,0,0-3.61-.45C7,5.44,1.65,9.55,1.65,14.6c0,3.85,3.08,7.26,7.71,8.59a.17.17,0,0,0,0,.07c0,3.2,4.19,5.73,9.71,6l3.8,5.07V49.19a.5.5,0,0,0,.5.5.5.5,0,0,0,.5-.5V28.93c2.88-.6,5.21-1.87,6.3-3.54l1,0c7.19,0,13-3.41,13-7.6C44.16,14.25,40.12,11.26,34.28,10.42Zm-4.36,14a.51.51,0,0,0-.46.25c-.85,1.5-3,2.69-5.6,3.27V25.06l2.49-2.49a.5.5,0,0,0,0-.71.48.48,0,0,0-.7,0l-1.79,1.79V19.83a.5.5,0,0,0-.5-.5.5.5,0,0,0-.5.5v8.26a17.74,17.74,0,0,1-2.76.21c-5.29,0-9.75-2.3-9.75-5a2.33,2.33,0,0,1,0-.37.5.5,0,0,0-.37-.56C5.61,21.21,2.65,18.1,2.65,14.6c0-4.5,4.85-8.16,10.82-8.16A13.86,13.86,0,0,1,17.25,7a.49.49,0,0,0,.6-.32,8,8,0,0,1,15.37,4.11.45.45,0,0,0,.09.39.5.5,0,0,0,.34.2c5.51.66,9.51,3.37,9.51,6.46,0,3.64-5.4,6.6-12,6.6Q30.52,24.41,29.92,24.38Zm-7.06,8.3L20.33,29.3a18.79,18.79,0,0,0,2.53-.2Z"/></g><g id="b02060e4-46da-459b-bd19-8421fc37f710" data-name="LABELS"><text transform="translate(-0.44 55)" font-size="6" font-family="Roboto-Regular, Roboto">t<tspan x="1.96" y="0" letter-spacing="-0.01em">r</tspan><tspan x="3.93" y="0">ee-th</tspan><tspan x="17.21" y="0" letter-spacing="-0.01em">r</tspan><tspan x="19.19" y="0">ee</tspan></text></g></svg>