<svg xmlns="http://www.w3.org/2000/svg" viewBox="0 0 50 50"><g id="ae7b4844-60f5-44ea-959a-4bd357426cdc" data-name="ICONS"><path d="M34.88,22.56a.5.5,0,0,1-.22-.92,5.59,5.59,0,0,0-3.07-10.28h-.11a.51.51,0,0,1-.39-.19.49.49,0,0,1-.1-.41,7.12,7.12,0,0,0,.12-1.29,6.76,6.76,0,0,0-13.51,0,7.12,7.12,0,0,0,.12,1.29.49.49,0,0,1-.1.41.51.51,0,0,1-.39.19h-.12a5.6,5.6,0,0,0-3,10.3.49.49,0,0,1,.21.53.5.5,0,0,1-.43.38,5.6,5.6,0,0,0,.68,11.16H16.8a.5.5,0,0,1,.45.28,7.89,7.89,0,0,0,6.66,4.48h1A8,8,0,0,0,31.56,34a.5.5,0,0,1,.45-.28h2.27a5.6,5.6,0,0,0,.6-11.17Z" fill="#fdd600"/><path d="M34.6,20.28a6.6,6.6,0,0,0-4-11.41c0-.3.05-.6.05-.9A7.76,7.76,0,0,0,15.1,8a6.79,6.79,0,0,0,.05.9,6.6,6.6,0,0,0-4,11.44A6.6,6.6,0,0,0,13,33.23h2A9,9,0,0,0,22.41,38V49.32a.5.5,0,0,0,.5.5.51.51,0,0,0,.5-.5V38a9,9,0,0,0,7.41-4.76h2A6.6,6.6,0,0,0,34.6,20.28ZM32.78,32.23H30.51a.5.5,0,0,0-.45.28A8,8,0,0,1,23.41,37V24.53l3.12-3.13a.5.5,0,0,0,0-.71.5.5,0,0,0-.7,0l-2.42,2.43v-4a.5.5,0,0,0-.5-.5.5.5,0,0,0-.5.5V31.57l-2.32-2.31a.48.48,0,0,0-.7,0,.5.5,0,0,0,0,.71l3,3v4a7.89,7.89,0,0,1-6.66-4.48.5.5,0,0,0-.45-.28H13a5.6,5.6,0,0,1-.68-11.16.5.5,0,0,0,.43-.38.49.49,0,0,0-.21-.53,5.6,5.6,0,0,1,3-10.3h.12a.51.51,0,0,0,.39-.19.49.49,0,0,0,.1-.41A7.12,7.12,0,0,1,16.1,8,6.76,6.76,0,0,1,29.61,8a7.12,7.12,0,0,1-.12,1.29.49.49,0,0,0,.1.41.51.51,0,0,0,.39.19h.11a5.59,5.59,0,0,1,3.07,10.28.5.5,0,0,0,.22.92,5.6,5.6,0,0,1-.6,11.17Z" fill="#231f20"/></g><g id="fe9eb54e-5221-4488-8cff-0095e8db41d8" data-name="LABELS"><text transform="translate(0 55)" font-size="6" fill="#231f20" font-family="Roboto-Regular, Roboto">t<tspan x="1.96" y="0" letter-spacing="-0.01em">r</tspan><tspan x="3.93" y="0">ee-one</tspan></text></g></svg>