<svg xmlns="http://www.w3.org/2000/svg" viewBox="0 0 50 50"><g id="f534767d-f23f-47aa-83fe-b5d007b499a8" data-name="ICONS"><path d="M34.6,20.28a6.6,6.6,0,0,0-4-11.41c0-.3.05-.6.05-.9A7.76,7.76,0,0,0,15.1,8a6.79,6.79,0,0,0,.05.9,6.6,6.6,0,0,0-4,11.44A6.6,6.6,0,0,0,13,33.23h2A9,9,0,0,0,22.41,38V49.32a.5.5,0,0,0,.5.5.51.51,0,0,0,.5-.5V38a9,9,0,0,0,7.41-4.76h2A6.6,6.6,0,0,0,34.6,20.28ZM32.78,32.23H30.51a.5.5,0,0,0-.45.28A8,8,0,0,1,23.41,37V24.53l3.12-3.13a.5.5,0,0,0,0-.71.5.5,0,0,0-.7,0l-2.42,2.43v-4a.5.5,0,0,0-.5-.5.5.5,0,0,0-.5.5V31.57l-2.32-2.31a.48.48,0,0,0-.7,0,.5.5,0,0,0,0,.71l3,3v4a7.89,7.89,0,0,1-6.66-4.48.5.5,0,0,0-.45-.28H13a5.6,5.6,0,0,1-.68-11.16.5.5,0,0,0,.43-.38.49.49,0,0,0-.21-.53,5.6,5.6,0,0,1,3-10.3h.12a.51.51,0,0,0,.39-.19.49.49,0,0,0,.1-.41A7.12,7.12,0,0,1,16.1,8,6.76,6.76,0,0,1,29.61,8a7.12,7.12,0,0,1-.12,1.29.49.49,0,0,0,.1.41.51.51,0,0,0,.39.19h.11a5.59,5.59,0,0,1,3.07,10.28.5.5,0,0,0,.22.92,5.6,5.6,0,0,1-.6,11.17Z"/></g><g id="ed780087-4a94-4de7-9d9e-e50078ad6a36" data-name="LABELS"><text transform="translate(0 55)" font-size="6" font-family="Roboto-Regular, Roboto">t<tspan x="1.96" y="0" letter-spacing="-0.01em">r</tspan><tspan x="3.93" y="0">ee-one</tspan></text></g></svg>