<svg xmlns="http://www.w3.org/2000/svg" viewBox="0 0 50 50"><g id="a6517fc4-d4b4-4f62-be82-33a89ba639a1" data-name="ICONS"><path d="M46.92,5.29H44.35l.53-1.75a.5.5,0,0,0-1-.29l-.69,2.28L40.62,8.24a7,7,0,0,0-4.85-2,7.08,7.08,0,0,0-3.34.85A6.39,6.39,0,0,0,21,9.58a7.46,7.46,0,0,0-5.74.17,57.22,57.22,0,0,0-4.92-4.52.64.64,0,0,0,.06-.18,19.63,19.63,0,0,0,0-3.33.5.5,0,0,0-.56-.42.49.49,0,0,0-.43.56,16.11,16.11,0,0,1,0,2.77,1.24,1.24,0,0,0-.2-.1A33.9,33.9,0,0,0,3.1,3.79a.5.5,0,0,0,0,1,33.15,33.15,0,0,1,5.87.69c.72.24,3.07,2.42,5.43,4.76a7.39,7.39,0,0,0-3.2,4.25,4.14,4.14,0,1,0-3.83,6.44,8,8,0,0,0,.73,10.41,3.91,3.91,0,0,0-.82,2.39,4,4,0,0,0,3.94,3.94h.3a4.79,4.79,0,0,0-.73,2.54,4.85,4.85,0,0,0,9.67.48,8.6,8.6,0,0,0,2.52-.21c0,.11.12.21.17.32a.59.59,0,0,0-.06.14l-.83,4.32-1.69,2.69a.51.51,0,0,0,.42.77.51.51,0,0,0,.43-.23l1.12-1.79,1.72,1.78a.51.51,0,0,0,.36.15.47.47,0,0,0,.35-.14.5.5,0,0,0,0-.71l-1.89-1.94h0l.08-.12a.51.51,0,0,0,.07-.17L23.87,42a8,8,0,0,0,4.89,3,9.14,9.14,0,0,0,1.37.11,8,8,0,0,0,7.62-5.7,3.34,3.34,0,0,0,1.25.23,3.74,3.74,0,0,0,2.72-6.3,5.34,5.34,0,0,0,1.91-8.34A3.7,3.7,0,0,0,46.2,21.4a3.75,3.75,0,0,0-3.74-3.74,3.79,3.79,0,0,0-1.66.39A6.92,6.92,0,0,0,41.28,9l2.61-2.7h3a.5.5,0,0,0,0-1ZM39.41,18a.51.51,0,0,0-.15.6,5.77,5.77,0,0,1,.31.82.49.49,0,0,0,.37.35.5.5,0,0,0,.48-.15,2.71,2.71,0,0,1,2-.92A2.74,2.74,0,0,1,45.2,21.4a2.7,2.7,0,0,1-2.63,2.72.5.5,0,0,0-.3.89,4.35,4.35,0,0,1-1.67,7.61.49.49,0,0,0-.37.4.47.47,0,0,0,.22.5A2.74,2.74,0,0,1,39,38.58a2.63,2.63,0,0,1-1.34-.37.5.5,0,0,0-.46,0,.48.48,0,0,0-.28.35,6.94,6.94,0,0,1-13.23,1.15.48.48,0,0,0-.46-.32l-.14,0a7.71,7.71,0,0,1-3.08.25.53.53,0,0,0-.39.15.62.62,0,0,0-.16.41,3.86,3.86,0,1,1-5.76-3.33.55.55,0,0,0,.24-.32.52.52,0,0,0-.08-.4l0-.08a.51.51,0,0,0-.35-.22.49.49,0,0,0-.39.11,2.87,2.87,0,0,1-1.89.71,2.94,2.94,0,0,1-2.94-2.94,2.92,2.92,0,0,1,.86-2.06.51.51,0,0,0,.15-.37.48.48,0,0,0-.16-.36,7,7,0,0,1-2.33-5.23,7.06,7.06,0,0,1,2.05-5,.5.5,0,0,0,.09-.59.53.53,0,0,0-.55-.25,2.8,2.8,0,0,1-.61.06,3.15,3.15,0,1,1,2.63-1.43.48.48,0,0,0,0,.59.49.49,0,0,0,.58.14q.39-.16.81-.3a.5.5,0,0,0,.34-.62,6.34,6.34,0,0,1-.26-1.78A6.41,6.41,0,0,1,15.09,11c1.05,1,2.06,2.1,2.9,3a.51.51,0,0,0,.37.15.49.49,0,0,0,.36-.84c-.28-.3-1.35-1.42-2.68-2.77a6.52,6.52,0,0,1,5.15.23.5.5,0,0,0,.46,0,.52.52,0,0,0,.26-.39,5.39,5.39,0,0,1,10-2.29.5.5,0,0,0,.31.22.47.47,0,0,0,.38-.07,6,6,0,0,1,3.22-.94A6,6,0,0,1,39.41,18Z"/><path d="M21.05,25.6a4.69,4.69,0,0,1-2.45-1.83c-.11-.15-.39-.5-.78-.28s-.25.56,0,1.06l.11.28a5.32,5.32,0,0,1,0,3.67.49.49,0,0,0,.26.65.46.46,0,0,0,.2.05.52.52,0,0,0,.46-.31,6.3,6.3,0,0,0,.36-3.11,4.26,4.26,0,0,0,1.67.8.51.51,0,0,0,.59-.39A.5.5,0,0,0,21.05,25.6Z"/><path d="M30,14.87s-1.77.86-3,0a.5.5,0,0,0-.56.84,3.34,3.34,0,0,0,1.85.52,5.32,5.32,0,0,0,2.15-.49.5.5,0,0,0-.44-.9Z"/></g><g id="b8fd4bd9-fec7-4c98-ae97-b62f89ae0a61" data-name="LABELS"><text transform="translate(0.02 55.11)" font-size="6" font-family="Roboto-Regular, Roboto">tumor</text></g></svg>