<svg xmlns="http://www.w3.org/2000/svg" viewBox="0 0 50 50"><g id="ff5cdd9c-7f19-4722-a9cd-12bff8bc25c5" data-name="ICONS"><path d="M39.76,4.28,24.14.25a.53.53,0,0,0-.28,0L10.22,4.6a.48.48,0,0,0-.35.49.5.5,0,0,0,.39.47l2.49.57s0,.06,0,.09v5.22a1.08,1.08,0,0,0-.59,1,.88.88,0,0,0,0,.16.5.5,0,0,0,0,.12v1.79a.5.5,0,0,0,.5.5h1.18a.5.5,0,0,0,.5-.5V12.67a.45.45,0,0,0,0-.11.91.91,0,0,0,0-.17,1.06,1.06,0,0,0-.59-1V6.36l3.21.74v-1L12.26,5,24,1.25,37.74,4.79,33.06,6.15v1l6.71-1.94a.5.5,0,0,0,.36-.49A.49.49,0,0,0,39.76,4.28Z"/><path d="M33.06,5a.52.52,0,0,0-.37-.49,29.84,29.84,0,0,0-7.69-1h0a30.06,30.06,0,0,0-7.67,1,.52.52,0,0,0-.37.49v5.27a.51.51,0,0,0,.19.39.49.49,0,0,0,.17.06,8.55,8.55,0,1,0,15.41,0,.6.6,0,0,0,.16-.08.51.51,0,0,0,.19-.39V5ZM25,22a7.56,7.56,0,0,1-7.55-7.56,7.46,7.46,0,0,1,1.07-3.86,33.2,33.2,0,0,1,6.6-.66,31.64,31.64,0,0,1,6.36.66,7.46,7.46,0,0,1,1.07,3.86A7.56,7.56,0,0,1,25,22Zm.12-13.08a35.42,35.42,0,0,0-7.18.74V5.42a28.82,28.82,0,0,1,7-.87h0a29,29,0,0,1,7.06.87V9.68A33.74,33.74,0,0,0,25.12,8.94Z"/><path d="M30.72,24.07H19.28a8.3,8.3,0,0,0-7.9,8.29V48.52a.5.5,0,0,0,.5.5H38.12a.5.5,0,0,0,.5-.5V32.36A8.3,8.3,0,0,0,30.72,24.07Zm-1,1L25,31.13l-4.66-6.06ZM17.94,33.41a.5.5,0,0,0-.5.5V48H12.38V32.36a7.28,7.28,0,0,1,6.69-7.27l5.4,7V48h-6V33.91A.5.5,0,0,0,17.94,33.41ZM37.62,48h-5V33.91a.5.5,0,0,0-.5-.5.5.5,0,0,0-.5.5V48H25.47V32.12l5.46-7a7.3,7.3,0,0,1,6.69,7.27Z"/></g><g id="a3556b73-439b-4286-b876-0955705bd8f8" data-name="LABELS"><text transform="translate(0.63 54.9)" font-size="6" font-family="Roboto-Regular, Roboto">unde<tspan x="13.18" y="0" letter-spacing="-0.01em">r</tspan><tspan x="15.16" y="0">g</tspan><tspan x="18.52" y="0" letter-spacing="-0.02em">r</tspan><tspan x="20.43" y="0">aduate</tspan></text></g></svg>