<svg id="f65fd683-9f0f-4c25-bd7b-6f5908574bf6" data-name="ICONS" xmlns="http://www.w3.org/2000/svg" viewBox="0 0 50 50"><rect x="34.26" y="30.46" width="0.61" height="2.1" fill="#fdd600"/><polygon points="31.83 30.19 34.26 30.19 34.26 30.46 34.88 30.46 34.88 29.19 34.76 29.19 31.33 29.19 17.92 29.19 17.88 29.19 17.88 30.46 31.83 30.46 31.83 30.19" fill="#fdd600"/><path d="M34.88,27.23V18h0a8.5,8.5,0,0,0-17,0h0v9.27h17Z" fill="#fdd600"/><path d="M47.21,30.46v.42h-12v-.42h-.38v2.1h-.62V41.8H31.83V30.46H17.42V41.8H15V30.46H14v.42H3.79V49.46H49v-19Zm-24,5.44a1.42,1.42,0,1,1,2.83,0v5.9H23.21Zm-9.78,6.9H35.82v2H13.43Zm-3.31-4.34H5.66V35.22h4.46Zm28,9.25h-27v-2h27Zm5.46-9.25H39.13V35.22h4.46Z" fill="#fdd600"/><path d="M27.12,10V8.42a.75.75,0,1,0-1.49,0V10c.25,0,.49,0,.75,0S26.87,10,27.12,10Z" fill="#fdd600"/><path d="M47.71,27.71H36.82v-1a.5.5,0,0,0-.5-.5h-2.2V21.16h1a.5.5,0,0,0,.5-.5.5.5,0,0,0-.5-.5h-1V17.21h1a.5.5,0,0,0,.5-.5.5.5,0,0,0-.5-.5h-1a9.5,9.5,0,0,0-7.73-8.83V5.67A1.75,1.75,0,0,0,25.12,4V1a.5.5,0,0,0-.5-.5.5.5,0,0,0-.5.5V4a1.76,1.76,0,0,0-1.24,1.67V7.38a9.5,9.5,0,0,0-7.73,8.83h-1a.5.5,0,0,0-.5.5.5.5,0,0,0,.5.5h1v2.95h-1a.5.5,0,0,0-.5.5.5.5,0,0,0,.5.5h1v5.07H12.93a.5.5,0,0,0-.5.5v1H1.54a.5.5,0,0,0-.5.5v20a.5.5,0,0,0,.5.5H47.71a.5.5,0,0,0,.5-.5v-20A.5.5,0,0,0,47.71,27.71ZM16.12,21.16h17v5.07h-3V23.47a.5.5,0,0,0-1,0v2.76H26.74V23.47a.5.5,0,0,0-1,0v2.76H23.33V23.47a.5.5,0,0,0-1,0v2.76H19.92V23.47a.5.5,0,0,0-.5-.5.5.5,0,0,0-.5.5v2.76h-2.8ZM24.63,8.21a8.52,8.52,0,0,1,8.48,8h-17A8.52,8.52,0,0,1,24.63,8.21Zm8.49,9v2.95H31.83V19.05a.5.5,0,1,0-1,0v1.11H28.48V19.05a.5.5,0,0,0-.5-.5.5.5,0,0,0-.5.5v1.11H25.13V19.05a.5.5,0,0,0-.5-.5.5.5,0,0,0-.5.5v1.11H21.77V19.05a.5.5,0,0,0-.5-.5.5.5,0,0,0-.5.5v1.11H18.42V19.05a.5.5,0,1,0-1,0v1.11h-1.3V17.21Zm-17.5,10h20.2v2H13.43v-2ZM34.26,41.8H31.83V30.19h2.43Zm1.56,1v2H13.43v-2H35.82ZM15,30.19h2.43V41.8H15Zm15.84,0V41.8H27V35.9a2.42,2.42,0,1,0-4.83,0v5.9H18.42V30.19ZM26,41.8H23.21V35.9a1.42,1.42,0,1,1,2.83,0Zm-14.92,4h27v2h-27Zm1.81-15.57H14v.69H2V28.71H12.43v1A.5.5,0,0,0,12.93,30.19ZM14,31.88V41.8H12.93a.5.5,0,0,0-.5.5v2.46H10.62a.5.5,0,0,0-.5.5v2.45H2V31.88ZM39.13,47.71V45.26a.5.5,0,0,0-.5-.5H36.82V42.3a.5.5,0,0,0-.5-.5H35.26V31.88h12V47.71ZM35.26,30.88v-.69h1.06a.5.5,0,0,0,.5-.5v-1H47.21v2.17ZM23.88,5.67a.75.75,0,1,1,1.49,0V7.25c-.25,0-.49,0-.74,0s-.5,0-.75,0Z" fill="#231f20"/><path d="M44.09,34.22H38.63a.5.5,0,0,0-.5.5V39a.5.5,0,0,0,.5.5h5.46a.51.51,0,0,0,.5-.5V34.72A.51.51,0,0,0,44.09,34.22Zm-.5,4.24H39.13V35.22h4.46Z" fill="#231f20"/><path d="M5.16,39.46h5.46a.5.5,0,0,0,.5-.5V34.72a.5.5,0,0,0-.5-.5H5.16a.51.51,0,0,0-.5.5V39A.51.51,0,0,0,5.16,39.46Zm.5-4.24h4.46v3.24H5.66Z" fill="#231f20"/></svg>