<svg xmlns="http://www.w3.org/2000/svg" viewBox="0 0 50 50"><g id="bd07fc28-1a14-4779-bd9e-b0fe96d3de8c" data-name="ICONS"><path d="M32.64,23.56,32,22.82l-.25-.18-2.82-2L19.54,32.28l-1.88-1.52c.35-.41.94-1.14,1.95-2.4l7.31-9a4.81,4.81,0,0,0-3.16-.59c-1.54.28-2.93,1.44-4.11,3.45-.17.23-1.28,1.74-1.92,2.48A2.56,2.56,0,0,1,18,26.12a4.85,4.85,0,0,1-2.24,3.23A5,5,0,0,1,12,30.66a2.66,2.66,0,0,1-1-.43A10.51,10.51,0,0,1,9.3,32.1a5.71,5.71,0,0,1-.83.54c-1.29.76-3.7,2.19-4.12,4.65-.31,1.81.5,3.94,2.39,6.33l.34-.84,1.09-1.36,3,2.42-1.09,1.35-.84.55,3,2.15h0l.05,0c2.86,1.64,5.24,2.14,7.07,1.48,2.34-.85,3.33-3.46,3.86-4.87a6,6,0,0,1,.38-.91,10.53,10.53,0,0,1,1.56-2,2.58,2.58,0,0,1-.6-.94,5,5,0,0,1,.63-3.94A4.82,4.82,0,0,1,27.94,34a2.58,2.58,0,0,1,1.48,0c.61-.75,1.91-2.1,2.08-2.28,1.8-1.55,2.7-3.12,2.72-4.68A5.14,5.14,0,0,0,32.64,23.56Z" fill="#fdd600"/><path d="M22.67,42.38a10.32,10.32,0,0,1,1.81-2.14.5.5,0,0,0,.16-.46.49.49,0,0,0-.29-.38,1.4,1.4,0,0,1-.65-.8,4.23,4.23,0,0,1,.59-3.12,4.09,4.09,0,0,1,2.14-2.25,1.51,1.51,0,0,1,1.14.09.49.49,0,0,0,.69-.16c.23-.36,1.48-1.7,2.17-2.44,2-1.71,3-3.54,3-5.41a6.06,6.06,0,0,0-1.88-4.21l-.68-.75-.08-.07-.24-.17L40.28,8a2.22,2.22,0,0,0,1-.48.76.76,0,0,0-.06.26.63.63,0,1,0,.63-.62.69.69,0,0,0-.29.07.74.74,0,0,0,.12-.13l1-1.37a.62.62,0,1,0,.62-.63A.51.51,0,0,0,43,5.2a2.3,2.3,0,0,0,.22-1.44,2.27,2.27,0,0,0-.93-1.48l-.72-.5a2.28,2.28,0,0,0-3.14.5s0-.06,0-.09a.62.62,0,0,0-.62-.62.63.63,0,0,0,0,1.25.6.6,0,0,0,.27-.07L37.19,4a1.74,1.74,0,0,0-.1.19.76.76,0,0,0,0-.16.63.63,0,1,0-.63.62.62.62,0,0,0,.46-.2,2.21,2.21,0,0,0-.15,1.08l-9.75,12-.69-.42A6,6,0,0,0,21.84,16c-1.84.34-3.46,1.66-4.78,3.89-.62.85-1.74,2.31-2,2.6a.5.5,0,0,0,0,.7,1.49,1.49,0,0,1,.29,1.11,4,4,0,0,1-1.84,2.5,4.25,4.25,0,0,1-3,1.13,1.39,1.39,0,0,1-.9-.5.44.44,0,0,0-.43-.23.49.49,0,0,0-.42.24,10.4,10.4,0,0,1-1.8,2.15,6.22,6.22,0,0,1-.69.44c-1.43.85-4.09,2.42-4.6,5.33-.38,2.22.6,4.75,2.95,7.56l1,.95h0l-.79,2a.51.51,0,0,0,.14.57l2,1.64a.54.54,0,0,0,.32.11.53.53,0,0,0,.27-.08l2-1.33L10,47a12.1,12.1,0,0,0,5.88,1.9,5.89,5.89,0,0,0,2-.34c2.78-1,3.87-3.9,4.45-5.46A8.06,8.06,0,0,1,22.67,42.38ZM37.23,6.67a2.14,2.14,0,0,0,.52.52l.71.49A2.3,2.3,0,0,0,39,8L19.54,32.28l-1.88-1.52c.35-.41.94-1.14,1.95-2.4L37.19,6.63S37.22,6.65,37.23,6.67ZM38,4.58l1.17-1.67A1.31,1.31,0,0,1,40,2.38l.22,0A1.26,1.26,0,0,1,41,2.6l.71.5a1.29,1.29,0,0,1,.53.83,1.26,1.26,0,0,1-.22,1h0L40.83,6.56a1.26,1.26,0,0,1-.89.54,1.33,1.33,0,0,1-.9-.23l-.72-.5A1.33,1.33,0,0,1,38,6a0,0,0,0,1,0,0,1.35,1.35,0,0,1-.18-.41A1.29,1.29,0,0,1,38,4.58ZM7.24,47,5.83,45.88l1.25-3.1,1.09-1.36,3,2.42-1.09,1.35Zm14.19-4.26c-.53,1.41-1.52,4-3.86,4.87-1.83.66-4.21.16-7.07-1.48l-.05,0,.24-.16a.4.4,0,0,0,.12-.1l1.45-1.81a.49.49,0,0,0-.07-.7l-3.78-3A.46.46,0,0,0,8,40.22a.48.48,0,0,0-.33.18L6.25,42.21a.47.47,0,0,0-.07.12L6,42.88l-.67-.64c-2.12-2.54-3-4.79-2.69-6.7.42-2.46,2.83-3.89,4.12-4.65a5.71,5.71,0,0,0,.83-.54,10.51,10.51,0,0,0,1.66-1.87,2.66,2.66,0,0,0,1,.43A5,5,0,0,0,14,27.6a4.85,4.85,0,0,0,2.24-3.23A2.56,2.56,0,0,0,16,22.92c.64-.74,1.75-2.25,1.92-2.48,1.18-2,2.57-3.17,4.11-3.45a5.08,5.08,0,0,1,3.77,1l.63.39-7.58,9.38c-.77,1-2,2.5-2.22,2.71a.6.6,0,0,0-.14.21.5.5,0,0,0,.16.56l2.67,2.16a.51.51,0,0,0,.31.11h.06A.49.49,0,0,0,20,33.3L30,20.89l.25.18.68.74a5.14,5.14,0,0,1,1.58,3.51c0,1.56-.92,3.13-2.72,4.68-.17.18-1.47,1.53-2.08,2.28a2.58,2.58,0,0,0-1.48,0A4.82,4.82,0,0,0,23.4,35,5,5,0,0,0,22.77,39a2.58,2.58,0,0,0,.6.94,10.53,10.53,0,0,0-1.56,2A6,6,0,0,0,21.43,42.78Z" fill="#231f20"/><path d="M48.28,16.1a.5.5,0,0,0-.7.07C39,26.71,22.7,46.73,22.15,47.36a.53.53,0,0,0-.14.35.51.51,0,0,0,.5.5c.29,0,.29,0,25.85-31.41A.5.5,0,0,0,48.28,16.1Z" fill="#231f20"/></g><g id="fb0385eb-1655-455b-bf90-ec46f054c203" data-name="LABELS"><text transform="translate(-0.1 54.84)" font-size="6" fill="#231f20" font-family="Roboto-Regular, Roboto">violin</text></g></svg>