<svg id="b7917cfd-438c-4b7a-ab09-0c665a011ba6" data-name="ICONS" xmlns="http://www.w3.org/2000/svg" viewBox="0 0 50 50"><path d="M30.07,20.83H27.33V18.09a.44.44,0,0,0-.44-.44H22.61a.44.44,0,0,0-.44.44v2.74H19.43a.44.44,0,0,0-.44.44v4.28a.44.44,0,0,0,.44.44h2.74v2.74a.44.44,0,0,0,.44.44h4.28a.44.44,0,0,0,.44-.44V26h2.74a.44.44,0,0,0,.44-.44V21.27A.44.44,0,0,0,30.07,20.83Zm-.43,4.28H26.89a.44.44,0,0,0-.44.44V28.3h-3.4V25.55a.44.44,0,0,0-.44-.44H19.86v-3.4h2.75a.44.44,0,0,0,.44-.44V18.52h3.4v2.75a.44.44,0,0,0,.44.44h2.75Z"/><path d="M33.83.81H15.67a4.14,4.14,0,0,0-4.13,4.13V45.06a4.14,4.14,0,0,0,4.13,4.13H33.83A4.14,4.14,0,0,0,38,45.06V4.94A4.14,4.14,0,0,0,33.83.81ZM37,45.06a3.13,3.13,0,0,1-3.13,3.13H15.67a3.13,3.13,0,0,1-3.13-3.13V4.94a3.13,3.13,0,0,1,3.13-3.13H33.83A3.13,3.13,0,0,1,37,4.94Z"/><path d="M33.92,8.25H15.58a.5.5,0,0,0-.5.5V38.08a.5.5,0,0,0,.5.5H33.92a.5.5,0,0,0,.5-.5V8.75A.5.5,0,0,0,33.92,8.25Zm-.5,29.33H16.08V9.25H33.42Z"/><path d="M24.75,40.77a2.44,2.44,0,1,0,2.44,2.44A2.44,2.44,0,0,0,24.75,40.77Z"/><path d="M22.25,5.48h5.13a.5.5,0,0,0,0-1H22.25a.5.5,0,0,0,0,1Z"/><path d="M20.13,5.59A.61.61,0,0,0,20.74,5a.61.61,0,0,0-.61-.61.62.62,0,0,0-.61.61A.61.61,0,0,0,20.13,5.59Z"/></svg>