<svg xmlns="http://www.w3.org/2000/svg" viewBox="0 0 50 50"><g id="a27d47ba-89e0-4cf2-89e8-652efe515b7b" data-name="ICONS"><path d="M47.36,25A22.91,22.91,0,0,0,41.59,9.77V7.25a.5.5,0,0,0-.5-.5H38.35a23,23,0,0,0-28,0H7.6a.5.5,0,0,0-.5.5V9.77a23,23,0,0,0,0,30.46v7.29a.5.5,0,0,0,.5.5H41.09a.5.5,0,0,0,.5-.5V40.23A22.91,22.91,0,0,0,47.36,25Zm-1,0a22,22,0,0,1-4.77,13.68V17.19a3.63,3.63,0,0,0,.1-.83,4,4,0,0,0-.1-.89V11.32A22,22,0,0,1,46.36,25Zm-22-20.5A3.44,3.44,0,1,1,21,7.93,3.44,3.44,0,0,1,24.39,4.5Zm0,7.87a4.43,4.43,0,0,0,4.43-4.44c0-.06,0-.12,0-.18H36l-.08.06h0l0,0c-.39.31-1,1-2.32,2.24l-3.25,3.26H18.51C15.1,9.94,13.68,8.52,13,8a.47.47,0,0,0-.12-.2H20c0,.06,0,.12,0,.18A4.44,4.44,0,0,0,24.39,12.37ZM38.58,8.52l.2.19a1.43,1.43,0,0,1,0,2l-2.63,2.63h-4.4L34.3,10.8l2.28-2.28A1.42,1.42,0,0,1,38.58,8.52ZM10,8.66l.2-.19a1.42,1.42,0,0,1,2,0h0l4.88,4.89H12.72L10,10.67A1.43,1.43,0,0,1,10,8.66Zm0,5.72,9.25,0H38.88c.54,0,1.81.19,1.81,2a2,2,0,0,1-1.9,2.05l-9.42,0a.5.5,0,0,0-.5.5V44.66A1.88,1.88,0,0,1,27,46.54h-.26a1.89,1.89,0,0,1-1.88-1.88s0,0,0-.07V30.29a.5.5,0,0,0-1,0v14.5h0A1.88,1.88,0,0,1,22,46.54h-.34a1.89,1.89,0,0,1-1.88-1.88V18.91a.54.54,0,0,0-.14-.36.52.52,0,0,0-.36-.14h0l-9.17,0a2,2,0,0,1-2-2.09A1.8,1.8,0,0,1,10,14.38ZM38.8,41.54l-.19.19a1.41,1.41,0,0,1-2,0l-.05.06c-.5-.61-2-2.17-6.68-6.79V30.53l8.93,9A1.41,1.41,0,0,1,38.8,41.54Zm-28.49,0a1.42,1.42,0,0,1,0-2L18.76,31v4.39l-4.31,4.31c-1,1-1.62,1.63-1.91,2l0,0a1.43,1.43,0,0,1-2,0Zm30.28-27.6a3,3,0,0,0-1.71-.54H37.56l1.92-1.93a2.41,2.41,0,0,0,.71-1.69l.4.41ZM9.31,11.38l2,2H10A3.16,3.16,0,0,0,8.1,14V10.15c.16-.19.33-.36.51-.54A2.38,2.38,0,0,0,9.31,11.38ZM8.1,18.69a3.35,3.35,0,0,0,2,.76l8.67,0V29.63L9.6,38.78a2.4,2.4,0,0,0-.68,1.92c-.28-.27-.56-.56-.82-.85Zm4.72,24,0,0,.36-.36h0l5.54-5.54v7.81a2.8,2.8,0,0,0,.66,1.8,22,22,0,0,1-7.66-3.4A2.38,2.38,0,0,0,12.82,42.71ZM23.6,47a2.71,2.71,0,0,0,.75-.72,3,3,0,0,0,.75.72l-.76,0Zm6.27-2.34V36.41l6,6h0l0,0A2.39,2.39,0,0,0,37,43a21.78,21.78,0,0,1-7.75,3.44A2.87,2.87,0,0,0,29.87,44.66Zm10.32-4.39a2.4,2.4,0,0,0-.68-1.44l-9.64-9.72V19.45l8.92,0a3.1,3.1,0,0,0,1.8-.68V39.85Zm.4-32.52V8.7c-.33-.33-.68-.64-1-.95ZM24.34,3A21.92,21.92,0,0,1,36.66,6.75h-8a4.4,4.4,0,0,0-8.5,0H12A21.87,21.87,0,0,1,24.34,3ZM9.12,7.75c-.35.31-.69.62-1,.95V7.75ZM2.32,25A21.92,21.92,0,0,1,7.1,11.32V38.67A21.89,21.89,0,0,1,2.32,25ZM8.1,47V41.3A23,23,0,0,0,17.63,47Zm23,0a23.13,23.13,0,0,0,9.54-5.72V47Z"/></g><g id="e5896c85-74bc-4860-a930-2441d0728267" data-name="LABELS"><text transform="translate(0.36 54.96)" font-size="6" font-family="Roboto-Regular, Roboto">vitruvian-man</text></g></svg>