<svg xmlns="http://www.w3.org/2000/svg" viewBox="0 0 50 50"><g id="bfebb2f0-8dd8-429c-b80f-ce0d3b9328f7" data-name="ICONS"><path d="M22.91,21.32s0-.08,0-.12c-1.08.47-2.21,1-3.4,1.63-6.33,3.31-9.3,6.13-9.19,6.78.46.45,4.48-.38,10.8-3.69,1.09-.56,2.14-1.16,3.17-1.79A3.57,3.57,0,0,1,22.91,21.32Z" fill="#fdd600"/><path d="M27.81,37.74h0L27.1,24.85l-.25,0a2,2,0,0,1-.35,0l-.28,0-.37,0a1.43,1.43,0,0,1-.28-.07l-.07,0-.67,13h0q-.3,6-.61,12h4.27Q28.15,43.77,27.81,37.74Z" fill="#fdd600"/><path d="M28,18.07c.09-1.34.15-2.71.15-4.09C28.17,7,27,2.9,26.41,2.7,25.82,2.9,24.67,7,24.67,14c0,1.29,0,2.43.08,3.57a2.87,2.87,0,0,1,.5-.07,2.38,2.38,0,0,1,1.1.26h.15A3.64,3.64,0,0,1,28,18.07Z" fill="#fdd600"/><path d="M33.41,22.83c-1.12-.59-2.23-1.11-3.32-1.6,0,0,0,.06,0,.09a3.58,3.58,0,0,1-1.43,2.84c1,.61,2,1.21,3.11,1.76C38,29.16,42.08,30,42.59,29.6,42.66,28.93,39.69,26.12,33.41,22.83Z" fill="#fdd600"/><polygon points="41.35 28.34 41.35 28.34 41.35 28.34 41.35 28.34" fill="#231f20"/><path d="M32.63,20.69c-1.36-.7-2.71-1.35-4-1.92l0-.05c0-.13-.12-.24-.18-.36a3.69,3.69,0,0,0-.67-.91c.13-1.54.19-3.13.19-4.72,0-.5,0-12.28-2.75-12.28s-2.75,11.78-2.75,12.28c0,1.78,0,3.28.17,4.91a3.45,3.45,0,0,0-.69,1.11c-1.28.53-2.66,1.19-4.1,1.94C13.41,23,8.71,26.13,8.14,28a1.11,1.11,0,0,0,0,.86c1.27,2.4,11.71-3,12.15-3.26,1-.51,1.94-1,2.87-1.61l-.63,12.43A17.27,17.27,0,0,1,14,32.15a.5.5,0,0,0-.71,0,.51.51,0,0,0,0,.71A18.78,18.78,0,0,0,16.14,35a18.09,18.09,0,0,0,6.39,2.4L21.94,49a.55.55,0,0,0,.14.37.52.52,0,0,0,.36.16h5.32a.52.52,0,0,0,.37-.16.5.5,0,0,0,.13-.37l-.64-11.48a18.12,18.12,0,0,0,9.91-4.32.51.51,0,0,0,0-.71.49.49,0,0,0-.7,0,17.17,17.17,0,0,1-9.31,4.08l-.71-12.8c1,.63,2.11,1.24,3.21,1.82,3.78,2,8.46,3.87,10.74,3.87a2.75,2.75,0,0,0,.75-.09A1,1,0,0,0,42.27,28C41.71,26.14,37,23,32.63,20.69Zm-6.36,1.76-.07,0-.15.05a1.89,1.89,0,0,1-.41.1h-.1l-.39,0-.14,0a1.86,1.86,0,0,1-.33,0l-.21-.07a1.21,1.21,0,0,1-.25-.08,2.56,2.56,0,0,1-1.38-3.3l.09-.2a2.59,2.59,0,0,1,2.32-1.46,2.55,2.55,0,0,1,1.77.71,2.27,2.27,0,0,1,.26.28c.06.08.12.15.17.23a2.38,2.38,0,0,1,.24.51,2.73,2.73,0,0,1,.16.86A2.59,2.59,0,0,1,26.27,22.45Zm-1.11-21c.62.2,1.76,4.26,1.76,11.28,0,1.38-.06,2.75-.15,4.09a3.64,3.64,0,0,0-1.52-.34,3.54,3.54,0,0,0-1.71.45c-.1-1.36-.12-2.68-.12-4.2C23.42,5.71,24.57,1.65,25.16,1.45ZM19.88,24.67C13.56,28,9.54,28.81,9.08,28.36c-.11-.65,2.86-3.47,9.19-6.78,1.19-.63,2.32-1.16,3.4-1.63,0,0,0,.08,0,.12a3.57,3.57,0,0,0,1.39,2.81C22,23.5,21,24.11,19.88,24.67Zm7.36,23.88H23l.56-11a18.5,18.5,0,0,0,2.1.13c.33,0,.66,0,1-.05Zm-3.66-12,.67-13,.07,0a1.43,1.43,0,0,0,.28.07l.37,0,.28,0a2,2,0,0,0,.35,0l.25,0,.72,13A17.63,17.63,0,0,1,23.58,36.53Zm7-11.86c-1.06-.55-2.1-1.15-3.11-1.76a3.58,3.58,0,0,0,1.43-2.84s0-.06,0-.09c1.09.49,2.2,1,3.32,1.6,6.28,3.29,9.25,6.1,9.18,6.77C40.83,28.78,36.72,27.91,30.53,24.67Zm10.82,3.67Z" fill="#231f20"/><path d="M8.35,23.34A17.51,17.51,0,0,1,8,20,17.17,17.17,0,0,1,20,3.63a.5.5,0,0,0-.3-.95A18.16,18.16,0,0,0,7,20a17.82,17.82,0,0,0,.34,3.5.49.49,0,0,0,.49.4H8A.5.5,0,0,0,8.35,23.34Z" fill="#231f20"/><path d="M30.32,2.65A.49.49,0,0,0,29.7,3,.5.5,0,0,0,30,3.6,17.15,17.15,0,0,1,42,20a17.33,17.33,0,0,1-.32,3.3.51.51,0,0,0,.4.59h.09a.49.49,0,0,0,.49-.41A17.72,17.72,0,0,0,43,20,18.15,18.15,0,0,0,30.32,2.65Z" fill="#231f20"/></g><g id="fd9be516-a11f-4917-a40e-a98b36beb576" data-name="LABELS"><text transform="translate(0.39 54.98)" font-size="6" fill="#231f20" font-family="Roboto-Regular, Roboto">wind-turbine</text></g></svg>