<svg xmlns="http://www.w3.org/2000/svg" viewBox="0 0 50 50"><g id="b68921fa-90c1-412f-8949-87107b4a8c1a" data-name="ICONS"><path d="M15,15.63v.85A11.37,11.37,0,0,0,25,27V47.3H19.08v2.07H33.49V47.3H27.55V27a11.35,11.35,0,0,0,10-10.57v-.83Z" fill="#fdd600"/><path d="M37,.78a.51.51,0,0,0-.35-.15H12.92a.51.51,0,0,0-.35.15.49.49,0,0,0-.15.36L12.49,15v0a12.38,12.38,0,0,0,10,11.38V44.8H17.08a.5.5,0,0,0-.5.5v3.07a.5.5,0,0,0,.5.5H32.49a.5.5,0,0,0,.5-.5V45.3a.5.5,0,0,0-.5-.5H27.05V26.41A12.4,12.4,0,0,0,37.07,15l.08-13.86A.49.49,0,0,0,37,.78Zm-5,45v2.07H17.58V45.8H32Zm-8.47-1V26.59h2.53V44.8ZM36.07,15A11.36,11.36,0,0,1,25.48,25.59h-1.4A11.37,11.37,0,0,1,13.49,15v-.85H36.08Zm0-1.83H13.48l-.06-11.5H36.15Z" fill="#231f20"/></g><g id="ee8e68fe-3502-47e8-bc7d-d7d86e97b292" data-name="LABELS"><text transform="translate(-0.33 55.07)" font-size="6" fill="#231f20" font-family="Roboto-Regular, Roboto">wine</text></g></svg>