<svg xmlns="http://www.w3.org/2000/svg" viewBox="0 0 50 50"><g id="f1339a22-fa5c-4dad-ae46-1ca4a90ba3b9" data-name="ICONS"><path d="M7.77,25.53a5.93,5.93,0,0,0-4.43-.65A4.55,4.55,0,0,0,5.55,28.2h0a5.92,5.92,0,0,0,4.43.66A4.65,4.65,0,0,0,7.77,25.53Z" fill="#fdd600"/><path d="M2.87,15.92A4.29,4.29,0,0,0,4,19.64a5.69,5.69,0,0,0,4.1,1.64A4.27,4.27,0,0,0,7,17.56,5.61,5.61,0,0,0,2.87,15.92Z" fill="#fdd600"/><path d="M12.84,10.94a4.25,4.25,0,0,0-1-3.79A4.81,4.81,0,0,0,9.1,10.3a4.27,4.27,0,0,0,1,3.79A4.8,4.8,0,0,0,12.84,10.94Z" fill="#fdd600"/><path d="M15.13,26.27a4.16,4.16,0,0,0,.47-3.84,5.41,5.41,0,0,0-3.76,2.18,4.16,4.16,0,0,0-.47,3.84A5.41,5.41,0,0,0,15.13,26.27Z" fill="#fdd600"/><path d="M19,30.86a4.29,4.29,0,0,0-1.32-3.73,4.67,4.67,0,0,0-2.46,3.29,4.32,4.32,0,0,0,1.32,3.73A4.69,4.69,0,0,0,19,30.86Z" fill="#fdd600"/><path d="M11.68,32.52a5.89,5.89,0,0,0-4.32.93,5.29,5.29,0,0,0,3.55,2.28,5.87,5.87,0,0,0,4.31-.92A5.31,5.31,0,0,0,11.68,32.52Z" fill="#fdd600"/><path d="M47.48,19.64a4.29,4.29,0,0,0,1.15-3.72,5.61,5.61,0,0,0-4.1,1.64,4.27,4.27,0,0,0-1.15,3.72A5.69,5.69,0,0,0,47.48,19.64Z" fill="#fdd600"/><path d="M13.73,19.84a4.35,4.35,0,0,0,1.59-3.59,5.84,5.84,0,0,0-4.27,1.26,4.38,4.38,0,0,0-1.59,3.58A5.77,5.77,0,0,0,13.73,19.84Z" fill="#fdd600"/><path d="M40.45,17.51a5.83,5.83,0,0,0-4.27-1.26,4.35,4.35,0,0,0,1.59,3.59A5.77,5.77,0,0,0,42,21.09,4.41,4.41,0,0,0,40.45,17.51Z" fill="#fdd600"/><path d="M42.41,10.3A4.85,4.85,0,0,0,39.7,7.15a4.25,4.25,0,0,0-1,3.79,4.8,4.8,0,0,0,2.71,3.15A4.27,4.27,0,0,0,42.41,10.3Z" fill="#fdd600"/><path d="M24,37.52l.2-.24a4.11,4.11,0,0,0,.33-3.6h0a5,5,0,0,0-3.13-2.84A4.18,4.18,0,0,0,21,34.71,5,5,0,0,0,24,37.52Z" fill="#fdd600"/><path d="M43.74,25.53a4.63,4.63,0,0,0-2.22,3.33A6,6,0,0,0,46,28.2a4.59,4.59,0,0,0,2.22-3.32A5.92,5.92,0,0,0,43.74,25.53Z" fill="#fdd600"/><path d="M35.9,22.43a4.16,4.16,0,0,0,.47,3.84,5.41,5.41,0,0,0,3.77,2.18,4.19,4.19,0,0,0-.48-3.84A5.41,5.41,0,0,0,35.9,22.43Z" fill="#fdd600"/><path d="M36.28,34.81a5.87,5.87,0,0,0,4.31.92,5.29,5.29,0,0,0,3.55-2.28,5.89,5.89,0,0,0-4.32-.93A5.31,5.31,0,0,0,36.28,34.81Z" fill="#fdd600"/><path d="M18.84,38.07a5.18,5.18,0,0,0-3.34,2.51,6,6,0,0,0,4.4.64,5.2,5.2,0,0,0,3.33-2.52A5.93,5.93,0,0,0,18.84,38.07Z" fill="#fdd600"/><path d="M27.45,37.53a5,5,0,0,0,3.1-2.82,4.18,4.18,0,0,0-.49-3.87,5,5,0,0,0-3.13,2.84,4.15,4.15,0,0,0,.38,3.69A1.07,1.07,0,0,1,27.45,37.53Z" fill="#fdd600"/><path d="M25.72,37.25a4.43,4.43,0,0,0-1.85,3.55,4.54,4.54,0,0,0,2,3.54,4.42,4.42,0,0,0,1.86-3.55A4.51,4.51,0,0,0,25.72,37.25Z" fill="#fdd600"/><path d="M28.27,38.7a5.2,5.2,0,0,0,3.33,2.52,6,6,0,0,0,4.4-.64,5.16,5.16,0,0,0-3.33-2.51A6,6,0,0,0,28.27,38.7Z" fill="#fdd600"/><path d="M36.29,30.42a4.67,4.67,0,0,0-2.46-3.29,4.29,4.29,0,0,0-1.32,3.73A4.69,4.69,0,0,0,35,34.15,4.32,4.32,0,0,0,36.29,30.42Z" fill="#fdd600"/><path d="M48.09,23.28a7,7,0,0,0-5.63.65,6.67,6.67,0,0,0-.61.43,16.44,16.44,0,0,0,.51-2.84h.24a6.66,6.66,0,0,0,4.85-2,5.28,5.28,0,0,0,1.33-5,.5.5,0,0,0-.46-.38,6.76,6.76,0,0,0-5.26,1.93,5.59,5.59,0,0,0-.86,1.17A17,17,0,0,0,41.33,14a5.26,5.26,0,0,0,1.3-4.71,5.92,5.92,0,0,0-3.61-4,.49.49,0,0,0-.55.12,5.29,5.29,0,0,0-1.54,5,5.82,5.82,0,0,0,3.45,3.9,15.67,15.67,0,0,1,.72,2.46,5.66,5.66,0,0,0-.76-.79,6.88,6.88,0,0,0-5.45-1.43.5.5,0,0,0-.42.43,5.38,5.38,0,0,0,1.9,4.87,6.72,6.72,0,0,0,4.34,1.51c.22,0,.44,0,.66-.05a15.72,15.72,0,0,1-.82,3.87,5.38,5.38,0,0,0-.81-1.9,6.51,6.51,0,0,0-4.87-2.65.5.5,0,0,0-.5.3,5.2,5.2,0,0,0,.42,5.15,6.32,6.32,0,0,0,4.08,2.54,17,17,0,0,1-2.51,3.12,5,5,0,0,0,.17-2.24,5.78,5.78,0,0,0-3.31-4.19.5.5,0,0,0-.56.08,5.37,5.37,0,0,0-1.89,4.87,5.59,5.59,0,0,0,2.68,3.83,21.09,21.09,0,0,1-3.86,2,5.45,5.45,0,0,0,1.15-1.78,5.24,5.24,0,0,0-.83-5.12.51.51,0,0,0-.54-.17,6.11,6.11,0,0,0-4.13,3.54,5.46,5.46,0,0,0-.24.88,5.46,5.46,0,0,0-.24-.88h0A6.09,6.09,0,0,0,20.63,29a.51.51,0,0,0-.54.17,5.24,5.24,0,0,0-.83,5.12,5.45,5.45,0,0,0,1.15,1.78,21.09,21.09,0,0,1-3.86-2,5.59,5.59,0,0,0,2.68-3.83,5.37,5.37,0,0,0-1.89-4.87.5.5,0,0,0-.56-.08,5.78,5.78,0,0,0-3.31,4.19,5,5,0,0,0,.17,2.24,17,17,0,0,1-2.51-3.12,6.32,6.32,0,0,0,4.08-2.54,5.2,5.2,0,0,0,.42-5.15.5.5,0,0,0-.5-.3,6.54,6.54,0,0,0-4.87,2.65,5.38,5.38,0,0,0-.81,1.9,15.72,15.72,0,0,1-.82-3.87c.22,0,.44.05.66.05a6.7,6.7,0,0,0,4.34-1.51A5.38,5.38,0,0,0,15.53,15a.5.5,0,0,0-.42-.43A6.91,6.91,0,0,0,9.66,16a5.66,5.66,0,0,0-.76.79,16.82,16.82,0,0,1,.72-2.46,5.82,5.82,0,0,0,3.45-3.9,5.29,5.29,0,0,0-1.54-5A.49.49,0,0,0,11,5.33a5.92,5.92,0,0,0-3.61,4A5.29,5.29,0,0,0,8.67,14a17,17,0,0,0-.87,3.25,5.59,5.59,0,0,0-.86-1.17,6.76,6.76,0,0,0-5.26-1.93.5.5,0,0,0-.46.38,5.28,5.28,0,0,0,1.33,5,6.66,6.66,0,0,0,4.85,2h.24a17.46,17.46,0,0,0,.51,2.84,6.67,6.67,0,0,0-.61-.43,7,7,0,0,0-5.63-.65.5.5,0,0,0-.36.5,5.59,5.59,0,0,0,2.72,4.53,6.79,6.79,0,0,0,3.52,1A7.33,7.33,0,0,0,9.9,29a.45.45,0,0,0,.2-.12,19,19,0,0,0,1.47,2.06,4,4,0,0,0-.47-.11,6.87,6.87,0,0,0-5.47,1.38.51.51,0,0,0-.13.63A6.31,6.31,0,0,0,10,36a6.83,6.83,0,0,0,1.19.1,6.92,6.92,0,0,0,4.28-1.49s0,0,.05-.06a20.93,20.93,0,0,0,2.93,1.71l-.59.11a6.15,6.15,0,0,0-4.19,3.47.5.5,0,0,0,.17.62,6.94,6.94,0,0,0,5.57,1A6.23,6.23,0,0,0,22.12,40v.09a5.57,5.57,0,0,0,2.7,4.55.43.43,0,0,0,.27.08.46.46,0,0,0,.28-.08A5.48,5.48,0,0,0,27.94,40a6.35,6.35,0,0,0,2.67,1.4,6.94,6.94,0,0,0,5.57-1,.5.5,0,0,0,.17-.62,6.15,6.15,0,0,0-4.19-3.47l-.59-.11a20.93,20.93,0,0,0,2.93-1.71s0,0,0,.06a6.92,6.92,0,0,0,4.28,1.49A6.83,6.83,0,0,0,40,36,6.31,6.31,0,0,0,44.5,32.8a.51.51,0,0,0-.13-.63,6.87,6.87,0,0,0-5.47-1.38,4,4,0,0,0-.47.11,19,19,0,0,0,1.47-2.06.45.45,0,0,0,.2.12,7.33,7.33,0,0,0,2.11.31,6.79,6.79,0,0,0,3.52-1h0a5.59,5.59,0,0,0,2.72-4.53A.5.5,0,0,0,48.09,23.28Zm-4.31-6.47a5.61,5.61,0,0,1,4.1-1.64,4.29,4.29,0,0,1-1.15,3.72,5.69,5.69,0,0,1-4.1,1.64A4.27,4.27,0,0,1,43.78,16.81Zm-3.16-3.47a4.8,4.8,0,0,1-2.71-3.15A4.25,4.25,0,0,1,39,6.4a4.85,4.85,0,0,1,2.71,3.15A4.3,4.3,0,0,1,40.62,13.34ZM37,19.09a4.35,4.35,0,0,1-1.59-3.59,5.78,5.78,0,0,1,4.27,1.26,4.41,4.41,0,0,1,1.59,3.58A5.77,5.77,0,0,1,37,19.09ZM10.3,16.76a5.84,5.84,0,0,1,4.27-1.26A4.35,4.35,0,0,1,13,19.09a5.77,5.77,0,0,1-4.27,1.25A4.38,4.38,0,0,1,10.3,16.76Zm-2-7.21a4.81,4.81,0,0,1,2.7-3.15,4.25,4.25,0,0,1,1,3.79,4.8,4.8,0,0,1-2.71,3.15A4.27,4.27,0,0,1,8.35,9.55Zm-1,11a5.69,5.69,0,0,1-4.1-1.64,4.29,4.29,0,0,1-1.15-3.72,5.61,5.61,0,0,1,4.1,1.64A4.27,4.27,0,0,1,7.37,20.53ZM4.8,27.45h0a4.55,4.55,0,0,1-2.21-3.32A5.93,5.93,0,0,1,7,24.78a4.65,4.65,0,0,1,2.21,3.33A5.92,5.92,0,0,1,4.8,27.45Zm6.29-3.59a5.41,5.41,0,0,1,3.76-2.18,4.16,4.16,0,0,1-.47,3.84,5.41,5.41,0,0,1-3.76,2.18A4.16,4.16,0,0,1,11.09,23.86ZM10.16,35A5.29,5.29,0,0,1,6.61,32.7a5.89,5.89,0,0,1,4.32-.93,5.31,5.31,0,0,1,3.54,2.29A5.87,5.87,0,0,1,10.16,35Zm4.3-5.31a4.67,4.67,0,0,1,2.46-3.29,4.29,4.29,0,0,1,1.32,3.73,4.69,4.69,0,0,1-2.46,3.29A4.32,4.32,0,0,1,14.46,29.67Zm11.72,3.26a5,5,0,0,1,3.13-2.84A4.18,4.18,0,0,1,29.8,34a5,5,0,0,1-3.1,2.82,1.07,1.07,0,0,0-.14-.16A4.15,4.15,0,0,1,26.18,32.93Zm-6,1a4.18,4.18,0,0,1,.49-3.87,5,5,0,0,1,3.13,2.84h0a4.11,4.11,0,0,1-.33,3.6l-.2.24A5,5,0,0,1,20.2,34Zm-1.05,6.51a6,6,0,0,1-4.4-.64,5.18,5.18,0,0,1,3.33-2.51,6,6,0,0,1,4.4.63A5.2,5.2,0,0,1,19.15,40.47Zm5.93,3.12a4.54,4.54,0,0,1-2-3.54A4.43,4.43,0,0,1,25,36.5a4.51,4.51,0,0,1,2,3.54A4.42,4.42,0,0,1,25.08,43.59Zm6.84-6.27a5.16,5.16,0,0,1,3.33,2.51,6,6,0,0,1-4.4.64A5.2,5.2,0,0,1,27.52,38,6,6,0,0,1,31.92,37.32Zm2.3-3.92a4.69,4.69,0,0,1-2.46-3.29,4.29,4.29,0,0,1,1.32-3.73,4.67,4.67,0,0,1,2.46,3.29A4.32,4.32,0,0,1,34.22,33.4Zm4.85-1.63a5.89,5.89,0,0,1,4.32.93A5.29,5.29,0,0,1,39.84,35a5.87,5.87,0,0,1-4.31-.92A5.31,5.31,0,0,1,39.07,31.77Zm.32-4.07a5.41,5.41,0,0,1-3.77-2.18,4.16,4.16,0,0,1-.47-3.84,5.41,5.41,0,0,1,3.76,2.18A4.19,4.19,0,0,1,39.39,27.7Zm5.81-.25a6,6,0,0,1-4.43.66A4.63,4.63,0,0,1,43,24.78a5.92,5.92,0,0,1,4.43-.65A4.59,4.59,0,0,1,45.2,27.45Z" fill="#231f20"/></g><g id="a8b18de9-8043-4248-b9ce-64ea37d790eb" data-name="LABELS"><text transform="translate(0.19 54.79)" font-size="6" fill="#231f20" font-family="Roboto-Regular, Roboto">w<tspan x="4.51" y="0" letter-spacing="-0.01em">r</tspan><tspan x="6.48" y="0">eath-of-lau</tspan><tspan x="35.03" y="0" letter-spacing="-0.01em">r</tspan><tspan x="37.01" y="0">el</tspan></text></g></svg>