<svg xmlns="http://www.w3.org/2000/svg" viewBox="0 0 50 50"><g id="afcf1590-c021-4942-95e2-da04e0eed43d" data-name="ICONS"><path d="M47.28,11.75a2.16,2.16,0,0,0-4.32,0c0,1.81-5.23,5.25-15.65,5.78V13.75C36,13.33,45.2,10.34,45.2,4.64a2.16,2.16,0,0,0-4.32,0c0,1.43-4.79,4.36-13.57,4.79V5A2.16,2.16,0,1,0,23,5V9.43C14.17,9,9.37,6.07,9.37,4.64A2.17,2.17,0,0,0,5,4.64c0,5.71,9.21,8.7,18,9.12v3.8C12,17.22,6.3,13.62,6.3,11.75a2.17,2.17,0,0,0-4.33,0c0,4.61,6.58,9.71,21,10.14v4.68c-7.47-.42-10.69-2.88-10.69-3.63a2.16,2.16,0,1,0-4.32,0c0,5,7.46,7.55,15,8l0,6a68.76,68.76,0,0,1-7.5-.94c-2.27-.39-3.41-.59-4.15,0a2.67,2.67,0,0,0-.64,2.08c0,4.14,1.7,6.06,11.82,6.53H23a2.06,2.06,0,0,0,2.14,2.19h.06a2,2,0,0,0,1.46-.53,2.51,2.51,0,0,0,.63-1.66h.37c9.6-.38,11.15-2.24,11.15-6.54,0-1-.1-1.73-.6-2.14s-1.59-.36-3.49,0a58.82,58.82,0,0,1-7.39,1l0-6c7.52-.42,15-3,15-8a2.17,2.17,0,0,0-4.33,0c0,.75-3.2,3.2-10.63,3.63V21.85C37,21.35,47.28,18,47.28,11.75ZM26.46,27.46a.5.5,0,0,0,.37.13c7.14-.31,12.11-2.7,12.11-4.65a1.17,1.17,0,0,1,2.33,0c0,4.37-7.51,6.68-14.48,7a.5.5,0,0,0-.48.5l0,7a.5.5,0,0,0,.53.49,59.25,59.25,0,0,0,8-1c1.39-.26,2.39-.44,2.67-.21s.24,1.08.24,1.37c0,3.28-.47,5.15-10.15,5.54l-.83,0a.47.47,0,0,0-.37.14.48.48,0,0,0-.15.36A2.19,2.19,0,0,1,26,45.53a1,1,0,0,1-.8.24c-1,0-1.17-.59-1.17-1.7a.51.51,0,0,0-.5-.5h-1c-10.11-.47-10.84-2.4-10.84-5.53,0-.72.1-1.15.29-1.32.38-.31,1.55-.11,3.33.19a66,66,0,0,0,8.14,1,.5.5,0,0,0,.37-.13.52.52,0,0,0,.16-.37l0-7a.51.51,0,0,0-.48-.51c-7-.29-14.53-2.6-14.53-7a1.16,1.16,0,1,1,2.32,0c0,2,5,4.35,12.16,4.66a.47.47,0,0,0,.37-.14A.48.48,0,0,0,24,27.1V21.41a.49.49,0,0,0-.49-.5C10,20.6,3,16.07,3,11.75a1.17,1.17,0,0,1,2.33,0c0,3.11,7.3,6.59,18.18,6.82a.52.52,0,0,0,.36-.14.51.51,0,0,0,.15-.36V13.28a.51.51,0,0,0-.49-.5C14.83,12.46,6,9.56,6,4.64a1.17,1.17,0,0,1,2.33,0c0,2.54,6.06,5.49,15.1,5.81a.43.43,0,0,0,.36-.14A.48.48,0,0,0,24,10V5a1.16,1.16,0,1,1,2.32,0V10a.48.48,0,0,0,.15.36.47.47,0,0,0,.37.14c9-.33,15.05-3.27,15.05-5.81a1.16,1.16,0,0,1,2.32,0c0,4.91-8.76,7.81-17.41,8.14a.5.5,0,0,0-.48.49v4.78a.48.48,0,0,0,.15.36.47.47,0,0,0,.37.14C37.41,18.12,44,14.68,44,11.75a1.16,1.16,0,0,1,2.32,0c0,5.45-9.81,8.71-19.49,9.12a.5.5,0,0,0-.48.5V27.1A.51.51,0,0,0,26.46,27.46Z"/></g><g id="e62684ba-e5b9-4f1a-ba4b-f00fa068c8ff" data-name="LABELS"><text transform="translate(0.29 54.97)" font-size="6" font-family="Roboto-Regular, Roboto">x-<tspan x="4.63" y="0" letter-spacing="-0.02em">r</tspan><tspan x="6.54" y="0" letter-spacing="-0.01em">a</tspan><tspan x="9.76" y="0">y</tspan></text></g></svg>