<svg xmlns="http://www.w3.org/2000/svg" viewBox="0 0 50 50"><g id="b7a36c75-7240-4207-9c9e-291d7af6ae8d" data-name="ICONS"><path d="M37.35,14.07V3.35H15.15V14.07l-12,0v35.1H48.59V48.07a2.76,2.76,0,0,1,.06.57,3,3,0,0,1-.06.51h.78V14.05ZM4.21,18.65a.5.5,0,0,1,.5-.5H9.57a.5.5,0,0,1,.5.5v4.86a.5.5,0,0,1-.5.5H4.71a.5.5,0,0,1-.5-.5ZM7.39,43.1v5.19h-1V43.1a4.1,4.1,0,0,1-3.08-4.22,15.17,15.17,0,0,1,1.07-6,.5.5,0,0,1-.17-.37V27.67a.5.5,0,0,1,.5-.5H9.57a.5.5,0,0,1,.5.5v4.86a.5.5,0,0,1-.5.5h-.1a15.54,15.54,0,0,1,1,5.85A4.09,4.09,0,0,1,7.39,43.1Zm32-24.45a.5.5,0,0,1,.5-.5h4.86a.5.5,0,0,1,.5.5v4.86a.5.5,0,0,1-.5.5H39.93a.5.5,0,0,1-.5-.5Zm0,9a.5.5,0,0,1,.5-.5h4.86a.5.5,0,0,1,.5.5v4.86a.5.5,0,0,1-.5.5H39.93a.5.5,0,0,1-.5-.5Zm0,9a.5.5,0,0,1,.5-.5h4.86a.5.5,0,0,1,.5.5v4.86a.5.5,0,0,1-.5.5H39.93a.5.5,0,0,1-.5-.5ZM17.06,5.91a.51.51,0,0,1,.5-.5h5.5a.5.5,0,0,1,.5.5v5.5a.5.5,0,0,1-.5.5h-5.5a.5.5,0,0,1-.5-.5Zm0,10a.5.5,0,0,1,.5-.5h5.5a.5.5,0,0,1,.5.5v5.5a.5.5,0,0,1-.5.5h-5.5a.51.51,0,0,1-.5-.5Zm0,15.48v-5.5a.51.51,0,0,1,.5-.5h5.5a.5.5,0,0,1,.5.5v5.5a.5.5,0,0,1-.5.5h-5.5A.5.5,0,0,1,17.06,31.38ZM31.74,47.65v.5a.51.51,0,0,1-.5.5h-13a.51.51,0,0,1-.5-.5V35.41a.51.51,0,0,1,.5-.5h13a.51.51,0,0,1,.5.5Zm.7-16.27a.5.5,0,0,1-.5.5h-5.5a.5.5,0,0,1-.5-.5v-5.5a.5.5,0,0,1,.5-.5h5.5a.51.51,0,0,1,.5.5Zm0-10a.51.51,0,0,1-.5.5h-5.5a.5.5,0,0,1-.5-.5V15.9a.5.5,0,0,1,.5-.5h5.5a.5.5,0,0,1,.5.5Zm0-10a.5.5,0,0,1-.5.5h-5.5a.5.5,0,0,1-.5-.5V5.91a.5.5,0,0,1,.5-.5h5.5a.51.51,0,0,1,.5.5ZM47.09,47.65a3.1,3.1,0,0,1-.23.71.49.49,0,0,1-.45.29H34.71a.51.51,0,0,1-.44-.27,3.55,3.55,0,0,1-.26-.73,3.07,3.07,0,0,1-.07-.6,2.94,2.94,0,0,1,1.91-2.73,3,3,0,0,1,1-.2H37a4,4,0,0,1,3.39-1.91,3.9,3.9,0,0,1,3.5,2.11,2.43,2.43,0,0,1,.38,0,2.88,2.88,0,0,1,2.89,2.85A3,3,0,0,1,47.09,47.65Z" fill="#fdd600"/><path d="M48.59,48.07v1.08a3,3,0,0,0,.06-.51A2.76,2.76,0,0,0,48.59,48.07Z" fill="none"/><path d="M4.71,24H9.57a.5.5,0,0,0,.5-.5V18.65a.5.5,0,0,0-.5-.5H4.71a.5.5,0,0,0-.5.5v4.86A.5.5,0,0,0,4.71,24Zm.5-4.86H9.07V23H5.21Z" fill="#231f20"/><path d="M39.93,24h4.86a.5.5,0,0,0,.5-.5V18.65a.5.5,0,0,0-.5-.5H39.93a.5.5,0,0,0-.5.5v4.86A.5.5,0,0,0,39.93,24Zm.5-4.86h3.86V23H40.43Z" fill="#231f20"/><path d="M39.93,33h4.86a.5.5,0,0,0,.5-.5V27.67a.5.5,0,0,0-.5-.5H39.93a.5.5,0,0,0-.5.5v4.86A.5.5,0,0,0,39.93,33Zm.5-4.86h3.86V32H40.43Z" fill="#231f20"/><path d="M39.93,42.05h4.86a.5.5,0,0,0,.5-.5V36.69a.5.5,0,0,0-.5-.5H39.93a.5.5,0,0,0-.5.5v4.86A.5.5,0,0,0,39.93,42.05Zm.5-4.86h3.86v3.86H40.43Z" fill="#231f20"/><path d="M17.56,21.9h5.5a.5.5,0,0,0,.5-.5V15.9a.5.5,0,0,0-.5-.5h-5.5a.5.5,0,0,0-.5.5v5.5A.51.51,0,0,0,17.56,21.9Zm.5-5.5h4.5v4.5h-4.5Z" fill="#231f20"/><path d="M31.94,15.4h-5.5a.5.5,0,0,0-.5.5v5.5a.5.5,0,0,0,.5.5h5.5a.51.51,0,0,0,.5-.5V15.9A.5.5,0,0,0,31.94,15.4Zm-.5,5.5h-4.5V16.4h4.5Z" fill="#231f20"/><path d="M17.56,11.91h5.5a.5.5,0,0,0,.5-.5V5.91a.5.5,0,0,0-.5-.5h-5.5a.51.51,0,0,0-.5.5v5.5A.5.5,0,0,0,17.56,11.91Zm.5-5.5h4.5v4.5h-4.5Z" fill="#231f20"/><path d="M31.94,5.41h-5.5a.5.5,0,0,0-.5.5v5.5a.5.5,0,0,0,.5.5h5.5a.5.5,0,0,0,.5-.5V5.91A.51.51,0,0,0,31.94,5.41Zm-.5,5.5h-4.5V6.41h4.5Z" fill="#231f20"/><path d="M23.56,31.38v-5.5a.5.5,0,0,0-.5-.5h-5.5a.51.51,0,0,0-.5.5v5.5a.5.5,0,0,0,.5.5h5.5A.5.5,0,0,0,23.56,31.38Zm-1-.5h-4.5v-4.5h4.5Z" fill="#231f20"/><path d="M31.94,25.38h-5.5a.5.5,0,0,0-.5.5v5.5a.5.5,0,0,0,.5.5h5.5a.5.5,0,0,0,.5-.5v-5.5A.51.51,0,0,0,31.94,25.38Zm-.5,5.5h-4.5v-4.5h4.5Z" fill="#231f20"/><rect x="25.25" y="35.91" width="5.49" height="11.73" fill="none"/><path d="M1.63,47.65H6.39V43.1a4.1,4.1,0,0,1-3.08-4.22,15.17,15.17,0,0,1,1.07-6,.5.5,0,0,1-.17-.37V27.67a.5.5,0,0,1,.5-.5H9.57a.5.5,0,0,1,.5.5v4.86a.5.5,0,0,1-.5.5h-.1a15.54,15.54,0,0,1,1,5.85A4.09,4.09,0,0,1,7.39,43.1v4.55h5.26V12.55h-11Z" fill="none"/><rect x="18.76" y="35.91" width="5.49" height="11.73" fill="none"/><path d="M9,32h.12V28.17H5.21v3.35a2.26,2.26,0,0,1,1.68-.91A2.58,2.58,0,0,1,9,32Z" fill="none"/><path d="M6.89,42.16c1.42,0,2.58-1.47,2.58-3.28,0-4.29-1.36-7.27-2.58-7.27s-2.58,3-2.58,7.27C4.31,40.69,5.47,42.16,6.89,42.16Z" fill="none"/><path d="M36.85,44.12H37a4,4,0,0,1,3.39-1.91,3.9,3.9,0,0,1,3.5,2.11,2.43,2.43,0,0,1,.38,0,2.88,2.88,0,0,1,2.89,2.85,3,3,0,0,1-.06.51h.78V12.55h-11Z" fill="none"/><path d="M35.85,12.05V1.85H13.65v45.8h4.11V35.41a.51.51,0,0,1,.5-.5h13a.51.51,0,0,1,.5.5V47.65H34a3.07,3.07,0,0,1-.07-.6,2.94,2.94,0,0,1,1.91-2.73Z" fill="none"/><path d="M44.26,45.29a1.84,1.84,0,0,0-.53.09.5.5,0,0,1-.6-.3,3,3,0,0,0-5.41-.21.51.51,0,0,1-.52.27l-.28,0a2,2,0,0,0-2,1.93,1.8,1.8,0,0,0,.1.6h11a1.81,1.81,0,0,0,.08-.51A1.87,1.87,0,0,0,44.26,45.29Z" fill="none"/><path d="M48.37,11.55H36.85V1.35a.51.51,0,0,0-.5-.5H13.15a.51.51,0,0,0-.5.5v10.2H1.13a.5.5,0,0,0-.5.5v36.1a.5.5,0,0,0,.5.5H48.37a.5.5,0,0,0,.5-.5V12.05A.5.5,0,0,0,48.37,11.55ZM6.89,31.61c1.22,0,2.58,3,2.58,7.27,0,1.81-1.16,3.28-2.58,3.28s-2.58-1.47-2.58-3.28C4.31,34.59,5.67,31.61,6.89,31.61Zm-1.68-.09V28.17H9.07V32H9a2.58,2.58,0,0,0-2.06-1.42A2.26,2.26,0,0,0,5.21,31.52Zm7.44,16.13H7.39V43.1a4.09,4.09,0,0,0,3.08-4.22,15.54,15.54,0,0,0-1-5.85h.1a.5.5,0,0,0,.5-.5V27.67a.5.5,0,0,0-.5-.5H4.71a.5.5,0,0,0-.5.5v4.86a.5.5,0,0,0,.17.37,15.17,15.17,0,0,0-1.07,6A4.1,4.1,0,0,0,6.39,43.1v4.55H1.63V12.55h11Zm11.6,0H18.76V35.91h5.49Zm6.49,0H25.25V35.91h5.49Zm3.2-.6a3.07,3.07,0,0,0,.07.6H31.74V35.41a.51.51,0,0,0-.5-.5h-13a.51.51,0,0,0-.5.5V47.65H13.65V1.85h22.2V44.32A2.94,2.94,0,0,0,33.94,47.05Zm12.13.6H35a1.8,1.8,0,0,1-.1-.6,2,2,0,0,1,2-1.93l.28,0a.51.51,0,0,0,.52-.27,3,3,0,0,1,5.41.21.5.5,0,0,0,.6.3,1.84,1.84,0,0,1,.53-.09,1.87,1.87,0,0,1,1.89,1.85A1.81,1.81,0,0,1,46.07,47.65Zm1.8,0h-.78a3,3,0,0,0,.06-.51,2.88,2.88,0,0,0-2.89-2.85,2.43,2.43,0,0,0-.38,0,3.9,3.9,0,0,0-3.5-2.11A4,4,0,0,0,37,44.12h-.14V12.55h11Z" fill="#231f20"/></g><g id="eb9ca335-b6ac-40a0-b4d3-a547db0d55e3" data-name="LABELS"><text transform="translate(-0.03 54.92)" font-size="6" fill="#231f20" font-family="Roboto-Regular, Roboto">cityscape-t<tspan x="29.05" y="0" letter-spacing="-0.01em">r</tspan><tspan x="31.03" y="0">ee</tspan></text></g></svg>