<svg id="fee611cf-ffe4-4b66-accc-b28598d38fa5" data-name="ICONS" xmlns="http://www.w3.org/2000/svg" viewBox="0 0 50 50"><g id="e736650a-a83a-4f16-a626-ed040f004b3f" data-name="Layer 4"><path d="M47.8,20.25a.5.5,0,0,1-.37-.48V14.64l-4.13-1.5v1.41a.52.52,0,0,1-.21.41.49.49,0,0,1-.44.07L39.15,14,17.32,20.17V30.43a.5.5,0,0,1-.5.5H8.55l-5.42-.62v1.78H3.7V31.4l2.6-.06v.85l-1,0a.49.49,0,0,1,.15.35V34.4a.51.51,0,0,1-.49.5l-1.83,0v4.66l5.48.57H19l4.68-.37a.58.58,0,0,1,.19,0l9.78.53,5.49.37,3.58-.77,2.55-.67,2.57-.63,1.73-.41,0-4a.51.51,0,0,1,.41-.49V20.86Zm-33,18.26H7.3V31.33h7.54Zm11.62-19,1.27-.34,0,11.74-1.25,0Zm-8.22,2.21,1.26-.31,0,5.31a.32.32,0,0,0,0,.14v2.31L18.24,29Zm3.2,11.63v4.86l-3.72.29V29.91l3.72.49Zm.91-12.73,1.26-.31,0,10.73-1.15,0V30a.47.47,0,0,0-.09-.28Zm.09,17.59V33.81l8.87-.15,0,5Zm9.38-7.44-1.24.05V18.36L31.84,18Zm5.08,3.54-2.11,0V17.16l2.11-.44Zm1.67,0-.67,0V16.83l.69.27Z" fill="#fdd600"/><path d="M48.88,18.35l-2.2-.61v-5.1a.51.51,0,0,0-.33-.47l-5.13-1.86h-.31l-3.64,1h0L14.94,17.66a.5.5,0,0,0-.37.48V28.28H6.82L.93,27.61a.51.51,0,0,0-.39.12.52.52,0,0,0-.16.37V31h0a.43.43,0,0,0,0,.11s0,.05,0,.08a.48.48,0,0,0,.46.3h0l1.8,0v.84L1,32.29H.87a.5.5,0,0,0-.49.5V38.4a.5.5,0,0,0,.45.49l5.93.62H17.26l4.62-.36h0l9.9.54h0l5.55.37h.14l3.64-.78h0c.84-.23,1.69-.45,2.56-.67L46.3,38l2.1-.5a.49.49,0,0,0,.39-.48l0-4a.49.49,0,0,0,.41-.49V18.83A.5.5,0,0,0,48.88,18.35ZM48.24,32l-4.58.64V17.93l4.58,1.28ZM37.9,16.83l.69.27,0,17.14-.67,0Zm-1,17.45-2.11,0V17.16l2.11-.44Zm3.65-22-1.36-.42,1.36-.38Zm-3.65.21v3.25l-2.71.57a.5.5,0,0,0-.4.49V34.81a.55.55,0,0,0,.15.36.52.52,0,0,0,.35.14h0l2.6,0V39l-4.56-.31,0-5.57a.51.51,0,0,0-.15-.36.52.52,0,0,0-.36-.14l-9.36.16v-.76l1.67,0a.5.5,0,0,0,.48-.5l0-11.86a.49.49,0,0,0-.19-.39.51.51,0,0,0-.43-.1l-2.26.56a.49.49,0,0,0-.38.48v9.19l-.85-.11V20.74a.53.53,0,0,0-.19-.4.54.54,0,0,0-.43-.09l-2.26.56a.49.49,0,0,0-.38.48v5.83H15.57v-8.6ZM31.34,38.66l-8.9-.48V33.81l8.87-.15Zm-24-.15V31.33h7.54v7.18Zm12.2-9.37L18.24,29V21.69l1.26-.31Zm-2.78.2h0v9.17h-.88V28.12h.88Zm1,9.13V29.91l3.72.49v7.78Zm4.63-8.79V20.59l1.26-.31,0,10.73-1.15,0V30A.47.47,0,0,0,22.35,29.68Zm-7.51.65H7.3v-1h7.54ZM6.3,29.23v1.11l-3.11.07H2.45l-1.07,0V28.66Zm0,2.11v.85l-2.6.05V31.4Zm0,1.85v5.27l-4.93-.52V33.29l1.83,0h0Zm34.25,5.18L37.9,39V35.26l1.18,0a.5.5,0,0,0,.48-.5l0-18a.5.5,0,0,0-.32-.46l-1.37-.53v-3.3l2.65.81ZM46.06,37l-2.57.63-1.94.51V11.49L45.68,13v4.47l-2.38-.67a.5.5,0,0,0-.44.09.5.5,0,0,0-.2.39v16a.49.49,0,0,0,.17.38.52.52,0,0,0,.33.12h.07l4.6-.64,0,3.47Z" fill="#231f20"/><path d="M45.09,20.37a.5.5,0,0,0-.5.5v9.64a.5.5,0,0,0,.5.5.5.5,0,0,0,.5-.5V20.87A.5.5,0,0,0,45.09,20.37Z" fill="#231f20"/><path d="M46.32,21.34v8.87a.5.5,0,0,0,1,0V21.34a.5.5,0,1,0-1,0Z" fill="#231f20"/><path d="M30.08,31.8h0l2.24-.07a.51.51,0,0,0,.49-.5l0-13.91a.51.51,0,0,0-.2-.4.53.53,0,0,0-.44-.08l-2.26.66a.5.5,0,0,0-.36.48V31.3a.48.48,0,0,0,.15.36A.5.5,0,0,0,30.08,31.8Zm.5-13.44L31.84,18l0,12.75-1.24.05Z" fill="#231f20"/><path d="M26,31.94h0l2.24-.08a.51.51,0,0,0,.49-.5l0-12.87a.51.51,0,0,0-.2-.4A.48.48,0,0,0,28.1,18l-2.26.61a.51.51,0,0,0-.38.48V31.44a.48.48,0,0,0,.16.35A.46.46,0,0,0,26,31.94Zm.5-12.46,1.27-.34,0,11.74-1.25,0Z" fill="#231f20"/></g></svg>