<svg id="beaacf2d-3a97-4ba1-b7ff-820821c9e558" data-name="ICONS" xmlns="http://www.w3.org/2000/svg" viewBox="0 0 50 50"><path d="M12.56,12.12a8,8,0,0,0,8,8H32.9a8,8,0,1,0,0-16.07H20.6A8.05,8.05,0,0,0,12.56,12.12Z" fill="#fdd600"/><path d="M37.36,36.25H35.89l-2.25-17.2A9,9,0,0,0,31.15,1.33H18.85a9,9,0,0,0-2.36,17.75L14.21,36.25H12.42a.5.5,0,0,0,0,1h1.65L12.66,47.86a.5.5,0,0,0,.43.56h.07a.5.5,0,0,0,.49-.44l1.43-10.74H22.9l-.1,10.91a.5.5,0,0,0,.49.51h0a.51.51,0,0,0,.5-.5l.1-10.92h2.43l.05,10.92a.51.51,0,0,0,.5.5h0a.5.5,0,0,0,.5-.51l-.05-10.91H35l1.38,10.46a.5.5,0,0,0,.49.44H37a.51.51,0,0,0,.43-.56L36,37.25h1.34a.5.5,0,0,0,0-1ZM31.15,2.33a8,8,0,1,1,0,16.07H18.85a8,8,0,1,1,0-16.07ZM15.21,36.25l2.26-17a9,9,0,0,0,1.38.11h4.21l-.15,16.85Zm8.7,0,.15-16.85h2.19l.08,16.85Zm3.42,0L27.25,19.4h3.9a9.32,9.32,0,0,0,1.51-.13l2.22,17Z" fill="#231f20"/></svg>