<svg xmlns="http://www.w3.org/2000/svg" viewBox="0 0 50 50"><g id="edec2fde-6ef9-47f7-b82f-47a09a9967fa" data-name="ICONS"><path d="M23.54,12.21v3.27l3.92,2.29v4.45l-3.92-2.29v6.79L27.46,29v4.43l-3.92-2.29v6.79l3.92,2.29v4.48l-3.92-2.29v7.11H29V12.21Z" fill="#fdd600"/><path d="M27.6,7.81a9.47,9.47,0,0,0-1.52-4.43,9.37,9.37,0,0,0-1.51,4.39c0,2.36.79,3.44,1.52,3.44C27,11.21,27.6,9.81,27.6,7.81Z" fill="#fdd600"/><path d="M28,9.71H26.29a6,6,0,0,0,.81-3.4c0-2.68-2-5.52-2.11-5.64a.48.48,0,0,0-.4-.2h0a.51.51,0,0,0-.41.2c-.08.12-2.11,2.91-2.11,5.6a6.07,6.07,0,0,0,.82,3.44H21.54a.5.5,0,0,0-.5.5V48.53a.5.5,0,0,0,.5.5H28a.5.5,0,0,0,.5-.5V10.21A.5.5,0,0,0,28,9.71Zm-.5,18.14L22,24.68V20.21l5.42,3.16Zm0-5.63L22,19.05V14.6l5.42,3.17ZM22,37.06l5.42,3.17v4.48L22,41.54Zm0-1.15V31.43l5.42,3.17v4.47Zm0-5.64V25.84L27.46,29v4.43Zm1-24a9.37,9.37,0,0,1,1.51-4.39A9.47,9.47,0,0,1,26.1,6.31c0,2-.62,3.4-1.51,3.4C23.86,9.71,23.07,8.63,23.07,6.27Zm4.39,4.44v5.9L22,13.44V10.71ZM22,48V42.7l5.42,3.16V48Z" fill="#231f20"/></g><g id="e8c8523c-57f4-4b0d-a85a-0c3f70581301" data-name="LABELS"><text transform="translate(-0.94 54.94)" font-size="6" fill="#231f20" font-family="Roboto-Regular, Roboto">candle</text></g></svg>