<svg xmlns="http://www.w3.org/2000/svg" viewBox="0 0 50 50"><g id="b7669ad4-3580-4387-946a-9e653f160f05" data-name="ICONS"><path d="M9.12,19.59V35.35A12.22,12.22,0,0,0,11,41.41,12.78,12.78,0,0,0,19,46.69H13.09v3H33v-3H27.2a12.8,12.8,0,0,0,7.88-5.28A12.16,12.16,0,0,0,37,35.35V19.59Z" fill="#fdd600"/><path d="M36.5,33.86a11.09,11.09,0,0,1-.28,2.45h6.16V20.53H36.5Z" fill="none"/><path d="M42.88,19.53H36.5V17.59a.5.5,0,0,0-.5-.5H7.12a.5.5,0,0,0-.5.5V33.86a12.47,12.47,0,0,0,6,10.35h-1.5a.5.5,0,0,0-.5.5v4a.5.5,0,0,0,.5.5H32a.5.5,0,0,0,.5-.5v-4a.51.51,0,0,0-.5-.5H30.53A13.14,13.14,0,0,0,36,37.31h6.93a.5.5,0,0,0,.5-.5V20A.5.5,0,0,0,42.88,19.53ZM31.54,48.17H11.59v-3h20Zm-16.95-4c-4.16-2.07-7-5.93-7-10.35V18.09H35.5V33.86c0,4.42-2.81,8.28-7,10.35Zm27.79-7.9H36.22a11.09,11.09,0,0,0,.28-2.45V20.53h5.88Z" fill="#231f20"/><path d="M12.17,9.58c.73.65,1.17,1.08,1.18,1.69,0,.77-.69,1.64-2,2.51a.5.5,0,0,0-.15.69.51.51,0,0,0,.42.23.53.53,0,0,0,.27-.08c1.68-1.08,2.52-2.22,2.5-3.37a3.42,3.42,0,0,0-1.52-2.42,5.93,5.93,0,0,1-1.6-1.92c-.65-1.46-.34-3.42.93-5.85A.5.5,0,0,0,12,.39a.5.5,0,0,0-.68.21c-1.42,2.71-1.74,5-.95,6.72A6.74,6.74,0,0,0,12.17,9.58Z" fill="#231f20"/><path d="M30.93,9.58c.72.65,1.17,1.08,1.18,1.69,0,.77-.69,1.64-2,2.51a.5.5,0,0,0-.15.69.49.49,0,0,0,.42.23.53.53,0,0,0,.27-.08c1.68-1.08,2.52-2.22,2.5-3.37a3.42,3.42,0,0,0-1.52-2.42A5.93,5.93,0,0,1,30,6.91c-.65-1.46-.34-3.42.93-5.85A.5.5,0,0,0,30.7.39.49.49,0,0,0,30,.6c-1.42,2.71-1.74,5-1,6.72A6.74,6.74,0,0,0,30.93,9.58Z" fill="#231f20"/><path d="M21.55,9.58c.73.65,1.17,1.08,1.18,1.69,0,.77-.69,1.64-2,2.51a.5.5,0,0,0-.15.69.51.51,0,0,0,.42.23.53.53,0,0,0,.27-.08c1.68-1.08,2.52-2.22,2.5-3.37a3.42,3.42,0,0,0-1.52-2.42,5.93,5.93,0,0,1-1.6-1.92c-.65-1.46-.34-3.42.93-5.85a.5.5,0,0,0-.22-.67.49.49,0,0,0-.67.21c-1.42,2.71-1.74,5-.95,6.72A6.74,6.74,0,0,0,21.55,9.58Z" fill="#231f20"/></g><g id="ead5e431-a4df-4df4-9dd8-7f914aaa2a0a" data-name="LABELS"><text transform="translate(-0.03 55.07)" font-size="6" fill="#231f20" font-family="Roboto-Regular, Roboto">cof<tspan x="8.65" y="0" letter-spacing="-0.01em">f</tspan><tspan x="10.66" y="0">ee-tea</tspan></text></g></svg>