<svg id="f0ca6cac-547a-42ca-883d-8391240a8789" data-name="ICONS" xmlns="http://www.w3.org/2000/svg" viewBox="0 0 50 50"><path d="M36.73,14.25c-1.81-.33-3.64-.56-5.47-.71-.51-.06-1-.1-1.53-.11h-1l-.84-5.21a55.86,55.86,0,0,0-13.54.72A56.58,56.58,0,0,0,2.89,12.24L5.54,28.67a12,12,0,0,0,5,8A12.76,12.76,0,0,0,20,38.75a13.29,13.29,0,0,0,2.37-.61l.17.15A17.2,17.2,0,0,0,24,39.86c.27.23.55.44.85.65a12.82,12.82,0,0,0,6.72,3.65,12.47,12.47,0,0,0,14.81-9.53l3.26-16.32A55.76,55.76,0,0,0,36.73,14.25ZM6.72,19a3.15,3.15,0,0,1,.61-1.91,3.2,3.2,0,0,1,2.1-1.3,3.15,3.15,0,0,1,.53,0A3.25,3.25,0,0,1,13,18ZM21.8,28.75a6.54,6.54,0,0,1-9.14,1.47,6.46,6.46,0,0,1-2.53-3.77L23,24.37A6.5,6.5,0,0,1,21.8,28.75ZM17.6,17.23A3.23,3.23,0,0,1,20.32,14a3.05,3.05,0,0,1,.52,0,3.28,3.28,0,0,1,3.07,2.24Zm13.81,3.21a3.23,3.23,0,0,1,.84,1.82l-2.37-.09-.44-2.72A3.19,3.19,0,0,1,31.41,20.44ZM37.88,37,26,34.63a13.89,13.89,0,0,0,1.57-1.76,12.7,12.7,0,0,0,1.59-2.79A6.53,6.53,0,0,1,37.88,37Zm4.06-11.78L36,23a3.23,3.23,0,0,1,6,2.23Z" fill="#fdd600"/><path d="M49,16.07a56.29,56.29,0,0,0-20.88-5.15L27.3,6.16a.51.51,0,0,0-.46-.42A57,57,0,0,0,.64,10a.5.5,0,0,0-.31.54L3.05,27.33A13,13,0,0,0,8.5,36a13.69,13.69,0,0,0,7.87,2.47,14.57,14.57,0,0,0,2.27-.18,14.18,14.18,0,0,0,2.37-.6,14,14,0,0,0,11.65,6.28,13.38,13.38,0,0,0,13.23-10.6l3.34-16.7A.5.5,0,0,0,49,16.07ZM18.48,37.25a12.76,12.76,0,0,1-9.41-2.12,12,12,0,0,1-5-8L1.39,10.74A56.58,56.58,0,0,1,12.83,7.43a55.86,55.86,0,0,1,13.54-.72L29,23.14a11.94,11.94,0,0,1-2.27,9.14A12.78,12.78,0,0,1,18.48,37.25ZM32.67,29.8A6.56,6.56,0,0,1,37.88,37L26,34.63a13.89,13.89,0,0,0,1.57-1.76,12.7,12.7,0,0,0,1.59-2.79A6.57,6.57,0,0,1,32.67,29.8Zm12.24,3.33A12.47,12.47,0,0,1,30.1,42.66,12.76,12.76,0,0,1,22,37.26,13.75,13.75,0,0,0,25,35.46L38.2,38.09h.1a.53.53,0,0,0,.27-.08.52.52,0,0,0,.22-.32,7.57,7.57,0,0,0-5.92-8.88,7.47,7.47,0,0,0-3.3.09A12.75,12.75,0,0,0,30,23.18l2.72.1h0a.5.5,0,0,0,.5-.48,4.22,4.22,0,0,0-1.13-3,4.17,4.17,0,0,0-2.86-1.34l-1.05-6.49a55,55,0,0,1,7,.82,55.76,55.76,0,0,1,12.94,4.06ZM29.44,19.45a3.19,3.19,0,0,1,2,1,3.23,3.23,0,0,1,.84,1.82l-2.37-.09Z" fill="#231f20"/><path d="M34.82,23.49a.48.48,0,0,0,.28.26l7,2.61.17,0a.5.5,0,0,0,.47-.33,4.23,4.23,0,0,0-2.49-5.44,4.22,4.22,0,0,0-5.44,2.49A.46.46,0,0,0,34.82,23.49Zm5.08-1.94a3.22,3.22,0,0,1,2,3.68L36,23A3.25,3.25,0,0,1,39.9,21.55Z" fill="#231f20"/><path d="M23.37,23.3,9.46,25.54a.51.51,0,0,0-.42.58,7.55,7.55,0,0,0,7.43,6.34,7.09,7.09,0,0,0,1.22-.1,7.54,7.54,0,0,0,6.25-8.65A.49.49,0,0,0,23.37,23.3ZM21.8,28.75a6.54,6.54,0,0,1-9.14,1.47,6.46,6.46,0,0,1-2.53-3.77L23,24.37A6.5,6.5,0,0,1,21.8,28.75Z" fill="#231f20"/><path d="M14.13,18.3a4.23,4.23,0,0,0-8.36,1.35A.5.5,0,0,0,6,20a.52.52,0,0,0,.29.09h.08l7.38-1.19A.49.49,0,0,0,14.13,18.3ZM6.72,19a3.15,3.15,0,0,1,.61-1.91,3.2,3.2,0,0,1,2.1-1.3,3.15,3.15,0,0,1,.53,0A3.25,3.25,0,0,1,13,18Z" fill="#231f20"/><path d="M23.31,13.79a4.23,4.23,0,0,0-5.91,1,4.22,4.22,0,0,0-.75,3.15.49.49,0,0,0,.49.42h.08l7.38-1.19a.49.49,0,0,0,.32-.2.52.52,0,0,0,.09-.38A4.19,4.19,0,0,0,23.31,13.79ZM17.6,17.23A3.23,3.23,0,0,1,20.32,14a3.05,3.05,0,0,1,.52,0,3.28,3.28,0,0,1,3.07,2.24Z" fill="#231f20"/></svg>