<svg xmlns="http://www.w3.org/2000/svg" viewBox="0 0 612 792"><g id="e03e8d97-132e-4fa9-9cd6-21ec39773ae9" data-name="ICONS"><path d="M282.84,117.35l-1.53,10.9a.54.54,0,0,1-.15.29l-26.33,26.33,1.35,1.36,3.87-3.86a.47.47,0,0,1,.35-.15l.15,0a.5.5,0,0,1,.34.4,6.4,6.4,0,0,0,10.84,3.45l9.56-9.56a6.4,6.4,0,0,0-3.45-10.84.5.5,0,0,1-.4-.34.49.49,0,0,1,.13-.5l5.2-5.21a.47.47,0,0,1,.28-.14L293.52,128Zm-3.24,21,.81.81a3.92,3.92,0,0,1,0,5.54L270,155.07a3.91,3.91,0,0,1-5.54,0l-.81-.81a3.92,3.92,0,0,1,0-5.54l10.37-10.37A4,4,0,0,1,279.6,138.35Z" fill="#fdd600"/><path d="M216.77,121.6a.5.5,0,0,1-.5-.5v-.37a2.36,2.36,0,0,0-2.35-2.36H195a2.36,2.36,0,0,0-2.35,2.36v.37a.5.5,0,0,1-.5.5h-1.24v3.08h.93a.49.49,0,0,1,.5.43l.65,5.2.33-1.18,2.4,8.53h-1.81l.06.51a10.63,10.63,0,0,0,5.12,7.09.5.5,0,0,1,.25.48L198,159.3a.49.49,0,0,1-.5.44h-1.42V162H212.7v-2.28h-1.41a.49.49,0,0,1-.49-.44l-1.4-13.59a.5.5,0,0,1,.24-.48,10.57,10.57,0,0,0,5.07-7l1.57-13.08a.5.5,0,0,1,.49-.44h1V121.6ZM194,127.78h4.8l-2.4,8.53Zm3.06,9.88,2.41-8.55,2.45,8.55Zm3.07-9.88h4.79l-2.37,8.44Zm3.05,9.88,2.41-8.54,2.43,8.54Zm3.07-9.88h4.8l-2.37,8.53Zm6.7,8.67a10.32,10.32,0,0,1-.33,1.21h-3.28l2.37-8.52,1.47,5.23,0,0Zm.56-4.62-1.14-4.05H214Z" fill="#fdd600"/><path d="M208.13,148.34h-11l.38-3.63c-.33-.16-.64-.34-1-.53L195.21,157H193.8a.5.5,0,0,0-.5.5v3.28a.5.5,0,0,0,.5.5h17.65a.5.5,0,0,0,.5-.5v-3.28a.5.5,0,0,0-.5-.5h-1.4l-1.35-12.83c-.31.19-.63.37-.95.53ZM211,160.27H194.3V158H211Zm-14.27-7.62h11.91l.44,4.19-12.81.15Zm11.56-3.31.24,2.31H196.79l.24-2.31Z" fill="#231f20"/><path d="M214.46,123.93l-.34,2.85H191.05l-.36-2.85h-1L191,134.08v0l.31,2.45a12.67,12.67,0,0,0,.49,1.73s0,0,0,.06a11.53,11.53,0,0,0,4.79,5.81c.31.19.62.37,1,.53a11.44,11.44,0,0,0,5,1.2h.05a11.48,11.48,0,0,0,5.14-1.22c.32-.16.64-.34.95-.53a11.66,11.66,0,0,0,5.25-7.55l1.52-12.68Zm-11.9,21a10.59,10.59,0,0,1-9.58-6.25h19.26a10.57,10.57,0,0,1-9.63,6.25Zm10.07-7.25h-3.28l2.37-8.52,1.47,5.23,0,0-.25,2A10.32,10.32,0,0,1,212.63,137.66Zm-13.15-8.55,2.45,8.55h-4.86Zm8.55,8.55h-4.84l2.41-8.54Zm.66-1.35-2.43-8.53h4.8Zm-6.13-.09-2.42-8.44h4.79Zm-6.15.09-2.4-8.53h4.8Zm-.66,1.35h-3.16c-.13-.41-.25-.82-.34-1.24l-.29-2.35,1.39-4.94Zm17.77-5.83-1.14-4.05H214Zm-20.83-4.05-1.05,3.74-.47-3.74Z" fill="#231f20"/><path d="M216.56,118.86h-1.05a3.35,3.35,0,0,0-3.34-3.24H193.28a3.35,3.35,0,0,0-3.34,3.24h-1.25a.5.5,0,0,0-.5.5v4.07a.5.5,0,0,0,.5.5h27.87a.5.5,0,0,0,.5-.5v-4.07A.5.5,0,0,0,216.56,118.86Zm-.5,4.07H189.19v-3.07h26.87Zm-22.78-6.31h18.89a2.34,2.34,0,0,1,2.34,2.24H190.94A2.35,2.35,0,0,1,193.28,116.62Z" fill="#231f20"/><path d="M294.25,127.36l-12.09-12.1a.5.5,0,0,0-.51-.12.51.51,0,0,0-.34.41l-1.65,11.73-10,10-1.59-1.59.14-.13a.51.51,0,0,0,0-.71.5.5,0,0,0-.71,0l-1,1a.5.5,0,0,0,0,.7.51.51,0,0,0,.36.15.5.5,0,0,0,.35-.15l.13-.13,1.59,1.59-2.12,2.12-1.59-1.59.14-.13a.51.51,0,0,0,0-.71.5.5,0,0,0-.71,0l-1,1a.5.5,0,0,0,0,.7.51.51,0,0,0,.36.15.5.5,0,0,0,.35-.15l.13-.13,1.59,1.58L264,143l-1.59-1.59.14-.13a.51.51,0,0,0,0-.71.5.5,0,0,0-.71,0l-1,1a.5.5,0,0,0,0,.7.51.51,0,0,0,.36.15.5.5,0,0,0,.35-.15l.13-.13,1.59,1.58-2,2h0l-7.82,7.82-.87-.87a.5.5,0,0,0-.71,0l-2,2a.5.5,0,0,0,0,.7l4.33,4.33a.51.51,0,0,0,.7,0l2-2a.5.5,0,0,0,0-.71l-.68-.68,3.23-3.23a7.29,7.29,0,0,0,1.84,3.09,7.41,7.41,0,0,0,10.48,0l9.56-9.56a7.4,7.4,0,0,0-3.09-12.32l4.45-4.45L294,128.21a.5.5,0,0,0,.4-.34A.48.48,0,0,0,294.25,127.36ZM282.09,129l-5.21,5.21-3.5,3.5-.78.78-.89.89L270.35,138l10.13-10.13a.54.54,0,0,0,.15-.29l1.53-10.9,10.68,10.68-10.47,1.47A.62.62,0,0,0,282.09,129ZM262,155.42a6.32,6.32,0,0,1-1.78-3.45s0-.05,0-.08a6.44,6.44,0,0,1,1.79-5.5l2-2,1.35,1.36L263,148.05a3.92,3.92,0,0,0,0,5.54l.81.81a3.91,3.91,0,0,0,5.54,0L279.73,144a3.92,3.92,0,0,0,0-5.54l-.81-.81a3.91,3.91,0,0,0-3-1.12l1.47-1.48a6.38,6.38,0,0,1,3.22,10.79l-9.56,9.55A6.41,6.41,0,0,1,262,155.42Zm-7.84-1.22,5.21-5.21a7.43,7.43,0,0,0-.19,2.9l-3.67,3.67Zm19.16-15,.78-.78a2.92,2.92,0,0,1,4.12,0l.81.81a2.92,2.92,0,0,1,0,4.13L277.35,145l-4.93-4.93Zm3.34,6.53-2.13,2.12-4.93-4.93,2.12-2.12Zm-4.95,5-4.94-4.93,2.12-2.12,4.94,4.93Zm-.71.71-2.34,2.33a2.91,2.91,0,0,1-4.12,0l-.81-.8a2.92,2.92,0,0,1,0-4.13l2.33-2.34Zm-2.11-9.18-1.35-1.36,2.12-2.12,1.35,1.36Zm-.71.71L266.05,145l-1.35-1.36,2.12-2.12Zm-13.62,15.7L250.93,155l1.28-1.28.88.87,2.06,2.06.68.68Z" fill="#231f20"/><path d="M348,136.29l.3,2.65a.51.51,0,0,1-.12.39.54.54,0,0,1-.38.17h-6.14a.54.54,0,0,1-.38-.17.51.51,0,0,1-.12-.39l.3-2.65H322.26l1.79,15.55H339.7l1-8.69a.49.49,0,0,1,.49-.44h7.12a.49.49,0,0,1,.49.44l1,8.69h15.66l1.78-15.55Zm-20.71,4.63a1.5,1.5,0,0,1-3,0v-3.11h3Zm8.61,0a1.5,1.5,0,0,1-3,0v-3.11h3Zm17.15,0a1.5,1.5,0,0,1-3,0v-3.11h3Zm8.61,0a1.5,1.5,0,0,1-3,0v-3.11h3Z" fill="#fdd600"/><path d="M366.56,130.83h-.43a3.72,3.72,0,0,0-3.66-3.22H349.29a3.7,3.7,0,0,0-3.66,3.22h-.43a.5.5,0,0,0-.5.5V134a.5.5,0,0,0,.5.5h.06l.25,2.21h-5l.25-2.21h.06a.5.5,0,0,0,.5-.5v-2.71a.5.5,0,0,0-.5-.5h-.43a3.7,3.7,0,0,0-3.66-3.22H323.53a3.72,3.72,0,0,0-3.66,3.22h-.43a.5.5,0,0,0-.5.5V134a.5.5,0,0,0,.5.5h.06l1.85,16.11a.51.51,0,0,0,.5.44h16.54a.5.5,0,0,0,.5-.44l1-8.69h6.22l1,8.69a.5.5,0,0,0,.5.44h16.54a.51.51,0,0,0,.5-.44l1.85-16.11h.06a.5.5,0,0,0,.5-.5v-2.71A.5.5,0,0,0,366.56,130.83Zm-18.51,19.26-1.78-15.55h4.8v2.27h-1.49a.5.5,0,0,0-.5.5v3.61a2.5,2.5,0,0,0,5,0v-3.61a.5.5,0,0,0-.5-.5h-1.5v-2.27h7.61v2.27h-1.49a.5.5,0,0,0-.5.5v3.61a2.5,2.5,0,0,0,5,0v-3.61a.51.51,0,0,0-.5-.5h-1.5v-2.27h4.81l-1.79,15.55Zm-2.35-16.55v-1.71h5.37v1.71H345.7Zm14-1.71v1.71h-7.61v-1.71Zm-9.6,9.09v-3.11h3v3.11a1.5,1.5,0,0,1-3,0Zm11.6-3.11v3.11a1.5,1.5,0,0,1-3,0v-3.11Zm-1-4.27v-1.71h5.38v1.71h-5.38Zm-11.39-4.93h13.18a2.71,2.71,0,0,1,2.66,2.22H346.62A2.73,2.73,0,0,1,349.29,128.61Zm-27,21.48-1.79-15.55h4.81v2.27h-1.5a.51.51,0,0,0-.5.5v3.61a2.5,2.5,0,0,0,5,0v-3.61a.5.5,0,0,0-.5-.5h-1.49v-2.27h7.61v2.27h-1.5a.5.5,0,0,0-.5.5v3.61a2.5,2.5,0,0,0,5,0v-3.61a.5.5,0,0,0-.5-.5h-1.49v-2.27h4.8L338,150.09Zm-2.36-16.55v-1.71h5.38v1.71h-5.38Zm14-1.71v1.71h-7.61v-1.71Zm6,0h.38v1.71h-5.37v-1.71Zm-12.61,6v3.11a1.5,1.5,0,0,1-3,0v-3.11Zm8.61,0v3.11a1.5,1.5,0,0,1-3,0v-3.11Zm-12.39-9.2h13.18a2.73,2.73,0,0,1,2.67,2.22H320.87A2.71,2.71,0,0,1,323.53,128.61ZM340,141l.37-3.21h5.26L346,141Z" fill="#231f20"/><path d="M434.05,144.64a8.57,8.57,0,0,0-6.48-2.48,3.54,3.54,0,0,1-3.59-2.52,6.24,6.24,0,0,0-2.55-3.5,6.45,6.45,0,0,0-7.65.58.5.5,0,0,1-.68,0L401,124.59a.51.51,0,0,1,0-.71l.52-.52-4.89-4.9-3.93,3.93,4.9,4.9.52-.52a.48.48,0,0,1,.7,0l12.11,12.11a.49.49,0,0,1,0,.67,6.42,6.42,0,0,0-.58,7.65,6.19,6.19,0,0,0,3.5,2.55,3.55,3.55,0,0,1,2.52,3.6A8.54,8.54,0,0,0,431,159.83l3.1-3.1A8.55,8.55,0,0,0,434.05,144.64Zm-15.09.19a3.17,3.17,0,1,1,0-4.47A3.18,3.18,0,0,1,419,144.83Zm3.81,8.31-1.39-1.4,4.49-4.49,1.4,1.4Z" fill="#fdd600"/><path d="M433,142.28a9.64,9.64,0,0,0-7.24-2.77,2.54,2.54,0,0,1-2.58-1.79,7.16,7.16,0,0,0-3-4.06,7.36,7.36,0,0,0-8.49.35l-11.43-11.43.51-.52a.48.48,0,0,0,0-.7l-.74-.75,1-1a.51.51,0,0,0,0-.71.5.5,0,0,0-.71,0l-1,1-1-1,1-1a.5.5,0,0,0,0-.71.5.5,0,0,0-.7,0l-1,1-1-1,1-1a.5.5,0,0,0,0-.7.5.5,0,0,0-.71,0l-1,1-.74-.74a.51.51,0,0,0-.71,0l-4.63,4.63a.51.51,0,0,0,0,.71l.74.74-1,1a.51.51,0,0,0,0,.71.5.5,0,0,0,.36.14.47.47,0,0,0,.35-.14l1-1,1,1-1,1a.51.51,0,0,0,0,.71.52.52,0,0,0,.71,0l1-1,1,1-1,1a.5.5,0,0,0,0,.71.48.48,0,0,0,.7,0l1-1,.75.74a.47.47,0,0,0,.35.15.49.49,0,0,0,.35-.15l.52-.51,11.43,11.43a7.36,7.36,0,0,0-.35,8.49,7.12,7.12,0,0,0,4.06,3,2.54,2.54,0,0,1,1.79,2.59,9.54,9.54,0,0,0,16.27,7.23l3.1-3.1A9.56,9.56,0,0,0,433,142.28Zm-37.17-16.65-4.9-4.89,3.93-3.93,4.89,4.9Zm3.76-2.34,15.48,15.48a4.15,4.15,0,0,0-1.3.88,4,4,0,0,0-.88,1.3l-15.48-15.48ZM419,140.36a3.16,3.16,0,1,1-2.24-.93A3.17,3.17,0,0,1,419,140.36Zm13.34,14.72-3.1,3.09a8.53,8.53,0,0,1-14.56-6.47,3.55,3.55,0,0,0-2.52-3.6,6.19,6.19,0,0,1-3.5-2.55,6.36,6.36,0,0,1,.23-7.23l3.76,3.76a4.16,4.16,0,1,0,3.59-3.6l-3.75-3.76a6.64,6.64,0,0,1,3.84-1.25,6.1,6.1,0,0,1,3.39,1,6.24,6.24,0,0,1,2.55,3.5,3.54,3.54,0,0,0,3.59,2.52,8.54,8.54,0,0,1,6.48,14.57Z" fill="#231f20"/><path d="M426.22,146.19a.5.5,0,0,0-.7,0l-5.2,5.2a.5.5,0,0,0,0,.71l2.1,2.1a.5.5,0,0,0,.35.14.52.52,0,0,0,.36-.14l5.2-5.2a.5.5,0,0,0,.14-.35.52.52,0,0,0-.14-.36Zm-4.84,5.55,4.49-4.49,1.4,1.4-4.5,4.49Z" fill="#231f20"/><path d="M504.17,149.34a21.62,21.62,0,0,0,.28-3.42c0-.39,0-.78-.05-1.17a20.57,20.57,0,1,0-36.26,15.58,1.19,1.19,0,0,0,.88.42,1.15,1.15,0,0,0,.88-.41,18.42,18.42,0,0,1,28.17,0,1.15,1.15,0,0,0,.88.41h0a1.16,1.16,0,0,0,.87-.42,20.58,20.58,0,0,0,4.63-11.16Zm-4.95,8a.51.51,0,0,1-.36.22.5.5,0,0,1-.4-.14,20.72,20.72,0,0,0-28.94,0,.52.52,0,0,1-.35.14h-.06a.53.53,0,0,1-.36-.22c-.23-.35-.45-.71-.65-1.07H468a.55.55,0,0,1-.37-.22,18.45,18.45,0,1,1,31.58,1.29Z" fill="#fdd600"/><path d="M507.28,145.92a4.85,4.85,0,0,0-3.33-4.59,21.4,21.4,0,0,0-2.89-7,4.73,4.73,0,0,0,.53-2.17,4.83,4.83,0,0,0-7-4.34,21.53,21.53,0,0,0-7.05-3,4.83,4.83,0,0,0-9.1-.06,21.45,21.45,0,0,0-7.2,3,4.84,4.84,0,0,0-6.43,6.37,21.47,21.47,0,0,0-3,7.27,4.84,4.84,0,0,0,0,9,21.43,21.43,0,0,0,4.46,9.25,2.13,2.13,0,0,0,3.29,0,17.44,17.44,0,0,1,26.65,0,2.1,2.1,0,0,0,1.63.77h0a2.18,2.18,0,0,0,1.64-.78,21.61,21.61,0,0,0,4.44-9.17A4.84,4.84,0,0,0,507.28,145.92Zm-9.43,13.54h0a1.15,1.15,0,0,1-.87-.41,18.42,18.42,0,0,0-28.17,0,1.19,1.19,0,0,1-.89.41A1.16,1.16,0,0,1,467,159a20.57,20.57,0,1,1,31.69,0A1.19,1.19,0,0,1,497.85,159.46Zm-1.11-31.13a3.86,3.86,0,0,1,3.85,3.85,4,4,0,0,1-.2,1.19,21.91,21.91,0,0,0-4.81-4.85A4.2,4.2,0,0,1,496.74,128.33ZM483,122.64a3.84,3.84,0,0,1,3.37,2,21.16,21.16,0,0,0-3.49-.31,21.54,21.54,0,0,0-3.23.27A3.84,3.84,0,0,1,483,122.64Zm-16.46,6.82a3.85,3.85,0,0,1,2.72-1.13,4.15,4.15,0,0,1,1,.14,21.73,21.73,0,0,0-4.71,4.67A3.84,3.84,0,0,1,466.54,129.46Zm-6.82,16.46a3.84,3.84,0,0,1,1.87-3.29,19.76,19.76,0,0,0,0,6.57A3.84,3.84,0,0,1,459.72,145.92Zm44.45,3.42a20.72,20.72,0,0,0,0-6.85,3.83,3.83,0,0,1,0,6.85Z" fill="#231f20"/><path d="M462.59,133.06l.14,0a.5.5,0,0,0,.34-.63,3.85,3.85,0,0,1,.79-3.65.5.5,0,1,0-.75-.65,4.82,4.82,0,0,0-1,4.59A.51.51,0,0,0,462.59,133.06Z" fill="#231f20"/><path d="M460.34,131.38h0a.5.5,0,0,0,.48-.52,3.87,3.87,0,0,1,.41-1.92.5.5,0,0,0-.22-.68.51.51,0,0,0-.67.22,4.87,4.87,0,0,0-.52,2.43A.5.5,0,0,0,460.34,131.38Z" fill="#231f20"/><path d="M501,127a3.85,3.85,0,0,1,2,3.13.5.5,0,0,0,.5.47h0a.51.51,0,0,0,.47-.54,4.83,4.83,0,0,0-2.56-3.94.5.5,0,1,0-.47.88Z" fill="#231f20"/><path d="M504.73,128.15a.51.51,0,0,0,.48.35l.16,0a.49.49,0,0,0,.31-.63,4.8,4.8,0,0,0-1.34-2.08.5.5,0,0,0-.68.74A3.75,3.75,0,0,1,504.73,128.15Z" fill="#231f20"/><path d="M481.65,120.32a3.84,3.84,0,0,1,3.72.4.47.47,0,0,0,.28.09.51.51,0,0,0,.41-.21.5.5,0,0,0-.12-.7,4.84,4.84,0,0,0-4.68-.5.5.5,0,0,0-.26.66A.5.5,0,0,0,481.65,120.32Z" fill="#231f20"/><path d="M483,117.94a3.87,3.87,0,0,1,2,.2.33.33,0,0,0,.17,0,.5.5,0,0,0,.18-1,4.83,4.83,0,0,0-2.47-.26.5.5,0,0,0-.41.57A.51.51,0,0,0,483,117.94Z" fill="#231f20"/><path d="M500.16,145.92a17.16,17.16,0,0,0-.26-2.89,3.81,3.81,0,0,0,0,5.79A17.46,17.46,0,0,0,500.16,145.92Z" fill="none"/><path d="M483,130.35a3.82,3.82,0,0,0,2.87-1.32,16.79,16.79,0,0,0-1.88-.1,18.44,18.44,0,0,0-3.59.36A3.73,3.73,0,0,0,483,130.35Z" fill="none"/><path d="M492.91,131.88A3.8,3.8,0,0,0,497,136,17.52,17.52,0,0,0,492.91,131.88Z" fill="none"/><path d="M501.16,145.92a18.26,18.26,0,0,1-3,10.1.53.53,0,0,1-.36.22.51.51,0,0,1-.41-.14,20.72,20.72,0,0,0-28.94,0,.52.52,0,0,1-.31.14c.2.36.42.72.65,1.07a.53.53,0,0,0,.36.22h.06a.52.52,0,0,0,.35-.14,20.72,20.72,0,0,1,28.94,0,.5.5,0,0,0,.4.14.51.51,0,0,0,.36-.22,18.19,18.19,0,0,0-1.93-22.59A18.11,18.11,0,0,1,501.16,145.92Z" fill="none"/><path d="M483,131.35a4.81,4.81,0,0,1-3.74-1.78,18.49,18.49,0,0,0-5.17,2.29,4.82,4.82,0,0,1-4.83,5.18,3.11,3.11,0,0,1-.43,0,18.19,18.19,0,0,0-2.37,5,4.8,4.8,0,0,1-.35,8,17.11,17.11,0,0,0,2.05,4.92,21.73,21.73,0,0,1,29.45,0,17.3,17.3,0,0,0,2.07-5,4.85,4.85,0,0,1,0-8,17.23,17.23,0,0,0-2.06-5,5.24,5.24,0,0,1-.88.08,4.85,4.85,0,0,1-4.77-5.79,17.21,17.21,0,0,0-4.65-2l-.3-.05A4.83,4.83,0,0,1,483,131.35Z" fill="none"/><path d="M478.92,129.12a17.06,17.06,0,0,0-4.93,2,3.66,3.66,0,0,1,.1.73,18.49,18.49,0,0,1,5.17-2.29A5.3,5.3,0,0,1,478.92,129.12Z" fill="#fdd600"/><path d="M487,129.2l.3.05-.27-.08Z" fill="#fdd600"/><path d="M468.17,136.9a17.25,17.25,0,0,0-2.05,4.9l.34.25a18.19,18.19,0,0,1,2.37-5A5,5,0,0,1,468.17,136.9Z" fill="#fdd600"/><path d="M482.88,150.21a20.59,20.59,0,0,1,14.47,5.89.51.51,0,0,0,.41.14.53.53,0,0,0,.36-.22,16.84,16.84,0,0,0-10.8-26.77,17.21,17.21,0,0,1,4.65,2,4.85,4.85,0,0,0,4.77,5.79,5.24,5.24,0,0,0,.88-.08,17.23,17.23,0,0,1,2.06,5,4.85,4.85,0,0,0,0,8,17.3,17.3,0,0,1-2.07,5,21.73,21.73,0,0,0-29.45,0,17.11,17.11,0,0,1-2.05-4.92,4.8,4.8,0,0,0,.35-8c-.1.35-.19.7-.27,1.06a3.82,3.82,0,0,1-.3,5.88c-.07-.37-.11-.74-.16-1.11a18.21,18.21,0,0,0,2.37,8.36.52.52,0,0,0,.31-.14A20.63,20.63,0,0,1,482.88,150.21ZM494,134.91a3.82,3.82,0,0,1-1.1-3A17.52,17.52,0,0,1,497,136,3.8,3.8,0,0,1,494,134.91Zm4.56,11A3.82,3.82,0,0,1,499.9,143a17.16,17.16,0,0,1,.26,2.89,17.46,17.46,0,0,1-.25,2.9A3.82,3.82,0,0,1,498.57,145.92Z" fill="#231f20"/><path d="M472.7,135.62a4.83,4.83,0,0,0,1.39-3.76c-.34.23-.68.47-1,.71a3.8,3.8,0,0,1-3.52,3.44c-.25.33-.51.65-.74,1a3.11,3.11,0,0,0,.43,0A4.84,4.84,0,0,0,472.7,135.62Z" fill="#231f20"/><path d="M483,131.35a4.83,4.83,0,0,0,4-2.15c-.38-.06-.76-.13-1.15-.17a3.82,3.82,0,0,1-2.87,1.32,3.73,3.73,0,0,1-2.6-1.06c-.39.08-.76.18-1.14.28A4.81,4.81,0,0,0,483,131.35Z" fill="#231f20"/><path d="M465.6,145.92a17.07,17.07,0,0,1,.29-3.06l.3.25c.08-.36.17-.71.27-1.06l-.34-.25a17.25,17.25,0,0,1,2.05-4.9,5,5,0,0,0,.66.11c.23-.35.49-.67.74-1a3.66,3.66,0,0,1-.81,0,17.7,17.7,0,0,1,4.31-4.28,4.14,4.14,0,0,1,0,.86c.32-.24.66-.48,1-.71a3.66,3.66,0,0,0-.1-.73,17.06,17.06,0,0,1,4.93-2,5.3,5.3,0,0,0,.34.45c.38-.1.75-.2,1.14-.28a3.59,3.59,0,0,1-.39-.39,17,17,0,0,1,2.87-.26,17.29,17.29,0,0,1,3.08.29s-.06.06-.09.1c.39,0,.77.11,1.15.17l0,0,.27.08a18.22,18.22,0,0,1,10,5.47A18.27,18.27,0,0,0,467.64,156a.55.55,0,0,0,.37.22h.09a18.21,18.21,0,0,1-2.37-8.36A18.25,18.25,0,0,1,465.6,145.92Z" fill="#231f20"/><path d="M482.88,127.64A18.28,18.28,0,0,0,467.64,156a.55.55,0,0,0,.37.22h.09c.2.36.42.72.65,1.07a.53.53,0,0,0,.36.22h.06a.52.52,0,0,0,.35-.14,20.72,20.72,0,0,1,28.94,0,.5.5,0,0,0,.4.14.51.51,0,0,0,.36-.22,19.77,19.77,0,0,0-16.34-29.67Zm.12,2.71a3.83,3.83,0,0,1-3-1.45,17,17,0,0,1,2.87-.26,17.29,17.29,0,0,1,3.08.29A3.81,3.81,0,0,1,483,130.35Z" fill="none"/><path d="M145,138.18a.52.52,0,0,1-.4-.24,7.65,7.65,0,0,0-13,0,.49.49,0,0,1-.4.24,8.35,8.35,0,0,0-7.65,6.43h29.14A8.34,8.34,0,0,0,145,138.18Z" fill="#fdd600"/><path d="M153.11,145.11a.5.5,0,0,0-.5-.5h-.51a9.34,9.34,0,0,0-8.56-9.16,8.62,8.62,0,0,0-13.15-1.55l-6.5-19.19a.55.55,0,0,0-.26-.3.52.52,0,0,0-.39,0l-2.4.9a.5.5,0,0,0-.29.26.53.53,0,0,0,0,.39l7.51,18.28-12.31-15.64a.47.47,0,0,0-.34-.19.53.53,0,0,0-.37.11l-2,1.65a.52.52,0,0,0-.18.35.5.5,0,0,0,.13.37L126.57,136a9.35,9.35,0,0,0-6,8.59H120a.5.5,0,0,0-.5.5,16.79,16.79,0,0,0,7.67,14.08.5.5,0,0,0-.23.41v3.17a.5.5,0,0,0,.5.5h17.7a.5.5,0,0,0,.5-.5V159.6a.47.47,0,0,0-.23-.41A16.8,16.8,0,0,0,153.11,145.11Zm-2-.5h-2a6.32,6.32,0,0,0-12.64,0h-2a8.34,8.34,0,0,1,16.68,0Zm-8.34-3.15a3.29,3.29,0,0,0-3.28,3.15h-2a5.31,5.31,0,0,1,10.62,0h-2A3.29,3.29,0,0,0,142.76,141.46Zm2.28,3.15h-4.56a2.28,2.28,0,0,1,4.56,0Zm-8.73-7.49a3.18,3.18,0,0,0-.88.14,9.11,9.11,0,0,0-1.86-1.08,4.79,4.79,0,0,1,2.74-.86,4.85,4.85,0,0,1,2.75.86,8.6,8.6,0,0,0-1.86,1.08A3.31,3.31,0,0,0,136.31,137.12Zm0-4.58a7.66,7.66,0,0,1,6,2.89,9.3,9.3,0,0,0-2.13.35,5.83,5.83,0,0,0-7.72,0,9.3,9.3,0,0,0-2.12-.35A7.63,7.63,0,0,1,136.31,132.54Zm-14.64-16.49,1.44-.53,6.5,19.2-.17.24Zm-7.56,4.55,1.17-1,12.6,16-.26.07Zm15.75,15.81a8.3,8.3,0,0,1,5.77,2.32,9,9,0,0,0-1.15,1.71,6.32,6.32,0,0,0-10.94,4.17h-2A8.35,8.35,0,0,1,129.86,136.41Zm0,5.05a3.3,3.3,0,0,0-3.28,3.15h-2a5.29,5.29,0,0,1,9.47-3.14,9.32,9.32,0,0,0-.6,3.14h-.27A3.31,3.31,0,0,0,129.86,141.46Zm2.29,3.15h-4.57a2.29,2.29,0,0,1,4.57,0Zm12.51,17.66H128V160.1h16.7Zm-1-3.17H129a15.82,15.82,0,0,1-8.48-13.49H152.1A15.81,15.81,0,0,1,143.63,159.1Z" fill="#231f20"/><path d="M150.69,203.76a5.5,5.5,0,0,0-3.25-1c-5,0-8.53,4.75-9.06,5.51a14.83,14.83,0,0,0-2.42,10,5.3,5.3,0,0,0,2,3.25,5.58,5.58,0,0,0,4.88.73,13.88,13.88,0,0,0,7.52-5.44C153,212.75,153.85,206,150.69,203.76Z" fill="#fdd600"/><path d="M130.32,218.25a13.83,13.83,0,0,0,.45-10.32c-1.8-4.62-6.9-9.06-10.57-7.75a6.38,6.38,0,0,0-3.8,4.66,13,13,0,0,0,.52,8,15.45,15.45,0,0,0,6.89,7.69,5.18,5.18,0,0,0,4.09,0A5.12,5.12,0,0,0,130.32,218.25Z" fill="#fdd600"/><path d="M154.17,205a.51.51,0,0,0-.37.61,11.9,11.9,0,0,1-1.11,7.77.5.5,0,0,0,.24.67.54.54,0,0,0,.21.05.49.49,0,0,0,.45-.29,12.92,12.92,0,0,0,1.18-8.44A.49.49,0,0,0,154.17,205Z" fill="#231f20"/><path d="M126.71,201.53l-.07,0,.22.17Z" fill="#231f20"/><path d="M132,227.64a.47.47,0,0,0,.28-.18l2.91-4.05a4.79,4.79,0,0,0,.46-.79c-.1.12-.21.23-.3.36Z" fill="none"/><path d="M149.52,201.2a7.33,7.33,0,0,0-6.91-.61,14.74,14.74,0,0,0-6.79,5.35l-.13.2-.05,0,0,.09c-2.35,3.42-3.26,7.44-2.36,10.58a5.06,5.06,0,0,1,.13,2.28v0a4.59,4.59,0,0,1-.78,1.88l-2.36,3.27L129.06,221a4.65,4.65,0,0,1-.23-2v0a5.17,5.17,0,0,1,.75-2.16c1.73-2.76,2-6.87.67-10.81,0,0,0-.06,0-.09a.09.09,0,0,0,0-.05,1.55,1.55,0,0,0-.07-.23,14.7,14.7,0,0,0-5-7,7.35,7.35,0,0,0-6.81-1.33c-4.34,1.55-6.08,7.82-3.88,14a2.18,2.18,0,0,0,.09.23.07.07,0,0,0,0,0s0,0,0,.05c1.48,3.89,4.28,6.94,7.38,8A4.85,4.85,0,0,1,125,222.5l2.18,6.1-2.64,3.66a2.17,2.17,0,0,0,.5,3,2.13,2.13,0,0,0,1.26.41,2.16,2.16,0,0,0,1.77-.9l.88-1.23.7,2a2.19,2.19,0,0,0,2,1.44,2.08,2.08,0,0,0,.73-.13,2.17,2.17,0,0,0,1.31-2.78l-1.7-4.78,4.11-5.72a4.53,4.53,0,0,1,1.5-1.32h0a5.15,5.15,0,0,1,2.25-.63c3.26-.15,6.79-2.3,9.29-5.62,0,0,0,0,.05,0a.17.17,0,0,0,0-.05l.16-.2h0C153.2,210.39,153.26,203.88,149.52,201.2Zm-30.9-3a5,5,0,0,1,1.73-.3,7.23,7.23,0,0,1,4.15,1.49,10.68,10.68,0,0,1,1.49,1.3l-11.51,4.1C114.75,201.65,116.22,199.09,118.62,198.24Zm-4.18,7.67,12.27-4.38a15.12,15.12,0,0,1,2.41,4.26l-13.84,5A14.85,14.85,0,0,1,114.44,205.91Zm3.83,10a14.58,14.58,0,0,1-2.63-4.22l13.78-4.92a14.45,14.45,0,0,1,.65,4.92.51.51,0,0,0-.17,0l-11.47,4.09Zm6.08,4a6.12,6.12,0,0,0-2.12-1.23,9.28,9.28,0,0,1-3.21-2L130,212.74a9,9,0,0,1-1.23,3.56,6.3,6.3,0,0,0-.86,2.31Zm1.56,2.3a5.76,5.76,0,0,0-.82-1.5l2.72-1a5.67,5.67,0,0,0,.31,1.68l1.4,3.92-1.67,2.32Zm6.86,12.24a1.17,1.17,0,0,1-2.21.79l-.93-2.6,1.67-2.32ZM135.31,223l-8.08,11.23a1.17,1.17,0,0,1-2.11-.49,1.2,1.2,0,0,1,.2-.88l8.08-11.23a5.34,5.34,0,0,0,.76-1.53l2.35,1.69A5.3,5.3,0,0,0,135.31,223Zm4.51-2.38a5.94,5.94,0,0,0-2.38.61l-3-2.19a6,6,0,0,0-.19-2.45,9.2,9.2,0,0,1-.19-3.76l9.43,6.78A9.07,9.07,0,0,1,139.82,220.6Zm4.57-1.53a.43.43,0,0,0-.11-.12l-9.89-7.11a.48.48,0,0,0-.18-.08,14.71,14.71,0,0,1,2-4.56l11.89,8.54A14.78,14.78,0,0,1,144.39,219.07Zm4.3-4.13-11.94-8.57a15,15,0,0,1,3.5-3.43l10.57,7.6A15,15,0,0,1,148.69,214.94Zm-7.53-12.58a11.91,11.91,0,0,1,1.78-.83,8.3,8.3,0,0,1,2.76-.51,5.45,5.45,0,0,1,3.24,1c2.06,1.48,2.77,4.35,2.14,7.48Z" fill="#231f20"/><path d="M157.51,207.14a.49.49,0,0,0-.52-.47.49.49,0,0,0-.47.52,12.31,12.31,0,0,1-.67,4.47.51.51,0,0,0,.32.64l.16,0a.49.49,0,0,0,.47-.34A13,13,0,0,0,157.51,207.14Z" fill="#231f20"/><path d="M113.93,198.73a.51.51,0,0,0-.16-.69.5.5,0,0,0-.69.16,13,13,0,0,0-2.08,8.27.51.51,0,0,0,.5.44h.06a.49.49,0,0,0,.43-.56A12,12,0,0,1,113.93,198.73Z" fill="#231f20"/><path d="M110.36,199.39a.49.49,0,0,0-.66.24,13.22,13.22,0,0,0-1.23,4.74.51.51,0,0,0,.47.53h0a.5.5,0,0,0,.5-.48,12.27,12.27,0,0,1,1.14-4.37A.5.5,0,0,0,110.36,199.39Z" fill="#231f20"/></g><g id="a493b979-e8df-408e-b63c-4099bd577c8f" data-name="CATEGORIES"><text transform="translate(102.81 72.42)" font-size="40" fill="#231f20" font-family="Antonio-Bold, Antonio" font-weight="700">ENTERTAINMENT/DINING</text></g><g id="e1b6701b-f115-4fd9-8daa-aa5d3551fcae" data-name="LABELS"><text transform="translate(108.01 169.24)" font-size="6" fill="#231f20" font-family="Roboto-Regular, Roboto">bowl-noodles</text><text transform="translate(178 169.24)" font-size="6" fill="#231f20" font-family="Roboto-Regular, Roboto">djembe drum</text><text transform="translate(248 169.24)" font-size="6" fill="#231f20" font-family="Roboto-Regular, Roboto">trumpet</text><text transform="translate(318 169.24)" font-size="6" fill="#231f20" font-family="Roboto-Regular, Roboto">bongo-drums</text><text transform="translate(388 169.24)" font-size="6" fill="#231f20" font-family="Roboto-Regular, Roboto">guitar</text><text transform="translate(458 169.24)" font-size="6" fill="#231f20" font-family="Roboto-Regular, Roboto">tambourine</text><text transform="translate(107.93 247.14)" font-size="6" fill="#231f20" font-family="Roboto-Regular, Roboto">ma<tspan x="8.52" y="0" letter-spacing="-0.02em">r</tspan><tspan x="10.44" y="0">acas</tspan></text></g></svg>