<svg xmlns="http://www.w3.org/2000/svg" viewBox="0 0 50 50"><g id="fa2c7ab5-4e81-4d7b-8f1a-a83ecdca099d" data-name="ICONS"><polygon points="26.62 3.95 17.84 15.81 20.7 15.81 20.7 20.05 28.94 15.06 30.79 15.06 30.79 19.43 20.7 25.55 20.7 33.38 30.79 27.27 30.79 32.76 20.81 38.81 20.7 38.81 20.7 40.56 32.54 40.56 32.54 15.81 35.4 15.81 26.62 3.95" fill="#fdd600"/><path d="M35,14.27,25.27,1.06a.52.52,0,0,0-.8,0L14.7,14.27a.49.49,0,0,0,0,.52.5.5,0,0,0,.45.27H18V39.31a.5.5,0,0,0,.5.5h5.92v4a1.89,1.89,0,0,1-1.89,1.89H21.2a.5.5,0,0,0-.5.5.5.5,0,0,0,.5.5h1.28a2.89,2.89,0,0,0,2.89-2.89v-4h5.92a.5.5,0,0,0,.5-.5V15.06h2.85a.5.5,0,0,0,.45-.27A.49.49,0,0,0,35,14.27Zm-18.95-.21L24.87,2.2l8.78,11.86Zm10.92,1L19,19.94V15.06Zm3.78,11L19,33.27V27.75s.06,0,.09,0L30.79,20.6ZM19,34.44l11.84-7.17v5.49l-10,6.05H19Zm3.79,4.37,8.05-4.88v4.88Zm8.05-19.38L19,26.6V21.11l10-6h1.85Z" fill="#231f20"/><path d="M19.19,46.17a.5.5,0,0,0-.5-.5H17.16a.5.5,0,0,0-.5.5.5.5,0,0,0,.5.5h1.53A.5.5,0,0,0,19.19,46.17Z" fill="#231f20"/><path d="M18.61,43.35a.5.5,0,0,0-.7,0,.5.5,0,0,0,0,.71L19,45.14a.5.5,0,0,0,.35.15.51.51,0,0,0,.36-.15.5.5,0,0,0,0-.7Z" fill="#231f20"/><path d="M19,47.19l-1.08,1.09a.48.48,0,0,0,0,.7.48.48,0,0,0,.7,0L19.7,47.9a.5.5,0,0,0-.71-.71Z" fill="#231f20"/></g><g id="ae34a29e-5427-4cba-87a6-52340a9a6a32" data-name="LABELS"><text transform="translate(0.11 55.07)" font-size="6" fill="#231f20" font-family="Roboto-Regular, Roboto">fi<tspan x="3.54" y="0" letter-spacing="-0.01em">r</tspan><tspan x="5.51" y="0">ework</tspan></text></g></svg>