<svg xmlns="http://www.w3.org/2000/svg" viewBox="0 0 50 50"><g id="adc5cd10-fc62-4f29-9375-9d8cd615bb45" data-name="ICONS"><path d="M17.08,16.73a1.58,1.58,0,1,0,1.58,1.58A1.58,1.58,0,0,0,17.08,16.73Z" fill="#fdd600"/><path d="M37.06,36.85a.59.59,0,0,0-.59.6.58.58,0,0,0,.59.59.59.59,0,0,0,.6-.59A.6.6,0,0,0,37.06,36.85Z" fill="#fdd600"/><path d="M16.58,15.23a2.58,2.58,0,1,0,2.58,2.58A2.59,2.59,0,0,0,16.58,15.23Zm0,4.16a1.58,1.58,0,1,1,1.58-1.58A1.58,1.58,0,0,1,16.58,19.39Z" fill="#231f20"/><path d="M16.58,12.89a.5.5,0,0,0,.5-.5V2.05a.5.5,0,0,0-1,0V12.39A.5.5,0,0,0,16.58,12.89Z" fill="#231f20"/><path d="M2.68,10.36l9,5.17a.47.47,0,0,0,.25.07.5.5,0,0,0,.25-.94L7.39,11.93h0L3.18,9.5a.5.5,0,1,0-.5.86Z" fill="#231f20"/><path d="M12.32,20.27a.51.51,0,0,0-.69-.18l-9,5.17a.5.5,0,0,0,.25.93.45.45,0,0,0,.25-.07l9-5.17A.5.5,0,0,0,12.32,20.27Z" fill="#231f20"/><path d="M16.58,22.73a.5.5,0,0,0-.5.5V33.57a.5.5,0,0,0,1,0V23.23A.5.5,0,0,0,16.58,22.73Z" fill="#231f20"/><path d="M20.84,20.27A.5.5,0,0,0,21,21l9,5.17a.45.45,0,0,0,.25.07.5.5,0,0,0,.25-.93l-8.95-5.17A.51.51,0,0,0,20.84,20.27Z" fill="#231f20"/><path d="M20.84,15.35a.51.51,0,0,0,.44.25.47.47,0,0,0,.25-.07l9-5.17A.5.5,0,0,0,30,9.5L21,14.66A.51.51,0,0,0,20.84,15.35Z" fill="#231f20"/><path d="M13.43,22.25,10.7,27a.49.49,0,0,0,.18.68.45.45,0,0,0,.25.07.5.5,0,0,0,.43-.25l2.74-4.74a.49.49,0,0,0-.18-.68A.51.51,0,0,0,13.43,22.25Z" fill="#231f20"/><path d="M19.72,22.26a.5.5,0,1,0-.86.5l2.73,4.74a.5.5,0,0,0,.43.25.45.45,0,0,0,.25-.07.5.5,0,0,0,.19-.68Z" fill="#231f20"/><path d="M22,18.31h5.48a.5.5,0,0,0,.5-.5.51.51,0,0,0-.5-.5H22a.5.5,0,0,0,0,1Z" fill="#231f20"/><path d="M19,13.55a.57.57,0,0,0,.25.06.51.51,0,0,0,.44-.25l2.74-4.74a.51.51,0,0,0-.19-.68.5.5,0,0,0-.68.18l-2.74,4.74A.51.51,0,0,0,19,13.55Z" fill="#231f20"/><path d="M13.44,13.36a.5.5,0,0,0,.43.25.45.45,0,0,0,.25-.07.49.49,0,0,0,.18-.68L11.57,8.12a.49.49,0,0,0-.68-.18.5.5,0,0,0-.19.68Z" fill="#231f20"/><path d="M11.16,17.31H5.68a.51.51,0,0,0-.5.5.5.5,0,0,0,.5.5h5.48a.51.51,0,0,0,.5-.5A.5.5,0,0,0,11.16,17.31Z" fill="#231f20"/><path d="M36.56,35.6a1.6,1.6,0,0,0,0,3.19,1.6,1.6,0,1,0,0-3.19Zm0,2.19a.59.59,0,0,1-.59-.6.58.58,0,0,1,.59-.59.59.59,0,0,1,.6.59A.6.6,0,0,1,36.56,37.79Z" fill="#231f20"/><path d="M36.56,34.77a.5.5,0,0,0,.5-.5V30.44a.5.5,0,0,0-.5-.5.51.51,0,0,0-.5.5v3.83A.5.5,0,0,0,36.56,34.77Z" fill="#231f20"/><path d="M36.56,28.61a.5.5,0,0,0,.5-.5V26.94a.5.5,0,0,0-.5-.5.51.51,0,0,0-.5.5v1.17A.5.5,0,0,0,36.56,28.61Z" fill="#231f20"/><path d="M33.79,35.74a.51.51,0,0,0,.7,0,.5.5,0,0,0,0-.71l-2.7-2.71a.51.51,0,0,0-.71,0,.5.5,0,0,0,0,.71Z" fill="#231f20"/><path d="M29.78,31.52a.46.46,0,0,0,.35-.14.5.5,0,0,0,0-.71l-.82-.82a.5.5,0,0,0-.71,0,.5.5,0,0,0,0,.7l.83.83A.46.46,0,0,0,29.78,31.52Z" fill="#231f20"/><path d="M29.06,37.45a.5.5,0,0,0,.5.5h3.83a.5.5,0,0,0,.5-.5.5.5,0,0,0-.5-.5H29.56A.5.5,0,0,0,29.06,37.45Z" fill="#231f20"/><path d="M27.23,37H26.06a.5.5,0,0,0-.5.5.5.5,0,0,0,.5.5h1.17a.51.51,0,0,0,.5-.5A.5.5,0,0,0,27.23,37Z" fill="#231f20"/><path d="M34.15,39.52l-2.71,2.71a.5.5,0,0,0,.35.85.47.47,0,0,0,.35-.15l2.71-2.71a.49.49,0,0,0-.7-.7Z" fill="#231f20"/><path d="M29.79,43.88,29,44.7a.51.51,0,0,0,0,.71.5.5,0,0,0,.35.15.51.51,0,0,0,.36-.15l.82-.83a.49.49,0,0,0-.7-.7Z" fill="#231f20"/><path d="M36.56,40.12a.5.5,0,0,0-.5.5v3.83a.5.5,0,0,0,.5.5.5.5,0,0,0,.5-.5V40.62A.5.5,0,0,0,36.56,40.12Z" fill="#231f20"/><path d="M36.56,46.28a.51.51,0,0,0-.5.5V48a.5.5,0,0,0,.5.5.5.5,0,0,0,.5-.5V46.78A.5.5,0,0,0,36.56,46.28Z" fill="#231f20"/><path d="M39.34,39.16a.5.5,0,0,0-.71,0,.5.5,0,0,0,0,.7l2.71,2.71a.51.51,0,0,0,.36.15.5.5,0,0,0,.35-.85Z" fill="#231f20"/><path d="M43.7,43.52a.5.5,0,0,0-.71,0,.5.5,0,0,0,0,.7l.83.83a.49.49,0,0,0,.35.15.51.51,0,0,0,.36-.15.51.51,0,0,0,0-.71Z" fill="#231f20"/><path d="M39.24,37.45a.5.5,0,0,0,.5.5h3.83a.51.51,0,0,0,.5-.5.5.5,0,0,0-.5-.5H39.74A.5.5,0,0,0,39.24,37.45Z" fill="#231f20"/><path d="M47.07,37H45.9a.5.5,0,0,0-.5.5.5.5,0,0,0,.5.5h1.17a.5.5,0,0,0,.5-.5A.5.5,0,0,0,47.07,37Z" fill="#231f20"/><path d="M39,35.38l2.71-2.71A.5.5,0,0,0,41,32l-2.71,2.71a.51.51,0,0,0,0,.71.5.5,0,0,0,.36.14A.49.49,0,0,0,39,35.38Z" fill="#231f20"/><path d="M43.34,31l.83-.83a.5.5,0,0,0,0-.7.5.5,0,0,0-.71,0l-.83.82a.51.51,0,0,0,0,.71.5.5,0,0,0,.36.14A.49.49,0,0,0,43.34,31Z" fill="#231f20"/></g><g id="ac138a98-4fa4-4a60-b783-4b2ed1c5af82" data-name="LABELS"><text transform="translate(-0.19 54.94)" font-size="6" fill="#231f20" font-family="Roboto-Regular, Roboto">fi<tspan x="3.54" y="0" letter-spacing="-0.01em">r</tspan><tspan x="5.51" y="0">eworks</tspan></text></g></svg>