<svg xmlns="http://www.w3.org/2000/svg" viewBox="0 0 612 792"><g id="bc76d94e-5bf3-4495-93f0-fc526d631045" data-name="ICONS"><path d="M275.83,190.93a22.88,22.88,0,1,0,22.88,22.88A22.91,22.91,0,0,0,275.83,190.93Zm11.57,23.7h-9.72a.5.5,0,0,0-.5.5v11.05h-6.79V215.13a.5.5,0,0,0-.5-.5h-9.75v-6.39h9.75a.5.5,0,0,0,.5-.5V197.17h6.79v10.57a.5.5,0,0,0,.5.5h9.72Z" fill="#fdd600"/><path d="M287.9,207.24h-9.72V196.67a.51.51,0,0,0-.5-.5h-7.79a.5.5,0,0,0-.5.5v10.57h-9.75a.5.5,0,0,0-.5.5v7.39a.5.5,0,0,0,.5.5h9.75v11.05a.5.5,0,0,0,.5.5h7.79a.5.5,0,0,0,.5-.5V215.63h9.72a.5.5,0,0,0,.5-.5v-7.39A.51.51,0,0,0,287.9,207.24Zm-.5,7.39h-9.72a.5.5,0,0,0-.5.5v11.05h-6.79V215.13a.5.5,0,0,0-.5-.5h-9.75v-6.39h9.75a.5.5,0,0,0,.5-.5V197.17h6.79v10.57a.5.5,0,0,0,.5.5h9.72Z" fill="#231f20"/><path d="M274.08,188.18A23.88,23.88,0,1,0,298,212.06,23.9,23.9,0,0,0,274.08,188.18Zm0,46.76A22.88,22.88,0,1,1,297,212.06,22.91,22.91,0,0,1,274.08,234.94Z" fill="#231f20"/><path d="M219.35,197h-.75v1.37h.76a.75.75,0,0,0,.54-.18.65.65,0,0,0,.2-.5.72.72,0,0,0-.18-.51A.8.8,0,0,0,219.35,197Z" fill="#231f20"/><polygon points="214.52 199.07 215.66 199.07 215.09 197.36 214.52 199.07" fill="#231f20"/><path d="M224.1,191.31h-37a4,4,0,0,0-4,4v37a4,4,0,0,0,4,4h37a4,4,0,0,0,4-4v-37A4,4,0,0,0,224.1,191.31Zm-9.55,29.74h-6.83a.5.5,0,0,0-.5.5v6.83h-6.47v-6.83a.51.51,0,0,0-.5-.5h-6.83v-6.47h6.83a.5.5,0,0,0,.5-.5v-6.83h6.47v6.83a.5.5,0,0,0,.5.5h6.83Z" fill="#fdd600"/><path d="M185.53,199.24q0,.84-.81.84a.8.8,0,0,1-.59-.21.82.82,0,0,1-.22-.65v-3H183v3a1.53,1.53,0,0,0,.48,1.16,1.85,1.85,0,0,0,1.27.42,1.8,1.8,0,0,0,1.28-.43,1.56,1.56,0,0,0,.47-1.19v-3h-.94Z" fill="#231f20"/><path d="M190.42,198.36a1.32,1.32,0,0,0,.2-.77,1.22,1.22,0,0,0-.44-1,1.89,1.89,0,0,0-1.24-.36h-1.7v4.56h.94V199.1h.75l.86,1.67h1v0l-1-1.87A1.34,1.34,0,0,0,190.42,198.36Zm-.93-.2a.78.78,0,0,1-.55.18h-.76V197h.76a.77.77,0,0,1,.56.18.72.72,0,0,1,.18.51A.65.65,0,0,1,189.49,198.16Z" fill="#231f20"/><path d="M194.23,200.67a1.66,1.66,0,0,0,.72-.48v-1.82h-1.8v.7H194v.78a1.06,1.06,0,0,1-.76.23.92.92,0,0,1-.8-.37,1.79,1.79,0,0,1-.27-1.08v-.29a2,2,0,0,1,.25-1.08.84.84,0,0,1,.73-.36.89.89,0,0,1,.59.18.91.91,0,0,1,.28.58H195a1.71,1.71,0,0,0-.54-1.13,2.17,2.17,0,0,0-2.29-.12,1.78,1.78,0,0,0-.67.76,2.9,2.9,0,0,0-.23,1.19v.31a2.71,2.71,0,0,0,.25,1.15,1.8,1.8,0,0,0,.69.75,2,2,0,0,0,1,.26A3.05,3.05,0,0,0,194.23,200.67Z" fill="#231f20"/><polygon points="198.77 200.01 196.65 200.01 196.65 198.79 198.45 198.79 198.45 198.06 196.65 198.06 196.65 196.97 198.76 196.97 198.76 196.21 195.71 196.21 195.71 200.77 198.77 200.77 198.77 200.01" fill="#231f20"/><polygon points="200.26 197.77 202.09 200.77 203.03 200.77 203.03 196.21 202.09 196.21 202.09 199.22 200.26 196.21 199.32 196.21 199.32 200.77 200.26 200.77 200.26 197.77" fill="#231f20"/><polygon points="204.86 200.77 205.8 200.77 205.8 196.97 207.19 196.97 207.19 196.21 203.48 196.21 203.48 196.97 204.86 196.97 204.86 200.77" fill="#231f20"/><path d="M210.89,200.83a1.93,1.93,0,0,0,1.29-.42,1.58,1.58,0,0,0,.54-1.16h-.94a.93.93,0,0,1-.24.62,1,1,0,0,1-.65.2.78.78,0,0,1-.71-.35,2,2,0,0,1-.22-1.08v-.34a2,2,0,0,1,.23-1.05.81.81,0,0,1,.71-.33.91.91,0,0,1,.64.19,1,1,0,0,1,.25.65h.94a1.74,1.74,0,0,0-.56-1.19,1.88,1.88,0,0,0-1.27-.43,1.82,1.82,0,0,0-1,.27,1.8,1.8,0,0,0-.67.77,2.82,2.82,0,0,0-.23,1.16v.28a2.38,2.38,0,0,0,.51,1.62A1.68,1.68,0,0,0,210.89,200.83Z" fill="#231f20"/><path d="M214.65,196.21l-1.7,4.56h1l.32-.94h1.65l.31.94h1l-1.71-4.56Zm-.13,2.86.57-1.71.57,1.71Z" fill="#231f20"/><path d="M220.84,198.36a1.4,1.4,0,0,0,.2-.77,1.25,1.25,0,0,0-.44-1,1.92,1.92,0,0,0-1.25-.36h-1.69v4.56h.94V199.1h.75l.85,1.67h1v0l-1-1.87A1.37,1.37,0,0,0,220.84,198.36Zm-.94-.2a.75.75,0,0,1-.54.18h-.76V197h.75a.8.8,0,0,1,.57.18.72.72,0,0,1,.18.51A.65.65,0,0,1,219.9,198.16Z" fill="#231f20"/><polygon points="222.69 198.79 224.5 198.79 224.5 198.06 222.69 198.06 222.69 196.97 224.81 196.97 224.81 196.21 221.75 196.21 221.75 200.77 224.81 200.77 224.81 200.01 222.69 200.01 222.69 198.79" fill="#231f20"/><path d="M222.35,188.56h-37a5,5,0,0,0-5,5v37a5,5,0,0,0,5,5h37a5,5,0,0,0,5-5v-37A5,5,0,0,0,222.35,188.56Zm4,42a4,4,0,0,1-4,4h-37a4,4,0,0,1-4-4v-37a4,4,0,0,1,4-4h37a4,4,0,0,1,4,4Z" fill="#231f20"/><path d="M215.05,213.58h-6.83v-6.83a.5.5,0,0,0-.5-.5h-7.47a.5.5,0,0,0-.5.5v6.83h-6.83a.5.5,0,0,0-.5.5v7.47a.5.5,0,0,0,.5.5h6.83v6.83a.5.5,0,0,0,.5.5h7.47a.5.5,0,0,0,.5-.5v-6.83h6.83a.5.5,0,0,0,.5-.5v-7.47A.5.5,0,0,0,215.05,213.58Zm-.5,7.47h-6.83a.5.5,0,0,0-.5.5v6.83h-6.47v-6.83a.51.51,0,0,0-.5-.5h-6.83v-6.47h6.83a.5.5,0,0,0,.5-.5v-6.83h6.47v6.83a.5.5,0,0,0,.5.5h6.83Z" fill="#231f20"/><path d="M146.3,196.13h-.76v1.38h.77a.79.79,0,0,0,.55-.18.68.68,0,0,0,.2-.51.73.73,0,0,0-.19-.51A.78.78,0,0,0,146.3,196.13Z" fill="#231f20"/><path d="M154.82,190.4H117.47a4,4,0,0,0-4,4v37.35a4,4,0,0,0,4,4h37.35a4,4,0,0,0,4-4V194.43A4,4,0,0,0,154.82,190.4Zm-9.62,30h-6.89a.5.5,0,0,0-.5.5v6.9h-6.54v-6.9a.51.51,0,0,0-.5-.5h-6.9v-6.54h6.9a.5.5,0,0,0,.5-.5V206.5h6.54v6.89a.5.5,0,0,0,.5.5h6.89Z" fill="#fdd600"/><path d="M120,195.57a1.9,1.9,0,0,0-1-.28,2,2,0,0,0-1,.28,1.78,1.78,0,0,0-.69.79,2.71,2.71,0,0,0-.25,1.2v.23a2.72,2.72,0,0,0,.25,1.17,1.86,1.86,0,0,0,.7.79,1.94,1.94,0,0,0,1,.27l.35,0,1,.78.6-.53-.76-.6a2,2,0,0,0,.57-.77,2.73,2.73,0,0,0,.21-1.12v-.2a2.86,2.86,0,0,0-.24-1.2A1.86,1.86,0,0,0,120,195.57Zm0,2.21a1.93,1.93,0,0,1-.26,1.09.83.83,0,0,1-.73.38.84.84,0,0,1-.75-.39,2,2,0,0,1-.26-1.1v-.22a1.85,1.85,0,0,1,.27-1.09.82.82,0,0,1,.73-.37.84.84,0,0,1,.74.37,2,2,0,0,1,.26,1.1Z" fill="#231f20"/><path d="M124.61,199.58a1.56,1.56,0,0,0,.47-1.19v-3h-1v3.06q0,.84-.81.84a.85.85,0,0,1-.6-.2.86.86,0,0,1-.22-.66v-3h-1v3.06a1.55,1.55,0,0,0,.49,1.18,1.85,1.85,0,0,0,1.28.42A1.81,1.81,0,0,0,124.61,199.58Z" fill="#231f20"/><rect x="125.92" y="195.36" width="0.95" height="4.6" fill="#231f20"/><path d="M129.51,200a1.93,1.93,0,0,0,1.3-.42,1.63,1.63,0,0,0,.55-1.17h-1a.91.91,0,0,1-.24.62,1,1,0,0,1-.66.2.78.78,0,0,1-.71-.35,2,2,0,0,1-.23-1.09v-.34a1.87,1.87,0,0,1,.24-1.06.83.83,0,0,1,.71-.34.94.94,0,0,1,.65.2,1,1,0,0,1,.25.65h1a1.77,1.77,0,0,0-.56-1.2,1.93,1.93,0,0,0-1.29-.43,1.88,1.88,0,0,0-1,.27,1.77,1.77,0,0,0-.67.78,2.87,2.87,0,0,0-.23,1.17v.28a2.44,2.44,0,0,0,.51,1.64A1.7,1.7,0,0,0,129.51,200Z" fill="#231f20"/><polygon points="132.93 198.65 133.43 198.11 134.61 199.96 135.74 199.96 134.06 197.4 135.69 195.36 134.52 195.36 133.35 196.87 132.93 197.44 132.93 195.36 131.99 195.36 131.99 199.96 132.93 199.96 132.93 198.65" fill="#231f20"/><path d="M137.76,200a1.93,1.93,0,0,0,1.3-.42,1.63,1.63,0,0,0,.55-1.17h-1a.91.91,0,0,1-.24.62,1,1,0,0,1-.66.2.78.78,0,0,1-.71-.35,2,2,0,0,1-.23-1.09v-.34a1.87,1.87,0,0,1,.24-1.06.83.83,0,0,1,.71-.34.94.94,0,0,1,.65.2,1,1,0,0,1,.25.65h1a1.77,1.77,0,0,0-.56-1.2,1.93,1.93,0,0,0-1.29-.43,1.88,1.88,0,0,0-1,.27,1.77,1.77,0,0,0-.67.78,2.87,2.87,0,0,0-.23,1.17v.28a2.44,2.44,0,0,0,.51,1.64A1.7,1.7,0,0,0,137.76,200Z" fill="#231f20"/><path d="M141.17,199h1.66l.32,1h1l-1.72-4.6h-.88l-1.71,4.6h1Zm.83-2.49.58,1.72h-1.15Z" fill="#231f20"/><path d="M147.8,197.53a1.37,1.37,0,0,0,.2-.78,1.24,1.24,0,0,0-.44-1,1.93,1.93,0,0,0-1.26-.36h-1.71V200h.95v-1.68h.76l.86,1.68h1v0l-1-1.88A1.45,1.45,0,0,0,147.8,197.53Zm-.94-.2a.79.79,0,0,1-.55.18h-.77v-1.38h.76a.78.78,0,0,1,.57.18.73.73,0,0,1,.19.51A.68.68,0,0,1,146.86,197.33Z" fill="#231f20"/><polygon points="149.67 197.97 151.5 197.97 151.5 197.22 149.67 197.22 149.67 196.13 151.81 196.13 151.81 195.36 148.72 195.36 148.72 199.96 151.81 199.96 151.81 199.2 149.67 199.2 149.67 197.97" fill="#231f20"/><path d="M153.07,187.65H115.72a5,5,0,0,0-5,5V230a5,5,0,0,0,5,5h37.35a5,5,0,0,0,5-5V192.68A5,5,0,0,0,153.07,187.65Zm4,42.38a4,4,0,0,1-4,4H115.72a4,4,0,0,1-4-4V192.68a4,4,0,0,1,4-4h37.35a4,4,0,0,1,4,4Z" fill="#231f20"/><path d="M145.7,212.89h-6.89V206a.5.5,0,0,0-.5-.5h-7.54a.5.5,0,0,0-.5.5v6.89h-6.9a.5.5,0,0,0-.5.5v7.54a.5.5,0,0,0,.5.5h6.9v6.9a.5.5,0,0,0,.5.5h7.54a.51.51,0,0,0,.5-.5v-6.9h6.89a.5.5,0,0,0,.5-.5v-7.54A.5.5,0,0,0,145.7,212.89Zm-.5,7.54h-6.89a.5.5,0,0,0-.5.5v6.9h-6.54v-6.9a.51.51,0,0,0-.5-.5h-6.9v-6.54h6.9a.5.5,0,0,0,.5-.5V206.5h6.54v6.89a.5.5,0,0,0,.5.5h6.89Z" fill="#231f20"/><path d="M493.59,118.46,463,139.79,477.08,160l30.6-21.34,1.4-16Zm9.83,7a2,2,0,0,1-.86,1.34h0a2,2,0,0,1-1.56.34,2,2,0,0,1-1.34-.86,2.08,2.08,0,0,1,1.71-3.27,2.08,2.08,0,0,1,1.71.89A2,2,0,0,1,503.42,125.44Z" fill="#fdd600"/><path d="M508,120.06l-16.11-4.38a.52.52,0,0,0-.42.07l-31.19,21.76a.51.51,0,0,0-.13.7l14.66,21a.49.49,0,0,0,.41.21.52.52,0,0,0,.29-.09l31.19-21.75a.51.51,0,0,0,.21-.37l1.46-16.63A.49.49,0,0,0,508,120.06Zm-2.06,16.84-30.6,21.34L461.25,138l30.59-21.33,15.49,4.2Z" fill="#231f20"/><path d="M500.83,128.11a3.29,3.29,0,0,0,.54,0,3.07,3.07,0,0,0,1.77-.56,3.09,3.09,0,1,0-2.31.51Zm-1.51-3.41a2,2,0,0,1,.86-1.34,2.08,2.08,0,0,1,3.24,2.08,2,2,0,0,1-.86,1.34h0a2,2,0,0,1-1.56.34,2,2,0,0,1-1.34-.86A2,2,0,0,1,499.32,124.7Z" fill="#231f20"/><polygon points="469.93 144.66 467.57 141.28 466.74 141.86 469.56 145.91 472.17 144.1 471.7 143.43 469.93 144.66" fill="#231f20"/><path d="M474.41,139.66l-.13-.18a2.86,2.86,0,0,0-.94-.9,2,2,0,0,0-1.1-.27,2.16,2.16,0,0,0-1.8,1.25,2,2,0,0,0-.12,1.13,2.86,2.86,0,0,0,.52,1.2l.14.2a2.79,2.79,0,0,0,.94.88,1.86,1.86,0,0,0,1.09.26,2.15,2.15,0,0,0,1.8-1.26,1.89,1.89,0,0,0,.12-1.11A3,3,0,0,0,474.41,139.66Zm-.81,2.5a.9.9,0,0,1-.89.12,2,2,0,0,1-.9-.8l-.14-.2a2.08,2.08,0,0,1-.44-1.12.92.92,0,0,1,.42-.78.91.91,0,0,1,.88-.12,2,2,0,0,1,.91.81l.13.2a2.16,2.16,0,0,1,.45,1.12A.89.89,0,0,1,473.6,142.16Z" fill="#231f20"/><path d="M477.37,139.57c-.53.37-1,.34-1.27-.11l-.83.58a1.38,1.38,0,0,0,.68.55,1.54,1.54,0,0,0,.91.06,2.37,2.37,0,0,0,1-.42,2.05,2.05,0,0,0,.86-1,1.18,1.18,0,0,0-.17-1.1,1.32,1.32,0,0,0-.88-.56,3.08,3.08,0,0,0-1.41.19,2.65,2.65,0,0,1-.76.16.49.49,0,0,1-.43-.19.51.51,0,0,1-.07-.46,1,1,0,0,1,.39-.46.87.87,0,0,1,.6-.19.65.65,0,0,1,.48.31l.83-.58a1.34,1.34,0,0,0-.64-.52,1.49,1.49,0,0,0-.84-.08,2.19,2.19,0,0,0-.88.38,2.47,2.47,0,0,0-.68.69,1.59,1.59,0,0,0-.25.77,1.19,1.19,0,0,0,.23.72,1.36,1.36,0,0,0,1.39.52,5.45,5.45,0,0,0,.88-.2,2.44,2.44,0,0,1,.78-.15.49.49,0,0,1,.42.24.48.48,0,0,1,.07.46A1,1,0,0,1,477.37,139.57Z" fill="#231f20"/><polygon points="478.41 134.73 480.76 138.11 481.59 137.52 479.24 134.15 480.48 133.28 480.01 132.61 476.71 134.91 477.18 135.59 478.41 134.73" fill="#231f20"/><path d="M485,135.13l-.31-1,1.47-1,.86.64.89-.62-4.34-3-.78.54,1.32,5.1Zm.46-2.57-1,.71-.56-1.87Z" fill="#231f20"/><polygon points="489.11 132.28 487.25 129.62 490.73 131.15 491.57 130.57 488.74 126.52 487.91 127.1 489.77 129.77 486.29 128.23 485.45 128.81 488.27 132.86 489.11 132.28" fill="#231f20"/><path d="M490.68,125.17l-1.25.87,2.83,4,1.25-.88a2.26,2.26,0,0,0,.78-.91,2.12,2.12,0,0,0,.19-1.14A2.57,2.57,0,0,0,494,126l-.13-.19a2.57,2.57,0,0,0-.94-.84,2.08,2.08,0,0,0-1.14-.23A2.36,2.36,0,0,0,490.68,125.17Zm1.44.47a1.8,1.8,0,0,1,.91.76l.15.21a1.74,1.74,0,0,1,.37,1.1,1.1,1.1,0,0,1-.52.84l-.41.28-1.88-2.7.41-.29A1.11,1.11,0,0,1,492.12,125.64Z" fill="#231f20"/><polygon points="478.93 145.6 477.33 146.71 476.6 145.67 478.4 144.41 477.93 143.74 475.29 145.57 478.12 149.63 478.95 149.04 477.8 147.39 479.4 146.27 478.93 145.6" fill="#231f20"/><path d="M483.18,143.22l-.13-.18a3.1,3.1,0,0,0-.95-.9,2,2,0,0,0-1.09-.27,2.16,2.16,0,0,0-1.8,1.25,2,2,0,0,0-.12,1.13,3,3,0,0,0,.51,1.2l.14.2a3,3,0,0,0,.94.88,2,2,0,0,0,1.1.27,2.22,2.22,0,0,0,1.07-.39,2.16,2.16,0,0,0,.73-.87,1.93,1.93,0,0,0,.12-1.12A3,3,0,0,0,483.18,143.22Zm-.81,2.51a.92.92,0,0,1-.9.11,2.12,2.12,0,0,1-.9-.8l-.13-.2a2,2,0,0,1-.44-1.12.92.92,0,0,1,.42-.78.93.93,0,0,1,.88-.12,2,2,0,0,1,.9.81l.14.2a2.05,2.05,0,0,1,.44,1.12A.89.89,0,0,1,482.37,145.73Z" fill="#231f20"/><path d="M485.33,138.57l-.83.59,1.88,2.69a.8.8,0,0,1-.2,1.24.92.92,0,0,1-.66.19,1,1,0,0,1-.59-.45l-1.87-2.67-.83.58,1.88,2.7a1.61,1.61,0,0,0,1.15.73,1.94,1.94,0,0,0,1.38-.41,2,2,0,0,0,.87-1.18,1.65,1.65,0,0,0-.32-1.34Z" fill="#231f20"/><polygon points="488.44 136.41 490.3 139.08 486.81 137.54 485.98 138.12 488.8 142.17 489.64 141.59 487.78 138.93 491.26 140.46 492.1 139.88 489.27 135.83 488.44 136.41" fill="#231f20"/><path d="M493.46,134.28a2,2,0,0,0-1.13-.23,2.32,2.32,0,0,0-1.12.43l-1.25.87,2.82,4.05,1.26-.88a2.34,2.34,0,0,0,.78-.91,2,2,0,0,0,.18-1.14,2.46,2.46,0,0,0-.47-1.16l-.13-.19A2.42,2.42,0,0,0,493.46,134.28Zm.09,3.58-.4.28-1.88-2.7.41-.29a1.11,1.11,0,0,1,1-.2,1.8,1.8,0,0,1,.91.76l.15.21a1.81,1.81,0,0,1,.37,1.1A1.08,1.08,0,0,1,493.55,137.86Z" fill="#231f20"/><path d="M120.78,130.29v-2.61h-3.24v2.62a.54.54,0,0,1-.14.36.52.52,0,0,1-.36.14h-2.53V134h2.55a.5.5,0,0,1,.35.14.49.49,0,0,1,.15.36v2.56h3.22v-2.56a.51.51,0,0,1,.5-.5h2.62V130.8h-2.62A.5.5,0,0,1,120.78,130.29Z" fill="none"/><path d="M112.75,125.8v19.53H156.6v1.81H112.75v5.65h45.6v-27ZM123.9,134h-2.62a.51.51,0,0,0-.5.5v2.56h-3.22v-2.56a.49.49,0,0,0-.15-.36.5.5,0,0,0-.35-.14h-2.55V130.8h2.53a.52.52,0,0,0,.36-.14.54.54,0,0,0,.14-.36v-2.62h3.24v2.61a.5.5,0,0,0,.5.5h2.62Z" fill="#fdd600"/><path d="M157.1,123.05H110.5a.5.5,0,0,0-.5.5v28a.5.5,0,0,0,.5.5h46.6a.5.5,0,0,0,.5-.5v-28A.5.5,0,0,0,157.1,123.05Zm-.5,28H111v-2.9h45.6Zm0-3.9H111v-1.81h45.6Zm0-2.81H111V124.05h45.6Z" fill="#231f20"/><path d="M114,135h2.55v2.56a.5.5,0,0,0,.5.5h4.22a.5.5,0,0,0,.5-.5V135h2.62a.5.5,0,0,0,.5-.5V130.3a.5.5,0,0,0-.5-.5h-2.62v-2.61a.5.5,0,0,0-.5-.5H117a.51.51,0,0,0-.36.15.5.5,0,0,0-.14.35v2.62H114a.5.5,0,0,0-.35.14.49.49,0,0,0-.15.36v4.22a.53.53,0,0,0,.15.36A.48.48,0,0,0,114,135Zm.51-4.22h2.53a.52.52,0,0,0,.36-.14.54.54,0,0,0,.14-.36v-2.62h3.24v2.61a.5.5,0,0,0,.5.5h2.62V134h-2.62a.51.51,0,0,0-.5.5v2.56h-3.22v-2.56a.49.49,0,0,0-.15-.36.5.5,0,0,0-.35-.14h-2.55Z" fill="#231f20"/><path d="M132,129.46h21.32a.5.5,0,0,0,.5-.5.5.5,0,0,0-.5-.5H132a.5.5,0,0,0-.5.5A.51.51,0,0,0,132,129.46Z" fill="#231f20"/><path d="M131.74,134.2h21.32a.51.51,0,0,0,.5-.5.5.5,0,0,0-.5-.5H131.74a.5.5,0,0,0-.5.5A.5.5,0,0,0,131.74,134.2Z" fill="#231f20"/><path d="M217.76,140.12A9.52,9.52,0,0,1,225.4,144V121.09H183.22v33.52h26.36a9.55,9.55,0,0,1,8.18-14.49Z" fill="#fdd600"/><path d="M218,149.44v-5.28a.51.51,0,0,0-.5-.5.5.5,0,0,0-.5.5v5.49a.5.5,0,0,0,.14.35l4.24,4.24a.51.51,0,0,0,.36.15.5.5,0,0,0,.35-.15.48.48,0,0,0,0-.7Z" fill="#fdd600"/><path d="M224.64,141.69V118.84a.5.5,0,0,0-.5-.5h-6.45V117a2.16,2.16,0,0,0-4.31,0v1.33H192.13V117a2.16,2.16,0,0,0-4.31,0v1.33H181a.5.5,0,0,0-.5.5v34.52a.51.51,0,0,0,.5.5h27.09a10.56,10.56,0,1,0,16.58-12.17Zm-6.88,17.55a9.56,9.56,0,1,1,9.56-9.56A9.57,9.57,0,0,1,217.76,159.24Zm-2.22-43.38a1.16,1.16,0,0,1,1.15,1.15v2.42a1.16,1.16,0,1,1-2.31,0V117A1.16,1.16,0,0,1,215.54,115.86Zm-25.56,0a1.16,1.16,0,0,1,1.15,1.15v2.42a1.16,1.16,0,1,1-2.31,0V117A1.16,1.16,0,0,1,190,115.86Zm-2.16,3.48v.09a2.16,2.16,0,1,0,4.31,0v-.09h21.25v.09a2.16,2.16,0,1,0,4.31,0v-.09h5.95v5.21H181.47v-5.21Zm-6.35,33.52V125.55h42.17v15.37a10.42,10.42,0,0,0-5.88-1.8,10.56,10.56,0,0,0-10.07,13.74Z" fill="#231f20"/><path d="M222.1,153.54l-4.09-4.1v-5.28a.51.51,0,0,0-.5-.5.5.5,0,0,0-.5.5v5.49a.5.5,0,0,0,.14.35l4.24,4.24a.51.51,0,0,0,.36.15.5.5,0,0,0,.35-.15A.48.48,0,0,0,222.1,153.54Z" fill="#231f20"/><path d="M273.1,129.15a.51.51,0,0,0-.71,0,.5.5,0,0,0,0,.71l1.13,1.13a.49.49,0,0,0,.35.15.51.51,0,0,0,.36-.15.51.51,0,0,0,0-.71Z" fill="#fdd600"/><path d="M280.78,146.82a.51.51,0,0,0-.5.5v1.6a.5.5,0,0,0,.5.5.5.5,0,0,0,.5-.5v-1.6A.5.5,0,0,0,280.78,146.82Z" fill="#fdd600"/><path d="M280.78,128.27a.5.5,0,0,0,.5-.5v-1.6a.5.5,0,0,0-.5-.5.51.51,0,0,0-.5.5v1.6A.5.5,0,0,0,280.78,128.27Z" fill="#fdd600"/><path d="M271,137.05h-1.6a.5.5,0,0,0-.5.5.5.5,0,0,0,.5.5H271a.5.5,0,0,0,.5-.5A.5.5,0,0,0,271,137.05Z" fill="#fdd600"/><path d="M273.52,144.11l-1.13,1.13a.5.5,0,0,0,.35.85.51.51,0,0,0,.36-.15l1.13-1.13a.5.5,0,0,0,0-.7A.5.5,0,0,0,273.52,144.11Z" fill="#fdd600"/><path d="M282.53,123.12a16.18,16.18,0,1,0,16.18,16.18A16.19,16.19,0,0,0,282.53,123.12Zm-1.75,27.26a12.83,12.83,0,1,1,12.83-12.83A12.85,12.85,0,0,1,280.78,150.38Z" fill="#fdd600"/><path d="M290.56,138.05h1.6a.51.51,0,0,0,.5-.5.5.5,0,0,0-.5-.5h-1.6a.5.5,0,0,0-.5.5A.5.5,0,0,0,290.56,138.05Z" fill="#fdd600"/><path d="M288.05,144.11a.5.5,0,0,0-.71,0,.5.5,0,0,0,0,.7l1.13,1.13a.51.51,0,0,0,.36.15.5.5,0,0,0,.35-.15.48.48,0,0,0,0-.7Z" fill="#fdd600"/><path d="M288.47,129.15l-1.13,1.13a.51.51,0,0,0,0,.71.51.51,0,0,0,.36.15.5.5,0,0,0,.35-.15l1.13-1.13a.5.5,0,0,0,0-.71A.51.51,0,0,0,288.47,129.15Z" fill="#fdd600"/><circle cx="281.56" cy="138.05" r="1.1" fill="#fdd600"/><path d="M280.78,120.37A17.18,17.18,0,1,0,298,137.55,17.19,17.19,0,0,0,280.78,120.37Zm0,33.36A16.18,16.18,0,1,1,297,137.55,16.19,16.19,0,0,1,280.78,153.73Z" fill="#231f20"/><path d="M280.78,123.72a13.83,13.83,0,1,0,13.83,13.83A13.85,13.85,0,0,0,280.78,123.72Zm0,26.66a12.83,12.83,0,1,1,12.83-12.83A12.85,12.85,0,0,1,280.78,150.38Z" fill="#231f20"/><path d="M280.78,128.27a.5.5,0,0,0,.5-.5v-1.6a.5.5,0,0,0-.5-.5.51.51,0,0,0-.5.5v1.6A.5.5,0,0,0,280.78,128.27Z" fill="#231f20"/><path d="M273.1,129.15a.51.51,0,0,0-.71,0,.5.5,0,0,0,0,.71l1.13,1.13a.49.49,0,0,0,.35.15.51.51,0,0,0,.36-.15.51.51,0,0,0,0-.71Z" fill="#231f20"/><path d="M271,137.05h-1.6a.5.5,0,0,0-.5.5.5.5,0,0,0,.5.5H271a.5.5,0,0,0,.5-.5A.5.5,0,0,0,271,137.05Z" fill="#231f20"/><path d="M273.52,144.11l-1.13,1.13a.5.5,0,0,0,.35.85.51.51,0,0,0,.36-.15l1.13-1.13a.5.5,0,0,0,0-.7A.5.5,0,0,0,273.52,144.11Z" fill="#231f20"/><path d="M280.78,146.82a.51.51,0,0,0-.5.5v1.6a.5.5,0,0,0,.5.5.5.5,0,0,0,.5-.5v-1.6A.5.5,0,0,0,280.78,146.82Z" fill="#231f20"/><path d="M288.05,144.11a.5.5,0,0,0-.71,0,.5.5,0,0,0,0,.7l1.13,1.13a.51.51,0,0,0,.36.15.5.5,0,0,0,.35-.15.48.48,0,0,0,0-.7Z" fill="#231f20"/><path d="M292.16,137.05h-1.6a.5.5,0,0,0-.5.5.5.5,0,0,0,.5.5h1.6a.51.51,0,0,0,.5-.5A.5.5,0,0,0,292.16,137.05Z" fill="#231f20"/><path d="M288.47,129.15l-1.13,1.13a.51.51,0,0,0,0,.71.51.51,0,0,0,.36.15.5.5,0,0,0,.35-.15l1.13-1.13a.5.5,0,0,0,0-.71A.51.51,0,0,0,288.47,129.15Z" fill="#231f20"/><path d="M282.56,138.66a2.12,2.12,0,0,0,.32-1.11,2.08,2.08,0,0,0-1.6-2V131a.5.5,0,0,0-.5-.5h0a.51.51,0,0,0-.5.5v4.53a2.1,2.1,0,0,0,.5,4.13,2.11,2.11,0,0,0,1.06-.3l2.13,2a.46.46,0,0,0,.33.13.49.49,0,0,0,.37-.16.5.5,0,0,0,0-.71Zm-2.87-1.11a1.1,1.1,0,1,1,1.09,1.1A1.09,1.09,0,0,1,279.69,137.55Z" fill="#231f20"/><path d="M263.57,131.92a1.27,1.27,0,0,0,.36-.89V125.8a1.25,1.25,0,0,0-.29-.83.79.79,0,0,0-.6-.31c-1.66,0-3.54,0-3.77.08a5.71,5.71,0,0,0-2.81,1.89,7.53,7.53,0,0,0-1.59,3.42,41.76,41.76,0,0,0-.31,19.3,8.42,8.42,0,0,0,1.89,3.79,6.58,6.58,0,0,0,2.88,1.91c.17,0,2.05,0,3.71.07a.79.79,0,0,0,.6-.31,1.27,1.27,0,0,0,.29-.83V148.6a.88.88,0,0,0-.3-.63.9.9,0,0,0-.48-.2H260a.49.49,0,0,1-.49-.42,44.54,44.54,0,0,1,.09-14.65.5.5,0,0,1,.49-.41l2.76,0A1.17,1.17,0,0,0,263.57,131.92Z" fill="#fdd600"/><path d="M261.13,131.5h0a2.18,2.18,0,0,0,2-2.23v-5.22a2.29,2.29,0,0,0-.53-1.48,1.76,1.76,0,0,0-1.37-.66,28.71,28.71,0,0,0-4,.11,6.74,6.74,0,0,0-3.35,2.21,8.55,8.55,0,0,0-1.8,3.85,42.87,42.87,0,0,0-.31,19.73,9.48,9.48,0,0,0,2.12,4.24,7.35,7.35,0,0,0,3.3,2.19,23.92,23.92,0,0,0,4,.13,1.78,1.78,0,0,0,1.36-.66,2.3,2.3,0,0,0,.53-1.49v-5.39a2,2,0,0,0-.65-1.37,1.94,1.94,0,0,0-1.09-.44h-2.76a43.28,43.28,0,0,1-.48-6.92,42.41,42.41,0,0,1,.57-6.56Zm-3.28-.56a44.54,44.54,0,0,0-.09,14.65.49.49,0,0,0,.49.42h3.15a.9.9,0,0,1,.48.2.88.88,0,0,1,.3.63v5.38a1.27,1.27,0,0,1-.29.83.79.79,0,0,1-.6.31c-1.66,0-3.54-.05-3.71-.07a6.58,6.58,0,0,1-2.88-1.91,8.42,8.42,0,0,1-1.89-3.79,41.76,41.76,0,0,1,.31-19.3,7.53,7.53,0,0,1,1.59-3.42,5.71,5.71,0,0,1,2.81-1.89c.23,0,2.11-.06,3.77-.08a.79.79,0,0,1,.6.31,1.25,1.25,0,0,1,.29.83v5.23a1.27,1.27,0,0,1-.36.89,1.17,1.17,0,0,1-.72.33l-2.76,0A.5.5,0,0,0,257.85,130.94Z" fill="#231f20"/><path d="M409.54,116.32v29.4a.51.51,0,0,0,.3-.47v-2.79l8.29,5.23-8.29,5.24v-2.8a.51.51,0,0,0-.3-.46v11.86h21.9V116.32ZM419,126.54a4.44,4.44,0,1,1,4.44-4.44A4.45,4.45,0,0,1,419,126.54Z" fill="#fdd600"/><path d="M430.19,113.57h-22.9a.5.5,0,0,0-.5.5v30.68h1V114.57h21.9v45.21h-21.9v-9.15h-1v9.65a.5.5,0,0,0,.5.5h22.9a.51.51,0,0,0,.5-.5V114.07A.5.5,0,0,0,430.19,113.57Z" fill="#231f20"/><polygon points="418.02 124.57 420.01 124.57 420.01 123.09 421.49 123.09 421.49 121.11 420.01 121.11 420.01 119.63 418.02 119.63 418.02 121.11 416.54 121.11 416.54 123.09 418.02 123.09 418.02 124.57" fill="#231f20"/><path d="M419,127.54a5.44,5.44,0,1,0-5.44-5.44A5.45,5.45,0,0,0,419,127.54Zm0-9.88a4.44,4.44,0,1,1-4.44,4.44A4.44,4.44,0,0,1,419,117.66Z" fill="#231f20"/><polygon points="415.63 135.69 417.8 135.69 417.8 134.8 415.63 134.8 415.63 133.5 418.17 133.5 418.17 132.58 414.5 132.58 414.5 138.06 418.18 138.06 418.18 137.15 415.63 137.15 415.63 135.69" fill="#231f20"/><path d="M422.65,135.17a1.61,1.61,0,0,0,.25-.93,1.51,1.51,0,0,0-.53-1.23,2.35,2.35,0,0,0-1.5-.43h-2v5.48H420v-2h.89l1,2h1.21V138l-1.18-2.24A1.64,1.64,0,0,0,422.65,135.17Zm-1.12-.25a.88.88,0,0,1-.65.22H420V133.5h.9a.91.91,0,0,1,.68.22.86.86,0,0,1,.22.61A.75.75,0,0,1,421.53,134.92Z" fill="#231f20"/><polygon points="420.01 119.63 418.02 119.63 418.02 121.11 416.54 121.11 416.54 123.09 418.02 123.09 418.02 124.57 420.01 124.57 420.01 123.09 421.49 123.09 421.49 121.11 420.01 121.11 420.01 119.63" fill="#231f20"/><path d="M407.79,150.63h1v3.2a.51.51,0,0,0,.26.44.53.53,0,0,0,.24.06.5.5,0,0,0,.27-.07l9.72-6.14a.52.52,0,0,0,.23-.43.5.5,0,0,0-.23-.42l-9.72-6.14a.52.52,0,0,0-.51,0,.49.49,0,0,0-.26.44v3.19h-11a.52.52,0,0,0-.36.16.51.51,0,0,0-.14.36l.14,4.88a.49.49,0,0,0,.5.48h9.8Zm-9.42-4.88h11a.5.5,0,0,0,.5-.5v-2.79l8.29,5.23-8.29,5.24v-2.8a.5.5,0,0,0-.5-.5H398.47Z" fill="#231f20"/><path d="M358.61,214.36a.48.48,0,0,1,.26-.43l10.65-5.81-5.72-9.91-10.76,6a.52.52,0,0,1-.8-.4V191H340.78l.05,12.83a.5.5,0,0,1-.25.43.52.52,0,0,1-.51,0l-10.18-6.15L324.17,208l10.65,5.85a.48.48,0,0,1,.26.43.49.49,0,0,1-.24.44L324.35,221l5.73,9.92,10-6.05a.48.48,0,0,1,.26-.07.5.5,0,0,1,.24.06.51.51,0,0,1,.26.44v11.33l11.41-.05-.05-11.33a.48.48,0,0,1,.25-.43.5.5,0,0,1,.49,0l10.68,6,5.73-9.92-10.48-6.09A.5.5,0,0,1,358.61,214.36ZM344.7,198.55a1.4,1.4,0,1,1,1.4-1.4A1.4,1.4,0,0,1,344.7,198.55Z" fill="#fdd600"/><path d="M368.9,206.32l-6.23-10.79a.51.51,0,0,0-.68-.19l-10.5,5.9V188.76a.51.51,0,0,0-.5-.5H338.53a.51.51,0,0,0-.5.5l.05,12.44-9.86-5.95a.46.46,0,0,0-.38-.05.46.46,0,0,0-.31.23l-6.23,10.79a.46.46,0,0,0-.05.38.53.53,0,0,0,.24.31l10.34,5.67-10.16,6a.49.49,0,0,0-.18.68l6.23,10.79a.52.52,0,0,0,.31.23.5.5,0,0,0,.38,0l9.67-5.86v11a.47.47,0,0,0,.15.35.51.51,0,0,0,.35.15h0l12.41-.05a.51.51,0,0,0,.35-.15.47.47,0,0,0,.15-.35l-.05-11,10.36,5.84a.49.49,0,0,0,.67-.19l6.23-10.79a.49.49,0,0,0-.18-.68l-10.14-5.89L368.7,207a.45.45,0,0,0,.24-.3A.5.5,0,0,0,368.9,206.32Zm-11.78,5.86a.48.48,0,0,0-.26.43.5.5,0,0,0,.25.44l10.48,6.08-5.73,9.93-10.68-6a.5.5,0,0,0-.49,0,.48.48,0,0,0-.25.43l.05,11.33-11.41,0V223.53a.51.51,0,0,0-.26-.44.5.5,0,0,0-.24-.06.48.48,0,0,0-.26.07l-10,6.05-5.73-9.92L333.09,213a.5.5,0,0,0,.24-.44.48.48,0,0,0-.26-.43l-10.65-5.85,5.72-9.91,10.18,6.15a.52.52,0,0,0,.51,0,.5.5,0,0,0,.25-.43L339,189.26h11.46V202.1a.52.52,0,0,0,.8.4l10.76-6.05,5.72,9.92Z" fill="#231f20"/><path d="M351.43,208.88l-6.23,0v-2.63h7.17a.51.51,0,0,0,.5-.5.5.5,0,0,0-.5-.5H345.2v-5.72a2.39,2.39,0,1,0-1,0v5.72H338a2.29,2.29,0,0,0-1.67,3.94,2.22,2.22,0,0,0,1.65.65l2.9,0,3.31,0v2.55l-1.5,0h0l-2.14,0a2.31,2.31,0,0,0-2.39,2.3,2.28,2.28,0,0,0,.7,1.63,2.22,2.22,0,0,0,1.65.66l3.68,0v2.63l-3,0h0a.5.5,0,0,0,0,1l3,0V228a.5.5,0,0,0,.5.5.5.5,0,0,0,.5-.5v-7.38l3.91,0h.07a2.32,2.32,0,0,0,2.31-2.31,2.31,2.31,0,0,0-.7-1.63,2.26,2.26,0,0,0-1.64-.66l-1.93,0v0h-2V213.4h.37l5.82.06h.07a2.3,2.3,0,0,0,2.31-2.3,2.32,2.32,0,0,0-2.34-2.29Zm-8.12-11.73a1.4,1.4,0,1,1,1.39,1.4A1.4,1.4,0,0,1,343.31,197.15ZM341,208.82h0l-2.39,0H338a1.21,1.21,0,0,1-.94-.37,1.24,1.24,0,0,1-.4-.91,1.27,1.27,0,0,1,.39-.93,1.32,1.32,0,0,1,1-.38h6.21v2.63Zm8.17,8.21a1.28,1.28,0,0,1,.94.38,1.24,1.24,0,0,1,.4.92,1.33,1.33,0,0,1-1.37,1.3l-3.92,0V217ZM344.2,216l-3.69,0a1.25,1.25,0,0,1-.94-.37,1.36,1.36,0,0,1-.4-.92,1.28,1.28,0,0,1,.4-.93,1.36,1.36,0,0,1,1-.37l3.67,0Zm5.92-2.52v0Zm2.25-1.35a1.32,1.32,0,0,1-1,.37H350l-4.55,0h-.29v-2.56l6.23,0a1.17,1.17,0,0,1,.94.37,1.27,1.27,0,0,1,0,1.85Z" fill="#231f20"/><line x1="350.13" y1="212.95" x2="350.12" y2="213.45" fill="#231f20"/><circle cx="346.15" cy="139.3" r="21.87" fill="#fdd600"/><path d="M339.78,134a1,1,0,0,1,.8-.42.91.91,0,0,1,.75.32,1.34,1.34,0,0,1,.27.91,3.59,3.59,0,0,1-1.1,2l-3,3.13v1.4H344v-1.65h-3.64l1.19-1.38a16.52,16.52,0,0,0,1.39-1.53,5,5,0,0,0,.63-1.09,2.77,2.77,0,0,0,.2-1.06,2.5,2.5,0,0,0-.81-2,4,4,0,0,0-4-.28,3,3,0,0,0-1.19,1.13,3.05,3.05,0,0,0-.42,1.57h2.15A1.75,1.75,0,0,1,339.78,134Z" fill="#231f20"/><path d="M343.44,139.34H347v2h2.15v-2h.94v-1.66h-.94V132H347v0l-3.71,6Zm3.45-4.3.13-.21v2.85h-1.67Z" fill="#231f20"/><path d="M344.4,114.68a22.87,22.87,0,1,0,22.86,22.87A22.9,22.9,0,0,0,344.4,114.68Zm0,44.73a21.87,21.87,0,1,1,21.86-21.86A21.89,21.89,0,0,1,344.4,159.41Z" fill="#231f20"/><path d="M344.39,119.17a18.42,18.42,0,0,0-4.79.63.5.5,0,0,0,.26,1,17.44,17.44,0,1,1-9.75,6.91l1.46,1.31,1-4.87-4.74,1.55,1.5,1.34A18.18,18.18,0,0,0,326,137.55a18.38,18.38,0,1,0,18.37-18.38Z" fill="#231f20"/><path d="M344.9,124.44v-2.15a.51.51,0,0,0-.5-.5.5.5,0,0,0-.5.5v2.15a.5.5,0,0,0,.5.5A.51.51,0,0,0,344.9,124.44Z" fill="#231f20"/><path d="M343.9,150.66v2.14a.5.5,0,0,0,.5.5.5.5,0,0,0,.5-.5v-2.14a.5.5,0,0,0-.5-.5A.5.5,0,0,0,343.9,150.66Z" fill="#231f20"/><path d="M331.15,137.05H329a.5.5,0,0,0-.5.5.5.5,0,0,0,.5.5h2.14a.5.5,0,0,0,.5-.5A.5.5,0,0,0,331.15,137.05Z" fill="#231f20"/><path d="M332.64,148.22a.49.49,0,0,0,.37.16.46.46,0,0,0,.33-.13l1.58-1.45a.5.5,0,0,0-.67-.73l-1.58,1.45A.48.48,0,0,0,332.64,148.22Z" fill="#231f20"/><path d="M354.35,129l1.58-1.45a.5.5,0,1,0-.68-.74l-1.58,1.45a.51.51,0,0,0,0,.71.51.51,0,0,0,.71,0Z" fill="#231f20"/><path d="M352.64,146.49a.5.5,0,0,0,0,.71l1.57,1.45a.5.5,0,0,0,.34.13.49.49,0,0,0,.37-.16.5.5,0,0,0,0-.71l-1.58-1.45A.5.5,0,0,0,352.64,146.49Z" fill="#231f20"/><path d="M359.81,138.05a.51.51,0,0,0,.5-.5.5.5,0,0,0-.5-.5h-2.15a.5.5,0,0,0-.5.5.51.51,0,0,0,.5.5Z" fill="#231f20"/><path d="M406.48,295.27a.51.51,0,0,1-.3,0h-3.61a2.09,2.09,0,0,0-2,2.09v4.88h7.74v-4.88A2.1,2.1,0,0,0,406.48,295.27Z" fill="#fdd600"/><path d="M402.51,290.65a1.94,1.94,0,0,0,.7,1.49,2,2,0,0,0,2.52,0,2,2,0,1,0-3.22-1.49Z" fill="#fdd600"/><path d="M436.12,279.85h-20a3.15,3.15,0,0,1-4.28,0H393.15v27.4h45.24v-27.4ZM410,300.48H395.44V283.55H410Z" fill="#fdd600"/><path d="M437.14,277.1H418.2v-7.36a.5.5,0,0,0-.5-.5h-7.36a.5.5,0,0,0-.5.5v7.36H390.9a.51.51,0,0,0-.5.5V306a.51.51,0,0,0,.5.5h46.24a.51.51,0,0,0,.5-.5V277.6A.51.51,0,0,0,437.14,277.1Zm-.5,28.4H391.4V278.1h18.5a4.16,4.16,0,0,0,8.24,0h18.5Zm-25.8-28v-7.27h6.36v7.27a3.18,3.18,0,0,1-6.36,0Z" fill="#231f20"/><path d="M410.51,282.55H394.94a.5.5,0,0,0-.5.5V301a.5.5,0,0,0,.5.5h15.57a.5.5,0,0,0,.5-.5V283.05A.51.51,0,0,0,410.51,282.55Zm-.5,17.93h-2.42V295.6a3.1,3.1,0,0,0-2.95-3.09H400.8a3.1,3.1,0,0,0-2.95,3.09v4.88h-2.41V283.55H410Zm-11.16,0V295.6a2.09,2.09,0,0,1,2-2.09h3.61a.51.51,0,0,0,.3,0,2.1,2.1,0,0,1,1.86,2.08v4.88Z" fill="#231f20"/><path d="M402.72,291.85a3,3,0,1,0-1.91-.7A3,3,0,0,0,402.72,291.85Zm2-3a2,2,0,0,1-.7,1.5,2,2,0,0,1-2.52,0,2,2,0,0,1-.7-1.5,2,2,0,0,1,3.92,0Z" fill="#231f20"/><path d="M413.55,290.42h-1.18v3.2h.42v-1.25h.76a1.21,1.21,0,0,0,.83-.26.88.88,0,0,0,.29-.71.9.9,0,0,0-.3-.71A1.16,1.16,0,0,0,413.55,290.42Zm.52,1.44a.74.74,0,0,1-.52.16h-.76v-1.26h.78a.78.78,0,0,1,.5.18.62.62,0,0,1,.18.46A.59.59,0,0,1,414.07,291.86Z" fill="#231f20"/><polygon points="415.6 292.14 416.99 292.14 416.99 291.79 415.6 291.79 415.6 290.76 417.19 290.76 417.19 290.42 415.18 290.42 415.18 293.62 417.21 293.62 417.21 293.27 415.6 293.27 415.6 292.14" fill="#231f20"/><path d="M417.71,290.42v3.2h.89a1.6,1.6,0,0,0,.75-.19,1.14,1.14,0,0,0,.5-.52,1.69,1.69,0,0,0,.18-.8v-.2a1.63,1.63,0,0,0-.18-.78,1.28,1.28,0,0,0-.5-.53,1.46,1.46,0,0,0-.73-.18Zm1.64.65a1.27,1.27,0,0,1,.26.85v.18a1.26,1.26,0,0,1-.27.87,1,1,0,0,1-.76.3h-.44v-2.51h.49A.93.93,0,0,1,419.35,291.07Z" fill="#231f20"/><rect x="420.67" y="290.42" width="0.42" height="3.2" fill="#231f20"/><path d="M422.3,292.78h1.34l.31.84h.43l-1.23-3.2h-.36l-1.23,3.2H422Zm.67-1.84.54,1.5h-1.08Z" fill="#231f20"/><polygon points="425.26 293.62 425.68 293.62 425.68 290.76 426.71 290.76 426.71 290.42 424.24 290.42 424.24 290.76 425.26 290.76 425.26 293.62" fill="#231f20"/><path d="M427.58,292.32h.75l.69,1.3h.46v0l-.75-1.36a1,1,0,0,0,.45-.33,1,1,0,0,0-.13-1.24,1.31,1.31,0,0,0-.84-.24h-1.06v3.2h.43Zm0-1.56h.64a.85.85,0,0,1,.52.16.62.62,0,0,1,.17.46.57.57,0,0,1-.18.44.79.79,0,0,1-.5.16h-.65Z" fill="#231f20"/><rect x="429.93" y="290.42" width="0.42" height="3.2" fill="#231f20"/><path d="M432.24,293.66a1.25,1.25,0,0,0,.84-.27,1.2,1.2,0,0,0,.37-.79H433a.92.92,0,0,1-.25.56.87.87,0,0,1-.54.16.71.71,0,0,1-.61-.31,1.38,1.38,0,0,1-.22-.83v-.31a1.39,1.39,0,0,1,.23-.85.84.84,0,0,1,1.15-.13,1,1,0,0,1,.24.56h.42a1.11,1.11,0,0,0-1.18-1.08,1.25,1.25,0,0,0-.67.19,1.1,1.1,0,0,0-.45.52,1.73,1.73,0,0,0-.16.78v.31a1.65,1.65,0,0,0,.34,1.09A1.13,1.13,0,0,0,432.24,293.66Z" fill="#231f20"/><path d="M435,293.32a.94.94,0,0,1-.57-.17.56.56,0,0,1-.21-.46h-.43a.88.88,0,0,0,.16.5,1,1,0,0,0,.44.35,1.58,1.58,0,0,0,.61.12,1.37,1.37,0,0,0,.82-.23.76.76,0,0,0,.3-.62.83.83,0,0,0-.11-.43,1,1,0,0,0-.33-.32,2.88,2.88,0,0,0-.63-.24,1.75,1.75,0,0,1-.56-.25.42.42,0,0,1-.17-.33.45.45,0,0,1,.18-.38.74.74,0,0,1,.48-.14.7.7,0,0,1,.52.17.55.55,0,0,1,.19.45h.42a1,1,0,0,0-.14-.49,1,1,0,0,0-.4-.35,1.38,1.38,0,0,0-.59-.13,1.21,1.21,0,0,0-.78.25.78.78,0,0,0-.3.63.74.74,0,0,0,.24.56,2,2,0,0,0,.79.38,1.72,1.72,0,0,1,.6.26.41.41,0,0,1,.16.36.43.43,0,0,1-.17.37A.85.85,0,0,1,435,293.32Z" fill="#231f20"/><path d="M336.48,295.27a.51.51,0,0,1-.3,0h-3.61a2.09,2.09,0,0,0-2,2.09v4.88h7.74v-4.88A2.1,2.1,0,0,0,336.48,295.27Z" fill="#fdd600"/><path d="M332.51,290.65a1.94,1.94,0,0,0,.7,1.49,2,2,0,0,0,2.52,0,2,2,0,1,0-3.22-1.49Z" fill="#fdd600"/><path d="M366.12,279.85h-20a3.15,3.15,0,0,1-4.28,0H323.15v27.4h45.24v-27.4ZM340,300.48H325.44V283.55H340Z" fill="#fdd600"/><path d="M367.14,277.1H348.2v-7.36a.5.5,0,0,0-.5-.5h-7.36a.5.5,0,0,0-.5.5v7.36H320.9a.51.51,0,0,0-.5.5V306a.51.51,0,0,0,.5.5h46.24a.51.51,0,0,0,.5-.5V277.6A.51.51,0,0,0,367.14,277.1Zm-.5,28.4H321.4V278.1h18.5a4.16,4.16,0,0,0,8.24,0h18.5Zm-25.8-28v-7.27h6.36v7.27a3.18,3.18,0,0,1-6.36,0Z" fill="#231f20"/><path d="M340.51,282.55H324.94a.5.5,0,0,0-.5.5V301a.5.5,0,0,0,.5.5h15.57a.5.5,0,0,0,.5-.5V283.05A.51.51,0,0,0,340.51,282.55Zm-.5,17.93h-2.42V295.6a3.1,3.1,0,0,0-2.95-3.09H330.8a3.1,3.1,0,0,0-2.95,3.09v4.88h-2.41V283.55H340Zm-11.16,0V295.6a2.09,2.09,0,0,1,2-2.09h3.61a.51.51,0,0,0,.3,0,2.1,2.1,0,0,1,1.86,2.08v4.88Z" fill="#231f20"/><path d="M332.72,291.85a3,3,0,1,0-1.91-.7A3,3,0,0,0,332.72,291.85Zm2-3a2,2,0,0,1-.7,1.5,2,2,0,0,1-2.52,0,2,2,0,0,1-.7-1.5,2,2,0,0,1,3.92,0Z" fill="#231f20"/><polygon points="346.31 293.38 343.8 289.53 343.14 289.53 343.14 294.51 343.8 294.51 343.8 290.67 346.3 294.51 346.96 294.51 346.96 289.53 346.31 289.53 346.31 293.38" fill="#231f20"/><path d="M348.52,294.13a1.83,1.83,0,0,0,1.3.44H350a1.81,1.81,0,0,0,1.19-.51,1.57,1.57,0,0,0,.44-1.15v-3.38H351v3.37a1.15,1.15,0,1,1-2.29,0v-3.37H348v3.39A1.55,1.55,0,0,0,348.52,294.13Z" fill="#231f20"/><path d="M353.32,292.49h1.17l1.08,2h.7v0l-1.16-2.12a1.44,1.44,0,0,0,.69-.51,1.33,1.33,0,0,0,.26-.81,1.4,1.4,0,0,0-.46-1.12,2,2,0,0,0-1.29-.38h-1.65v5h.66Zm0-2.42h1a1.12,1.12,0,0,1,.79.25.9.9,0,0,1,.28.7.86.86,0,0,1-.29.68,1.15,1.15,0,0,1-.78.26h-1Z" fill="#231f20"/><path d="M358.55,294a1.45,1.45,0,0,1-.89-.26.88.88,0,0,1-.33-.72h-.66a1.33,1.33,0,0,0,.24.78,1.58,1.58,0,0,0,.69.54,2.3,2.3,0,0,0,.95.19,2.06,2.06,0,0,0,1.27-.36,1.16,1.16,0,0,0,.47-1,1.3,1.3,0,0,0-.17-.66,1.54,1.54,0,0,0-.52-.49,3.83,3.83,0,0,0-1-.38,2.53,2.53,0,0,1-.88-.39.64.64,0,0,1-.26-.51.72.72,0,0,1,.27-.6,1.23,1.23,0,0,1,.76-.21,1.13,1.13,0,0,1,.81.26.91.91,0,0,1,.29.71h.66a1.43,1.43,0,0,0-.22-.76,1.5,1.5,0,0,0-.62-.55,2.11,2.11,0,0,0-.92-.2,1.84,1.84,0,0,0-1.22.39,1.17,1.17,0,0,0-.47,1,1.15,1.15,0,0,0,.38.87,3.06,3.06,0,0,0,1.23.6,3,3,0,0,1,.93.39.75.75,0,0,1,0,1.15A1.29,1.29,0,0,1,358.55,294Z" fill="#231f20"/><polygon points="364.29 293.97 361.79 293.97 361.79 292.21 363.94 292.21 363.94 291.67 361.79 291.67 361.79 290.07 364.25 290.07 364.25 289.53 361.13 289.53 361.13 294.51 364.29 294.51 364.29 293.97" fill="#231f20"/><path d="M266.48,295.27a.51.51,0,0,1-.3,0h-3.61a2.09,2.09,0,0,0-2,2.09v4.88h7.74v-4.88A2.1,2.1,0,0,0,266.48,295.27Z" fill="#fdd600"/><path d="M262.51,290.65a1.94,1.94,0,0,0,.7,1.49,2,2,0,0,0,2.52,0,2,2,0,1,0-3.22-1.49Z" fill="#fdd600"/><path d="M296.12,279.85h-20a3.15,3.15,0,0,1-4.28,0H253.15v27.4h45.24v-27.4ZM270,300.48H255.44V283.55H270Z" fill="#fdd600"/><path d="M297.14,277.1H278.2v-7.36a.5.5,0,0,0-.5-.5h-7.36a.5.5,0,0,0-.5.5v7.36H250.9a.51.51,0,0,0-.5.5V306a.51.51,0,0,0,.5.5h46.24a.51.51,0,0,0,.5-.5V277.6A.51.51,0,0,0,297.14,277.1Zm-.5,28.4H251.4V278.1h18.5a4.16,4.16,0,0,0,8.24,0h18.5Zm-25.8-28v-7.27h6.36v7.27a3.18,3.18,0,0,1-6.36,0Z" fill="#231f20"/><path d="M270.51,282.55H254.94a.5.5,0,0,0-.5.5V301a.5.5,0,0,0,.5.5h15.57a.5.5,0,0,0,.5-.5V283.05A.51.51,0,0,0,270.51,282.55Zm-.5,17.93h-2.42V295.6a3.1,3.1,0,0,0-2.95-3.09H260.8a3.1,3.1,0,0,0-2.95,3.09v4.88h-2.41V283.55H270Zm-11.16,0V295.6a2.09,2.09,0,0,1,2-2.09h3.61a.51.51,0,0,0,.3,0,2.1,2.1,0,0,1,1.86,2.08v4.88Z" fill="#231f20"/><path d="M262.72,291.85a3,3,0,1,0-1.91-.7A3,3,0,0,0,262.72,291.85Zm2-3a2,2,0,0,1-.7,1.5,2,2,0,0,1-2.52,0,2,2,0,0,1-.7-1.5,2,2,0,0,1,3.92,0Z" fill="#231f20"/><path d="M273.27,290.68H272v3.41h.45v-1.33h.81a1.33,1.33,0,0,0,.89-.27,1,1,0,0,0,.31-.77,1,1,0,0,0-.32-.75A1.22,1.22,0,0,0,273.27,290.68Zm.56,1.54a.85.85,0,0,1-.56.17h-.81v-1.34h.84a.76.76,0,0,1,.53.19.73.73,0,0,1,0,1Z" fill="#231f20"/><polygon points="277.2 292.15 275.48 292.15 275.48 290.68 275.03 290.68 275.03 294.09 275.48 294.09 275.48 292.51 277.2 292.51 277.2 294.09 277.65 294.09 277.65 290.68 277.2 290.68 277.2 292.15" fill="#231f20"/><polygon points="279.19 292.82 279.19 294.09 279.63 294.09 279.63 292.82 280.81 290.68 280.3 290.68 279.41 292.39 278.52 290.68 278.01 290.68 279.19 292.82" fill="#231f20"/><path d="M282.28,293.77a1,1,0,0,1-.61-.18.59.59,0,0,1-.23-.49H281a.94.94,0,0,0,.17.54,1.09,1.09,0,0,0,.47.36,1.58,1.58,0,0,0,.65.14,1.38,1.38,0,0,0,.87-.25.81.81,0,0,0,.32-.66.85.85,0,0,0-.12-.46.93.93,0,0,0-.35-.33,2.57,2.57,0,0,0-.67-.27,1.92,1.92,0,0,1-.6-.26.45.45,0,0,1-.18-.35.5.5,0,0,1,.19-.41.81.81,0,0,1,.52-.15.78.78,0,0,1,.55.18.6.6,0,0,1,.2.49h.45a1,1,0,0,0-.15-.53,1,1,0,0,0-.42-.37,1.46,1.46,0,0,0-.63-.14,1.28,1.28,0,0,0-.84.27.81.81,0,0,0-.32.66.79.79,0,0,0,.26.6,2.17,2.17,0,0,0,.85.41,2,2,0,0,1,.63.27.46.46,0,0,1,.18.39.47.47,0,0,1-.19.4A1,1,0,0,1,282.28,293.77Z" fill="#231f20"/><rect x="284.07" y="290.68" width="0.45" height="3.41" fill="#231f20"/><path d="M286.54,294.14a1.32,1.32,0,0,0,.89-.29,1.24,1.24,0,0,0,.4-.84h-.45a.93.93,0,0,1-.26.59.91.91,0,0,1-.58.17.75.75,0,0,1-.65-.33,1.53,1.53,0,0,1-.23-.88v-.33a1.49,1.49,0,0,1,.24-.91.83.83,0,0,1,.68-.32.79.79,0,0,1,.55.18,1,1,0,0,1,.25.6h.45a1.23,1.23,0,0,0-.38-.84,1.2,1.2,0,0,0-.87-.31,1.34,1.34,0,0,0-.72.2,1.23,1.23,0,0,0-.48.55,1.86,1.86,0,0,0-.17.84v.33a1.77,1.77,0,0,0,.36,1.16A1.23,1.23,0,0,0,286.54,294.14Z" fill="#231f20"/><rect x="288.47" y="290.68" width="0.45" height="3.41" fill="#231f20"/><path d="M290.22,293.2h1.43l.33.89h.46l-1.31-3.41h-.39l-1.3,3.41h.46Zm.72-2,.58,1.6h-1.16Z" fill="#231f20"/><polygon points="293.34 291.46 295.06 294.09 295.51 294.09 295.51 290.68 295.06 290.68 295.06 293.32 293.34 290.68 292.88 290.68 292.88 294.09 293.34 294.09 293.34 291.46" fill="#231f20"/><path d="M196.48,295.27a.51.51,0,0,1-.3,0h-3.61a2.09,2.09,0,0,0-2,2.09v4.88h7.74v-4.88A2.1,2.1,0,0,0,196.48,295.27Z" fill="#fdd600"/><path d="M192.51,290.65a1.94,1.94,0,0,0,.7,1.49,2,2,0,0,0,2.52,0,2,2,0,1,0-3.22-1.49Z" fill="#fdd600"/><path d="M226.12,279.85h-20a3.15,3.15,0,0,1-4.28,0H183.15v27.4h45.24v-27.4ZM200,300.48H185.44V283.55H200Z" fill="#fdd600"/><path d="M227.14,277.1H208.2v-7.36a.5.5,0,0,0-.5-.5h-7.36a.5.5,0,0,0-.5.5v7.36H180.9a.51.51,0,0,0-.5.5V306a.51.51,0,0,0,.5.5h46.24a.51.51,0,0,0,.5-.5V277.6A.51.51,0,0,0,227.14,277.1Zm-.5,28.4H181.4V278.1h18.5a4.16,4.16,0,0,0,8.24,0h18.5Zm-25.8-28v-7.27h6.36v7.27a3.18,3.18,0,0,1-6.36,0Z" fill="#231f20"/><path d="M200.51,282.55H184.94a.5.5,0,0,0-.5.5V301a.5.5,0,0,0,.5.5h15.57a.5.5,0,0,0,.5-.5V283.05A.51.51,0,0,0,200.51,282.55Zm-.5,17.93h-2.42V295.6a3.1,3.1,0,0,0-3-3.09H190.8a3.1,3.1,0,0,0-3,3.09v4.88h-2.41V283.55H200Zm-11.16,0V295.6a2.09,2.09,0,0,1,2-2.09h3.61a.51.51,0,0,0,.3,0,2.1,2.1,0,0,1,1.86,2.08v4.88Z" fill="#231f20"/><path d="M192.72,291.85a3,3,0,1,0-1.91-.7A3,3,0,0,0,192.72,291.85Zm2-3a2,2,0,0,1-.7,1.5,2,2,0,0,1-2.52,0,2,2,0,0,1-.7-1.5,2,2,0,0,1,3.92,0Z" fill="#231f20"/><path d="M204,290.24h-1.32v3.56h.47v-1.4H204a1.38,1.38,0,0,0,.93-.28,1,1,0,0,0,.32-.79,1,1,0,0,0-.33-.79A1.31,1.31,0,0,0,204,290.24Zm.57,1.6a.81.81,0,0,1-.57.18h-.85v-1.4H204a.78.78,0,0,1,.55.2.66.66,0,0,1,.2.51A.62.62,0,0,1,204.55,291.84Z" fill="#231f20"/><path d="M208.06,291.89a1,1,0,0,0,.18-.58,1,1,0,0,0-.32-.8,1.43,1.43,0,0,0-.93-.27h-1.17v3.56h.47v-1.44h.83l.78,1.44h.5v0l-.84-1.51A1.06,1.06,0,0,0,208.06,291.89ZM207,292h-.72v-1.35H207a.91.91,0,0,1,.56.18.66.66,0,0,1,.2.51.6.6,0,0,1-.21.48A.79.79,0,0,1,207,292Z" fill="#231f20"/><path d="M209.46,293.64a1.51,1.51,0,0,0,1.5,0,1.42,1.42,0,0,0,.5-.6,2.31,2.31,0,0,0,.17-.91v-.22a2.31,2.31,0,0,0-.17-.91,1.39,1.39,0,0,0-2-.6,1.37,1.37,0,0,0-.51.6,2.17,2.17,0,0,0-.18.91v.25a2.24,2.24,0,0,0,.19.89A1.38,1.38,0,0,0,209.46,293.64Zm-.22-1.77a1.54,1.54,0,0,1,.26-.94.9.9,0,0,1,1.41,0,1.6,1.6,0,0,1,.26,1v.27a1.68,1.68,0,0,1-.26.95.9.9,0,0,1-1.41,0,1.57,1.57,0,0,1-.26-1Z" fill="#231f20"/><polygon points="213.67 293.8 214.99 290.24 214.47 290.24 213.46 293.17 212.45 290.24 211.94 290.24 213.25 293.8 213.67 293.8" fill="#231f20"/><rect x="215.5" y="290.24" width="0.47" height="3.55" fill="#231f20"/><path d="M218.65,293.59a1.4,1.4,0,0,0,.55-.58,1.93,1.93,0,0,0,.19-.88v-.23a1.86,1.86,0,0,0-.19-.87,1.4,1.4,0,0,0-.55-.58,1.59,1.59,0,0,0-.82-.21h-1v3.56h1A1.86,1.86,0,0,0,218.65,293.59Zm-1.36-.18v-2.79h.55a1,1,0,0,1,.81.35,1.39,1.39,0,0,1,.28.94v.2a1.38,1.38,0,0,1-.3,1,1.05,1.05,0,0,1-.84.34Z" fill="#231f20"/><polygon points="222.36 293.41 220.57 293.41 220.57 292.15 222.11 292.15 222.11 291.77 220.57 291.77 220.57 290.62 222.34 290.62 222.34 290.24 220.1 290.24 220.1 293.8 222.36 293.8 222.36 293.41" fill="#231f20"/><path d="M223.41,292.36h.84l.77,1.44h.5v0l-.83-1.51a1.12,1.12,0,0,0,.5-.37,1,1,0,0,0,.17-.58,1,1,0,0,0-.32-.8,1.38,1.38,0,0,0-.92-.27h-1.18v3.56h.47Zm0-1.74h.72a.92.92,0,0,1,.57.18.66.66,0,0,1,.19.51.59.59,0,0,1-.2.48.84.84,0,0,1-.56.18h-.72Z" fill="#231f20"/><path d="M126.48,295.27a.51.51,0,0,1-.3,0h-3.61a2.09,2.09,0,0,0-2,2.09v4.88h7.74v-4.88A2.1,2.1,0,0,0,126.48,295.27Z" fill="#fdd600"/><path d="M122.51,290.65a1.94,1.94,0,0,0,.7,1.49,2,2,0,0,0,2.52,0,2,2,0,1,0-3.22-1.49Z" fill="#fdd600"/><path d="M156.12,279.85h-20a3.15,3.15,0,0,1-4.28,0H113.15v27.4h45.24v-27.4ZM130,300.48H115.44V283.55H130Z" fill="#fdd600"/><path d="M157.14,277.1H138.2v-7.36a.5.5,0,0,0-.5-.5h-7.36a.5.5,0,0,0-.5.5v7.36H110.9a.51.51,0,0,0-.5.5V306a.51.51,0,0,0,.5.5h46.24a.51.51,0,0,0,.5-.5V277.6A.51.51,0,0,0,157.14,277.1Zm-.5,28.4H111.4V278.1h18.5a4.16,4.16,0,0,0,8.24,0h18.5Zm-25.8-28v-7.27h6.36v7.27a3.18,3.18,0,1,1-6.36,0Z" fill="#231f20"/><path d="M130.51,282.55H114.94a.5.5,0,0,0-.5.5V301a.5.5,0,0,0,.5.5h15.57a.5.5,0,0,0,.5-.5V283.05A.51.51,0,0,0,130.51,282.55Zm-.5,17.93h-2.42V295.6a3.1,3.1,0,0,0-3-3.09H120.8a3.1,3.1,0,0,0-3,3.09v4.88h-2.41V283.55H130Zm-11.16,0V295.6a2.09,2.09,0,0,1,2-2.09h3.61a.51.51,0,0,0,.3,0,2.1,2.1,0,0,1,1.86,2.08v4.88Z" fill="#231f20"/><path d="M122.72,291.85a3,3,0,1,0-1.91-.7A3,3,0,0,0,122.72,291.85Zm2-3a2,2,0,0,1-.7,1.5,2,2,0,0,1-2.52,0,2,2,0,0,1-.7-1.5,2,2,0,0,1,3.92,0Z" fill="#231f20"/><path d="M134.34,291.88a1,1,0,0,0,.19-.61,1.06,1.06,0,0,0-.34-.85,1.51,1.51,0,0,0-1-.29H132v3.77h.5v-1.52h.89l.81,1.52h.54v0l-.89-1.6A1,1,0,0,0,134.34,291.88Zm-1.11.09h-.77v-1.43h.76a.86.86,0,0,1,.61.19.7.7,0,0,1,.2.54.64.64,0,0,1-.22.51A.83.83,0,0,1,133.23,292Z" fill="#231f20"/><polygon points="135.73 292.16 137.36 292.16 137.36 291.75 135.73 291.75 135.73 290.54 137.6 290.54 137.6 290.13 135.23 290.13 135.23 293.9 137.62 293.9 137.62 293.5 135.73 293.5 135.73 292.16" fill="#231f20"/><path d="M138.42,291.77a2.3,2.3,0,0,0,.93.45,2.35,2.35,0,0,1,.71.3.54.54,0,0,1,.19.43.54.54,0,0,1-.21.44,1,1,0,0,1-.6.16,1.1,1.1,0,0,1-.68-.2.64.64,0,0,1-.25-.54H138a1,1,0,0,0,.18.59,1.27,1.27,0,0,0,.52.41,2,2,0,0,0,.73.14,1.55,1.55,0,0,0,.95-.27.89.89,0,0,0,.36-.74.93.93,0,0,0-.13-.5,1.27,1.27,0,0,0-.39-.37,3.45,3.45,0,0,0-.74-.29,1.88,1.88,0,0,1-.66-.29.5.5,0,0,1-.2-.39.54.54,0,0,1,.21-.45,1.08,1.08,0,0,1,1.18,0,.67.67,0,0,1,.22.54h.5a1,1,0,0,0-.17-.57,1.07,1.07,0,0,0-.47-.42,1.52,1.52,0,0,0-.69-.15,1.41,1.41,0,0,0-.92.29.92.92,0,0,0-.36.74A.88.88,0,0,0,138.42,291.77Z" fill="#231f20"/><rect x="141.42" y="290.13" width="0.5" height="3.77" fill="#231f20"/><path d="M144.76,293.68a1.51,1.51,0,0,0,.59-.61,2.13,2.13,0,0,0,.2-.94v-.24a2,2,0,0,0-.21-.92,1.45,1.45,0,0,0-.58-.62,1.75,1.75,0,0,0-.87-.22h-1.06v3.77h1A1.83,1.83,0,0,0,144.76,293.68Zm-1.44-.18v-3h.58a1.06,1.06,0,0,1,.86.36,1.51,1.51,0,0,1,.3,1v.22a1.5,1.5,0,0,1-.32,1,1.12,1.12,0,0,1-.89.36Z" fill="#231f20"/><polygon points="148.7 293.5 146.8 293.5 146.8 292.16 148.43 292.16 148.43 291.75 146.8 291.75 146.8 290.54 148.67 290.54 148.67 290.13 146.3 290.13 146.3 293.9 148.7 293.9 148.7 293.5" fill="#231f20"/><polygon points="149.81 291 151.71 293.9 152.21 293.9 152.21 290.13 151.72 290.13 151.72 293.05 149.81 290.13 149.31 290.13 149.31 293.9 149.81 293.9 149.81 291" fill="#231f20"/><polygon points="153.92 293.9 154.41 293.9 154.41 290.54 155.62 290.54 155.62 290.13 152.71 290.13 152.71 290.54 153.92 290.54 153.92 293.9" fill="#231f20"/><path d="M476.48,219.08a.44.44,0,0,1-.3,0h-3.61a2.1,2.1,0,0,0-2,2.1v4.88h7.74v-4.88A2.1,2.1,0,0,0,476.48,219.08Z" fill="#fdd600"/><path d="M472.51,214.46a2,2,0,0,0,.7,1.5,2,2,0,0,0,2.52,0,2,2,0,1,0-3.22-1.5Z" fill="#fdd600"/><path d="M506.12,203.67h-20a3.15,3.15,0,0,1-4.28,0H463.15v27.39h45.24V203.67ZM480,224.3H465.44V207.37H480Z" fill="#fdd600"/><path d="M507.14,200.92H488.2v-7.36a.5.5,0,0,0-.5-.5h-7.36a.5.5,0,0,0-.5.5v7.36H460.9a.5.5,0,0,0-.5.5v28.39a.5.5,0,0,0,.5.5h46.24a.5.5,0,0,0,.5-.5V201.42A.5.5,0,0,0,507.14,200.92Zm-.5,28.39H461.4V201.92h18.5a4.16,4.16,0,0,0,8.24,0h18.5Zm-25.8-28v-7.27h6.36v7.27a3.18,3.18,0,0,1-6.36,0Z" fill="#231f20"/><path d="M480.51,206.37H464.94a.5.5,0,0,0-.5.5V224.8a.5.5,0,0,0,.5.5h15.57a.51.51,0,0,0,.5-.5V206.87A.5.5,0,0,0,480.51,206.37ZM480,224.3h-2.42v-4.88a3.11,3.11,0,0,0-2.95-3.1H470.8a3.11,3.11,0,0,0-2.95,3.1v4.88h-2.41V207.37H480Zm-11.16,0v-4.88a2.1,2.1,0,0,1,2-2.1h3.61a.44.44,0,0,0,.3,0,2.1,2.1,0,0,1,1.86,2.09v4.88Z" fill="#231f20"/><path d="M472.72,215.66a2.92,2.92,0,0,0,1.91-.7,3,3,0,1,0-3.82,0A2.92,2.92,0,0,0,472.72,215.66Zm2-2.95a2,2,0,0,1-.7,1.49,2,2,0,0,1-2.52,0,2,2,0,1,1,3.22-1.49Z" fill="#231f20"/><polygon points="482.4 218.11 483 218.11 483 216.1 484.91 216.1 484.91 215.61 483 215.61 483 214.05 485.22 214.05 485.22 213.56 482.4 213.56 482.4 218.11" fill="#231f20"/><polygon points="486.54 216 488.51 216 488.51 215.51 486.54 215.51 486.54 214.05 488.8 214.05 488.8 213.56 485.94 213.56 485.94 218.11 488.83 218.11 488.83 217.62 486.54 217.62 486.54 216" fill="#231f20"/><polygon points="492.33 217.62 490.18 217.62 490.18 213.56 489.57 213.56 489.57 218.11 492.33 218.11 492.33 217.62" fill="#231f20"/><polygon points="495.78 217.62 493.62 217.62 493.62 213.56 493.02 213.56 493.02 218.11 495.78 218.11 495.78 217.62" fill="#231f20"/><path d="M497,217.91a1.81,1.81,0,0,0,.95.26,1.83,1.83,0,0,0,1-.26,1.76,1.76,0,0,0,.63-.76,2.87,2.87,0,0,0,.23-1.17v-.29a2.87,2.87,0,0,0-.23-1.17,1.71,1.71,0,0,0-.64-.76,1.74,1.74,0,0,0-2.56.77,2.67,2.67,0,0,0-.23,1.16V216a2.65,2.65,0,0,0,.23,1.13A1.8,1.8,0,0,0,497,217.91Zm-.28-2.27a1.94,1.94,0,0,1,.33-1.2,1.17,1.17,0,0,1,1.81,0,2.12,2.12,0,0,1,.32,1.25V216a2,2,0,0,1-.33,1.22,1.06,1.06,0,0,1-.9.42,1,1,0,0,1-.9-.45,2,2,0,0,1-.33-1.23Z" fill="#231f20"/><polygon points="501.97 218.11 502.94 214.79 503.01 214.44 503.08 214.79 504.02 218.11 504.57 218.11 505.67 213.56 505.07 213.56 504.36 216.67 504.26 217.28 504.14 216.73 503.26 213.56 502.76 213.56 501.86 216.73 501.73 217.27 501.64 216.67 500.92 213.56 500.32 213.56 501.42 218.11 501.97 218.11" fill="#231f20"/><path d="M406.48,219.08a.44.44,0,0,1-.3,0h-3.61a2.1,2.1,0,0,0-2,2.1v4.88h7.74v-4.88A2.1,2.1,0,0,0,406.48,219.08Z" fill="#fdd600"/><path d="M402.51,214.46a2,2,0,0,0,.7,1.5,2,2,0,0,0,2.52,0,2,2,0,1,0-3.22-1.5Z" fill="#fdd600"/><path d="M436.12,203.67h-20a3.15,3.15,0,0,1-4.28,0H393.15v27.39h45.24V203.67ZM410,224.3H395.44V207.37H410Z" fill="#fdd600"/><path d="M437.14,200.92H418.2v-7.36a.5.5,0,0,0-.5-.5h-7.36a.5.5,0,0,0-.5.5v7.36H390.9a.5.5,0,0,0-.5.5v28.39a.5.5,0,0,0,.5.5h46.24a.5.5,0,0,0,.5-.5V201.42A.5.5,0,0,0,437.14,200.92Zm-.5,28.39H391.4V201.92h18.5a4.16,4.16,0,0,0,8.24,0h18.5Zm-25.8-28v-7.27h6.36v7.27a3.18,3.18,0,0,1-6.36,0Z" fill="#231f20"/><path d="M410.51,206.37H394.94a.5.5,0,0,0-.5.5V224.8a.5.5,0,0,0,.5.5h15.57a.51.51,0,0,0,.5-.5V206.87A.5.5,0,0,0,410.51,206.37ZM410,224.3h-2.42v-4.88a3.11,3.11,0,0,0-2.95-3.1H400.8a3.11,3.11,0,0,0-2.95,3.1v4.88h-2.41V207.37H410Zm-11.16,0v-4.88a2.1,2.1,0,0,1,2-2.1h3.61a.44.44,0,0,0,.3,0,2.1,2.1,0,0,1,1.86,2.09v4.88Z" fill="#231f20"/><path d="M402.72,215.66a2.92,2.92,0,0,0,1.91-.7,3,3,0,1,0-3.82,0A2.92,2.92,0,0,0,402.72,215.66Zm2-2.95a2,2,0,0,1-.7,1.49,2,2,0,0,1-2.52,0,2,2,0,1,1,3.22-1.49Z" fill="#231f20"/><path d="M416.26,215.91a4.32,4.32,0,0,0-1-.39,2.58,2.58,0,0,1-.87-.38.63.63,0,0,1-.26-.52.71.71,0,0,1,.27-.59,1.15,1.15,0,0,1,.76-.22,1.18,1.18,0,0,1,.81.26.91.91,0,0,1,.28.71h.66a1.37,1.37,0,0,0-.22-.76,1.52,1.52,0,0,0-.62-.55,2.06,2.06,0,0,0-.91-.19,1.88,1.88,0,0,0-1.23.38,1.21,1.21,0,0,0-.46,1,1.14,1.14,0,0,0,.38.88,3.2,3.2,0,0,0,1.23.59,2.77,2.77,0,0,1,.93.4.66.66,0,0,1,.25.56.69.69,0,0,1-.27.58,1.31,1.31,0,0,1-.8.21,1.43,1.43,0,0,1-.89-.26.85.85,0,0,1-.33-.71h-.66a1.28,1.28,0,0,0,.24.77,1.61,1.61,0,0,0,.68.54,2.39,2.39,0,0,0,1,.2,2,2,0,0,0,1.26-.37,1.13,1.13,0,0,0,.47-1,1.24,1.24,0,0,0-.16-.66A1.54,1.54,0,0,0,416.26,215.91Z" fill="#231f20"/><polygon points="418.97 213.88 418.97 218.32 419.62 218.32 419.62 213.88 421.22 213.88 421.22 213.34 417.38 213.34 417.38 213.88 418.97 213.88" fill="#231f20"/><path d="M421.89,218.32l.46-1.3h2.09l.47,1.3h.68l-1.91-5h-.57l-1.9,5Zm1.51-4.17.84,2.33h-1.69Z" fill="#231f20"/><polygon points="426.92 216.12 429 216.12 429 215.59 426.92 215.59 426.92 213.88 429.34 213.88 429.34 213.34 426.26 213.34 426.26 218.32 426.92 218.32 426.92 216.12" fill="#231f20"/><polygon points="430.78 216.12 432.87 216.12 432.87 215.59 430.78 215.59 430.78 213.88 433.21 213.88 433.21 213.34 430.13 213.34 430.13 218.32 430.78 218.32 430.78 216.12" fill="#231f20"/><path d="M508,288.93a12.3,12.3,0,0,1,.87,4.55,12.16,12.16,0,0,1-.25,2.37l0,.16a5.81,5.81,0,0,1-.61,1.9c-.2.32-.51.45-1.09.59a16.72,16.72,0,0,1-3.14.37c-.49,0-1,0-1.48.05h-.1c-.28,0-34,.49-36.26.39a4.11,4.11,0,0,1-1.58-.41,4.24,4.24,0,0,1-2.19-4.14,4.43,4.43,0,0,1,1.61-3,10.64,10.64,0,0,1,1.28-1,31.83,31.83,0,0,1,6.56-3.09c2.47-.91,5.06-1.63,7.56-2.33l.9-.25h.13a.48.48,0,0,1,.4.21c.22.37,1.37,2.24,2.27,2.62a2.22,2.22,0,0,0,1.39-.07,2.09,2.09,0,0,1,1-.11c.15,0,.36.32.55.56a2.47,2.47,0,0,0,1.21,1,2.25,2.25,0,0,0,1.43-.25,2,2,0,0,1,.89-.23,2,2,0,0,1,.65.51,1.8,1.8,0,0,0,2.71.42,2.12,2.12,0,0,1,.84-.33,1.94,1.94,0,0,1,.71.43,2.51,2.51,0,0,0,1.39.68,2.63,2.63,0,0,0,1.35-.6,1.91,1.91,0,0,1,.79-.42c.19-.06.49.18.76.34a2.52,2.52,0,0,0,1.45.51,2.41,2.41,0,0,0,1.28-.76,2,2,0,0,1,.73-.51,1.84,1.84,0,0,1,.8.26,2.46,2.46,0,0,0,1.5.32c.24-.05.7-.23,1.83-1.22a1.18,1.18,0,0,1,1.08-.26A1.2,1.2,0,0,1,508,288.93Z" fill="#fdd600"/><path d="M507.69,287.28a13.13,13.13,0,0,1,1,5,12.78,12.78,0,0,1-.27,2.58l0,.15a6.81,6.81,0,0,1-.74,2.23,2.52,2.52,0,0,1-1.7,1,17.39,17.39,0,0,1-3.33.4l-1.5.05H501c-.25,0-28.47.41-35.08.41l-1.24,0a5,5,0,0,1-2-.52,5.25,5.25,0,0,1-2.74-5.11,5.44,5.44,0,0,1,1.94-3.7,12.72,12.72,0,0,1,1.4-1.06,33,33,0,0,1,6.76-3.19c2.52-.92,5.12-1.65,7.64-2.35l.9-.25a1.49,1.49,0,0,1,1.56.53c6.44-4.52,9.3-6.39,10.21-6.23s.95,1.12,1.05,1.72l0,.2a8.87,8.87,0,0,0,.89,2.69c1,1.67,3,1.76,4.16,1.67a3.43,3.43,0,0,0,2.39-1.66,8.08,8.08,0,0,0,.45-.76c.62-1.12,1.66-3,3.27-2.14a4.4,4.4,0,0,1,1.59,1.93,16.86,16.86,0,0,1,1.14,2.67c.14.41.27.83.38,1.25A9,9,0,0,1,506,286l.22,0A2.15,2.15,0,0,1,507.69,287.28Zm0,5a12.3,12.3,0,0,0-.87-4.55,1.2,1.2,0,0,0-.84-.73,1.18,1.18,0,0,0-1.08.26c-1.13,1-1.59,1.17-1.83,1.22a2.46,2.46,0,0,1-1.5-.32,1.84,1.84,0,0,0-.8-.26,2,2,0,0,0-.73.51,2.41,2.41,0,0,1-1.28.76,2.52,2.52,0,0,1-1.45-.51c-.27-.16-.57-.4-.76-.34a1.91,1.91,0,0,0-.79.42,2.63,2.63,0,0,1-1.35.6,2.51,2.51,0,0,1-1.39-.68,1.94,1.94,0,0,0-.71-.43,2.12,2.12,0,0,0-.84.33,1.8,1.8,0,0,1-2.71-.42,2,2,0,0,0-.65-.51,2,2,0,0,0-.89.23,2.25,2.25,0,0,1-1.43.25,2.47,2.47,0,0,1-1.21-1c-.19-.24-.4-.51-.55-.56a2.09,2.09,0,0,0-1,.11,2.22,2.22,0,0,1-1.39.07c-.9-.38-2.05-2.25-2.27-2.62a.48.48,0,0,0-.4-.21h-.13l-.9.25c-2.5.7-5.09,1.42-7.56,2.33a31.83,31.83,0,0,0-6.56,3.09,10.64,10.64,0,0,0-1.28,1,4.43,4.43,0,0,0-1.61,3,4.24,4.24,0,0,0,2.19,4.14,4.11,4.11,0,0,0,1.58.41c2.29.1,36-.38,36.26-.39h.1c.5,0,1,0,1.48-.05a16.72,16.72,0,0,0,3.14-.37c.58-.14.89-.27,1.09-.59a5.81,5.81,0,0,0,.61-1.9l0-.16A12.16,12.16,0,0,0,507.65,292.23ZM505,286a7.07,7.07,0,0,0-.23-1c-.12-.45-.24-.84-.37-1.22a17.47,17.47,0,0,0-1.08-2.53,3.67,3.67,0,0,0-1.18-1.52c-.62-.33-1.14.32-1.92,1.74a9.65,9.65,0,0,1-.53.88,4.57,4.57,0,0,1-3.11,2.06c-2.3.19-4.16-.6-5.1-2.16a9.79,9.79,0,0,1-1-3c0-.06,0-.15,0-.24a2.76,2.76,0,0,0-.27-.92,18.06,18.06,0,0,0-3.8,2.2l1.81,1.81a.5.5,0,0,1-.35.85.51.51,0,0,1-.36-.15l-1.95-1.95-1.17.8,2,2a.51.51,0,0,1,0,.71.52.52,0,0,1-.71,0l-2.08-2.09s0,0,0,0c-1,.7-2,1.39-2.8,2a5,5,0,0,0,1.33,1.5,1.79,1.79,0,0,0,.76-.11,2.71,2.71,0,0,1,1.55-.09,2.44,2.44,0,0,1,1,.9c.23.3.46.6.68.66a1.75,1.75,0,0,0,.8-.21,2.64,2.64,0,0,1,1.46-.28,2.47,2.47,0,0,1,1.16.79c.24.24.52.52.73.55s.5-.15.79-.31a2.56,2.56,0,0,1,1.4-.45,2.44,2.44,0,0,1,1.25.65.9.9,0,0,0,1.54.05,2.51,2.51,0,0,1,1.33-.61,2.6,2.6,0,0,1,1.32.49,1.89,1.89,0,0,0,.83.36,1.79,1.79,0,0,0,.7-.49,2.52,2.52,0,0,1,1.25-.77,2.44,2.44,0,0,1,1.38.34,1.94,1.94,0,0,0,.87.26,5,5,0,0,0,1.38-1A2.19,2.19,0,0,1,505,286Z" fill="#231f20"/><path d="M506.24,290.23a.5.5,0,0,1,.09.7.53.53,0,0,1-.4.19.52.52,0,0,1-.31-.1l-1.48-1.16a.5.5,0,1,1,.61-.79Z" fill="#231f20"/><path d="M503,292.23a.5.5,0,0,1-.37.83.49.49,0,0,1-.37-.16l-1.82-2a.5.5,0,0,1,0-.71.5.5,0,0,1,.7,0Z" fill="#231f20"/><path d="M498.15,293.7a.51.51,0,0,1-.23.67.54.54,0,0,1-.22.05.52.52,0,0,1-.45-.28l-1.4-2.85a.5.5,0,1,1,.89-.44Z" fill="#231f20"/><path d="M492.18,290.82v3.77a.5.5,0,0,1-1,0v-3.77a.5.5,0,0,1,1,0Z" fill="#231f20"/><path d="M487.56,289.59a.5.5,0,0,1,.23.67l-1.41,2.85a.51.51,0,0,1-.45.28.46.46,0,0,1-.22-.06.5.5,0,0,1-.23-.67l1.41-2.84A.5.5,0,0,1,487.56,289.59Z" fill="#231f20"/><path d="M483.91,288.42a.48.48,0,0,1,0,.7l-1.82,2a.49.49,0,0,1-.37.16.46.46,0,0,1-.33-.13.5.5,0,0,1,0-.71l1.83-2A.49.49,0,0,1,483.91,288.42Z" fill="#231f20"/><path d="M480.64,287a.5.5,0,0,1-.08.7l-1.49,1.16a.51.51,0,0,1-.31.11.49.49,0,0,1-.39-.2.5.5,0,0,1,.08-.7l1.49-1.16A.5.5,0,0,1,480.64,287Z" fill="#231f20"/><path d="M297,363.58l1,1.71L297,367a.48.48,0,0,0,0,.49l1,1.71-1,1.72a.48.48,0,0,0,0,.49l.68,1.22H269.89c-6.12,0-10-1.37-10-2.32V361a56.31,56.31,0,0,0,10,.86h27.74l-.68,1.21A.48.48,0,0,0,297,363.58Z" fill="#fdd600"/><path d="M297.67,359.88a.5.5,0,0,1,0,.49l-1,1.71,1,1.71a.55.55,0,0,1,0,.5l-1,1.7,1,1.72a.53.53,0,0,1,0,.49l-1,1.72,1,1.71a.52.52,0,0,1,0,.5.5.5,0,0,1-.43.25H284.37c-3.17,1.73-9.58,2.66-15.73,2.66-8.61,0-17.76-1.8-17.76-5.12,0-1.84,2.8-3.21,6.75-4.07v-6.28c-3.95-.86-6.75-2.23-6.75-4.07,0-3.32,9.15-5.12,17.76-5.12s17.75,1.8,17.75,5.12c0,1.84-2.79,3.21-6.74,4.07v.06h17.59A.48.48,0,0,1,297.67,359.88Zm-1,4.16-1-1.71a.48.48,0,0,1,0-.49l.68-1.21H268.64a56.31,56.31,0,0,1-10-.86v9.29c0,.95,3.89,2.32,10,2.32h27.74l-.68-1.22a.48.48,0,0,1,0-.49l1-1.72-1-1.71a.48.48,0,0,1,0-.49Zm-17-5.48c3.6-.81,5.74-2,5.74-3.06,0-1.94-6.88-4.12-16.75-4.12s-16.76,2.18-16.76,4.12c0,1.09,2.14,2.25,5.75,3.06l1,.2a58,58,0,0,0,20,0Zm2.18,13.82H268.64c-5.48,0-11-1.14-11-3.32v-2.2c-3.61.81-5.75,2-5.75,3.06,0,1.94,6.88,4.12,16.76,4.12A45.28,45.28,0,0,0,281.83,372.38Z" fill="#231f20"/><path d="M268.64,353.44c.8,0,7.82.06,7.82,2.06s-7,2.07-7.82,2.07-7.83-.06-7.83-2.07S267.84,353.44,268.64,353.44Zm6.79,2.06c-.42-.4-2.86-1.06-6.79-1.06s-6.38.66-6.8,1.06c.42.41,2.86,1.07,6.8,1.07S275,355.91,275.43,355.5Z" fill="#231f20"/><path d="M217.14,383.21v2.51a1.5,1.5,0,0,1-1.5,1.5H195.4a1.5,1.5,0,0,1-1.5-1.5v-2.51Z" fill="#fdd600"/><path d="M217.14,357.11v2.51H193.9v-2.51a1.5,1.5,0,0,1,1.5-1.5h20.24A1.5,1.5,0,0,1,217.14,357.11Z" fill="#fdd600"/><path d="M210.67,368.82v4h-3.23a.5.5,0,0,0-.5.5v3.24h-4v-3.24a.5.5,0,0,0-.5-.5h-3.23v-4h3.23a.5.5,0,0,0,.5-.5v-3.24h4v3.24a.5.5,0,0,0,.5.5Z" fill="#fdd600"/><path d="M216.89,381.46v3a2.5,2.5,0,0,1-2.5,2.5H194.15a2.5,2.5,0,0,1-2.5-2.5V355.86a2.5,2.5,0,0,1,2.5-2.5h6.51A49.26,49.26,0,0,1,198.45,343a.5.5,0,0,1,.66-.49,15.59,15.59,0,0,0,4.67,1h0c-.14-1.36-.32-2.59-.54-3.72a.51.51,0,0,1,.13-.44.47.47,0,0,1,.43-.15,8.57,8.57,0,0,0,5.51-.94.5.5,0,0,1,.5,0,.52.52,0,0,1,.24.44A48.93,48.93,0,0,1,207,353.36h7.37a2.5,2.5,0,0,1,2.5,2.5v25.6Zm-1,3V382H192.65v2.51a1.5,1.5,0,0,0,1.5,1.5h20.24A1.5,1.5,0,0,0,215.89,384.47Zm0-3.51V359.37H192.65V381Zm0-22.59v-2.51a1.5,1.5,0,0,0-1.5-1.5H194.15a1.5,1.5,0,0,0-1.5,1.5v2.51Zm-9.95-5c.69-1.08,2.85-8.52,3.13-13.82a9.56,9.56,0,0,1-4.68.74,58.61,58.61,0,0,1,.72,7.1.49.49,0,0,1-.47.52.48.48,0,0,1-.53-.47c-.05-1-.11-2-.2-2.93a.22.22,0,0,1-.14,0,15.22,15.22,0,0,1-4.27-.79,48.57,48.57,0,0,0,2.22,9.63Z" fill="#231f20"/><path d="M211,367.66v5a.5.5,0,0,1-.5.5h-3.23v3.24a.5.5,0,0,1-.5.5h-5a.51.51,0,0,1-.5-.5v-3.24H198a.5.5,0,0,1-.5-.5v-5a.5.5,0,0,1,.5-.5h3.23v-3.24a.51.51,0,0,1,.5-.5h5a.5.5,0,0,1,.5.5v3.24h3.23A.5.5,0,0,1,211,367.66Zm-1,4.51v-4h-3.23a.5.5,0,0,1-.5-.5v-3.24h-4v3.24a.5.5,0,0,1-.5.5h-3.23v4h3.23a.5.5,0,0,1,.5.5v3.24h4v-3.24a.5.5,0,0,1,.5-.5Z" fill="#231f20"/><path d="M155.69,367.29c3.43,5.06,3.75,15.19,3,16.25-.1.17-.79.75-5.57.86h-.16c-1.72.05-32.17.47-34.26.39-2.3-.08-5.14-1-6.33-2.91-.81-1.28,0-2.6,2.62-4.28a89.64,89.64,0,0,1,18.81-9.19c1.22-.43,2.5-.85,3.81-1.25a4.53,4.53,0,0,0,1.58.57l.66.1a.5.5,0,0,0,.15-1l-.65-.1a3.48,3.48,0,0,1-3-3.2l-1.23-16.38a4,4,0,0,1,3.8-4.28,1.42,1.42,0,0,1,1,.37c.88.79,1.31.91,1.56.94a2.06,2.06,0,0,0,1.34-.5,1.92,1.92,0,0,1,.62-.32c.14,0,.41.26.6.44a2.07,2.07,0,0,0,1.2.67,2,2,0,0,0,1.3-.59,1.72,1.72,0,0,1,.59-.36,1.65,1.65,0,0,1,.65.4,1.56,1.56,0,0,0,2.51-.11,1.92,1.92,0,0,1,.54-.39,1.66,1.66,0,0,1,.7.36,1.88,1.88,0,0,0,1.24.48,3.09,3.09,0,0,0,1.58-.92,1.37,1.37,0,0,1,1-.37,3.24,3.24,0,0,1,2.65,2,3.17,3.17,0,0,1,.25,1.61l-1.66,17a4.33,4.33,0,0,1-3.4,3.82.49.49,0,0,0-.38.59.5.5,0,0,0,.49.4h.1A5.39,5.39,0,0,0,155.69,367.29Z" fill="#fdd600"/><path d="M155.17,365.32c3.62,5.17,4.26,16.08,3.07,17.53-.44.8-2.36,1.21-6.37,1.3h-.16c-.24,0-26.77.4-33.11.4h-1.21c-2.37-.09-5.66-1-7.14-3.38-1.7-2.68,1.67-4.84,2.94-5.65a90.63,90.63,0,0,1,19-9.3c1-.36,2.09-.71,3.18-1a4.54,4.54,0,0,1-1.26-2.79L132.89,346a5,5,0,0,1,4.74-5.35,2.45,2.45,0,0,1,1.74.63,2.88,2.88,0,0,0,1,.69c.15,0,.45-.19.67-.34a2.08,2.08,0,0,1,1.25-.49,2.17,2.17,0,0,1,1.21.7c.17.15.44.4.56.41h0a1.71,1.71,0,0,0,.64-.39,1.92,1.92,0,0,1,1.21-.56,2.17,2.17,0,0,1,1.26.61,1.94,1.94,0,0,0,.58.37c.16,0,.44-.25.64-.43a2,2,0,0,1,1.14-.65,2.2,2.2,0,0,1,1.34.53,2,2,0,0,0,.56.32h0a2.64,2.64,0,0,0,1-.67,2.35,2.35,0,0,1,1.82-.63,4.28,4.28,0,0,1,3.79,4.67l-1.66,17A5.38,5.38,0,0,1,155.17,365.32Zm2.25,17c.77-1.06.45-11.19-3-16.25a5.39,5.39,0,0,1-2.22,1.06h-.1a.5.5,0,0,1-.49-.4.49.49,0,0,1,.38-.59,4.33,4.33,0,0,0,3.4-3.82l1.66-17a3.17,3.17,0,0,0-.25-1.61,3.24,3.24,0,0,0-2.65-2,1.37,1.37,0,0,0-1,.37,3.09,3.09,0,0,1-1.58.92,1.88,1.88,0,0,1-1.24-.48,1.66,1.66,0,0,0-.7-.36,1.92,1.92,0,0,0-.54.39,1.56,1.56,0,0,1-2.51.11,1.65,1.65,0,0,0-.65-.4,1.72,1.72,0,0,0-.59.36,2,2,0,0,1-1.3.59,2.07,2.07,0,0,1-1.2-.67c-.19-.18-.46-.43-.6-.44a1.92,1.92,0,0,0-.62.32,2.06,2.06,0,0,1-1.34.5c-.25,0-.68-.15-1.56-.94a1.42,1.42,0,0,0-1-.37,4,4,0,0,0-3.8,4.28l1.23,16.38a3.48,3.48,0,0,0,3,3.2l.65.1a.5.5,0,0,1-.15,1l-.66-.1a4.53,4.53,0,0,1-1.58-.57c-1.31.4-2.59.82-3.81,1.25a89.64,89.64,0,0,0-18.81,9.19c-2.62,1.68-3.43,3-2.62,4.28,1.19,1.89,4,2.83,6.33,2.91,2.09.08,32.54-.34,34.26-.39h.16C156.63,383,157.32,382.46,157.42,382.29Z" fill="#231f20"/><path d="M155.32,345.17a.5.5,0,0,1-.92.39l-.07-.15a.5.5,0,0,0-1,.14l-.24,2.29a.51.51,0,0,1-.5.45h0a.5.5,0,0,1-.45-.55l.24-2.29a1.5,1.5,0,0,1,2.87-.44Z" fill="#231f20"/><path d="M152.05,371.48a.5.5,0,0,1-.16.69.54.54,0,0,1-.26.07.49.49,0,0,1-.43-.24l-1.66-2.7a.5.5,0,0,1,.17-.69.49.49,0,0,1,.68.17Z" fill="#231f20"/><path d="M147.65,348a.51.51,0,0,1-.37.61.5.5,0,0,1-.6-.37l-.55-2.23a.47.47,0,0,0-.48-.38h0a.47.47,0,0,0-.48.37l-.58,2.25a.5.5,0,0,1-.48.37H144a.51.51,0,0,1-.36-.61l.58-2.25a1.48,1.48,0,0,1,1.45-1.12h0a1.48,1.48,0,0,1,1.45,1.14Z" fill="#231f20"/><path d="M146,369v4.32a.5.5,0,0,1-.5.5.51.51,0,0,1-.5-.5V369a.5.5,0,0,1,.5-.5A.5.5,0,0,1,146,369Z" fill="#231f20"/><path d="M141.26,368.61a.5.5,0,0,1,.17.69l-1.66,2.7a.51.51,0,0,1-.69.17.5.5,0,0,1-.16-.69l1.65-2.7A.51.51,0,0,1,141.26,368.61Z" fill="#231f20"/><path d="M139.12,347.74a.5.5,0,0,1-.45.55h0a.51.51,0,0,1-.5-.45l-.24-2.29a.5.5,0,0,0-.95-.14l-.07.15a.5.5,0,0,1-.92-.39L136,345a1.5,1.5,0,0,1,2.87.44Z" fill="#231f20"/></g><g id="aac3676a-9dcc-4a79-8d1d-d4ae41640087" data-name="CATEGORIES"><text transform="translate(105.42 72.41)" font-size="40" fill="#231f20" font-family="Antonio-Bold, Antonio" font-weight="700"><tspan letter-spacing="-0.01em">P</tspan><tspan x="17.87" y="0" letter-spacing="-0.01em">A</tspan><tspan x="36.56" y="0">TIENT CARE</tspan></text></g><g id="ff2a2c43-7519-4cf1-bc92-eaa85421ef79" data-name="LABELS"><text transform="translate(459.34 167.43)" font-size="6" fill="#231f20" font-family="Roboto-Regular, Roboto">lost-found</text><text transform="translate(389.42 167.43)" font-size="6" fill="#231f20" font-family="Roboto-Regular, Roboto">eme<tspan x="11.62" y="0" letter-spacing="-0.01em">r</tspan><tspan x="13.59" y="0">gency-</tspan><tspan x="31.08" y="0" letter-spacing="-0.01em">r</tspan><tspan x="33.05" y="0">oom</tspan></text><text transform="translate(320.41 167.43)" font-size="6" fill="#231f20" font-family="Roboto-Regular, Roboto">24hour-clock</text><text transform="translate(250.59 167.43)" font-size="6" fill="#231f20" font-family="Roboto-Regular, Roboto">24hour-plane</text><text transform="translate(109.46 167.43)" font-size="6" fill="#231f20" font-family="Roboto-Regular, Roboto">health-insu<tspan x="29.29" y="0" letter-spacing="-0.02em">r</tspan><tspan x="31.2" y="0">ance</tspan></text><text transform="translate(179.61 167.43)" font-size="6" fill="#231f20" font-family="Roboto-Regular, Roboto">calendar-dock</text><text transform="translate(109.62 242.55)" font-size="6" fill="#231f20" font-family="Roboto-Regular, Roboto">quic<tspan x="11.31" y="0" letter-spacing="-0.01em">k</tspan><tspan x="14.3" y="0">ca</tspan><tspan x="20.7" y="0" letter-spacing="-0.01em">r</tspan><tspan x="22.68" y="0">e-sign</tspan></text><text transform="translate(180.58 242.55)" font-size="6" fill="#231f20" font-family="Roboto-Regular, Roboto">u<tspan x="3.31" y="0" letter-spacing="-0.01em">r</tspan><tspan x="5.28" y="0">gent-ca</tspan><tspan x="25.16" y="0" letter-spacing="-0.01em">r</tspan><tspan x="27.13" y="0">e-sign</tspan></text><text transform="translate(250.52 242.55)" font-size="6" fill="#231f20" font-family="Roboto-Regular, Roboto">c<tspan x="3.14" y="0" letter-spacing="-0.01em">r</tspan><tspan x="5.11" y="0">oss-medical</tspan></text><text transform="translate(320.34 242.55)" font-size="6" fill="#231f20" font-family="Roboto-Regular, Roboto">ems</text><text transform="translate(390.45 242.55)" font-size="6" fill="#231f20" font-family="Roboto-Regular, Roboto">id-badge-staff</text><text transform="translate(460.27 242.55)" font-size="6" fill="#231f20" font-family="Roboto-Regular, Roboto">id-badge-<tspan x="24.71" y="0" letter-spacing="-0.01em">f</tspan><tspan x="26.72" y="0">ellow</tspan></text><text transform="translate(390.46 318.17)" font-size="6" fill="#231f20" font-family="Roboto-Regular, Roboto">id-badge-pediatrics</text><text transform="translate(459.83 318.17)" font-size="6" fill="#231f20" font-family="Roboto-Regular, Roboto">shoe-c<tspan x="17.79" y="0" letter-spacing="-0.01em">o</tspan><tspan x="21.17" y="0" letter-spacing="-0.01em">v</tspan><tspan x="24.04" y="0">er</tspan></text><text transform="translate(320.06 318.17)" font-size="6" fill="#231f20" font-family="Roboto-Regular, Roboto">id-badge-nurse</text><text transform="translate(250.24 318.17)" font-size="6" fill="#231f20" font-family="Roboto-Regular, Roboto">id-badge-physcian</text><text transform="translate(180 318.17)" font-size="6" fill="#231f20" font-family="Roboto-Regular, Roboto">id-badge-p<tspan x="28.08" y="0" letter-spacing="-0.01em">r</tspan><tspan x="30.05" y="0" letter-spacing="-0.01em">o</tspan><tspan x="33.42" y="0">vider</tspan></text><text transform="translate(109.34 318.17)" font-size="6" fill="#231f20" font-family="Roboto-Regular, Roboto">id-badge-<tspan x="24.71" y="0" letter-spacing="-0.01em">r</tspan><tspan x="26.68" y="0">esident</tspan></text><text transform="translate(109.34 392.69)" font-size="6" fill="#231f20" font-family="Roboto-Regular, Roboto">leg-c<tspan x="12.8" y="0" letter-spacing="-0.01em">o</tspan><tspan x="16.17" y="0" letter-spacing="-0.01em">v</tspan><tspan x="19.04" y="0">er</tspan></text><text transform="translate(179.98 392.69)" font-size="6" fill="#231f20" font-family="Roboto-Regular, Roboto">disin<tspan x="12.7" y="0" letter-spacing="-0.01em">f</tspan><tspan x="14.71" y="0">ecting-wipes</tspan></text><text transform="translate(249.72 392.69)" font-size="6" fill="#231f20" font-family="Roboto-Regular, Roboto">medical-tape</text></g></svg>