<svg xmlns="http://www.w3.org/2000/svg" viewBox="0 0 612 792"><g id="bd120028-6481-49ed-91a5-726dbfeb8854" data-name="ICONS"><path d="M283.93,133.07v-1.94a.24.24,0,0,0-.08.06,5,5,0,0,0-1.55,4.1v10.23a1.28,1.28,0,0,0,.35.84,1.18,1.18,0,0,0,1.28.24V133.07Z" fill="#fdd600"/><path d="M295.16,131a4.07,4.07,0,0,0-1.35-.67.5.5,0,0,1-.36-.48v-.24H291.7v22.7h-6v9.08a1.7,1.7,0,0,0,3.39,0,.5.5,0,0,1,.5-.5.5.5,0,0,1,.5.5,1.69,1.69,0,0,0,3.38,0V145.52a.5.5,0,0,1,1,0,1.19,1.19,0,0,0,2.38,0V135A4.88,4.88,0,0,0,295.16,131Z" fill="#fdd600"/><path d="M268.87,131.1a4.36,4.36,0,0,0-2.78-.85h-5.88a4.66,4.66,0,0,0-2.65,1.05,5,5,0,0,0-1.55,4.1v10.24a1.28,1.28,0,0,0,.35.83,1.21,1.21,0,0,0,1.34.23,1.24,1.24,0,0,0,.69-1.08.54.54,0,0,1,.51-.48.49.49,0,0,1,.49.5v15.84a1.7,1.7,0,0,0,3.39,0,.5.5,0,0,1,.5-.5.5.5,0,0,1,.5.5,1.69,1.69,0,0,0,3.38,0V145.65a.5.5,0,0,1,.5-.5.5.5,0,0,1,.5.5,1.18,1.18,0,0,0,1.19,1.18,1.2,1.2,0,0,0,1.19-1.18V135.12A4.85,4.85,0,0,0,268.87,131.1Z" fill="#fdd600"/><path d="M350,145.78a.49.49,0,0,1-.08-.62,44.71,44.71,0,0,0,3.9-7.57,8,8,0,0,0,.55-2.14c.23-4.42-1.18-12.55-3.93-15.23a7.44,7.44,0,0,0-5.09-2.23H345a6.92,6.92,0,0,0-4.85,2.14,10,10,0,0,0-2.06,3.53,8.49,8.49,0,0,1,5.36-1.75h.21a9.08,9.08,0,0,1,6.14,2.45l.16.15c-.91,2.34-3.91,7.25-6.62,11.38-1.53-2.13-2.93-4.21-4.08-6.07-.85-1.36-1.51-2.53-2-3.5a32.89,32.89,0,0,0-1.05,9c.1,1.75,1.79,5.37,4.54,9.68l0,.09a.49.49,0,0,1-.07.62l-10.17,9.4c.78,2.89,2,7.11,2.44,8.65,1.79-1.66,8.09-7.84,11.79-11.69l.2-.22a.41.41,0,0,1,.36-.15.48.48,0,0,1,.36.15c3.71,3.88,10.11,10.15,11.92,11.83.49-1.55,1.66-5.77,2.44-8.66Z" fill="#fdd600"/><path d="M154.73,278.6a9.08,9.08,0,0,0-12.82,0L136,284.53l11.78,11.78-12.44,12.43L123.55,297l-6,6a9.07,9.07,0,1,0,12.82,12.82l6-6,12.43-12.44,5.93-5.93A9.07,9.07,0,0,0,154.73,278.6Z" fill="#fdd600"/><path d="M204.21,282.4l-3.59-3.59a9.07,9.07,0,0,0-12.82,12.83l4.6,4.6.08-.08-1-1Z" fill="#fdd600"/><path d="M225,303.16l-5.51-5.51-12.82,12.82,5.51,5.52A9.07,9.07,0,1,0,225,303.16Z" fill="#fdd600"/><path d="M206.64,283.42l12.82,12.82,5-5a9.07,9.07,0,0,0-12.82-12.83Z" fill="#fdd600"/><path d="M205.31,310.39l-12.83-12.82-5.16,5.17a9.07,9.07,0,0,0,12.82,12.82Z" fill="#fdd600"/><path d="M425.22,275.43h-22.3a1.44,1.44,0,0,0-1.55,1.24v27.71a1.44,1.44,0,0,0,1.55,1.23h6.14a.5.5,0,0,1,.5.5l0,4.73,8.59,0,0-4.75a.51.51,0,0,1,.5-.5h6.51a1.44,1.44,0,0,0,1.56-1.23V276.67A1.45,1.45,0,0,0,425.22,275.43Z" fill="#fdd600"/><polygon points="345.13 396.94 345.13 369.49 338.37 369.49 338.37 396.94 339.29 396.94 344.22 396.94 345.13 396.94" fill="#fdd600"/><path d="M215.11,365.62,212.43,363,183,395.28a1.15,1.15,0,0,0,.34.47,1.5,1.5,0,0,0,.72.43l25.23-24.85h0l1.77-1.75.85-.84h0l.71-.7h0Z" fill="#fdd600"/><path d="M506,448.39H492.25l-17,.09h0a.51.51,0,0,1-.34-.13l-9.27-8.42a1.9,1.9,0,0,0-2.66.19,1.9,1.9,0,0,0,.18,2.67l9.24,8.84v1.23h-6.74a2.48,2.48,0,0,0,0,5l40.35,0a2.53,2.53,0,0,0,2.52-2.53v-4.35A2.52,2.52,0,0,0,506,448.39Z" fill="#fdd600"/><path d="M155.94,531.92H142.19l-17,.09h0a.51.51,0,0,1-.34-.13l-9.25-8.4a1.89,1.89,0,0,0-2.47,2.85l9.41,9v1h-6.92a2.47,2.47,0,1,0,0,4.94l40.27,0a2.52,2.52,0,0,0,2.52-2.52v-4.34A2.52,2.52,0,0,0,155.94,531.92Z" fill="#fdd600"/><path d="M281.56,221.93a37.15,37.15,0,0,0-4.75-.31,34.52,34.52,0,0,0-8.84,1.12c-6.34,1.72-10.28,5-10.28,8.7,0,5.41,8.58,9.81,19.12,9.81s19.13-4.4,19.13-9.81C295.94,227,290,223.05,281.56,221.93Z" fill="#fdd600"/><path d="M264.38,205.39h0a18.53,18.53,0,0,0-7,1.3c-3.25,1.33-5.19,3.49-5.19,5.78,0,3.9,5.47,7.07,12.19,7.07s12.2-3.17,12.2-7.07S271.11,205.39,264.38,205.39Z" fill="#fdd600"/><path d="M291.66,198.53a18.62,18.62,0,0,0-2.82-.21h0c-5.7,0-10.51,2.54-10.51,5.55s4.81,5.54,10.51,5.54,10.52-2.54,10.52-5.54C299.35,201.4,296.19,199.2,291.66,198.53Z" fill="#fdd600"/><path d="M279.94,219.19a37.38,37.38,0,0,0-4.88-.32A34.74,34.74,0,0,0,266,220c-6.8,1.84-11,5.54-11,9.66,0,6,9,10.81,20.12,10.81s20.13-4.85,20.13-10.81C295.19,224.7,288.92,220.38,279.94,219.19Zm-4.88,20.31c-10.54,0-19.12-4.4-19.12-9.81,0-3.65,3.94-7,10.28-8.7a34.52,34.52,0,0,1,8.84-1.12,37.15,37.15,0,0,1,4.75.31c8.46,1.12,14.38,5,14.38,9.51C294.19,235.1,285.61,239.5,275.06,239.5Z" fill="#231f20"/><path d="M275.83,210.72c0-4.46-5.92-8.08-13.2-8.08h0a19.51,19.51,0,0,0-7.38,1.37c-3.64,1.5-5.81,4-5.81,6.71,0,4.45,5.92,8.07,13.19,8.07S275.83,215.17,275.83,210.72Zm-25.39,0c0-2.29,1.94-4.45,5.19-5.78a18.53,18.53,0,0,1,7-1.3h0c6.73,0,12.2,3.17,12.2,7.08s-5.47,7.07-12.2,7.07S250.44,214.62,250.44,210.72Z" fill="#231f20"/><path d="M290.1,195.79a19.28,19.28,0,0,0-3-.22h0c-6.46,0-11.52,2.88-11.52,6.55s5.06,6.54,11.52,6.54,11.51-2.87,11.51-6.54C298.64,199.14,295.13,196.54,290.1,195.79Zm-3,11.87c-5.71,0-10.52-2.54-10.52-5.54s4.81-5.55,10.52-5.55h0a18.59,18.59,0,0,1,2.81.21c4.53.67,7.69,2.87,7.69,5.34C297.64,205.12,292.83,207.66,287.13,207.66Z" fill="#231f20"/><path d="M287.05,228a.5.5,0,0,0-.5.5c0,2.66-5.26,4.9-11.49,4.9-5.34,0-10.06-1.64-11.23-3.9a.5.5,0,1,0-.89.46c1.35,2.62,6.34,4.44,12.12,4.44,7,0,12.49-2.59,12.49-5.9A.5.5,0,0,0,287.05,228Z" fill="#231f20"/><path d="M292.23,202.13a7.2,7.2,0,0,1-4.75,1.47h0c-2.92,0-5.39-1.25-5.39-2.73a.5.5,0,0,0-.5-.5.51.51,0,0,0-.5.5c0,2.09,2.81,3.73,6.39,3.73h0a8.08,8.08,0,0,0,5.44-1.75.5.5,0,1,0-.69-.72Z" fill="#231f20"/><path d="M269.89,211.43a.5.5,0,1,0-.67-.74c-1.34,1.23-3.87,2-6.59,2a10.94,10.94,0,0,1-6-1.57.5.5,0,0,0-.57.83,12,12,0,0,0,6.61,1.74C265.64,213.68,268.35,212.84,269.89,211.43Z" fill="#231f20"/><path d="M257.3,207.8l.15,0a19.31,19.31,0,0,1,5.61-.8h0a.5.5,0,0,0,.5-.5.49.49,0,0,0-.51-.5,20.28,20.28,0,0,0-5.9.85.5.5,0,0,0,.14,1Z" fill="#231f20"/><path d="M267.21,226l.13,0a33,33,0,0,1,7.18-1.08.5.5,0,0,0,.48-.52.49.49,0,0,0-.52-.48,33.76,33.76,0,0,0-7.4,1.12.5.5,0,0,0,.13,1Z" fill="#231f20"/><path d="M284.54,199.76h1.51a.5.5,0,0,0,0-1h-1.51a.5.5,0,0,0,0,1Z" fill="#231f20"/><path d="M140.68,350.66l-6.88,0-12.29,10.4v16.31a6.06,6.06,0,0,0,6,6h19.91a6.06,6.06,0,0,0,6.05-6V361.2ZM138.59,379h-5.41v-3.47h5.41Zm1.57-4.47h-9V363.7h9Z" fill="#fdd600"/><path d="M152.58,358.83,139.42,348a.54.54,0,0,0-.32-.12l-7.23,0a.5.5,0,0,0-.33.12l-12.6,10.66a.53.53,0,0,0-.18.38v16.55a7.05,7.05,0,0,0,7,7h9.6a14.55,14.55,0,0,1-2.31,6.5C129,395.45,121.5,396,120.66,396a.5.5,0,0,0,0,1h0c1.46-.06,8.94-.71,13.24-7.26a15.83,15.83,0,0,0,2.48-7.05h9.3a7.05,7.05,0,0,0,7.05-7V359.22A.49.49,0,0,0,152.58,358.83Zm-.81,16.81a6.06,6.06,0,0,1-6.05,6h-9.23a15.28,15.28,0,0,0,0-1.66h2.6a.5.5,0,0,0,.5-.5v-4h1.07a.5.5,0,0,0,.5-.5V363.2a.5.5,0,0,0-.5-.5h-10a.5.5,0,0,0-.5.5v11.85a.5.5,0,0,0,.5.5h1.55v4a.5.5,0,0,0,.5.5h2.81c0,.48,0,1,0,1.66h-9.68a6.06,6.06,0,0,1-6-6V359.33l12.29-10.4,6.88,0,12.84,10.54Zm-12.68-1.09h-8V363.7h9v10.85Zm-5.91,1h5.41V379h-5.41Z" fill="#231f20"/><path d="M228.5,200.88a4.92,4.92,0,0,0-3-1.6c-4.13-1.07-11.19-.8-14.46,1.16a19.79,19.79,0,0,0-6.23,6.69.46.46,0,0,1-.33.23.48.48,0,0,1-.4-.09l-.34-.26s-5-3.83-9.94-4.57-7.62.18-8.06.95,1.92,8.37,4.55,12c1,1.37,1.49,1.37,1.57,1.36H192a.5.5,0,0,1,.23,1,16.31,16.31,0,0,0-5.44,4.47c-2.37,3-3.85,10.4-3,15.22.29,1.77.87,3,1.66,3.48.6.4,1.8.42,3.36.07,4.16-.93,10.33-4.4,12.35-7.64a18.34,18.34,0,0,0,2.26-6.77.5.5,0,0,1,.35-.4.49.49,0,0,1,.51.13c.09.1,4.37,4.69,9.06,6.26s7.53,1.12,8.11.45c.61-.88-1-9.75-3.19-13.34-.5-.8-.88-1.07-1.08-1a.51.51,0,0,1-.57-.42.5.5,0,0,1,.42-.57h.15a.38.38,0,0,1,.15-.09,15.72,15.72,0,0,0,1.48-.59c3.49-1.61,8.18-7.53,9.66-12.18C228.92,203,229,201.69,228.5,200.88Zm-27.06,16.26a.14.14,0,0,0,0,.06l-.17.29a.41.41,0,0,1-.05.09l-.15.23-.1.15-.15.2-.13.16-.17.2-.12.13a2.55,2.55,0,0,1-.23.24l-.08.07-.32.29h0l-.52.39-.44.29a8.3,8.3,0,0,1-5.88,1.27,2.35,2.35,0,0,1-.94-.45.7.7,0,0,1-.16-.19c-.27-.45.09-2.51,1.21-4.28l0,0,.19-.28a.91.91,0,0,0,.11-.16,6.76,6.76,0,0,1,1.11-1.16h0a4.64,4.64,0,0,1,.89-.6,9.45,9.45,0,0,1,4-1.08v0a4.76,4.76,0,0,0,.1.77c0,.05,0,.11.05.16a2.86,2.86,0,0,0,.15.41,10.44,10.44,0,0,0-5.29,3.86.51.51,0,0,0,.16.69.5.5,0,0,0,.27.08.49.49,0,0,0,.42-.24c.9-1.41,3.77-3.52,5-3.45a.36.36,0,0,0,.21,0,1.85,1.85,0,0,0,.33.21l.23.12.45.16.29.08.19,0A5.15,5.15,0,0,1,201.44,217.14Zm8.9-7.72A7.5,7.5,0,0,1,207,213.9a9,9,0,0,1-4.47,1,6.79,6.79,0,0,1-.59-.41s.08-.06.1-.1c.91-1.44,3.46-3.37,4.71-3.32a.5.5,0,0,0,.05-1c-1.76-.1-4.57,2.2-5.58,3.74l0,0a3.73,3.73,0,0,1-.28-3,6.93,6.93,0,0,1,2.65-2.81,9.13,9.13,0,0,1,4.65-1.4,5.6,5.6,0,0,1,1.25.14,1.75,1.75,0,0,1,1.07.63A3.51,3.51,0,0,1,210.34,209.42Z" fill="#fdd600"/><path d="M227.61,198.88c-.51-.88-1.72-1.58-3.59-2.06-4.33-1.13-11.65-.88-15.23,1.27a20.32,20.32,0,0,0-6.28,6.55c-.76-.57-5.47-4-10.29-4.69-5.24-.78-8.33.15-9.08,1.43-.9,1.53,2.2,9.52,4.34,12.7a6.86,6.86,0,0,0,1.53,1.74A17.1,17.1,0,0,0,184.2,220c-2.55,3.24-4.1,10.86-3.24,16,.35,2.09,1,3.49,2.1,4.16a3.57,3.57,0,0,0,2,.48,10,10,0,0,0,2.15-.27c4.37-1,10.78-4.54,13-8.09a18.41,18.41,0,0,0,2.23-6.17c1.41,1.38,4.9,4.51,8.79,5.81,5,1.66,8.22,1.27,9.18.15,1.18-1.39-.9-10.58-2.88-14.13a5.92,5.92,0,0,0-.93-1.31l.83-.35c3.76-1.74,8.61-7.83,10.19-12.79C228.22,201.52,228.23,200,227.61,198.88Zm-39.05,15c-2.63-3.63-5-11.12-4.56-12s3-1.7,8.07-.95c4.83.73,9.74,4.42,9.92,4.56a18.52,18.52,0,0,0-2.05,5,7.38,7.38,0,0,0-.38,1c-.54-1.34-4.29-4.56-5-5.13a14.57,14.57,0,0,0-6.21-2.4.5.5,0,0,0-.52.48.5.5,0,0,0,.48.52,13.64,13.64,0,0,1,5.64,2.19c1,.8,4.37,3.81,4.71,4.73a.87.87,0,0,0,.08.1,10.61,10.61,0,0,0-3.83,1.16,5.8,5.8,0,0,0-1,.65,18,18,0,0,0-3.82,1.42C189.93,215.23,189.44,215.09,188.56,213.89Zm22-6.51a3.51,3.51,0,0,1-.18,2A7.5,7.5,0,0,1,207,213.9a9,9,0,0,1-4.47,1,6.79,6.79,0,0,1-.59-.41s.08-.06.1-.1c.91-1.44,3.46-3.37,4.71-3.32a.5.5,0,0,0,.05-1c-1.76-.1-4.57,2.2-5.58,3.74l0,0a3.73,3.73,0,0,1-.28-3,6.93,6.93,0,0,1,2.65-2.81,9.13,9.13,0,0,1,4.65-1.4,5.6,5.6,0,0,1,1.25.14A1.75,1.75,0,0,1,210.52,207.38Zm-9.32,10.2-.15.23-.1.15-.15.2-.13.16-.17.2-.12.13a2.55,2.55,0,0,1-.23.24l-.08.07-.32.29h0l-.52.39-.44.29a8.3,8.3,0,0,1-5.88,1.27,2.35,2.35,0,0,1-.94-.45.7.7,0,0,1-.16-.19c-.27-.45.09-2.51,1.21-4.28l0,0,.19-.28a.91.91,0,0,0,.11-.16,6.76,6.76,0,0,1,1.11-1.16h0a4.64,4.64,0,0,1,.89-.6,9.45,9.45,0,0,1,4-1.08v0a4.76,4.76,0,0,0,.1.77c0,.05,0,.11.05.16a2.86,2.86,0,0,0,.15.41,10.44,10.44,0,0,0-5.29,3.86.51.51,0,0,0,.16.69.5.5,0,0,0,.27.08.49.49,0,0,0,.42-.24c.9-1.41,3.77-3.52,5-3.45a.36.36,0,0,0,.21,0,1.85,1.85,0,0,0,.33.21l.23.12.45.16.29.08.19,0a5.15,5.15,0,0,1-.45,1.26.14.14,0,0,0,0,.06l-.17.29A.41.41,0,0,1,201.2,217.58Zm-1.88,14.2c-2,3.25-8.19,6.71-12.35,7.64-1.57.35-2.76.33-3.37-.07-.79-.51-1.36-1.71-1.65-3.48-.81-4.81.67-12.21,3-15.22a16.26,16.26,0,0,1,5.41-4.45h0a.45.45,0,0,0,.19-.11,19.11,19.11,0,0,1,1.87-.8c-1.51,2.08-2.13,4.83-1.56,5.79a1.59,1.59,0,0,0,.28.36,2.49,2.49,0,0,0,.83.54c-3.64,2.23-6.61,10.3-7.37,13.44a.49.49,0,0,0,.37.6l.12,0a.49.49,0,0,0,.48-.38c.91-3.74,4.5-12.85,8-13.25a.47.47,0,0,0,.2-.06h.26a7.86,7.86,0,0,0,1.33-.11l.17,0c.23,0,.48-.09.72-.15l.1,0c.28-.07.57-.17.86-.27l.12-.05.77-.33.18-.09a9.83,9.83,0,0,0,.9-.48s0,0,0,0a8,8,0,0,0,.82-.58l.2-.16c.23-.19.44-.38.64-.58l.11-.12a6.75,6.75,0,0,0,.55-.65,21.42,21.42,0,0,1-.07,6.33A18.41,18.41,0,0,1,199.32,231.78Zm20.29-.33c-.58.68-3.29,1.15-8.11-.45-4.22-1.41-8.09-5.25-8.9-6.09a20.54,20.54,0,0,0-.19-7.5,7.38,7.38,0,0,0,.4-1.14,13.35,13.35,0,0,0,2.52,1l.08,0c1.7.56,4.56,3.53,5.24,4.46s3.15,4.86,3.23,5.85a.5.5,0,0,0,.49.46h0a.49.49,0,0,0,.46-.53c-.11-1.41-2.86-5.61-3.41-6.36a23,23,0,0,0-3.4-3.39,18.68,18.68,0,0,0,2,.12,17.94,17.94,0,0,0,5.27-.8h0c.21,0,.59.23,1.09,1C218.66,221.71,220.22,230.57,219.61,231.45Zm7-28.23c-1.48,4.65-6.17,10.57-9.66,12.18-.48.22-1,.42-1.49.6h0a16.72,16.72,0,0,1-11.17-.16,10.92,10.92,0,0,0,3.15-1.05h0c2.56-1.31,3.58-4.23,3.84-5.09.17-.59.53-2.06.08-2.82a2,2,0,0,0-.58-.61c2.07-2.22,7.57-5.47,10.66-5.36a.48.48,0,0,0,.52-.48.5.5,0,0,0-.49-.51c-3.57-.12-9.57,3.49-11.64,5.91l-.15-.05a9.26,9.26,0,0,0-6.66,1.38,8,8,0,0,0-1.24.92,21.81,21.81,0,0,1,1.29-2.47A19.73,19.73,0,0,1,209.3,199c3.27-2,10.34-2.24,14.47-1.17,1.56.41,2.61,1,3,1.6C227.21,200.19,227.17,201.52,226.63,203.22Z" fill="#231f20"/><path d="M426.14,382.82l.78-.58-14.71-19.81-1.41,1-.67-.9,4.53-3.37-.67-.91-4.12,3h0l-.41.3-5.89-8,2.46-1.83-.68-.92L398,356.42l.68.91,2.65-2,5.95,7.93-4.74,3.52.68.91,4.75-3.52.67.9-1.22.91,14.71,19.81.77-.57,2.62,1.82.82-.62h0l.82-.6Z" fill="#fdd600"/><path d="M433.67,396.14l-8.11-10.93.71-.53a.49.49,0,0,0,.17-.55l-.88-2.68.61-.45h0l.33-.25a.49.49,0,0,0-.52-.84L411.18,360l2.73-2a.5.5,0,0,0,.2-.33.53.53,0,0,0-.09-.37l-1.28-1.72a.5.5,0,0,0-.7-.1l-4.12,3.05-4.71-6.35,2.07-1.54a.5.5,0,0,0,.1-.7l-1.27-1.71a.5.5,0,0,0-.33-.2.49.49,0,0,0-.37.09l-8.19,6.08a.5.5,0,0,0-.1.7l1.27,1.72a.54.54,0,0,0,.33.2h.07a.45.45,0,0,0,.3-.1l2.25-1.67,4.72,6.36-4.29,3.18a.5.5,0,0,0-.11.7l1.28,1.72a.5.5,0,0,0,.7.1l3.12-2.32,14.79,19.92a.5.5,0,0,0-.09.68.49.49,0,0,0,.4.21.54.54,0,0,0,.3-.1l.38-.28h0l.6-.45,2.31,1.62a.52.52,0,0,0,.29.09.45.45,0,0,0,.29-.1l.71-.52,8.12,10.92a.51.51,0,0,0,.4.2.53.53,0,0,0,.3-.09A.5.5,0,0,0,433.67,396.14ZM396.9,355.58l-.68-.91,7.38-5.49.68.92Zm3.24-1.16,2.26-1.68,4.72,6.35-2.26,1.68Zm1.3,11.55-.68-.91,7.36-5.46h0l4.12-3,.67.91Zm9-5.29,14.71,19.81-4.82,3.58-14.71-19.81Zm13.28,24.64L422,384.1l2.72-2,.66,2-.82.6h0Z" fill="#231f20"/><path d="M227.92,349.18a.5.5,0,0,0-.6-.17c-.46.19-11.2,4.85-14.68,9.24l-.13.15a.63.63,0,0,0-.1.29l-.08,2.83-.83-.8h0a.71.71,0,0,0-.14-.1h0l-.17,0h0a.56.56,0,0,0-.26.07h0l-.1.08h0l-29.89,32.8c0,.08-.42.76.53,1.68A2.28,2.28,0,0,0,183,396h.11a.46.46,0,0,0,.3-.15l31.54-31.08a.48.48,0,0,0,.15-.36.47.47,0,0,0-.15-.35l-.25-.25,13.21-13.95A.5.5,0,0,0,227.92,349.18ZM211.4,366.79l-1.33-1.26a.5.5,0,0,0-.69.73l1.31,1.23L209,369.14,207.77,368a.49.49,0,0,0-.7,0,.5.5,0,0,0,0,.71l1.21,1.14-25.46,25.09a1.5,1.5,0,0,1-.72-.43,1.15,1.15,0,0,1-.34-.47l29.4-32.24,2.68,2.58Zm5.4-6.78L214,363.07l-.64-.62.1-3.57h0c2.36-3,8.52-6.21,11.93-7.86Z" fill="#231f20"/><path d="M276,431.1a21.64,21.64,0,1,0,21.64,21.63A21.65,21.65,0,0,0,276,431.1Zm8.26,9.4a5,5,0,1,1-2,6.73A5,5,0,0,1,284.29,440.5Zm-26.09,1.71a5,5,0,1,1,2,6.72,5,5,0,0,1-2-6.72Zm9.33,17a5,5,0,1,1-.41-3.77A4.91,4.91,0,0,1,267.53,459.21Zm6.59-26.63a5,5,0,1,1-5,5A5,5,0,0,1,274.12,432.58Zm2.66,18.75a2.5,2.5,0,1,1-2.5-2.5A2.5,2.5,0,0,1,276.78,451.33Zm-2.59,18.35a5,5,0,1,1,4.95-5A5,5,0,0,1,274.19,469.68Zm16.61-9.76a5,5,0,0,1-6.72,2,5,5,0,0,1-2.39-3,5,5,0,0,1,4.77-6.35,4.93,4.93,0,0,1,4.75,3.56A4.91,4.91,0,0,1,290.8,459.92Z" fill="#fdd600"/><path d="M274.4,428.35A22.64,22.64,0,1,0,297,451,22.66,22.66,0,0,0,274.4,428.35Zm0,44.27A21.64,21.64,0,1,1,296,451,21.66,21.66,0,0,1,274.4,472.62Z" fill="#231f20"/><path d="M270.79,451.33a3.5,3.5,0,1,0,3.49-3.5A3.5,3.5,0,0,0,270.79,451.33Zm6,0a2.5,2.5,0,1,1-2.5-2.5A2.5,2.5,0,0,1,276.78,451.33Z" fill="#231f20"/><path d="M274.12,443.49a6,6,0,1,0-6-5.95A6,6,0,0,0,274.12,443.49Zm0-10.91a5,5,0,1,1-5,5A5,5,0,0,1,274.12,432.58Z" fill="#231f20"/><path d="M274.19,458.76a6,6,0,1,0,5.95,6A6,6,0,0,0,274.19,458.76Zm0,10.92a5,5,0,1,1,4.95-5A5,5,0,0,1,274.19,469.68Z" fill="#231f20"/><path d="M289.31,452.32a6,6,0,0,0-8.09,2.37,6,6,0,0,0,5.22,8.82,5.77,5.77,0,0,0,1.69-.25,6,6,0,0,0,1.18-10.94Zm1.49,7.6a5,5,0,0,1-6.72,2,5,5,0,0,1-2.39-3,5,5,0,0,1,4.77-6.35,4.93,4.93,0,0,1,4.75,3.56A4.91,4.91,0,0,1,290.8,459.92Z" fill="#231f20"/><path d="M259.7,449.81a5.87,5.87,0,0,0,2.85.73,6,6,0,0,0,1.68-.24,6,6,0,1,0-4.53-.49Zm-1.5-7.6a5,5,0,1,1,2,6.72,5,5,0,0,1-2-6.72Z" fill="#231f20"/><path d="M268,455a6,6,0,1,0,.49,4.54A6,6,0,0,0,268,455Zm-.47,4.25a5,5,0,1,1-.41-3.77A4.91,4.91,0,0,1,267.53,459.21Z" fill="#231f20"/><path d="M286.68,450.81a5.83,5.83,0,0,0,2.84-.73,6,6,0,1,0-2.84.73Zm-2.39-10.31a5,5,0,1,1-2,6.73A5,5,0,0,1,284.29,440.5Z" fill="#231f20"/><path d="M477.75,514.58a14.1,14.1,0,0,0-6.22,1.41,14.43,14.43,0,0,0-6.19,20.36,13.76,13.76,0,0,0,1.83,2.44,14.42,14.42,0,1,0,10.58-24.21Zm.06,26.52a12,12,0,0,1-8.44-3.45,11.83,11.83,0,0,1-2-2.54,12.06,12.06,0,0,1,2.75-15.35,12.73,12.73,0,0,1,3-1.81,12,12,0,1,1,4.61,23.15Z" fill="#fdd600"/><path d="M494.55,519.5a14.58,14.58,0,0,0-9.13,3.25,14.42,14.42,0,0,0-3.28,18.53,13.17,13.17,0,0,0,1.82,2.43,14.42,14.42,0,1,0,10.59-24.21Zm.06,26.52a12,12,0,1,1,12-12A12,12,0,0,1,494.61,546Z" fill="#fdd600"/><path d="M492.8,516.75a15.41,15.41,0,0,0-4.8.77,15.41,15.41,0,0,0-12-5.76,15.12,15.12,0,0,0-6.66,1.52,15.43,15.43,0,0,0-6.61,21.77,14.71,14.71,0,0,0,1.95,2.6,15.47,15.47,0,0,0,11.32,5,15.23,15.23,0,0,0,4.8-.78c.22.28.44.55.68.81a15.42,15.42,0,1,0,11.32-25.89ZM482.21,542a13.17,13.17,0,0,1-1.82-2.43,14.38,14.38,0,0,1,6.18-20.36,14.15,14.15,0,0,1,6.23-1.42A14.42,14.42,0,1,1,482.21,542Zm.82-21.73a15.37,15.37,0,0,0-5.66,11.95,15.55,15.55,0,0,0,1.14,5.82,11,11,0,0,1-10.18-2.88,10.31,10.31,0,0,1-1.8-2.33,11,11,0,0,1-1.5-5.54,11,11,0,0,1,6.81-10.19,10.88,10.88,0,0,1,4.22-.84,11,11,0,0,1,7.9,3.34C483.65,519.78,483.33,520,483,520.23Zm-7,21.38A14.42,14.42,0,0,1,465.42,537a13.69,13.69,0,0,1-1.83-2.43,14.4,14.4,0,0,1,6.19-20.36,14.11,14.11,0,0,1,6.22-1.42,14.38,14.38,0,0,1,11,5.14c-.3.12-.6.23-.88.37-.46.22-.9.47-1.34.73a12,12,0,0,0-13.35-2.87,12.45,12.45,0,0,0-3,1.82,12,12,0,0,0-2.75,15.34,12.23,12.23,0,0,0,2,2.54,12,12,0,0,0,8.44,3.45,11.81,11.81,0,0,0,2.87-.36c.18.38.38.75.6,1.12s.41.64.63,1A14.29,14.29,0,0,1,476,541.61Z" fill="#231f20"/><path d="M492.86,520.2a11.93,11.93,0,0,0-4.61.92,12,12,0,0,0-5.8,17.16,12,12,0,1,0,10.41-18.08Zm-7.74,19.91c-.1-.1-.18-.21-.27-.31a15.34,15.34,0,0,0,5.47-18.29,10.83,10.83,0,0,1,2.54-.31,11,11,0,1,1-7.74,18.91Zm2-12.86a11,11,0,0,1-4.53,8.9,11,11,0,0,1,3.28-12.44c.17-.13.35-.24.53-.37A11,11,0,0,1,487.09,527.25Zm1,0a12,12,0,0,0-.87-4.49,11.68,11.68,0,0,1,1.41-.72c.24-.1.48-.18.73-.26a14.38,14.38,0,0,1-5.18,17.27,10.5,10.5,0,0,1-.86-1.27c-.13-.22-.23-.46-.35-.7A12,12,0,0,0,488.09,527.25Z" fill="#231f20"/><path d="M212.54,119a3.76,3.76,0,0,0-1.89,1.18,6.71,6.71,0,0,1-4.55,2.16,6.47,6.47,0,0,1-4.5-2.19c-.68-.63-1.27-1.17-1.85-1.19-2.36-.12-5.26.42-6.84,5.58-1.35,4.42-2.06,13.27-2.23,15.52h5.44a.51.51,0,0,1,.36.15.5.5,0,0,1,.14.36l-.3,20.63a68.66,68.66,0,0,0,9.83,1,51.75,51.75,0,0,0,6.85-.51h0c1.33-.19,2.41-.38,3-.48l-.3-20.63a.51.51,0,0,1,.5-.5h5.44c-.16-2.26-.87-11.11-2.22-15.53C217.8,119.46,214.9,118.92,212.54,119Z" fill="#fdd600"/><path d="M218.58,122.58c-1.34-4.42-3.91-6.47-7.84-6.29a4.48,4.48,0,0,0-2.5,1.43,5.76,5.76,0,0,1-3.89,1.91,5.53,5.53,0,0,1-3.82-1.93,4.26,4.26,0,0,0-2.48-1.45c-3.94-.19-6.5,1.87-7.84,6.28-1.58,5.19-2.28,15.84-2.31,16.29a.53.53,0,0,0,.13.38.51.51,0,0,0,.37.15h5.47l-.3,20.55a.49.49,0,0,0,.41.49,69.24,69.24,0,0,0,10.41,1.13h.31a52.2,52.2,0,0,0,6.69-.52c2-.28,3.42-.56,3.43-.56a.49.49,0,0,0,.4-.5l-.3-20.54h5.47a.5.5,0,0,0,.5-.54C220.86,138.41,220.17,127.76,218.58,122.58Zm-3.7,15.82-.48-13.07a.5.5,0,0,0-.52-.48.5.5,0,0,0-.48.52l.49,13.33a.37.37,0,0,0,0,.14.14.14,0,0,0,0,.06l.31,20.63c-.56.1-1.64.29-3,.48h0a53.5,53.5,0,0,1-6.85.51,68.66,68.66,0,0,1-9.83-1l.21-14.18a.45.45,0,0,0,.1-.27l.51-13.78a.5.5,0,0,0-.48-.52.48.48,0,0,0-.51.48l-.27,7.13h-5.19c.16-2.25.87-11.1,2.22-15.52,1.58-5.16,4.48-5.7,6.84-5.58.58,0,1.17.57,1.85,1.19a6.47,6.47,0,0,0,4.5,2.19,6.69,6.69,0,0,0,4.55-2.16,3.8,3.8,0,0,1,1.89-1.18c2.35-.11,5.26.42,6.84,5.58,1.35,4.43,2.06,13.27,2.23,15.53Z" fill="#231f20"/><path d="M210.72,142.31a.5.5,0,0,0-.5.5v13.71a.5.5,0,0,0,.5.5.5.5,0,0,0,.5-.5V142.81A.5.5,0,0,0,210.72,142.31Z" fill="#231f20"/><path d="M206.77,149.3a.5.5,0,0,0-.5.5v3.94a.5.5,0,0,0,.5.5.51.51,0,0,0,.5-.5V149.8A.5.5,0,0,0,206.77,149.3Z" fill="#231f20"/><path d="M429.67,278.87a.51.51,0,0,0-.5.5v31.26a7.24,7.24,0,0,1-7.24,7.24h-2a7.24,7.24,0,0,1-7.24-7.24v-.53h4.22a.5.5,0,0,0,.5-.5l0-4.75h6a2.42,2.42,0,0,0,2.56-2.23V280.48s0,0,0,0v-5.54a2.42,2.42,0,0,0-2.56-2.24H416c-.32-1.11-1.83-1.92-3.7-1.92s-3.39.81-3.71,1.92h-7.4a2.41,2.41,0,0,0-2.55,2.24v27.71a2.41,2.41,0,0,0,2.55,2.23h5.65l0,4.73a.5.5,0,0,0,.49.5h4.36v.53a8.24,8.24,0,0,0,8.24,8.24h2a8.24,8.24,0,0,0,8.24-8.24V279.37A.5.5,0,0,0,429.67,278.87Zm-17.39-7.11c1.63,0,2.77.71,2.77,1.36s-1.14,1.36-2.77,1.36-2.78-.72-2.78-1.36S410.64,271.76,412.28,271.76Zm-11.11,1.92h7.45c.39,1,1.85,1.8,3.66,1.8s3.26-.76,3.66-1.8h7.53a1.45,1.45,0,0,1,1.56,1.24V280l-25.41,0v-5.05A1.44,1.44,0,0,1,401.17,273.68Zm6.64,30.68a.5.5,0,0,0-.5-.5h-6.14a1.44,1.44,0,0,1-1.55-1.23V281L425,281v4.12l-8,0h0a.5.5,0,0,0-.5.5.5.5,0,0,0,.5.5l8,0v3.22h-8a.5.5,0,0,0,0,1h8v3.42l-8,0h0a.5.5,0,0,0,0,1l8,0V298h-8a.5.5,0,1,0,0,1h8v3.64a1.44,1.44,0,0,1-1.56,1.23H417a.51.51,0,0,0-.5.5l0,4.75-8.59,0Z" fill="#231f20"/><path d="M434.81,516.67c-1.32-1.14-3-1.2-5.05-.93a.5.5,0,0,1-.55-.38c-.25-1.08-1.17-4.11-2.35-5.12a6.41,6.41,0,0,0-4.21-1.57l-.5,0a6.43,6.43,0,0,0-4.43,2.24c-1.7,2-1.57,5-.94,7,1.64,5.2-10.3,14.93-10.81,15.34a5.53,5.53,0,0,1-3.16.92h-.34c-2.09,0-4.94.11-6.55,2a6.5,6.5,0,0,0,.7,9.15c1.17,1,4.24,1.27,5.33,1.28a.51.51,0,0,1,.49.49,6.49,6.49,0,0,0,11.41,4.07c1.6-1.87,1.23-4.7,1-6.77l-.05-.34a5.49,5.49,0,0,1,.49-3.34c.28-.49,8.09-13.75,13.47-12.93,2.07.32,5.09,0,6.79-2A6.48,6.48,0,0,0,434.81,516.67Z" fill="#fdd600"/><path d="M433.72,514.16c-1.58-1.35-3.51-1.42-5.39-1.21-.31-1.12-1.2-4.05-2.56-5.22a7.5,7.5,0,0,0-10.56.8c-2,2.29-1.84,5.73-1.14,8,1.19,3.78-7.16,11.58-10.52,14.3a5.13,5.13,0,0,1-2.52.66h-.33c-2.28,0-5.39.12-7.29,2.33a7.51,7.51,0,0,0,.81,10.56c1.37,1.17,4.34,1.44,5.49,1.5a7.49,7.49,0,0,0,13.14,4.23c1.9-2.21,1.49-5.3,1.2-7.55l0-.34a4.88,4.88,0,0,1,.3-2.63c2.15-3.69,8.6-13.13,12.5-12.53,2.33.36,5.75,0,7.71-2.33A7.49,7.49,0,0,0,433.72,514.16Zm0,9.9c-1.7,2-4.72,2.32-6.79,2-5.38-.82-13.19,12.44-13.47,12.93a5.49,5.49,0,0,0-.49,3.34l.05.34c.27,2.07.64,4.9-1,6.77a6.49,6.49,0,0,1-11.41-4.07.51.51,0,0,0-.49-.49c-1.09,0-4.16-.28-5.33-1.28a6.5,6.5,0,0,1-.7-9.15c1.61-1.87,4.46-1.93,6.55-2h.34a5.53,5.53,0,0,0,3.16-.92c.51-.41,12.45-10.14,10.81-15.34-.63-2-.76-5,.94-7a6.43,6.43,0,0,1,4.43-2.24l.5,0a6.41,6.41,0,0,1,4.21,1.57c1.18,1,2.1,4,2.35,5.12a.5.5,0,0,0,.55.38c2.08-.27,3.73-.21,5.05.93A6.48,6.48,0,0,1,433.76,524.06Z" fill="#231f20"/><path d="M504.34,121l-.08-.08a10.78,10.78,0,0,0-15.21.3l-22.14,23a10.78,10.78,0,0,0,.3,15.21l.08.08a10.79,10.79,0,0,0,15.2-.3l22.15-23a10.79,10.79,0,0,0-.3-15.2Z" fill="#fdd600"/><path d="M486.71,123.19l-6.21,6.46a.5.5,0,0,0,0,.71.49.49,0,0,0,.34.14.51.51,0,0,0,.36-.15l6.22-6.46c3.21-3.35,8.17-4.14,11.53-1.84a.5.5,0,0,0,.57-.83C495.78,118.65,490.26,119.5,486.71,123.19Z" fill="#231f20"/><path d="M503.28,118.56l-.08-.08a11.76,11.76,0,0,0-16.62.32l-22.15,23a11.78,11.78,0,0,0,.33,16.61l.08.08a11.76,11.76,0,0,0,16.62-.32l22.14-23A11.75,11.75,0,0,0,503.28,118.56Zm-22.54,38.95a10.75,10.75,0,0,1-15.2.3h0l-.08-.08a10.79,10.79,0,0,1-.3-15.2l10.61-11,15.58,15Zm22.14-23L492,145.76l-15.59-15L487.3,119.5a10.75,10.75,0,0,1,15.2-.3l.08.08A10.75,10.75,0,0,1,502.88,134.48Z" fill="#231f20"/><path d="M416.11,117.87a22.39,22.39,0,1,0,22.46,22.39A22.44,22.44,0,0,0,416.11,117.87Z" fill="#fdd600"/><path d="M414.36,115.12a23.44,23.44,0,0,0-16.67,6.95l0,0s0,0,0,0a23.46,23.46,0,1,0,16.73-7ZM391.9,138.5A22.25,22.25,0,0,1,398,123.17l31.73,31.61A22.45,22.45,0,0,1,391.9,138.5Zm38.57,15.58-31.74-31.62a22.4,22.4,0,0,1,31.74,31.62Z" fill="#231f20"/><path d="M500.17,217.16a5,5,0,1,1-4-8,5.45,5.45,0,0,1,4,1.94,3.76,3.76,0,0,0,2-.26V198H469.39v32.74H483a.48.48,0,0,1,.46.33c.29.77.87,2.64.12,3.35a4.45,4.45,0,0,0-1.63,3.24,4,4,0,0,0,8,0,4.09,4.09,0,0,0-1.72-3.22c-.74-.67-.23-2.54,0-3.21h0a.5.5,0,0,1,.5-.5h0l13.43,0,0-13.32A4.11,4.11,0,0,0,500.17,217.16Z" fill="#fdd600"/><path d="M501.14,214.81s-2.64-1-3.46-.08a4,4,0,1,1-3.22-6.3,4.47,4.47,0,0,1,3.24,1.63c.71.74,2.58.16,3.35-.12a.5.5,0,0,0,.33-.47V195.7a.51.51,0,0,0-.5-.5H467.14a.5.5,0,0,0-.5.5v33.74a.5.5,0,0,0,.5.5h13.7a3.61,3.61,0,0,1,.25,2,5.45,5.45,0,0,0-1.94,4,5,5,0,0,0,10,0,5,5,0,0,0-2-4,4.1,4.1,0,0,1,.2-2l13.54,0a.39.39,0,0,0,.35-.14.53.53,0,0,0,.15-.36l0-14.19A.51.51,0,0,0,501.14,214.81Zm-.76,14.13-13.43,0h0a.5.5,0,0,0-.5.5h0c-.22.67-.73,2.54,0,3.21a4.09,4.09,0,0,1,1.72,3.22,4,4,0,0,1-8,0,4.45,4.45,0,0,1,1.63-3.24c.75-.71.17-2.58-.12-3.35a.48.48,0,0,0-.46-.33H467.64V196.2h32.74v12.91a3.76,3.76,0,0,1-2,.26,5.45,5.45,0,0,0-4-1.94,5,5,0,1,0,4,8,4.11,4.11,0,0,1,2,.21Z" fill="#231f20"/><path d="M489.7,384.29a.5.5,0,0,1-.25-.43l-.06-29.58a3.07,3.07,0,0,0-3-3.32,3.13,3.13,0,0,0-3.07,3.32v29.31a.49.49,0,0,1-.28.45,7.07,7.07,0,1,0,6.65.25Zm-5.1,7.6a3.12,3.12,0,1,1,3.12-3.12A3.12,3.12,0,0,1,484.6,391.89Z" fill="#fdd600"/><path d="M488.7,381.82l-.06-29.29a4,4,0,1,0-8.07,0v29a8.06,8.06,0,1,0,11.88,7.11A8.11,8.11,0,0,0,488.7,381.82Zm-4.3,13.89a7.07,7.07,0,0,1-3.1-13.42.5.5,0,0,0,.28-.45V352.53a3.13,3.13,0,0,1,3.07-3.32,3.07,3.07,0,0,1,3,3.32v2H485.7a.5.5,0,0,0,0,1h1.94v2.25h-1.86a.51.51,0,0,0-.5.5.5.5,0,0,0,.5.5h1.86V361l-.14,0h-1.89a.5.5,0,0,0-.5.5.5.5,0,0,0,.5.5h1.89a.35.35,0,0,0,.14,0l0,20.17a.52.52,0,0,0,.25.43,7.06,7.06,0,0,1-3.55,13.17Z" fill="#231f20"/><path d="M485.06,384.7V364.83a.5.5,0,0,0-.5-.5.5.5,0,0,0-.5.5v19.88a4.12,4.12,0,1,0,1,0Zm-.46,7.19a3.12,3.12,0,1,1,3.12-3.12A3.12,3.12,0,0,1,484.6,391.89Z" fill="#231f20"/><path d="M437.44,212,423.35,197.8a3.38,3.38,0,0,0-2.4-1,3.34,3.34,0,0,0-2.38,1l-25.12,25a3.39,3.39,0,0,0,0,4.78l14.08,14.17a3.39,3.39,0,0,0,4.79,0l25.11-25a3.42,3.42,0,0,0,0-4.79Zm-36.05,13.58a3.32,3.32,0,1,1-2.34-5.67,3.33,3.33,0,0,1,3.32,3.32A3.34,3.34,0,0,1,401.39,225.55Zm5.08-14.49a3.32,3.32,0,1,1,0,4.7A3.33,3.33,0,0,1,406.47,211.06Zm4.71,24.42a3.31,3.31,0,0,1-4.69,0,3.32,3.32,0,0,1,2.35-5.66h0a3.32,3.32,0,0,1,2.33,5.67Zm5-34.14a3.33,3.33,0,0,1,4.69,0,3.34,3.34,0,0,1,1,2.35,3.32,3.32,0,1,1-5.65-2.36ZM421,225.76a3.32,3.32,0,0,1-5.66-2.36,3.26,3.26,0,0,1,1-2.34,3.32,3.32,0,0,1,4.68,4.7Zm9.74-9.72a3.32,3.32,0,1,1,0-4.69,3.28,3.28,0,0,1,1,2.35A3.32,3.32,0,0,1,430.74,216Z" fill="#fdd600"/><path d="M436.39,209.93l-14.08-14.17a4.38,4.38,0,0,0-6.2,0L391,220.7a4.32,4.32,0,0,0-1.29,3.09A4.39,4.39,0,0,0,391,226.9l14.09,14.17a4.38,4.38,0,0,0,6.19,0l25.12-25a4.39,4.39,0,0,0,1.28-3.1A4.3,4.3,0,0,0,436.39,209.93Zm-19.57-13.48a3.38,3.38,0,0,1,4.78,0l6.59,6.63-9.61,9.54-9-9Zm1.77,36-9.18-9.24,9.17-9.11,9.18,9.23Zm-9.89-10-9-9,9.17-9.12,9,9Zm-18,1.35a3.37,3.37,0,0,1,1-2.39l7.32-7.28,9,9-9.72,9.65-6.58-6.62A3.39,3.39,0,0,1,390.71,223.8Zm19.85,16.58a3.39,3.39,0,0,1-4.79,0L399,233.52l9.72-9.65,9.18,9.23Zm25.11-25-7.2,7.16-9.18-9.24,9.6-9.54,6.8,6.83a3.42,3.42,0,0,1,0,4.79Z" fill="#231f20"/><path d="M415.48,206.74a4.32,4.32,0,0,0,6.11,0,4.24,4.24,0,0,0,1.27-3,4.3,4.3,0,0,0-4.3-4.33h0a4.32,4.32,0,0,0-3.06,7.36Zm.73-5.4a3.33,3.33,0,0,1,4.69,0,3.34,3.34,0,0,1,1,2.35,3.32,3.32,0,1,1-5.65-2.36Z" fill="#231f20"/><path d="M425.35,210.62a4.32,4.32,0,0,0,3,7.38h0a4.32,4.32,0,0,0,3.06-7.36A4.33,4.33,0,0,0,425.35,210.62Zm5.39,5.42a3.32,3.32,0,1,1,0-4.69,3.28,3.28,0,0,1,1,2.35A3.32,3.32,0,0,1,430.74,216Z" fill="#231f20"/><path d="M405.76,210.35a4.32,4.32,0,1,0,6.11,0A4.32,4.32,0,0,0,405.76,210.35Zm5.38,5.42a3.32,3.32,0,1,1,0-4.69A3.33,3.33,0,0,1,411.14,215.77Z" fill="#231f20"/><path d="M421.72,220.37a4.32,4.32,0,0,0-3.05-1.28h0a4.32,4.32,0,1,0,3,7.38,4.32,4.32,0,0,0,0-6.1Zm-.72,5.39a3.32,3.32,0,0,1-5.66-2.36,3.26,3.26,0,0,1,1-2.34,3.32,3.32,0,0,1,4.68,4.7Z" fill="#231f20"/><path d="M399.05,227.51a4.31,4.31,0,0,0,3.06-7.36,4.27,4.27,0,0,0-3.05-1.27h0a4.32,4.32,0,1,0,0,8.63Zm-2.34-6.67a3.32,3.32,0,0,1,2.34-1,3.33,3.33,0,0,1,3.32,3.32,3.32,3.32,0,0,1-5.67,2.33,3.31,3.31,0,0,1,0-4.69Z" fill="#231f20"/><path d="M411.91,230.09a4.33,4.33,0,0,0-3.05-1.28h0a4.32,4.32,0,0,0,0,8.64h0a4.32,4.32,0,0,0,3.07-7.36Zm-.73,5.39a3.31,3.31,0,0,1-4.69,0,3.32,3.32,0,0,1,2.35-5.66h0a3.32,3.32,0,0,1,2.33,5.67Z" fill="#231f20"/><path d="M359.18,152.62l-8.64-8c-.6-.55-1-.93-1.31-1.19A44.94,44.94,0,0,0,353,136a8.9,8.9,0,0,0,.61-2.42c.25-4.72-1.24-13.08-4.23-16a8.22,8.22,0,0,0-5.73-2.51h-.06v.5l-.15-.5h-.23a7.91,7.91,0,0,0-5.54,2.42c-3,2.92-4.48,11.29-4.23,16,.1,1.9,1.74,5.49,4.51,9.89l-10.07,9.32a.5.5,0,0,0-.15.49c2.71,10,2.77,10,3.27,10S342.2,152.44,343.58,151c2,2.08,11.87,12.09,12.48,12.09s.56,0,3.26-10A.49.49,0,0,0,359.18,152.62Zm-20.81-34.4a6.93,6.93,0,0,1,4.85-2.14h.39a7.39,7.39,0,0,1,5.08,2.23c1.36,1.33,2.4,4,3.06,6.89a8.46,8.46,0,0,0-.86-1.12s0,0,0,0l-.08-.07a.1.1,0,0,0,0,0l0,0-.3-.3a10.1,10.1,0,0,0-6.88-2.7h-.11a9.65,9.65,0,0,0-6.79,2.61,7.62,7.62,0,0,0-1,1.09v0h0c-.11.15-.22.32-.33.48C336,122.22,337,119.55,338.37,118.22Zm4.94,17.67c-1.53-2.13-2.93-4.21-4.08-6.07a32.51,32.51,0,0,1-2.61-4.82,6.2,6.2,0,0,1,.69-.74,8.69,8.69,0,0,1,6.11-2.35h.21a9.08,9.08,0,0,1,6.14,2.45l.16.15C349,126.85,346,131.76,343.31,135.89Zm-8.87-2.44a28.62,28.62,0,0,1,.26-5,16.13,16.13,0,0,1,1.24-2.53,39.83,39.83,0,0,0,2.44,4.39c1.22,2,2.73,4.2,4.36,6.46-1.57,2.36-3.17,4.61-4.09,5.79C336.11,138.52,334.53,135.12,334.44,133.45Zm-3.22,28.42c-.49-1.56-1.65-5.75-2.43-8.64l9.8-9,.09-.06.2-.21.07-.08a.1.1,0,0,0,0-.05c.9-1.06,2.92-3.89,4.71-6.62a.34.34,0,0,0,.06-.15c1.34-2,5.45-8.33,6.9-11.66a14.06,14.06,0,0,1,1.67,3.12s0,0,0,0a28.55,28.55,0,0,1,.27,5,7.58,7.58,0,0,1-.55,2.14,44.6,44.6,0,0,1-3.86,7.51l0,0a45.76,45.76,0,0,1-4.93,6.7l0,0-.21.21C339.32,154,333,160.19,331.22,161.87Zm24.63-.09c-1.78-1.64-7.86-7.6-11.6-11.49a47.38,47.38,0,0,0,4.44-6l9.59,8.88C357.5,156,356.34,160.23,355.85,161.78Z" fill="#231f20"/><polygon points="501.41 597.05 470.96 597.11 470.96 618.18 501.41 618.18 501.41 597.05" fill="#fdd600"/><path d="M509.19,605.43c0-2.55-3.71-4.57-8.53-4.68v-6a.51.51,0,0,0-.5-.5H468.63a.51.51,0,0,0-.5.5v6c-4.81.12-8.53,2.13-8.53,4.69s3.72,4.57,8.53,4.68v6.78a.51.51,0,0,0,.5.5h31.53a.51.51,0,0,0,.5-.5v-6.82C505.48,610,509.19,608,509.19,605.43Zm-12.86,3.48-23.87,0v-3.82l23.87.17Zm-23.87,1,23.87,0v6.52H472.46Zm23.87-5.65-23.87-.17V595.3h23.87Zm-35.73,1.19c0-1.94,3.41-3.58,7.53-3.69v7.37C464,609,460.6,607.4,460.6,605.47Zm8.53-10.17h2.33v21.13h-2.33Zm30.53,21.13h-2.33V595.3h2.33Zm1-7.32v-7.36c4.12.11,7.53,1.75,7.53,3.68S504.78,609,500.66,609.11Z" fill="#231f20"/><path d="M423.69,598a10.45,10.45,0,0,1-3.25-2.51c-1.17-1.22-2.19-2.27-4.33-2.31H416c-2.21,0-3.24,1.07-4.44,2.31a10.37,10.37,0,0,1-3.25,2.51c-6.21,2.78-9.1,5.84-9.1,9.61,0,8,7.53,14.42,16.79,14.42h.08c9.21,0,16.7-6.5,16.7-14.44C432.8,603.84,429.9,600.78,423.69,598Zm-10.12,14a3.44,3.44,0,0,1-2.83-2.8h2.1a1.38,1.38,0,0,0,.73.77Zm0-4.52a1.39,1.39,0,0,0-.72.73h-2.13a3.43,3.43,0,0,1,2.85-3Zm1,4.53v-2a1.35,1.35,0,0,0,.81-.79h2.15A3.45,3.45,0,0,1,414.57,612Zm.8-3.8a1.39,1.39,0,0,0-.8-.76v-2.26a3.44,3.44,0,0,1,3,3Z" fill="#fdd600"/><path d="M414.13,604.12a4.46,4.46,0,1,0,4.46,4.46A4.46,4.46,0,0,0,414.13,604.12Zm3.42,4.07h-2.18a1.39,1.39,0,0,0-.8-.76v-2.26A3.44,3.44,0,0,1,417.55,608.19Zm-4-3v2.28a1.39,1.39,0,0,0-.72.73h-2.13A3.43,3.43,0,0,1,413.57,605.18Zm-2.83,4h2.1a1.38,1.38,0,0,0,.73.77v2A3.44,3.44,0,0,1,410.74,609.18Zm3.83,2.81v-2a1.35,1.35,0,0,0,.81-.79h2.15A3.45,3.45,0,0,1,414.57,612Z" fill="#231f20"/><path d="M414.54,593.69a.51.51,0,0,0-.35-.15.53.53,0,0,0-.36.15L409.51,598a.51.51,0,0,0,0,.71.52.52,0,0,0,.71,0l4-4,3.95,4a.48.48,0,0,0,.7,0,.5.5,0,0,0,0-.71Z" fill="#231f20"/><path d="M436.92,596.89c-2.09-1.21-5.13,0-7.48,3a22.8,22.8,0,0,0-7.09-4.54,9.44,9.44,0,0,1-2.94-2.3c-1.24-1.28-2.52-2.61-5.16-2.61h-.09c-2.56,0-3.83,1.35-5.05,2.61a9.27,9.27,0,0,1-2.94,2.29,23.32,23.32,0,0,0-6.94,4.41c-2.33-2.86-5.3-4-7.36-2.84a4.45,4.45,0,0,0-1.94,4,11.26,11.26,0,0,0,1.64,5.69c1.6,2.77,4,4.69,6.21,5,2.64,5.63,9,9.63,16.43,9.65h.07c7.43,0,13.81-4,16.45-9.64h0c2.27-.17,4.82-2.15,6.48-5C439.54,602.6,439.41,598.33,436.92,596.89Zm-44.49,9.25a10.33,10.33,0,0,1-1.5-5.18,3.52,3.52,0,0,1,1.44-3.18c1.62-.94,4.17.22,6.16,2.72a8.23,8.23,0,0,0-2,5.37,13.43,13.43,0,0,0,.83,4.65A9.41,9.41,0,0,1,392.43,606.14Zm21.92,14.16h-.08c-9.26,0-16.79-6.47-16.79-14.42,0-3.77,2.89-6.83,9.1-9.61a10.37,10.37,0,0,0,3.25-2.51c1.2-1.24,2.23-2.31,4.44-2.31h.09c2.14,0,3.16,1.09,4.33,2.31a10.45,10.45,0,0,0,3.25,2.51c6.21,2.78,9.11,5.84,9.11,9.61C431.05,613.8,423.56,620.27,414.35,620.3Zm22-14.18c-1.35,2.34-3.36,4-5.17,4.45a13.56,13.56,0,0,0,.86-4.71,8.21,8.21,0,0,0-1.93-5.22c2-2.62,4.64-3.84,6.3-2.88C438.36,598.88,438.33,602.7,436.36,606.12Z" fill="#231f20"/><path d="M154.19,529.17h-6.33a.39.39,0,0,0,0-.18V513.91h2.18a.5.5,0,0,0,.5-.5.5.5,0,0,0-.5-.5H147.9v-1.76a.5.5,0,0,0-1,0v1.76h-4.83a.51.51,0,0,0-.35.15.47.47,0,0,0-.15.35v1.85h-1.24a.5.5,0,0,0-.5.5v6.59a.5.5,0,0,0,.5.5h1.2c-.33,4.27-1.19,6.27-2.7,6.28a.6.6,0,0,0-.23.06l-12.11.07a3.82,3.82,0,0,0-.09-3.15,10.11,10.11,0,0,0-3.14-3.82,9,9,0,0,0-4.69-2,4.34,4.34,0,0,0-3.59,1.09l-.41-.37a2.92,2.92,0,0,0-2.1-.7,2.88,2.88,0,0,0-1.71,5l8.69,8.32h-5.53a3.47,3.47,0,1,0,0,6.94h3.93v2.61a2.79,2.79,0,1,0,1,0v-2.6l33.24,0v2.64a2.82,2.82,0,1,0,1,0v-2.64h1.1a3.53,3.53,0,0,0,3.52-3.52v-4.34A3.53,3.53,0,0,0,154.19,529.17Zm-34,16.75a1.78,1.78,0,1,1-1.78-1.78A1.79,1.79,0,0,1,120.17,545.92Zm34.24,0a1.78,1.78,0,1,1-1.78-1.78A1.77,1.77,0,0,1,154.41,545.92Zm-13.58-29.66h2.45v5.59h-2.45Zm1.71,6.59h1.24a.5.5,0,0,0,.5-.5v-6.59a.5.5,0,0,0-.5-.5h-1.21v-1.35h4.33V529a.39.39,0,0,0,0,.18h-6.13C142,527.83,142.35,525.26,142.54,522.85Zm-24.06-1.59a8.06,8.06,0,0,1,4.16,1.81,9.33,9.33,0,0,1,2.84,3.42,2.65,2.65,0,0,1-.15,2.77h-1.65l-8-7.22A3.45,3.45,0,0,1,118.48,521.26ZM156.71,537a2.52,2.52,0,0,1-2.52,2.52l-40.27,0a2.47,2.47,0,1,1,0-4.94h38.7a.5.5,0,0,0,0-1H120.89l-9.46-9a1.89,1.89,0,0,1,2.47-2.85l9.25,8.4a.51.51,0,0,0,.34.13h0l17-.09h13.75a2.52,2.52,0,0,1,2.52,2.52Z" fill="#231f20"/><circle cx="133.73" cy="288.22" r="1.39" fill="#231f20"/><circle cx="137.69" cy="292.18" r="1.39" fill="#231f20"/><path d="M142.56,297.18a1.39,1.39,0,1,0-2,0A1.4,1.4,0,0,0,142.56,297.18Z" fill="#231f20"/><path d="M131.5,292.49a1.4,1.4,0,0,0,0-2,1.39,1.39,0,1,0-2,2A1.4,1.4,0,0,0,131.5,292.49Z" fill="#231f20"/><path d="M133.49,294.49a1.39,1.39,0,1,0,2,2,1.39,1.39,0,0,0-2-2Z" fill="#231f20"/><path d="M137.37,298.5a1.39,1.39,0,1,0,2,0A1.38,1.38,0,0,0,137.37,298.5Z" fill="#231f20"/><path d="M126.31,293.81a1.39,1.39,0,1,0,2,0A1.38,1.38,0,0,0,126.31,293.81Z" fill="#231f20"/><circle cx="131.25" cy="298.76" r="1.39" fill="#231f20"/><circle cx="135.14" cy="302.77" r="1.39" fill="#231f20"/><path d="M153.69,276.14a10.07,10.07,0,0,0-14.24,0L115.1,300.49a10.07,10.07,0,1,0,14.24,14.24l24.35-24.35a10.07,10.07,0,0,0,0-14.24Zm-18.42,31.14-12.74-12.75,11-11,12.74,12.74ZM128.63,314a9.07,9.07,0,1,1-12.82-12.82l6-6L134.62,308ZM153,289.67l-5.93,5.93-12.82-12.82,5.93-5.93A9.07,9.07,0,1,1,153,289.67Z" fill="#231f20"/><path d="M257.47,294.63l-4.23,0a18.93,18.93,0,0,0,10.89,17,.49.49,0,0,1,.27.45v5.66h21.85v-5.89a.48.48,0,0,1,.26-.43A19,19,0,0,0,297,294.55c-2.2,0-11.21.12-21.88.12C268,294.67,261.57,294.65,257.47,294.63Z" fill="#fdd600"/><path d="M296.69,285a6.75,6.75,0,0,0-10.27-8.77,6.65,6.65,0,0,0-1.61,4.22L275,291.92h-1.67c-7.17,0-13.55,0-17.64,0l-4.74,0h0a.5.5,0,0,0-.35.14.48.48,0,0,0-.15.36,19.88,19.88,0,0,0,11.16,18.26v5.86a.5.5,0,0,0,.5.5H285a.5.5,0,0,0,.5-.5V310.4a20,20,0,0,0,10.75-18.11.47.47,0,0,0-.15-.35.46.46,0,0,0-.36-.15l-7.86.08,4.11-4.51A6.64,6.64,0,0,0,296.69,285Zm-34,31v-5.34H284.5V316Zm22.16-6.34H262.1l-.11,0a18.89,18.89,0,0,1-10.5-16.8l4.23,0h0c4.1,0,10.48,0,17.65,0,10.67,0,19.68-.1,21.88-.12A19,19,0,0,1,284.81,309.64Zm6.6-23.11-4.88,5.34-10.17.05L285.69,281a.5.5,0,0,0,.12-.33,5.68,5.68,0,0,1,1.37-3.76,5.76,5.76,0,0,1,8.75,7.48,5.66,5.66,0,0,1-4.17,2A.48.48,0,0,0,291.41,286.53Z" fill="#231f20"/><path d="M439.5,691.36a12.2,12.2,0,0,0-2.13-5.16,13.81,13.81,0,0,0-1-1.17l-.28-.28a8.28,8.28,0,0,0-.82-.75,11.63,11.63,0,0,0-2.77-1.7,12.26,12.26,0,0,0-3.2-.89,12.61,12.61,0,0,0-3.41,0,10.17,10.17,0,0,0-1,.22.5.5,0,0,1-.48-.83l.21-.21c.17-.17.34-.34.49-.52a12.27,12.27,0,0,0,1.73-2.82,11.89,11.89,0,0,0,.91-6.15,12.08,12.08,0,0,0-1.94-5.23,11.66,11.66,0,0,0-1.75-2,10,10,0,0,1,1.48,2.3,11.74,11.74,0,0,1,.81,2.49,9.63,9.63,0,0,1,.12,2.61,3.28,3.28,0,0,1-.05.47l-.11.82a11,11,0,0,1-.44,1.49,10.35,10.35,0,0,1-1.23,2.33,10.52,10.52,0,0,1-3.91,3.33,12.22,12.22,0,0,1-2.3.84l-.52.09a4.75,4.75,0,0,1-.61.1l-.15,0a1,1,0,0,1-.31,0l-.87,0h-.09l-.49,0a2.46,2.46,0,0,1-.52,0h-.1a6.2,6.2,0,0,1-.71-.12l-.44-.08a12,12,0,0,1-2.36-.84,10.75,10.75,0,0,1-3.89-3.33,13.23,13.23,0,0,1-.7-1.13,10.6,10.6,0,0,1-.54-1.16,7.54,7.54,0,0,1-.44-1.62l-.12-.66a4,4,0,0,1-.05-.47,10.28,10.28,0,0,1,.12-2.68,11.74,11.74,0,0,1,.8-2.47,9.62,9.62,0,0,1,1.53-2.36,11.38,11.38,0,0,0-1.8,2.07,12.13,12.13,0,0,0-1.95,5.22c0,.45-.08,1-.08,1.53l0,.37a7.31,7.31,0,0,0,.1,1.14,11.56,11.56,0,0,0,.87,3.12,12.45,12.45,0,0,0,1.75,2.83,7.55,7.55,0,0,0,.68.71l.12.12a.51.51,0,0,1,.08.61.5.5,0,0,1-.57.23,11.23,11.23,0,0,0-1.8-.36,11.83,11.83,0,0,0-10.57,4.35,11.3,11.3,0,0,0-1.43,2.27,9.83,9.83,0,0,1,1.77-2.1,11.68,11.68,0,0,1,2.14-1.5,9,9,0,0,1,2.45-.89l.49-.1.25,0,.5-.08h.12a9.65,9.65,0,0,1,1.48,0,10.42,10.42,0,0,1,2.58.48,10.66,10.66,0,0,1,4.34,2.75,13.16,13.16,0,0,1,1.48,2c.1.19.17.34.25.47a5,5,0,0,1,.26.55l.46,1.21a.17.17,0,0,1,0,.1l.06.22s.18.7.21.9a4.91,4.91,0,0,1,.1.7c0,.15,0,.3.05.45a11.75,11.75,0,0,1-.11,2.49,10.8,10.8,0,0,1-2,4.71c-.28.34-.57.68-.87,1s-.65.63-.95.87a6.75,6.75,0,0,1-1.23.79.59.59,0,0,1-.2.12l-.58.29a4.32,4.32,0,0,1-.45.19,10.06,10.06,0,0,1-2.6.67,11.1,11.1,0,0,1-2.59,0,10.06,10.06,0,0,1-2.71-.77,11.57,11.57,0,0,0,8.08,1.43,14.58,14.58,0,0,0,1.49-.37l.36-.13a7.8,7.8,0,0,0,1-.42,11.89,11.89,0,0,0,2.73-1.76,12.8,12.8,0,0,0,2.19-2.5,25.53,25.53,0,0,0,1.49-3.26.49.49,0,0,1,.48-.34.5.5,0,0,1,.47.36c.06.21.12.42.19.62a11.87,11.87,0,0,0,8.5,7.64,11.7,11.7,0,0,0,2.65.3,9.44,9.44,0,0,1-2.64-.68,11.85,11.85,0,0,1-2.29-1.28,9.47,9.47,0,0,1-1.85-1.82,4.58,4.58,0,0,1-.3-.4l-.39-.53a14.2,14.2,0,0,1-.77-1.53,10.5,10.5,0,0,1-.68-2.54,10.73,10.73,0,0,1,.6-5.1,12.34,12.34,0,0,1,1.13-2.18l.32-.43c.14-.19.27-.36.37-.47l.89-.95,0,0,0,0h0l0,0v0l.11-.08a11.88,11.88,0,0,1,1.73-1.23,12.42,12.42,0,0,1,2.27-1,10.68,10.68,0,0,1,5.12-.21c.43.11.86.22,1.28.36a11,11,0,0,1,1.19.48,9.8,9.8,0,0,1,1.5.93l.45.36a2.83,2.83,0,0,1,.37.32A10.13,10.13,0,0,1,438,689a11.63,11.63,0,0,1,1.09,2.35,9.78,9.78,0,0,1,.48,2.77A11.92,11.92,0,0,0,439.5,691.36Zm-25.41-4.56-2.81-4.53,5.6,0Z" fill="#fdd600"/><path d="M438.73,689.45h0a13.07,13.07,0,0,0-2.3-5.59,16.08,16.08,0,0,0-1.08-1.28l-.28-.29a8,8,0,0,0-.91-.82,12.38,12.38,0,0,0-3-1.83,13,13,0,0,0-3.47-1,13.8,13.8,0,0,0-3.34,0,12.72,12.72,0,0,0,1.62-2.72,12.77,12.77,0,0,0-4.85-16c-.24-.11-.89-.39-1.26.06s-.06,1,.22,1.35a.35.35,0,0,0,.1.11,9.16,9.16,0,0,1,2.66,3.33,10.34,10.34,0,0,1,.74,2.28,8.57,8.57,0,0,1,.1,2.35,3.37,3.37,0,0,1,0,.4l-.1.76a12.3,12.3,0,0,1-.39,1.32,9.24,9.24,0,0,1-1.13,2.13,8.54,8.54,0,0,1-1.56,1.69,10.32,10.32,0,0,0-12.56-.06,8.49,8.49,0,0,1-1.5-1.63c-.22-.33-.44-.68-.63-1s-.38-.75-.54-1.13a9.48,9.48,0,0,1-.35-1.37l-.07-.39c0-.08,0-.17,0-.25a2.2,2.2,0,0,1,0-.36,9.32,9.32,0,0,1,.1-2.45,10.61,10.61,0,0,1,.74-2.25,9.09,9.09,0,0,1,2.65-3.34.52.52,0,0,0,.1-.11c.12-.16.47-.73.16-1.18s-.58-.39-1.13-.26l-.15.07a12.77,12.77,0,0,0-5.76,9.25,16,16,0,0,0-.09,1.66l0,.38a7.61,7.61,0,0,0,.11,1.24,12.73,12.73,0,0,0,2.62,6.18l-.4,0a12.82,12.82,0,0,0-13.79,9.25.5.5,0,0,0,0,.32,1.12,1.12,0,0,0,.71.67.92.92,0,0,0,.85-.26.52.52,0,0,0,.14-.19,9,9,0,0,1,2.4-3.52,9.91,9.91,0,0,1,1.95-1.38,8.55,8.55,0,0,1,2.22-.8l.42-.08.25-.05.48-.07h0a10.28,10.28,0,0,1,1.38,0,9.55,9.55,0,0,1,2.37.45c.23.07.46.18.69.27,0,.24,0,.48,0,.72a10.39,10.39,0,0,0,5.81,9.32c0,.12,0,.25,0,.37a9.69,9.69,0,0,1-1.82,4.24c-.26.31-.52.63-.8.92s-.59.57-.92.84a8.68,8.68,0,0,1-1.17.72l-.09.06-.3.14-.22.11a2.07,2.07,0,0,1-.34.15,9.27,9.27,0,0,1-2.36.62,10.29,10.29,0,0,1-2.37,0,9,9,0,0,1-4-1.55.52.52,0,0,0-.13-.06,1.05,1.05,0,0,0-1.11.19c-.24.27-.23.65,0,1.12a.42.42,0,0,0,.13.16,12.78,12.78,0,0,0,4.49,2.44,13,13,0,0,0,3.73.55,13.86,13.86,0,0,0,2.31-.2c.45-.1,1-.22,1.62-.41l.37-.14a8.49,8.49,0,0,0,1.14-.46,12.76,12.76,0,0,0,2.94-1.89,13.21,13.21,0,0,0,2.38-2.72,15.32,15.32,0,0,0,1.09-2.22,12.84,12.84,0,0,0,9,7.67,12.87,12.87,0,0,0,5.1.13.47.47,0,0,0,.22-.09c.3-.22.78-.67.61-1.18s-.84-.51-1.09-.5a9.14,9.14,0,0,1-4.21-.64,10.57,10.57,0,0,1-2.09-1.17,8.53,8.53,0,0,1-1.68-1.65l-.25-.34-.36-.49a11.49,11.49,0,0,1-.68-1.36,9.48,9.48,0,0,1-.62-2.32c0-.22,0-.45-.05-.67a10.39,10.39,0,0,0,6.54-9.63l.35-.12a9.72,9.72,0,0,1,4.61-.2c.39.1.8.2,1.17.33s.77.28,1.16.47a8.48,8.48,0,0,1,1.26.8l.25.19a1.56,1.56,0,0,0,.2.16l.28.24a9.94,9.94,0,0,1,1.58,1.86,11,11,0,0,1,1,2.15,9.45,9.45,0,0,1,.32,4.36c0,.37.11,1,.63,1.16s.94-.5,1.08-.74a.5.5,0,0,0,.05-.13A12.91,12.91,0,0,0,438.73,689.45Zm-.9,2.9a9.78,9.78,0,0,0-.48-2.77,11.63,11.63,0,0,0-1.09-2.35,10.13,10.13,0,0,0-1.73-2.05,2.83,2.83,0,0,0-.37-.32l-.45-.36a9.8,9.8,0,0,0-1.5-.93,11,11,0,0,0-1.19-.48c-.42-.14-.85-.25-1.28-.36a10.68,10.68,0,0,0-5.12.21,12.42,12.42,0,0,0-2.27,1,11.88,11.88,0,0,0-1.73,1.23l-.11.08v0l0,0h0l0,0,0,0-.89.95c-.1.11-.23.28-.37.47l-.32.43a12.34,12.34,0,0,0-1.13,2.18,10.73,10.73,0,0,0-.6,5.1,10.5,10.5,0,0,0,.68,2.54,14.2,14.2,0,0,0,.77,1.53l.39.53a4.58,4.58,0,0,0,.3.4,9.47,9.47,0,0,0,1.85,1.82,11.85,11.85,0,0,0,2.29,1.28,9.44,9.44,0,0,0,2.64.68,11.7,11.7,0,0,1-2.65-.3,11.87,11.87,0,0,1-8.5-7.64c-.07-.2-.13-.41-.19-.62a.5.5,0,0,0-.47-.36.49.49,0,0,0-.48.34,25.53,25.53,0,0,1-1.49,3.26,12.8,12.8,0,0,1-2.19,2.5,11.89,11.89,0,0,1-2.73,1.76,7.8,7.8,0,0,1-1,.42l-.36.13a14.58,14.58,0,0,1-1.49.37,11.57,11.57,0,0,1-8.08-1.43,10.06,10.06,0,0,0,2.71.77,11.1,11.1,0,0,0,2.59,0,10.06,10.06,0,0,0,2.6-.67,4.32,4.32,0,0,0,.45-.19l.58-.29a.59.59,0,0,0,.2-.12,6.75,6.75,0,0,0,1.23-.79c.3-.24.63-.56.95-.87s.59-.65.87-1a10.8,10.8,0,0,0,2-4.71,11.75,11.75,0,0,0,.11-2.49c0-.15,0-.3-.05-.45a4.91,4.91,0,0,0-.1-.7c0-.2-.21-.89-.21-.9l-.06-.22a.17.17,0,0,0,0-.1l-.46-1.21a5,5,0,0,0-.26-.55c-.08-.13-.15-.28-.25-.47a13.16,13.16,0,0,0-1.48-2,10.66,10.66,0,0,0-4.34-2.75,10.42,10.42,0,0,0-2.58-.48,9.65,9.65,0,0,0-1.48,0h-.12l-.5.08-.25,0-.49.1a9,9,0,0,0-2.45.89,11.68,11.68,0,0,0-2.14,1.5,9.83,9.83,0,0,0-1.77,2.1,11.3,11.3,0,0,1,1.43-2.27,11.83,11.83,0,0,1,10.57-4.35,11.23,11.23,0,0,1,1.8.36.5.5,0,0,0,.57-.23.51.51,0,0,0-.08-.61l-.12-.12a7.55,7.55,0,0,1-.68-.71,12.45,12.45,0,0,1-1.75-2.83,11.56,11.56,0,0,1-.87-3.12,7.31,7.31,0,0,1-.1-1.14l0-.37c0-.57,0-1.08.08-1.53a12.13,12.13,0,0,1,1.95-5.22,11.38,11.38,0,0,1,1.8-2.07,9.62,9.62,0,0,0-1.53,2.36,11.74,11.74,0,0,0-.8,2.47,10.28,10.28,0,0,0-.12,2.68,4,4,0,0,0,.05.47l.12.66a7.54,7.54,0,0,0,.44,1.62,10.6,10.6,0,0,0,.54,1.16,13.23,13.23,0,0,0,.7,1.13,10.75,10.75,0,0,0,3.89,3.33,12,12,0,0,0,2.36.84l.44.08a6.2,6.2,0,0,0,.71.12h.1a2.46,2.46,0,0,0,.52,0l.49,0h.09l.87,0a1,1,0,0,0,.31,0l.15,0a4.75,4.75,0,0,0,.61-.1l.52-.09A12.22,12.22,0,0,0,419,678a10.52,10.52,0,0,0,3.91-3.33,10.35,10.35,0,0,0,1.23-2.33,11,11,0,0,0,.44-1.49l.11-.82a3.28,3.28,0,0,0,.05-.47,9.63,9.63,0,0,0-.12-2.61,11.74,11.74,0,0,0-.81-2.49,10,10,0,0,0-1.48-2.3,11.66,11.66,0,0,1,1.75,2,12.08,12.08,0,0,1,1.94,5.23,11.89,11.89,0,0,1-.91,6.15,12.27,12.27,0,0,1-1.73,2.82c-.15.18-.32.35-.49.52l-.21.21a.5.5,0,0,0,.48.83,10.17,10.17,0,0,1,1-.22,12.61,12.61,0,0,1,3.41,0,12.26,12.26,0,0,1,3.2.89,11.63,11.63,0,0,1,2.77,1.7,8.28,8.28,0,0,1,.82.75l.28.28a13.81,13.81,0,0,1,1,1.17,12.2,12.2,0,0,1,2.13,5.16A11.92,11.92,0,0,1,437.83,692.35Zm-23.67-17.74a9.32,9.32,0,0,1,5.49,1.79,12.7,12.7,0,0,1-1.14.68,10.71,10.71,0,0,1-2.06.75l-.5.09a5.25,5.25,0,0,1-.55.09l-.21,0h-.14l-.83,0h-.61a1.54,1.54,0,0,1-.37,0l-.15,0a3.13,3.13,0,0,1-.6-.1l-.45-.08a10.78,10.78,0,0,1-2.1-.76,11.82,11.82,0,0,1-1.19-.73A9.37,9.37,0,0,1,414.16,674.61ZM404.77,684c0-.08,0-.15,0-.23A10.05,10.05,0,0,1,407,685.5a11.14,11.14,0,0,1,1.33,1.74c.07.16.15.31.23.46a4.45,4.45,0,0,1,.22.44c.22.59.37,1,.48,1.21h0l.05.21s.17.62.2.83a4.28,4.28,0,0,1,.09.61,4.09,4.09,0,0,0,0,.45c0,.27,0,.52,0,.78A9.39,9.39,0,0,1,404.77,684ZM418,692.56a10.43,10.43,0,0,1,.59-2.84,11.74,11.74,0,0,1,1-2c.11-.13.21-.27.31-.4a4.22,4.22,0,0,1,.3-.39l.86-.91a11.42,11.42,0,0,1,1.76-1.29c.24-.13.46-.23.69-.33A9.38,9.38,0,0,1,418,692.56Z" fill="#231f20"/><path d="M417.77,681.31l-7.39,0a.51.51,0,0,0-.44.25.49.49,0,0,0,0,.51l3.72,6a.5.5,0,0,0,.42.23h0a.51.51,0,0,0,.43-.23l3.68-5.95a.5.5,0,0,0-.43-.76Zm-3.68,5.49-2.81-4.53,5.6,0Z" fill="#231f20"/><path d="M491.41,661.81l-5.77,15.43a.57.57,0,0,0,.34.74,4.38,4.38,0,0,1,2.84,4.07,4.18,4.18,0,0,1-.08.72.6.6,0,0,0,.1.43.56.56,0,0,0,.38.23l17.38,2.92a22.57,22.57,0,0,1-7.35,12.73L488,685.47a.57.57,0,0,0-.81-.07,4.34,4.34,0,0,1-5.52,0,.54.54,0,0,0-.42-.13.59.59,0,0,0-.39.2l-11.28,13.68c-.14-.12-.27-.26-.4-.38a22.61,22.61,0,1,0,22.2-37Z" fill="#fdd600"/><path d="M480.08,683.2a.6.6,0,0,0,.1-.43,4.29,4.29,0,0,1-.08-.72,4.38,4.38,0,0,1,2.84-4.07.57.57,0,0,0,.34-.74l-5.41-14.48a22.64,22.64,0,0,0-14.34,21,22.24,22.24,0,0,0,.12,2.32l16.05-2.69A.59.59,0,0,0,480.08,683.2Z" fill="#fdd600"/><path d="M508.17,682.05a23.81,23.81,0,0,0-15.38-22.24h0a23.77,23.77,0,0,0-16.62,0h0a23.81,23.81,0,0,0-15.49,22.28A24.11,24.11,0,0,0,461,686v0a23.77,23.77,0,0,0,38.59,14.35h0A23.75,23.75,0,0,0,508.17,682.05Zm-1.16,0a23.62,23.62,0,0,1-.22,3.16L490,682.39c0-.11,0-.22,0-.34a5.55,5.55,0,0,0-3.06-4.92l6-16A22.65,22.65,0,0,1,507,682.05Zm-31-21,6,16.07a5.54,5.54,0,0,0-3.05,4.92c0,.12,0,.23,0,.34l-17,2.83a23.54,23.54,0,0,1-.22-3.17A22.64,22.64,0,0,1,476,661.06Zm-5.49,38.82,10.92-13.25a5.47,5.47,0,0,0,6.06,0l10.87,13.19a22.52,22.52,0,0,1-27.85.06Zm28.74-.8L488,685.47a.57.57,0,0,0-.81-.07,4.34,4.34,0,0,1-5.52,0,.54.54,0,0,0-.42-.13.59.59,0,0,0-.39.2l-11.28,13.68a22.66,22.66,0,0,1-7.41-12.79l17.5-2.93a.59.59,0,0,0,.38-.23.6.6,0,0,0,.1-.43,4.29,4.29,0,0,1-.08-.72,4.38,4.38,0,0,1,2.84-4.07.57.57,0,0,0,.34-.74l-6.2-16.58a22.44,22.44,0,0,1,14.74,0l-6.18,16.55a.57.57,0,0,0,.34.74,4.38,4.38,0,0,1,2.84,4.07,4.18,4.18,0,0,1-.08.72.6.6,0,0,0,.1.43.56.56,0,0,0,.38.23l17.38,2.92A22.57,22.57,0,0,1,499.25,699.08Z" fill="#231f20"/><path d="M504.28,445.64H490.5l-14,.07c.89-2-.32-4.66-3.23-7s-6.52-2.67-8.28-.9l-.44-.39a2.84,2.84,0,0,0-2.09-.71,2.89,2.89,0,0,0-1.72,5.05l8.71,8.33h-5.54a3.48,3.48,0,0,0,0,7h3.91v7.69a.5.5,0,0,0,.5.5.5.5,0,0,0,.5-.5v-7.7l33.28,0,0,7.71a.5.5,0,0,0,.5.5h0a.51.51,0,0,0,.5-.5l0-7.71h1.16a3.53,3.53,0,0,0,3.52-3.53v-4.35A3.53,3.53,0,0,0,504.28,445.64Zm-31.62-6.12c2.31,1.84,4,4.46,2.7,6.21h-1.65l-8-7.23C467.16,437.13,470.16,437.53,472.66,439.52Zm34.14,14a2.53,2.53,0,0,1-2.52,2.53l-40.35,0a2.48,2.48,0,0,1,0-5H502.7a.5.5,0,0,0,.5-.5.5.5,0,0,0-.5-.5H470.91l-9.48-9.07a1.9,1.9,0,0,1-.18-2.67,1.9,1.9,0,0,1,2.66-.19l9.27,8.42a.51.51,0,0,0,.34.13h0l17-.09h13.78a2.52,2.52,0,0,1,2.52,2.52Z" fill="#231f20"/><path d="M470.57,291.51a8.09,8.09,0,0,0,2.4-7.92,3.14,3.14,0,0,0-2-2.27,2.24,2.24,0,0,0-.68-.1,3.49,3.49,0,0,0-2.2.91,7.53,7.53,0,0,0-2.29,3.63c-.91,3-.09,6,1.85,6.56A3.14,3.14,0,0,0,470.57,291.51Z" fill="#fdd600"/><path d="M486,293.18h-2.83V276.61a.5.5,0,0,0-.5-.5.51.51,0,0,0-.5.5v17.07a.5.5,0,0,0,.5.5H486a.5.5,0,0,0,.5-.5A.51.51,0,0,0,486,293.18Z" fill="#231f20"/><path d="M503.2,285a.5.5,0,0,0-.62-.79l-.42.34v1.28Z" fill="none"/><path d="M494.81,286.29a5.82,5.82,0,0,1,5.81-5.82,6,6,0,0,1,1.54.21V275H480.91v23.79h21.25v-6.85a5.56,5.56,0,0,1-1.54.22A5.82,5.82,0,0,1,494.81,286.29Z" fill="#fdd600"/><path d="M500.59,285.07a1.23,1.23,0,1,0,1.23,1.23,1,1,0,0,0,0-.18l.38-.3v-1.28l-.93.74A1.19,1.19,0,0,0,500.59,285.07Z" fill="#fdd600"/><path d="M507.44,286.29a6.83,6.83,0,0,0-6-6.77V272.7a.5.5,0,0,0-.5-.5H478.66a.5.5,0,0,0-.5.5v24.79a.5.5,0,0,0,.5.5h10.83a33.14,33.14,0,0,1-1.87,5.36C483,313.66,474.18,319.79,468,317c-3-1.33-4.9-4.5-5.47-8.93a28.42,28.42,0,0,1,2.62-14.82c.25-.57.52-1.13.8-1.67a3.27,3.27,0,0,0,.7.08,4.51,4.51,0,0,0,2.83-1.14,9.1,9.1,0,0,0,2.71-9,3.78,3.78,0,0,0-6.43-1.95,8.56,8.56,0,0,0-2.6,4.12,8.45,8.45,0,0,0-.11,4.87,4.36,4.36,0,0,0,2,2.65c-.27.52-.53,1.06-.78,1.61a29.38,29.38,0,0,0-2.69,15.35c.61,4.79,2.76,8.24,6.05,9.72a8.6,8.6,0,0,0,3.57.75c6.17,0,13.35-5.91,17.39-14.91a34,34,0,0,0,2-5.77h10.39a.5.5,0,0,0,.5-.5v-4.43A6.83,6.83,0,0,0,507.44,286.29ZM464.09,284a7.53,7.53,0,0,1,2.29-3.63,3.49,3.49,0,0,1,2.2-.91,2.24,2.24,0,0,1,.68.1,3.14,3.14,0,0,1,2,2.27,8.09,8.09,0,0,1-2.4,7.92,3.14,3.14,0,0,1-2.88.81C464,290,463.18,287,464.09,284Zm30.72,2.28a5.82,5.82,0,1,1,5.81,5.82A5.82,5.82,0,0,1,494.81,286.29ZM489.89,297l-.15,0v0H479.16V273.2h21.25v6.28a6.81,6.81,0,0,0,0,13.62V297Z" fill="#231f20"/><path d="M501.82,286.3a1,1,0,0,0,0-.18L503.2,285a.5.5,0,0,0-.62-.79l-1.35,1.08a1.19,1.19,0,0,0-.64-.21,1.23,1.23,0,1,0,1.23,1.23Z" fill="#231f20"/><path d="M134.38,463.58v1.55h1.75v-1.55a.5.5,0,0,1,.5-.5h1.55v-1.76h-1.55a.5.5,0,0,1-.5-.5v-1.54h-1.75v1.54a.5.5,0,0,1-.5.5h-1.55v1.76h1.55A.5.5,0,0,1,134.38,463.58Z" fill="#fdd600"/><path d="M151.35,445.43v-3.32a3.21,3.21,0,0,0-3.21-3.21H124.32a3.21,3.21,0,0,0-3.21,3.21v3.32h-2.83v5.84h2.4c0,.33,0,.67.07,1L122,471.34c.23,2.14.61,3.24,2.1,3.24h24c1.55,0,1.95-1,2.28-3.22l1.34-19.09c0-.33,0-.67.07-1H154v-5.84Zm-9.83,17-7.15,7.44-7.12-7.12c-2.16-2.15-2.3-5.14-.34-7.1a4.62,4.62,0,0,1,3.3-1.41h.18a5.27,5.27,0,0,1,3.48,1.59.51.51,0,0,0,.7,0,4.79,4.79,0,1,1,7,6.6Z" fill="#fdd600"/><path d="M134,470.91a.47.47,0,0,0,.35.15h0a.51.51,0,0,0,.35-.15l7.51-7.81a5.79,5.79,0,0,0-8-8.34,6.18,6.18,0,0,0-3.79-1.55,5.7,5.7,0,0,0-4.23,1.7c-2.37,2.37-2.23,6,.34,8.52Zm-7.11-15.29a4.62,4.62,0,0,1,3.3-1.41h.18a5.27,5.27,0,0,1,3.48,1.59.51.51,0,0,0,.7,0,4.79,4.79,0,1,1,7,6.6l-7.15,7.44-7.12-7.12C125.09,460.57,125,457.58,126.91,455.62Z" fill="#231f20"/><path d="M117.41,429.13h34v13.55h1V428.63a.5.5,0,0,0-.5-.5h-35a.5.5,0,0,0-.5.5v14.05h1Z" fill="#231f20"/><path d="M130.83,463.08h1.55v1.55a.5.5,0,0,0,.5.5h2.75a.5.5,0,0,0,.5-.5v-1.55h1.55a.51.51,0,0,0,.5-.5v-2.76a.51.51,0,0,0-.5-.5h-1.55v-1.54a.5.5,0,0,0-.5-.5h-2.75a.5.5,0,0,0-.5.5v1.54h-1.55a.5.5,0,0,0-.5.5v2.76A.5.5,0,0,0,130.83,463.08Zm.5-2.76h1.55a.5.5,0,0,0,.5-.5v-1.54h1.75v1.54a.5.5,0,0,0,.5.5h1.55v1.76h-1.55a.5.5,0,0,0-.5.5v1.55h-1.75v-1.55a.5.5,0,0,0-.5-.5h-1.55Z" fill="#231f20"/><path d="M152.77,442.68H150.6v-2.32a4.22,4.22,0,0,0-4.21-4.21H122.57a4.22,4.22,0,0,0-4.21,4.21v2.32H116a.5.5,0,0,0-.5.5V450a.5.5,0,0,0,.5.5h2l1.23,19.15c.17,1.56.44,4.16,3.1,4.16h24c2.67,0,3-2.35,3.27-4.11l1.36-19.2h1.83a.5.5,0,0,0,.5-.5v-6.84A.51.51,0,0,0,152.77,442.68Zm-.5,6.84H116.53v-5.84h35.74Zm-32.91-9.16a3.21,3.21,0,0,1,3.21-3.21h23.82a3.21,3.21,0,0,1,3.21,3.21v2.32H119.36Zm29.23,29.25c-.33,2.23-.73,3.22-2.28,3.22h-24c-1.49,0-1.87-1.1-2.1-3.24L119,450.52h30.93Z" fill="#231f20"/><path d="M194,526.5h8.2a.5.5,0,0,0,.5-.5v-2.14l2.4,1.67,1.9-1.9a6.33,6.33,0,0,0-8.94-9l-1.5,1.5a.51.51,0,0,1-.71,0l-1.5-1.5a6.33,6.33,0,1,0-8.94,9l10.8,10.8,4.86-4.86h-7Z" fill="#fdd600"/><path d="M226.14,529.48a6.31,6.31,0,0,0-8.95,0l-1.5,1.5a.5.5,0,0,1-.7,0l-1.5-1.5a6.25,6.25,0,0,0-4.47-1.86,7.54,7.54,0,0,0-.83.06l.5.35L203,532a6.21,6.21,0,0,0-.32,2,6.33,6.33,0,0,0,1.85,4.48l10.8,10.79,10.8-10.79a6.34,6.34,0,0,0,0-8.95Z" fill="#fdd600"/><path d="M225.1,527a7.33,7.33,0,0,0-10.36,0l-1.15,1.15L212.45,527a7.33,7.33,0,0,0-6.39-2l-1.45-1,1.34-1.34a7.33,7.33,0,0,0-10.36-10.36l-1.14,1.14-1.15-1.14a7.33,7.33,0,0,0-10.36,10.36l11.15,11.15a.53.53,0,0,0,.36.15.51.51,0,0,0,.35-.15l3.22-3.22h2.11a7.34,7.34,0,0,0-.19,1.63,7.24,7.24,0,0,0,2.15,5.18l11.15,11.16a.51.51,0,0,0,.7,0l11.16-11.16a7.34,7.34,0,0,0,0-10.36Zm-23.94,3.55h.53v2.58a.49.49,0,0,0,.27.44.49.49,0,0,0,.52,0l7.37-5.12a.49.49,0,0,0,0-.82l-2.5-1.74a6.26,6.26,0,0,1,4.39,1.85l1.5,1.5a.51.51,0,0,0,.7,0l1.5-1.5a6.33,6.33,0,0,1,8.95,8.95l-10.8,10.79-10.8-10.79a6.3,6.3,0,0,1-1.63-6.11Zm-13-19.44a6.31,6.31,0,0,1,4.47,1.85l1.5,1.5a.49.49,0,0,0,.36.15.47.47,0,0,0,.35-.15l1.5-1.5a6.33,6.33,0,0,1,10.8,4.48,6.29,6.29,0,0,1-1.85,4.47l-1.47,1.47-1.3-.9a.49.49,0,0,0-.52,0,.49.49,0,0,0-.27.44v2.59h-8.2a.48.48,0,0,0-.36.15.43.43,0,0,0-.14.36l.1,4.07a.5.5,0,0,0,.5.49h3l-2.16,2.16-10.8-10.8a6.33,6.33,0,0,1,4.47-10.8Zm5.95,18.44L194,526.5h8.2a.5.5,0,0,0,.5-.5v-2.14l6,4.17-6,4.17v-2.13a.5.5,0,0,0-.5-.5Z" fill="#231f20"/><path d="M342.31,275.21H327.7a2.5,2.5,0,0,0-2.5,2.5V301a2.48,2.48,0,0,0,.43,1.39,2.51,2.51,0,0,0,2.07,1.11h2.43v2.87a2.51,2.51,0,0,0,2.5,2.5h4.81a2.51,2.51,0,0,0,2.5-2.5v-2.87h2.37a2.51,2.51,0,0,0,2.5-2.5v-23.3A2.5,2.5,0,0,0,342.31,275.21Zm-3.59,18.88h-3.15a.5.5,0,0,0-.5.5v3.19h-3.9v-3.19a.51.51,0,0,0-.5-.5h-3.15v-3.95h3.15a.5.5,0,0,0,.5-.5v-3.18h3.9v3.18a.5.5,0,0,0,.5.5h3.15Z" fill="#fdd600"/><path d="M363.77,304.37c-1.17,2.16-3.21,6.17-3.21,7.57a3.27,3.27,0,0,0,6.53,0C367.09,310.54,365,306.52,363.77,304.37Z" fill="#fdd600"/><path d="M361.59,279.86v19.29a.5.5,0,0,0,.5.5.5.5,0,0,0,.5-.5V279.86a7.71,7.71,0,0,0-15.41,0V311a6.71,6.71,0,0,1-13.41,0v-2.88h1.92a3.5,3.5,0,0,0,3.5-3.5v-1.87h1.37a3.5,3.5,0,0,0,3.5-3.5V276a3.5,3.5,0,0,0-3.5-3.5H326a3.5,3.5,0,0,0-3.5,3.5v23.3a3.51,3.51,0,0,0,3.5,3.5h1.43v1.87a3.5,3.5,0,0,0,3.5,3.5h1.89V311a7.71,7.71,0,0,0,15.41,0V279.86a6.71,6.71,0,0,1,13.41,0ZM323.45,276a2.5,2.5,0,0,1,2.5-2.5h14.61a2.5,2.5,0,0,1,2.5,2.5v5.56H323.45Zm2.5,25.8a2.51,2.51,0,0,1-2.07-1.11,2.48,2.48,0,0,1-.43-1.39V282.52h19.61v16.74a2.51,2.51,0,0,1-2.5,2.5H326Zm2.43,2.87v-1.87h9.81v1.87a2.51,2.51,0,0,1-2.5,2.5h-4.81A2.51,2.51,0,0,1,328.38,304.63Z" fill="#231f20"/><path d="M362.45,301.35a.47.47,0,0,0-.44-.25.5.5,0,0,0-.43.25c-.38.68-3.77,6.7-3.77,8.84a4.27,4.27,0,0,0,8.53,0C366.34,308,362.85,302,362.45,301.35Zm-.37,12.1a3.28,3.28,0,0,1-3.27-3.26c0-1.4,2-5.41,3.21-7.57,1.22,2.15,3.32,6.17,3.32,7.57A3.27,3.27,0,0,1,362.08,313.45Z" fill="#231f20"/><path d="M339.72,294.59v-4.95a.5.5,0,0,0-.5-.5h-3.15V286a.5.5,0,0,0-.5-.5h-4.9a.5.5,0,0,0-.51.5v3.18H327a.5.5,0,0,0-.5.5v4.95a.5.5,0,0,0,.5.51h3.14v3.18a.51.51,0,0,0,.51.5h4.9a.5.5,0,0,0,.5-.5V295.1h3.15A.5.5,0,0,0,339.72,294.59Zm-1-.5h-3.15a.5.5,0,0,0-.5.5v3.19h-3.9v-3.19a.51.51,0,0,0-.5-.5h-3.15v-3.95h3.15a.5.5,0,0,0,.5-.5v-3.18h3.9v3.18a.5.5,0,0,0,.5.5h3.15Z" fill="#231f20"/><path d="M213.68,451.88a.53.53,0,0,1-.53-.5v-6c0-3.35-6.55-6.17-14.3-6.17s-14.21,2.79-14.3,6.1h0v14.76c0,3.18,6,5.94,13.35,6.15h29.75l.11-14.36ZM197,446.2c-3.5,0-5.93-1.26-5.93-2.39s2.43-2.4,5.93-2.4,5.94,1.26,5.94,2.4S200.46,446.2,197,446.2Z" fill="#fdd600"/><path d="M226.86,449.27a.52.52,0,0,0-.36-.14H212.4v-5.49c0-4-6.72-7.17-15.3-7.17s-15.3,3.15-15.3,7.17v14.69c0,2.25,2.12,4.23,5.52,5.54a.5.5,0,0,0,.37.17h0a27.64,27.64,0,0,0,8.38,1.45h30.28a.49.49,0,0,0,.5-.49l.11-15.37A.54.54,0,0,0,226.86,449.27Zm-15.46-.14H207a10.51,10.51,0,0,0,4.37-2.92Zm-14.3-11.66c7.75,0,14.3,2.82,14.3,6.17s-6.55,6.16-14.3,6.16-14.27-2.81-14.3-6.14v-.09h0C182.89,440.26,189.4,437.47,197.1,437.47Zm28.79,27h-3.27v-7.38a.5.5,0,0,0-.5-.5.5.5,0,0,0-.5.5v7.38H218.8V459.1a.5.5,0,0,0-1,0v5.39h-2.91v-7.33a.5.5,0,0,0-.5-.5.51.51,0,0,0-.5.5v7.33h-2.82v-5.33a.5.5,0,0,0-.5-.5.5.5,0,0,0-.5.5v5.33h-2.88v-7.44a.51.51,0,0,0-.5-.5.5.5,0,0,0-.5.5v7.44h-2.83v-5.44a.5.5,0,0,0-.5-.5.5.5,0,0,0-.5.5v5.43h-2.88v-7.32a.5.5,0,0,0-.5-.5.51.51,0,0,0-.5.5v7.32h-2.34l-.48,0v-5.29a.5.5,0,0,0-1,0v5.24c-.92-.07-1.81-.18-2.66-.33v-7a.5.5,0,0,0-.5-.5.51.51,0,0,0-.5.5v6.84a23,23,0,0,1-2.82-.79v-4.05a.5.5,0,0,0-.5-.5.5.5,0,0,0-.5.5v3.67c-2.69-1.14-4.39-2.7-4.39-4.39V446.21c2.17,2.71,7.67,4.59,14.3,4.59a31.12,31.12,0,0,0,6.56-.67H226Z" fill="#231f20"/><path d="M197,447.2c4,0,6.94-1.46,6.94-3.39s-3-3.4-6.94-3.4-6.93,1.46-6.93,3.4S193,447.2,197,447.2Zm0-5.79c3.5,0,5.94,1.26,5.94,2.4s-2.44,2.39-5.94,2.39-5.93-1.26-5.93-2.39S193.46,441.41,197,441.41Z" fill="#231f20"/><path d="M347.75,359.69l8.06-5.5-.41-1.34-9.76.12-.32-1-12.14,3.8,2.74,8.75,1.62-.51v-1.17l4.93-1.55v1.17l5.59-1.75Z" fill="#fdd600"/><path d="M355.21,352.5l-.65-2.1A.53.53,0,0,0,354,350l-9.36.1-.24-.76a.57.57,0,0,0-.27-.32.53.53,0,0,0-.41,0l-13.17,4.13a.54.54,0,0,0-.35.67l3.06,9.77a.57.57,0,0,0,.27.32.51.51,0,0,0,.25.06l.16,0,2.48-.77v3.5h-.38a.54.54,0,0,0-.53.54v28.52a.54.54,0,0,0,.53.54h7.84a.54.54,0,0,0,.54-.54V367.2a.54.54,0,0,0-.54-.54h-.37v-5.73l3.6-1.13a.54.54,0,0,0,.35-.67l-.24-.77L355,353.1A.53.53,0,0,0,355.21,352.5Zm-8.9,6.44-12.14,3.81L331.43,354l12.14-3.8Zm-9.69,36.25V367.74h6.76v27.45h-6.76Zm5.85-28.53h-4.93v-3.84l4.93-1.55Zm4.45-9.37L345,351.2l8.64-.1.41,1.34Z" fill="#231f20"/><polygon points="274.61 396.44 274.61 375.32 270.78 375.32 270.78 396.44 271.74 396.44 273.65 396.44 274.61 396.44" fill="#fdd600"/><path d="M269.38,352.6a1.26,1.26,0,0,0-.43-.08,1.11,1.11,0,0,0-1.1,1.11V365a1.09,1.09,0,0,0,.49.92,1.07,1.07,0,0,0,1,.1l.61-.25v-12.9Z" fill="#fdd600"/><path d="M283.05,358.28l-8.36-3.47-2.79-1.16V365l2.79-1.16,8.36-3.47a1.07,1.07,0,0,0,.68-1A1.09,1.09,0,0,0,283.05,358.28Z" fill="#fdd600"/><path d="M281.7,355.58l-8.76-3.64V349a.52.52,0,0,0-.52-.52h-2.95a.52.52,0,0,0-.52.52v1.28l-.92-.38a2.14,2.14,0,0,0-2,.19,2.17,2.17,0,0,0-.95,1.79v11.36a2.16,2.16,0,0,0,2.14,2.15,2.2,2.2,0,0,0,.83-.17l.92-.38v7.69h-.44a.52.52,0,0,0-.52.52V395.2a.52.52,0,0,0,.52.52h4.87a.52.52,0,0,0,.52-.52V373.05a.52.52,0,0,0-.52-.52h-.44v-9.35l8.76-3.64a2.14,2.14,0,0,0,0-4ZM270,394.69h-1V373.57h3.83v21.12H270Zm0-22.16v-23h1.91v23Zm-3.4-8.37a1.09,1.09,0,0,1-.49-.92V351.88a1.11,1.11,0,0,1,1.1-1.11,1.26,1.26,0,0,1,.43.08l1.32.55v12.31l-1.32.55A1.07,1.07,0,0,1,266.59,364.16Zm6.35-11.1,8.36,3.47a1.09,1.09,0,0,1,.68,1,1.07,1.07,0,0,1-.68,1l-8.36,3.47Z" fill="#231f20"/><path d="M223.93,300.71l-5.51-5.52,5-5a10.07,10.07,0,0,0-14.24-14.23l-5,5-4.6-4.6a10.07,10.07,0,0,0-14.24,14.23l4.6,4.6-5.08,5.09a10.07,10.07,0,0,0,14.24,14.23l5.08-5.08,5.51,5.51a10.07,10.07,0,1,0,14.24-14.23Zm-38.36,13.1a9.07,9.07,0,0,1,0-12.82l5.16-5.17,12.83,12.82-5.17,5.17A9.08,9.08,0,0,1,185.57,313.81Zm37.17-37.18a9.1,9.1,0,0,1,0,12.83l-5,5-12.82-12.82,5-5a9.08,9.08,0,0,1,12.82,0Zm-18.53,31.25-12.75-12.74,12.75-12.74L217,295.14Zm-18.16-18a9.07,9.07,0,0,1,12.82-12.83l4.6,4.6-12.82,12.83Zm37.17,24.35a9.08,9.08,0,0,1-12.82,0l-5.51-5.52,12.82-12.82,5.51,5.51A9.08,9.08,0,0,1,223.22,314.24Z" fill="#231f20"/><path d="M208.43,293a1.39,1.39,0,1,0-2,0A1.38,1.38,0,0,0,208.43,293Z" fill="none"/><circle cx="197.05" cy="294.58" r="1.39" fill="none"/><circle cx="211.33" cy="295.98" r="1.39" fill="none"/><path d="M201.26,292.27a1.39,1.39,0,1,0-2-2,1.39,1.39,0,0,0,2,2Z" fill="none"/><path d="M207.13,298.28a1.39,1.39,0,0,0,2,2,1.39,1.39,0,1,0-2-2Z" fill="none"/><circle cx="203.49" cy="288" r="1.39" fill="none"/><path d="M205.88,303.54a1.39,1.39,0,1,0-2,0A1.38,1.38,0,0,0,205.88,303.54Z" fill="none"/><circle cx="201.01" cy="298.55" r="1.39" fill="none"/><path d="M205.21,296.24a1.38,1.38,0,0,0,0-2,1.39,1.39,0,1,0,0,2Z" fill="none"/><circle cx="203.49" cy="288" r="1.39" fill="#231f20"/><path d="M208.43,293a1.39,1.39,0,1,0-2,0A1.38,1.38,0,0,0,208.43,293Z" fill="#231f20"/><circle cx="211.33" cy="295.98" r="1.39" fill="#231f20"/><path d="M201.26,292.27a1.39,1.39,0,1,0-2-2,1.39,1.39,0,0,0,2,2Z" fill="#231f20"/><path d="M205.21,296.24a1.38,1.38,0,0,0,0-2,1.39,1.39,0,1,0,0,2Z" fill="#231f20"/><path d="M207.13,298.28a1.39,1.39,0,0,0,2,2,1.39,1.39,0,1,0-2-2Z" fill="#231f20"/><circle cx="197.05" cy="294.58" r="1.39" fill="#231f20"/><circle cx="201.01" cy="298.55" r="1.39" fill="#231f20"/><path d="M203.91,301.57a1.4,1.4,0,0,0,0,2,1.38,1.38,0,0,0,2,0,1.39,1.39,0,0,0-2-2Z" fill="#231f20"/><path d="M326.58,222c-1.59,1.36-2.76,6-3.32,13a36.36,36.36,0,0,0,4.28-5.51.8.8,0,0,1,.68-.4.86.86,0,0,1,.27,0,.8.8,0,0,1,.53.86l-.81,5.78a22.3,22.3,0,0,0,3.36-4.53.8.8,0,0,1,1.5.45l-.31,3.1a25.83,25.83,0,0,0,3.34-5.08.75.75,0,0,1,.86-.46.79.79,0,0,1,.66.74l.18,3.33a101.73,101.73,0,0,0,7.28-10.73C337,221.25,328.22,220.57,326.58,222Z" fill="#fdd600"/><path d="M355.6,204.44c-2,.82-5.43,8.94-8,16.72a102.86,102.86,0,0,0,12.88-1.56l-2.88-1.69a.79.79,0,0,1,.44-1.48,25.36,25.36,0,0,0,6.05-.63l-2.9-1.15a.8.8,0,0,1-.49-.89.78.78,0,0,1,.78-.65,22.56,22.56,0,0,0,5.56-.91l-5.5-1.93a.8.8,0,0,1,.22-1.55,36.1,36.1,0,0,0,6.86-1.28c-5.1-2.13-9-3.25-11.44-3.25A4.38,4.38,0,0,0,355.6,204.44Z" fill="#fdd600"/><path d="M332.87,211c1.66,0,4.37-1.35,6.08-2.39,2.28-1.39,5.91-4.16,5-5.67h0c-.92-1.52-5.05.44-7.34,1.83a20.66,20.66,0,0,0-3.88,3c-1.12,1.15-1.49,2.06-1.11,2.69A1.37,1.37,0,0,0,332.87,211Zm4.25-5.38a13.71,13.71,0,0,1,5.6-2.25.5.5,0,0,1,.36.09c.12.43-1.41,2.32-4.66,4.3s-5.65,2.47-5.95,2.17C332.34,209.52,333.86,207.62,337.12,205.63Z" fill="#231f20"/><path d="M367.84,205c-5-2.12-11.49-4.4-14.36-3.24-3.13,1.27-7.4,13.8-8.63,17.61a.78.78,0,0,0,.11.71.81.81,0,0,0,.64.33h0a93.6,93.6,0,0,0,13.86-1.71.78.78,0,0,0,.59-.66.8.8,0,0,0-.39-.8l-2.63-1.54a30.91,30.91,0,0,0,6.18-.82.8.8,0,0,0,.12-1.52l-2.63-1a26.4,26.4,0,0,0,5.49-1.09.78.78,0,0,0,.56-.75.81.81,0,0,0-.53-.77l-5.19-1.82a43.63,43.63,0,0,0,6.67-1.39.78.78,0,0,0,.58-.72A.8.8,0,0,0,367.84,205Zm-7.79,2a.8.8,0,0,0-.22,1.55l5.5,1.93a22.56,22.56,0,0,1-5.56.91.78.78,0,0,0-.78.65.8.8,0,0,0,.49.89l2.9,1.15a25.36,25.36,0,0,1-6.05.63.79.79,0,0,0-.44,1.48l2.88,1.69a102.86,102.86,0,0,1-12.88,1.56c2.53-7.78,5.95-15.9,8-16.72a4.38,4.38,0,0,1,1.62-.25c2.4,0,6.34,1.12,11.44,3.25A36.1,36.1,0,0,1,360.05,207Z" fill="#231f20"/><path d="M343.77,219.87c-3.95-.65-17-2.6-19.6-.4-2.35,2-3.31,8.86-3.7,14.25a.78.78,0,0,0,.47.78.8.8,0,0,0,.91-.18,43,43,0,0,0,4.29-5.3l-.76,5.45a.8.8,0,0,0,.44.83.72.72,0,0,0,.35.08.78.78,0,0,0,.57-.24,26.77,26.77,0,0,0,3.49-4.37l-.28,2.8a.79.79,0,0,0,.49.82.77.77,0,0,0,.91-.22,30.39,30.39,0,0,0,3.56-5.12l.17,3a.8.8,0,0,0,1.39.49A94.35,94.35,0,0,0,344.35,221a.82.82,0,0,0,0-.73A.83.83,0,0,0,343.77,219.87Zm-7.72,11.67-.18-3.33a.79.79,0,0,0-.66-.74.75.75,0,0,0-.86.46A25.83,25.83,0,0,1,331,233l.31-3.1a.8.8,0,0,0-1.5-.45,22.3,22.3,0,0,1-3.36,4.53l.81-5.78a.8.8,0,0,0-.53-.86.86.86,0,0,0-.27,0,.8.8,0,0,0-.68.4,36.36,36.36,0,0,1-4.28,5.51c.56-7,1.73-11.62,3.32-13s10.42-.73,18.5.58A101.73,101.73,0,0,1,336.05,231.54Z" fill="#231f20"/><path d="M152.25,620c1.55-2.56,2.41-4,2.54-5.27a7.44,7.44,0,0,0-.72-3.85l-10.6,1.36v7.17l5.68,5.56c.91-1.4,1.79-2.82,2.64-4.22Z" fill="#fdd600"/><path d="M153.06,608.37a.51.51,0,0,0-.51-.27l-.61.08a14.28,14.28,0,0,1-1.44-4.6,17.36,17.36,0,0,1,.33-2.66c.42-2.38.94-5.35-.17-7.87-3-6.86-12.53-12.77-22.59-10.36-12.18,2.92-13.45,12.66-13.34,19.73a18.71,18.71,0,0,0,2.57,9.17,25,25,0,0,1,2.59,7c1.1,5.74-.56,8.35-1.36,9.6a4.32,4.32,0,0,0-.37.64.49.49,0,0,0,.26.65.51.51,0,0,0,.2,0,.49.49,0,0,0,.46-.3,4.33,4.33,0,0,1,.29-.49c.87-1.37,2.68-4.2,1.5-10.33a25.6,25.6,0,0,0-2.68-7.25,17.75,17.75,0,0,1-2.46-8.74c-.11-7.29,1.22-16,12.57-18.73,6.49-1.56,17.56,1,21.44,9.78,1,2.24.5,5,.11,7.3a17.63,17.63,0,0,0-.35,2.83,14.22,14.22,0,0,0,1.41,4.73l-9.57,1.23-9.6-6.3a4.22,4.22,0,0,0-3.91-3,4,4,0,0,0-2.91,1.29,4.56,4.56,0,0,0-1.29,3.32,4.88,4.88,0,0,0,2.28,3.72.86.86,0,0,1,.18.2.77.77,0,0,1,.13.41,2.8,2.8,0,0,0,2.61,2.65h0a2.34,2.34,0,0,0,1.65-.71,3.73,3.73,0,0,0,.82-1.33l9.55,8.42,5.35,5.25v0c-1.11.85-5.08-.88-7.61-2.41a.49.49,0,0,0-.51,0,.48.48,0,0,0-.25.43v7.07a.5.5,0,0,0,.5.5.5.5,0,0,0,.5-.5v-6.2c2,1.12,6.45,3.36,8.11,1.8l.17.16a.47.47,0,0,0,.35.15h0a.47.47,0,0,0,.37-.22c1-1.58,2-3.18,3-4.76l.46-.75c1.64-2.69,2.53-4.17,2.68-5.69A8.54,8.54,0,0,0,153.06,608.37Zm-11.34,9.3V610.5l10.6-1.36A7.44,7.44,0,0,1,153,613c-.13,1.3-1,2.71-2.54,5.27L150,619c-.85,1.4-1.73,2.82-2.64,4.22Zm-10.31-9a.53.53,0,0,0-.33-.19H131a.5.5,0,0,0-.5.5,2.59,2.59,0,0,1-.71,1.49,1.51,1.51,0,0,1-1,.42,1.83,1.83,0,0,1-1.63-1.74,1.84,1.84,0,0,0-.29-.86,1.6,1.6,0,0,0-.48-.49,3.93,3.93,0,0,1-1.82-2.93,3.53,3.53,0,0,1,1-2.58,3,3,0,0,1,2.19-1,3.41,3.41,0,0,1,3.19,3.59.5.5,0,0,0,.44.49h.06a.5.5,0,0,0,.5-.5c0-.09,0-.17,0-.25l8.72,5.72v6.44l-9.08-8A.54.54,0,0,0,131.41,608.65Z" fill="#231f20"/><path d="M129.94,607.91a.44.44,0,0,0-.3,0,12.38,12.38,0,0,0,.55-2c0-.18,0-.37,0-.37a5.2,5.2,0,0,0-.07-1,2.54,2.54,0,0,0-1.31-1.65,2,2,0,0,0-2.42.93,3,3,0,0,0-.3,2.47.5.5,0,0,0,.63.33.49.49,0,0,0,.32-.63,2,2,0,0,1-.08-.83,1.85,1.85,0,0,1,.27-.8c.19-.28.68-.77,1.2-.55a1.51,1.51,0,0,1,.71,1,3.78,3.78,0,0,1,0,.75s0,.15,0,.29a13.8,13.8,0,0,1-.56,2,1.17,1.17,0,0,0,0,.9.86.86,0,0,0,.48.49.66.66,0,0,0,.27.06.81.81,0,0,0,.34-.08,1.05,1.05,0,0,0,.52-.59A.48.48,0,0,0,129.94,607.91Z" fill="#231f20"/><path d="M195.92,608.6a.86.86,0,0,1,.18.2.84.84,0,0,1,.14.41,2.79,2.79,0,0,0,2.6,2.65h0a2.32,2.32,0,0,0,1.64-.71,3.45,3.45,0,0,0,1-2.2.49.49,0,0,0-.44-.49H201a.5.5,0,0,0-.5.5,2.59,2.59,0,0,1-.71,1.49,1.51,1.51,0,0,1-1,.42,1.83,1.83,0,0,1-1.63-1.74,1.85,1.85,0,0,0-.28-.86,1.53,1.53,0,0,0-.49-.49,4,4,0,0,1-1.82-2.93,3.62,3.62,0,0,1,1-2.58,3,3,0,0,1,2.19-1,3.42,3.42,0,0,1,3.2,3.59.49.49,0,0,0,.44.49h.06a.5.5,0,0,0,.5-.5,4.42,4.42,0,0,0-4.2-4.59,4.05,4.05,0,0,0-2.91,1.29,4.64,4.64,0,0,0-1.29,3.32A4.91,4.91,0,0,0,195.92,608.6Z" fill="#231f20"/><path d="M200,607.91a.42.42,0,0,0-.29,0,14,14,0,0,0,.54-2c0-.18,0-.37,0-.37a5.15,5.15,0,0,0-.07-1,2.54,2.54,0,0,0-1.31-1.65,2,2,0,0,0-2.42.93A3,3,0,0,0,196,605a3,3,0,0,0,.12,1.24.5.5,0,1,0,1-.3,2.13,2.13,0,0,1-.09-.83,2,2,0,0,1,.27-.8c.19-.28.68-.76,1.2-.55a1.48,1.48,0,0,1,.71,1,3.12,3.12,0,0,1,.05.75s0,.15,0,.29a12.82,12.82,0,0,1-.56,2,1.19,1.19,0,0,0,0,.91.86.86,0,0,0,.48.49.67.67,0,0,0,.28.06.8.8,0,0,0,.33-.08,1,1,0,0,0,.52-.59A.48.48,0,0,0,200,607.91Z" fill="#231f20"/><path d="M224.8,614.76a6.55,6.55,0,0,0-.89-3.52,50.37,50.37,0,0,1-10.39,3.27,39.58,39.58,0,0,1-13.77.78,36.81,36.81,0,0,1-10.37-3,19,19,0,0,1,1.94,6.34A19.62,19.62,0,0,1,189,630.25l21.28-.25a4.27,4.27,0,0,1,1.88-4.2,4.14,4.14,0,0,1,3.26-.33,4.36,4.36,0,0,0,3.48.1c.77-.37,1-.91,1.69-2.37.29-.64.65-1.42,1.16-2.41.76-1.46,1.37-2.42,1.86-3.19A5.33,5.33,0,0,0,224.8,614.76Z" fill="#fdd600"/><path d="M222.8,608.59a.5.5,0,0,0-.63-.19l-.1,0a15.11,15.11,0,0,1-1.56-4.86,17.54,17.54,0,0,1,.34-2.66c.41-2.38.93-5.35-.18-7.87-3-6.86-12.52-12.77-22.59-10.36-12.17,2.92-13.44,12.66-13.34,19.73A16.88,16.88,0,0,0,186.1,609s0,0,0,0a.51.51,0,0,0-.06.61,18,18,0,0,1,2.58,7.33A18.82,18.82,0,0,1,186,628.76a.49.49,0,0,0,.43.75h0l2.09,0,.12,0,.1,0,20.44-.25a.52.52,0,0,0,.39-.2.53.53,0,0,0,.09-.42,3.34,3.34,0,0,1,1.3-3.71,3.19,3.19,0,0,1,2.44-.24,5.28,5.28,0,0,0,4.22.05c1.09-.52,1.45-1.3,2.16-2.85.29-.63.65-1.4,1.15-2.37.74-1.42,1.34-2.36,1.81-3.12a6.11,6.11,0,0,0,1.32-3.31A7.71,7.71,0,0,0,222.8,608.59Zm-3.93,12.86c-.67,1.46-.92,2-1.69,2.37a4.36,4.36,0,0,1-3.48-.1,4.14,4.14,0,0,0-3.26.33,4.27,4.27,0,0,0-1.88,4.2l-21.28.25a19.62,19.62,0,0,0,2.29-11.61,19,19,0,0,0-1.94-6.34,36.81,36.81,0,0,0,10.37,3,39.58,39.58,0,0,0,13.77-.78,50.37,50.37,0,0,0,10.39-3.27,6.55,6.55,0,0,1,.89,3.52,5.33,5.33,0,0,1-1.16,2.84c-.49.77-1.1,1.73-1.86,3.19C219.52,620,219.16,620.81,218.87,621.45Zm-20.56-37.78c6.5-1.56,17.56,1,21.44,9.78,1,2.24.5,5,.11,7.3a17.63,17.63,0,0,0-.35,2.83,15.7,15.7,0,0,0,1.64,5.24,49.74,49.74,0,0,1-9.57,3,38.91,38.91,0,0,1-13.45.77,35.8,35.8,0,0,1-10.83-3.27,16.07,16.07,0,0,1-1.56-6.88C185.63,595.11,187,586.38,198.31,583.67Z" fill="#231f20"/><path d="M327,612a4.72,4.72,0,0,0-1.82,2.13,4.69,4.69,0,0,0,2.67-.85c.11-.07.2-.16.3-.23,1.3-.92,1.88-1.5,1.77-1.75s-.3-.17-.71-.12A5,5,0,0,0,327,612Z" fill="#fdd600"/><ellipse cx="330.12" cy="614.61" rx="1.17" ry="2.93" fill="#fdd600"/><path d="M338.39,607.68a1.14,1.14,0,0,1,.19.19,1.1,1.1,0,0,1,.13.41,2.79,2.79,0,0,0,2.61,2.65h0a2.31,2.31,0,0,0,1.64-.7,3.5,3.5,0,0,0,1-2.21.49.49,0,0,0-.44-.48l-.06,0a.5.5,0,0,0-.5.5,2.61,2.61,0,0,1-.71,1.5,1.37,1.37,0,0,1-1,.41,1.82,1.82,0,0,1-1.63-1.73,1.86,1.86,0,0,0-.28-.87,1.75,1.75,0,0,0-.49-.49,4,4,0,0,1-1.82-2.92,3.64,3.64,0,0,1,1-2.59,3.08,3.08,0,0,1,2.19-1,3.42,3.42,0,0,1,3.2,3.59.49.49,0,0,0,.44.48l.06,0a.51.51,0,0,0,.5-.5,4.42,4.42,0,0,0-4.2-4.59,4.05,4.05,0,0,0-2.91,1.29,4.62,4.62,0,0,0-1.29,3.32A4.91,4.91,0,0,0,338.39,607.68Z" fill="#231f20"/><path d="M342.42,607a.57.57,0,0,0-.29,0,13.05,13.05,0,0,0,.54-2c0-.19,0-.38,0-.38a5.1,5.1,0,0,0-.07-1,2.58,2.58,0,0,0-1.31-1.66,2,2,0,0,0-2.42.93,2.94,2.94,0,0,0-.42,1.24,3.07,3.07,0,0,0,.12,1.24.5.5,0,1,0,1-.3,2.19,2.19,0,0,1-.09-.84,1.88,1.88,0,0,1,.27-.79c.19-.29.68-.77,1.2-.55a1.49,1.49,0,0,1,.71.94,3.16,3.16,0,0,1,0,.75s0,.15,0,.29a12.62,12.62,0,0,1-.56,2,1.2,1.2,0,0,0,0,.91.89.89,0,0,0,.48.49.87.87,0,0,0,.28,0,1,1,0,0,0,.33-.07,1,1,0,0,0,.52-.59A.5.5,0,0,0,342.42,607Z" fill="#231f20"/><path d="M354.93,614.46A55.17,55.17,0,0,1,332.39,612l0,.06a59.4,59.4,0,0,1,25.13,18.68,42.4,42.4,0,0,1,6.77-11l.08-.09a9.64,9.64,0,0,0,2.66-4.86,8.58,8.58,0,0,0,0-3A54.66,54.66,0,0,1,354.93,614.46Z" fill="#fdd600"/><path d="M366.17,609.29a.57.57,0,0,0-.25-.32.49.49,0,0,0-.41,0l-.25.08c-.91-1.84-2.28-4.84-2.28-6.37a17.28,17.28,0,0,1,.34-2.65c.41-2.39.93-5.36-.18-7.88-3-6.85-12.52-12.76-22.59-10.35-12.17,2.91-13.44,12.65-13.34,19.72a16.88,16.88,0,0,0,1.52,7h0a5.81,5.81,0,0,0-6.36,4.22.5.5,0,0,0,.37.56,3.57,3.57,0,0,0,.87.1,5.57,5.57,0,0,0,2.63-.75,2.28,2.28,0,0,0,0,.26,4.89,4.89,0,0,0,1.88,4,.51.51,0,0,0,.58,0,4.89,4.89,0,0,0,1.88-4,6.83,6.83,0,0,0-.06-.79,22.1,22.1,0,0,1,1.89,5.59c1.1,5.73-.56,8.34-1.36,9.59a7.19,7.19,0,0,0-.36.64.49.49,0,0,0,.26.66.43.43,0,0,0,.19,0,.49.49,0,0,0,.46-.3c.06-.13.17-.29.3-.5.86-1.36,2.67-4.2,1.49-10.32a22.48,22.48,0,0,0-2-5.79A58.18,58.18,0,0,1,346,620.41a57.33,57.33,0,0,1,4.32,3.93v3.34a.5.5,0,0,0,.5.5.5.5,0,0,0,.5-.5v-2.33a58.92,58.92,0,0,1,4.18,4.89.51.51,0,0,0,.4.2H356a.52.52,0,0,0,.4-.3,42.59,42.59,0,0,1,6.94-11.45l.08-.09a10.73,10.73,0,0,0,2.9-5.37A9.57,9.57,0,0,0,366.17,609.29Zm-.85,3.77a9.64,9.64,0,0,1-2.66,4.86l-.08.09a42.4,42.4,0,0,0-6.77,11,59.4,59.4,0,0,0-25.13-18.68l0-.06a54.54,54.54,0,0,0,34.67-.17A8.58,8.58,0,0,1,365.32,613.06Zm-36.95-3.14a4.27,4.27,0,0,1,0,5.87,4.27,4.27,0,0,1,0-5.87Zm12.41-27.18c6.49-1.55,17.56,1,21.44,9.79,1,2.24.5,5,.11,7.3a17.66,17.66,0,0,0-.35,2.82c0,1.69,1.37,4.75,2.31,6.68a53.45,53.45,0,0,1-11.21,2.38,54.13,54.13,0,0,1-23-2.73,16.59,16.59,0,0,1-1.85-7.5C328.1,594.18,329.44,585.46,340.78,582.74ZM326.14,611.5a4.69,4.69,0,0,1-2.67.85,4.72,4.72,0,0,1,1.82-2.13,5,5,0,0,1,2.21-.82,4.73,4.73,0,0,0-1.06,1.87C326.34,611.34,326.25,611.43,326.14,611.5Z" fill="#231f20"/><path d="M279.23,622.48v0h.06Z" fill="#231f20"/><path d="M295.18,597.57h-.31l-16.47,0v0h-3.5a1.49,1.49,0,0,0-1.49,1.48v1h0v.5H255.62V604h17.79v.5h0v22.18a1.62,1.62,0,0,0,.07.44,1.89,1.89,0,0,0,.38.62,2.47,2.47,0,0,0,1.56.61c1,.13,1.93.23,2.89.32h0c.85.08,1.75.14,2.67.2h0c.28,0,.56,0,.83,0l.78,0h.62l1,0c.82,0,1.62,0,2.39,0a67.33,67.33,0,0,0,9.06-.91h0a1.24,1.24,0,0,0,.86-.55,1,1,0,0,0,.1-.48V625.4l0-26.35A1.49,1.49,0,0,0,295.18,597.57Z" fill="#fdd600"/><path d="M293.43,594.82h-1.89a7.32,7.32,0,0,0-.51-1.77c-3-6.86-12.52-12.77-22.59-10.36-9.68,2.32-12.46,8.95-13.15,15.13h-1.92a.5.5,0,0,0-.5.5v4.46a.5.5,0,0,0,.5.5h1.77a19.1,19.1,0,0,0,2.53,8.31,24.69,24.69,0,0,1,2.59,7c1.1,5.74-.56,8.35-1.36,9.6a5.16,5.16,0,0,0-.36.64.48.48,0,0,0,.26.65.45.45,0,0,0,.2,0,.51.51,0,0,0,.46-.3,1.08,1.08,0,0,1,.11-.21l.18-.28c.87-1.37,2.67-4.2,1.49-10.33a25.3,25.3,0,0,0-2.68-7.25,18.36,18.36,0,0,1-2.42-7.86h14.52V625a2.34,2.34,0,0,0,.12.74h0a2.69,2.69,0,0,0,.6,1,3.41,3.41,0,0,0,2.2.92q2.31.32,4.65.48v.5h0a.51.51,0,0,0,.5.49.5.5,0,0,0,.5-.5v-.45c1.2.06,2.4.11,3.61.11l2,0a69.1,69.1,0,0,0,9.19-.92,2.22,2.22,0,0,0,1.61-1.07,2,2,0,0,0,.21-1l0-28A2.49,2.49,0,0,0,293.43,594.82Zm0,1a1.49,1.49,0,0,1,1.49,1.48l0,26.35c-.83-.2-1.67-.39-2.51-.55a49.14,49.14,0,0,0-5.16-.65c.11-.3.22-.63.34-1,.49-1.6,1.21-3.94,2.26-7.24l3.92-2a.5.5,0,0,0,.25-.3.58.58,0,0,0,0-.39c0-.05-3.08-5.63-3.08-7.9a17.54,17.54,0,0,1,.34-2.66,21.53,21.53,0,0,0,.45-5.1Zm-14.2,26.66.06,0h-.06Zm-25.36-20.2v-3.46h16.79v3.46Zm16.79-5v.52H256.29c.67-6,3.35-12,12.38-14.15,6.5-1.56,17.56,1,21.44,9.78a6,6,0,0,1,.41,1.37H273.15A2.49,2.49,0,0,0,270.66,597.3Zm3,29.33a2.47,2.47,0,0,1-1.56-.61,1.89,1.89,0,0,1-.38-.62,1.31,1.31,0,0,1-.07-.44V602.78h0v-4.46h0v-1a1.49,1.49,0,0,1,1.49-1.48h17.51a20.35,20.35,0,0,1-.44,4.93,17.63,17.63,0,0,0-.35,2.83c0,2.14,2.21,6.51,3,7.93l-3.65,1.9a.48.48,0,0,0-.25.29c-1.08,3.41-1.83,5.81-2.34,7.47-.35,1.16-.53,1.69-1,2-1.72,1.18-5.47-1.27-6.57-2.06a.51.51,0,0,0-.52,0,.49.49,0,0,0-.27.44v5.55C276.71,627,275.19,626.84,273.67,626.63Zm21.12-.85a1.24,1.24,0,0,1-.86.55h0a67.33,67.33,0,0,1-9.06.91c-1.87,0-3.74,0-5.62-.07v-3.64c.54,0,1.09-.06,1.63-.09,1.82.93,3.9,1.54,5.3.57a2.52,2.52,0,0,0,.56-.57,47.64,47.64,0,0,1,5.48.65c.9.16,1.8.37,2.69.59v.62A1,1,0,0,1,294.79,625.78Z" fill="#231f20"/><path d="M148.47,128.85l-2.11-2.49a.51.51,0,0,0-.29.35l-1.07,6-1.32-5.89a.52.52,0,0,0-.38-.38L137,125l6.58-1.4s.06,0,.1-.06a9.31,9.31,0,0,0-2.19-1,10.47,10.47,0,0,0-6.34.13,9.59,9.59,0,0,1-2.53.53,10,10,0,0,1-3-.22,10,10,0,0,0-6.24-.37,11.31,11.31,0,0,0-7.88,9.67,18.25,18.25,0,0,0,2.31,8.93,10.18,10.18,0,0,1,1.14,2.6,10.37,10.37,0,0,1,.38,2.82,76.68,76.68,0,0,0,.64,9.5c.48,3.07,1.91,7.39,3.33,7.54.73,0,2.79-1,6.44-12.4a3,3,0,0,1,2.91-2.28h0a3,3,0,0,1,2.9,2.38c3.55,10.91,5.63,12.39,6.54,12.3,1.3-.13,2.73-3.55,3.21-6.54a34.92,34.92,0,0,0,.21-5.91c0-1.5,0-3.06.05-4.53a10.59,10.59,0,0,1,.59-3A9.79,9.79,0,0,1,147,142c0-.08,3.11-5.4,2.38-10.25A10.26,10.26,0,0,0,148.47,128.85Z" fill="#fdd600"/><path d="M155.44,124.37l-8.6-1.67-1.4-8.21a.5.5,0,0,0-.49-.42h0a.5.5,0,0,0-.49.42l-1.25,7a11.28,11.28,0,0,0-3-1.43,11.58,11.58,0,0,0-7,.14,8.8,8.8,0,0,1-4.91.3,11,11,0,0,0-6.8-.37A12.35,12.35,0,0,0,113,130.72c-.26,3.66,1.54,8,2.48,9.57a8.75,8.75,0,0,1,1,2.3,9.39,9.39,0,0,1,.34,2.58,79.21,79.21,0,0,0,.65,9.63c0,.08,1.3,8.07,4.21,8.37,1.35.15,3.65-1,7.51-13.13a2,2,0,0,1,3.91.1c3.73,11.44,6,13,7.42,13h.19c2.44-.23,3.78-5.4,4.1-7.37a36.15,36.15,0,0,0,.22-6.09c0-1.48,0-3,.05-4.45a9.17,9.17,0,0,1,.53-2.69,9.33,9.33,0,0,1,.78-1.65c.13-.22,3.27-5.67,2.48-10.87a11,11,0,0,0-.94-3l7.54-1.66a.49.49,0,0,0,.39-.49A.5.5,0,0,0,155.44,124.37Zm-9.95,16.08a9.79,9.79,0,0,0-.84,1.78,10.59,10.59,0,0,0-.59,3c-.09,1.47-.07,3-.05,4.53a34.92,34.92,0,0,1-.21,5.91c-.48,3-1.91,6.41-3.21,6.54-.9.09-3-1.39-6.54-12.3a3,3,0,0,0-2.9-2.38h0a3,3,0,0,0-2.91,2.28c-3.65,11.41-5.71,12.45-6.44,12.4-1.42-.15-2.85-4.47-3.33-7.54a76.68,76.68,0,0,1-.64-9.5,10.37,10.37,0,0,0-.38-2.82,9.83,9.83,0,0,0-1.14-2.6,18.25,18.25,0,0,1-2.31-8.93,11.31,11.31,0,0,1,7.88-9.67,10,10,0,0,1,6.24.37,10,10,0,0,0,3,.22,9.59,9.59,0,0,0,2.53-.53,10.47,10.47,0,0,1,6.34-.13A10.33,10.33,0,0,1,143,122.6l0,.08-8.44,1.8a.5.5,0,0,0-.4.48.51.51,0,0,0,.39.5l8.22,1.91,1.8,8a.49.49,0,0,0,.48.39h0a.52.52,0,0,0,.49-.41l1.42-8a10.26,10.26,0,0,1,.9,2.85C148.6,135.05,145.53,140.37,145.49,140.45Zm1-14.14a.5.5,0,0,0-.39.4l-1.07,6-1.32-5.89a.52.52,0,0,0-.38-.38L137,125l6.58-1.4a.51.51,0,0,0,.39-.41l1-5.69,1,5.72a.49.49,0,0,0,.39.41l6.57,1.27Z" fill="#231f20"/><path d="M143.89,207.45H127.4a5.26,5.26,0,0,0-5.25,5.26V243.2h27V212.71A5.26,5.26,0,0,0,143.89,207.45ZM140.16,226h-3.39a.5.5,0,0,0-.5.5v3.4H132v-3.4a.51.51,0,0,0-.5-.5h-3.4v-4.24h3.4a.5.5,0,0,0,.5-.5v-3.39h4.24v3.39a.5.5,0,0,0,.5.5h3.39Z" fill="#fdd600"/><polygon points="141.66 196.12 135.15 196.12 129.63 196.12 124.7 196.12 124.7 201.23 127.11 201.23 129.63 201.23 135.15 201.23 141.66 201.23 144.18 201.23 146.59 201.23 146.59 196.12 141.66 196.12" fill="#fdd600"/><path d="M143.67,205.09v-4.36h1.92a.51.51,0,0,0,.5-.5v-6.11a.51.51,0,0,0-.5-.5H122.7a.51.51,0,0,0-.5.5v6.11a.51.51,0,0,0,.5.5h1.92v4.36a6.25,6.25,0,0,0-5,6.12v31a.5.5,0,0,0,.5.5h28a.5.5,0,0,0,.5-.5v-31A6.25,6.25,0,0,0,143.67,205.09Zm-18-.14v-4.22h17V205h-17Zm9-5.22v-5.11h5.51v5.11Zm-1,0h-5.52v-5.11h5.52Zm11.44,0h-3.93v-5.11h3.93Zm-21.89-5.11h3.93v5.11H123.2ZM125.9,206h16.49a5.26,5.26,0,0,1,5.25,5.26v2.32h-27v-2.32A5.26,5.26,0,0,1,125.9,206Zm21.74,27.18h-27v-18.6h27Zm-27,1h27v7.57h-27Z" fill="#231f20"/><path d="M140.66,220.75h-3.39v-3.39a.5.5,0,0,0-.5-.5h-5.24a.5.5,0,0,0-.5.5v3.39h-3.4a.5.5,0,0,0-.5.5v5.24a.5.5,0,0,0,.5.5H131v3.4a.5.5,0,0,0,.5.5h5.24a.5.5,0,0,0,.5-.5V227h3.39a.5.5,0,0,0,.5-.5v-5.24A.5.5,0,0,0,140.66,220.75Zm-.5,5.24h-3.39a.5.5,0,0,0-.5.5v3.4H132v-3.4a.51.51,0,0,0-.5-.5h-3.4v-4.24h3.4a.5.5,0,0,0,.5-.5v-3.39h4.24v3.39a.5.5,0,0,0,.5.5h3.39Z" fill="#231f20"/><path d="M392.46,440.24V469.5h46.37V440.24ZM420,455H416.3a.5.5,0,0,0-.5.5v3.73h-3.31v-3.73a.5.5,0,0,0-.5-.5h-3.73v-3.32H412a.5.5,0,0,0,.5-.5v-3.73h3.31v3.73a.5.5,0,0,0,.5.5H420Z" fill="#fdd600"/><path d="M437.83,437.74h-14.7v-1.82a3.47,3.47,0,0,0-3.46-3.46h-11a3.47,3.47,0,0,0-3.47,3.46v1.82h-14.7a.5.5,0,0,0-.5.5V468.5a.5.5,0,0,0,.5.5h47.37a.5.5,0,0,0,.5-.5V438.24A.5.5,0,0,0,437.83,437.74Zm-.5,30.26H391V438.74h46.37Zm-31.17-32.08a2.47,2.47,0,0,1,2.47-2.46h11a2.46,2.46,0,0,1,2.46,2.46v1.82h-16Z" fill="#231f20"/><path d="M414.14,441a12.41,12.41,0,1,0,12.41,12.4A12.42,12.42,0,0,0,414.14,441Zm0,23.81a11.41,11.41,0,1,1,11.41-11.41A11.42,11.42,0,0,1,414.14,464.78Z" fill="#231f20"/><path d="M420.53,450.71H416.8V447a.5.5,0,0,0-.5-.5H412a.5.5,0,0,0-.5.5v3.73h-3.73a.5.5,0,0,0-.5.5v4.32a.5.5,0,0,0,.5.5h3.73v3.73a.5.5,0,0,0,.5.5h4.31a.5.5,0,0,0,.5-.5V456h3.73a.5.5,0,0,0,.5-.5v-4.32A.5.5,0,0,0,420.53,450.71ZM420,455H416.3a.5.5,0,0,0-.5.5v3.73h-3.31v-3.73a.5.5,0,0,0-.5-.5h-3.73v-3.32H412a.5.5,0,0,0,.5-.5v-3.73h3.31v3.73a.5.5,0,0,0,.5.5H420Z" fill="#231f20"/><path d="M274.15,518.06a.5.5,0,0,0-.5.5v6.68h1v-6.68A.51.51,0,0,0,274.15,518.06Z" fill="none"/><path d="M266.22,522.12a.5.5,0,0,0-.44.55l.31,2.57h1l-.33-2.69A.48.48,0,0,0,266.22,522.12Z" fill="none"/><path d="M282.07,522.12a.48.48,0,0,0-.55.43l-.33,2.69h1l.31-2.57A.5.5,0,0,0,282.07,522.12Z" fill="none"/><polygon points="288.09 525.24 287.2 530.03 281.61 530.03 282.2 525.24 281.19 525.24 280.61 530.03 274.65 530.03 274.65 525.24 273.65 525.24 273.65 530.03 267.69 530.03 267.1 525.24 266.09 525.24 266.68 530.03 261.15 530.03 260.26 525.24 252.81 525.24 252.81 551.38 298.48 551.38 298.48 525.24 288.09 525.24" fill="#fdd600"/><path d="M297.48,522.74h-7.91l2.28-12.27a.5.5,0,0,0-.2-.51.52.52,0,0,0-.55,0,9,9,0,0,1-5.21,1.48,9.28,9.28,0,0,1-5.5-1.65,10.93,10.93,0,0,0-12,0,10,10,0,0,1-11,0l-.19-.12a.5.5,0,0,0-.54,0,.49.49,0,0,0-.21.5l2.33,12.56h-8a.5.5,0,0,0-.5.5v27.14a.5.5,0,0,0,.5.5h46.67a.5.5,0,0,0,.5-.5V523.24A.5.5,0,0,0,297.48,522.74Zm-39.86-11.66a9.8,9.8,0,0,0,5.26,1.35,10.27,10.27,0,0,0,6-1.79,9.92,9.92,0,0,1,11,0,10.22,10.22,0,0,0,6,1.79,9.66,9.66,0,0,0,4.78-1.1L287.2,530h-5.59l.9-7.36a.5.5,0,0,0-.44-.55.48.48,0,0,0-.55.43l-.91,7.48h-6V518.56a.51.51,0,0,0-.5-.5.5.5,0,0,0-.5.5V530h-6l-.91-7.48a.48.48,0,0,0-.55-.43.5.5,0,0,0-.44.55l.9,7.36h-5.53ZM297,549.88H251.31V539.26H297Zm0-11.62H251.31V523.74H259l1.17,6.29h-3a.51.51,0,0,0-.5.5.5.5,0,0,0,.5.5h34.09a.5.5,0,0,0,.5-.5.51.51,0,0,0-.5-.5h-3l1.17-6.29H297Z" fill="#231f20"/><path d="M356.21,673.89h-.5v-5.56h-10.8v5.56h-4.63v32.64h20.05V673.89Zm-.07,17.92H352.4a.5.5,0,0,0-.5.5V696h-4.69v-.75h-.75v-3.48H343v-.75h-.75v-4.7H346a.5.5,0,0,0,.5-.5v-3.73h4.69v.75h.75v3.48h3.49v.75h.75Z" fill="#fdd600"/><path d="M334.74,667.78h0l-.07-.12L333,664.7l-1.68,2.92-.1.17a2,2,0,0,0-.22.92,2,2,0,0,0,4,0,1.91,1.91,0,0,0-.22-.91Z" fill="#ffce0c"/><path d="M359.33,671.39h-4.12v-5.06a.51.51,0,0,0-.5-.5h-5.4v-7.26h2.82a.5.5,0,0,0,0-1H331.46a.5.5,0,1,0,0,1h16.85v7.26h-5.4a.5.5,0,0,0-.5.5v5.06h-4.13a.5.5,0,0,0-.5.5v33.64a.5.5,0,0,0,.5.5h21.05a.5.5,0,0,0,.5-.5V671.89A.5.5,0,0,0,359.33,671.39Zm-15.92-4.56h10.8v4.56h-10.8ZM358.83,705H338.78V672.39h20.05Z" fill="#231f20"/><path d="M334.13,665.83l-.11-.21L331.9,662a.5.5,0,0,0-.87,0l-2.11,3.66-.13.23a3,3,0,0,0-.33,1.37,3,3,0,0,0,6,0,3,3,0,0,0-.33-1.37Zm-2.67,3.38a2,2,0,0,1-2-2,2,2,0,0,1,.22-.92l.1-.17,1.68-2.92,1.71,2.95.07.12h0v0a1.91,1.91,0,0,1,.22.91A2,2,0,0,1,331.46,669.21Z" fill="#231f20"/><path d="M346,691.06h-3v.75h3.48v-.25A.5.5,0,0,0,346,691.06Z" fill="none"/><path d="M351.65,686.36h.25v-3.48h-.75v3A.5.5,0,0,0,351.65,686.36Z" fill="none"/><path d="M355.39,691.06h-3.74a.5.5,0,0,0-.5.5v3.73h-3.94V696h4.69v-3.73a.5.5,0,0,1,.5-.5h3.74v-4.7h-.75Z" fill="none"/><path d="M355.89,685.36h-3.74v-3.73a.5.5,0,0,0-.5-.5H346a.5.5,0,0,0-.5.5v3.73h-3.73a.5.5,0,0,0-.5.5v5.7a.5.5,0,0,0,.5.5h3.73v3.73a.5.5,0,0,0,.5.5h5.69a.5.5,0,0,0,.5-.5v-3.73h3.74a.5.5,0,0,0,.5-.5v-5.7A.5.5,0,0,0,355.89,685.36Zm-.5,5.7h-3.74a.5.5,0,0,0-.5.5v3.73h-4.69v-3.73a.5.5,0,0,0-.5-.5h-3.73v-4.7H346a.5.5,0,0,0,.5-.5v-3.73h4.69v3.73a.5.5,0,0,0,.5.5h3.74Z" fill="#231f20"/><path d="M290.49,674.8a.65.65,0,0,1,0-.19v-9.55h0v-1h4v-3.79h-22l1.89,3.79h8.11v10.55a.51.51,0,0,1-.11.31l-9.47,11.73v19.68h22.49V686.57ZM289.57,694h-3.95a.5.5,0,0,0-.5.5v3.95h-5v-3.95a.5.5,0,0,0-.5-.5h-3.95v-5h3.95a.51.51,0,0,0,.5-.5v-4h5v4a.5.5,0,0,0,.5.5h3.95Z" fill="#fdd600"/><path d="M294.84,684.78,290,673v-9.45h3.51a.5.5,0,0,0,.5-.5v-4.79a.5.5,0,0,0-.5-.5H270.15a.5.5,0,0,0-.43.24.48.48,0,0,0,0,.48l2.4,4.8a.49.49,0,0,0,.45.27h5.65l-1.92,4.82a.5.5,0,0,0,.28.65l.18,0a.49.49,0,0,0,.46-.31l2.08-5.19H280v9.37l-9.47,11.72a.52.52,0,0,0-.11.32v20.36a.5.5,0,0,0,.5.5h23.49a.5.5,0,0,0,.5-.5V685A.58.58,0,0,0,294.84,684.78Zm-22-22.22L271,658.77h22v3.79H272.85Zm21,42.27H271.38V685.15l9.47-11.73a.51.51,0,0,0,.11-.31v-9.55h8v9.55a.65.65,0,0,0,0,.19l4.88,11.77Z" fill="#231f20"/><path d="M286.12,684.05a.5.5,0,0,0-.5-.5h-6a.5.5,0,0,0-.5.5v4h-3.95a.5.5,0,0,0-.5.5v6a.5.5,0,0,0,.5.5h3.95v3.95a.5.5,0,0,0,.5.5h6a.51.51,0,0,0,.5-.5V695h3.95a.51.51,0,0,0,.5-.5v-6a.5.5,0,0,0-.5-.5h-3.95Zm3.45,5v5h-3.95a.5.5,0,0,0-.5.5v3.95h-5v-3.95a.5.5,0,0,0-.5-.5h-3.95v-5h3.95a.51.51,0,0,0,.5-.5v-4h5v4a.5.5,0,0,0,.5.5Z" fill="#231f20"/><path d="M267.19,660h1a.5.5,0,0,0,.5-.5.5.5,0,0,0-.5-.5h-1a.5.5,0,0,0,0,1Z" fill="#231f20"/><path d="M257.86,660h2.33a.5.5,0,0,0,.5-.5.5.5,0,0,0-.5-.5h-2.33a.5.5,0,0,0-.5.5A.5.5,0,0,0,257.86,660Z" fill="#231f20"/><path d="M262.52,660h2.34a.5.5,0,0,0,0-1h-2.34a.51.51,0,0,0-.5.5A.5.5,0,0,0,262.52,660Z" fill="#231f20"/><path d="M255.53,659h-1a.5.5,0,1,0,0,1h1a.5.5,0,0,0,0-1Z" fill="#231f20"/><path d="M268.71,661.38a.5.5,0,1,0-.34-.94l-.94.34a.49.49,0,0,0-.3.64.5.5,0,0,0,.47.33.45.45,0,0,0,.16,0Z" fill="#231f20"/><path d="M263.49,662.72a.5.5,0,0,0,.47.33l.17,0,1.82-.65a.5.5,0,1,0-.34-.94l-1.82.65A.49.49,0,0,0,263.49,662.72Z" fill="#231f20"/><path d="M262.61,663a.5.5,0,0,0-.64-.3l-1.82.65a.5.5,0,0,0-.3.64.48.48,0,0,0,.47.33.52.52,0,0,0,.17,0l1.82-.66A.5.5,0,0,0,262.61,663Z" fill="#231f20"/><path d="M259,664.34a.5.5,0,0,0-.64-.3l-1.82.65a.5.5,0,0,0,.17,1l.17,0,1.82-.65A.5.5,0,0,0,259,664.34Z" fill="#231f20"/><path d="M254.69,665.34l-.94.34a.5.5,0,0,0,.17,1l.17,0,.94-.34a.5.5,0,1,0-.34-.94Z" fill="#231f20"/><path d="M268.63,661.88l-.76.64a.51.51,0,0,0-.06.71.52.52,0,0,0,.38.17.48.48,0,0,0,.32-.11l.77-.65a.5.5,0,1,0-.65-.76Z" fill="#231f20"/><path d="M263.93,665.85,262.62,667a.51.51,0,0,0-.06.71.51.51,0,0,0,.71.05l1.31-1.11a.49.49,0,0,0,.06-.7A.51.51,0,0,0,263.93,665.85Z" fill="#231f20"/><path d="M266.56,663.63l-1.32,1.11a.52.52,0,0,0-.06.71.53.53,0,0,0,.71.06l1.31-1.11a.51.51,0,0,0,.06-.71A.49.49,0,0,0,266.56,663.63Z" fill="#231f20"/><path d="M261.31,668.07,260,669.18a.5.5,0,1,0,.64.76l1.31-1.11a.48.48,0,0,0,.06-.7A.49.49,0,0,0,261.31,668.07Z" fill="#231f20"/><path d="M258.69,670.29l-.77.64a.52.52,0,0,0-.06.71.5.5,0,0,0,.39.18.51.51,0,0,0,.32-.12l.76-.65a.5.5,0,0,0-.64-.76Z" fill="#231f20"/><circle cx="336.97" cy="429.95" r="1.84" fill="#fdd600"/><circle cx="346.46" cy="429.95" r="1.84" fill="#fdd600"/><circle cx="358.26" cy="448.14" r="1.84" fill="#fdd600"/><path d="M360.6,447.64a2.84,2.84,0,1,0-3.44,2.77l.12,16.67v.2a7.64,7.64,0,0,1-15.21.36L342,453.18h4.87a.51.51,0,0,0,.47-.32l6.39-16.6a4.17,4.17,0,0,0,0-3.85,4,4,0,0,0-2.17-1.75l-2.79-1.07s0-.09,0-.14a2.86,2.86,0,1,0-.24,1.13l2.69,1a2.91,2.91,0,0,1,1.63,1.29,3.26,3.26,0,0,1,0,2.94l-6.3,16.34H335.88l-6.32-16.39a3.18,3.18,0,0,1,0-2.89,2.92,2.92,0,0,1,1.65-1.3l2.67-1a2.84,2.84,0,1,0-.23-1.12s0,.09,0,.14l-2.79,1.06a4,4,0,0,0-2.18,1.76,4.11,4.11,0,0,0,0,3.79l6.42,16.66a.5.5,0,0,0,.46.32H341l.06,14.54a8.81,8.81,0,0,0,8.6,7.64c.24,0,.47,0,.7,0a8.77,8.77,0,0,0,7.9-8l-.12-16.89A2.83,2.83,0,0,0,360.6,447.64ZM346,431.29a1.84,1.84,0,1,1,1.84-1.84A1.85,1.85,0,0,1,346,431.29Zm-9.49-3.68a1.84,1.84,0,1,1-1.83,1.84A1.84,1.84,0,0,1,336.47,427.61Zm21.29,21.87a1.84,1.84,0,1,1,1.84-1.84A1.84,1.84,0,0,1,357.76,449.48Z" fill="#231f20"/><path d="M141.57,674.6a.49.49,0,0,1-.45-.36c-.29-1-2.37-2.06-5.36-2.06s-5.09,1.07-5.36,2.07a.52.52,0,0,1-.45.37c-3.53.2-7,.57-10.47,1.11v16.59a65.41,65.41,0,0,0,16.41,2.1H136a65,65,0,0,0,16.36-2.1V675.73A107.86,107.86,0,0,0,141.57,674.6Z" fill="#fdd600"/><path d="M159.12,680.61a5.46,5.46,0,0,0-3.05-3.27,6.35,6.35,0,0,0-4.26-.28v-3.25a.51.51,0,0,0-.42-.5,106.07,106.07,0,0,0-10.94-1.19c-.71-1.43-3.21-2.44-6.19-2.44s-5.49,1-6.19,2.46a106.45,106.45,0,0,0-10.67,1.17.51.51,0,0,0-.42.5v2.91a6.47,6.47,0,0,0-4.26.28,5.46,5.46,0,0,0-3,3.27,6,6,0,0,0,4.09,7.43,6.69,6.69,0,0,0,2.15.36A6.36,6.36,0,0,0,117,688v3.24a.48.48,0,0,0,.37.48,65.83,65.83,0,0,0,17,2.24h.06a65.89,65.89,0,0,0,17-2.24.48.48,0,0,0,.37-.48v-2.9a6.34,6.34,0,0,0,1.06.1A6.75,6.75,0,0,0,155,688a6.55,6.55,0,0,0,3.64-3A5.49,5.49,0,0,0,159.12,680.61Zm-24.67,12.31h-.06a65.41,65.41,0,0,1-16.41-2.1V674.23c3.42-.54,6.94-.91,10.47-1.11a.52.52,0,0,0,.45-.37c.27-1,2.4-2.07,5.36-2.07s5.07,1,5.36,2.06a.49.49,0,0,0,.45.36,107.86,107.86,0,0,1,10.74,1.13v16.59A65,65,0,0,1,134.45,692.92Zm-20.37-6.16a5,5,0,0,1-3.46-6.17,4.52,4.52,0,0,1,2.5-2.68,5.4,5.4,0,0,1,2.15-.44,6,6,0,0,1,1.71.27v9.2A5.64,5.64,0,0,1,114.08,686.76Zm43.71-2.19a5.46,5.46,0,0,1-3.08,2.52,5.64,5.64,0,0,1-2.9.19v-9.2a5.6,5.6,0,0,1,1.71-.27,5.3,5.3,0,0,1,2.15.44,4.42,4.42,0,0,1,2.12,6.32Z" fill="#231f20"/><path d="M143.62,677.35H125.17a.5.5,0,0,0-.5.5.5.5,0,0,0,.5.5h18.45a.5.5,0,0,0,.5-.5A.5.5,0,0,0,143.62,677.35Z" fill="#231f20"/><path d="M143.62,681.55H125.17a.5.5,0,0,0-.5.5.5.5,0,0,0,.5.5h18.45a.5.5,0,0,0,.5-.5A.5.5,0,0,0,143.62,681.55Z" fill="#231f20"/><path d="M143.62,685.74H125.17a.5.5,0,0,0-.5.5.5.5,0,0,0,.5.5h18.45a.5.5,0,0,0,.5-.5A.5.5,0,0,0,143.62,685.74Z" fill="#231f20"/><path d="M273.66,114.7a.5.5,0,0,0-.5.5v46.42a.5.5,0,0,0,1,0V115.2A.5.5,0,0,0,273.66,114.7Z" fill="#231f20"/><path d="M267.73,128.44a5.38,5.38,0,0,0-3.41-1.06l-5.89,0a5.55,5.55,0,0,0-3.27,1.27,6,6,0,0,0-1.9,4.92v10.2a2.3,2.3,0,0,0,.65,1.53,2.18,2.18,0,0,0,2.47.42,1.35,1.35,0,0,0,.26-.15v14a2.7,2.7,0,0,0,4.89,1.56,2.69,2.69,0,0,0,4.88-1.56v-14a2.19,2.19,0,0,0,3.38-1.84V133.3A5.78,5.78,0,0,0,267.73,128.44Zm1.06,15.33a1.19,1.19,0,0,1-2.38,0v-10.7a.5.5,0,0,0-.5-.5.5.5,0,0,0-.5.5v26.55a1.69,1.69,0,0,1-3.38,0h0V145.15a.5.5,0,0,0-.5-.5.5.5,0,0,0-.5.5v14.47h0a1.7,1.7,0,0,1-3.39,0V143.77h0v-10.7a.5.5,0,0,0-1,0v10.69a1.24,1.24,0,0,1-.69,1.08,1.21,1.21,0,0,1-1.34-.23,1.28,1.28,0,0,1-.35-.84V133.54a5,5,0,0,1,1.55-4.1,4.66,4.66,0,0,1,2.65-1.05h5.88a4.3,4.3,0,0,1,2.78.85,4.85,4.85,0,0,1,1.67,4Z" fill="#231f20"/><path d="M261.53,125.87a4.73,4.73,0,1,0-4.72-4.72A4.73,4.73,0,0,0,261.53,125.87Zm0-8.45a3.73,3.73,0,1,1-3.72,3.73A3.73,3.73,0,0,1,261.53,117.42Z" fill="#231f20"/><path d="M294,128.44a4.74,4.74,0,0,0-1.31-.72v-.38a.5.5,0,0,0-.5-.5h-8.77a.5.5,0,0,0-.5.5v.45a5.11,5.11,0,0,0-1.48.88,6,6,0,0,0-1.9,4.92v10.2a2.27,2.27,0,0,0,.64,1.53,2.2,2.2,0,0,0,2.48.42,1.35,1.35,0,0,0,.26-.15v14a2.69,2.69,0,0,0,2.69,2.69,2.66,2.66,0,0,0,2.19-1.13,2.7,2.7,0,0,0,4.89-1.56v-14a2.19,2.19,0,0,0,3.38-1.84V133.29A5.79,5.79,0,0,0,294,128.44Zm1.07,15.33a1.19,1.19,0,0,1-2.38,0v-15a4.48,4.48,0,0,1,.71.43,4.88,4.88,0,0,1,1.67,4Zm-6.77,15.85v-6.33h3.39v6.33a1.7,1.7,0,0,1-3.39,0Zm-4.38,0v-6.33h3.38v6.33a1.69,1.69,0,0,1-3.38,0Zm-3-15a1.23,1.23,0,0,1-.35-.84V133.54a5,5,0,0,1,1.55-4.1,3.73,3.73,0,0,1,.83-.55v14.87a1.24,1.24,0,0,1-.69,1.08A1.21,1.21,0,0,1,280.9,144.61Zm10.8-16.77v24.45h-7.77V127.84Z" fill="#231f20"/><path d="M287.81,125.87a4.73,4.73,0,1,0-4.72-4.72A4.73,4.73,0,0,0,287.81,125.87Zm0-8.45a3.73,3.73,0,1,1-3.72,3.73A3.73,3.73,0,0,1,287.81,117.42Z" fill="#231f20"/><path d="M343.52,519a7,7,0,0,0-4.51,1.76,6.27,6.27,0,0,0-1.67,4.1v.21c0,1.32,0,3.76-.07,8.56a2.19,2.19,0,0,0,.56,1.7,1.94,1.94,0,0,0,1.43.63,2,2,0,0,0,1.88-2v-.12a.51.51,0,0,1,.07-.24v-8a.5.5,0,0,1,.5-.5.5.5,0,0,1,.5.5v8.24a.48.48,0,0,1-.07.23v17.81a2.32,2.32,0,0,0,2.26,2.25h0a2.31,2.31,0,0,0,2.29-2.16v-.05a.34.34,0,0,1,0-.1l1,0s0,0,0,.05v0a.76.76,0,0,1,0,.15,2.22,2.22,0,0,0,4.43-.14v-26.7a.5.5,0,0,1,1-.19l3.28,7.81a2,2,0,0,0,2.63,1.08,2,2,0,0,0,1.08-2.63c-1.87-4.35-3.13-7.29-3.54-8.42a4.94,4.94,0,0,0-1-1.72h0s-.29-.31-.65-.62a6.94,6.94,0,0,0-4.69-1.51C349.92,519,343.79,519,343.52,519Z" fill="#fdd600"/><path d="M360.33,531.35h-1.05a3,3,0,0,0,0-2.24c-1.81-4.2-3.12-7.26-3.52-8.4a6.47,6.47,0,0,0-1.16-2s-.34-.35-.74-.7a7.79,7.79,0,0,0-5.36-1.75h-6.71a7.9,7.9,0,0,0-5.24,2.07,7.25,7.25,0,0,0-1.93,4.75v.24c0,1.27,0,3.61-.06,8.05H329a4.63,4.63,0,0,0-4.76,4.46V552.4a.5.5,0,0,0,.5.5.5.5,0,0,0,.5-.5V535.81a3.62,3.62,0,0,1,3.76-3.46h5.5a3.16,3.16,0,0,0,.83,1.9,2.88,2.88,0,0,0,2.18.94,2.82,2.82,0,0,0,1.85-.78V550.1a3.33,3.33,0,0,0,3.24,3.24h.05a3.29,3.29,0,0,0,2.77-1.52,3.21,3.21,0,0,0,5.94-1.69V532.35h2.93a3,3,0,0,0,3.33.71,2.89,2.89,0,0,0,1-.71h1.68a3.34,3.34,0,0,1,3.2,3.46V552.4a.5.5,0,0,0,.5.5.5.5,0,0,0,.5-.5V535.81A4.34,4.34,0,0,0,360.33,531.35Zm-5.71-.29-3.28-7.82a.5.5,0,0,0-1,.2v7.91h-9.93v-7.54a.5.5,0,0,0-1,0v7.54h-3.93c.05-4.45.06-6.78.06-8.05v-.21a6.16,6.16,0,0,1,1.66-4.09,7,7,0,0,1,4.51-1.76h6.72a7,7,0,0,1,4.7,1.5c.35.31.65.62.65.62a5.51,5.51,0,0,1,1,1.72c.4,1.14,1.66,4.08,3.53,8.42a2,2,0,0,1,0,1.54,2,2,0,0,1-3.71,0Zm-6.45,21.28a2.19,2.19,0,0,1-2.21-2.08v-.16a.43.43,0,0,0,0-.05V535.92a.5.5,0,0,0-1,0V550a.38.38,0,0,0,0,.1v0a2.29,2.29,0,0,1-4.58-.09V532.35h10v17.78A2.21,2.21,0,0,1,348.17,552.34Zm-12.09-18.77a2.15,2.15,0,0,1-.56-1.22h3.84a2,2,0,0,1-1.86,1.84A1.91,1.91,0,0,1,336.08,533.57Zm15.3-2.22v-5.43l2.28,5.43Z" fill="#231f20"/><path d="M345.12,515.66a5.2,5.2,0,1,0-5.21-5.2A5.21,5.21,0,0,0,345.12,515.66Zm4.2-5.2a4.21,4.21,0,1,1-4.2-4.2A4.21,4.21,0,0,1,349.32,510.46Z" fill="#231f20"/><path d="M193.68,674.45a3.66,3.66,0,0,0-2.35-.72h-5.05a3.87,3.87,0,0,0-2.25.88,4.26,4.26,0,0,0-1.31,3.47v8.82a1.07,1.07,0,0,0,.28.68,1,1,0,0,0,1.08.17,1,1,0,0,0,.55-.86.55.55,0,0,1,.51-.49.51.51,0,0,1,.49.5v13.64a1.39,1.39,0,1,0,2.78,0,.5.5,0,0,1,.5-.5.51.51,0,0,1,.5.5,1.39,1.39,0,1,0,2.77,0V686.91a.5.5,0,0,1,1,0,1,1,0,1,0,1.91,0v-9A4.11,4.11,0,0,0,193.68,674.45Z" fill="#fdd600"/><path d="M227.37,674.45a3.63,3.63,0,0,0-2.34-.72H220a3.92,3.92,0,0,0-2.26.88,4.26,4.26,0,0,0-1.31,3.47v8.82a1,1,0,0,0,.27.68,1,1,0,0,0,1.08.17,1,1,0,0,0,.55-.86.55.55,0,0,1,.51-.49.5.5,0,0,1,.49.5v13.64a1.39,1.39,0,1,0,2.78,0,.5.5,0,0,1,1,0,1.39,1.39,0,1,0,2.77,0V686.91a.51.51,0,0,1,.5-.5.5.5,0,0,1,.5.5,1,1,0,1,0,1.91,0v-9A4.11,4.11,0,0,0,227.37,674.45Z" fill="#fdd600"/><path d="M226.23,671.9a4.7,4.7,0,0,0-3-.92h-5.07a4.88,4.88,0,0,0-2.85,1.12,5.19,5.19,0,0,0-1.66,4.28v8.79a2,2,0,0,0,.57,1.37,2,2,0,0,0,2.21.37l.12-.07V698.8a2.39,2.39,0,0,0,4.28,1.46,2.38,2.38,0,0,0,4.27-1.46V686.87a2,2,0,0,0,2.91-1.71v-9A5.07,5.07,0,0,0,226.23,671.9Zm.8,4.21v9a1,1,0,1,1-1.91,0V676a.5.5,0,0,0-.5-.5.5.5,0,0,0-.5.5V698.8a1.39,1.39,0,1,1-2.77,0V686.35a.5.5,0,0,0-1,0V698.8a1.39,1.39,0,1,1-2.78,0V685.16h0V676a.5.5,0,0,0-.5-.5.5.5,0,0,0-.5.5v9.2a1,1,0,0,1-.55.86,1,1,0,0,1-1.08-.17,1,1,0,0,1-.27-.68v-8.82a4.26,4.26,0,0,1,1.31-3.47,3.92,3.92,0,0,1,2.24-.88h5.07a3.65,3.65,0,0,1,2.34.72A4.11,4.11,0,0,1,227,676.11Z" fill="#231f20"/><path d="M220.85,670.43a4.14,4.14,0,1,0-4.13-4.13A4.13,4.13,0,0,0,220.85,670.43ZM224,666.3a3.13,3.13,0,1,1-3.13-3.14A3.13,3.13,0,0,1,224,666.3Z" fill="#231f20"/><path d="M194.38,676.15a5.07,5.07,0,0,0-1.8-4.25,4.7,4.7,0,0,0-3-.92h-5.07a4.91,4.91,0,0,0-2.85,1.12,5.19,5.19,0,0,0-1.66,4.28v8.79a2,2,0,0,0,.57,1.37,2,2,0,0,0,2.21.37l.13-.07V698.8a2.38,2.38,0,0,0,4.27,1.46,2.39,2.39,0,0,0,4.28-1.46V686.87a1.9,1.9,0,0,0,1,.25,2,2,0,0,0,1.95-2Zm-1,0v9a1,1,0,1,1-1.9,0V676a.5.5,0,0,0-.5-.5.5.5,0,0,0-.5.5V698.8a1.39,1.39,0,1,1-2.78,0V686.35a.5.5,0,0,0-1,0V698.8a1.39,1.39,0,1,1-2.77,0V676a.5.5,0,0,0-.5-.5.5.5,0,0,0-.5.5v9.2a1,1,0,0,1-.56.86.93.93,0,0,1-1.35-.85v-8.82a4.2,4.2,0,0,1,1.3-3.47,3.92,3.92,0,0,1,2.24-.88h5.07a3.63,3.63,0,0,1,2.34.72A4.11,4.11,0,0,1,193.38,676.11Z" fill="#231f20"/><path d="M187.2,670.43a4.14,4.14,0,1,0-4.13-4.13A4.13,4.13,0,0,0,187.2,670.43Zm0-7.27a3.14,3.14,0,1,1-3.13,3.14A3.14,3.14,0,0,1,187.2,663.16Z" fill="#231f20"/><path d="M210.27,682.38a.57.57,0,0,0-.14-.34L208,679.81a.49.49,0,0,0-.7,0,.5.5,0,0,0,0,.71l1.35,1.4h-9.17l1.36-1.41a.5.5,0,0,0-.72-.69L197.91,682a.52.52,0,0,0-.14.34h0s0,0,0,.06a.61.61,0,0,0,0,.13.36.36,0,0,0,.07.1l0,.06h0l2.15,2.23a.52.52,0,0,0,.36.16.49.49,0,0,0,.34-.14.5.5,0,0,0,0-.71l-1.34-1.39h9.15l-1.35,1.4a.49.49,0,0,0,0,.7.45.45,0,0,0,.34.14A.48.48,0,0,0,208,685l2.16-2.24a.52.52,0,0,0,.14-.34h0Z" fill="#231f20"/></g><g id="eb5d196a-ed1f-4905-b1e4-527f24c9e982" data-name="CATEGORIES"><text transform="translate(105.42 72.41)" font-size="40" fill="#231f20" font-family="Antonio-Bold, Antonio" font-weight="700"><tspan letter-spacing="-0.01em">P</tspan><tspan x="17.87" y="0" letter-spacing="-0.01em">A</tspan><tspan x="36.56" y="0">TIENT CARE</tspan></text></g><g id="b99b53d2-cbd8-40d3-9b4c-5fdf45ff2ff5" data-name="LABELS"><text transform="translate(319.13 402.64)" font-size="6" fill="#231f20" font-family="Roboto-Regular, Roboto">o<tspan x="3.42" y="0" letter-spacing="-0.01em">t</tspan><tspan x="5.32" y="0">oscope</tspan></text><text transform="translate(109.35 402.64)" font-size="6" fill="#231f20" font-family="Roboto-Regular, Roboto"><tspan letter-spacing="-0.01em">o</tspan><tspan x="3.36" y="0">x</tspan><tspan x="6.33" y="0" letter-spacing="-0.01em">y</tspan><tspan x="9.13" y="0">gen-mask</tspan></text><text transform="translate(179.23 402.64)" font-size="6" fill="#231f20" font-family="Roboto-Regular, Roboto">scalpel-kni<tspan x="28.42" y="0" letter-spacing="-0.01em">f</tspan><tspan x="30.43" y="0">e</tspan></text><text transform="translate(250.09 402.64)" font-size="6" fill="#231f20" font-family="Roboto-Regular, Roboto">pe<tspan x="6.54" y="0" letter-spacing="-0.01em">r</tspan><tspan x="8.52" y="0">cussion-hammer</tspan></text><text transform="translate(390.01 402.64)" font-size="6" fill="#231f20" font-family="Roboto-Regular, Roboto">syringe</text><text transform="translate(459.7 402.64)" font-size="6" fill="#231f20" font-family="Roboto-Regular, Roboto">tempe<tspan x="16.94" y="0" letter-spacing="-0.02em">r</tspan><tspan x="18.86" y="0">atu</tspan><tspan x="27.39" y="0" letter-spacing="-0.01em">r</tspan><tspan x="29.36" y="0">e</tspan></text><text transform="translate(459.47 168.95)" font-size="6" fill="#231f20" font-family="Roboto-Regular, Roboto">pill-capsule</text><text transform="translate(109.55 248.6)" font-size="6" fill="#231f20" font-family="Roboto-Regular, Roboto">pill-bottle</text><text transform="translate(179.69 248.6)" font-size="6" fill="#231f20" font-family="Roboto-Regular, Roboto">herbal-medicine</text><text transform="translate(250.38 248.6)" font-size="6" fill="#231f20" font-family="Roboto-Regular, Roboto">blood</text><text transform="translate(319.61 248.6)" font-size="6" fill="#231f20" font-family="Roboto-Regular, Roboto">halo-wings</text><text transform="translate(389.43 248.6)" font-size="6" fill="#231f20" font-family="Roboto-Regular, Roboto">pill-pack</text><text transform="translate(460.25 248.6)" font-size="6" fill="#231f20" font-family="Roboto-Regular, Roboto">puzzle-piece</text><text transform="translate(389.43 325.28)" font-size="6" fill="#231f20" font-family="Roboto-Regular, Roboto">infusion-bag</text><text transform="translate(459.25 325.28)" font-size="6" fill="#231f20" font-family="Roboto-Regular, Roboto">blood-p<tspan x="20.07" y="0" letter-spacing="-0.01em">r</tspan><tspan x="22.05" y="0">essu</tspan><tspan x="34.72" y="0" letter-spacing="-0.01em">r</tspan><tspan x="36.69" y="0">e</tspan></text><text transform="translate(320.32 325.28)" font-size="6" fill="#231f20" font-family="Roboto-Regular, Roboto">blood-donation</text><text transform="translate(249.39 325.28)" font-size="6" fill="#231f20" font-family="Roboto-Regular, Roboto">mo<tspan x="8.68" y="0" letter-spacing="0.02em">r</tspan><tspan x="10.86" y="0">tar-pestel</tspan></text><text transform="translate(179.29 325.28)" font-size="6" fill="#231f20" font-family="Roboto-Regular, Roboto">band-aids</text><text transform="translate(109.61 325.28)" font-size="6" fill="#231f20" font-family="Roboto-Regular, Roboto">band-aid</text><text transform="translate(458.93 712.19)" font-size="6" fill="#231f20" font-family="Roboto-Regular, Roboto"><tspan letter-spacing="-0.02em">r</tspan><tspan x="1.91" y="0">adiation</tspan></text><text transform="translate(108.65 635.86)" font-size="6" fill="#231f20" font-family="Roboto-Regular, Roboto">mask</text><text transform="translate(179.33 635.86)" font-size="6" fill="#231f20" font-family="Roboto-Regular, Roboto">gaiter</text><text transform="translate(249.15 635.86)" font-size="6" fill="#231f20" font-family="Roboto-Regular, Roboto">face-shield</text><text transform="translate(319.68 635.86)" font-size="6" fill="#231f20" font-family="Roboto-Regular, Roboto">bandana</text><text transform="translate(388.37 635.86)" font-size="6" fill="#231f20" font-family="Roboto-Regular, Roboto">n95-mask</text><text transform="translate(109.47 712.19)" font-size="6" fill="#231f20" font-family="Roboto-Regular, Roboto">ppe-mask-two</text><text transform="translate(459.19 635.86)" font-size="6" fill="#231f20" font-family="Roboto-Regular, Roboto">ppe-mask</text><text transform="translate(390.11 712.19)" font-size="6" fill="#231f20" font-family="Roboto-Regular, Roboto">biohaza<tspan x="21.05" y="0" letter-spacing="-0.01em">r</tspan><tspan x="23.02" y="0">d</tspan></text><text transform="translate(319.55 712.19)" font-size="6" fill="#231f20" font-family="Roboto-Regular, Roboto">saniti<tspan x="14.54" y="0" letter-spacing="-0.01em">z</tspan><tspan x="17.47" y="0">er</tspan></text><text transform="translate(249.06 712.19)" font-size="6" fill="#231f20" font-family="Roboto-Regular, Roboto">sp<tspan x="6.46" y="0" letter-spacing="-0.02em">r</tspan><tspan x="8.37" y="0" letter-spacing="-0.01em">a</tspan><tspan x="11.59" y="0">y-bottle</tspan></text><text transform="translate(179.2 712.19)" font-size="6" fill="#231f20" font-family="Roboto-Regular, Roboto">social-distance</text><text transform="translate(108.88 559.59)" font-size="6" fill="#231f20" font-family="Roboto-Regular, Roboto">gurn<tspan x="12.01" y="0" letter-spacing="-0.01em">e</tspan><tspan x="15.16" y="0">y-st</tspan><tspan x="24.7" y="0" letter-spacing="-0.01em">r</tspan><tspan x="26.68" y="0">etcher</tspan></text><text transform="translate(179.03 559.59)" font-size="6" fill="#231f20" font-family="Roboto-Regular, Roboto">o<tspan x="3.42" y="0" letter-spacing="-0.01em">r</tspan><tspan x="5.4" y="0">gan-t</tspan><tspan x="18.95" y="0" letter-spacing="-0.02em">r</tspan><tspan x="20.87" y="0">ansplant</tspan></text><text transform="translate(249.01 559.59)" font-size="6" fill="#231f20" font-family="Roboto-Regular, Roboto">tissue</text><text transform="translate(388.78 559.59)" font-size="6" fill="#231f20" font-family="Roboto-Regular, Roboto">bone</text><text transform="translate(459.18 559.59)" font-size="6" fill="#231f20" font-family="Roboto-Regular, Roboto">rings</text><text transform="translate(319.4 559.59)" font-size="6" fill="#231f20" font-family="Roboto-Regular, Roboto">physical-the<tspan x="32.02" y="0" letter-spacing="-0.02em">r</tspan><tspan x="33.93" y="0">aphy</tspan></text><text transform="translate(459.83 481.07)" font-size="6" fill="#231f20" font-family="Roboto-Regular, Roboto">exam-bed-table</text><text transform="translate(389.76 481.07)" font-size="6" fill="#231f20" font-family="Roboto-Regular, Roboto">doc<tspan x="9.95" y="0" letter-spacing="-0.01em">t</tspan><tspan x="11.85" y="0">or-case</tspan></text><text transform="translate(320.07 481.07)" font-size="6" fill="#231f20" font-family="Roboto-Regular, Roboto">stethoscope</text><text transform="translate(250.38 481.07)" font-size="6" fill="#231f20" font-family="Roboto-Regular, Roboto">or-light</text><text transform="translate(179.98 481.07)" font-size="6" fill="#231f20" font-family="Roboto-Regular, Roboto">tape-measu<tspan x="31.53" y="0" letter-spacing="-0.01em">r</tspan><tspan x="33.5" y="0">e</tspan></text><text transform="translate(109.35 481.07)" font-size="6" fill="#231f20" font-family="Roboto-Regular, Roboto">o<tspan x="3.42" y="0" letter-spacing="-0.01em">r</tspan><tspan x="5.4" y="0">gan-t</tspan><tspan x="18.95" y="0" letter-spacing="-0.02em">r</tspan><tspan x="20.87" y="0">ansplant-cooler</tspan></text><text transform="translate(109.32 168.95)" font-size="6" fill="#231f20" font-family="Roboto-Regular, Roboto"><tspan letter-spacing="-0.01em">t</tspan><tspan x="1.9" y="0">ooth</tspan></text><text transform="translate(179.61 168.95)" font-size="6" fill="#231f20" font-family="Roboto-Regular, Roboto">ppe-gown</text><text transform="translate(249.72 168.95)" font-size="6" fill="#231f20" font-family="Roboto-Regular, Roboto">bath<tspan x="11.89" y="0" letter-spacing="-0.01em">r</tspan><tspan x="13.87" y="0">oom</tspan></text><text transform="translate(320.25 168.95)" font-size="6" fill="#231f20" font-family="Roboto-Regular, Roboto">awa<tspan x="11.04" y="0" letter-spacing="-0.01em">r</tspan><tspan x="13.01" y="0">eness-ribbon</tspan></text><text transform="translate(389.36 168.95)" font-size="6" fill="#231f20" font-family="Roboto-Regular, Roboto">pill-tablet</text></g></svg>