<svg xmlns="http://www.w3.org/2000/svg" viewBox="0 0 50 50"><g id="b98ddcc9-3c87-441d-b57e-6f04c94e476b" data-name="ICONS"><path d="M4.41,12.23H49.19c-.66-4.87-10.9-8.88-22.94-8.88S4,7.36,3.31,12.23Z" fill="#fdd600"/><polygon points="48.09 42.39 40.74 42.39 11.76 42.39 4.41 42.39 3.27 42.39 3.27 47.54 16.28 47.54 17.28 47.54 17.28 49.16 35.22 49.16 35.22 47.54 36.22 47.54 49.23 47.54 49.23 42.39 48.09 42.39" fill="#fdd600"/><path d="M48.23,39.89H47.09v-14h0V18.6h0v-.07h0V11.73h1.14a.51.51,0,0,0,.5-.5C48.73,5.41,38.2.85,24.75.85S.77,5.41.77,11.23a.51.51,0,0,0,.5.5H2.41v6.78h0V39.89H1.27a.5.5,0,0,0-.5.5v6.15a.51.51,0,0,0,.5.5H14.78v1.11a.5.5,0,0,0,.5.5H34.22a.5.5,0,0,0,.5-.5V47H48.23a.51.51,0,0,0,.5-.5V40.39A.5.5,0,0,0,48.23,39.89ZM47.73,46h-13V45a.5.5,0,0,0-.5-.5H15.28a.5.5,0,0,0-.5.5v1h-13V40.89h46ZM15.78,47.65V45.54H33.72v2.11Zm9-45.8c12,0,22.28,4,22.94,8.88H1.81C2.47,5.86,12.71,1.85,24.75,1.85Zm15,32.45,2.46,2.44-2.46,2.44ZM40,33.15l2.9-2.88,2.91,2.89L42.92,36ZM39.74,32V27.13l2.46,2.44Zm.19-6.11,3-3,3,3-3,3Zm-.19-1.22V19.8l2.46,2.44Zm.17-6.13,3-3,3,3-3,3Zm-.17-1.24V12.43l2.46,2.44Zm.71-5.58h4.92l-2.46,2.44Zm-1.71,0v2.62h-28V11.73Zm-29,13L7.3,22.24,9.76,19.8ZM9.57,25.9l-3,3-3-3,3-3Zm.19,1.23V32L7.3,29.57Zm0-14.7v4.88L7.3,14.87ZM6.59,14.17,4.13,11.73H9.05Zm3,4.39-3,3-3-3,3-3ZM5.88,22.24,3.41,24.68V19.79ZM3.41,27.12l2.47,2.45L3.41,32Zm3.18,3.15,2.9,2.89L6.59,36,3.68,33.16Zm3.17,4v4.88L7.3,36.74Zm-.71,5.59H4.13l2.46-2.44Zm1.71,0V15.35h3V17h-.79a.5.5,0,0,0-.5.5.5.5,0,0,0,.5.5h2.58a.5.5,0,0,0,.5-.5.51.51,0,0,0-.5-.5h-.79V15.35h6V17H20a.51.51,0,0,0-.5.5.5.5,0,0,0,.5.5h2.58a.5.5,0,0,0,.5-.5.5.5,0,0,0-.5-.5h-.79V15.35h6V17H27a.5.5,0,0,0-.5.5.5.5,0,0,0,.5.5h2.58a.5.5,0,0,0,.5-.5.51.51,0,0,0-.5-.5h-.79V15.35h6V17H34a.51.51,0,0,0-.5.5.5.5,0,0,0,.5.5h2.58a.5.5,0,0,0,.5-.5.5.5,0,0,0-.5-.5h-.79V15.35h3V25.92h0V33.1h0v6.79Zm32.16-2.44,2.46,2.44H40.45Zm.71-.71,2.46-2.44v4.88Zm0-7.17,2.46-2.45V32Zm0-7.33,2.46-2.44v4.88Zm0-7.37,2.47-2.44v4.89Zm-37.74,0L3.41,17.32V12.43Zm0,21.87L3.41,39.19V34.3Z" fill="#231f20"/></g><g id="acf7ac19-216b-4f9a-9473-492a6dd09085" data-name="LABELS"><text transform="translate(-0.43 55.07)" font-size="6" fill="#231f20" font-family="Roboto-Regular, Roboto">stage</text></g></svg>