<svg xmlns="http://www.w3.org/2000/svg" viewBox="0 0 50 50"><g id="b61e3fa9-3a24-4948-921c-309cf596f45e" data-name="ICONS"><path d="M41.69,21.05a7.6,7.6,0,0,0-6.6-3.76H17.66a7.66,7.66,0,0,0-6.72,11.35l8.72,15.85a7.66,7.66,0,0,0,13.43,0l8.72-15.85A7.6,7.6,0,0,0,41.69,21.05Z" fill="#fdd600"/><path d="M40.8,18.79a8.59,8.59,0,0,0-3.33-3.2,11.74,11.74,0,0,0,4-7.4.5.5,0,0,0-.34-.54,10.46,10.46,0,0,0-7.71.57A12,12,0,0,0,32.19,3a.5.5,0,0,0-.61-.25,11.11,11.11,0,0,0-6.75,6.51,16.63,16.63,0,0,0-1-3.77,16.94,16.94,0,0,0-2.08-3.71.5.5,0,1,0-.8.59A15.56,15.56,0,0,1,22.9,5.83a15.06,15.06,0,0,1,.66,2.1,11,11,0,0,0-6.13-5.21.5.5,0,0,0-.61.25A12,12,0,0,0,15.6,8.22a10.46,10.46,0,0,0-7.71-.57.49.49,0,0,0-.34.54,11.69,11.69,0,0,0,4.08,7.47A8.67,8.67,0,0,0,8.32,27.38L17,43.22a8.65,8.65,0,0,0,15.17,0l8.72-15.84A8.61,8.61,0,0,0,40.8,18.79ZM33.36,9.35a9.54,9.54,0,0,1,7-.87,10.78,10.78,0,0,1-4,6.64,8.72,8.72,0,0,0-3.11-.58H31.6a11.68,11.68,0,0,0,1-2A12,12,0,0,0,33.36,9.35Zm-7.61.26a10.11,10.11,0,0,1,5.73-5.79,10.88,10.88,0,0,1,.19,8.4,10.25,10.25,0,0,1-1.28,2.32H25.06A10.82,10.82,0,0,1,25.75,9.61ZM17.53,3.82a10.11,10.11,0,0,1,5.73,5.79A11,11,0,0,1,24,14.54H18.62a10.29,10.29,0,0,1-1.29-2.32A10.92,10.92,0,0,1,17.53,3.82ZM8.6,8.48a9.54,9.54,0,0,1,7.05.87,11.67,11.67,0,0,0,.75,3.23,11.68,11.68,0,0,0,1,2h-1.5a8.78,8.78,0,0,0-3.28.63A10.73,10.73,0,0,1,8.6,8.48ZM40.06,26.89,31.34,42.74a7.66,7.66,0,0,1-13.43,0L9.19,26.89a7.66,7.66,0,0,1,6.72-11.35H33.34a7.66,7.66,0,0,1,6.72,11.35Z" fill="#231f20"/><path d="M13.71,18.28a.5.5,0,0,0-.5.5v2a.5.5,0,1,0,1,0v-2A.5.5,0,0,0,13.71,18.28Z" fill="#231f20"/><path d="M19.17,18.28a.5.5,0,0,0-.5.5v2a.5.5,0,0,0,.5.5.51.51,0,0,0,.5-.5v-2A.5.5,0,0,0,19.17,18.28Z" fill="#231f20"/><path d="M24.63,18.28a.5.5,0,0,0-.5.5v2a.5.5,0,0,0,.5.5.51.51,0,0,0,.5-.5v-2A.5.5,0,0,0,24.63,18.28Z" fill="#231f20"/><path d="M30.08,18.28a.5.5,0,0,0-.5.5v2a.51.51,0,0,0,.5.5.5.5,0,0,0,.5-.5v-2A.5.5,0,0,0,30.08,18.28Z" fill="#231f20"/><path d="M35.54,18.28a.5.5,0,0,0-.5.5v2a.5.5,0,1,0,1,0v-2A.5.5,0,0,0,35.54,18.28Z" fill="#231f20"/><path d="M16.44,25.84a.5.5,0,0,0-.5.5v2a.5.5,0,1,0,1,0v-2A.5.5,0,0,0,16.44,25.84Z" fill="#231f20"/><path d="M21.9,25.84a.5.5,0,0,0-.5.5v2a.5.5,0,0,0,.5.5.5.5,0,0,0,.5-.5v-2A.5.5,0,0,0,21.9,25.84Z" fill="#231f20"/><path d="M27.35,25.84a.5.5,0,0,0-.5.5v2a.5.5,0,0,0,.5.5.5.5,0,0,0,.5-.5v-2A.5.5,0,0,0,27.35,25.84Z" fill="#231f20"/><path d="M32.81,25.84a.5.5,0,0,0-.5.5v2a.5.5,0,0,0,.5.5.5.5,0,0,0,.5-.5v-2A.5.5,0,0,0,32.81,25.84Z" fill="#231f20"/><path d="M19.17,33.39a.5.5,0,0,0-.5.5v2a.5.5,0,0,0,.5.5.5.5,0,0,0,.5-.5v-2A.51.51,0,0,0,19.17,33.39Z" fill="#231f20"/><path d="M24.63,33.39a.5.5,0,0,0-.5.5v2a.5.5,0,0,0,.5.5.5.5,0,0,0,.5-.5v-2A.51.51,0,0,0,24.63,33.39Z" fill="#231f20"/><path d="M30.08,33.39a.51.51,0,0,0-.5.5v2a.5.5,0,0,0,.5.5.5.5,0,0,0,.5-.5v-2A.5.5,0,0,0,30.08,33.39Z" fill="#231f20"/><path d="M21.9,41a.5.5,0,0,0-.5.5v2a.5.5,0,0,0,.5.5.51.51,0,0,0,.5-.5v-2A.5.5,0,0,0,21.9,41Z" fill="#231f20"/><path d="M27.35,41a.5.5,0,0,0-.5.5v2a.51.51,0,0,0,.5.5.5.5,0,0,0,.5-.5v-2A.5.5,0,0,0,27.35,41Z" fill="#231f20"/></g><g id="bc4552b4-61e6-4707-9eaf-cfc16476ab0a" data-name="LABELS"><text transform="translate(0.01 55.02)" font-size="6" fill="#231f20" font-family="Roboto-Regular, Roboto">st<tspan x="5.05" y="0" letter-spacing="-0.02em">r</tspan><tspan x="6.97" y="0">awber</tspan><tspan x="23.31" y="0" letter-spacing="0.01em">r</tspan><tspan x="25.4" y="0">y</tspan></text></g></svg>