<svg xmlns="http://www.w3.org/2000/svg" viewBox="0 0 612 792"><g id="aa48c224-3627-4763-9435-4bb810a82a2c" data-name="ICONS"><path d="M183.46,704.6a.44.44,0,0,1-.3,0h-3.61a2.1,2.1,0,0,0-2,2.1v4.88h7.74v-4.88A2.1,2.1,0,0,0,183.46,704.6Z" fill="#fdd600"/><path d="M179.49,700a2,2,0,0,0,.7,1.5,2,2,0,0,0,2.52,0,2,2,0,0,0,.7-1.5,2,2,0,0,0-3.92,0Z" fill="#fdd600"/><path d="M213.1,689.19h-20a3.15,3.15,0,0,1-4.28,0H170.13v27.39h45.24V689.19ZM187,709.82H172.41V692.89H187Z" fill="#fdd600"/><path d="M355.36,529.17H328l-1.08,2.13a.5.5,0,0,1-.44.28H312l-2.31,24h43.15Z" fill="#fdd600"/><path d="M352.25,552.07l2.41-25.1a.56.56,0,0,0-.13-.39.52.52,0,0,0-.37-.16h-1.91V524a.5.5,0,0,0-.5-.5h-27.9l-.87-2.32a.5.5,0,0,0-.47-.33H307.59a.5.5,0,0,0-.5.5V552l-.22,2.31a.51.51,0,0,0,.5.55h44.15a.5.5,0,0,0,.5-.45l.15-1.52a.57.57,0,0,0,.08-.26Zm-30.08-30.23.86,2.32a.51.51,0,0,0,.47.33h27.75v1.93H325.91a.51.51,0,0,0-.44.27l-1.08,2.14H309.77a.5.5,0,0,0-.5.45l-1.18,12.32V521.84Zm-14.25,32,2.31-24H324.7a.5.5,0,0,0,.44-.28l1.08-2.13h27.39l-2.54,26.46Z" fill="#231f20"/><path d="M268.62,446.39v-1h-.75V438H244.28v46.19h34.48V472.44a7.92,7.92,0,1,1,0-6.53V446.39Zm-8.41,2.75h-3.73a.5.5,0,0,0-.5.5v3.73h-3.31v-3.73a.5.5,0,0,0-.5-.5h-3.73v-3.32h3.73a.5.5,0,0,0,.5-.5v-3.73H256v3.73a.5.5,0,0,0,.5.5h3.73Z" fill="#fdd600"/><path d="M280.47,469.18A8.89,8.89,0,0,0,278,463V445.89s0,0,0-.06,0-.05,0-.07a.59.59,0,0,0-.12-.22h0l-10.14-10.15h0a.59.59,0,0,0-.22-.12H242a.5.5,0,0,0-.5.5v47.19a.5.5,0,0,0,.5.5h35.48a.5.5,0,0,0,.5-.5v-7.62A8.89,8.89,0,0,0,280.47,469.18Zm-37.94,13.26V436.25h24.34v9.64a.5.5,0,0,0,.5.5H277v15.75a8.83,8.83,0,0,0-5.46-1.88,8.92,8.92,0,1,0,5.46,16v6.22Zm29-5.34a7.92,7.92,0,1,1,7.92-7.92A7.93,7.93,0,0,1,271.55,477.1Zm4.75-31.71h-8.43V437Z" fill="#231f20"/><path d="M275.32,464.77a.49.49,0,0,0-.68.18l-4.29,7.33-1.93-2.35a.5.5,0,1,0-.77.63l2.38,2.91a.49.49,0,0,0,.39.19h0a.54.54,0,0,0,.4-.25l4.65-8A.49.49,0,0,0,275.32,464.77Z" fill="#231f20"/><path d="M247.77,459.85h16.35a.51.51,0,0,0,.5-.5.5.5,0,0,0-.5-.5H247.77a.5.5,0,0,0-.5.5A.51.51,0,0,0,247.77,459.85Z" fill="#231f20"/><path d="M247.77,467.55h11a.5.5,0,0,0,.5-.5.51.51,0,0,0-.5-.5h-11a.51.51,0,0,0-.5.5A.5.5,0,0,0,247.77,467.55Z" fill="#231f20"/><path d="M259.66,474.26H247.77a.5.5,0,1,0,0,1h11.89a.5.5,0,1,0,0-1Z" fill="#231f20"/><path d="M275.32,464.77a.49.49,0,0,0-.68.18l-4.29,7.33-1.93-2.35a.5.5,0,1,0-.77.63l2.38,2.91a.49.49,0,0,0,.39.19h0a.54.54,0,0,0,.4-.25l4.65-8A.49.49,0,0,0,275.32,464.77Z" fill="#231f20"/><path d="M247.94,450.14h3.73v3.73a.5.5,0,0,0,.5.5h4.31a.5.5,0,0,0,.5-.5v-3.73h3.73a.5.5,0,0,0,.5-.5v-4.32a.5.5,0,0,0-.5-.5H257v-3.73a.5.5,0,0,0-.5-.5h-4.31a.5.5,0,0,0-.5.5v3.73h-3.73a.5.5,0,0,0-.5.5v4.32A.5.5,0,0,0,247.94,450.14Zm.5-4.32h3.73a.5.5,0,0,0,.5-.5v-3.73H256v3.73a.5.5,0,0,0,.5.5h3.73v3.32h-3.73a.5.5,0,0,0-.5.5v3.73h-3.31v-3.73a.5.5,0,0,0-.5-.5h-3.73Z" fill="#231f20"/><path d="M198.62,446.19v-.8h-.75V438H174.28v46.19h34.48V472.44a7.92,7.92,0,1,1,0-6.53V446.19Zm-8.41,2.95h-3.73a.5.5,0,0,0-.5.5v3.73h-3.31v-3.73a.5.5,0,0,0-.5-.5h-3.73v-3.32h3.73a.5.5,0,0,0,.5-.5v-3.73H186v3.73a.5.5,0,0,0,.5.5h3.73Z" fill="#fdd600"/><path d="M177.77,459.85h16.35a.51.51,0,0,0,.5-.5.5.5,0,0,0-.5-.5H177.77a.5.5,0,0,0-.5.5A.51.51,0,0,0,177.77,459.85Z" fill="#231f20"/><path d="M177.77,467.55h11a.5.5,0,0,0,.5-.5.51.51,0,0,0-.5-.5h-11a.51.51,0,0,0-.5.5A.5.5,0,0,0,177.77,467.55Z" fill="#231f20"/><path d="M189.66,474.26H177.77a.5.5,0,1,0,0,1h11.89a.5.5,0,0,0,0-1Z" fill="#231f20"/><path d="M210.47,469.18A8.89,8.89,0,0,0,208,463V445.89s0,0,0-.06,0-.05,0-.07a.59.59,0,0,0-.12-.22h0l-10.14-10.15h0a.59.59,0,0,0-.22-.12H172a.5.5,0,0,0-.5.5v47.19a.5.5,0,0,0,.5.5h35.48a.5.5,0,0,0,.5-.5v-7.62A8.89,8.89,0,0,0,210.47,469.18Zm-37.94,13.26V436.25h24.34v9.64a.5.5,0,0,0,.5.5H207v15.75a8.83,8.83,0,0,0-5.46-1.88,8.92,8.92,0,1,0,5.46,16v6.22Zm29-5.34a7.92,7.92,0,1,1,7.92-7.92A7.93,7.93,0,0,1,201.55,477.1Zm4.75-31.71h-8.43V437Z" fill="#231f20"/><path d="M201.89,464.3a3,3,0,0,0-2.12.7,2.45,2.45,0,0,0-.79,1.91h1.86a1.22,1.22,0,0,1,.29-.81,1.06,1.06,0,0,1,.76-.29c.67,0,1,.36,1,1.08a1.33,1.33,0,0,1-.19.69,4.33,4.33,0,0,1-.77.84,2.88,2.88,0,0,0-.8,1.05,3.94,3.94,0,0,0-.21,1.42h1.64l0-.39a1.73,1.73,0,0,1,.56-1.09l.51-.5a4.36,4.36,0,0,0,.86-1.07A2.54,2.54,0,0,0,204,465,3.08,3.08,0,0,0,201.89,464.3Z" fill="#fdd600"/><path d="M201.77,471.87a1,1,0,0,0-.75.28,1,1,0,0,0,0,1.4,1.18,1.18,0,0,0,1.5,0,1,1,0,0,0,.29-.7.93.93,0,0,0-.29-.7A1,1,0,0,0,201.77,471.87Z" fill="#fdd600"/><path d="M177.94,450.14h3.73v3.73a.5.5,0,0,0,.5.5h4.31a.5.5,0,0,0,.5-.5v-3.73h3.73a.5.5,0,0,0,.5-.5v-4.32a.5.5,0,0,0-.5-.5H187v-3.73a.5.5,0,0,0-.5-.5h-4.31a.5.5,0,0,0-.5.5v3.73h-3.73a.5.5,0,0,0-.5.5v4.32A.5.5,0,0,0,177.94,450.14Zm.5-4.32h3.73a.5.5,0,0,0,.5-.5v-3.73H186v3.73a.5.5,0,0,0,.5.5h3.73v3.32h-3.73a.5.5,0,0,0-.5.5v3.73h-3.31v-3.73a.5.5,0,0,0-.5-.5h-3.73Z" fill="#231f20"/><path d="M201.77,471.87a1,1,0,0,0-.75.28,1,1,0,0,0,0,1.4,1.18,1.18,0,0,0,1.5,0,1,1,0,0,0,.29-.7.93.93,0,0,0-.29-.7A1,1,0,0,0,201.77,471.87Z" fill="#231f20"/><path d="M201.89,464.3a3,3,0,0,0-2.12.7,2.45,2.45,0,0,0-.79,1.91h1.86a1.22,1.22,0,0,1,.29-.81,1.06,1.06,0,0,1,.76-.29c.67,0,1,.36,1,1.08a1.33,1.33,0,0,1-.19.69,4.33,4.33,0,0,1-.77.84,2.88,2.88,0,0,0-.8,1.05,3.94,3.94,0,0,0-.21,1.42h1.64l0-.39a1.73,1.73,0,0,1,.56-1.09l.51-.5a4.36,4.36,0,0,0,.86-1.07A2.54,2.54,0,0,0,204,465,3.08,3.08,0,0,0,201.89,464.3Z" fill="#231f20"/><path d="M479.75,701.56,491.11,691a.56.56,0,0,0,.16-.54.55.55,0,0,0-.39-.4l-38.46-11a.56.56,0,0,0-.7.65L459.91,719a.55.55,0,0,0,.92.29L472,708.66a.5.5,0,0,1,.35-.14h0a.46.46,0,0,1,.35.16l13.32,14.43,7-6.5-13.32-14.34A.5.5,0,0,1,479.75,701.56Z" fill="#fdd600"/><path d="M492.36,714.54,479,700.2,490,690a1.56,1.56,0,0,0,.45-1.5,1.53,1.53,0,0,0-1.08-1.13l-38.47-11a1.54,1.54,0,0,0-1.48.36,1.52,1.52,0,0,0-.46,1.45l8.18,39.3a1.55,1.55,0,0,0,2.59.8L470.59,708l13.32,14.43a.57.57,0,0,0,.35.16h0a.51.51,0,0,0,.34-.14l7.72-7.18A.5.5,0,0,0,492.36,714.54Zm-8.06,6.82L471,706.93a.46.46,0,0,0-.35-.16h0a.5.5,0,0,0-.35.14l-11.19,10.67a.55.55,0,0,1-.92-.29L450,678a.56.56,0,0,1,.7-.65l38.46,11a.55.55,0,0,1,.39.4.56.56,0,0,1-.16.54L478,699.81a.5.5,0,0,0,0,.71l13.32,14.34Z" fill="#231f20"/><path d="M261.89,196.87a1.18,1.18,0,0,0-.87.35l-11.84,11.83,2.12,2.2,8.17-8.08a.5.5,0,0,1,.86.35v18.1h3.11v-18.1a.51.51,0,0,1,.31-.46.49.49,0,0,1,.55.11l8.08,8.08,2.21-2.11-11.84-11.92A1.21,1.21,0,0,0,261.89,196.87Z" fill="#fdd600"/><path d="M274,207.09l-11.83-11.83a2.26,2.26,0,0,0-3.15,0l-11.83,11.83a1.05,1.05,0,0,0,0,1.51l2.11,2.11a1.05,1.05,0,0,0,1.5,0l7.24-7.23v17.39a.5.5,0,0,0,.5.5h4.11a.5.5,0,0,0,.5-.5V203.48l7.24,7.23a1.05,1.05,0,0,0,1.5,0L274,208.6a1.05,1.05,0,0,0,0-1.51ZM271.13,210l-8.08-8.08a.49.49,0,0,0-.55-.11.51.51,0,0,0-.31.46v18.1h-3.11v-18.1a.51.51,0,0,0-.31-.46.51.51,0,0,0-.55.11L250.05,210l-2.12-2.2L259.77,196a1.18,1.18,0,0,1,.87-.35,1.21,1.21,0,0,1,.86.35l11.84,11.92Z" fill="#231f20"/><path d="M261.31,232.17c-2-.57-2.66-.86-2.66-1.9s.61-1.54,1.86-1.54a2.18,2.18,0,0,1,1.5.47,2,2,0,0,1,.64,1.33h2.78c-.14-2-1.35-3.63-4.08-3.9v-1.84h-1.43v1.82c-2.34.21-4.09,1.57-4.09,3.94,0,2,1.1,3.16,4.31,4,2,.57,2.77,1.09,2.77,2.35,0,1-.55,1.67-2.13,1.67a2.31,2.31,0,0,1-2.5-2.08h-2.8c.16,2.51,1.83,4,4.44,4.22v1.83h1.43v-1.83c3.11-.24,4.44-2,4.44-4.14S264.86,233.21,261.31,232.17Z" fill="#231f20"/><path d="M194.3,236.17a.53.53,0,0,1-.55.11.5.5,0,0,1-.31-.47v-18.1h-3.11v18.1a.52.52,0,0,1-.31.47.53.53,0,0,1-.55-.11l-8.08-8.09-2.21,2.12L191,242.12a1.24,1.24,0,0,0,1.73,0h0l11.84-11.83-2.12-2.21Z" fill="#fdd600"/><path d="M204,228.24l-2.11-2.11a1.05,1.05,0,0,0-1.5,0l-7.24,7.23V216a.5.5,0,0,0-.5-.5h-4.11a.5.5,0,0,0-.5.5v17.4l-7.24-7.23a1.07,1.07,0,0,0-1.5,0l-2.11,2.11a1,1,0,0,0-.32.75,1,1,0,0,0,.32.75l11.83,11.84a2.17,2.17,0,0,0,1.53.64h.07a2.18,2.18,0,0,0,1.55-.64L204,229.74a1,1,0,0,0,.32-.75A1.07,1.07,0,0,0,204,228.24ZM191.5,240.87h0a1.24,1.24,0,0,1-1.73,0L177.93,229l2.21-2.12,8.08,8.09a.53.53,0,0,0,.55.11.52.52,0,0,0,.31-.47v-18.1h3.11v18.1a.5.5,0,0,0,.31.47.53.53,0,0,0,.55-.11l8.17-8.09,2.12,2.21Z" fill="#231f20"/><path d="M190.78,208.07a2.31,2.31,0,0,1-2.5-2.08h-2.8c.16,2.52,1.83,4,4.44,4.23v1.83h1.43v-1.83c3.11-.25,4.44-2.05,4.44-4.15s-.93-3.41-4.48-4.44c-2-.58-2.66-.87-2.66-1.9s.61-1.55,1.86-1.55a2.18,2.18,0,0,1,1.5.47,2,2,0,0,1,.64,1.34h2.78c-.14-2-1.35-3.64-4.08-3.91v-1.84h-1.43v1.82c-2.34.21-4.09,1.57-4.09,3.94,0,2,1.1,3.16,4.31,4.05,2,.57,2.77,1.09,2.77,2.35C192.91,207.38,192.36,208.07,190.78,208.07Z" fill="#231f20"/><path d="M140.59,206.58,138.65,205h0l-2.14-1.71-.83-.65-1.3-1-1.06-.85-1.06.06c-2.38.14-9.45.56-10.56.76L103,225.4a3.8,3.8,0,0,0-.79,2.82,3.86,3.86,0,0,0,1.44,2.56l14.89,11.69a3.83,3.83,0,0,0,5.38-.65l18.61-23.69C142.3,216.59,140.85,207.81,140.59,206.58Zm-7.22,1.67a2.53,2.53,0,1,1-2-4.09,2.46,2.46,0,0,1,1.55.54A2.53,2.53,0,0,1,133.37,208.25Z" fill="#fdd600"/><path d="M139.6,204.15l-3.45-2.74,5.22-6.68a.5.5,0,0,0-.79-.61l-5.21,6.67L132,198.14a.5.5,0,0,0-.37-.11l-1.22.07c-10.9.65-11,.75-11.19,1L100.48,223a4.83,4.83,0,0,0,.82,6.78l14.89,11.7a4.83,4.83,0,0,0,6.78-.82l18.75-23.87a.47.47,0,0,0,.1-.36C141.81,216.34,140,204.44,139.6,204.15Zm-17.41,35.92a3.83,3.83,0,0,1-5.38.65L101.92,229a3.86,3.86,0,0,1-1.44-2.56,3.8,3.8,0,0,1,.79-2.82L120,199.86c1.11-.2,8.18-.62,10.56-.76l1.06-.06,3.19,2.53-1.62,2.07a3.53,3.53,0,1,0,.79.62l1.61-2.06,3.3,2.63c.26,1.23,1.71,10,2,11.55Zm11.18-31.82a2.53,2.53,0,1,1-2-4.09,2.46,2.46,0,0,1,1.55.54A2.53,2.53,0,0,1,133.37,208.25Z" fill="#231f20"/><path d="M125.16,215.91l-1.07-.84L123,216.43c-1.86-1.21-4-1.22-5.35.54-1.18,1.5-1,3,.84,5.55,1.16,1.6,1.43,2.43.69,3.37-.57.73-1.39.92-2.57,0a2.19,2.19,0,0,1-.64-3l-2.09-1.64c-1.36,2-1,4.05.84,5.75l-1.08,1.37,1.07.84,1.07-1.37c2.46,1.64,4.51,1.08,5.74-.49s1.3-3.09-.74-5.94c-1.13-1.57-1.48-2.2-.87-3s1.36-.79,2.29-.06a2.05,2.05,0,0,1,.85,1.22,1.89,1.89,0,0,1-.31,1.38c.31.23.81.63,1.12.87s.72.57,1,.75c1.08-1.6,1.12-3.5-.76-5.3Z" fill="#231f20"/><polygon points="135.37 368.87 135.37 365.5 134.62 365.5 134.62 370.2 135.37 368.87" fill="#fdd600"/><path d="M102.86,365.5v39.78h30.76V383.75l-9.84,17.45a.52.52,0,0,1-.31.23h0L119,404.71a.46.46,0,0,1-.29.1.45.45,0,0,1-.25-.07.49.49,0,0,1-.25-.48l.5-5.51a.51.51,0,0,1,0-.4L133.62,372V365.5Z" fill="#fdd600"/><path d="M134.62,405.78a.5.5,0,0,1-.5.5H102.86V407h32.51V380.65l-.75,1.33Z" fill="#fdd600"/><path d="M126.69,363.75h6.93V372l.33-.58h0l.67-1.19v-6.95a.5.5,0,0,0-.5-.5h-7.54a3.09,3.09,0,0,1,.11.75Z" fill="#231f20"/><path d="M134.62,405.78V382l-1,1.77v21.53H101.11V363.75h7.23v-.25a3.09,3.09,0,0,1,.11-.75h-7.84a.5.5,0,0,0-.5.5v42.53a.5.5,0,0,0,.5.5h33.51A.5.5,0,0,0,134.62,405.78Z" fill="#231f20"/><path d="M108.34,363.75V365a.5.5,0,0,0,.5.5h17.35a.5.5,0,0,0,.5-.5V363.5a3.09,3.09,0,0,0-.11-.75,2.85,2.85,0,0,0-2.74-2.11h-3.59a2.78,2.78,0,0,0-5.47,0h-3.59a2.86,2.86,0,0,0-2.74,2.11,3.09,3.09,0,0,0-.11.75Zm1-.25a1.85,1.85,0,0,1,1.85-1.86h4a.5.5,0,0,0,.5-.5,1.78,1.78,0,0,1,3.55,0,.5.5,0,0,0,.5.5h4a1.85,1.85,0,0,1,1.85,1.86v1H109.34Z" fill="#231f20"/><path d="M141.63,366.34l-2.28-1.29A.51.51,0,0,0,139,365a.48.48,0,0,0-.3.24l-1,1.85-.51-.29a.51.51,0,0,0-.38-.05.48.48,0,0,0-.3.24l-1.07,1.88-.75,1.33-.67,1.19h0l-.33.58-14.89,26.38a.51.51,0,0,0,0,.4l-.5,5.51a.49.49,0,0,0,.25.48.45.45,0,0,0,.25.07.46.46,0,0,0,.29-.1l4.46-3.27h0a.52.52,0,0,0,.31-.23l9.84-17.45,1-1.77.75-1.33,6.11-10.82a.51.51,0,0,0-.19-.68l-.51-.29,1-1.84A.49.49,0,0,0,141.63,366.34Zm-22.34,36.91.36-3.94,2.83,1.6Zm3.92-3.08-3.3-1.86,14.67-26,3.3,1.86Zm15.16-26.86-3.3-1.87,2-3.53.51.29h0l2.28,1.29h0l.51.29Zm1.54-4.94-1.41-.79.79-1.42,1.42.8Z" fill="#231f20"/><rect x="180.65" y="603.32" width="23.37" height="35.56" fill="#fdd600"/><path d="M202.77,600.57H178.4a.5.5,0,0,0-.5.5v36.56a.5.5,0,0,0,.5.5h24.37a.5.5,0,0,0,.5-.5V601.07A.5.5,0,0,0,202.77,600.57Zm-.5,36.56H178.9V601.57h23.37Z" fill="#231f20"/><path d="M208.14,636a.41.41,0,0,0-.16,0,1.18,1.18,0,0,1-1.18-1.19,1.2,1.2,0,0,1,1.2-1.2.5.5,0,0,0,.5-.5v-2.54a.53.53,0,0,0-.24-.43A.47.47,0,0,0,208,630a1.2,1.2,0,0,1,0-2.39h0a.44.44,0,0,0,.39-.12.49.49,0,0,0,.17-.38l0-2.79s0-.1,0-.12a.5.5,0,0,0-.49-.44,1.19,1.19,0,0,1-1.19-1.19,1.17,1.17,0,0,1,1.17-1.2h.12a.5.5,0,0,0,.4-.49v-2.55a.52.52,0,0,0-.52-.51,1.16,1.16,0,0,1-1.17-1.19,1.19,1.19,0,0,1,1.25-1.2.51.51,0,0,0,.45-.5v-3.61a.53.53,0,0,0-.52-.5,1.16,1.16,0,0,1-1.15-1.19,1.17,1.17,0,0,1,1.06-1.2.45.45,0,0,0,.34,0,.48.48,0,0,0,.27-.44V605.4a.53.53,0,0,0-.52-.5,1.2,1.2,0,0,1,0-2.39.86.86,0,0,0,.23,0,.51.51,0,0,0,.3-.46v-3.48a.51.51,0,0,0-.37-.49.5.5,0,0,0-.52.09,1.43,1.43,0,0,1-2,0,1.18,1.18,0,0,1-.06-1.66l.08-.1a.5.5,0,0,0-.39-.81h-4a.52.52,0,0,0-.5.52,1.18,1.18,0,1,1-2.35,0,.68.68,0,0,0,0-.14.51.51,0,0,0-.49-.38l-2.52,0a.54.54,0,0,0-.5.53,1.18,1.18,0,0,1-2.35,0,.5.5,0,0,0-.5-.5l-3.56,0a.4.4,0,0,0-.36.14.53.53,0,0,0-.15.36,1.18,1.18,0,0,1-2.35,0,.52.52,0,0,0-.52-.5h-2.51a.5.5,0,0,0-.5.5,1.18,1.18,0,0,1-2.35,0,.5.5,0,0,0-.51-.5h-3.69a.5.5,0,0,0-.39.81l.16.19a1.18,1.18,0,0,1-1.6,1.73l-.15-.13a.49.49,0,0,0-.82.38v3.57a.53.53,0,0,0,.36.48.45.45,0,0,0,.16,0,1.18,1.18,0,1,1,0,2.35.5.5,0,0,0-.5.5V608a.57.57,0,0,0,.25.43.5.5,0,0,0,.27.08,1.18,1.18,0,0,1,1.17,1.18,1.17,1.17,0,0,1-1.15,1.17h0a.52.52,0,0,0-.4.12.47.47,0,0,0-.16.38l0,2.76s0,.1,0,.12a.51.51,0,0,0,.5.44,1.16,1.16,0,0,1,1.16,1.17,1.15,1.15,0,0,1-1.15,1.18h-.12a.51.51,0,0,0-.4.49v2.53a.53.53,0,0,0,.52.5,1.14,1.14,0,0,1,1.15,1.17,1.18,1.18,0,0,1-1.23,1.19.51.51,0,0,0-.45.49V627a.53.53,0,0,0,.52.5,1.14,1.14,0,0,1,1.13,1.17,1.15,1.15,0,0,1-1,1.18.47.47,0,0,0-.35,0,.5.5,0,0,0-.27.44v2.55a.53.53,0,0,0,.53.5,1.18,1.18,0,0,1,0,2.35.64.64,0,0,0-.47.33.48.48,0,0,0-.06.24v4a.49.49,0,0,0,.3.47.51.51,0,0,0,.56-.11,1.19,1.19,0,1,1,1.74,1.63l-.07.1a.5.5,0,0,0,.39.81h4.07a.53.53,0,0,0,.5-.52,1.2,1.2,0,1,1,2.39,0,.51.51,0,0,0,0,.13.49.49,0,0,0,.48.39h0l2.55,0a.55.55,0,0,0,.5-.53,1.2,1.2,0,0,1,2.39,0,.51.51,0,0,0,.5.5l3.61,0a.56.56,0,0,0,.35-.15.47.47,0,0,0,.15-.35,1.2,1.2,0,1,1,2.39,0,.52.52,0,0,0,.53.5h2.53a.5.5,0,0,0,.5-.5,1.2,1.2,0,1,1,2.39,0,.5.5,0,0,0,.51.5h3.73a.5.5,0,0,0,.45-.28.51.51,0,0,0-.05-.53l-.16-.19a1.2,1.2,0,0,1,1.62-1.76l.15.13a.49.49,0,0,0,.54.07.5.5,0,0,0,.29-.45V636.5A.54.54,0,0,0,208.14,636Zm-3,3.75a2.17,2.17,0,0,0-.41,2.36h-2.34a2.19,2.19,0,0,0-4.27,0h-1.68a2.19,2.19,0,0,0-4.27,0l-2.73,0a2.18,2.18,0,0,0-2.14-1.7,2.21,2.21,0,0,0-2.13,1.7l-1.67,0a2.21,2.21,0,0,0-2.15-1.72,2.18,2.18,0,0,0-2.13,1.72h-2.75a2.2,2.2,0,0,0-2.79-2.8v-2.67a2.19,2.19,0,0,0,0-4.25v-1.63a2.19,2.19,0,0,0,0-4.25v-2.67a2.19,2.19,0,0,0,0-4.25V618a2.19,2.19,0,0,0,0-4.25l0-1.92a2.18,2.18,0,0,0,0-4.25v-1.63a2.18,2.18,0,0,0,0-4.25v-2.22a2.18,2.18,0,0,0,2.77-2.89h2.29a2.17,2.17,0,0,0,4.23,0h1.65a2.17,2.17,0,0,0,4.23,0l2.69,0a2.17,2.17,0,0,0,4.23,0l1.65,0a2.17,2.17,0,0,0,4.23,0h2.71a2.14,2.14,0,0,0,.58,2.3,2.41,2.41,0,0,0,2.58.49v2.2a2.21,2.21,0,0,0,0,4.29v1.66a2.21,2.21,0,0,0,0,4.29v2.72a2.2,2.2,0,0,0,0,4.28v1.67a2.2,2.2,0,0,0,0,4.28l0,2a2.2,2.2,0,0,0,0,4.29v1.67a2.2,2.2,0,0,0,0,4.28v2.27A2.16,2.16,0,0,0,205.12,639.77Z" fill="#231f20"/><path d="M310,370.13V398h44.67V370.13Zm39.36,9.15h-5.8v-7.66h5.8Z" fill="#fdd600"/><path d="M353.46,367.38H307.79a.5.5,0,0,0-.5.5v28.88a.5.5,0,0,0,.5.5h45.67a.5.5,0,0,0,.5-.5V367.88A.5.5,0,0,0,353.46,367.38Zm-.5,28.88H308.29V368.38H353Z" fill="#231f20"/><path d="M343.1,380.28h6.8a.5.5,0,0,0,.5-.5v-8.66a.5.5,0,0,0-.5-.5h-6.8a.5.5,0,0,0-.5.5v8.66A.5.5,0,0,0,343.1,380.28Zm.5-8.66h5.8v7.66h-5.8Z" fill="#231f20"/><path d="M318.81,379.1h17.87a.5.5,0,0,0,0-1H318.81a.5.5,0,0,0,0,1Z" fill="#231f20"/><path d="M318.81,383.35h17.87a.5.5,0,0,0,.5-.5.5.5,0,0,0-.5-.5H318.81a.5.5,0,0,0-.5.5A.51.51,0,0,0,318.81,383.35Z" fill="#231f20"/><path d="M318.81,387.59h17.87a.5.5,0,0,0,.5-.5.5.5,0,0,0-.5-.5H318.81a.51.51,0,0,0-.5.5A.5.5,0,0,0,318.81,387.59Z" fill="#231f20"/><path d="M474,134.49h0c-5-1.46-7.45-2.31-7.45-5.54,0-2.92,2-4.6,5.45-4.6a6.31,6.31,0,0,1,4.33,1.36,5.7,5.7,0,0,1,1.82,3.44h6.4c-.43-4-2.63-8.64-10.36-9.4a.5.5,0,0,1-.45-.5v-4.39H471v4.35a.5.5,0,0,1-.46.5c-6.43.56-10.43,4.39-10.43,10,0,5.26,3,8.05,11.12,10.3,5.13,1.46,7.74,2.9,7.74,6.73,0,2.25-1.07,4.94-6.18,4.94-3.79,0-6.35-2-7.07-5.54h-6.48c.58,5.93,4.67,9.66,11.3,10.25a.51.51,0,0,1,.46.5v4.37h2.81v-4.37a.5.5,0,0,1,.46-.5c7.21-.56,11.34-4.4,11.34-10.53C485.58,141.05,483.62,137.29,474,134.49Z" fill="#fdd600"/><path d="M472.57,131.78h0c-5.38-1.56-6.73-2.26-6.73-4.58,0-3,2.42-3.6,4.45-3.6a5.39,5.39,0,0,1,3.67,1.11,4.81,4.81,0,0,1,1.54,3.22.51.51,0,0,0,.5.47h7.39a.5.5,0,0,0,.5-.54c-.44-6.19-4.29-10-10.86-10.81v-4.44a.5.5,0,0,0-.5-.5h-3.81a.5.5,0,0,0-.5.5V117c-6.73.75-10.89,4.91-10.89,10.93,0,5.74,3.33,8.9,11.85,11.26,5.44,1.55,7,2.84,7,5.77,0,1.69-.54,3.94-5.18,3.94-3.45,0-5.64-1.82-6.16-5.12a.5.5,0,0,0-.49-.42h-7.44a.52.52,0,0,0-.37.16.5.5,0,0,0-.13.37c.4,6.65,4.7,10.88,11.8,11.67V160a.5.5,0,0,0,.5.5h3.81a.5.5,0,0,0,.5-.5v-4.41c7.4-.73,11.8-5,11.8-11.49C484.83,137.89,481.28,134.33,472.57,131.78Zm-.08,22.84a.5.5,0,0,0-.46.5v4.37h-2.81v-4.37a.51.51,0,0,0-.46-.5c-6.63-.59-10.72-4.32-11.3-10.25h6.48c.72,3.53,3.28,5.54,7.07,5.54,5.11,0,6.18-2.69,6.18-4.94,0-3.83-2.61-5.27-7.74-6.73-8.1-2.25-11.12-5-11.12-10.3,0-5.59,4-9.42,10.43-10a.5.5,0,0,0,.46-.5v-4.35H472v4.39a.5.5,0,0,0,.45.5c7.73.76,9.93,5.41,10.36,9.4h-6.4a5.7,5.7,0,0,0-1.82-3.44,6.31,6.31,0,0,0-4.33-1.36c-3.46,0-5.45,1.68-5.45,4.6,0,3.23,2.42,4.08,7.45,5.54h0c9.58,2.8,11.54,6.56,11.54,11.35C483.83,150.22,479.7,154.06,472.49,154.62Z" fill="#231f20"/><path d="M109.4,141.22l-10-8.92v9.45l10,9.14,35.66-6.51v-9.79Z" fill="#fdd600"/><path d="M144.59,143.35s0,0,0,0V132.49a.29.29,0,0,0,0-.09.13.13,0,0,0,0-.06.57.57,0,0,0-.13-.21h0L134,122.59a.45.45,0,0,0-.43-.12l-36.28,6.7,0,0a.56.56,0,0,0-.19.09l0,0a.63.63,0,0,0-.13.2v.07a.29.29,0,0,0,0,.09v10.81h0a.45.45,0,0,0,0,.11.22.22,0,0,0,0,.08.18.18,0,0,1,0,.07l.07.09h0l10.42,9.53.09.06.06,0a.58.58,0,0,0,.19,0h.09l36.28-6.71.05,0,.1,0,.07,0,.07-.07.05-.07a.36.36,0,0,0,0-.09S144.58,143.39,144.59,143.35Zm-46.69-8.8,9.42,8.62v2.12l-9.42-8.62Zm10.42,8.67,35.28-6.52v2.63l-35.28,6.52Zm35.28-7.54-35.28,6.52v-2.59l35.28-6.52Zm-35.63,3L98.48,130l35.05-6.48,9.49,8.69Zm-.65.76v2.39l-9.42-8.62V130.8ZM97.9,138l9.42,8.62v2.22l-9.42-8.62Zm10.42,8.84,35.28-6.52v2.53l-35.28,6.52Z" fill="#231f20"/><path d="M130.13,125.07l-12.89,2.38h0l-12.9,2.39a.49.49,0,0,0-.38.35.49.49,0,0,0,.14.51c.25.23.37.45.32.61s-.35.43-1,.56a.48.48,0,0,0-.39.35.49.49,0,0,0,.14.51l3.47,3.17a.48.48,0,0,0,.43.13,5.17,5.17,0,0,1,3.88.93.47.47,0,0,0,.34.13h.09l25.87-4.78a.48.48,0,0,0,.39-.35.51.51,0,0,0-.14-.51c-.25-.22-.37-.44-.32-.6s.32-.42.94-.55a.5.5,0,0,0,.38-.35.53.53,0,0,0-.14-.51l-3.48-3.18a.51.51,0,0,0-.43-.12,5.15,5.15,0,0,1-3.88-.94A.51.51,0,0,0,130.13,125.07Zm4.24,2.08,2.68,2.46a1.59,1.59,0,0,0-.85,1,1.34,1.34,0,0,0,.08.9l-9,1.66a2.22,2.22,0,0,0,.36-.7,2.72,2.72,0,0,0-1.07-2.74,9.84,9.84,0,0,0-4.57-2.1l8.07-1.49A6.31,6.31,0,0,0,134.37,127.15ZM107.13,135l-2.66-2.43a1.61,1.61,0,0,0,.91-1,1.33,1.33,0,0,0-.07-.92L114.2,129a2.5,2.5,0,0,0-.35.69,2.72,2.72,0,0,0,1.07,2.74,10,10,0,0,0,4.57,2.11l-8.07,1.49a6.18,6.18,0,0,0-3.58-1.1A5.53,5.53,0,0,0,107.13,135Zm10.29-6.56a9.46,9.46,0,0,1,1.79-.16,10.71,10.71,0,0,1,6.7,2.15,1.84,1.84,0,0,1,.78,1.73c-.21.71-1.18,1.3-2.61,1.56-2.9.53-6.7-.36-8.49-2a1.82,1.82,0,0,1-.78-1.72C115,129.28,116,128.7,117.42,128.44Z" fill="#231f20"/><path d="M111.39,132.5a1.44,1.44,0,0,0-1.17-.3.77.77,0,0,0-.64.51.68.68,0,0,0,.22.7,1.43,1.43,0,0,0,.93.32l.24,0a.75.75,0,0,0,.64-.52A.67.67,0,0,0,111.39,132.5Z" fill="#231f20"/><path d="M130.11,129.65a1.36,1.36,0,0,0,.92.33,1,1,0,0,0,.25,0,.76.76,0,0,0,.64-.51.67.67,0,0,0-.22-.69,1.45,1.45,0,0,0-1.17-.3.76.76,0,0,0-.64.51A.67.67,0,0,0,130.11,129.65Z" fill="#231f20"/><path d="M123.45,131.27a2.08,2.08,0,0,0-.65-.39,3.79,3.79,0,0,0-.86-.19,8.86,8.86,0,0,0-1.22,0,5.9,5.9,0,0,1-1-.05,1,1,0,0,1-.44-.18l-.06-.06a1.18,1.18,0,0,1,.45-.15,2,2,0,0,1,.85,0,1.29,1.29,0,0,1,.6.28.23.23,0,0,0,.21.06l.65-.11a.25.25,0,0,0,.19-.18.26.26,0,0,0-.07-.26,2.29,2.29,0,0,0-.76-.43,4,4,0,0,0-1-.21,5.3,5.3,0,0,0-.69,0,.13.13,0,0,0,0-.06l-.36-.34a.5.5,0,0,0-.7,0,.49.49,0,0,0,0,.65,1.1,1.1,0,0,0-.38.3.66.66,0,0,0,.16,1,2.16,2.16,0,0,0,1,.48,7.48,7.48,0,0,0,1.62.12,6.54,6.54,0,0,1,1.1,0,.93.93,0,0,1,.47.21l0,0a1.21,1.21,0,0,1-.49.16,2.49,2.49,0,0,1-.94,0,1.23,1.23,0,0,1-.63-.27.26.26,0,0,0-.22-.07l-.64.12a.26.26,0,0,0-.2.18.25.25,0,0,0,.07.25,2,2,0,0,0,.8.44,3.84,3.84,0,0,0,1.06.19h.28l.3,0a.1.1,0,0,0,0,0l.36.33a.46.46,0,0,0,.33.13.47.47,0,0,0,.37-.16.49.49,0,0,0,.07-.57,1.31,1.31,0,0,0,.53-.34C123.72,132.1,123.94,131.72,123.45,131.27Z" fill="#231f20"/><path d="M177.56,136.3a.09.09,0,0,0-.1-.09.09.09,0,0,0-.09.09C177.37,136.4,177.56,136.4,177.56,136.3Z" fill="#231f20"/><path d="M191,135.53c-1-.29-1.33-.44-1.33-.95s.31-.77.93-.77a1.05,1.05,0,0,1,.75.23.94.94,0,0,1,.32.67H193a2,2,0,0,0-2-2v-.91h-.71v.91a2,2,0,0,0-2.05,2c0,1,.55,1.58,2.16,2,1,.29,1.38.54,1.38,1.17s-.27.84-1.06.84a1.15,1.15,0,0,1-1.25-1h-1.4a2.17,2.17,0,0,0,2.22,2.11v.92H191v-.92c1.56-.12,2.22-1,2.22-2.07S192.74,136,191,135.53Z" fill="#fdd600"/><path d="M169.36,127.7v20.7h46V127.7Zm21.26,15.23a6.63,6.63,0,1,1,6.63-6.63A6.64,6.64,0,0,1,190.62,142.93Z" fill="#fdd600"/><path d="M214.14,125h-47a.5.5,0,0,0-.5.5v21.7a.5.5,0,0,0,.5.5h47a.5.5,0,0,0,.5-.5v-21.7A.5.5,0,0,0,214.14,125Zm-.5,21.7h-46V126h46Z" fill="#231f20"/><path d="M170.51,140.41a3,3,0,0,1,2.9,3,.51.51,0,0,0,.5.5h33.54a.5.5,0,0,0,.5-.5,3,3,0,0,1,2.81-3,.5.5,0,0,0,.48-.5v-7.23a.5.5,0,0,0-.5-.5,3,3,0,0,1-2.9-3,.51.51,0,0,0-.5-.5H173.91a.51.51,0,0,0-.5.5,3,3,0,0,1-2.9,3,.5.5,0,0,0-.5.5v7.22A.5.5,0,0,0,170.51,140.41Zm36.36-10.74a4,4,0,0,0,3.37,3.48v6.32a3.94,3.94,0,0,0-3.26,3.46H194.39a7.62,7.62,0,0,0,0-13.26Zm-16.25,13.26a6.63,6.63,0,1,1,6.63-6.63A6.64,6.64,0,0,1,190.62,142.93ZM171,133.15a4,4,0,0,0,3.37-3.48h12.48a7.62,7.62,0,0,0,0,13.26H174.38a4,4,0,0,0-3.37-3.49Z" fill="#231f20"/><path d="M203.79,135.21a1.09,1.09,0,1,0,1.09,1.09A1.09,1.09,0,0,0,203.79,135.21Z" fill="#231f20"/><path d="M191,135.53c-1-.29-1.33-.44-1.33-.95s.31-.77.93-.77a1.05,1.05,0,0,1,.75.23.94.94,0,0,1,.32.67H193a2,2,0,0,0-2-2v-.91h-.71v.91a2,2,0,0,0-2.05,2c0,1,.55,1.58,2.16,2,1,.29,1.38.54,1.38,1.17s-.27.84-1.06.84a1.15,1.15,0,0,1-1.25-1h-1.4a2.17,2.17,0,0,0,2.22,2.11v.92H191v-.92c1.56-.12,2.22-1,2.22-2.07S192.74,136,191,135.53Z" fill="#231f20"/><path d="M177.46,135.21a1.09,1.09,0,1,0,1.1,1.09A1.09,1.09,0,0,0,177.46,135.21Z" fill="#231f20"/><path d="M264.43,125.46a8.88,8.88,0,0,0,1.38-2.86,6.24,6.24,0,0,0-.16-4.37,2.49,2.49,0,0,0-.8-1,3.06,3.06,0,0,0-2.58-.17,5,5,0,0,0-3,2.5,1.75,1.75,0,0,1-.55.82,1.22,1.22,0,0,1-.6.29,1.93,1.93,0,0,1-1.5-.62,7.86,7.86,0,0,1-.68-.8,13.26,13.26,0,0,0-1-1,3.58,3.58,0,0,0-2.89-.79,3.39,3.39,0,0,0-2.1,1.17c-1,1.42-.31,4.37,2.23,7a30.06,30.06,0,0,1,6.07-.67A30.4,30.4,0,0,1,264.43,125.46Z" fill="#fdd600"/><path d="M274.54,156.12h0Z" fill="#231f20"/><polygon points="285.15 146.2 285.15 146.2 285.15 146.2 285.15 146.2" fill="#231f20"/><polygon points="274.15 146.05 274.15 146.05 274.15 146.05 274.15 146.05" fill="#231f20"/><path d="M274.56,156.12h-.11l.05,0h0Z" fill="#231f20"/><path d="M275.14,138.16a16.19,16.19,0,0,0-4-4.51c-4.44-3.44-9.44-3.42-12.44-3.43-1.9,0-8.85,0-14.6,4.62a13.52,13.52,0,0,0-4.35,5.33,12.8,12.8,0,0,0-1,5.76c.49,6.74,7.31,10.49,7.84,10.78h17.6a.59.59,0,0,0,0-.08,4,4,0,0,1,1.82-6.52,3.53,3.53,0,0,1,2.27-.66,4.29,4.29,0,0,1,3.15,2.18,5.2,5.2,0,0,1,.26,4.45l2.79-2.43-.33-14.25c.11-.17.24-.36.39-.55A7.41,7.41,0,0,1,275.14,138.16Z" fill="#fdd600"/><path d="M244.78,135.22a12.77,12.77,0,0,0-5.55,8.11.51.51,0,0,0,.38.59h.1a.5.5,0,0,0,.49-.4,11.71,11.71,0,0,1,5.12-7.48.5.5,0,0,0-.54-.83Z" fill="#231f20"/><path d="M285.79,138.85a.55.55,0,0,0-.06-.22c-.45-1.57-5.5-1.62-6.1-1.62a20.7,20.7,0,0,0-4.07.4c-2.49-3.73-6.87-6.62-12.2-7.92l.32-4.87a9.19,9.19,0,0,0,1.83-6.41,4.46,4.46,0,0,0-1.61-3.3c-1.66-1.1-4.29-.32-5.78,1a5.15,5.15,0,0,0-1.2,1.68c-.22.44-.3.55-.45.58s-.63-.33-1.16-1a5.56,5.56,0,0,0-2.89-2.22,4.63,4.63,0,0,0-4.71,1.5c-1.82,2.53,1,6.54,1.56,7.32a11.15,11.15,0,0,0,1.08,1.2l.35,4.44c-8.39,2-14.49,8-14.49,15,0,5,3.19,9.72,8.53,12.68l.11.06h18.51a5,5,0,0,0,8.58-1.83,19.93,19.93,0,0,0,1.53-1.35v2s0,0,0,0a.19.19,0,0,0,0,.07c0,1.79,5.53,1.84,6.16,1.84s6.17-.05,6.17-1.84c0,0,0,0,0-.05s0,0,0-.06Zm-6.16-.85c2.89,0,4.74.51,5.12.85-.38.33-2.23.85-5.12.85s-4.74-.52-5.12-.85C274.89,138.51,276.73,138,279.63,138Zm-31.12-20.92a3.5,3.5,0,0,1,2.77-1.23,3.34,3.34,0,0,1,.89.11,4.83,4.83,0,0,1,2.38,1.88c.62.77,1.2,1.5,2.1,1.33.66-.12.91-.63,1.15-1.11a4.25,4.25,0,0,1,1-1.39c1.21-1.11,3.34-1.75,4.56-.94a3.58,3.58,0,0,1,1.18,2.61,8.24,8.24,0,0,1-1.6,5.62,32.12,32.12,0,0,0-4.14-.54l.78-1.89a.49.49,0,0,0-.27-.64.48.48,0,0,0-.64.27l-.92,2.22c-.37,0-.75,0-1.12,0h-.26l-.88-2.12a.51.51,0,0,0-.65-.27.49.49,0,0,0-.26.65l.74,1.78a29.18,29.18,0,0,0-4.57.61c-.24-.26-.47-.52-.68-.79S247.06,119.1,248.51,117.08ZM259,128.81h-.05c-.64-.05-1.29-.08-1.94-.08a27.29,27.29,0,0,0-5.33.54l-.34-4.36a28.91,28.91,0,0,1,11.35,0l-.29,4.37A28.69,28.69,0,0,0,259,128.81ZM267.15,158a4,4,0,1,1,4-4A4,4,0,0,1,267.15,158Zm6.38-19.36a.6.6,0,0,0-.06.23v13.76a16.09,16.09,0,0,1-1.31,1.3,5,5,0,1,0-9.46,2.3H245.1c-5-2.83-7.9-7.11-7.9-11.76,0-7.4,7.38-13.53,17-14.57l-.9,1.51a.48.48,0,0,0,.17.67.46.46,0,0,0,.25.08.49.49,0,0,0,.42-.24l1.27-2.13c.54,0,1.09-.06,1.64-.06s1.09,0,1.62.06l1.44,2.09a.49.49,0,0,0,.4.22.47.47,0,0,0,.28-.09.49.49,0,0,0,.13-.68l-1-1.42c6.41.7,11.82,3.69,14.69,7.82A1.65,1.65,0,0,0,273.53,138.62Zm.63,7.43h0Zm10.64,9h0v1.06h-.1l.06,0c-.38.34-2.23.86-5.14.86s-4.76-.52-5.13-.86h0l-.05,0v-2.47a18,18,0,0,0,5.05.82h.33a18.19,18.19,0,0,0,5-.7Zm0-2.33a16.87,16.87,0,0,1-5.28.75,17.13,17.13,0,0,1-5.07-.87v-2.45a18,18,0,0,0,5,.81h.33a18.26,18.26,0,0,0,5-.72Zm0-3.5a17,17,0,0,1-10.34-.09v-2.5a18,18,0,0,0,5.1.84h.32a17.78,17.78,0,0,0,4.92-.7Zm0-3.46a16.89,16.89,0,0,1-10.34-.16v-2.45a18.17,18.17,0,0,0,5.07.83h.33a18.36,18.36,0,0,0,4.94-.7Zm0-3.49a17,17,0,0,1-10.34-.15v-2.21a18,18,0,0,0,10.34,0Zm.35,3.91Z" fill="#231f20"/><path d="M257.41,142.4c-1.37-.4-1.86-.6-1.86-1.33s.43-1.07,1.3-1.07a1.55,1.55,0,0,1,1,.32,1.43,1.43,0,0,1,.45.93h1.94a2.81,2.81,0,0,0-2.85-2.73v-1.28h-1v1.27c-1.64.15-2.86,1.1-2.86,2.76,0,1.4.77,2.2,3,2.83,1.41.39,1.94.76,1.94,1.64,0,.68-.39,1.16-1.49,1.16a1.61,1.61,0,0,1-1.75-1.45h-1.95a3,3,0,0,0,3.1,3v1.28h1V148.4c2.17-.17,3.1-1.43,3.1-2.9S259.89,143.12,257.41,142.4Z" fill="#231f20"/><path d="M330.52,128.67c-1.57,0-5.69.67-5.84.43a6.71,6.71,0,0,0-3.67-2.37,6.74,6.74,0,0,0-.5,4c0,.19-3.39,2.65-4.42,3.85a13.56,13.56,0,0,0-2.38,4.12.52.52,0,0,1-.45.32l-1.81.1a6.39,6.39,0,0,1,0,6.37l2.21.19a.54.54,0,0,1,.41.29,13.71,13.71,0,0,0,2.17,3.31,14.21,14.21,0,0,0,2.86,2.44l1,.89v5.47h4.17v-3.33s0,0,0-.05v-.87s0,0,0,0,.23.06.54.31a20.28,20.28,0,0,0,5.7.87,20.52,20.52,0,0,0,5.26-.62,5.27,5.27,0,0,0,.87-.37l.13-.08v1.31s0,0,0,0v2.83H341v-5.87l.46-.21.54-.29c3.77-2.51,5.92-6.06,5.92-9.87C347.87,134.57,340.09,128.67,330.52,128.67Z" fill="#fdd600"/><circle cx="333.17" cy="120.98" r="3.18" fill="#fdd600"/><path d="M331.67,122.66a3.18,3.18,0,1,0-3.18-3.18A3.19,3.19,0,0,0,331.67,122.66Z" fill="none"/><path d="M355.33,138.11c-1.21.13-2.15.2-2.89.22a1.83,1.83,0,0,0,0-1,2,2,0,0,0-1.74-1.56h0a2,2,0,0,0-1.51.92,1.78,1.78,0,0,0-.34,1.53c.14.41.5.8,1.64,1l-.3.21-.19.09a3.35,3.35,0,0,1-1.86.33,3.82,3.82,0,0,1-.83-.16c-.41-7.52-8.45-13.54-18.31-13.54a23.43,23.43,0,0,0-5.23.59,7.83,7.83,0,0,0-4.47-2.59.5.5,0,0,0-.54.26A8.07,8.07,0,0,0,318,129a14.67,14.67,0,0,0-6.58,7.48l-2.95.16h0c-1.3.07-2.27,1.8-2.27,4.09s1,4.11,2.34,4.11l.15,0,3.18.27a14.33,14.33,0,0,0,2.2,3.29,14.72,14.72,0,0,0,3.61,3v5.68a.5.5,0,0,0,.5.5h5.17a.5.5,0,0,0,.5-.5v-3.2a23.31,23.31,0,0,0,10.51,0v3.2a.5.5,0,0,0,.5.5H340a.5.5,0,0,0,.5-.5v-5.69c4.25-2.61,6.74-6.44,6.9-10.61a5.27,5.27,0,0,0,1.2.14,4.1,4.1,0,0,0,2.18-.59,5,5,0,0,0,1.12-1,30.19,30.19,0,0,0,3.59-.23.5.5,0,1,0-.11-1Zm-46.87,5.77c-.64,0-1.34-1.33-1.34-3.11s.7-3.1,1.34-3.1,1.34,1.33,1.34,3.1S309.09,143.88,308.46,143.88Zm32,6.3v-.44a.5.5,0,0,0-1,0v6.81h-4.17v-2.83s0,0,0,0V152.3a.51.51,0,0,0-.5-.5.5.5,0,0,0-.5.5v.52a22.49,22.49,0,0,1-10.51,0v-.52a.5.5,0,0,0-1,0v.87s0,0,0,.05v3.33H318.6v-6.81a.5.5,0,0,0-.5-.5.5.5,0,0,0-.5.5v.45a14.21,14.21,0,0,1-2.86-2.44,13.71,13.71,0,0,1-2.17-3.31.54.54,0,0,0-.41-.29L310,144a6.39,6.39,0,0,0,0-6.37l1.81-.1a.52.52,0,0,0,.45-.32,13.56,13.56,0,0,1,2.38-4.12,13.9,13.9,0,0,1,3.62-3,.07.07,0,0,0,0,.05,9.27,9.27,0,0,0,.34.91.5.5,0,0,0,.46.3.46.46,0,0,0,.2,0,.5.5,0,0,0,.26-.66,7.07,7.07,0,0,1-.31-.8c-.06-.21-.12-.42-.16-.61a6.74,6.74,0,0,1,.5-4,6.71,6.71,0,0,1,3.67,2.37q.22.36.45.78c.13.24.25.48.36.71a.49.49,0,0,0,.45.29.49.49,0,0,0,.46-.71c-.12-.24-.24-.5-.39-.77,0-.08-.09-.15-.14-.24a22.59,22.59,0,0,1,4.65-.49c9.57,0,17.35,5.9,17.35,13.14C346.37,144.12,344.22,147.67,340.45,150.18Zm10.91-11.86c-1.41-.08-1.54-.39-1.55-.39a.93.93,0,0,1,.22-.63,1,1,0,0,1,.7-.49h0a1,1,0,0,1,.78.77A1.1,1.1,0,0,1,351.36,138.32Z" fill="#231f20"/><path d="M336.1,129.46a23.33,23.33,0,0,0-4.14-.9,22.91,22.91,0,0,0-4.61-.11.5.5,0,0,0-.46.54.51.51,0,0,0,.53.46,21.75,21.75,0,0,1,4.42.1,22.4,22.4,0,0,1,4,.87l.15,0a.5.5,0,0,0,.15-1Z" fill="#231f20"/><path d="M317.67,133.08a1.87,1.87,0,1,0,1.87,1.87A1.87,1.87,0,0,0,317.67,133.08Zm0,2.73a.87.87,0,0,1,0-1.73.87.87,0,1,1,0,1.73Z" fill="#231f20"/><path d="M331.67,123.66a4.18,4.18,0,1,0-4.18-4.18A4.19,4.19,0,0,0,331.67,123.66Zm0-7.36a3.18,3.18,0,1,1-3.18,3.18A3.18,3.18,0,0,1,331.67,116.3Z" fill="#231f20"/><circle cx="409.15" cy="129.89" r="7.85" fill="#fdd600"/><polygon points="383.68 140.86 383.68 138.78 378.65 138.78 378.65 153.82 383.68 153.82 383.68 151.73 388.95 151.73 388.95 140.86 383.68 140.86" fill="#fdd600"/><path d="M425.83,146.21a3.39,3.39,0,0,0-1.55-2.39,3.85,3.85,0,0,0-3.2-.5l-11.36,2.28a3,3,0,0,0-.5-2.17,3,3,0,0,0-2-1.28l-11.6-3-.13,0h-7v-.24a.5.5,0,0,0-.5-.5h-5.34v-1.58a.5.5,0,0,0-.5-.5h-5.46a.5.5,0,0,0-.5.5v16a.5.5,0,0,0,.5.5h5.46a.5.5,0,0,0,.5-.5v-1.59H388a.5.5,0,0,0,.5-.5v-.89l17.63,3.54a.78.78,0,0,0,.21,0h.09a.45.45,0,0,0,.25-.07l16-3.21A3.7,3.7,0,0,0,425.83,146.21Zm-44.22-7.35v13.46h-4.46v-15h4.46Zm5.84,11.37h-4.84V139.36h4.84Zm35-1.07-16.15,3.25-17.86-3.59V140.1h6.95l11.6,3a2,2,0,0,1,1.4.87,1.94,1.94,0,0,1-.63,2.83,2.11,2.11,0,0,1-1.67.19l-11.66-2.93a.47.47,0,0,0-.53.2.48.48,0,0,0-.08.16.51.51,0,0,0,.36.61L405.83,148a3.06,3.06,0,0,0,.9.13,3,3,0,0,0,2.57-1.41l12-2.41h0a2.92,2.92,0,0,1,2.39.37,2.43,2.43,0,0,1,1.12,1.68A2.72,2.72,0,0,1,422.46,149.16Z" fill="#231f20"/><path d="M407.67,137.25a8.86,8.86,0,1,0-8.86-8.86A8.87,8.87,0,0,0,407.67,137.25Zm7.85-8.86a7.86,7.86,0,1,1-7.85-7.86A7.87,7.87,0,0,1,415.52,128.39Z" fill="#231f20"/><path d="M408,127.63c-1-.28-1.34-.43-1.34-.95s.31-.77.93-.77a1.15,1.15,0,0,1,.76.23,1,1,0,0,1,.32.67h1.39a2,2,0,0,0-2.05-2v-.92h-.71v.91a2,2,0,0,0-2.05,2c0,1,.55,1.58,2.16,2,1,.28,1.39.54,1.39,1.17s-.28.84-1.07.84a1.16,1.16,0,0,1-1.25-1.05h-1.4a2.19,2.19,0,0,0,2.22,2.12v.91H408v-.91c1.56-.12,2.22-1,2.22-2.08S409.78,128.15,408,127.63Z" fill="#231f20"/><path d="M387.42,196.19v47.33h29.66V196.19Zm3.94,41.87a1.38,1.38,0,1,1,1.37-1.37A1.38,1.38,0,0,1,391.36,238.06Zm0-7a1.37,1.37,0,1,1,1.37-1.37A1.37,1.37,0,0,1,391.36,231.09Zm0-7a1.38,1.38,0,1,1,1.37-1.38A1.38,1.38,0,0,1,391.36,224.13Zm0-7a1.38,1.38,0,1,1,1.37-1.37A1.37,1.37,0,0,1,391.36,217.16Zm6.43,20.9a1.38,1.38,0,1,1,1.37-1.37A1.38,1.38,0,0,1,397.79,238.06Zm0-7a1.37,1.37,0,1,1,1.37-1.37A1.37,1.37,0,0,1,397.79,231.09Zm0-7a1.38,1.38,0,1,1,1.37-1.38A1.38,1.38,0,0,1,397.79,224.13Zm0-7a1.38,1.38,0,1,1,1.37-1.37A1.37,1.37,0,0,1,397.79,217.16Zm6.42,20.9a1.38,1.38,0,1,1,1.38-1.37A1.38,1.38,0,0,1,404.21,238.06Zm0-7a1.37,1.37,0,1,1,1.38-1.37A1.37,1.37,0,0,1,404.21,231.09Zm0-7a1.38,1.38,0,1,1,1.38-1.38A1.38,1.38,0,0,1,404.21,224.13Zm0-7a1.38,1.38,0,1,1,1.38-1.37A1.37,1.37,0,0,1,404.21,217.16Zm6.18,4A1.38,1.38,0,1,1,409,222.5,1.38,1.38,0,0,1,410.39,221.13ZM409,215.54a1.38,1.38,0,1,1,1.37,1.37A1.38,1.38,0,0,1,409,215.54Zm3,21.21a1.31,1.31,0,0,1-2.62,0v-7.09a1.31,1.31,0,0,1,2.62,0Zm.18-27.68H389.3V198.18h22.9Z" fill="#fdd600"/><path d="M416.08,193.69H385.42a.5.5,0,0,0-.5.5v48.33a.5.5,0,0,0,.5.5h30.66a.5.5,0,0,0,.5-.5V194.19A.5.5,0,0,0,416.08,193.69Zm-.5,48.33H385.92V194.69h29.66Z" fill="#231f20"/><path d="M388.8,210.07h23.9a.5.5,0,0,0,.5-.5V197.68a.5.5,0,0,0-.5-.5H388.8a.5.5,0,0,0-.5.5v11.89A.5.5,0,0,0,388.8,210.07Zm.5-11.89h22.9v10.89H389.3Z" fill="#231f20"/><path d="M410.39,217.91a2.38,2.38,0,1,0-2.37-2.37A2.38,2.38,0,0,0,410.39,217.91Zm0-3.75a1.38,1.38,0,1,1-1.37,1.38A1.38,1.38,0,0,1,410.39,214.16Z" fill="#231f20"/><path d="M410.39,224.88A2.38,2.38,0,1,0,408,222.5,2.39,2.39,0,0,0,410.39,224.88Zm0-3.75A1.38,1.38,0,1,1,409,222.5,1.38,1.38,0,0,1,410.39,221.13Z" fill="#231f20"/><path d="M410.71,227.35a2.31,2.31,0,0,0-2.31,2.31v7.09a2.31,2.31,0,0,0,4.62,0v-7.09A2.31,2.31,0,0,0,410.71,227.35Zm1.31,9.4a1.31,1.31,0,0,1-2.62,0v-7.09a1.31,1.31,0,0,1,2.62,0Z" fill="#231f20"/><path d="M391.36,213.41a2.38,2.38,0,1,0,2.37,2.38A2.39,2.39,0,0,0,391.36,213.41Zm0,3.75a1.38,1.38,0,1,1,1.37-1.37A1.37,1.37,0,0,1,391.36,217.16Z" fill="#231f20"/><path d="M397.79,213.41a2.38,2.38,0,1,0,2.37,2.38A2.39,2.39,0,0,0,397.79,213.41Zm0,3.75a1.38,1.38,0,1,1,1.37-1.37A1.37,1.37,0,0,1,397.79,217.16Z" fill="#231f20"/><path d="M404.21,213.41a2.38,2.38,0,1,0,2.38,2.38A2.38,2.38,0,0,0,404.21,213.41Zm0,3.75a1.38,1.38,0,1,1,1.38-1.37A1.37,1.37,0,0,1,404.21,217.16Z" fill="#231f20"/><path d="M391.36,220.38a2.38,2.38,0,1,0,2.37,2.37A2.38,2.38,0,0,0,391.36,220.38Zm0,3.75a1.38,1.38,0,1,1,1.37-1.38A1.38,1.38,0,0,1,391.36,224.13Z" fill="#231f20"/><path d="M397.79,220.38a2.38,2.38,0,1,0,2.37,2.37A2.38,2.38,0,0,0,397.79,220.38Zm0,3.75a1.38,1.38,0,1,1,1.37-1.38A1.38,1.38,0,0,1,397.79,224.13Z" fill="#231f20"/><path d="M404.21,220.38a2.38,2.38,0,1,0,2.38,2.37A2.38,2.38,0,0,0,404.21,220.38Zm0,3.75a1.38,1.38,0,1,1,1.38-1.38A1.38,1.38,0,0,1,404.21,224.13Z" fill="#231f20"/><path d="M391.36,227.35a2.37,2.37,0,1,0,2.37,2.37A2.38,2.38,0,0,0,391.36,227.35Zm0,3.74a1.37,1.37,0,1,1,1.37-1.37A1.37,1.37,0,0,1,391.36,231.09Z" fill="#231f20"/><path d="M397.79,227.35a2.37,2.37,0,1,0,2.37,2.37A2.38,2.38,0,0,0,397.79,227.35Zm0,3.74a1.37,1.37,0,1,1,1.37-1.37A1.37,1.37,0,0,1,397.79,231.09Z" fill="#231f20"/><path d="M404.21,227.35a2.37,2.37,0,1,0,2.38,2.37A2.38,2.38,0,0,0,404.21,227.35Zm0,3.74a1.37,1.37,0,1,1,1.38-1.37A1.37,1.37,0,0,1,404.21,231.09Z" fill="#231f20"/><path d="M391.36,234.31a2.38,2.38,0,1,0,2.37,2.38A2.39,2.39,0,0,0,391.36,234.31Zm0,3.75a1.38,1.38,0,1,1,1.37-1.37A1.38,1.38,0,0,1,391.36,238.06Z" fill="#231f20"/><path d="M397.79,234.31a2.38,2.38,0,1,0,2.37,2.38A2.39,2.39,0,0,0,397.79,234.31Zm0,3.75a1.38,1.38,0,1,1,1.37-1.37A1.38,1.38,0,0,1,397.79,238.06Z" fill="#231f20"/><path d="M404.21,234.31a2.38,2.38,0,1,0,2.38,2.38A2.38,2.38,0,0,0,404.21,234.31Zm0,3.75a1.38,1.38,0,1,1,1.38-1.37A1.38,1.38,0,0,1,404.21,238.06Z" fill="#231f20"/><polygon points="463.23 238.99 463.23 242.12 481.3 242.12 481.3 238.99 478.54 238.99 465.99 238.99 463.23 238.99" fill="#fdd600"/><rect x="466.44" y="235.94" width="11.64" height="3.05" fill="#fdd600"/><path d="M457.33,227.49c4.59,0,8.37-2.66,8.71-6H448.62C449,224.83,452.74,227.49,457.33,227.49Z" fill="#fdd600"/><path d="M472.26,203.38a2.67,2.67,0,1,0,2.67,2.67A2.68,2.68,0,0,0,472.26,203.38Z" fill="#fdd600"/><path d="M487.19,227.49c4.59,0,8.37-2.66,8.71-6H478.48C478.83,224.83,482.6,227.49,487.19,227.49Z" fill="#fdd600"/><path d="M494.93,219h-2l-6.58-13.92h2.85a.5.5,0,0,0,.5-.5.51.51,0,0,0-.5-.5H474.38a3.66,3.66,0,0,0-3.12-3.12v-5.34a.5.5,0,0,0-.5-.5.5.5,0,0,0-.5.5v5.34a3.65,3.65,0,0,0-3.11,3.12H452.36a.5.5,0,0,0-.5.5.5.5,0,0,0,.5.5h2.85L448.62,219h-2a.5.5,0,0,0-.5.5c0,4.14,4.36,7.52,9.73,7.52s9.74-3.38,9.74-7.52a.5.5,0,0,0-.5-.5h-2l-6.59-13.92h10.7a3.64,3.64,0,0,0,3.11,3.12v25.27h-5.77a.58.58,0,0,0-.55.54V237h-2.71a.5.5,0,0,0-.5.5v3.59a.5.5,0,0,0,.5.5H480.3a.5.5,0,0,0,.5-.5v-3.59a.5.5,0,0,0-.5-.5h-2.72V234a.58.58,0,0,0-.54-.54h-5.78V208.17a3.65,3.65,0,0,0,3.12-3.12h10.69L478.49,219h-2a.5.5,0,0,0-.5.5c0,4.14,4.37,7.52,9.73,7.52s9.74-3.38,9.74-7.52A.5.5,0,0,0,494.93,219Zm-30.39,1c-.34,3.36-4.12,6-8.71,6s-8.36-2.66-8.71-6Zm-2.61-1h-12.2l6.1-12.9ZM479.8,238v2.59H461.73V238H479.8Zm-3.22-3.59V237H464.94v-2.59Zm-5.82-27.22a2.67,2.67,0,1,1,2.67-2.67A2.68,2.68,0,0,1,470.76,207.22Zm14.93-1.15,6.1,12.9h-12.2Zm0,19.92c-4.59,0-8.36-2.66-8.71-6H494.4C494.06,223.33,490.28,226,485.69,226Z" fill="#231f20"/><path d="M355.67,207.79a2.19,2.19,0,0,0-2.18-2.18H311a2.19,2.19,0,0,0-2.18,2.18v1.08h45.34v.5h1.5Z" fill="#fdd600"/><path d="M308.83,216v15.88A2.19,2.19,0,0,0,311,234.1h42.48a2.19,2.19,0,0,0,2.18-2.18V216Zm40.23,11.15h-7v-7h7Z" fill="#fdd600"/><path d="M341.58,228.19h8a.5.5,0,0,0,.5-.5v-8a.5.5,0,0,0-.5-.5h-8a.5.5,0,0,0-.5.5v8A.5.5,0,0,0,341.58,228.19Zm.5-8h7v7h-7Z" fill="#231f20"/><path d="M312,228.19h19.47a.5.5,0,0,0,0-1H312a.5.5,0,0,0,0,1Z" fill="#231f20"/><path d="M352,203.11H309.51a3.19,3.19,0,0,0-3.18,3.18v24.13a3.19,3.19,0,0,0,3.18,3.18H352a3.19,3.19,0,0,0,3.18-3.18V206.29A3.19,3.19,0,0,0,352,203.11Zm2.18,27.31A2.19,2.19,0,0,1,352,232.6H309.51a2.19,2.19,0,0,1-2.18-2.18V214.54h46.84Zm0-16.88H307.33v-4.67h46.84Zm0-5.67H307.33v-1.58a2.19,2.19,0,0,1,2.18-2.18H352a2.19,2.19,0,0,1,2.18,2.18Z" fill="#231f20"/><path d="M173,282.63v26.49h38.44V282.63Zm9.48,20.64h-4.78v-7.59h4.78Zm10.74,0h-4.77V291.09h4.77Zm10.74,0h-4.77V287.7H204Z" fill="#fdd600"/><path d="M210.47,280.13H191.25v-3.61h.84a.5.5,0,0,0,.5-.5.5.5,0,0,0-.5-.5h-2.68a.5.5,0,0,0-.5.5.5.5,0,0,0,.5.5h.84v3.61H171a.5.5,0,0,0-.5.5v27.49a.5.5,0,0,0,.5.5H186.3l-7.72,15h-1a.5.5,0,0,0-.5.5.5.5,0,0,0,.5.5h2.68a.5.5,0,0,0,.5-.5.5.5,0,0,0-.5-.5h-.52l7.72-15h2.82v15h-.84a.5.5,0,0,0-.5.5.5.5,0,0,0,.5.5h2.68a.5.5,0,0,0,.5-.5.5.5,0,0,0-.5-.5h-.84v-15h3.05l7.71,15h-.52a.5.5,0,0,0-.5.5.5.5,0,0,0,.5.5h2.69a.5.5,0,0,0,.5-.5.51.51,0,0,0-.5-.5h-1l-7.72-15h15.05a.5.5,0,0,0,.5-.5V280.63A.5.5,0,0,0,210.47,280.13Zm-.5,27.49H171.53V281.13H210Z" fill="#231f20"/><path d="M183,294.68h-5.78a.51.51,0,0,0-.5.5v8.59a.5.5,0,0,0,.5.5H183a.5.5,0,0,0,.5-.5v-8.59A.51.51,0,0,0,183,294.68Zm-.5,8.59h-4.78v-7.59h4.78Z" fill="#231f20"/><path d="M193.75,290.09H188a.5.5,0,0,0-.5.5v13.18a.5.5,0,0,0,.5.5h5.77a.5.5,0,0,0,.5-.5V290.59A.51.51,0,0,0,193.75,290.09Zm-.5,13.18h-4.77V291.09h4.77Z" fill="#231f20"/><path d="M204.49,286.7h-5.77a.5.5,0,0,0-.5.5v16.57a.5.5,0,0,0,.5.5h5.77a.5.5,0,0,0,.5-.5V287.2A.5.5,0,0,0,204.49,286.7Zm-.5,16.57h-4.77V287.7H204Z" fill="#231f20"/><rect x="103.03" y="282.63" width="38.44" height="26.48" fill="#fdd600"/><path d="M103.71,308.29a.49.49,0,0,1-.35-.14.5.5,0,0,1,0-.71l6-6.09a.5.5,0,0,1,.53-.11l4.73,1.78,8.49-9.38a.5.5,0,0,1,.53-.14l6.85,2.33,7-8.45a.5.5,0,0,1,.7-.07.5.5,0,0,1,.07.71L131,296.73a.51.51,0,0,1-.54.16l-6.87-2.34-8.5,9.4a.51.51,0,0,1-.55.13l-4.73-1.79-5.73,5.85A.51.51,0,0,1,103.71,308.29Z" fill="#231f20"/><path d="M140.47,280.13H121.25v-3.61h.84a.5.5,0,0,0,.5-.5.5.5,0,0,0-.5-.5h-2.68a.5.5,0,0,0-.5.5.5.5,0,0,0,.5.5h.84v3.61H101a.5.5,0,0,0-.5.5v27.49a.5.5,0,0,0,.5.5H116.3l-7.72,15h-1a.5.5,0,0,0-.5.5.5.5,0,0,0,.5.5h2.68a.5.5,0,0,0,.5-.5.5.5,0,0,0-.5-.5h-.52l7.72-15h2.82v15h-.84a.5.5,0,0,0-.5.5.5.5,0,0,0,.5.5h2.68a.5.5,0,0,0,.5-.5.5.5,0,0,0-.5-.5h-.84v-15h3l7.71,15h-.52a.5.5,0,0,0-.5.5.5.5,0,0,0,.5.5h2.69a.5.5,0,0,0,.5-.5.51.51,0,0,0-.5-.5h-1l-7.72-15h15a.5.5,0,0,0,.5-.5V280.63A.5.5,0,0,0,140.47,280.13Zm-.5,27.49H101.53V281.13H140Z" fill="#231f20"/><path d="M328.8,301.55a.49.49,0,0,1,.07-.49l12.52-16.22a20.42,20.42,0,0,0-30.95,24.25,20.43,20.43,0,0,0,39.06-4.49l-20.31-2.74A.51.51,0,0,1,328.8,301.55Z" fill="#fdd600"/><path d="M348,283.06l-12,15.53,19.45,2.62A20.28,20.28,0,0,0,348,283.06Z" fill="#fdd600"/><path d="M348.63,302.17l-19.94-2.69L341,283.55a.49.49,0,0,0,.1-.37.53.53,0,0,0-.19-.33A21.43,21.43,0,0,0,308,308a21.42,21.42,0,0,0,41.05-5.23.48.48,0,0,0-.09-.37A.5.5,0,0,0,348.63,302.17Zm-13,16.57a20.44,20.44,0,1,1-7.81-39.33,20.59,20.59,0,0,1,12.1,3.93l-12.52,16.22a.49.49,0,0,0-.07.49.51.51,0,0,0,.39.31L348,303.1A20.51,20.51,0,0,1,335.6,318.74Z" fill="#231f20"/><path d="M353.5,289.29a21.36,21.36,0,0,0-6.77-8.83.5.5,0,0,0-.7.09L333.2,297.16a.49.49,0,0,0,.33.8l20.8,2.81h.07a.49.49,0,0,0,.49-.43A21.37,21.37,0,0,0,353.5,289.29Zm.47,10.42-19.45-2.62,12-15.53A20.28,20.28,0,0,1,354,299.71Z" fill="#231f20"/><rect x="245.6" y="304.4" width="4.81" height="17.07" fill="#fdd600"/><rect x="255.25" y="295.89" width="4.81" height="25.58" fill="#fdd600"/><rect x="274.55" y="290.01" width="4.81" height="31.46" fill="#fdd600"/><path d="M285.59,320.57a.3.3,0,0,0,0-.1,189112688790.59,189112688790.59,0,0,1,0-.18.26.26,0,0,0-.05-.09.25.25,0,0,1,0-.07h0L283,317.82a.49.49,0,0,0-.7,0,.5.5,0,0,0,0,.71l1.53,1.42h-5V288a.5.5,0,0,0-.5-.5h-5.81a.5.5,0,0,0-.5.5v32h-2.84V298.18a.5.5,0,0,0-.5-.5H262.9a.5.5,0,0,0-.5.5V320h-2.84V293.89a.5.5,0,0,0-.5-.5h-5.81a.5.5,0,0,0-.5.5V320h-2.84V302.4a.5.5,0,0,0-.5-.5H243.6a.5.5,0,0,0-.5.5V320h-3.42V278.63l1.44,1.45a.49.49,0,0,0,.35.15.51.51,0,0,0,.36-.15.51.51,0,0,0,0-.71l-2.29-2.3h0l-.06,0A.49.49,0,0,0,239,277l0,0a.6.6,0,0,0-.13.09h0l-2.29,2.3a.5.5,0,0,0,0,.71.5.5,0,0,0,.35.15.51.51,0,0,0,.36-.15l1.43-1.45v41.84a.5.5,0,0,0,.5.5h44.66l-1.53,1.43a.49.49,0,0,0,0,.7.46.46,0,0,0,.36.16.48.48,0,0,0,.34-.13l2.46-2.29v0h0l0-.06a.41.41,0,0,0,.05-.09A.29.29,0,0,0,285.59,320.57ZM244.1,320V302.9h4.81V320Zm9.65,0V294.39h4.81V320Zm9.65,0V298.68h4.81V320Zm9.65,0V288.51h4.81V320Z" fill="#231f20"/><path d="M481.83,282.2H455.5V325H489V282.2Zm-17.9,35.68h-5v-5h5Z" fill="#fdd600"/><path d="M488,279.71h-7.78a2.92,2.92,0,0,0-2.81-2.17H473.7a2.84,2.84,0,0,0-5.6,0h-3.71a2.92,2.92,0,0,0-2.81,2.17H453.5a.5.5,0,0,0-.5.5V324a.5.5,0,0,0,.5.5H488a.5.5,0,0,0,.5-.5V280.21A.5.5,0,0,0,488,279.71Zm-23.61-1.17h4.17a.51.51,0,0,0,.5-.5,1.85,1.85,0,1,1,3.69,0,.5.5,0,0,0,.5.5h4.16a1.92,1.92,0,0,1,1.92,1.92v1H462.47v-1A1.92,1.92,0,0,1,464.39,278.54Zm23.11,44.95H454V280.71h7.47V282a.5.5,0,0,0,.5.5h17.86a.5.5,0,0,0,.5-.5v-1.29h7.17Z" fill="#231f20"/><path d="M465.51,287a.49.49,0,0,0-.68.18l-.57,1-4,6.88-2.06-2.52,0,0a.49.49,0,0,0-.7-.07.5.5,0,0,0-.07.7l2.54,3.1a.47.47,0,0,0,.38.19h0a.52.52,0,0,0,.39-.25l5-8.48A.5.5,0,0,0,465.51,287Z" fill="#231f20"/><path d="M465.44,298.18a.49.49,0,0,0-.68.18l-.57,1-4,6.89-2.06-2.52,0,0a.5.5,0,1,0-.78.64l2.54,3.1a.46.46,0,0,0,.38.18h0a.5.5,0,0,0,.4-.24l4.95-8.48A.49.49,0,0,0,465.44,298.18Z" fill="#231f20"/><path d="M469.4,290.14a.51.51,0,0,0-.5.5.5.5,0,0,0,.5.5H484a.5.5,0,0,0,.5-.5.51.51,0,0,0-.5-.5Z" fill="#231f20"/><path d="M484,303.35a.51.51,0,0,0,.5-.5.5.5,0,0,0-.5-.5H469.34a.5.5,0,0,0-.5.5.5.5,0,0,0,.5.5Z" fill="#231f20"/><path d="M469.63,314.89a.5.5,0,0,0,0,1h14.63a.5.5,0,0,0,0-1Z" fill="#231f20"/><path d="M464.43,311.91h-6a.5.5,0,0,0-.5.5v6a.5.5,0,0,0,.5.5h6a.5.5,0,0,0,.5-.5v-6A.5.5,0,0,0,464.43,311.91Zm-.5,6h-5v-5h5Z" fill="#231f20"/><path d="M411.55,282.49h-25.8v42.16h33V282.49Zm-20.5,27.16a2.66,2.66,0,1,1,2.66-2.66A2.66,2.66,0,0,1,391.05,309.65Zm9.7,0a2.66,2.66,0,1,1,2.66-2.66A2.66,2.66,0,0,1,400.75,309.65Zm0-14.36a2.67,2.67,0,1,1,2.66-2.67A2.67,2.67,0,0,1,400.75,295.29Zm9.7,14.36a2.66,2.66,0,1,1,2.66-2.66A2.66,2.66,0,0,1,410.45,309.65Z" fill="#fdd600"/><path d="M417.75,280h-7.81a2.87,2.87,0,0,0-2.77-2.14h-3.65a2.82,2.82,0,0,0-5.54,0h-3.64a2.88,2.88,0,0,0-2.78,2.14h-7.81a.5.5,0,0,0-.5.5v43.16a.5.5,0,0,0,.5.5h34a.5.5,0,0,0,.5-.5V280.49A.5.5,0,0,0,417.75,280Zm-23.41-1.14h4.1a.5.5,0,0,0,.5-.5,1.81,1.81,0,0,1,3.62,0,.5.5,0,0,0,.5.5h4.11a1.89,1.89,0,0,1,1.88,1.89v1h-16.6v-1A1.89,1.89,0,0,1,394.34,278.85Zm22.91,44.3h-33V281h7.2v1.26a.5.5,0,0,0,.5.5h17.6a.5.5,0,0,0,.5-.5V281h7.2Z" fill="#231f20"/><path d="M411,303.38V300a.08.08,0,0,0,0,0,0,0,0,0,0,0,0,.5.5,0,0,0-.5-.5h-9.2v-3.17a3.66,3.66,0,1,0-1,0v3.17h-9.2a.5.5,0,0,0-.5.5,0,0,0,0,0,0,0,.08.08,0,0,0,0,0v3.41a3.66,3.66,0,1,0,1,0v-3h8.7v3a3.66,3.66,0,1,0,1,0v-3H410v3a3.66,3.66,0,1,0,1,0ZM393.71,307a2.66,2.66,0,1,1-2.66-2.66A2.66,2.66,0,0,1,393.71,307Zm9.7,0a2.66,2.66,0,1,1-2.66-2.66A2.66,2.66,0,0,1,403.41,307Zm-2.66-11.7a2.67,2.67,0,1,1,2.66-2.67A2.67,2.67,0,0,1,400.75,295.29Zm9.7,14.36a2.66,2.66,0,1,1,2.66-2.66A2.66,2.66,0,0,1,410.45,309.65Z" fill="#231f20"/><path d="M417,397.13a8.2,8.2,0,0,1-3.73.35,9.23,9.23,0,0,1-5.95-3.78,8.38,8.38,0,0,1,6.43-13.77,8.25,8.25,0,0,1,3.3.68,7.49,7.49,0,0,1,2.33.78,7.29,7.29,0,0,1,2,1.62l0-12.59-9.83,0a1.87,1.87,0,0,0-.52-.34,1.73,1.73,0,0,0-.33-.1v-.56h-.5v-8.22H385v41.64h-3.62a4.49,4.49,0,0,0,4.39,3.91h31.65a4.84,4.84,0,0,0,1.37-.31,4.54,4.54,0,0,0,1.68-1.15,3.67,3.67,0,0,0,.73-1.14,3.35,3.35,0,0,0,.27-1.32v-9A8.75,8.75,0,0,1,417,397.13Z" fill="#fdd600"/><path d="M423.19,388.33a9.37,9.37,0,0,0-2.26-6.1V369.89s0-.05,0-.07,0,0,0-.06a.47.47,0,0,0-.12-.23l-10.71-10.71a.46.46,0,0,0-.23-.12h0l-.07,0H383a.5.5,0,0,0-.5.5v41.14h-3.15a.5.5,0,0,0-.5.5,5.32,5.32,0,0,0,1.25,3.42,5.41,5.41,0,0,0,4.17,2h31.69a5.76,5.76,0,0,0,1.69-.38,5.32,5.32,0,0,0,2.05-1.4,4.64,4.64,0,0,0,.93-1.43,4.57,4.57,0,0,0,.34-1.71v-6.87A9.37,9.37,0,0,0,423.19,388.33Zm-3.53,14.28a3.67,3.67,0,0,1-.73,1.14,4.5,4.5,0,0,1-1.69,1.15,4.7,4.7,0,0,1-1.36.31h-.47a4.46,4.46,0,0,1-4.31-4.4.5.5,0,0,0-.5-.5H383.46V359.67h25.76v10.22a.5.5,0,0,0,.5.5h10.21v10.84a9.4,9.4,0,1,0,0,14.19v5.87A3.35,3.35,0,0,1,419.66,402.61Zm-9.53-1.3a5.34,5.34,0,0,0,1.22,2.92,5.52,5.52,0,0,0,1.06,1H384.23a4.49,4.49,0,0,1-4.39-3.91Zm3.66-4.59a8.4,8.4,0,1,1,8.4-8.39A8.41,8.41,0,0,1,413.79,396.72Zm5.43-27.33h-9v-9Z" fill="#231f20"/><path d="M414.16,387.51c-1.06-.3-1.43-.46-1.43-1s.33-.82,1-.82a1.13,1.13,0,0,1,.8.25,1.11,1.11,0,0,1,.35.71h1.48a2.12,2.12,0,0,0-2.07-2.08v-1.11h-1v1.1a2.1,2.1,0,0,0-2.07,2.1c0,1.08.59,1.69,2.31,2.17,1.08.31,1.49.59,1.49,1.26s-.3.89-1.15.89a1.24,1.24,0,0,1-1.34-1.11H411a2.32,2.32,0,0,0,2.26,2.26v1.1h1v-1.1a2.2,2.2,0,0,0,2.26-2.22C416.55,388.83,416.06,388.07,414.16,387.51Z" fill="#231f20"/><path d="M389.26,376.07h24.09a.51.51,0,0,0,.5-.5.5.5,0,0,0-.5-.5H389.26a.5.5,0,0,0-.5.5A.5.5,0,0,0,389.26,376.07Z" fill="#231f20"/><path d="M402.19,381.56H389a.5.5,0,0,0,0,1h13.22a.5.5,0,0,0,0-1Z" fill="#231f20"/><path d="M388.93,389.05h11.91a.5.5,0,0,0,.5-.5.51.51,0,0,0-.5-.5H388.93a.51.51,0,0,0-.5.5A.5.5,0,0,0,388.93,389.05Z" fill="#231f20"/><path d="M389.26,369.57h12a.5.5,0,0,0,.5-.5.5.5,0,0,0-.5-.5h-12a.5.5,0,0,0-.5.5A.5.5,0,0,0,389.26,369.57Z" fill="#231f20"/><path d="M414.29,383.44h-1v1.1a2.1,2.1,0,0,0-2.07,2.1c0,1.08.59,1.69,2.31,2.17,1.08.31,1.49.59,1.49,1.26s-.3.9-1.15.9a1.25,1.25,0,0,1-1.34-1.12H411a2.32,2.32,0,0,0,2.26,2.26v1.1h1v-1.1a2.2,2.2,0,0,0,2.26-2.22c0-1.06-.49-1.82-2.39-2.38-1.06-.3-1.43-.46-1.43-1s.33-.82,1-.82a1.13,1.13,0,0,1,.8.25,1.11,1.11,0,0,1,.35.71h1.48a2.12,2.12,0,0,0-2.07-2.08Z" fill="none"/><path d="M401.69,394.55H388.47a.5.5,0,0,0,0,1h13.22a.5.5,0,0,0,0-1Z" fill="#231f20"/><path d="M285.48,368.72H239V400l46.46,0v-31.2Z" fill="#fdd600"/><path d="M285,365.79v0h0a.47.47,0,0,0-.16-.21l0,0a.41.41,0,0,0-.25-.08H237a.41.41,0,0,0-.25.08l-.05,0a.47.47,0,0,0-.16.21h0v0a.4.4,0,0,0,0,.15v33a.5.5,0,0,0,.5.5h.28v0h47.16a.5.5,0,0,0,.5-.5v-33A.4.4,0,0,0,285,365.79Zm-20.64,18.53L284,367v31Zm18.84-17.88-22.4,19.68-22.4-19.68Zm-25.89,17.94-19.74,13.74V367Zm.77.68,2.39,2.1a.51.51,0,0,0,.66,0l2.45-2.16,19.36,13.47H238.76Z" fill="#231f20"/><path d="M212.51,407.5H172V380.06a1.09,1.09,0,0,1,.13-.77,1.06,1.06,0,0,1,.19-.23l4.24-3.59c0,2.45,0,4.89,0,7.34l14.16,9.85,15.05-10.48.15-8.4,6.12,5.2a1.31,1.31,0,0,1,.24.27,1.45,1.45,0,0,1,.2.81Z" fill="#fdd600"/><path d="M212,377.59a.46.46,0,0,0-.06-.23l0-.05-.07-.09-5.88-5V358.4a.5.5,0,0,0-.5-.5h-29.4a.5.5,0,0,0-.5.5v13.84l-5.88,5-.07.09,0,.05a.46.46,0,0,0-.06.23h0v28.9a.51.51,0,0,0,.5.5h41.52a.51.51,0,0,0,.5-.5V377.6Zm-20.37,14.46L211,378.56v27Zm-1.75,0-19.39,13.49v-27ZM176.55,358.9H205v22.66l-14.2,9.88-14.2-9.88Zm14.2,33.76L209.91,406H171.59Zm19.94-15.1-4.74,3.3v-7.31Zm-35.14,3.3-4.74-3.3,4.74-4Z" fill="#231f20"/><path d="M179.49,366.93H202a.51.51,0,0,0,.5-.5.5.5,0,0,0-.5-.5H179.49a.5.5,0,0,0-.5.5A.51.51,0,0,0,179.49,366.93Z" fill="#231f20"/><path d="M179.49,373.68H202a.5.5,0,0,0,.5-.5.51.51,0,0,0-.5-.5H179.49a.51.51,0,0,0-.5.5A.5.5,0,0,0,179.49,373.68Z" fill="#231f20"/><path d="M179.49,380.07H202a.5.5,0,0,0,.5-.5.51.51,0,0,0-.5-.5H179.49a.51.51,0,0,0-.5.5A.5.5,0,0,0,179.49,380.07Z" fill="#231f20"/><path d="M133.73,478a7.37,7.37,0,0,1-2.78.25,8.37,8.37,0,0,1-6.1-4.68A7.92,7.92,0,0,1,134.71,462a8.91,8.91,0,0,1,3.8,1.72q0-8.64,0-17.29l-10.1,0v-1h-.5v-7.65H104v46.2h34.48l.1-9.33A9.47,9.47,0,0,1,133.73,478Z" fill="#fdd600"/><path d="M140.47,469.3a8.88,8.88,0,0,0-2.46-6.13V446s0,0,0-.07a.13.13,0,0,1,0-.06.48.48,0,0,0-.13-.23l-10.14-10.14h0a.51.51,0,0,0-.23-.12h-.06l-.06,0H102a.5.5,0,0,0-.5.5v47.2a.5.5,0,0,0,.5.5h35.48a.5.5,0,0,0,.5-.5v-7.63A8.89,8.89,0,0,0,140.47,469.3Zm-37.94,13.27v-46.2h24.34V446a.5.5,0,0,0,.5.5H137v15.74a8.93,8.93,0,1,0,0,14.09v6.22Zm29-5.34a7.93,7.93,0,1,1,7.92-7.93A7.93,7.93,0,0,1,131.55,477.23Zm4.75-31.71h-8.43v-8.44Z" fill="#231f20"/><path d="M135.32,464.89a.5.5,0,0,0-.68.18l-4.29,7.34-1.93-2.36a.5.5,0,0,0-.7-.07.5.5,0,0,0-.07.71L130,473.6a.46.46,0,0,0,.38.18h0a.5.5,0,0,0,.4-.24l4.65-8A.51.51,0,0,0,135.32,464.89Z" fill="#231f20"/><path d="M107.77,452.27h23.78a.5.5,0,0,0,.5-.5.5.5,0,0,0-.5-.5H107.77a.5.5,0,0,0-.5.5A.51.51,0,0,0,107.77,452.27Z" fill="#231f20"/><path d="M107.77,460h16.35a.5.5,0,0,0,0-1H107.77a.5.5,0,1,0,0,1Z" fill="#231f20"/><path d="M107.77,467.68h11a.51.51,0,0,0,.5-.5.5.5,0,0,0-.5-.5h-11a.5.5,0,0,0-.5.5A.51.51,0,0,0,107.77,467.68Z" fill="#231f20"/><path d="M119.66,474.38H107.77a.51.51,0,0,0-.5.5.5.5,0,0,0,.5.5h11.89a.5.5,0,0,0,.5-.5A.5.5,0,0,0,119.66,474.38Z" fill="#231f20"/><path d="M107.77,444.56H121.9a.51.51,0,0,0,.5-.5.5.5,0,0,0-.5-.5H107.77a.5.5,0,0,0-.5.5A.51.51,0,0,0,107.77,444.56Z" fill="#231f20"/><path d="M128.42,470.05a.5.5,0,0,0-.7-.07.5.5,0,0,0-.07.71L130,473.6a.46.46,0,0,0,.38.18h0a.5.5,0,0,0,.4-.24l4.65-8a.5.5,0,1,0-.86-.51l-4.29,7.34Z" fill="none"/><path d="M347,474.16a8.35,8.35,0,0,1-3.73.35,9.24,9.24,0,0,1-5.95-3.79A8.38,8.38,0,0,1,343.79,457a8.43,8.43,0,0,1,3.3.68,7.3,7.3,0,0,1,2.33.79,7.12,7.12,0,0,1,2,1.61l0-12.59-9.83,0a1.67,1.67,0,0,0-.52-.33,1.82,1.82,0,0,0-.33-.11v-.56h-.5V438.2H315v41.63h-3.62a4.48,4.48,0,0,0,1,2.29,4.4,4.4,0,0,0,3.4,1.62h31.65a4.84,4.84,0,0,0,1.37-.31,4.52,4.52,0,0,0,1.68-1.14,3.8,3.8,0,0,0,.73-1.14,3.39,3.39,0,0,0,.27-1.32q0-4.51,0-9A8.65,8.65,0,0,1,347,474.16Zm-15.27-24.57a.5.5,0,0,1-.5.5h-3.73v3.73a.5.5,0,0,1-.5.5h-4.31a.5.5,0,0,1-.5-.5v-3.73H318.5a.5.5,0,0,1-.5-.5v-4.31a.5.5,0,0,1,.5-.5h3.73v-3.73a.5.5,0,0,1,.5-.5H327a.5.5,0,0,1,.5.5v3.73h3.73a.5.5,0,0,1,.5.5Z" fill="#fdd600"/><path d="M353.19,465.35a9.35,9.35,0,0,0-2.26-6.09V446.91s0,0,0-.06a.64.64,0,0,0,0-.07.4.4,0,0,0-.12-.22l-10.71-10.72a.56.56,0,0,0-.23-.12H313a.5.5,0,0,0-.5.5v41.13h-3.15a.51.51,0,0,0-.5.5,5.3,5.3,0,0,0,1.25,3.42,5.37,5.37,0,0,0,4.17,2h31.69a6.08,6.08,0,0,0,1.69-.37,5.46,5.46,0,0,0,2.05-1.41,4.64,4.64,0,0,0,.93-1.43,4.56,4.56,0,0,0,.34-1.7v-6.88A9.37,9.37,0,0,0,353.19,465.35Zm-3.53,14.29a3.8,3.8,0,0,1-.73,1.14,4.48,4.48,0,0,1-1.69,1.14,4.7,4.7,0,0,1-1.36.31h-.47a4.45,4.45,0,0,1-4.31-4.4.5.5,0,0,0-.5-.5H313.46V436.7h25.76v10.21a.5.5,0,0,0,.5.5h10.21v10.84a9.4,9.4,0,1,0,0,14.19v5.88A3.39,3.39,0,0,1,349.66,479.64Zm-9.53-1.31a5.34,5.34,0,0,0,1.22,2.92,5.22,5.22,0,0,0,1.06,1H314.23a4.4,4.4,0,0,1-3.4-1.62,4.48,4.48,0,0,1-1-2.29Zm3.66-4.59a8.4,8.4,0,1,1,8.4-8.39A8.4,8.4,0,0,1,343.79,473.74Zm5.43-27.33h-9v-9Z" fill="#231f20"/><path d="M344.16,464.53c-1.06-.3-1.43-.46-1.43-1s.33-.83,1-.83a1,1,0,0,1,1.15,1h1.48a2.13,2.13,0,0,0-2.07-2.09v-1.11h-1v1.1a2.11,2.11,0,0,0-2.07,2.1c0,1.08.59,1.7,2.31,2.18,1.08.3,1.49.58,1.49,1.25s-.3.9-1.15.9a1.24,1.24,0,0,1-1.34-1.12H341a2.32,2.32,0,0,0,2.26,2.26v1.1h1v-1.1a2.18,2.18,0,0,0,2.26-2.21C346.55,465.85,346.06,465.09,344.16,464.53Z" fill="#231f20"/><path d="M332.19,458.58H319a.5.5,0,0,0-.5.5.5.5,0,0,0,.5.5h13.22a.5.5,0,0,0,.5-.5A.5.5,0,0,0,332.19,458.58Z" fill="#231f20"/><path d="M318.93,466.08h11.91a.51.51,0,0,0,.5-.5.5.5,0,0,0-.5-.5H318.93a.5.5,0,0,0-.5.5A.51.51,0,0,0,318.93,466.08Z" fill="#231f20"/><path d="M344.29,460.46h-1v1.1a2.11,2.11,0,0,0-2.07,2.1c0,1.08.59,1.7,2.31,2.18,1.08.3,1.49.58,1.49,1.25s-.3.9-1.15.9a1.24,1.24,0,0,1-1.34-1.12H341a2.32,2.32,0,0,0,2.26,2.26v1.1h1v-1.1a2.18,2.18,0,0,0,2.26-2.21c0-1.07-.49-1.83-2.39-2.39-1.06-.3-1.43-.46-1.43-1s.33-.83,1-.83a1,1,0,0,1,1.15,1h1.48a2.13,2.13,0,0,0-2.07-2.09Z" fill="none"/><path d="M331.69,471.57H318.47a.5.5,0,0,0-.5.5.5.5,0,0,0,.5.5h13.22a.5.5,0,0,0,.5-.5A.5.5,0,0,0,331.69,471.57Z" fill="#231f20"/><path d="M331.27,444.78h-3.73v-3.73a.5.5,0,0,0-.5-.5h-4.31a.5.5,0,0,0-.5.5v3.73H318.5a.5.5,0,0,0-.5.5v4.31a.5.5,0,0,0,.5.5h3.73v3.73a.5.5,0,0,0,.5.5H327a.5.5,0,0,0,.5-.5v-3.73h3.73a.5.5,0,0,0,.5-.5v-4.31A.5.5,0,0,0,331.27,444.78Zm-.5,4.31H327a.51.51,0,0,0-.5.5v3.73h-3.31v-3.73a.51.51,0,0,0-.5-.5H319v-3.31h3.73a.51.51,0,0,0,.5-.5v-3.73h3.31v3.73a.51.51,0,0,0,.5.5h3.73Z" fill="#231f20"/><path d="M457.24,441.41v42.84h30V441.41Zm13.51,28.23a10.92,10.92,0,1,1,10.92-10.92A10.92,10.92,0,0,1,470.75,469.64Z" fill="#fdd600"/><path d="M486.26,438.91H484.2v-3.22a.52.52,0,0,0-.17-.37.49.49,0,0,0-.4-.12l-28.45,3.72-.08,0s-.05,0-.07,0l-.09.06-.06,0a.61.61,0,0,0-.07.1l0,.06a.53.53,0,0,0,0,.18v43.84a.5.5,0,0,0,.5.5h31a.5.5,0,0,0,.5-.5V439.41A.51.51,0,0,0,486.26,438.91Zm-.5,43.84h-30V439.91h30Zm-2.56-43.84H462.92l20.28-2.65Z" fill="#231f20"/><path d="M470.75,447.09a11.49,11.49,0,0,0-9.56,5.13l-.06.09a11.49,11.49,0,1,0,9.62-5.22Zm8.32,5.13h-4.38a16.07,16.07,0,0,0-2.82-4.06A10.47,10.47,0,0,1,479.07,452.22Zm-8.42,16.56a15.05,15.05,0,0,1-3.25-4.56h6.51A15,15,0,0,1,470.65,468.78ZM467,463.22a13.21,13.21,0,0,1-.84-4.5h9a13.21,13.21,0,0,1-.84,4.5Zm-6.74-4.5h4.9a14.45,14.45,0,0,0,.77,4.5h-4.58A10.3,10.3,0,0,1,460.25,458.72Zm10.4-10.37a15,15,0,0,1,2.92,3.87h-5.83A15.29,15.29,0,0,1,470.65,448.35Zm3.4,4.87a13.4,13.4,0,0,1,1.08,4.5h-8.95a13.16,13.16,0,0,1,1.08-4.5Zm-8.87,4.5h-4.89a10.31,10.31,0,0,1,1.46-4.5h4.42A14.45,14.45,0,0,0,465.18,457.72Zm11,1h5.09a10.3,10.3,0,0,1-1.09,4.5h-4.77A14.45,14.45,0,0,0,476.16,458.72Zm0-1a14.45,14.45,0,0,0-1-4.5h4.61a10.31,10.31,0,0,1,1.46,4.5Zm-6.72-9.53a15.88,15.88,0,0,0-2.79,4h-4.19A10.48,10.48,0,0,1,469.41,448.19Zm-7.51,16h4.41a16,16,0,0,0,3.17,4.79A10.46,10.46,0,0,1,461.9,464.22Zm9.9,4.83a16,16,0,0,0,3.2-4.83h4.6A10.51,10.51,0,0,1,471.8,469.05Z" fill="#231f20"/><path d="M477.61,475H463.89a.51.51,0,0,0-.5.5.5.5,0,0,0,.5.5h13.72a.5.5,0,0,0,.5-.5A.51.51,0,0,0,477.61,475Z" fill="#231f20"/><polygon points="378.53 447.71 424.48 447.71 424.48 446.21 377.03 446.21 377.03 461.82 378.53 461.82 378.53 447.71" fill="none"/><path d="M410.89,459.39a2.63,2.63,0,0,1,.14.8v1.63h1.5v-.13A2.44,2.44,0,0,0,410.89,459.39Z" fill="none"/><rect x="394.89" y="441.79" width="11.73" height="3.42" fill="none"/><path d="M396,459.39a2.37,2.37,0,0,1,.15.8v1.63h1.5v-.13A2.43,2.43,0,0,0,396,459.39Z" fill="none"/><path d="M412.53,462.82H411v.38a2.45,2.45,0,0,1-2.44,2.45h-.76a2.44,2.44,0,0,1-2.43-2.33h-7.77v-.5h-1.5v.38a2.45,2.45,0,0,1-2.45,2.45h-.75a2.46,2.46,0,0,1-2.44-2.33h-12v-.5h-.48v14.34h45.42V463.32H412.53Z" fill="none"/><path d="M378.53,447.71v15.61h1v15.34H425V463.32h1V447.71Zm16.6,15.49a1.45,1.45,0,0,1-1.45,1.45h-.75a1.45,1.45,0,0,1-1.44-1.33s0-.08,0-.12v-3a1.45,1.45,0,0,1,1.45-1.45h.75a1.46,1.46,0,0,1,1.45,1.45Zm14.9,0a1.45,1.45,0,0,1-1.44,1.45h-.76a1.44,1.44,0,0,1-1.43-1.33.5.5,0,0,1,0-.12v-3a1.45,1.45,0,0,1,1.45-1.45h.76a1.46,1.46,0,0,1,1.44,1.45Z" fill="#fdd600"/><path d="M425,445.21H407.62v-3.92a.5.5,0,0,0-.5-.5H394.39a.5.5,0,0,0-.5.5v3.92H376.53a.5.5,0,0,0-.5.5v16.61a.51.51,0,0,0,.5.5h.52v14.84a.5.5,0,0,0,.5.5H424a.51.51,0,0,0,.5-.5V462.82H425a.5.5,0,0,0,.5-.5V445.71A.5.5,0,0,0,425,445.21Zm-30.09-3.42h11.73v3.42H394.89Zm28.58,21.53v13.84H378.05V462.82h12.43v.38s0,.08,0,.12a2.46,2.46,0,0,0,2.44,2.33h.75a2.45,2.45,0,0,0,2.45-2.45v-.38h9.25v.38a.5.5,0,0,0,0,.12,2.44,2.44,0,0,0,2.43,2.33h.76A2.45,2.45,0,0,0,411,463.2v-.38h12.44Zm-32-.12v-3a1.45,1.45,0,0,1,1.45-1.45h.75a1.46,1.46,0,0,1,1.45,1.45v3a1.45,1.45,0,0,1-1.45,1.45h-.75a1.45,1.45,0,0,1-1.44-1.33S391.48,463.24,391.48,463.2Zm14.9,0v-3a1.45,1.45,0,0,1,1.45-1.45h.76a1.46,1.46,0,0,1,1.44,1.45v3a1.45,1.45,0,0,1-1.44,1.45h-.76a1.44,1.44,0,0,1-1.43-1.33A.5.5,0,0,1,406.38,463.2Zm18.1-15.49v14.11H411v-1.63a2.63,2.63,0,0,0-.14-.8,2.45,2.45,0,0,0-2.3-1.65h-.76a2.45,2.45,0,0,0-2.45,2.45v1.63h-9.25v-1.63a2.37,2.37,0,0,0-.15-.8,2.43,2.43,0,0,0-2.3-1.65h-.75a2.45,2.45,0,0,0-2.45,2.45v1.63H377V446.21h47.45Z" fill="#231f20"/><polygon points="210.52 522.77 210.52 522.74 172.48 522.74 172.48 522.77 168.97 522.77 168.97 528.6 215.53 528.6 215.53 522.77 210.52 522.77" fill="#fdd600"/><rect x="173.98" y="534.33" width="36.54" height="20.69" fill="#fdd600"/><path d="M214.53,520.27h-7.16v-1.52a2.33,2.33,0,0,0-4.65,0v1.52H179.21v-1.52a2.33,2.33,0,0,0-4.65,0v1.52H167a.5.5,0,0,0-.5.5v38a.5.5,0,0,0,.5.5h47.56a.5.5,0,0,0,.5-.5v-38A.5.5,0,0,0,214.53,520.27Zm-9.48-2.84a1.32,1.32,0,0,1,1.32,1.32v2.67a1.33,1.33,0,0,1-2.65,0v-2.67A1.32,1.32,0,0,1,205.05,517.43Zm-28.16,0a1.32,1.32,0,0,1,1.32,1.32v2.67a1.33,1.33,0,0,1-2.65,0v-2.67A1.33,1.33,0,0,1,176.89,517.43Zm-2.33,3.84v.15a2.33,2.33,0,0,0,4.65,0v-.15h23.51v.15a2.33,2.33,0,0,0,4.65,0v-.15H214v5.83H167.47v-5.83Zm-7.09,37V528.1H214v30.19Z" fill="#231f20"/><path d="M209.52,531.83H172a.5.5,0,0,0-.5.5V554a.5.5,0,0,0,.5.5h37.54a.5.5,0,0,0,.5-.5V532.33A.5.5,0,0,0,209.52,531.83Zm-37,8.34H179v6h-6.52Zm7.52,0h6.5v6H180Zm14-1h-6.5v-6.34H194Zm1-6.34h6.5v6.34H195Zm-1,7.34v6h-6.5v-6Zm-7.5-1H180v-6.34h6.5Zm0,8v6.34H180v-6.34Zm1,0H194v6.34h-6.5Zm7.5,0h6.5v6.34H195Zm0-1v-6h6.5v6Zm7.5-6H209v6H202.5Zm6.52-1H202.5v-6.34H209Zm-30-6.34v6.34h-6.52v-6.34Zm-6.52,14.35H179v6.34h-6.52Zm30,6.34v-6.34H209v6.34Z" fill="#231f20"/><path d="M256.05,526.61l-.93,2.48a.5.5,0,0,1-.47.33H239.3v28.2h33.32a4,4,0,0,0,3.37,2h0a4.09,4.09,0,0,0,3.34-2h5.85v-31Z" fill="#fdd600"/><path d="M284.2,518.92H254.55l-.93-2.48a.5.5,0,0,0-.47-.33H237.3a.5.5,0,0,0-.5.5v40a.5.5,0,0,0,.5.5h33.29a4.94,4.94,0,0,0,3.9,2h0a5,5,0,0,0,3.6-1.65l.27-.34h5.82a.5.5,0,0,0,.5-.5v-37.2A.5.5,0,0,0,284.2,518.92Zm-4.77,34.61V543.47a.51.51,0,0,0-.5-.5.5.5,0,0,0-.5.5v10.11a4.18,4.18,0,0,1-1.07,3.2,3.9,3.9,0,0,1-2.85,1.33h0a4.08,4.08,0,0,1-4-4V538.41a2.53,2.53,0,0,1,.8-1.88,2.48,2.48,0,0,1,1.82-.69,2.55,2.55,0,0,1,2.36,2.59v14.88a1.2,1.2,0,0,1-.35.89,1,1,0,0,1-.81.33,1.17,1.17,0,0,1-1.07-1.19l0-10a.5.5,0,0,0-.5-.5h0a.5.5,0,0,0-.5.5l0,10a2.15,2.15,0,0,0,2,2.2,2.06,2.06,0,0,0,1.57-.63,2.21,2.21,0,0,0,.64-1.62V538.44a3.56,3.56,0,0,0-3.31-3.6,3.51,3.51,0,0,0-2.56,1,3.55,3.55,0,0,0-1.11,2.6v15.73a5.27,5.27,0,0,0,.46,2H237.8v-28.2h15.35a.5.5,0,0,0,.47-.32l.93-2.49H283.7v31H279A5.16,5.16,0,0,0,279.43,553.53ZM254.2,519.92h29.5v4.19H254.2a.51.51,0,0,0-.47.33l-.93,2.48h-15v-9.81h15l.93,2.49A.51.51,0,0,0,254.2,519.92Z" fill="#231f20"/><path d="M142.92,539.58l-29.24-23.73-14,17.25a3.2,3.2,0,0,0-.62,2.62,4.46,4.46,0,0,0,1.61,2.64l27.15,22c0-.11,0-.23,0-.35a4.29,4.29,0,0,1,1.17-3.24Zm-26.29-6.09-8.27-6.7,5.42-6.68,8.27,6.7Z" fill="#fdd600"/><path d="M143.94,542.15l-2.74-2.22,1.31-1.61a.51.51,0,0,0-.07-.71l-30-24.35a.54.54,0,0,0-.37-.11.49.49,0,0,0-.33.19L97.41,531a4.16,4.16,0,0,0-.82,3.42,5.45,5.45,0,0,0,2,3.25l29,23.48h0l.63.52a4.13,4.13,0,0,0,2.62.93l.45,0A4.17,4.17,0,0,0,134,561l10.54-13A4.19,4.19,0,0,0,143.94,542.15ZM98.19,531.6l14-17.25,29.24,23.73-14,17.21a4.29,4.29,0,0,0-1.17,3.24c0,.12,0,.24,0,.35l-27.15-22a4.48,4.48,0,0,1-1.61-2.64A3.23,3.23,0,0,1,98.19,531.6Zm45.59,15.8-10.54,13a3.11,3.11,0,0,1-2.14,1.16,3.17,3.17,0,0,1-2.33-.69l-.6-.49a3.15,3.15,0,0,1-.89-1.92,3.28,3.28,0,0,1,.93-2.5l12.36-15.24,2.15,1.74-13.08,16.13a.51.51,0,0,0,.07.71.56.56,0,0,0,.32.11.49.49,0,0,0,.39-.19l13.06-16.11A3.17,3.17,0,0,1,143.78,547.4Z" fill="#231f20"/><path d="M123.06,526.35,114,519a.47.47,0,0,0-.37-.11.52.52,0,0,0-.34.18l-6,7.46a.5.5,0,0,0,.08.7l9,7.33a.51.51,0,0,0,.32.12.52.52,0,0,0,.39-.19l6-7.46A.5.5,0,0,0,123.06,526.35Zm-6.43,7.14-8.27-6.7,5.42-6.68,8.27,6.7Z" fill="#231f20"/><path d="M135.73,537.91a.5.5,0,0,0,.32.11.51.51,0,0,0,.39-.18.49.49,0,0,0-.08-.7L126.28,529a.51.51,0,0,0-.71.08.5.5,0,0,0,.08.7Z" fill="#231f20"/><path d="M122.55,532.76a.49.49,0,0,0,.07.7l10.09,8.18a.45.45,0,0,0,.31.11.5.5,0,0,0,.39-.18.51.51,0,0,0-.07-.71l-10.09-8.18A.5.5,0,0,0,122.55,532.76Z" fill="#231f20"/><path d="M130.31,544.6l-10.08-8.19a.51.51,0,0,0-.71.08.5.5,0,0,0,.08.7l10.08,8.18a.48.48,0,0,0,.32.11.51.51,0,0,0,.39-.18A.49.49,0,0,0,130.31,544.6Z" fill="#231f20"/><path d="M126.6,549.17a.47.47,0,0,0,.31.12.51.51,0,0,0,.39-.19.49.49,0,0,0-.07-.7l-22.34-18.12a.49.49,0,0,0-.7.07.51.51,0,0,0,.07.71Z" fill="#231f20"/><path d="M123.69,552.76a.45.45,0,0,0,.31.11.5.5,0,0,0,.39-.18.51.51,0,0,0-.07-.71L102,533.86a.5.5,0,0,0-.7.08.5.5,0,0,0,.07.7Z" fill="#231f20"/><rect x="102.34" y="606.51" width="12.35" height="15.32" transform="translate(-410.24 267.95) rotate(-46.26)" fill="#fdd600"/><rect x="128.55" y="607.65" width="15.32" height="12.35" transform="translate(-394.15 276.11) rotate(-45)" fill="#fdd600"/><path d="M145.55,610.92l-9.44-9.44a.5.5,0,0,0-.7,0L123.87,613a.49.49,0,0,0-.12.46,5.31,5.31,0,0,0-3.07,1.41l0,0a3.82,3.82,0,0,0-2.6-1.07h0l-.13,0a.51.51,0,0,0,0-.69l-11.79-11.28a.67.67,0,0,0-.36-.14.5.5,0,0,0-.35.16l-9.23,9.64a.5.5,0,0,0,0,.71L108,623.49a.48.48,0,0,0,.34.14h0a.52.52,0,0,0,.32-.14.85.85,0,0,0,0,.16,3.73,3.73,0,0,0,1.17,2.55l.26.25a2.17,2.17,0,0,0,.48,2.46,2.17,2.17,0,0,0,1.5.6l.27,0a2.18,2.18,0,0,0,2.16,2.35h.05l.21,0a2.19,2.19,0,0,0,.66,1.74,2.17,2.17,0,0,0,1.5.6l.27,0a2.16,2.16,0,0,0,2.16,2.34,2.11,2.11,0,0,0,1-.23l.47.44a2.44,2.44,0,0,0,1.71.7,2.26,2.26,0,0,0,2.28-2.4,1.24,1.24,0,0,0,0-.27H125a2.27,2.27,0,0,0,1.66-.7,2.24,2.24,0,0,0,.63-1.7l0-.27.29,0a2.28,2.28,0,0,0,2.28-2.4l0-.28.29,0a2.33,2.33,0,0,0,2.08-3.27l.14-.15a4.11,4.11,0,0,0,1.19-2.7.39.39,0,0,0,.18,0,.51.51,0,0,0,.36-.15l11.53-11.53A.5.5,0,0,0,145.55,610.92Zm-14,14.34-.11.11-8-7.93a.54.54,0,0,0-.35-.16h0a.45.45,0,0,0-.34.18c-.12.13-1.78,1.73-2.86,2.77a1.16,1.16,0,0,1-.83.32,1.1,1.1,0,0,1-.82-.36,1.17,1.17,0,0,1,0-1.65L121,615.9l.09-.07c.8-.74,2.2-1.69,3.64-1.23l7.66,7.65A3.2,3.2,0,0,1,131.59,625.26Zm-.24,1.82a1.25,1.25,0,0,1-.35.92,1.28,1.28,0,0,1-.93.39h0a1.48,1.48,0,0,1-1-.42l-3-2.91a.61.61,0,0,0-.36-.13.48.48,0,0,0-.36.16.49.49,0,0,0,0,.7l3,2.91a1.48,1.48,0,0,1,.46,1,1.26,1.26,0,0,1-.35.95,1.25,1.25,0,0,1-.93.4h0a1.56,1.56,0,0,1-1-.42l-3-2.91a.46.46,0,0,0-.37-.13.5.5,0,0,0-.33.86l3,2.91a1.47,1.47,0,0,1,.47,1,1.31,1.31,0,0,1-.35,1,1.28,1.28,0,0,1-.94.39h0a1.46,1.46,0,0,1-1-.42l-3-2.9a.54.54,0,0,0-.36-.14.53.53,0,0,0-.35.17.49.49,0,0,0,0,.7l3,2.9a1.46,1.46,0,0,1,.46,1,1.27,1.27,0,0,1-.34,1,1.39,1.39,0,0,1-2,0l-.38-.36a2.19,2.19,0,0,0,.44-1.36,2.15,2.15,0,0,0-2.44-2.09,1.5,1.5,0,0,0,0-.22,2.18,2.18,0,0,0-.67-1.52,2.12,2.12,0,0,0-1.56-.6l-.21,0a1.48,1.48,0,0,0,0-.21,2.19,2.19,0,0,0-2.22-2.13l-.22,0a2.15,2.15,0,0,0-2.21-2.34,2.11,2.11,0,0,0-1.31.5l-.18-.18a2.74,2.74,0,0,1-.87-1.88,2.41,2.41,0,0,1,.67-1.83l5.95-6.23a2.47,2.47,0,0,1,1.81-.75,2.81,2.81,0,0,1,1.87.76l-2.37,2.27a2.16,2.16,0,0,0,1.45,3.73,2.09,2.09,0,0,0,1.55-.6l2.5-2.41,2.66,2.55,5.42,5.34a.24.24,0,0,0,.08.06A1.31,1.31,0,0,1,131.35,627.08Zm-12.85,8a1.18,1.18,0,0,1,.81-2,1.17,1.17,0,0,1,.81.33,1.1,1.1,0,0,1,.36.82,1.15,1.15,0,0,1-.32.84A1.18,1.18,0,0,1,118.5,635.13Zm-2.43-2.32a1.17,1.17,0,0,1,0-1.66,1.13,1.13,0,0,1,.83-.36h0a1.15,1.15,0,0,1,.81.32,1.18,1.18,0,0,1,.37.83,1.12,1.12,0,0,1-.33.83A1.17,1.17,0,0,1,116.07,632.81Zm-2.42-2.31a1.18,1.18,0,0,1,.78-2h0a1.18,1.18,0,0,1,.81.33,1.18,1.18,0,0,1,0,1.66,1.18,1.18,0,0,1-.82.37A1.16,1.16,0,0,1,113.65,630.5Zm-2.43-2.31a1.22,1.22,0,0,1-.36-.83,1.15,1.15,0,0,1,.32-.83,1.18,1.18,0,0,1,.83-.37h0a1.18,1.18,0,1,1-.81,2Zm-14-16.36,8.54-8.92,11.07,10.59-8.54,8.92Zm27.72,1.54,10.83-10.83,8.73,8.73L133.66,622.1Z" fill="#231f20"/><path d="M286,617.65a11.73,11.73,0,0,0-11.71-11.71H250.38a11.7,11.7,0,0,0-.73,23.38.48.48,0,0,1,.37.2l4.31,5.73,4.27-5.69a.49.49,0,0,1,.4-.2h15.29A11.72,11.72,0,0,0,286,617.65Z" fill="#fdd600"/><path d="M272.62,603.44H248.71a12.7,12.7,0,0,0-1,25.36l4.56,6.09a.54.54,0,0,0,.4.2.51.51,0,0,0,.4-.2l4.53-6h15a12.71,12.71,0,1,0,0-25.42Zm-15.69,24.62-4.28,5.69-4.3-5.73a.49.49,0,0,0-.37-.2,11.7,11.7,0,0,1,.73-23.38h23.91a11.71,11.71,0,1,1,0,23.42H257.33A.48.48,0,0,0,256.93,628.06Z" fill="#231f20"/><path d="M355.66,613.24a7.85,7.85,0,0,0-7.55-8.1H332.33a7.32,7.32,0,0,0-5.34,2.37,8.59,8.59,0,0,0-2.21,5.73,7.79,7.79,0,0,0,.08,1.13l7.34-.11a9.23,9.23,0,0,1,4,2,9.44,9.44,0,0,1,3,5.09l3.27,0a.52.52,0,0,1,.41.21l2.67,3.8,2.7-3.82a.47.47,0,0,1,.37-.22A7.87,7.87,0,0,0,355.66,613.24Z" fill="#fdd600"/><path d="M346.61,602.64H330.83a8.85,8.85,0,0,0-8.55,9.1,9.78,9.78,0,0,0,.15,1.63h-7.54c-4.71,0-8.55,4.1-8.55,9.14a8.93,8.93,0,0,0,7.78,9.09l3,4.24a.48.48,0,0,0,.41.22.5.5,0,0,0,.41-.22l2.93-4.19h9.83c4.71,0,8.55-4.1,8.55-9.14a10.39,10.39,0,0,0-.15-1.68h1.59l2.93,4.17a.52.52,0,0,0,.41.21.49.49,0,0,0,.41-.21l3-4.22a9.13,9.13,0,0,0-.77-18.14ZM346.7,620l-2.7,3.82-2.67-3.8a.52.52,0,0,0-.41-.21h-2.08a8.64,8.64,0,0,0-8.17-6.46h-7.23a8,8,0,0,1-.16-1.63,7.85,7.85,0,0,1,7.55-8.1h15.78a8.12,8.12,0,0,1,.46,16.16A.47.47,0,0,0,346.7,620Zm-8.48,2.49c0,4.49-3.39,8.14-7.55,8.14H320.58a.52.52,0,0,0-.41.21l-2.67,3.82-2.69-3.84a.54.54,0,0,0-.38-.22,7.9,7.9,0,0,1-7.09-8.11c0-4.49,3.39-8.14,7.55-8.14h15.78C334.83,614.37,338.22,618,338.22,622.51Z" fill="#231f20"/><path d="M482.87,603.83H461.63c-6.64,0-12,5.83-12,13,0,6.86,5,12.56,11.29,13a.5.5,0,0,1,.47.43l.95,7.09,7.84-7.35a.51.51,0,0,1,.34-.13h12.39c6.64,0,12-5.84,12-13S489.51,603.83,482.87,603.83Zm-12.12,20.31a8.67,8.67,0,1,1,8.67-8.67A8.67,8.67,0,0,1,470.75,624.14Z" fill="#fdd600"/><path d="M481.37,601.33H460.13c-7.19,0-13,6.28-13,14,0,7.23,5.16,13.27,11.82,13.94l1,7.66a.49.49,0,0,0,.33.4.45.45,0,0,0,.16,0,.56.56,0,0,0,.35-.13l8.4-7.88h12.19c7.19,0,13-6.29,13-14S488.56,601.33,481.37,601.33Zm0,27H469a.51.51,0,0,0-.34.13l-7.84,7.35-.95-7.09a.5.5,0,0,0-.47-.43c-6.33-.42-11.29-6.12-11.29-13,0-7.18,5.4-13,12-13h21.24c6.64,0,12,5.83,12,13S488,628.36,481.37,628.36Z" fill="#231f20"/><path d="M470.75,606a9.47,9.47,0,1,0,9.47,9.46A9.47,9.47,0,0,0,470.75,606Zm-.08,17.64a12.26,12.26,0,0,1-2.51-3.5h5A12.06,12.06,0,0,1,470.67,623.65Zm-2.92-4.5a10.62,10.62,0,0,1-.65-3.48h7.15a10.88,10.88,0,0,1-.65,3.48Zm-5.46-3.48h3.81a11.68,11.68,0,0,0,.58,3.48h-3.54A8.31,8.31,0,0,1,462.29,615.67Zm8.38-8.42a12.28,12.28,0,0,1,2.23,2.93h-4.45A12.3,12.3,0,0,1,470.67,607.25Zm2.71,3.93a11,11,0,0,1,.85,3.49h-7.11a10.71,10.71,0,0,1,.85-3.49Zm-7.26,3.49h-3.8a8.46,8.46,0,0,1,1.14-3.49h3.43A11.47,11.47,0,0,0,466.12,614.67Zm9.13,1h4a8.31,8.31,0,0,1-.85,3.48h-3.7A12,12,0,0,0,475.25,615.67Zm0-1a12.1,12.1,0,0,0-.77-3.49H478a8.46,8.46,0,0,1,1.14,3.49Zm2.12-4.49H474a13.37,13.37,0,0,0-2.1-3.08A8.47,8.47,0,0,1,477.35,610.18Zm-8-3.06a13.9,13.9,0,0,0-2.07,3.06h-3.18A8.48,8.48,0,0,1,469.4,607.12Zm-5.7,13h3.37a13.06,13.06,0,0,0,2.39,3.68A8.47,8.47,0,0,1,463.7,620.15Zm8.16,3.71a13.19,13.19,0,0,0,2.42-3.71h3.52A8.46,8.46,0,0,1,471.86,623.86Z" fill="#231f20"/><path d="M416.71,611.17a10.47,10.47,0,0,0-7.72-3.54H389.86c-5.94,0-10.78,5.23-10.78,11.67,0,6.14,4.44,11.25,10.12,11.62a.51.51,0,0,1,.46.43l.85,6.29,7-6.55a.51.51,0,0,1,.34-.13H409a10.45,10.45,0,0,0,1.07-.06,6.85,6.85,0,0,0,.72-.11c-.14-.44-.27-.88-.41-1.32Zm-28.94,9.73a2.43,2.43,0,1,1,2.43-2.43A2.43,2.43,0,0,1,387.77,620.9Zm10.15,0a2.43,2.43,0,1,1,2.43-2.43A2.43,2.43,0,0,1,397.92,620.9Zm10.15,0a2.43,2.43,0,1,1,2.43-2.43A2.43,2.43,0,0,1,408.07,620.9Z" fill="#fdd600"/><path d="M387.77,615a3.43,3.43,0,1,0,3.43,3.43A3.44,3.44,0,0,0,387.77,615Zm0,5.86a2.43,2.43,0,1,1,2.43-2.43A2.43,2.43,0,0,1,387.77,620.9Z" fill="#231f20"/><path d="M408.07,615a3.43,3.43,0,1,0,3.43,3.43A3.44,3.44,0,0,0,408.07,615Zm0,5.86a2.43,2.43,0,1,1,2.43-2.43A2.43,2.43,0,0,1,408.07,620.9Z" fill="#231f20"/><path d="M397.92,615a3.43,3.43,0,1,0,3.43,3.43A3.44,3.44,0,0,0,397.92,615Zm0,5.86a2.43,2.43,0,1,1,2.43-2.43A2.43,2.43,0,0,1,397.92,620.9Z" fill="#231f20"/><path d="M425.08,602.9l-5.49-1.85a.5.5,0,0,0-.38,0,.49.49,0,0,0-.25.28l-1.31,3.88h0l-1.39,4.13a11.43,11.43,0,0,0-8.77-4.24H388.36c-6.49,0-11.78,5.68-11.78,12.67,0,6.52,4.64,12,10.64,12.59l.92,6.85a.52.52,0,0,0,.33.4.51.51,0,0,0,.17,0,.48.48,0,0,0,.34-.13l7.55-7.08h11a11.61,11.61,0,0,0,2.22-.23l.25,2.29h0l.39,3.6a.53.53,0,0,0,.34.42.44.44,0,0,0,.16,0,.48.48,0,0,0,.36-.15l4.75-5a.46.46,0,0,0,.1-.18h0l8-23.81h0l1.3-3.88A.5.5,0,0,0,425.08,602.9ZM396,629.6l-7,6.54-.85-6.28a.51.51,0,0,0-.46-.44c-5.68-.37-10.12-5.48-10.12-11.62,0-6.44,4.84-11.67,10.78-11.67h19.13a10.47,10.47,0,0,1,8.39,4.37l-6.25,18.56h0a.31.31,0,0,0,0,.1.13.13,0,0,0,0,.06,10,10,0,0,1-2.12.23H396.33A.48.48,0,0,0,396,629.6ZM418.44,606l4.54,1.52-7.62,22.62a7,7,0,0,0-2-1.13,6.7,6.7,0,0,0-2.51-.39Zm-7.78,23.62A5.91,5.91,0,0,1,413,630a5.79,5.79,0,0,1,1.89,1.1l-1.58,1.67a3.65,3.65,0,0,0-1.2-.64,4,4,0,0,0-1.19-.16Zm1.14,3.41a2.79,2.79,0,0,1,.81.42L411.23,635l-.22-2A3,3,0,0,1,411.8,633.07Zm11.5-26.45-4.54-1.53,1-2.93,4.54,1.53Z" fill="#231f20"/><path d="M379.66,531.24h14.62l1.08-2.13a.49.49,0,0,1,.44-.28h25.33V526.9H393.39a.51.51,0,0,1-.47-.33l-.86-2.31H378V544l1.18-12.32A.51.51,0,0,1,379.66,531.24Z" fill="none"/><path d="M396.11,529.83,395,532a.5.5,0,0,1-.45.27H380.11l-2.31,24h1.92l2.14-22.3h14.47a.5.5,0,0,0,.45-.27l1.08-2.14h25.47l.17-1.75Z" fill="none"/><path d="M396.78,533.72a.5.5,0,0,1-.45.27H381.86l-2.14,22.3H421l2.37-24.71H397.86Zm4.33,5.87a4,4,0,0,1,5.74-.15,4,4,0,0,1,0,5.59l-6,6.21-5.94-5.93a4.61,4.61,0,0,1-1.42-3,3.71,3.71,0,0,1,1.14-2.88,3.83,3.83,0,0,1,2.73-1.15,4.26,4.26,0,0,1,3,1.3A.5.5,0,0,0,401.11,539.59Z" fill="#fdd600"/><path d="M424.33,531.58l-2.2,22.9v.58a.47.47,0,0,1-.08.26l-.14,1.52a.5.5,0,0,1-.5.45H379.63l-.08.75h43.16l2.54-26.46Z" fill="#fdd600"/><path d="M377.8,556.29l2.31-24h14.47A.5.5,0,0,0,395,532l1.08-2.14H423.5l-.17,1.75h1l.21-2.2a.47.47,0,0,0-.12-.38.5.5,0,0,0-.37-.17h-1.92V526.4a.5.5,0,0,0-.5-.5H393.74l-.87-2.32a.5.5,0,0,0-.47-.32H377.48a.5.5,0,0,0-.5.5v30.67l-.22,2.31a.51.51,0,0,0,.12.39.52.52,0,0,0,.37.16h2.38l.09-1Zm.18-32h14.08l.86,2.31a.51.51,0,0,0,.47.33h27.74v1.93H395.8a.49.49,0,0,0-.44.28l-1.08,2.13H379.66a.51.51,0,0,0-.5.45L378,544Z" fill="#231f20"/><path d="M421.91,556.84l.14-1.52a.47.47,0,0,0,.08-.26v-.58l2.2-22.9h-1L421,556.29H379.72l-.09,1h41.78A.5.5,0,0,0,421.91,556.84Z" fill="#231f20"/><path d="M407.55,538.73a4.92,4.92,0,0,0-6.8-.17,4.92,4.92,0,0,0-6.8.17,4.78,4.78,0,0,0-1.43,3.64,5.68,5.68,0,0,0,1.71,3.65l6.3,6.29a.51.51,0,0,0,.35.15h0a.52.52,0,0,0,.35-.16l6.31-6.57a4.95,4.95,0,0,0,0-7Zm-.71,6.3-6,6.21-5.94-5.93a4.61,4.61,0,0,1-1.42-3,3.71,3.71,0,0,1,1.14-2.88,3.83,3.83,0,0,1,2.73-1.15,4.26,4.26,0,0,1,3,1.3.5.5,0,0,0,.71,0,4,4,0,0,1,5.74-.15,4,4,0,0,1,0,5.59Z" fill="#231f20"/><path d="M423.44,679.58a7.67,7.67,0,0,0-5.48-2.17,9.91,9.91,0,0,0-7,3l-7.09,7.15A10,10,0,0,0,401,694a8.13,8.13,0,0,0,.51,3.4l4.21-4.24a4,4,0,0,0,.57-1.56,4.1,4.1,0,0,0-.41-2.35l7.43-6.88a2.87,2.87,0,0,1,1-.93,3,3,0,0,1,1.49-.33,2.9,2.9,0,0,1,1.43.27c.71.36.59.74,1.54,1.38.34.23.53.29.62.53s0,.62-.27,1.18c-.6,1.34-.14.52-.62,1.48-.32.63-.76,1.47-1.33,2.47l-5.77,5.29a2.13,2.13,0,0,1-1.13,1.54,1.65,1.65,0,0,1-.86.11l-.44,1a1.43,1.43,0,0,0-.49.17,1.39,1.39,0,0,0-.61.72l3.75-2.63a12.9,12.9,0,0,0-1.1-1.84,12.47,12.47,0,0,0-3.8-3.41l-1.93,3.8c.37.39.7.58.84.49s.13-.1.05-.49c-1.4,1.41-2.8,2.83-4.21,4.24a7.83,7.83,0,0,0,.45,1l-2.28,2.29a7.74,7.74,0,0,0-1-.43,8,8,0,0,0-2.84-.5,9.85,9.85,0,0,0-7,3l-7.09,7.15a9.91,9.91,0,0,0-2.94,6.43,7.56,7.56,0,0,0,8.25,8.18,9.93,9.93,0,0,0,6.4-3l7.09-7.16a9.46,9.46,0,0,0,2.48-9.69,8.27,8.27,0,0,0-.43-1l2.32-2.34a8.9,8.9,0,0,0,1,.42h0a8.47,8.47,0,0,0,3.28.43,10,10,0,0,0,6.4-3l7.09-7.16C426.35,688.37,426.67,682.79,423.44,679.58ZM395.88,709a1.63,1.63,0,0,1-.36.76,1.25,1.25,0,0,1-.41.28l-6.66,7a6.9,6.9,0,0,1-1.93.77,3.51,3.51,0,0,1-2,.06,3.36,3.36,0,0,1-1.92-2.15,3.75,3.75,0,0,1,.77-3.3l7.48-7.49a1.34,1.34,0,0,1,.17-.55c.42-.72,1.56-.84,1.65-.66s-.12.32-1.16,1l-.11,1.27a10.27,10.27,0,0,0,2.86,3,10.62,10.62,0,0,0,1.24.74l.53-1.48A5.16,5.16,0,0,1,395.88,709Z" fill="#fdd600"/><path d="M422.65,677.37c-3.63-3.59-9.84-3.21-13.86.85l-7.09,7.15a10.94,10.94,0,0,0-3.23,7.08,9.13,9.13,0,0,0,.76,4.22l-1.29,1.3a10.37,10.37,0,0,0-11.28,2.57l-7.09,7.16a11,11,0,0,0-3.22,7.08A8.55,8.55,0,0,0,385,724c.21,0,.42,0,.64,0a10.92,10.92,0,0,0,7.05-3.29l7.09-7.16a10.38,10.38,0,0,0,2.52-11.16l1.36-1.37a9.08,9.08,0,0,0,3.46.67c.21,0,.43,0,.64,0a10.9,10.9,0,0,0,7-3.29l7.09-7.15C426,687.18,426.27,681,422.65,677.37Zm-23.56,35.49L392,720a9.91,9.91,0,0,1-6.4,3,7.56,7.56,0,0,1-8.25-8.18,10,10,0,0,1,2.94-6.43l7.09-7.15a9.86,9.86,0,0,1,7-3,8,8,0,0,1,2.84.51L393,703a4.62,4.62,0,0,0-2.45,1.29l-7.19,7.26a4.55,4.55,0,0,0-1.34,2.93,3.69,3.69,0,0,0,1.07,2.87,3.64,3.64,0,0,0,2.6,1,4.53,4.53,0,0,0,3.2-1.37l7.19-7.26a4.57,4.57,0,0,0,1.23-2.25l4.29-4.32A9.46,9.46,0,0,1,399.09,712.86Zm-7-4.62a4.64,4.64,0,0,0,2.73,1.34l-6.66,6.72a3.13,3.13,0,0,1-4.38.32,2.72,2.72,0,0,1-.77-2.1,3.58,3.58,0,0,1,1.05-2.29l6.73-6.79v0A4.63,4.63,0,0,0,392.07,708.24Zm2.74.33a3.62,3.62,0,0,1-2-1,3.67,3.67,0,0,1-1-1.95l15.32-15.46a4.46,4.46,0,0,1,3,3ZM407,689.09l6.39-6.45a3.51,3.51,0,0,1,2.28-1.07h.2a2.62,2.62,0,0,1,2.67,2.86,3.53,3.53,0,0,1-1.05,2.29l-6.31,6.37a5.48,5.48,0,0,0-1.41-2.51,5.58,5.58,0,0,0-2.66-1.49S407,689.09,407,689.09Zm14.25,1.44-7.09,7.16a10,10,0,0,1-6.4,3,8.47,8.47,0,0,1-3.28-.43l4.29-4.34a4.56,4.56,0,0,0,2.24-1.25l7.19-7.26a4.51,4.51,0,0,0,1.34-2.94,3.69,3.69,0,0,0-1.06-2.86,3.66,3.66,0,0,0-2.87-1,4.54,4.54,0,0,0-2.93,1.37l-7.2,7.26a4.59,4.59,0,0,0-1.26,2.46L400,695.9a8.29,8.29,0,0,1-.51-3.4,10,10,0,0,1,2.94-6.43l7.09-7.15a9.91,9.91,0,0,1,7-3,7.67,7.67,0,0,1,5.48,2.17C425.17,681.29,424.85,686.87,421.22,690.53Z" fill="#231f20"/><path d="M395.1,688.36a.49.49,0,0,0,.45.29.5.5,0,0,0,.21,0,.51.51,0,0,0,.25-.66l-3.07-6.55a.49.49,0,0,0-.66-.24.5.5,0,0,0-.24.67Z" fill="#231f20"/><path d="M391.48,691.27a.51.51,0,0,0,.33.13.5.5,0,0,0,.34-.87l-5.33-4.88a.51.51,0,0,0-.71,0,.5.5,0,0,0,0,.71Z" fill="#231f20"/><path d="M382.45,692.87l6.79,2.47a.5.5,0,0,0,.64-.3.49.49,0,0,0-.3-.64l-6.79-2.47a.5.5,0,0,0-.64.3A.49.49,0,0,0,382.45,692.87Z" fill="#231f20"/><path d="M407,710.35a.5.5,0,1,0-.9.44l3.19,6.48a.5.5,0,0,0,.45.28.59.59,0,0,0,.22,0,.5.5,0,0,0,.23-.67Z" fill="#231f20"/><path d="M410.6,707.37a.51.51,0,0,0-.71,0,.51.51,0,0,0,.05.71l5.43,4.77a.51.51,0,0,0,.71,0,.49.49,0,0,0-.05-.7Z" fill="#231f20"/><path d="M419.6,705.58l-6.85-2.33a.5.5,0,0,0-.63.32.5.5,0,0,0,.31.63l6.84,2.33.16,0a.5.5,0,0,0,.48-.34A.5.5,0,0,0,419.6,705.58Z" fill="#231f20"/><circle cx="331.79" cy="681.35" r="3.15" fill="#fdd600"/><circle cx="349.11" cy="690.3" r="3.15" fill="#fdd600"/><circle cx="315.19" cy="690.3" r="3.15" fill="#fdd600"/><circle cx="315.39" cy="711.64" r="3.15" fill="#fdd600"/><circle cx="349.31" cy="711.64" r="3.15" fill="#fdd600"/><circle cx="332" cy="720.59" r="3.15" fill="#fdd600"/><circle cx="331.79" cy="700.95" r="5.71" fill="#fdd600"/><path d="M313.69,693a4.15,4.15,0,1,0-4.16-4.15A4.16,4.16,0,0,0,313.69,693Zm0-7.3a3.15,3.15,0,1,1-3.16,3.15A3.16,3.16,0,0,1,313.69,685.65Z" fill="#231f20"/><path d="M330.29,684a4.15,4.15,0,1,0-4.15-4.15A4.16,4.16,0,0,0,330.29,684Zm0-7.3a3.15,3.15,0,1,1-3.15,3.15A3.16,3.16,0,0,1,330.29,676.7Z" fill="#231f20"/><path d="M347.61,693a4.15,4.15,0,1,0-4.15-4.15A4.15,4.15,0,0,0,347.61,693Zm0-7.3a3.15,3.15,0,1,1-3.15,3.15A3.16,3.16,0,0,1,347.61,685.65Z" fill="#231f20"/><path d="M340.15,705.71a.47.47,0,0,0,.25.07.51.51,0,0,0,.44-.25.51.51,0,0,0-.19-.68l-4.32-2.5a6.63,6.63,0,0,0,0-5.81l4.32-2.5a.5.5,0,1,0-.5-.86l-4.31,2.49a6.72,6.72,0,0,0-5-2.91v-5a.5.5,0,0,0-.5-.5.51.51,0,0,0-.5.5v5a6.7,6.7,0,0,0-5,2.91l-4.32-2.49a.5.5,0,0,0-.5.86l4.32,2.5a6.65,6.65,0,0,0,0,5.82l-4.32,2.49a.5.5,0,0,0,.25.93.45.45,0,0,0,.25-.07l4.31-2.48a6.73,6.73,0,0,0,5,2.9v5a.5.5,0,0,0,.5.5.5.5,0,0,0,.5-.5v-5a6.69,6.69,0,0,0,5-2.91Zm-9.86-.55a5.71,5.71,0,0,1,0-11.42h0a5.69,5.69,0,0,1,4.91,2.84v0l0,0a5.64,5.64,0,0,1,.75,2.83A5.71,5.71,0,0,1,330.29,705.16Z" fill="#231f20"/><path d="M348.11,695.87v7.2a.5.5,0,0,0,.5.5.5.5,0,0,0,.5-.5v-7.2a.5.5,0,0,0-.5-.5A.5.5,0,0,0,348.11,695.87Z" fill="#231f20"/><path d="M312.3,695.87v7.2a.5.5,0,0,0,.5.5.5.5,0,0,0,.5-.5v-7.2a.5.5,0,0,0-.5-.5A.5.5,0,0,0,312.3,695.87Z" fill="#231f20"/><path d="M319.25,685.07a.46.46,0,0,0,.23-.06l4.06-2.14a.5.5,0,1,0-.46-.88L319,684.13a.49.49,0,0,0-.21.67A.5.5,0,0,0,319.25,685.07Z" fill="#231f20"/><path d="M337.43,682.87l4.06,2.14a.53.53,0,0,0,.23.06.51.51,0,0,0,.45-.27.5.5,0,0,0-.21-.67L337.9,682a.5.5,0,1,0-.47.88Z" fill="#231f20"/><path d="M313.89,706a4.15,4.15,0,1,0,4.15,4.15A4.15,4.15,0,0,0,313.89,706Zm0,7.3a3.15,3.15,0,1,1,3.15-3.15A3.15,3.15,0,0,1,313.89,713.29Z" fill="#231f20"/><path d="M330.5,714.94a4.16,4.16,0,1,0,4.15,4.15A4.16,4.16,0,0,0,330.5,714.94Zm0,7.31a3.16,3.16,0,1,1,3.15-3.16A3.16,3.16,0,0,1,330.5,722.25Z" fill="#231f20"/><path d="M347.81,706a4.15,4.15,0,1,0,4.16,4.15A4.16,4.16,0,0,0,347.81,706Zm0,7.3a3.15,3.15,0,1,1,3.16-3.15A3.16,3.16,0,0,1,347.81,713.29Z" fill="#231f20"/><path d="M323.75,716.07l-4.06-2.14a.5.5,0,0,0-.68.21.51.51,0,0,0,.21.68l4.06,2.14a.46.46,0,0,0,.23,0,.5.5,0,0,0,.24-.94Z" fill="#231f20"/><path d="M341.69,713.93l-4.06,2.14a.5.5,0,0,0,.47.89l4.06-2.14a.51.51,0,0,0,.21-.68A.5.5,0,0,0,341.69,713.93Z" fill="#231f20"/><path d="M274.55,698.23a2.27,2.27,0,0,0-2.27,2.26.41.41,0,0,1-.41.41h0a.42.42,0,0,1-.4-.41v-2.25a2.27,2.27,0,0,0-4.54,0,.41.41,0,1,1-.81,0v-2a2.18,2.18,0,0,0-3.62-1.95,2.49,2.49,0,0,0-.87,1.51.41.41,0,0,1-.43.33.4.4,0,0,1-.37-.4l-.06-7a2.28,2.28,0,0,0-4.55,0v19.37a.4.4,0,0,1-.34.4.39.39,0,0,1-.44-.27c-.07-.19-.16-.46-.3-.77a8.65,8.65,0,0,0-1.63-2.55,8.14,8.14,0,0,0-3.07-2,1.81,1.81,0,0,0-2.16.43,1.79,1.79,0,0,0-.11,2.18l10.36,15.56a.46.46,0,0,1,.06.23v3.36h14.62l0-5a.43.43,0,0,1,.06-.22,25.74,25.74,0,0,0,2.12-4.47,25.28,25.28,0,0,0,1.46-7.92V700.5A2.27,2.27,0,0,0,274.55,698.23Z" fill="#fdd600"/><path d="M272.93,695.74a3.13,3.13,0,0,0-2.19.88,3.19,3.19,0,0,0-5.4-2.26,3.19,3.19,0,0,0-5.36-2v-5.24a3.19,3.19,0,1,0-6.38,0v17.22a9.59,9.59,0,0,0-1.16-1.55,9.12,9.12,0,0,0-3.39-2.25,2.73,2.73,0,0,0-3.22.68,2.69,2.69,0,0,0-.17,3.29L256,720.05v3.64a.5.5,0,0,0,.5.5H272a.5.5,0,0,0,.5-.5l0-5.34a26.14,26.14,0,0,0,2.14-4.54,26.48,26.48,0,0,0,1.52-8.26v-6.62A3.19,3.19,0,0,0,272.93,695.74Zm2.19,9.79a25.43,25.43,0,0,1-1.47,8,24.45,24.45,0,0,1-2.12,4.48.59.59,0,0,0-.07.26l0,5H257V719.9a.54.54,0,0,0-.08-.28L246.49,704a1.7,1.7,0,0,1,.1-2.08,1.74,1.74,0,0,1,2.07-.41,8.25,8.25,0,0,1,3.05,2,8.55,8.55,0,0,1,1.62,2.55,6.12,6.12,0,0,1,.29.76.5.5,0,0,0,1-.15V687.12a2.19,2.19,0,1,1,4.38,0v15.29a.5.5,0,0,0,1,0v-7.73a2.19,2.19,0,0,1,4.38,0v7.87a.5.5,0,0,0,1,0v-5.89a2.19,2.19,0,0,1,4.38,0v5.89a.5.5,0,0,0,.5.5.5.5,0,0,0,.5-.5v-3.62a2.19,2.19,0,0,1,4.38,0Z" fill="#231f20"/><path d="M262.7,685.5a.5.5,0,0,0,.5.5h4.7a.51.51,0,0,0,.5-.5.5.5,0,0,0-.5-.5h-4.7A.5.5,0,0,0,262.7,685.5Z" fill="#231f20"/><path d="M256.61,680.45a.5.5,0,0,0,.5-.5v-4.7a.5.5,0,0,0-.5-.5.5.5,0,0,0-.5.5V680A.51.51,0,0,0,256.61,680.45Z" fill="#231f20"/><path d="M245.68,686h4.7a.5.5,0,0,0,.5-.5.5.5,0,0,0-.5-.5h-4.7a.5.5,0,0,0-.5.5A.51.51,0,0,0,245.68,686Z" fill="#231f20"/><path d="M261.37,682.21a.52.52,0,0,0,.39-.19l2.94-3.66a.49.49,0,0,0-.07-.7.51.51,0,0,0-.71.07L261,681.39a.51.51,0,0,0,.07.71A.54.54,0,0,0,261.37,682.21Z" fill="#231f20"/><path d="M251.47,681.79a.48.48,0,0,0,.39.19.51.51,0,0,0,.31-.11.5.5,0,0,0,.08-.7l-2.95-3.67a.5.5,0,0,0-.78.63Z" fill="#231f20"/><rect x="108.11" y="716.27" width="12.38" height="6.7" transform="translate(-80.44 17.49) rotate(-6.48)" fill="#fdd600"/><rect x="127.44" y="713.54" width="6.7" height="12.38" transform="translate(-599.1 768.5) rotate(-83.52)" fill="#fdd600"/><circle cx="122.52" cy="689.99" r="11.78" fill="#fdd600"/><path d="M133.8,688.49a12.79,12.79,0,0,0-23.46-7.08h-.1v.16a12.8,12.8,0,1,0,23.56,6.92Zm-2.24,5.23H126.1a15.72,15.72,0,0,0,.89-5.15h5.81A11.61,11.61,0,0,1,131.56,693.72Zm1.2-6.15H127a16.25,16.25,0,0,0-1.14-5.16h5.28A11.81,11.81,0,0,1,132.76,687.57Zm-6.77,1a14.77,14.77,0,0,1-.95,5.15h-8.29a15,15,0,0,1-1-5.15Zm-10.16-1a15,15,0,0,1,1.23-5.16h7.67a15,15,0,0,1,1.23,5.16Zm14.59-6.16h-5a18,18,0,0,0-3.27-4.67A11.77,11.77,0,0,1,130.42,681.41ZM120.89,677a16.75,16.75,0,0,1,3.36,4.46h-6.72A17,17,0,0,1,120.89,677Zm-1.23-.18a17.94,17.94,0,0,0-3.25,4.64h-4.83A11.74,11.74,0,0,1,119.66,676.77Zm-8.76,5.64H116a16,16,0,0,0-1.14,5.16h-5.59A11.81,11.81,0,0,1,110.9,682.41Zm-1.7,6.16h5.59a16,16,0,0,0,.9,5.15h-5.25A11.61,11.61,0,0,1,109.2,688.57Zm1.8,6.15h5.07a17.94,17.94,0,0,0,3.67,5.5A11.78,11.78,0,0,1,111,694.72Zm9.89,5.23a16.78,16.78,0,0,1-3.73-5.23h7.47A16.77,16.77,0,0,1,120.89,700Zm1.14.29a18.12,18.12,0,0,0,3.69-5.52H131A11.79,11.79,0,0,1,122,700.24Z" fill="#231f20"/><polygon points="99.57 711.29 99.57 711.29 99.57 711.29 99.57 711.29" fill="#231f20"/><path d="M118.93,713.06l-1,.12c-.56-2.41-1.15-4.94-1.19-5.09l-.4-2a2,2,0,0,0-.73-1.44,2.21,2.21,0,0,0-1.53-.52l-9.36-.29a2.62,2.62,0,0,0-1.93.74l-1.6-7.63a2.49,2.49,0,0,0-2.92-1.79,2.54,2.54,0,0,0-1.68,1.06,2.09,2.09,0,0,0-.34,1.64l2.63,12.56a.74.74,0,0,0,0,.14l.17.79,0,.11a2.75,2.75,0,0,0,.58,1.2,4.16,4.16,0,0,0,2.46,1.25l1.72.32,1.73.33a.48.48,0,0,0-.34.52l.86,7.62a.53.53,0,0,0,.19.34.48.48,0,0,0,.31.1h0l13.25-1.5a.49.49,0,0,0,.33-.19.52.52,0,0,0,.11-.36l-.87-7.63A.51.51,0,0,0,118.93,713.06Zm-14.89.23-1.72-.32a3.16,3.16,0,0,1-1.87-.91,1.84,1.84,0,0,1-.37-.77l0-.11-.17-.78,0-.1-2.64-12.61a1.13,1.13,0,0,1,.18-.87,1.58,1.58,0,0,1,1-.64,1.67,1.67,0,0,1,.31,0,1.43,1.43,0,0,1,1.46,1l1.89,9a2,2,0,0,0,.51,1.26,2.43,2.43,0,0,0,1.32.77l7,.73H111a.49.49,0,0,0,.49-.45A.5.5,0,0,0,111,708l-2.83-.29-4.11-.43a1.47,1.47,0,0,1-.73-.44,1.14,1.14,0,0,1-.27-.58c0-.06,0-.1,0-.13a1.49,1.49,0,0,1,1.6-1.24l8.95.29h.46a1.28,1.28,0,0,1,.87.28,1.09,1.09,0,0,1,.38.8l.41,2h0l1.16,5-8,.91Zm3,8.84-.75-6.63,12.24-1.39.76,6.63Z" fill="#231f20"/><path d="M145.42,696.26a2.54,2.54,0,0,0-1.68-1.06,2.49,2.49,0,0,0-2.92,1.79l-1.59,7.62a2.66,2.66,0,0,0-1.94-.73l-8.92.29H128a2.15,2.15,0,0,0-1.56.51,1.94,1.94,0,0,0-.72,1.36l-.41,2c0,.16-.63,2.69-1.19,5.09l-1-.12a.5.5,0,0,0-.55.44l-.87,7.63a.52.52,0,0,0,.11.36.49.49,0,0,0,.33.19l13.24,1.5h.06a.5.5,0,0,0,.5-.44l.86-7.62a.5.5,0,0,0-.1-.37.55.55,0,0,0-.24-.15l1.73-.33,1.72-.32a4.16,4.16,0,0,0,2.46-1.25,2.75,2.75,0,0,0,.58-1.2l0-.11.16-.75a.74.74,0,0,0,0-.14l2.64-12.6A2.09,2.09,0,0,0,145.42,696.26ZM135,722.13l-12.25-1.39.76-6.63,12.24,1.39Zm7.21-11.87a.69.69,0,0,0,0,.13l-.17.79,0,.11a1.84,1.84,0,0,1-.37.77,3.16,3.16,0,0,1-1.88.91l-1.71.32-4.85.91-8-.91,1.16-5h0l.42-2.12a1,1,0,0,1,.37-.73,1.36,1.36,0,0,1,.9-.28l9.38-.29a1.47,1.47,0,0,1,1.6,1.19v0h0a.86.86,0,0,1,0,.15,1.17,1.17,0,0,1-.26.57,1.52,1.52,0,0,1-.67.44l-4.17.43L131,708a.5.5,0,0,0-.44.55.49.49,0,0,0,.49.45h.06l7.08-.74a2.46,2.46,0,0,0,1.24-.76,2,2,0,0,0,.51-1.26l1.89-9a1.48,1.48,0,0,1,1.77-1,1.58,1.58,0,0,1,1,.64,1.13,1.13,0,0,1,.18.87Z" fill="#231f20"/><path d="M467.81,528.68l-1.09,2.16a.51.51,0,0,1-.45.28H451.65l-2.33,24.3h43.6l2.56-26.74Zm8,12.21a4.65,4.65,0,0,0-.35.75,4.38,4.38,0,0,0-.25,1.24c0,.59,0,1.21,0,1.8a14.86,14.86,0,0,1-.08,2.27c-.2,1.22-.74,2.27-1,2.3,0,0-.77-.06-2.24-4.57a1.48,1.48,0,0,0-1.43-1.18h0a1.47,1.47,0,0,0-1.43,1.1c-1.43,4.48-2.18,4.65-2.2,4.65-.29-.08-.83-1.34-1-2.69a30,30,0,0,1-.25-3.67,4.3,4.3,0,0,0-.16-1.2,4,4,0,0,0-.48-1.09,7,7,0,0,1-.86-3.32,4.16,4.16,0,0,1,2.87-3.52,3.12,3.12,0,0,1,.89-.12,3.83,3.83,0,0,1,1.4.27,4.17,4.17,0,0,0,1.27.09,4.26,4.26,0,0,0,1.06-.22,3.8,3.8,0,0,1,2.3,0,4.45,4.45,0,0,1,2.89,3.34A6.87,6.87,0,0,1,475.85,540.89Z" fill="#fdd600"/><path d="M494.65,526.1a.48.48,0,0,0-.37-.17h-1.93v-2.46a.5.5,0,0,0-.5-.5H463.66l-.87-2.35a.51.51,0,0,0-.47-.32H447.24a.5.5,0,0,0-.5.5v31l-.22,2.34a.52.52,0,0,0,.13.39.51.51,0,0,0,.37.16h44.6a.5.5,0,0,0,.5-.45l.15-1.54a7.13,7.13,0,0,0,.08-.84l2.43-25.36A.48.48,0,0,0,494.65,526.1Zm-46.91-4.8H462l.88,2.34a.5.5,0,0,0,.47.33h28v2h-25.6a.5.5,0,0,0-.44.28l-1.1,2.16H449.45a.49.49,0,0,0-.5.45l-1.21,12.55Zm43.43,32.37h-43.6l2.33-24.3h14.62a.51.51,0,0,0,.45-.28l1.09-2.16h27.67Z" fill="#231f20"/><path d="M463.07,537.21a7.81,7.81,0,0,0,1,3.92,4,4,0,0,1,.36.83,3.35,3.35,0,0,1,.12.93,30.33,30.33,0,0,0,.26,3.82c.09.57.6,3.4,1.92,3.54h.12c.72,0,1.67-.76,3.15-5.39a.45.45,0,0,1,.47-.37.51.51,0,0,1,.48.43c1.56,4.82,2.56,5.38,3.3,5.32,1.38-.13,1.85-3,1.87-3.14a15,15,0,0,0,.1-2.45c0-.57,0-1.16,0-1.72a3.56,3.56,0,0,1,.19-1,4.26,4.26,0,0,1,.28-.59,7.76,7.76,0,0,0,1-4.46,5.46,5.46,0,0,0-3.59-4.15,4.82,4.82,0,0,0-2.91.06,3.45,3.45,0,0,1-.82.18,3.22,3.22,0,0,1-.9-.06,4.54,4.54,0,0,0-2.85-.15A5.15,5.15,0,0,0,463.07,537.21Zm3.87-3.45a3.12,3.12,0,0,1,.89-.12,3.83,3.83,0,0,1,1.4.27,4.17,4.17,0,0,0,1.27.09,4.26,4.26,0,0,0,1.06-.22,3.8,3.8,0,0,1,2.3,0,4.45,4.45,0,0,1,2.89,3.34,6.87,6.87,0,0,1-.9,3.82,4.65,4.65,0,0,0-.35.75,4.38,4.38,0,0,0-.25,1.24c0,.59,0,1.21,0,1.8a14.86,14.86,0,0,1-.08,2.27c-.2,1.22-.74,2.27-1,2.3,0,0-.77-.06-2.24-4.57a1.48,1.48,0,0,0-1.43-1.18h0a1.47,1.47,0,0,0-1.43,1.1c-1.43,4.48-2.18,4.65-2.2,4.65-.29-.08-.83-1.34-1-2.69a30,30,0,0,1-.25-3.67,4.3,4.3,0,0,0-.16-1.2,4,4,0,0,0-.48-1.09,7,7,0,0,1-.86-3.32A4.16,4.16,0,0,1,466.94,533.76Z" fill="#231f20"/><path d="M489.6,369.35l-10.08,0a.58.58,0,0,0-.19-.43.6.6,0,0,0-.74,0l-.34-.27.13-7.69H455.13v46.2h34.49ZM463.94,365a2.58,2.58,0,0,1,1.67,4.56,2.64,2.64,0,0,1-3.33,0,2.55,2.55,0,0,1-.92-2A2.59,2.59,0,0,1,463.94,365ZM468,379.89h-8.16v-5.15a2.22,2.22,0,0,1,2.09-2.22h4a2.23,2.23,0,0,1,2.1,2.22Z" fill="#fdd600"/><path d="M488.85,368.8a.13.13,0,0,0,0-.06.48.48,0,0,0-.12-.22h0l-10.14-10.14h0a.51.51,0,0,0-.23-.12h-.06l-.07,0H452.88a.51.51,0,0,0-.5.5v47.2a.5.5,0,0,0,.5.5h35.49a.5.5,0,0,0,.5-.5V368.87A.25.25,0,0,0,488.85,368.8Zm-35.47,36.62v-46.2h24.34v9.65a.51.51,0,0,0,.5.5h9.65v36.05Zm25.34-37.05v-8.44l8.44,8.44Z" fill="#231f20"/><path d="M468.52,380.89a.5.5,0,0,0,.5-.5v-5.65a3.22,3.22,0,0,0-3.06-3.22h-4a3.23,3.23,0,0,0-3.07,3.22v5.65a.51.51,0,0,0,.5.5Zm-8.66-6.15a2.22,2.22,0,0,1,2.09-2.22h4a2.23,2.23,0,0,1,2.1,2.22v5.15h-8.16Z" fill="#231f20"/><path d="M463.94,371.15a3.61,3.61,0,0,0,3.59-3.58,3.58,3.58,0,1,0-3.59,3.58Zm0-6.17a2.58,2.58,0,0,1,1.67,4.56,2.64,2.64,0,0,1-3.33,0,2.55,2.55,0,0,1-.92-2A2.59,2.59,0,0,1,463.94,365Z" fill="#231f20"/><path d="M481.89,385.13H459.53a.5.5,0,0,0-.5.5.51.51,0,0,0,.5.5h22.36a.51.51,0,0,0,.5-.5A.5.5,0,0,0,481.89,385.13Z" fill="#231f20"/><path d="M481.89,399.66H459.53a.51.51,0,0,0-.5.5.5.5,0,0,0,.5.5h22.36a.5.5,0,0,0,.5-.5A.51.51,0,0,0,481.89,399.66Z" fill="#231f20"/><path d="M481.89,392.4H459.53a.5.5,0,0,0-.5.5.51.51,0,0,0,.5.5h22.36a.51.51,0,0,0,.5-.5A.5.5,0,0,0,481.89,392.4Z" fill="#231f20"/><path d="M481.89,377.86h-9.75a.5.5,0,0,0-.5.5.5.5,0,0,0,.5.5h9.75a.51.51,0,0,0,.5-.5A.5.5,0,0,0,481.89,377.86Z" fill="#231f20"/><path d="M214.12,686.44H195.18v-7.36a.5.5,0,0,0-.5-.5h-7.36a.5.5,0,0,0-.5.5v7.36H167.88a.5.5,0,0,0-.5.5v28.39a.5.5,0,0,0,.5.5h46.24a.5.5,0,0,0,.5-.5V686.94A.5.5,0,0,0,214.12,686.44Zm-.5,28.39H168.38V687.44h18.5a4.16,4.16,0,0,0,8.24,0h18.5Zm-25.8-28v-7.26h6.36v7.26a3.18,3.18,0,1,1-6.36,0Z" fill="#231f20"/><path d="M187.49,691.89H171.91a.5.5,0,0,0-.5.5v17.93a.51.51,0,0,0,.5.5h15.58a.51.51,0,0,0,.5-.5V692.39A.5.5,0,0,0,187.49,691.89Zm-.5,17.93h-2.42v-4.88a3.1,3.1,0,0,0-2.95-3.1h-3.84a3.1,3.1,0,0,0-2.95,3.1v4.88h-2.42V692.89H187Zm-11.16,0v-4.88a2.1,2.1,0,0,1,2-2.1h3.61a.44.44,0,0,0,.3,0,2.1,2.1,0,0,1,1.86,2.09v4.88Z" fill="#231f20"/><path d="M210,706.78h-17.5a.5.5,0,0,0-.5.5.51.51,0,0,0,.5.5H210a.51.51,0,0,0,.5-.5A.5.5,0,0,0,210,706.78Z" fill="#231f20"/><path d="M192.45,694.49a.5.5,0,0,0,0,1H210a.5.5,0,1,0,0-1Z" fill="#231f20"/><path d="M210,700.63h-17.5a.51.51,0,0,0-.5.5.5.5,0,0,0,.5.5H210a.5.5,0,0,0,.5-.5A.51.51,0,0,0,210,700.63Z" fill="#231f20"/><path d="M179.7,701.18a3,3,0,1,0-1.91-.7A3,3,0,0,0,179.7,701.18Zm2-2.95a2,2,0,0,1-.7,1.49,2,2,0,0,1-2.52,0,2,2,0,1,1,3.22-1.49Z" fill="#231f20"/></g><g id="eb489fcb-fa22-48e7-918f-b986c13c230a" data-name="CATEGORIES"><text transform="translate(91.8 66.67)" font-size="40" fill="#231f20" font-family="Antonio-Bold, Antonio" font-weight="700">TECHNO<tspan x="109.14" y="0" letter-spacing="0em">L</tspan><tspan x="123.83" y="0">O</tspan><tspan x="143.34" y="0" letter-spacing="0em">G</tspan><tspan x="162.77" y="0">Y/BUSINESS</tspan></text></g><g id="aab392ff-0272-412e-ba65-3ed6869400f6" data-name="LABELS"><text transform="translate(446 729.85)" font-size="6" fill="#231f20" font-family="Roboto-Regular, Roboto">cursor</text><text transform="translate(165.97 729.85)" font-size="6" fill="#231f20" font-family="Roboto-Regular, Roboto">id-badge</text><text transform="translate(376.44 489.68)" font-size="6" fill="#231f20" font-family="Roboto-Regular, Roboto">brie<tspan x="10.03" y="0" letter-spacing="-0.01em">f</tspan><tspan x="12.04" y="0">case</tspan></text><text transform="translate(236.46 489.68)" font-size="6" fill="#231f20" font-family="Roboto-Regular, Roboto">hospital-bill-checklist</text><text transform="translate(165.64 489.68)" font-size="6" fill="#231f20" font-family="Roboto-Regular, Roboto">hospital-bill-question</text><text transform="translate(166.25 248.67)" font-size="6" fill="#231f20" font-family="Roboto-Regular, Roboto">cost-decline</text><text transform="translate(235.94 248.67)" font-size="6" fill="#231f20" font-family="Roboto-Regular, Roboto">cost-inc<tspan x="21.18" y="0" letter-spacing="-0.01em">r</tspan><tspan x="23.15" y="0">ease</tspan></text><text transform="translate(376 248.67)" font-size="6" fill="#231f20" font-family="Roboto-Regular, Roboto">calcula<tspan x="19.03" y="0" letter-spacing="-0.01em">t</tspan><tspan x="20.93" y="0">or</tspan></text><text transform="translate(446 412.61)" font-size="6" fill="#231f20" font-family="Roboto-Regular, Roboto"><tspan letter-spacing="-0.01em">r</tspan><tspan x="1.97" y="0">esume</tspan></text><text transform="translate(96.21 412.61)" font-size="6" fill="#231f20" font-family="Roboto-Regular, Roboto">clipboa<tspan x="19.47" y="0" letter-spacing="-0.01em">r</tspan><tspan x="21.45" y="0">d-pen</tspan></text><text transform="translate(165.73 412.61)" font-size="6" fill="#231f20" font-family="Roboto-Regular, Roboto">mail-opened</text><text transform="translate(235.93 412.61)" font-size="6" fill="#231f20" font-family="Roboto-Regular, Roboto">mail</text><text transform="translate(96.08 649.21)" font-size="6" fill="#231f20" font-family="Roboto-Regular, Roboto">handsha<tspan x="22.92" y="0" letter-spacing="-0.01em">k</tspan><tspan x="25.91" y="0">e</tspan></text><text transform="translate(305.72 649.21)" font-size="6" fill="#231f20" font-family="Roboto-Regular, Roboto">speech-bubble-two</text><text transform="translate(305.72 729.85)" font-size="6" fill="#231f20" font-family="Roboto-Regular, Roboto">network-connections</text><text transform="translate(235.65 729.85)" font-size="6" fill="#231f20" font-family="Roboto-Regular, Roboto"><tspan letter-spacing="-0.01em">t</tspan><tspan x="1.9" y="0">ouch-point</tspan></text><text transform="translate(95.72 729.85)" font-size="6" fill="#231f20" font-family="Roboto-Regular, Roboto">internet</text><text transform="translate(375.72 649.21)" font-size="6" fill="#231f20" font-family="Roboto-Regular, Roboto">speech-bubble-pen</text><text transform="translate(445.72 649.21)" font-size="6" fill="#231f20" font-family="Roboto-Regular, Roboto">speech-bubble-world</text><text transform="translate(376.38 729.85)" font-size="6" fill="#231f20" font-family="Roboto-Regular, Roboto">link</text><text transform="translate(95.94 248.67)" font-size="6" fill="#231f20" font-family="Roboto-Regular, Roboto">price-tag</text><text transform="translate(305.84 248.67)" font-size="6" fill="#231f20" font-family="Roboto-Regular, Roboto">c<tspan x="3.14" y="0" letter-spacing="-0.01em">r</tspan><tspan x="5.12" y="0">edit-ca</tspan><tspan x="23.15" y="0" letter-spacing="-0.01em">r</tspan><tspan x="25.13" y="0">d</tspan></text><text transform="translate(165.36 329.84)" font-size="6" fill="#231f20" font-family="Roboto-Regular, Roboto">p<tspan x="3.37" y="0" letter-spacing="-0.01em">r</tspan><tspan x="5.34" y="0">esentation-bar-g</tspan><tspan x="48.81" y="0" letter-spacing="-0.02em">r</tspan><tspan x="50.72" y="0">aph</tspan></text><text transform="translate(235.74 329.84)" font-size="6" fill="#231f20" font-family="Roboto-Regular, Roboto">bar-g<tspan x="13.68" y="0" letter-spacing="-0.02em">r</tspan><tspan x="15.59" y="0">aph</tspan></text><text transform="translate(306 329.84)" font-size="6" fill="#231f20" font-family="Roboto-Regular, Roboto">pie-cha<tspan x="19.37" y="0" letter-spacing="0.02em">r</tspan><tspan x="21.54" y="0">t</tspan></text><text transform="translate(95.94 329.84)" font-size="6" fill="#231f20" font-family="Roboto-Regular, Roboto">p<tspan x="3.37" y="0" letter-spacing="-0.01em">r</tspan><tspan x="5.34" y="0">esentation-g</tspan><tspan x="38.5" y="0" letter-spacing="-0.01em">r</tspan><tspan x="40.47" y="0">owth</tspan></text><text transform="translate(376.25 329.84)" font-size="6" fill="#231f20" font-family="Roboto-Regular, Roboto">o<tspan x="3.42" y="0" letter-spacing="-0.01em">r</tspan><tspan x="5.4" y="0">ganization-cha</tspan><tspan x="44.54" y="0" letter-spacing="0.02em">r</tspan><tspan x="46.72" y="0">t</tspan></text><text transform="translate(446.64 329.84)" font-size="6" fill="#231f20" font-family="Roboto-Regular, Roboto">checklist</text><text transform="translate(375.51 412.61)" font-size="6" fill="#231f20" font-family="Roboto-Regular, Roboto">bill-p<tspan x="12.76" y="0" letter-spacing="-0.01em">a</tspan><tspan x="15.98" y="0">yment</tspan></text><text transform="translate(305.72 412.61)" font-size="6" fill="#231f20" font-family="Roboto-Regular, Roboto">mail-f<tspan x="15.17" y="0" letter-spacing="-0.01em">r</tspan><tspan x="17.14" y="0">ont</tspan></text><text transform="translate(165.69 567.87)" font-size="6" fill="#231f20" font-family="Roboto-Regular, Roboto">calendar</text><text transform="translate(235.72 567.87)" font-size="6" fill="#231f20" font-family="Roboto-Regular, Roboto">file</text><text transform="translate(305.72 567.87)" font-size="6" fill="#231f20" font-family="Roboto-Regular, Roboto">file-open</text><text transform="translate(375.95 567.87)" font-size="6" fill="#231f20" font-family="Roboto-Regular, Roboto">file-medical</text><text transform="translate(95.94 567.87)" font-size="6" fill="#231f20" font-family="Roboto-Regular, Roboto">newspaper</text><text transform="translate(445.51 567.87)" font-size="6" fill="#231f20" font-family="Roboto-Regular, Roboto">file-dental</text><text transform="translate(165.46 649.21)" font-size="6" fill="#231f20" font-family="Roboto-Regular, Roboto">postage-stamp</text><text transform="translate(235.65 649.21)" font-size="6" fill="#231f20" font-family="Roboto-Regular, Roboto">speech-bubble</text><text transform="translate(446.38 489.68)" font-size="6" fill="#231f20" font-family="Roboto-Regular, Roboto">passpo<tspan x="19.61" y="0" letter-spacing="0.02em">r</tspan><tspan x="21.78" y="0">t</tspan></text><text transform="translate(306.25 489.68)" font-size="6" fill="#231f20" font-family="Roboto-Regular, Roboto">hospital-bill-p<tspan x="35.73" y="0" letter-spacing="-0.01em">a</tspan><tspan x="38.95" y="0">yment</tspan></text><text transform="translate(96.08 489.68)" font-size="6" fill="#231f20" font-family="Roboto-Regular, Roboto"><tspan letter-spacing="-0.01em">r</tspan><tspan x="1.97" y="0">egist</tspan><tspan x="15.03" y="0" letter-spacing="-0.02em">r</tspan><tspan x="16.94" y="0">ation-application</tspan></text><text transform="translate(96.47 166.77)" font-size="6" fill="#231f20" font-family="Roboto-Regular, Roboto">mon<tspan x="11.99" y="0" letter-spacing="-0.01em">e</tspan><tspan x="15.13" y="0">y-stack</tspan></text><text transform="translate(166.22 166.77)" font-size="6" fill="#231f20" font-family="Roboto-Regular, Roboto">dollar-bill</text><text transform="translate(236.47 166.77)" font-size="6" fill="#231f20" font-family="Roboto-Regular, Roboto">coins</text><text transform="translate(306.25 166.77)" font-size="6" fill="#231f20" font-family="Roboto-Regular, Roboto">piggy-bank</text><text transform="translate(376.4 166.77)" font-size="6" fill="#231f20" font-family="Roboto-Regular, Roboto">ha<tspan x="6.57" y="0" letter-spacing="-0.01em">r</tspan><tspan x="8.54" y="0">d-coin</tspan></text><text transform="translate(446.25 166.77)" font-size="6" fill="#231f20" font-family="Roboto-Regular, Roboto">dollar-sign</text><text transform="translate(446.25 248.67)" font-size="6" fill="#231f20" font-family="Roboto-Regular, Roboto">scales-justice</text></g></svg>