<svg xmlns="http://www.w3.org/2000/svg" viewBox="0 0 612 792"><g id="e2e0d7ac-2405-4a6a-94ed-f88c84e4d178" data-name="ICONS"><path d="M427.15,366.63a5.28,5.28,0,0,0-4.11-5.57L411.67,361a.49.49,0,0,1-.49-.5v-2.24h-.75v-7.52H380.35v21.62h4.57a4.14,4.14,0,0,1-.09-.87,4.09,4.09,0,0,1,8.17,0,4.14,4.14,0,0,1-.1.87H410a3.71,3.71,0,0,1-.1-.88,4.09,4.09,0,1,1,8.17,0,4.32,4.32,0,0,1-.1.88h9.19C427.14,371.62,427.14,370,427.15,366.63Zm-27.4-6.4h-3.11a.5.5,0,0,0-.5.5v3h-3.89v-3a.55.55,0,0,0-.15-.36.5.5,0,0,0-.35-.14h-3v-3.91h3a.51.51,0,0,0,.5-.5l0-3.13h3.92v3.11a.5.5,0,0,0,.5.5h3.13Z" fill="#fdd600"/><path d="M413.11,125a.47.47,0,0,1-.15.35.51.51,0,0,1-.35.15h-8.77v8a.5.5,0,0,1-.5.5h-7.75v7.95a.51.51,0,0,1-.5.5h-8.44v8.13a.5.5,0,0,1-.5.5l-5.85,0v7.65h46.17V118.05H413.11Z" fill="#fdd600"/><path d="M425.21,115.3H410.86a.5.5,0,0,0-.5.5v7h-8.71a.52.52,0,0,0-.56.5v8h-7.75a.5.5,0,0,0-.5.5v7.95H384.4a.5.5,0,0,0-.5.5v8.13l-5.85,0a.5.5,0,0,0-.5.5v8.65a.51.51,0,0,0,.5.5h47.17a.51.51,0,0,0,.5-.5V115.8A.5.5,0,0,0,425.21,115.3Zm-.5,41.66H378.54v-7.65l5.85,0a.5.5,0,0,0,.5-.5v-8.13h8.44a.51.51,0,0,0,.5-.5v-7.95h7.75a.5.5,0,0,0,.5-.5v-8h8.77a.51.51,0,0,0,.35-.15.47.47,0,0,0,.15-.35v-7h13.35Z" fill="#231f20"/><path d="M131.12,446.05a5.52,5.52,0,0,1-5.25-3.15c-.66,0-2.4,0-3.76,0-.42.87-1.84,3.09-5.57,3.09a6.28,6.28,0,0,1-5.41-3.5v1.43a8.51,8.51,0,0,0,8.5,8.5h8.27a8.51,8.51,0,0,0,8.5-8.5v-1A6.3,6.3,0,0,1,131.12,446.05Z" fill="#fdd600"/><path d="M123.42,425.05a11.74,11.74,0,0,0-11.59,10.07.51.51,0,0,0,.43.57h.07a.49.49,0,0,0,.49-.43,10.74,10.74,0,0,1,10.6-9.21.5.5,0,1,0,0-1Z" fill="none"/><path d="M126.77,421.93l-.79-5.62h-4.22l-.63,5.43,4.11,0A6.26,6.26,0,0,1,126.77,421.93Z" fill="#fdd600"/><path d="M142,413.56H122.5v-2.27a.5.5,0,1,0-1,0v2.27H102.05a.5.5,0,0,0,0,1h17l-.73,6.34c-4.89.92-9.89,6.22-9.89,10.94v10.35a9.49,9.49,0,0,0,4.54,8.09l-4,8h-3.94a.51.51,0,0,0-.5.5.5.5,0,0,0,.5.5h4.24a.49.49,0,0,0,.45-.27l4.18-8.27a9.47,9.47,0,0,0,4.08.93h8.27a9.52,9.52,0,0,0,4-.9l4.15,8.21a.49.49,0,0,0,.44.27H139a.5.5,0,0,0,.5-.5.5.5,0,0,0-.5-.5h-3.93l-4-8a9.49,9.49,0,0,0,4.59-8.12V431.84c0-5.09-4.75-10.46-9.54-11.06l-.87-6.22H142a.5.5,0,0,0,0-1Zm-7.3,28.63a8.51,8.51,0,0,1-8.5,8.5h-8.27a8.51,8.51,0,0,1-8.5-8.5v-1.43a6.28,6.28,0,0,0,5.41,3.5c3.73,0,5.15-2.22,5.57-3.09,1.36,0,3.1,0,3.76,0a5.52,5.52,0,0,0,5.25,3.15,6.3,6.3,0,0,0,5.28-3.15Zm0-10.35v7.06c-.19.6-1.59,4.4-5.23,4.4h0a4.56,4.56,0,0,1-4.43-2.75.49.49,0,0,0-.13-.23c-.19-.19-.23-.22-4.81-.14a.48.48,0,0,0-.46.35s-.93,2.73-4.76,2.73-5.27-4.54-5.41-5v-6.42c0-4.62,5.59-10.09,10.32-10.09l5.54,0C129.73,421.72,134.65,427,134.65,431.84Zm-9.56-11.14H119.3l.71-6.14h4.22Z" fill="#231f20"/><path d="M123.42,425.05a11.74,11.74,0,0,0-11.59,10.07.51.51,0,0,0,.43.57h.07a.49.49,0,0,0,.49-.43,10.74,10.74,0,0,1,10.6-9.21.5.5,0,1,0,0-1Z" fill="#231f20"/><path d="M426.4,364.88a6.3,6.3,0,0,0-4.6-6.46l-2.67-6.31-1.58-3.84a.51.51,0,0,0-.46-.31h-7.25l-.31-2.26,2.89,1.22a.63.63,0,0,0,.19,0,.49.49,0,0,0,.46-.3.5.5,0,0,0-.26-.66l-3.43-1.44-.12-.82h3.17a.5.5,0,0,0,.5-.5.5.5,0,0,0-.5-.5h-3.3L409,342l3.49-1.44a.5.5,0,0,0,.27-.66.51.51,0,0,0-.65-.27L408.8,341a.47.47,0,0,0-.37-.18H403.3a.48.48,0,0,0-.36.16l-3.41-1.41a.5.5,0,1,0-.38.92l3.55,1.47h0l-.09.75h-3.54a.5.5,0,0,0-.5.5.5.5,0,0,0,.5.5h3.43l-.11.94-3.51,1.47a.5.5,0,0,0,.19,1,.41.41,0,0,0,.19,0l3-1.25L402,348H378.1a.5.5,0,0,0-.5.5v22.62a.5.5,0,0,0,.5.5h5.74a5.08,5.08,0,0,0,10.15,0H408.9a5.07,5.07,0,0,0,10.14,0h6.86a.53.53,0,0,0,.36-.15.54.54,0,0,0,.14-.36S426.39,370.13,426.4,364.88ZM408,341.79l.84,6.14H403l.71-6.14Zm2.44,16.44V349h6.29l3.95,9.33ZM393,371.46a4.09,4.09,0,1,1-4.09-4.08A4.09,4.09,0,0,1,393,371.46Zm25.06,0a4.09,4.09,0,1,1-4.09-4.09A4.1,4.1,0,0,1,418.06,371.45Zm7.34-.87H419a5.07,5.07,0,0,0-10,0H393.91a5.07,5.07,0,0,0-10,0H378.6V349h30.83v9.77a.49.49,0,0,0,.49.5l11.37.08a5.28,5.28,0,0,1,4.11,5.57C425.39,368.28,425.39,369.87,425.4,370.58Z" fill="#231f20"/><path d="M400.26,355.32h-3.13V352.2a.51.51,0,0,0-.5-.5h-4.92a.51.51,0,0,0-.35.15.49.49,0,0,0-.15.36l0,3.12h-3a.49.49,0,0,0-.36.15.5.5,0,0,0-.14.35v4.91a.47.47,0,0,0,.15.35.51.51,0,0,0,.35.15h3v3a.5.5,0,0,0,.5.5h4.89a.5.5,0,0,0,.5-.5v-3h3.11a.5.5,0,0,0,.5-.5v-4.91A.51.51,0,0,0,400.26,355.32Zm-.51,4.91h-3.11a.5.5,0,0,0-.5.5v3h-3.89v-3a.55.55,0,0,0-.15-.36.5.5,0,0,0-.35-.14h-3v-3.91h3a.51.51,0,0,0,.5-.5l0-3.13h3.92v3.11a.5.5,0,0,0,.5.5h3.13Z" fill="#231f20"/><path d="M474,188.44h-.71a22.25,22.25,0,1,0,.71,0Zm10.41,37.42A18.6,18.6,0,0,1,459.12,199a.5.5,0,0,1,.54-.16l.11,0a.57.57,0,0,1,.21.13l24.54,26.11a.52.52,0,0,1,.13.39A.53.53,0,0,1,484.45,225.86Zm3.49-3.28a.47.47,0,0,1-.37.17h0a.48.48,0,0,1-.36-.15l-24.54-26.11a.53.53,0,0,1-.12-.22l0-.12a.5.5,0,0,1,.19-.53,18.6,18.6,0,0,1,25.24,27Z" fill="#fdd600"/><path d="M488.56,193.06a23.27,23.27,0,1,0,6.31,16.66A23.14,23.14,0,0,0,488.56,193.06Zm-1.68,32.21a22.32,22.32,0,1,1-15.3-38.59h.71a22.32,22.32,0,0,1,14.59,38.58Z" fill="#231f20"/><path d="M468.94,190.54a18.53,18.53,0,0,0-8,3.33.5.5,0,0,0-.19.53l0,.12a.53.53,0,0,0,.12.22l24.54,26.11a.48.48,0,0,0,.36.15h0a.47.47,0,0,0,.37-.17,18.6,18.6,0,0,0-17.25-30.29Zm16.84,29.2L462,194.39a17.6,17.6,0,0,1,23.83,25.35Z" fill="#231f20"/><path d="M458.23,197.25a.57.57,0,0,0-.21-.13l-.11,0a.5.5,0,0,0-.54.16,18.6,18.6,0,0,0,25.33,26.87.53.53,0,0,0,.2-.36.52.52,0,0,0-.13-.39Zm.63,23.92a17.61,17.61,0,0,1-1-22.9l23.83,25.36A17.6,17.6,0,0,1,458.86,221.17Z" fill="#231f20"/><path d="M353.38,359.11h-8.13a.51.51,0,0,1-.5-.5v-2.25H344v-4h-3.43l-1,0v-.46s0,0,0,0v-6.22l-29.15,0v23.72h4.19a4.34,4.34,0,1,1,8.08,0h19.52a4.21,4.21,0,0,1-.3-1.56,4.34,4.34,0,0,1,8.68,0,4.19,4.19,0,0,1-.3,1.55h6l.06-10.26Z" fill="#fdd600"/><path d="M355.43,356.5a.54.54,0,0,0-.36-.14H351.9l-4.31-6.51a.5.5,0,0,0-.42-.23h-8.34v-6.19a.5.5,0,0,0-.5-.5l-30.15,0h0a.47.47,0,0,0-.35.15.51.51,0,0,0-.15.35v24.72a.51.51,0,0,0,.5.5h5.22a5.32,5.32,0,0,0,10.52,0H341a5.32,5.32,0,0,0,10.52,0H355a.51.51,0,0,0,.5-.49l.06-11.27A.52.52,0,0,0,355.43,356.5Zm-8.52-5.88,3.79,5.74H344v-5.74Zm-38.23-6.73,29.15,0v6.22s0,0,0,0v17.44H324a5.33,5.33,0,0,0-10.65,0h-4.65ZM323,367.79a4.34,4.34,0,1,1-4.34-4.34A4.35,4.35,0,0,1,323,367.79Zm27.6,0a4.34,4.34,0,1,1-4.34-4.34A4.35,4.35,0,0,1,350.6,367.81Zm3.91-.19h-2.93a5.32,5.32,0,0,0-10.64,0h-2.11v-17H343v6.24a.51.51,0,0,0,.5.5h11.07Z" fill="#231f20"/><path d="M275.5,132.67a.5.5,0,0,1-.5.5H263.87v6.21a.5.5,0,0,1-.5.5H252.25v6.22a.5.5,0,0,1-.5.5H240.62v10.64h45.51V126.53H275.5Z" fill="#fdd600"/><path d="M284.88,123.78H273.25a.5.5,0,0,0-.5.5v6.14H261.62a.5.5,0,0,0-.5.5v6.21H250a.5.5,0,0,0-.5.5v6.22H238.37a.5.5,0,0,0-.5.5V156a.5.5,0,0,0,.5.5h46.51a.5.5,0,0,0,.5-.5V124.28A.5.5,0,0,0,284.88,123.78Zm-.5,31.71H238.87V144.85H250a.5.5,0,0,0,.5-.5v-6.22h11.12a.5.5,0,0,0,.5-.5v-6.21h11.13a.5.5,0,0,0,.5-.5v-6.14h10.63Z" fill="#231f20"/><path d="M244.36,128.32a.49.49,0,0,0,.27.22l.08,0,7.89,2.4.15,0a.49.49,0,0,0,.47-.35.5.5,0,0,0-.33-.63L246.1,128l19.23-10.26a.49.49,0,0,0,.2-.67.49.49,0,0,0-.67-.21l-19.31,10.3,2.09-6.86a.5.5,0,1,0-1-.29l-2.4,7.89a.51.51,0,0,0,.07.42A.08.08,0,0,0,244.36,128.32Z" fill="#231f20"/><path d="M345.5,132.72a.5.5,0,0,1-.5.5H333.87v6.21a.5.5,0,0,1-.5.5H322.25v6.22a.5.5,0,0,1-.5.5H310.62v10.64h45.51V126.58H345.5Z" fill="#fdd600"/><path d="M354.88,123.83H343.25a.5.5,0,0,0-.5.5v6.14H331.62a.5.5,0,0,0-.5.5v6.21H320a.5.5,0,0,0-.5.5v6.22H308.37a.5.5,0,0,0-.5.5V156a.5.5,0,0,0,.5.5h46.51a.5.5,0,0,0,.5-.5V124.33A.5.5,0,0,0,354.88,123.83Zm-.5,31.71H308.87V144.9H320a.5.5,0,0,0,.5-.5v-6.22h11.12a.5.5,0,0,0,.5-.5v-6.21h11.13a.5.5,0,0,0,.5-.5v-6.14h10.63Z" fill="#231f20"/><path d="M335.31,119.39a.51.51,0,0,0-.28-.22l-.07,0-7.89-2.4-.15,0a.51.51,0,0,0-.48.35.5.5,0,0,0,.34.63l6.78,2.06L314.34,130a.5.5,0,1,0,.47.88l19.31-10.3L332,127.45a.5.5,0,1,0,1,.29l2.4-7.89a.51.51,0,0,0-.07-.42S335.31,119.41,335.31,119.39Z" fill="#231f20"/><path d="M202.29,495a21.72,21.72,0,1,0,11.42,28.51A21.58,21.58,0,0,0,202.29,495ZM192,511a2.47,2.47,0,1,1-2.46,2.46A2.47,2.47,0,0,1,192,511Zm7.83,13.91H184.32v-3.21h15.52Z" fill="#fdd600"/><path d="M213.68,520c.2-.63.36-1.27.5-1.9,0-.11.06-.22.08-.32.12-.58.21-1.16.28-1.74,0-.21.05-.42.07-.64,0-.48.08-1,.09-1.45,0-.31,0-.62,0-.94s0-.8,0-1.2-.06-.72-.1-1.08-.09-.74-.15-1.11c0-.21-.06-.43-.1-.64s-.11-.47-.16-.71-.12-.52-.19-.78c-.14-.52-.29-1-.46-1.54l-.13-.37c-.2-.57-.43-1.13-.68-1.68l-.16-.36c-.24-.51-.49-1-.77-1.49-.15-.26-.3-.52-.46-.77l-.07-.13c-.08-.13-.15-.27-.23-.39s-.17-.22-.24-.33l-.07-.09c-.21-.31-.43-.61-.65-.9s-.45-.58-.68-.86-.52-.6-.8-.89-.43-.46-.66-.68-.69-.67-1.06-1c-.16-.15-.33-.28-.5-.42-.45-.37-.91-.72-1.39-1.06l-.17-.11c-.11-.08-.22-.14-.33-.21-.47-.31-1-.61-1.45-.89l-.6-.31c-.38-.19-.76-.38-1.15-.55s-.61-.27-.92-.39-.78-.3-1.17-.43-.52-.17-.79-.24c-.51-.15-1-.29-1.54-.4l-.37-.08c-.67-.13-1.34-.24-2-.31h-.09a20.41,20.41,0,0,0-2.2-.12h0a22.72,22.72,0,0,0-9.07,43.6A22.49,22.49,0,0,0,192,535.9a22.76,22.76,0,0,0,20.92-13.77c.28-.67.53-1.35.75-2Zm-30.23,13.18a21.66,21.66,0,0,1-13.15-19.52l3.84,0h0a.5.5,0,0,0,0-1l-3.85,0a21.42,21.42,0,0,1,1.53-7.41l3.52,1.5a.45.45,0,0,0,.2,0,.5.5,0,0,0,.19-1l-3.53-1.51a21.56,21.56,0,0,1,4.16-6.16l2.69,2.74a.51.51,0,0,0,.36.15.52.52,0,0,0,.35-.14.5.5,0,0,0,0-.71l-2.69-2.74a21.68,21.68,0,0,1,6.23-4.13l1.57,3.81a.49.49,0,0,0,.46.31.58.58,0,0,0,.19,0,.51.51,0,0,0,.28-.66l-1.57-3.81a21.75,21.75,0,0,1,7.47-1.44l0,4.13a.5.5,0,0,0,.5.5h0a.49.49,0,0,0,.5-.49l0-4.12c.51,0,1,0,1.54.08l.13,0c.65.07,1.3.17,1.93.3l.33.07c.5.11,1,.24,1.48.38l.73.23L200,493l.13.06-1.63,3.8a.5.5,0,0,0,.27.65.43.43,0,0,0,.19,0,.49.49,0,0,0,.46-.3l1.62-3.79c.47.21.93.43,1.38.67l.12.06c.55.31,1.08.64,1.6,1l.16.1c.5.34,1,.71,1.46,1.1l.19.15c.42.36.83.74,1.23,1.13l-2.95,2.89a.5.5,0,0,0,0,.71.47.47,0,0,0,.35.15.5.5,0,0,0,.35-.14l2.94-2.89c.3.32.6.64.87,1l.27.32c.31.4.61.81.89,1.22s.37.56.55.84.41.67.6,1,.27.52.4.78.32.68.48,1L208.32,506a.5.5,0,0,0-.27.65.51.51,0,0,0,.46.31.48.48,0,0,0,.2,0l3.58-1.47h0c.16.42.31.84.44,1.27s.17.56.25.85.19.76.27,1.15.1.49.14.73c.08.47.15.93.2,1.41,0,.14,0,.29,0,.43.05.54.07,1.08.07,1.62l-3.88,0a.51.51,0,0,0-.5.49.5.5,0,0,0,.5.51l3.88,0c0,.44,0,.89-.08,1.33,0,.2-.05.4-.07.6-.07.56-.16,1.11-.27,1.67,0,.1-.05.2-.07.3-.14.61-.29,1.22-.48,1.82,0,0,0,.08,0,.13-.21.65-.45,1.29-.72,1.93A21.74,21.74,0,0,1,183.45,533.15Z" fill="#231f20"/><path d="M192,516.89a3.45,3.45,0,0,0,2.22-6.11l6.18-8.61a.5.5,0,1,0-.81-.59l-6.21,8.65h0a3.47,3.47,0,1,0-1.37,6.65Zm0-5.93a2.47,2.47,0,1,1-2.46,2.46A2.47,2.47,0,0,1,192,511Z" fill="#231f20"/><path d="M200.34,520.66H183.82a.5.5,0,0,0-.5.5v4.21a.5.5,0,0,0,.5.5h16.52a.5.5,0,0,0,.5-.5v-4.21A.5.5,0,0,0,200.34,520.66Zm-.5,4.21H184.32v-3.21h15.52Z" fill="#231f20"/><polygon points="492.59 129.1 496.62 123.97 492.59 118.83 453.31 118.84 453.31 129.1 492.59 129.1" fill="#fdd600"/><polygon points="454.05 135.47 450.01 140.6 454.05 145.73 493.36 145.73 493.36 135.47 454.05 135.47" fill="#fdd600"/><path d="M491.33,128.6a.49.49,0,0,0,.39-.19l4.43-5.63a.51.51,0,0,0,0-.62l-4.43-5.63a.49.49,0,0,0-.39-.19H477.22v-2.77a.5.5,0,0,0-.5-.5h-9.8a.5.5,0,0,0-.5.5v2.77H451.31a.5.5,0,0,0-.5.5V128.1a.51.51,0,0,0,.5.5h15.11V133H452.31a.49.49,0,0,0-.39.19l-4.44,5.63a.51.51,0,0,0,0,.62l4.44,5.63a.49.49,0,0,0,.39.19h14.11v15.2a.5.5,0,0,0,.5.5h9.8a.5.5,0,0,0,.5-.5v-15.2h15.14a.5.5,0,0,0,.5-.5V133.47a.51.51,0,0,0-.15-.35.49.49,0,0,0-.35-.15H477.22V128.6Zm-39.52-11.26h39.28l4,5.14-4,5.13H451.81Zm15.61-3.27h8.8v2.27h-8.8Zm24.44,30.16H452.55l-4-5.13,4-5.13h39.31Zm-15.64,15.7h-8.8v-14.7h8.8Zm0-27h-8.8V128.6h8.8Z" fill="#231f20"/><path d="M101.09,300l19-35.56a3.56,3.56,0,0,1,3.18-1.9,3.63,3.63,0,0,1,1.68.41h0a3.61,3.61,0,0,0-6.36,0l-19,35.56a3.61,3.61,0,0,0,1.5,4.88A3.58,3.58,0,0,1,101.09,300Z" fill="none"/><path d="M145.41,300l-.09-.17a4.59,4.59,0,0,1-4.59,5h-38l-.37,0a3.53,3.53,0,0,0,1.87.52h38a3.6,3.6,0,0,0,3.18-5.29Z" fill="#fdd600"/><path d="M140.73,304.8a4.6,4.6,0,0,0,4.06-6.77l-19-35.55a4.61,4.61,0,0,0-8.12,0L98.71,298a4.59,4.59,0,0,0,3.69,6.75l.37,0Zm-41-2.75a3.55,3.55,0,0,1-.09-3.54l19-35.56a3.61,3.61,0,0,1,6.36,0h0l19,35.55a3.6,3.6,0,0,1-3.18,5.29h-38a3.57,3.57,0,0,1-3.09-1.75Z" fill="#231f20"/><path d="M125.16,271.38h-6.82a.48.48,0,0,0-.36.16.47.47,0,0,0-.14.37l1,20.48a.5.5,0,0,0,.5.47h4.78a.5.5,0,0,0,.5-.48l1-20.47a.47.47,0,0,0-.14-.37A.48.48,0,0,0,125.16,271.38Zm-1.49,20.48h-3.83l-1-19.48h5.77Z" fill="none"/><path d="M121.75,294.35a3.41,3.41,0,1,0,3.41,3.41A3.41,3.41,0,0,0,121.75,294.35Zm0,5.81a2.41,2.41,0,1,1,2.41-2.4A2.4,2.4,0,0,1,121.75,300.16Z" fill="none"/><path d="M125.16,271.38h-6.82a.48.48,0,0,0-.36.16.47.47,0,0,0-.14.37l1,20.48a.5.5,0,0,0,.5.47h4.78a.5.5,0,0,0,.5-.48l1-20.47a.47.47,0,0,0-.14-.37A.48.48,0,0,0,125.16,271.38Zm-1.49,20.48h-3.83l-1-19.48h5.77Z" fill="none"/><path d="M121.75,294.35a3.41,3.41,0,1,0,3.41,3.41A3.41,3.41,0,0,0,121.75,294.35Zm0,5.81a2.41,2.41,0,1,1,2.41-2.4A2.4,2.4,0,0,1,121.75,300.16Z" fill="none"/><path d="M143.91,298.51l-19-35.55a3.63,3.63,0,0,0-1.68-.41,3.56,3.56,0,0,0-3.18,1.9l-19,35.56a3.58,3.58,0,0,0,0,3.38,3.57,3.57,0,0,0,1.68.41h38a3.6,3.6,0,0,0,3.18-5.29Zm-22.16,2.65a3.41,3.41,0,1,1,3.41-3.4A3.4,3.4,0,0,1,121.75,301.16Zm2.89-8.78a.5.5,0,0,1-.5.48h-4.78a.5.5,0,0,1-.5-.47l-1-20.48a.47.47,0,0,1,.14-.37.48.48,0,0,1,.36-.16h6.82a.48.48,0,0,1,.36.16.47.47,0,0,1,.14.37Z" fill="#fdd600"/><path d="M121.75,294.35a3.41,3.41,0,1,0,3.41,3.41A3.41,3.41,0,0,0,121.75,294.35Zm0,5.81a2.41,2.41,0,1,1,2.41-2.4A2.4,2.4,0,0,1,121.75,300.16Z" fill="#231f20"/><path d="M119.36,292.86h4.78a.5.5,0,0,0,.5-.48l1-20.47a.47.47,0,0,0-.14-.37.48.48,0,0,0-.36-.16h-6.82a.48.48,0,0,0-.36.16.47.47,0,0,0-.14.37l1,20.48A.5.5,0,0,0,119.36,292.86Zm5.28-20.48-1,19.48h-3.83l-1-19.48Z" fill="#231f20"/><path d="M146.4,371.29a9.56,9.56,0,0,0-1.72-5,11.51,11.51,0,0,0-1.57-8.17L134,344.06l-1.88,1.28c.2.31.39.63.58,1l.49.87a19,19,0,0,1,2.59,8.85,18.59,18.59,0,0,1-1.12,7,2,2,0,0,1-.18.35,1.06,1.06,0,0,1-.17.23,10.72,10.72,0,0,1-4.06,2.55,9.56,9.56,0,0,1-5.6.36c-1.26-.31-3.49-.87-4.63-3a6.56,6.56,0,0,1-.1-5.21H103.4a21.91,21.91,0,0,0-2.44,5.53,22.47,22.47,0,0,0-.85,6.17l1.44,0a8.59,8.59,0,0,1,16.12,0l12.51,0a10.24,10.24,0,0,0-.16,1.27h5.29a2.48,2.48,0,0,0-.07.61,3,3,0,1,0,5.93,0,3.08,3.08,0,0,0-.06-.61Z" fill="#fdd600"/><circle cx="109.59" cy="371.9" r="2.97" fill="#fdd600"/><path d="M109.59,363.59a8.28,8.28,0,0,0-8.32,7.7h16.64A8.28,8.28,0,0,0,109.59,363.59Z" fill="#fdd600"/><path d="M144.09,364.83a11.6,11.6,0,0,0-1.64-8.71l-6.84-10.52.24,0a.5.5,0,0,0,.5-.5V338.6a.5.5,0,0,0-.5-.5,3.59,3.59,0,0,0-3.45,3.3l-.1.05-2.7,1.84a.5.5,0,0,0-.14.69c.31.46.6.92.87,1.37l-2.57,1.77a.51.51,0,0,0-.12.7.48.48,0,0,0,.41.21.49.49,0,0,0,.28-.09l2.48-1.71c3.88,7.13,3.23,13.85.08,16.37a9.84,9.84,0,0,1-7.6,1.44,5.52,5.52,0,0,1-4-2.48c-.87-1.62-.37-3.64.21-5.05h0a.53.53,0,0,0,0-.18s0,0,0,0h0a5,5,0,0,0-5-4.85h-8.42a4.94,4.94,0,0,0-5,4.61l0,0a22.63,22.63,0,0,0-2.7,6,23.34,23.34,0,0,0-.88,7,.51.51,0,0,0,.5.49h.68c0,.25,0,.51,0,.77a.5.5,0,0,0,.5.5h1.09a7.77,7.77,0,0,0,15.49,0h1.09a.5.5,0,0,0,.5-.5c0-.26,0-.52,0-.77h10.16c0,.25,0,.51,0,.77a.5.5,0,0,0,.5.5h1.06a7.66,7.66,0,0,0,15.28,0h1.06a.5.5,0,0,0,.5-.5A9.17,9.17,0,0,0,144.09,364.83Zm-4.36,6a3.07,3.07,0,0,1-6.06,0Zm-11.22-1a8.21,8.21,0,0,1,16.38,0Zm-12.11,0H99.76a8.34,8.34,0,0,1,16.64,0Zm-5.23,1a3.13,3.13,0,0,1-6.17,0Zm-3.09-9.7a9.31,9.31,0,0,0-9.15,7.43H98.6a22.47,22.47,0,0,1,.85-6.17,21.91,21.91,0,0,1,2.44-5.53h16.48a6.56,6.56,0,0,0,.09,5.21,6.48,6.48,0,0,0,4.63,3,11.63,11.63,0,0,0,6.49-.55,9.21,9.21,0,0,0-1.91,4H117.24A9.31,9.31,0,0,0,108.08,361.09Zm23.55-15.43,1.24-.85a.5.5,0,1,0-.57-.83l-1.16.81c-.19-.32-.37-.64-.57-1l1.87-1.28,9.16,14.1a11,11,0,0,1,1.66,7.19,9.15,9.15,0,0,0-10.42-1.9C135.64,358,134.6,351.22,131.63,345.66Zm3.72-6.51v5.42a2.87,2.87,0,0,1-.55-.22l-1.42-2.18a3,3,0,0,1,0-.31A2.73,2.73,0,0,1,135.35,339.15Zm-16.8,16.67h-7.66v-3.4h3.71A4,4,0,0,1,118.55,355.82Zm-12.37-3.4h3.71v3.4h-7.67A4,4,0,0,1,106.18,352.42Zm1.9,24.53a6.72,6.72,0,0,1-6.74-6.16H104a4.12,4.12,0,0,0,8.17,0h2.66A6.73,6.73,0,0,1,108.08,377Zm28.62,0a6.67,6.67,0,0,1-6.64-6.16h2.61a4.06,4.06,0,0,0,8.06,0h2.61A6.67,6.67,0,0,1,136.7,377Z" fill="#231f20"/><path d="M496.49,363.4v-3.94l-19.13-7.93.26-7a9.08,9.08,0,0,0-2.15-6.7,3.34,3.34,0,0,0-2.22-1.21h0a3.3,3.3,0,0,0-2.22,1.21,9.14,9.14,0,0,0-2.15,6.69h0l.23,6.93-19.1,8v3.94l19.46-.88.44,13.72-5.54,3.84.13.92,5.65-.92a3.62,3.62,0,0,0,3.07,1.81h0a3.62,3.62,0,0,0,3.07-1.82v0l5.69,1,.12-.92L476.46,376l.5-13.5Z" fill="#fdd600"/><path d="M495.69,357.17l-18.78-8.36.21-5.7a10.14,10.14,0,0,0-2.42-7.43,4.26,4.26,0,0,0-2.95-1.52h0a4.22,4.22,0,0,0-2.95,1.53,10.14,10.14,0,0,0-2.42,7.42l.19,5.71-18.76,8.35a.51.51,0,0,0-.3.46v4.8a.48.48,0,0,0,.16.36.48.48,0,0,0,.34.14h0l19-.92.36,11.22L462,378a.5.5,0,0,0-.16.43l.18,1.72a.5.5,0,0,0,.21.35.51.51,0,0,0,.29.1h.1l5.4-1.13a4.6,4.6,0,0,0,3.69,1.93h0a4.57,4.57,0,0,0,3.67-1.94l5.44,1.14h.1a.54.54,0,0,0,.3-.1.52.52,0,0,0,.2-.35l.19-1.72a.54.54,0,0,0-.17-.43L476,373.13l.41-11.12,19.05.92h0a.48.48,0,0,0,.34-.14.48.48,0,0,0,.16-.36v-4.8A.51.51,0,0,0,495.69,357.17Zm-.7,4.73L476.46,361l.41-11.12L495,358Zm-14.47,17.6-4.71-1,.15-4.09,4.66,4.16Zm-5.71-.93a3.62,3.62,0,0,1-3.07,1.82h0a3.64,3.64,0,0,1-3.19-2l-1.15-35.32h0a9.14,9.14,0,0,1,2.15-6.69,3.3,3.3,0,0,1,2.22-1.21h0a3.34,3.34,0,0,1,2.22,1.21,9.08,9.08,0,0,1,2.15,6.7ZM463,379.5l-.1-.92,4.54-4.05.13,4h0ZM448.51,358l18.09-8.06L467,361l-18.46.89Z" fill="#231f20"/><path d="M211,454.53a40.59,40.59,0,0,0-1.71-5.88,30.65,30.65,0,0,0-2.48-5.2,29.73,29.73,0,0,0-2.85-3.94v-.18a40.13,40.13,0,0,0-3.63-16.66,30.84,30.84,0,0,0-7.21-9.87,30.72,30.72,0,0,0-7.22,9.87,39.15,39.15,0,0,0-2.8,8.51,40.6,40.6,0,0,0-.83,8.15c0,.18,0,.35,0,.53v-.05a30,30,0,0,0-2.51,3.64,32.29,32.29,0,0,0-2.48,5.2,40.59,40.59,0,0,0-1.71,5.88h9.67v0c.12.3.23.61.35.89h1.49l-.82,4.59,4.37-1.78a.57.57,0,0,1,.16,0,.43.43,0,0,1,.23,0l2,1.75,1.59-1.69a.67.67,0,0,1,.35-.15.6.6,0,0,1,.37.1l4.57,1.72-1.05-4.49h1.72l.41-1,0,.06Zm-19.32-15.8a4.69,4.69,0,1,1,4.52-4.68A4.61,4.61,0,0,1,191.7,438.73Z" fill="#fdd600"/><path d="M206.19,441.44a29.51,29.51,0,0,0-2.71-3.86c-.07-10.93-4.36-21.13-11.52-27.33a.5.5,0,0,0-.65,0c-7.21,6.25-11.52,16.55-11.52,27.58,0,.06,0,.12,0,.18a29.75,29.75,0,0,0-2.38,3.43,38.5,38.5,0,0,0-4.43,12,.5.5,0,0,0,.1.41.5.5,0,0,0,.39.18h11.15l-1,5.15a.49.49,0,0,0,.17.48.48.48,0,0,0,.32.11.63.63,0,0,0,.19,0l4.94-2,2,1.79a.5.5,0,0,0,.69,0l1.7-1.8,5.33,2a.5.5,0,0,0,.51-.1.5.5,0,0,0,.15-.49L198.36,454h11.77a.5.5,0,0,0,.39-.18.5.5,0,0,0,.1-.41A38.25,38.25,0,0,0,206.19,441.44ZM191.64,411.3a30.84,30.84,0,0,1,7.21,9.87H184.42A30.72,30.72,0,0,1,191.64,411.3ZM174.09,453a37.14,37.14,0,0,1,4.2-11.08,26.13,26.13,0,0,1,1.55-2.37A40.49,40.49,0,0,0,182.7,453Zm24.35,5.39-4.75-1.79a.52.52,0,0,0-.54.12l-1.59,1.69-1.88-1.67a.5.5,0,0,0-.52-.09l-4.37,1.78.84-4.37h11.71ZM199.5,453H183.77a40.14,40.14,0,0,1,.21-30.86h15.11a.65.65,0,0,0,.19,0,40.18,40.18,0,0,1,.22,30.9Zm1.07,0a40.4,40.4,0,0,0,2.88-13.88,29.7,29.7,0,0,1,1.88,2.8A36.86,36.86,0,0,1,209.52,453Z" fill="#231f20"/><path d="M191.7,428.36a5.69,5.69,0,1,0,5.52,5.69A5.61,5.61,0,0,0,191.7,428.36Zm0,10.37a4.69,4.69,0,1,1,4.52-4.68A4.61,4.61,0,0,1,191.7,438.73Z" fill="#231f20"/><path d="M495.26,290.83v-2.48h0v-4.44h0v-1.15h-7.62l-6.34-12.12H460.4l-3.24,12.12H451v6.87c0,.4,0,.8,0,1.2h-.9v2.08h4.06a4.43,4.43,0,0,1-.19-1.21,4.52,4.52,0,0,1,4.51-4.51,4.45,4.45,0,0,1,2,.5,2.15,2.15,0,0,1,.88.18c.67.33.94,1,1.57,1.65a3.11,3.11,0,0,1,.27.33,2.1,2.1,0,0,1,.22.33,1.48,1.48,0,0,1,.17.61,2.16,2.16,0,0,1-.06.71,3.54,3.54,0,0,0,.06,1.38l16.63,0a4.43,4.43,0,0,1-.18-1.21,4.51,4.51,0,0,1,4.5-4.51,4.37,4.37,0,0,1,2,.51,2.25,2.25,0,0,1,.87.17,3.4,3.4,0,0,1,1.52,1.7,4.64,4.64,0,0,0,.27.61,6.87,6.87,0,0,1,.39.72,2.69,2.69,0,0,1,.16.66,8.06,8.06,0,0,1,.11,1.4l6.45,0v-2.08ZM470,273.45c0,2.48-.11,4.9-.27,7.26l-.88.22H461.1l-.94-.11c0-.16-.05-.35-.08-.56h-.68l.55-2.5a8.45,8.45,0,0,1,.72-3.2l.56-2.52H469v.5h1Zm4.41,7.32-.83.05c-.06-.13-.13-.32-.22-.56h-.28v-.86c-.45-1.52-.86-3.81,0-5.57V272H478l.24.5h.67c.13.24.25.49.38.74q2,3.83,3.58,7.6Z" fill="#fdd600"/><path d="M495.39,288.33h-.63v-2.56a.43.43,0,0,1,0,0v-2.23a.43.43,0,0,0,0-.05v-2.68a.51.51,0,0,0-.5-.5h-7.53l-6.19-11.85a.51.51,0,0,0-.44-.27H458.51a.5.5,0,0,0-.48.37l-3.11,11.75H449a.5.5,0,0,0-.5.5v2.68a.43.43,0,0,0,0,.05v2.23a.43.43,0,0,1,0,0v2.56h-.41a.5.5,0,0,0-.5.5v3.08a.5.5,0,0,0,.5.5H453a5.51,5.51,0,0,0,10.92,0h15.18a5.5,5.5,0,0,0,10.91,0h5.35a.5.5,0,0,0,.5-.5v-3.08A.5.5,0,0,0,495.39,288.33Zm-.5,3.08h-4.81a5.42,5.42,0,0,0-.53-2.08h5.34Zm-14.81.29a4.51,4.51,0,1,1,4.5,4.51A4.51,4.51,0,0,1,480.08,291.7ZM464,291.41a5.6,5.6,0,0,0-.53-2.08h16.16a5.42,5.42,0,0,0-.53,2.08Zm-10,.29a4.51,4.51,0,1,1,4.51,4.51A4.52,4.52,0,0,1,454,291.7Zm-5.37-.29v-2.08h4.92a5.42,5.42,0,0,0-.53,2.08ZM493.77,284v1.23h-1.69V284Zm-14-14.85,5.8,11.12h-2.54l-4.33-8.94a.5.5,0,0,0-.45-.28h-5.69a.5.5,0,0,0-.5.5v8.72H470v-8.72a.5.5,0,0,0-.5-.5h-8.68a.5.5,0,0,0-.49.39l-2,8.83H456l2.95-11.12Zm-6.71,2.9H478l4,8.22h-8.86Zm-11.86,0H469v8.22H459.4Zm-11.72,13.18V284h1.73v1.23Zm0,1h2.22a.5.5,0,0,0,.5-.5v-2.23a.5.5,0,0,0-.5-.5h-2.22v-1.73h44.24V283h-2.18a.5.5,0,0,0-.5.5v2.23a.51.51,0,0,0,.5.5h2.18v2.11h-4.83a5.48,5.48,0,0,0-8.69,0h-17.4a5.49,5.49,0,0,0-8.7,0h-4.62Z" fill="#231f20"/><path d="M460.83,291.7a2.34,2.34,0,1,0-2.34,2.34A2.34,2.34,0,0,0,460.83,291.7Zm-3.68,0a1.34,1.34,0,1,1,1.34,1.34A1.34,1.34,0,0,1,457.15,291.7Z" fill="#231f20"/><path d="M482.24,291.7a2.35,2.35,0,1,0,2.34-2.34A2.34,2.34,0,0,0,482.24,291.7Z" fill="none"/><path d="M456.15,291.7a2.34,2.34,0,1,0,2.34-2.34A2.34,2.34,0,0,0,456.15,291.7Z" fill="none"/><path d="M461.84,272.93c-2.41,2.21-1.94,6.3-1.68,7.89l.94.11h7.76l.88-.22c.16-2.36.26-4.78.27-7.26v-.91h-7.68A4.66,4.66,0,0,0,461.84,272.93Z" fill="none"/><path d="M478.88,272.54h-4.79a3.94,3.94,0,0,0-.5.5c-2,2.46-.41,6.79,0,7.78l.83-.05,8.42.11q-1.62-3.78-3.58-7.6C479.13,273,479,272.78,478.88,272.54Z" fill="none"/><path d="M486.93,291.7a2.35,2.35,0,1,0-2.35,2.34A2.35,2.35,0,0,0,486.93,291.7Zm-3.69,0a1.35,1.35,0,1,1,1.34,1.34A1.35,1.35,0,0,1,483.24,291.7Z" fill="#231f20"/><path d="M473.09,279.4v-5.57C472.23,275.59,472.64,277.88,473.09,279.4Z" fill="none"/><path d="M478.88,272.54h-.67l3.74,7.72h-8.58c.09.24.16.43.22.56l.83-.05,8.42.11q-1.62-3.78-3.58-7.6C479.13,273,479,272.78,478.88,272.54Z" fill="none"/><path d="M460,277.76l.72-3.2A8.45,8.45,0,0,0,460,277.76Z" fill="none"/><path d="M469,280.26h-8.93c0,.21.06.4.08.56l.94.11h7.76l.88-.22c.16-2.36.26-4.78.27-7.26v-.91h-1Z" fill="none"/><path d="M471.75,284h2.55a.51.51,0,0,0,.5-.5.5.5,0,0,0-.5-.5h-2.55a.5.5,0,0,0-.5.5A.5.5,0,0,0,471.75,284Z" fill="#231f20"/><polygon points="281.02 432.6 270.58 432.6 269.84 437.5 282.05 437.5 281.02 432.6" fill="#fdd600"/><polygon points="262.15 430.42 251.72 430.42 250.97 435.31 263.19 435.31 262.15 430.42" fill="#fdd600"/><polygon points="260.21 422.15 253.79 422.15 253.37 424.95 260.8 424.95 260.21 422.15" fill="#fdd600"/><path d="M247.7,443.68a.57.57,0,1,0,0,1.14.57.57,0,1,0,0-1.14Z" fill="#231f20"/><path d="M278.1,441.06l-3.28,8.23a.5.5,0,0,1-.47.31H261.16a.49.49,0,0,1-.44-.28l-4.13-8.26H243.08l4.52,16.08h33.94l4.75-16.08Z" fill="#fdd600"/><polygon points="279.07 425.32 272.65 425.33 272.23 428.11 279.67 428.11 279.07 425.32" fill="#fdd600"/><polygon points="278.07 419.11 273.71 419.11 273.45 420.82 278.44 420.82 278.07 419.11" fill="#fdd600"/><path d="M285.61,438.52a.52.52,0,0,0-.41-.21H276a.5.5,0,0,0-.46.32l-.84,2.09v-4h6.21a.49.49,0,0,0,.39-.19.5.5,0,0,0,.1-.41l-1.25-5.9a.5.5,0,0,0-.49-.4h-5v-2.49h3.82a.52.52,0,0,0,.39-.18.5.5,0,0,0,.1-.42l-.8-3.8a.5.5,0,0,0-.49-.39h-3v-2.5h2.59a.48.48,0,0,0,.39-.18.49.49,0,0,0,.1-.42l-.57-2.72a.5.5,0,0,0-.49-.39h-2v-2.9a.5.5,0,0,0-.5-.5.5.5,0,0,0-.5.5v2.9h-2.18a.5.5,0,0,0-.49.42l-.41,2.72a.52.52,0,0,0,.11.4.52.52,0,0,0,.38.17h2.59v2.5h-3.24a.49.49,0,0,0-.49.42l-.58,3.8a.49.49,0,0,0,.12.4.49.49,0,0,0,.38.17h3.81v2.49H268.4a.51.51,0,0,0-.5.43l-.89,5.89a.5.5,0,0,0,.12.41.49.49,0,0,0,.38.17h6.2v6.46l-1.46,3.64H259.72l-3.87-7.74v-4.55h6.21a.53.53,0,0,0,.39-.18.53.53,0,0,0,.1-.42l-1.25-5.9a.49.49,0,0,0-.49-.39h-5V424.2h3.82a.51.51,0,0,0,.39-.19.53.53,0,0,0,.1-.42l-.81-3.79a.49.49,0,0,0-.49-.4h-3v-5.94a.5.5,0,0,0-.5-.5.5.5,0,0,0-.5.5v5.94h-3.24a.51.51,0,0,0-.5.43l-.57,3.79a.48.48,0,0,0,.12.4.49.49,0,0,0,.37.18h3.82v3.47h-5.31a.51.51,0,0,0-.5.42l-.89,5.9a.49.49,0,0,0,.12.4.48.48,0,0,0,.37.17h6.21v3.75h-14.1l-2.38-.79a.51.51,0,0,0-.63.32.49.49,0,0,0,.32.63l2.2.74L245,456a.5.5,0,0,0,.48.37h34.7a.51.51,0,0,0,.48-.36l5-17.07A.49.49,0,0,0,285.61,438.52ZM271.7,419.07l.26-1.71h4.36l.37,1.71Zm-1.22,7.29.42-2.78h6.42l.59,2.79Zm-2.39,9.39.74-4.9h10.44l1,4.9ZM251.62,423.2l.42-2.8h6.42l.59,2.8Zm-2.39,10.36.74-4.89H260.4l1,4.89Zm30.56,21.83H245.85l-4.52-16.08h13.51l4.13,8.26a.49.49,0,0,0,.44.28H272.6a.5.5,0,0,0,.47-.31l3.28-8.23h8.19Z" fill="#231f20"/><path d="M247.7,442.68a1.57,1.57,0,1,0,1.57,1.57A1.57,1.57,0,0,0,247.7,442.68Zm0,2.14a.57.57,0,1,1,0-1.14.57.57,0,1,1,0,1.14Z" fill="#231f20"/><path d="M278.72,445.82a1.57,1.57,0,1,0-1.57-1.57A1.57,1.57,0,0,0,278.72,445.82Zm0-2.14a.57.57,0,1,1-.57.57A.58.58,0,0,1,278.72,443.68Z" fill="#231f20"/><path d="M253,442.68a1.57,1.57,0,1,0,1.57,1.57A1.57,1.57,0,0,0,253,442.68Zm0,2.14a.57.57,0,0,1,0-1.14.57.57,0,1,1,0,1.14Z" fill="#231f20"/><path d="M245.86,372.6a3.28,3.28,0,1,0,3.28-3.28A3.28,3.28,0,0,0,245.86,372.6Z" fill="none"/><path d="M275.27,362.31a6.15,6.15,0,1,0,6.15,6.15A6.15,6.15,0,0,0,275.27,362.31Z" fill="none"/><path d="M275.27,358.78a9.68,9.68,0,0,1,4.55,1.14,10.33,10.33,0,0,1,1.48.51v-18.6h1.5v-2.16H255.59v1.41h19.85v.75h2.74v1h0v12.78a.5.5,0,0,1-.5.5h-21.2l-.08,1.58a.5.5,0,0,1-.5.48h-5.52v-3.37a5.36,5.36,0,0,0-4.84-5.32v2.71a2.67,2.67,0,0,1,2.15,2.61v2.37h0v1h-4.8l-.41,3.32c-.21,1.65-.41,3.29-.62,4.94l-1,8.11H244a5.34,5.34,0,0,1-.37-2,5.54,5.54,0,0,1,5.53-5.53,5.46,5.46,0,0,1,3,.87,6.53,6.53,0,0,1,5.32,6.41c0,.07,0,.14,0,.21h9.87a10,10,0,0,1-.53-1.54,9.57,9.57,0,0,1-1.15-4.55A9.69,9.69,0,0,1,275.27,358.78Z" fill="#fdd600"/><path d="M280.55,359.19V341.08h1a.51.51,0,0,0,.5-.5v-3.16a.5.5,0,0,0-.5-.5H253.34a.5.5,0,0,0-.5.5v3.16a.5.5,0,0,0,.5.5h1.06l-.64,12.78-.07,1.58h-4.05v-2.37a6.35,6.35,0,0,0-6.34-6.34.5.5,0,0,0-.5.5v3.69a.5.5,0,0,0,.5.5,1.65,1.65,0,0,1,1.65,1.65v2.37h-4.24a.5.5,0,0,0-.5.44l-.54,4.32-.48,3.93-1.13,9.12a.48.48,0,0,0,.12.4.51.51,0,0,0,.37.16h4.18a6.52,6.52,0,0,0,12.82,0h10.5a10.67,10.67,0,1,0,14.5-14.61Zm-26.71-19.11v-2.16h27.21v2.16H253.84Zm7.82,11.57-3.12-3.11a.5.5,0,1,0-.71.71l1.35,1.35-2.84,2.78h-1.55l.61-12.3h20v12.3H257.77l2.12-2.08,1.06,1.06a.51.51,0,0,0,.36.15.5.5,0,0,0,.35-.15A.51.51,0,0,0,261.66,351.65Zm-17.86-1.19v-2.71a5.36,5.36,0,0,1,4.84,5.32v2.37H246v-2.37A2.67,2.67,0,0,0,243.8,350.46Zm-3.19,10.3h4.19v2.94h-4.55Zm8.53,17.37a5.53,5.53,0,1,1,5.53-5.53A5.54,5.54,0,0,1,249.14,378.13Zm6.52-5.32c0-.07,0-.14,0-.21a6.53,6.53,0,1,0-13.06,0c0,.07,0,.14,0,.21h-3.5l1-8.11h5.18a.51.51,0,0,0,.5-.5v-3.94a.51.51,0,0,0-.5-.5h-4.56l.41-3.32h13a.5.5,0,0,0,.5-.48l.08-1.58h21.2a.5.5,0,0,0,.5-.5v-12.8h3.11v17.6a10.66,10.66,0,0,0-14,14.12Zm19.61,5.32a9.68,9.68,0,1,1,9.68-9.67A9.68,9.68,0,0,1,275.27,378.13Z" fill="#231f20"/><path d="M275.27,362.31a6.15,6.15,0,1,0,6.15,6.15A6.15,6.15,0,0,0,275.27,362.31Zm0,11.3a5.15,5.15,0,1,1,5.15-5.15A5.16,5.16,0,0,1,275.27,373.61Z" fill="#231f20"/><path d="M249.14,369.32a3.28,3.28,0,1,0,3.28,3.28A3.28,3.28,0,0,0,249.14,369.32Zm0,5.56a2.28,2.28,0,1,1,2.28-2.28A2.28,2.28,0,0,1,249.14,374.88Z" fill="#231f20"/><path d="M123.25,491.89a22.55,22.55,0,1,0,22.54,22.55A22.57,22.57,0,0,0,123.25,491.89Zm.94,14.12a2,2,0,0,1,4,0v.33l-4,4Zm-17.66,6.8a1.55,1.55,0,0,1,.09-1.9,1.59,1.59,0,0,1,1.9-.38,7.55,7.55,0,0,1,2.84,1.88,8,8,0,0,1,1.52,2.37c.12.28.21.53.27.71a.49.49,0,0,0,.55.34.5.5,0,0,0,.42-.49V497.09a2,2,0,1,1,4,0v14.3a.5.5,0,0,0,.5.5.5.5,0,0,0,.5-.5v-7.23a2,2,0,1,1,4,0v7.21L112.6,522Zm26.72,1.5a23.59,23.59,0,0,1-1.37,7.42,22.9,22.9,0,0,1-2,4.19.57.57,0,0,0-.07.29l0,4.59H116.35v-3a.54.54,0,0,0-.08-.28l-3.11-4.67,15.06-15v3.77a.5.5,0,0,0,.5.5.5.5,0,0,0,.5-.5v-3.39a2,2,0,0,1,4,0Z" fill="#fdd600"/><path d="M138.72,496.65a.25.25,0,0,0,0-.07l-.05,0a23.53,23.53,0,1,0-33.27,33.27s0,0,0,0l.06,0a23.52,23.52,0,0,0,33.26-33.26ZM99.21,512.94a22.53,22.53,0,0,1,38.41-16l-8.47,8.47a3,3,0,0,0-3-2.41,3,3,0,0,0-2,.79,3,3,0,0,0-5-1.87v-4.83a3,3,0,1,0-6,0v16a8.7,8.7,0,0,0-1-1.36,8.5,8.5,0,0,0-3.18-2.1,2.55,2.55,0,0,0-3.21,3.75l6.18,9.31-6.13,6.12A22.47,22.47,0,0,1,99.21,512.94Zm30.65,17.86H116.35v-3a.54.54,0,0,0-.08-.28l-3.11-4.67,15.06-15v3.77a.5.5,0,0,0,.5.5.5.5,0,0,0,.5-.5v-3.39a2,2,0,0,1,4,0v6.17a23.59,23.59,0,0,1-1.37,7.42,22.9,22.9,0,0,1-2,4.19.57.57,0,0,0-.07.29Zm-1.64-24.46-4,4V506a2,2,0,0,1,4,0Zm-5-.33v5.36L112.6,522l-6.07-9.14a1.55,1.55,0,0,1,.09-1.9,1.59,1.59,0,0,1,1.9-.38,7.55,7.55,0,0,1,2.84,1.88,8,8,0,0,1,1.52,2.37c.12.28.21.53.27.71a.49.49,0,0,0,.55.34.5.5,0,0,0,.42-.49V497.09a2,2,0,1,1,4,0v14.3a.5.5,0,0,0,.5.5.5.5,0,0,0,.5-.5v-7.23a2,2,0,1,1,4,0Zm-1.44,29.47a22.43,22.43,0,0,1-15.28-6l6-6,2.91,4.38v3.4a.5.5,0,0,0,.5.5h14.51a.5.5,0,0,0,.5-.5l0-5a24.08,24.08,0,0,0,2-4.24,24.44,24.44,0,0,0,1.43-7.75v-6.18a3,3,0,0,0-3-3,3,3,0,0,0-.42,0l7.5-7.5a22.53,22.53,0,0,1-16.56,37.82Z" fill="#231f20"/><path d="M482.64,413.62H463.86L450.58,426.9v18.79L463.86,459h18.78l13.28-13.28V426.9Zm-.86,26.85a1.7,1.7,0,0,1,0,.22,10,10,0,1,1-20.08,0,1.48,1.48,0,0,1,0-.21v-11.3a1.61,1.61,0,1,1,3.21,0v3.09h0v3.57a.5.5,0,0,0,.5.5.5.5,0,0,0,.5-.5V422.93a1.61,1.61,0,1,1,3.22,0v12.91a.5.5,0,0,0,.5.5.5.5,0,0,0,.5-.5V420.46a1.61,1.61,0,0,1,3.22,0v15.38a.5.5,0,1,0,1,0V422.93a1.61,1.61,0,1,1,3.22,0v9.34l0,.29v5.64a4.72,4.72,0,0,0-1.92.74c-2.45,1.65-2.17,5-2.15,5.12a.49.49,0,0,0,.49.45h.05a.49.49,0,0,0,.45-.54s-.24-2.87,1.72-4.2a3.76,3.76,0,0,1,1.89-.62.5.5,0,0,0,.47-.5v-6.29a1.6,1.6,0,0,1,3.18.26v7.53l0,.11Z" fill="#fdd600"/><path d="M495.28,424.84,481.7,411.27a.51.51,0,0,0-.35-.15h-19.2a.51.51,0,0,0-.35.15l-13.58,13.57a.52.52,0,0,0-.14.36v19.2a.5.5,0,0,0,.14.35l13.58,13.57a.47.47,0,0,0,.35.15h19.2a.47.47,0,0,0,.35-.15l13.58-13.57a.5.5,0,0,0,.14-.35V425.2A.52.52,0,0,0,495.28,424.84Zm-.86,19.35-13.28,13.28H462.36l-13.28-13.28V425.4l13.28-13.28h18.78l13.28,13.28Z" fill="#231f20"/><path d="M482.79,432.62a2.61,2.61,0,0,0-2.6-2.61,2.58,2.58,0,0,0-1.61.56v-7.64a2.61,2.61,0,0,0-2.61-2.61,2.57,2.57,0,0,0-1.61.55v-.41a2.61,2.61,0,0,0-5.22,0v.41a2.57,2.57,0,0,0-1.61-.55,2.61,2.61,0,0,0-2.61,2.61v4.2a2.58,2.58,0,0,0-1.61-.56,2.61,2.61,0,0,0-2.6,2.61v10.89a.55.55,0,0,0,0,.19v.15a2.62,2.62,0,0,0,0,.28,11,11,0,1,0,22.08,0c0-.09,0-.19,0-.29v-.12a1.48,1.48,0,0,0,0-.21Zm-1,7.85a1.7,1.7,0,0,1,0,.22,10,10,0,1,1-20.08,0,1.48,1.48,0,0,1,0-.21v-11.3a1.61,1.61,0,1,1,3.21,0v3.09h0v3.57a.5.5,0,0,0,.5.5.5.5,0,0,0,.5-.5V422.93a1.61,1.61,0,1,1,3.22,0v12.91a.5.5,0,0,0,.5.5.5.5,0,0,0,.5-.5V420.46a1.61,1.61,0,0,1,3.22,0v15.38a.5.5,0,1,0,1,0V422.93a1.61,1.61,0,1,1,3.22,0v9.34l0,.29v5.64a4.72,4.72,0,0,0-1.92.74c-2.45,1.65-2.17,5-2.15,5.12a.49.49,0,0,0,.49.45h.05a.49.49,0,0,0,.45-.54s-.24-2.87,1.72-4.2a3.76,3.76,0,0,1,1.89-.62.5.5,0,0,0,.47-.5v-6.29a1.6,1.6,0,0,1,3.18.26v7.53l0,.11Z" fill="#231f20"/><path d="M205.38,135.69a.5.5,0,0,1-.5.5H193.75v6.22a.5.5,0,0,1-.5.5H182.12v6.22a.5.5,0,0,1-.5.5H170.49v10.64H216V129.56H205.38Z" fill="#fdd600"/><path d="M215,127.06H203.38a.5.5,0,0,0-.5.5v6.13H191.75a.5.5,0,0,0-.5.5v6.22H180.12a.5.5,0,0,0-.5.5v6.22H168.49a.5.5,0,0,0-.5.5v11.64a.5.5,0,0,0,.5.5H215a.5.5,0,0,0,.5-.5V127.56A.5.5,0,0,0,215,127.06Zm-.5,31.71H169V148.13h11.13a.5.5,0,0,0,.5-.5v-6.22h11.13a.5.5,0,0,0,.5-.5v-6.22h11.13a.5.5,0,0,0,.5-.5v-6.13h10.63Z" fill="#231f20"/><path d="M188.05,120.69a.5.5,0,0,0,.34.62l6.88,2L176.1,133.85a.5.5,0,0,0-.2.68.52.52,0,0,0,.44.26.42.42,0,0,0,.24-.07l19.09-10.49-2,6.81a.49.49,0,0,0,.34.62l.14,0a.51.51,0,0,0,.48-.36l2.3-7.92v0a.53.53,0,0,0,0-.41l0,0a.52.52,0,0,0-.31-.29l-7.92-2.3A.5.5,0,0,0,188.05,120.69Z" fill="#231f20"/><path d="M168.18,125.29a.49.49,0,0,0,.27.22l.08,0,7.89,2.4a.39.39,0,0,0,.15,0,.49.49,0,0,0,.47-.35.5.5,0,0,0-.33-.63l-6.79-2.06,19.23-10.26a.5.5,0,0,0-.47-.88l-19.31,10.3,2.09-6.86a.5.5,0,0,0-1-.29l-2.4,7.89a.48.48,0,0,0,.07.42A.06.06,0,0,0,168.18,125.29Z" fill="#231f20"/><path d="M426.13,199.15a1.68,1.68,0,0,1-.25-1,.63.63,0,0,0-.07-.35,1,1,0,0,0-.86-.4.81.81,0,0,0,0,.15,4,4,0,0,1-.09,1.2,3.47,3.47,0,0,1-.74,1.52,3.3,3.3,0,0,1-1.16.79c-.8.39-1.35.6-1.71.74s-.58.23-.69.39a1.16,1.16,0,0,0-.18.56,1.16,1.16,0,0,1-.56,1,1.42,1.42,0,0,1-.92.11h-.1a1.94,1.94,0,0,1-.06.46,2.72,2.72,0,0,1-1.51,1.66c-.56.26-1.32.48-1.74,0a1.06,1.06,0,0,1-.05-1.11,1.21,1.21,0,0,0,.1-.37.83.83,0,0,1-.21,0,1.19,1.19,0,0,1-.94-.5,1.11,1.11,0,0,1,0-1c0-.14.07-.24.05-.27s-.05-.05-.16-.1a1.61,1.61,0,0,1-.7-.61,1.46,1.46,0,0,1-.18-.46c-.16-.32-.74-.46-1.18-.43H412a10.58,10.58,0,0,1-1.21,0,1.51,1.51,0,0,1-.43-.1l-.18-.07-.16-.07a1,1,0,0,0-.18.1,1.08,1.08,0,0,1-1,.19c-.45-.22-.48-.83-.36-1.28a5.35,5.35,0,0,1-1.45-.4,2.84,2.84,0,0,0-.47-.19l-.17,0a2,2,0,0,0-.48,0,1.24,1.24,0,0,1-.71-.09.94.94,0,0,1-.37-.3.76.76,0,0,0-.67-.11H404A74.24,74.24,0,0,1,383.92,196c0,.16,0,.33,0,.51-.1.8-.15,1.28-.66,1.28s-.57-.41-.64-.91l-.17-.11a9.09,9.09,0,0,1-.06,1.89,7.63,7.63,0,0,1-.87,1.86c-.29.53-.49.86-.63,1.08s-.23.37-.24.52a1.8,1.8,0,0,0,.06.71,1.47,1.47,0,0,1-.1,1.16,1.51,1.51,0,0,1-.61.59l-.13.09s0,0,.07.1a2.79,2.79,0,0,1,.28.76,2.18,2.18,0,0,1,0,.58,1.68,1.68,0,0,0,0,.36,1.53,1.53,0,0,0,.15.51,6.75,6.75,0,0,1,.26.68,9.67,9.67,0,0,1,.29,1.45c.07.41.12.79.17,1.22l.06.43c.07.61.08.68.14.77s.07.08.25.18.28.16.49.3a5.65,5.65,0,0,1,1.6,1.55,4.64,4.64,0,0,1,.58,1.23l1.63.18a.52.52,0,0,1,.28.13,9.59,9.59,0,0,0,3.35,2,9.37,9.37,0,0,0,1.9.44v-.13a.5.5,0,0,1,.42-.5,3.2,3.2,0,0,1,2,.31,3.66,3.66,0,0,1,1.2,1.18,3.55,3.55,0,0,1,.56,1,2.64,2.64,0,0,1,.16.64.32.32,0,0,0,.06.2.79.79,0,0,0,.61.4c.07,0,.1,0,.24-.17a1.48,1.48,0,0,1,.88-.51h.22a2,2,0,0,1,1.11.39,2.17,2.17,0,0,1,.66.8l.29.46a6.34,6.34,0,0,0,.42.61,2.1,2.1,0,0,1,.31.46,4.47,4.47,0,0,1,.38.92,1.33,1.33,0,0,0,.25.54,1.22,1.22,0,0,0,.73.53.9.9,0,0,0,.46-.07h0s-.05-.07-.08-.12a2.15,2.15,0,0,1-.18-.8A2.38,2.38,0,0,1,403,222a7.74,7.74,0,0,1,3.39-1.78l.1,0a2.66,2.66,0,0,1,1.67-.21,1.84,1.84,0,0,1,.73.38,2,2,0,0,0,.48.29,2.65,2.65,0,0,0,.73.21,1.17,1.17,0,0,1-.27-1.15c.16-.4.54-.54,1.4-.72a5.44,5.44,0,0,1,2.22-.26,2.78,2.78,0,0,1,1,.52c.21.17.26.19.35.18s.17-.06.31-.19a1.39,1.39,0,0,1,.91-.41h0a1.9,1.9,0,0,1,1.74,1.43,1.68,1.68,0,0,1,0,.45,1.86,1.86,0,0,0,0,.48,1,1,0,0,1,0,.15H418c.47.12.59.57.68.94,0,.12.07.26.12.39a2.18,2.18,0,0,0,.68.93,1.67,1.67,0,0,0,.42.22,2,2,0,0,0,.16-.75,3.18,3.18,0,0,0-.69-1.68,3.41,3.41,0,0,0-.44-.6,3.77,3.77,0,0,1-.35-.48,4.52,4.52,0,0,1-.48-3.43c.27-1,.91-1.62,2.07-2.81.29-.3.53-.51.72-.7a2.56,2.56,0,0,0,.76-.93,2.83,2.83,0,0,0,.25-1.75c0-.1,0-.18-.06-.25a1.51,1.51,0,0,1-.06-.79,1.23,1.23,0,0,1,.25-.54.34.34,0,0,0,.08-.14.65.65,0,0,0-.05-.46,1.23,1.23,0,0,1,0-1,1.06,1.06,0,0,1,.42-.43c.11-.11.11-.14.09-.3a1.49,1.49,0,0,1,0-.77,1.6,1.6,0,0,1,.48-.68.61.61,0,0,1-.05-.12c-.14-.5.36-.82,1.14-1.14.25-.1.48-.17.68-.23a2.49,2.49,0,0,1,.18-2.6,4.34,4.34,0,0,1,1.39-1.39l.22-.15A1.66,1.66,0,0,1,426.13,199.15Z" fill="#fdd600"/><path d="M425.78,197.38a.63.63,0,0,1-.3-.26.73.73,0,0,1-.1-.46,1.63,1.63,0,0,0-.21-.86,2,2,0,0,0-1.36-.86,1.25,1.25,0,0,0-1.05.23,1,1,0,0,0-.3,1,2.89,2.89,0,0,1-.07.92,2.26,2.26,0,0,1-.5,1.08,2.48,2.48,0,0,1-.86.56,15.18,15.18,0,0,1-1.63.7,2.09,2.09,0,0,0-1.16.76,2.12,2.12,0,0,0-.34,1,1.59,1.59,0,0,1,0,.24.62.62,0,0,1-.3,0,1.12,1.12,0,0,0-1,.22.9.9,0,0,0-.27.7,1,1,0,0,1,0,.28,1.74,1.74,0,0,1-1,1,2.12,2.12,0,0,1-.43.16,1.33,1.33,0,0,0,0-1.23A1.16,1.16,0,0,0,414,202c-.08,0-.2,0-.21,0a1.23,1.23,0,0,1,.05-.21,1.25,1.25,0,0,0,0-1.07,1.17,1.17,0,0,0-.58-.49.6.6,0,0,1-.3-.24.33.33,0,0,1,0-.13,1.44,1.44,0,0,0-.15-.39,2.32,2.32,0,0,0-2.06-.85h-.19c-.23,0-.92,0-1,0a1,1,0,0,1-.19,0l-.12-.05-.23-.12a1,1,0,0,0-.9.12.67.67,0,0,1,.11-.14.48.48,0,0,0,.15-.51.5.5,0,0,0-.4-.35,7.88,7.88,0,0,1-1.84-.43,4.6,4.6,0,0,0-.65-.27l-.3-.07a2.71,2.71,0,0,0-.75,0c-.13,0-.17,0-.18,0a1,1,0,0,0-.28-.28,1.7,1.7,0,0,0-1.34-.22,73.31,73.31,0,0,1-20.39-2.91.51.51,0,0,0-.43.07.55.55,0,0,0-.21.39c0,.16,0,.35,0,.59l-.77-.51a.51.51,0,0,0-.52,0,.49.49,0,0,0-.25.46c0,.21,0,.52,0,.89a9.19,9.19,0,0,1,0,1.73,8.14,8.14,0,0,1-.77,1.57c-.28.51-.47.82-.6,1a2,2,0,0,0-.39.91,3.22,3.22,0,0,0,.08,1.06c.07.28.08.34,0,.45a.6.6,0,0,1-.26.23,1.09,1.09,0,0,0-.58.74,1,1,0,0,0,.15.76,1.61,1.61,0,0,1,.19.51,1,1,0,0,1,0,.33,2.89,2.89,0,0,0,0,.54,2.62,2.62,0,0,0,.23.77c0,.14.13.3.21.57a9.86,9.86,0,0,1,.26,1.32c.07.41.12.77.17,1.19l.05.43a2.43,2.43,0,0,0,.31,1.19,1.53,1.53,0,0,0,.59.51c.11.06.24.13.42.25a4.79,4.79,0,0,1,1.33,1.27,3.51,3.51,0,0,1,.52,1.24.5.5,0,0,0,.43.39l1.82.21a10.63,10.63,0,0,0,3.57,2.08,11.15,11.15,0,0,0,2.7.54.51.51,0,0,0,.53-.5v-.23a1.72,1.72,0,0,1,1,.24,2.8,2.8,0,0,1,.89.89,3.21,3.21,0,0,1,.43.74,2.08,2.08,0,0,1,.1.43,1.28,1.28,0,0,0,.19.59,1.76,1.76,0,0,0,1.58.87,1.32,1.32,0,0,0,.84-.46c.15-.15.21-.2.32-.22a.93.93,0,0,1,.61.21c.14.1.19.18.37.49l.3.49a5.84,5.84,0,0,0,.49.69,1.76,1.76,0,0,1,.21.32,3.3,3.3,0,0,1,.3.73,2.48,2.48,0,0,0,.42.86,2.15,2.15,0,0,0,1.39.91h.23a1.36,1.36,0,0,0,1.25-.62,1.08,1.08,0,0,0,0-1,1,1,0,0,1-.11-.41c0-.31.23-.57.62-1a7,7,0,0,1,3-1.53l.1,0a1.88,1.88,0,0,1,1.09-.19.93.93,0,0,1,.37.21,2.72,2.72,0,0,0,.68.41c.49.22,1.86.63,2.27-.09.24-.43-.06-.83-.25-1.1l-.18-.24a10.25,10.25,0,0,1,2.42-.42,1.54,1.54,0,0,1,.65.34,1.39,1.39,0,0,0,1.06.37,1.45,1.45,0,0,0,.88-.43c.14-.13.18-.16.27-.16h0a.89.89,0,0,1,.75.6.42.42,0,0,1,0,.16,2.78,2.78,0,0,0,0,.72,1.09,1.09,0,0,0,.53,1,.74.74,0,0,0,.25.06l.06.2c0,.16.08.32.14.49a3.22,3.22,0,0,0,1,1.38,2.61,2.61,0,0,0,1.21.49.48.48,0,0,0,.5-.24,3,3,0,0,0,.47-1.58,4.12,4.12,0,0,0-.84-2.21,5,5,0,0,0-.53-.73,2,2,0,0,1-.25-.33,3.53,3.53,0,0,1-.37-2.66c.19-.71.7-1.23,1.82-2.37.27-.28.5-.49.68-.66a3.6,3.6,0,0,0,1-1.27,3.83,3.83,0,0,0,.31-2.35,1.86,1.86,0,0,0-.08-.32.57.57,0,0,1,0-.32.21.21,0,0,1,.07-.13,1.29,1.29,0,0,0,.24-.45,1.76,1.76,0,0,0-.05-1c-.05-.17-.07-.23,0-.28a1,1,0,0,0,.44-.43,1.28,1.28,0,0,0,.14-.89.47.47,0,0,1,0-.29c.06-.19.28-.34.45-.45s.58-.4.42-.84l.13-.05a6.33,6.33,0,0,1,1-.3c.39-.1.82-.21.85-.67a.67.67,0,0,0-.48-.64.77.77,0,0,1-.25-.16c-.19-.23-.08-.93.24-1.49a3.57,3.57,0,0,1,1.1-1.07c.41-.28.87-.6.77-1.16A.89.89,0,0,0,425.78,197.38Zm-.84,1a4.34,4.34,0,0,0-1.39,1.39,2.49,2.49,0,0,0-.18,2.6c-.2.06-.43.13-.68.23-.78.32-1.28.64-1.14,1.14a.61.61,0,0,0,.05.12,1.6,1.6,0,0,0-.48.68,1.49,1.49,0,0,0,0,.77c0,.16,0,.19-.09.3a1.06,1.06,0,0,0-.42.43,1.23,1.23,0,0,0,0,1,.65.65,0,0,1,.05.46.34.34,0,0,1-.08.14,1.29,1.29,0,0,0-.25.54,1.51,1.51,0,0,0,.06.79c0,.07,0,.15.06.25a2.83,2.83,0,0,1-.25,1.75,2.56,2.56,0,0,1-.76.93c-.19.19-.43.4-.72.7-1.16,1.19-1.8,1.85-2.07,2.81a4.52,4.52,0,0,0,.48,3.43,3.77,3.77,0,0,0,.35.48,3.41,3.41,0,0,1,.44.6,3.18,3.18,0,0,1,.69,1.68,2,2,0,0,1-.16.75,1.67,1.67,0,0,1-.42-.22,2.18,2.18,0,0,1-.68-.93c-.05-.13-.08-.27-.12-.39-.09-.37-.21-.82-.68-.94h-.11a1,1,0,0,0,0-.15,1.86,1.86,0,0,1,0-.48,1.68,1.68,0,0,0,0-.45,1.9,1.9,0,0,0-1.74-1.43h0a1.39,1.39,0,0,0-.91.41c-.14.13-.2.18-.31.19s-.14,0-.35-.18a2.78,2.78,0,0,0-1-.52,5.44,5.44,0,0,0-2.22.26c-.86.18-1.24.32-1.4.72a1.17,1.17,0,0,0,.27,1.15,2.65,2.65,0,0,1-.73-.21,2,2,0,0,1-.48-.29,1.84,1.84,0,0,0-.73-.38,2.73,2.73,0,0,0-1.67.21l-.1,0a7.84,7.84,0,0,0-3.39,1.78,2.38,2.38,0,0,0-.9,1.67,2,2,0,0,0,.19.8c0,.05,0,.12.07.12h0a.9.9,0,0,1-.46.07,1.22,1.22,0,0,1-.73-.53,1.33,1.33,0,0,1-.25-.54,4.47,4.47,0,0,0-.38-.92,2.1,2.1,0,0,0-.31-.46,6.34,6.34,0,0,1-.42-.61l-.29-.46a2.17,2.17,0,0,0-.66-.8,2,2,0,0,0-1.11-.39h-.21a1.48,1.48,0,0,0-.89.51c-.14.14-.17.16-.24.17a.79.79,0,0,1-.61-.4.32.32,0,0,1-.06-.2,2.64,2.64,0,0,0-.16-.64,3.55,3.55,0,0,0-.56-1,3.76,3.76,0,0,0-1.2-1.18,3.2,3.2,0,0,0-2-.31.51.51,0,0,0-.42.5V216a9.37,9.37,0,0,1-1.9-.44,9.59,9.59,0,0,1-3.35-2,.6.6,0,0,0-.28-.13l-1.63-.18a4.64,4.64,0,0,0-.58-1.23,5.65,5.65,0,0,0-1.6-1.55c-.21-.14-.37-.23-.49-.3s-.2-.11-.25-.18-.07-.16-.14-.77l-.06-.43c-.05-.43-.1-.8-.17-1.22a9.67,9.67,0,0,0-.29-1.45,6.75,6.75,0,0,0-.26-.68,1.8,1.8,0,0,1-.15-.51,1.68,1.68,0,0,1,0-.36,2.18,2.18,0,0,0,0-.58,2.79,2.79,0,0,0-.28-.76c0-.05,0-.11-.07-.1l.13-.09a1.51,1.51,0,0,0,.61-.59,1.47,1.47,0,0,0,.1-1.16,1.8,1.8,0,0,1-.06-.71c0-.15,0-.17.24-.52s.34-.55.63-1.08a7.63,7.63,0,0,0,.87-1.86,9,9,0,0,0,.06-1.88l.17.1c.07.5.22.9.64.91s.56-.48.66-1.28c0-.18,0-.35,0-.51a74.24,74.24,0,0,0,20.09,2.78h.13a.76.76,0,0,1,.67.11.94.94,0,0,0,.37.3,1.24,1.24,0,0,0,.71.09,2,2,0,0,1,.48,0l.17,0a2.84,2.84,0,0,1,.47.19,5.35,5.35,0,0,0,1.45.4c-.12.45-.09,1.06.36,1.28a1.08,1.08,0,0,0,1-.19,1,1,0,0,1,.18-.1l.16.07.18.07a1.51,1.51,0,0,0,.43.1,10.58,10.58,0,0,0,1.21,0h.18c.44,0,1,.11,1.18.43a1.46,1.46,0,0,0,.18.46,1.61,1.61,0,0,0,.7.61c.11,0,.15.07.16.1s0,.13-.05.27a1.11,1.11,0,0,0,0,1,1.19,1.19,0,0,0,.94.5.83.83,0,0,0,.21,0,1,1,0,0,1-.1.37,1.06,1.06,0,0,0,.05,1.11c.42.46,1.18.24,1.74,0a2.69,2.69,0,0,0,1.51-1.66,1.94,1.94,0,0,0,.06-.46h.1a1.47,1.47,0,0,0,.92-.1,1.19,1.19,0,0,0,.56-1,1.16,1.16,0,0,1,.18-.56c.11-.16.19-.2.69-.39s.91-.35,1.71-.74a3.3,3.3,0,0,0,1.16-.79,3.47,3.47,0,0,0,.74-1.52,4,4,0,0,0,.09-1.2.81.81,0,0,1,0-.15,1.05,1.05,0,0,1,.87.4.76.76,0,0,1,.06.35,1.67,1.67,0,0,0,.78,1.51Z" fill="#231f20"/><path d="M354.73,290.58h.41v-1l.14,0v-3.55h0V273.73a.91.91,0,0,0-.91-.9H311.32a.91.91,0,0,0-.91.9v12.6h0v4.31a1,1,0,0,0,.27,2h4.37a2.58,2.58,0,0,1,0-.39,3.56,3.56,0,0,1-.54-1.88,3.64,3.64,0,0,1,3.64-3.64,3.59,3.59,0,0,1,2,.61,4.35,4.35,0,0,1,2.38,2.23h-.44c.09.15.19.32.28.51a3.33,3.33,0,0,1,.18.49h-.78a4.1,4.1,0,0,1,.24,1.3,4,4,0,0,1-.09.77H340a4,4,0,0,1-.07-.48,3.63,3.63,0,0,1,5.21-4.79,4,4,0,0,1,2.1,1.9h-.33c.08.21.16.44.27.68s.19.42.28.61h-.53a3.64,3.64,0,0,1,.27,1.3,3.32,3.32,0,0,1-.1.77h7.66a1.07,1.07,0,1,0,0-2.07ZM318.49,280.4a.52.52,0,0,1-.52.53h-6a.53.53,0,0,1-.52-.53v-5.69a.52.52,0,0,1,.52-.52h6a.52.52,0,0,1,.52.52Zm10.72,0a.53.53,0,0,1-.53.53h-6a.52.52,0,0,1-.52-.53v-5.69a.52.52,0,0,1,.52-.52h6a.52.52,0,0,1,.53.52Zm10.71.22a.52.52,0,0,1-.52.52h-6a.52.52,0,0,1-.53-.52v-5.69a.52.52,0,0,1,.53-.52h6a.52.52,0,0,1,.52.52Zm13.86.74H346.3a1.47,1.47,0,0,1-1.46-1.47v-4.24a1.47,1.47,0,0,1,1.46-1.46h7.48Z" fill="#fdd600"/><path d="M318,273.19h-6a1.53,1.53,0,0,0-1.52,1.52v5.69a1.53,1.53,0,0,0,1.52,1.53h6a1.53,1.53,0,0,0,1.52-1.53v-5.69A1.52,1.52,0,0,0,318,273.19Zm.52,7.21a.52.52,0,0,1-.52.53h-6a.53.53,0,0,1-.52-.53v-5.69a.53.53,0,0,1,.52-.52h6a.52.52,0,0,1,.52.52Z" fill="#231f20"/><rect x="322.17" y="274.19" width="7.04" height="6.73" rx="0.52" fill="none"/><rect x="311.45" y="274.19" width="7.04" height="6.73" rx="0.52" fill="none"/><path d="M340.75,290.38a2.3,2.3,0,1,0,2.3-2.3A2.3,2.3,0,0,0,340.75,290.38Z" fill="none"/><path d="M315.81,290.38a2.3,2.3,0,1,0,2.3-2.3A2.3,2.3,0,0,0,315.81,290.38Z" fill="none"/><path d="M344.84,275.65v4.24a1.47,1.47,0,0,0,1.46,1.47h7.48v-7.17H346.3A1.47,1.47,0,0,0,344.84,275.65Z" fill="none"/><rect x="332.88" y="274.41" width="7.04" height="6.73" rx="0.52" fill="none"/><path d="M356.35,271.19h-1.88a1.9,1.9,0,0,0-1.59-.86H309.82a1.91,1.91,0,0,0-1.91,1.9v16.31a2,2,0,0,0,1.27,3.61h4.64a4.64,4.64,0,0,0,8.58,0h16.36a4.64,4.64,0,0,0,8.58,0h6.2a2,2,0,0,0,1.24-3.63V272.19h1.07v1.32a.5.5,0,0,0,.5.5.5.5,0,0,0,.5-.5v-1.82A.5.5,0,0,0,356.35,271.19Zm-47.44,1a.91.91,0,0,1,.91-.9h43.06a.91.91,0,0,1,.9.9v1H346.3a2.46,2.46,0,0,0-2.46,2.46v4.24a2.47,2.47,0,0,0,2.46,2.47h7.48v1.2H308.91Zm44.87,2v7.17H346.3a1.47,1.47,0,0,1-1.46-1.47v-4.24a1.47,1.47,0,0,1,1.46-1.46Zm-40.23,17h-4.37a1,1,0,0,1,0-2.07h4.5a4.37,4.37,0,0,0-.21,1.3A3.94,3.94,0,0,0,313.55,291.15Zm4.56,2.87a3.64,3.64,0,1,1,3.64-3.64A3.64,3.64,0,0,1,318.11,294Zm20.38-2.87H322.67a3.94,3.94,0,0,0,.08-.77,4.37,4.37,0,0,0-.21-1.3h16.08a4.37,4.37,0,0,0-.21,1.3A3.94,3.94,0,0,0,338.49,291.15Zm4.56,2.87a3.64,3.64,0,1,1,3.64-3.64A3.64,3.64,0,0,1,343.05,294Zm4-5.94a4.61,4.61,0,0,0-8,0H322.12a4.61,4.61,0,0,0-8,0h-4.92l-.27,0v-3.55h44.87v3.55l-.24,0Zm6.48,3.07h-5.93a3.94,3.94,0,0,0,.08-.77,4.7,4.7,0,0,0-.2-1.3h6.05a1,1,0,0,1,0,2.07Z" fill="#231f20"/><path d="M318.11,288.08a2.3,2.3,0,1,0,2.3,2.3A2.3,2.3,0,0,0,318.11,288.08Zm0,3.6a1.3,1.3,0,1,1,1.3-1.3A1.31,1.31,0,0,1,318.11,291.68Z" fill="#231f20"/><path d="M343.05,288.08a2.3,2.3,0,1,0,2.3,2.3A2.3,2.3,0,0,0,343.05,288.08Zm0,3.6a1.3,1.3,0,1,1,1.3-1.3A1.31,1.31,0,0,1,343.05,291.68Z" fill="#231f20"/><path d="M328.68,273.19h-6a1.52,1.52,0,0,0-1.52,1.52v5.69a1.53,1.53,0,0,0,1.52,1.53h6a1.54,1.54,0,0,0,1.53-1.53v-5.69A1.53,1.53,0,0,0,328.68,273.19Zm.53,7.21a.53.53,0,0,1-.53.53h-6a.52.52,0,0,1-.52-.53v-5.69a.52.52,0,0,1,.52-.52h6a.53.53,0,0,1,.53.52Z" fill="#231f20"/><path d="M339.4,273.41h-6a1.53,1.53,0,0,0-1.53,1.52v5.69a1.53,1.53,0,0,0,1.53,1.52h6a1.52,1.52,0,0,0,1.52-1.52v-5.69A1.52,1.52,0,0,0,339.4,273.41Zm.52,7.21a.52.52,0,0,1-.52.52h-6a.52.52,0,0,1-.53-.52v-5.69a.52.52,0,0,1,.53-.52h6a.52.52,0,0,1,.52.52Z" fill="#231f20"/><path d="M283.71,266.48V261a.83.83,0,0,0-.83-.83H243.62a.83.83,0,0,0-.83.83v5.46Z" fill="#fdd600"/><path d="M282,289.8H244.47a2.67,2.67,0,0,1-1.68-.6v10.73c0,.65.37,1.18.83,1.18h.48v6a.54.54,0,0,0,.49.57h3.76a.54.54,0,0,0,.49-.57v-6h28.55v6a.53.53,0,0,0,.48.57h3.83a.53.53,0,0,0,.48-.57v-6h.7c.45,0,.83-.53.83-1.18V289.2A2.67,2.67,0,0,1,282,289.8Zm-4.5,1.28a1.12,1.12,0,1,1-1.12,1.12A1.12,1.12,0,0,1,277.53,291.08Zm-31.56,0a1.12,1.12,0,0,1,0,2.24,1.12,1.12,0,1,1,0-2.24Z" fill="#fdd600"/><path d="M281.38,257.69H242.12a1.83,1.83,0,0,0-1.83,1.83v39.26a1.84,1.84,0,0,0,1.31,1.74v5.15a1.49,1.49,0,0,0,1.49,1.49h3.76a1.49,1.49,0,0,0,1.49-1.49v-5.06h26.55v5.06a1.49,1.49,0,0,0,1.48,1.49h3.83a1.49,1.49,0,0,0,1.48-1.49v-5.1a1.82,1.82,0,0,0,1.53-1.79V265.49h0v-6A1.83,1.83,0,0,0,281.38,257.69Zm-34,48a.49.49,0,0,1-.49.49h-3.76a.49.49,0,0,1-.49-.49v-5.06h4.74Zm33.34,0a.48.48,0,0,1-.48.49h-3.83a.48.48,0,0,1-.48-.49v-5.06h4.79Zm1.53-6.89a.83.83,0,0,1-.83.83H242.12a.83.83,0,0,1-.83-.83v-1.6h40.92Zm0-2.6H241.29V287.7a2.67,2.67,0,0,0,1.68.6h12.57l-.18.44a1.17,1.17,0,1,0,1.23,1.17,1.16,1.16,0,0,0-.31-.78l.34-.83H267l.34.81a1.16,1.16,0,0,0-.33.8,1.18,1.18,0,1,0,1.26-1.16l-.18-.45h12.44a2.67,2.67,0,0,0,1.68-.6Zm0-10.55a1.68,1.68,0,0,1-1.68,1.67H267.67L263.4,277a.51.51,0,0,0-.65-.27.5.5,0,0,0-.27.66l4.11,9.87H257l4.09-9.82a.5.5,0,1,0-.93-.39L256,287.3H243a1.68,1.68,0,0,1-1.68-1.67V266h40.92Zm0-20.65H241.29v-5.46a.83.83,0,0,1,.83-.83h39.26a.83.83,0,0,1,.83.83Z" fill="#231f20"/><path d="M246,290.08a2.12,2.12,0,1,0,2.12,2.12A2.12,2.12,0,0,0,246,290.08Zm0,3.24a1.12,1.12,0,1,1,0-2.24,1.12,1.12,0,0,1,0,2.24Z" fill="#231f20"/><path d="M277.53,290.08a2.12,2.12,0,1,0,2.12,2.12A2.12,2.12,0,0,0,277.53,290.08Zm0,3.24a1.12,1.12,0,1,1,1.12-1.12A1.12,1.12,0,0,1,277.53,293.32Z" fill="#231f20"/><path d="M425.63,293.15h-.05V281.68H419.9V266.25H386.6v15.42h-5.68v11.47h-.06a1.13,1.13,0,0,0,0,2.26h4.42v5.65a.5.5,0,0,0,.43.55h3.56a.5.5,0,0,0,.43-.55V295.4h27v5.66a.5.5,0,0,0,.43.54h3.62a.49.49,0,0,0,.43-.54v-5.65h4.41a1.13,1.13,0,1,0,0-2.26Zm-38.5-5.47a2,2,0,1,1,2-2A2,2,0,0,1,387.13,287.68Zm2.93-7.51h-.79l-.62-.6.12-.4V268.05h26v.5h.77l.23.42c0,3.8,0,7.61-.05,11.41l1-.22Zm17.64,7.51H395.58v-2.2H407.7Zm8.67,0a2,2,0,1,1,2-2A2,2,0,0,1,416.37,287.68Z" fill="#fdd600"/><path d="M425.08,290.88V279.69a.53.53,0,0,0-.51-.52H419.4v-2.66h4.53a.5.5,0,0,0,.5-.5v-3.1a.5.5,0,0,0-.5-.5h-4.53v-8.16a.51.51,0,0,0-.5-.5H384.6a.5.5,0,0,0-.5.5v8.15h-4.66a.5.5,0,0,0-.5.5V276a.5.5,0,0,0,.5.5h4.66v2.67h-5.16a.53.53,0,0,0-.52.52v11.19a2.12,2.12,0,0,0,.94,4h3.42v4.76a1.44,1.44,0,0,0,1.43,1.44h3.56a1.44,1.44,0,0,0,1.43-1.43V294.9h25v4.77a1.43,1.43,0,0,0,1.43,1.43h3.62a1.43,1.43,0,0,0,1.43-1.43v-4.76h3.41a2.13,2.13,0,0,0,.95-4Zm-5.67-17.47h4v2.1h-4ZM384,275.5h-4v-2.1h4Zm1.12-10.75h33.31v14.42h-2.67V267.56a.5.5,0,0,0-.5-.5h-27a.5.5,0,0,0-.5.5v11.62H385.1Zm29.63,3.31v11.11h-26V268.05Zm-35.31,12.11h44.66v10.48H379.42Zm8.78,19.5a.43.43,0,0,1-.43.43h-3.56a.44.44,0,0,1-.43-.44V294.9h4.42Zm31.52,0a.43.43,0,0,1-.43.43h-3.62a.43.43,0,0,1-.43-.43V294.9h4.48Zm4.41-5.76H379.36a1.13,1.13,0,0,1,0-2.26h44.77a1.13,1.13,0,1,1,0,2.26Z" fill="#231f20"/><path d="M387.13,282.61a3,3,0,1,0,3,3A3,3,0,0,0,387.13,282.61Zm0,5.07a2,2,0,1,1,2-2A2,2,0,0,1,387.13,287.68Z" fill="#231f20"/><path d="M416.37,282.61a3,3,0,1,0,3,3A3,3,0,0,0,416.37,282.61Zm0,5.07a2,2,0,1,1,2-2A2,2,0,0,1,416.37,287.68Z" fill="#231f20"/><path d="M408.2,284.48H395.08a.5.5,0,0,0-.5.5v3.2a.5.5,0,0,0,.5.5H408.2a.5.5,0,0,0,.5-.5V285A.5.5,0,0,0,408.2,284.48Zm-.5,3.2H395.58v-2.2H407.7Z" fill="#231f20"/><path d="M208.37,274.85a2.81,2.81,0,0,0-2.8,2.8.5.5,0,0,1-.5.5h0a.5.5,0,0,1-.5-.5v-2.78a2.81,2.81,0,1,0-5.61,0,.5.5,0,0,1-.5.5.5.5,0,0,1-.5-.5v-2.44a2.79,2.79,0,0,0-1.35-2.74,2.84,2.84,0,0,0-3.13.34,3.07,3.07,0,0,0-1.06,1.86.53.53,0,0,1-.54.42.52.52,0,0,1-.46-.5l-.08-8.66a2.81,2.81,0,1,0-5.61,0v24a.5.5,0,0,1-1,.16c-.08-.24-.2-.57-.36-.95a10.76,10.76,0,0,0-2-3.16,9.93,9.93,0,0,0-3.79-2.5,2.2,2.2,0,0,0-2.8,3.22l12.8,19.26a.57.57,0,0,1,.08.28v4.17h18.06l0-6.21a.53.53,0,0,1,.07-.28,30.94,30.94,0,0,0,4.42-15.33v-8.12A2.81,2.81,0,0,0,208.37,274.85Z" fill="#fdd600"/><path d="M206.93,272.32a3.81,3.81,0,0,0-2.82,1.25v-.23a3.82,3.82,0,0,0-6.64-2.57,3.82,3.82,0,0,0-6.63-2.45v-6.75a3.82,3.82,0,0,0-3.82-3.82h0a3.84,3.84,0,0,0-3.82,3.82v21.67a10.82,10.82,0,0,0-1.64-2.26,11,11,0,0,0-4.14-2.75,3.21,3.21,0,0,0-4,4.73l12.75,19.19v4.53a.5.5,0,0,0,.5.5h19.13a.5.5,0,0,0,.5-.5V302.5l0-2.44a32.06,32.06,0,0,0,4.51-15.76v-8.16A3.83,3.83,0,0,0,206.93,272.32Zm2.82,12a31.08,31.08,0,0,1-4.44,15.39.48.48,0,0,0-.07.26l0,6.25H187.14V302a.57.57,0,0,0-.08-.28l-12.85-19.33a2.22,2.22,0,0,1,2.82-3.24,10.22,10.22,0,0,1,3.81,2.51,11.13,11.13,0,0,1,2,3.17c.16.39.28.72.36,1a.5.5,0,0,0,1-.16V261.57a2.83,2.83,0,0,1,2.82-2.82h0a2.82,2.82,0,0,1,2.82,2.82v18.86a.5.5,0,0,0,1,0v-9.54a2.82,2.82,0,0,1,5.64,0v9.71a.5.5,0,0,0,.5.5.5.5,0,0,0,.5-.5v-7.26a2.82,2.82,0,1,1,5.63,0v7.26a.5.5,0,0,0,.5.5.5.5,0,0,0,.5-.5v-4.47a2.82,2.82,0,0,1,5.64,0Z" fill="#231f20"/><path d="M144.86,136.43l-21-21a.51.51,0,0,0-.71,0l-3.75,3.75a.51.51,0,0,0,0,.7l14.34,14.34a.49.49,0,0,1,.11.55.51.51,0,0,1-.46.3H100.91v6.31H133.4a.5.5,0,0,1,.46.31.48.48,0,0,1-.11.54l-14.34,14.34a.5.5,0,0,0-.14.35.52.52,0,0,0,.14.36l3.75,3.75a.53.53,0,0,0,.71,0l21-21a2.65,2.65,0,0,0,0-3.63Z" fill="#fdd600"/><path d="M144.06,134.23l-21-21a1.53,1.53,0,0,0-2.12,0L117.21,117a1.5,1.5,0,0,0,0,2.12l13.48,13.48H98.91a.51.51,0,0,0-.5.5v7.31a.51.51,0,0,0,.5.5h31.78l-13.48,13.48a1.5,1.5,0,0,0,0,2.12l3.75,3.75a1.46,1.46,0,0,0,1.06.44,1.47,1.47,0,0,0,1.06-.44l21-21a3.62,3.62,0,0,0,0-5Zm-.7,4.33-21,21a.53.53,0,0,1-.71,0l-3.75-3.75a.52.52,0,0,1-.14-.36.5.5,0,0,1,.14-.35l14.34-14.34a.48.48,0,0,0,.11-.54.5.5,0,0,0-.46-.31H99.41v-6.31H131.9a.51.51,0,0,0,.46-.3.49.49,0,0,0-.11-.55L117.91,118.4a.51.51,0,0,1,0-.7l3.75-3.75a.51.51,0,0,1,.71,0l21,21a2.65,2.65,0,0,1,0,3.63Z" fill="#231f20"/><path d="M285.54,207.27a2.09,2.09,0,0,0-.14-.17,4.15,4.15,0,0,0-.34-.37l-.19-.17-.09-.07-.15-.1-.22-.14-.28-.13a1.5,1.5,0,0,1-.73-.58,1.73,1.73,0,0,1-.27-.64,4.81,4.81,0,0,0,0-.58,1.15,1.15,0,0,0-.1-.49c-.15-.18-.36-.09-.8-.28l-.29-.14-.2-.13-.09-.07a4.33,4.33,0,0,1-.86-.86c-.1-.13-.21-.27-.31-.43a4.82,4.82,0,0,1-.26-.42,3.9,3.9,0,0,1-.33-1,3.45,3.45,0,0,1-.08-.65l0,0a2.72,2.72,0,0,1,.06-.55,3,3,0,0,1,.38-.94c.12-.19.12-.21.11-.24s-.22-.29-.47-.49a1.52,1.52,0,0,0-.3-.21l0,.05-.13-.15c-.29-.31-.3-.26-.38-.37-.31-.43-.14-1-.24-1.45a1.53,1.53,0,0,1-.07-.36c0-.05,0-.11,0-.14s-.1,0-.19,0a4,4,0,0,1-.46,0h-38a4.57,4.57,0,0,1-.14,1,5.81,5.81,0,0,1-.26.8c-.11.26-.12.32-.1.39s0,.05.22.15a1.65,1.65,0,0,1,.79.7c.31.56.2,1.13,0,2.17a4.85,4.85,0,0,1-.42,1.4,3.48,3.48,0,0,1-.46.7c-.1.13-.1.14-.1.17,0,.24.3.57.73,1a3.19,3.19,0,0,0,.43.4,1.25,1.25,0,0,1,.4.46,1.9,1.9,0,0,1,.17,1.29,3,3,0,0,0,0,.7,4.35,4.35,0,0,0,.69,1.93,5.2,5.2,0,0,0,.54.83,5.62,5.62,0,0,1,.67,1.08,4.69,4.69,0,0,1,.62,1.69,3.9,3.9,0,0,1-.33,1.92c0,.1-.08.22-.11.31l.23,0a1.11,1.11,0,0,1,1.14.34,1,1,0,0,1,0,1,.77.77,0,0,0-.08.52c0,.11.05.13.18.24a1.85,1.85,0,0,1,.54.68,1.88,1.88,0,0,1,.14,1,9.62,9.62,0,0,0,0,1.07,7.29,7.29,0,0,0,.07.78,1.42,1.42,0,0,1,0,.61,2.62,2.62,0,0,1-.49,1h0l-.15.15-.17.2a2.27,2.27,0,0,1,.92.88,1.59,1.59,0,0,1,.12.27l18.32,0,11.53,0a1.72,1.72,0,0,1,.69.29,1.84,1.84,0,0,1,.31.24,1.74,1.74,0,0,1,.44,1,4.68,4.68,0,0,0,.26.47,4,4,0,0,0,.37.5,1.73,1.73,0,0,0,.11-1c0-.14-.09-.27-.14-.4a1.22,1.22,0,0,1,.8-1.87c.54-.25.94-.39,1.24-.5.46-.17.56-.22.63-.32a.25.25,0,0,0,0-.12,2,2,0,0,1,.18-.75,3.21,3.21,0,0,1,.41-.72,1.15,1.15,0,0,0,.22-.35,1.45,1.45,0,0,0,.07-1.07c-.06-.13-.1-.11-.47-.45s-.58-.53-.63-.71-.08-.42.36-.92a2,2,0,0,0,.3-.33,1.82,1.82,0,0,0,.13-.22,1,1,0,0,0,.1-.38,1.45,1.45,0,0,1,.14-.52c.31-.62.89-.75,1.57-.89a8.33,8.33,0,0,0,1.36-.37c.7-.27,1.66-.63,1.94-1.35a1.12,1.12,0,0,0,.07-.47,4.07,4.07,0,0,1,.09-.91,2.53,2.53,0,0,1,.54-1.11,1,1,0,0,0,.18-.3h0a.63.63,0,0,0,0-.11A24.62,24.62,0,0,0,285.54,207.27Zm-10.82,14.44a.45.45,0,0,1,.12.06l.08.07ZM277,210.33l-2.28,2.28-2.28-2.28a1.12,1.12,0,0,1,0-1.57,1.09,1.09,0,0,1,.79-.32,1.07,1.07,0,0,1,.78.32l.36.35a.5.5,0,0,0,.71,0l.35-.35a1.11,1.11,0,0,1,1.57,1.57Zm2.26-12c0-.06,0-.12,0-.15h0C279.31,198.24,279.3,198.29,279.3,198.34Z" fill="#fdd600"/><path d="M275.12,209.11l.11-.11a2,2,0,0,0-1-.1l.22.21A.5.5,0,0,0,275.12,209.11Z" fill="none"/><path d="M245.56,219.82a7.29,7.29,0,0,1-.07-.78,9.62,9.62,0,0,1,0-1.07,1.88,1.88,0,0,0-.14-1,1.85,1.85,0,0,0-.54-.68c-.13-.11-.16-.13-.18-.24a.77.77,0,0,1,.08-.52,1,1,0,0,0,0-1,1.11,1.11,0,0,0-1.14-.34l-.23,0c0-.09.08-.21.11-.31a3.9,3.9,0,0,0,.33-1.92,4.69,4.69,0,0,0-.62-1.69,5.62,5.62,0,0,0-.67-1.08,5.2,5.2,0,0,1-.54-.83,4.35,4.35,0,0,1-.69-1.93,3,3,0,0,1,0-.7,1.9,1.9,0,0,0-.17-1.29,1.25,1.25,0,0,0-.4-.46,3.19,3.19,0,0,1-.43-.4c-.43-.46-.74-.79-.73-1,0,0,0,0,.1-.17a3.48,3.48,0,0,0,.46-.7,4.85,4.85,0,0,0,.42-1.4c.21-1,.32-1.61,0-2.17a1.65,1.65,0,0,0-.79-.7c-.2-.1-.21-.11-.22-.15s0-.13.1-.39a5.81,5.81,0,0,0,.26-.8,4.57,4.57,0,0,0,.14-1h37.31c0-.12,0-.24,0-.35a3.32,3.32,0,0,0,0-.42,4.7,4.7,0,0,0-.14-.73H238.55a4.57,4.57,0,0,1-.14,1,5.81,5.81,0,0,1-.26.8c-.11.26-.12.32-.1.39s0,.05.22.15a1.71,1.71,0,0,1,.79.7c.31.56.2,1.13,0,2.17a4.85,4.85,0,0,1-.42,1.4,3.48,3.48,0,0,1-.46.7c-.1.13-.1.14-.1.17,0,.24.3.57.73,1a3.19,3.19,0,0,0,.43.4,1.25,1.25,0,0,1,.4.46,1.9,1.9,0,0,1,.17,1.29,3,3,0,0,0,0,.7,4.38,4.38,0,0,0,.7,1.93,5.28,5.28,0,0,0,.53.83,5.62,5.62,0,0,1,.67,1.08,4.69,4.69,0,0,1,.62,1.69,3.9,3.9,0,0,1-.33,1.92c0,.1-.08.22-.11.31l.23,0a1.11,1.11,0,0,1,1.14.34,1,1,0,0,1,0,1,.77.77,0,0,0-.08.52c0,.11.05.13.18.24a1.85,1.85,0,0,1,.54.68,1.88,1.88,0,0,1,.14,1,9.72,9.72,0,0,0,0,1.07,7.29,7.29,0,0,0,.07.78,1.42,1.42,0,0,1,0,.61,2.84,2.84,0,0,1-.71,1.26l-.07.08a2.11,2.11,0,0,1,.59.41,1.92,1.92,0,0,1,.45.74h.75a2.62,2.62,0,0,0,.49-1A1.42,1.42,0,0,0,245.56,219.82Z" fill="none"/><path d="M283.28,205l-.15-.09a1.73,1.73,0,0,0,.27.64,1.5,1.5,0,0,0,.73.58l.28.13A6.18,6.18,0,0,0,283.28,205Z" fill="none"/><path d="M281.61,203.21a2.75,2.75,0,0,1,0-.39c0-.29,0-.39-.1-.49s-.09-.08-.28-.12a2.6,2.6,0,0,1-.77-.29c.1.16.21.3.31.43A4.33,4.33,0,0,0,281.61,203.21Z" fill="none"/><path d="M276.22,224a1.92,1.92,0,0,0,.12-.68,1.71,1.71,0,0,0-.76-.3A4.1,4.1,0,0,0,276.22,224Z" fill="none"/><path d="M278.72,195.19a.7.7,0,0,0,0-.14h-.19A1.38,1.38,0,0,1,278.72,195.19Z" fill="#fdd600"/><path d="M279.3,198.34c0-.05,0-.1,0-.15h0S279.28,198.28,279.3,198.34Z" fill="none"/><path d="M274.72,221.71l.2.13-.08-.07A.45.45,0,0,0,274.72,221.71Z" fill="none"/><path d="M285.56,206.13a8.77,8.77,0,0,0-1.68-1.94,4.76,4.76,0,0,0-.85-.49c-.19-.08-.22-.1-.3-.21a1.09,1.09,0,0,1-.14-.67,1.57,1.57,0,0,0-.37-1.17,1.29,1.29,0,0,0-.79-.41,1.79,1.79,0,0,1-.67-.29,3.06,3.06,0,0,1-.72-.72l-.25-.33a2.69,2.69,0,0,1-.37-.72,2.29,2.29,0,0,1-.09-1.13,1.56,1.56,0,0,1,.24-.58l0,0a1.21,1.21,0,0,0,.22-1,2.05,2.05,0,0,0-.79-1,3.15,3.15,0,0,0-.3-.22,1.38,1.38,0,0,0-.22-.13h0c-.08-.05-.09-.05-.1-.08s0-.07,0-.27a3.85,3.85,0,0,0,0-.54,7.28,7.28,0,0,0-.27-1.26.5.5,0,0,0-.48-.35H238a.5.5,0,0,0-.5.54,3.78,3.78,0,0,1-.1,1.26,4.19,4.19,0,0,1-.22.66,1.48,1.48,0,0,0-.13,1.07,1.3,1.3,0,0,0,.73.75.7.7,0,0,1,.37.29c.12.23.05.62-.12,1.49a4,4,0,0,1-.34,1.14,2.31,2.31,0,0,1-.34.53,1.21,1.21,0,0,0-.32.74c0,.66.4,1.12,1,1.76a3.76,3.76,0,0,0,.53.49c.11.09.12.1.16.17a1.07,1.07,0,0,1,.05.69,4.31,4.31,0,0,0-.05.86,5.25,5.25,0,0,0,.81,2.36,5.74,5.74,0,0,0,.62,1,4.77,4.77,0,0,1,.58.93,3.78,3.78,0,0,1,.52,1.35A3,3,0,0,1,241,212c-.17.44-.36.94,0,1.36a1.29,1.29,0,0,0,1.14.28h.12a1.75,1.75,0,0,0-.1,1.09,1.34,1.34,0,0,0,.5.77.82.82,0,0,1,.29.34.94.94,0,0,1,0,.52,9.41,9.41,0,0,0,0,1.18,8.63,8.63,0,0,0,.08.9.44.44,0,0,1,0,.23,2,2,0,0,1-.5.84,1.08,1.08,0,0,0-.37,1.1,1,1,0,0,0,.58.52.89.89,0,0,1,.35.22,1.17,1.17,0,0,1,.3.63.51.51,0,0,0,.49.41h1.62c16.27,0,27.18,0,28,0a1,1,0,0,1,.66.15.79.79,0,0,1,.24.37l0,.1a5.66,5.66,0,0,0,1.5,2.15.49.49,0,0,0,.35.13h.06a.48.48,0,0,0,.36-.24,3.74,3.74,0,0,0,.31-.59,2.82,2.82,0,0,0,.21-1.73,4.26,4.26,0,0,0-.17-.54.88.88,0,0,1-.12-.4,2,2,0,0,1,.39-.2c.52-.23.9-.37,1.18-.48a1.88,1.88,0,0,0,1.12-.72,1.1,1.1,0,0,0,.18-.58,1.2,1.2,0,0,1,.12-.44,1.54,1.54,0,0,1,.28-.49,2.36,2.36,0,0,0,.35-.6c.05-.14.09-.27.13-.41a2.16,2.16,0,0,0-.08-1.43,1.43,1.43,0,0,0-.12-.21,2.15,2.15,0,0,0-.73-.68l-.11-.07,0,0a2.43,2.43,0,0,0,.62-.81,2,2,0,0,0,.2-.71.37.37,0,0,1,0-.18c.08-.17.29-.23.87-.35A9.47,9.47,0,0,0,283,213a3.94,3.94,0,0,0,2.52-1.93,2,2,0,0,0,.14-.83,2.94,2.94,0,0,1,.07-.7,1.62,1.62,0,0,1,.36-.72,2.44,2.44,0,0,0,.29-.48,1.5,1.5,0,0,0,.1-.55C286.46,207.34,286.14,206.91,285.56,206.13Zm-.29,2.11a2.53,2.53,0,0,0-.54,1.11,4.07,4.07,0,0,0-.09.91,1.1,1.1,0,0,1-.07.47c-.28.72-1.24,1.08-1.94,1.35a8.33,8.33,0,0,1-1.36.37c-.68.14-1.26.27-1.57.89a1.45,1.45,0,0,0-.14.52,1,1,0,0,1-.1.38,1.56,1.56,0,0,1-.4.51,1,1,0,0,0-.41.8,1.11,1.11,0,0,0,.65.87,1.14,1.14,0,0,1,.47.45,1.41,1.41,0,0,1-.07,1.07,1,1,0,0,1-.22.35,3.21,3.21,0,0,0-.41.72,2,2,0,0,0-.18.75.25.25,0,0,1,0,.12c-.07.1-.17.15-.63.32-.3.11-.7.25-1.24.5a1.22,1.22,0,0,0-.8,1.87c.05.13.1.26.14.4a1.51,1.51,0,0,1,0,.3,1.92,1.92,0,0,1-.12.68,4.1,4.1,0,0,1-.64-1c0-.1-.1-.19-.13-.29a1.87,1.87,0,0,0-.61-.91,1.83,1.83,0,0,0-1.16-.36h-.18c-.87.05-14.05,0-28.45,0h-.75a1.92,1.92,0,0,0-.45-.74,2.11,2.11,0,0,0-.59-.41l.07-.08a2.84,2.84,0,0,0,.71-1.26,1.42,1.42,0,0,0,0-.61,7.29,7.29,0,0,1-.07-.78,9.72,9.72,0,0,1,0-1.07,1.88,1.88,0,0,0-.14-1,1.85,1.85,0,0,0-.54-.68c-.13-.11-.16-.13-.18-.24a.77.77,0,0,1,.08-.52,1,1,0,0,0,0-1,1.11,1.11,0,0,0-1.14-.34l-.23,0c0-.09.08-.21.11-.31a3.9,3.9,0,0,0,.33-1.92,4.69,4.69,0,0,0-.62-1.69,5.62,5.62,0,0,0-.67-1.08,5.28,5.28,0,0,1-.53-.83,4.38,4.38,0,0,1-.7-1.93,3,3,0,0,1,0-.7,1.9,1.9,0,0,0-.17-1.29,1.25,1.25,0,0,0-.4-.46,3.19,3.19,0,0,1-.43-.4c-.43-.46-.74-.79-.73-1,0,0,0,0,.1-.17a3.48,3.48,0,0,0,.46-.7,4.85,4.85,0,0,0,.42-1.4c.21-1,.32-1.61,0-2.17a1.71,1.71,0,0,0-.79-.7c-.2-.1-.21-.11-.22-.15s0-.13.1-.39a5.81,5.81,0,0,0,.26-.8,4.57,4.57,0,0,0,.14-1h38.64a4.7,4.7,0,0,1,.14.73,3.32,3.32,0,0,1,0,.42c0,.11,0,.23,0,.35a1.14,1.14,0,0,0,.17.45,1.1,1.1,0,0,0,.48.43,1.57,1.57,0,0,1,.36.25c.25.2.44.36.47.49s0,.05-.11.24a3,3,0,0,0-.38.94,3.1,3.1,0,0,0,.12,1.63,4.12,4.12,0,0,0,.78,1.37,4.2,4.2,0,0,0,.95.93,1.49,1.49,0,0,0,.24.14,2.6,2.6,0,0,0,.77.29c.19,0,.22,0,.28.12s.1.2.1.49a2.75,2.75,0,0,0,0,.39,1.66,1.66,0,0,0,.29.83,1.5,1.5,0,0,0,.73.58,3,3,0,0,1,.5.28l.15.09a6.18,6.18,0,0,1,1.13,1.26l.35.47a4.76,4.76,0,0,1,.7,1.1C285.46,208,285.42,208,285.27,208.24Z" fill="#231f20"/><path d="M277.75,208.05a2.12,2.12,0,0,0-3,0,2.11,2.11,0,0,0-3,3l2.63,2.63a.49.49,0,0,0,.35.15.51.51,0,0,0,.36-.15l2.63-2.63A2.12,2.12,0,0,0,277.75,208.05Zm-.71,2.28-2.28,2.28-2.28-2.28a1.12,1.12,0,0,1,0-1.57,1.09,1.09,0,0,1,.79-.32,1.07,1.07,0,0,1,.78.32l.36.35a.5.5,0,0,0,.71,0l.35-.35a1.11,1.11,0,0,1,1.57,1.57Z" fill="#231f20"/><path d="M354.74,206.5a2.91,2.91,0,0,0-.65-.37,1.5,1.5,0,0,1-.73-.58,2,2,0,0,1-.31-1.22c0-.29,0-.39-.1-.49s-.09-.07-.28-.11a2.7,2.7,0,0,1-1-.44,4.13,4.13,0,0,1-.94-.93,3.69,3.69,0,0,1-.78-1.36,3.18,3.18,0,0,1-.13-1.63,2.58,2.58,0,0,1,.39-.93c.12-.2.12-.21.11-.25s-.23-.28-.47-.49a2.18,2.18,0,0,0-.36-.24A1.2,1.2,0,0,1,349,197a1.23,1.23,0,0,1-.18-.8,3.26,3.26,0,0,0,0-.41,4.7,4.7,0,0,0-.14-.73H310.1a5.2,5.2,0,0,1-.14,1,4.2,4.2,0,0,1-.27.79c-.1.27-.12.33-.1.39s0,.06.22.16a1.61,1.61,0,0,1,.79.7c.31.55.2,1.13,0,2.17a4.56,4.56,0,0,1-.42,1.38,3.39,3.39,0,0,1-.45.71c-.1.13-.1.13-.11.17,0,.23.3.56.73,1a5.24,5.24,0,0,0,.43.4,1.33,1.33,0,0,1,.4.46,1.9,1.9,0,0,1,.17,1.29,4.72,4.72,0,0,0,0,.7,4.38,4.38,0,0,0,.7,1.93,5.1,5.1,0,0,0,.53.82,5.62,5.62,0,0,1,.67,1.08,4.69,4.69,0,0,1,.62,1.69,3.83,3.83,0,0,1-.33,1.91c0,.1-.08.22-.11.31l.23,0a1.13,1.13,0,0,1,1.13.34,1,1,0,0,1,0,1,.84.84,0,0,0-.08.52c0,.1.05.13.18.24a1.86,1.86,0,0,1,.55.68,1.75,1.75,0,0,1,.13,1,8.18,8.18,0,0,0,0,1.07,6.25,6.25,0,0,0,.06.79,1.36,1.36,0,0,1,0,.6,2.94,2.94,0,0,1-.72,1.26l-.06.08a1.91,1.91,0,0,1,.59.41,2.25,2.25,0,0,1,.45.73c14.66,0,28.26.05,29.13,0h.18a1.86,1.86,0,0,1,1.17.37,1.81,1.81,0,0,1,.6.9,3.86,3.86,0,0,0,.77,1.27,1.69,1.69,0,0,0,.11-1,3.09,3.09,0,0,0-.14-.4,1.5,1.5,0,0,1-.09-1.17,1.45,1.45,0,0,1,.89-.7c.54-.25.94-.4,1.24-.51.46-.17.56-.21.62-.31s0,0,0-.12a2.12,2.12,0,0,1,.19-.75,2.35,2.35,0,0,1,.41-.71,1.26,1.26,0,0,0,.21-.36,1.46,1.46,0,0,0,.08-1.07,1,1,0,0,0-.48-.44,1.1,1.1,0,0,1-.64-.87,1,1,0,0,1,.41-.8,1.88,1.88,0,0,0,.4-.51.93.93,0,0,0,.1-.38,1.3,1.3,0,0,1,.14-.52c.3-.62.89-.74,1.56-.88a8.48,8.48,0,0,0,1.36-.38c.7-.26,1.66-.63,1.93-1.34a1,1,0,0,0,.08-.48,3.94,3.94,0,0,1,.09-.9,2.65,2.65,0,0,1,.53-1.11c.15-.2.2-.27.2-.42a4.72,4.72,0,0,0-.71-1.09A7.8,7.8,0,0,0,354.74,206.5Z" fill="#fdd600"/><path d="M355.52,206.13a8.26,8.26,0,0,0-1.69-1.93,3.94,3.94,0,0,0-.84-.49c-.19-.08-.22-.1-.3-.21a1.07,1.07,0,0,1-.14-.67,1.58,1.58,0,0,0-.36-1.16,1.37,1.37,0,0,0-.79-.42,1.62,1.62,0,0,1-.67-.28,3.36,3.36,0,0,1-.73-.73,3,3,0,0,1-.61-1,2.25,2.25,0,0,1-.1-1.13,1.78,1.78,0,0,1,.27-.62,1.23,1.23,0,0,0,.22-1,2,2,0,0,0-.8-1,2.59,2.59,0,0,0-.51-.35c-.11-.06-.11-.07-.13-.1s0-.06,0-.26a3.71,3.71,0,0,0,0-.54,7.09,7.09,0,0,0-.27-1.26.5.5,0,0,0-.48-.35H308.08a.5.5,0,0,0-.49.54,4.06,4.06,0,0,1-.1,1.26,6.3,6.3,0,0,1-.22.66,1.46,1.46,0,0,0-.13,1.06,1.24,1.24,0,0,0,.72.75.7.7,0,0,1,.37.29c.13.23.06.62-.12,1.49a4.34,4.34,0,0,1-.33,1.14,2.44,2.44,0,0,1-.34.52,1.19,1.19,0,0,0-.32.75c0,.66.4,1.12,1,1.75a4.9,4.9,0,0,0,.53.5c.11.08.12.09.16.16s.09.34.05.69a4.26,4.26,0,0,0-.05.86,5.29,5.29,0,0,0,.81,2.36,6.74,6.74,0,0,0,.62,1,4.81,4.81,0,0,1,.58.92,4.11,4.11,0,0,1,.52,1.34,3,3,0,0,1-.27,1.45c-.17.44-.36.94,0,1.36a1.27,1.27,0,0,0,1.13.28h.13a1.82,1.82,0,0,0-.11,1.09,1.31,1.31,0,0,0,.51.76.87.87,0,0,1,.28.34c.07.15.07.21,0,.53a9.75,9.75,0,0,0,0,1.17,7.08,7.08,0,0,0,.07.9.43.43,0,0,1,0,.23,1.93,1.93,0,0,1-.49.84,1.08,1.08,0,0,0-.37,1.1.94.94,0,0,0,.57.51,1.06,1.06,0,0,1,.36.22,1.32,1.32,0,0,1,.29.63.49.49,0,0,0,.49.41c17.14,0,28.72.05,29.6,0a1,1,0,0,1,.66.15.88.88,0,0,1,.27.46,5.66,5.66,0,0,0,1.5,2.15.51.51,0,0,0,.35.13h.06a.52.52,0,0,0,.37-.24,3.12,3.12,0,0,0,.51-2.31,3.44,3.44,0,0,0-.17-.54c-.09-.22-.14-.36-.12-.4a2,2,0,0,1,.39-.2c.51-.23.89-.37,1.18-.48a1.92,1.92,0,0,0,1.12-.72,1.2,1.2,0,0,0,.18-.58,1.13,1.13,0,0,1,.11-.44,2.28,2.28,0,0,1,.28-.49,1.83,1.83,0,0,0,.35-.59,2.37,2.37,0,0,0,.06-1.84,2,2,0,0,0-.86-.89l-.1-.07,0,0a2.54,2.54,0,0,0,.62-.81,1.73,1.73,0,0,0,.19-.71.53.53,0,0,1,0-.18c.09-.17.3-.22.87-.34a9.66,9.66,0,0,0,1.51-.42,4,4,0,0,0,2.52-1.92,2.08,2.08,0,0,0,.14-.84,2.87,2.87,0,0,1,.07-.69,1.61,1.61,0,0,1,.35-.72,1.58,1.58,0,0,0,.4-1C356.41,207.35,356.11,206.94,355.52,206.13Zm-.3,2.11a2.65,2.65,0,0,0-.53,1.11,3.94,3.94,0,0,0-.09.9,1,1,0,0,1-.08.48c-.27.71-1.23,1.08-1.93,1.34a8.48,8.48,0,0,1-1.36.38c-.67.14-1.26.26-1.56.88a1.3,1.3,0,0,0-.14.52.93.93,0,0,1-.1.38,1.71,1.71,0,0,1-.4.51,1,1,0,0,0-.41.8,1.12,1.12,0,0,0,.64.87,1,1,0,0,1,.48.45,1.48,1.48,0,0,1-.07,1.06,1.57,1.57,0,0,1-.22.36,2.59,2.59,0,0,0-.41.71,2.12,2.12,0,0,0-.19.75c0,.08,0,.08,0,.12s-.16.14-.62.31c-.3.11-.7.26-1.24.51a1.45,1.45,0,0,0-.89.7,1.5,1.5,0,0,0,.09,1.17,3.09,3.09,0,0,1,.14.4,1.69,1.69,0,0,1-.11,1,3.86,3.86,0,0,1-.77-1.27,1.81,1.81,0,0,0-.6-.9,1.86,1.86,0,0,0-1.17-.37h-.18c-.87.05-14.47,0-29.13,0a2.25,2.25,0,0,0-.45-.73,1.91,1.91,0,0,0-.59-.41l.06-.08a2.84,2.84,0,0,0,.72-1.26,1.36,1.36,0,0,0,0-.6,6.25,6.25,0,0,1-.06-.79,8.18,8.18,0,0,1,0-1.07,1.74,1.74,0,0,0-.68-1.7c-.13-.11-.15-.14-.18-.24a.84.84,0,0,1,.08-.52,1,1,0,0,0,0-1,1.13,1.13,0,0,0-1.13-.34l-.23,0c0-.09.07-.21.11-.31a3.83,3.83,0,0,0,.33-1.91,4.69,4.69,0,0,0-.62-1.69,5.62,5.62,0,0,0-.67-1.08,5.1,5.1,0,0,1-.53-.82,4.38,4.38,0,0,1-.7-1.93,4.72,4.72,0,0,1,0-.7,1.9,1.9,0,0,0-.17-1.29,1.33,1.33,0,0,0-.4-.46,5.24,5.24,0,0,1-.43-.4c-.43-.46-.74-.79-.73-1,0,0,0,0,.11-.17a3.39,3.39,0,0,0,.45-.71,4.56,4.56,0,0,0,.42-1.38c.21-1,.33-1.62,0-2.17a1.67,1.67,0,0,0-.8-.7c-.19-.1-.21-.12-.22-.16s0-.12.1-.39a4.2,4.2,0,0,0,.27-.79,5.2,5.2,0,0,0,.14-1h38.56a4.7,4.7,0,0,1,.14.73,3.26,3.26,0,0,1,0,.41,1.23,1.23,0,0,0,.18.8,1.2,1.2,0,0,0,.48.44,2.18,2.18,0,0,1,.36.24c.24.21.44.37.47.49s0,.05-.11.25a2.58,2.58,0,0,0-.39.93,3.18,3.18,0,0,0,.13,1.63,3.69,3.69,0,0,0,.78,1.36,4.13,4.13,0,0,0,.94.93,2.7,2.7,0,0,0,1,.44c.19,0,.22.05.28.11s.1.2.1.49a2,2,0,0,0,.31,1.22,1.5,1.5,0,0,0,.73.58,2.91,2.91,0,0,1,.65.37,7.8,7.8,0,0,1,1.47,1.73,4.72,4.72,0,0,1,.71,1.09C355.42,208,355.37,208,355.22,208.24Z" fill="#231f20"/><circle cx="209.52" cy="366.42" r="7.14" fill="#fdd600"/><circle cx="177.03" cy="366.42" r="7.14" fill="#fdd600"/><path d="M208,356.79a8,8,0,0,0-2.32.34L200.58,344a.49.49,0,0,0-.45-.31c-.88,0-1.56,0-2.07,0a1.13,1.13,0,0,1-.67-.09.91.91,0,0,1-.23-.58.51.51,0,0,0-.53-.46.5.5,0,0,0-.46.54,1.73,1.73,0,0,0,.61,1.29,1.92,1.92,0,0,0,1.35.29c.39,0,.94,0,1.64,0l2.21,5.69-18.54,0-1.06-2.37h2.08a.51.51,0,0,0,.5-.5.5.5,0,0,0-.5-.5H179a.5.5,0,0,0-.5.5.5.5,0,0,0,.5.5h2.35a.2.2,0,0,0,0,.07l1.25,2.77-3.67,6.81a7.93,7.93,0,0,0-3.41-.76,8.14,8.14,0,1,0,8.11,8.63h3.68a2.14,2.14,0,0,0,4.14-.75,2.27,2.27,0,0,0-.14-.75l11.34-12,2.15,5.52a8.13,8.13,0,1,0,3.26-.68Zm-32.54,15.27a7.14,7.14,0,0,1,0-14.27,7.06,7.06,0,0,1,2.94.64l-2.7,5-.24,0a1.53,1.53,0,1,0,1.44,2h5.67A7.14,7.14,0,0,1,175.48,372.06Zm1.44-7.64a1.56,1.56,0,0,0-.32-.52l2.7-5a7.13,7.13,0,0,1,3.29,5.52Zm10.23,0h-3.56a8.13,8.13,0,0,0-3.82-6.4l3.31-6.13,5,11A2.11,2.11,0,0,0,187.15,364.42Zm3.54-1.34a2.13,2.13,0,0,0-1.42-.55l-.3,0-5.08-11.29,18,0Zm17.33,9a7.13,7.13,0,0,1-2.9-13.65l2.08,5.34a1.52,1.52,0,0,0-.56,1.17,1.53,1.53,0,1,0,3.05,0,1.52,1.52,0,0,0-1.52-1.52h0l-2.08-5.33a7,7,0,0,1,2-.28,7.14,7.14,0,0,1,0,14.27Z" fill="#231f20"/><circle cx="193.27" cy="198.92" r="12.25" fill="#fdd600"/><path d="M205,197.4a13.27,13.27,0,1,0-16.68,12.81l1.46,23.19a.51.51,0,0,0,.5.47h3.21a.5.5,0,0,0,.5-.48l1.17-23.18A13.29,13.29,0,0,0,205,197.4Zm-14.25,35.47-1.41-22.42a13.53,13.53,0,0,0,2.39.22,12.81,12.81,0,0,0,2.42-.23L193,232.87Zm1-23.2A12.27,12.27,0,1,1,204,197.4,12.28,12.28,0,0,1,191.75,209.67Z" fill="#231f20"/><path d="M187,189a10.13,10.13,0,0,0-4.4,5.75,9.91,9.91,0,0,0,.16,5.82.49.49,0,0,0,.47.34l.16,0a.51.51,0,0,0,.31-.64,9,9,0,0,1-.14-5.23,9.11,9.11,0,0,1,4-5.17.49.49,0,0,0,.16-.68A.5.5,0,0,0,187,189Z" fill="#231f20"/><path d="M135,192a15.6,15.6,0,0,0-27.38,10.25c0,3.5,3.14,9.44,3.17,9.5l12.45,22,.33-.58,12.12-21.46c0-.05,3.17-6,3.17-9.49A15.52,15.52,0,0,0,135,192ZM121.75,212a11.24,11.24,0,0,1-11.18-11.18c0-6.93,6.46-11.17,11.18-11.17a11,11,0,0,1,4.07.78,11.19,11.19,0,0,1,7.11,10.39A11.35,11.35,0,0,1,121.75,212Z" fill="#fdd600"/><path d="M137.89,196.9a16.61,16.61,0,0,0-32.76,3.89c0,3.75,3.16,9.72,3.3,10l12.88,22.81a.51.51,0,0,0,.88,0l.46-.83,12.43-22c.13-.25,3.29-6.22,3.29-10A16.13,16.13,0,0,0,137.89,196.9Zm-3.69,13.38-12.12,21.46-.33.57-12.45-22c0-.06-3.17-6-3.17-9.5a15.62,15.62,0,0,1,31.24,0C137.37,204.29,134.23,210.23,134.2,210.28Z" fill="#231f20"/><path d="M121.75,188.62a12.2,12.2,0,1,0,9.32,4.35A12.19,12.19,0,0,0,121.75,188.62Zm0,23.35a11.24,11.24,0,0,1-11.18-11.18c0-6.93,6.46-11.17,11.18-11.17a11,11,0,0,1,4.07.78,11.19,11.19,0,0,1,7.11,10.39A11.35,11.35,0,0,1,121.75,212Z" fill="#231f20"/><path d="M392.57,426.58a9,9,0,1,0-3.18-6.85A9,9,0,0,0,392.57,426.58Zm5.79-14.81a8,8,0,1,1-8,8A8,8,0,0,1,398.36,411.77Z" fill="#231f20"/><path d="M414.66,442.06a2.94,2.94,0,0,0,.52-1.59,2.43,2.43,0,0,0-.7-1.84,1.91,1.91,0,0,0-.35-.27,8.4,8.4,0,0,1,.53,2.92Z" fill="none"/><path d="M404.83,442.76a7.68,7.68,0,0,1,7.13-7.65,8.39,8.39,0,0,0-5.21-2.25.53.53,0,0,1-.28,0H393.56a8.43,8.43,0,0,0-8,8.43v18.05h29.1v-9.2a7.67,7.67,0,0,1-9.83-7.37Z" fill="#fdd600"/><path d="M410.6,438.62a2.21,2.21,0,0,0-.76,1.73.09.09,0,0,0,0,.09.12.12,0,0,0,.09,0h1.16a.13.13,0,0,0,.13-.12,1,1,0,0,1,.35-.82,1.35,1.35,0,0,1,.94-.31,1.2,1.2,0,0,1,.92.33,1.36,1.36,0,0,1,.31.95,1.81,1.81,0,0,1-.49,1.19l-.83.85a3,3,0,0,0-.66,1,3.88,3.88,0,0,0-.18,1.22.16.16,0,0,0,0,.09l.09,0h1.17a.12.12,0,0,0,.12-.12,2.07,2.07,0,0,1,.42-1.38l.69-.68a5.11,5.11,0,0,0,.53-.66v-.78a8.4,8.4,0,0,0-.53-2.92,3,3,0,0,0-1.59-.4A2.83,2.83,0,0,0,410.6,438.62Z" fill="#fdd600"/><path d="M412.37,446a.81.81,0,0,0-.61.23.83.83,0,0,0-.2.56.82.82,0,0,0,.2.56.81.81,0,0,0,.61.23.77.77,0,0,0,.82-.79.84.84,0,0,0-.21-.56A.82.82,0,0,0,412.37,446Z" fill="#fdd600"/><path d="M421.19,442.76a8.68,8.68,0,0,0-8.68-8.68l-.34,0a9.43,9.43,0,0,0-7.25-4H391.79a9.45,9.45,0,0,0-9,9.44v18.54a.5.5,0,0,0,.5.5h30.1a.51.51,0,0,0,.5-.5v-6.76A8.69,8.69,0,0,0,421.19,442.76Zm-37.38-3.22a8.44,8.44,0,0,1,8-8.44h12.89a.5.5,0,0,0,.27,0,8.38,8.38,0,0,1,6,3.11,8.66,8.66,0,0,0-5,14.31v9.05H390.76V441.31a.51.51,0,0,0-.5-.5.5.5,0,0,0-.5.5v16.27h-5.95Zm23.23,18v-8.09a8.61,8.61,0,0,0,5.47,1.95l.4,0v6.16Zm5.47-7.14a7.68,7.68,0,1,1,7.68-7.68A7.68,7.68,0,0,1,412.51,450.44Z" fill="#231f20"/><path d="M414.13,442.72a3.28,3.28,0,0,0,1.05-2.25,2.43,2.43,0,0,0-.7-1.84,2.7,2.7,0,0,0-1.94-.67,2.83,2.83,0,0,0-1.94.66,2.21,2.21,0,0,0-.76,1.73.09.09,0,0,0,0,.09.12.12,0,0,0,.09,0h1.16a.13.13,0,0,0,.13-.12,1,1,0,0,1,.35-.82,1.35,1.35,0,0,1,.94-.31,1.2,1.2,0,0,1,.92.33,1.36,1.36,0,0,1,.31.95,1.81,1.81,0,0,1-.49,1.19l-.83.85a3,3,0,0,0-.66,1,3.88,3.88,0,0,0-.18,1.22.16.16,0,0,0,0,.09l.09,0h1.17a.12.12,0,0,0,.12-.12,2.07,2.07,0,0,1,.42-1.38Z" fill="#231f20"/><path d="M412.37,446a.81.81,0,0,0-.61.23.83.83,0,0,0-.2.56.82.82,0,0,0,.2.56.81.81,0,0,0,.61.23.77.77,0,0,0,.82-.79.84.84,0,0,0-.21-.56A.82.82,0,0,0,412.37,446Z" fill="#231f20"/><path d="M322.57,426.55a9,9,0,1,0-3.18-6.84A9,9,0,0,0,322.57,426.55Zm13.75-6.84a8,8,0,1,1-8-8A8,8,0,0,1,336.32,419.71Z" fill="#231f20"/><rect x="341.55" y="440.58" width="1.91" height="7.13" fill="#fdd600"/><path d="M342.51,439.73a1.08,1.08,0,0,0,.77-.28.93.93,0,0,0,.3-.71,1,1,0,0,0-.29-.71,1.11,1.11,0,0,0-.78-.28,1.09,1.09,0,0,0-.78.28,1,1,0,0,0-.29.71.93.93,0,0,0,.3.71A1.08,1.08,0,0,0,342.51,439.73Z" fill="#fdd600"/><path d="M334.83,442.73a7.68,7.68,0,0,1,7.07-7.65,8.42,8.42,0,0,0-5.17-2.2.46.46,0,0,1-.26,0h-12.9a8.44,8.44,0,0,0-8,8.44v18h29.1V450.1a7.67,7.67,0,0,1-9.83-7.37Z" fill="#fdd600"/><path d="M351.19,442.73a8.69,8.69,0,0,0-8.68-8.68l-.34,0a9.43,9.43,0,0,0-7.25-4H321.79a9.45,9.45,0,0,0-9,9.44v18.54a.5.5,0,0,0,.5.5h30.1a.51.51,0,0,0,.5-.5v-6.76A8.69,8.69,0,0,0,351.19,442.73Zm-37.38-3.22a8.45,8.45,0,0,1,8-8.44h12.89a.5.5,0,0,0,.27,0,8.42,8.42,0,0,1,6,3.11,8.66,8.66,0,0,0-5,14.31v9.05H320.76V441.29a.5.5,0,0,0-.5-.5.5.5,0,0,0-.5.5v16.26h-5.95Zm23.23,18v-8.08a8.66,8.66,0,0,0,5.47,1.94l.4,0v6.16Zm5.47-7.14a7.68,7.68,0,1,1,7.68-7.68A7.68,7.68,0,0,1,342.51,450.41Z" fill="#231f20"/><path d="M342.51,437.75a1.09,1.09,0,0,0-.78.28,1,1,0,0,0-.29.71.93.93,0,0,0,.3.71,1.2,1.2,0,0,0,1.54,0,.93.93,0,0,0,.3-.71,1,1,0,0,0-.29-.71A1.11,1.11,0,0,0,342.51,437.75Z" fill="#231f20"/><rect x="341.55" y="440.58" width="1.91" height="7.13" fill="#231f20"/></g><g id="b4e3c619-1668-4536-b2ff-6b6c50048893" data-name="CATEGORIES"><text transform="translate(95.35 72.41)" font-size="40" fill="#231f20" font-family="Antonio-Bold, Antonio" font-weight="700"><tspan letter-spacing="-0.01em">W</tspan><tspan x="26.58" y="0" letter-spacing="-0.02em">A</tspan><tspan x="44.96" y="0">YFINDING/TRANSPORT</tspan><tspan x="358.44" y="0" letter-spacing="-0.01em">A</tspan><tspan x="377.13" y="0">TION</tspan></text></g><g id="e9c02acc-4e0b-4647-a297-01d50efba21b" data-name="LABELS"><text transform="translate(237 239.13)" font-size="6" fill="#231f20" font-family="Roboto-Regular, Roboto">iowa-hea<tspan x="24.05" y="0" letter-spacing="0.02em">r</tspan><tspan x="26.23" y="0">t</tspan></text><text transform="translate(307.3 239.13)" font-size="6" fill="#231f20" font-family="Roboto-Regular, Roboto">iowa</text><text transform="translate(377 239.13)" font-size="6" fill="#231f20" font-family="Roboto-Regular, Roboto">united-states</text><text transform="translate(447 239.13)" font-size="6" fill="#231f20" font-family="Roboto-Regular, Roboto">cancel-p<tspan x="22.51" y="0" letter-spacing="-0.01em">r</tspan><tspan x="24.48" y="0">ohibited</tspan></text><text transform="translate(167.05 239.13)" font-size="6" fill="#231f20" font-family="Roboto-Regular, Roboto">map-pin-two</text><text transform="translate(97 543.4)" font-size="6" fill="#231f20" font-family="Roboto-Regular, Roboto">do-not-<tspan x="18.81" y="0" letter-spacing="-0.01em">t</tspan><tspan x="20.71" y="0">ouch</tspan></text><text transform="translate(167 543.4)" font-size="6" fill="#231f20" font-family="Roboto-Regular, Roboto">gauge-dashboa<tspan x="41.24" y="0" letter-spacing="-0.01em">r</tspan><tspan x="43.21" y="0">d</tspan></text><text transform="translate(447 388.15)" font-size="6" fill="#231f20" font-family="Roboto-Regular, Roboto">airplane</text><text transform="translate(97.12 388.15)" font-size="6" fill="#231f20" font-family="Roboto-Regular, Roboto">moped</text><text transform="translate(376.86 388.15)" font-size="6" fill="#231f20" font-family="Roboto-Regular, Roboto">ambulance</text><text transform="translate(306.68 388.15)" font-size="6" fill="#231f20" font-family="Roboto-Regular, Roboto">semi-truck</text><text transform="translate(237 388.15)" font-size="6" fill="#231f20" font-family="Roboto-Regular, Roboto">t<tspan x="1.96" y="0" letter-spacing="-0.02em">r</tspan><tspan x="3.87" y="0">ac</tspan><tspan x="10.28" y="0" letter-spacing="-0.01em">t</tspan><tspan x="12.18" y="0">or</tspan></text><text transform="translate(97 239.13)" font-size="6" fill="#231f20" font-family="Roboto-Regular, Roboto">map-pin</text><text transform="translate(307.01 465.27)" font-size="6" fill="#231f20" font-family="Roboto-Regular, Roboto">person-information</text><text transform="translate(376.86 465.27)" font-size="6" fill="#231f20" font-family="Roboto-Regular, Roboto">person-help</text><text transform="translate(446.91 465.27)" font-size="6" fill="#231f20" font-family="Roboto-Regular, Roboto">s<tspan x="3.09" y="0" letter-spacing="-0.01em">t</tspan><tspan x="5" y="0">op-sign</tspan></text><text transform="translate(166.89 388.15)" font-size="6" fill="#231f20" font-family="Roboto-Regular, Roboto">bi<tspan x="4.82" y="0" letter-spacing="-0.01em">k</tspan><tspan x="7.8" y="0">e</tspan></text><text transform="translate(97 312.89)" font-size="6" fill="#231f20" font-family="Roboto-Regular, Roboto">warning</text><text transform="translate(97 167.05)" font-size="6" fill="#231f20" font-family="Roboto-Regular, Roboto">ar<tspan x="5.29" y="0" letter-spacing="-0.01em">r</tspan><tspan x="7.27" y="0">ow-di</tspan><tspan x="21.69" y="0" letter-spacing="-0.01em">r</tspan><tspan x="23.67" y="0">ection</tspan></text><text transform="translate(166.89 167.05)" font-size="6" fill="#231f20" font-family="Roboto-Regular, Roboto">stairs up-down</text><text transform="translate(236.84 167.05)" font-size="6" fill="#231f20" font-family="Roboto-Regular, Roboto">stairs-down</text><text transform="translate(306.68 167.05)" font-size="6" fill="#231f20" font-family="Roboto-Regular, Roboto">stairs-up</text><text transform="translate(377.71 167.05)" font-size="6" fill="#231f20" font-family="Roboto-Regular, Roboto">stairs</text><text transform="translate(97 465.27)" font-size="6" fill="#231f20" font-family="Roboto-Regular, Roboto">helicopter</text><text transform="translate(166.84 465.27)" font-size="6" fill="#231f20" font-family="Roboto-Regular, Roboto"><tspan letter-spacing="-0.01em">r</tspan><tspan x="1.97" y="0">oc</tspan><tspan x="8.53" y="0" letter-spacing="-0.01em">k</tspan><tspan x="11.52" y="0">et</tspan></text><text transform="translate(236.84 465.27)" font-size="6" fill="#231f20" font-family="Roboto-Regular, Roboto">ship</text><text transform="translate(236.84 312.89)" font-size="6" fill="#231f20" font-family="Roboto-Regular, Roboto">cambus-f<tspan x="25.17" y="0" letter-spacing="-0.01em">r</tspan><tspan x="27.14" y="0">ont</tspan></text><text transform="translate(306.99 312.89)" font-size="6" fill="#231f20" font-family="Roboto-Regular, Roboto">cambus-side</text><text transform="translate(376.84 312.89)" font-size="6" fill="#231f20" font-family="Roboto-Regular, Roboto">car-f<tspan x="12.17" y="0" letter-spacing="-0.01em">r</tspan><tspan x="14.14" y="0">ont</tspan></text><text transform="translate(446.84 312.89)" font-size="6" fill="#231f20" font-family="Roboto-Regular, Roboto">car-side</text><text transform="translate(167.31 312.89)" font-size="6" fill="#231f20" font-family="Roboto-Regular, Roboto">pointer-finger</text><text transform="translate(446.84 167.05)" font-size="6" fill="#231f20" font-family="Roboto-Regular, Roboto">di<tspan x="4.84" y="0" letter-spacing="-0.01em">r</tspan><tspan x="6.81" y="0">ectional-sign</tspan></text></g></svg>