<svg xmlns="http://www.w3.org/2000/svg" viewBox="0 0 50 50"><defs><style>.cls-1{fill:#ffcd00;}.cls-2{font-size:6px;font-family:Roboto-Regular, Roboto;}.cls-3{letter-spacing:-0.01em;}</style></defs><g id="ICONS"><path class="cls-1" d="M25.89,3.26a1.18,1.18,0,0,0-.87.35L13.18,15.44l2.12,2.21,8.17-8.09A.53.53,0,0,1,24,9.45a.52.52,0,0,1,.31.47V28h3.11V9.92a.52.52,0,0,1,.31-.47.53.53,0,0,1,.55.11l8.08,8.09,2.21-2.12L26.75,3.61A1.21,1.21,0,0,0,25.89,3.26Z"/><path d="M38,13.49,26.21,1.65a2.26,2.26,0,0,0-3.15,0L11.23,13.49a1,1,0,0,0,0,1.5l2.11,2.12a1.07,1.07,0,0,0,1.5,0l7.24-7.24v17.4a.5.5,0,0,0,.5.5h4.11a.5.5,0,0,0,.5-.5V9.87l7.24,7.24a1.07,1.07,0,0,0,1.5,0L38,15a1,1,0,0,0,0-1.5ZM35.13,16.4,27.05,8.31a.53.53,0,0,0-.55-.11.52.52,0,0,0-.31.47v18.1H23.08V8.67a.52.52,0,0,0-.31-.47.53.53,0,0,0-.55.11L14.05,16.4l-2.12-2.21L23.77,2.36A1.18,1.18,0,0,1,24.64,2a1.21,1.21,0,0,1,.86.35L37.34,14.28Z"/><path d="M25.31,38.57c-2-.57-2.66-.87-2.66-1.9s.61-1.54,1.86-1.54a2.18,2.18,0,0,1,1.5.46,2,2,0,0,1,.64,1.34h2.78c-.14-2-1.35-3.64-4.08-3.91V31.19H23.92V33c-2.34.2-4.09,1.57-4.09,3.93,0,2,1.1,3.16,4.31,4.06,2,.57,2.77,1.08,2.77,2.34,0,1-.55,1.67-2.13,1.67a2.31,2.31,0,0,1-2.5-2.08h-2.8c.16,2.52,1.83,4,4.44,4.23V49h1.43V47.16c3.11-.24,4.44-2,4.44-4.15S28.86,39.6,25.31,38.57Z"/></g><g id="LABELS"><text class="cls-2" transform="translate(-0.06 55.07)">cost-inc<tspan class="cls-3" x="21.18" y="0">r</tspan><tspan x="23.15" y="0">ease</tspan></text></g></svg>