<svg xmlns="http://www.w3.org/2000/svg" viewBox="0 0 50 50"><g id="ae0f90c7-6ff3-40ec-a222-b72a63191dee" data-name="ICONS"><path d="M28,22.82h0c-5-1.47-7.45-2.31-7.45-5.54,0-2.93,2-4.6,5.45-4.6A6.27,6.27,0,0,1,30.37,14a5.7,5.7,0,0,1,1.82,3.43h6.4c-.43-4-2.63-8.64-10.36-9.4a.49.49,0,0,1-.45-.5V3.19H25V7.54a.49.49,0,0,1-.46.49c-6.43.57-10.43,4.39-10.43,10,0,5.27,3,8.06,11.12,10.3,5.13,1.46,7.74,2.9,7.74,6.74,0,2.25-1.07,4.94-6.18,4.94-3.79,0-6.35-2-7.07-5.55H13.21c.58,5.94,4.67,9.66,11.3,10.26a.5.5,0,0,1,.46.5v4.36h2.81V45.19a.49.49,0,0,1,.46-.49c7.21-.56,11.34-4.41,11.34-10.54C39.58,29.38,37.62,25.62,28,22.82Z" fill="#fdd600"/><path d="M26.57,20.11h0c-5.38-1.57-6.73-2.27-6.73-4.58,0-3,2.42-3.6,4.45-3.6A5.33,5.33,0,0,1,28,13a4.79,4.79,0,0,1,1.54,3.22.5.5,0,0,0,.5.46h7.39a.52.52,0,0,0,.37-.16.51.51,0,0,0,.13-.37C37.45,10,33.6,6.17,27,5.37V.94a.5.5,0,0,0-.5-.5H22.72a.5.5,0,0,0-.5.5V5.33c-6.73.76-10.89,4.91-10.89,10.93,0,5.75,3.33,8.9,11.85,11.27,5.44,1.54,7,2.83,7,5.77,0,1.69-.54,3.94-5.18,3.94-3.45,0-5.64-1.82-6.16-5.12a.5.5,0,0,0-.49-.43H10.92a.5.5,0,0,0-.5.54c.4,6.64,4.7,10.88,11.8,11.67v4.41a.5.5,0,0,0,.5.5h3.81a.5.5,0,0,0,.5-.5V43.9c7.4-.73,11.8-5,11.8-11.49C38.83,26.22,35.28,22.65,26.57,20.11ZM26.49,43a.49.49,0,0,0-.46.49v4.37H23.22V43.45a.5.5,0,0,0-.46-.5c-6.63-.6-10.72-4.32-11.3-10.26h6.48c.72,3.53,3.28,5.55,7.07,5.55,5.11,0,6.18-2.69,6.18-4.94,0-3.84-2.61-5.28-7.74-6.74-8.1-2.24-11.12-5-11.12-10.3,0-5.59,4-9.41,10.43-10a.49.49,0,0,0,.46-.49V1.44H26V5.82a.49.49,0,0,0,.45.5c7.73.76,9.93,5.42,10.36,9.4h-6.4a5.7,5.7,0,0,0-1.82-3.43,6.27,6.27,0,0,0-4.33-1.36c-3.46,0-5.45,1.67-5.45,4.6,0,3.23,2.42,4.07,7.45,5.54h0c9.58,2.8,11.54,6.56,11.54,11.34C37.83,38.54,33.7,42.39,26.49,43Z" fill="#231f20"/></g><g id="bd217545-f8ea-493c-be5f-b62eb0d681d0" data-name="LABELS"><text transform="translate(0.25 55.09)" font-size="6" fill="#231f20" font-family="Roboto-Regular, Roboto">dollar-sign</text></g></svg>