<svg id="ee8405f5-36e9-49f4-ad63-2db57a480a5d" data-name="ICONS" xmlns="http://www.w3.org/2000/svg" viewBox="0 0 50 50"><path d="M39.07,13.93c-.89-5-7-8.74-14.22-8.74-7,0-11.84,3.33-12.24,8.49-.29,3.74,3.2,7.14,6.48,9.63a6.11,6.11,0,0,1,8.24-2,6.2,6.2,0,0,1,1,.28c1.65-2.09,4.21-2.94,6.47-3.7C37.78,16.83,39.46,16.16,39.07,13.93Z" fill="#fdd600"/><path d="M45.78,24.05c-3.56-2.29-9.07-.12-13.05,1.85v0A7.53,7.53,0,0,1,33,27c0,.13,0,.26.06.39s0,.35.05.52,0,.33,0,.49a7.09,7.09,0,0,1-2.24,5.19c1.09,2.43.75,5.17.44,7.6-.42,3.38-.55,5.33,1.65,6,4.8,1.58,11-2,14.44-8.38C50.79,32.65,50.14,26.84,45.78,24.05Z" fill="#fdd600"/><path d="M25.16,35.45A7,7,0,0,1,19.05,30c-2.67-.39-4.69-2.22-6.48-3.84-1.63-1.47-2.82-2.46-4-2.46A2.4,2.4,0,0,0,7,24.37c-3.9,3.22-4.17,10.39-.63,16.68,3.46,6.13,8.72,8.67,13.41,6.49C23.88,45.64,24.84,38.37,25.16,35.45Z" fill="#fdd600"/><path d="M44.57,21.46c-4-2.56-9.79-.3-14,1.78a7.16,7.16,0,0,0-3.07-3C29,18.51,31.29,17.73,33.33,17c2.85-.95,5.54-1.85,5-5-1-5.45-7.51-9.56-15.2-9.56S10.3,6.14,9.86,11.85C9.5,16.56,14.21,20.57,18,23.26a7,7,0,0,0-.81,3.27c0,.24,0,.47,0,.7-2.25-.43-4.08-2.06-5.7-3.53-2.23-2-4.34-3.91-6.83-1.85C.38,25.37,0,33.08,3.79,39.79c2.83,5,6.82,7.78,10.84,7.78a9.05,9.05,0,0,0,3.86-.88c4.66-2.17,5.62-10.15,5.93-13.07a7.09,7.09,0,0,0,3.9-1.25c.9,2.14.59,4.68.31,6.92-.39,3.15-.76,6.12,2.33,7.13a8.45,8.45,0,0,0,2.65.42c4.71,0,9.92-3.59,13-9.27C50.19,30.88,49.4,24.56,44.57,21.46Zm-13.3,24c-2.2-.72-2.07-2.67-1.65-6,.31-2.43.65-5.17-.44-7.6a7.09,7.09,0,0,0,2.24-5.19c0-.16,0-.33,0-.49s0-.35-.05-.52,0-.26-.06-.39A7.53,7.53,0,0,0,31,24.17v0c4-2,9.49-4.14,13.05-1.85,4.36,2.79,5,8.6,1.68,14.79C42.28,43.45,36.07,47.05,31.27,45.47ZM4.66,39.3C1.12,33,1.39,25.84,5.29,22.62A2.4,2.4,0,0,1,6.85,22c1.15,0,2.34,1,4,2.46,1.79,1.62,3.81,3.45,6.48,3.84a7,7,0,0,0,6.11,5.42c-.32,2.92-1.28,10.19-5.34,12.09C13.38,48,8.12,45.43,4.66,39.3Zm6.2-27.37c.4-5.16,5.2-8.49,12.24-8.49,7.22,0,13.33,3.76,14.22,8.74.39,2.23-1.29,2.9-4.3,3.91-2.26.76-4.82,1.61-6.47,3.7a6.19,6.19,0,0,0-2.26-.42,7.16,7.16,0,0,0-5.82,3C14.92,19.85,10.54,16.11,10.86,11.93ZM30.4,26.53a6.12,6.12,0,1,1-6.12-6.09A6.12,6.12,0,0,1,30.4,26.53Z" fill="#231f20"/></svg>