<svg xmlns="http://www.w3.org/2000/svg" viewBox="0 0 50 50"><g id="bbb72736-0821-4a57-a4e3-32f09acc6093" data-name="ICONS"><path d="M3.66,18.38H18.28l1.08-2.13A.49.49,0,0,1,19.8,16H45.13V14H17.39a.51.51,0,0,1-.47-.33l-.86-2.31H2V31.15L3.16,18.83A.51.51,0,0,1,3.66,18.38Z" fill="none"/><path d="M20.11,17,19,19.11a.5.5,0,0,1-.45.27H4.11L1.8,43.43H3.72l2.14-22.3H20.33a.5.5,0,0,0,.45-.27l1.08-2.14H47.33L47.5,17Z" fill="none"/><path d="M20.78,20.86a.5.5,0,0,1-.45.27H5.86L3.72,43.43H45l2.37-24.71H21.86Zm4.33,5.87a4,4,0,0,1,5.74-.15,4,4,0,0,1,0,5.59l-6,6.21-5.94-5.93a4.61,4.61,0,0,1-1.42-3,3.71,3.71,0,0,1,1.14-2.88,3.83,3.83,0,0,1,2.73-1.15,4.26,4.26,0,0,1,3,1.3A.5.5,0,0,0,25.11,26.73Z" fill="#fdd600"/><path d="M48.33,18.72l-2.2,22.9v.58a.47.47,0,0,1-.08.26L45.91,44a.5.5,0,0,1-.5.45H3.63l-.08.75H46.71l2.54-26.46Z" fill="#fdd600"/><path d="M1.8,43.43l2.31-24H18.58a.5.5,0,0,0,.45-.27L20.11,17H47.5l-.17,1.75h1l.21-2.2a.47.47,0,0,0-.12-.38.5.5,0,0,0-.37-.17H46.13V13.54a.5.5,0,0,0-.5-.5H17.74l-.87-2.32a.5.5,0,0,0-.47-.32H1.48a.5.5,0,0,0-.5.5V41.57L.76,43.88a.51.51,0,0,0,.12.39.52.52,0,0,0,.37.16H3.63l.09-1ZM2,11.4H16.06l.86,2.31a.51.51,0,0,0,.47.33H45.13V16H19.8a.49.49,0,0,0-.44.28l-1.08,2.13H3.66a.51.51,0,0,0-.5.45L2,31.15Z" fill="#231f20"/><path d="M45.91,44l.14-1.52a.47.47,0,0,0,.08-.26v-.58l2.2-22.9h-1L45,43.43H3.72l-.09,1H45.41A.5.5,0,0,0,45.91,44Z" fill="#231f20"/><path d="M31.55,25.87a4.92,4.92,0,0,0-6.8-.17,4.92,4.92,0,0,0-6.8.17,4.78,4.78,0,0,0-1.43,3.64,5.64,5.64,0,0,0,1.71,3.64l6.3,6.3a.51.51,0,0,0,.35.15h0a.52.52,0,0,0,.35-.16l6.31-6.57a4.95,4.95,0,0,0,0-7Zm-.71,6.3-6,6.21-5.94-5.93a4.61,4.61,0,0,1-1.42-3,3.71,3.71,0,0,1,1.14-2.88,3.83,3.83,0,0,1,2.73-1.15,4.26,4.26,0,0,1,3,1.3.5.5,0,0,0,.71,0,4,4,0,0,1,5.74-.15,4,4,0,0,1,0,5.59Z" fill="#231f20"/></g><g id="b118d7f4-6dfc-4686-bd2d-fb31919c7b54" data-name="LABELS"><text transform="translate(-0.05 55.01)" font-size="6" fill="#231f20" font-family="Roboto-Regular, Roboto">file-medical</text></g></svg>