<svg xmlns="http://www.w3.org/2000/svg" viewBox="0 0 50 50"><g id="bcf8068b-e50e-48d3-9fc0-88f5c08ba05b" data-name="ICONS"><path d="M49.36,16.31H22l-1.08,2.13a.5.5,0,0,1-.44.28H6L3.67,42.77H46.82Z" fill="#fdd600"/><path d="M46.25,39.21l2.41-25.1a.56.56,0,0,0-.13-.39.52.52,0,0,0-.37-.16H46.25V11.12a.51.51,0,0,0-.5-.5H17.85L17,8.31A.5.5,0,0,0,16.51,8H1.59a.5.5,0,0,0-.5.5V39.16L.87,41.47a.48.48,0,0,0,.13.38.48.48,0,0,0,.37.17H45.52a.5.5,0,0,0,.5-.46l.15-1.51a.57.57,0,0,0,.08-.26ZM16.17,9,17,11.3a.5.5,0,0,0,.47.32H45.25v1.94H19.91a.51.51,0,0,0-.44.27L18.39,16H3.77a.5.5,0,0,0-.5.45L2.09,28.74V9ZM1.92,41,4.23,17H18.7a.5.5,0,0,0,.44-.28l1.08-2.13H47.61L45.07,41Z" fill="#231f20"/></g><g id="aca6f7a4-086b-4c11-95de-3d796a20713e" data-name="LABELS"><text transform="translate(-0.28 55.01)" font-size="6" fill="#231f20" font-family="Roboto-Regular, Roboto">file-open</text></g></svg>