<svg xmlns="http://www.w3.org/2000/svg" viewBox="0 0 50 50"><g id="ab8358d3-57b8-411e-9f3a-a00179be36f6" data-name="ICONS"><rect x="6.34" y="12.16" width="12.35" height="15.32" transform="translate(-10.45 15.16) rotate(-46.26)" fill="#fdd600"/><rect x="32.55" y="13.3" width="15.32" height="12.35" transform="translate(-1.99 34.14) rotate(-45)" fill="#fdd600"/><path d="M49.55,16.57,40.11,7.13a.5.5,0,0,0-.7,0L27.87,18.67a.49.49,0,0,0-.12.46,5.31,5.31,0,0,0-3.07,1.41l0,0a3.76,3.76,0,0,0-2.6-1.06H21.9a.51.51,0,0,0,0-.69L10.08,7.49a.67.67,0,0,0-.36-.14.54.54,0,0,0-.35.16L.14,17.15a.5.5,0,0,0,0,.71L12,29.14a.48.48,0,0,0,.34.14h0a.51.51,0,0,0,.32-.13.75.75,0,0,0,0,.15,3.73,3.73,0,0,0,1.17,2.55l.26.25a2.17,2.17,0,0,0,.48,2.46,2.17,2.17,0,0,0,1.5.6l.27,0a2.16,2.16,0,0,0,2.16,2.34h.05l.21,0a2.19,2.19,0,0,0,.66,1.74,2.17,2.17,0,0,0,1.5.6l.27,0a2.16,2.16,0,0,0,2.16,2.34,2.11,2.11,0,0,0,1-.23l.47.44a2.44,2.44,0,0,0,1.71.7,2.26,2.26,0,0,0,2.28-2.4,1.24,1.24,0,0,0,0-.27H29A2.27,2.27,0,0,0,31.27,38l0-.28.29,0a2.28,2.28,0,0,0,2.28-2.4l0-.28.29,0a2.33,2.33,0,0,0,2.08-3.27l.14-.15a4.1,4.1,0,0,0,1.19-2.69l.18,0a.54.54,0,0,0,.36-.14L49.55,17.28A.5.5,0,0,0,49.55,16.57Zm-14,14.34-.11.11-8-7.93a.54.54,0,0,0-.35-.16h0a.45.45,0,0,0-.34.18c-.12.13-1.78,1.73-2.86,2.77a1.18,1.18,0,0,1-1.65,0,1.18,1.18,0,0,1,0-1.66L25,21.55l.09-.07c.8-.74,2.2-1.69,3.64-1.23L36.4,27.9A3.2,3.2,0,0,1,35.59,30.91Zm-.24,1.82a1.25,1.25,0,0,1-.35.92,1.28,1.28,0,0,1-.93.39h0a1.48,1.48,0,0,1-1-.42l-3-2.9a.56.56,0,0,0-.36-.14.48.48,0,0,0-.36.16.5.5,0,0,0,0,.71l3,2.9a1.48,1.48,0,0,1,.46,1,1.3,1.3,0,0,1-.35,1,1.28,1.28,0,0,1-.93.39h0a1.51,1.51,0,0,1-1-.42l-3-2.91a.52.52,0,0,0-.73,0,.49.49,0,0,0,0,.69l3,2.91a1.49,1.49,0,0,1,.47,1,1.31,1.31,0,0,1-.35,1,1.24,1.24,0,0,1-.94.39h0a1.46,1.46,0,0,1-1-.42l-3-2.9a.54.54,0,0,0-.36-.14.53.53,0,0,0-.35.17.49.49,0,0,0,0,.7l3,2.9a1.46,1.46,0,0,1,.46,1,1.27,1.27,0,0,1-.34,1,1.39,1.39,0,0,1-2,0L25,41.23a2.18,2.18,0,0,0,.44-1.35A2.15,2.15,0,0,0,23,37.78a1.5,1.5,0,0,0,0-.22A2.18,2.18,0,0,0,22.39,36a2.12,2.12,0,0,0-1.56-.6l-.21,0a1.7,1.7,0,0,0,0-.22,2.17,2.17,0,0,0-2.22-2.12l-.22,0A2.15,2.15,0,0,0,16,30.81a2.11,2.11,0,0,0-1.31.5l-.18-.18a2.74,2.74,0,0,1-.87-1.88,2.41,2.41,0,0,1,.67-1.83l5.95-6.22a2.44,2.44,0,0,1,1.81-.75,2.75,2.75,0,0,1,1.87.75l-2.37,2.27A2.16,2.16,0,0,0,23,27.2a2.09,2.09,0,0,0,1.55-.6l2.5-2.41,2.66,2.55,5.42,5.34a.24.24,0,0,0,.08.06A1.31,1.31,0,0,1,35.35,32.73ZM22.5,40.78a1.17,1.17,0,0,1,0-1.66,1.15,1.15,0,0,1,.85-.37,1.17,1.17,0,0,1,.81.33,1.11,1.11,0,0,1,.36.82,1.15,1.15,0,0,1-.32.84A1.17,1.17,0,0,1,22.5,40.78Zm-2.43-2.32a1.17,1.17,0,0,1,0-1.66,1.22,1.22,0,0,1,.83-.36h0a1.15,1.15,0,0,1,.81.32,1.18,1.18,0,0,1,.37.83,1.16,1.16,0,0,1-.33.84A1.18,1.18,0,0,1,20.07,38.46Zm-2.42-2.31a1.17,1.17,0,0,1,0-1.66,1.11,1.11,0,0,1,.82-.36h0a1.17,1.17,0,0,1,.81.32,1.18,1.18,0,0,1,0,1.66,1.18,1.18,0,0,1-.82.37A1.16,1.16,0,0,1,17.65,36.15Zm-2.43-2.31a1.21,1.21,0,0,1-.36-.82,1.16,1.16,0,0,1,.32-.84,1.18,1.18,0,0,1,.83-.37h0a1.18,1.18,0,1,1-.81,2Zm-14-16.36L9.75,8.56,20.82,19.15l-8.54,8.92ZM28.93,19,39.76,8.19l8.73,8.73L37.66,27.75Z" fill="#231f20"/></g><g id="f5792cb4-41c4-4cdf-b849-04207014bb1c" data-name="LABELS"><text transform="translate(0.08 54.86)" font-size="6" fill="#231f20" font-family="Roboto-Regular, Roboto">handsha<tspan x="22.92" y="0" letter-spacing="-0.01em">k</tspan><tspan x="25.91" y="0">e</tspan></text></g></svg>