<svg xmlns="http://www.w3.org/2000/svg" viewBox="0 0 50 50"><g id="bda6c94f-1c20-46dc-9b29-b1cf21d2e946" data-name="ICONS"><circle cx="33.15" cy="18.22" r="7.85" fill="#fdd600"/><polygon points="7.68 29.18 7.68 27.1 2.65 27.1 2.65 42.14 7.68 42.14 7.68 40.06 12.95 40.06 12.95 29.18 7.68 29.18" fill="#fdd600"/><path d="M49.83,34.53a3.43,3.43,0,0,0-1.55-2.39,3.93,3.93,0,0,0-3.2-.5L33.72,33.92a3,3,0,0,0-.5-2.17,3,3,0,0,0-2-1.27l-11.6-3-.13,0h-7v-.24a.5.5,0,0,0-.5-.5H6.61V25.1a.5.5,0,0,0-.5-.5H.65a.5.5,0,0,0-.5.5v16a.5.5,0,0,0,.5.5H6.11a.5.5,0,0,0,.5-.5V39.56H12a.5.5,0,0,0,.5-.5v-.89L30.08,41.7a.52.52,0,0,0,.21,0h.09a.55.55,0,0,0,.25-.07l16-3.22A3.69,3.69,0,0,0,49.83,34.53ZM5.61,27.18V40.64H1.15v-15H5.61Zm5.84,11.38H6.61V27.68h4.84Zm35-1.07L30.31,40.73,12.45,37.15V28.42h7l11.6,3a2.05,2.05,0,0,1,1.4.86,2,2,0,0,1,.32,1.55,2,2,0,0,1-.95,1.29,2.07,2.07,0,0,1-1.67.18L18.44,32.41a.49.49,0,0,0-.53.21.36.36,0,0,0-.08.15.51.51,0,0,0,.36.61L29.83,36.3A3,3,0,0,0,32.28,36a3.12,3.12,0,0,0,1-1l12-2.41h0a2.88,2.88,0,0,1,2.39.37,2.39,2.39,0,0,1,1.12,1.68A2.73,2.73,0,0,1,46.46,37.49Z" fill="#231f20"/><path d="M31.67,25.57a8.86,8.86,0,1,0-8.86-8.85A8.86,8.86,0,0,0,31.67,25.57Zm7.85-8.85a7.86,7.86,0,1,1-7.85-7.86A7.86,7.86,0,0,1,39.52,16.72Z" fill="#231f20"/><path d="M32,16c-1-.29-1.34-.44-1.34-1s.31-.78.93-.78a1.1,1.1,0,0,1,.76.24,1,1,0,0,1,.32.67h1.39a2,2,0,0,0-2-2v-.92h-.71v.91a2,2,0,0,0-2,2c0,1,.55,1.58,2.16,2,1,.29,1.39.55,1.39,1.18s-.28.83-1.07.83a1.15,1.15,0,0,1-1.25-1h-1.4a2.17,2.17,0,0,0,2.22,2.11v.92H32v-.92c1.56-.12,2.22-1,2.22-2.07S33.78,16.47,32,16Z" fill="#231f20"/></g><g id="b9458303-559f-4940-90ff-dac1ce28611d" data-name="LABELS"><text transform="translate(0.4 55.09)" font-size="6" fill="#231f20" font-family="Roboto-Regular, Roboto">ha<tspan x="6.57" y="0" letter-spacing="-0.01em">r</tspan><tspan x="8.54" y="0">d-coin</tspan></text></g></svg>