<svg id="b5d064c6-a588-460f-8ccb-9014afec8931" data-name="ICONS" xmlns="http://www.w3.org/2000/svg" viewBox="0 0 50 50"><path d="M8.15,16.42a21.07,21.07,0,0,1,37.2,0l1.74-1.74a23.44,23.44,0,0,0-40.68,0Z" fill="#fdd600"/><path d="M46.44,36.43l-1.32-.56-1-.45h0c.45-1.08.91-2.16,1.37-3.23a1.14,1.14,0,0,0-.61-1.49l-3.48-1.46a1.12,1.12,0,0,0-.44-.09,1,1,0,0,0-.43.09,1.07,1.07,0,0,0-.62.61L32.72,46.71a1.12,1.12,0,0,0,.61,1.48l3.48,1.46a1.1,1.1,0,0,0,.87,0A1.12,1.12,0,0,0,38.3,49l.86-2a.57.57,0,0,1,.31-.3.56.56,0,0,1,.44,0l1.84.77a2.13,2.13,0,0,0,2.79-1.12l3-7.16a2.12,2.12,0,0,0,0-1.62A2.09,2.09,0,0,0,46.44,36.43Z" fill="#fdd600"/><path d="M20.78,46.69,13.59,29.87h0a1.09,1.09,0,0,0-.62-.61,1.17,1.17,0,0,0-.88,0l-3.5,1.45A1.13,1.13,0,0,0,8,32.2l1.38,3.23-1,.45L7,36.43A2.11,2.11,0,0,0,5.84,39.2l3.05,7.14a2.16,2.16,0,0,0,2.81,1.13l1.85-.77a.59.59,0,0,1,.23-.05.78.78,0,0,1,.21,0,.59.59,0,0,1,.31.31l.87,2a1.12,1.12,0,0,0,.62.61,1.17,1.17,0,0,0,.88,0l3.5-1.46A1.12,1.12,0,0,0,20.78,46.69Z" fill="#fdd600"/><path d="M45.52,34a22.79,22.79,0,0,0,0-19.85l.79-.79a.48.48,0,0,0,.08-.59,24.44,24.44,0,0,0-42.8,0,.48.48,0,0,0,.08.59l.79.79A22.79,22.79,0,0,0,4.48,34a2.85,2.85,0,0,0-1.25,3.6l3.2,7.6A2.87,2.87,0,0,0,9.08,47a2.9,2.9,0,0,0,1.11-.23l1.62-.68.72,1.71a2,2,0,0,0,2.62,1.07l3.75-1.58A2,2,0,0,0,20,44.63l-7.17-17a2,2,0,0,0-2.62-1.07L6.43,28.14a2,2,0,0,0-1.07,2.62l1,2.4-1,.42a21.71,21.71,0,0,1-.16-18.67l.95.95a.49.49,0,0,0,.43.14A.52.52,0,0,0,7,15.73a20.07,20.07,0,0,1,36,0,.52.52,0,0,0,.37.27h.08a.51.51,0,0,0,.35-.15l1-.95a21.71,21.71,0,0,1-.16,18.67l-1-.42,1-2.4a2,2,0,0,0-1.07-2.62l-3.75-1.58a2,2,0,0,0-1.53,0,2,2,0,0,0-1.09,1.08L30,44.63a2,2,0,0,0,1.07,2.62l3.75,1.58a2,2,0,0,0,.78.16,2,2,0,0,0,.75-.15,1.93,1.93,0,0,0,1.09-1.08l.73-1.71,1.61.68a2.84,2.84,0,0,0,2.19,0,2.87,2.87,0,0,0,1.57-1.55l3.2-7.6A2.85,2.85,0,0,0,45.52,34ZM6.82,29.06l3.75-1.58a1,1,0,0,1,.77,0,1,1,0,0,1,.54.54L19,45a1,1,0,0,1-.53,1.31l-3.75,1.58a1,1,0,0,1-1.31-.53l-.92-2.18h0l-5-12h0L6.28,30.37A1,1,0,0,1,6.82,29.06Zm4.6,16.07-1.62.68a1.86,1.86,0,0,1-2.44-1l-3.21-7.6a1.86,1.86,0,0,1,1-2.44l1.61-.68ZM25,1.14A23.52,23.52,0,0,1,45.34,12.93L43.6,14.67a21.07,21.07,0,0,0-37.2,0L4.66,12.93A23.52,23.52,0,0,1,25,1.14ZM45.85,37.21l-3.21,7.6a1.85,1.85,0,0,1-1,1,1.82,1.82,0,0,1-1.43,0l-1.62-.68,4.66-11,1.61.68A1.86,1.86,0,0,1,45.85,37.21ZM35.24,47.91l-3.75-1.58A1,1,0,0,1,31,45l7.16-17a1,1,0,0,1,.54-.54,1,1,0,0,1,.77,0l3.75,1.58a1,1,0,0,1,.54,1.31l-1.21,2.87h0l-5,12h0l-.92,2.18A1,1,0,0,1,35.24,47.91Z" fill="#231f20"/></svg>