<svg xmlns="http://www.w3.org/2000/svg" viewBox="0 0 50 50"><defs><style>.cls-1{fill:#ffcd00;}.cls-2{font-size:6px;font-family:Roboto-Regular, Roboto;}</style></defs><g id="ICONS"><path class="cls-1" d="M46.51,49.8H6V22.36a1.09,1.09,0,0,1,.13-.77,1.41,1.41,0,0,1,.19-.23l4.24-3.59c0,2.45,0,4.89,0,7.34L24.75,35q7.53-5.24,15-10.48l.15-8.4,6.12,5.21a1.09,1.09,0,0,1,.24.27,1.41,1.41,0,0,1,.2.8Z"/><path d="M46,19.89a.46.46,0,0,0-.06-.23.08.08,0,0,0,0,0,.36.36,0,0,0-.07-.1l-5.88-5V.7a.5.5,0,0,0-.5-.5H10.05a.5.5,0,0,0-.5.5V14.54l-5.88,5a.36.36,0,0,0-.07.1.08.08,0,0,0,0,0,.46.46,0,0,0-.06.23h0V48.8a.5.5,0,0,0,.5.5H45.51a.5.5,0,0,0,.5-.5V19.9ZM25.63,34.35,45,20.86v27Zm-1.75,0L4.49,47.84v-27ZM10.55,1.2H39V23.86l-14.2,9.88-14.2-9.88ZM24.75,35,43.91,48.3H5.59ZM44.69,19.87,40,23.16V15.85ZM9.55,23.16,4.81,19.87l4.74-4Z"/><path d="M13.49,9.23H36a.5.5,0,0,0,0-1H13.49a.5.5,0,1,0,0,1Z"/><path d="M13.49,16H36a.5.5,0,0,0,.5-.5A.51.51,0,0,0,36,15H13.49a.51.51,0,0,0-.5.5A.5.5,0,0,0,13.49,16Z"/><path d="M13.49,22.38H36a.51.51,0,0,0,.5-.5.5.5,0,0,0-.5-.5H13.49a.5.5,0,0,0-.5.5A.51.51,0,0,0,13.49,22.38Z"/></g><g id="LABELS"><text class="cls-2" transform="translate(-0.27 54.91)">mail-opened</text></g></svg>