<svg xmlns="http://www.w3.org/2000/svg" viewBox="0 0 50 50"><defs><style>.cls-1{fill:#ffcd00;}.cls-2{font-size:6px;font-family:Roboto-Regular, Roboto;}</style></defs><g id="ICONS"><path class="cls-1" d="M49.48,11H3V42.26l46.46,0V11h0Z"/><path d="M49,8.09v0h0a.54.54,0,0,0-.16-.21l-.05,0a.49.49,0,0,0-.25-.08H1a.49.49,0,0,0-.25.08l-.05,0a.54.54,0,0,0-.16.21h0v0a.4.4,0,0,0,0,.15v33a.5.5,0,0,0,.5.5H48.48a.5.5,0,0,0,.5-.5v-33A.4.4,0,0,0,49,8.09ZM28.31,26.63,48,9.35v31ZM47.15,8.74,24.75,28.42,2.35,8.74ZM21.26,26.68,1.52,40.42V9.35Zm.77.68,2.39,2.1a.48.48,0,0,0,.66,0l2.45-2.15L46.89,40.78H2.76Z"/></g><g id="LABELS"><text class="cls-2" transform="translate(-0.07 54.91)">mail</text></g></svg>