<svg xmlns="http://www.w3.org/2000/svg" viewBox="0 0 50 50"><g id="e5faaff7-e11c-42bc-8de1-45858e1b53a1" data-name="ICONS"><path d="M46.92,26.72,17.68,3l-14,17.25a3.2,3.2,0,0,0-.62,2.62A4.46,4.46,0,0,0,4.68,25.5l27.15,22c0-.11,0-.23,0-.35A4.27,4.27,0,0,1,33,43.93ZM20.63,20.63l-8.27-6.7,5.42-6.68L26.05,14Z" fill="#fdd600"/><path d="M47.94,29.29,45.2,27.07l1.31-1.61a.51.51,0,0,0-.07-.71L16.42.4a.54.54,0,0,0-.37-.11.52.52,0,0,0-.33.18L1.41,18.11a4.16,4.16,0,0,0-.82,3.42,5.45,5.45,0,0,0,2,3.25l29,23.48h0l.63.52a4.13,4.13,0,0,0,2.62.93l.45,0A4.17,4.17,0,0,0,38,48.16l10.54-13A4.19,4.19,0,0,0,47.94,29.29ZM2.19,18.74l14-17.25L45.42,25.22l-14,17.21a4.29,4.29,0,0,0-1.17,3.24c0,.12,0,.24,0,.35L3.18,24a4.51,4.51,0,0,1-1.61-2.64A3.23,3.23,0,0,1,2.19,18.74Zm45.59,15.8-10.54,13a3.18,3.18,0,0,1-4.47.47l-.6-.49a3.15,3.15,0,0,1-.89-1.92,3.28,3.28,0,0,1,.93-2.5L44.57,27.85l2.15,1.74L33.64,45.72a.51.51,0,0,0,.07.71.56.56,0,0,0,.32.11.52.52,0,0,0,.39-.19L47.48,30.24A3.17,3.17,0,0,1,47.78,34.54Z" fill="#231f20"/><path d="M27.06,13.49,18,6.16a.47.47,0,0,0-.37-.11.52.52,0,0,0-.34.18l-6.05,7.46a.5.5,0,0,0,.08.7l9,7.33a.51.51,0,0,0,.32.12.52.52,0,0,0,.39-.19l6.05-7.46A.5.5,0,0,0,27.06,13.49Zm-6.43,7.14-8.27-6.7,5.42-6.68L26.05,14Z" fill="#231f20"/><path d="M39.73,25.05a.5.5,0,0,0,.32.11.5.5,0,0,0,.31-.89L30.28,16.09a.51.51,0,0,0-.71.08.5.5,0,0,0,.08.7Z" fill="#231f20"/><path d="M26.55,19.9a.49.49,0,0,0,.07.7l10.09,8.18a.45.45,0,0,0,.31.11.5.5,0,0,0,.39-.18.51.51,0,0,0-.07-.71L27.25,19.82A.5.5,0,0,0,26.55,19.9Z" fill="#231f20"/><path d="M34.31,31.73,24.23,23.55a.51.51,0,0,0-.71.08.5.5,0,0,0,.08.7l10.08,8.18a.48.48,0,0,0,.32.11.5.5,0,0,0,.31-.89Z" fill="#231f20"/><path d="M30.6,36.31a.47.47,0,0,0,.31.12.51.51,0,0,0,.39-.19.49.49,0,0,0-.07-.7L8.89,17.42a.49.49,0,0,0-.7.07.51.51,0,0,0,.07.71Z" fill="#231f20"/><path d="M27.69,39.9A.51.51,0,0,0,28,40a.5.5,0,0,0,.39-.18.51.51,0,0,0-.07-.71L6,21a.5.5,0,0,0-.7.08.5.5,0,0,0,.07.7Z" fill="#231f20"/></g><g id="a965de4c-c06c-4858-88b7-c589a77a0ac0" data-name="LABELS"><text transform="translate(-0.06 55.01)" font-size="6" fill="#231f20" font-family="Roboto-Regular, Roboto">newspaper</text></g></svg>