<svg id="fe374270-fafd-4033-9577-3c2186b4aba5" data-name="ICONS" xmlns="http://www.w3.org/2000/svg" viewBox="0 0 50 50"><circle cx="41.68" cy="42.91" r="5.61" fill="#fdd600"/><path d="M34.66,12.26V17H33.08v-4.4a7.44,7.44,0,0,0-14.88,0V17H16.62V12.26a9,9,0,0,1,18,0" fill="#fdd600"/><path d="M25.87,18H14.3V31.2H37.44V18ZM27,25.76v2.51a1,1,0,0,1-1,1H23.91a1,1,0,0,1-1-1V25.76a3.53,3.53,0,1,1,4.12,0Z" fill="#fdd600"/><path d="M47.23,30.8V42a6.5,6.5,0,0,1-13,.5h-31a.5.5,0,0,1-.5-.5V30.8a.5.5,0,0,1,.5-.5H12.4V17.1a1,1,0,0,1,1-1H15V11.49a10,10,0,0,1,20,0V16.1h1.55a1,1,0,0,1,1,1V30.3h9.19a.5.5,0,0,1,.5.5m-1,7.75V31.3H3.71V41.5H34.25a6.49,6.49,0,0,1,12-3m0,3.45a4.19,4.19,0,0,0,0-.5,5.5,5.5,0,0,0-11,0c0,.17,0,.33,0,.5s0,.34,0,.5a5.5,5.5,0,0,0,11,0,4.07,4.07,0,0,0,0-.5M36.54,30.3V17.1H13.4V30.3H36.54ZM34,16.21V11.49a9,9,0,0,0-18,0v4.72h1.58v-4.4a7.44,7.44,0,0,1,14.88,0v4.4Zm-2.58-.11V11.81a6.44,6.44,0,0,0-12.88,0V16.1Z" fill="#231f20"/><path d="M43.49,38.74a.5.5,0,0,1,.17.68L42.45,41.5l-.59,1-1.51,2.59a.52.52,0,0,1-.39.25h0a.51.51,0,0,1-.39-.19l-1.7-2.07a.51.51,0,0,1,0-.58.41.41,0,0,1,.11-.12.49.49,0,0,1,.7.07l0,0L39.85,44l.85-1.46.59-1,1.51-2.58a.51.51,0,0,1,.69-.18" fill="#231f20"/><polygon points="34.02 35.05 34.4 36.23 32.33 36.81 33.69 38.53 32.66 39.26 31.48 37.37 30.32 39.19 29.29 38.49 30.69 36.73 28.66 36.16 29.04 34.99 31.05 35.8 30.92 33.54 32.19 33.54 32.06 35.84 34.02 35.05" fill="#231f20"/><path d="M25,19.37A3.53,3.53,0,0,1,27,25.76v2.51a1,1,0,0,1-1,1H23.91a1,1,0,0,1-1-1V25.76A3.53,3.53,0,0,1,25,19.37M27.5,22.9a2.53,2.53,0,1,0-3.77,2.2.35.35,0,0,1,.18.3v2.87H26V25.4a.35.35,0,0,1,.18-.3,2.52,2.52,0,0,0,1.29-2.2" fill="#231f20"/><polygon points="26.23 35.05 26.61 36.23 24.54 36.81 25.9 38.53 24.87 39.26 23.69 37.37 22.53 39.19 21.5 38.49 22.9 36.73 20.87 36.16 21.25 34.99 23.26 35.8 23.13 33.54 24.4 33.54 24.27 35.84 26.23 35.05" fill="#231f20"/><polygon points="18.44 35.05 18.82 36.23 16.76 36.81 18.11 38.53 17.09 39.26 15.91 37.37 14.74 39.19 13.72 38.49 15.11 36.73 13.08 36.16 13.46 34.99 15.48 35.8 15.35 33.54 16.61 33.54 16.48 35.84 18.44 35.05" fill="#231f20"/><polygon points="10.66 35.05 11.04 36.23 8.97 36.81 10.33 38.53 9.3 39.26 8.12 37.37 6.96 39.19 5.93 38.49 7.33 36.73 5.3 36.16 5.68 34.99 7.69 35.8 7.56 33.54 8.83 33.54 8.7 35.84 10.66 35.05" fill="#231f20"/></svg>