<svg xmlns="http://www.w3.org/2000/svg" viewBox="0 0 50 50"><defs><style>.cls-1{fill:#ffcd00;}.cls-2{font-size:6px;font-family:Roboto-Regular, Roboto;}.cls-3{letter-spacing:-0.01em;}.cls-4{letter-spacing:-0.02em;}</style></defs><g id="ICONS"><path class="cls-1" d="M7,7.54V34H45.47V7.54Zm9.48,20.64H11.73V20.59h4.78Zm10.74,0H22.48V16h4.77Zm10.74,0H33.22V12.6H38Z"/><path d="M44.47,5H25.25V1.43h.84a.5.5,0,0,0,.5-.5.5.5,0,0,0-.5-.5H23.41a.5.5,0,0,0-.5.5.5.5,0,0,0,.5.5h.84V5H5a.5.5,0,0,0-.5.5V33a.5.5,0,0,0,.5.5H20.3l-7.72,15h-1a.5.5,0,0,0,0,1h2.68a.5.5,0,0,0,0-1h-.52l7.72-15h2.82v15h-.84a.5.5,0,0,0,0,1h2.68a.5.5,0,0,0,0-1h-.84v-15H28.3l7.71,15h-.52a.5.5,0,0,0,0,1h2.69a.5.5,0,0,0,0-1h-1l-7.72-15h15A.5.5,0,0,0,45,33V5.54A.5.5,0,0,0,44.47,5ZM44,32.52H5.53V6H44Z"/><path d="M17,19.59H11.23a.5.5,0,0,0-.5.5v8.59a.5.5,0,0,0,.5.5H17a.5.5,0,0,0,.5-.5V20.09A.5.5,0,0,0,17,19.59Zm-.5,8.59H11.73V20.59h4.78Z"/><path d="M27.75,15H22a.5.5,0,0,0-.5.5V28.68a.5.5,0,0,0,.5.5h5.77a.5.5,0,0,0,.5-.5V15.5A.51.51,0,0,0,27.75,15Zm-.5,13.18H22.48V16h4.77Z"/><path d="M38.49,11.6H32.72a.5.5,0,0,0-.5.5V28.68a.5.5,0,0,0,.5.5h5.77a.5.5,0,0,0,.5-.5V12.1A.5.5,0,0,0,38.49,11.6ZM38,28.18H33.22V12.6H38Z"/></g><g id="LABELS"><text class="cls-2" transform="translate(-0.64 54.74)">p<tspan class="cls-3" x="3.37" y="0">r</tspan><tspan x="5.34" y="0">esentation-bar-g</tspan><tspan class="cls-4" x="48.81" y="0">r</tspan><tspan x="50.72" y="0">aph</tspan></text></g></svg>