<svg xmlns="http://www.w3.org/2000/svg" viewBox="0 0 50 50"><g id="a9fa925c-a621-4651-a07c-7b124fa8b342" data-name="ICONS"><path d="M44.59,13l-1.94-1.54h0L40.51,9.72l-.83-.66-1.3-1-1.06-.85-1.06.07c-2.38.14-9.45.55-10.56.75L7,31.79a3.82,3.82,0,0,0-.79,2.82,3.86,3.86,0,0,0,1.44,2.56l14.89,11.7a3.84,3.84,0,0,0,5.38-.65l18.61-23.7C46.3,23,44.85,14.2,44.59,13Zm-7.22,1.67a2.53,2.53,0,1,1-.43-3.55A2.53,2.53,0,0,1,37.37,14.64Z" fill="#fdd600"/><path d="M43.6,10.54,40.15,7.8l5.22-6.67a.51.51,0,0,0-.09-.71.5.5,0,0,0-.7.09L39.37,7.18,36,4.53a.54.54,0,0,0-.37-.11l-1.22.08c-10.9.64-11,.75-11.19,1L4.48,29.42a4.85,4.85,0,0,0,.82,6.79L20.19,47.9A4.84,4.84,0,0,0,27,47.09L45.72,23.22a.5.5,0,0,0,.1-.37C45.81,22.73,44,10.84,43.6,10.54ZM26.19,46.47a3.84,3.84,0,0,1-5.38.65L5.92,35.42a3.86,3.86,0,0,1-1.44-2.56A3.82,3.82,0,0,1,5.27,30L24,6.25c1.11-.2,8.18-.61,10.56-.75l1.06-.07L38.76,8,37.14,10a3.52,3.52,0,0,0-3.94,5.82,3.58,3.58,0,0,0,2.18.75,3.52,3.52,0,0,0,2.55-6l1.61-2.06,3.3,2.63c.26,1.23,1.71,10,2,11.55ZM37.37,14.64a2.53,2.53,0,1,1-.43-3.55A2.53,2.53,0,0,1,37.37,14.64Z" fill="#231f20"/><path d="M29.16,22.31l-1.07-.84L27,22.83c-1.86-1.22-4-1.23-5.35.54-1.18,1.49-1,3,.84,5.54,1.16,1.6,1.43,2.44.69,3.38-.57.73-1.39.92-2.57,0a2.18,2.18,0,0,1-.64-3L17.9,27.63c-1.36,2-1,4.05.84,5.75l-1.08,1.36,1.07.84,1.07-1.36c2.46,1.64,4.51,1.07,5.74-.5s1.3-3.08-.74-5.93c-1.13-1.58-1.48-2.2-.87-3s1.36-.79,2.29-.06A2.1,2.1,0,0,1,27.07,26a1.86,1.86,0,0,1-.31,1.37l1.12.88,1,.75c1.08-1.6,1.12-3.5-.76-5.31Z" fill="#231f20"/></g><g id="b6a78b2f-3b7b-4081-a292-a9bcde80b450" data-name="LABELS"><text transform="translate(-0.06 55.07)" font-size="6" fill="#231f20" font-family="Roboto-Regular, Roboto">price-tag</text></g></svg>