<svg xmlns="http://www.w3.org/2000/svg" viewBox="0 0 50 50"><g id="aad22cb6-b76a-482b-824d-7d72105d6004" data-name="ICONS"><path d="M37.73,43.23a7.37,7.37,0,0,1-2.78.25,8.36,8.36,0,0,1-6.1-4.69,7.91,7.91,0,0,1,6.7-12.13,7.94,7.94,0,0,1,3.16.66A8.91,8.91,0,0,1,42.51,29q0-8.64,0-17.29l-10.1,0v-1h-.5V3.15H8v46.2H42.51l.1-9.33A9.47,9.47,0,0,1,37.73,43.23Z" fill="#fdd600"/><path d="M44.47,34.58A8.87,8.87,0,0,0,42,28.45V11.29s0,0,0-.06a.13.13,0,0,1,0-.06.48.48,0,0,0-.13-.23L31.72.8h0a.43.43,0,0,0-.23-.12l-.06,0H6a.5.5,0,0,0-.5.5v47.2a.5.5,0,0,0,.5.5H41.51a.5.5,0,0,0,.5-.5V40.72A8.89,8.89,0,0,0,44.47,34.58ZM6.53,47.85V1.65H30.87v9.64a.5.5,0,0,0,.5.5H41V27.54a8.93,8.93,0,1,0,0,14.08v6.23Zm29-5.34a7.93,7.93,0,1,1,7.92-7.93A7.93,7.93,0,0,1,35.55,42.51ZM40.3,10.79H31.87V2.36Z" fill="#231f20"/><path d="M39.32,30.17a.49.49,0,0,0-.68.18l-4.29,7.34-1.93-2.36a.5.5,0,0,0-.7-.07.49.49,0,0,0-.07.7L34,38.88a.49.49,0,0,0,.38.18h0a.49.49,0,0,0,.4-.25l4.65-8A.51.51,0,0,0,39.32,30.17Z" fill="#231f20"/><path d="M11.77,17.54H35.55a.5.5,0,0,0,.5-.5.5.5,0,0,0-.5-.5H11.77a.51.51,0,0,0-.5.5A.5.5,0,0,0,11.77,17.54Z" fill="#231f20"/><path d="M11.77,25.25H28.12a.5.5,0,1,0,0-1H11.77a.5.5,0,1,0,0,1Z" fill="#231f20"/><path d="M11.77,33H22.82a.51.51,0,0,0,.5-.5.5.5,0,0,0-.5-.5h-11a.5.5,0,0,0-.5.5A.51.51,0,0,0,11.77,33Z" fill="#231f20"/><path d="M23.66,39.66H11.77a.51.51,0,0,0-.5.5.5.5,0,0,0,.5.5H23.66a.5.5,0,0,0,.5-.5A.5.5,0,0,0,23.66,39.66Z" fill="#231f20"/><path d="M11.77,9.84H25.9a.51.51,0,0,0,.5-.5.5.5,0,0,0-.5-.5H11.77a.5.5,0,0,0-.5.5A.51.51,0,0,0,11.77,9.84Z" fill="#231f20"/><path d="M32.42,35.33a.5.5,0,0,0-.7-.07.49.49,0,0,0-.07.7L34,38.88a.49.49,0,0,0,.38.18h0a.49.49,0,0,0,.4-.25l4.65-8a.51.51,0,0,0-.18-.69.49.49,0,0,0-.68.18l-4.29,7.34Z" fill="none"/></g><g id="b0d9f5bf-cad3-47ac-ae03-8d836780ab61" data-name="LABELS"><text transform="translate(0.08 54.96)" font-size="6" fill="#231f20" font-family="Roboto-Regular, Roboto"><tspan letter-spacing="-0.01em">r</tspan><tspan x="1.97" y="0">egist</tspan><tspan x="15.03" y="0" letter-spacing="-0.02em">r</tspan><tspan x="16.94" y="0">ation-application</tspan></text></g></svg>