<svg xmlns="http://www.w3.org/2000/svg" viewBox="0 0 50 50"><g id="a2616c8d-8b98-4cee-8c13-f9579740f266" data-name="ICONS"><path d="M43.6,11.65l-10.08,0a.57.57,0,0,0-.93-.44L32.25,11l.13-7.69H9.13V49.47H43.62ZM17.94,7.28a2.58,2.58,0,0,1,1.67,4.56,2.64,2.64,0,0,1-3.33,0,2.55,2.55,0,0,1-.92-2A2.59,2.59,0,0,1,17.94,7.28ZM22,22.19H13.86V17A2.21,2.21,0,0,1,16,14.83h4A2.21,2.21,0,0,1,22,17Z" fill="#fdd600"/><path d="M42.85,11.11a.15.15,0,0,0,0-.07.48.48,0,0,0-.12-.22h0L32.58.67h0a.51.51,0,0,0-.23-.12H6.88a.5.5,0,0,0-.5.5V48.22a.5.5,0,0,0,.5.5H42.37a.5.5,0,0,0,.5-.5v-37A.14.14,0,0,0,42.85,11.11ZM7.38,47.72V1.53H31.72v9.64a.5.5,0,0,0,.5.5h9.65V47.72Zm25.34-37V2.23l8.44,8.44Z" fill="#231f20"/><path d="M22.52,23.19a.5.5,0,0,0,.5-.5V17A3.21,3.21,0,0,0,20,13.83h-4A3.22,3.22,0,0,0,12.86,17v5.65a.51.51,0,0,0,.5.5ZM13.86,17A2.21,2.21,0,0,1,16,14.83h4A2.21,2.21,0,0,1,22,17v5.15H13.86Z" fill="#231f20"/><path d="M17.94,13.45a3.57,3.57,0,1,0-2.31-.84A3.63,3.63,0,0,0,17.94,13.45Zm0-6.17a2.58,2.58,0,0,1,1.67,4.56,2.64,2.64,0,0,1-3.33,0,2.55,2.55,0,0,1-.92-2A2.59,2.59,0,0,1,17.94,7.28Z" fill="#231f20"/><path d="M35.89,27.43H13.53a.5.5,0,0,0-.5.5.51.51,0,0,0,.5.5H35.89a.51.51,0,0,0,.5-.5A.5.5,0,0,0,35.89,27.43Z" fill="#231f20"/><path d="M35.89,42H13.53a.5.5,0,0,0-.5.5.51.51,0,0,0,.5.5H35.89a.51.51,0,0,0,.5-.5A.5.5,0,0,0,35.89,42Z" fill="#231f20"/><path d="M35.89,34.7H13.53a.5.5,0,0,0-.5.5.51.51,0,0,0,.5.5H35.89a.51.51,0,0,0,.5-.5A.5.5,0,0,0,35.89,34.7Z" fill="#231f20"/><path d="M35.89,20.16H26.14a.5.5,0,0,0-.5.5.5.5,0,0,0,.5.5h9.75a.51.51,0,0,0,.5-.5A.5.5,0,0,0,35.89,20.16Z" fill="#231f20"/></g><g id="b23ae75d-4536-4251-b68a-298c08e2c184" data-name="LABELS"><text transform="translate(0 54.91)" font-size="6" fill="#231f20" font-family="Roboto-Regular, Roboto"><tspan letter-spacing="-0.01em">r</tspan><tspan x="1.97" y="0">esume</tspan></text></g></svg>