<svg xmlns="http://www.w3.org/2000/svg" viewBox="0 0 50 50"><g id="b7587bc9-9bca-4140-889d-4993bc6498cf" data-name="ICONS"><polygon points="17.23 45.39 17.23 48.52 35.3 48.52 35.3 45.39 32.54 45.39 19.99 45.39 17.23 45.39" fill="#fdd600"/><rect x="20.44" y="42.33" width="11.64" height="3.05" fill="#fdd600"/><path d="M11.33,33.88c4.59,0,8.37-2.66,8.71-6H2.62C3,31.22,6.74,33.88,11.33,33.88Z" fill="#fdd600"/><path d="M26.26,9.78a2.67,2.67,0,1,0,2.67,2.67A2.67,2.67,0,0,0,26.26,9.78Z" fill="#fdd600"/><path d="M41.19,33.88c4.59,0,8.37-2.66,8.71-6H32.48C32.83,31.22,36.6,33.88,41.19,33.88Z" fill="#fdd600"/><path d="M48.93,25.36h-2L40.32,11.45h2.85a.51.51,0,0,0,.5-.5.5.5,0,0,0-.5-.5H28.38a3.65,3.65,0,0,0-3.12-3.12V2a.5.5,0,0,0-.5-.5.5.5,0,0,0-.5.5V7.33a3.64,3.64,0,0,0-3.11,3.12H6.36a.5.5,0,0,0-.5.5.5.5,0,0,0,.5.5H9.21L2.62,25.36H.6a.5.5,0,0,0-.5.5c0,4.15,4.36,7.52,9.73,7.52s9.74-3.37,9.74-7.52a.51.51,0,0,0-.5-.5H17L10.45,11.45h10.7a3.63,3.63,0,0,0,3.11,3.11V39.83H18.49a.58.58,0,0,0-.55.55v3H15.23a.5.5,0,0,0-.5.5v3.59a.5.5,0,0,0,.5.5H34.3a.5.5,0,0,0,.5-.5V43.92a.51.51,0,0,0-.5-.5H31.58v-3a.58.58,0,0,0-.54-.55H25.26V14.56a3.64,3.64,0,0,0,3.12-3.11H39.07L32.49,25.36h-2a.5.5,0,0,0-.5.5c0,4.15,4.37,7.52,9.73,7.52s9.74-3.37,9.74-7.52A.5.5,0,0,0,48.93,25.36Zm-30.39,1c-.34,3.36-4.12,6-8.71,6s-8.36-2.66-8.71-6Zm-2.61-1H3.73l6.1-12.89ZM33.8,44.42V47H15.73V44.42H33.8Zm-3.22-3.59v2.59H18.94V40.83ZM24.76,13.61A2.67,2.67,0,1,1,27.43,11,2.67,2.67,0,0,1,24.76,13.61Zm14.93-1.14,6.1,12.89H33.59Zm0,19.91c-4.59,0-8.36-2.66-8.71-6H48.4C48.06,29.72,44.28,32.38,39.69,32.38Z" fill="#231f20"/></g><g id="bbf9057a-572a-46a4-ac20-313a25c400a4" data-name="LABELS"><text transform="translate(0.25 55.07)" font-size="6" fill="#231f20" font-family="Roboto-Regular, Roboto">scales-justice</text></g></svg>