<svg id="b56834d3-837d-4016-92b3-37fe09f4e7f0" data-name="ICONS" xmlns="http://www.w3.org/2000/svg" viewBox="0 0 50 50"><path d="M45.5,41.32a.51.51,0,0,1,.49-.39h1.82V39.19H46a.49.49,0,0,1-.48-.39,5.9,5.9,0,0,0-.78-1.87.5.5,0,0,1,.07-.63L46.08,35l-1.23-1.23-1.28,1.28a.5.5,0,0,1-.63.07,5.71,5.71,0,0,0-1.87-.78.49.49,0,0,1-.39-.48V32.06H38.94v1.81a.49.49,0,0,1-.39.49,5.9,5.9,0,0,0-1.87.78.5.5,0,0,1-.63-.07l-1.28-1.28L33.54,35l1.28,1.29a.49.49,0,0,1,.07.62,5.9,5.9,0,0,0-.78,1.87.51.51,0,0,1-.48.4H31.81v1.74h1.81a.5.5,0,0,1,.49.4,5.9,5.9,0,0,0,.78,1.87.5.5,0,0,1-.07.62L33.54,45.1l1.22,1.23L36.05,45a.5.5,0,0,1,.62-.06,5.87,5.87,0,0,0,1.87.77.52.52,0,0,1,.4.49v1.82h1.74V46.24a.49.49,0,0,1,.39-.48A5.9,5.9,0,0,0,42.94,45a.49.49,0,0,1,.62.07l1.29,1.28,1.23-1.23-1.29-1.28a.51.51,0,0,1-.06-.63,5.48,5.48,0,0,0,.77-1.87m-6.69,1.17a3.43,3.43,0,1,1,3.43-3.43,3.44,3.44,0,0,1-3.43,3.43" fill="#fdd600"/><path d="M36.54,30.85l.4.25v-.54a.5.5,0,0,1,.5-.5h2.74a.51.51,0,0,1,.5.5v1h1a.51.51,0,0,1,.5.5v1l1.32-1.32a.5.5,0,0,1,.71,0l1.5,1.5.43.43.73.73c.22-.57.42-1.16.59-1.76a.29.29,0,0,1,0-.13A22.06,22.06,0,1,0,11.79,43.13V38.31a8.8,8.8,0,0,1,8.37-8.8H32.32a8.78,8.78,0,0,1,4.22,1.34m-4.9-6.61a8.35,8.35,0,1,1,3-6.38,8.38,8.38,0,0,1-3,6.38" fill="#fdd600"/><path d="M30.76,46.21a21.85,21.85,0,0,1-13-.3V38.45a.5.5,0,0,0-.5-.5.51.51,0,0,0-.5.5v7.09a21.63,21.63,0,0,1-5.44-3.09V36.81A7.8,7.8,0,0,1,18.68,29H30.79a7.77,7.77,0,0,1,3.72,1.19.5.5,0,0,0,.53-.85A8.78,8.78,0,0,0,30.82,28H18.66a8.8,8.8,0,0,0-8.37,8.8v4.82A22.06,22.06,0,1,1,46,31a.49.49,0,0,0,.34.61.5.5,0,0,0,.62-.34A23.09,23.09,0,1,0,31,47.18a.5.5,0,1,0-.27-1" fill="#231f20"/><path d="M16.39,16.36A8.36,8.36,0,1,0,24.75,8a8.37,8.37,0,0,0-8.36,8.36m15.72,0A7.36,7.36,0,1,1,24.75,9a7.34,7.34,0,0,1,7.36,7.36" fill="#231f20"/><path d="M47.31,37.19H45.38a6.81,6.81,0,0,0-.6-1.46l1.36-1.36a.51.51,0,0,0,0-.71l-1.93-1.93a.5.5,0,0,0-.71,0l-1.36,1.36a7.16,7.16,0,0,0-1.46-.61V30.56a.51.51,0,0,0-.5-.5H37.44a.5.5,0,0,0-.5.5v1.92a7.4,7.4,0,0,0-1.46.61l-1.36-1.36a.5.5,0,0,0-.71,0l-1.93,1.93a.5.5,0,0,0,0,.71l1.36,1.36a6.93,6.93,0,0,0-.61,1.46H30.31a.5.5,0,0,0-.5.5v2.73a.5.5,0,0,0,.5.5h1.92a6.93,6.93,0,0,0,.61,1.46l-1.36,1.37a.48.48,0,0,0,0,.7l1.93,1.94a.51.51,0,0,0,.71,0L35.48,45a6.9,6.9,0,0,0,1.46.6v1.93a.51.51,0,0,0,.5.5h2.74a.51.51,0,0,0,.5-.5V45.63a6.53,6.53,0,0,0,1.45-.6l1.37,1.36a.51.51,0,0,0,.71,0l1.93-1.94a.48.48,0,0,0,0-.7l-1.36-1.37a6.34,6.34,0,0,0,.6-1.45h1.93a.5.5,0,0,0,.5-.5V37.69a.5.5,0,0,0-.5-.5m-.5,2.74H45a.51.51,0,0,0-.49.39,5.48,5.48,0,0,1-.77,1.87.51.51,0,0,0,.06.63l1.29,1.28-1.23,1.23L42.56,44a.5.5,0,0,0-.62-.06,5.65,5.65,0,0,1-1.87.77.5.5,0,0,0-.39.49v1.82H37.94V45.24a.51.51,0,0,0-.4-.49A5.87,5.87,0,0,1,35.67,44a.5.5,0,0,0-.62.06l-1.29,1.29L32.54,44.1l1.28-1.29a.5.5,0,0,0,.07-.62,5.9,5.9,0,0,1-.78-1.87.5.5,0,0,0-.49-.4H30.81V38.19h1.81a.49.49,0,0,0,.49-.39,5.9,5.9,0,0,1,.78-1.87.49.49,0,0,0-.07-.62L32.54,34l1.23-1.22,1.28,1.28a.53.53,0,0,0,.63.07,5.9,5.9,0,0,1,1.87-.78.49.49,0,0,0,.39-.49V31.06h1.74v1.81a.49.49,0,0,0,.39.49,5.71,5.71,0,0,1,1.87.78.5.5,0,0,0,.63-.07l1.28-1.28L45.08,34,43.8,35.3a.49.49,0,0,0-.07.62,6,6,0,0,1,.78,1.88.49.49,0,0,0,.48.39h1.82Z" fill="#231f20"/><path d="M38.81,35.63a3.43,3.43,0,1,0,3.43,3.43,3.44,3.44,0,0,0-3.43-3.43m0,5.86a2.43,2.43,0,1,1,2.43-2.43,2.43,2.43,0,0,1-2.43,2.43" fill="#231f20"/></svg>