<svg xmlns="http://www.w3.org/2000/svg" viewBox="0 0 50 50"><defs><style>.cls-1{fill:none;}.cls-2{font-size:6px;font-family:Roboto-Regular, Roboto;}</style></defs><g id="ICONS"><path class="cls-1" d="M10.82,21.55h-.36V22a.5.5,0,0,0,.5.5H22.88a.5.5,0,0,0,.5-.5v-.4H10.82Z"/><path class="cls-1" d="M26,22a.5.5,0,0,0,.5.5H38.43a.5.5,0,0,0,.5-.5v-.4H26Z"/><path d="M48.6,36.36V32.68s0,0,0,0V28.45a5,5,0,0,0-4.77-5L42.29,20.1l0-6.11a5.05,5.05,0,0,0-5-5.05H12A5.06,5.06,0,0,0,6.93,14v6.24L5.15,23.45a5,5,0,0,0-4.52,5V40.56a.51.51,0,0,0,.5.5H6.81a.51.51,0,0,0,.35-.15.49.49,0,0,0,.15-.36V37.1H41.49v3.46a.5.5,0,0,0,.5.5H48.1a.5.5,0,0,0,.5-.5V36.73a.41.41,0,0,0,0-.19A.34.34,0,0,0,48.6,36.36ZM7.76,20.81h2.7V22a.5.5,0,0,0,.5.5H22.88a.5.5,0,0,0,.5-.5V20.73H26V22a.5.5,0,0,0,.5.5H38.43a.5.5,0,0,0,.5-.5V20.8h2.58l1.21,2.61H6.32Zm14.62-.58v1.23H11.46V15.23H22.38Zm4.63,0v-5H37.93v6.23H27ZM7.93,14A4.06,4.06,0,0,1,12,9.94H37.22a4.05,4.05,0,0,1,4,4.05h0l0,5.8H39l0-5.07s0-.06,0-.09a.45.45,0,0,0,0-.11s0,0,0,0a1,1,0,0,0-.08-.11l0,0a1.1,1.1,0,0,0-.14-.09.45.45,0,0,0-.2,0H26.51a.5.5,0,0,0-.5.5v5H23.38v-5a.5.5,0,0,0-.5-.5H11a.45.45,0,0,0-.2,0l-.07.05a.24.24,0,0,0-.08.06s0,0-.06.07,0,.05-.05.08,0,.06,0,.09a.36.36,0,0,0,0,.1l-.07,5.08H7.93ZM5.68,24.4H43.56a4.05,4.05,0,0,1,4,4.05v3.69l-46-.07V28.45A4.06,4.06,0,0,1,5.68,24.4Zm-4,15.66v-3H6.3v3Zm46,0H42.49v-3l5.11,0ZM42,36.1H1.63v-3l46,.07v2.91Z"/></g><g id="LABELS"><text class="cls-2" transform="translate(0.3 54.89)">bed</text></g></svg>