<svg xmlns="http://www.w3.org/2000/svg" viewBox="0 0 50 50"><defs><style>.cls-1{font-size:6px;font-family:Roboto-Regular, Roboto;}</style></defs><g id="ICONS"><path d="M49.36,33.64a3.35,3.35,0,0,0-1.53-2.36,3.82,3.82,0,0,0-3.14-.49L33.56,33a2.93,2.93,0,0,0-.49-2.12,3,3,0,0,0-2-1.25l-11.38-3-.13,0H12.7v-.22a.5.5,0,0,0-.5-.5H7V24.38a.5.5,0,0,0-.5-.5H1.11a.51.51,0,0,0-.5.5V40.12a.51.51,0,0,0,.5.5H6.47a.5.5,0,0,0,.5-.5V38.57H12.2a.5.5,0,0,0,.5-.5v-.86L30,40.68l.21,0h.09a.51.51,0,0,0,.24-.07l15.71-3.15A3.63,3.63,0,0,0,49.36,33.64ZM6,26.43V39.62H1.61V24.88H6ZM11.7,37.57H7V26.93H11.7Zm34.35-1L30.2,39.7,12.7,36.19v-1.3l0-.11a.53.53,0,0,0,0-.28V27.65h6.81l11.38,3a2,2,0,0,1,1.36.84A2,2,0,0,1,32.57,33a2,2,0,0,1-.93,1.25,2.06,2.06,0,0,1-1.63.18L18.57,31.54a.49.49,0,0,0-.53.21.35.35,0,0,0-.08.16.49.49,0,0,0,.36.6l11.42,2.87a3,3,0,0,0,3.4-1.25l11.77-2.36h0a2.78,2.78,0,0,1,2.33.36,2.36,2.36,0,0,1,1.09,1.64A2.65,2.65,0,0,1,46.05,36.52Z"/><path d="M30.81,25.26a.53.53,0,0,0,.36.15.51.51,0,0,0,.35-.15l7.59-7.59a5.15,5.15,0,1,0-7.28-7.28l-.66.67-.67-.67a5.15,5.15,0,1,0-7.28,7.28ZM23.93,11.1a4.13,4.13,0,0,1,5.86,0l1,1a.51.51,0,0,0,.71,0l1-1a4.13,4.13,0,0,1,5.86,0,4.14,4.14,0,0,1,0,5.86L31.17,24.2,23.93,17a4.13,4.13,0,0,1,0-5.86Z"/></g><g id="LABELS"><text class="cls-1" transform="translate(-0.08 54.98)">donate</text></g></svg>