<svg xmlns="http://www.w3.org/2000/svg" viewBox="0 0 50 50"><defs><style>.cls-1{font-size:6px;font-family:Roboto-Regular, Roboto;}</style></defs><g id="ICONS"><path d="M47.74,10.79,39.21,2.26a3.37,3.37,0,0,0-4.74,0L2.26,34.47a3.37,3.37,0,0,0,0,4.74l8.53,8.52a3.33,3.33,0,0,0,4.74,0,.5.5,0,0,0,0-.7L8.3,39.8l2.54-2.55,6.94,6.93a.49.49,0,0,0,.35.15.47.47,0,0,0,.35-.15.48.48,0,0,0,0-.7l-6.93-6.94L14,34.06,21,41a.5.5,0,0,0,.7-.71l-6.93-6.93,2.48-2.49,6.93,6.94a.5.5,0,0,0,.36.14.47.47,0,0,0,.35-.14.5.5,0,0,0,0-.71l-6.93-6.93,2.48-2.48,6.93,6.93a.51.51,0,0,0,.36.15.5.5,0,0,0,.35-.15.51.51,0,0,0,0-.71L21.12,27,23.6,24.5l6.93,6.93a.5.5,0,0,0,.35.15.51.51,0,0,0,.36-.15.51.51,0,0,0,0-.71L24.3,23.79l2.49-2.48,6.93,6.93a.49.49,0,0,0,.35.15.51.51,0,0,0,.36-.15.5.5,0,0,0,0-.7L27.49,20.6,30,18.12l6.94,6.93a.48.48,0,0,0,.7,0,.48.48,0,0,0,0-.7l-6.93-6.94,2.48-2.48,6.94,6.94a.5.5,0,0,0,.35.14.52.52,0,0,0,.35-.14.5.5,0,0,0,0-.71l-6.93-6.93,2.48-2.48,6.93,6.93a.5.5,0,0,0,.36.14A.5.5,0,0,0,44,18L37.06,11,39.8,8.3,47,15.53a.51.51,0,0,0,.71,0A3.37,3.37,0,0,0,47.74,10.79ZM40.15,7.24a.5.5,0,0,0-.71,0L7.24,39.44a.5.5,0,0,0,0,.71l7.19,7.19A2.39,2.39,0,0,1,11.5,47L3,38.5a2.36,2.36,0,0,1,0-3.32L35.18,3A2.34,2.34,0,0,1,38.5,3L47,11.5a2.35,2.35,0,0,1,.31,2.93Z"/></g><g id="LABELS"><text class="cls-1" transform="translate(0 55.08)">hair-comb</text></g></svg>