<svg xmlns="http://www.w3.org/2000/svg" viewBox="0 0 50 50"><g id="b788dfbf-0d6d-43a0-bee8-02317ae7f43d" data-name="ICONS"><path d="M45.57,7.18a13,13,0,0,0-18.42,0l-2.4,2.4-2.4-2.4A13,13,0,0,0,.11,16.4a12.9,12.9,0,0,0,3.82,9.21L24.4,46.08a.48.48,0,0,0,.7,0L45.57,25.61a13,13,0,0,0,0-18.43Zm-23.92.71,2.75,2.75a.48.48,0,0,0,.7,0l2.75-2.75a12,12,0,0,1,17,17L24.75,45,4.63,24.91a12,12,0,0,1,17-17Z"/></g><g id="e5fcb0c8-03ee-47eb-a309-a760bee1c16a" data-name="LABELS"><text transform="translate(0.17 55.08)" font-size="6" font-family="Roboto-Regular, Roboto">hea<tspan x="9.75" y="0" letter-spacing="0.02em">r</tspan><tspan x="11.92" y="0">t</tspan></text></g></svg>