<svg xmlns="http://www.w3.org/2000/svg" viewBox="0 0 50 50"><defs><style>.cls-1{font-size:6px;font-family:Roboto-Regular, Roboto;}</style></defs><g id="ICONS"><path d="M44.4,22.13a.49.49,0,0,0-.44-.34l-6.33-.37-2.31-5.9a.52.52,0,0,0-.93,0l-2.3,5.9-6.33.37a.51.51,0,0,0-.45.34.5.5,0,0,0,.16.54l4.9,4-1.6,6.13a.5.5,0,0,0,.19.53.48.48,0,0,0,.56,0L34.86,30l5.33,3.42a.56.56,0,0,0,.27.08.47.47,0,0,0,.3-.1.51.51,0,0,0,.19-.53l-1.61-6.13,4.9-4A.48.48,0,0,0,44.4,22.13Zm-5.94,4a.52.52,0,0,0-.17.52l1.37,5.2-4.53-2.9a.48.48,0,0,0-.54,0l-4.53,2.9,1.36-5.2a.5.5,0,0,0-.17-.52l-4.16-3.41,5.37-.31a.5.5,0,0,0,.44-.32l2-5,2,5a.53.53,0,0,0,.44.32l5.37.31Z"/><path d="M46.94,38.93a.49.49,0,0,0-.68-.12l-.07,0c-1.43,1-5,3.3-8.71,3.72A17.95,17.95,0,1,1,46.1,10.38a.61.61,0,0,0,.56,0,.5.5,0,0,0,.29-.33.54.54,0,0,0-.09-.43A24.5,24.5,0,1,0,27.45,49.13,24.5,24.5,0,0,0,46.86,39.6.51.51,0,0,0,46.94,38.93ZM30.15,48A23.5,23.5,0,1,1,24.79,1.28a23,23,0,0,1,2.74-.16A23.28,23.28,0,0,1,44,7.9a18.92,18.92,0,1,0-6.4,35.66,18.56,18.56,0,0,0,6.34-2.15A23.28,23.28,0,0,1,30.15,48Z"/></g><g id="LABELS"><text class="cls-1" transform="translate(0.52 55.02)">islam</text></g></svg>