<svg xmlns="http://www.w3.org/2000/svg" viewBox="0 0 50 50"><defs><style>.cls-1{font-size:6px;font-family:Roboto-Regular, Roboto;}</style></defs><g id="ICONS"><path d="M27.94.89a8.74,8.74,0,0,0-8.53,6.94H17.22a.51.51,0,0,0-.5.5V10.1a5.73,5.73,0,0,0-4.17,5.5v.28H11.48a.5.5,0,0,0-.5.5.5.5,0,0,0,.5.5H28a.5.5,0,0,0,.5-.5.5.5,0,0,0-.5-.5H26.91V15.6a5.72,5.72,0,0,0-4.13-5.49V8.33a.51.51,0,0,0-.5-.5H20.44A7.71,7.71,0,0,1,35.66,9.6v39a.5.5,0,0,0,.5.5.5.5,0,0,0,.5-.5V9.6A8.73,8.73,0,0,0,27.94.89Zm-2,15H13.55V15.6a4.71,4.71,0,0,1,4.71-4.71H21.2a4.71,4.71,0,0,1,4.71,4.71Zm-4.13-6H17.72V8.83h4.06Z"/><path d="M14.34,18.92a.5.5,0,0,0-.5.5v2a.5.5,0,0,0,.5.5.51.51,0,0,0,.5-.5v-2A.5.5,0,0,0,14.34,18.92Z"/><path d="M14.34,24.3a.5.5,0,0,0-.5.5v3.39a.5.5,0,0,0,.5.5.51.51,0,0,0,.5-.5V24.8A.51.51,0,0,0,14.34,24.3Z"/><path d="M14.34,31.07a.5.5,0,0,0-.5.5V35a.5.5,0,0,0,.5.5.5.5,0,0,0,.5-.5V31.57A.51.51,0,0,0,14.34,31.07Z"/><path d="M14.34,37.85a.5.5,0,0,0-.5.5v2a.5.5,0,0,0,.5.5.51.51,0,0,0,.5-.5v-2A.5.5,0,0,0,14.34,37.85Z"/><path d="M19.73,20.85a.5.5,0,0,0-.5.5v2a.5.5,0,0,0,.5.5.5.5,0,0,0,.5-.5v-2A.5.5,0,0,0,19.73,20.85Z"/><path d="M19.73,26.65a.51.51,0,0,0-.5.5V31a.51.51,0,0,0,.5.5.5.5,0,0,0,.5-.5V27.15A.5.5,0,0,0,19.73,26.65Z"/><path d="M19.73,34.26a.51.51,0,0,0-.5.5v3.81a.51.51,0,0,0,.5.5.5.5,0,0,0,.5-.5V34.76A.5.5,0,0,0,19.73,34.26Z"/><path d="M19.73,41.87a.5.5,0,0,0-.5.5v2a.5.5,0,0,0,.5.5.5.5,0,0,0,.5-.5v-2A.5.5,0,0,0,19.73,41.87Z"/><path d="M25.12,18.92a.5.5,0,0,0-.5.5v2a.51.51,0,0,0,.5.5.5.5,0,0,0,.5-.5v-2A.5.5,0,0,0,25.12,18.92Z"/><path d="M25.12,25a.51.51,0,0,0-.5.5v4.09a.5.5,0,0,0,.5.5.5.5,0,0,0,.5-.5V25.5A.5.5,0,0,0,25.12,25Z"/><path d="M25.12,33.18a.5.5,0,0,0-.5.5v2a.51.51,0,0,0,.5.5.5.5,0,0,0,.5-.5v-2A.5.5,0,0,0,25.12,33.18Z"/></g><g id="LABELS"><text class="cls-1" transform="translate(-0.1 55.08)">shower-head</text></g></svg>