<svg id="add70344-b3ab-4b54-b23d-aa6b76a19e8b" data-name="ICONS" xmlns="http://www.w3.org/2000/svg" viewBox="0 0 50 50"><path d="M11,15.52H5A1.53,1.53,0,0,0,3.45,17v5.69A1.53,1.53,0,0,0,5,24.25h6a1.52,1.52,0,0,0,1.52-1.52V17A1.52,1.52,0,0,0,11,15.52Zm.52,7.21a.52.52,0,0,1-.52.52H5a.52.52,0,0,1-.52-.52V17A.52.52,0,0,1,5,16.52h6a.52.52,0,0,1,.52.52Z"/><rect x="15.17" y="16.52" width="7.04" height="6.73" rx="0.52" fill="none"/><rect x="4.45" y="16.52" width="7.04" height="6.73" rx="0.52" fill="none"/><path d="M33.75,32.7a2.3,2.3,0,1,0,2.3-2.29A2.3,2.3,0,0,0,33.75,32.7Z" fill="none"/><path d="M8.81,32.7a2.3,2.3,0,1,0,2.3-2.29A2.3,2.3,0,0,0,8.81,32.7Z" fill="none"/><path d="M37.84,18v4.24a1.47,1.47,0,0,0,1.46,1.46h7.48V16.52H39.3A1.46,1.46,0,0,0,37.84,18Z" fill="none"/><rect x="25.88" y="16.73" width="7.04" height="6.73" rx="0.52" fill="none"/><path d="M49.35,13.52H47.47a1.91,1.91,0,0,0-1.59-.87H2.82A1.92,1.92,0,0,0,.91,14.56v16.3a2,2,0,0,0,1.27,3.61H6.82a4.64,4.64,0,0,0,8.58,0H31.76a4.64,4.64,0,0,0,8.58,0h6.2a2,2,0,0,0,1.24-3.63V14.52h1.07v1.32a.5.5,0,0,0,.5.5.5.5,0,0,0,.5-.5V14A.5.5,0,0,0,49.35,13.52Zm-47.44,1a.91.91,0,0,1,.91-.91H45.88a.91.91,0,0,1,.9.91v1H39.3A2.46,2.46,0,0,0,36.84,18v4.24a2.46,2.46,0,0,0,2.46,2.46h7.48v1.2H1.91Zm44.87,2v7.16H39.3a1.47,1.47,0,0,1-1.46-1.46V18a1.46,1.46,0,0,1,1.46-1.46Zm-40.23,17H2.18a1,1,0,1,1,0-2.06h4.5a4.25,4.25,0,0,0-.21,1.29A3.87,3.87,0,0,0,6.55,33.47Zm4.56,2.88a3.65,3.65,0,1,1,3.64-3.65A3.65,3.65,0,0,1,11.11,36.35Zm20.38-2.88H15.67a3.87,3.87,0,0,0,.08-.77,4.25,4.25,0,0,0-.21-1.29H31.62a4.25,4.25,0,0,0-.21,1.29A3.87,3.87,0,0,0,31.49,33.47Zm4.56,2.88a3.65,3.65,0,1,1,3.64-3.65A3.65,3.65,0,0,1,36.05,36.35Zm4-5.94a4.6,4.6,0,0,0-8,0H15.12a4.6,4.6,0,0,0-8,0H2.18l-.27,0V26.88H46.78v3.55l-.24,0Zm6.48,3.06H40.61a3.87,3.87,0,0,0,.08-.77,4.58,4.58,0,0,0-.2-1.29h6a1,1,0,1,1,0,2.06Z"/><path d="M11.11,30.41a2.3,2.3,0,1,0,2.3,2.29A2.3,2.3,0,0,0,11.11,30.41Zm0,3.59a1.3,1.3,0,1,1,1.3-1.3A1.3,1.3,0,0,1,11.11,34Z"/><path d="M36.05,30.41a2.3,2.3,0,1,0,2.3,2.29A2.3,2.3,0,0,0,36.05,30.41Zm0,3.59a1.3,1.3,0,1,1,1.3-1.3A1.3,1.3,0,0,1,36.05,34Z"/><path d="M21.68,15.52h-6A1.52,1.52,0,0,0,14.17,17v5.69a1.52,1.52,0,0,0,1.52,1.52h6a1.53,1.53,0,0,0,1.53-1.52V17A1.53,1.53,0,0,0,21.68,15.52Zm.53,7.21a.52.52,0,0,1-.53.52h-6a.52.52,0,0,1-.52-.52V17a.52.52,0,0,1,.52-.52h6a.52.52,0,0,1,.53.52Z"/><path d="M32.4,15.73h-6a1.53,1.53,0,0,0-1.53,1.52v5.69a1.54,1.54,0,0,0,1.53,1.53h6a1.53,1.53,0,0,0,1.52-1.53V17.25A1.52,1.52,0,0,0,32.4,15.73Zm.52,7.21a.52.52,0,0,1-.52.53h-6a.53.53,0,0,1-.53-.53V17.25a.52.52,0,0,1,.53-.52h6a.52.52,0,0,1,.52.52Z"/></svg>