<svg xmlns="http://www.w3.org/2000/svg" viewBox="0 0 50 50"><g id="bf284280-9e88-4b09-8a03-440229e36026" data-name="ICONS"><path d="M48.52,22.13a8.26,8.26,0,0,0-1.69-1.93,3.94,3.94,0,0,0-.84-.49c-.19-.08-.22-.1-.3-.21a1.07,1.07,0,0,1-.14-.67,1.6,1.6,0,0,0-.36-1.17,1.4,1.4,0,0,0-.79-.41,1.78,1.78,0,0,1-.67-.28,3.36,3.36,0,0,1-.73-.73,3,3,0,0,1-.61-1,2.25,2.25,0,0,1-.1-1.13,1.78,1.78,0,0,1,.27-.62,1.23,1.23,0,0,0,.22-1,2,2,0,0,0-.8-1,4,4,0,0,0-.51-.35c-.11-.05-.11-.06-.13-.09s0-.06,0-.26a3.71,3.71,0,0,0,0-.54A7.09,7.09,0,0,0,41,8.93a.5.5,0,0,0-.48-.35H1.08a.5.5,0,0,0-.49.54,4.06,4.06,0,0,1-.1,1.26A6.3,6.3,0,0,1,.27,11,1.46,1.46,0,0,0,.14,12.1a1.24,1.24,0,0,0,.72.75.7.7,0,0,1,.37.29c.13.23.06.62-.12,1.49a4.34,4.34,0,0,1-.33,1.14,2.44,2.44,0,0,1-.34.52A1.19,1.19,0,0,0,.12,17c0,.66.4,1.12,1,1.75a4.9,4.9,0,0,0,.53.5c.11.08.12.09.16.16s.09.34.05.69A4.26,4.26,0,0,0,1.8,21a5.29,5.29,0,0,0,.81,2.36,6.74,6.74,0,0,0,.62,1,4.81,4.81,0,0,1,.58.92,4,4,0,0,1,.52,1.34A3.06,3.06,0,0,1,4.06,28c-.17.44-.36.94,0,1.36a1.27,1.27,0,0,0,1.13.28h.13a1.82,1.82,0,0,0-.11,1.09,1.31,1.31,0,0,0,.51.76.87.87,0,0,1,.28.34c.07.15.07.21,0,.53a9.75,9.75,0,0,0,0,1.17,7.08,7.08,0,0,0,.07.9.43.43,0,0,1,0,.23,1.93,1.93,0,0,1-.49.84,1.08,1.08,0,0,0-.37,1.1.94.94,0,0,0,.57.51,1.06,1.06,0,0,1,.36.22,1.32,1.32,0,0,1,.29.63.49.49,0,0,0,.49.41c17.14,0,28.72,0,29.6,0a1,1,0,0,1,.66.15.88.88,0,0,1,.27.46A5.66,5.66,0,0,0,39,41.15a.51.51,0,0,0,.35.13h.06a.52.52,0,0,0,.37-.24,3.14,3.14,0,0,0,.51-2.32,3.66,3.66,0,0,0-.17-.53C40,38,40,37.83,40,37.79a2,2,0,0,1,.39-.2c.51-.23.89-.37,1.18-.48a1.92,1.92,0,0,0,1.12-.72,1.2,1.2,0,0,0,.18-.58,1.13,1.13,0,0,1,.11-.44,2.05,2.05,0,0,1,.28-.49,1.94,1.94,0,0,0,.35-.59,2.37,2.37,0,0,0,.06-1.84,1.9,1.9,0,0,0-.86-.89l-.1-.07,0,0a2.54,2.54,0,0,0,.62-.81,1.73,1.73,0,0,0,.19-.71.53.53,0,0,1,0-.18c.09-.17.3-.23.87-.35A8.51,8.51,0,0,0,45.94,29a4,4,0,0,0,2.52-1.92,2.08,2.08,0,0,0,.14-.84,2.87,2.87,0,0,1,.07-.69,1.61,1.61,0,0,1,.35-.72,1.58,1.58,0,0,0,.4-1C49.41,23.35,49.11,22.94,48.52,22.13Zm-.3,2.11a2.65,2.65,0,0,0-.53,1.11,3.94,3.94,0,0,0-.09.9,1,1,0,0,1-.08.48c-.27.71-1.23,1.08-1.93,1.34a9.67,9.67,0,0,1-1.36.38c-.67.14-1.26.26-1.56.88a1.26,1.26,0,0,0-.14.52,1,1,0,0,1-.1.38,1.71,1.71,0,0,1-.4.51,1,1,0,0,0-.41.8,1.09,1.09,0,0,0,.64.86,1.1,1.1,0,0,1,.48.45,1.5,1.5,0,0,1-.07,1.07,1.57,1.57,0,0,1-.22.36A2.59,2.59,0,0,0,42,35a2.12,2.12,0,0,0-.19.75c0,.08,0,.08,0,.11s-.16.15-.62.32c-.3.11-.7.26-1.24.51a1.45,1.45,0,0,0-.89.7,1.5,1.5,0,0,0,.09,1.17,3.09,3.09,0,0,1,.14.4,1.7,1.7,0,0,1-.11,1,3.86,3.86,0,0,1-.77-1.27,1.81,1.81,0,0,0-.6-.9,1.86,1.86,0,0,0-1.17-.37h-.18c-.87,0-14.47,0-29.13,0a2.25,2.25,0,0,0-.45-.73,1.91,1.91,0,0,0-.59-.41l.06-.08a2.84,2.84,0,0,0,.72-1.26,1.36,1.36,0,0,0,0-.6A6.25,6.25,0,0,1,7,33.52a8.18,8.18,0,0,1,0-1.07,1.74,1.74,0,0,0-.68-1.7c-.13-.11-.15-.14-.18-.24A.84.84,0,0,1,6.27,30a1,1,0,0,0,0-1,1.11,1.11,0,0,0-1.13-.34l-.23,0c0-.09.07-.21.11-.31a3.83,3.83,0,0,0,.33-1.91,4.69,4.69,0,0,0-.62-1.69A5.62,5.62,0,0,0,4,23.71a5.1,5.1,0,0,1-.53-.82A4.38,4.38,0,0,1,2.8,21a4.66,4.66,0,0,1,0-.69A1.9,1.9,0,0,0,2.67,19a1.33,1.33,0,0,0-.4-.46,5.24,5.24,0,0,1-.43-.4c-.43-.46-.74-.79-.73-1,0,0,0,0,.11-.17a3.39,3.39,0,0,0,.45-.71,4.56,4.56,0,0,0,.42-1.38c.21-1,.33-1.62,0-2.17a1.67,1.67,0,0,0-.8-.7c-.19-.1-.21-.12-.22-.16s0-.12.1-.39a4.2,4.2,0,0,0,.27-.79,5.2,5.2,0,0,0,.14-1H40.16a4.48,4.48,0,0,1,.14.73,3.26,3.26,0,0,1,0,.41,1.23,1.23,0,0,0,.18.8A1.2,1.2,0,0,0,41,12a2.18,2.18,0,0,1,.36.24c.24.21.44.37.47.49s0,.05-.11.25a2.58,2.58,0,0,0-.39.93,3.18,3.18,0,0,0,.13,1.63,3.78,3.78,0,0,0,.78,1.36,4.13,4.13,0,0,0,.94.93,2.49,2.49,0,0,0,1,.43c.19.05.22.06.28.12s.1.2.1.49a2,2,0,0,0,.31,1.22,1.5,1.5,0,0,0,.73.58,2.56,2.56,0,0,1,.65.37,7.93,7.93,0,0,1,1.47,1.72,4.93,4.93,0,0,1,.71,1.1C48.42,24,48.37,24,48.22,24.24Z"/></g><g id="b8dff12a-cef6-4376-9155-8709082a76a6" data-name="LABELS"><text transform="translate(0.3 55.13)" font-size="6" font-family="Roboto-Regular, Roboto">iowa</text></g></svg>