<svg id="bf5bf520-cb7b-4ab1-987c-9ca14766eff4" data-name="ICONS" xmlns="http://www.w3.org/2000/svg" viewBox="0 0 50 50"><path d="M39.19,31.39a28.74,28.74,0,0,0-2.71-3.85C36.41,16.6,32.12,6.4,25,.21a.48.48,0,0,0-.65,0C17.1,6.45,12.79,16.76,12.79,27.78c0,.06,0,.12,0,.18a29.75,29.75,0,0,0-2.38,3.43A38.5,38.5,0,0,0,6,43.39a.49.49,0,0,0,.1.41.51.51,0,0,0,.39.19H17.63l-1,5.14a.48.48,0,0,0,.17.48.49.49,0,0,0,.32.12.43.43,0,0,0,.19,0l4.94-2,2,1.78a.49.49,0,0,0,.69,0l1.7-1.8,5.33,2a.5.5,0,0,0,.51-.1.5.5,0,0,0,.15-.49L31.36,44H43.13a.51.51,0,0,0,.39-.19.49.49,0,0,0,.1-.41A38.25,38.25,0,0,0,39.19,31.39ZM24.64,1.25a30.84,30.84,0,0,1,7.21,9.87H17.42A30.72,30.72,0,0,1,24.64,1.25ZM7.09,43a37.2,37.2,0,0,1,4.2-11.09,26.13,26.13,0,0,1,1.55-2.37A40.61,40.61,0,0,0,15.7,43Zm24.35,5.38-4.75-1.79a.5.5,0,0,0-.54.13l-1.59,1.68-1.88-1.67a.52.52,0,0,0-.52-.09l-4.37,1.79.84-4.37H30.34ZM32.5,43H16.77A40.17,40.17,0,0,1,17,12.12H32.09a.43.43,0,0,0,.19,0,39.54,39.54,0,0,1,3.2,15.7A39.69,39.69,0,0,1,32.5,43Zm1.07,0a40.5,40.5,0,0,0,2.88-13.88,28.3,28.3,0,0,1,1.88,2.79A36.93,36.93,0,0,1,42.52,43Z"/><path d="M24.7,18.31A5.69,5.69,0,1,0,30.22,24,5.61,5.61,0,0,0,24.7,18.31Zm0,10.37A4.69,4.69,0,1,1,29.22,24,4.61,4.61,0,0,1,24.7,28.68Z"/></svg>