<svg xmlns="http://www.w3.org/2000/svg" viewBox="0 0 50 50"><g id="e115f90a-5f4c-49d2-9b77-1166e22b8e2b" data-name="ICONS"><path d="M48.43,23.48a.51.51,0,0,0-.36-.15H44.9l-4.31-6.51a.5.5,0,0,0-.42-.22H31.83V10.4a.5.5,0,0,0-.5-.5l-30.15,0h0A.5.5,0,0,0,.83,10a.53.53,0,0,0-.15.36V35.08a.5.5,0,0,0,.5.5H6.4a5.32,5.32,0,0,0,10.52,0H34a5.32,5.32,0,0,0,10.52,0H48a.51.51,0,0,0,.5-.5l.06-11.27A.5.5,0,0,0,48.43,23.48ZM39.91,17.6l3.79,5.73H37V17.6ZM1.68,10.87l29.15,0v6.23s0,0,0,0V34.6H17a5.33,5.33,0,0,0-10.65,0H1.68ZM16,34.77a4.34,4.34,0,1,1-4.34-4.35A4.35,4.35,0,0,1,16,34.77Zm27.6,0a4.34,4.34,0,1,1-4.34-4.34A4.35,4.35,0,0,1,43.6,34.79Zm3.91-.19H44.58a5.32,5.32,0,0,0-10.64,0H31.83v-17H36v6.23a.49.49,0,0,0,.15.36.51.51,0,0,0,.35.15H47.57Z"/></g><g id="f080a134-2f6a-43bf-954d-e59b25bf04b5" data-name="LABELS"><text transform="translate(-0.32 55.12)" font-size="6" font-family="Roboto-Regular, Roboto">semi-truck</text></g></svg>