<svg xmlns="http://www.w3.org/2000/svg" viewBox="0 0 50 50"><g id="b2a09c82-efac-4c89-a84d-2023c1decfb0" data-name="ICONS"><path d="M40.08.08H9.42a.5.5,0,0,0-.5.5V48.92a.5.5,0,0,0,.5.5H40.08a.5.5,0,0,0,.5-.5V.58A.5.5,0,0,0,40.08.08Zm-.5,48.34H9.92V1.08H39.58Z"/><path d="M12.8,16.47H36.7a.51.51,0,0,0,.5-.5V4.07a.51.51,0,0,0-.5-.5H12.8a.51.51,0,0,0-.5.5V16A.51.51,0,0,0,12.8,16.47Zm.5-11.9H36.2v10.9H13.3Z"/><path d="M34.39,24.31A2.38,2.38,0,1,0,32,21.93,2.39,2.39,0,0,0,34.39,24.31Zm0-3.75A1.38,1.38,0,1,1,33,21.93,1.37,1.37,0,0,1,34.39,20.56Z"/><path d="M34.39,31.27A2.38,2.38,0,1,0,32,28.9,2.38,2.38,0,0,0,34.39,31.27Zm0-3.75A1.38,1.38,0,1,1,33,28.9,1.38,1.38,0,0,1,34.39,27.52Z"/><path d="M34.71,33.74a2.32,2.32,0,0,0-2.31,2.31v7.1a2.31,2.31,0,0,0,4.62,0v-7.1A2.32,2.32,0,0,0,34.71,33.74ZM36,43.15a1.31,1.31,0,0,1-2.62,0v-7.1a1.31,1.31,0,0,1,2.62,0Z"/><path d="M15.36,19.81a2.38,2.38,0,1,0,2.37,2.37A2.38,2.38,0,0,0,15.36,19.81Zm0,3.75a1.38,1.38,0,1,1,1.37-1.38A1.38,1.38,0,0,1,15.36,23.56Z"/><path d="M21.79,19.81a2.38,2.38,0,1,0,2.37,2.37A2.38,2.38,0,0,0,21.79,19.81Zm0,3.75a1.38,1.38,0,1,1,1.37-1.38A1.38,1.38,0,0,1,21.79,23.56Z"/><path d="M28.21,19.81a2.38,2.38,0,1,0,2.38,2.37A2.38,2.38,0,0,0,28.21,19.81Zm0,3.75a1.38,1.38,0,1,1,1.38-1.38A1.38,1.38,0,0,1,28.21,23.56Z"/><path d="M15.36,26.77a2.38,2.38,0,1,0,2.37,2.38A2.39,2.39,0,0,0,15.36,26.77Zm0,3.75a1.38,1.38,0,1,1,1.37-1.37A1.37,1.37,0,0,1,15.36,30.52Z"/><path d="M21.79,26.77a2.38,2.38,0,1,0,2.37,2.38A2.39,2.39,0,0,0,21.79,26.77Zm0,3.75a1.38,1.38,0,1,1,1.37-1.37A1.37,1.37,0,0,1,21.79,30.52Z"/><path d="M28.21,26.77a2.38,2.38,0,1,0,2.38,2.38A2.38,2.38,0,0,0,28.21,26.77Zm0,3.75a1.38,1.38,0,1,1,1.38-1.37A1.37,1.37,0,0,1,28.21,30.52Z"/><path d="M15.36,33.74a2.38,2.38,0,1,0,2.37,2.37A2.38,2.38,0,0,0,15.36,33.74Zm0,3.75a1.38,1.38,0,1,1,1.37-1.38A1.38,1.38,0,0,1,15.36,37.49Z"/><path d="M21.79,33.74a2.38,2.38,0,1,0,2.37,2.37A2.38,2.38,0,0,0,21.79,33.74Zm0,3.75a1.38,1.38,0,1,1,1.37-1.38A1.38,1.38,0,0,1,21.79,37.49Z"/><path d="M28.21,33.74a2.38,2.38,0,1,0,2.38,2.37A2.38,2.38,0,0,0,28.21,33.74Zm0,3.75a1.38,1.38,0,1,1,1.38-1.38A1.38,1.38,0,0,1,28.21,37.49Z"/><path d="M15.36,40.71a2.38,2.38,0,1,0,2.37,2.37A2.38,2.38,0,0,0,15.36,40.71Zm0,3.75a1.38,1.38,0,1,1,1.37-1.38A1.38,1.38,0,0,1,15.36,44.46Z"/><path d="M21.79,40.71a2.38,2.38,0,1,0,2.37,2.37A2.38,2.38,0,0,0,21.79,40.71Zm0,3.75a1.38,1.38,0,1,1,1.37-1.38A1.38,1.38,0,0,1,21.79,44.46Z"/><path d="M28.21,40.71a2.38,2.38,0,1,0,2.38,2.37A2.38,2.38,0,0,0,28.21,40.71Zm0,3.75a1.38,1.38,0,1,1,1.38-1.38A1.38,1.38,0,0,1,28.21,44.46Z"/></g><g id="b02f9705-772a-4759-99e0-2fe2c5054bb4" data-name="LABELS"><text transform="translate(0 55.07)" font-size="6" font-family="Roboto-Regular, Roboto">calcula<tspan x="19.03" y="0" letter-spacing="-0.01em">t</tspan><tspan x="20.93" y="0">or</tspan></text></g></svg>