<svg id="a337418f-1535-4619-a60c-fe6689d4d396" data-name="ICONS" xmlns="http://www.w3.org/2000/svg" viewBox="0 0 50 50"><path d="M5.6,27.28A.5.5,0,0,0,6,27l4.6-8a.5.5,0,0,0,0-.5.5.5,0,0,0-.43-.25H7.75V14.4a1.19,1.19,0,0,1,1.19-1.2H41a1.2,1.2,0,0,1,1.19,1.2v4.41a.5.5,0,0,0,.5.5H46a.5.5,0,0,0,.5-.5V12.5a3.82,3.82,0,0,0-3.82-3.82H7.19A3.83,3.83,0,0,0,3.37,12.5v5.81H1a.5.5,0,0,0-.43.25.5.5,0,0,0,0,.5l4.6,8A.5.5,0,0,0,5.6,27.28Zm-1.73-8a.5.5,0,0,0,.5-.5V12.5A2.83,2.83,0,0,1,7.19,9.68H42.71a2.82,2.82,0,0,1,2.82,2.82v5.81H43.16V14.4A2.2,2.2,0,0,0,41,12.2h-32a2.2,2.2,0,0,0-2.19,2.2v4.41a.5.5,0,0,0,.5.5H9.33L5.6,25.78,1.87,19.31Z"/><path d="M49.34,30.47l-4.6-8a.52.52,0,0,0-.87,0l-4.6,8a.5.5,0,0,0,0,.5.52.52,0,0,0,.44.25h2.45v3.92A1.2,1.2,0,0,1,41,36.33h-32a1.19,1.19,0,0,1-1.19-1.19V30.72a.5.5,0,0,0-.5-.5H3.87a.5.5,0,0,0-.5.5V37a3.83,3.83,0,0,0,3.82,3.82H42.71A3.82,3.82,0,0,0,46.53,37V31.22H48.9a.52.52,0,0,0,.44-.25A.5.5,0,0,0,49.34,30.47ZM46,30.22a.5.5,0,0,0-.5.5V37a2.82,2.82,0,0,1-2.82,2.82H7.19A2.82,2.82,0,0,1,4.37,37V31.22H6.75v3.92a2.2,2.2,0,0,0,2.19,2.19H41a2.2,2.2,0,0,0,2.19-2.19V30.72a.5.5,0,0,0-.5-.5H40.57l3.74-6.47L48,30.22Z"/></svg>