<svg id="a714d86e-416a-4eea-b07f-7ba485c27ae9" data-name="ICONS" xmlns="http://www.w3.org/2000/svg" viewBox="0 0 50 50"><path d="M43.44,36.5H38a.5.5,0,0,0-.5.5v4.32H11.74V37a.5.5,0,0,0-.5-.5H5.81a.5.5,0,0,0-.5.5v9.65a.5.5,0,0,0,.5.5H43.44a.5.5,0,0,0,.5-.5V37A.5.5,0,0,0,43.44,36.5Zm-.5,9.65H6.31V37.5h4.43v4.32a.5.5,0,0,0,.5.5H38a.5.5,0,0,0,.5-.5V37.5h4.43Z"/><path d="M22.42,36.7a2.72,2.72,0,0,0,1.93.8h0a2.88,2.88,0,0,0,2-.8L37.48,25.61a.5.5,0,0,0,0-.71L33.61,21a.48.48,0,0,0-.36-.15h0a.5.5,0,0,0-.35.14l-5.24,5.25V2.6a.51.51,0,0,0-.5-.5h-5.5a.5.5,0,0,0-.5.5V26.24l-4.81-4.81a.5.5,0,0,0-.35-.14h0a.49.49,0,0,0-.36.15l-3.87,3.9a.5.5,0,0,0,0,.71ZM16,22.5l5.3,5.3a.5.5,0,0,0,.86-.35V3.1h4.5V27.45a.5.5,0,0,0,.85.35l5.74-5.74,3.17,3.19L25.68,36a1.82,1.82,0,0,1-1.28.51A1.71,1.71,0,0,1,23.13,36l-10.3-10.3Z"/></svg>