<svg id="a9e96d15-38fe-4ac2-8f7d-a0e982bc4101" data-name="ICONS" xmlns="http://www.w3.org/2000/svg" viewBox="0 0 50 50"><path d="M45.52,34a22.79,22.79,0,0,0,0-19.85l.79-.79a.48.48,0,0,0,.08-.59,24.44,24.44,0,0,0-42.8,0,.48.48,0,0,0,.08.59l.79.79A22.79,22.79,0,0,0,4.48,34a2.85,2.85,0,0,0-1.25,3.6l3.2,7.6A2.87,2.87,0,0,0,9.08,47a2.9,2.9,0,0,0,1.11-.23l1.62-.68.72,1.71a2,2,0,0,0,2.62,1.07l3.75-1.58A2,2,0,0,0,20,44.63l-7.17-17a2,2,0,0,0-2.62-1.07L6.43,28.14a2,2,0,0,0-1.07,2.62l1,2.4-1,.42a21.71,21.71,0,0,1-.16-18.67l.95.95a.49.49,0,0,0,.43.14A.52.52,0,0,0,7,15.73a20.07,20.07,0,0,1,36,0,.52.52,0,0,0,.37.27h.08a.51.51,0,0,0,.35-.15l1-.95a21.71,21.71,0,0,1-.16,18.67l-1-.42,1-2.4a2,2,0,0,0-1.07-2.62l-3.75-1.58a2,2,0,0,0-1.53,0,2,2,0,0,0-1.09,1.08L30,44.63a2,2,0,0,0,1.07,2.62l3.75,1.58a2,2,0,0,0,.78.16,2,2,0,0,0,.75-.15,1.93,1.93,0,0,0,1.09-1.08l.73-1.71,1.61.68a2.84,2.84,0,0,0,2.19,0,2.87,2.87,0,0,0,1.57-1.55l3.2-7.6A2.85,2.85,0,0,0,45.52,34ZM6.82,29.06l3.75-1.58a1,1,0,0,1,.77,0,1,1,0,0,1,.54.54L19,45a1,1,0,0,1-.53,1.31l-3.75,1.58a1,1,0,0,1-1.31-.53l-.92-2.18h0l-5-12h0L6.28,30.37A1,1,0,0,1,6.82,29.06Zm4.6,16.07-1.62.68a1.86,1.86,0,0,1-2.44-1l-3.21-7.6a1.86,1.86,0,0,1,1-2.44l1.61-.68ZM25,1.14A23.52,23.52,0,0,1,45.34,12.93L43.6,14.67a21.07,21.07,0,0,0-37.2,0L4.66,12.93A23.52,23.52,0,0,1,25,1.14ZM45.85,37.21l-3.21,7.6a1.85,1.85,0,0,1-1,1,1.82,1.82,0,0,1-1.43,0l-1.62-.68,4.66-11,1.61.68A1.86,1.86,0,0,1,45.85,37.21ZM35.24,47.91l-3.75-1.58A1,1,0,0,1,31,45l7.16-17a1,1,0,0,1,.54-.54,1,1,0,0,1,.77,0l3.75,1.58a1,1,0,0,1,.54,1.31l-1.21,2.87h0l-5,12h0l-.92,2.18A1,1,0,0,1,35.24,47.91Z"/></svg>