<svg id="a6883542-d500-4b54-968b-a2a92d5f73eb" data-name="ICONS" xmlns="http://www.w3.org/2000/svg" viewBox="0 0 50 50"><path d="M37.8,13.77A12.79,12.79,0,0,0,14.34,6.69h-.1v.16A12.8,12.8,0,1,0,37.8,13.77ZM35.56,19H30.1A15.72,15.72,0,0,0,31,13.85H36.8A11.61,11.61,0,0,1,35.56,19Zm1.2-6.15H31a16.25,16.25,0,0,0-1.14-5.16H35.1A11.81,11.81,0,0,1,36.76,12.85Zm-6.77,1A14.77,14.77,0,0,1,29,19H20.75a15,15,0,0,1-1-5.15Zm-10.16-1a14.93,14.93,0,0,1,1.23-5.16h7.67A14.93,14.93,0,0,1,30,12.85ZM34.42,6.69H29.37A17.82,17.82,0,0,0,26.1,2,11.77,11.77,0,0,1,34.42,6.69ZM24.89,2.23a16.75,16.75,0,0,1,3.36,4.46H21.53A17,17,0,0,1,24.89,2.23Zm-1.23-.18a17.94,17.94,0,0,0-3.25,4.64H15.58A11.74,11.74,0,0,1,23.66,2.05ZM14.9,7.69H20a16,16,0,0,0-1.14,5.16H13.24A11.81,11.81,0,0,1,14.9,7.69Zm-1.7,6.16h5.59a16,16,0,0,0,.9,5.15H14.44A11.61,11.61,0,0,1,13.2,13.85ZM15,20h5.07a17.94,17.94,0,0,0,3.67,5.5A11.78,11.78,0,0,1,15,20Zm9.89,5.23A16.78,16.78,0,0,1,21.16,20h7.47A16.77,16.77,0,0,1,24.89,25.23Zm1.14.29A18.12,18.12,0,0,0,29.72,20H35A11.79,11.79,0,0,1,26,25.52Z"/><polygon points="3.57 36.57 3.57 36.57 3.57 36.57 3.57 36.57"/><path d="M22.93,38.34l-1,.12c-.56-2.41-1.15-4.94-1.19-5.09l-.4-2A2,2,0,0,0,19.6,30a2.21,2.21,0,0,0-1.53-.52l-9.36-.29a2.62,2.62,0,0,0-1.93.74l-1.6-7.63a2.49,2.49,0,0,0-2.92-1.79A2.54,2.54,0,0,0,.58,21.54a2.09,2.09,0,0,0-.34,1.64L2.87,35.74a1,1,0,0,0,0,.14l.17.79,0,.11A2.75,2.75,0,0,0,3.68,38a4.16,4.16,0,0,0,2.46,1.25l1.72.32,1.73.33a.48.48,0,0,0-.34.52L10.11,48a.53.53,0,0,0,.19.34.48.48,0,0,0,.31.1h.05L23.91,47a.49.49,0,0,0,.33-.19.53.53,0,0,0,.11-.37l-.87-7.62A.51.51,0,0,0,22.93,38.34ZM8,38.57l-1.72-.32a3.22,3.22,0,0,1-1.87-.91,1.84,1.84,0,0,1-.37-.77l0-.11-.17-.78,0-.1L1.22,23a1.13,1.13,0,0,1,.18-.87,1.58,1.58,0,0,1,1-.64l.31,0A1.44,1.44,0,0,1,4.2,22.48l1.89,9a2,2,0,0,0,.51,1.26,2.43,2.43,0,0,0,1.32.77l7,.73H15a.5.5,0,0,0,0-1L12.2,33l-4.11-.43a1.44,1.44,0,0,1-.73-.45,1.11,1.11,0,0,1-.27-.57c0-.06,0-.1,0-.13a1.49,1.49,0,0,1,1.6-1.24l9,.29h.46a1.28,1.28,0,0,1,.87.28,1.09,1.09,0,0,1,.38.8l.41,2h0l1.16,5-8,.91Zm3,8.84-.75-6.63,12.24-1.39L23.3,46Z"/><path d="M49.42,21.54a2.54,2.54,0,0,0-1.68-1.06,2.49,2.49,0,0,0-2.92,1.79l-1.59,7.62a2.66,2.66,0,0,0-1.94-.73l-8.92.29H32A2.21,2.21,0,0,0,30.4,30a1.92,1.92,0,0,0-.72,1.36l-.41,2c0,.16-.63,2.68-1.19,5.09l-1-.12a.5.5,0,0,0-.55.44l-.87,7.62a.53.53,0,0,0,.11.37.49.49,0,0,0,.33.19l13.24,1.5h.06a.5.5,0,0,0,.5-.44l.86-7.62a.5.5,0,0,0-.1-.37.55.55,0,0,0-.24-.15l1.73-.33,1.72-.32A4.16,4.16,0,0,0,46.32,38a2.75,2.75,0,0,0,.58-1.2l0-.11.16-.75a.74.74,0,0,0,0-.14l2.64-12.6A2.09,2.09,0,0,0,49.42,21.54ZM39,47.41,26.7,46l.76-6.63L39.7,40.78Zm7.21-11.87a.69.69,0,0,0,0,.13l-.17.79,0,.11a1.84,1.84,0,0,1-.37.77,3.22,3.22,0,0,1-1.88.91L42,38.57l-4.85.91-8-.91,1.16-5h0l.42-2.12a1,1,0,0,1,.37-.73,1.31,1.31,0,0,1,.9-.28l9.38-.29a1.47,1.47,0,0,1,1.6,1.19v0h0a.86.86,0,0,1,0,.15,1.17,1.17,0,0,1-.26.57,1.52,1.52,0,0,1-.67.44L37.81,33l-2.84.3a.5.5,0,0,0,.05,1h.06l7.08-.74a2.46,2.46,0,0,0,1.24-.76,2,2,0,0,0,.51-1.26l1.89-9a1.48,1.48,0,0,1,1.77-1,1.58,1.58,0,0,1,1,.64,1.13,1.13,0,0,1,.18.87Z"/></svg>