<svg xmlns="http://www.w3.org/2000/svg" viewBox="0 0 50 50"><g id="efe8975a-655a-4f8e-967b-4fb581275850" data-name="ICONS"><path d="M40.26,4.19H38.2V1A.56.56,0,0,0,38,.59a.53.53,0,0,0-.4-.12L9.18,4.2l-.08,0L9,4.24l-.09.06-.06,0a.36.36,0,0,0-.07.1.33.33,0,0,0,0,.06.53.53,0,0,0,0,.18V48.53a.5.5,0,0,0,.5.5h31a.5.5,0,0,0,.5-.5V4.69A.51.51,0,0,0,40.26,4.19ZM39.76,48h-30V5.19h30ZM37.2,4.19H16.92L37.2,1.54Z"/><path d="M24.75,12.37a11.5,11.5,0,0,0-9.56,5.12l-.06.1a11.49,11.49,0,1,0,9.62-5.22Zm8.32,5.12H28.69a16.17,16.17,0,0,0-2.82-4A10.45,10.45,0,0,1,33.07,17.49ZM24.65,34.06A15.05,15.05,0,0,1,21.4,29.5h6.51A15,15,0,0,1,24.65,34.06ZM21,28.5a13.21,13.21,0,0,1-.84-4.5h9a13.21,13.21,0,0,1-.84,4.5ZM14.25,24h4.9a14.45,14.45,0,0,0,.77,4.5H15.34A10.33,10.33,0,0,1,14.25,24Zm10.4-10.37a15.13,15.13,0,0,1,2.92,3.86H21.74A15.38,15.38,0,0,1,24.65,13.63Zm3.4,4.86A13.46,13.46,0,0,1,29.13,23H20.18a13.22,13.22,0,0,1,1.08-4.51ZM19.18,23H14.29a10.4,10.4,0,0,1,1.46-4.51h4.42A14.52,14.52,0,0,0,19.18,23Zm11,1h5.09a10.33,10.33,0,0,1-1.09,4.5H29.39A14.45,14.45,0,0,0,30.16,24Zm0-1a14.52,14.52,0,0,0-1-4.51h4.61A10.4,10.4,0,0,1,35.21,23Zm-6.72-9.53a16,16,0,0,0-2.79,4H16.43A10.47,10.47,0,0,1,23.41,13.47Zm-7.51,16h4.41a16,16,0,0,0,3.17,4.79A10.46,10.46,0,0,1,15.9,29.5Zm9.9,4.83A16,16,0,0,0,29,29.5h4.6A10.51,10.51,0,0,1,25.8,34.33Z"/><path d="M31.61,40.27H17.89a.51.51,0,0,0-.5.5.5.5,0,0,0,.5.5H31.61a.5.5,0,0,0,.5-.5A.51.51,0,0,0,31.61,40.27Z"/></g><g id="a1e2e6e1-829a-466e-844d-e8280f8c8e40" data-name="LABELS"><text transform="translate(0.38 54.96)" font-size="6" font-family="Roboto-Regular, Roboto">passpo<tspan x="19.61" y="0" letter-spacing="0.02em">r</tspan><tspan x="21.78" y="0">t</tspan></text></g></svg>