<svg xmlns="http://www.w3.org/2000/svg" viewBox="0 0 50 50"><g id="b1e083ae-0259-4ef4-a18c-da683b6c5f56" data-name="ICONS"><path d="M40.61,8.29H24.83a8.85,8.85,0,0,0-8.55,9.1A9.78,9.78,0,0,0,16.43,19H8.89C4.18,19,.34,23.12.34,28.16a8.93,8.93,0,0,0,7.78,9.09l3,4.24a.48.48,0,0,0,.41.22.5.5,0,0,0,.41-.22l2.93-4.19h9.83c4.71,0,8.55-4.1,8.55-9.14a10.39,10.39,0,0,0-.15-1.68h1.59l2.93,4.17a.52.52,0,0,0,.41.21.49.49,0,0,0,.41-.21l3-4.22a8.9,8.9,0,0,0,7.78-9A8.85,8.85,0,0,0,40.61,8.29Zm.09,17.38L38,29.49l-2.67-3.8a.52.52,0,0,0-.41-.21H32.84A8.64,8.64,0,0,0,24.67,19H17.44a8,8,0,0,1-.16-1.63,7.85,7.85,0,0,1,7.55-8.1H40.61a7.85,7.85,0,0,1,7.55,8.1,7.89,7.89,0,0,1-7.09,8.07A.46.46,0,0,0,40.7,25.67Zm-8.48,2.49c0,4.49-3.39,8.14-7.55,8.14H14.58a.5.5,0,0,0-.41.22L11.5,40.34,8.81,36.49a.49.49,0,0,0-.38-.21,7.92,7.92,0,0,1-7.09-8.12C1.34,23.67,4.73,20,8.89,20H24.67C28.83,20,32.22,23.67,32.22,28.16Z"/></g><g id="b5d9b743-38e8-494e-9e03-0128835b3e28" data-name="LABELS"><text transform="translate(-0.28 54.86)" font-size="6" font-family="Roboto-Regular, Roboto">speech-bubble-two</text></g></svg>