<svg xmlns="http://www.w3.org/2000/svg" viewBox="0 0 50 50"><defs><style>.cls-1{font-size:6px;font-family:Roboto-Regular, Roboto;}</style></defs><g id="ICONS"><path d="M36.62,9.1H12.71a12.7,12.7,0,0,0-1,25.36l4.56,6.08a.54.54,0,0,0,.4.2.51.51,0,0,0,.4-.2l4.53-6h15a12.71,12.71,0,1,0,0-25.41ZM20.93,33.71,16.65,39.4l-4.3-5.73a.53.53,0,0,0-.37-.2,11.7,11.7,0,0,1,.73-23.37H36.62a11.71,11.71,0,1,1,0,23.41H21.33A.51.51,0,0,0,20.93,33.71Z"/></g><g id="LABELS"><text class="cls-1" transform="translate(-0.35 54.86)">speech-bubble</text></g></svg>