<svg id="a94756b0-fa9f-4b19-a52a-cb9f9238982d" data-name="ICONS" xmlns="http://www.w3.org/2000/svg" viewBox="0 0 50 50"><path d="M31.53,46.21a21.85,21.85,0,0,1-13-.3V38.45A.51.51,0,0,0,18,38a.5.5,0,0,0-.5.5v7.09a21.86,21.86,0,0,1-5.45-3.09V36.81a7.8,7.8,0,0,1,7.4-7.8H31.56a7.77,7.77,0,0,1,3.72,1.19A.49.49,0,0,0,36,30a.51.51,0,0,0-.16-.69A8.82,8.82,0,0,0,31.58,28H19.42a8.8,8.8,0,0,0-8.37,8.8v4.82A22.06,22.06,0,1,1,46.73,31a.5.5,0,0,0,.35.61.51.51,0,0,0,.62-.34A23.05,23.05,0,1,0,25.51,48.06a23.35,23.35,0,0,0,6.29-.88.51.51,0,0,0,.34-.62.5.5,0,0,0-.61-.35"/><path d="M17.16,16.36A8.36,8.36,0,1,0,25.52,8a8.34,8.34,0,0,0-8.36,8.36m15.71,0A7.36,7.36,0,1,1,25.52,9a7.33,7.33,0,0,1,7.35,7.36"/><path d="M48.07,37.19H46.15a6.85,6.85,0,0,0-.61-1.46l1.37-1.36a.5.5,0,0,0,0-.71L45,31.73a.5.5,0,0,0-.71,0L42.9,33.09a7.08,7.08,0,0,0-1.45-.61V30.56a.5.5,0,0,0-.5-.5H38.21a.5.5,0,0,0-.5.5v1.92a6.93,6.93,0,0,0-1.46.61l-1.37-1.36a.48.48,0,0,0-.7,0l-1.94,1.93a.51.51,0,0,0,0,.71l1.37,1.36A6.44,6.44,0,0,0,33,37.19H31.07a.5.5,0,0,0-.5.5v2.73a.5.5,0,0,0,.5.5H33a6.41,6.41,0,0,0,.6,1.46l-1.36,1.37a.5.5,0,0,0,0,.7l1.94,1.94a.5.5,0,0,0,.7,0L36.25,45a6.82,6.82,0,0,0,1.45.6v1.93a.5.5,0,0,0,.5.5h2.73a.5.5,0,0,0,.5-.5V45.63A6.6,6.6,0,0,0,42.9,45l1.36,1.36a.51.51,0,0,0,.71,0l1.93-1.94a.48.48,0,0,0,0-.7l-1.36-1.37a6.85,6.85,0,0,0,.61-1.45h1.92a.5.5,0,0,0,.5-.5V37.69a.5.5,0,0,0-.5-.5m-.5,2.74H45.76a.49.49,0,0,0-.49.39,5.71,5.71,0,0,1-.78,1.87.5.5,0,0,0,.07.63l1.28,1.28-1.22,1.23L43.33,44a.5.5,0,0,0-.62-.06,5.79,5.79,0,0,1-1.88.77.5.5,0,0,0-.39.49v1.82H38.71V45.24a.5.5,0,0,0-.39-.49A5.69,5.69,0,0,1,36.44,44a.51.51,0,0,0-.63.06l-1.28,1.29L33.3,44.1l1.29-1.29a.5.5,0,0,0,.06-.62,5.65,5.65,0,0,1-.77-1.87.51.51,0,0,0-.49-.4H31.57V38.19h1.82a.5.5,0,0,0,.49-.39,5.68,5.68,0,0,1,.78-1.87.51.51,0,0,0-.07-.62L33.3,34l1.23-1.22,1.29,1.28a.51.51,0,0,0,.62.07,5.9,5.9,0,0,1,1.87-.78.5.5,0,0,0,.4-.49V31.06h1.73v1.81a.49.49,0,0,0,.39.49,5.9,5.9,0,0,1,1.87.78.49.49,0,0,0,.62-.07l1.29-1.28L45.84,34,44.56,35.3a.52.52,0,0,0-.07.62,5.82,5.82,0,0,1,.78,1.88.49.49,0,0,0,.49.39h1.81Z"/><path d="M39.57,35.63A3.43,3.43,0,1,0,43,39.06a3.44,3.44,0,0,0-3.44-3.43m0,5.86A2.43,2.43,0,1,1,42,39.06a2.43,2.43,0,0,1-2.44,2.43"/></svg>