<svg id="e671bbda-d445-43d3-885a-4a1272fe9972" data-name="ICONS" xmlns="http://www.w3.org/2000/svg" viewBox="0 0 50 50"><path d="M48.62,17.29a.5.5,0,0,0-.5,0L40.48,21.7V16.23a.51.51,0,0,0-.5-.5H33.12a7.61,7.61,0,1,0-7.52,0H17.49a6.49,6.49,0,1,0-6.89,0h-6a.5.5,0,0,0-.5.5v7.25H1.13a.5.5,0,0,0-.5.5v9.41a.5.5,0,0,0,.5.5H4.06v7.25a.5.5,0,0,0,.5.5H23.07l-7,6a.51.51,0,0,0-.06.71.52.52,0,0,0,.38.17.57.57,0,0,0,.33-.11l7.77-6.58,7.77,6.58a.53.53,0,0,0,.71-.06.52.52,0,0,0-.06-.71l-7.06-6H40a.5.5,0,0,0,.5-.5V35.67l7.64,4.41a.48.48,0,0,0,.5,0,.5.5,0,0,0,.25-.43V17.73A.52.52,0,0,0,48.62,17.29ZM39.48,40.64H5.06V16.73H39.48ZM1.63,24.48H4.06v8.41H1.63ZM22.75,9.12a6.61,6.61,0,1,1,6.61,6.61A6.61,6.61,0,0,1,22.75,9.12ZM8.56,10.25a5.49,5.49,0,1,1,5.49,5.48A5.49,5.49,0,0,1,8.56,10.25ZM47.87,38.78l-7.36-4.24,0,.06V22.77l0,.07,7.36-4.25Z"/><path d="M9.65,21a.5.5,0,0,0,.5.5H34.39a.5.5,0,0,0,.5-.5.51.51,0,0,0-.5-.5H10.15A.5.5,0,0,0,9.65,21Z"/></svg>