<svg id="bc9de045-02c3-423e-90cd-649fd37d707f" data-name="ICONS" xmlns="http://www.w3.org/2000/svg" viewBox="0 0 50 50"><path d="M24.72.49a24.21,24.21,0,1,0,24.21,24.2A24.23,24.23,0,0,0,24.72.49Zm23.2,23.7H36A34.22,34.22,0,0,1,40.75,7.93,23.19,23.19,0,0,1,47.92,24.19Zm-22.7,0V1.5A23.11,23.11,0,0,1,40,7.25a35.12,35.12,0,0,0-5,16.94Zm-1,0H14.68a35.17,35.17,0,0,0-5.15-17A23.08,23.08,0,0,1,24.22,1.5Zm0,1V47.88A23.11,23.11,0,0,1,9.52,42.2a31,31,0,0,0,5.18-17Zm1,0H35A31,31,0,0,0,40.16,42a23,23,0,0,1-14.94,5.89ZM8.78,7.86a34.09,34.09,0,0,1,4.91,16.33H1.53A23.15,23.15,0,0,1,8.78,7.86ZM1.53,25.19H13.7A30.08,30.08,0,0,1,8.77,41.52,23.16,23.16,0,0,1,1.53,25.19ZM40.91,41.3A30.16,30.16,0,0,1,36,25.19H47.92A23.18,23.18,0,0,1,40.91,41.3Z"/></svg>