<svg xmlns="http://www.w3.org/2000/svg" viewBox="0 0 50 50"><g id="e8f14973-790d-43df-b5f4-0e9641b159cb" data-name="ICONS"><path d="M24.94,19.36a4.25,4.25,0,1,0,4.24,4.24A4.26,4.26,0,0,0,24.94,19.36Zm0,7.49a3.25,3.25,0,1,1,3.24-3.25A3.26,3.26,0,0,1,24.94,26.85Z"/><path d="M48.49,37.8H47.14l-.73-5.33h1a.48.48,0,0,0,.37-.17.47.47,0,0,0,.12-.39L45.65,15.17a.51.51,0,0,0-.5-.44H44l-.81-5.89a.5.5,0,0,0-.49-.44H40.76V5.25a.5.5,0,0,0-.5-.5H32.4a.5.5,0,0,0-.5.5V8.4H29.11a.5.5,0,0,0-.5.5v5.83H21.18V8.9a.5.5,0,0,0-.5-.5H17.93V5.25a.5.5,0,0,0-.5-.5H9.57a.5.5,0,0,0-.5.5V8.4H7.18a.5.5,0,0,0-.49.44l-.81,5.89H4.72a.51.51,0,0,0-.5.44L1.94,31.91a.47.47,0,0,0,.12.39.48.48,0,0,0,.37.17h1L2.73,37.8H1.19a.5.5,0,0,0-.5.5v6a.5.5,0,0,0,.5.5H22.37a.5.5,0,0,0,.5-.5v-6a.51.51,0,0,0-.5-.5H20.89V32.47h7.72V37.8H27.32a.5.5,0,0,0-.5.5v6a.5.5,0,0,0,.5.5H48.49a.5.5,0,0,0,.5-.5v-6A.5.5,0,0,0,48.49,37.8Zm-.5,6H27.82v-5H48Zm-41.67-28h38.4l2.14,15.74H3L5.15,15.73Zm26.58-10h6.86V8.4H32.9ZM29.61,9.4H42.25L43,14.73H29.61ZM10.07,5.75h6.86V8.4H10.07ZM7.62,9.4H20.18v5.33H6.89ZM21.87,43.75H1.69v-5H21.87Zm-2-6H3.74l.73-5.33H19.89Zm9.72-5.33H45.4l.73,5.33H29.61Z"/></g><g id="a8a82ed9-24e0-4a7b-bf80-5ec6d1c965a6" data-name="LABELS"><text transform="translate(0.39 54.96)" font-size="6" font-family="Roboto-Regular, Roboto">binoculars</text></g></svg>