<svg xmlns="http://www.w3.org/2000/svg" viewBox="0 0 50 50"><g id="b355825e-60aa-4472-951a-4de0fc13c1ae" data-name="ICONS"><path d="M49.11,27.52c0-2.57-3.28-4.61-7.58-4.79l.36-.18c4.09-2.11,6.32-5.64,5.08-8-.61-1.19-2-1.88-3.82-1.94a11.66,11.66,0,0,0-5.42,1.31l.24-.4c2.29-4,2.27-8.15-.07-9.5-1.16-.67-2.67-.51-4.27.44a11.86,11.86,0,0,0-4,4.26,1.5,1.5,0,0,0-.09.18V8.54c0-4.6-2.11-8.2-4.8-8.2s-4.81,3.6-4.81,8.2v.17l0-.08a11.86,11.86,0,0,0-4-4.26c-1.6-1-3.11-1.11-4.27-.44-2.34,1.35-2.36,5.52-.07,9.5.09.14.19.3.31.47a11.81,11.81,0,0,0-5.5-1.35c-1.85.07-3.21.75-3.82,1.94s-.39,2.7.63,4.25a11.78,11.78,0,0,0,4.44,3.78l.1.05C3.42,22.75.14,24.79.14,27.36s3.6,4.81,8.19,4.81a6.73,6.73,0,0,0,1-.1c-3.52,2.64-5.1,6.28-3.59,8.41.77,1.1,2.21,1.59,4.05,1.4a11.78,11.78,0,0,0,5.41-2.2,6.12,6.12,0,0,0,.5-.39c0,.13-.08.25-.11.36-1.18,4.44-.07,8.47,2.53,9.16a2.88,2.88,0,0,0,.78.1,4.65,4.65,0,0,0,3.23-1.63,11.38,11.38,0,0,0,2.51-4.36A11.29,11.29,0,0,0,27.09,47c1.3,1.34,2.72,1.88,4,1.53,2.6-.69,3.71-4.68,2.55-9.1a2.81,2.81,0,0,0,.52.49c3.76,2.65,7.92,3,9.47.8.77-1.1.75-2.62,0-4.29a11.67,11.67,0,0,0-3.66-4.2,6.4,6.4,0,0,0,1,.08C45.51,32.33,49.11,30.22,49.11,27.52ZM36.41,31.1s2.08,1.36,2.72,1.81a10.75,10.75,0,0,1,3.56,4c.64,1.33.69,2.5.13,3.28-1.19,1.69-4.88,1.21-8.07-1a22.43,22.43,0,0,1-2.82-3.67.5.5,0,0,0-.68-.14.5.5,0,0,0-.16.68,24.66,24.66,0,0,1,1.58,3.66c1,3.77.17,7.41-1.82,7.94a3.27,3.27,0,0,1-3-1.26,10.92,10.92,0,0,1-2.5-4.72c-.08-.31-.14-2.24-.16-3.92a.5.5,0,0,0-.5-.5h0a.5.5,0,0,0-.5.5,25.4,25.4,0,0,1-.21,4.18,10.92,10.92,0,0,1-2.5,4.72,3.27,3.27,0,0,1-3,1.26c-2-.54-2.83-4.17-1.82-7.94a25.46,25.46,0,0,1,1.58-3.56.51.51,0,0,0-.17-.66.54.54,0,0,0-.27-.07.5.5,0,0,0-.4.19l-.42.55a11.31,11.31,0,0,1-2.25,2.51,11,11,0,0,1-4.94,2,3.28,3.28,0,0,1-3.14-1c-1.18-1.69.51-5,3.69-7.26a12.44,12.44,0,0,1,3-1.58.5.5,0,0,0,.31-.63.51.51,0,0,0-.63-.32,22.25,22.25,0,0,1-4.66,1.05c-3.9,0-7.19-1.74-7.19-3.81s3.29-3.8,7.19-3.8c1.05,0,3.16.27,3.18.28a.5.5,0,0,0,.56-.43.49.49,0,0,0-.41-.56,12.26,12.26,0,0,1-3.57-1.21A11,11,0,0,1,4,18.19,3.27,3.27,0,0,1,3.44,15a3.28,3.28,0,0,1,3-1.4,10.8,10.8,0,0,1,5.16,1.33,12.73,12.73,0,0,1,2.26,1.47.5.5,0,0,0,.69-.71,28.46,28.46,0,0,1-2.09-2.71c-1.95-3.37-2.09-7.1-.3-8.13.83-.48,2-.33,3.25.43A10.86,10.86,0,0,1,19,9.13c.33.57,1.31,2.68,1.32,2.7a.5.5,0,0,0,.94-.33,12.43,12.43,0,0,1-.35-3c0-3.91,1.74-7.2,3.81-7.2s3.8,3.29,3.8,7.2A11.94,11.94,0,0,1,28,12.35a.5.5,0,0,0,.93.35s1-2.5,1.62-3.51a10.86,10.86,0,0,1,3.64-3.9,3.23,3.23,0,0,1,3.25-.43c1.79,1,1.65,4.75-.3,8.13a11.6,11.6,0,0,1-2.83,3.35.5.5,0,0,0-.08.7.49.49,0,0,0,.7.08A9.37,9.37,0,0,0,36,16.17a13.48,13.48,0,0,1,2-1.27,11,11,0,0,1,5.17-1.32,3.25,3.25,0,0,1,3,1.4c1,1.83-1.18,4.89-4.64,6.68a12.77,12.77,0,0,1-3,1.11.5.5,0,0,0,.12,1s1.29,0,2.37,0c3.9,0,7.19,1.74,7.19,3.8s-3.29,3.81-7.19,3.81a9.57,9.57,0,0,1-3.37-.86l-.69-.26a.5.5,0,0,0-.62.24A.52.52,0,0,0,36.41,31.1Z"/><path d="M24.87,15.12a9.32,9.32,0,1,0,9.32,9.32A9.33,9.33,0,0,0,24.87,15.12Zm0,17.64a8.32,8.32,0,1,1,8.32-8.32A8.33,8.33,0,0,1,24.87,32.76Z"/></g><g id="e7a17a96-68a7-4c01-8f8d-f24b3cd539f4" data-name="LABELS"><text transform="translate(0.39 55.05)" font-size="6" font-family="Roboto-Regular, Roboto">daisy</text></g></svg>