<svg xmlns="http://www.w3.org/2000/svg" viewBox="0 0 50 50"><g id="b2751757-d2ee-491a-942b-db59f7b23ade" data-name="ICONS"><path d="M30.26,10.54a.23.23,0,0,0-.17.06Z" fill="none"/><path d="M22.2,10.54l.17.06A.23.23,0,0,0,22.2,10.54Z" fill="none"/><path d="M38.09,10.2A5.05,5.05,0,0,0,35,7.12a7,7,0,0,0-4.75-.2,7.06,7.06,0,0,0-1.66-4.46,5.09,5.09,0,0,0-3.88-2,5.11,5.11,0,0,0-3.88,2A7,7,0,0,0,19.2,6.92a7,7,0,0,0-4.76.2,5.11,5.11,0,0,0-3.07,3.08,5.08,5.08,0,0,0,.68,4.29,7,7,0,0,0,3.73,3A6.92,6.92,0,0,0,14.5,22a5,5,0,0,0,2,3.87,4.69,4.69,0,0,0,2.8.88,6,6,0,0,0,1.49-.19,7.24,7.24,0,0,0,3.47-2V49a.51.51,0,0,0,.5.5.5.5,0,0,0,.5-.5V39.74a4.34,4.34,0,0,0,2.34,1.51,2.12,2.12,0,0,0,.44,0c2.27,0,5-3.1,6.8-7.8a.54.54,0,0,0,0-.45.54.54,0,0,0-.4-.23c-4.14-.22-7.54.59-9.13,2V24.58a7.3,7.3,0,0,0,3.45,2,6,6,0,0,0,1.49.19A4.72,4.72,0,0,0,33,25.9,5.08,5.08,0,0,0,35,22a7,7,0,0,0-1.28-4.58,7,7,0,0,0,3.73-3A5.11,5.11,0,0,0,38.09,10.2ZM25.3,36.51c.33-1.41,3.28-2.73,7.76-2.73h.56c-1.83,4.41-4.36,6.75-5.86,6.48a3.39,3.39,0,0,1-1.94-1.4A3.34,3.34,0,0,1,25.3,36.51ZM21.62,3.11a4.12,4.12,0,0,1,3.11-1.62,4.1,4.1,0,0,1,3.11,1.62,5.73,5.73,0,0,1,1.38,4.26,1.63,1.63,0,0,1-.18.39c-.42.46-1,1.24-1.93,2.48a4.75,4.75,0,0,0-4.76,0c-.93-1.26-1.52-2-1.93-2.49a1.91,1.91,0,0,1-.18-.38A5.72,5.72,0,0,1,21.62,3.11ZM12.9,14a4.1,4.1,0,0,1-.58-3.45,4.11,4.11,0,0,1,2.5-2.46,6.38,6.38,0,0,1,2.36-.45,4.57,4.57,0,0,1,2.12.46,18.81,18.81,0,0,1,2.23,2.75,4.79,4.79,0,0,0-1.64,4.67c-1.46.49-2.37.81-2.93,1.05a1.46,1.46,0,0,1-.44.06A5.7,5.7,0,0,1,12.9,14Zm11.25,9a5.76,5.76,0,0,1-3.62,2.64,4.14,4.14,0,0,1-3.47-.52A4.16,4.16,0,0,1,15.49,22a5.75,5.75,0,0,1,1.39-4.26,19.56,19.56,0,0,1,3.29-1.26,4.94,4.94,0,0,0,4,3c0,1.54,0,2.52.1,3.14A1.7,1.7,0,0,1,24.15,23Zm.58-4.5a3.94,3.94,0,1,1,3.94-3.94A3.95,3.95,0,0,1,24.73,18.48ZM34,22a3.82,3.82,0,0,1-5,3.66A5.71,5.71,0,0,1,25.32,23a18.27,18.27,0,0,1-.19-3.54,4.93,4.93,0,0,0,4.06-2.81c1.47.45,2.4.73,3,.86a2.61,2.61,0,0,1,.38.21A5.75,5.75,0,0,1,34,22Zm2.6-8a5.74,5.74,0,0,1-3.63,2.63,19.36,19.36,0,0,1-3.42-.91,4.82,4.82,0,0,0,.15-1.14,4.88,4.88,0,0,0-1.74-3.73,17.89,17.89,0,0,1,2.24-2.75,4.5,4.5,0,0,1,2.11-.46,6.48,6.48,0,0,1,2.37.45,4.12,4.12,0,0,1,2.49,2.46A4.09,4.09,0,0,1,36.57,14Z"/></g><g id="ae9bbe18-c140-4d45-a11c-95f465abbd76" data-name="LABELS"><text transform="translate(0 55.05)" font-size="6" font-family="Roboto-Regular, Roboto">flower-one</text></g></svg>