<svg id="bdbb5ebf-19f5-43c0-ab0b-2cbb809e18ee" data-name="ICONS" xmlns="http://www.w3.org/2000/svg" viewBox="0 0 50 50"><path d="M48.06,2.18A1.43,1.43,0,0,0,46.77,1C31.09-.17,19.18,3.29,11.35,11.29.14,22.76.5,40.34,1.18,47.37a1.43,1.43,0,0,0,1.35,1.28c1.24.05,2.46.07,3.65.07a70.74,70.74,0,0,0,8-.43h0c11-1.24,19.53-5.16,25.38-11.72C50.79,24,48.61,5.73,48.06,2.18ZM46.69,2a.42.42,0,0,1,.38.34,51.58,51.58,0,0,1,.4,11.1L35.81,2c1.68-.14,3.41-.22,5.2-.22S44.74,1.85,46.69,2ZM2.57,47.65a.42.42,0,0,1-.39-.37A63,63,0,0,1,2.1,36.42l11.17,11A76.17,76.17,0,0,1,2.57,47.65ZM38.85,35.91C33.24,42.18,25.1,46,14.55,47.24L2.22,35.14C3,27.61,5.5,18.7,12.07,12c5.44-5.57,13-8.87,22.44-9.87L47.36,14.74C46.73,21.41,44.61,29.46,38.85,35.91Z"/><path d="M33.31,15l-2.19,2.21-1.45-1.42a.49.49,0,0,0-.7,0,.5.5,0,0,0,0,.71l1.45,1.41-3.63,3.68-1.46-1.43a.5.5,0,0,0-.71,0,.51.51,0,0,0,0,.71l1.46,1.43L22.4,26l-1.47-1.44a.5.5,0,0,0-.71.71l1.47,1.45L18,30.45,16.57,29a.5.5,0,0,0-.7.71l1.43,1.41-2.38,2.42a.5.5,0,0,0,0,.7.51.51,0,0,0,.36.15.5.5,0,0,0,.35-.15L18,31.86l1.52,1.49a.49.49,0,0,0,.35.15.47.47,0,0,0,.35-.15.5.5,0,0,0,0-.71l-1.52-1.49,3.69-3.73,1.48,1.45a.5.5,0,0,0,.35.15.5.5,0,0,0,.35-.86L23.11,26.7,26.8,23l1.49,1.47a.54.54,0,0,0,.35.14.5.5,0,0,0,.35-.86L27.5,22.26l3.63-3.68,1.51,1.49a.52.52,0,0,0,.35.14.5.5,0,0,0,.35-.86l-1.51-1.48L34,15.66A.5.5,0,0,0,34,15,.49.49,0,0,0,33.31,15Z"/></svg>