<svg xmlns="http://www.w3.org/2000/svg" viewBox="0 0 50 50"><defs><style>.cls-1{font-size:6px;font-family:Roboto-Regular, Roboto;}</style></defs><g id="ICONS"><path d="M48.61,24.5H36.55a11.48,11.48,0,0,0-3-7.31l8.53-8.53A.5.5,0,1,0,41.34,8l-8.53,8.53a11.48,11.48,0,0,0-7.31-3V1.39a.5.5,0,0,0-1,0V13.45a11.48,11.48,0,0,0-7.31,3L8.66,8A.5.5,0,1,0,8,8.66l8.53,8.53a11.48,11.48,0,0,0-3,7.31H1.39a.5.5,0,0,0,0,1H13.45a11.48,11.48,0,0,0,3,7.31L8,41.34a.5.5,0,0,0,0,.71.49.49,0,0,0,.35.15.51.51,0,0,0,.36-.15l8.53-8.53a11.48,11.48,0,0,0,7.31,3V48.61a.5.5,0,0,0,1,0V36.55a11.48,11.48,0,0,0,7.31-3l8.53,8.53a.51.51,0,0,0,.36.15.49.49,0,0,0,.35-.15.5.5,0,0,0,0-.71l-8.53-8.53a11.48,11.48,0,0,0,3-7.31H48.61a.5.5,0,0,0,0-1ZM25,35.58A10.58,10.58,0,1,1,35.58,25,10.6,10.6,0,0,1,25,35.58Z"/></g><g id="LABELS"><text class="cls-1" transform="translate(0.39 54.88)">sun</text></g></svg>