<svg xmlns="http://www.w3.org/2000/svg" viewBox="0 0 50 50"><g id="facef5b8-d61d-4bc5-bc5d-1bf4fdce03b6" data-name="ICONS"><path d="M40.14,38.87l-7.3-12.63h2a.48.48,0,0,0,.43-.25.5.5,0,0,0,0-.5L28.38,13.56h1.51a.48.48,0,0,0,.43-.25.5.5,0,0,0,0-.5L23.52,1a.51.51,0,0,0-.86,0l-6.8,11.77a.5.5,0,0,0,0,.5.48.48,0,0,0,.43.25H17.8L10.91,25.49a.5.5,0,0,0,.44.75h2L6,38.87a.5.5,0,0,0,0,.5.48.48,0,0,0,.43.25H22.59v9.11a.5.5,0,0,0,.5.5.51.51,0,0,0,.5-.5V39.62H39.7a.5.5,0,0,0,.44-.75Zm-17-19.17a.5.5,0,0,0-.5.5V38.62H7.34L14.63,26a.5.5,0,0,0,0-.5.5.5,0,0,0-.43-.25h-2L19.1,13.31a.5.5,0,0,0,0-.5.5.5,0,0,0-.43-.25H17.16L23.09,2.29,29,12.56H27.51a.5.5,0,0,0-.43.25.5.5,0,0,0,0,.5L34,25.24H32a.5.5,0,0,0-.43.75l7.29,12.63H23.59V20.2A.51.51,0,0,0,23.09,19.7Z"/></g><g id="bc486379-2ad5-49e7-9ec7-ae25749a432e" data-name="LABELS"><text transform="translate(-0.13 54.69) scale(1.06 1)" font-size="5.64" font-family="Roboto-Regular, Roboto">t<tspan x="1.84" y="0" letter-spacing="-0.01em">r</tspan><tspan x="3.7" y="0">ee-two</tspan></text></g></svg>