<svg xmlns="http://www.w3.org/2000/svg" viewBox="0 0 50 50"><g id="a1ea70d6-76af-4167-b96a-7cae4a188667" data-name="ICONS"><path d="M36.72,17.28H32.33c-2.11-2.25-3.68-3.81-4.4-4.47a6.38,6.38,0,0,0-1.48-1,7,7,0,0,0-1.28-.45A18.62,18.62,0,0,0,20,11.26a4.77,4.77,0,0,0-.79.16s-.35.1-.69.24A10,10,0,0,0,16.39,13a11.93,11.93,0,0,0-1.2,1l-3.91,3.72a2.12,2.12,0,0,0-.54.84,2.5,2.5,0,0,0-.23.86L10,25.55a2.81,2.81,0,0,0,5.6.47L16,21l.92-.88v9.38c-.06.26-1.4,5-2.3,8.15l-4.27,5.11a2.81,2.81,0,1,0,4.31,3.6L19.4,40.7a2.26,2.26,0,0,0,.47-.94l.05-.13,2.45-8.33L26.26,39l.43,6.72a2.82,2.82,0,0,0,2.8,2.63h.19a2.81,2.81,0,0,0,2.62-3l-.48-7.46a2.19,2.19,0,0,0-.39-1.13h0c-3.13-6.16-3.94-7.74-4.16-8.17V20.17l1.92,1.91A2.52,2.52,0,0,0,31,22.9h5.68a2.81,2.81,0,1,0,0-5.62Zm0,4.62H31a1.6,1.6,0,0,1-1.17-.54l-2.75-2.75a.53.53,0,0,0-.55-.11.51.51,0,0,0-.3.47V28.7a.51.51,0,0,0,.06.25c.12.22,3.08,6,4.19,8.2a.8.8,0,0,0,.08.16,1.21,1.21,0,0,1,.23.63l.47,7.46a1.81,1.81,0,0,1-3.61.23l-.43-6.82a.7.7,0,0,0-.06-.19l-4-7.85a1.69,1.69,0,0,1-.1-.27.49.49,0,0,0-.48-.37H22a.49.49,0,0,0-.49.41l0,.13L19,39.34a.38.38,0,0,0-.05.15,1.39,1.39,0,0,1-.28.57l-4.71,5.63a1.81,1.81,0,1,1-2.78-2.32l4.35-5.19a.66.66,0,0,0,.09-.19c2.36-8.27,2.36-8.32,2.36-8.42V18.91a.5.5,0,0,0-.31-.46.51.51,0,0,0-.54.1l-1.9,1.83a.48.48,0,0,0-.15.32l-.44,5.23a1.81,1.81,0,1,1-3.61-.3l.52-6.12a1.6,1.6,0,0,1,.16-.57,1.16,1.16,0,0,1,.3-.48c1.61-1.55,3.91-3.73,3.91-3.73a13,13,0,0,1,1.12-1,9.47,9.47,0,0,1,1.91-1.18,5.75,5.75,0,0,1,.58-.2,4.91,4.91,0,0,1,.65-.13,17.37,17.37,0,0,1,4.79.06,5.48,5.48,0,0,1,1.08.38,5.27,5.27,0,0,1,1.24.86c.73.66,2.34,2.26,4.5,4.57a.5.5,0,0,0,.36.16h4.61a1.81,1.81,0,1,1,0,3.62Z"/><path d="M22,9.79a4.44,4.44,0,1,0-4.43-4.43A4.44,4.44,0,0,0,22,9.79ZM25.4,5.36A3.43,3.43,0,1,1,22,1.92,3.44,3.44,0,0,1,25.4,5.36Z"/></g><g id="aca23e2d-8ec4-4862-a9ec-15a1ffaee853" data-name="LABELS"><text transform="translate(0.39 55.01)" font-size="6" font-family="Roboto-Regular, Roboto">walking</text></g></svg>