<svg xmlns="http://www.w3.org/2000/svg" viewBox="0 0 50 50"><g id="fc1a0812-9870-46ab-bb5b-2d58d123ce7a" data-name="ICONS"><path d="M49.17,14.79a6.21,6.21,0,0,1-5.48-3.59.53.53,0,0,0-.54-.34.57.57,0,0,0-.52.38,5.67,5.67,0,0,1-5.47,3.55,5.85,5.85,0,0,1-5.56-3.56.59.59,0,0,0-.54-.37h0a.55.55,0,0,0-.53.36,5.92,5.92,0,0,1-5.4,3.57,6.05,6.05,0,0,1-5.5-3.58.57.57,0,0,0-.53-.35h0a.58.58,0,0,0-.53.36A6,6,0,0,1,13,14.79a5.62,5.62,0,0,1-5.41-3.55A.61.61,0,0,0,7,10.86a.58.58,0,0,0-.53.43c-.83,3.4-5.4,3.5-5.45,3.5a.57.57,0,0,0,0,1.14c.15,0,4.41,0,6.08-3.12A6.78,6.78,0,0,0,13,15.93a7.09,7.09,0,0,0,6.11-3.31,7,7,0,0,0,6,3.31,6.92,6.92,0,0,0,5.93-3.29,7,7,0,0,0,6.1,3.29,6.83,6.83,0,0,0,6-3.3,7.12,7.12,0,0,0,6,3.3.57.57,0,0,0,0-1.14Z"/><path d="M49,26.39a6.18,6.18,0,0,1-5.47-3.58.54.54,0,0,0-.55-.35.58.58,0,0,0-.52.39A5.68,5.68,0,0,1,37,26.39a5.88,5.88,0,0,1-5.57-3.55.56.56,0,0,0-.53-.38h0a.59.59,0,0,0-.54.37,5.89,5.89,0,0,1-5.39,3.56,6,6,0,0,1-5.5-3.57.66.66,0,0,0-.54-.36.6.6,0,0,0-.53.37,5.93,5.93,0,0,1-5.57,3.56,5.63,5.63,0,0,1-5.41-3.54.6.6,0,0,0-.57-.39.57.57,0,0,0-.52.44C5.44,26.3.87,26.39.83,26.39a.58.58,0,0,0,0,1.15h0c.2,0,4.42-.08,6.07-3.13a6.76,6.76,0,0,0,5.87,3.13,7.12,7.12,0,0,0,6.11-3.31,7,7,0,0,0,6,3.31,6.9,6.9,0,0,0,5.92-3.3A7,7,0,0,0,37,27.54a6.85,6.85,0,0,0,6-3.3,7.08,7.08,0,0,0,6,3.3.58.58,0,0,0,0-1.15Z"/><path d="M49,38a6.17,6.17,0,0,1-5.47-3.59.53.53,0,0,0-.55-.34.58.58,0,0,0-.52.38A5.66,5.66,0,0,1,37,38a5.87,5.87,0,0,1-5.57-3.56.56.56,0,0,0-.53-.37h0a.57.57,0,0,0-.54.37A5.91,5.91,0,0,1,24.92,38a6,6,0,0,1-5.5-3.58.58.58,0,0,0-.53-.35h0a.58.58,0,0,0-.53.37A5.93,5.93,0,0,1,12.78,38a5.62,5.62,0,0,1-5.41-3.55.58.58,0,0,0-.57-.38.56.56,0,0,0-.52.44C5.44,37.91.87,38,.83,38a.57.57,0,1,0,0,1.14h0c.2,0,4.42-.07,6.07-3.12a6.75,6.75,0,0,0,5.87,3.12,7.09,7.09,0,0,0,6.11-3.31,7,7,0,0,0,6,3.31,6.9,6.9,0,0,0,5.92-3.29A7,7,0,0,0,37,39.14a6.83,6.83,0,0,0,6-3.3,7.06,7.06,0,0,0,6,3.3A.57.57,0,0,0,49,38Z"/></g><g id="e6f46fcb-aa22-4291-b701-7c6d7b9e8c58" data-name="LABELS"><text transform="translate(0 54.88)" font-size="6" font-family="Roboto-Regular, Roboto">w<tspan x="4.51" y="0" letter-spacing="-0.01em">a</tspan><tspan x="7.73" y="0" letter-spacing="-0.01em">v</tspan><tspan x="10.6" y="0">es</tspan></text></g></svg>