<svg id="ba765b54-f2e4-4c0e-aff5-cb4344bef7a6" data-name="ICONS" xmlns="http://www.w3.org/2000/svg" viewBox="0 0 50 50"><path d="M46.92,19.91H46.6V15.07a.51.51,0,0,0-.5-.5H42V11.84a.5.5,0,0,0-.5-.5H34.78a.5.5,0,0,0-.5.5v8.07H31a3.57,3.57,0,0,0-.59-.73l-.06-.05a1.65,1.65,0,0,0-1.1-.41,1.68,1.68,0,0,0-1.55,1v-2a1.43,1.43,0,0,0-1.43-1.43H26a1.44,1.44,0,0,0-.93.35,1.44,1.44,0,0,0-.92-.35h-.29a1.44,1.44,0,0,0-.93.35,1.44,1.44,0,0,0-.93-.35h-.29a1.44,1.44,0,0,0-.92.35,1.46,1.46,0,0,0-.93-.35h-.29a1.43,1.43,0,0,0-1.43,1.43v2.15H15.72V11.84a.5.5,0,0,0-.5-.5H8.51a.5.5,0,0,0-.5.5v2.73H3.9a.51.51,0,0,0-.5.5v4.84H3A2.92,2.92,0,0,0,.1,22.83V23A2.92,2.92,0,0,0,3,25.94H3.4v4.84a.5.5,0,0,0,.5.5H8V34a.5.5,0,0,0,.5.5h6.71a.5.5,0,0,0,.5-.5V25.94h2.42v1.34a2.22,2.22,0,0,0,2.22,2.21h.8v8.67a.5.5,0,0,0,.5.5H28a.5.5,0,0,0,.5-.5V29.44a3.42,3.42,0,0,0,1.44-.58,4.05,4.05,0,0,0,1.49-2.44,3.39,3.39,0,0,0,.08-.48h2.79V34a.5.5,0,0,0,.5.5h6.71A.5.5,0,0,0,42,34V31.28H46.1a.5.5,0,0,0,.5-.5V25.94h.32a3,3,0,0,0,0-6Zm-43.52,5H3A1.92,1.92,0,0,1,1.1,23v-.19A1.92,1.92,0,0,1,3,20.91H3.4ZM8,30.28H4.4V15.57H8Zm6.71-10.37v13.6H9V12.34h5.71Zm10.85-2.15a.43.43,0,0,1,.43-.43h.29a.43.43,0,0,1,.43.43v4a.43.43,0,0,1-.43.42H26a.42.42,0,0,1-.43-.42Zm-2.14,0a.43.43,0,0,1,.43-.43h.29a.42.42,0,0,1,.42.43v4a.42.42,0,0,1-.42.42h-.29a.42.42,0,0,1-.43-.42Zm-2.14,0a.42.42,0,0,1,.42-.43H22a.43.43,0,0,1,.43.43v4a.42.42,0,0,1-.43.42h-.29a.42.42,0,0,1-.42-.42Zm-2.15,0a.43.43,0,0,1,.43-.43h.29a.43.43,0,0,1,.43.43v4a.43.43,0,0,1-.43.42h-.29a.42.42,0,0,1-.43-.42Zm-.48,7.18H15.72v-4h2.42v.84a1.43,1.43,0,0,0,1.43,1.42h.29a1.41,1.41,0,0,0,.93-.35,1.38,1.38,0,0,0,.92.35H22a1.39,1.39,0,0,0,.93-.35,1.39,1.39,0,0,0,.93.35h.29a1.38,1.38,0,0,0,.92-.35,1.39,1.39,0,0,0,.93.35h.29a1.43,1.43,0,0,0,1.43-1.42V21a1.65,1.65,0,0,0,.64.79v3.12Zm8.82,12.72H22.16V29.49h5.32Zm3-11.91a1.25,1.25,0,0,1-.06.42l0,.1A2.9,2.9,0,0,1,29.35,28a2.59,2.59,0,0,1-1.62.46H20.36a1.22,1.22,0,0,1-1.22-1.21V25.94h9.72a.5.5,0,0,0,.5-.5V21.52a.5.5,0,0,0-.33-.47.69.69,0,0,1-.45-.64.71.71,0,0,1,1.16-.5l.05,0a2.24,2.24,0,0,1,.59.9h0a1.76,1.76,0,0,1,.12.65Zm3.78-.81H31.5V21.5a3,3,0,0,0-.07-.59h2.85ZM41,15.07V33.51H35.28V12.34H41Zm4.61,5.34v9.87H42V15.57H45.6Zm1.32,4.53H46.6v-4h.32a2,2,0,0,1,0,4Z"/></svg>