<svg xmlns="http://www.w3.org/2000/svg" viewBox="0 0 50 50"><g id="f3fb5e6c-5b1f-4ca2-822c-3d90b9ace834" data-name="ICONS"><polygon points="43.47 34.14 43.47 34.09 43.47 34.09 43.47 34.14 43.47 34.14 43.47 34.14"/><polygon points="43.47 34.14 43.47 34.14 43.45 34.64 43.47 34.14 43.47 34.14"/><path d="M44,33.68A21.27,21.27,0,0,0,30,14.21a.89.89,0,0,0,.38-.34c.27-.46,0-1-.21-1.42a5.36,5.36,0,0,1-.23-.52,2.35,2.35,0,0,1,.45-.35c.43-.29.91-.61.91-1.15s-.48-.87-.91-1.16C30.24,9.17,30,9,30,9a2.63,2.63,0,0,1,.22-.56c.23-.45.48-1,.21-1.42s-.84-.5-1.35-.53c-.18,0-.5,0-.55-.06a2.06,2.06,0,0,1-.08-.58c0-.51-.07-1.08-.54-1.35s-1,0-1.42.21a5.36,5.36,0,0,1-.52.23,2.35,2.35,0,0,1-.35-.45c-.28-.43-.61-.91-1.15-.91s-.87.48-1.16.91c-.1.15-.27.4-.31.44s-.38-.14-.56-.22c-.45-.22-1-.48-1.42-.21s-.5.84-.53,1.35a2.82,2.82,0,0,1-.06.55,2.43,2.43,0,0,1-.58.09c-.5,0-1.08.07-1.35.53a1.53,1.53,0,0,0,.21,1.42,3.65,3.65,0,0,1,.23.52,2.07,2.07,0,0,1-.45.35c-.43.29-.91.61-.91,1.16s.48.86.91,1.15a4.65,4.65,0,0,1,.44.31,2.05,2.05,0,0,1-.22.56,1.53,1.53,0,0,0-.21,1.42.83.83,0,0,0,.37.33A19.49,19.49,0,0,0,7.08,24.39a25.68,25.68,0,0,0-1.86,9.32A5.85,5.85,0,0,0,.28,39.46v1.92a4.51,4.51,0,0,0,4.51,4.5H44.54a4.51,4.51,0,0,0,4.5-4.5V39.46A5.81,5.81,0,0,0,44,33.68ZM48,41.38a3.5,3.5,0,0,1-3.5,3.5H4.79a3.51,3.51,0,0,1-3.51-3.5V39.46a4.82,4.82,0,0,1,4.47-4.8l.31,0H43.45l0-.5v0h0v0l0,.5A4.82,4.82,0,0,1,48,39.46ZM24.59,14.3c6.79,0,13,4.45,16.16,10.69L38,27.21l-4.43-4.52-4.38,4.64L24.6,22.68l-4.78,4.58L15.51,22.7l-4.65,4.57L8.1,24.59A18.46,18.46,0,0,1,24.59,14.3ZM10.86,28.66l4.63-4.54,4.29,4.55,4.8-4.59,4.59,4.69,4.38-4.64,4.34,4.42,3.29-2.63A20.14,20.14,0,0,1,43,33.64H6.23a26.74,26.74,0,0,1,1.44-8.07Zm9-15.25a4,4,0,0,1-.51-.06,3.13,3.13,0,0,1,.21-.46,1.83,1.83,0,0,0,.29-1.24,1.75,1.75,0,0,0-.86-.9,5.34,5.34,0,0,1-.43-.32A3.74,3.74,0,0,1,19,10.1a1.75,1.75,0,0,0,.86-.9A1.83,1.83,0,0,0,19.56,8a3.13,3.13,0,0,1-.21-.46,4.12,4.12,0,0,1,.52-.06,1.85,1.85,0,0,0,1.21-.36,1.82,1.82,0,0,0,.36-1.21,4,4,0,0,1,0-.51,3.13,3.13,0,0,1,.46.21,1.9,1.9,0,0,0,1.24.29A1.8,1.8,0,0,0,24.1,5a3,3,0,0,1,.32-.43,4,4,0,0,1,.32.43,1.78,1.78,0,0,0,.9.86,1.88,1.88,0,0,0,1.24-.29,3.68,3.68,0,0,1,.46-.21,4,4,0,0,1,.06.51,1.82,1.82,0,0,0,.36,1.21A1.76,1.76,0,0,0,29,7.44a4,4,0,0,1,.51.06,4.58,4.58,0,0,1-.2.46A1.85,1.85,0,0,0,29,9.2a1.8,1.8,0,0,0,.86.91,2.4,2.4,0,0,1,.43.32,4,4,0,0,1-.43.32,1.78,1.78,0,0,0-.86.9,1.83,1.83,0,0,0,.3,1.24c.06.13.16.34.2.46a4,4,0,0,1-.51.06,2.18,2.18,0,0,0-1.06.25,16.63,16.63,0,0,0-3.32-.36,18.62,18.62,0,0,0-3.66.37A2.07,2.07,0,0,0,19.86,13.41Z"/></g><g id="a7feee5c-8ca7-4ad6-8473-c0bdad003439" data-name="LABELS"><text transform="translate(0.39 54.95)" font-size="6" font-family="Roboto-Regular, Roboto">winter-hat</text></g></svg>