<?xml version="1.0" encoding="UTF-8"?><svg xmlns="http://www.w3.org/2000/svg" viewBox="0 0 50 50"><g id="uuid-39e174df-4e15-4f43-941b-dc7710cae066"><g><path d="M31.39,7.82c-9.47,0-17.18,7.71-17.18,17.18s7.71,17.18,17.18,17.18,17.18-7.71,17.18-17.18S40.86,7.82,31.39,7.82Zm0,33.36c-8.92,0-16.18-7.26-16.18-16.18S22.47,8.82,31.39,8.82s16.18,7.26,16.18,16.18-7.26,16.18-16.18,16.18Z"/><path d="M31.39,11.17c-7.63,0-13.83,6.2-13.83,13.83s6.2,13.83,13.83,13.83,13.83-6.2,13.83-13.83-6.2-13.83-13.83-13.83Zm0,26.66c-7.07,0-12.83-5.76-12.83-12.83s5.76-12.83,12.83-12.83,12.83,5.76,12.83,12.83-5.76,12.83-12.83,12.83Z"/><path d="M31.39,15.72c.28,0,.5-.22,.5-.5v-1.6c0-.28-.22-.5-.5-.5s-.5,.22-.5,.5v1.6c0,.28,.22,.5,.5,.5Z"/><path d="M23.7,16.6c-.2-.2-.51-.2-.71,0s-.2,.51,0,.71l1.13,1.13c.1,.1,.23,.15,.35,.15s.26-.05,.35-.15c.2-.2,.2-.51,0-.71l-1.13-1.13Z"/><path d="M21.61,24.5h-1.6c-.28,0-.5,.22-.5,.5s.22,.5,.5,.5h1.6c.28,0,.5-.22,.5-.5s-.22-.5-.5-.5Z"/><path d="M24.12,31.56l-1.13,1.13c-.2,.2-.2,.51,0,.71,.1,.1,.23,.15,.35,.15s.26-.05,.35-.15l1.13-1.13c.2-.2,.2-.51,0-.71s-.51-.2-.71,0Z"/><path d="M31.39,34.28c-.28,0-.5,.22-.5,.5v1.6c0,.28,.22,.5,.5,.5s.5-.22,.5-.5v-1.6c0-.28-.22-.5-.5-.5Z"/><path d="M38.65,31.56c-.2-.2-.51-.2-.71,0s-.2,.51,0,.71l1.13,1.13c.1,.1,.23,.15,.35,.15s.26-.05,.35-.15c.2-.2,.2-.51,0-.71l-1.13-1.13Z"/><path d="M42.76,24.5h-1.6c-.28,0-.5,.22-.5,.5s.22,.5,.5,.5h1.6c.28,0,.5-.22,.5-.5s-.22-.5-.5-.5Z"/><path d="M39.08,16.6l-1.13,1.13c-.2,.2-.2,.51,0,.71,.1,.1,.23,.15,.35,.15s.26-.05,.35-.15l1.13-1.13c.2-.2,.2-.51,0-.71s-.51-.2-.71,0Z"/><path d="M33.16,26.11c.2-.32,.32-.7,.32-1.11,0-.98-.68-1.81-1.6-2.03v-4.53c-.01-.28-.24-.5-.51-.5h0c-.28,0-.5,.23-.5,.5v4.53c-.9,.23-1.59,1.05-1.59,2.03,0,1.16,.94,2.1,2.1,2.1,.38,0,.74-.11,1.05-.29l2.13,1.96c.1,.09,.22,.13,.34,.13,.13,0,.27-.05,.37-.16,.19-.2,.17-.52-.03-.71l-2.09-1.92Zm-2.87-1.11c0-.61,.49-1.1,1.1-1.1s1.1,.49,1.1,1.1-.49,1.1-1.1,1.1-1.1-.49-1.1-1.1Z"/><path d="M11.73,18.96s.02,0,.04,0c.3-.02,.86-.14,1.35-.61,.61-.6,.67-1.34,.66-1.62v-5.22c0-.56-.19-1.08-.53-1.48-.36-.42-.85-.66-1.37-.66-3.81,.04-3.93,.08-3.99,.11-.89,.25-2.2,.84-3.35,2.22-1.14,1.36-1.61,2.86-1.8,3.85-.85,3.33-1.29,6.79-1.31,10.26-.02,3.19,.32,6.38,1,9.47,.25,1.13,.82,2.78,2.12,4.24,1.17,1.31,2.46,1.92,3.3,2.19,.1,.04,.22,.09,4.04,.12,.52,0,1.01-.23,1.37-.66,.34-.4,.53-.93,.53-1.48v-5.39c0-.2-.08-.88-.65-1.38-.37-.31-.76-.41-1.09-.44h-2.76c-.34-2.29-.5-4.62-.48-6.92,.02-2.19,.21-4.4,.57-6.57l2.36-.02Zm-3.28-.56c-.41,2.35-.63,4.75-.65,7.14-.03,2.5,.16,5.03,.56,7.51,.04,.24,.25,.42,.49,.42h3.15c.1,.01,.31,.05,.48,.2,.27,.23,.3,.56,.3,.63v5.37c0,.32-.1,.61-.29,.83-.17,.2-.38,.31-.6,.31-1.66-.02-3.55-.05-3.71-.06-.75-.24-1.86-.77-2.88-1.91-1.15-1.3-1.66-2.78-1.89-3.79-.67-3.02-1-6.13-.98-9.25,.02-3.39,.45-6.76,1.29-10.05,.17-.9,.59-2.23,1.59-3.42,.99-1.18,2.1-1.69,2.82-1.89,.22-.03,2.11-.06,3.76-.08,.22,0,.44,.11,.6,.31,.19,.22,.29,.52,.29,.83v5.22c0,.13-.02,.56-.36,.9-.26,.26-.58,.32-.72,.33l-2.76,.03c-.24,0-.45,.18-.49,.41Z"/></g></g><g id="uuid-31a68cb6-32e3-4036-b22a-3611a5dfbc2d"><text transform="translate(1.2 54.88)" font-family="Roboto-Regular, Roboto" font-size="6"><tspan x="0" y="0">24hour-plane</tspan></text></g></svg>