<?xml version="1.0" encoding="UTF-8"?><svg id="uuid-9a00e7ee-38a5-4cae-9977-0b083aa8ec76" xmlns="http://www.w3.org/2000/svg" viewBox="0 0 50 50"><path d="M42.34,23.87h6.23c.24,0,.44-.17,.49-.4,.11-.5,.16-1.01,.16-1.52,0-4.05-3.3-7.35-7.35-7.35-.62,0-1.23,.08-1.83,.24-1.62-4.63-6.07-7.82-11-7.82-4.25,0-8.21,2.38-10.24,6.11-1.5-.92-3.21-1.4-4.99-1.4-5.29,0-9.59,4.3-9.59,9.58,0,.49,.06,1,.14,1.51-2.34,.64-4.06,2.78-4.06,5.32,0,.38,.04,.77,.12,1.14,.05,.23,.25,.4,.49,.4H27.62l-3.23,6.04c-.77,1.44-.73,3.13,.11,4.53s2.31,2.24,3.95,2.24h16.16c1.63,0,3.11-.84,3.95-2.24s.88-3.09,.11-4.53l-6.33-11.85ZM5.22,21.31c0-4.73,3.85-8.58,8.59-8.58,1.76,0,3.45,.53,4.89,1.54,.12,.08,.27,.11,.41,.07,.14-.04,.26-.13,.32-.27,1.77-3.67,5.53-6.05,9.6-6.05,4.66,0,8.86,3.12,10.2,7.58,.04,.13,.13,.24,.25,.3,.12,.06,.26,.07,.39,.03,.65-.22,1.33-.33,2-.33,3.5,0,6.35,2.85,6.35,6.35,0,.31-.02,.61-.07,.92h-6.34l-1.22-2.28c-.81-1.52-2.33-2.43-4.06-2.43-1.73,0-3.25,.91-4.06,2.43l-1.06,1.99c-1.29-1.28-3.07-2.07-5.03-2.07-1.28,0-2.51,.34-3.6,.98-1.53-2.71-4.43-4.43-7.55-4.43-3.63,0-6.92,2.32-8.15,5.71-.42-.1-.84-.15-1.26-.15-.16,0-.32,.01-.48,.02-.07-.45-.12-.9-.12-1.34Zm-3.89,7.37c-.02-.18-.03-.36-.03-.54,0-2.1,1.45-3.85,3.39-4.36,.36-.09,.74-.16,1.13-.16,.48,0,.96,.08,1.42,.23,.05,.02,.1,.02,.15,.02h.07c.06,0,.12-.02,.17-.05,.12-.06,.21-.17,.25-.3,.07-.23,.17-.44,.26-.65,1.16-2.86,3.97-4.81,7.09-4.81,2.93,0,5.64,1.71,6.91,4.36,.06,.13,.18,.23,.32,.27,.14,.04,.29,.01,.41-.07,1.04-.72,2.25-1.1,3.51-1.1,1.46,0,2.8,.51,3.85,1.36,.24,.2,.47,.41,.68,.64l-.19,.36-2.57,4.81H1.33Zm46.37,11.06c-.66,1.1-1.81,1.75-3.09,1.75H28.45c-1.28,0-2.43-.65-3.09-1.75-.66-1.1-.69-2.42-.09-3.55l3.48-6.51,.53-1,2.3-4.3,.27-.51,.26-.48,.28-.52,.96-1.81c.64-1.19,1.82-1.9,3.18-1.91,1.35,0,2.54,.71,3.18,1.91l.96,1.81,.53,1,6.58,12.32c.6,1.13,.57,2.45-.09,3.55Z" fill="#FFFFFF"/><g><path d="M36.53,40.39c-1.2,0-2.18-.98-2.18-2.18s.98-2.18,2.18-2.18,2.18,.98,2.18,2.18-.98,2.18-2.18,2.18Zm0-3.36c-.65,0-1.18,.53-1.18,1.18s.53,1.18,1.18,1.18,1.18-.53,1.18-1.18-.53-1.18-1.18-1.18Z" fill="#FFFFFF"/><path d="M37.91,35.6h-2.76c-.27,0-.49-.21-.5-.48l-.59-11.83c0-.14,.04-.27,.14-.37,.09-.1,.23-.16,.36-.16h3.94c.14,0,.27,.06,.36,.16,.09,.1,.14,.23,.14,.37l-.59,11.83c-.01,.27-.23,.48-.5,.48Zm-2.29-1h1.81l.54-10.83h-2.89l.54,10.83Z" fill="#FFFFFF"/></g></svg>