<?xml version="1.0" encoding="UTF-8"?><svg xmlns="http://www.w3.org/2000/svg" viewBox="0 0 50 50"><g id="uuid-f0aae97e-4091-48f5-be22-c8f623789a90"><path d="M49.12,2.1c-.12-.13-.29-.19-.46-.16-2.65,.47-10.26,1.57-23.8,1.57S3.71,2.41,1.06,1.93c-.17-.03-.35,.03-.46,.16-.12,.13-.15,.31-.1,.48L1.83,6.88c.06,.19,.22,.32,.41,.35,1.58,.2,3.29,.38,5.1,.53v6.65H2.51c-.28,0-.5,.22-.5,.5v4.08c0,.28,.22,.5,.5,.5H7.34v18.03h-.4c-.28,0-.5,.22-.5,.5v9.04c0,.28,.22,.5,.5,.5h5.87c.28,0,.5-.22,.5-.5v-9.04c0-.28-.22-.5-.5-.5h-.4V19.5h24.88v18.03h-.4c-.28,0-.5,.22-.5,.5v9.04c0,.28,.22,.5,.5,.5h5.87c.28,0,.5-.22,.5-.5v-9.04c0-.28-.22-.5-.5-.5h-.4V19.5h4.83c.28,0,.5-.22,.5-.5v-4.08c0-.28-.22-.5-.5-.5h-4.83V7.76c1.8-.15,3.51-.33,5.1-.53,.19-.03,.36-.16,.41-.35l1.33-4.31c.05-.17,.01-.35-.1-.48ZM12.32,46.57H7.44v-8.04h4.87v8.04Zm-3.98-9.04V19.5h3.08v18.03h-3.08Zm33.94,9.04h-4.87v-8.04h4.87v8.04Zm-3.98-9.04V19.5h3.08v18.03h-3.08Zm8.41-22.11v3.08H3.01v-3.08H46.71Zm-38.37-1V7.84c1,.08,2.03,.15,3.08,.21v6.36h-3.08Zm4.08,0v-6.3c3.14,.17,6.47,.28,9.9,.32v5.98H12.42Zm10.9,0v-5.98c.51,0,1.02,0,1.54,0s1.03,0,1.54,0v5.98h-3.08Zm4.08,0v-5.98c3.42-.04,6.76-.14,9.9-.32v6.3h-9.9Zm10.9,0v-6.36c1.05-.06,2.08-.14,3.08-.21v6.58h-3.08Zm8.73-8.14c-6.08,.76-13.94,1.17-22.17,1.17s-16.09-.42-22.17-1.17l-.99-3.22c3.24,.52,10.73,1.45,23.17,1.45s19.93-.92,23.17-1.45l-.99,3.22Z" fill="#FFCD00"/></g><g id="uuid-f7fe4688-8db9-45b5-be23-ab279efd7bce"><text transform="translate(-.3 54.73)" font-family="Roboto-Regular, Roboto" font-size="6"><tspan x="0" y="0">asian-a</tspan><tspan x="19.31" y="0" letter-spacing="0em">r</tspan><tspan x="21.28" y="0">ch</tspan></text></g></svg>