<?xml version="1.0" encoding="UTF-8"?><svg xmlns="http://www.w3.org/2000/svg" viewBox="0 0 50 50"><g id="uuid-77e4d145-80e7-4cbd-9d2b-d52aa5e6b839"><g><path d="M46.06,36.43c-.87-.58-1.96-.75-2.98-.47l-10.41,2.09c.09-.68-.07-1.39-.47-1.97-.45-.65-1.16-1.09-1.88-1.19l-10.69-2.8s-.08-.02-.13-.02h-6.42v-.18c0-.28-.22-.5-.5-.5H7.69v-1.42c0-.28-.22-.5-.5-.5H2.16c-.28,0-.5,.22-.5,.5v14.78c0,.28,.22,.5,.5,.5H7.19c.28,0,.5-.22,.5-.5v-1.42h4.88c.28,0,.5-.22,.5-.5v-.77l16.18,3.25c.07,.02,.14,.04,.2,.04h0s.06,.01,.09,.01c.08,0,.17-.02,.24-.07l14.74-2.96c1.85-.3,3.18-1.95,2.97-3.67-.11-.88-.64-1.7-1.45-2.23Zm-33.98,5.9H7.69v-9.94h4.38v9.94Zm-5.38,1.92H2.66v-13.78H6.69v13.78Zm37.66-2.9l-14.87,2.98-16.41-3.29v-1.2l.02-.1c.02-.09,0-.19-.02-.27v-6.39h6.36l10.69,2.79c.51,.07,.96,.35,1.26,.78,.29,.42,.4,.93,.29,1.4-.1,.48-.42,.9-.86,1.16-.45,.26-.99,.32-1.51,.17l-10.75-2.7c-.21-.05-.42,.04-.53,.2-.03,.05-.06,.1-.08,.16-.07,.27,.1,.54,.36,.61l10.72,2.69c.27,.08,.55,.13,.84,.13,.5,0,1-.13,1.45-.39,.39-.23,.71-.55,.94-.91l11.04-2.22h.04c.74-.22,1.53-.1,2.17,.32,.57,.38,.93,.93,1.01,1.52,.13,1.04-.7,2.32-2.16,2.56Z"/><path d="M17.26,18.53l.08,.09c.07,.08,.13,.15,.21,.23l13.39,13.39s.1,.08,.16,.11h0c.06,.03,.13,.04,.19,.04s.13-.01,.19-.04h0c.06-.03,.11-.06,.16-.11l13.4-13.4c.07-.07,.14-.15,.2-.22l.08-.1h0c3.12-3.44,2.99-8.7-.29-11.98s-8.91-3.39-12.3,0l-1.45,1.45-1.44-1.45c-3.39-3.39-8.91-3.39-12.3,0-3.28,3.28-3.41,8.54-.29,11.98h0ZM29.14,7.25l1.65,1.65v1.33c-.27-.09-.56-.14-.85-.14-1.5,0-2.72,1.22-2.72,2.72s1.22,2.72,2.72,2.72c.29,0,.58-.05,.85-.14v2.3h-3.88c-.19,0-.36,.1-.44,.27s-.07,.37,.03,.52c.21,.29,.32,.63,.32,.99,0,.95-.77,1.72-1.72,1.72s-1.72-.77-1.72-1.72c0-.35,.11-.69,.32-.99,.11-.15,.12-.35,.03-.52s-.26-.27-.44-.27h-5.44c-2.61-3.05-2.45-7.59,.4-10.44,3-3,7.89-3,10.89,0Zm15.19,0c2.85,2.85,3.01,7.4,.4,10.44h-4.18s0-.02,.01-.03c.06-.12,.1-.25,.14-.38,.02-.06,.05-.13,.07-.19,.05-.2,.07-.41,.07-.62,0-1.5-1.22-2.72-2.72-2.72s-2.72,1.22-2.72,2.72c0,.21,.03,.42,.07,.62,.01,.06,.04,.12,.06,.18,.04,.13,.08,.27,.15,.39,0,0,0,.02,0,.03h-3.91v-3.13c0-.19-.11-.37-.28-.45-.17-.08-.38-.06-.53,.05-.31,.24-.67,.37-1.05,.37-.95,0-1.72-.77-1.72-1.72s.77-1.72,1.72-1.72c.38,0,.74,.13,1.04,.37,.15,.12,.36,.14,.53,.05,.17-.08,.28-.26,.28-.45v-2.16l1.65-1.65c3-3,7.89-3,10.89,0Zm-21.84,11.44c-.08,.25-.11,.51-.11,.77,0,1.5,1.22,2.72,2.72,2.72s2.72-1.22,2.72-2.72c0-.26-.04-.52-.11-.77h3.08v3.54c0,.22,.14,.41,.35,.48,.21,.06,.43,0,.56-.19,.32-.46,.85-.73,1.4-.73,.95,0,1.72,.77,1.72,1.72s-.77,1.72-1.72,1.72c-.56,0-1.08-.27-1.4-.73-.12-.18-.35-.25-.56-.19-.21,.07-.35,.26-.35,.48v5.9l-11.99-11.99h3.7Zm9.29,7.19c.4,.22,.85,.34,1.31,.34,1.5,0,2.72-1.22,2.72-2.72s-1.22-2.72-2.72-2.72c-.46,0-.92,.12-1.31,.34v-2.44h4.95c.07,0,.14-.02,.2-.05,.02,0,.03-.02,.04-.03h.01s.03-.03,.05-.04c.02-.02,.05-.04,.07-.06,0,0,.01,0,.02-.01,.01-.02,.02-.04,.03-.06,.02-.03,.03-.05,.05-.08h0v-.02s.01-.06,.02-.09c0-.02,.01-.04,.01-.06h0c0-.15-.06-.29-.18-.39-.41-.33-.64-.82-.64-1.33,0-.95,.77-1.72,1.72-1.72s1.72,.77,1.72,1.72c0,.51-.24,1-.65,1.33-.12,.1-.18,.24-.18,.39h0s0,.04,.01,.06c0,.03,0,.06,.02,.09,0,0,0,0,0,.01h0s.03,.06,.05,.09c.01,.02,.02,.04,.03,.06,0,0,.01,0,.02,.02,.02,.02,.04,.04,.06,.06,.01,.01,.02,.02,.04,.03,.02,.01,.03,.02,.05,.03,.03,.01,.06,.02,.09,.03,.03,0,.07,.02,.1,.02,0,0,.02,0,.03,0h4.27l-11.99,11.99v-4.79Z"/></g></g><g id="uuid-e6257ce8-f67f-49c8-932f-cf25afaa8f61"><text transform="translate(.07 54.97)" font-family="Roboto-Regular, Roboto" font-size="6"><tspan x="0" y="0">autism</tspan></text></g></svg>