<?xml version="1.0" encoding="UTF-8"?><svg xmlns="http://www.w3.org/2000/svg" viewBox="0 0 50 50"><g id="uuid-92c52e78-47f0-460f-b709-8026b28efe11"><g><path d="M24.62,.84c-6.74,0-12.22,5.39-12.22,12.01v22.4c0,1.02,.12,2.07,.36,3.13,1.34,5.91,6.21,10.04,11.86,10.04,6.74,0,12.22-5.91,12.22-13.16V12.85c0-6.62-5.48-12.01-12.22-12.01ZM13.82,38.45l11.14-9.08,10.89-8.88v14.75c0,6.71-5.03,12.16-11.22,12.16-5.08,0-9.48-3.67-10.81-8.96ZM24.62,1.84c6.18,0,11.22,4.94,11.22,11.01v6.36l-4.2,3.42c-.89-.64-1.97-1.04-3.15-1.1h-7.78c-1.17,.06-2.24,.46-3.12,1.1l-4.2-3.42v-6.36c0-6.07,5.03-11.01,11.22-11.01ZM13.41,35.25v-14.75l10.44,8.49-10.26,8.36c-.12-.71-.18-1.42-.18-2.1Zm11.23-6.91l-6.21-5.05c.68-.44,1.47-.72,2.32-.76h7.73c.87,.04,1.67,.33,2.35,.77l-6.19,5.05Z" fill="#FFFFFF"/><path d="M24.62,19.86c4.28,0,7.76-3.48,7.76-7.76s-3.48-7.76-7.76-7.76c-.02,0-.04,0-.05,0h0c-4.25,.03-7.71,3.5-7.71,7.76s3.48,7.76,7.76,7.76Zm-.13-14.51v-.02c.45,.14,.72,.59,.64,1.02-.04,.22-.18,.42-.38,.55-.22,.14-.47,.19-.72,.13-.27-.06-.54,.11-.6,.38-.06,.27,.11,.54,.38,.6,.14,.03,.28,.05,.42,.05,.37,0,.74-.11,1.06-.32,.42-.28,.72-.71,.82-1.2,.07-.37,.03-.73-.11-1.06,3.07,.64,5.39,3.36,5.39,6.62,0,3.73-3.03,6.76-6.76,6.76s-6.76-3.03-6.76-6.76,2.96-6.68,6.63-6.75Z" fill="#FFFFFF"/></g></g><g id="uuid-9e480255-bf1b-4aee-af1e-ac945dbe800a"><text transform="translate(-.1 55.02)" font-family="Roboto-Regular, Roboto" font-size="6"><tspan x="0" y="0">ba</tspan><tspan x="6.63" y="0" letter-spacing="0em">b</tspan><tspan x="9.96" y="0">y</tspan></text></g></svg>