<?xml version="1.0" encoding="UTF-8"?><svg xmlns="http://www.w3.org/2000/svg" viewBox="0 0 50 50"><g id="uuid-0f325117-cffe-41e4-b6c2-be4bacaa98e5"><g><path d="M37.88,9.33l1.95-4.79c.53-1.3-.1-2.79-1.4-3.33l-2.46-1c-.63-.26-1.32-.25-1.95,.01-.63,.26-1.12,.76-1.37,1.39l-1.26,3.1c-.49-.15-.99-.26-1.5-.35-1.06-2.19-2.95-3.66-5.1-3.66s-4.04,1.47-5.1,3.66c-.52,.09-1.03,.21-1.53,.36l-1.23-3.02c-.26-.63-.74-1.12-1.37-1.39s-1.32-.27-1.95-.01l-2.46,1c-.63,.26-1.12,.74-1.39,1.37-.26,.63-.27,1.32-.01,1.95l1.92,4.73c-1.57,2.12-2.51,4.74-2.51,7.57V49.04c0,.28,.22,.5,.5,.5h30.27c.28,0,.5-.22,.5-.5V16.93c0-2.85-.95-5.47-2.53-7.6Zm-4.32-7.33c.16-.38,.45-.68,.83-.85,.19-.08,.4-.12,.6-.12s.4,.04,.58,.12l2.46,1c.79,.32,1.18,1.23,.85,2.02l-1.74,4.28c-1.32-1.48-2.97-2.65-4.84-3.39l1.24-3.06Zm-8.79-.29c1.57,0,2.98,.98,3.9,2.5-.34-.03-.69-.05-1.04-.05h-5.72c-.35,0-.7,.02-1.04,.05,.92-1.52,2.32-2.5,3.9-2.5Zm-14.13,2.54c-.16-.38-.15-.81,0-1.19s.46-.68,.85-.83l2.46-1c.38-.16,.8-.15,1.19,0,.38,.16,.68,.46,.83,.85l1.21,2.99c-1.87,.75-3.52,1.92-4.83,3.41l-1.72-4.22Zm28.76,44.29H10.13V16.93c0-6.49,5.28-11.78,11.78-11.78h5.72c6.49,0,11.78,5.28,11.78,11.78v31.6Z" fill="#FFCD00"/><path d="M19.82,23.91h9.9c1.58,0,2.86-1.28,2.86-2.86v-5.51c0-1.58-1.28-2.86-2.86-2.86h-9.9c-1.58,0-2.86,1.28-2.86,2.86v5.51c0,1.58,1.28,2.86,2.86,2.86Zm-1.86-8.37c0-1.03,.83-1.86,1.86-1.86h9.9c1.03,0,1.86,.83,1.86,1.86v.67h-13.62v-.67Zm0,1.67h13.62v3.84c0,1.03-.83,1.86-1.86,1.86h-9.9c-1.03,0-1.86-.83-1.86-1.86v-3.84Z" fill="#FFCD00"/><path d="M15.17,31.01c-1.79,0-3.25,1.46-3.25,3.25v9.09c0,1.79,1.46,3.25,3.25,3.25h19.19c1.79,0,3.25-1.46,3.25-3.25v-9.09c0-1.79-1.46-3.25-3.25-3.25H15.17Zm21.44,12.33c0,1.24-1.01,2.25-2.25,2.25H15.17c-1.24,0-2.25-1.01-2.25-2.25v-6.96h23.69v6.96Zm0-9.09v1.12H12.93v-1.12c0-1.24,1.01-2.25,2.25-2.25h19.19c1.24,0,2.25,1.01,2.25,2.25Z" fill="#FFCD00"/></g></g><g id="uuid-01df4eb9-64fc-4e2d-b2eb-78d08f421b32"><text transform="translate(0 55.07)" font-family="Roboto-Regular, Roboto" font-size="6"><tspan x="0" y="0">backpack</tspan></text></g></svg>