<?xml version="1.0" encoding="UTF-8"?><svg xmlns="http://www.w3.org/2000/svg" viewBox="0 0 50 50"><g id="uuid-8b66048b-7f57-4073-83d8-17ec82dd2d73"><path d="M23.35,18.76c.54,.54,1.43,.54,1.97,0,.54-.54,.54-1.43,0-1.97-.54-.54-1.43-.54-1.97,0-.54,.54-.54,1.43,0,1.97Z"/><path d="M29.28,22.73c.54-.54,.54-1.43,0-1.97-.54-.54-1.43-.54-1.97,0-.54,.54-.54,1.43,0,1.97,.54,.54,1.43,.54,1.97,0Z"/><path d="M33.17,26.74c.54-.54,.54-1.43,0-1.97-.54-.54-1.43-.54-1.97,0s-.54,1.43,0,1.97c.54,.54,1.43,.54,1.97,0Z"/><path d="M22.1,22.05c.54-.54,.54-1.43,0-1.97-.54-.54-1.43-.54-1.97,0-.54,.54-.54,1.43,0,1.97,.54,.54,1.43,.54,1.97,0Z"/><path d="M24.09,24.05c-.54,.54-.54,1.43,0,1.97s1.43,.54,1.97,0c.54-.54,.54-1.43,0-1.97-.54-.54-1.43-.54-1.97,0Z"/><path d="M27.98,28.06c-.54,.54-.54,1.43,0,1.97,.54,.54,1.43,.54,1.97,0s.54-1.43,0-1.97c-.54-.54-1.43-.54-1.97,0Z"/><path d="M16.92,23.37c-.54,.54-.54,1.43,0,1.97,.54,.54,1.43,.54,1.97,0,.54-.54,.54-1.43,0-1.97s-1.43-.54-1.97,0Z"/><path d="M20.87,27.34c-.54,.54-.54,1.43,0,1.97,.54,.54,1.43,.54,1.97,0,.54-.54,.54-1.43,0-1.97s-1.43-.54-1.97,0Z"/><path d="M24.76,31.35c-.54,.54-.54,1.43,0,1.97s1.43,.54,1.97,0c.54-.54,.54-1.43,0-1.97-.54-.54-1.43-.54-1.97,0Z"/><path d="M44.29,5.71c-1.9-1.9-4.43-2.95-7.12-2.95s-5.22,1.05-7.12,2.95L5.71,30.06c-1.9,1.9-2.95,4.43-2.95,7.12s1.05,5.22,2.95,7.12,4.43,2.95,7.12,2.95,5.22-1.05,7.12-2.95l24.35-24.35c1.9-1.9,2.95-4.43,2.95-7.12s-1.05-5.22-2.95-7.12Zm-18.42,31.13l-12.74-12.74,11.02-11.02,12.74,12.74-11.02,11.02Zm-6.64,6.75c-3.54,3.54-9.29,3.53-12.82,0-1.71-1.71-2.66-3.99-2.66-6.41s.94-4.7,2.66-6.41l5.99-5.99,12.82,12.82-5.99,5.99Zm24.35-24.35l-5.93,5.93-12.82-12.82,5.93-5.93c1.77-1.77,4.09-2.65,6.41-2.65s4.64,.88,6.41,2.65c3.54,3.54,3.54,9.29,0,12.82Z"/></g><g id="uuid-58c20c29-f93d-453c-9172-6aae4d1e38bd"><text transform="translate(.22 54.84)" font-family="Roboto-Regular, Roboto" font-size="6"><tspan x="0" y="0">band-aid</tspan></text></g></svg>