<?xml version="1.0" encoding="UTF-8"?><svg xmlns="http://www.w3.org/2000/svg" viewBox="0 0 50 50"><g id="uuid-9cb3f859-e342-4165-8824-9c14a880d619"><path d="M49.59,45.47s.02-.06,.02-.09,0-.06-.02-.09c0-.03,0-.06-.02-.09-.01-.03-.03-.06-.05-.09-.01-.02-.02-.05-.04-.07h-.01s0-.02-.01-.03l-2.46-2.29c-.2-.19-.52-.18-.71,.03-.19,.2-.18,.52,.02,.71l1.53,1.42h-4.98V12.92c0-.28-.22-.5-.5-.5h-5.81c-.28,0-.5,.22-.5,.5v31.96h-2.84V23.08c0-.28-.22-.5-.5-.5h-5.81c-.28,0-.5,.22-.5,.5v21.79h-2.84V18.8c0-.28-.22-.5-.5-.5h-5.81c-.28,0-.5,.22-.5,.5v26.08h-2.84V27.31c0-.28-.22-.5-.5-.5H7.6c-.28,0-.5,.22-.5,.5v17.57H3.68V3.54l1.44,1.44c.1,.1,.23,.15,.35,.15s.25-.05,.35-.15c.2-.19,.2-.51,0-.71L3.54,1.98h0s-.04-.02-.05-.04c-.14-.11-.33-.14-.49-.07-.01,0-.02,.02-.04,.03-.04,.02-.09,.05-.13,.08h0L.54,4.28c-.19,.2-.19,.51,0,.71,.1,.1,.23,.15,.35,.15s.26-.05,.35-.15l1.44-1.44V45.38c0,.28,.22,.5,.5,.5H47.84l-1.53,1.42c-.2,.19-.21,.5-.02,.71,.1,.11,.23,.16,.37,.16,.12,0,.24-.04,.34-.13l2.46-2.29s0-.01,.01-.02h.01s.03-.05,.04-.08c.02-.03,.04-.06,.05-.09,.01-.03,.02-.06,.02-.09Zm-41.5-.59V27.81h4.81v17.07h-4.81Zm9.65,0V19.3h4.81v25.58h-4.81Zm9.65,0V23.58h4.81v21.29h-4.81Zm9.65,0V13.42h4.81v31.46h-4.81Z" fill="#FFFFFF"/></g><g id="uuid-b06013da-4896-4601-b58b-366fa69099b7"><text transform="translate(-.26 54.74)" font-family="Roboto-Regular, Roboto" font-size="6"><tspan x="0" y="0">bar-g</tspan><tspan x="13.68" y="0" letter-spacing="-.02em">r</tspan><tspan x="15.59" y="0">aph</tspan></text></g></svg>