<?xml version="1.0" encoding="UTF-8"?><svg xmlns="http://www.w3.org/2000/svg" viewBox="0 0 50 50"><g id="uuid-1a3eb771-e594-4193-8212-77782ccf85cc"><path d="M45.25,29.14V6.29c0-.28-.22-.5-.5-.5h-6.45v-1.33c0-1.19-.97-2.16-2.16-2.16s-2.16,.97-2.16,2.16v1.33H12.74v-1.33c0-1.19-.97-2.16-2.16-2.16s-2.16,.97-2.16,2.16v1.33H1.58c-.28,0-.5,.22-.5,.5V40.81c0,.28,.22,.5,.5,.5H28.67c1.62,3.75,5.35,6.38,9.69,6.38,5.82,0,10.56-4.74,10.56-10.56,0-3.19-1.43-6.05-3.67-7.99Zm-6.89,17.55c-5.27,0-9.56-4.29-9.56-9.56s4.29-9.56,9.56-9.56,9.56,4.29,9.56,9.56-4.29,9.56-9.56,9.56ZM36.14,3.31c.64,0,1.16,.52,1.16,1.16v2.42c0,.64-.52,1.16-1.16,1.16s-1.16-.52-1.16-1.16v-2.42c0-.64,.52-1.16,1.16-1.16Zm-25.56,0c.64,0,1.16,.52,1.16,1.16v2.42c0,.64-.52,1.16-1.16,1.16s-1.16-.52-1.16-1.16v-2.42c0-.64,.52-1.16,1.16-1.16Zm-2.16,3.48v.09c0,1.19,.97,2.16,2.16,2.16s2.16-.97,2.16-2.16v-.09h21.25v.09c0,1.19,.97,2.16,2.16,2.16s2.16-.97,2.16-2.16v-.09h5.95v5.2H2.08V6.79h6.34ZM2.08,40.31V13H44.25v15.37c-1.68-1.14-3.71-1.8-5.89-1.8-5.82,0-10.56,4.74-10.56,10.56,0,1.11,.17,2.18,.49,3.18H2.08Z" fill="#FFCD00"/><path d="M42.71,40.99l-4.09-4.09v-5.28c0-.28-.22-.5-.5-.5s-.5,.22-.5,.5v5.49c0,.13,.05,.26,.15,.35l4.24,4.24c.1,.1,.23,.15,.35,.15s.26-.05,.35-.15c.2-.2,.2-.51,0-.71Z" fill="#FFCD00"/></g><g id="uuid-f4e2d965-449c-4f76-b411-209dfdf40d9c"><text transform="translate(.22 54.88)" font-family="Roboto-Regular, Roboto" font-size="6"><tspan x="0" y="0">calendar-dock</tspan></text></g></svg>