<?xml version="1.0" encoding="UTF-8"?><svg xmlns="http://www.w3.org/2000/svg" viewBox="0 0 50 50"><g id="uuid-584baf8c-1d00-4aeb-8604-c81f92c4c26e"><path d="M26.25,3.96c-3.91,0-7.1,3.18-7.1,7.1V47.54c0,.55,.45,1,1,1s1-.45,1-1V11.05c0-2.81,2.29-5.1,5.1-5.1s5.1,2.29,5.1,5.1c0,.55,.45,1,1,1s1-.45,1-1c0-3.91-3.18-7.1-7.1-7.1Z" fill="#ffcd00"/><path d="M25,1.71c-4.46,0-8.1,3.63-8.1,8.1V46.29c0,1.1,.9,2,2,2s2-.9,2-2V9.8c0-2.26,1.84-4.1,4.1-4.1s4.1,1.84,4.1,4.1c0,1.1,.9,2,2,2s2-.9,2-2c0-4.46-3.63-8.1-8.1-8.1Zm6.1,9.1c-.55,0-1-.45-1-1,0-2.81-2.29-5.1-5.1-5.1s-5.1,2.29-5.1,5.1V46.29c0,.55-.45,1-1,1s-1-.45-1-1V9.8c0-3.91,3.18-7.1,7.1-7.1s7.1,3.18,7.1,7.1c0,.55-.45,1-1,1Z"/></g><g id="uuid-c9a07c65-bb5c-48f8-8b45-270d98da6c9f"><text transform="translate(.17 54.98)" font-family="Roboto-Regular, Roboto" font-size="6"><tspan x="0" y="0">cane</tspan></text></g></svg>