<?xml version="1.0" encoding="UTF-8"?><svg xmlns="http://www.w3.org/2000/svg" viewBox="0 0 50 50"><g id="uuid-3884afef-dbfb-4590-930d-398abf69fbac"><path d="M44.72,5.64l-2.77-1.62-2.77-1.62c-.12-.07-.25-.09-.38-.05-.13,.03-.24,.12-.31,.23L18.53,36.73l-8.22-10.06c-.18-.21-.49-.24-.7-.07l-4.96,4.06c-.1,.08-.17,.21-.18,.34-.01,.13,.03,.26,.11,.37l11.59,14.18c.71,.87,1.75,1.36,2.87,1.36,.1,0,.19,0,.29-.01,1.21-.09,2.3-.77,2.91-1.82L44.9,6.33c.14-.24,.06-.54-.18-.68ZM19.03,37.86L39.11,3.52l4.67,2.73L21.37,44.57c-.45,.77-1.24,1.26-2.12,1.33-.89,.07-1.75-.3-2.31-.99L5.67,31.12l4.19-3.42,8.35,10.23c.1,.13,.26,.19,.43,.18,.16-.01,.31-.1,.39-.25Z" fill="#FFCD00"/></g><g id="uuid-7bf715b7-e85b-45ad-a3d3-17a084503fc8"><text transform="translate(-.1 54.79)" font-family="Roboto-Regular, Roboto" font-size="6"><tspan x="0" y="0">checkmark</tspan></text></g></svg>