<?xml version="1.0" encoding="UTF-8"?><svg id="uuid-421848f1-a4d0-4da2-838c-a0b7b39ecec6" xmlns="http://www.w3.org/2000/svg" viewBox="0 0 50 50"><path d="M45.06,36.36s-4.67-5.53-5.46-6.48l-.03-6.06h4.3c.21,0,.4-.14,.47-.34,.07-.2,0-.43-.16-.56L25.1,7.95v-3.07h1.33c.28,0,.5-.22,.5-.5s-.22-.5-.5-.5h-1.33v-1.61c0-.28-.22-.5-.5-.5s-.5,.22-.5,.5v1.61h-1.33c-.28,0-.5,.22-.5,.5s.22,.5,.5,.5h1.33v3.25L5.25,22.93c-.17,.13-.23,.35-.16,.56,.07,.2,.26,.34,.47,.34h4.16v5.99l-5.54,6.57c-.08,.09-.12,.2-.12,.32v11.03c0,.28,.22,.5,.5,.5h30.02c2.48-.01,3.73-.02,4.36-.08,.05,.02,.1,.04,.16,.04v.02h5.57c.28,0,.5-.22,.5-.5v-11.03c0-.12-.04-.23-.12-.32ZM24.72,8.91l17.71,13.91h-3s-.03-.05-.05-.06l-9.26-6.97-5.03-3.91c-.18-.14-.43-.14-.61,0l-10.09,7.63-4.43,3.33h-2.94L24.72,8.91ZM5.07,36.89l4.67-5.53,.02,15.88H5.07v-10.35Zm16.6,10.32v-13.35c0-1.74,1.42-3.16,3.16-3.16s3.16,1.42,3.16,3.16v13.3l-6.32,.05Zm7.32,.02v-13.37c0-2.29-1.87-4.16-4.16-4.16s-4.16,1.87-4.16,4.16v13.38c-4.5,0-8.44,0-9.91,0l-.03-17.1s-.01-.05-.01-.07c0-.03,.01-.05,.01-.08v-6.48l4.21-3.19,9.77-7.34,4.79,3.61,9.07,7.05,.03,6.44s0,.02,0,.03c0,.01,0,.02,0,.04l.07,17.08c-1.26,0-5.16,0-9.68,0Zm15.2,0h-4.51l-.06-15.78c1.39,1.65,3.99,4.73,4.58,5.43v10.35Z" fill="#FFCD00"/></svg>