<?xml version="1.0" encoding="UTF-8"?><svg xmlns="http://www.w3.org/2000/svg" viewBox="0 0 50 50"><g id="uuid-c9d41569-217a-4e9b-8ea1-665daf2bbb14"><g><path d="M48.59,48.07v1.07c.03-.17,.06-.33,.06-.5,0-.2-.02-.39-.06-.57Z" fill="none"/><path d="M4.71,24.01h4.86c.28,0,.5-.22,.5-.5v-4.86c0-.28-.22-.5-.5-.5H4.71c-.28,0-.5,.22-.5,.5v4.86c0,.28,.22,.5,.5,.5Zm.5-4.86h3.86v3.86h-3.86v-3.86Z" fill="#FFFFFF"/><path d="M39.93,24.01h4.86c.28,0,.5-.22,.5-.5v-4.86c0-.28-.22-.5-.5-.5h-4.86c-.28,0-.5,.22-.5,.5v4.86c0,.28,.22,.5,.5,.5Zm.5-4.86h3.86v3.86h-3.86v-3.86Z" fill="#FFFFFF"/><path d="M39.93,33.03h4.86c.28,0,.5-.22,.5-.5v-4.86c0-.28-.22-.5-.5-.5h-4.86c-.28,0-.5,.22-.5,.5v4.86c0,.28,.22,.5,.5,.5Zm.5-4.86h3.86v3.86h-3.86v-3.86Z" fill="#FFFFFF"/><path d="M39.93,42.05h4.86c.28,0,.5-.22,.5-.5v-4.86c0-.28-.22-.5-.5-.5h-4.86c-.28,0-.5,.22-.5,.5v4.86c0,.28,.22,.5,.5,.5Zm.5-4.86h3.86v3.86h-3.86v-3.86Z" fill="#FFFFFF"/><path d="M17.56,21.9h5.5c.28,0,.5-.22,.5-.5v-5.5c0-.28-.22-.5-.5-.5h-5.5c-.28,0-.5,.22-.5,.5v5.5c0,.28,.22,.5,.5,.5Zm.5-5.5h4.5v4.5h-4.5v-4.5Z" fill="#FFFFFF"/><path d="M31.94,15.4h-5.5c-.28,0-.5,.22-.5,.5v5.5c0,.28,.22,.5,.5,.5h5.5c.28,0,.5-.22,.5-.5v-5.5c0-.28-.22-.5-.5-.5Zm-.5,5.5h-4.5v-4.5h4.5v4.5Z" fill="#FFFFFF"/><path d="M17.56,11.91h5.5c.28,0,.5-.22,.5-.5V5.91c0-.28-.22-.5-.5-.5h-5.5c-.28,0-.5,.22-.5,.5v5.5c0,.28,.22,.5,.5,.5Zm.5-5.5h4.5v4.5h-4.5V6.41Z" fill="#FFFFFF"/><path d="M31.94,5.41h-5.5c-.28,0-.5,.22-.5,.5v5.5c0,.28,.22,.5,.5,.5h5.5c.28,0,.5-.22,.5-.5V5.91c0-.28-.22-.5-.5-.5Zm-.5,5.5h-4.5V6.41h4.5v4.5Z" fill="#FFFFFF"/><path d="M23.56,31.38v-5.5c0-.28-.22-.5-.5-.5h-5.5c-.28,0-.5,.22-.5,.5v5.5c0,.28,.22,.5,.5,.5h5.5c.28,0,.5-.22,.5-.5Zm-1-.5h-4.5v-4.5h4.5v4.5Z" fill="#FFFFFF"/><path d="M31.94,25.38h-5.5c-.28,0-.5,.22-.5,.5v5.5c0,.28,.22,.5,.5,.5h5.5c.28,0,.5-.22,.5-.5v-5.5c0-.28-.22-.5-.5-.5Zm-.5,5.5h-4.5v-4.5h4.5v4.5Z" fill="#FFFFFF"/><g><rect x="25.25" y="35.91" width="5.49" height="11.73" fill="none"/><path d="M1.63,47.65H6.39v-4.54c-1.74-.29-3.08-2.07-3.08-4.23,0-2.4,.4-4.49,1.06-5.98-.1-.09-.17-.22-.17-.37v-4.86c0-.28,.22-.5,.5-.5h4.86c.28,0,.5,.22,.5,.5v4.86c0,.28-.22,.5-.5,.5h-.11c.63,1.47,1,3.52,1,5.84,0,2.16-1.34,3.93-3.08,4.23v4.54h5.26V12.55H1.63V47.65Z" fill="none"/><rect x="18.76" y="35.91" width="5.49" height="11.73" fill="none"/><path d="M8.95,32.03h.12v-3.86h-3.86v3.36c.5-.58,1.07-.91,1.68-.91,.78,0,1.48,.52,2.06,1.42Z" fill="none"/><path d="M6.89,42.16c1.42,0,2.58-1.47,2.58-3.29,0-4.28-1.36-7.26-2.58-7.26s-2.58,2.98-2.58,7.26c0,1.81,1.16,3.29,2.58,3.29Z" fill="none"/><path d="M36.85,44.12s.05,0,.08,0c.02,0,.04,0,.06,0,.71-1.17,2-1.91,3.39-1.91,1.5,0,2.83,.82,3.51,2.11,.13-.02,.25-.03,.37-.03,1.6,0,2.89,1.28,2.89,2.85,0,.17-.03,.34-.06,.5h.78V12.55h-11.02v31.57Z" fill="none"/><path d="M35.85,12.05V1.85H13.65V47.65h4.11v-12.23c0-.28,.22-.5,.5-.5h12.97c.28,0,.5,.22,.5,.5v12.23h2.28c-.04-.2-.07-.39-.07-.59,0-1.25,.79-2.31,1.91-2.73V12.05Z" fill="none"/><path d="M44.26,45.29c-.16,0-.32,.03-.52,.08-.25,.08-.51-.06-.6-.3-.44-1.14-1.52-1.87-2.75-1.87-1.15,0-2.17,.64-2.66,1.66-.09,.19-.31,.3-.52,.28-.12-.02-.19-.03-.28-.03-1.09,0-1.98,.87-1.98,1.94,0,.2,.03,.4,.1,.59h11.03c.05-.17,.08-.33,.08-.5,0-1.02-.85-1.85-1.89-1.85Z" fill="none"/><path d="M48.37,11.55h-11.52V1.35c0-.28-.22-.5-.5-.5H13.15c-.28,0-.5,.22-.5,.5V11.55H1.13c-.28,0-.5,.22-.5,.5V48.15c0,.28,.22,.5,.5,.5H48.37c.28,0,.5-.22,.5-.5V12.05c0-.28-.22-.5-.5-.5ZM6.89,31.61c1.22,0,2.58,2.98,2.58,7.26,0,1.81-1.16,3.29-2.58,3.29s-2.58-1.47-2.58-3.29c0-4.28,1.36-7.26,2.58-7.26Zm-1.68-.09v-3.36h3.86v3.86h-.12c-.57-.9-1.28-1.42-2.06-1.42-.62,0-1.19,.33-1.68,.91Zm7.44,16.12H7.39v-4.54c1.74-.29,3.08-2.07,3.08-4.23,0-2.33-.38-4.37-1-5.84h.11c.28,0,.5-.22,.5-.5v-4.86c0-.28-.22-.5-.5-.5H4.71c-.28,0-.5,.22-.5,.5v4.86c0,.15,.07,.28,.17,.37-.66,1.48-1.06,3.58-1.06,5.98,0,2.16,1.34,3.93,3.08,4.23v4.54H1.63V12.55H12.65V47.65Zm11.6,0h-5.49v-11.73h5.49v11.73Zm6.49,0h-5.49v-11.73h5.49v11.73Zm3.2-.59c0,.2,.03,.4,.07,.59h-2.28v-12.23c0-.28-.22-.5-.5-.5h-12.97c-.28,0-.5,.22-.5,.5v12.23h-4.11V1.85h22.19V44.32c-1.11,.43-1.91,1.49-1.91,2.73Zm12.13,.59h-11.03c-.07-.2-.1-.39-.1-.59,0-1.07,.89-1.94,1.98-1.94,.08,0,.16,.01,.28,.03,.21,.02,.42-.08,.52-.28,.5-1.02,1.52-1.66,2.66-1.66,1.23,0,2.31,.73,2.75,1.87,.09,.24,.35,.38,.6,.3,.2-.06,.36-.08,.52-.08,1.04,0,1.89,.83,1.89,1.85,0,.17-.03,.34-.08,.5Zm1.8,0h-.78c.03-.17,.06-.33,.06-.5,0-1.57-1.3-2.85-2.89-2.85-.12,0-.24,0-.37,.03-.67-1.3-2.01-2.11-3.51-2.11-1.39,0-2.68,.74-3.39,1.91-.02,0-.04,0-.06,0-.03,0-.05,0-.08,0V12.55h11.02V47.65Z" fill="#FFFFFF"/></g></g></g><g id="uuid-9fb252f6-9b30-483f-aa89-56f377f948ea"><text transform="translate(-.03 54.92)" font-family="Roboto-Regular, Roboto" font-size="6"><tspan x="0" y="0">cityscape-t</tspan><tspan x="29.05" y="0" letter-spacing="0em">r</tspan><tspan x="31.03" y="0">ee</tspan></text></g></svg>