<?xml version="1.0" encoding="UTF-8"?><svg id="uuid-b438e696-7359-4ca6-8044-423558db6a84" xmlns="http://www.w3.org/2000/svg" viewBox="0 0 50 50"><path d="M39.86,23.03c-1.25,0-2.49,.28-3.62,.82-1.76-5.84-7.14-9.87-13.3-9.87-6.63,0-12.41,4.8-13.66,11.26-.37-.05-.74-.08-1.12-.08-4.17,0-7.56,3.39-7.56,7.56,0,1.02,.2,2.02,.6,2.95,.08,.19,.27,.31,.47,.31l45.06,.04h0c.18,0,.35-.1,.44-.25,.76-1.29,1.16-2.77,1.16-4.27,0-4.67-3.8-8.47-8.47-8.47Zm6.57,11.97l-44.41-.04c-.26-.72-.4-1.47-.4-2.24,0-3.6,2.93-6.53,6.53-6.53,.49,0,.97,.05,1.43,.15,.14,.03,.28,0,.4-.08s.2-.21,.22-.35c.95-6.22,6.43-10.91,12.73-10.91,5.91,0,11.04,3.99,12.48,9.71,.04,.16,.15,.28,.3,.35,.15,.06,.32,.05,.46-.03,1.12-.64,2.4-.98,3.7-.98,4.1,0,7.44,3.34,7.44,7.44,0,1.22-.3,2.43-.87,3.5Z"/></svg>