<?xml version="1.0" encoding="UTF-8"?><svg xmlns="http://www.w3.org/2000/svg" viewBox="0 0 50 50"><g id="uuid-cfe6a2ff-8091-4829-93da-65e70ec7d220"><path d="M37.38,46.97c-.24-.74-.76-1.34-1.46-1.69-.58-.29-1.21-.37-1.84-.25l-4.75-14.43,2.69-7.92s0-.04,0-.06c0-.03,.01-.06,.01-.1,0-.04,0-.07-.01-.1,0-.02,0-.04,0-.06L26.12,4.39l.53-.18c.45-.15,.81-.46,1.02-.88s.25-.89,.1-1.34c-.3-.92-1.29-1.43-2.21-1.12l-11.76,3.87c-.44,.15-.81,.46-1.02,.88-.21,.42-.25,.89-.1,1.34s.46,.81,.88,1.02c.25,.13,.52,.19,.79,.19,.18,0,.37-.03,.55-.09l.53-.18,5.91,17.97s.01,.02,.02,.03c.03,.08,.08,.16,.16,.22h.01l6.86,4.78,4.75,14.44c-.57,.28-1.04,.72-1.33,1.3-.35,.7-.41,1.49-.17,2.22,.07,.21,.26,.34,.47,.34,.05,0,.1,0,.16-.03l4.79-1.58c.26-.09,.41-.37,.32-.63Zm-15.15-21.56l-3.17-9.65,8.8-2.89,3.17,9.64-2.48,7.29-6.32-4.39ZM14,7.1c-.18-.09-.31-.25-.38-.44-.06-.19-.05-.4,.04-.58s.25-.31,.44-.38L25.87,1.84c.08-.03,.16-.04,.24-.04,.12,0,.23,.03,.34,.08,.18,.09,.31,.25,.38,.44,.06,.19,.05,.4-.04,.57-.09,.18-.25,.31-.44,.38l-11.76,3.87c-.19,.06-.4,.05-.58-.04Zm11.17-2.39l2.37,7.21-8.8,2.89-2.37-7.21,8.8-2.89Zm7.33,43.35c-.02-.33,.05-.66,.2-.97,.23-.46,.62-.8,1.11-.96l.2-.07c.2-.06,.4-.1,.6-.1,.3,0,.59,.07,.86,.21,.3,.15,.56,.38,.74,.66l-3.72,1.22Z"/></g><g id="uuid-bdfbc21e-efba-40ef-b8ca-20c5965230ad"><text transform="translate(-.37 54.96)" font-family="Roboto-Regular, Roboto" font-size="6"><tspan x="0" y="0">crutch</tspan></text></g></svg>