<?xml version="1.0" encoding="UTF-8"?><svg xmlns="http://www.w3.org/2000/svg" viewBox="0 0 50 50"><g id="uuid-43e2f32c-526e-4363-9204-964a8bab80d3"><path d="M44.33,16.6c.15,0,.3-.07,.39-.19l4.43-5.63c.14-.18,.14-.44,0-.62l-4.43-5.63c-.09-.12-.24-.19-.39-.19h-14.11V1.57c0-.28-.22-.5-.5-.5h-9.79c-.28,0-.5,.22-.5,.5v2.77H4.31c-.28,0-.5,.22-.5,.5v11.26c0,.13,.05,.26,.15,.35s.22,.15,.35,.15h15.11v4.37H5.31c-.15,0-.3,.07-.39,.19L.48,26.79c-.14,.18-.14,.44,0,.62l4.43,5.63c.1,.12,.24,.19,.39,.19h14.11v15.2c0,.28,.22,.5,.5,.5h9.79c.28,0,.5-.22,.5-.5v-15.2h15.14c.28,0,.5-.22,.5-.5v-11.26c0-.13-.05-.26-.15-.35s-.22-.15-.35-.15h-15.14v-4.37h14.11ZM4.81,5.33H44.09l4.04,5.13-4.04,5.13H4.81V5.33Zm15.61-3.27h8.79v2.27h-8.79V2.07Zm24.43,30.16H5.55L1.51,27.1l4.04-5.13H44.86v10.26Zm-15.64,15.7h-8.79v-14.7h8.79v14.7Zm0-26.96h-8.79v-4.37h8.79v4.37Z" fill="#FFCD00"/></g><g id="uuid-92b91e9c-5111-4a84-81b5-cbe59bf9d7cb"><text transform="translate(-.16 55.05)" font-family="Roboto-Regular, Roboto" font-size="6"><tspan x="0" y="0">di</tspan><tspan x="4.84" y="0" letter-spacing="0em">r</tspan><tspan x="6.81" y="0">ectional-sign</tspan></text></g></svg>