<?xml version="1.0" encoding="UTF-8"?><svg xmlns="http://www.w3.org/2000/svg" viewBox="0 0 50 50"><g id="uuid-109ed11f-c082-4ec0-adc2-3cfbc9a0577d"><path d="M26.57,20.11h0c-5.37-1.56-6.73-2.26-6.73-4.58,0-2.98,2.42-3.6,4.44-3.6,1.62,0,2.83,.36,3.67,1.11,1.26,1.11,1.5,2.62,1.54,3.22,.02,.26,.24,.46,.5,.46h7.39c.14,0,.27-.06,.37-.16,.09-.1,.14-.24,.13-.38-.44-6.19-4.29-10.01-10.86-10.81V.94c0-.28-.22-.5-.5-.5h-3.81c-.28,0-.5,.22-.5,.5V5.33c-6.73,.75-10.89,4.91-10.89,10.93s3.32,8.9,11.85,11.26c5.43,1.54,7.01,2.84,7.01,5.77,0,1.69-.54,3.94-5.18,3.94-3.45,0-5.63-1.82-6.16-5.12-.04-.24-.25-.42-.49-.42h-7.44c-.14,0-.27,.06-.36,.16-.09,.1-.14,.24-.13,.37,.41,6.65,4.7,10.88,11.8,11.67v4.41c0,.28,.22,.5,.5,.5h3.81c.28,0,.5-.22,.5-.5v-4.41c7.4-.73,11.8-5,11.8-11.49s-3.55-9.76-12.27-12.3Zm-.08,22.84c-.26,.02-.46,.24-.46,.5v4.37h-2.81v-4.36c0-.26-.2-.48-.46-.5-6.63-.59-10.73-4.32-11.31-10.25h6.48c.72,3.53,3.28,5.54,7.07,5.54,5.11,0,6.18-2.69,6.18-4.94,0-3.83-2.6-5.27-7.74-6.73-8.1-2.25-11.12-5.04-11.12-10.3,0-5.59,4-9.42,10.43-9.98,.26-.02,.46-.24,.46-.5V1.44h2.81V5.82c0,.26,.19,.47,.45,.5,7.73,.76,9.93,5.41,10.36,9.4h-6.4c-.14-.87-.55-2.31-1.82-3.43-1.04-.92-2.46-1.36-4.34-1.36-3.46,0-5.44,1.68-5.44,4.6,0,3.23,2.42,4.08,7.45,5.54h0c9.58,2.8,11.55,6.56,11.55,11.34,0,6.13-4.13,9.98-11.34,10.54Z" fill="#FFCD00"/></g><g id="uuid-52784e6a-aee4-4976-ae56-85237a9c07b9"><text transform="translate(.25 55.09)" font-family="Roboto-Regular, Roboto" font-size="6"><tspan x="0" y="0">dollar-sign</tspan></text></g></svg>