<?xml version="1.0" encoding="UTF-8"?><svg id="uuid-5d281791-1bc4-4058-8fd8-3cd32b4ed3ea" xmlns="http://www.w3.org/2000/svg" viewBox="0 0 50 50"><path d="M37.57,3.67h-6.93V1.17c0-.15-.06-.29-.18-.38-.11-.1-.26-.13-.41-.11L12.35,3.67c-.24,.04-.42,.25-.42,.49V45.43c0,.24,.18,.45,.42,.49l17.71,3s.06,0,.08,0c.12,0,.23-.04,.32-.12,.11-.09,.18-.23,.18-.38v-2.5h6.93c.28,0,.5-.22,.5-.5V4.17c0-.28-.22-.5-.5-.5Zm-7.93,44.17l-16.71-2.83V4.59L29.64,1.76V47.83Zm7.43-2.91h-6.43V4.67h6.43V44.93Z" fill="#FFCD00"/><path d="M26.87,28.3c.68,0,1.17-.78,1.17-1.85s-.49-1.85-1.17-1.85-1.17,.78-1.17,1.85,.49,1.85,1.17,1.85Z" fill="#FFCD00"/></svg>