<?xml version="1.0" encoding="UTF-8"?><svg id="uuid-61df6452-e76c-4ed7-a01d-a0f60d91acfd" xmlns="http://www.w3.org/2000/svg" viewBox="0 0 50 50"><path d="M43.44,36.5h-5.44c-.28,0-.5,.22-.5,.5v4.32H11.74v-4.32c0-.28-.22-.5-.5-.5H5.81c-.28,0-.5,.22-.5,.5v9.64c0,.28,.22,.5,.5,.5H43.44c.28,0,.5-.22,.5-.5v-9.64c0-.28-.22-.5-.5-.5Zm-.5,9.64H6.31v-8.64h4.44v4.32c0,.28,.22,.5,.5,.5h26.76c.28,0,.5-.22,.5-.5v-4.32h4.44v8.64Z"/><path d="M22.42,36.7c.52,.52,1.21,.81,1.93,.81h.04c.74-.02,1.46-.27,1.99-.81l11.09-11.09c.19-.19,.2-.51,0-.71l-3.87-3.9c-.09-.09-.22-.15-.35-.15h0c-.13,0-.26,.05-.35,.15l-5.25,5.25V2.6c0-.28-.22-.5-.5-.5h-5.5c-.28,0-.5,.22-.5,.5V26.24l-4.81-4.81c-.09-.09-.22-.15-.35-.15h0c-.13,0-.26,.05-.35,.15l-3.87,3.9c-.19,.2-.19,.51,0,.71l10.65,10.65Zm-6.42-14.2l5.3,5.3c.14,.14,.36,.19,.54,.11,.19-.08,.31-.26,.31-.46V3.1h4.5V27.45c0,.2,.12,.38,.31,.46,.19,.08,.4,.03,.54-.11l5.74-5.74,3.17,3.19-10.74,10.74c-.34,.34-.79,.5-1.29,.51-.48,0-.93-.17-1.27-.51l-10.3-10.3,3.17-3.19Z"/></svg>