<?xml version="1.0" encoding="UTF-8"?><svg xmlns="http://www.w3.org/2000/svg" viewBox="0 0 50 50"><g id="uuid-23f0c55c-87ad-4d13-a391-f84e693f8628"><path d="M44.88,19.65h-10.52l-3.26,.02-13.98,.07c.89-1.96-.32-4.66-3.23-6.98-2.92-2.32-6.51-2.67-8.28-.9l-.43-.39c-.58-.51-1.32-.75-2.1-.7-.77,.05-1.48,.4-1.98,.98-.51,.58-.76,1.32-.7,2.1,.05,.77,.4,1.48,.96,1.97l8.71,8.34H4.53c-1.92,0-3.48,1.56-3.48,3.48s1.56,3.48,3.48,3.48h3.91v7.69c0,.28,.22,.5,.5,.5s.5-.22,.5-.5v-7.7l33.28-.03,.02,7.71c0,.28,.22,.5,.5,.5h0c.28,0,.5-.23,.5-.5l-.02-7.71h1.16c1.94,0,3.53-1.58,3.53-3.53v-4.35c0-1.94-1.58-3.53-3.53-3.53ZM13.27,13.54c2.31,1.84,4.02,4.46,2.7,6.21h-1.65l-7.96-7.22c1.42-1.38,4.42-.97,6.92,1.02Zm34.14,13.99c0,1.39-1.13,2.53-2.53,2.53l-40.35,.04c-1.37,0-2.48-1.11-2.48-2.48s1.11-2.48,2.48-2.48h6.78s.01,0,.02,0h31.97c.28,0,.5-.22,.5-.5s-.22-.5-.5-.5H11.51L2.04,15.07c-.38-.33-.61-.79-.64-1.3-.03-.51,.13-.99,.46-1.37,.33-.38,.79-.61,1.3-.64,.5-.04,.99,.13,1.36,.45l9.27,8.42c.09,.08,.21,.13,.34,.13h0l16.98-.09,13.77-.02c1.39,0,2.53,1.13,2.53,2.53v4.35Z" fill="#FFFFFF"/></g><g id="uuid-39f172b5-11da-41c1-ae03-9ce44958bfb9"><text transform="translate(.44 55.09)" font-family="Roboto-Regular, Roboto" font-size="6"><tspan x="0" y="0">exam-bed-table</tspan></text></g></svg>