<?xml version="1.0" encoding="UTF-8"?><svg xmlns="http://www.w3.org/2000/svg" viewBox="0 0 50 50"><g id="uuid-44abe385-7823-4c3b-a7ee-5d7bd9194dbb"><g><path d="M30.26,10.54c-.1,0-.16,.04-.18,.06,.07-.03,.13-.05,.18-.06Z" fill="none"/><path d="M22.2,10.54s.11,.03,.18,.06c-.02-.02-.07-.06-.18-.06Z" fill="none"/><path d="M38.09,10.2c-.44-1.37-1.53-2.46-3.07-3.08-1.55-.63-3.38-.69-4.75-.2,.04-1.46-.58-3.18-1.66-4.46-1.07-1.27-2.44-1.97-3.88-1.97s-2.81,.7-3.88,1.97c-1.08,1.28-1.7,3-1.66,4.46-1.37-.49-3.2-.43-4.75,.2-1.54,.62-2.63,1.71-3.07,3.08-.44,1.36-.2,2.89,.68,4.29,.89,1.42,2.33,2.54,3.73,2.95-.89,1.16-1.4,2.91-1.28,4.58,.11,1.65,.82,3.03,1.98,3.87,.8,.58,1.76,.87,2.81,.87,.48,0,.98-.06,1.48-.19,1.35-.34,2.61-1.1,3.48-2.03v24.45c0,.28,.22,.5,.5,.5s.5-.22,.5-.5v-9.27c.69,.85,1.63,1.38,2.34,1.51,.14,.03,.29,.04,.44,.04,2.27,0,5.01-3.1,6.8-7.8,.06-.15,.04-.32-.05-.45-.09-.13-.23-.22-.39-.23-4.15-.22-7.54,.58-9.13,2.03v-10.26c.86,.92,2.12,1.68,3.45,2.01,.51,.13,1,.19,1.49,.19,1.05,0,2.01-.3,2.81-.88,1.16-.84,1.86-2.22,1.98-3.87,.12-1.67-.39-3.43-1.28-4.58,1.4-.41,2.84-1.54,3.73-2.95,.88-1.41,1.12-2.93,.67-4.29Zm-12.79,26.31c.33-1.41,3.27-2.73,7.75-2.73,.19,0,.37,0,.57,0-1.83,4.41-4.37,6.75-5.86,6.48-.47-.09-1.38-.53-1.95-1.39-.58-.88-.62-1.89-.51-2.36ZM21.62,3.11c.87-1.04,1.98-1.61,3.11-1.61s2.24,.57,3.11,1.61c1.04,1.24,1.6,2.99,1.38,4.26-.01,.08-.08,.21-.18,.39-.42,.47-1.01,1.25-1.93,2.48-.71-.39-1.51-.64-2.38-.64s-1.67,.24-2.38,.64c-.94-1.25-1.53-2.03-1.94-2.49-.1-.17-.16-.31-.18-.38-.23-1.27,.34-3.03,1.38-4.26ZM12.9,13.96c-.72-1.15-.92-2.38-.57-3.46s1.24-1.95,2.5-2.46c.74-.3,1.57-.45,2.36-.45s1.54,.15,2.12,.46c.27,.14,1.12,1.26,2.24,2.75-1.06,.91-1.74,2.23-1.74,3.73,0,.32,.04,.63,.09,.94-1.45,.49-2.36,.81-2.92,1.06-.2,.04-.36,.07-.44,.06-1.28-.18-2.77-1.26-3.63-2.63Zm11.25,9.02c-.57,1.16-2.05,2.25-3.62,2.64-1.31,.33-2.55,.14-3.46-.52-.92-.67-1.48-1.78-1.57-3.13-.11-1.61,.46-3.36,1.39-4.26,.22-.21,1.54-.68,3.29-1.27,.67,1.6,2.17,2.76,3.95,2.98,.02,1.54,.04,2.52,.1,3.14-.02,.2-.05,.35-.08,.42Zm.58-4.5c-2.17,0-3.94-1.77-3.94-3.94s1.77-3.94,3.94-3.94,3.94,1.77,3.94,3.94-1.77,3.94-3.94,3.94Zm9.24,3.48c-.09,1.35-.65,2.46-1.57,3.13-.92,.67-2.15,.86-3.47,.52-1.56-.39-3.05-1.48-3.62-2.64-.13-.28-.17-1.68-.19-3.54,1.8-.15,3.33-1.25,4.07-2.81,1.47,.46,2.39,.73,3,.87,.19,.08,.33,.16,.38,.21,.93,.9,1.5,2.65,1.39,4.26Zm2.6-8c-.86,1.37-2.35,2.45-3.63,2.63-.3,.04-1.65-.36-3.42-.91,.09-.37,.15-.75,.15-1.14,0-1.5-.68-2.83-1.74-3.73,1.11-1.49,1.96-2.61,2.24-2.75,.57-.31,1.32-.46,2.12-.46s1.62,.15,2.36,.45c1.26,.51,2.14,1.38,2.49,2.46,.35,1.08,.15,2.31-.57,3.46Z" fill="#FFFFFF"/></g></g><g id="uuid-c00bf758-a565-452f-a229-a3456f6f7604"><text transform="translate(0 55.05)" font-family="Roboto-Regular, Roboto" font-size="6"><tspan x="0" y="0">flower-one</tspan></text></g></svg>