<?xml version="1.0" encoding="UTF-8"?><svg xmlns="http://www.w3.org/2000/svg" viewBox="0 0 50 50"><g id="uuid-6572cdb3-cd6e-4ff0-a12e-689d81552ad0"><path d="M47.74,10.79L39.21,2.26c-1.31-1.31-3.43-1.31-4.74,0L2.26,34.47c-1.31,1.31-1.31,3.43,0,4.74l8.53,8.53c.63,.63,1.47,.98,2.37,.98,.89,0,1.74-.35,2.37-.98,.2-.2,.2-.51,0-.71l-7.23-7.23,2.55-2.55,6.93,6.93c.1,.1,.23,.15,.35,.15s.26-.05,.35-.15c.2-.2,.2-.51,0-.71l-6.93-6.93,2.48-2.48,6.93,6.93c.1,.1,.23,.15,.35,.15s.26-.05,.35-.15c.2-.2,.2-.51,0-.71l-6.93-6.93,2.48-2.48,6.93,6.93c.1,.1,.23,.15,.35,.15s.26-.05,.35-.15c.2-.2,.2-.51,0-.71l-6.93-6.93,2.48-2.48,6.93,6.93c.1,.1,.23,.15,.35,.15s.26-.05,.35-.15c.2-.2,.2-.51,0-.71l-6.93-6.93,2.48-2.48,6.93,6.93c.1,.1,.23,.15,.35,.15s.26-.05,.35-.15c.2-.2,.2-.51,0-.71l-6.93-6.93,2.48-2.48,6.93,6.93c.1,.1,.23,.15,.35,.15s.26-.05,.35-.15c.2-.2,.2-.51,0-.71l-6.93-6.93,2.48-2.48,6.93,6.93c.1,.1,.23,.15,.35,.15s.26-.05,.35-.15c.2-.2,.2-.51,0-.71l-6.93-6.93,2.48-2.48,6.93,6.93c.1,.1,.23,.15,.35,.15s.26-.05,.35-.15c.2-.2,.2-.51,0-.71l-6.93-6.93,2.48-2.48,6.93,6.93c.1,.1,.23,.15,.35,.15s.26-.05,.35-.15c.2-.2,.2-.51,0-.71l-6.93-6.93,2.74-2.74,7.23,7.23c.2,.2,.51,.2,.71,0,1.31-1.31,1.31-3.43,0-4.74Zm-7.58-3.55c-.2-.2-.51-.2-.71,0L7.24,39.44c-.2,.2-.2,.51,0,.71l7.19,7.19c-.89,.57-2.16,.45-2.93-.32L2.97,38.5c-.92-.92-.92-2.41,0-3.32L35.18,2.97c.46-.46,1.06-.69,1.66-.69s1.2,.23,1.66,.69l8.53,8.53c.79,.79,.9,2.02,.32,2.93l-7.19-7.19Z"/></g><g id="uuid-fc8db884-4890-490f-863b-c89d2ec30bd3"><text transform="translate(0 55.08)" font-family="Roboto-Regular, Roboto" font-size="6"><tspan x="0" y="0">hair-comb</tspan></text></g></svg>