<?xml version="1.0" encoding="UTF-8"?><svg xmlns="http://www.w3.org/2000/svg" viewBox="0 0 50 50"><g id="uuid-052249b9-4849-43f1-9d1b-ee739759d853"><path d="M24.62,.33C11.23,.33,.33,11.23,.33,24.62s10.9,24.29,24.29,24.29,24.29-10.9,24.29-24.29S38.02,.33,24.62,.33Zm0,47.58C11.78,47.92,1.33,37.47,1.33,24.62S11.78,1.33,24.62,1.33s23.29,10.45,23.29,23.29-10.45,23.29-23.29,23.29Z" fill="#FFCD00"/><path d="M36.77,29.33c-.24-.14-.55-.05-.68,.19-2.33,4.13-6.72,6.7-11.46,6.7s-9.13-2.57-11.46-6.7c-.14-.24-.44-.33-.68-.19-.24,.14-.33,.44-.19,.68,2.51,4.45,7.23,7.21,12.33,7.21s9.83-2.76,12.33-7.21c.14-.24,.05-.55-.19-.68Z" fill="#FFCD00"/><ellipse cx="31.4" cy="17.5" rx="1.59" ry="1.65" fill="#FFCD00"/><ellipse cx="17.85" cy="17.5" rx="1.59" ry="1.65" fill="#FFCD00"/></g><g id="uuid-0782a35c-f672-41e6-b77c-d99852336dc3"><text transform="translate(.17 54.98)" font-family="Roboto-Regular, Roboto" font-size="6"><tspan x="0" y="0">hap</tspan><tspan x="9.93" y="0" letter-spacing="0em">p</tspan><tspan x="13.27" y="0">y</tspan></text></g></svg>