<?xml version="1.0" encoding="UTF-8"?><svg xmlns="http://www.w3.org/2000/svg" viewBox="0 0 50 50"><g id="uuid-2a9b9e31-4583-4682-9e95-8a0b61328608"><g><rect x="17.9" y="27.11" width="4.54" height="4.54" fill="none"/><rect x="4.94" y="37.36" width="3.9" height="3.9" fill="none"/><rect x="17.8" y="18.15" width="4.54" height="4.54" fill="none"/><rect x="18.61" y="36.07" width="5.54" height="11.84" fill="none"/><rect x="4.94" y="19.17" width="3.9" height="3.9" fill="none"/><rect x="26.75" y="18.15" width="4.54" height="4.54" fill="none"/><rect x="40.45" y="28.26" width="3.9" height="3.9" fill="none"/><rect x="40.45" y="19.17" width="3.9" height="3.9" fill="none"/><rect x="26.85" y="27.11" width="4.54" height="4.54" fill="none"/><rect x="4.94" y="28.26" width="3.9" height="3.9" fill="none"/><rect x="40.45" y="37.36" width="3.9" height="3.9" fill="none"/><g><path d="M48.47,11.52h-11.62V1.23c0-.28-.22-.5-.5-.5H12.96c-.28,0-.5,.22-.5,.5V11.52H.83c-.28,0-.5,.22-.5,.5V48.41c0,.28,.22,.5,.5,.5H18.11c-.28,0-.5-.22-.5-.5v-.5h-4.15V1.73h22.39V47.91h-4.15v.5c0,.28-.22,.5-.5,.5h17.28c.28,0,.5-.22,.5-.5V12.02c0-.28-.22-.5-.5-.5Zm-.5,36.4h-11.12V12.52h11.12V47.91ZM1.33,12.52H12.46V47.91H1.33V12.52Z" fill="#FFCD00"/><polygon points="23.92 11.95 25.95 11.95 25.95 10.44 27.46 10.44 27.46 8.41 25.95 8.41 25.95 6.9 23.92 6.9 23.92 8.41 22.41 8.41 22.41 10.44 23.92 10.44 23.92 11.95" fill="#FFCD00"/><path d="M24.93,14.97c3.06,0,5.54-2.49,5.54-5.54s-2.49-5.54-5.54-5.54-5.54,2.49-5.54,5.54,2.49,5.54,5.54,5.54Zm0-10.09c2.5,0,4.54,2.04,4.54,4.54s-2.04,4.54-4.54,4.54-4.54-2.04-4.54-4.54,2.04-4.54,4.54-4.54Z" fill="#FFCD00"/><path d="M9.35,18.17H4.44c-.28,0-.5,.22-.5,.5v4.9c0,.28,.22,.5,.5,.5h4.9c.28,0,.5-.22,.5-.5v-4.9c0-.28-.22-.5-.5-.5Zm-.5,4.9h-3.9v-3.9h3.9v3.9Z" fill="#FFCD00"/><path d="M9.35,27.26H4.44c-.28,0-.5,.22-.5,.5v4.9c0,.28,.22,.5,.5,.5h4.9c.28,0,.5-.22,.5-.5v-4.9c0-.28-.22-.5-.5-.5Zm-.5,4.9h-3.9v-3.9h3.9v3.9Z" fill="#FFCD00"/><path d="M9.35,36.36H4.44c-.28,0-.5,.22-.5,.5v4.9c0,.28,.22,.5,.5,.5h4.9c.28,0,.5-.22,.5-.5v-4.9c0-.28-.22-.5-.5-.5Zm-.5,4.9h-3.9v-3.9h3.9v3.9Z" fill="#FFCD00"/><path d="M44.86,18.17h-4.9c-.28,0-.5,.22-.5,.5v4.9c0,.28,.22,.5,.5,.5h4.9c.28,0,.5-.22,.5-.5v-4.9c0-.28-.22-.5-.5-.5Zm-.5,4.9h-3.9v-3.9h3.9v3.9Z" fill="#FFCD00"/><path d="M44.86,27.26h-4.9c-.28,0-.5,.22-.5,.5v4.9c0,.28,.22,.5,.5,.5h4.9c.28,0,.5-.22,.5-.5v-4.9c0-.28-.22-.5-.5-.5Zm-.5,4.9h-3.9v-3.9h3.9v3.9Z" fill="#FFCD00"/><path d="M44.86,36.36h-4.9c-.28,0-.5,.22-.5,.5v4.9c0,.28,.22,.5,.5,.5h4.9c.28,0,.5-.22,.5-.5v-4.9c0-.28-.22-.5-.5-.5Zm-.5,4.9h-3.9v-3.9h3.9v3.9Z" fill="#FFCD00"/><path d="M31.19,35.07h-13.08c-.28,0-.5,.22-.5,.5v12.84c0,.28,.22,.5,.5,.5h13.08c.28,0,.5-.22,.5-.5v-12.84c0-.28-.22-.5-.5-.5Zm-7.04,12.84h-5.54v-11.84h5.54v11.84Zm6.54,0h-5.54v-11.84h5.54v11.84Z" fill="#FFCD00"/><path d="M17.3,23.69h5.54c.28,0,.5-.22,.5-.5v-5.54c0-.28-.22-.5-.5-.5h-5.54c-.28,0-.5,.22-.5,.5v5.54c0,.28,.22,.5,.5,.5Zm.5-5.54h4.54v4.54h-4.54v-4.54Z" fill="#FFCD00"/><path d="M26.25,23.69h5.54c.28,0,.5-.22,.5-.5v-5.54c0-.28-.22-.5-.5-.5h-5.54c-.28,0-.5,.22-.5,.5v5.54c0,.28,.22,.5,.5,.5Zm.5-5.54h4.54v4.54h-4.54v-4.54Z" fill="#FFCD00"/><path d="M23.45,32.16v-5.54c0-.28-.22-.5-.5-.5h-5.54c-.28,0-.5,.22-.5,.5v5.54c0,.28,.22,.5,.5,.5h5.54c.28,0,.5-.22,.5-.5Zm-1-.5h-4.54v-4.54h4.54v4.54Z" fill="#FFCD00"/><path d="M31.9,26.11h-5.54c-.28,0-.5,.22-.5,.5v5.54c0,.28,.22,.5,.5,.5h5.54c.28,0,.5-.22,.5-.5v-5.54c0-.28-.22-.5-.5-.5Zm-.5,5.54h-4.54v-4.54h4.54v4.54Z" fill="#FFCD00"/></g></g></g><g id="uuid-4ba5a1ab-8fd1-4227-a62a-228b7eb886b8"><text transform="translate(.22 54.92)" font-family="Roboto-Regular, Roboto" font-size="6"><tspan x="0" y="0">hospital</tspan></text></g></svg>