<?xml version="1.0" encoding="UTF-8"?><svg id="uuid-042f9178-f1b4-45b2-ae14-021dc3c68464" xmlns="http://www.w3.org/2000/svg" viewBox="0 0 50 50"><rect x="20.17" y="48.82" width=".5" height=".5"/><polygon points="21.38 36.32 17.56 36.32 17.56 36.99 21.96 36.99 21.96 31.66 21.38 31.66 21.38 36.32" fill="none"/><polygon points="21.38 29.99 17.56 29.99 17.56 30.66 21.96 30.66 21.96 25.32 21.38 25.32 21.38 29.99" fill="none"/><polygon points="15.98 36.32 12.16 36.32 12.16 36.99 16.56 36.99 16.56 31.66 15.98 31.66 15.98 36.32" fill="none"/><path d="M29.83,36.03h-1.72v.67s.04-.01,.05-.01h2.13c.02-.05,.03-.11,.03-.16,0-.28-.22-.5-.5-.5Z" fill="none"/><polygon points="38.42 47.68 28.11 47.68 28.11 48.34 39 48.34 39 25.32 38.42 25.32 38.42 47.68" fill="none"/><path d="M15.98,29.99h-3.82v.66h4.4v-5.27s0-.04,.01-.06h-.59v4.67Z" fill="none"/><path d="M48.64,19.11L25.31,.79c-.18-.14-.44-.14-.62,0l-8.06,6.33V2.51c0-.28-.22-.5-.5-.5h-5.03c-.28,0-.5,.22-.5,.5V11.85L1.36,19.11c-.17,.13-.23,.36-.16,.56,.07,.2,.26,.34,.47,.34H6.9v28.18c0,.28,.22,.5,.5,.5H42.6c.28,0,.5-.22,.5-.5V20h5.22c.21,0,.4-.13,.47-.34,.07-.2,0-.42-.16-.56ZM11.6,3.01h4.03V7.9l-4.03,3.17V3.01Zm26.82,44.67h-10.89v-10.66s.04,.01,.05,.01h2.25c.28,0,.5-.22,.5-.5s-.22-.5-.5-.5h-2.25s-.04,0-.05,.01v-11.38h10.89v23.02Zm3.68,0h-2.68V24.16c0-.28-.22-.5-.5-.5h-11.89c-.28,0-.5,.22-.5,.5v23.52H7.9V20H42.1v27.68ZM3.12,19L25,1.81l21.88,17.19H3.12Z"/><path d="M11.08,37.32h10.8c.28,0,.5-.22,.5-.5v-12.66c0-.28-.22-.5-.5-.5H11.08c-.28,0-.5,.22-.5,.5v12.66c0,.28,.22,.5,.5,.5Zm10.3-1h-4.4v-5.33h4.4v5.33Zm0-11.66v5.33h-4.4v-5.27s0-.04-.01-.06h4.41Zm-9.8,0h4.41s-.01,.04-.01,.06v5.27h-4.4v-5.33Zm0,6.33h4.4v5.33h-4.4v-5.33Z"/></svg>