<?xml version="1.0" encoding="UTF-8"?><svg xmlns="http://www.w3.org/2000/svg" viewBox="0 0 50 50"><g id="uuid-d151c2f4-4477-451d-845f-047baf77078e"><path d="M44.16,36.16c-.28,0-.5,.22-.5,.5s.22,.5,.5,.5c1.6,0,2.9,1.3,2.9,2.9s-1.3,2.9-2.9,2.9h-12.71v-5.79h9.71c.28,0,.5-.22,.5-.5v-3c0-6.74-5.48-12.22-12.22-12.22h-5.5V10.72h1.06c.28,0,.5-.22,.5-.5v-3.67c0-.28-.22-.5-.5-.5H6.58c-.28,0-.5,.22-.5,.5v3.67c0,.28,.22,.5,.5,.5h1.07v25.94c0,.28,.22,.5,.5,.5h5.88v5.79H2.44c-.28,0-.5,.22-.5,.5s.22,.5,.5,.5H44.16c2.15,0,3.9-1.75,3.9-3.9s-1.75-3.9-3.9-3.9Zm-18.44-13.72v2.38c0,.28,.22,.5,.5,.5s.5-.22,.5-.5v-2.38h2.72c.26,0,.51,.02,.76,.04v2.35c0,.28,.22,.5,.5,.5s.5-.22,.5-.5v-2.23c5.19,.83,9.21,5.21,9.45,10.57H8.66V10.72h14.28v3.28h-2.26c-.28,0-.5,.22-.5,.5s.22,.5,.5,.5h2.26v3.05h-2.26c-.28,0-.5,.22-.5,.5s.22,.5,.5,.5h2.26v2.63l-1.83,1.83c-.2,.2-.2,.51,0,.71,.1,.1,.23,.15,.35,.15s.26-.05,.35-.15l1.77-1.77h2.13ZM7.08,9.72v-2.67H24.5v2.67H7.08Zm1.57,26.44v-2H40.66v2H8.66Zm21.8,6.79H15.03v-5.79h15.42v5.79Z" fill="#FFFFFF"/></g><g id="uuid-9f574948-b7fd-4dcd-96fd-33c0b641adb5"><text transform="translate(1.03 55.01)" font-family="Roboto-Regular, Roboto" font-size="6"><tspan x="0" y="0">ice-skate</tspan></text></g></svg>