<?xml version="1.0" encoding="UTF-8"?><svg xmlns="http://www.w3.org/2000/svg" viewBox="0 0 50 50"><g id="uuid-b1ff6d57-866e-4b48-b736-1efe687312c2"><path d="M40.28,8.44c-.28,0-.5,.22-.5,.5v31.26c0,3.99-3.25,7.24-7.24,7.24h-1.98c-3.99,0-7.24-3.25-7.24-7.24v-.54h4.22c.27,0,.5-.21,.5-.49l.03-4.75h6.02c1.41,0,2.55-1,2.55-2.24V10.08s0-.02,0-.03c0-.01,0-.02,0-.03V4.48c0-1.23-1.15-2.24-2.55-2.24h-7.49c-.32-1.11-1.83-1.92-3.7-1.92s-3.38,.82-3.7,1.92h-7.4c-1.41,0-2.55,1-2.55,2.24v5.51s0,.01,0,.02c0,0,0,.01,0,.02v22.16c0,1.23,1.15,2.24,2.55,2.24h5.65l.04,4.73c0,.27,.22,.5,.5,.5h4.35v.55c0,4.54,3.7,8.24,8.24,8.24h1.98c4.54,0,8.24-3.7,8.24-8.24V8.94c0-.28-.22-.5-.5-.5ZM22.88,1.32c1.63,0,2.77,.72,2.77,1.36s-1.14,1.36-2.77,1.36-2.77-.72-2.77-1.36,1.14-1.36,2.77-1.36Zm-11.11,1.92h7.45c.39,1.04,1.85,1.8,3.66,1.8s3.27-.76,3.66-1.8h7.54c.84,0,1.55,.57,1.55,1.24v5.1l-25.41-.05V4.48c0-.67,.71-1.24,1.55-1.24Zm6.64,30.68c0-.27-.23-.5-.5-.5h-6.14c-.84,0-1.55-.57-1.55-1.24V10.53l25.41,.05v4.12l-8.04-.03h0c-.28,0-.5,.22-.5,.5,0,.28,.22,.5,.5,.5l8.04,.03v3.21h-8.04c-.28,0-.5,.23-.5,.5s.22,.5,.5,.5h8.04v3.42l-7.98-.03h0c-.28,0-.5,.22-.5,.5,0,.28,.22,.5,.5,.5l7.98,.03v3.21h-7.98c-.28,0-.5,.23-.5,.5s.22,.5,.5,.5h7.98v3.64c0,.67-.71,1.24-1.55,1.24h-6.51c-.27,0-.5,.22-.5,.5l-.03,4.75-8.58-.02-.04-4.73Z" fill="#FFFFFF"/></g><g id="uuid-661810c5-34ad-40c7-b9cb-d3d53c9f99dd"><text transform="translate(.04 54.84)" font-family="Roboto-Regular, Roboto" font-size="6"><tspan x="0" y="0">infusion-bag</tspan></text></g></svg>