<?xml version="1.0" encoding="UTF-8"?><svg xmlns="http://www.w3.org/2000/svg" viewBox="0 0 50 50"><g id="uuid-7049f2b8-b0b8-4f47-bb87-4c780cdb2fc2"><path d="M48.59,41.76v2.14c0,2.23-1.81,4.05-4.04,4.05H26.22c-1.55,0-2.8-1.26-2.8-2.81,0-.73,.28-1.39,.74-1.89H6.36c-1.4,0-2.59-1.09-2.69-2.49l-1.42-18.31c-.93-.35-1.59-1.24-1.59-2.29v-.39c0-1.35,1.1-2.45,2.45-2.45h.86c.17-2.43,1.89-4.55,4.42-5.74-.01-.02-.01-.04-.01-.06,0-5.22,5.04-9.46,11.24-9.46,4.56,0,8.68,2.35,10.4,5.88,.24-.01,.48-.02,.73-.02,6.77,0,12.29,4.18,12.56,9.4h1.42c1.35,0,2.45,1.1,2.45,2.45v.39c0,1.26-.95,2.28-2.17,2.42l-.46,5.91h1.24c1.54,0,2.8,1.26,2.8,2.81,0,.95-.48,1.8-1.21,2.3,.73,.51,1.21,1.36,1.21,2.31,0,1.15-.7,2.14-1.69,2.58,1.02,.73,1.69,1.92,1.69,3.27Zm-1,2.14v-2.14c0-1.68-1.36-3.04-3.04-3.04H26.22c-.99,0-1.8,.81-1.8,1.81,0,.81,.54,1.5,1.29,1.72,.16,.05,.33,.08,.51,.08h15.71l1.03-1.4c.15-.2,.42-.25,.64-.13,.02,.01,.04,.01,.06,.03,.22,.16,.27,.47,.1,.7l-.96,1.3,.96,1.31c.17,.22,.12,.53-.1,.7-.09,.06-.19,.1-.3,.1-.15,0-.3-.07-.4-.21l-1.03-1.4h-15.71c-.99,0-1.8,.81-1.8,1.81s.81,1.81,1.8,1.81h18.33c1.68,0,3.04-1.37,3.04-3.05Zm-1.41-23.74v-.39c0-.8-.65-1.45-1.45-1.45H3.11c-.8,0-1.45,.65-1.45,1.45v.39c0,.8,.65,1.45,1.45,1.45H44.73c.8,0,1.45-.65,1.45-1.45Zm1.41,11.14c0-1-.81-1.81-1.8-1.81H27.46c-.09,0-.17,.02-.25,.03-1.56,.13-2.79,1.42-2.79,3.02v2.13c0,.24,.03,.47,.08,.7,.09,.36,.23,.7,.43,1,.48,.71,1.26,1.2,2.15,1.31,.12,.02,.25,.04,.38,.04h18.33c.99,0,1.8-.81,1.8-1.81s-.81-1.81-1.8-1.81h-15.71l-.93,1.27-.1,.13c-.1,.14-.25,.21-.4,.21-.11,0-.21-.03-.3-.1-.09-.06-.14-.15-.17-.24-.05-.15-.04-.32,.06-.46l.97-1.31-.97-1.3c-.04-.06-.06-.12-.08-.18v-.23c.03-.11,.09-.22,.19-.29,.22-.17,.53-.12,.7,.1l1.03,1.4h15.71c.99,0,1.8-.81,1.8-1.8Zm-4.04-2.81l.46-5.88h-7.35l-.27,5.88h7.16ZM6.03,17.32H42.31c-.1-1.66-.81-3.2-1.96-4.5-2.08-2.35-5.6-3.9-9.6-3.9-.43,0-.86,.02-1.28,.06-2.16,.18-4.18,.8-5.91,1.85-.23,.14-.54,.07-.69-.17-.14-.24-.06-.55,.17-.69,1.73-1.05,3.74-1.7,5.87-1.94-.29-.51-.64-.98-1.03-1.43-1.89-2.17-4.93-3.54-8.26-3.54-5.5,0-9.99,3.6-10.22,8.1,.34-.12,.7-.22,1.07-.31,.83-.19,1.72-.31,2.64-.31,.82,0,1.63,.08,2.41,.25,.27,.06,.45,.32,.39,.59-.02,.08-.06,.15-.11,.21-.11,.14-.29,.21-.48,.18-.72-.15-1.46-.23-2.21-.23-.28,0-.55,0-.82,.03-.69,.05-1.35,.17-1.98,.35-2.98,.82-5.14,2.91-5.34,5.4h1.06Zm29.36,11.17l.27-5.88h-7.35l-.09,5.88h7.17Zm-8.17,0l.09-5.88h-7.35l.09,5.88h7.17Zm-2.39,1h-4.76l.09,5.88h3.32c-.04-.23-.06-.46-.06-.7v-2.13c0-1.23,.55-2.31,1.41-3.05Zm.28,8.46c-.56-.4-1.01-.95-1.31-1.58h-3.62l.09,5.88h3.76c-.38-.48-.61-1.07-.61-1.72,0-1.16,.69-2.15,1.69-2.58Zm-5.84,4.3l-.09-5.88h-6.93l.27,5.88h6.75Zm-.11-6.88l-.09-5.88h-7.14l.28,5.88h6.95Zm-.11-6.88l-.09-5.88h-7.35l.28,5.88h7.16Zm-7.53,13.76l-.27-5.88H4.33l.33,4.31c.07,.88,.81,1.57,1.7,1.57h5.16Zm-.31-6.88l-.28-5.88H3.8l.45,5.88h6.96Zm-.32-6.88l-.28-5.88H3.27l.45,5.88h7.17Z"/></g><g id="uuid-9269bb18-bc08-4c64-976d-992b40a7019e"><text transform="translate(.41 54.9)" font-family="Roboto-Regular, Roboto" font-size="6"><tspan x="0" y="0">laund</tspan><tspan x="14.72" y="0" letter-spacing="0em">r</tspan><tspan x="16.8" y="0">y-bas</tspan><tspan x="31.02" y="0" letter-spacing="0em">k</tspan><tspan x="34" y="0">et</tspan></text></g></svg>