<?xml version="1.0" encoding="UTF-8"?><svg xmlns="http://www.w3.org/2000/svg" viewBox="0 0 50 50"><g id="uuid-b0a9cc6f-11f7-4259-8237-0a7c97b8435c"><g><path d="M49.45,37.91l-9.99-13.66c-.08-.11-.2-.18-.33-.2-.13-.02-.26,.01-.37,.09l-.61,.45-3.83-5.23,4.41-3.22,.36,.5c.24,.33,.61,.5,.99,.5,.25,0,.5-.08,.72-.23l1.14-.83c.26-.19,.44-.48,.48-.8,.05-.32-.03-.64-.22-.91l-7.45-10.18c-.4-.54-1.16-.66-1.7-.26l-1.14,.83c-.54,.4-.66,1.16-.26,1.7l.05,.08-4.41,3.22-1.2-1.64c-.16-.22-.48-.27-.7-.11l-5.58,4.08c-.11,.08-.18,.2-.2,.33-.02,.13,.01,.26,.09,.37l1.2,1.64-4.41,3.22-.21-.29c-.19-.26-.47-.44-.8-.49-.32-.05-.64,.03-.91,.22l-1.14,.83c-.54,.4-.66,1.16-.26,1.7l7.45,10.18c.24,.33,.61,.5,.98,.5,.25,0,.5-.08,.72-.24l1.14-.83c.54-.4,.66-1.16,.26-1.7l-.21-.29,4.41-3.22,3.83,5.23-.61,.45c-.22,.16-.27,.48-.11,.7l9.99,13.66c.08,.11,.2,.18,.33,.2,.03,0,.05,0,.08,0,.11,0,.21-.03,.3-.1l7.61-5.57c.22-.16,.27-.48,.11-.7ZM32.51,5.56l1.14-.83s.08-.04,.13-.04c.07,0,.13,.03,.18,.09l7.45,10.18c.05,.06,.04,.13,.04,.16s-.02,.1-.09,.14l-1.14,.83c-.1,.07-.24,.05-.31-.05l-.66-.9h0l-6.44-8.8h0l-.35-.48c-.07-.1-.05-.23,.05-.31Zm-6.92,3.55l.85,1.16-4.77,3.49-.85-1.16,4.77-3.49Zm-2.7,19.33l-1.14,.83c-.1,.07-.23,.05-.31-.05l-7.45-10.18c-.05-.06-.04-.13-.04-.16,0-.03,.02-.1,.09-.14l1.14-.83s.09-.04,.13-.04c.01,0,.02,0,.03,0,.03,0,.1,.02,.14,.09l7.45,10.18c.07,.1,.05,.24-.05,.31ZM32.3,7.33l5.85,7.99-15.2,11.12-5.85-7.99,15.2-11.12Zm1.26,12.66l3.79,5.18-4.77,3.49-3.79-5.18,4.77-3.49Zm8,23.07l-9.4-12.85,6.8-4.97,9.4,12.85-6.8,4.97Z"/><path d="M23.73,42.28h-2.31v-2.2c0-.46-.38-.84-.84-.84H3.86c-.46,0-.84,.38-.84,.84v2.2H.7c-.28,0-.5,.22-.5,.5v3.04c0,.28,.22,.5,.5,.5H23.73c.28,0,.5-.22,.5-.5v-3.04c0-.28-.22-.5-.5-.5Zm-19.72-2.04H20.42v2.04H4.01v-2.04Zm19.22,5.07H1.2v-2.04H23.23v2.04Z"/></g></g><g id="uuid-228d4f99-880e-42e1-b9e0-f98acedaea99"><text transform="translate(-.1 54.73)" font-family="Roboto-Regular, Roboto" font-size="6"><tspan x="0" y="0">law-g</tspan><tspan x="14.25" y="0" letter-spacing="0em">a</tspan><tspan x="17.47" y="0" letter-spacing="0em">v</tspan><tspan x="20.34" y="0">el</tspan></text></g></svg>