<?xml version="1.0" encoding="UTF-8"?><svg xmlns="http://www.w3.org/2000/svg" viewBox="0 0 50 50"><g id="uuid-e5a1cc56-d1b3-42eb-a3d8-0af38d6c7049"><g><path d="M42.11,43.41h-2.3v-3.98c0-.28-.22-.5-.5-.5h-2.99V12.31h2.47c.28,0,.5-.22,.5-.5V7.34c0-.28-.22-.5-.5-.5h-9.25V3.85c0-.13-.05-.26-.15-.35l-2.73-2.73c-.2-.2-.51-.2-.71,0s-.2,.51,0,.71l2.58,2.58v2.78H10.71c-.28,0-.5,.22-.5,.5v4.48c0,.28,.22,.5,.5,.5h2.47v26.62h-2.99c-.28,0-.5,.22-.5,.5v3.98h-2.3c-.28,0-.5,.22-.5,.5v4.48c0,.28,.22,.5,.5,.5H42.11c.28,0,.5-.22,.5-.5v-4.48c0-.28-.22-.5-.5-.5ZM11.21,7.84h27.08v3.48H11.21v-3.48Zm2.97,4.48h21.14v26.62H14.18V12.31Zm-3.49,27.62h28.12v3.48H10.69v-3.48Zm30.92,7.95H7.89v-3.48H41.61v3.48Z"/><path d="M31.87,14.72h-14.23c-.28,0-.5,.22-.5,.5v20.81c0,.28,.22,.5,.5,.5h14.23c.28,0,.5-.22,.5-.5V15.22c0-.28-.22-.5-.5-.5Zm-.5,20.81h-13.23V15.72h13.23v19.81Z"/></g></g><g id="uuid-ff0d5b97-0744-400f-a5a8-8fd20f9ac822"><text transform="translate(0 54.9)" font-family="Roboto-Regular, Roboto" font-size="6"><tspan x="0" y="0">lectu</tspan><tspan x="13.04" y="0" letter-spacing="0em">r</tspan><tspan x="15.02" y="0">e-podium</tspan></text></g></svg>