<?xml version="1.0" encoding="UTF-8"?><svg id="uuid-c6e85f2f-31eb-43c6-9d1a-9fe66a04567c" xmlns="http://www.w3.org/2000/svg" viewBox="0 0 50 50"><path d="M46.65,2.65c-3.62-3.59-9.84-3.21-13.86,.84l-7.09,7.16c-1.94,1.96-3.08,4.47-3.23,7.08-.08,1.51,.19,2.94,.75,4.22l-1.29,1.3c-3.56-1.53-8.1-.63-11.27,2.57l-7.09,7.16c-1.94,1.96-3.08,4.47-3.23,7.08-.14,2.63,.75,5.04,2.51,6.79,1.62,1.6,3.79,2.47,6.17,2.47,.21,0,.42,0,.64-.02,2.61-.17,5.11-1.33,7.05-3.29l7.09-7.16c3.14-3.16,4.01-7.64,2.52-11.16l1.36-1.37c1.07,.44,2.24,.68,3.47,.68,.21,0,.42,0,.64-.02,2.61-.17,5.11-1.34,7.05-3.29l7.09-7.16c4.02-4.05,4.34-10.27,.72-13.86ZM23.09,38.14l-7.09,7.16c-1.77,1.78-4.04,2.85-6.4,3-2.34,.15-4.48-.62-6.04-2.16-1.56-1.54-2.34-3.68-2.22-6.02,.13-2.36,1.17-4.65,2.94-6.43l7.09-7.16c1.97-1.99,4.53-3.01,6.97-3.01,.98,0,1.94,.17,2.84,.5l-4.2,4.24c-.88,.16-1.75,.58-2.45,1.29l-7.19,7.26c-.8,.81-1.28,1.85-1.34,2.94-.06,1.11,.32,2.12,1.06,2.86,.7,.7,1.64,1.04,2.61,1.04,1.12,0,2.29-.46,3.19-1.37l7.19-7.26c.65-.65,1.06-1.44,1.23-2.25l4.28-4.32c1.12,3.1,.26,6.94-2.47,9.69Zm-7.03-4.62c.95,.97,2.07,1.25,2.73,1.34l-6.65,6.72c-1.29,1.3-3.25,1.44-4.39,.32-.54-.54-.81-1.28-.77-2.1,.05-.84,.42-1.65,1.05-2.29l6.73-6.79s0,.02,0,.03c.07,.61,.32,1.78,1.3,2.78Zm2.74,.33c-.53-.09-1.34-.33-2.03-1.03-.66-.67-.9-1.44-.98-1.95l15.32-15.46c.56,.17,1.28,.5,1.91,1.15,.61,.62,.93,1.3,1.1,1.84l-15.32,15.46ZM30.97,14.36l6.39-6.44c.63-.64,1.44-1.02,2.28-1.07,.07,0,.13,0,.2,0,.74,0,1.41,.26,1.9,.76,.54,.53,.81,1.28,.77,2.1-.05,.84-.42,1.65-1.05,2.29l-6.31,6.37c-.17-.68-.56-1.64-1.41-2.51-.91-.92-1.95-1.32-2.66-1.49-.04,0-.07,0-.11,0Zm14.25,1.45l-7.09,7.16c-1.77,1.78-4.04,2.85-6.4,3-1.16,.08-2.26-.07-3.27-.43l4.29-4.33c.83-.19,1.61-.62,2.24-1.25l7.19-7.26c.8-.81,1.28-1.85,1.34-2.94,.06-1.11-.32-2.12-1.06-2.86-.75-.74-1.77-1.12-2.87-1.04-1.08,.07-2.12,.55-2.93,1.37l-7.19,7.26c-.7,.71-1.11,1.58-1.26,2.46l-4.21,4.24c-.4-1.04-.58-2.19-.51-3.4,.13-2.36,1.17-4.65,2.94-6.43l7.09-7.16c1.97-1.99,4.53-3.01,6.96-3.01,2.04,0,4,.72,5.48,2.18,3.23,3.2,2.91,8.79-.72,12.45Z" fill="#FFFFFF"/><path d="M19.1,13.64c.08,.18,.27,.29,.45,.29,.07,0,.14-.01,.21-.05,.25-.12,.36-.42,.24-.67l-3.06-6.55c-.12-.25-.42-.36-.67-.24-.25,.12-.36,.42-.24,.67l3.06,6.55Z" fill="#FFFFFF"/><path d="M15.48,16.55c.1,.09,.22,.13,.34,.13,.14,0,.27-.05,.37-.16,.19-.2,.17-.52-.03-.71l-5.33-4.88c-.2-.19-.52-.17-.71,.03-.19,.2-.17,.52,.03,.71l5.33,4.88Z" fill="#FFFFFF"/><path d="M6.45,18.15l6.79,2.46c.06,.02,.11,.03,.17,.03,.2,0,.4-.13,.47-.33,.09-.26-.04-.55-.3-.64l-6.79-2.46c-.26-.09-.55,.04-.64,.3-.09,.26,.04,.55,.3,.64Z" fill="#FFFFFF"/><path d="M31.04,35.62c-.12-.25-.42-.35-.67-.23-.25,.12-.35,.42-.23,.67l3.19,6.48c.09,.18,.26,.28,.45,.28,.07,0,.15-.02,.22-.05,.25-.12,.35-.42,.23-.67l-3.19-6.48Z" fill="#FFFFFF"/><path d="M34.6,32.65c-.21-.18-.52-.16-.71,.05-.18,.21-.16,.52,.05,.71l5.43,4.77c.09,.08,.21,.12,.33,.12,.14,0,.28-.06,.38-.17,.18-.21,.16-.52-.05-.71l-5.43-4.77Z" fill="#FFFFFF"/><path d="M43.6,30.86l-6.84-2.33c-.26-.09-.54,.05-.63,.31-.09,.26,.05,.55,.31,.63l6.84,2.33c.05,.02,.11,.03,.16,.03,.21,0,.4-.13,.47-.34,.09-.26-.05-.55-.31-.63Z" fill="#FFFFFF"/></svg>