<?xml version="1.0" encoding="UTF-8"?><svg id="uuid-d1e0182f-6171-471e-810f-b25eab4b5754" xmlns="http://www.w3.org/2000/svg" viewBox="0 0 50 50"><path d="M25.58,4.55c-5.81,0-10.54,4.73-10.54,10.55v7.5h0v1h21.08V15.1c0-5.82-4.73-10.55-10.55-10.55Z" fill="none"/><g><path d="M41.65,21.09h-3.12v-6.95C38.52,6.55,32.34,.37,24.75,.37S10.98,6.55,10.98,14.14v6.95h-3.12c-.28,0-.5,.22-.5,.5v18.13c0,5.19,4.22,9.41,9.41,9.41h15.98c5.19,0,9.41-4.22,9.41-9.41V21.59c0-.28-.22-.5-.5-.5Zm-.5,18.63c0,4.63-3.77,8.41-8.41,8.41h-15.98c-4.63,0-8.41-3.77-8.41-8.41V22.09H41.15v17.63Zm-6.85-18.63H15.21v-6.5c0-5.26,4.28-9.55,9.54-9.55s9.55,4.28,9.55,9.55v6.5ZM11.98,14.14c0-7.04,5.73-12.77,12.77-12.77s12.77,5.73,12.77,12.77v6.95h-2.23v-6.5c0-5.82-4.73-10.55-10.55-10.55s-10.54,4.73-10.54,10.55v6.5h-2.23v-6.95Z" fill="#FFFFFF"/><path d="M24.75,26.48c-2.53,0-4.58,2.05-4.58,4.58,0,1.54,.79,2.97,2.08,3.82v6.7c0,.28,.22,.5,.5,.5h3.99c.28,0,.5-.22,.5-.5v-6.7c1.29-.84,2.08-2.28,2.08-3.82,0-2.53-2.05-4.58-4.58-4.58Zm1.75,7.68c-.16,.09-.25,.25-.25,.44v6.48h-2.99v-6.48c0-.18-.1-.35-.25-.44-1.13-.64-1.83-1.83-1.83-3.1,0-1.97,1.61-3.58,3.58-3.58s3.58,1.61,3.58,3.58c0,1.28-.7,2.46-1.83,3.1Z" fill="#FFFFFF"/></g></svg>