<?xml version="1.0" encoding="UTF-8"?><svg xmlns="http://www.w3.org/2000/svg" viewBox="0 0 50 50"><g id="uuid-9a05437e-f759-4ff0-bb6b-49353a7a7972"><path d="M37.43,45.03h-6.96v-.98c6.34-1.83,10.99-7.68,10.99-14.6,0-6.07-3.56-11.47-9.09-13.9l3.15-4.85c.15-.22,.08-.53-.14-.67l-1.44-.94,1.07-1.64,.76,.5c.08,.05,.17,.08,.26,.08,.03,0,.07,0,.1-.01,.13-.03,.24-.1,.31-.21l1.55-2.39c.15-.22,.08-.53-.14-.67L31.09,.35c-.22-.14-.53-.08-.67,.14l-1.55,2.39c-.07,.11-.09,.24-.07,.37,.03,.13,.1,.24,.21,.31l.76,.5-1.07,1.64-1.44-.94c-.11-.07-.24-.1-.37-.07-.13,.03-.24,.1-.31,.21l-10.44,16.05c-.15,.22-.08,.53,.14,.67l1.87,1.22-1.72,2.64c-.15,.23-.08,.54,.15,.69l3.54,2.3c.08,.05,.18,.08,.27,.08,.03,0,.07,0,.1-.01,.13-.03,.24-.11,.32-.22l1.72-2.64,1.87,1.22c.08,.05,.17,.08,.26,.08,.03,0,.07,0,.1-.01,.13-.03,.24-.1,.31-.21l3.85-5.92c3.76,1.17,6.36,4.67,6.36,8.62s-2.53,7.28-6.05,8.52c-.71-.68-1.67-1.09-2.72-1.09-1.11,0-2.11,.47-2.84,1.22-1.82-.54-3.42-1.65-4.6-3.21h2.67c.28,0,.5-.22,.5-.5v-2.35c0-.28-.22-.5-.5-.5H8.54c-.28,0-.5,.22-.5,.5v2.35c0,.28,.22,.5,.5,.5h3.54c1.79,4.67,5.76,8.11,10.49,9.3v.84h-6.95c-.28,0-.5,.22-.5,.5v3.2c0,.28,.22,.5,.5,.5h21.81c.28,0,.5-.22,.5-.5v-3.2c0-.28-.22-.5-.5-.5ZM30.97,1.43l5.95,3.87-1.02,1.57-5.95-3.87,1.02-1.57Zm-.41,3.19l3.61,2.35-1.02,1.57-3.61-2.35,1.02-1.57Zm-3.42,1.21l7.31,4.75-1.72,2.64-7.31-4.75,1.72-2.64Zm-6.88,21.53l-2.7-1.76,1.41-2.17,2.7,1.76-1.41,2.17Zm4.27-1.54l-7.31-4.75,2.11-3.24,7.31,4.75-2.11,3.24Zm2.65-4.08l-7.31-4.75,4.99-7.68,7.31,4.75-4.99,7.68Zm9.11,7.72c0-4.25-2.71-8.04-6.67-9.45l2.35-3.55c5.17,2.27,8.49,7.33,8.49,13,0,6.36-4.21,11.77-9.99,13.57v-2.35s.01-.06,.01-.09c-.05-.65-.27-1.25-.59-1.78,3.74-1.46,6.4-5.1,6.4-9.35Zm-12.73,11.17s0-.04,.01-.07c.16-1.5,1.46-2.67,2.95-2.67,1.54,0,2.84,1.21,2.96,2.75h0s-.01,.11-.01,.12v4.23h-5.91v-4.38Zm-14.53-6.73v-1.35h12.23v1.35H9.04Zm4.14,1.06h4.72c1.26,1.91,3.08,3.29,5.16,3.99-.24,.44-.41,.94-.47,1.47,0,.03-.01,.07-.01,.11,0,.03,0,.11,0,.13v2.5c-4.17-1.13-7.68-4.13-9.4-8.2Zm23.76,13.28H16.12v-2.2h20.81v2.2Z"/></g><g id="uuid-5b3b9b00-f5ee-44c2-a77b-e1ccd0f819f2"><text transform="translate(-.1 55.09)" font-family="Roboto-Regular, Roboto" font-size="6"><tspan x="0" y="0">mic</tspan><tspan x="9.86" y="0" letter-spacing="0em">r</tspan><tspan x="11.83" y="0">oscope</tspan></text></g></svg>