<?xml version="1.0" encoding="UTF-8"?><svg xmlns="http://www.w3.org/2000/svg" viewBox="0 0 50 50"><g id="uuid-b835239d-2244-4961-b129-e2c68070b405"><g><path d="M23.62,34.63h2.76c5.46,0,9.9-4.44,9.9-9.9V10.51c0-5.46-4.44-9.9-9.9-9.9h-2.76c-5.46,0-9.9,4.44-9.9,9.9v14.23c0,5.46,4.44,9.9,9.9,9.9ZM14.72,10.51c0-4.91,3.99-8.9,8.9-8.9h2.76c4.91,0,8.9,3.99,8.9,8.9v14.23c0,4.91-3.99,8.9-8.9,8.9h-2.76c-4.91,0-8.9-3.99-8.9-8.9V10.51Z" fill="#FFCD00"/><path d="M37.21,43.43h-8.1v-4.08c6.95-1.01,12.31-6.99,12.31-14.22,0-.28-.22-.5-.5-.5s-.5,.22-.5,.5c0,7.38-6,13.38-13.38,13.38h-4.08c-7.38,0-13.38-6-13.38-13.38,0-.28-.22-.5-.5-.5s-.5,.22-.5,.5c0,7.23,5.36,13.21,12.31,14.22v4.08H12.79c-.28,0-.5,.22-.5,.5v4.46c0,.28,.22,.5,.5,.5h24.42c.28,0,.5-.22,.5-.5v-4.46c0-.28-.22-.5-.5-.5Zm-15.32-3.91h6.22v3.91h-6.22v-3.91Zm14.82,8.37H13.29v-3.46h23.42v3.46Z" fill="#FFCD00"/><path d="M19.64,9.89h10.72c.28,0,.5-.22,.5-.5s-.22-.5-.5-.5h-10.72c-.28,0-.5,.22-.5,.5s.22,.5,.5,.5Z" fill="#FFCD00"/><path d="M19.64,18.28h10.72c.28,0,.5-.22,.5-.5s-.22-.5-.5-.5h-10.72c-.28,0-.5,.22-.5,.5s.22,.5,.5,.5Z" fill="#FFCD00"/><path d="M19.64,26.67h10.72c.28,0,.5-.22,.5-.5s-.22-.5-.5-.5h-10.72c-.28,0-.5,.22-.5,.5s.22,.5,.5,.5Z" fill="#FFCD00"/></g></g><g id="uuid-e9952eec-2547-4800-8961-17dc90ff7546"><text transform="translate(-.1 55.08)" font-family="Roboto-Regular, Roboto" font-size="6"><tspan x="0" y="0">mic</tspan><tspan x="9.86" y="0" letter-spacing="0em">r</tspan><tspan x="11.83" y="0">ophone</tspan></text></g></svg>