<?xml version="1.0" encoding="UTF-8"?><svg xmlns="http://www.w3.org/2000/svg" viewBox="0 0 50 50"><g id="uuid-e2f21ab7-187d-45a1-9444-b519a3328ed8"><path d="M46.67,6.16c-1.23-1.79-3.07-2.99-5.2-3.39-2.13-.4-4.29,.06-6.08,1.28-1.79,1.23-2.99,3.07-3.39,5.2l-1.01,5.4-1.59-1.9c-1.1-1.31-3.07-1.48-4.38-.38-1.1,.92-1.29,2.77-.38,4.38l4.71,5.6c.07,.09,.13,.18,.18,.27,.1,.19,.13,.35,.14,.41,.03,.14,.09,.38,.18,.65h-.04c-.13-.03-.26,0-.37,.07-.11,.08-.18,.19-.21,.32l-1.16,6.23c-.05,.27,.13,.53,.4,.58l6.84,1.28c-1.2,3.41-2.48,6.62-3.82,9.53l-.08,.18c-.21,.46-.44,.95-.62,1.42-.1,.02-.2,.03-.3,.05-1.84,.3-4.14,.67-6.55,.29-2.62-.4-5.17-1.68-7.59-3.8l6.23-1.76c.27-.08,.42-.35,.34-.62l-1.73-6.1c-.07-.27-.35-.42-.62-.35h-.04c.06-.27,.11-.51,.12-.66,.02-.14,.05-.28,.1-.42,.04-.1,.09-.2,.15-.28l4.24-6.1c.71-1.6,.36-3.42-.82-4.24-.68-.47-1.51-.65-2.32-.51-.82,.15-1.53,.6-2,1.28l-1.41,2.03-1.5-5.29c-1.22-4.3-5.71-6.81-10.02-5.6C2.76,12.49,.25,16.98,1.46,21.28l3.37,11.89c.21,.76,.59,1.43,1.07,2.02-.12,.04-.22,.12-.28,.23-.06,.12-.08,.25-.04,.38l1.73,6.1c.06,.22,.26,.36,.48,.36,.05,0,.09,0,.14-.02l7.3-2.07c2.7,2.5,5.57,4.01,8.56,4.47,2.48,.38,4.78,.04,6.66-.26-.2,.83-.19,1.6,.29,2.18,.35,.43,.95,.72,1.62,.79,.1,0,.2,.01,.3,.01,.6,0,1.17-.18,1.58-.52,.76-.63,1.21-2.02,.67-2.94-.51-.87-1.53-.93-2.95-.75,.12-.29,.25-.57,.38-.84l.08-.18c1.37-2.98,2.68-6.27,3.91-9.76l7.13,1.33s.06,0,.09,0c.1,0,.2-.03,.28-.09,.11-.08,.18-.19,.21-.32l1.16-6.23c.05-.27-.12-.52-.38-.58,.43-.63,.74-1.34,.88-2.11l2.27-12.15c.4-2.13-.06-4.29-1.28-6.08Zm-24.85,31.12l-2.7,.76-1.45-5.14,2.7-.76,1.45,5.14Zm-16.02-4.37l-3.37-11.89c-1.07-3.77,1.13-7.71,4.91-8.78,.65-.18,1.29-.27,1.93-.27,3.1,0,5.96,2.05,6.85,5.18l1.78,6.3c.05,.19,.21,.33,.4,.36,.19,.03,.38-.05,.49-.21l2.02-2.9c.32-.46,.8-.77,1.36-.87,.56-.1,1.11,.02,1.58,.34,.79,.55,1,1.85,.53,2.93l-4.19,6.03c-.1,.15-.18,.3-.25,.47-.09,.22-.14,.45-.17,.68-.02,.22-.11,.64-.24,1.09l-2.51,.71h0l-9.92,2.81c-.55-.54-.98-1.21-1.19-1.98Zm2.33,8.25l-1.45-5.14,2.7-.76,1.45,5.14-2.7,.76Zm3.66-1.04l-1.45-5.14,2.7-.76,1.45,5.14-2.7,.76Zm3.65-1.09l-1.44-5.08,2.7-.76,1.45,5.14-2.67,.75s-.03-.03-.05-.05Zm18.59,5.39c.25,.43,.02,1.28-.44,1.67-.27,.22-.69,.33-1.14,.28-.4-.04-.77-.2-.95-.42-.29-.36-.21-1,.03-1.72,1.25-.18,2.24-.25,2.5,.19Zm-2.12-13.88l-2.76-.51,.98-5.25,2.76,.51-.98,5.25Zm3.74,.7l-2.76-.51,.98-5.25,2.76,.51-.98,5.25Zm3.74,.7l-2.76-.51,.98-5.25,2.76,.51-.98,5.25Zm3.74,.7l-2.76-.51,.98-5.25,2.76,.51-.98,5.25Zm3.84-20.58l-2.27,12.15c-.15,.79-.51,1.49-1.01,2.08l-2.65-.49h0l-3.74-.7h0l-6.31-1.18c-.16-.44-.29-.85-.34-1.08-.02-.09-.07-.35-.23-.66-.08-.16-.17-.3-.29-.45l-4.67-5.53c-.62-1.11-.54-2.42,.2-3.04,.39-.33,.88-.49,1.35-.49,.6,0,1.2,.25,1.61,.75l2.27,2.7c.12,.15,.32,.21,.51,.16,.19-.05,.33-.2,.36-.39l1.2-6.44c.35-1.87,1.4-3.49,2.97-4.56,1.57-1.07,3.46-1.47,5.33-1.13,1.87,.35,3.49,1.4,4.56,2.97s1.47,3.46,1.13,5.33Z"/></g><g id="uuid-a0c0400e-ee53-47a3-bbdd-554799bb3c75"><text transform="translate(.85 55.01)" font-family="Roboto-Regular, Roboto" font-size="6"><tspan x="0" y="0">mittens</tspan></text></g></svg>