<?xml version="1.0" encoding="UTF-8"?><svg id="uuid-fc12ff3d-48d0-452e-950c-4bcae3f1a31a" xmlns="http://www.w3.org/2000/svg" viewBox="0 0 50 50"><path d="M7.69,18.23c2.29,0,4.15-1.86,4.15-4.15s-1.86-4.15-4.15-4.15-4.15,1.86-4.15,4.15,1.86,4.15,4.15,4.15Zm0-7.3c1.74,0,3.15,1.41,3.15,3.15s-1.41,3.15-3.15,3.15-3.15-1.41-3.15-3.15,1.41-3.15,3.15-3.15Z" fill="#FFFFFF"/><path d="M24.29,9.28c2.29,0,4.15-1.86,4.15-4.15S26.58,.97,24.29,.97s-4.15,1.86-4.15,4.15,1.86,4.15,4.15,4.15Zm0-7.3c1.74,0,3.15,1.41,3.15,3.15s-1.41,3.15-3.15,3.15-3.15-1.41-3.15-3.15,1.41-3.15,3.15-3.15Z" fill="#FFFFFF"/><path d="M41.61,18.23c2.29,0,4.15-1.86,4.15-4.15s-1.86-4.15-4.15-4.15-4.15,1.86-4.15,4.15,1.86,4.15,4.15,4.15Zm0-7.3c1.74,0,3.15,1.41,3.15,3.15s-1.41,3.15-3.15,3.15-3.15-1.41-3.15-3.15,1.41-3.15,3.15-3.15Z" fill="#FFFFFF"/><path d="M34.15,30.99c.08,.05,.17,.07,.25,.07,.17,0,.34-.09,.43-.25,.14-.24,.06-.54-.18-.68l-4.32-2.49c.43-.88,.67-1.86,.67-2.91s-.25-2.03-.67-2.91l4.32-2.5c.24-.14,.32-.44,.18-.68-.14-.24-.45-.32-.68-.18l-4.32,2.49c-1.12-1.64-2.95-2.75-5.04-2.91v-4.98c0-.28-.22-.5-.5-.5s-.5,.22-.5,.5v4.98c-2.09,.16-3.92,1.27-5.04,2.9l-4.31-2.49c-.24-.14-.54-.06-.68,.18-.14,.24-.06,.54,.18,.68l4.32,2.49c-.43,.88-.67,1.87-.67,2.91s.25,2.03,.67,2.91l-4.32,2.49c-.24,.14-.32,.44-.18,.68,.09,.16,.26,.25,.43,.25,.08,0,.17-.02,.25-.07l4.31-2.49c1.12,1.64,2.95,2.75,5.04,2.91v4.99c0,.28,.22,.5,.5,.5s.5-.22,.5-.5v-4.99c2.09-.16,3.92-1.27,5.04-2.91l4.32,2.49Zm-9.86-.56c-3.15,0-5.71-2.56-5.71-5.71s2.55-5.7,5.69-5.71h.03c2.1,0,3.92,1.15,4.91,2.84,0,0,0,.01,0,.02,0,0,.01,0,.01,.01,.48,.84,.76,1.8,.76,2.83,0,3.15-2.56,5.71-5.71,5.71Z" fill="#FFFFFF"/><path d="M42.11,21.15v7.2c0,.28,.22,.5,.5,.5s.5-.22,.5-.5v-7.2c0-.28-.22-.5-.5-.5s-.5,.22-.5,.5Z" fill="#FFFFFF"/><path d="M6.3,21.15v7.2c0,.28,.22,.5,.5,.5s.5-.22,.5-.5v-7.2c0-.28-.22-.5-.5-.5s-.5,.22-.5,.5Z" fill="#FFFFFF"/><path d="M13.25,10.35c.08,0,.16-.02,.23-.06l4.06-2.14c.24-.13,.34-.43,.21-.68-.13-.25-.43-.34-.68-.21l-4.06,2.14c-.24,.13-.34,.43-.21,.68,.09,.17,.26,.27,.44,.27Z" fill="#FFFFFF"/><path d="M31.43,8.15l4.06,2.14c.07,.04,.15,.06,.23,.06,.18,0,.35-.1,.44-.27,.13-.24,.04-.55-.21-.68l-4.06-2.14c-.24-.13-.55-.04-.68,.21-.13,.24-.04,.55,.21,.68Z" fill="#FFFFFF"/><path d="M7.89,31.27c-2.29,0-4.15,1.86-4.15,4.15s1.86,4.15,4.15,4.15,4.15-1.86,4.15-4.15-1.86-4.15-4.15-4.15Zm0,7.3c-1.74,0-3.15-1.41-3.15-3.15s1.41-3.15,3.15-3.15,3.15,1.41,3.15,3.15-1.41,3.15-3.15,3.15Z" fill="#FFFFFF"/><path d="M24.5,40.22c-2.29,0-4.15,1.86-4.15,4.15s1.86,4.15,4.15,4.15,4.15-1.86,4.15-4.15-1.86-4.15-4.15-4.15Zm0,7.3c-1.74,0-3.15-1.41-3.15-3.15s1.41-3.15,3.15-3.15,3.15,1.41,3.15,3.15-1.41,3.15-3.15,3.15Z" fill="#FFFFFF"/><path d="M41.81,31.27c-2.29,0-4.15,1.86-4.15,4.15s1.86,4.15,4.15,4.15,4.15-1.86,4.15-4.15-1.86-4.15-4.15-4.15Zm0,7.3c-1.74,0-3.15-1.41-3.15-3.15s1.41-3.15,3.15-3.15,3.15,1.41,3.15,3.15-1.41,3.15-3.15,3.15Z" fill="#FFFFFF"/><path d="M17.75,41.35l-4.06-2.14c-.24-.13-.55-.04-.68,.21-.13,.24-.04,.55,.21,.68l4.06,2.14c.07,.04,.15,.06,.23,.06,.18,0,.35-.1,.44-.27,.13-.24,.04-.55-.21-.68Z" fill="#FFFFFF"/><path d="M35.69,39.21l-4.06,2.14c-.24,.13-.34,.43-.21,.68,.09,.17,.26,.27,.44,.27,.08,0,.16-.02,.23-.06l4.06-2.14c.24-.13,.34-.43,.21-.68-.13-.25-.43-.34-.68-.21Z" fill="#FFFFFF"/></svg>