<?xml version="1.0" encoding="UTF-8"?><svg xmlns="http://www.w3.org/2000/svg" viewBox="0 0 50 50"><g id="uuid-71889fa2-7cb2-4ea6-9d77-0f59e2d6aaeb"><g><path d="M44.21,4.17c-1.29,0-2.35,1.05-2.35,2.35,0,.53,.18,1.01,.48,1.41l-8.75,11.88c-1.04-.78-2.24-1.35-3.55-1.62l.98-4.37c.06,0,.11,.02,.17,.02,1.19,0,2.17-.97,2.17-2.17s-.97-2.17-2.17-2.17-2.17,.97-2.17,2.17c0,.78,.42,1.46,1.04,1.84l-1.02,4.53c-.26-.02-.51-.04-.77-.04-2.18,0-4.19,.8-5.76,2.14L10.12,8.86c.36-.56,.58-1.23,.58-1.94,0-1.98-1.61-3.58-3.58-3.58s-3.58,1.61-3.58,3.58,1.61,3.58,3.58,3.58c.9,0,1.71-.34,2.34-.89l12.34,11.23c-1.49,1.58-2.44,3.69-2.57,6.03l-12.75-1.4c-.21-.84-.96-1.46-1.86-1.46-1.06,0-1.92,.86-1.92,1.92s.86,1.92,1.92,1.92c.87,0,1.59-.58,1.83-1.37l12.78,1.4c.11,2.37,1.06,4.51,2.55,6.1l-5.69,4.56c-.84-1.08-2.13-1.78-3.6-1.78-2.53,0-4.58,2.06-4.58,4.58s2.06,4.58,4.58,4.58,4.58-2.06,4.58-4.58c0-.7-.17-1.35-.45-1.95l5.89-4.71c1.57,1.35,3.59,2.16,5.78,2.16,5.01,0,9.08-4.22,9.08-9.42,0-2.77-1.16-5.25-3-6.97l8.74-11.87c.33,.18,.7,.29,1.11,.29,1.29,0,2.35-1.05,2.35-2.35s-1.05-2.35-2.35-2.35Zm-13.01,6.33c.64,0,1.17,.52,1.17,1.17s-.52,1.17-1.17,1.17-1.17-.52-1.17-1.17,.52-1.17,1.17-1.17ZM12.48,44.92c-1.98,0-3.58-1.61-3.58-3.58s1.61-3.58,3.58-3.58,3.58,1.61,3.58,3.58-1.61,3.58-3.58,3.58ZM7.11,9.5c-1.42,0-2.58-1.16-2.58-2.58s1.16-2.58,2.58-2.58,2.58,1.16,2.58,2.58-1.16,2.58-2.58,2.58Zm-2.5,17.33c-.51,0-.92-.41-.92-.92s.41-.92,.92-.92,.92,.41,.92,.92-.41,.92-.92,.92Zm31.75,.58c0,4.64-3.63,8.42-8.08,8.42s-8.08-3.78-8.08-8.42,3.63-8.42,8.08-8.42,8.08,3.78,8.08,8.42Zm7.85-19.56c-.74,0-1.35-.6-1.35-1.35s.6-1.35,1.35-1.35,1.35,.6,1.35,1.35-.6,1.35-1.35,1.35Z"/><path d="M26.78,21.33c-1.79,0-3.25,1.46-3.25,3.25s1.46,3.25,3.25,3.25,3.25-1.46,3.25-3.25-1.46-3.25-3.25-3.25Zm0,5.5c-1.24,0-2.25-1.01-2.25-2.25s1.01-2.25,2.25-2.25,2.25,1.01,2.25,2.25-1.01,2.25-2.25,2.25Z"/></g></g><g id="uuid-b195fbcf-50bc-43bf-a2b3-e8149378e76b"><text transform="translate(-.09 54.97)" font-family="Roboto-Regular, Roboto" font-size="6"><tspan x="0" y="0">neu</tspan><tspan x="9.8" y="0" letter-spacing="0em">r</tspan><tspan x="11.77" y="0">ons</tspan></text></g></svg>