<?xml version="1.0" encoding="UTF-8"?><svg xmlns="http://www.w3.org/2000/svg" viewBox="0 0 50 50"><g id="uuid-57364847-dae3-4714-b108-e5dca50378f4"><g><path d="M47.94,29.29l-2.74-2.22,1.31-1.61c.17-.21,.14-.53-.07-.7L16.42,.4c-.1-.08-.24-.12-.37-.11-.13,.01-.25,.08-.34,.18L1.41,18.11c-.76,.94-1.05,2.15-.82,3.42,.22,1.24,.92,2.4,1.97,3.24l28.95,23.49h0l.63,.51c.75,.61,1.67,.93,2.62,.93,.15,0,.29,0,.44-.02,1.11-.12,2.11-.66,2.81-1.52l10.54-12.99c1.45-1.79,1.18-4.42-.61-5.88ZM2.19,18.74L16.18,1.49l29.24,23.72-13.96,17.21c-.31,.32-1.32,1.52-1.17,3.24,0,.12,.02,.24,.04,.35L3.18,24c-.86-.7-1.43-1.63-1.61-2.64-.18-.98,.04-1.91,.62-2.62Zm45.59,15.8l-10.54,12.99c-.53,.66-1.29,1.07-2.14,1.16-.84,.09-1.67-.16-2.33-.69l-.6-.49c-.3-.31-.8-.96-.88-1.92-.11-1.31,.66-2.22,.93-2.5l12.37-15.24,2.15,1.74-13.08,16.13c-.17,.21-.14,.53,.07,.7,.09,.08,.2,.11,.31,.11,.15,0,.29-.06,.39-.18l13.07-16.11c1.19,1.13,1.35,3,.29,4.3Z" fill="#FFFFFF"/><path d="M27.06,13.49l-9.04-7.33c-.1-.08-.24-.12-.37-.11-.13,.01-.25,.08-.34,.18l-6.05,7.46c-.17,.21-.14,.53,.07,.7l9.04,7.33c.09,.08,.2,.11,.31,.11,.15,0,.29-.06,.39-.18l6.05-7.46c.17-.21,.14-.53-.07-.7Zm-6.44,7.14l-8.26-6.7,5.42-6.68,8.26,6.7-5.42,6.68Z" fill="#FFFFFF"/><path d="M39.73,25.05c.09,.08,.2,.11,.31,.11,.15,0,.29-.06,.39-.18,.17-.21,.14-.53-.07-.7l-10.09-8.18c-.21-.17-.53-.14-.7,.07-.17,.21-.14,.53,.07,.7l10.09,8.18Z" fill="#FFFFFF"/><path d="M26.55,19.9c-.17,.21-.14,.53,.07,.7l10.09,8.18c.09,.08,.2,.11,.31,.11,.15,0,.29-.06,.39-.18,.17-.21,.14-.53-.07-.7l-10.09-8.18c-.22-.17-.53-.14-.7,.07Z" fill="#FFFFFF"/><path d="M34.31,31.73l-10.09-8.18c-.21-.17-.53-.14-.7,.07-.17,.21-.14,.53,.07,.7l10.09,8.18c.09,.08,.2,.11,.31,.11,.15,0,.29-.06,.39-.18,.17-.21,.14-.53-.07-.7Z" fill="#FFFFFF"/><path d="M30.6,36.31c.09,.08,.2,.11,.31,.11,.15,0,.29-.06,.39-.18,.17-.21,.14-.53-.07-.7L8.89,17.42c-.22-.17-.53-.14-.7,.07-.17,.21-.14,.53,.07,.7l22.34,18.12Z" fill="#FFFFFF"/><path d="M27.69,39.9c.09,.08,.2,.11,.31,.11,.15,0,.29-.06,.39-.18,.17-.21,.14-.53-.07-.7L5.98,21c-.22-.17-.53-.14-.7,.07-.17,.21-.14,.53,.07,.7l22.34,18.12Z" fill="#FFFFFF"/></g></g><g id="uuid-a91dfef7-5a8f-48fb-b2ef-c7c694b4f5d7"><text transform="translate(-.06 55.01)" font-family="Roboto-Regular, Roboto" font-size="6"><tspan x="0" y="0">newspaper</tspan></text></g></svg>