<?xml version="1.0" encoding="UTF-8"?><svg xmlns="http://www.w3.org/2000/svg" viewBox="0 0 50 50"><g id="uuid-40da6195-163b-4286-9f40-a75fc05f07fd"><path d="M48.87,3.08c-.58-.58-1.92-.74-7.13,3.22-3.59,2.72-8.02,6.68-12.47,11.13-.14,.14-11.72,11.77-14.17,17.2-1.45-.8-3.23-1.01-4.7-.47-1.53,.56-2.19,1.73-3.11,3.35-.36,.63-.76,1.35-1.28,2.14-1.45,2.22-3.28,4.28-5.45,6.1-.16,.13-.22,.35-.15,.54,.07,.2,.24,.33,.45,.34,.86,.05,1.69,.07,2.5,.07,7.91,0,13.63-2.14,14.56-5.57,.32-1.17,.17-2.83-.6-4.26,1.05-.49,2.54-1.41,4.72-3.06,3.59-2.72,8.02-6.68,12.47-11.13s8.41-8.89,11.13-12.47c3.96-5.21,3.8-6.55,3.22-7.13ZM24.33,24.24l3.38,3.38s.06,.04,.1,.07c-1.03,.93-2,1.78-2.92,2.55l-3.16-3.16s-.02,0-.02-.01c.77-.91,1.63-1.89,2.56-2.92,.02,.03,.04,.07,.07,.1Zm-7.36,16.63c-.84,3.11-6.84,5.04-14.8,4.81,1.83-1.67,3.41-3.51,4.69-5.49,.54-.82,.95-1.55,1.31-2.2,.87-1.54,1.39-2.47,2.58-2.91,1.59-.58,3.67-.08,4.93,1.21,1.28,1.3,1.62,3.33,1.28,4.57Zm-.19-4.82c-.12-.15-.24-.31-.38-.45-.15-.16-.33-.3-.5-.43,.64-1.4,2.34-3.92,5.17-7.34l3.05,3.05c-3.43,2.83-5.95,4.53-7.34,5.18Zm17.03-14.08c-1.89,1.89-3.66,3.58-5.3,5.08-.02-.05-.05-.1-.09-.14l-3.38-3.38s-.09-.07-.14-.09c1.5-1.64,3.19-3.41,5.08-5.3C39.93,8.19,46.6,3.75,47.99,3.75c.07,0,.13,.01,.17,.04,.49,.89-3.88,7.73-14.35,18.2Z" fill="#FFFFFF"/></g><g id="uuid-937f1e40-86c0-4cd6-bc7e-8003b223dd69"><text transform="translate(-.1 54.84)" font-family="Roboto-Regular, Roboto" font-size="6"><tspan x="0" y="0">paint brush</tspan></text></g></svg>