<?xml version="1.0" encoding="UTF-8"?><svg xmlns="http://www.w3.org/2000/svg" viewBox="0 0 50 50"><g id="uuid-b4ae2a77-85f0-4bec-8481-815e4dbee9ac"><path d="M48.14,3.73c0-.13-.06-.26-.16-.35l-2.78-2.62c-.1-.09-.22-.14-.36-.14-.13,0-.26,.06-.35,.16l-2.28,2.41-.78-.74c-.2-.19-.52-.18-.71,.02l-4.76,5.04c-.03-.07-.06-.14-.12-.2l-2.17-2.05s-.03-.02-.04-.03l1.49-1.59c.19-.2,.18-.52-.02-.71-.2-.19-.52-.18-.71,.02l-12.96,13.75c-.19,.2-.18,.52,.02,.71,.1,.09,.22,.14,.34,.14,.13,0,.27-.05,.36-.16l10.79-11.45s.02,.03,.03,.04l2.17,2.05c.06,.06,.13,.09,.2,.11L4.68,40.62c-.11,.12-.15,.27-.12,.42l-2.66,7.67c-.06,.19-.01,.39,.13,.53,.09,.09,.22,.14,.34,.14,.06,0,.13-.01,.19-.04l7.51-3.09s.04,.01,.05,.01h.01c.13,0,.26-.06,.35-.16L41.47,13.3h0l5.06-5.36c.09-.1,.14-.23,.14-.36,0-.13-.06-.26-.16-.35l-.78-.74,2.28-2.41c.09-.1,.14-.23,.14-.36ZM5.86,40.83L36.05,8.87l4.35,4.11L10.2,44.94l-4.35-4.11Zm-.49,.91l3.95,3.73-6.12,2.52,2.17-6.25ZM41.08,12.25l-4.35-4.11,4.37-4.63,4.35,4.11-4.37,4.63Zm1.86-8.38l1.94-2.05,2.05,1.94-1.94,2.05-2.05-1.94Z" fill="#FFFFFF"/></g><g id="uuid-fd5c897d-3455-4af6-b655-aeef66066061"><text transform="translate(0 55.07)" font-family="Roboto-Regular, Roboto" font-size="6"><tspan x="0" y="0">pen</tspan></text></g></svg>