<?xml version="1.0" encoding="UTF-8"?><svg id="uuid-34dfb281-9fde-4d70-91c8-e446d215939c" xmlns="http://www.w3.org/2000/svg" viewBox="0 0 50 50"><path d="M32.3,8.12l-8.76-3.64V1.54c0-.29-.23-.52-.52-.52h-2.95c-.29,0-.52,.23-.52,.52v1.28l-.92-.38c-.66-.28-1.42-.2-2.02,.2-.6,.4-.96,1.07-.96,1.79V15.78c0,.72,.36,1.39,.96,1.79,.36,.24,.77,.36,1.19,.36,.28,0,.56-.05,.82-.17l.92-.38v7.69h-.44c-.29,0-.52,.23-.52,.52v22.16c0,.29,.23,.52,.52,.52h4.87c.29,0,.52-.23,.52-.52V25.59c0-.29-.23-.52-.52-.52h-.44V15.72l8.76-3.64c.82-.34,1.32-1.1,1.32-1.98s-.51-1.64-1.32-1.98Zm-11.71,39.11h-.96V26.11h3.83v21.12h-2.87Zm0-22.16V2.06h1.92V25.07h-1.92Zm-3.4-8.37c-.31-.21-.49-.54-.49-.92V4.42c0-.38,.18-.71,.49-.92,.19-.12,.4-.19,.61-.19,.14,0,.29,.03,.43,.09l1.32,.55v12.31l-1.32,.55c-.35,.14-.73,.11-1.04-.1Zm6.35-11.1l8.36,3.47c.43,.18,.68,.56,.68,1.02s-.26,.85-.68,1.02l-8.36,3.47V5.6Z" fill="#FFFFFF"/></svg>