<?xml version="1.0" encoding="UTF-8"?><svg id="uuid-28fe55dd-70f0-4453-bcf0-198a44f05817" xmlns="http://www.w3.org/2000/svg" viewBox="0 0 50 50"><path d="M15.57,16.53c1.62,1.37,3.67,2.12,5.78,2.12s4.17-.75,5.78-2.12c2.02-1.71,3.18-4.21,3.18-6.85C30.32,4.74,26.3,.72,21.36,.72S12.39,4.74,12.39,9.69c0,2.64,1.16,5.14,3.18,6.85ZM21.36,1.72c4.39,0,7.97,3.57,7.97,7.96,0,2.35-1.03,4.56-2.83,6.08-1.44,1.21-3.26,1.88-5.14,1.88s-3.7-.67-5.14-1.88c-1.8-1.52-2.83-3.74-2.83-6.08,0-4.39,3.57-7.96,7.96-7.96Z" fill="#FFFFFF"/><path d="M37.66,32.01c.34-.52,.53-1.05,.53-1.58,0-.77-.24-1.39-.7-1.84-.11-.1-.23-.19-.35-.27,.34,.91,.53,1.89,.53,2.92v.77Z" fill="none"/><path d="M44.19,32.71c0-4.79-3.89-8.68-8.68-8.68-.11,0-.23,.01-.34,.02-1.62-2.3-4.24-3.85-7.25-4H14.79c-5.04,.25-8.99,4.4-8.99,9.44v18.54c0,.28,.22,.5,.5,.5h30.1c.28,0,.5-.22,.5-.5v-6.76c4.12-.67,7.29-4.25,7.29-8.56ZM6.81,29.49c0-4.51,3.53-8.21,8.01-8.44h12.89c.09,.03,.18,.03,.27,0,2.44,.15,4.59,1.34,6.03,3.11-4.08,.71-7.19,4.27-7.19,8.54,0,2.21,.84,4.23,2.21,5.77v9.05H13.76V31.27c0-.28-.22-.5-.5-.5s-.5,.22-.5,.5v16.26H6.81V29.49Zm23.23,18.04v-8.08c1.49,1.22,3.4,1.95,5.47,1.95,.13,0,.26-.01,.4-.02v6.15h-5.87Zm5.47-7.13c-4.24,0-7.68-3.45-7.68-7.68s3.45-7.68,7.68-7.68,7.68,3.45,7.68,7.68-3.45,7.68-7.68,7.68Z" fill="#FFFFFF"/><path d="M37.13,32.68c.7-.73,1.05-1.49,1.05-2.25s-.24-1.39-.7-1.84c-.46-.45-1.12-.67-1.94-.67s-1.44,.22-1.94,.66c-.5,.44-.76,1.02-.77,1.74,0,.03,.01,.07,.04,.09s.06,.04,.09,.04h1.16c.07,0,.12-.06,.12-.12,0-.35,.11-.61,.35-.82,.24-.21,.55-.31,.95-.31s.71,.11,.91,.33c.21,.22,.31,.54,.31,.95s-.17,.83-.49,1.19l-.83,.85c-.34,.37-.56,.7-.67,1-.11,.3-.17,.71-.18,1.22,0,.03,.01,.07,.04,.09,.02,.02,.06,.04,.09,.04h1.16c.07,0,.12-.06,.12-.12,0-.6,.14-1.07,.42-1.37l.69-.68Z" fill="#FFFFFF"/><path d="M35.37,35.93c-.26,0-.47,.08-.61,.24-.14,.15-.2,.34-.2,.56s.07,.41,.21,.56c.14,.15,.34,.23,.6,.23s.46-.08,.61-.23c.14-.15,.21-.34,.21-.56s-.07-.41-.21-.56c-.14-.16-.35-.23-.61-.23Z" fill="#FFFFFF"/></svg>