<?xml version="1.0" encoding="UTF-8"?><svg xmlns="http://www.w3.org/2000/svg" viewBox="0 0 50 50"><g id="uuid-da8aec7e-6c4d-4821-8cd7-8f0f4e2d5083"><g><path d="M17.27,44.46h14.96V19.7h-14.96v24.75Zm7.48-21.69c2.76,0,5.02,2.1,5.32,4.78,.35,.63,.56,1.34,.56,2.1,0,2.42-1.97,4.39-4.39,4.39-.77,0-1.48-.21-2.1-.56-2.68-.3-4.78-2.56-4.78-5.32,0-2.97,2.42-5.39,5.39-5.39Z" fill="none"/><path d="M24.62,9.97c.16-.02,.31-.12,.38-.27l.88-1.75-1.11-2.28-1.27,2.53c-.07,.15-.22,.25-.38,.27l-2.8,.39,1.51,1.5,2.79-.38Z" fill="none"/><path d="M1.15,44.46h14.96V25.04H1.15v19.42Zm7.48-17.19c2.76,0,5.02,2.1,5.32,4.78,.35,.63,.56,1.34,.56,2.1,0,2.42-1.97,4.39-4.39,4.39-.77,0-1.48-.21-2.1-.56-2.68-.3-4.78-2.56-4.78-5.32,0-2.97,2.42-5.39,5.39-5.39Z" fill="none"/><path d="M6.39,36.4c-.4-.66-.64-1.42-.64-2.25,0-2.42,1.97-4.39,4.39-4.39,.82,0,1.59,.24,2.25,.64-.77-1.28-2.15-2.14-3.75-2.14-2.42,0-4.39,1.97-4.39,4.39,0,1.59,.86,2.98,2.14,3.75Z" fill="none"/><path d="M22.5,31.91c-.4-.66-.64-1.42-.64-2.25,0-2.42,1.97-4.39,4.39-4.39,.82,0,1.59,.24,2.25,.64-.77-1.28-2.15-2.14-3.75-2.14-2.42,0-4.39,1.97-4.39,4.39,0,1.59,.86,2.98,2.14,3.75Z" fill="none"/><path d="M23.83,12.35l-1.48-1.46c.09,.11,.14,.26,.12,.4l-.5,2.79,1.95-1.01,.05-.29c.03-.16-.02-.33-.14-.44Z" fill="none"/><path d="M33.39,44.46h14.96v-14.96h-14.96v14.96Zm7.48-12.87c2.76,0,5.02,2.1,5.32,4.78,.35,.63,.56,1.34,.56,2.1,0,2.42-1.97,4.39-4.39,4.39-.77,0-1.48-.21-2.1-.56-2.68-.3-4.78-2.56-4.78-5.32,0-2.97,2.42-5.39,5.39-5.39Z" fill="none"/><path d="M38.62,40.72c-.4-.66-.64-1.42-.64-2.25,0-1.28,.56-2.42,1.43-3.22v-.32h.39c.72-.52,1.6-.84,2.56-.84,.82,0,1.59,.24,2.25,.64-.77-1.28-2.15-2.14-3.75-2.14-2.42,0-4.39,1.97-4.39,4.39,0,1.59,.86,2.98,2.14,3.75Z" fill="none"/><g><path d="M48.85,28.5h-15.62v-9.29c0-.28-.22-.5-.5-.5h-15.96c-.28,0-.5,.22-.5,.5v4.84H.65c-.28,0-.5,.22-.5,.5v20.42c0,.28,.22,.5,.5,.5h15.96s.05-.01,.08-.02c.03,0,.05,.02,.08,.02h15.96s.05-.01,.08-.02c.03,0,.05,.02,.08,.02h15.96c.28,0,.5-.22,.5-.5v-15.96c0-.28-.22-.5-.5-.5Zm-32.74,15.96H1.15V25.04h14.96v19.42Zm16.12,0h-14.96V19.7h14.96v24.75Zm16.12,0h-14.96v-14.96h14.96v14.96Z" fill="#FFCD00"/><polygon points="23.6 26.35 23.76 26.96 24.53 26.75 24.53 30.29 25.27 30.29 25.27 25.98 24.75 25.98 23.6 26.35" fill="#FFCD00"/><path d="M30.73,8.44c-.06-.18-.21-.31-.4-.34l-3.54-.54-1.56-3.23c-.08-.17-.26-.28-.45-.28h0c-.19,0-.36,.11-.45,.28l-1.61,3.2-3.55,.49c-.19,.03-.35,.16-.41,.34-.06,.18-.01,.38,.12,.51l2.55,2.52-.63,3.53c-.03,.19,.04,.38,.2,.49,.15,.11,.36,.13,.53,.04l2.17-1.12,1.02-.52,1.09,.59,2.07,1.11c.07,.04,.16,.06,.24,.06,.1,0,.2-.03,.29-.09,.03-.02,.04-.06,.07-.09,.1-.11,.16-.25,.13-.4l-.58-3.54,1.26-1.22,1.32-1.27c.14-.13,.19-.33,.13-.51Zm-2.69,1.59l-.9,.87c-.12,.11-.17,.28-.15,.44l.46,2.8-2.5-1.34c-.07-.04-.16-.06-.24-.06s-.16,.02-.23,.06l-.57,.29-1.95,1.01,.5-2.79c.03-.15-.02-.29-.12-.4,0-.01-.01-.03-.02-.04l-.5-.5-1.51-1.5,2.8-.39c.16-.02,.31-.12,.38-.27l1.27-2.53,1.11,2.28,.13,.27c.07,.15,.21,.25,.37,.28l.58,.09,2.23,.34-1.14,1.09Z" fill="#FFCD00"/><path d="M10.19,31.71h0c0-.78-.57-1.29-1.41-1.29-.76,0-1.17,.32-1.58,.89l.54,.42c.32-.43,.59-.64,.98-.64s.69,.24,.69,.67c0,.38-.21,.65-.8,1.15l-1.47,1.25v.59h3.09v-.66h-2.03l.88-.73c.76-.62,1.11-.98,1.11-1.65Z" fill="#FFCD00"/><path d="M24.15,33.48c.2,.02,.4,.06,.6,.06,2.97,0,5.39-2.42,5.39-5.39,0-.21-.04-.4-.06-.6-.3-2.68-2.56-4.78-5.32-4.78-2.97,0-5.39,2.42-5.39,5.39,0,2.76,2.1,5.02,4.78,5.32Zm.6-9.71c1.59,0,2.98,.86,3.75,2.14,.4,.66,.64,1.42,.64,2.25,0,2.42-1.97,4.39-4.39,4.39-.82,0-1.59-.24-2.25-.64-1.28-.77-2.14-2.15-2.14-3.75,0-2.42,1.97-4.39,4.39-4.39Z" fill="#FFCD00"/><path d="M8.03,37.98c.2,.02,.4,.06,.6,.06,2.97,0,5.39-2.42,5.39-5.39,0-.21-.04-.4-.06-.6-.3-2.68-2.56-4.78-5.32-4.78-2.97,0-5.39,2.42-5.39,5.39,0,2.76,2.1,5.02,4.78,5.32Zm.6-9.71c1.59,0,2.98,.86,3.75,2.14,.4,.66,.64,1.42,.64,2.25,0,2.42-1.97,4.39-4.39,4.39-.82,0-1.59-.24-2.25-.64-1.28-.77-2.14-2.15-2.14-3.75,0-2.42,1.97-4.39,4.39-4.39Z" fill="#FFCD00"/><path d="M40.87,31.59c-2.97,0-5.39,2.42-5.39,5.39,0,2.76,2.1,5.02,4.78,5.32,.2,.02,.4,.06,.6,.06,2.97,0,5.39-2.42,5.39-5.39,0-.21-.04-.4-.06-.6-.3-2.68-2.56-4.78-5.32-4.78Zm0,9.77c-.82,0-1.59-.24-2.25-.64-1.28-.77-2.14-2.15-2.14-3.75,0-2.42,1.97-4.39,4.39-4.39,1.59,0,2.98,.86,3.75,2.14,.4,.66,.64,1.42,.64,2.25,0,2.42-1.97,4.39-4.39,4.39Z" fill="#FFCD00"/><path d="M41.27,35.59l-1.15,1.23,.12,.47h.35c.6,0,.98,.24,.98,.66h0c0,.4-.32,.66-.74,.66-.48,0-.82-.2-1.12-.56l-.53,.49c.36,.44,.89,.75,1.64,.75,.89,0,1.5-.57,1.5-1.35h0c0-.8-.61-1.13-1.26-1.21l1.19-1.22v-.56h-2.83v.65h1.85Z" fill="#FFCD00"/></g></g></g><g id="uuid-c4235dcb-5829-41a0-ace1-50f75c1cb745"><text transform="translate(-.1 54.62)" font-family="Roboto-Regular, Roboto" font-size="6"><tspan x="0" y="0">podium</tspan></text></g></svg>