<?xml version="1.0" encoding="UTF-8"?><svg id="uuid-6056d837-1837-4473-ae37-e6ad1f3e9b8d" xmlns="http://www.w3.org/2000/svg" viewBox="0 0 50 50"><path d="M39.93,14.64c-1.11,0-2.12,.48-2.82,1.25v-.23c0-2.11-1.71-3.82-3.82-3.82-1.12,0-2.12,.48-2.82,1.25-.07-2.05-1.75-3.69-3.82-3.69-1.11,0-2.12,.48-2.82,1.24V3.89c0-2.1-1.71-3.82-3.82-3.82h0c-1.01,0-1.97,.4-2.69,1.12s-1.12,1.68-1.12,2.7V25.57c-.36-.66-.9-1.47-1.64-2.26-1.13-1.2-2.58-2.16-4.15-2.74-1.31-.62-2.88-.29-3.83,.81-.95,1.11-1.03,2.72-.21,3.92l12.75,19.19v4.53c0,.28,.22,.5,.5,.5h19.13c.28,0,.5-.22,.5-.5v-4.18l-.03-2.44c1.06-1.78,1.94-3.66,2.64-5.6,1.16-3.25,1.79-6.66,1.87-10.16v-8.16c0-2.1-1.71-3.82-3.82-3.82Zm2.82,11.97c-.08,3.38-.69,6.69-1.81,9.84-.69,1.92-1.57,3.79-2.63,5.55-.05,.08-.07,.17-.07,.26l.03,6.25H20.14v-4.18c0-.1-.03-.19-.08-.28L7.21,24.72c-.57-.83-.52-1.94,.14-2.71,.65-.76,1.73-.99,2.68-.54,1.47,.55,2.78,1.42,3.81,2.51,1.23,1.31,1.83,2.71,2.03,3.17,.17,.38,.28,.71,.36,.95,.08,.23,.31,.38,.55,.34,.24-.04,.42-.25,.42-.49V3.89c0-.75,.29-1.45,.83-1.99s1.24-.83,1.99-.83h0c1.55,0,2.82,1.26,2.82,2.82V22.76c0,.28,.22,.5,.5,.5s.5-.22,.5-.5V13.22c0-1.55,1.26-2.82,2.82-2.82s2.82,1.26,2.82,2.82v9.71c0,.28,.22,.5,.5,.5s.5-.22,.5-.5v-7.27c0-1.55,1.26-2.82,2.82-2.82s2.82,1.26,2.82,2.82v7.27c0,.28,.22,.5,.5,.5s.5-.22,.5-.5v-4.47c0-1.55,1.27-2.81,2.82-2.81s2.82,1.26,2.82,2.82v8.15Z" fill="#FFCD00"/></svg>