<?xml version="1.0" encoding="UTF-8"?><svg xmlns="http://www.w3.org/2000/svg" viewBox="0 0 50 50"><g id="uuid-defc42d4-b842-45f9-99fb-8bfbd157b786"><g><path d="M44.47,5.04H25.25V1.43h.84c.28,0,.5-.22,.5-.5s-.22-.5-.5-.5h-2.69c-.28,0-.5,.22-.5,.5s.22,.5,.5,.5h.84v3.61H5.03c-.28,0-.5,.22-.5,.5v27.48c0,.28,.22,.5,.5,.5h15.27l-7.72,15.05h-1.04c-.28,0-.5,.22-.5,.5s.22,.5,.5,.5h2.69c.28,0,.5-.22,.5-.5s-.22-.5-.5-.5h-.53l7.72-15.05h2.82v15.05h-.84c-.28,0-.5,.22-.5,.5s.22,.5,.5,.5h2.69c.28,0,.5-.22,.5-.5s-.22-.5-.5-.5h-.84v-15.05h3.05l7.72,15.05h-.52c-.28,0-.5,.22-.5,.5s.22,.5,.5,.5h2.69c.28,0,.5-.22,.5-.5s-.22-.5-.5-.5h-1.04l-7.72-15.05h15.05c.28,0,.5-.22,.5-.5V5.54c0-.28-.22-.5-.5-.5Zm-.5,27.48H5.53V6.04H43.97v26.48Z" fill="#FFFFFF"/><path d="M17.01,19.59h-5.77c-.28,0-.5,.22-.5,.5v8.59c0,.28,.22,.5,.5,.5h5.77c.28,0,.5-.22,.5-.5v-8.59c0-.28-.22-.5-.5-.5Zm-.5,8.59h-4.77v-7.59h4.77v7.59Z" fill="#FFFFFF"/><path d="M27.75,15h-5.77c-.28,0-.5,.22-.5,.5v13.18c0,.28,.22,.5,.5,.5h5.77c.28,0,.5-.22,.5-.5V15.5c0-.28-.22-.5-.5-.5Zm-.5,13.18h-4.77v-12.18h4.77v12.18Z" fill="#FFFFFF"/><path d="M38.49,11.6h-5.77c-.28,0-.5,.22-.5,.5V28.68c0,.28,.22,.5,.5,.5h5.77c.28,0,.5-.22,.5-.5V12.1c0-.28-.22-.5-.5-.5Zm-.5,16.57h-4.77V12.6h4.77v15.57Z" fill="#FFFFFF"/></g></g><g id="uuid-64f40e76-643c-4ac8-b3bf-bdc1dd57fe24"><text transform="translate(-.64 54.74)" font-family="Roboto-Regular, Roboto" font-size="6"><tspan x="0" y="0">p</tspan><tspan x="3.37" y="0" letter-spacing="0em">r</tspan><tspan x="5.34" y="0">esentation-bar-g</tspan><tspan x="48.81" y="0" letter-spacing="-.02em">r</tspan><tspan x="50.72" y="0">aph</tspan></text></g></svg>