<?xml version="1.0" encoding="UTF-8"?><svg xmlns="http://www.w3.org/2000/svg" viewBox="0 0 50 50"><g id="uuid-dcb326a9-8275-4cd9-982f-e89d98232ed9"><g><path d="M7.71,33.2c-.13,0-.25-.05-.35-.14-.2-.19-.2-.51,0-.71l5.95-6.09c.14-.14,.35-.19,.53-.12l4.72,1.79,8.49-9.38c.13-.15,.34-.2,.53-.14l6.85,2.33,6.96-8.45c.18-.21,.49-.24,.7-.07,.21,.18,.24,.49,.07,.7l-7.18,8.72c-.13,.16-.35,.22-.55,.16l-6.87-2.33-8.5,9.39c-.14,.15-.36,.2-.55,.13l-4.74-1.79-5.73,5.86c-.1,.1-.23,.15-.36,.15Z"/><path d="M44.47,5.04H25.25V1.43h.84c.28,0,.5-.22,.5-.5s-.22-.5-.5-.5h-2.69c-.28,0-.5,.22-.5,.5s.22,.5,.5,.5h.84v3.61H5.03c-.28,0-.5,.22-.5,.5v27.48c0,.28,.22,.5,.5,.5h15.27l-7.72,15.05h-1.04c-.28,0-.5,.22-.5,.5s.22,.5,.5,.5h2.69c.28,0,.5-.22,.5-.5s-.22-.5-.5-.5h-.53l7.72-15.05h2.82v15.05h-.84c-.28,0-.5,.22-.5,.5s.22,.5,.5,.5h2.69c.28,0,.5-.22,.5-.5s-.22-.5-.5-.5h-.84v-15.05h3.05l7.72,15.05h-.52c-.28,0-.5,.22-.5,.5s.22,.5,.5,.5h2.69c.28,0,.5-.22,.5-.5s-.22-.5-.5-.5h-1.04l-7.72-15.05h15.05c.28,0,.5-.22,.5-.5V5.54c0-.28-.22-.5-.5-.5Zm-.5,27.48H5.53V6.04H43.97v26.48Z"/></g></g><g id="uuid-ac12576b-9c4b-4659-b87c-0e650f264e5e"><text transform="translate(-.06 54.74)" font-family="Roboto-Regular, Roboto" font-size="6"><tspan x="0" y="0">p</tspan><tspan x="3.37" y="0" letter-spacing="0em">r</tspan><tspan x="5.34" y="0">esentation-g</tspan><tspan x="38.5" y="0" letter-spacing="0em">r</tspan><tspan x="40.47" y="0">owth</tspan></text></g></svg>