<?xml version="1.0" encoding="UTF-8"?><svg id="uuid-c64210e7-c608-42f9-8a2f-79635c068302" xmlns="http://www.w3.org/2000/svg" viewBox="0 0 50 50"><path d="M33.79,11.26c-1.47,0-2.91,.23-4.3,.69-1.4-.65-2.88-.96-4.36-.97-.08-.45-.13-2.06,2.34-4.03,2.98-2.38,8.07-1.02,8.12-1,.29,.08,.58-.09,.66-.37,.08-.28-.09-.58-.37-.66-.23-.06-5.66-1.52-9.07,1.2-.49,.39-.89,.78-1.22,1.15-.52-.95-1.16-1.73-1.92-2.29-2.45-1.81-5.81-1.32-5.95-1.29-.29,.04-.49,.31-.45,.6,.02,.14,.53,3.5,2.97,5.32,1.23,.91,2.69,1.23,3.82,1.33,0,.04,0,.08,.01,.11-1.24,.13-2.47,.47-3.62,1.05-1.38-.45-2.8-.68-4.23-.68C7.9,11.41,1.12,19.02,1.12,28.38s6.77,16.96,15.1,16.96c1.19,0,2.37-.15,3.49-.46,1.69,1,3.5,1.51,5.39,1.51s3.78-.54,5.51-1.59c1.04,.26,2.11,.39,3.18,.39,8.32,0,15.09-7.61,15.09-16.96s-6.77-16.97-15.09-16.97Zm-15.35-6.58c.98-.05,3.04,0,4.59,1.15,.68,.51,1.26,1.22,1.73,2.13,.04,.07,.09,.13,.15,.17-.43,.65-.65,1.23-.76,1.73-.98-.09-2.24-.36-3.27-1.12-1.54-1.14-2.2-3.1-2.44-4.06ZM2.19,28.38c0-8.77,6.29-15.91,14.03-15.91,.99,0,1.98,.12,2.95,.36-4.51,2.98-7.36,9.04-7.36,15.86,0,6.37,2.6,12.24,6.7,15.37-.75,.14-1.51,.22-2.28,.22-7.74,0-14.03-7.13-14.03-15.9Zm17.88,15.48h0c-4.37-2.7-7.19-8.65-7.19-15.17,0-6.85,3.16-13.1,7.87-15.55h0c2.66-1.41,5.73-1.47,8.48-.13h0c4.84,2.38,8.1,8.68,8.1,15.68,0,6.39-2.73,12.26-6.97,15.01l-.12,.08c-3.21,2.04-6.99,2.05-10.16,.07Zm13.72,.27c-.65,0-1.3-.07-1.95-.18,4.02-3.15,6.56-8.98,6.56-15.26,0-6.86-3-13.09-7.58-16,.97-.24,1.96-.36,2.97-.36,7.73,0,14.02,7.14,14.02,15.91s-6.29,15.9-14.02,15.9Z" fill="#FFCD00"/></svg>