<?xml version="1.0" encoding="UTF-8"?><svg xmlns="http://www.w3.org/2000/svg" viewBox="0 0 50 50"><g id="uuid-6729cc2a-6217-4068-ab14-87577fcdd9dd"><g><path d="M32.53,31.52l-4.99-.76-2.2-4.54c-.08-.17-.26-.28-.45-.28h0c-.19,0-.36,.11-.45,.28l-2.27,4.51-5,.69c-.19,.03-.35,.16-.41,.34-.06,.18-.01,.38,.12,.51l3.59,3.55-.89,4.97c-.03,.19,.04,.38,.2,.49s.36,.13,.53,.04l4.49-2.32,4.45,2.38c.07,.04,.15,.06,.24,.06,.1,0,.2-.03,.29-.09,.15-.11,.23-.3,.2-.49l-.82-4.98,3.64-3.5c.14-.13,.19-.33,.13-.51-.06-.18-.21-.31-.4-.34Zm-4.25,3.81c-.12,.11-.17,.28-.15,.44l.7,4.24-3.79-2.03c-.07-.04-.15-.06-.24-.06s-.16,.02-.23,.06l-3.82,1.97,.76-4.23c.03-.16-.02-.33-.14-.44l-3.06-3.02,4.26-.59c.16-.02,.3-.12,.38-.27l1.93-3.84,1.87,3.87c.07,.15,.21,.25,.37,.28l4.25,.65-3.1,2.98Z"/><path d="M48.34,6.91c-.03-.13-.12-.24-.23-.3L37.64,.56c-.24-.14-.55-.06-.68,.18l-10.2,17.66c-.63-.08-1.26-.13-1.91-.13s-1.28,.05-1.91,.13L12.74,.75c-.14-.24-.44-.32-.68-.18L1.58,6.61c-.11,.07-.2,.18-.23,.3s-.02,.26,.05,.38L11.87,25.42c-1.53,2.39-2.43,5.23-2.43,8.27,0,8.5,6.91,15.41,15.41,15.41s15.41-6.91,15.41-15.41c0-3.04-.9-5.88-2.43-8.27L48.29,7.29c.07-.11,.08-.25,.05-.38ZM2.52,7.22L12.12,1.68l9.75,16.89c-1.79,.35-3.47,1.02-4.98,1.94l-4.71-8.16c-.14-.24-.45-.32-.68-.18-.24,.14-.32,.44-.18,.68l4.73,8.2c-1.37,.95-2.56,2.12-3.56,3.46L2.52,7.22Zm36.74,26.46c0,7.94-6.46,14.41-14.41,14.41s-14.41-6.46-14.41-14.41,6.46-14.41,14.41-14.41,14.41,6.46,14.41,14.41Zm-2.06-9.18c-.98-1.31-2.15-2.47-3.49-3.41l4.76-8.25c.14-.24,.06-.54-.18-.68-.24-.14-.54-.06-.68,.18l-4.73,8.2c-1.53-.94-3.23-1.62-5.05-1.98L37.57,1.68l9.6,5.54-9.98,17.28Z"/><path d="M24.84,21.28c-6.84,0-12.41,5.57-12.41,12.41s5.57,12.41,12.41,12.41,12.41-5.57,12.41-12.41-5.57-12.41-12.41-12.41Zm0,23.81c-6.29,0-11.41-5.12-11.41-11.41s5.12-11.41,11.41-11.41,11.41,5.12,11.41,11.41-5.12,11.41-11.41,11.41Z"/></g></g><g id="uuid-76944bc6-73a0-491d-a650-dbf6ff43d24a"><text transform="translate(-.1 54.62)" font-family="Roboto-Regular, Roboto" font-size="6"><tspan x="0" y="0">ribbon-two</tspan></text></g></svg>