<?xml version="1.0" encoding="UTF-8"?><svg xmlns="http://www.w3.org/2000/svg" viewBox="0 0 50 50"><g id="uuid-4ad19ac6-aada-4c54-910e-72b3717efbb5"><path d="M46.04,44.84L8.39,1.05c-.18-.21-.5-.23-.71-.05l-3.67,3.16c-.1,.09-.16,.21-.17,.34s.03,.26,.12,.36L41.61,48.65c.1,.11,.24,.17,.38,.17,.12,0,.23-.04,.33-.12l3.67-3.16c.1-.09,.16-.21,.17-.34,0-.13-.03-.26-.12-.36Zm-4,2.78l-1.68-1.96,.42-.36,.61-.52h0l.85-.73c.21-.18,.23-.5,.05-.71-.18-.21-.5-.23-.71-.05l-1.17,1-.36,.31h0l-.35,.3-2.33-2.71s.07-.03,.1-.06l.68-.58c.21-.18,.23-.5,.05-.71s-.5-.23-.71-.05l-.68,.58s-.05,.06-.07,.09l-2.18-2.54s.07-.03,.1-.06l.68-.58c.21-.18,.23-.5,.05-.71-.18-.21-.5-.23-.71-.05l-.68,.58s-.05,.06-.07,.1l-2.18-2.54s.07-.03,.1-.06l.68-.58c.21-.18,.23-.5,.05-.71-.18-.21-.5-.23-.71-.05l-.68,.58s-.05,.06-.07,.1l-2.18-2.54s.07-.03,.1-.06l.68-.59c.21-.18,.23-.5,.05-.71-.18-.21-.5-.23-.71-.05l-.68,.59s-.05,.06-.07,.09l-2.19-2.54s.07-.03,.1-.06l.68-.58c.21-.18,.23-.5,.05-.71s-.5-.23-.71-.05l-.68,.58s-.05,.06-.07,.09l-2.18-2.54s.07-.03,.1-.06l.68-.58c.21-.18,.23-.5,.05-.71-.18-.21-.5-.23-.71-.05l-.68,.58s-.05,.06-.07,.09l-2.19-2.54s.07-.03,.1-.06l.68-.58c.21-.18,.23-.5,.05-.71-.18-.21-.5-.23-.71-.05l-.68,.58s-.05,.06-.07,.09l-2.18-2.54s.07-.03,.1-.06l.68-.58c.21-.18,.23-.5,.05-.71-.18-.21-.5-.23-.71-.05l-.68,.58s-.05,.06-.07,.09l-2.18-2.54s.07-.03,.1-.06l.68-.58c.21-.18,.23-.5,.05-.71-.18-.21-.5-.23-.71-.05l-.68,.58s-.05,.06-.07,.09l-2.18-2.54s.07-.03,.1-.06l.68-.58c.21-.18,.23-.5,.05-.71-.18-.21-.5-.23-.71-.05l-.68,.58s-.05,.06-.07,.09l-2.18-2.54s.07-.03,.1-.06l.68-.58c.21-.18,.23-.5,.05-.71-.18-.21-.5-.23-.71-.05l-.68,.58s-.05,.06-.07,.09l-1.94-2.25,1.94-1.67c.21-.18,.23-.5,.05-.71-.18-.21-.5-.23-.71-.05l-1.94,1.67-1.06-1.23,2.91-2.5L44.96,45.11l-2.91,2.5Z"/></g><g id="uuid-938ac3be-2df0-4ad9-986c-de62e450ec2a"><text transform="translate(.21 55.07)" font-family="Roboto-Regular, Roboto" font-size="6"><tspan x="0" y="0">ruler</tspan></text></g></svg>