<?xml version="1.0" encoding="UTF-8"?><svg xmlns="http://www.w3.org/2000/svg" viewBox="0 0 50 50"><g id="uuid-ba98ccfa-cee3-4033-8dd3-705188b7a058"><g><path d="M46.32,35.76c-.15-.15-.38-.19-.58-.1-3.01,1.47-6.21,2.22-9.51,2.22-11.95,0-21.67-9.72-21.67-21.67,0-3.43,.8-6.73,2.37-9.82,.1-.19,.06-.42-.09-.58s-.38-.19-.58-.1C8.41,9.56,3.54,17.36,3.54,26.07c0,12.5,10.17,22.67,22.67,22.67,8.56,0,16.3-4.75,20.2-12.4,.1-.19,.06-.42-.09-.58Zm-20.11,11.98c-11.95,0-21.67-9.72-21.67-21.67,0-7.83,4.12-14.89,10.86-18.76-1.22,2.83-1.83,5.81-1.83,8.9,0,12.5,10.17,22.67,22.67,22.67,2.95,0,5.83-.57,8.56-1.7-3.91,6.55-10.9,10.56-18.59,10.56Z" fill="#FFFFFF"/><path d="M30.49,31.23h8.68c.07,0,.12-.06,.12-.12v-1.53c0-.07-.06-.12-.12-.12h-6.15l5.94-7.89s.03-.05,.03-.08v-1.32c0-.07-.06-.12-.12-.12h-8.29c-.07,0-.12,.06-.12,.12v1.55c0,.07,.06,.12,.12,.12h5.69l-5.88,7.81s-.02,.05-.02,.08v1.38c0,.07,.06,.12,.12,.12Z" fill="#FFFFFF"/><path d="M22.33,17h6.14c.07,0,.12-.06,.12-.12v-1.08c0-.07-.06-.12-.12-.12h-4.27l4.15-5.51s.03-.05,.03-.08v-.94c0-.07-.06-.12-.12-.12h-5.86c-.07,0-.12,.06-.12,.12v1.09c0,.07,.06,.12,.12,.12h3.95l-4.11,5.46s-.02,.05-.02,.08v.97c0,.07,.06,.12,.12,.12Z" fill="#FFFFFF"/><path d="M32.26,7.64h5.27c.07,0,.12-.06,.12-.12v-.93c0-.07-.06-.12-.12-.12h-3.63l3.54-4.7s.03-.05,.03-.08V.89c0-.07-.06-.12-.12-.12h-5.03c-.07,0-.12,.06-.12,.12v.94c0,.07,.06,.12,.12,.12h3.35l-3.51,4.66s-.02,.05-.02,.08v.83c0,.07,.06,.12,.12,.12Z" fill="#FFFFFF"/></g></g><g id="uuid-97c35ac1-6df7-48ce-96c3-f405532266bc"><text transform="translate(.27 55.01)" font-family="Roboto-Regular, Roboto" font-size="6"><tspan x="0" y="0">sleep</tspan></text></g></svg>