<?xml version="1.0" encoding="UTF-8"?><svg xmlns="http://www.w3.org/2000/svg" viewBox="0 0 50 50"><g id="uuid-a9fb0e21-3705-43a8-87d5-e7f331f5a1ce"><g><circle cx="40.08" cy="40.39" r=".64" fill="#FFFFFF"/><path d="M44.35,34.74c-.36,0-.64,.29-.64,.64s.29,.64,.64,.64,.64-.29,.64-.64-.29-.64-.64-.64Z" fill="#FFFFFF"/><circle cx="41.45" cy="37.8" r=".64" fill="#FFFFFF"/><circle cx="44.35" cy="38.44" r=".64" fill="#FFFFFF"/><circle cx="43" cy="41.68" r=".64" fill="#FFFFFF"/><circle cx="46.36" cy="41.37" r=".64" fill="#FFFFFF"/></g><path d="M41.76,29.44c-.79-1.55-2.64-5.33-2.64-7.1,0-.72,.16-1.63,.34-2.69,.42-2.41,.94-5.42-.18-7.96C36.22,4.74,26.61-1.23,16.43,1.2,4.11,4.15,2.83,14.01,2.93,21.16c.06,4.25,1.29,6.69,2.6,9.28,1,1.98,2.03,4.03,2.62,7.08,1.12,5.81-.56,8.45-1.37,9.72-.17,.27-.3,.48-.37,.65-.07,.15-.05,.33,.04,.47,.09,.14,.25,.22,.42,.22H26.85c.27,0,.49-.22,.49-.5,0-.02,0-.04,0-.06v-6.63c2.01,1.13,6.61,3.44,8.25,1.79,.26-.26,.25-.69,.2-1.64-.02-.44-.05-.93,0-1.2,.02-.17,.13-.24,.58-.39,.38-.12,1.02-.33,1.07-1.03,.01-.19,.04-.56-1.48-1.79,2.86-.75,2.86-1.14,2.86-1.47,0-.37-.37-1.84-.58-2.66l2.87-1.49c.75-.39,1.04-1.32,.66-2.07Zm-1.12,1.18l-3.22,1.67c-.21,.11-.31,.35-.25,.57,.26,.98,.54,2.13,.62,2.6-.47,.24-1.88,.65-3.07,.93-.19,.04-.33,.19-.38,.38-.04,.19,.03,.39,.19,.5,.73,.55,1.58,1.26,1.85,1.59-.09,.04-.23,.09-.33,.12-.43,.14-1.14,.37-1.25,1.2-.05,.37-.03,.89,0,1.4,.02,.31,.04,.75,.02,.95-1.12,.87-5.15-.88-7.71-2.44-.16-.09-.35-.1-.5,0-.16,.09-.25,.25-.25,.44v7.09c-.54-.02-1.36-.02-2.62-.02H7.75c.91-1.45,2.52-4.33,1.39-10.25-.61-3.19-1.68-5.3-2.71-7.34-1.25-2.48-2.43-4.82-2.49-8.84-.11-7.39,1.24-16.22,12.73-18.97,6.57-1.57,17.77,.99,21.71,9.91,1,2.27,.51,5.11,.11,7.39-.19,1.1-.36,2.06-.36,2.86,0,1.92,1.72,5.56,2.75,7.56,.13,.26,.03,.59-.23,.72Z" fill="#FFFFFF"/></g><g id="uuid-e2af4a2f-c55b-4631-9d26-1da18ba0e791"><text transform="translate(-.03 55.06)" font-family="Roboto-Regular, Roboto" font-size="6"><tspan x="0" y="0">snee</tspan><tspan x="12.76" y="0" letter-spacing="0em">z</tspan><tspan x="15.69" y="0">e</tspan></text></g></svg>