<?xml version="1.0" encoding="UTF-8"?><svg xmlns="http://www.w3.org/2000/svg" viewBox="0 0 50 50"><g id="uuid-ca9fce2a-cfbc-44b3-95cd-a76927e4213f"><path d="M24,37.39l-6.35-4.66v-14.89s-.01-.06-.02-.08v-3.05c0-.28-.22-.5-.5-.5H6.76c-.28,0-.5,.22-.5,.5v18.14s-.02,.07-.02,.11v3.33c-.05,2.02,.88,3.93,2.5,5.12l1.87,1.37s.02,0,.03,0l6.1,4.48c1.06,.78,2.32,1.19,3.61,1.19,.31,0,.63-.02,.94-.07,1.62-.25,3.04-1.11,4.01-2.43,2-2.72,1.41-6.57-1.31-8.57Zm-2.85,10.01c-1.36,.21-2.71-.13-3.81-.94l-5.65-4.15c1-1.09,1.56-2.51,1.56-3.98,0-3.27-2.66-5.93-5.93-5.93-.02,0-.03,0-.05,0v-14.06h9.39v14.64c0,.16,.08,.31,.2,.4l6.55,4.81c2.28,1.67,2.77,4.89,1.1,7.17-.81,1.1-2,1.83-3.36,2.03Zm-11.81-6.8c-1.35-.99-2.13-2.59-2.09-4.38v-2.82s.04,0,.06,0c2.72,0,4.93,2.21,4.93,4.93,0,1.28-.49,2.46-1.38,3.39l-1.53-1.12Zm7.3-23.26H7.26v-2.14h9.37v2.14Z"/><path d="M41.26,24.74l-6.35-4.66V5.18s-.01-.06-.02-.09V2.04c0-.28-.22-.5-.5-.5h-10.37c-.28,0-.5,.22-.5,.5V20.19s-.01,.07-.01,.11v3.33c-.05,2.02,.88,3.93,2.5,5.12l1.87,1.37s.02,0,.03,0l6.1,4.48c1.09,.8,2.36,1.19,3.62,1.19,1.89,0,3.75-.86,4.95-2.5,2-2.72,1.41-6.57-1.31-8.57Zm-6.66,9.07l-5.65-4.15c1-1.09,1.56-2.51,1.56-3.98,0-3.27-2.66-5.93-5.93-5.93-.02,0-.03,0-.05,0V5.68h9.39v14.64c0,.16,.08,.31,.2,.4l6.55,4.81c2.28,1.67,2.77,4.89,1.1,7.17-1.67,2.28-4.89,2.77-7.17,1.1ZM24.52,2.54h9.37v2.14h-9.37V2.54Zm2.08,25.4c-1.35-.99-2.13-2.59-2.09-4.38v-2.82s.04,0,.06,0c2.72,0,4.93,2.21,4.93,4.93,0,1.28-.49,2.46-1.38,3.39l-1.53-1.12Z"/></g><g id="uuid-59abb8c5-faa0-4378-adfe-71e787cd219b"><text transform="translate(.19 54.84)" font-family="Roboto-Regular, Roboto" font-size="6"><tspan x="0" y="0">socks</tspan></text></g></svg>