<?xml version="1.0" encoding="UTF-8"?><svg xmlns="http://www.w3.org/2000/svg" viewBox="0 0 50 50"><g id="uuid-89810363-06b0-426a-abdf-177c660eafea"><path d="M40.61,8.29h-15.77c-4.72,0-8.55,4.08-8.55,9.09,0,.56,.05,1.1,.15,1.63h-7.53C4.18,19.02,.34,23.12,.34,28.16c0,4.73,3.4,8.67,7.78,9.09l2.97,4.24c.09,.13,.25,.21,.41,.21s.32-.08,.41-.21l2.93-4.19h9.83c4.72,0,8.55-4.1,8.55-9.14,0-.57-.06-1.13-.15-1.68h1.59l2.93,4.17c.09,.13,.25,.21,.41,.21s.32-.08,.41-.21l2.97-4.22c4.38-.42,7.78-4.34,7.78-9.05,0-5.01-3.84-9.09-8.55-9.09Zm.09,17.38l-2.69,3.83-2.67-3.8c-.09-.13-.25-.21-.41-.21h-2.08c-1.07-3.74-4.33-6.46-8.18-6.46h-7.23c-.1-.53-.15-1.07-.15-1.63,0-4.46,3.39-8.09,7.55-8.09h15.77c4.16,0,7.55,3.63,7.55,8.09s-3.11,7.81-7.09,8.07c-.15,0-.29,.09-.38,.21Zm-8.48,2.49c0,4.49-3.39,8.14-7.55,8.14H14.58c-.16,0-.32,.08-.41,.21l-2.67,3.82-2.69-3.85c-.09-.12-.23-.2-.38-.21-3.97-.26-7.09-3.83-7.09-8.12s3.39-8.14,7.55-8.14h15.77c4.16,0,7.55,3.65,7.55,8.14Z" fill="#FFCD00"/></g><g id="uuid-ed2dc78a-3131-430e-9e1a-acc90a8c8dcd"><text transform="translate(-.28 54.86)" font-family="Roboto-Regular, Roboto" font-size="6"><tspan x="0" y="0">speech-bubble-two</tspan></text></g></svg>