<?xml version="1.0" encoding="UTF-8"?><svg xmlns="http://www.w3.org/2000/svg" viewBox="0 0 50 50"><g id="uuid-86f41406-19e1-4023-8a30-60a13f31553b"><g><path d="M20.35,9.27c-.25,0-.46-.18-.5-.44-.51-4.01,1.11-6.25,1.18-6.34,.16-.22,.48-.27,.7-.1,.22,.16,.27,.48,.1,.7h0s-1.45,2.03-.99,5.62c.03,.27-.16,.52-.43,.56-.02,0-.04,0-.06,0Z" fill="#FFCD00"/><path d="M20.26,22.82c-.11,0-.22-.04-.32-.11-1.48-1.23-1.09-5.04-1.04-5.47,.03-.27,.28-.47,.55-.44,.27,.03,.47,.28,.44,.55-.16,1.42-.13,3.92,.68,4.59,.21,.18,.24,.49,.07,.7-.1,.12-.24,.18-.39,.18Z" fill="#FFCD00"/><path d="M21.44,34.14c-.15,0-.3-.07-.4-.19-1.07-1.38-.71-3.69-.69-3.79,.05-.27,.3-.46,.57-.41,.27,.04,.46,.3,.41,.57,0,.02-.31,1.98,.49,3.01,.17,.22,.13,.53-.09,.7-.09,.07-.2,.11-.31,.11Z" fill="#FFCD00"/><path d="M20.15,24.79h0l6.71-.81c1.81,0,3.3-1.41,3.43-3.18h.39c1.17,0,2.13-.96,2.13-2.13v-.21c0-.61,.01-1.19-.38-1.58-.22-.23-.54-.34-.94-.34h-1.21c-.08-.98-.68-2.36-3.36-2.36h0l-6.83-.82c-1.81,0-3.3,1.41-3.43,3.18h-1.62c-.4,0-.72,.11-.94,.34-.39,.39-.38,.97-.38,1.58v.21c0,1.17,.96,2.13,2.13,2.13h.8c.13,1.87,1.61,4,3.48,4Zm-5.42-6.13v-.22c0-.33,0-.77,.09-.87,.02-.02,.09-.04,.23-.04h2.11c.28,0,.5-.22,.5-.5v-.25c0-1.34,1.09-2.44,2.38-2.44l6.83,.82c2.44,0,2.44,1.18,2.44,1.62v.25c0,.28,.22,.5,.5,.5h1.7c.15,0,.21,.03,.23,.04,.09,.09,.09,.54,.09,.87v.22c0,.62-.51,1.13-1.13,1.13h-.88c-.28,0-.5,.22-.5,.5v.25c0,1.34-1.09,2.44-2.5,2.44l-6.71,.81c-1.25,0-2.44-1.83-2.44-3.25v-.25c0-.28-.22-.5-.5-.5h-1.29c-.62,0-1.13-.51-1.13-1.13Z" fill="#FFCD00"/><path d="M18.03,33.95c.13,1.78,1.62,3.18,3.48,3.18h0l6.71-.81c2.75,0,3.35-1.38,3.43-2.37h.39c1.18,0,2.13-.96,2.13-2.13v-.21c0-.61,.01-1.19-.38-1.58-.22-.23-.54-.34-.94-.34h-1.21c-.13-1.87-1.58-3.96-3.49-3.99l-6.71,.81c-1.81,0-3.3,1.4-3.43,3.18h-.8c-.4,0-.71,.11-.94,.34-.39,.39-.38,.97-.38,1.58v.43c0,.61,0,1.19,.38,1.58,.22,.23,.54,.34,.94,.34h.8Zm-1.12-1.91v-.44c0-.33,0-.77,.09-.87,.02-.02,.08-.04,.23-.04h1.29c.28,0,.5-.22,.5-.5v-.25c0-1.34,1.09-2.44,2.5-2.44l6.71-.81c1.25,0,2.44,1.83,2.44,3.25v.25c0,.28,.22,.5,.5,.5h1.7c.14,0,.21,.02,.23,.04,.09,.09,.09,.54,.09,.87v.22c0,.62-.51,1.13-1.13,1.13h-.88c-.28,0-.5,.22-.5,.5v.25c0,.44,0,1.62-2.5,1.62l-6.71,.81c-1.34,0-2.44-1.09-2.44-2.44v-.25c0-.28-.22-.5-.5-.5h-1.29c-.15,0-.21-.03-.23-.04-.09-.09-.09-.54-.09-.86Z" fill="#FFCD00"/><path d="M16.29,8.1c.22,.23,.54,.34,.94,.34h.8c.13,1.77,1.61,3.18,3.35,3.18h0l6.02,.82c1.84,0,4.04-1.4,4.24-3.18h1.21c.4,0,.71-.11,.94-.34,.39-.39,.38-.97,.38-1.58v-.21c0-1.18-.96-2.13-2.13-2.13h-.39c-.13-1.76-1.58-3.15-3.37-3.18L21.57,.19s-.08-.01-.12-.01c-1.82,0-3.3,2.13-3.43,4h-.8c-.4,0-.71,.11-.94,.34-.39,.39-.38,.97-.38,1.58v.43c0,.61,0,1.19,.38,1.58Zm.62-2.01c0-.33,0-.77,.09-.87,.02-.02,.08-.04,.23-.04h1.29c.28,0,.5-.22,.5-.5v-.25c0-1.4,1.15-3.2,2.38-3.25l6.71,1.62s.08,.01,.12,.01c1.34,0,2.44,1.09,2.44,2.44v.25c0,.28,.22,.5,.5,.5h.88c.62,0,1.13,.51,1.13,1.13v.22c0,.33,0,.77-.09,.87-.02,.02-.08,.04-.23,.04h-1.7c-.28,0-.5,.22-.5,.5v.25c0,1.26-1.83,2.44-3.19,2.44l-6.02-.82c-1.34,0-2.44-1.09-2.44-2.44v-.25c0-.28-.22-.5-.5-.5h-1.29c-.15,0-.21-.03-.23-.04-.09-.09-.09-.54-.09-.87v-.44Z" fill="#FFCD00"/><path d="M35.31,42.92c-.18-.26-.47-.43-.87-.5l-.79-.14c.09-.84-.09-1.81-.5-2.65-.51-1.06-1.29-1.72-2.19-1.88-.04,0-.08,0-.12,0l-6.89,.44c-.88-.14-1.77,.07-2.51,.58-.68,.48-1.16,1.17-1.36,1.97l-.38-.07c-.56-.1-1.13,.03-1.59,.36s-.78,.82-.87,1.38l-.04,.21c-.11,.6-.21,1.17,.1,1.62,.18,.26,.47,.43,.87,.5l1.19,.21c-.05,.82,.31,1.68,1.06,2.45,.71,.73,1.67,1.26,2.64,1.43l5.94,.21c.2,.03,.4,.05,.6,.05,.7,0,1.38-.21,1.97-.63,.68-.48,1.16-1.17,1.36-1.97l.79,.14c.39,.07,.72,0,.98-.17,.45-.32,.54-.89,.64-1.49l.07-.42c.11-.6,.21-1.17-.1-1.62Zm-.88,1.44l-.08,.44c-.05,.32-.13,.76-.24,.84-.02,.01-.09,.03-.23,0l-1.27-.22c-.13-.02-.27,0-.37,.08-.11,.08-.18,.19-.21,.32l-.04,.24c-.11,.64-.47,1.2-1,1.57s-1.18,.52-1.89,.4l-5.94-.21c-.69-.12-1.46-.55-2.03-1.13-.58-.6-.86-1.26-.76-1.83l.04-.24c.02-.13,0-.27-.08-.37-.08-.11-.19-.18-.32-.21l-1.67-.29c-.13-.02-.2-.06-.22-.08-.08-.11,0-.55,.06-.87l.04-.22c.05-.3,.22-.56,.46-.73,.19-.14,.42-.21,.65-.21,.07,0,.13,0,.2,.02l.87,.15c.13,.02,.26,0,.37-.08,.11-.08,.18-.19,.21-.32l.04-.24c.11-.64,.47-1.2,1-1.57s1.18-.52,1.82-.41c.04,0,.08,0,.12,0l6.89-.44c.55,.12,1.06,.6,1.41,1.32,.35,.72,.5,1.6,.38,2.29l-.04,.24c-.05,.27,.13,.53,.41,.58l1.27,.22c.14,.02,.2,.06,.22,.08,.08,.11,0,.55-.06,.87Z" fill="#FFCD00"/><path d="M22.85,47.09c-.18,0-.36-.1-.45-.27-.05-.1-1.26-2.59-.07-6.45,.08-.26,.36-.41,.62-.33,.26,.08,.41,.36,.33,.63-1.06,3.46,0,5.69,.01,5.71,.12,.25,.02,.55-.23,.67-.07,.04-.15,.05-.22,.05Z" fill="#FFCD00"/></g></g><g id="uuid-027e2082-cd06-4e3f-9fb9-a1994f33b053"><text transform="translate(.16 55.11)" font-family="Roboto-Regular, Roboto" font-size="6"><tspan x="0" y="0">spine-</tspan><tspan x="16.06" y="0" letter-spacing="0em">v</tspan><tspan x="18.93" y="0">e</tspan><tspan x="22.11" y="0" letter-spacing=".02em">r</tspan><tspan x="24.28" y="0">teb</tspan><tspan x="32.79" y="0" letter-spacing="-.02em">r</tspan><tspan x="34.7" y="0">ae</tspan></text></g></svg>