<?xml version="1.0" encoding="UTF-8"?><svg id="uuid-5d600499-708b-4641-979c-c40029deb287" xmlns="http://www.w3.org/2000/svg" viewBox="0 0 50 50"><path d="M36.92,19.45c-.11-.13-.27-.2-.45-.18l-7,.82-8.32-2.81V2.91c0-.28-.22-.5-.5-.5h-5.76c-.28,0-.5,.22-.5,.5V15l-5.42-1.83c-.12-.04-.26-.03-.38,.03-.12,.06-.21,.16-.25,.29l-.56,1.67-.88-.3c-1.57-.53-3.28,.32-3.81,1.89L.62,24.07c-.53,1.57,.32,3.28,1.89,3.81l.88,.3-.56,1.67c-.04,.13-.03,.26,.03,.38,.06,.12,.16,.21,.29,.25l20.5,6.91,5.07,4.89c.09,.09,.22,.14,.35,.14,.04,0,.08,0,.12-.01,.17-.04,.3-.16,.36-.33l7.48-22.16c.05-.16,.02-.34-.08-.47ZM15.4,3.41h4.76V22.16c0,1.31-1.07,2.38-2.38,2.38s-2.38-1.07-2.38-2.38V3.41ZM2.83,26.93c-1.05-.35-1.62-1.5-1.26-2.55l2.47-7.32c.28-.84,1.07-1.37,1.91-1.37,.21,0,.43,.03,.64,.11l.88,.3-3.75,11.13-.88-.3Zm20.76,9.39L3.94,29.69l5.2-15.41,5.27,1.78v6.1c0,1.86,1.52,3.38,3.38,3.38s3.38-1.52,3.38-3.38v-3.82l7.63,2.57-5.2,15.41Zm5.25,4.7l-4.36-4.2,2.66-7.88,2.66-7.88,6.01-.71-6.97,20.66Z" fill="#FFCD00"/><path d="M49.19,35.56l-11.89-4.01c-.26-.09-.55,.05-.63,.31-.09,.26,.05,.55,.31,.63l11.89,4.01c.05,.02,.11,.03,.16,.03,.21,0,.4-.13,.47-.34,.09-.26-.05-.55-.31-.63Z" fill="#FFCD00"/><path d="M36.49,35.06c-.12-.25-.42-.35-.67-.23-.25,.12-.35,.42-.23,.67l5.85,11.81c.09,.18,.26,.28,.45,.28,.07,0,.15-.02,.22-.05,.25-.12,.35-.42,.23-.67l-5.85-11.81Z" fill="#FFCD00"/><path d="M38.3,29.09c.07,0,.15-.02,.22-.05l10.33-5.12c.25-.12,.35-.42,.23-.67-.12-.25-.42-.35-.67-.23l-10.33,5.12c-.25,.12-.35,.42-.23,.67,.09,.18,.26,.28,.45,.28Z" fill="#FFCD00"/></svg>