<?xml version="1.0" encoding="UTF-8"?><svg xmlns="http://www.w3.org/2000/svg" viewBox="0 0 50 50"><g id="uuid-09f3da86-9cb3-465c-8ff8-3ee43e7e8f12"><g><path d="M47.88,11.78h-11.63c-.28,0-.5,.22-.5,.5v6.14h-11.13c-.28,0-.5,.22-.5,.5v6.22H13c-.28,0-.5,.22-.5,.5v6.22H1.37c-.28,0-.5,.22-.5,.5v11.64c0,.28,.22,.5,.5,.5H47.88c.28,0,.5-.22,.5-.5V12.28c0-.28-.22-.5-.5-.5Zm-.5,31.71H1.87v-10.64H13c.28,0,.5-.22,.5-.5v-6.22h11.13c.28,0,.5-.22,.5-.5v-6.22h11.13c.28,0,.5-.22,.5-.5v-6.14h10.63v30.71Z" fill="#FFFFFF"/><path d="M7.36,16.32c.06,.11,.16,.18,.27,.22,.03,.01,.05,.03,.08,.04l7.89,2.4s.1,.02,.15,.02c.21,0,.41-.14,.48-.35,.08-.26-.07-.54-.33-.62l-6.79-2.07L28.33,5.7c.24-.13,.34-.43,.21-.68-.13-.25-.44-.34-.68-.21L8.55,15.12l2.09-6.86c.08-.26-.07-.54-.33-.62-.27-.08-.54,.07-.62,.33l-2.4,7.89c-.05,.15-.01,.3,.07,.42,0,.01,0,.03,.01,.04Z" fill="#FFFFFF"/></g></g><g id="uuid-f69f18d9-92d8-41c5-a380-75269372e10b"><text transform="translate(-.16 55.05)" font-family="Roboto-Regular, Roboto" font-size="6"><tspan x="0" y="0">stairs-down</tspan></text></g></svg>