<?xml version="1.0" encoding="UTF-8"?><svg xmlns="http://www.w3.org/2000/svg" viewBox="0 0 50 50"><g id="uuid-f125feb3-5558-4956-82ba-7dd18f228dde"><path d="M41.2,21.66c0-1.57-1.27-2.84-2.84-2.84s-2.84,1.27-2.84,2.84c0,1.36,.96,2.49,2.24,2.77l.12,16.67v.2c-.37,3.72-3.37,6.75-6.98,7.05-3.96,.31-7.65-2.7-8.23-6.69l-.06-14.47h4.88c.21,0,.39-.13,.47-.32l6.4-16.6c.11-.2,1.02-2.05,0-3.85-.66-1.15-1.75-1.61-2.16-1.74l-2.8-1.07s.01-.1,.01-.15c0-1.57-1.27-2.84-2.84-2.84s-2.84,1.27-2.84,2.84,1.27,2.84,2.84,2.84c1.16,0,2.16-.7,2.6-1.71l2.69,1.03c.33,.11,1.14,.45,1.63,1.3,.78,1.36,.02,2.83-.03,2.94l-6.3,16.33h-10.67L10.16,9.81c-.03-.06-.79-1.52,0-2.89,.49-.85,1.3-1.19,1.65-1.31l2.67-1.02c.44,1.01,1.44,1.71,2.6,1.71,1.57,0,2.84-1.27,2.84-2.84s-1.27-2.84-2.84-2.84-2.84,1.27-2.84,2.84c0,.05,.01,.09,.01,.14l-2.78,1.07c-.44,.14-1.53,.6-2.19,1.75-1.03,1.8-.12,3.65-.03,3.8l6.42,16.65c.07,.19,.26,.32,.47,.32h5.48l.06,14.54c.63,4.41,4.34,7.64,8.61,7.64,.23,0,.47,0,.7-.03,4.15-.34,7.47-3.69,7.9-8l-.12-16.88c1.38-.2,2.44-1.37,2.44-2.8ZM26.57,5.3c-1.01,0-1.84-.83-1.84-1.84s.82-1.84,1.84-1.84,1.84,.83,1.84,1.84-.82,1.84-1.84,1.84ZM17.08,1.63c1.01,0,1.84,.83,1.84,1.84s-.83,1.84-1.84,1.84-1.84-.83-1.84-1.84,.82-1.84,1.84-1.84Zm21.29,21.88c-1.01,0-1.84-.83-1.84-1.84s.83-1.84,1.84-1.84,1.84,.83,1.84,1.84-.82,1.84-1.84,1.84Z" fill="#FFFFFF"/></g><g id="uuid-a50597ba-c778-4025-9d0f-1d28b8cd64ce"><text transform="translate(.67 55.09)" font-family="Roboto-Regular, Roboto" font-size="6"><tspan x="0" y="0">stethoscope</tspan></text></g></svg>