<?xml version="1.0" encoding="UTF-8"?><svg xmlns="http://www.w3.org/2000/svg" viewBox="0 0 50 50"><g id="uuid-637081cd-cc51-4122-b4bd-d34f27efb610"><path d="M42.27,6.69c-1.77-1.71-3.92-2.62-6.01-2.54-3.72,.12-6.54,3.58-7.9,5.24-.08,.1-.17,.21-.25,.31-.21-.4-.53-.99-.89-1.66-1.32-2.47-3.29-6.16-3.48-6.53-.06-.12-.17-.21-.3-.25-.13-.04-.27-.02-.39,.05l-5.28,3.04c-.12,.07-.2,.18-.24,.31-.03,.13-.01,.27,.06,.38,0,0,6.34,10.34,6.63,10.81,.78,1.28,1.31,5.03,.35,7.99-.5,1.53-1.29,2.54-2.36,2.98-1.23,.51-2.9,.08-4.84-.42-3.12-.8-7-1.8-11.13,.66-3.58,2.14-4.93,6.99-5.41,9.7-.7,3.94-.49,8.23,.53,10.93,.07,.19,.26,.32,.47,.32h6.3c.16,0,.3-.07,.4-.2,.09-.12,.13-.29,.08-.44-.07-.26-.72-2.67-.95-5.77-.15-2,.12-4.61,1.33-5.91,.53-.57,1.18-.84,1.99-.84,1.56,0,2.88,1.3,4.41,2.8,2.32,2.27,5.21,5.11,10.33,4.91,10.32-.38,21.78-8.52,21.72-19.58-.05-9.39-2.85-14.05-5.19-16.3ZM25.7,41.57c-4.72,.17-7.3-2.38-9.6-4.63-1.69-1.66-3.14-3.09-5.11-3.09-1.09,0-2,.39-2.72,1.16-1.8,1.94-1.68,5.59-1.6,6.67,.17,2.36,.59,4.35,.82,5.33H2.18c-1.63-4.86-.88-15.84,4.57-19.09,3.77-2.25,7.28-1.35,10.37-.55,2.11,.54,3.93,1.01,5.47,.37,1.33-.55,2.35-1.8,2.93-3.6,.98-3.02,.57-7.15-.45-8.82-.25-.41-5.15-8.4-6.36-10.38l4.39-2.52c.61,1.14,2.15,4.03,3.24,6.08,.63,1.17,1.11,2.07,1.18,2.21,.08,.15,.25,.27,.42,.29,.36,.03,.56-.2,1.19-.98,1.26-1.55,3.9-4.76,7.16-4.87,1.83-.06,3.7,.74,5.28,2.26,2.2,2.12,4.84,6.54,4.88,15.59,.05,10.49-10.9,18.21-20.76,18.57Z"/></g><g id="uuid-29861f87-9343-4864-8aec-ff58115d779d"><text transform="translate(-.09 54.92)" font-family="Roboto-Regular, Roboto" font-size="6"><tspan x="0" y="0">s</tspan><tspan x="3.09" y="0" letter-spacing="0em">t</tspan><tspan x="5" y="0">omach</tspan></text></g></svg>