<?xml version="1.0" encoding="UTF-8"?><svg id="uuid-5dd906f9-a408-4fc1-a6a9-a2aaad155791" xmlns="http://www.w3.org/2000/svg" viewBox="0 0 50 50"><rect x="4.76" y="40.51" width="40.8" height="7.03" fill="none"/><path d="M27.25,22.29H15.84L5.16,39.51H45.17l-10.69-17.22h-7.23Zm-6.09,13.54c0,.62-.51,1.13-1.13,1.13h-.34c-.62,0-1.13-.51-1.13-1.13v-.34c0-.62,.51-1.13,1.13-1.13h.34c.62,0,1.13,.51,1.13,1.13v.34Zm0-4.81c0,.62-.51,1.13-1.13,1.13h-.34c-.62,0-1.13-.51-1.13-1.13v-.34c0-.62,.51-1.13,1.13-1.13h.34c.62,0,1.13,.51,1.13,1.13v.34Zm0-4.81c0,.62-.51,1.13-1.13,1.13h-.34c-.62,0-1.13-.51-1.13-1.13v-.34c0-.62,.51-1.13,1.13-1.13h.34c.62,0,1.13,.51,1.13,1.13v.34Zm4.93,9.62c0,.62-.51,1.13-1.13,1.13h-.34c-.62,0-1.13-.51-1.13-1.13v-.34c0-.62,.51-1.13,1.13-1.13h.34c.62,0,1.13,.51,1.13,1.13v.34Zm0-4.81c0,.62-.51,1.13-1.13,1.13h-.34c-.62,0-1.13-.51-1.13-1.13v-.34c0-.62,.51-1.13,1.13-1.13h.34c.62,0,1.13,.51,1.13,1.13v.34Zm0-4.81c0,.62-.51,1.13-1.13,1.13h-.34c-.62,0-1.13-.51-1.13-1.13v-.34c0-.62,.51-1.13,1.13-1.13h.34c.62,0,1.13,.51,1.13,1.13v.34Zm4.93,9.62c0,.62-.51,1.13-1.13,1.13h-.34c-.62,0-1.13-.51-1.13-1.13v-.34c0-.62,.51-1.13,1.13-1.13h.34c.62,0,1.13,.51,1.13,1.13v.34Zm0-4.81c0,.62-.51,1.13-1.13,1.13h-.34c-.62,0-1.13-.51-1.13-1.13v-.34c0-.62,.51-1.13,1.13-1.13h.34c.62,0,1.13,.51,1.13,1.13v.34Zm0-5.15v.34c0,.62-.51,1.13-1.13,1.13h-.34c-.62,0-1.13-.51-1.13-1.13v-.34c0-.62,.51-1.13,1.13-1.13h.34c.62,0,1.13,.51,1.13,1.13Z" fill="none"/><g><rect x="18.56" y="24.74" width="2.6" height="2.6" rx="1.13" ry="1.13" fill="#FFCD00"/><rect x="23.49" y="24.74" width="2.6" height="2.6" rx="1.13" ry="1.13" fill="#FFCD00"/><rect x="28.42" y="24.74" width="2.6" height="2.6" rx="1.13" ry="1.13" fill="#FFCD00"/><rect x="18.56" y="29.55" width="2.6" height="2.6" rx="1.13" ry="1.13" fill="#FFCD00"/><rect x="23.49" y="29.55" width="2.6" height="2.6" rx="1.13" ry="1.13" fill="#FFCD00"/><rect x="28.42" y="29.55" width="2.6" height="2.6" rx="1.13" ry="1.13" fill="#FFCD00"/><rect x="18.56" y="34.36" width="2.6" height="2.6" rx="1.13" ry="1.13" fill="#FFCD00"/><rect x="23.49" y="34.36" width="2.6" height="2.6" rx="1.13" ry="1.13" fill="#FFCD00"/><rect x="28.42" y="34.36" width="2.6" height="2.6" rx="1.13" ry="1.13" fill="#FFCD00"/><path d="M35.03,12.5l.04,3.8s0,.02,0,.04c.04,.41,.19,1.21,.86,1.89,.86,.88,1.97,.92,2.28,.92l7.91-.02c1.65,0,2.99-1.18,2.98-2.63-.07-5.74-.14-5.93-.16-5.98-.37-1.32-1.24-3.24-3.29-4.95-2.02-1.68-4.25-2.38-5.74-2.66-5.04-1.27-10.26-1.93-15.51-1.95-4.87,0-9.64,.5-14.31,1.54-1.68,.38-4.14,1.23-6.31,3.17-1.95,1.74-2.85,3.65-3.24,4.91-.04,.1-.11,.29-.16,6.03,0,.71,.33,1.38,.91,1.87,.56,.47,1.3,.74,2.07,.74h0l8.17-.02c.27,0,1.22-.1,1.9-.9,.45-.53,.57-1.12,.6-1.48v-4.42c3.55-.55,7.16-.83,10.76-.79,3.41,.03,6.85,.32,10.22,.88Zm-21.56-1.01c-.24,.04-.42,.25-.42,.49v4.8c-.02,.19-.09,.55-.36,.87-.43,.5-1.05,.55-1.16,.55l-8.15,.02h0c-.54,0-1.05-.18-1.43-.5-.36-.3-.56-.7-.56-1.11,.02-2.04,.06-5.41,.1-5.71,.37-1.17,1.19-2.91,2.97-4.5,2-1.79,4.29-2.58,5.86-2.94,4.52-1.01,9.17-1.52,13.84-1.52h.25c5.17,.02,10.3,.67,15.29,1.93,1.4,.27,3.46,.91,5.31,2.46,1.85,1.55,2.64,3.28,2.96,4.43,.05,.34,.11,3.71,.13,5.75,0,.89-.89,1.62-1.99,1.62l-7.92,.02c-.21,0-.97-.03-1.55-.62-.45-.46-.55-1.02-.58-1.26l-.05-4.2c0-.24-.18-.45-.42-.49-3.56-.61-7.19-.93-10.79-.96-3.8-.04-7.61,.26-11.35,.87Z" fill="#FFCD00"/><path d="M46.56,40.01s0-.02,0-.03c0-.07-.03-.14-.06-.2,0,0,0-.02,0-.03l-11.31-18.22c-.09-.15-.25-.24-.42-.24h-3.93v-4.39c0-.28-.22-.5-.5-.5h-3.07c-.28,0-.5,.22-.5,.5v4.39h-3.18v-4.39c0-.28-.22-.5-.5-.5h-3.07c-.28,0-.5,.22-.5,.5v4.39h-3.94c-.17,0-.33,.09-.42,.24L3.84,39.75s0,.02,0,.03c-.03,.06-.05,.13-.06,.2,0,0,0,.02,0,.03h0v8.04c0,.28,.22,.5,.5,.5H46.06c.28,0,.5-.22,.5-.5v-8.03h0ZM27.75,17.4h2.07v3.89h-2.07v-3.89Zm-7.25,2.47v-2.47h2.07v3.89h-2.07v-1.42Zm-4.66,2.42h18.64l10.69,17.22H5.16L15.84,22.29Zm29.72,25.25H4.76v-7.03H45.56v7.03Z" fill="#FFCD00"/></g></svg>