<?xml version="1.0" encoding="UTF-8"?><svg id="uuid-483cac05-1b2e-4414-a5c1-4fbcdae6fea2" xmlns="http://www.w3.org/2000/svg" viewBox="0 0 50 50"><path d="M10.93,26.67h.76v-.55c-.27,.2-.53,.39-.76,.55Z" fill="none"/><path d="M40.08,30.31c.65-1.06,1.35-1.85,1.89-2.39h-1.26v-1.25h1.26c-1.12-.76-2.77-2.06-4.19-4.12-.2-.3-.83-1.22-1.47-2.63-.6-1.33-1.49-3.73-1.81-7.15h-2.31c.79,5.26,3.09,9.6,6.14,11.82,0,.03-.02,.05-.02,.08v2.25c0,.15,.07,.28,.17,.37-1.92,2.41-3.19,6.27-3.28,10.66H15.13c.03,.32,.04,.66,.05,1h22.52c.08-2.52,.59-4.45,.99-5.65,.56-1.65,1.18-2.68,1.37-2.99Z" fill="none"/><path d="M10.93,27.92c.54,.55,1.24,1.34,1.89,2.39,.16,.26,.63,1.05,1.11,2.28-.49-1.81-1.2-3.4-2.08-4.67h-.93Z" fill="none"/><path d="M48.93,9.23c.28,0,.5-.22,.5-.5v-3.44c0-.28-.22-.5-.5-.5H1.07c-.28,0-.5,.22-.5,.5v3.44c0,.28,.22,.5,.5,.5h1.17v28.72H1.07c-.28,0-.5,.22-.5,.5v6.27c0,.28,.22,.5,.5,.5H48.93c.28,0,.5-.22,.5-.5v-6.27c0-.28-.22-.5-.5-.5h-1.17V9.23h1.17Zm-.5,29.72v5.27H1.57v-5.27H48.43Zm-45.18-1V9.23h2.74v28.72H3.24ZM32.1,12.27c.72,5.49,3.08,10.03,6.23,12.32,0,.03-.02,.05-.02,.08v2.25c0,.15,.07,.28,.17,.37-1.92,2.41-3.19,6.27-3.28,10.66H14.69c-.09-4.36-1.35-8.2-3.25-10.61,.14-.09,.24-.24,.24-.41v-2.25c0-.05-.01-.1-.03-.15,3.1-2.31,5.42-6.82,6.14-12.25h14.31Zm-14.21-1c.06-.67,.1-1.35,.11-2.04h13.89c.01,.69,.05,1.37,.11,2.04h-14.12Zm21.43,15.15v-1.25h3.59v1.25h-3.59Zm3.59,1v10.53h-6.72c.09-4.5,1.46-8.39,3.44-10.53h3.28Zm0-3.25h-3.44c-3.75-2.27-6.46-8.08-6.58-14.94h10.03v14.94Zm-32.48,0h-3.45V9.23h10.03c-.13,6.86-2.84,12.67-6.59,14.94Zm.25,1v1.25h-3.7v-1.25h3.7Zm-.42,2.25c1.98,2.14,3.34,6.03,3.44,10.53H6.99v-10.53h3.28Zm33.75,10.53V9.23h2.74v28.72h-2.74Zm3.24-29.72H1.57v-2.44H48.43v2.44h-1.17Z" fill="#FFFFFF"/></svg>