<?xml version="1.0" encoding="UTF-8"?><svg xmlns="http://www.w3.org/2000/svg" viewBox="0 0 50 50"><g id="uuid-2cb1f2e4-3611-4709-a953-441981cd88b9"><g><path d="M24.75,13.38c-.28,0-.5,.22-.5,.5v6.68h1v-6.68c0-.28-.22-.5-.5-.5Z" fill="none"/><path d="M16.82,17.44c-.27,.03-.47,.28-.44,.56l.31,2.57h1.01l-.33-2.69c-.03-.27-.28-.48-.56-.44Z" fill="none"/><path d="M32.68,17.44c-.28-.05-.52,.16-.56,.44l-.33,2.69h1.01l.31-2.57c.03-.27-.16-.52-.44-.56Z" fill="none"/><path d="M48.08,18.06h-7.91l2.28-12.27c.04-.19-.04-.39-.21-.5-.16-.11-.37-.12-.54-.02-1.37,.81-2.71,1.49-5.22,1.49-2.74,0-4.08-.8-5.49-1.66-1.47-.88-2.99-1.8-6.01-1.8s-4.54,.91-6.01,1.8c-1.42,.85-2.76,1.66-5.5,1.66s-4.08-.8-5.49-1.65l-.2-.12c-.17-.1-.38-.09-.54,.02-.16,.11-.24,.31-.21,.5l2.33,12.56H1.42c-.28,0-.5,.22-.5,.5v27.14c0,.28,.22,.5,.5,.5H48.08c.28,0,.5-.22,.5-.5V18.56c0-.28-.22-.5-.5-.5ZM8.23,6.4c1.27,.72,2.75,1.35,5.25,1.35,3.02,0,4.54-.91,6.01-1.8,1.42-.85,2.76-1.66,5.5-1.66s4.08,.8,5.5,1.66c1.47,.88,2.99,1.8,6.01,1.8,2.17,0,3.58-.48,4.79-1.1l-3.48,18.7h-5.58l.9-7.36c.03-.27-.16-.52-.44-.56-.28-.05-.52,.16-.56,.44l-.91,7.48h-5.96V13.88c0-.28-.22-.5-.5-.5s-.5,.22-.5,.5v11.47h-5.96l-.91-7.48c-.03-.27-.28-.48-.56-.44-.27,.03-.47,.28-.44,.56l.9,7.36h-5.53L8.23,6.4ZM47.58,45.2H1.92v-10.62H47.58v10.62Zm0-11.62H1.92v-14.52h7.65l1.17,6.29h-3.03c-.28,0-.5,.22-.5,.5s.22,.5,.5,.5H41.79c.28,0,.5-.22,.5-.5s-.22-.5-.5-.5h-2.97l1.17-6.29h7.59v14.52Z" fill="#FFFFFF"/></g></g><g id="uuid-8673186b-89d3-4c7b-bf4c-f29839f3ae31"><text transform="translate(-.38 54.91)" font-family="Roboto-Regular, Roboto" font-size="6"><tspan x="0" y="0">tissue</tspan></text></g></svg>