<?xml version="1.0" encoding="UTF-8"?><svg xmlns="http://www.w3.org/2000/svg" viewBox="0 0 50 50"><g id="uuid-5759b5c1-e3eb-4a5f-864e-793a6902bbf9"><path d="M40.44,4.42h-2.66V.97c0-.28-.22-.5-.5-.5H12.72c-.28,0-.5,.22-.5,.5v3.44h-2.66c-.28,0-.5,.22-.5,.5v3.47c0,.28,.22,.5,.5,.5h2.34l.82,7.33h-.7c-.14,0-.28,.06-.37,.17-.09,.11-.14,.25-.12,.39l2.05,18.38c.03,.25,.24,.44,.5,.44h.81l1.45,13c.03,.25,.24,.44,.5,.44h16.35c.25,0,.47-.19,.5-.44l1.45-13h.81c.25,0,.47-.19,.5-.44l2.05-18.38c.02-.14-.03-.28-.12-.39-.09-.11-.23-.17-.37-.17h-.7l.82-7.33h2.34c.28,0,.5-.22,.5-.5v-3.47c0-.28-.22-.5-.5-.5Zm-.5,3.47H10.06v-2.47h29.88v2.47ZM13.22,1.47h23.56v2.94H13.22V1.47Zm1.3,33.11l-1.94-17.38h24.84l-1.94,17.38H14.52Zm18.21,13.44h-15.45l-1.39-12.44h18.23l-1.39,12.44Zm3.55-31.82H13.73l-.82-7.33h24.18l-.82,7.33Z"/></g><g id="uuid-634b40bb-be6d-4bc5-b0cb-4d11c57e737d"><text transform="translate(.02 55.07)" font-family="Roboto-Regular, Roboto" font-size="6"><tspan x="0" y="0" letter-spacing="0em">t</tspan><tspan x="1.9" y="0">o-go-cup</tspan></text></g></svg>