<?xml version="1.0" encoding="UTF-8"?><svg xmlns="http://www.w3.org/2000/svg" viewBox="0 0 50 50"><g id="uuid-c6d522bd-dd0e-45a7-a93f-e6dd2461ada4"><path d="M40.34,40.12l-7.29-12.63c-.09-.15-.09-.35,0-.5s.25-.25,.43-.25h1.98l-6.89-11.93c-.09-.15-.09-.35,0-.5s.25-.25,.43-.25h1.51L24.59,3.79l-5.93,10.27h1.51c.18,0,.34,.1,.43,.25s.09,.35,0,.5l-6.89,11.93h1.99c.18,0,.34,.1,.43,.25s.09,.35,0,.5l-7.29,12.63h31.5Z" fill="#ffcd00"/><path d="M40.14,38.87l-7.29-12.63h1.98c.18,0,.34-.1,.43-.25s.09-.35,0-.5l-6.89-11.93h1.51c.18,0,.34-.1,.43-.25s.09-.35,0-.5L23.52,1.04c-.18-.31-.69-.31-.87,0l-6.8,11.77c-.09,.15-.09,.35,0,.5s.25,.25,.43,.25h1.51l-6.89,11.93c-.09,.15-.09,.35,0,.5s.25,.25,.43,.25h1.99l-7.29,12.63c-.09,.15-.09,.35,0,.5s.25,.25,.43,.25H22.59v9.11c0,.28,.22,.5,.5,.5s.5-.22,.5-.5v-9.11h16.11c.18,0,.34-.1,.43-.25s.09-.35,0-.5ZM23.09,19.7c-.28,0-.5,.22-.5,.5v18.42H7.34l7.29-12.63c.09-.15,.09-.35,0-.5s-.25-.25-.43-.25h-1.99l6.89-11.93c.09-.15,.09-.35,0-.5s-.25-.25-.43-.25h-1.51L23.09,2.29l5.93,10.27h-1.51c-.18,0-.34,.1-.43,.25s-.09,.35,0,.5l6.89,11.93h-1.98c-.18,0-.34,.1-.43,.25s-.09,.35,0,.5l7.29,12.63h-15.25V20.2c0-.28-.22-.5-.5-.5Z"/></g><g id="uuid-bb9040ea-bce9-4f14-a267-ae2a5a4bf3e2"><text transform="translate(-.13 54.69) scale(1.06 1)" font-family="Roboto-Regular, Roboto" font-size="5.64"><tspan x="0" y="0">t</tspan><tspan x="1.84" y="0" letter-spacing="0em">r</tspan><tspan x="3.7" y="0">ee-two</tspan></text></g></svg>