<?xml version="1.0" encoding="UTF-8"?><svg xmlns="http://www.w3.org/2000/svg" viewBox="0 0 50 50"><g id="uuid-3bdbfe44-6d79-4c6e-aa65-f7f87079b0c4"><path d="M39.76,4.28L24.14,.25c-.09-.02-.19-.02-.28,0L10.22,4.6c-.21,.07-.36,.27-.35,.5s.17,.42,.39,.47l2.49,.58s-.02,.06-.02,.09v5.21c-.34,.18-.59,.53-.59,.95,0,.06,0,.11,.01,.17,0,.04-.01,.08-.01,.12v1.79c0,.28,.22,.5,.5,.5h1.18c.28,0,.5-.22,.5-.5v-1.79s0-.07-.02-.11c.01-.06,.02-.12,.02-.18,0-.42-.24-.77-.59-.95V6.36l3.21,.74v-1.03l-4.68-1.08L24.03,1.25l13.71,3.54-4.68,1.36v1.04l6.71-1.95c.22-.06,.36-.26,.36-.49s-.16-.42-.38-.48Z" fill="#FFCD00"/><path d="M33.06,5.04c0-.23-.15-.42-.37-.48-2.51-.67-5.09-1.01-7.69-1.01h-.02c-2.59,0-5.17,.34-7.67,1.01-.22,.06-.37,.26-.37,.48v5.27c0,.15,.07,.3,.19,.39,.05,.04,.11,.04,.17,.06-.54,1.12-.86,2.38-.86,3.7,0,4.72,3.84,8.55,8.55,8.55s8.55-3.84,8.55-8.55c0-1.32-.31-2.57-.85-3.69,.06-.02,.11-.04,.16-.08,.12-.09,.19-.24,.19-.39V5.04Zm-8.06,16.98c-4.17,0-7.55-3.39-7.55-7.55,0-1.41,.4-2.73,1.07-3.86,2.17-.44,4.38-.66,6.6-.66,2.14,0,4.27,.24,6.36,.66,.68,1.13,1.08,2.45,1.08,3.86,0,4.17-3.39,7.55-7.55,7.55Zm.12-13.08c-2.4,0-4.82,.24-7.18,.75V5.42c2.3-.58,4.67-.88,7.04-.88h.02c2.38,0,4.75,.3,7.06,.88v4.26c-2.28-.49-4.61-.74-6.94-.75Z" fill="#FFCD00"/><path d="M30.72,24.07h-11.45c-4.43,.22-7.9,3.86-7.9,8.29v16.16c0,.28,.22,.5,.5,.5h26.24c.28,0,.5-.22,.5-.5v-16.16c0-4.43-3.47-8.07-7.9-8.29Zm-1.05,1l-4.71,6.06-4.65-6.06h9.36Zm-11.74,8.34c-.28,0-.5,.22-.5,.5v14.11h-5.06v-15.66c0-3.82,2.93-6.96,6.69-7.27l5.39,7.03v15.9h-6.03v-14.11c0-.28-.22-.5-.5-.5Zm19.68,14.61h-4.99v-14.11c0-.28-.22-.5-.5-.5s-.5,.22-.5,.5v14.11h-6.17v-15.9l5.46-7.03c3.77,.32,6.69,3.46,6.69,7.27v15.66Z" fill="#FFCD00"/></g><g id="uuid-60f5644c-8849-4f01-bf69-88f5ca8a9933"><text transform="translate(.63 54.9)" font-family="Roboto-Regular, Roboto" font-size="6"><tspan x="0" y="0">unde</tspan><tspan x="13.18" y="0" letter-spacing="0em">r</tspan><tspan x="15.16" y="0">g</tspan><tspan x="18.52" y="0" letter-spacing="-.02em">r</tspan><tspan x="20.43" y="0">aduate</tspan></text></g></svg>