<?xml version="1.0" encoding="UTF-8"?><svg id="uuid-6f4e96e1-cd39-4071-8fab-5a8a0051e9c6" xmlns="http://www.w3.org/2000/svg" viewBox="0 0 50 50"><path d="M43.44,36.5h-5.44c-.28,0-.5,.22-.5,.5v4.32H11.74v-4.32c0-.28-.22-.5-.5-.5H5.81c-.28,0-.5,.22-.5,.5v9.64c0,.28,.22,.5,.5,.5H43.44c.28,0,.5-.22,.5-.5v-9.64c0-.28-.22-.5-.5-.5Zm-.5,9.64H6.31v-8.64h4.44v4.32c0,.28,.22,.5,.5,.5h26.76c.28,0,.5-.22,.5-.5v-4.32h4.44v8.64Z" fill="#FFCD00"/><path d="M15.3,18.61c.09,.09,.22,.15,.35,.15,.16,.04,.26-.05,.35-.15l5.25-5.25v23.63c0,.28,.22,.5,.5,.5h5.5c.28,0,.5-.22,.5-.5V13.37l4.81,4.81c.09,.09,.22,.15,.35,.15h0c.13,0,.26-.05,.35-.15l3.87-3.9c.19-.2,.19-.51,0-.71L26.48,2.91c-.53-.53-1.25-.8-1.98-.81-.75,0-1.46,.27-1.99,.81L11.42,14c-.19,.19-.2,.51,0,.71l3.87,3.9ZM23.22,3.62c.34-.34,.77-.52,1.29-.51,.48,0,.93,.17,1.27,.51l10.3,10.3-3.17,3.19-5.3-5.3c-.14-.14-.36-.19-.54-.11-.19,.08-.31,.26-.31,.46v24.34h-4.5V12.16c0-.2-.12-.38-.31-.46-.19-.08-.4-.03-.54,.11l-5.74,5.74-3.17-3.19L23.22,3.62Z" fill="#FFCD00"/></svg>