<?xml version="1.0" encoding="UTF-8"?><svg id="uuid-fac5f817-6512-4067-a8de-442e8a0ec70b" xmlns="http://www.w3.org/2000/svg" viewBox="0 0 50 50"><path d="M4.09,42.33L23.07,6.78c.64-1.19,1.82-1.91,3.18-1.91,.61,0,1.18,.15,1.68,.42h0c-.64-1.2-1.83-1.92-3.18-1.92s-2.54,.71-3.18,1.91L2.59,40.83c-.6,1.13-.57,2.45,.09,3.55,.35,.58,.84,1.03,1.41,1.33-.57-1.06-.58-2.31,0-3.38Z" fill="none"/><path d="M43.73,47.13c1.63,0,3.11-.84,3.95-2.24,.51-.84,.72-1.79,.64-2.73-.05-.62-.22-1.23-.53-1.8L28.81,4.81c-.81-1.52-2.33-2.43-4.06-2.43s-3.25,.91-4.06,2.43L1.71,40.36c-.77,1.44-.73,3.13,.11,4.53,.78,1.29,2.1,2.1,3.58,2.21,.12,0,.24,.02,.37,.02H43.73ZM2.68,44.38c-.66-1.1-.69-2.42-.09-3.55L21.57,5.28c.64-1.19,1.82-1.91,3.18-1.91s2.54,.71,3.18,1.91h0l18.98,35.55c.6,1.13,.57,2.45-.09,3.55-.66,1.09-1.81,1.75-3.09,1.75H5.77c-.6,0-1.17-.15-1.67-.41-.57-.3-1.07-.75-1.41-1.33Z"/><path d="M28.16,13.71h-6.82c-.14,0-.27,.06-.36,.16s-.14,.23-.14,.37l1.02,20.48c.01,.27,.23,.47,.5,.47h4.78c.27,0,.49-.21,.5-.48l1.02-20.48c0-.14-.04-.27-.14-.37s-.23-.16-.36-.16Zm-1.49,20.48h-3.83l-.97-19.48h5.77l-.97,19.48Z" fill="none"/><path d="M24.75,36.68c-1.88,0-3.4,1.53-3.4,3.4s1.53,3.4,3.4,3.4,3.4-1.53,3.4-3.4-1.53-3.4-3.4-3.4Zm0,5.81c-1.33,0-2.4-1.08-2.4-2.4s1.08-2.4,2.4-2.4,2.4,1.08,2.4,2.4-1.08,2.4-2.4,2.4Z" fill="none"/><path d="M28.16,13.71h-6.82c-.14,0-.27,.06-.36,.16s-.14,.23-.14,.37l1.02,20.48c.01,.27,.23,.47,.5,.47h4.78c.27,0,.49-.21,.5-.48l1.02-20.48c0-.14-.04-.27-.14-.37s-.23-.16-.36-.16Zm-1.49,20.48h-3.83l-.97-19.48h5.77l-.97,19.48Z" fill="none"/><path d="M24.75,36.68c-1.88,0-3.4,1.53-3.4,3.4s1.53,3.4,3.4,3.4,3.4-1.53,3.4-3.4-1.53-3.4-3.4-3.4Zm0,5.81c-1.33,0-2.4-1.08-2.4-2.4s1.08-2.4,2.4-2.4,2.4,1.08,2.4,2.4-1.08,2.4-2.4,2.4Z" fill="none"/><path d="M24.75,36.68c-1.88,0-3.4,1.53-3.4,3.4s1.53,3.4,3.4,3.4,3.4-1.53,3.4-3.4-1.53-3.4-3.4-3.4Zm0,5.81c-1.33,0-2.4-1.08-2.4-2.4s1.08-2.4,2.4-2.4,2.4,1.08,2.4,2.4-1.08,2.4-2.4,2.4Z"/><path d="M22.36,35.19h4.78c.27,0,.49-.21,.5-.48l1.02-20.48c0-.14-.04-.27-.14-.37s-.23-.16-.36-.16h-6.82c-.14,0-.27,.06-.36,.16s-.14,.23-.14,.37l1.02,20.48c.01,.27,.23,.47,.5,.47Zm5.28-20.48l-.97,19.48h-3.83l-.97-19.48h5.77Z"/></svg>