<?xml version="1.0" encoding="UTF-8"?><svg xmlns="http://www.w3.org/2000/svg" viewBox="0 0 50 50"><g id="uuid-66361d56-9dca-4817-846a-97549f116f5e"><g><path d="M39.52,25.32s-.03-.07-.04-.1l-.04-.08c-.21-.41-.45-.81-.68-1.18L25.18,.47c-.18-.31-.69-.31-.87,0L10.77,23.94c-.25,.39-.48,.79-.68,1.18l-.05,.09s-.03,.07-.04,.1c-1.17,2.33-1.77,4.83-1.77,7.42,0,9.12,7.42,16.53,16.53,16.53s16.53-7.42,16.53-16.53c0-2.59-.59-5.08-1.77-7.41Zm-14.77,22.95c-8.56,0-15.53-6.97-15.53-15.53,0-2.46,.57-4.83,1.7-7.04,0-.02,.02-.04,.03-.06l.02-.03c.2-.38,.42-.76,.66-1.14L24.75,1.72l13.14,22.75c.23,.37,.45,.74,.66,1.14v.02s.02,.04,.03,.06c1.13,2.21,1.7,4.58,1.7,7.04,0,8.56-6.97,15.53-15.53,15.53Z" fill="#FFFFFF"/><path d="M13.22,33.73c-.22-2.9,.82-5.15,1.46-6.23,.14-.24,.06-.54-.17-.68-.24-.14-.54-.06-.69,.17-.7,1.18-1.84,3.64-1.59,6.81,.26,3.38,1.93,5.72,2.9,6.81,.1,.11,.24,.17,.37,.17,.12,0,.24-.04,.33-.13,.21-.18,.23-.5,.04-.71-.89-1-2.41-3.14-2.65-6.23Z" fill="#FFFFFF"/></g></g><g id="uuid-fe085321-c0e4-4ea7-8b30-61de728731ab"><text transform="translate(.39 54.88)" font-family="Roboto-Regular, Roboto" font-size="6"><tspan x="0" y="0">water-d</tspan><tspan x="19.98" y="0" letter-spacing="0em">r</tspan><tspan x="21.95" y="0">op</tspan></text></g></svg>