<svg xmlns="http://www.w3.org/2000/svg" viewBox="0 0 50 50"><defs><style>.cls-1{font-size:6px;font-family:Roboto-Regular, Roboto;}.cls-2{letter-spacing:-0.01em;}</style></defs><g id="ICONS"><path d="M24.62.84a12.13,12.13,0,0,0-12.21,12v22.4a14,14,0,0,0,.36,3.12c1.34,5.91,6.21,10,11.85,10,6.74,0,12.22-5.9,12.22-13.16V12.85A12.13,12.13,0,0,0,24.62.84ZM13.82,38.45,25,29.37,35.84,20.5V35.25c0,6.71-5,12.16-11.22,12.16A11.36,11.36,0,0,1,13.82,38.45ZM24.62,1.84a11.13,11.13,0,0,1,11.22,11v6.36l-4.19,3.42a5.81,5.81,0,0,0-3.15-1.1H20.72a5.69,5.69,0,0,0-3.11,1.09l-4.2-3.41V12.85A11.13,11.13,0,0,1,24.62,1.84ZM13.41,35.25V20.5L23.84,29,13.59,37.35A12.68,12.68,0,0,1,13.41,35.25Zm11.23-6.91-6.21-5.05a4.64,4.64,0,0,1,2.32-.76h7.73a4.74,4.74,0,0,1,2.35.76Z"/><path d="M24.62,19.86a7.76,7.76,0,1,0,0-15.52h-.05a7.76,7.76,0,0,0,.05,15.52ZM24.49,5.35v0a.91.91,0,0,1,.63,1,.9.9,0,0,1-.39.55A.91.91,0,0,1,24,7a.5.5,0,0,0-.21,1,2,2,0,0,0,.42.05,1.94,1.94,0,0,0,1.06-.32A1.83,1.83,0,0,0,26,5.48a6.81,6.81,0,1,1-1.51-.13Z"/></g><g id="LABELS"><text class="cls-1" transform="translate(-0.1 55.02)">ba<tspan class="cls-2" x="6.63" y="0">b</tspan><tspan x="9.96" y="0">y</tspan></text></g></svg>