<svg xmlns="http://www.w3.org/2000/svg" viewBox="0 0 50 50"><g id="b1313e38-fb5b-4507-852e-8e6db788a866" data-name="ICONS"><path d="M32.39,6.41a.5.5,0,0,0,.5-.5V.62a.5.5,0,1,0-1,0V5.91A.5.5,0,0,0,32.39,6.41Z"/><path d="M39.65,11.43,45.48,5a.5.5,0,1,0-.74-.67l-5.83,6.42a.49.49,0,0,0,0,.7.46.46,0,0,0,.33.13A.49.49,0,0,0,39.65,11.43Z"/><path d="M46.79,19.61l-7-.56a.5.5,0,1,0-.08,1l7.05.57h0a.5.5,0,0,0,.5-.46A.51.51,0,0,0,46.79,19.61Z"/><path d="M29.27,10.26a2.46,2.46,0,0,0-.65-1.46,2.51,2.51,0,0,0-3.55-.15l-5.34,4.9a2.45,2.45,0,0,0-.66-1.45,2.47,2.47,0,0,0-1.74-.82,2.59,2.59,0,0,0-1.81.66l-5.24,4.82a.47.47,0,0,0-.12.13l-.11.1-.21.17A10.61,10.61,0,0,0,6.6,26.82L2.91,30.21a.49.49,0,0,0,0,.7l3.86,4.2a11,11,0,0,0,.15,2.35L3.2,40.85a.5.5,0,0,0-.16.34.52.52,0,0,0,.13.36l7.31,8a.54.54,0,0,0,.37.16.53.53,0,0,0,.34-.13l3.94-3.62a10.53,10.53,0,0,0,9.3-2.56,1.7,1.7,0,0,0,.19-.19l.09-.09a.83.83,0,0,0,.16-.12l7.66-7a2.47,2.47,0,0,0,.82-1.74,2.53,2.53,0,0,0-.67-1.81,2.43,2.43,0,0,0-1.39-.77l2.92-2.68A2.52,2.52,0,0,0,33,24.6l.26-.23A2.55,2.55,0,0,0,34,22.62a2.49,2.49,0,0,0-.66-1.8A2.44,2.44,0,0,0,32,20.06l1.93-1.77a2.53,2.53,0,0,0,.15-3.56,2.57,2.57,0,0,0-1.4-.77l.26-.23a2.51,2.51,0,0,0,.15-3.55A2.51,2.51,0,0,0,29.53,10ZM6.88,33.79,4,30.61l3.52-3.24a.49.49,0,0,0,.15-.47,9.5,9.5,0,0,1,2.89-9l.15-.13.19-.16.1-.12,5.24-4.81a1.47,1.47,0,0,1,1.09-.4,1.53,1.53,0,0,1,1.05.49,1.5,1.5,0,0,1,.07,2L14,18.78a.51.51,0,0,0-.05.69,4,4,0,0,1,.9,1.86A3.69,3.69,0,0,1,14.24,24l-3.67,3.37-.12.14-.1.09a1.24,1.24,0,0,0-.22.18A10.45,10.45,0,0,0,6.88,33.79Zm25.75-12.3a1.51,1.51,0,0,1-.09,2.14l-1.73,1.59-9.09,8.34a.5.5,0,0,0,0,.71.49.49,0,0,0,.37.16.5.5,0,0,0,.34-.13L31.48,26a1.51,1.51,0,1,1,2.05,2.23l-4.37,4,0,0-1.32,1.21h0l-.85.78h0l-2.51,2.3a.5.5,0,0,0,0,.71.46.46,0,0,0,.36.16.48.48,0,0,0,.34-.13L27.63,35h0l2.18-2a1.51,1.51,0,0,1,2.14.09,1.55,1.55,0,0,1,.4,1.09,1.57,1.57,0,0,1-.49,1.05l-7.72,7.07-.12.1-.12.12s-.09.1-.15.15a9.55,9.55,0,0,1-8.66,2.26.52.52,0,0,0-.45.12l-3.76,3.45L4.25,41.24,7.77,38a.49.49,0,0,0,.15-.47,9.5,9.5,0,0,1,2.89-9L11,28.4l.18-.16.1-.11,5.24-4.81a1.53,1.53,0,0,1,2.14.09,1.5,1.5,0,0,1,.06,2s0,0,0,.06l-5.53,5.11a.5.5,0,0,0,.34.86.46.46,0,0,0,.33-.13l5.65-5.21h0L26,20a1.51,1.51,0,1,1,2.05,2.23h0L19,30.6a.48.48,0,0,0,0,.7.47.47,0,0,0,.7,0L28.76,23l1.73-1.59a1.45,1.45,0,0,1,1.09-.4A1.51,1.51,0,0,1,32.63,21.49Zm.71-6.08a1.5,1.5,0,0,1,.39,1.09,1.47,1.47,0,0,1-.49,1.05L30,20.49l-.22.17-.26.24a2.49,2.49,0,0,0-2-2.22l3.65-3.36h0A1.53,1.53,0,0,1,33.34,15.41Zm-1-4.56A1.51,1.51,0,0,1,32.25,13l-1.73,1.59h0l-5,4.54c-.06.05-.14.1-.2.16L20,24.19a2.48,2.48,0,0,0-.66-1.46,2.51,2.51,0,0,0-3.52-.17,4.2,4.2,0,0,0,0-1.41A4.93,4.93,0,0,0,15,19.21l4.06-3.72.12-.07,6.58-6a1.51,1.51,0,0,1,2.05,2.23h0L18.71,20a.5.5,0,0,0,0,.71.5.5,0,0,0,.36.16.51.51,0,0,0,.34-.13l9.09-8.35h0l1.73-1.59A1.53,1.53,0,0,1,32.34,10.85Z"/></g><g id="abeba3d5-4ba8-4bc8-a98f-999303ad8229" data-name="LABELS"><text transform="translate(-0.05 55.07)" font-size="6" font-family="Roboto-Regular, Roboto">clapping</text></g></svg>