<svg xmlns="http://www.w3.org/2000/svg" viewBox="0 0 50 50"><g id="e31fadd7-4c30-4a0b-be35-bf515b5d1f18" data-name="ICONS"><path d="M6.09,7.46h5v-6C9.2,1.82,7.45,4.05,6.09,7.46Z" fill="none"/><path d="M12.11,1.37V7.46h5.27C16,3.9,14.11,1.62,12.11,1.37Z" fill="none"/><path d="M25.9,31.24h.45V26.36H22.8A37.39,37.39,0,0,1,25.9,31.24Z" fill="none"/><path d="M18.59,22.09A20.49,20.49,0,0,1,22,25.36h4.34V20.49H18.69C18.65,21,18.62,21.55,18.59,22.09Z" fill="none"/><path d="M18.77,19.49h7.58V14.61H19.43C19.15,16.15,18.92,17.79,18.77,19.49Z" fill="none"/><path d="M29.7,39.69a71.22,71.22,0,0,1,2.12,7.21l.05,0a6.29,6.29,0,0,0,1.84-3.75A130,130,0,0,1,36,28.52l.18-.86a59.46,59.46,0,0,1,4.6-14.24c.69-1.41,1.44-2.8,2.25-4.12l.09-.16a3.08,3.08,0,0,0-.51.26A42.06,42.06,0,0,0,32.05,22a43.84,43.84,0,0,0-4.52,12.44c.43.92.85,1.85,1.23,2.8C28.76,37.27,29.26,38.47,29.7,39.69Z" fill="none"/><path d="M27.84,37.65c-.44-1.06-.9-2.12-1.39-3.13-3.58-7.55-6.69-10.39-9-12A22.19,22.19,0,0,0,12.85,20a13.55,13.55,0,0,0-2.78-.79l-.87-.13a13.36,13.36,0,0,1,3.56,2.45c.32.31.62.63.91,1a15.51,15.51,0,0,1,1.81,2.88,78.55,78.55,0,0,1,5.29,17.14,7.12,7.12,0,0,0,1.63,3.59,6.67,6.67,0,0,0,4.79,2.21A6.53,6.53,0,0,0,31,47.55,72.24,72.24,0,0,0,28.76,40C28.32,38.83,27.84,37.65,27.84,37.65Z" fill="none"/><path d="M27.35,25.36h2c.56-1.29,1.16-2.57,1.83-3.81.2-.36.41-.71.62-1.06H27.35Z" fill="none"/><path d="M27.35,14.61v4.88h5A41.53,41.53,0,0,1,34.77,16l-.24-1.42Z" fill="none"/><path d="M27.35,31a47,47,0,0,1,1.57-4.65H27.35Z" fill="none"/><path d="M44.16,8.32c-.35-.45-1.1-.36-2.07.25L42,8.6A42.83,42.83,0,0,0,35.63,15C34.18,6.44,30.89.63,27,.63H26.8c-4.76.22-8.55,9-9.18,20.76a23.42,23.42,0,0,0-4.41-2.3,15.05,15.05,0,0,0-3-.84,16,16,0,0,0-4.09-.16.51.51,0,0,0-.45.46.5.5,0,0,0,.38.53,12.76,12.76,0,0,1,6,3.2,10.06,10.06,0,0,1,.84.89,14.57,14.57,0,0,1,1.67,2.67,77.94,77.94,0,0,1,5.22,16.87,8,8,0,0,0,1.86,4.09,7.65,7.65,0,0,0,5.49,2.55h.63a7.06,7.06,0,0,0,4-1.16l0,0a5.54,5.54,0,0,0,.72-.58,7.31,7.31,0,0,0,2.15-4.36A130.35,130.35,0,0,1,37,28.73l.18-.87a58.57,58.57,0,0,1,4.52-14c.67-1.37,1.41-2.74,2.19-4C44.33,9.17,44.42,8.66,44.16,8.32ZM27.35,1.65c2,.26,3.85,2.53,5.27,6.09H27.35Zm0,7.09H33a39.18,39.18,0,0,1,1.33,4.87h-7Zm0,5.87h7.18L34.77,16a41.53,41.53,0,0,0-2.38,3.46h-5Zm0,5.88h4.44c-.21.35-.42.7-.62,1.06-.67,1.24-1.27,2.52-1.83,3.81h-2Zm0,5.87h1.57A47,47,0,0,0,27.35,31Zm-1-24.66v6h-5C22.7,4.33,24.45,2.1,26.35,1.7ZM21,8.74h5.39v4.87H19.62A37.47,37.47,0,0,1,21,8.74Zm-1.53,5.87h6.92v4.88H18.77C18.92,17.79,19.15,16.15,19.43,14.61Zm-.74,5.88h7.66v4.87H22a20.49,20.49,0,0,0-3.42-3.27C18.62,21.55,18.65,21,18.69,20.49Zm7.66,5.87v4.88H25.9a37.39,37.39,0,0,0-3.1-4.88Zm.84,22a6.67,6.67,0,0,1-4.79-2.21,7.12,7.12,0,0,1-1.63-3.59,78.55,78.55,0,0,0-5.29-17.14,15.51,15.51,0,0,0-1.81-2.88c-.29-.34-.59-.66-.91-1A13.36,13.36,0,0,0,9.2,19.12l.87.13a13.55,13.55,0,0,1,2.78.79,22.19,22.19,0,0,1,4.61,2.45c2.3,1.64,5.41,4.48,9,12,.49,1,.95,2.07,1.39,3.13,0,0,.48,1.18.92,2.38A72.24,72.24,0,0,1,31,47.55,6.53,6.53,0,0,1,27.19,48.36ZM43.06,9.3c-.81,1.32-1.56,2.71-2.25,4.12a59.46,59.46,0,0,0-4.6,14.24l-.18.86a130,130,0,0,0-2.32,14.59,6.29,6.29,0,0,1-1.84,3.75l-.05,0a71.22,71.22,0,0,0-2.12-7.21c-.44-1.22-.94-2.42-.94-2.42-.38-1-.8-1.88-1.23-2.8A43.84,43.84,0,0,1,32.05,22,42.06,42.06,0,0,1,42.64,9.4a3.08,3.08,0,0,1,.51-.26Z"/></g><g id="beae9fee-1918-45fd-b83e-b204e7f5ce2d" data-name="LABELS"><text transform="translate(-0.07 54.91)" font-size="6" font-family="Roboto-Regular, Roboto">corn</text></g></svg>