<svg xmlns="http://www.w3.org/2000/svg" viewBox="0 0 50 50"><defs><style>.cls-1{font-size:6px;font-family:Roboto-Regular, Roboto;}</style></defs><g id="ICONS"><path d="M24.39,40.87v.05h.06Z"/><path d="M48.59,2.46H37.19L28.36,1a.52.52,0,0,0-.4.11.53.53,0,0,0-.18.39v1H22.22v-1A.53.53,0,0,0,22,1.07a.52.52,0,0,0-.4-.11l-8.83,1.5H1.41a.5.5,0,0,0-.5.5V44.89a.5.5,0,0,0,.5.5H3.78a.51.51,0,0,0,.36.28l17.5,3h.08a.51.51,0,0,0,.5-.5V45.39h5.56v2.75a.51.51,0,0,0,.5.5h.08l17.5-3a.51.51,0,0,0,.36-.28h2.37a.5.5,0,0,0,.5-.5V3A.5.5,0,0,0,48.59,2.46Zm-44.87,2v40H1.91V3.46h5l-2.76.46A.51.51,0,0,0,3.72,4.42Zm17.5,43.12L4.72,44.75V4.84l16.5-2.79Zm6.56-3.15H22.22V3.46h5.56Zm17.5.36-16.5,2.79V2.05l16.5,2.79Zm2.81-.36H46.28v-40a.51.51,0,0,0-.42-.5L43.1,3.46h5Z"/><ellipse cx="18.49" cy="26.43" rx="1.17" ry="1.83"/><ellipse cx="31.51" cy="26.43" rx="1.17" ry="1.83"/></g><g id="LABELS"><text class="cls-1" transform="translate(0.08 54.89)">doors-open-two</text></g></svg>