<svg xmlns="http://www.w3.org/2000/svg" viewBox="0 0 50 50"><g id="ea606788-a92b-4fbc-83d6-da92fba96b7b" data-name="ICONS"><path d="M25.27,31.85s0-.06,0-.09,0,.06,0,.09Z"/><path d="M45.49,18.48a7.82,7.82,0,0,0-14.67-3.76,7.71,7.71,0,0,0-5-2.41c0-.3,0-.84-.05-1.54a.31.31,0,0,0,.13,0H26a8.89,8.89,0,0,0,4.48-2.3C32.9,6,32.84,2.15,32.84,2a.52.52,0,0,0-.5-.49c-.17,0-4,.07-6.44,2.55A7.54,7.54,0,0,0,24.58,6,8.07,8.07,0,0,0,22.3,3c-3.91-3.08-6.39-1.64-6.5-1.58a.51.51,0,0,0-.17.68.51.51,0,0,0,.69.18c.08,0,2-1.12,5.36,1.51a7.56,7.56,0,0,1,2.38,3.59.48.48,0,0,0,.1.28,15.45,15.45,0,0,1,.66,4.63,7.79,7.79,0,0,0-6,3.24,7.82,7.82,0,1,0-8,10.82,7.82,7.82,0,0,0,6.77,11.93,7.82,7.82,0,1,0,15.3,2.27,7.56,7.56,0,0,0-.31-2.18,7.83,7.83,0,0,0,7.75-7.82A7.7,7.7,0,0,0,39,26.19,7.8,7.8,0,0,0,45.49,18.48ZM26.62,4.73a8.74,8.74,0,0,1,5.2-2.2,8.63,8.63,0,0,1-2.05,5.26,7.85,7.85,0,0,1-4,2l-.13,0a14,14,0,0,0-.56-2.55A6.88,6.88,0,0,1,26.62,4.73ZM19.29,16.62a6.79,6.79,0,0,1,11.25-.68s0,0,.06,0h0a6.7,6.7,0,0,1,1.26,3.94,6.77,6.77,0,0,1-.64,2.88,7.85,7.85,0,0,0-6.31,5.55,7.84,7.84,0,0,0-5.8-5.54l.06,0a6.77,6.77,0,0,1,.13-6.17ZM24.9,32.71h0l0-.09S24.89,32.68,24.9,32.71ZM4.76,18.57a6.81,6.81,0,0,1,13.37-1.85A7.73,7.73,0,0,0,18,22.66c-.22,0-.43,0-.65,0a7.78,7.78,0,0,0-6,2.76A6.81,6.81,0,0,1,4.76,18.57ZM17.43,37.28a6.81,6.81,0,0,1-5.31-11.09.58.58,0,0,0,.05-.14A6.8,6.8,0,0,1,23.76,32.8a7.76,7.76,0,0,0-5.87,4.46ZM25,47.36a6.82,6.82,0,0,1-6.3-9.43.51.51,0,0,0,0-.21,6.81,6.81,0,0,1,12.66.61h0a6.65,6.65,0,0,1,.38,2.23A6.82,6.82,0,0,1,25,47.36ZM39.29,30.55a6.83,6.83,0,0,1-6.82,6.82l-.38,0A7.78,7.78,0,0,0,26,32.79a6.67,6.67,0,0,1-.39-2.26,6.82,6.82,0,0,1,12.08-4.34h0A6.72,6.72,0,0,1,39.29,30.55Zm-1.11-5.28a7.81,7.81,0,0,0-5.77-2.56h-.08a7.75,7.75,0,0,0-.81-7.13,6.81,6.81,0,1,1,6.66,9.68Z"/></g><g id="aa33df38-c913-476c-8222-f4c3498dc427" data-name="LABELS"><text transform="translate(0 55.02)" font-size="6" font-family="Roboto-Regular, Roboto">g<tspan x="3.37" y="0" letter-spacing="-0.02em">r</tspan><tspan x="5.28" y="0">apes</tspan></text></g></svg>