<svg id="b3af4263-9638-4c74-8245-048262e08317" data-name="ICONS" xmlns="http://www.w3.org/2000/svg" viewBox="0 0 50 50"><polygon points="37.49 16.22 37.49 16.22 37.49 16.22 37.49 16.22"/><path d="M42.25,15.72H38.49V14.18a.5.5,0,0,0-.5-.5H12a.5.5,0,0,0-.5.5v1.54H7.75a.5.5,0,0,0,0,1h3.76v1.41a10.06,10.06,0,0,0,8.91,10L15.9,48a.5.5,0,0,0,.38.6h.11a.5.5,0,0,0,.49-.39l1.54-6.81H31.58L32,43.27a2.83,2.83,0,1,0,1.09-.22H33l-3.39-15a10.06,10.06,0,0,0,8.9-10V16.72h3.76a.5.5,0,0,0,0-1ZM33.09,44.05a1.83,1.83,0,1,1-1.83,1.83A1.83,1.83,0,0,1,33.09,44.05Zm-1.74-3.64H18.65l2.78-12.24h7.15Zm6.14-24.19h0v1.91a9.06,9.06,0,0,1-9.06,9.05H21.57a9.06,9.06,0,0,1-9.06-9V14.68h25Z"/><path d="M16.69,7.58c.4.25.77.48.89.84C17.77,9,17.3,9.9,16.24,11a.5.5,0,0,0,0,.71.49.49,0,0,0,.35.14.51.51,0,0,0,.36-.15c1.38-1.41,1.9-2.58,1.58-3.57a2.61,2.61,0,0,0-1.32-1.39c-.43-.27-.7-.46-.75-.71-.09-.45.47-1.16,1.55-1.95a.5.5,0,0,0,.1-.7.51.51,0,0,0-.7-.11C15.94,4.35,15.3,5.31,15.47,6.2A2.21,2.21,0,0,0,16.69,7.58Z"/><path d="M24.65,5.7c.4.25.78.49.9.85.18.59-.28,1.47-1.35,2.57a.5.5,0,0,0,0,.71.52.52,0,0,0,.35.14.51.51,0,0,0,.36-.15C26.3,8.4,26.81,7.23,26.5,6.25a2.71,2.71,0,0,0-1.32-1.4c-.44-.27-.71-.45-.76-.71C24.34,3.69,24.9,3,26,2.2a.51.51,0,0,0,.11-.7.5.5,0,0,0-.7-.11c-1.48,1.09-2.11,2.05-1.94,2.94A2.18,2.18,0,0,0,24.65,5.7Z"/><path d="M32.62,7.58c.4.25.78.48.89.84C33.7,9,33.23,9.9,32.17,11a.5.5,0,0,0,0,.71.49.49,0,0,0,.35.14.51.51,0,0,0,.36-.15c1.38-1.41,1.9-2.58,1.59-3.57a2.68,2.68,0,0,0-1.32-1.39c-.44-.27-.71-.46-.76-.72-.09-.44.48-1.15,1.55-1.94a.5.5,0,0,0,.1-.7.51.51,0,0,0-.7-.11c-1.47,1.09-2.11,2.05-1.93,2.94A2.17,2.17,0,0,0,32.62,7.58Z"/></svg>