<svg xmlns="http://www.w3.org/2000/svg" viewBox="0 0 50 50"><defs><style>.cls-1{font-size:6px;font-family:Roboto-Regular, Roboto;}.cls-2{letter-spacing:-0.01em;}</style></defs><g id="ICONS"><path d="M24.62.33a24.3,24.3,0,1,0,24.3,24.29A24.32,24.32,0,0,0,24.62.33Zm0,47.59a23.3,23.3,0,1,1,23.3-23.3A23.32,23.32,0,0,1,24.62,47.92Z"/><path d="M36.77,29.33a.49.49,0,0,0-.68.19,13.16,13.16,0,0,1-22.93,0,.49.49,0,0,0-.68-.19.5.5,0,0,0-.19.68A14.16,14.16,0,0,0,37,30,.5.5,0,0,0,36.77,29.33Z"/><ellipse cx="31.4" cy="17.5" rx="1.59" ry="1.65"/><ellipse cx="17.85" cy="17.5" rx="1.59" ry="1.65"/></g><g id="LABELS"><text class="cls-1" transform="translate(0.17 54.98)">hap<tspan class="cls-2" x="9.93" y="0">p</tspan><tspan x="13.27" y="0">y</tspan></text></g></svg>