<svg xmlns="http://www.w3.org/2000/svg" viewBox="0 0 50 50"><defs><style>.cls-1{font-size:6px;font-family:Roboto-Regular, Roboto;}</style></defs><g id="ICONS"><path d="M48.39,24.55a15.59,15.59,0,0,0-7.77-1.4,15.64,15.64,0,0,0-.5-7.88.51.51,0,0,0-.51-.34,16.12,16.12,0,0,0-9.21,4A16.09,16.09,0,0,0,25,10.67a.51.51,0,0,0-.62,0,16.09,16.09,0,0,0-5.43,8.23,16.12,16.12,0,0,0-9.21-4,.5.5,0,0,0-.51.34,15.75,15.75,0,0,0-.5,7.88,15.59,15.59,0,0,0-7.77,1.4.49.49,0,0,0-.28.54A17.09,17.09,0,0,0,10,36.75a18.43,18.43,0,0,0,8.25,2,15.69,15.69,0,0,0,5.34-.92l.6.07h1l.61-.07a15.65,15.65,0,0,0,5.34.92,18.49,18.49,0,0,0,8.25-2,17.08,17.08,0,0,0,9.31-11.66A.49.49,0,0,0,48.39,24.55ZM38.91,35.86a16.85,16.85,0,0,1-11,1.55A17.68,17.68,0,0,0,37.83,30a18.69,18.69,0,0,0,2.57-5.86,14.85,14.85,0,0,1,7.21,1.13A16.2,16.2,0,0,1,38.91,35.86Zm-28.49,0A16.19,16.19,0,0,1,1.71,25.29a14.85,14.85,0,0,1,7.21-1.13A18.69,18.69,0,0,0,11.49,30a17.72,17.72,0,0,0,9.88,7.39A16.81,16.81,0,0,1,10.42,35.86ZM10,16a15.28,15.28,0,0,1,8.6,4,19.2,19.2,0,0,0-.48,4.24,17.38,17.38,0,0,0,5,12.52,16.3,16.3,0,0,1-10.86-7.29A16.2,16.2,0,0,1,10,16Zm14.64-4.26a16.16,16.16,0,0,1,5.53,12.52,16.17,16.17,0,0,1-5.53,12.53,16.16,16.16,0,0,1-5.52-12.53A16.15,16.15,0,0,1,24.66,11.71ZM37,29.46a16.31,16.31,0,0,1-10.85,7.29,17.42,17.42,0,0,0,5-12.52A19.21,19.21,0,0,0,30.7,20a15.28,15.28,0,0,1,8.6-4A16.16,16.16,0,0,1,37,29.46Z"/></g><g id="LABELS"><text class="cls-1" transform="translate(0.01 55.08)">lotus</text></g></svg>