<svg xmlns="http://www.w3.org/2000/svg" viewBox="0 0 50 50"><g id="f054497e-0343-42b9-925e-fa2d68706e70" data-name="ICONS"><path d="M33.74,10.64a2.23,2.23,0,0,0-2.23,2.23v.72L3.83,23.39a1.79,1.79,0,0,0-3.56.28v2.66a1.79,1.79,0,0,0,3.56.28L9.16,28.5l-.92,2.6a.5.5,0,0,0,.3.64l11,3.88a.45.45,0,0,0,.16,0,.52.52,0,0,0,.48-.33l.92-2.61,10.44,3.7v.72a2.24,2.24,0,0,0,4.47,0V12.87A2.24,2.24,0,0,0,33.74,10.64ZM19.37,34.51,9.35,31l.75-2.12,10,3.55ZM35,37.13a1.24,1.24,0,0,1-2.47,0V12.87a1.24,1.24,0,0,1,2.47,0Zm-32.92-10a.8.8,0,0,1-.79-.79V23.67a.8.8,0,0,1,1.59,0v2.66A.8.8,0,0,1,2.06,27.12Zm1.8-1.56V24.44l27.65-9.79v20.7Z"/><path d="M38.08,19.16a.6.6,0,0,0,.28-.08l11.15-7.53a.49.49,0,0,0,.13-.69.5.5,0,0,0-.69-.14L37.8,18.25a.5.5,0,0,0-.14.69A.52.52,0,0,0,38.08,19.16Z"/><path d="M38.08,25.5h9.74a.5.5,0,0,0,0-1H38.08a.5.5,0,0,0,0,1Z"/><path d="M38.36,30.92a.51.51,0,0,0-.7.14.5.5,0,0,0,.14.69L49,39.28a.46.46,0,0,0,.28.08.47.47,0,0,0,.41-.22.49.49,0,0,0-.13-.69Z"/></g><g id="eb205108-8431-42ec-9bf4-1dea5a08ac61" data-name="LABELS"><text transform="translate(-0.03 55.05)" font-size="6" font-family="Roboto-Regular, Roboto">megaphone-bullhorn</text></g></svg>