<svg xmlns="http://www.w3.org/2000/svg" viewBox="0 0 50 50"><g id="a1b45f65-0fb8-435c-ac24-79e9fb22fb71" data-name="ICONS"><path d="M25.2,29.94h0l-9.1-9.1a.47.47,0,0,0-.43-.14.51.51,0,0,0-.37.28L2.38,48a.5.5,0,0,0,.09.57.54.54,0,0,0,.36.14.52.52,0,0,0,.21,0L30.11,35.79a.48.48,0,0,0,.27-.36.5.5,0,0,0-.13-.44ZM6.29,46.05,3.89,47.2l2.4-5Zm6-2.87-5,2.39v-5.5l5-10.52Zm6-2.87-5,2.39V27.45L15.89,22l2.43,2.44Zm6-2.87-5,2.39V25.48l5,5Zm1-.48V31.5L29,35.2Z"/><path d="M20.15,21.74a.5.5,0,0,0,.09.7.48.48,0,0,0,.3.11.51.51,0,0,0,.4-.2,17.27,17.27,0,0,0,2.86-5.41A17.64,17.64,0,0,0,24,7.12a.49.49,0,0,0-.61-.35.5.5,0,0,0-.36.61,16.54,16.54,0,0,1-.17,9.25A16.18,16.18,0,0,1,20.15,21.74Z"/><path d="M30.45,15.76a.49.49,0,0,0-.69.1l-5.65,7.6a.5.5,0,0,0,.1.7.47.47,0,0,0,.3.1.51.51,0,0,0,.4-.2l5.65-7.6A.5.5,0,0,0,30.45,15.76Z"/><path d="M42.92,28.29A12.87,12.87,0,0,0,34,27.11,12.6,12.6,0,0,0,28.54,30a.5.5,0,0,0,0,.71.49.49,0,0,0,.37.16.46.46,0,0,0,.33-.13,11.78,11.78,0,0,1,5-2.66,12.13,12.13,0,0,1,8.22,1.09.5.5,0,0,0,.46-.88Z"/><path d="M29.41,25.05a.51.51,0,0,0,.4.2.47.47,0,0,0,.3-.1l8.12-6a.5.5,0,0,0,.11-.7.51.51,0,0,0-.7-.11l-8.12,6A.51.51,0,0,0,29.41,25.05Z"/><path d="M27.88,6.48l2.26.26,1.06,2a.5.5,0,0,0,.44.27h0a.5.5,0,0,0,.44-.29l1-2.07,2.23-.38a.53.53,0,0,0,.4-.35.51.51,0,0,0-.14-.51L33.87,3.87l.32-2.24A.5.5,0,0,0,34,1.14a.51.51,0,0,0-.53,0l-2,1.11-2-1a.47.47,0,0,0-.52.05.5.5,0,0,0-.19.49L29.17,4,27.58,5.63a.52.52,0,0,0-.11.52A.5.5,0,0,0,27.88,6.48Zm2.19-2a.52.52,0,0,0,.13-.45l-.3-1.49,1.37.67a.47.47,0,0,0,.46,0l1.33-.74L32.84,4a.51.51,0,0,0,.16.44l1.12,1-1.5.26a.5.5,0,0,0-.37.29l-.64,1.38L30.9,6a.52.52,0,0,0-.38-.26L29,5.6Z"/><path d="M39.82,17.85a.57.57,0,0,0,.28-.08l.82-.56a.49.49,0,0,0,.14-.69.5.5,0,0,0-.69-.14l-.83.55a.51.51,0,0,0-.14.7A.52.52,0,0,0,39.82,17.85Z"/><path d="M31.75,14.6l.77-1a.5.5,0,1,0-.79-.61L31,14a.51.51,0,0,0,.1.7.49.49,0,0,0,.3.1A.51.51,0,0,0,31.75,14.6Z"/><path d="M45.94,28.5a1.64,1.64,0,1,0,1.63,1.64A1.63,1.63,0,0,0,45.94,28.5Zm0,2.27a.64.64,0,1,1,.63-.63A.63.63,0,0,1,45.94,30.77Z"/><path d="M45.82,13.59a.54.54,0,0,0,.27.07.42.42,0,0,0,.26-.08.49.49,0,0,0,.23-.47l-.14-1.39,1.06-.91a.52.52,0,0,0,.16-.5.51.51,0,0,0-.38-.37l-1.37-.29-.54-1.29a.5.5,0,0,0-.43-.3.45.45,0,0,0-.46.25l-.7,1.21-1.39.11a.49.49,0,0,0-.43.31.5.5,0,0,0,.1.52l.93,1-.32,1.36a.48.48,0,0,0,.17.5.51.51,0,0,0,.52.07l1.27-.57ZM43.88,12.1l.15-.63a.53.53,0,0,0-.12-.45l-.43-.48.64,0a.49.49,0,0,0,.4-.25l.32-.56.25.6a.5.5,0,0,0,.35.3l.64.13-.49.42a.52.52,0,0,0-.18.43l.07.65-.55-.34a.48.48,0,0,0-.26-.07.45.45,0,0,0-.2,0Z"/><path d="M18.82,14.8a1.64,1.64,0,1,0-1.63-1.64A1.64,1.64,0,0,0,18.82,14.8Zm0-2.27a.63.63,0,0,1,.64.63.64.64,0,1,1-1.27,0A.63.63,0,0,1,18.82,12.53Z"/></g><g id="efb9fdd1-30bd-43c1-a448-1b3d7e9ef450" data-name="LABELS"><text transform="translate(-0.15 54.94)" font-size="6" font-family="Roboto-Regular, Roboto">pa<tspan x="6.63" y="0" letter-spacing="0.02em">r</tspan><tspan x="8.81" y="0">ty</tspan></text></g></svg>