<svg xmlns="http://www.w3.org/2000/svg" viewBox="0 0 50 50"><defs><style>.cls-1{font-size:6px;font-family:Roboto-Regular, Roboto;}</style></defs><g id="ICONS"><path d="M8.25,24.44a7.78,7.78,0,1,0-2.77-6A7.8,7.8,0,0,0,8.25,24.44Zm11.8-6a6.79,6.79,0,1,1-6.78-6.78A6.77,6.77,0,0,1,20.05,18.49Z"/><path d="M27.42,23.88a9.31,9.31,0,1,0-3.3-7.11A9.31,9.31,0,0,0,27.42,23.88Zm6-15.42a8.3,8.3,0,1,1-8.3,8.31A8.32,8.32,0,0,1,33.42,8.46Z"/><path d="M39.86,27.26H27a9.28,9.28,0,0,0-4.22,1.25,7.89,7.89,0,0,0-4.15-1.43H7.92A7.8,7.8,0,0,0,.51,34.86v3.91a.5.5,0,0,0,.5.5h17.1v2a.5.5,0,0,0,.5.5H48.24a.51.51,0,0,0,.5-.5V36.56A9.31,9.31,0,0,0,39.86,27.26Zm7.88,13.53H19.11V36.56A8.3,8.3,0,0,1,27,28.26H39.83a8.31,8.31,0,0,1,7.91,8.3ZM1.51,34.86a6.79,6.79,0,0,1,6.43-6.78H18.57a6.89,6.89,0,0,1,3.27,1,9.3,9.3,0,0,0-3.73,7.45v1.71H1.51Z"/></g><g id="LABELS"><text class="cls-1" transform="translate(0.06 55.02)">person-two</text></g></svg>