<svg xmlns="http://www.w3.org/2000/svg" viewBox="0 0 50 50"><defs><style>.cls-1{fill:none;}.cls-2{font-size:6px;font-family:Roboto-Regular, Roboto;}.cls-3{letter-spacing:-0.01em;}</style></defs><g id="ICONS"><path d="M30.48,16.89a5.35,5.35,0,0,0,8.79-4.08,5.35,5.35,0,1,0-8.79,4.08Zm3.44-8.43a4.35,4.35,0,0,1,2.81,7.67,4.47,4.47,0,0,1-5.61,0,4.35,4.35,0,0,1,2.8-7.67Z"/><path d="M12,16.89a5.34,5.34,0,1,0-1.9-4.08A5.31,5.31,0,0,0,12,16.89Zm3.45-8.43a4.35,4.35,0,0,1,2.8,7.67,4.47,4.47,0,0,1-5.61,0,4.35,4.35,0,0,1,2.81-7.67Z"/><path d="M43,31h-.47V29.38c.1-.07.21-.13.31-.21a6.18,6.18,0,0,0-4-10.9,5.86,5.86,0,0,0-1.19.12,1.52,1.52,0,0,0-.21,0H30.36l-.16,0a7.12,7.12,0,0,0-11,0l-.16,0H11.86a1.52,1.52,0,0,0-.21,0,5.86,5.86,0,0,0-1.19-.12,6.18,6.18,0,0,0-4,10.9c.1.08.21.14.31.21V31h-.5A6.17,6.17,0,0,0,.41,37.21v3a.5.5,0,0,0,.5.5H13v.58a.5.5,0,0,0,.5.5H35.83a.5.5,0,0,0,.5-.5v-.58H48.45a.51.51,0,0,0,.5-.5v-3A6.18,6.18,0,0,0,43,31ZM48,39.76H36.33v-2a7.09,7.09,0,0,0-2.68-5.56A4.36,4.36,0,0,1,34.74,32H43A5.19,5.19,0,0,1,48,37.21ZM14,40.84V37.78a6.12,6.12,0,0,1,5.81-6.12H29.5a6.12,6.12,0,0,1,5.83,6.12v3.06ZM1.41,37.21A5.16,5.16,0,0,1,6.31,32h8.27a5.14,5.14,0,0,1,1.12.19A7.1,7.1,0,0,0,13,37.78v2H1.41Zm9.05-17.94A5.17,5.17,0,0,1,13.8,28.4a5.3,5.3,0,0,1-6.68,0,5.17,5.17,0,0,1,3.34-9.13Zm0,11.36A6.17,6.17,0,0,0,14,19.36h4.53a7.14,7.14,0,1,0,12.39,0H35.4A6.16,6.16,0,0,0,41.57,30V31H34.72a6,6,0,0,0-2.12.49,7,7,0,0,0-3.08-.87H19.8a7,7,0,0,0-3.06.87A6.08,6.08,0,0,0,14.61,31H7.78V30A6.18,6.18,0,0,0,10.46,30.63Zm20.35-7.75a6.14,6.14,0,1,1-6.13-6.13A6.13,6.13,0,0,1,30.81,22.88ZM42.23,28.4a5.3,5.3,0,0,1-6.68,0,5.18,5.18,0,1,1,6.68,0Z"/><path class="cls-1" d="M24.86,32.83a.42.42,0,0,0,.42.43h2.19a.42.42,0,0,0,.42-.43V28.08a6.11,6.11,0,0,1-3,.92Z"/></g><g id="LABELS"><text class="cls-2" transform="translate(-0.31 55.02)">person-fi<tspan class="cls-3" x="23.6" y="0">v</tspan><tspan x="26.46" y="0">e</tspan></text></g></svg>