<svg xmlns="http://www.w3.org/2000/svg" viewBox="0 0 50 50"><g id="b04d35a4-f855-4922-a086-06b105e948cd" data-name="ICONS"><path d="M24.72,5.93a.86.86,0,0,0,0-1.72.86.86,0,1,0,0,1.72Z"/><path d="M35.64,16.13a.44.44,0,0,0-.11-.25V11.4h0a10.87,10.87,0,1,0-21.73,0l0,4.45a.54.54,0,0,0-.15.29l-4,32.05a.57.57,0,0,0,.12.41.54.54,0,0,0,.4.17H39.11a.51.51,0,0,0,.39-.17.53.53,0,0,0,.13-.41Zm-20.82-.45,0-2.4H34.49v2.4Zm9.85-14.1a9.82,9.82,0,0,1,9.82,9.82v.83H14.85V11.4A9.83,9.83,0,0,1,24.67,1.58ZM10.76,47.72l3.85-30.93,20.06,0,3.85,31Z"/><path d="M20.51,7.81A.86.86,0,1,0,19.65,7,.86.86,0,0,0,20.51,7.81Z"/><path d="M28.81,7.81A.86.86,0,1,0,28,7,.86.86,0,0,0,28.81,7.81Z"/><path d="M18.58,19.73a.52.52,0,0,0-.59.45L14.83,44.34a.51.51,0,0,0,.45.58h.07a.52.52,0,0,0,.51-.45L19,20.31A.52.52,0,0,0,18.58,19.73Z"/><path d="M31.16,20.17a.52.52,0,1,0-1,.14l3.17,24.16a.52.52,0,0,0,.51.45h.07a.52.52,0,0,0,.45-.59Z"/><path d="M27.06,33.72a3.93,3.93,0,0,0-1.76-.37H21.82v8.91h1.84V39.12h1.61a3.71,3.71,0,0,0,2.48-.76,2.53,2.53,0,0,0,.89-2.06,2.84,2.84,0,0,0-.41-1.54A2.64,2.64,0,0,0,27.06,33.72Zm-.65,3.57a1.62,1.62,0,0,1-1.11.34H23.66V34.84h1.68a1.42,1.42,0,0,1,1.07.41,1.51,1.51,0,0,1,.38,1.06A1.26,1.26,0,0,1,26.41,37.29Z"/></g><g id="e196674c-3c22-4b6e-8182-7f9515e36f6a" data-name="LABELS"><text transform="translate(0 55.05)" font-size="6" font-family="Roboto-Regular, Roboto">pepper</text></g></svg>