<svg xmlns="http://www.w3.org/2000/svg" viewBox="0 0 50 50"><defs><style>.cls-1{font-size:6px;font-family:Roboto-Regular, Roboto;}</style></defs><g id="ICONS"><path d="M24,37.39l-6.35-4.66V17.84a.29.29,0,0,0,0-.09V14.7a.5.5,0,0,0-.5-.5H6.76a.5.5,0,0,0-.5.5V32.84a.45.45,0,0,0,0,.11v3.34A6.16,6.16,0,0,0,8.74,41.4l1.87,1.37h0l6.1,4.49a6.08,6.08,0,0,0,3.62,1.19,7.28,7.28,0,0,0,.93-.07,6.13,6.13,0,0,0,2.71-11Zm-2.86,10a5.14,5.14,0,0,1-3.81-.94l-5.65-4.15A5.91,5.91,0,0,0,7.31,32.4h0V18.34h9.39V33a.51.51,0,0,0,.2.4l6.56,4.82a5.13,5.13,0,0,1-2.27,9.2ZM9.34,40.6a5.24,5.24,0,0,1-2.1-4.38V33.4h.07a4.93,4.93,0,0,1,4.93,4.93,4.85,4.85,0,0,1-1.38,3.39Zm7.29-23.26H7.26V15.2h9.37Z"/><path d="M41.26,24.74l-6.35-4.67V5.18a.29.29,0,0,0,0-.09V2a.5.5,0,0,0-.5-.5H24a.5.5,0,0,0-.5.5V20.19s0,.07,0,.11v3.33A6.14,6.14,0,0,0,26,28.75l1.87,1.37h0L34,34.61a6.13,6.13,0,1,0,7.26-9.87Zm-6.67,9.07-5.65-4.16a5.91,5.91,0,0,0-4.37-9.91h-.05V5.68h9.39V20.32a.51.51,0,0,0,.2.41l6.55,4.81a5.13,5.13,0,0,1-6.07,8.27ZM24.52,2.54h9.37V4.68H24.52Zm2.07,25.4a5.2,5.2,0,0,1-2.09-4.37V20.74h.07a4.93,4.93,0,0,1,4.93,4.93,4.83,4.83,0,0,1-1.38,3.39Z"/></g><g id="LABELS"><text class="cls-1" transform="translate(0.19 54.84)">socks</text></g></svg>