<svg xmlns="http://www.w3.org/2000/svg" viewBox="0 0 50 50"><g id="b9ea1304-0c48-4218-9b96-4a58d13e503c" data-name="ICONS"><path d="M37.65,14.1H26.13l1.08-7.94,7.85-4.47A.49.49,0,0,0,35.25,1a.49.49,0,0,0-.68-.19L26.5,5.41h0l-.09.09s0,0-.05.06a.2.2,0,0,0,0,.08.3.3,0,0,0,0,.1s0,0,0,0L25.12,14.1H12.35a.5.5,0,0,0-.5.5v3.07a.5.5,0,0,0,.5.5H14l2.67,30.12a.49.49,0,0,0,.5.45H32.88a.49.49,0,0,0,.5-.45l2.67-30.12h1.6a.5.5,0,0,0,.5-.5V14.6A.5.5,0,0,0,37.65,14.1ZM32.43,47.74H17.57l-1-10.82L34,30.49Zm1.62-18.33H34L16.52,35.89l-.38-4.31,18.32-6.79Zm.51-5.72L16.05,30.55,15,18.17h20.1Zm2.59-6.52H12.85V15.1h24.3Z"/></g><g id="bc592a22-6868-4bd3-9b49-163221976f05" data-name="LABELS"><text transform="translate(0 55.01)" font-size="6" font-family="Roboto-Regular, Roboto">soda</text></g></svg>