<svg id="e7282ecc-dbec-4377-85e7-ea6903cdda64" data-name="ICONS" xmlns="http://www.w3.org/2000/svg" viewBox="0 0 50 50"><path d="M10.93,26.67h.75v-.55C11.42,26.33,11.16,26.51,10.93,26.67Z" fill="none"/><path d="M40.08,30.31A13.69,13.69,0,0,1,42,27.92H40.71V26.67H42a15.87,15.87,0,0,1-5.66-6.75,22.64,22.64,0,0,1-1.81-7.15H32.19c.8,5.26,3.09,9.6,6.14,11.82,0,0,0,.05,0,.08v2.25a.49.49,0,0,0,.16.37C36.56,29.7,35.29,33.56,35.2,38H15.13c0,.32,0,.65.06,1H37.71a19.42,19.42,0,0,1,1-5.65A14,14,0,0,1,40.08,30.31Z" fill="none"/><path d="M10.93,27.92a13.69,13.69,0,0,1,1.89,2.39,15.23,15.23,0,0,1,1.12,2.29,15.64,15.64,0,0,0-2.08-4.68Z" fill="none"/><path d="M48.93,9.23a.51.51,0,0,0,.5-.5V5.28a.51.51,0,0,0-.5-.5H1.07a.51.51,0,0,0-.5.5V8.73a.51.51,0,0,0,.5.5H2.24V38H1.07a.5.5,0,0,0-.5.5v6.27a.51.51,0,0,0,.5.5H48.93a.51.51,0,0,0,.5-.5V38.45a.5.5,0,0,0-.5-.5H47.76V9.23ZM48.43,39v5.27H1.57V39H48.43ZM3.24,38V9.23H6V38ZM32.1,12.27c.72,5.49,3.08,10,6.23,12.32,0,0,0,.05,0,.08v2.25a.49.49,0,0,0,.16.37C36.56,29.7,35.29,33.56,35.2,38H14.69c-.09-4.36-1.34-8.2-3.24-10.62a.46.46,0,0,0,.23-.41V24.67a.4.4,0,0,0,0-.15c3.11-2.31,5.43-6.81,6.14-12.25Zm-14.21-1c.06-.67.1-1.35.11-2H31.89q0,1,.12,2ZM39.32,26.42V25.17h3.59v1.25Zm3.59,1V38H36.19c.1-4.5,1.46-8.39,3.44-10.53Zm0-3.25H39.47C35.72,21.89,33,16.09,32.88,9.23h10Zm-32.48,0H7V9.23H17C16.89,16.09,14.18,21.89,10.43,24.17Zm.25,1v1.25H7V25.17Zm-.41,2.25c2,2.14,3.34,6,3.43,10.53H7V27.42ZM44,38V9.23h2.75V38ZM47.26,8.23H1.57V5.78H48.43V8.23Z"/></svg>