<svg id="bfca54dd-ee3d-41b6-b8bf-4a0eaceaf400" data-name="ICONS" xmlns="http://www.w3.org/2000/svg" viewBox="0 0 50 50"><path d="M24.5,20.64a.51.51,0,0,0,.36.15.5.5,0,0,0,.35-.15L27.9,18a.5.5,0,0,0,0-.7.5.5,0,0,0-.71,0L24.5,19.93A.51.51,0,0,0,24.5,20.64Z" fill="none"/><path d="M22,20.09a.5.5,0,0,0,.35-.15l4.54-4.54a.5.5,0,0,0,0-.71.51.51,0,0,0-.71,0L21.6,19.23a.51.51,0,0,0,0,.71A.51.51,0,0,0,22,20.09Z" fill="none"/><path d="M44.24,12.54a.5.5,0,0,0,.5-.5V1.52a.5.5,0,0,0-.5-.5h-39a.5.5,0,0,0-.5.5V12a.5.5,0,0,0,.5.5H7.61V30.18H5.26a.5.5,0,0,0-.5.5v2.76a.5.5,0,0,0,.5.5H7.61V48a.5.5,0,0,0,.5.5H41.39a.5.5,0,0,0,.5-.5v-14h2.35a.5.5,0,0,0,.5-.5V30.68a.5.5,0,0,0-.5-.5H41.89V12.54ZM40.89,47.48H8.61V33.94H40.89Zm2.85-16.3v1.76h-38V31.18h38ZM36.3,25.9a4.42,4.42,0,0,0-8.8,0,.58.58,0,0,0,0,.19v4.1H22v-4.1a.58.58,0,0,0,0-.19,4.42,4.42,0,0,0-8.8,0,.58.58,0,0,0,0,.19v4.1H8.61V12.54H40.89V30.18H36.34v-4.1A.58.58,0,0,0,36.3,25.9Zm-1,.34v3.94H28.46V26.24l0-.13a3.42,3.42,0,0,1,6.82,0A.5.5,0,0,0,35.34,26.24Zm-14.3,0v3.95H14.16V26.24a.5.5,0,0,0,0-.13,3.42,3.42,0,0,1,6.82,0ZM5.76,11.54V2h38v9.52Z"/><polygon points="8.41 4.53 10.35 4.53 10.35 9.9 11.13 9.9 11.13 4.53 13.07 4.53 13.07 3.88 8.41 3.88 8.41 4.53"/><rect x="14.02" y="3.88" width="0.79" height="6.02"/><path d="M17.29,5a1.4,1.4,0,0,1,1.19-.56,1.35,1.35,0,0,1,1,.32,1.65,1.65,0,0,1,.44,1h.8A2.25,2.25,0,0,0,20,4.33a2.17,2.17,0,0,0-1.54-.53,2.32,2.32,0,0,0-1.27.34,2.18,2.18,0,0,0-.85,1,3.46,3.46,0,0,0-.3,1.48v.58a3.09,3.09,0,0,0,.64,2.05,2.12,2.12,0,0,0,1.71.76A2.3,2.3,0,0,0,20,9.46,2.21,2.21,0,0,0,20.69,8h-.8a1.61,1.61,0,0,1-.47,1,1.5,1.5,0,0,1-1,.3,1.3,1.3,0,0,1-1.14-.58,2.58,2.58,0,0,1-.41-1.56V6.61A2.56,2.56,0,0,1,17.29,5Z"/><polygon points="26.2 3.88 25.24 3.88 22.57 6.85 22.57 3.88 21.77 3.88 21.77 9.9 22.57 9.9 22.57 7.86 23.3 7.1 25.44 9.9 26.39 9.9 23.83 6.54 26.2 3.88"/><polygon points="27.88 7.12 30.48 7.12 30.48 6.47 27.88 6.47 27.88 4.53 30.86 4.53 30.86 3.88 27.08 3.88 27.08 9.9 30.91 9.9 30.91 9.25 27.88 9.25 27.88 7.12"/><polygon points="31.48 4.53 33.41 4.53 33.41 9.9 34.2 9.9 34.2 4.53 36.14 4.53 36.14 3.88 31.48 3.88 31.48 4.53"/><path d="M40.14,7A5.05,5.05,0,0,0,39,6.51a3.06,3.06,0,0,1-1.06-.46.78.78,0,0,1-.31-.63.88.88,0,0,1,.33-.72,1.43,1.43,0,0,1,.91-.25,1.41,1.41,0,0,1,1,.31,1.1,1.1,0,0,1,.35.86H41a1.68,1.68,0,0,0-.27-.92A1.86,1.86,0,0,0,39.94,4a2.51,2.51,0,0,0-1.11-.24,2.28,2.28,0,0,0-1.48.46,1.44,1.44,0,0,0-.56,1.18,1.35,1.35,0,0,0,.46,1,3.62,3.62,0,0,0,1.49.72,3.7,3.7,0,0,1,1.12.48.81.81,0,0,1,.31.69.86.86,0,0,1-.33.7,2,2,0,0,1-2-.07,1,1,0,0,1-.41-.86h-.8a1.55,1.55,0,0,0,.3.94,1.89,1.89,0,0,0,.83.65,2.75,2.75,0,0,0,1.15.24,2.46,2.46,0,0,0,1.53-.44A1.4,1.4,0,0,0,41,8.37a1.49,1.49,0,0,0-.21-.8A1.68,1.68,0,0,0,40.14,7Z"/><path d="M27.19,17.25,24.5,19.93a.51.51,0,0,0,0,.71.51.51,0,0,0,.36.15.5.5,0,0,0,.35-.15L27.9,18a.5.5,0,0,0,0-.7A.5.5,0,0,0,27.19,17.25Z"/><path d="M26.85,14.69a.51.51,0,0,0-.71,0L21.6,19.23a.51.51,0,0,0,0,.71.51.51,0,0,0,.36.15.5.5,0,0,0,.35-.15l4.54-4.54A.5.5,0,0,0,26.85,14.69Z"/></svg>