<svg xmlns="http://www.w3.org/2000/svg" viewBox="0 0 50 50"><defs><style>.cls-1{fill:none;}.cls-2{font-size:6px;font-family:Roboto-Regular, Roboto;}.cls-3{letter-spacing:-0.01em;}</style></defs><g id="ICONS"><path class="cls-1" d="M34.09,30a.5.5,0,0,0,.5-.5V23.68h-1V29.5A.5.5,0,0,0,34.09,30Z"/><path class="cls-1" d="M39.29,30a.5.5,0,0,0,.5-.5V23.67h-1V29.5A.5.5,0,0,0,39.29,30Z"/><path class="cls-1" d="M28.9,30a.5.5,0,0,0,.5-.5V23.68h-1V29.5A.5.5,0,0,0,28.9,30Z"/><path d="M48.84,16.24a7,7,0,0,0-6.36-6.9.52.52,0,0,0-.54.42.5.5,0,0,0,.37.56,2.17,2.17,0,0,1-.53,4.28H25.68a4.29,4.29,0,0,0-2.4,7.84.48.48,0,0,0-.07.24v10h-.89a.5.5,0,0,0-.5.5V34.4H1.16a.5.5,0,0,0-.5.5v4.76a.5.5,0,0,0,.5.5H45.87a.5.5,0,0,0,.5-.5V33.19a.5.5,0,0,0-.5-.5H45v-10a.46.46,0,0,0,0-.21A6.94,6.94,0,0,0,48.84,16.24Zm-27,22.92H1.66V35.4H21.82Zm23.55-5.47v5.47H22.82V33.69H45.37ZM28.9,30a.5.5,0,0,0,.5-.5V23.18h4.19V29.5a.5.5,0,0,0,.5.5.5.5,0,0,0,.5-.5V23.18h4.2V29.5a.5.5,0,0,0,.5.5.5.5,0,0,0,.5-.5V23.18H44v9.51H24.21V23.18H28.4V29.5A.5.5,0,0,0,28.9,30Zm13-7.83H25.68a3.29,3.29,0,0,1,0-6.58h16.1A3.18,3.18,0,0,0,45,12.42,3.11,3.11,0,0,0,44.6,11a5.92,5.92,0,0,1-2.74,11.2Z"/></g><g id="LABELS"><text class="cls-2" transform="translate(0.08 54.84)"><tspan class="cls-3">t</tspan><tspan x="1.9" y="0">oothbrush-</tspan><tspan class="cls-3" x="30.77" y="0">t</tspan><tspan x="32.67" y="0">oothpaste</tspan></text></g></svg>