<svg xmlns="http://www.w3.org/2000/svg" viewBox="0 0 50 50"><g id="bbf92f79-46d1-4f74-a702-6b6b8ff0ee83" data-name="ICONS"><path d="M48.69,43.52H43.35A2.38,2.38,0,0,0,43.93,42V28.36h0V26.11H45a1.47,1.47,0,0,0,.36,0,1.83,1.83,0,0,0,1.45-1.56s0-.05,0-.08V19.36A5,5,0,0,0,45,15.12a4.67,4.67,0,0,0-3-.92H37a4.93,4.93,0,0,0-2.85,1.12,5.25,5.25,0,0,0-1.66,4.27v2.5h-.76a2,2,0,1,0,0,4h2.83a1.83,1.83,0,0,0,.84-.21v2.45h0V42A2.38,2.38,0,0,0,36,43.52H28.34v-3h2.2a1.5,1.5,0,0,0,1.5-1.5v-.42a2.3,2.3,0,0,0,0-.26.5.5,0,0,0,.47-.49V34.08h0v-.23a1.72,1.72,0,0,0-1.56-1.78,1.36,1.36,0,0,0-.6.14V30.85a6,6,0,0,0-12.06,0V32.2a1.32,1.32,0,0,0-.56-.13,1.37,1.37,0,0,0-1,.49,1.35,1.35,0,0,0-1-.49,1.25,1.25,0,0,0-.54.12V30.85A6,6,0,0,0,3,30.88V32.2a1.45,1.45,0,0,0-.59-.13,1.74,1.74,0,0,0-1.57,1.8v.21h0v3.81a.49.49,0,0,0,.46.49,2.3,2.3,0,0,0,0,.26v.42a1.5,1.5,0,0,0,1.5,1.5h2.2v3H1.74a.5.5,0,0,0-.5.5.5.5,0,0,0,.5.5H48.69a.51.51,0,0,0,.5-.5A.5.5,0,0,0,48.69,43.52Zm-17-18.41a1,1,0,1,1,0-2H35.4v1.17a.85.85,0,0,1-.84.84ZM36.4,42V28.36h0v-9.2a.5.5,0,0,0-.5-.5.5.5,0,0,0-.5.5V22.1H33.49V19.55a4.23,4.23,0,0,1,1.31-3.46A3.87,3.87,0,0,1,37,15.21h5.06a3.65,3.65,0,0,1,2.34.72,4.15,4.15,0,0,1,1.41,3.4V22.1H43.93V19.16a.5.5,0,0,0-.5-.5.5.5,0,0,0-.5.5V22.1h-.76a2,2,0,0,0,0,4h.76v2.24h0V42a1.38,1.38,0,1,1-2.76,0V29.54a.5.5,0,0,0-.5-.5.5.5,0,0,0-.5.5V42a1.39,1.39,0,1,1-2.77,0ZM45,25.11H42.17a1,1,0,0,1,0-2h3.67v1.17A.84.84,0,0,1,45,25.11ZM39.67,43.43l.08.09h-.16Zm-18.49.09v-3h6.14v3Zm-15.25,0v-3h6.14v3ZM2.24,39.06v-.42A1.63,1.63,0,0,1,3.87,37H14.15a1.63,1.63,0,0,1,1.63,1.63v.42a.51.51,0,0,1-.5.5H2.74A.5.5,0,0,1,2.24,39.06ZM14,30.9l0,3h0v.21a0,0,0,0,0,0,0V36H4l0-5.1A5,5,0,0,1,14,30.9Zm10.22-4.74a5.06,5.06,0,0,1,5,4.74l0,5.11H19.2l0-5.1A5.06,5.06,0,0,1,24.26,26.16ZM31,39.06a.5.5,0,0,1-.5.5H18a.5.5,0,0,1-.5-.5v-.42A1.63,1.63,0,0,1,19.12,37H29.4A1.63,1.63,0,0,1,31,38.64Zm-18,1.5h2.2a1.5,1.5,0,0,0,1.35-.87,1.51,1.51,0,0,0,1.36.87h2.2v3H13.09Zm17.24-4.38v-2a.24.24,0,0,0,0-.08h0V33.9c0-.45.28-.83.57-.83s.54.38.57.81v.2h0V37A2.71,2.71,0,0,0,30.32,36.18ZM17.66,33.07c.24,0,.52.33.54.81v2.3a2.62,2.62,0,0,0-1.08.77V33.9C17.14,33.4,17.42,33.07,17.66,33.07Zm-2.07,0c.23,0,.5.33.53.81v3a2.69,2.69,0,0,0-1.05-.73V33.89C15.09,33.4,15.35,33.07,15.59,33.07Zm-13.78,1h0V33.9c0-.45.28-.83.57-.83s.55.38.57.81v.2H3s0,0,0,0v2A2.74,2.74,0,0,0,1.81,37Z"/><path d="M39.67,13a4.13,4.13,0,1,0-4.13-4.13A4.13,4.13,0,0,0,39.67,13Zm0-7.25a3.13,3.13,0,1,1-3.13,3.12A3.12,3.12,0,0,1,39.67,5.79Z"/></g><g id="b952614c-f991-4762-a1c2-96a89a380135" data-name="LABELS"><text transform="translate(0.02 55.07)" font-size="6" font-family="Roboto-Regular, Roboto">usher</text></g></svg>