<svg xmlns="http://www.w3.org/2000/svg" viewBox="0 0 50 50"><g id="a1e4fffe-36b3-4858-a390-81d212d1e381" data-name="ICONS"><path d="M40.9,2.31a.47.47,0,0,0-.14-.37.45.45,0,0,0-.36-.16H9.6a.48.48,0,0,0-.36.15.53.53,0,0,0-.14.38l.5,8.53,2.13,36.91a.5.5,0,0,0,.5.47h25a.49.49,0,0,0,.5-.46L40.51,7.84s0,0,0,0a.19.19,0,0,0,0-.07Zm-1,.47L39.56,7c-1-.44-3.25-1.07-7.45-.83a13.47,13.47,0,0,0-7.43,2.45,19.36,19.36,0,0,1-4,2c-4.31,1.54-9.1.13-10.15-.21l-.44-7.63ZM12.7,47.22l-.16-2.77,24.38.07-.19,2.7ZM37,43.52l-24.5-.07-1.85-32c1.62.48,6.21,1.58,10.42.08a20.89,20.89,0,0,0,4.15-2.1,12.48,12.48,0,0,1,7-2.31c4.65-.25,6.7.59,7.32.92Z"/></g><g id="ab884d27-021a-4bef-bd61-827595acc98f" data-name="LABELS"><text transform="translate(-0.05 55.07)" font-size="6" font-family="Roboto-Regular, Roboto">water</text></g></svg>