<svg xmlns="http://www.w3.org/2000/svg" viewBox="0 0 50 50"><g id="e884f864-f5b7-4907-8e4a-e2d27e1e9665" data-name="ICONS"><path d="M43,14.45s0,0,0-.06a.57.57,0,0,0-.12-.23L29.37.68a.57.57,0,0,0-.23-.12H6.92a.5.5,0,0,0-.5.5V48.35a.5.5,0,0,0,.5.5H42.49a.5.5,0,0,0,.5-.5V14.52S43,14.48,43,14.45ZM7.42,47.85V1.54H28.51v13a.51.51,0,0,0,.5.5H42V47.85ZM29.51,14V2.24L41.29,14Z"/><path d="M36.58,21.88H12.32a.5.5,0,0,0-.5.5.5.5,0,0,0,.5.5H36.58a.5.5,0,0,0,.5-.5A.5.5,0,0,0,36.58,21.88Z"/><path d="M36.58,29.16H12.32a.5.5,0,0,0-.5.5.5.5,0,0,0,.5.5H36.58a.5.5,0,0,0,.5-.5A.5.5,0,0,0,36.58,29.16Z"/><path d="M27.57,43.47H12.32a.5.5,0,0,0-.5.5.5.5,0,0,0,.5.5H27.57a.5.5,0,0,0,.5-.5A.5.5,0,0,0,27.57,43.47Z"/><path d="M34.55,36.4H12.32a.5.5,0,0,0-.5.5.5.5,0,0,0,.5.5H34.55a.51.51,0,0,0,.5-.5A.5.5,0,0,0,34.55,36.4Z"/><path d="M13.75,14.67l3.21-1,1.19,1.43,1.26-.37-5-6-1.11.33-.94,7.75,1.22-.37Zm.47-4.26,2,2.37-2.34.7Z"/><polygon points="18.75 11.82 20.61 11.26 21.17 13.12 22.28 12.78 21.72 10.93 23.59 10.37 23.27 9.29 21.4 9.85 20.85 8.01 19.74 8.34 20.29 10.18 18.43 10.74 18.75 11.82"/></g><g id="e81c43e7-f23f-49f7-aad5-69bfa0c4aa82" data-name="LABELS"><text transform="translate(0 54.5)" font-size="6" font-family="Roboto-Regular, Roboto">a-plus-paper</text></g></svg>