<svg xmlns="http://www.w3.org/2000/svg" viewBox="0 0 50 50"><g id="eaf4f8a7-a21a-46a8-be73-327f95ff04c3" data-name="ICONS"><path d="M37.38,48.38H26.64l-5.2-9,5.2-9.11H37.38a.4.4,0,0,0,.22-.06l.06,0a.49.49,0,0,0,.12-.13l0,0,5.52-9.55a.5.5,0,0,0,0-.5l-5.52-9.55a.48.48,0,0,0-.43-.25H26.69L21.33.87a.51.51,0,0,0-.69-.18.49.49,0,0,0-.18.68l5.34,9.25-5.25,9.1H10.15L4.78,10.43a.5.5,0,0,0-.68-.19.51.51,0,0,0-.18.69l5.36,9.29-5.36,9.3a.08.08,0,0,0,0,0,.55.55,0,0,0-.05.17v.07a.46.46,0,0,0,.06.22l5.37,9.31-5.37,9.3a.49.49,0,0,0,.18.68.45.45,0,0,0,.25.07.5.5,0,0,0,.43-.25l5.37-9.31H20.54l5.38,9.31a.5.5,0,0,0,.43.25h11a.51.51,0,0,0,.5-.5A.5.5,0,0,0,37.38,48.38ZM10.15,38.82l-5-8.66-.22-.39,5.22-9H20.61l5.2,9-5.26,9.1Zm32.17-18.6-5.23,9.05H26.71l-5.26-9.11,5.19-9H37.09Z"/><path d="M19.34,23H12.05L12,23l-.09.05-.08.05-.06.07-.05.05L8.06,29.52a.51.51,0,0,0,.18.69.57.57,0,0,0,.25.06A.51.51,0,0,0,8.93,30l3.47-6h6.94a.5.5,0,0,0,.5-.5A.51.51,0,0,0,19.34,23Z"/><path d="M45.9,21.15a.49.49,0,0,0-.68.18L39.7,30.88a.49.49,0,0,0,.19.68.42.42,0,0,0,.24.07.5.5,0,0,0,.44-.25l5.51-9.55A.49.49,0,0,0,45.9,21.15Z"/></g><g id="b62a4941-a5c1-48c3-a9c5-0d6c4f9f8143" data-name="LABELS"><text transform="translate(-0.54 54.97)" font-size="6" font-family="Roboto-Regular, Roboto">chemist<tspan x="21.39" y="0" letter-spacing="0.01em">r</tspan><tspan x="23.48" y="0">y-hexagons</tspan></text></g></svg>