<svg id="b0d0ea7e-bdd9-48ed-9395-060381905503" data-name="ICONS" xmlns="http://www.w3.org/2000/svg" viewBox="0 0 50 50"><path d="M46.4,22.55A2.45,2.45,0,1,1,44,25.5H34.56v2.72h3.25a.52.52,0,0,1,.35.14l1.7,1.71a2.41,2.41,0,0,1,1.34-.41,2.45,2.45,0,1,1-2.45,2.45,2.48,2.48,0,0,1,.4-1.34L37.6,29.22h-3v4.84a.5.5,0,0,1-.5.5H29.22v1.95l3.25,3.25a.5.5,0,0,1,.14.35v1.72a2.45,2.45,0,1,1-1,0V40.32l-3.25-3.25a.5.5,0,0,1-.14-.35V34.56H25.5V44a2.45,2.45,0,1,1-1,0V34.56H21.78v2.16a.5.5,0,0,1-.14.35l-3.25,3.25v1.51a2.45,2.45,0,1,1-1,0V40.11a.5.5,0,0,1,.14-.35l3.25-3.25V34.56H15.94a.5.5,0,0,1-.5-.5V29.22h-3l-1.55,1.55a2.48,2.48,0,0,1,.4,1.34A2.45,2.45,0,1,1,8.8,29.66a2.41,2.41,0,0,1,1.34.41l1.7-1.71a.52.52,0,0,1,.35-.14h3.25V25.5H6a2.45,2.45,0,1,1,0-1h9.44V21.78H12.19a.52.52,0,0,1-.35-.14l-1.7-1.71a2.41,2.41,0,0,1-1.34.41,2.45,2.45,0,1,1,2.45-2.45,2.48,2.48,0,0,1-.4,1.34l1.55,1.55h3V15.94a.5.5,0,0,1,.5-.5h4.84V13.49l-3.25-3.25a.5.5,0,0,1-.14-.35V8.17a2.45,2.45,0,1,1,1,0V9.68l3.25,3.25a.5.5,0,0,1,.14.35v2.16H24.5V6a2.45,2.45,0,1,1,1,0v9.44h2.72V13.28a.5.5,0,0,1,.14-.35l3.25-3.25V8.17a2.45,2.45,0,1,1,1,0V9.89a.5.5,0,0,1-.14.35l-3.25,3.25v1.95h4.84a.5.5,0,0,1,.5.5v4.84h3l1.55-1.55a2.48,2.48,0,0,1-.4-1.34,2.45,2.45,0,1,1,2.45,2.45,2.41,2.41,0,0,1-1.34-.41l-1.7,1.71a.52.52,0,0,1-.35.14H34.56V24.5H44A2.46,2.46,0,0,1,46.4,22.55ZM47.85,25a1.44,1.44,0,0,0-2.8-.5,1.3,1.3,0,0,0,0,1,1.44,1.44,0,0,0,2.8-.5Zm-5.2-7.11a1.45,1.45,0,1,0-2.9,0,1.36,1.36,0,0,0,.14.6,1.42,1.42,0,0,0,.7.71,1.4,1.4,0,0,0,.61.14A1.45,1.45,0,0,0,42.65,17.89Zm0,14.22a1.45,1.45,0,0,0-1.45-1.45,1.4,1.4,0,0,0-.61.14,1.42,1.42,0,0,0-.7.71,1.36,1.36,0,0,0-.14.6,1.45,1.45,0,0,0,2.9,0Zm-9.09,1.45V16.44H16.44V33.56H33.56Zm-1-26.43a1.43,1.43,0,0,0,1-1.36,1.43,1.43,0,1,0-1.45,1.46A1.35,1.35,0,0,0,32.61,7.13Zm1,37.1a1.43,1.43,0,0,0-1-1.36,1.35,1.35,0,0,0-.5-.1,1.46,1.46,0,1,0,1.45,1.46ZM25.5,5a1.45,1.45,0,1,0-1,0,1.3,1.3,0,0,0,1,0Zm.95,41.45a1.44,1.44,0,0,0-.95-1.35,1.3,1.3,0,0,0-1,0,1.45,1.45,0,1,0,1.95,1.35ZM18.39,7.13a1.45,1.45,0,1,0-1,0,1.35,1.35,0,0,0,.5.1A1.44,1.44,0,0,0,18.39,7.13Zm.95,37.1a1.49,1.49,0,0,0-1.45-1.46,1.35,1.35,0,0,0-.5.1,1.43,1.43,0,0,0-.95,1.36,1.45,1.45,0,0,0,2.9,0ZM10.11,18.49a1.36,1.36,0,0,0,.14-.6A1.45,1.45,0,1,0,8.8,19.34a1.4,1.4,0,0,0,.61-.14A1.42,1.42,0,0,0,10.11,18.49Zm.14,13.62a1.36,1.36,0,0,0-.14-.6,1.42,1.42,0,0,0-.7-.71,1.4,1.4,0,0,0-.61-.14,1.45,1.45,0,1,0,1.45,1.45ZM5.05,25a1.39,1.39,0,0,0-.1-.5,1.45,1.45,0,1,0,0,1A1.39,1.39,0,0,0,5.05,25Z"/><path d="M30.58,20.11v9.78a.5.5,0,0,1-.5.5H20.3a.5.5,0,0,1-.5-.5V20.11a.5.5,0,0,1,.5-.5h9.78A.5.5,0,0,1,30.58,20.11Zm-1,9.28V20.61H20.8v8.78Z"/></svg>