<svg xmlns="http://www.w3.org/2000/svg" viewBox="0 0 50 50"><g id="ba0ae666-5fc9-4ceb-9973-604654f6a85a" data-name="ICONS"><path d="M7.3,8h11a.5.5,0,0,0,.5-.5.5.5,0,0,0-.5-.5H7.3a.5.5,0,0,0-.5.5A.5.5,0,0,0,7.3,8Z"/><path d="M20,36.35H7.3a.5.5,0,1,0,0,1H20a.5.5,0,1,0,0-1Z"/><path d="M32.72,37.22v4.3H2.28V1.13h20v10a.5.5,0,0,0,.5.5h9.94v5.36c.13.12.26.23.37.35s.43.49.63.74v-7a.58.58,0,0,0,0-.19.64.64,0,0,0-.11-.16L23.13.28A.46.46,0,0,0,23,.17a.65.65,0,0,0-.19,0h-21a.5.5,0,0,0-.5.5V42a.5.5,0,0,0,.5.5H33.22a.5.5,0,0,0,.5-.5v-3.9l-.91-1S32.75,37.2,32.72,37.22ZM23.28,1.84,32,10.58H23.28Z"/><path d="M30.27,20a7.4,7.4,0,1,0,2.05,5.29A7.38,7.38,0,0,0,30.27,20Zm-8.49,9.28a.42.42,0,0,1-.14.09.45.45,0,0,1-.49-.12,6.15,6.15,0,0,1-1.57-3.76,6.22,6.22,0,0,1,1.47-4.3.45.45,0,0,1,.63,0,.44.44,0,0,1,.05.63,5.28,5.28,0,0,0-1.26,3.67,5.2,5.2,0,0,0,1.35,3.2A.45.45,0,0,1,21.78,29.26Z" fill="none"/><path d="M34.11,31.65a10.85,10.85,0,0,1-1.41,1.63,11.28,11.28,0,0,1-1.64,1.3l1.44,1.51h0l.21-.21.63-.6,2.22-2.11Z" fill="none"/><path d="M32.37,18A10.31,10.31,0,1,0,24.65,35.4,10.18,10.18,0,0,0,32,32.56,10.32,10.32,0,0,0,32.37,18ZM24.9,33.51a8.41,8.41,0,1,1,5.81-2.32A8.44,8.44,0,0,1,24.9,33.51Z" fill="none"/><rect x="38.75" y="33.09" width="3.26" height="16.42" transform="translate(-17.34 39.23) rotate(-43.59)" fill="none"/><path d="M31,19.29a8.42,8.42,0,1,0,2.32,6A8.42,8.42,0,0,0,31,19.29ZM30,30.46A7.41,7.41,0,1,1,30.27,20,7.4,7.4,0,0,1,30,30.46Z"/><path d="M48.29,45.79,36.62,33.54a.49.49,0,0,0,.15-.34.54.54,0,0,0-.14-.36l-2-2.06a11.32,11.32,0,0,0-1-12.75c-.2-.25-.4-.5-.63-.74s-.24-.23-.37-.35a11.31,11.31,0,0,0-15.39-.24H7.3a.5.5,0,0,0-.5.5.5.5,0,0,0,.5.5h9A11.3,11.3,0,0,0,14.05,22H7.3a.5.5,0,0,0,0,1h6.51a11.46,11.46,0,0,0,0,4.25H7.3a.5.5,0,0,0-.5.5.5.5,0,0,0,.5.5H14a11.3,11.3,0,0,0,10.59,8.2h.29a11.19,11.19,0,0,0,5.26-1.3l1.95,2a.51.51,0,0,0,.36.15.48.48,0,0,0,.24-.07s.07,0,.09-.06l-.34-.36a.5.5,0,0,1-.14-.35h0a.5.5,0,0,0,.14.35l.34.36.91,1,10.76,11.3a.52.52,0,0,0,.71,0l3.08-2.94a.52.52,0,0,0,.16-.35A.54.54,0,0,0,48.29,45.79ZM24.65,35.4A10.31,10.31,0,1,1,32,32.56,10.24,10.24,0,0,1,24.65,35.4Zm8.06.48-.21.21h0l-1.44-1.51a11.28,11.28,0,0,0,1.64-1.3,10.85,10.85,0,0,0,1.41-1.63l1.45,1.52-2.22,2.11ZM44.86,48.37,33.54,36.48l2.36-2.25L47.22,46.12Z"/><path d="M20.47,25.43a5.28,5.28,0,0,1,1.26-3.67.44.44,0,0,0-.05-.63.45.45,0,0,0-.63,0,6.22,6.22,0,0,0-1.47,4.3,6.15,6.15,0,0,0,1.57,3.76.45.45,0,0,0,.49.12.42.42,0,0,0,.14-.09.45.45,0,0,0,0-.63A5.2,5.2,0,0,1,20.47,25.43Z"/></g><g id="b4587dc6-ebdb-4fee-a025-ab6801780409" data-name="LABELS"><text transform="translate(0.03 55.07)" font-size="6" font-family="Roboto-Regular, Roboto">magnifying-glass-paper</text></g></svg>