<svg xmlns="http://www.w3.org/2000/svg" viewBox="0 0 50 50"><g id="a28773fa-0bda-4c55-a76f-030e378bd835" data-name="ICONS"><path d="M34.08,33.82a.32.32,0,0,0-.12.26.29.29,0,0,0,.14.26.34.34,0,0,0,.12-.26A.27.27,0,0,0,34.08,33.82Z"/><path d="M30.06,28.44a.32.32,0,0,0,.12-.26.29.29,0,0,0-.14-.26.34.34,0,0,0-.12.26A.27.27,0,0,0,30.06,28.44Z"/><path d="M49,41.5,41,23.22a.51.51,0,0,0-.46-.3H8.43a.5.5,0,0,0-.46.31L.52,41.51A.5.5,0,0,0,1,42.2H48.53A.5.5,0,0,0,49,42,.51.51,0,0,0,49,41.5ZM1.73,41.2l7-17.28H40.19L47.77,41.2Z"/><path d="M25,20.18a4.56,4.56,0,0,0,4.55-4.56,4.51,4.51,0,0,0-.5-2.06v0l-.18-.31L25.38,7.28a.52.52,0,0,0-.87,0L21.09,13.2l-.19.33,0,.07a4.48,4.48,0,0,0-.48,2A4.56,4.56,0,0,0,25,20.18ZM21.78,14v0l.16-.27,3-5.19,3,5.2a2.8,2.8,0,0,1,.14.25l0,0a3.51,3.51,0,0,1,.39,1.61,3.56,3.56,0,1,1-7.11,0A3.51,3.51,0,0,1,21.78,14Z"/><path d="M25,29.71c-3.2,0-6.6,1-6.6,2.85s3.4,2.84,6.6,2.84,6.59-1,6.59-2.84S28.14,29.71,25,29.71Zm0,4.69c-3.42,0-5.6-1.09-5.6-1.84s2.18-1.85,5.6-1.85,5.59,1.09,5.59,1.85S28.36,34.4,25,34.4Z"/><path d="M16,33.47c-.65,0-1.13.37-1.13.85s.48.86,1.13.86,1.13-.37,1.13-.86S16.69,33.47,16,33.47Z"/><path d="M34,28.17c-.85,0-1.51.51-1.51,1.16s.66,1.16,1.51,1.16,1.52-.51,1.52-1.16S34.81,28.17,34,28.17Z"/><path d="M34.09,33.34a.75.75,0,1,0,.87.74A.8.8,0,0,0,34.09,33.34Zm0,1a.29.29,0,0,1-.14-.26.32.32,0,0,1,.12-.26.27.27,0,0,1,.14.26A.34.34,0,0,1,34.1,34.34Z"/><path d="M30.05,28.92a.75.75,0,1,0-.87-.74A.8.8,0,0,0,30.05,28.92Zm0-1a.29.29,0,0,1,.14.26.32.32,0,0,1-.12.26.27.27,0,0,1-.14-.26A.34.34,0,0,1,30,27.92Z"/></g><g id="e1d8f678-f44f-4848-86e8-2189c1032f40" data-name="LABELS"><text transform="translate(-0.1 55.09)" font-size="6" font-family="Roboto-Regular, Roboto">mic<tspan x="9.86" y="0" letter-spacing="-0.01em">r</tspan><tspan x="11.83" y="0">oscope-slide</tspan></text></g></svg>