<svg xmlns="http://www.w3.org/2000/svg" viewBox="0 0 50 50"><g id="f41504c5-e126-4b0c-9bd4-fc80de6fa413" data-name="ICONS"><path d="M23.62,34.63h2.76a9.91,9.91,0,0,0,9.9-9.89V10.51a9.91,9.91,0,0,0-9.9-9.9H23.62a9.91,9.91,0,0,0-9.9,9.9V24.74A9.91,9.91,0,0,0,23.62,34.63Zm-8.9-24.12a8.91,8.91,0,0,1,8.9-8.9h2.76a8.91,8.91,0,0,1,8.9,8.9V24.74a8.9,8.9,0,0,1-8.9,8.89H23.62a8.9,8.9,0,0,1-8.9-8.89Z"/><path d="M37.21,43.43h-8.1V39.35A14.39,14.39,0,0,0,41.42,25.14a.5.5,0,0,0-.5-.5.5.5,0,0,0-.5.5A13.4,13.4,0,0,1,27,38.52H23A13.4,13.4,0,0,1,9.58,25.14a.5.5,0,0,0-.5-.5.5.5,0,0,0-.5.5A14.39,14.39,0,0,0,20.89,39.35v4.08h-8.1a.5.5,0,0,0-.5.5v4.46a.5.5,0,0,0,.5.5H37.21a.5.5,0,0,0,.5-.5V43.93A.5.5,0,0,0,37.21,43.43ZM21.89,39.52h6.22v3.91H21.89Zm14.82,8.37H13.29V44.43H36.71Z"/><path d="M19.64,9.89H30.36a.5.5,0,0,0,.5-.5.5.5,0,0,0-.5-.5H19.64a.5.5,0,0,0-.5.5A.5.5,0,0,0,19.64,9.89Z"/><path d="M19.64,18.28H30.36a.5.5,0,0,0,.5-.5.5.5,0,0,0-.5-.5H19.64a.5.5,0,0,0-.5.5A.5.5,0,0,0,19.64,18.28Z"/><path d="M19.64,26.67H30.36a.5.5,0,0,0,0-1H19.64a.5.5,0,0,0,0,1Z"/></g><g id="f3423da2-cee1-4d75-bf29-fda5c7ce5f15" data-name="LABELS"><text transform="translate(-0.1 55.08)" font-size="6" font-family="Roboto-Regular, Roboto">mic<tspan x="9.86" y="0" letter-spacing="-0.01em">r</tspan><tspan x="11.83" y="0">ophone</tspan></text></g></svg>