<svg xmlns="http://www.w3.org/2000/svg" viewBox="0 0 50 50"><g id="af46920b-14aa-4f67-ab4f-aeb71ba57b85" data-name="ICONS"><path d="M49.73,6.9a.48.48,0,0,0-.24-.3L47.1,5.25a.49.49,0,0,0-.68.19l-1.11,2-.55-.32a.51.51,0,0,0-.38,0,.52.52,0,0,0-.31.23l-2.6,4.62h0L37.06,19.7V14.53s0,0,0-.06a.64.64,0,0,0,0-.07.4.4,0,0,0-.12-.22L23.34.61a.48.48,0,0,0-.23-.13H.75a.5.5,0,0,0-.5.5V48.59a.51.51,0,0,0,.5.5H36.56a.5.5,0,0,0,.5-.5V32l9.66-17.11h0l2.6-4.62a.5.5,0,0,0-.19-.68l-.55-.31,1.1-2A.46.46,0,0,0,49.73,6.9ZM1.25,48.09V1.46H22.49V14.53a.5.5,0,0,0,.5.5H36.06v6.44L25.5,40.19a.46.46,0,0,0-.05.38v0l-.52,5.79a.49.49,0,0,0,.49.54.47.47,0,0,0,.3-.1l4.71-3.46a.45.45,0,0,0,.3-.22l5.32-9.42V48.09ZM23.49,14V2.17L35.35,14ZM26,45.37l.39-4.22,3,1.71Zm4.15-3.25-3.51-2L42.09,12.82l3.51,2Zm18-31.94-2.12,3.75-3.51-2L44.7,8.2Zm-2-2.29L47,6.36l1.53.86-.86,1.53Z"/><path d="M6.18,10h13.2a.5.5,0,0,0,.5-.5.51.51,0,0,0-.5-.5H6.18a.51.51,0,0,0-.5.5A.5.5,0,0,0,6.18,10Z"/><path d="M6.18,19.7H29.77a.5.5,0,0,0,.5-.5.5.5,0,0,0-.5-.5H6.18a.5.5,0,0,0-.5.5A.51.51,0,0,0,6.18,19.7Z"/><path d="M6.18,25.68H29.77a.5.5,0,0,0,.5-.5.5.5,0,0,0-.5-.5H6.18a.5.5,0,0,0-.5.5A.51.51,0,0,0,6.18,25.68Z"/><path d="M21.54,41.44H6.18a.51.51,0,0,0-.5.5.5.5,0,0,0,.5.5H21.54a.5.5,0,0,0,.5-.5A.51.51,0,0,0,21.54,41.44Z"/><path d="M25.13,31.47a.5.5,0,0,0-.5-.5H6.18a.51.51,0,0,0-.5.5.5.5,0,0,0,.5.5H24.63A.5.5,0,0,0,25.13,31.47Z"/></g><g id="f28611fa-5815-447d-be94-27569830a5a3" data-name="LABELS"><text transform="translate(0 54.5)" font-size="6" font-family="Roboto-Regular, Roboto">pen-and-paper</text></g></svg>