<svg xmlns="http://www.w3.org/2000/svg" viewBox="0 0 50 50"><g id="f653a1b6-55b0-4d84-91b3-45eeb44b7ee7" data-name="ICONS"><path d="M48.14,3.73A.5.5,0,0,0,48,3.38L45.2.75a.45.45,0,0,0-.35-.13.49.49,0,0,0-.35.15L42.22,3.19l-.79-.74a.49.49,0,0,0-.7,0L36,7.5a.5.5,0,0,0-.13-.19l-2.17-2s0,0,0,0l1.49-1.58A.5.5,0,1,0,34.39,3l-13,13.75a.5.5,0,0,0,0,.71.47.47,0,0,0,.34.13.48.48,0,0,0,.36-.16L33,5.94l0,0,2.18,2a.44.44,0,0,0,.2.11L4.68,40.62a.5.5,0,0,0-.13.43L1.89,48.72a.53.53,0,0,0,.13.53.48.48,0,0,0,.34.13.58.58,0,0,0,.19,0l7.51-3.1h.07a.51.51,0,0,0,.35-.15l31-32.81h0L46.53,8a.49.49,0,0,0,.13-.36.51.51,0,0,0-.15-.35l-.79-.74L48,4.08A.5.5,0,0,0,48.14,3.73ZM5.86,40.83l30.19-32L40.4,13l-30.2,32Zm-.49.91,4,3.74L3.2,48ZM41.08,12.25,36.74,8.14l4.37-4.62,4.35,4.1Zm1.86-8.38,1.94-2,2,1.94L45,5.81Z"/></g><g id="e78b4c42-1070-42f7-87e5-c3e0ab7e6c46" data-name="LABELS"><text transform="translate(0 55.07)" font-size="6" font-family="Roboto-Regular, Roboto">pen</text></g></svg>