<svg xmlns="http://www.w3.org/2000/svg" viewBox="0 0 50 50"><g id="ac2bed4b-e1e6-42e4-8160-69ee14cc8ade" data-name="ICONS"><path d="M47.65,5h-42a.5.5,0,0,0-.5.5V16.13a.5.5,0,0,0,.5.5.5.5,0,0,0,.5-.5V6h41V32.69H26.64a.51.51,0,0,0-.5.5.5.5,0,0,0,.5.5h21a.5.5,0,0,0,.5-.5V5.48A.5.5,0,0,0,47.65,5Z"/><path d="M7.56,24.22a5.49,5.49,0,0,0,7.07,0,5.48,5.48,0,1,0-7.07,0Zm3.54-8.66A4.48,4.48,0,0,1,14,23.46a4.6,4.6,0,0,1-5.78,0,4.48,4.48,0,0,1,2.89-7.9Z"/><path d="M17.8,34.52l0-.05s0,0,0,0h-.08Z"/><path d="M18.11,33.91h0a2.66,2.66,0,0,0-.28.56A2.66,2.66,0,0,1,18.11,33.91Z"/><polygon points="20.02 31.1 20.02 31.1 18.96 32.66 20.02 31.1"/><path d="M20.92,31.55l-2,2.92a1.81,1.81,0,0,0-.26.61,1.81,1.81,0,0,1,.26-.61Z"/><path d="M19.09,36.6a1.79,1.79,0,0,1-.45-1.19A1.79,1.79,0,0,0,19.09,36.6Z"/><path d="M29.55,21.34a.5.5,0,0,0-.69.17l-3.77,6.16-.63-.43a1.53,1.53,0,0,0-2.11.41l-1.68,2.49-.39-.8a2.52,2.52,0,0,0-.47-.67,5.46,5.46,0,0,0-4.4-2.21l-8.63.12a6.9,6.9,0,0,0-5.68,6.8V44.52a.5.5,0,0,0,.5.5H16.35a.5.5,0,0,0,.5-.5V34.86l.76,1.58a2.66,2.66,0,0,0,1.12,1.18h0l.11.09a2.73,2.73,0,0,0,3.8-.74l4.23-6.26a1.53,1.53,0,0,0-.41-2.12h0l-.55-.37L29.71,22A.5.5,0,0,0,29.55,21.34ZM18.11,33.91a2.66,2.66,0,0,0-.28.56l0,.05-.66-1.37a.49.49,0,0,0-.45-.29h-.34a.51.51,0,0,0-.5.5V44H6.47V33.64a.5.5,0,0,0-1,0V44H2.1V33.38a5.91,5.91,0,0,1,4.78-5.81l8.54-.11a4.49,4.49,0,0,1,3.63,1.86,1.61,1.61,0,0,1,.33.45L20,31.1,19,32.66l-.85,1.25Zm7.94-3.75-4.23,6.26a1.73,1.73,0,0,1-2.4.48l-.08-.07a1.39,1.39,0,0,1-.25-.23,1.79,1.79,0,0,1-.45-1.19c0-.11,0-.22,0-.33a1.81,1.81,0,0,1,.26-.61l2-2.92.09-.13,2.16-3.21a.54.54,0,0,1,.44-.23.52.52,0,0,1,.29.09l2,1.36A.52.52,0,0,1,26.05,30.16Z"/></g><g id="e1b6bfda-e9e6-4aaa-b047-4c1b5c6eb782" data-name="LABELS"><text transform="translate(0 54.83)" font-size="6" font-family="Roboto-Regular, Roboto">p<tspan x="3.37" y="0" letter-spacing="-0.01em">r</tspan><tspan x="5.34" y="0">esentation</tspan></text></g></svg>