<svg id="a91b1abe-183d-4f4a-b2b6-6c711fd17cf5" data-name="ICONS" xmlns="http://www.w3.org/2000/svg" viewBox="0 0 50 50"><path d="M49,39.81a.5.5,0,0,1,.5.5,9.18,9.18,0,0,1-9.19,9.19.5.5,0,0,1,0-1,8.19,8.19,0,0,0,8.19-8.19A.5.5,0,0,1,49,39.81Z"/><path d="M36.78,37.49l-6.14,6.13a.5.5,0,0,1-.35.14h-.12a.52.52,0,0,1-.36-.33A10.71,10.71,0,0,1,32.1,32.81l-1.38-1.39-3.85,3.85a.51.51,0,0,1-.36.15.49.49,0,0,1-.35-.15L20,29.08l-1.52,1.53,3.18,3.18a.5.5,0,0,1,0,.71L8.43,47.7a.5.5,0,0,1-.71,0L.65,40.63a.51.51,0,0,1-.15-.36.47.47,0,0,1,.15-.35l13.2-13.2a.47.47,0,0,1,.35-.15.51.51,0,0,1,.36.15l3.18,3.18,1.52-1.52-6.18-6.19a.5.5,0,0,1,0-.71l1.19-1.19-2.38-2.38a.51.51,0,0,1,0-.71l5.31-5.31a.51.51,0,0,1,.71,0l2.38,2.38,1.19-1.19a.5.5,0,0,1,.71,0l6.19,6.18,1.52-1.52-3.18-3.18a.51.51,0,0,1-.15-.36.47.47,0,0,1,.15-.35L39.92.65a.51.51,0,0,1,.71,0L47.7,7.72a.5.5,0,0,1,0,.71L34.5,21.63a.51.51,0,0,1-.35.15.53.53,0,0,1-.36-.15l-3.18-3.18L29.08,20l6.19,6.19a.47.47,0,0,1,.15.35.49.49,0,0,1-.15.36l-3.85,3.85,1.39,1.38a10.72,10.72,0,0,1,10.61-2.29.52.52,0,0,1,.33.36.5.5,0,0,1-.13.47l-6.14,6.14,1.93,1.93a1.82,1.82,0,0,1,2.71,1.39v0a.77.77,0,0,1,0,.15,1.64,1.64,0,0,1,0,.32c0,.05,0,.1,0,.14a1.73,1.73,0,0,1-.23.54s0,0,0,0a1.49,1.49,0,0,1-.23.28,1.83,1.83,0,0,1-1.3.54A1.79,1.79,0,0,1,39,41.6a1.82,1.82,0,0,1-.3-2.19ZM34.15,20.57,46.64,8.07,40.27,1.71,27.78,14.2Zm2.63,15.5,5.53-5.53A9.93,9.93,0,0,0,40,30.27a9.76,9.76,0,0,0-9.49,12l5.53-5.53Zm4.11,4.82a.82.82,0,0,0,0-1.16.9.9,0,0,0-.2-.14l-.08-.05a1.08,1.08,0,0,0-.19,0l-.16,0h0a.8.8,0,0,0-.71.71.83.83,0,0,0,.23.68.82.82,0,0,0,1.16,0ZM26.51,34.21l7.7-7.7-5.83-5.83L27.67,20l-5.84-5.83-1.19,1.19-5.31,5.31-1.19,1.19L20,27.67l.71.71ZM8.08,46.64,20.57,34.15,14.2,27.78,1.71,40.27ZM15,19.58l4.6-4.6-2-2L13,17.55Z"/><path d="M46.59,39.81a.5.5,0,0,1,.5.5,6.79,6.79,0,0,1-6.78,6.78.5.5,0,0,1-.5-.5.5.5,0,0,1,.5-.5,5.8,5.8,0,0,0,5.78-5.78A.5.5,0,0,1,46.59,39.81Z"/><path d="M44.17,39.81a.5.5,0,0,1,.5.5,4.37,4.37,0,0,1-4.36,4.36.5.5,0,0,1-.5-.5.5.5,0,0,1,.5-.5,3.35,3.35,0,0,0,3.36-3.36A.5.5,0,0,1,44.17,39.81Z"/></svg>