<svg id="b199bfa3-246e-4c4d-b445-c1ae58b6d7c3" data-name="ICONS" xmlns="http://www.w3.org/2000/svg" viewBox="0 0 50 50"><path d="M45.22,20.68a3.67,3.67,0,0,0-3.62,3.13H37.5A12.7,12.7,0,0,0,34,15.5l2.5-2.5a3.59,3.59,0,0,0,2.25.79,3.68,3.68,0,0,0,2.6-6.28,3.76,3.76,0,0,0-5.2,0,3.68,3.68,0,0,0-.35,4.78L33.3,14.8a12.68,12.68,0,0,0-8.44-3.29V7.66a3.66,3.66,0,1,0-1,0v3.9a12.66,12.66,0,0,0-7.27,3l-3.05-3.06a3.67,3.67,0,0,0-.35-4.77A3.78,3.78,0,0,0,8,6.68a3.69,3.69,0,0,0,0,5.2A3.65,3.65,0,0,0,10.58,13a3.7,3.7,0,0,0,2.26-.79l3,3a12.67,12.67,0,0,0-3.78,8.63H7.65a3.69,3.69,0,1,0,0,1h4.41a12.69,12.69,0,0,0,3.27,8l-3.53,3.53A3.77,3.77,0,0,0,7,36.64a3.69,3.69,0,0,0,0,5.2A3.67,3.67,0,0,0,12.53,37L16,33.48a12.7,12.7,0,0,0,7.82,3.45V41.6a3.7,3.7,0,1,0,1,0V37a12.72,12.72,0,0,0,9-3.79l3,3A3.7,3.7,0,0,0,36,38.41a3.69,3.69,0,1,0,1.51-3l-3-3a12.67,12.67,0,0,0,3-7.62h4.1a3.67,3.67,0,1,0,3.63-4.13ZM36.88,8.22a2.67,2.67,0,0,1,3.79,0,2.69,2.69,0,0,1,0,3.79,2.75,2.75,0,0,1-3.79,0A2.67,2.67,0,0,1,36.88,8.22Zm-24.4,2.95a2.73,2.73,0,0,1-3.79,0,2.68,2.68,0,1,1,3.79,0ZM4,27a2.68,2.68,0,1,1,2.68-2.68A2.68,2.68,0,0,1,4,27Zm7.51,14.1a2.75,2.75,0,0,1-3.79,0,2.68,2.68,0,1,1,3.79,0Zm30.07-4.63a2.68,2.68,0,1,1-3.8,0A2.69,2.69,0,0,1,41.61,36.51ZM21.74,4a2.68,2.68,0,1,1,2.68,2.68A2.68,2.68,0,0,1,21.74,4ZM27.1,45.22a2.68,2.68,0,1,1-2.68-2.68A2.69,2.69,0,0,1,27.1,45.22ZM24.78,36a11.74,11.74,0,1,1,7.81-20.47h0l.71.71h0A11.71,11.71,0,0,1,24.78,36ZM45.22,27a2.68,2.68,0,1,1,2.68-2.68A2.68,2.68,0,0,1,45.22,27Z"/><path d="M28.42,19.78a4.56,4.56,0,1,0-4.5,5.32,4.74,4.74,0,0,0,.75-.06A4.57,4.57,0,0,0,28.42,19.78Zm-3.91,4.27a3.56,3.56,0,1,1-1.18-7,3.92,3.92,0,0,1,.59-.05,3.57,3.57,0,0,1,.59,7.08Z"/><path d="M31.94,25.23a2.29,2.29,0,0,0-1.7-.39,2.38,2.38,0,0,0-1.9,2.74,2.33,2.33,0,0,0,1,1.56,2.29,2.29,0,0,0,1.32.43,1.72,1.72,0,0,0,.39,0,2.4,2.4,0,0,0,.93-4.3Zm-1.1,3.32a1.26,1.26,0,0,1-1-.22,1.41,1.41,0,0,1,.53-2.5.78.78,0,0,1,.22,0,1.23,1.23,0,0,1,.73.24,1.35,1.35,0,0,1,.56.91A1.38,1.38,0,0,1,30.84,28.55Z"/><path d="M23.48,28.18a2.29,2.29,0,0,0-1.7-.39,2.38,2.38,0,0,0-1.9,2.74,2.33,2.33,0,0,0,1,1.56,2.26,2.26,0,0,0,1.32.43l.39,0a2.4,2.4,0,0,0,.93-4.31Zm-1.1,3.32a1.26,1.26,0,0,1-1-.22,1.4,1.4,0,0,1,.53-2.5.75.75,0,0,1,.21,0,1.23,1.23,0,0,1,.74.24,1.35,1.35,0,0,1,.56.91A1.37,1.37,0,0,1,22.38,31.5Z"/></svg>