<svg xmlns="http://www.w3.org/2000/svg" viewBox="0 0 50 50"><g id="ebecbbf8-0400-4376-9b36-4a9fb84b2f96" data-name="ICONS"><path d="M35.72,2.28l-.16,0a2.84,2.84,0,0,0-2.21.21A2.94,2.94,0,0,0,31.9,4.21L30.38,9.29l-4.64,2.27H18.85l-1.09,0-.21,0a7.81,7.81,0,0,0-3.89,1.9,7.61,7.61,0,0,0-2.19,5.12c0,.88,0,2.46,0,3V27.7a2.81,2.81,0,0,0,2.79,2.84A2.73,2.73,0,0,0,16,29.88V44.17a3,3,0,0,0,2.93,3h.35a2.92,2.92,0,0,0,2.43-1.31,2.89,2.89,0,0,0,2.42,1.31h.27a3,3,0,0,0,2.93-3v-26L34,14.28l0,0a3,3,0,0,0,1.75-1.91L37.66,6A3,3,0,0,0,35.72,2.28Zm1,3.43-1.91,6.34a1.92,1.92,0,0,1-1.2,1.28l-.13.08-6.85,4a.51.51,0,0,0-.24.43v26.3a2,2,0,0,1-1.93,2h-.27a1.94,1.94,0,0,1-1.91-1.85V29.86a.5.5,0,0,0-.5-.5.5.5,0,0,0-.5.5V44.11s0,0,0,.06a2,2,0,0,1-1.93,2H19a2,2,0,0,1-1.93-2V18.6a.5.5,0,0,0-.5-.5.5.5,0,0,0-.5.5v9.1a1.79,1.79,0,1,1-3.57,0V21.62c0-.58,0-2.17,0-3a6.55,6.55,0,0,1,1.88-4.4,6.88,6.88,0,0,1,3.37-1.64h8.14a.59.59,0,0,0,.22-.05L31,10.09a.48.48,0,0,0,.26-.31L32.86,4.5a1.92,1.92,0,0,1,1-1.18,1.81,1.81,0,0,1,1.44-.13l.16,0A2,2,0,0,1,36.7,5.71Z"/><path d="M21.29,1.26a4.55,4.55,0,0,0-4.51,4.59,4.51,4.51,0,1,0,9,0A4.55,4.55,0,0,0,21.29,1.26Zm0,8.18a3.55,3.55,0,0,1-3.51-3.59,3.51,3.51,0,1,1,7,0A3.55,3.55,0,0,1,21.29,9.44Z"/></g><g id="a59644ec-927c-4578-80d3-6bb27e20c98c" data-name="LABELS"><text transform="translate(-0.1 54.83)" font-size="6" font-family="Roboto-Regular, Roboto"><tspan letter-spacing="-0.01em">v</tspan><tspan x="2.86" y="0">olunteering</tspan></text></g></svg>