<svg xmlns="http://www.w3.org/2000/svg" viewBox="0 0 50 50"><g id="aef022bb-cade-4bfe-b19f-cfdff73293ad" data-name="ICONS"><path d="M31.39,7.82A17.18,17.18,0,1,0,48.57,25,17.2,17.2,0,0,0,31.39,7.82Zm0,33.36A16.18,16.18,0,1,1,47.57,25,16.2,16.2,0,0,1,31.39,41.18Z"/><path d="M31.39,11.17A13.83,13.83,0,1,0,45.22,25,13.84,13.84,0,0,0,31.39,11.17Zm0,26.66A12.83,12.83,0,1,1,44.22,25,12.84,12.84,0,0,1,31.39,37.83Z"/><path d="M31.39,15.72a.5.5,0,0,0,.5-.5V13.63a.5.5,0,0,0-1,0v1.59A.5.5,0,0,0,31.39,15.72Z"/><path d="M23.7,16.6a.5.5,0,1,0-.71.71l1.13,1.13a.51.51,0,0,0,.36.15.5.5,0,0,0,.35-.15.5.5,0,0,0,0-.71Z"/><path d="M21.61,24.5H20a.5.5,0,0,0,0,1h1.6a.5.5,0,0,0,0-1Z"/><path d="M24.12,31.56,23,32.69a.51.51,0,0,0,0,.71.52.52,0,0,0,.71,0l1.13-1.13a.5.5,0,1,0-.71-.71Z"/><path d="M31.39,34.28a.5.5,0,0,0-.5.5v1.59a.5.5,0,0,0,1,0V34.78A.5.5,0,0,0,31.39,34.28Z"/><path d="M38.65,31.56a.48.48,0,0,0-.7,0,.5.5,0,0,0,0,.71l1.13,1.13a.52.52,0,0,0,.35.14.5.5,0,0,0,.35-.85Z"/><path d="M42.76,24.5h-1.6a.5.5,0,0,0,0,1h1.6a.5.5,0,0,0,0-1Z"/><path d="M39.08,16.6,38,17.73a.5.5,0,0,0,0,.71.49.49,0,0,0,.35.15.47.47,0,0,0,.35-.15l1.13-1.13a.5.5,0,0,0,0-.71A.5.5,0,0,0,39.08,16.6Z"/><path d="M33.16,26.11A2.07,2.07,0,0,0,31.89,23V18.44a.51.51,0,0,0-.5-.5h0a.5.5,0,0,0-.5.5V23a2.09,2.09,0,0,0,.5,4.13,2,2,0,0,0,1-.3l2.13,2a.5.5,0,1,0,.68-.73ZM30.29,25a1.1,1.1,0,1,1,1.1,1.1A1.1,1.1,0,0,1,30.29,25Z"/><path d="M11.73,19h0a2.12,2.12,0,0,0,1.35-.61,2.24,2.24,0,0,0,.67-1.62V11.5A2.23,2.23,0,0,0,13.26,10a1.8,1.8,0,0,0-1.37-.66,28.48,28.48,0,0,0-4,.11,6.8,6.8,0,0,0-3.36,2.22,8.54,8.54,0,0,0-1.79,3.84,42.56,42.56,0,0,0-.31,19.74,9.55,9.55,0,0,0,2.11,4.24,7.58,7.58,0,0,0,3.3,2.19,26.08,26.08,0,0,0,4,.12,1.8,1.8,0,0,0,1.37-.66,2.23,2.23,0,0,0,.52-1.48V34.29A1.85,1.85,0,0,0,12,32.47H9.28a44.64,44.64,0,0,1-.48-6.92A45.17,45.17,0,0,1,9.37,19ZM8.45,18.4a46.12,46.12,0,0,0-.65,7.14A44.86,44.86,0,0,0,8.36,33a.5.5,0,0,0,.49.43H12a.85.85,0,0,1,.48.2,1,1,0,0,1,.31.63v5.38a1.25,1.25,0,0,1-.29.83.77.77,0,0,1-.59.31c-1.67,0-3.55,0-3.72-.07A6.49,6.49,0,0,1,5.3,38.84a8.63,8.63,0,0,1-1.89-3.79,41.76,41.76,0,0,1,.31-19.3,7.64,7.64,0,0,1,1.59-3.42,5.68,5.68,0,0,1,2.82-1.89c.22,0,2.1-.06,3.76-.08a.78.78,0,0,1,.6.31,1.27,1.27,0,0,1,.29.83v5.23A1.2,1.2,0,0,1,11.7,18L8.94,18A.51.51,0,0,0,8.45,18.4Z"/></g><g id="a623e608-a53c-4612-bd87-218381eb2b6c" data-name="LABELS"><text transform="translate(1.2 54.88)" font-size="6" font-family="Roboto-Regular, Roboto">24hour-plane</text></g></svg>