<svg xmlns="http://www.w3.org/2000/svg" viewBox="0 0 50 50"><g id="ae870103-dd17-4142-b77a-baedf249703e" data-name="ICONS"><circle cx="24.34" cy="17.78" r="1.39"/><circle cx="28.3" cy="21.75" r="1.39"/><path d="M33.17,26.74a1.39,1.39,0,1,0-2-2,1.39,1.39,0,0,0,2,2Z"/><path d="M22.1,22.05a1.38,1.38,0,0,0,0-2,1.39,1.39,0,0,0-2,2A1.38,1.38,0,0,0,22.1,22.05Z"/><path d="M24.09,24.05a1.39,1.39,0,1,0,2,0A1.4,1.4,0,0,0,24.09,24.05Z"/><path d="M28,28.06a1.39,1.39,0,1,0,2,0A1.38,1.38,0,0,0,28,28.06Z"/><path d="M16.92,23.37a1.38,1.38,0,0,0,0,2,1.39,1.39,0,1,0,0-2Z"/><circle cx="21.86" cy="28.32" r="1.39"/><circle cx="25.74" cy="32.34" r="1.39"/><path d="M44.29,5.71a10.06,10.06,0,0,0-14.23,0L5.71,30.06A10.06,10.06,0,1,0,19.94,44.29L44.29,19.94a10.06,10.06,0,0,0,0-14.23ZM25.87,36.84,13.13,24.1l11-11L36.9,25.82Zm-6.63,6.75A9.07,9.07,0,0,1,6.41,30.76l6-6L25.22,37.6ZM43.59,19.24l-5.94,5.93L24.83,12.35l5.93-5.94A9.07,9.07,0,1,1,43.59,19.24Z"/></g><g id="a883461d-277c-4c06-ad67-f26a9740d098" data-name="LABELS"><text transform="translate(0.22 54.84)" font-size="6" font-family="Roboto-Regular, Roboto">band-aid</text></g></svg>