<svg xmlns="http://www.w3.org/2000/svg" viewBox="0 0 50 50"><g id="ab23b62c-c041-410d-87a9-eafad4ca5343" data-name="ICONS"><path d="M37.86,21.47a3,3,0,0,0-2,.79,3,3,0,0,0-5.11-2.13,3,3,0,0,0-5.06-1.89V13.35a3,3,0,0,0-3-3h0a3,3,0,0,0-2.14.89,3,3,0,0,0-.9,2.15V29.53a8.46,8.46,0,0,0-1-1.39A8.68,8.68,0,0,0,15.3,26a2.59,2.59,0,0,0-3.07.65,2.56,2.56,0,0,0-.17,3.14l9.75,14.69v3.43a.5.5,0,0,0,.5.5H37a.5.5,0,0,0,.5-.5l0-5a23.92,23.92,0,0,0,2-4.29,24.55,24.55,0,0,0,1.44-7.82V24.51A3,3,0,0,0,37.86,21.47Zm2,9.28a23.77,23.77,0,0,1-3.38,11.74.48.48,0,0,0-.07.26l0,4.67H22.81V44.33a.53.53,0,0,0-.08-.27L12.88,29.24a1.59,1.59,0,0,1,.1-1.93,1.61,1.61,0,0,1,1.92-.38,7.67,7.67,0,0,1,2.88,1.9,8.12,8.12,0,0,1,1.53,2.39,7.72,7.72,0,0,1,.28.72.49.49,0,0,0,.55.34.5.5,0,0,0,.42-.49V13.35a2,2,0,0,1,.6-1.44,2,2,0,0,1,1.44-.6h0a2,2,0,0,1,2,2V27.8a.5.5,0,0,0,.5.5.5.5,0,0,0,.5-.5V20.49a2,2,0,0,1,4.08,0v7.44a.5.5,0,0,0,.5.5.5.5,0,0,0,.5-.5V22.37a2,2,0,1,1,4.09,0v5.56a.5.5,0,0,0,1,0V24.51a2,2,0,1,1,4.08,0Z"/><path d="M10,6a1.37,1.37,0,1,0,1.36,1.36A1.36,1.36,0,0,0,10,6Z"/><path d="M14.94,8.69a1.37,1.37,0,1,0-1.37-1.37A1.36,1.36,0,0,0,14.94,8.69Z"/><path d="M19.91,8.69a1.37,1.37,0,1,0-1.36-1.37A1.37,1.37,0,0,0,19.91,8.69Z"/><path d="M24.89,8.69a1.37,1.37,0,1,0-1.36-1.37A1.36,1.36,0,0,0,24.89,8.69Z"/><circle cx="29.87" cy="7.32" r="1.36"/><circle cx="29.87" cy="2.48" r="1.36"/><circle cx="29.87" cy="12.17" r="1.36"/><path d="M14.94,3.84a1.37,1.37,0,1,0-1.37-1.36A1.36,1.36,0,0,0,14.94,3.84Z"/><path d="M14.94,13.53a1.36,1.36,0,1,0-1.37-1.36A1.36,1.36,0,0,0,14.94,13.53Z"/><path d="M19.91,3.84a1.37,1.37,0,1,0-1.36-1.36A1.36,1.36,0,0,0,19.91,3.84Z"/><circle cx="34.71" cy="12.17" r="1.36"/><path d="M39.56,10.81a1.36,1.36,0,1,0,1.36,1.36A1.37,1.37,0,0,0,39.56,10.81Z"/><circle cx="34.71" cy="2.48" r="1.36"/><path d="M39.56,8.69a1.37,1.37,0,1,0-1.37-1.37A1.36,1.36,0,0,0,39.56,8.69Z"/></g><g id="b3d759f4-8691-4725-a4a8-e7410e4081de" data-name="LABELS"><text transform="translate(-0.38 54.97)" font-size="6" font-family="Roboto-Regular, Roboto">b<tspan x="3.37" y="0" letter-spacing="-0.02em">r</tspan><tspan x="5.28" y="0">aille</tspan></text></g></svg>