<svg xmlns="http://www.w3.org/2000/svg" viewBox="0 0 50 50"><g id="e8f42488-022b-4f80-889d-2b56701d66b1" data-name="ICONS"><path d="M45.25,29.14V6.29a.5.5,0,0,0-.5-.5H38.3V4.47a2.16,2.16,0,1,0-4.32,0V5.79H12.74V4.47a2.16,2.16,0,1,0-4.32,0V5.79H1.58a.5.5,0,0,0-.5.5V40.81a.5.5,0,0,0,.5.5H28.67A10.55,10.55,0,1,0,45.25,29.14ZM38.36,46.69a9.56,9.56,0,1,1,9.56-9.56A9.57,9.57,0,0,1,38.36,46.69ZM36.14,3.31A1.16,1.16,0,0,1,37.3,4.47V6.88a1.16,1.16,0,0,1-2.32,0V4.47A1.16,1.16,0,0,1,36.14,3.31Zm-25.56,0a1.16,1.16,0,0,1,1.16,1.16V6.88a1.16,1.16,0,1,1-2.32,0V4.47A1.16,1.16,0,0,1,10.58,3.31ZM8.42,6.79v.09a2.16,2.16,0,0,0,4.32,0V6.79H34v.09a2.16,2.16,0,1,0,4.32,0V6.79h6V12H2.08V6.79ZM2.08,40.31V13H44.25V28.37a10.46,10.46,0,0,0-5.89-1.8A10.58,10.58,0,0,0,27.8,37.13a10.74,10.74,0,0,0,.49,3.18Z"/><path d="M42.71,41l-4.1-4.09V31.62a.5.5,0,0,0-.5-.5.5.5,0,0,0-.5.5V37.1a.49.49,0,0,0,.15.36L42,41.7a.52.52,0,0,0,.35.14.54.54,0,0,0,.36-.14A.51.51,0,0,0,42.71,41Z"/></g><g id="a7dea73f-448c-4874-b824-d0c9970b0bec" data-name="LABELS"><text transform="translate(0.22 54.88)" font-size="6" font-family="Roboto-Regular, Roboto">calendar-dock</text></g></svg>