<svg id="af330e17-386e-4ffb-88ab-48b01d20cdde" data-name="ICONS" xmlns="http://www.w3.org/2000/svg" viewBox="0 0 50 50"><path d="M37.5,43.74v3a2.5,2.5,0,0,1-2.5,2.5H14.76a2.5,2.5,0,0,1-2.5-2.5V18.14a2.5,2.5,0,0,1,2.5-2.5h6.51A49.26,49.26,0,0,1,19.06,5.32a.5.5,0,0,1,.66-.49,15.59,15.59,0,0,0,4.67,1h0c-.14-1.36-.32-2.59-.54-3.72A.51.51,0,0,1,24,1.65a.47.47,0,0,1,.43-.15A8.57,8.57,0,0,0,30,.56a.5.5,0,0,1,.5,0A.52.52,0,0,1,30.7,1a48.93,48.93,0,0,1-3.07,14.64H35a2.5,2.5,0,0,1,2.5,2.5v25.6Zm-1,3V44.24H13.26v2.51a1.5,1.5,0,0,0,1.5,1.5H35A1.5,1.5,0,0,0,36.5,46.75Zm0-3.51V21.65H13.26V43.24Zm0-22.59V18.14a1.5,1.5,0,0,0-1.5-1.5H14.76a1.5,1.5,0,0,0-1.5,1.5v2.51Zm-9.95-5c.69-1.08,2.85-8.52,3.13-13.82A9.56,9.56,0,0,1,25,2.56a58.61,58.61,0,0,1,.72,7.1.49.49,0,0,1-.47.52.48.48,0,0,1-.53-.47c0-1-.11-2-.2-2.93a.22.22,0,0,1-.14,0A15.22,15.22,0,0,1,20.11,6a48.57,48.57,0,0,0,2.22,9.63Z"/><path d="M31.62,29.94v5a.5.5,0,0,1-.5.5H27.89v3.24a.5.5,0,0,1-.5.5h-5a.51.51,0,0,1-.5-.5V35.45H18.64a.5.5,0,0,1-.5-.5v-5a.5.5,0,0,1,.5-.5h3.23V26.2a.51.51,0,0,1,.5-.5h5a.5.5,0,0,1,.5.5v3.24h3.23A.5.5,0,0,1,31.62,29.94Zm-1,4.51v-4H27.39a.5.5,0,0,1-.5-.5V26.7h-4v3.24a.5.5,0,0,1-.5.5H19.14v4h3.23a.5.5,0,0,1,.5.5v3.24h4V35a.5.5,0,0,1,.5-.5Z"/></svg>