<svg xmlns="http://www.w3.org/2000/svg" viewBox="0 0 50 50"><g id="b7a47e53-8092-4300-ab8a-c04a3952c9ae" data-name="ICONS"><path d="M25,2.16A15.19,15.19,0,0,0,11.55,24.35a.5.5,0,1,0,.89-.47,14.16,14.16,0,1,1,26.72-6.54,14.35,14.35,0,0,1-3.65,9.5c-.22.26-.63.65-1.11,1.11a30.32,30.32,0,0,0-3.18,3.44C29.93,33.14,30.11,35,30.31,37a9.79,9.79,0,0,1-.52,5.46,7.71,7.71,0,0,1-6.43,4.38c-5,.16-7.57-5.07-7.85-5.66a.5.5,0,0,0-.91.42c.5,1.06,3.21,6.24,8.49,6.24h.31a8.75,8.75,0,0,0,7.3-5,10.83,10.83,0,0,0,.61-6C31.12,35,31,33.43,32,32a29.74,29.74,0,0,1,3.08-3.31c.51-.5.91-.89,1.17-1.18a15.54,15.54,0,0,0,3.89-10.15A15.19,15.19,0,0,0,25,2.16Z"/><path d="M29.6,27.18c2-2.15,4.17-4.38,4.17-8.18,0-5.77-4.15-10.64-9.07-10.64s-9,4.69-9,10.46a12,12,0,0,0,.88,4.54.52.52,0,0,0,.66.27.51.51,0,0,0,.27-.65,10.87,10.87,0,0,1-.78-3.4,5.19,5.19,0,0,1,1.12-.12,5.93,5.93,0,0,1,5.67,6.15c0,1.69-1.28,2.83-2.51,3.93l-.28.25-.44.38c-1,.87-2.59,2.17-2.59,4.3,0,2.31,1.42,4.77,4.05,4.77A4.12,4.12,0,0,0,25.33,33a24,24,0,0,1,3.73-5.27Zm-1.27-.1a26.25,26.25,0,0,0-4,5.72.5.5,0,0,0,0,.54,3.07,3.07,0,0,1,.57,1.79,3.12,3.12,0,0,1-3.12,3.11c-2,0-3.05-1.94-3.05-3.77,0-1.66,1.23-2.7,2.23-3.53l.47-.41.28-.24c1.33-1.19,2.84-2.54,2.84-4.68a6.93,6.93,0,0,0-6.67-7.15,6.31,6.31,0,0,0-1.15.11c.12-5.1,3.65-9.21,8-9.21s8.07,4.41,8.07,9.64c0,3.4-1.89,5.39-3.89,7.49Z"/></g><g id="ed2793ef-a76b-4c1b-8ea9-3ccd536be5b8" data-name="LABELS"><text transform="translate(0 55.03)" font-size="6" font-family="Roboto-Regular, Roboto">ear</text></g></svg>