<svg xmlns="http://www.w3.org/2000/svg" viewBox="0 0 50 50"><g id="a8165cf4-18e0-4bbb-bc6b-767773b1408d" data-name="ICONS"><path d="M24.62,11.2c-13.08,0-24,9.75-24,13.43,0,3.28,10.78,13.42,24,13.42,12.58,0,24-9.66,24-13.42S37.71,11.2,24.62,11.2Zm7.07,2a9.63,9.63,0,1,1-14.54.16A26.8,26.8,0,0,1,31.69,13.19ZM24.62,37.05c-12.93,0-23-9.91-23-12.42,0-2,5.57-8,14-10.91a10.62,10.62,0,1,0,17.63-.12c8.61,2.82,14.33,9,14.33,11C47.6,27.14,37.56,37.05,24.62,37.05Z"/><path d="M24.36,25.48a5.83,5.83,0,1,0-5.83-5.83A5.84,5.84,0,0,0,24.36,25.48Zm0-10.66a4.83,4.83,0,1,1-4.83,4.83A4.84,4.84,0,0,1,24.36,14.82Z"/><path d="M22,14.31a28,28,0,0,1,3.6-.35,6,6,0,0,0-1.28-.14A5.64,5.64,0,0,0,22,14.31Z" fill="none"/><path d="M18.53,19.65A5.84,5.84,0,0,0,23.4,25.4,4.91,4.91,0,0,1,22,23.81a4.82,4.82,0,1,1,6.58-6.57,4.87,4.87,0,0,1,1.58,1.45A5.85,5.85,0,0,0,25.64,14a28,28,0,0,0-3.6.35A5.83,5.83,0,0,0,18.53,19.65Z"/><path d="M28.53,17.24a4.8,4.8,0,0,1-4.17,7.24A4.72,4.72,0,0,1,22,23.81,4.91,4.91,0,0,0,23.4,25.4a6.22,6.22,0,0,0,1,.08,5.84,5.84,0,0,0,5.84-5.83,6,6,0,0,0-.09-1A4.87,4.87,0,0,0,28.53,17.24Z"/></g><g id="ae0e2038-dabf-4d2d-9082-e5725164ee8d" data-name="LABELS"><text transform="translate(0.87 55.03)" font-size="6" font-family="Roboto-Regular, Roboto"><tspan letter-spacing="-0.01em">ey</tspan><tspan x="5.94" y="0">e</tspan></text></g></svg>