<svg xmlns="http://www.w3.org/2000/svg" viewBox="0 0 50 50"><g id="e3a4a963-5134-4b90-a70c-b8eb4dad6469" data-name="ICONS"><path d="M16.53,27.74a.66.66,0,0,1,.18.19,1,1,0,0,1,.13.41A2.79,2.79,0,0,0,19.45,31h0a2.33,2.33,0,0,0,1.65-.7,3.53,3.53,0,0,0,1-2.21.49.49,0,0,0-.44-.48l-.06,0a.51.51,0,0,0-.5.5,2.55,2.55,0,0,1-.71,1.5,1.45,1.45,0,0,1-1,.41,1.81,1.81,0,0,1-1.62-1.73,1.88,1.88,0,0,0-.29-.87,1.85,1.85,0,0,0-.48-.49A3.9,3.9,0,0,1,15.25,24a3.56,3.56,0,0,1,1-2.59,3,3,0,0,1,2.18-1A3.41,3.41,0,0,1,21.64,24a.49.49,0,0,0,.44.48l.06,0a.5.5,0,0,0,.5-.5,4.41,4.41,0,0,0-4.2-4.59,4,4,0,0,0-2.9,1.29A4.53,4.53,0,0,0,14.25,24,4.86,4.86,0,0,0,16.53,27.74Z"/><path d="M20.56,27a.61.61,0,0,0-.3,0,12.66,12.66,0,0,0,.55-2c0-.19,0-.38,0-.38a3.94,3.94,0,0,0-.07-1A2.52,2.52,0,0,0,19.47,22a2,2,0,0,0-2.42.93,2.89,2.89,0,0,0-.43,1.24,3.08,3.08,0,0,0,.13,1.24.5.5,0,0,0,.62.33.51.51,0,0,0,.33-.63,2,2,0,0,1-.08-.84,1.77,1.77,0,0,1,.27-.79c.18-.29.68-.77,1.19-.55a1.54,1.54,0,0,1,.72.94,3.15,3.15,0,0,1,0,.75,2.27,2.27,0,0,1,0,.29,14.25,14.25,0,0,1-.56,2,1.15,1.15,0,0,0,0,.91.89.89,0,0,0,.48.49.81.81,0,0,0,.27,0,.83.83,0,0,0,.34-.07,1.08,1.08,0,0,0,.52-.59A.5.5,0,0,0,20.56,27Z"/><path d="M43.4,27.73a.5.5,0,0,0-.63-.2l-.1,0a15.21,15.21,0,0,1-1.56-4.86,17.28,17.28,0,0,1,.34-2.65c.42-2.39.93-5.36-.18-7.88C38.25,5.33,28.75-.58,18.68,1.83,6.51,4.74,5.24,14.48,5.34,21.55a16.71,16.71,0,0,0,1.37,6.63l-.06,0a.5.5,0,0,0-.05.6,18.1,18.1,0,0,1,2.58,7.33A18.74,18.74,0,0,1,6.59,47.89a.52.52,0,0,0,0,.51.5.5,0,0,0,.43.25H7l2.09,0,.12,0,.09,0,20.44-.25a.5.5,0,0,0,.48-.62,3.31,3.31,0,0,1,1.31-3.7A3.17,3.17,0,0,1,34,43.81a5.35,5.35,0,0,0,4.23,0c1.09-.53,1.45-1.31,2.16-2.85.29-.63.65-1.41,1.15-2.37.74-1.43,1.33-2.37,1.81-3.12a6.23,6.23,0,0,0,1.31-3.32A7.68,7.68,0,0,0,43.4,27.73ZM39.47,40.59c-.67,1.45-.92,2-1.69,2.37a4.42,4.42,0,0,1-3.47-.1,4.12,4.12,0,0,0-3.27.33,4.25,4.25,0,0,0-1.87,4.19l-21.28.26A19.75,19.75,0,0,0,10.17,36a19.13,19.13,0,0,0-1.93-6.33,36.6,36.6,0,0,0,10.37,3,39.92,39.92,0,0,0,13.77-.77,52,52,0,0,0,10.39-3.27,6.45,6.45,0,0,1,.88,3.52A5.12,5.12,0,0,1,42.49,35c-.48.77-1.09,1.73-1.85,3.2C40.13,39.16,39.77,40,39.47,40.59ZM18.92,2.8c6.49-1.55,17.55,1,21.44,9.79,1,2.24.5,5,.11,7.3a17.8,17.8,0,0,0-.36,2.82A15.93,15.93,0,0,0,41.75,28a50,50,0,0,1-9.57,3,38.87,38.87,0,0,1-13.44.76A35.84,35.84,0,0,1,7.9,28.42a16.26,16.26,0,0,1-1.56-6.88C6.24,14.24,7.57,5.52,18.92,2.8Z"/></g><g id="a3ba51ee-3ed1-43cb-8ffb-3c29dd715435" data-name="LABELS"><text transform="translate(-0.06 54.99)" font-size="6" font-family="Roboto-Regular, Roboto">gaiter</text></g></svg>