<svg xmlns="http://www.w3.org/2000/svg" viewBox="0 0 50 50"><g id="f4c2672f-f4bd-4ac2-9a19-ca64112872cf" data-name="ICONS"><path d="M29.28,6.22A194.33,194.33,0,0,0,6.1,2.3a.48.48,0,0,0-.55.44A.49.49,0,0,0,6,3.29l.37,0A191.77,191.77,0,0,1,29.05,7.19c2,.47,4.95,1.18,6.45,3.68,1.63,2.72.69,6.2,0,8a.36.36,0,0,0,0,.11L31.74,46.62l-.09.63a.5.5,0,0,0,.43.56h.07a.5.5,0,0,0,.49-.44l3.8-28.18c.77-2,1.75-5.79-.08-8.85C34.64,7.49,31.29,6.69,29.28,6.22Z"/><path d="M24.11,18.91a.53.53,0,0,0-.42-.18c-2.69.21-5.41.32-8.12.32-1,0-2.09,0-3.13,0-2.73-.07-5.49-.26-8.21-.54a.5.5,0,1,0-.1,1c2.74.29,5.53.48,8.28.55,1.24,0,2.49,0,3.75,0,2.31,0,4.63-.09,6.93-.26a60.24,60.24,0,0,0-1.21,10c-.39,8.43.43,16.65.86,17.7a.51.51,0,0,0,.46.31.41.41,0,0,0,.19,0,.49.49,0,0,0,.27-.65c-.31-.75-1.09-7.91-.86-15.75a60.14,60.14,0,0,1,1.41-12A.5.5,0,0,0,24.11,18.91Z"/><path d="M44.39,19.43l-5.18-3a.5.5,0,1,0-.5.86l5.18,3a.45.45,0,0,0,.25.07.5.5,0,0,0,.25-.93Z"/><path d="M45.82,13.07h-6a.5.5,0,0,0-.5.5.5.5,0,0,0,.5.5h6a.5.5,0,0,0,.5-.5A.5.5,0,0,0,45.82,13.07Z"/><path d="M38.52,10.53a.51.51,0,0,0,.44.25.59.59,0,0,0,.25-.07l5.18-3a.5.5,0,0,0-.5-.87l-5.18,3A.52.52,0,0,0,38.52,10.53Z"/><path d="M36.29,8.3a.57.57,0,0,0,.25.06A.51.51,0,0,0,37,8.11l3-5.18a.5.5,0,0,0-.87-.5l-3,5.18A.51.51,0,0,0,36.29,8.3Z"/></g><g id="e569340c-0560-446a-a1e5-41f6ba43cd43" data-name="LABELS"><text transform="translate(0.73 55.03)" font-size="6" font-family="Roboto-Regular, Roboto">knee</text></g></svg>