<svg id="a27a4679-5270-4b6c-a141-c7c0c8490cc9" data-name="ICONS" xmlns="http://www.w3.org/2000/svg" viewBox="0 0 50 50"><path d="M45.77,27.61c3.62,5.17,4.26,16.08,3.07,17.53-.44.8-2.36,1.21-6.37,1.3h-.16c-.24,0-26.77.4-33.11.4H8c-2.37-.09-5.66-1-7.14-3.38-1.7-2.68,1.67-4.84,2.94-5.65a90.63,90.63,0,0,1,19-9.3c1-.36,2.09-.71,3.18-1.05a4.54,4.54,0,0,1-1.26-2.79L23.49,8.27a5,5,0,0,1,4.74-5.35A2.45,2.45,0,0,1,30,3.55a2.88,2.88,0,0,0,1,.69c.15,0,.45-.19.67-.34a2.08,2.08,0,0,1,1.25-.49,2.17,2.17,0,0,1,1.21.7c.17.15.44.4.56.41h0a1.71,1.71,0,0,0,.64-.39,1.92,1.92,0,0,1,1.21-.56,2.17,2.17,0,0,1,1.26.61,1.94,1.94,0,0,0,.58.37c.16,0,.44-.25.64-.43a2,2,0,0,1,1.14-.65A2.2,2.2,0,0,1,41.48,4a2,2,0,0,0,.56.32h0a2.64,2.64,0,0,0,1-.67A2.35,2.35,0,0,1,44.88,3a4.28,4.28,0,0,1,3.79,4.67L47,24.68A5.38,5.38,0,0,1,45.77,27.61Zm2.25,17c.77-1.06.45-11.19-3-16.25a5.39,5.39,0,0,1-2.22,1.06h-.1a.5.5,0,0,1-.49-.4.49.49,0,0,1,.38-.59A4.33,4.33,0,0,0,46,24.59l1.66-17A3.17,3.17,0,0,0,47.42,6a3.24,3.24,0,0,0-2.65-2,1.37,1.37,0,0,0-1,.37,3.09,3.09,0,0,1-1.58.92,1.88,1.88,0,0,1-1.24-.48,1.66,1.66,0,0,0-.7-.36,1.92,1.92,0,0,0-.54.39,2.09,2.09,0,0,1-1.28.69A2.11,2.11,0,0,1,37.16,5a1.65,1.65,0,0,0-.65-.4,1.72,1.72,0,0,0-.59.36,2,2,0,0,1-1.3.59,2.07,2.07,0,0,1-1.2-.67c-.19-.18-.46-.43-.6-.44a1.92,1.92,0,0,0-.62.32,2.06,2.06,0,0,1-1.34.5c-.25,0-.68-.15-1.56-.94a1.42,1.42,0,0,0-1-.37,4,4,0,0,0-3.8,4.28l1.23,16.38a3.48,3.48,0,0,0,3,3.2l.65.1a.5.5,0,1,1-.15,1l-.66-.1a4.53,4.53,0,0,1-1.58-.57c-1.31.4-2.59.82-3.81,1.25A89.64,89.64,0,0,0,4.32,38.64c-2.62,1.68-3.43,3-2.62,4.28,1.19,1.89,4,2.83,6.33,2.91,2.09.08,32.54-.34,34.26-.39h.16C47.23,45.33,47.92,44.75,48,44.58Z"/><path d="M45.92,7.46a.5.5,0,0,1-.92.39l-.07-.15a.5.5,0,0,0-1,.14l-.24,2.29a.51.51,0,0,1-.5.45h-.05a.5.5,0,0,1-.45-.55L43,7.74a1.5,1.5,0,0,1,2.87-.44Z"/><path d="M42.65,33.77a.5.5,0,0,1-.16.69.54.54,0,0,1-.26.07.49.49,0,0,1-.43-.24l-1.66-2.7a.5.5,0,0,1,.17-.69.49.49,0,0,1,.68.17Z"/><path d="M38.25,10.29a.51.51,0,0,1-.37.61.5.5,0,0,1-.6-.37L36.73,8.3a.47.47,0,0,0-.48-.38h0a.47.47,0,0,0-.48.37l-.58,2.25a.5.5,0,0,1-.48.37h-.13a.51.51,0,0,1-.36-.61L34.79,8a1.48,1.48,0,0,1,1.45-1.12h0A1.48,1.48,0,0,1,37.7,8.06Z"/><path d="M36.58,31.33v4.32a.5.5,0,0,1-.5.5.51.51,0,0,1-.5-.5V31.33a.5.5,0,0,1,.5-.5A.5.5,0,0,1,36.58,31.33Z"/><path d="M31.86,30.9a.5.5,0,0,1,.17.69l-1.66,2.7a.51.51,0,0,1-.69.17.5.5,0,0,1-.16-.69l1.65-2.7A.51.51,0,0,1,31.86,30.9Z"/><path d="M29.72,10a.5.5,0,0,1-.45.55h-.05a.51.51,0,0,1-.5-.45l-.24-2.29a.5.5,0,0,0-.95-.14l-.07.15a.5.5,0,0,1-.92-.39l.07-.16a1.5,1.5,0,0,1,2.87.44Z"/></svg>