<svg xmlns="http://www.w3.org/2000/svg" viewBox="0 0 50 50"><g id="e4466379-5c05-4d80-b3f8-04e39bbcf20f" data-name="ICONS"><path d="M47,31.1c-.18-1.3-.37-2.71-.58-4.23-1.33-10.06-9.77-15.35-14.13-15.49a6.56,6.56,0,0,0-4.4,2.11l0-7.82a.49.49,0,0,0-.3-.46.51.51,0,0,0-.32,0c-.4,0-3.11,0-5.52-.08a.54.54,0,0,0-.36.14.51.51,0,0,0-.15.36V7.05h0l0,6.18c-.92-.89-2.58-2.19-4.4-2.11-4.36.13-12.8,5.43-14.13,15.48-.21,1.53-.4,2.94-.58,4.23C1.16,38.51.68,42,2.1,43.33c1,.92,3.86.5,6.09,0C12,42.42,18.5,40,19.49,37.46c1.45-3.8,1.89-11.39,2-12.88,1.81-1.37,2.85-1.69,3.4-1.7s1.48.27,3.17,1.68v0c0,.36.13,8.94,1.74,13.14,1,2.58,7.46,5,11.31,5.85a18.52,18.52,0,0,0,4,.56,3.23,3.23,0,0,0,2.11-.54C48.57,42.28,48.09,38.78,47,31.1Zm-.56,11.76c-.41.38-2.17.45-5.18-.25-4.55-1.06-9.89-3.42-10.59-5.24-1.25-3.26-1.58-9.56-1.66-11.89a36.55,36.55,0,0,1,2.87,3.1.48.48,0,0,0,.39.19.45.45,0,0,0,.31-.11.5.5,0,0,0,.08-.7,33.74,33.74,0,0,0-3.79-4l0,0,0,0c-1.62-1.38-2.91-2.06-4-2.06h-.06c-1.06,0-2.42.7-4.16,2.05,0,0,0,0,0,0l-.06,0a37.47,37.47,0,0,0-4,3.72.49.49,0,0,0,0,.7.46.46,0,0,0,.33.13.49.49,0,0,0,.37-.16,39.22,39.22,0,0,1,3.1-3c-.15,2.47-.63,8.48-1.86,11.67-.69,1.82-6,4.18-10.59,5.24-3,.7-4.77.63-5.18.26-1-1-.48-5,.43-11.63.18-1.3.38-2.71.58-4.23C5,17.37,13,12.24,17,12.11c2.21-.07,4.33,2.54,4.35,2.57l0,0v1.82c-.73.58-3.75,2.89-5.8,4.45a.5.5,0,0,0-.09.7.47.47,0,0,0,.39.2.5.5,0,0,0,.31-.1c6.19-4.72,6.19-4.72,6.19-5V14.53h0v-.17h0l0-8.24c2.63.07,4,.09,4.65.08l0,8.59s0,0,0,0,0,0,0,.06v1.93c0,.3,0,.3,6.2,5a.47.47,0,0,0,.3.1.51.51,0,0,0,.4-.2.5.5,0,0,0-.1-.7c-2.05-1.56-5.07-3.87-5.8-4.45V15l0,0s2.13-2.63,4.35-2.56c3.94.13,11.93,5.26,13.17,14.62.2,1.53.4,2.94.58,4.24C47,37.89,47.51,41.9,46.47,42.86Z"/></g><g id="ebe6ca48-f3dd-41b1-b93a-9d09528a7cd3" data-name="LABELS"><text transform="translate(0.86 54.92)" font-size="6" font-family="Roboto-Regular, Roboto">lungs</text></g></svg>