<svg xmlns="http://www.w3.org/2000/svg" viewBox="0 0 50 50"><g id="b6b6223f-dcbc-41f8-ad1f-0cbb1bfbc256" data-name="ICONS"><path d="M43.66,27.51a.5.5,0,0,0-.51-.28l-.6.08a14.19,14.19,0,0,1-1.45-4.6,17.28,17.28,0,0,1,.34-2.65c.41-2.39.93-5.36-.18-7.88C38.24,5.33,28.74-.58,18.67,1.83,6.5,4.74,5.23,14.48,5.33,21.55A18.65,18.65,0,0,0,7.9,30.72a24.64,24.64,0,0,1,2.59,7c1.1,5.73-.56,8.34-1.35,9.59a5.66,5.66,0,0,0-.37.64.5.5,0,0,0,.26.66.45.45,0,0,0,.2,0,.5.5,0,0,0,.46-.3,3.76,3.76,0,0,1,.29-.5c.87-1.36,2.67-4.2,1.49-10.32a25.37,25.37,0,0,0-2.68-7.26,18,18,0,0,1-2.46-8.73c-.11-7.3,1.23-16,12.57-18.74,6.5-1.55,17.56,1,21.45,9.79,1,2.24.5,5,.1,7.3a17.66,17.66,0,0,0-.35,2.82,14.51,14.51,0,0,0,1.41,4.74l-9.57,1.23-9.6-6.31a4.23,4.23,0,0,0-3.91-3,4,4,0,0,0-2.9,1.29A4.54,4.54,0,0,0,14.24,24a4.88,4.88,0,0,0,2.27,3.72.58.58,0,0,1,.19.19.94.94,0,0,1,.13.41A2.79,2.79,0,0,0,19.44,31h0a2.29,2.29,0,0,0,1.64-.7A3.43,3.43,0,0,0,21.93,29l9.55,8.43,5.36,5.24a.06.06,0,0,1,0,0c-1.1.85-5.08-.87-7.61-2.41a.52.52,0,0,0-.51,0,.52.52,0,0,0-.25.44v7.06a.5.5,0,0,0,1,0V41.55c2,1.11,6.45,3.35,8.11,1.79l.17.17a.52.52,0,0,0,.35.14h.06a.49.49,0,0,0,.36-.23c1-1.57,2-3.17,3-4.75l.46-.76c1.63-2.68,2.53-4.16,2.68-5.69A8.51,8.51,0,0,0,43.66,27.51ZM32.32,36.8V29.64l10.6-1.37a7.38,7.38,0,0,1,.72,3.86c-.12,1.29-1,2.7-2.54,5.26l-.46.76C39.8,39.55,38.91,41,38,42.37ZM22,27.79a.44.44,0,0,0-.33-.19l-.06,0a.5.5,0,0,0-.5.5,2.55,2.55,0,0,1-.71,1.5,1.43,1.43,0,0,1-1,.41,1.83,1.83,0,0,1-1.63-1.73,1.83,1.83,0,0,0-.28-.87,1.85,1.85,0,0,0-.48-.49A3.93,3.93,0,0,1,15.23,24a3.61,3.61,0,0,1,1-2.59,3,3,0,0,1,2.18-1A3.42,3.42,0,0,1,21.63,24a.49.49,0,0,0,.44.48l.06,0a.51.51,0,0,0,.5-.5,2.3,2.3,0,0,0,0-.26l8.72,5.73v6.44l-9.08-8A.43.43,0,0,0,22,27.79Z"/><path d="M20.54,27a.57.57,0,0,0-.29,0,14.29,14.29,0,0,0,.55-2c0-.19,0-.38,0-.38a3.94,3.94,0,0,0-.07-1A2.51,2.51,0,0,0,19.45,22a2,2,0,0,0-2.41.93,2.82,2.82,0,0,0-.43,1.24,3.24,3.24,0,0,0,.12,1.24.51.51,0,0,0,.63.33.51.51,0,0,0,.33-.63,2,2,0,0,1-.08-.84,1.8,1.8,0,0,1,.26-.79c.19-.29.68-.77,1.2-.55a1.49,1.49,0,0,1,.71.94,3.16,3.16,0,0,1,0,.75s0,.15,0,.29a11.62,11.62,0,0,1-.56,2,1.2,1.2,0,0,0,0,.91.89.89,0,0,0,.48.49.87.87,0,0,0,.28,0,.78.78,0,0,0,.33-.07,1,1,0,0,0,.52-.59A.49.49,0,0,0,20.54,27Z"/></g><g id="a4c662ad-2924-42b1-919f-72ba4c7da520" data-name="LABELS"><text transform="translate(-0.75 54.99)" font-size="6" font-family="Roboto-Regular, Roboto">mask</text></g></svg>