<svg xmlns="http://www.w3.org/2000/svg" viewBox="0 0 50 50"><g id="afcdb3c3-a598-440f-bd76-8e6d3466124a" data-name="ICONS"><path d="M24.74,23.26a4.46,4.46,0,1,0,4.45,4.46A4.46,4.46,0,0,0,24.74,23.26Zm3.42,4.07H26a1.33,1.33,0,0,0-.79-.75V24.3A3.44,3.44,0,0,1,28.16,27.33Zm-4-3v2.28a1.35,1.35,0,0,0-.72.73H21.32A3.46,3.46,0,0,1,24.18,24.31Zm-2.84,4h2.1a1.37,1.37,0,0,0,.74.77v2A3.47,3.47,0,0,1,21.34,28.32Zm3.84,2.81v-2a1.37,1.37,0,0,0,.8-.8h2.15A3.44,3.44,0,0,1,25.18,31.13Z"/><path d="M25.14,12.82a.51.51,0,0,0-.7,0l-4.32,4.32a.5.5,0,0,0,0,.71.47.47,0,0,0,.35.15.49.49,0,0,0,.35-.15l4-4,3.95,4a.5.5,0,0,0,.71-.71Z"/><path d="M47.53,16c-2.1-1.21-5.14,0-7.48,3A23.17,23.17,0,0,0,33,14.47,9.3,9.3,0,0,1,30,12.18c-1.24-1.29-2.53-2.61-5.17-2.61h-.09c-2.56,0-3.82,1.35-5,2.62a9.57,9.57,0,0,1-2.94,2.29,23.33,23.33,0,0,0-7,4.4c-2.33-2.85-5.3-4-7.35-2.83a4.46,4.46,0,0,0-1.95,4,11.5,11.5,0,0,0,1.64,5.7c1.6,2.77,4,4.69,6.22,5,2.63,5.64,9,9.63,16.42,9.66h.07c7.44,0,13.81-4,16.46-9.63h0c2.27-.18,4.82-2.16,6.49-5.05C50.15,21.74,50,17.46,47.53,16ZM3,25.28A10.35,10.35,0,0,1,1.53,20.1,3.51,3.51,0,0,1,3,16.91c1.61-.93,4.16.22,6.16,2.72A8.21,8.21,0,0,0,7.08,25a13.5,13.5,0,0,0,.84,4.66A9.38,9.38,0,0,1,3,25.28ZM25,39.43h-.07C15.62,39.43,8.08,33,8.08,25c0-3.77,2.9-6.82,9.11-9.61a10.45,10.45,0,0,0,3.25-2.51c1.19-1.24,2.22-2.31,4.44-2.31H25c2.14,0,3.16,1.08,4.34,2.3a10.22,10.22,0,0,0,3.25,2.51c6.21,2.79,9.1,5.84,9.1,9.61C41.65,32.94,34.17,39.4,25,39.43ZM47,25.25c-1.35,2.34-3.36,4.05-5.16,4.45A13.47,13.47,0,0,0,42.65,25a8.12,8.12,0,0,0-1.93-5.21c2-2.63,4.65-3.84,6.31-2.89C49,18,48.93,21.84,47,25.25Z"/></g><g id="b8f5a39a-6de8-45a5-a48a-ffd01f0d67df" data-name="LABELS"><text transform="translate(-1.03 54.99)" font-size="6" font-family="Roboto-Regular, Roboto">n95-mask</text></g></svg>