<svg xmlns="http://www.w3.org/2000/svg" viewBox="0 0 50 50"><g id="b8055279-07a7-4c83-8ed3-52e17042612e" data-name="ICONS"><path d="M16.36,13.54a8.28,8.28,0,0,0,16.23,0A2.36,2.36,0,0,0,33,9C32.53,4.29,28.83.63,24.46.58h-.08c-4.47,0-8.23,3.73-8.62,8.56a2.36,2.36,0,0,0,.6,4.4Zm.42-4.63c.48-4.18,3.79-7.38,7.67-7.33a8,8,0,0,1,7.47,6.93L26.1,6.2a.5.5,0,0,0-.53.11,9.85,9.85,0,0,1-5,2.68A9,9,0,0,1,16.78,8.91Zm7.7,10.29a7.23,7.23,0,0,1-7-9.15,9.59,9.59,0,0,0,1.42.1A10,10,0,0,0,20.77,10,10.67,10.67,0,0,0,26,7.25l5.23,2.07a7.26,7.26,0,0,1-6.78,9.88Zm8-9.33a1.37,1.37,0,0,1,.24,2.64,5.49,5.49,0,0,0,0-.58A8.25,8.25,0,0,0,32.48,9.87Zm-16,.05a8.26,8.26,0,0,0-.26,2c0,.17,0,.33,0,.5a1.36,1.36,0,0,1,.23-2.51Z"/><path d="M30.94,21.3H18.34a9.1,9.1,0,0,0-8.66,9.07l0,17.79a.5.5,0,0,0,.5.5l14.47,0h0l14.41,0h0a.5.5,0,0,0,.5-.5l0-17.79A9.09,9.09,0,0,0,30.94,21.3ZM10.68,30.35a8.09,8.09,0,0,1,7.67-8.07l5.79,8.44V47.66H17.33l0-15.59a.5.5,0,0,0-.5-.5h0a.5.5,0,0,0-.5.5l0,15.59H10.66Zm14-.67-1.76-2.56.58-1.95H25.8l.58,2Zm-1.06-7.39h2.11v1.88H23.58Zm-1,0v2.3l-.43,1.46-2.58-3.76Zm4.53,3.78-.42-1.43V22.29h3ZM38.55,47.68H33l0-15.59a.51.51,0,0,0-.5-.5h0a.5.5,0,0,0-.5.5l0,15.59H25.14V30.72L30.9,22.3a8.09,8.09,0,0,1,7.67,8.09Z"/><path d="M35.67,29.34V27.12a.5.5,0,0,0-.5-.5H29.76a.51.51,0,0,0-.5.5v2.22a.5.5,0,0,0,.5.5h5.41A.5.5,0,0,0,35.67,29.34Zm-1-.5H30.26V27.62h4.41Z"/></g><g id="aa524c38-9850-4e29-992c-bd29acdbdca1" data-name="LABELS"><text transform="translate(-0.05 54.81)" font-size="6" font-family="Roboto-Regular, Roboto">pharmacist-male</text></g></svg>