<svg xmlns="http://www.w3.org/2000/svg" viewBox="0 0 50 50"><g id="b2b5cc8b-37d6-40f3-a09a-c92949003c6a" data-name="ICONS"><path d="M27.32,9.31l-6.21,6.47a.49.49,0,0,0,0,.7.47.47,0,0,0,.35.14.51.51,0,0,0,.36-.15L28,10c3.22-3.35,8.17-4.14,11.54-1.84A.51.51,0,0,0,40.27,8a.5.5,0,0,0-.13-.7C36.38,4.78,30.87,5.62,27.32,9.31Z"/><path d="M43.88,4.68,43.8,4.6a11.76,11.76,0,0,0-16.62.33L5,28a11.78,11.78,0,0,0,.32,16.62l.09.08a11.77,11.77,0,0,0,16.61-.33l22.15-23A11.77,11.77,0,0,0,43.88,4.68Zm-22.54,39a10.76,10.76,0,0,1-15.2.29h0l-.08-.08a10.77,10.77,0,0,1-.3-15.2l10.6-11L32,32.61Zm22.15-23L32.64,31.88l-15.59-15L27.9,5.62a10.76,10.76,0,0,1,15.21-.3l.08.08A10.76,10.76,0,0,1,43.49,20.6Z"/></g><g id="ece965ce-936e-4ab0-8728-2160d4282087" data-name="LABELS"><text transform="translate(0.07 55.07)" font-size="6" font-family="Roboto-Regular, Roboto">pill-capsule</text></g></svg>