<svg xmlns="http://www.w3.org/2000/svg" viewBox="0 0 50 50"><g id="bc365a4b-48fe-4515-9e7f-2b23f612d5e9" data-name="ICONS"><path d="M49.8,24.57c0-2.56-3.72-4.57-8.54-4.69V13.94a.5.5,0,0,0-.5-.5H9.24a.5.5,0,0,0-.5.5v6C3.92,20,.2,22.05.2,24.6s3.72,4.57,8.54,4.69v6.77a.5.5,0,0,0,.5.5H40.76a.5.5,0,0,0,.5-.5V29.25C46.08,29.13,49.8,27.12,49.8,24.57ZM36.94,28l-23.88,0V24.24l23.88.17Zm-23.88,1,23.88,0v6.52H13.06Zm23.88-5.65-23.88-.17v-8.8H36.94ZM1.2,24.6c0-1.93,3.41-3.57,7.54-3.68v7.37C4.61,28.18,1.2,26.54,1.2,24.6ZM9.74,14.44h2.32V35.56H9.74ZM40.26,35.56H37.94V14.44h2.32Zm1-7.31V20.88c4.13.11,7.54,1.75,7.54,3.69S45.39,28.14,41.26,28.25Z"/></g><g id="a788806c-06b5-4a9f-a614-1137dbfde92e" data-name="LABELS"><text transform="translate(-0.21 54.99)" font-size="6" font-family="Roboto-Regular, Roboto">ppe-mask</text></g></svg>