<svg id="fee3a8ad-f64b-4b6e-833e-d06026f59fb9" data-name="ICONS" xmlns="http://www.w3.org/2000/svg" viewBox="0 0 50 50"><path d="M48.77,25A23.81,23.81,0,0,0,33.39,2.76h0a23.74,23.74,0,0,0-16.61,0h0A23.8,23.8,0,0,0,1.23,25a23,23,0,0,0,.33,3.92,0,0,0,0,0,0,0h0A23.75,23.75,0,0,0,40.15,43.3h0A23.74,23.74,0,0,0,48.77,25Zm-1.15,0a21.83,21.83,0,0,1-.23,3.15L30.56,25.34c0-.11,0-.22,0-.34a5.55,5.55,0,0,0-3.06-4.92l6-16A22.65,22.65,0,0,1,47.62,25ZM16.6,4l6,16.07A5.55,5.55,0,0,0,19.55,25c0,.12,0,.23,0,.34L2.61,28.17A22,22,0,0,1,2.38,25,22.65,22.65,0,0,1,16.6,4ZM11.11,42.83,22,29.58a5.46,5.46,0,0,0,6.05,0L39,42.77a22.54,22.54,0,0,1-27.86.06ZM39.86,42,28.64,28.42a.59.59,0,0,0-.82-.08,4.3,4.3,0,0,1-5.51,0,.66.66,0,0,0-.43-.13.61.61,0,0,0-.39.21L10.22,42.1A22.62,22.62,0,0,1,2.8,29.31l17.51-2.93a.56.56,0,0,0,.37-.23.56.56,0,0,0,.1-.43,4.28,4.28,0,0,1-.07-.72,4.38,4.38,0,0,1,2.83-4.07.57.57,0,0,0,.34-.74L17.68,3.6a22.55,22.55,0,0,1,14.75,0L26.25,20.19a.57.57,0,0,0,.33.74A4.38,4.38,0,0,1,29.42,25a4.18,4.18,0,0,1-.07.72.56.56,0,0,0,.1.43.54.54,0,0,0,.37.23L47.2,29.29A22.61,22.61,0,0,1,39.86,42Z"/></svg>