<svg id="ef9cbf4f-8137-4cad-85ad-6e6fe8d62303" data-name="ICONS" xmlns="http://www.w3.org/2000/svg" viewBox="0 0 50 50"><path d="M46.83,14.85a4.67,4.67,0,0,0-3-.92H38.79a4.93,4.93,0,0,0-2.86,1.12,5.27,5.27,0,0,0-1.66,4.28v8.78a2.08,2.08,0,0,0,.58,1.38,2,2,0,0,0,2.2.37l.13-.07v12a2.39,2.39,0,0,0,2.39,2.39,2.35,2.35,0,0,0,1.88-.93,2.39,2.39,0,0,0,4.28-1.46V29.82a1.92,1.92,0,0,0,1,.25,2,2,0,0,0,2-2v-9A5.06,5.06,0,0,0,46.83,14.85Zm.81,4.21v9.05a1,1,0,1,1-1.91,0V18.9a.5.5,0,0,0-1,0V41.75a1.39,1.39,0,1,1-2.78,0V29.29a.5.5,0,0,0-.5-.5.51.51,0,0,0-.5.5V41.75a1.39,1.39,0,1,1-2.77,0V28.11h0V18.9a.5.5,0,0,0-1,0v9.2a1,1,0,0,1-.55.86,1,1,0,0,1-1.08-.18,1,1,0,0,1-.28-.67V19.29a4.21,4.21,0,0,1,1.31-3.47,3.87,3.87,0,0,1,2.24-.88h5.06a3.67,3.67,0,0,1,2.35.72A4.11,4.11,0,0,1,47.64,19.06Z"/><path d="M41.45,13.38a4.14,4.14,0,1,0-4.13-4.14A4.15,4.15,0,0,0,41.45,13.38Zm3.14-4.14a3.14,3.14,0,1,1-3.14-3.13A3.15,3.15,0,0,1,44.59,9.24Z"/><path d="M15,19.1a5.06,5.06,0,0,0-1.81-4.25,4.67,4.67,0,0,0-3-.92H5.14a4.93,4.93,0,0,0-2.86,1.12A5.27,5.27,0,0,0,.62,19.34v8.78A2.08,2.08,0,0,0,1.2,29.5a2,2,0,0,0,2.21.37l.12-.07v12a2.39,2.39,0,0,0,4.28,1.46,2.35,2.35,0,0,0,1.88.93,2.39,2.39,0,0,0,2.39-2.39V29.82a1.92,1.92,0,0,0,.95.25,2,2,0,0,0,2-2Zm-1,0v9.05a1,1,0,1,1-1.91,0V18.9a.5.5,0,0,0-1,0V41.75a1.39,1.39,0,1,1-2.77,0V29.29a.51.51,0,0,0-.5-.5.5.5,0,0,0-.5.5V41.75a1.39,1.39,0,0,1-2.78,0V18.9a.5.5,0,0,0-1,0v9.2A1,1,0,0,1,3,29a1,1,0,0,1-1.08-.18,1,1,0,0,1-.28-.67V19.29a4.21,4.21,0,0,1,1.31-3.47,3.87,3.87,0,0,1,2.24-.88h5.06a3.67,3.67,0,0,1,2.35.72A4.11,4.11,0,0,1,14,19.06Z"/><path d="M7.81,13.38A4.14,4.14,0,1,0,3.67,9.24,4.15,4.15,0,0,0,7.81,13.38Zm0-7.27A3.14,3.14,0,1,1,4.67,9.24,3.14,3.14,0,0,1,7.81,6.11Z"/><path d="M30.87,25.33a.47.47,0,0,0-.14-.34l-2.15-2.23a.5.5,0,1,0-.72.69l1.35,1.4H20l1.35-1.41a.5.5,0,0,0-.72-.69L18.52,25a.47.47,0,0,0-.14.34v0h0s0,0,0,.06a.5.5,0,0,0,0,.12l.07.11s0,0,0,.05h0l2.15,2.23a.51.51,0,0,0,.36.15.47.47,0,0,0,.35-.14.49.49,0,0,0,0-.7l-1.34-1.39h9.16l-1.35,1.4a.49.49,0,0,0,0,.7.47.47,0,0,0,.35.14.51.51,0,0,0,.36-.15l2.15-2.24a.44.44,0,0,0,.14-.34h0Z"/></svg>