<svg xmlns="http://www.w3.org/2000/svg" viewBox="0 0 50 50"><g id="b94f986e-3c93-482a-9e9f-3956ecccbe26" data-name="ICONS"><path d="M46,10.49,37.45,8.82,36.05.61A.49.49,0,0,0,35.56.2h0a.49.49,0,0,0-.49.41l-1.25,7a11.22,11.22,0,0,0-3-1.43,11.6,11.6,0,0,0-7,.14,8.61,8.61,0,0,1-2.28.49A8.67,8.67,0,0,1,19,6.65a11,11,0,0,0-6.8-.37A12.33,12.33,0,0,0,3.58,16.84c-.26,3.66,1.54,8,2.48,9.57a9.43,9.43,0,0,1,1,2.31,9.2,9.2,0,0,1,.33,2.57,79.07,79.07,0,0,0,.66,9.63c0,.08,1.3,8.07,4.21,8.38,1.35.14,3.64-1.06,7.51-13.13a2,2,0,0,1,3.91.09c3.72,11.44,6,13.05,7.41,13.05h.19c2.44-.24,3.79-5.41,4.1-7.38a36,36,0,0,0,.23-6.08c0-1.49,0-3,0-4.46a9.36,9.36,0,0,1,.54-2.69A9,9,0,0,1,37,27.05c.14-.23,3.28-5.68,2.49-10.88a11.21,11.21,0,0,0-1-3l7.55-1.67a.49.49,0,0,0,.39-.49A.5.5,0,0,0,46,10.49ZM36.09,26.57a10.23,10.23,0,0,0-1.43,4.75c-.09,1.48-.07,3,0,4.53a34.86,34.86,0,0,1-.22,5.91c-.47,3-1.91,6.42-3.2,6.54-.91.09-3-1.39-6.55-12.3a3,3,0,0,0-2.89-2.38h0a3,3,0,0,0-2.91,2.28c-3.65,11.42-5.71,12.45-6.44,12.4C11,48.15,9.53,43.83,9,40.76a80.62,80.62,0,0,1-.64-9.5A10.13,10.13,0,0,0,8,28.45a10.69,10.69,0,0,0-1.14-2.61,18.36,18.36,0,0,1-2.32-8.93,11.31,11.31,0,0,1,7.88-9.67,10.07,10.07,0,0,1,6.25.37,10,10,0,0,0,3,.23,10,10,0,0,0,2.52-.54,10.5,10.5,0,0,1,6.35-.13,10.31,10.31,0,0,1,3.06,1.56V8.8l-8.45,1.8a.5.5,0,0,0,0,1l8.22,1.91,1.8,8a.5.5,0,0,0,.49.39h0a.5.5,0,0,0,.48-.41l1.43-8a10.69,10.69,0,0,1,.89,2.85C39.21,21.17,36.14,26.49,36.09,26.57Zm1-14.14a.49.49,0,0,0-.38.4l-1.08,6L34.28,13a.5.5,0,0,0-.38-.37l-6.34-1.48,6.59-1.4a.49.49,0,0,0,.38-.4l1-5.7,1,5.72a.5.5,0,0,0,.4.41L43.49,11Z"/></g><g id="bc93946a-19d0-4b7f-80f9-58a140aa261b" data-name="LABELS"><text transform="translate(-0.08 55.07)" font-size="6" font-family="Roboto-Regular, Roboto"><tspan letter-spacing="-0.01em">t</tspan><tspan x="1.9" y="0">ooth</tspan></text></g></svg>