<svg xmlns="http://www.w3.org/2000/svg" viewBox="0 0 50 50"><g id="f6130dcf-6a4f-4837-a590-1f8046d43f61" data-name="ICONS"><path d="M48.53,7.78l1-3.22A150.69,150.69,0,0,1,26.36,6,150.69,150.69,0,0,1,3.19,4.56l1,3.22c1.74.21,3.65.4,5.65.56v8.58H4.51V20H9.84V40h-.9v8h4.88V40h-.9V20H39.8V40h-.9v8h4.87V40h-.89V20h5.33V16.92H42.88V8.34C44.88,8.18,46.79,8,48.53,7.78Zm-35.61.77c3.73.23,7.75.36,11.9.39v8H12.92ZM39.8,16.92H27.9v-8c4.15,0,8.17-.16,11.9-.39Z" fill="#fdd600"/><path d="M49.12,2.1a.51.51,0,0,0-.46-.17C46,2.41,38.39,3.5,24.86,3.5S3.71,2.41,1.06,1.93A.51.51,0,0,0,.6,2.1a.48.48,0,0,0-.1.47L1.83,6.88a.48.48,0,0,0,.41.35c1.58.2,3.29.38,5.1.53v6.66H2.51a.5.5,0,0,0-.5.5V19a.5.5,0,0,0,.5.5H7.34v18h-.4a.5.5,0,0,0-.5.5v9a.5.5,0,0,0,.5.5h5.88a.5.5,0,0,0,.5-.5V38a.5.5,0,0,0-.5-.5h-.4v-18H37.3v18h-.4a.5.5,0,0,0-.5.5v9a.5.5,0,0,0,.5.5h5.87a.5.5,0,0,0,.5-.5V38a.5.5,0,0,0-.5-.5h-.39v-18h4.83a.5.5,0,0,0,.5-.5V14.92a.5.5,0,0,0-.5-.5H42.38V7.76c1.8-.15,3.51-.33,5.1-.53a.51.51,0,0,0,.41-.35l1.33-4.31A.5.5,0,0,0,49.12,2.1ZM12.32,46.57H7.44v-8h4.88Zm-4-9v-18h3.08v18Zm33.93,9H37.4v-8h4.87Zm-4-9v-18h3.08v18Zm8.41-22.11V18.5H3V15.42Zm-38.37-1V7.84l3.08.22v6.36Zm4.08,0V8.12c3.14.17,6.47.28,9.9.31v6Zm10.9,0v-6H26.4v6Zm4.08,0v-6c3.42,0,6.76-.14,9.9-.31v6.3Zm10.9,0V8.06l3.08-.22v6.58ZM47,6.28A189.73,189.73,0,0,1,24.86,7.45,189.73,189.73,0,0,1,2.69,6.28l-1-3.22A150.69,150.69,0,0,0,24.86,4.5,150.69,150.69,0,0,0,48,3.06Z" fill="#231f20"/></g><g id="b6dae602-027a-434a-b60c-127097f552ef" data-name="LABELS"><text transform="translate(-0.3 54.73)" font-size="6" fill="#231f20" font-family="Roboto-Regular, Roboto">asian-a<tspan x="19.31" y="0" letter-spacing="-0.01em">r</tspan><tspan x="21.28" y="0">ch</tspan></text></g></svg>