<svg xmlns="http://www.w3.org/2000/svg" viewBox="0 0 50 50"><g id="f03e7a45-170f-458f-847a-63b5f2f8721e" data-name="ICONS"><path d="M35.49,31.67l2-.28a.47.47,0,0,0,.38-.27l.62-1.23a.48.48,0,0,1-.33-.26l-.88-1.81-.91,1.8a.47.47,0,0,1-.38.27l-2,.28,1.43,1.41a.51.51,0,0,1,.14.45l-.35,2,1.73-.89s0,0,0,0Z" fill="none"/><path d="M33.6,39.12l-1.05,2.37a.5.5,0,0,1-.46.3.51.51,0,0,1-.45-.71l1-2.36a.86.86,0,0,1,.07-.1,8.94,8.94,0,0,1-1.68-1.25l-2.55,6.18,2.83-.31h.06a.49.49,0,0,1,.41.21l1.41,2,2.37-5.76a9,9,0,0,1-2-.61S33.61,39.1,33.6,39.12Z" fill="none"/><polygon points="48.25 5.55 48.25 4.05 1.25 4.05 1.25 33.79 2.75 33.79 2.75 5.55 48.25 5.55" fill="none"/><path d="M41.33,38.84l1,2.24a.49.49,0,0,1-.25.66.53.53,0,0,1-.2,0,.49.49,0,0,1-.46-.3l-1-2.25a8.76,8.76,0,0,1-2,.51l2.34,5.68,1.41-2a.5.5,0,0,1,.46-.21l2.84.31L43,37.72A8.77,8.77,0,0,1,41.33,38.84Z" fill="none"/><path d="M44.32,25.26a8.94,8.94,0,0,1,1.94,5.56,9.12,9.12,0,0,1-.51,3h1.88a8.87,8.87,0,0,0-3.31-8.53Z" fill="none"/><path d="M48.25,5.55H2.75V35.29H29.46l-.28-.5c-.07-.13-.14-.27-.21-.43a5.17,5.17,0,0,1-.21-.57,9.12,9.12,0,0,1-.51-3,9,9,0,0,1,16.07-5.56,9,9,0,0,1,1.43,8.53,8.14,8.14,0,0,1-.43,1,4.66,4.66,0,0,1-.26.5h4.69V5.55Z" fill="#fdd600"/><path d="M49.25,34.29V3.55a.5.5,0,0,0-.5-.5H.75a.5.5,0,0,0-.5.5V34.29a.5.5,0,0,0,.5.5H29.18l.28.5a8.73,8.73,0,0,0,.87,1.28l-3,7.37a.5.5,0,0,0,.06.5.49.49,0,0,0,.45.19l3.38-.36L33,46.74a.49.49,0,0,0,.4.21h.06a.51.51,0,0,0,.41-.31l2.82-6.84.61,0h.09l2.81,6.82a.51.51,0,0,0,.41.31h0a.51.51,0,0,0,.41-.21l1.77-2.47,3.38.36a.49.49,0,0,0,.51-.69l-2.87-7a8.72,8.72,0,0,0,1.51-2.19h3.43A.5.5,0,0,0,49.25,34.29Zm-16,11.14-1.41-2a.49.49,0,0,0-.41-.21h-.06l-2.83.31,2.55-6.18a8.94,8.94,0,0,0,1.68,1.25.86.86,0,0,0-.07.1l-1,2.36a.51.51,0,0,0,.45.71.5.5,0,0,0,.46-.3l1.05-2.37s0,0,0-.06a9,9,0,0,0,2,.61Zm12.2-1.88-2.84-.31a.5.5,0,0,0-.46.21l-1.41,2-2.34-5.68a8.76,8.76,0,0,0,2-.51l1,2.25a.49.49,0,0,0,.46.3.53.53,0,0,0,.2,0,.49.49,0,0,0,.25-.66l-1-2.24A8.77,8.77,0,0,0,43,37.72Zm-8.19-4.72a8,8,0,1,1,8-8A8,8,0,0,1,37.25,38.83Zm10.38-5H45.75a9.12,9.12,0,0,0,.51-3,9,9,0,0,0-18,0,9.12,9.12,0,0,0,.51,3H1.25V4.05h47V33.79Z" fill="#231f20"/><path d="M42.3,10.43H6.17a.5.5,0,0,0-.5.5.5.5,0,0,0,.5.5H42.3a.51.51,0,0,0,.5-.5A.5.5,0,0,0,42.3,10.43Z" fill="#231f20"/><path d="M42.3,17H6.17a.5.5,0,0,0-.5.5.5.5,0,0,0,.5.5H42.3a.51.51,0,0,0,.5-.5A.5.5,0,0,0,42.3,17Z" fill="#231f20"/><path d="M27.59,24.76H6.17a.5.5,0,1,0,0,1H27.59a.5.5,0,0,0,0-1Z" fill="#231f20"/><path d="M39,30.41l0,0a.46.46,0,0,1-.33-.26l-.88-1.81-.91,1.8a.47.47,0,0,1-.38.27l-2,.28,1.43,1.41a.51.51,0,0,1,.14.45l-.35,2,1.73-.89.06,0a.47.47,0,0,1,.46,0l1.78.95-.33-2a.51.51,0,0,1,.15-.44l.56-.54.9-.86L39.6,30.5Z" fill="#fdd600"/><path d="M42.07,29.72a.5.5,0,0,0-.4-.34L38.93,29l-1.2-2.49a.51.51,0,0,0-.45-.28h0a.5.5,0,0,0-.45.27l-1.24,2.48-2.74.37a.51.51,0,0,0-.41.34.5.5,0,0,0,.12.51l2,1.95L34,34.83a.51.51,0,0,0,.72.54l2.17-1.12.29-.15,1.1.58,1.34.72a.53.53,0,0,0,.24.06.52.52,0,0,0,.29-.09s0-.06.07-.09a.46.46,0,0,0,.13-.4l-.45-2.73.68-.65,1.32-1.27A.49.49,0,0,0,42.07,29.72Zm-2.45,1.35-.56.54a.51.51,0,0,0-.15.44l.33,2-1.78-.95a.47.47,0,0,0-.46,0l-.06,0L35.21,34l.35-2a.51.51,0,0,0-.14-.45L34,30.17l2-.28a.47.47,0,0,0,.38-.27l.91-1.8.88,1.81a.48.48,0,0,0,.33.26l0,0,.58.09,1.42.21Z" fill="#231f20"/></g><g id="e86821cd-e7cf-4fe9-a0cc-001b83984ec8" data-name="LABELS"><text transform="translate(0 54.62)" font-size="6" fill="#231f20" font-family="Roboto-Regular, Roboto">awa<tspan x="11.04" y="0" letter-spacing="-0.01em">r</tspan><tspan x="13.01" y="0">d-ce</tspan><tspan x="24.37" y="0" letter-spacing="0.02em">r</tspan><tspan x="26.55" y="0">tificate</tspan></text></g></svg>