<svg xmlns="http://www.w3.org/2000/svg" viewBox="0 0 50 50"><g id="ba611126-ebf0-46fc-835c-ceccd8313bab" data-name="ICONS"><path d="M23.51,16.49l-2.59-4.3a3.94,3.94,0,0,0-3.36-1.69H11.2c-.49,0-.94.26-1,.58a.58.58,0,0,0,.12.46,1,1,0,0,0,.8.34h5.49a.5.5,0,0,1,.5.5.5.5,0,0,1-.5.5H13.24a1,1,0,0,0-.75.35.51.51,0,0,0-.11.44,1,1,0,0,0,1,.58h5.8a.5.5,0,0,1,.5.5.5.5,0,0,1-.5.5H15.42a1,1,0,0,0-.75.35.51.51,0,0,0-.1.44c.06.33.5.58,1,.58h7.67A.35.35,0,0,0,23.51,16.49Z" fill="#fdd600"/><path d="M29,6.65A2.95,2.95,0,1,0,26,9.6,3,3,0,0,0,29,6.65Z" fill="#fdd600"/><path d="M40.8,10.5H34.44a3.91,3.91,0,0,0-3.36,1.69l-2.59,4.22a.27.27,0,0,0,.29.21h7.67c.48,0,.92-.25,1-.58a.51.51,0,0,0-.1-.44,1,1,0,0,0-.75-.35H32.83a.5.5,0,0,1-.5-.5.5.5,0,0,1,.5-.5h5.8a1,1,0,0,0,1-.58.51.51,0,0,0-.11-.44,1,1,0,0,0-.75-.35H35.39a.5.5,0,0,1-.5-.5.5.5,0,0,1,.5-.5h5.49a1,1,0,0,0,.8-.34.58.58,0,0,0,.12-.46C41.74,10.76,41.29,10.5,40.8,10.5Z" fill="#fdd600"/><path d="M24.68,43.51a1.81,1.81,0,0,0-.75-.67,2.65,2.65,0,0,0-1.13-.23H20.58V48.3h1.18v-2h1a2.4,2.4,0,0,0,1.59-.48,1.63,1.63,0,0,0,.57-1.32A1.91,1.91,0,0,0,24.68,43.51Zm-1.17,1.62a1.06,1.06,0,0,1-.71.21h-1V43.56h1.07a.9.9,0,0,1,.68.26,1,1,0,0,1,.25.68A.79.79,0,0,1,23.51,45.13Z" fill="#231f20"/><path d="M26.69,42.61,24.57,48.3h1.24l.4-1.17h2.05l.39,1.17H29.9l-2.13-5.69Zm-.17,3.57.71-2.13.71,2.13Z" fill="#231f20"/><path d="M21.47,38.31h.11l.93-.2a.5.5,0,0,0,.38-.6.49.49,0,0,0-.59-.38l-.93.2a.51.51,0,0,0-.39.6A.5.5,0,0,0,21.47,38.31Z" fill="#231f20"/><path d="M27.73,25.76l-1.49-.35-.74-.16V9.55a4,4,0,1,0-1,0V25L24,24.9l-4.73-1.08a2.63,2.63,0,0,1-1.78-3.16,2.46,2.46,0,0,1,1.33-1.5,2.7,2.7,0,0,1,2.21,0,.5.5,0,0,0,.39-.93,3.74,3.74,0,0,0-3,.06,3.46,3.46,0,0,0-1.87,2.12A3.61,3.61,0,0,0,19,24.78l4.76,1.09.74.17v5l-.5-.13h0l-1.48-.37a1.92,1.92,0,0,1-.26-3.75.5.5,0,0,0,.29-.64.52.52,0,0,0-.65-.3,2.92,2.92,0,0,0,.37,5.66l1.49.37h0l.75.19v4.33L24,36.31h0l-.39-.08A2.06,2.06,0,0,1,22,34.57a1.81,1.81,0,0,1,.8-1.61.5.5,0,0,0,.1-.7.49.49,0,0,0-.69-.11A2.79,2.79,0,0,0,21,34.68a3,3,0,0,0,2.4,2.52l.41.09h0l.73.16v.9a.5.5,0,0,0,1,0v-.69l.52.12h0l2.4.52h.11a.5.5,0,0,0,.49-.39.51.51,0,0,0-.39-.6l-2.4-.52h0l-.73-.16V32.33l.67.17h0a2.07,2.07,0,0,1,1.85,2.06,1.76,1.76,0,0,1-.75,1.23.5.5,0,0,0-.09.7.47.47,0,0,0,.39.2.5.5,0,0,0,.31-.1A2.78,2.78,0,0,0,29,34.68a3.05,3.05,0,0,0-2.62-3.15h0l-.91-.23v-5l.51.12,1.49.34a2.08,2.08,0,0,1,1.64,1.8,2.06,2.06,0,0,1-1.65,2,.51.51,0,0,0-.35.62.5.5,0,0,0,.48.37l.13,0a2.93,2.93,0,0,0,0-5.77ZM22.05,5.65A2.95,2.95,0,1,1,25,8.6,3,3,0,0,1,22.05,5.65Z" fill="#231f20"/><path d="M41.78,9.89a1.92,1.92,0,0,0-2-1.39H33.44a4.88,4.88,0,0,0-4.21,2.17l-2.59,4.22a1.06,1.06,0,0,0,0,1.09,1.33,1.33,0,0,0,1.16.64h7.67a1.92,1.92,0,0,0,2-1.36,1.47,1.47,0,0,0-.13-1h.35a1.93,1.93,0,0,0,2-1.37,1.5,1.5,0,0,0-.12-1h.41a2.07,2.07,0,0,0,1.57-.7A1.55,1.55,0,0,0,41.78,9.89Zm-1.1.65a1,1,0,0,1-.8.34H34.39a.5.5,0,0,0-.5.5.5.5,0,0,0,.5.5h3.37a1,1,0,0,1,.75.35.51.51,0,0,1,.11.44,1,1,0,0,1-1,.58h-5.8a.5.5,0,0,0-.5.5.5.5,0,0,0,.5.5h3.75a1,1,0,0,1,.75.35.51.51,0,0,1,.1.44c-.06.33-.5.58-1,.58H27.78a.27.27,0,0,1-.29-.21l2.59-4.22A3.91,3.91,0,0,1,33.44,9.5H39.8c.49,0,.94.26,1,.58A.58.58,0,0,1,40.68,10.54Z" fill="#231f20"/><path d="M23.38,16a1.06,1.06,0,0,0,0-1.09l-2.59-4.22A4.88,4.88,0,0,0,16.56,8.5H10.2a1.92,1.92,0,0,0-2,1.39,1.55,1.55,0,0,0,.33,1.29,2.07,2.07,0,0,0,1.57.7h.41a1.5,1.5,0,0,0-.12,1,1.93,1.93,0,0,0,2,1.37h.35a1.47,1.47,0,0,0-.13,1,1.92,1.92,0,0,0,2,1.36h7.67A1.33,1.33,0,0,0,23.38,16ZM13.57,15a.51.51,0,0,1,.1-.44,1,1,0,0,1,.75-.35h3.75a.5.5,0,0,0,.5-.5.5.5,0,0,0-.5-.5h-5.8a1,1,0,0,1-1-.58.51.51,0,0,1,.11-.44,1,1,0,0,1,.75-.35h3.37a.5.5,0,0,0,.5-.5.5.5,0,0,0-.5-.5H10.12a1,1,0,0,1-.8-.34.58.58,0,0,1-.12-.46c.06-.32.51-.58,1-.58h6.36a3.94,3.94,0,0,1,3.36,1.69l2.59,4.3a.35.35,0,0,1-.29.13H14.55C14.07,15.62,13.63,15.37,13.57,15Z" fill="#231f20"/><path d="M31.44,18.25a3.71,3.71,0,0,0-3-.06.5.5,0,0,0-.27.66.52.52,0,0,0,.66.27,2.68,2.68,0,0,1,2.2,0,2.5,2.5,0,0,1,1.34,1.5,2.64,2.64,0,0,1-1.75,3.15l-2.83.65a.49.49,0,0,0-.37.59.49.49,0,0,0,.49.39H28l2.86-.66a3.59,3.59,0,0,0,2.44-4.4A3.43,3.43,0,0,0,31.44,18.25Z" fill="#231f20"/></g><g id="ff951d6b-d39b-490d-ba79-1d4a8accae47" data-name="LABELS"><text transform="translate(0.33 55.11)" font-size="6" fill="#231f20" font-family="Roboto-Regular, Roboto">caduceus-pa</text></g></svg>