<svg xmlns="http://www.w3.org/2000/svg" viewBox="0 0 50 50"><g id="a90db732-ed92-46c1-81d4-7d6dfa69fd02" data-name="ICONS"><path d="M26.26,16.28c-4.4,2.43-7,6.26-7,10.29s2.62,7.85,7,10.28c4.4-2.43,7-6.25,7-10.28S30.66,18.71,26.26,16.28Z" fill="#fdd600"/><path d="M32.8,25.1c0-4.25-2.61-8.26-7-10.88A15.28,15.28,0,0,0,31.24,8.9a.39.39,0,0,0,.06-.11,11,11,0,0,0,1.5-5.45,1.48,1.48,0,0,0,0-.21V1.25a.5.5,0,0,0-1,0V2.53H17.73V1.25a.5.5,0,0,0-.5-.5.5.5,0,0,0-.5.5V3.13a1.48,1.48,0,0,0,0,.21,11,11,0,0,0,1.5,5.45.39.39,0,0,0,.06.11,15.36,15.36,0,0,0,5.47,5.32c-4.42,2.62-7,6.63-7,10.88a11.13,11.13,0,0,0,2,6.18.57.57,0,0,0,.12.18,15.52,15.52,0,0,0,5,4.51c-4.31,2.56-6.91,6.47-7,10.61h0v2.16a.5.5,0,0,0,1,0V47.09H31.79v1.66a.5.5,0,0,0,1,0V46.59h0c-.11-4.14-2.71-8-7-10.61C30.19,33.35,32.8,29.34,32.8,25.1Zm-15.06.5h14a10.18,10.18,0,0,1-1.68,5H19.42A10.18,10.18,0,0,1,17.74,25.6Zm1.83-6.25H30a10.32,10.32,0,0,1,1.83,5.25h-14A10.32,10.32,0,0,1,19.57,19.35ZM31.8,3.53a10,10,0,0,1-1.27,4.6H19a10,10,0,0,1-1.28-4.6ZM19.61,9.13h10.3a14.86,14.86,0,0,1-5.15,4.52A15,15,0,0,1,19.61,9.13Zm5.15,5.65a15.57,15.57,0,0,1,4.42,3.57H20.34A15.57,15.57,0,0,1,24.76,14.78Zm-7,31.31a10,10,0,0,1,1.19-4H30.58a10,10,0,0,1,1.18,4Zm12.2-5H19.56a14.85,14.85,0,0,1,5.2-4.59A14.76,14.76,0,0,1,30,41.13Zm-5.2-5.72a15.26,15.26,0,0,1-4.62-3.81h9.24A15.26,15.26,0,0,1,24.76,35.41Z" fill="#231f20"/></g><g id="ad9cb78a-e207-44ea-8e45-41e7a6e17c51" data-name="LABELS"><text transform="translate(-0.07 54.73)" font-size="6" fill="#231f20" font-family="Roboto-Regular, Roboto">D<tspan x="3.93" y="0" letter-spacing="0.01em">N</tspan><tspan x="8.26" y="0">A</tspan></text></g></svg>