<svg xmlns="http://www.w3.org/2000/svg" viewBox="0 0 50 50"><g id="ef3a3ad0-ec27-4f68-814f-fbd1ad50b61a" data-name="ICONS"><path d="M23.54,22a6.2,6.2,0,0,1-.07,8.51c-3.53,4-5.59,8.05-6.13,12H35.41c-.54-3.95-2.6-8-6.14-12a6.2,6.2,0,0,1,0-8.57c.67-.75,1.3-1.52,1.88-2.29H21.6C22.19,20.47,22.84,21.26,23.54,22Z" fill="#fdd600"/><polygon points="12.36 46.04 12.36 49.15 40.39 49.15 40.39 46.04 38.53 46.04 14.22 46.04 12.36 46.04" fill="#fdd600"/><polygon points="12.36 6.71 14.22 6.71 38.53 6.71 40.39 6.71 40.39 3.6 12.36 3.6 12.36 6.71" fill="#fdd600"/><path d="M39.64,5.46V1.35a.5.5,0,0,0-.5-.5h-29a.5.5,0,0,0-.5.5V5.46a.5.5,0,0,0,.5.5H12V6c-.1,5.55,2.34,11.13,7.24,16.6a2.82,2.82,0,0,1,.76,2,2.79,2.79,0,0,1-.8,1.8C14.27,32,11.85,37.6,12,43.21v.08H10.11a.5.5,0,0,0-.5.5V47.9a.5.5,0,0,0,.5.5h29a.5.5,0,0,0,.5-.5V43.79a.5.5,0,0,0-.5-.5H37.3v-.08C37.4,37.6,35,32,30.08,26.41a2.75,2.75,0,0,1-.78-1.78h0a2.8,2.8,0,0,1,.77-2C35,17.17,37.4,11.59,37.3,6V6h1.84A.5.5,0,0,0,39.64,5.46Zm-1,38.83V47.4h-28V44.29h28ZM29.33,22a3.85,3.85,0,0,0-1,2.72,3.81,3.81,0,0,0,1.05,2.42c4.71,5.33,7,10.75,6.95,16.1v.1H13v-.1c-.09-5.35,2.24-10.77,6.93-16.08A3.82,3.82,0,0,0,21,24.67a3.77,3.77,0,0,0-1-2.71c-4.72-5.26-7.07-10.61-7-15.9V6H36.3v.1C36.39,11.35,34,16.7,29.33,22ZM38.64,5h-28V1.85h28Z" fill="#231f20"/><path d="M30.39,16.93H18.87a.52.52,0,0,0-.45.27.51.51,0,0,0,0,.52A36.82,36.82,0,0,0,21.05,21,5.2,5.2,0,0,1,21,28.13c-3.84,4.37-6,8.78-6.45,13.11a.52.52,0,0,0,.13.39.51.51,0,0,0,.37.16H34.22a.51.51,0,0,0,.37-.16.52.52,0,0,0,.13-.39c-.44-4.33-2.61-8.74-6.47-13.13a5.21,5.21,0,0,1,0-7.21,33,33,0,0,0,2.54-3.18.49.49,0,0,0,0-.52A.49.49,0,0,0,30.39,16.93Zm-2.86,3.29a6.2,6.2,0,0,0,0,8.57c3.54,4,5.6,8.05,6.14,12H15.59c.54-3.94,2.6-8,6.13-12a6.2,6.2,0,0,0,.07-8.51c-.7-.78-1.35-1.57-1.94-2.36h9.56C28.83,18.7,28.2,19.47,27.53,20.22Z" fill="#231f20"/></g><g id="ad33c46b-50dd-4666-8cc9-407c98af0fd3" data-name="LABELS"><text transform="translate(-0.1 55.08)" font-size="6" fill="#231f20" font-family="Roboto-Regular, Roboto">hou<tspan x="10.03" y="0" letter-spacing="-0.01em">r</tspan><tspan x="12.01" y="0">glass</tspan></text></g></svg>