<svg xmlns="http://www.w3.org/2000/svg" viewBox="0 0 50 50"><g id="bd101fb9-37ce-4cf0-859c-1ea64d53e6be" data-name="ICONS"><path d="M34.11,10.88,36,8l1.12.72,1.26-1.94-6-3.86L31.14,4.85l1.17.76c-.61,1-1.23,1.93-1.85,2.9Z" fill="#fdd600"/><path d="M39.13,39.45A14.3,14.3,0,0,0,42,31,14.13,14.13,0,0,0,40.16,24a14.83,14.83,0,0,0-7.75-6.5c.61-.93,1.22-1.86,1.82-2.8L36,12.08,28.64,7.33,26.93,10l-6.09,9.36-2.11,3.25,2.34,1.51-2,3,2.7,1.75c.67-1,1.33-2,2-3L26,27.32l2.11-3.25,1.9-2.92a10.45,10.45,0,0,1,5.9,4,10,10,0,0,1-.78,12.54,10,10,0,0,1-4.6,2.85,3.34,3.34,0,0,0-5.19.14A10,10,0,0,1,19,35.85H14.42a14.27,14.27,0,0,0,10.21,8.94v2.29h-7v2.65H38.43V47.08h-7V44.65A14.38,14.38,0,0,0,39.13,39.45Z" fill="#fdd600"/><rect x="10.54" y="34.04" width="12.23" height="1.82" fill="#fdd600"/><path d="M37.43,45H30.48v-1a15.19,15.19,0,0,0,1.89-28.5l3.16-4.85a.48.48,0,0,0-.15-.67l-1.44-.94L35,7.45l.76.5A.5.5,0,0,0,36,8h.1a.54.54,0,0,0,.3-.21L38,5.42a.5.5,0,0,0-.15-.68L31.09.35a.47.47,0,0,0-.67.14L28.86,2.88a.46.46,0,0,0-.06.36.45.45,0,0,0,.21.31l.76.49L28.7,5.68l-1.44-.93a.47.47,0,0,0-.36-.07.49.49,0,0,0-.31.21L16.15,20.94a.5.5,0,0,0,.15.68l1.87,1.21-1.72,2.64a.5.5,0,0,0,.15.69l3.54,2.3a.43.43,0,0,0,.27.08h.1a.47.47,0,0,0,.32-.21l1.71-2.64,1.88,1.22a.48.48,0,0,0,.26.07h.1a.45.45,0,0,0,.31-.21l3.85-5.92A9,9,0,0,1,29.25,38a4,4,0,0,0-2.72-1.09,3.93,3.93,0,0,0-2.84,1.22,9,9,0,0,1-4.6-3.21h2.67a.5.5,0,0,0,.5-.5V32a.5.5,0,0,0-.5-.5H8.54A.5.5,0,0,0,8,32v2.35a.5.5,0,0,0,.5.5h3.54a15.22,15.22,0,0,0,10.49,9.3V45h-7a.51.51,0,0,0-.5.5v3.2a.5.5,0,0,0,.5.5H37.43a.5.5,0,0,0,.5-.5v-3.2A.5.5,0,0,0,37.43,45ZM31,1.43l6,3.86-1,1.58L29.94,3Zm-.41,3.18L34.17,7l-1,1.57L29.54,6.18ZM27.14,5.83l7.31,4.75-1.72,2.63-7.3-4.75ZM20.26,27.35l-2.7-1.75L19,23.43l2.7,1.76Zm4.28-1.53-7.31-4.75,2.11-3.25,7.31,4.75Zm2.65-4.09L19.89,17l5-7.68,7.31,4.75Zm9.11,7.72A10.08,10.08,0,0,0,29.63,20L32,16.45A14.21,14.21,0,0,1,30.48,43V40.58a4,4,0,0,0-.59-1.78A10.05,10.05,0,0,0,36.3,29.45ZM23.56,40.62s0,0,0-.07a3,3,0,0,1,5.91.08h0a.57.57,0,0,0,0,.13V45H23.57V40.62ZM9,33.89V32.54H21.26v1.35ZM13.17,35H17.9a9.93,9.93,0,0,0,5.16,4,4,4,0,0,0-.48,1.46s0,.07,0,.11v2.64A14.29,14.29,0,0,1,13.17,35ZM36.93,48.23H16.12V46H36.93Z" fill="#231f20"/></g><g id="e492943d-15a0-46fb-9522-4010e53ad967" data-name="LABELS"><text transform="translate(-0.1 55.09)" font-size="6" fill="#231f20" font-family="Roboto-Regular, Roboto">mic<tspan x="9.86" y="0" letter-spacing="-0.01em">r</tspan><tspan x="11.83" y="0">oscope</tspan></text></g></svg>