<svg xmlns="http://www.w3.org/2000/svg" viewBox="0 0 50 50"><g id="a4151deb-b34e-484e-bd20-8bca2cc1d773" data-name="ICONS"><circle cx="20.14" cy="16.8" r="10.65" fill="#fdd600"/><circle cx="9.54" cy="39.63" r="6.95" fill="#fdd600"/><circle cx="42.97" cy="27.41" r="6.95" fill="#fdd600"/><path d="M48.67,22.78a8,8,0,0,0-10.33-4.42A7.81,7.81,0,0,0,35.5,20.3l-5.66-2.43a11.58,11.58,0,0,0-.51-7.09,11.7,11.7,0,1,0-18,13.6l-2.5,5.84a7.95,7.95,0,1,0-.77,15.86A7.8,7.8,0,0,0,11,45.51a7.95,7.95,0,0,0,2.73-12.94l2.56-6A11.45,11.45,0,0,0,22.82,26a11.76,11.76,0,0,0,4.55-3.26l6,2.57a7.94,7.94,0,0,0,7.93,8.39,7.95,7.95,0,0,0,7.38-10.91ZM38.56,32.13a6.95,6.95,0,1,1,5.31.06A6.92,6.92,0,0,1,38.56,32.13Zm-30-13A10.7,10.7,0,0,1,18.46,4.42,10.7,10.7,0,1,1,8.54,19.1ZM1.59,40.72a6.95,6.95,0,0,1,3.87-9A6.83,6.83,0,0,1,8,31.18a7,7,0,1,1-6.44,9.54Zm11.34-8.84a7.6,7.6,0,0,0-1.76-1.05,8.39,8.39,0,0,0-1.34-.44L12.16,25a11.93,11.93,0,0,0,3.13,1.41ZM28,21.91a11.9,11.9,0,0,0,1.23-2.18c.12-.29.23-.59.33-.89l5.28,2.26A8.26,8.26,0,0,0,34,22.61a7.67,7.67,0,0,0-.51,1.65Z" fill="#231f20"/><path d="M11.68,12.16a7.78,7.78,0,0,1,3-3.25.5.5,0,0,0-.5-.86,8.57,8.57,0,0,0-4.13,8.83.5.5,0,0,0,.49.42h.08a.48.48,0,0,0,.41-.57A7.77,7.77,0,0,1,11.68,12.16Z" fill="#231f20"/><path d="M3.78,34.79a6,6,0,0,0-1.1,2.6,5.8,5.8,0,0,0,.14,2.45.51.51,0,0,0,.49.37l.13,0a.51.51,0,0,0,.35-.62,4.65,4.65,0,0,1-.12-2,4.94,4.94,0,0,1,.91-2.15.5.5,0,0,0-.1-.7A.51.51,0,0,0,3.78,34.79Z" fill="#231f20"/><path d="M36.87,24.7a4.9,4.9,0,0,1,1.07-2.07.48.48,0,0,0,0-.7.5.5,0,0,0-.71,0,5.91,5.91,0,0,0-1.29,2.5,5.83,5.83,0,0,0,0,2.46.51.51,0,0,0,.49.41h.1a.5.5,0,0,0,.39-.59A4.84,4.84,0,0,1,36.87,24.7Z" fill="#231f20"/></g><g id="e2525e9f-f5a7-4d55-a520-eb16028db1cf" data-name="LABELS"><text transform="translate(-0.1 55.09)" font-size="6" fill="#231f20" font-family="Roboto-Regular, Roboto">molecule</text></g></svg>