<svg xmlns="http://www.w3.org/2000/svg" viewBox="0 0 50 50"><g id="bbe172b2-65c1-4837-8778-7ba77f215871" data-name="ICONS"><path d="M15.3,38.51a.56.56,0,0,1-.15.37.5.5,0,0,1-.37.13h-.51a12.57,12.57,0,0,0-2.71.3,11.17,11.17,0,0,0-5.5,2.84,4.45,4.45,0,0,0-1.53,4c.61,2.81,4.77,4.29,9.26,3.3,4-.88,7.09-3.54,7.1-6.17L21,16.72a.5.5,0,0,1,.44-.49l20.27-2.35a.5.5,0,0,1,.56.5v19.5a.51.51,0,0,1-.15.37.54.54,0,0,1-.37.13,12.63,12.63,0,0,0-3.22.29,11.21,11.21,0,0,0-5.5,2.84,4.45,4.45,0,0,0-1.53,4,4.47,4.47,0,0,0,3.08,3,11.12,11.12,0,0,0,6.18.27c4.05-.88,7.1-3.54,7.1-6.17l.15-29V2.74L15.3,6.53Z" fill="#fdd600"/><path d="M47.38.34A.52.52,0,0,0,47,.21L13.24,4.13a.49.49,0,0,0-.44.49V36.54a13,13,0,0,0-3,.32c-5,1.1-8.53,4.72-7.79,8.07.59,2.68,3.72,4.39,7.53,4.39A13.55,13.55,0,0,0,12.5,49c4.57-1,7.88-4,7.88-7.14l.15-26.15,19.28-2.23V31.91h0a14.08,14.08,0,0,0-2.94.32,12.11,12.11,0,0,0-6,3.11,5.42,5.42,0,0,0-1.8,5,5.43,5.43,0,0,0,3.71,3.75,12.11,12.11,0,0,0,6.75.31c4.56-1,7.87-4,7.88-7.14l.15-25.09V.71A.48.48,0,0,0,47.38.34Zm-.83,7.85-.15,29c0,2.64-3.06,5.29-7.1,6.18a11.11,11.11,0,0,1-6.18-.28,4.45,4.45,0,0,1-3.08-3,4.46,4.46,0,0,1,1.53-4,11.08,11.08,0,0,1,5.5-2.83,12.19,12.19,0,0,1,3.22-.29.55.55,0,0,0,.37-.14.51.51,0,0,0,.15-.36V12.91a.48.48,0,0,0-.17-.37.5.5,0,0,0-.39-.13L20,14.76a.5.5,0,0,0-.44.5l-.16,26.58c0,2.64-3.05,5.29-7.09,6.18C7.8,49,3.64,47.52,3,44.71s2.54-5.89,7-6.87a12.5,12.5,0,0,1,2.71-.3h.51a.51.51,0,0,0,.36-.14.48.48,0,0,0,.16-.36v-32l32.75-3.8Z" fill="#231f20"/></g><g id="b194e8f8-5e89-4bb5-80dd-b4016848812d" data-name="LABELS"><text transform="translate(-0.1 54.84)" font-size="6" fill="#231f20" font-family="Roboto-Regular, Roboto">music-note</text></g></svg>