<svg xmlns="http://www.w3.org/2000/svg" viewBox="0 0 50 50"><g id="f2abf121-1bf2-47ab-a39f-dd62c98db091" data-name="ICONS"><path d="M37.91,27.31v-8.6a1.93,1.93,0,0,0-3.83-.3c-.15.52-.42.57-.61.54-.36-.09-.47-.33-.42-.71V7.52a1.94,1.94,0,0,0-3.87,0h0a.5.5,0,0,1-.5.5.5.5,0,0,1-.5-.5V4.68a1.94,1.94,0,0,0-3.87,0V7.52h0a.49.49,0,0,1-1,0h0V7.45h0a1.94,1.94,0,0,0-3.87.07v8.1s0,0,0,0a.5.5,0,0,1-1,0h0v-.93a1.93,1.93,0,1,0-3.86,0v13a2,2,0,0,0,0,.25,11.67,11.67,0,0,0,5.32,9.78V49.87H32V38.19A11.68,11.68,0,0,0,37.91,28a2.17,2.17,0,0,0,0-.26v-.36A.34.34,0,0,0,37.91,27.31Z" fill="#fdd600"/><path d="M37.54,17.17A2.95,2.95,0,0,0,32.65,15v-9a2.94,2.94,0,0,0-4.89-2.21V3.07a2.95,2.95,0,0,0-5.89,0v.65A2.94,2.94,0,0,0,17,5.93v5a2.95,2.95,0,0,0-4.89,2.21V25.81a.86.86,0,0,0,0,.23v.18c0,.1,0,.21,0,.32a12.71,12.71,0,0,0,5.34,10.35V49a.51.51,0,0,0,.5.5H31.06a.5.5,0,0,0,.5-.5V37.31a12.72,12.72,0,0,0,6-10.77c0-.12,0-.23,0-.34v-.15a1.79,1.79,0,0,0,0-.24Zm-7,31.32H18.43v-11a12.65,12.65,0,0,0,12.13.35Zm6-22.68a.41.41,0,0,1,0,.11v.35c0,.09,0,.18,0,.27a11.73,11.73,0,0,1-23.45,0,2,2,0,0,1,0-.25V13.18a1.95,1.95,0,0,1,3.89,0v3.59h0v4.14a.5.5,0,0,0,.5.5.51.51,0,0,0,.5-.5V15.36h0V5.93a1.95,1.95,0,1,1,3.89,0h0v15a.5.5,0,0,0,.5.5.51.51,0,0,0,.5-.5v-15h0V3.07a1.95,1.95,0,0,1,3.89,0V20.91a.5.5,0,0,0,1,0v-15a1.95,1.95,0,1,1,3.89,0V16.77l0,.3v6.65a5.25,5.25,0,0,0-2.27.85C26.64,26.45,27,30.27,27,30.43a.49.49,0,0,0,.49.45h.05a.49.49,0,0,0,.45-.54S27.68,27,30,25.4a4.38,4.38,0,0,1,2.24-.73.51.51,0,0,0,.47-.5V16.85a1.94,1.94,0,0,1,3.85.32Z" fill="#231f20"/></g><g id="a553b85b-4165-4127-9c5d-d317faecbd68" data-name="LABELS"><text transform="translate(0.31 54.83)" font-size="6" fill="#231f20" font-family="Roboto-Regular, Roboto"><tspan letter-spacing="-0.02em">r</tspan><tspan x="1.91" y="0">aised-hand</tspan></text></g></svg>