<svg xmlns="http://www.w3.org/2000/svg" viewBox="0 0 50 50"><g id="eee1b1b1-c643-4797-8044-86eefe8ea54a" data-name="ICONS"><path d="M42.29,19.57,42,19.19,41.85,19a10.42,10.42,0,0,0-5.62-3.91,7.56,7.56,0,0,0-4.33.32,17.94,17.94,0,0,1-5.52.86h0a19.12,19.12,0,0,1-5.2-.73,8.18,8.18,0,0,0-4.56-.24,11.08,11.08,0,0,0-5.32,3.25.61.61,0,0,1-.07.1c-3,3.11-3.9,9.73-2.26,16.47,1.92,7.85,9,14.64,12.7,13.77A6,6,0,0,0,23,48.3a6.43,6.43,0,0,1,3.27-1,7.07,7.07,0,0,1,3.43,1,5.28,5.28,0,0,0,1.39.58c3.79.86,10.76-5.8,12.7-13.76,1.49-6.07.93-12-1.44-15.47Z" fill="#fdd600"/><path d="M41.46,17.41a.31.31,0,0,0-.05-.1l-.35-.46-.19-.26a11.4,11.4,0,0,0-6.15-4.24,7.13,7.13,0,0,0-3.23-.08,11.53,11.53,0,0,0,1.28-1.57,11.42,11.42,0,0,0,1.45-9.27.5.5,0,0,0-.55-.37,11.36,11.36,0,0,0-8,4.95,10.92,10.92,0,0,0-1.58,3.76c-.15-.57-.31-1.14-.5-1.69a19.84,19.84,0,0,0-2.14-4.36.5.5,0,0,0-.84.55c.3.45.56.91.82,1.39A18.68,18.68,0,0,1,22.66,8.4a20.46,20.46,0,0,1,1,5.08l-.37,0a19.34,19.34,0,0,1-3.65-.65,9.17,9.17,0,0,0-5.05-.24,12,12,0,0,0-5.9,3.63.86.86,0,0,0-.07.1C5.5,19.68,4.53,26.6,6.24,33.59c1.83,7.48,8.31,14.6,13,14.6a4.23,4.23,0,0,0,.94-.1,6.42,6.42,0,0,0,1.56-.66,5.6,5.6,0,0,1,2.82-.85,5.69,5.69,0,0,1,2.95.84,6.57,6.57,0,0,0,1.63.67c4.68,1,11.95-6.55,13.89-14.5C44.53,27.3,43.94,21.12,41.46,17.41ZM26.52,6.56a10.39,10.39,0,0,1,6.84-4.44,10.37,10.37,0,0,1-1.43,8,10.12,10.12,0,0,1-2.67,2.71,16.59,16.59,0,0,1-4.35.64A10.26,10.26,0,0,1,26.52,6.56ZM42,33.35c-1.94,8-8.91,14.62-12.7,13.76a5.28,5.28,0,0,1-1.39-.58,7.07,7.07,0,0,0-3.43-1,6.43,6.43,0,0,0-3.27,1,5.55,5.55,0,0,1-1.32.57C16.21,48,9.13,41.2,7.21,33.35,5.57,26.61,6.47,20,9.47,16.88a.61.61,0,0,0,.07-.1,11.08,11.08,0,0,1,5.32-3.25,8.18,8.18,0,0,1,4.56.24,19.12,19.12,0,0,0,5.2.73h0a17.94,17.94,0,0,0,5.52-.86,7.56,7.56,0,0,1,4.33-.32,10.42,10.42,0,0,1,5.62,3.91l.16.21.28.38,0,.06C43,21.35,43.51,27.28,42,33.35Z" fill="#231f20"/></g><g id="aa9f5b3d-a554-427b-bcff-9bd1305b2cff" data-name="LABELS"><text transform="translate(-0.07 55.02)" font-size="6" fill="#231f20" font-family="Roboto-Regular, Roboto">apple</text></g></svg>