<svg xmlns="http://www.w3.org/2000/svg" viewBox="0 0 50 50"><g id="e588cde3-7f5a-48da-ad6c-d29835ccc6d5" data-name="ICONS"><path d="M26.38,3.59a11.13,11.13,0,0,0-11.22,11V37a12.74,12.74,0,0,0,.34,2.9c1.23,5.46,5.7,9.26,10.88,9.26,6.18,0,11.21-5.45,11.21-12.16V14.6A11.13,11.13,0,0,0,26.38,3.59ZM24.64,28.34l-6.21-5.05a4.64,4.64,0,0,1,2.32-.76h7.73a4.74,4.74,0,0,1,2.35.76Zm0-9.48a6.76,6.76,0,0,1-.13-13.51v0a.91.91,0,0,1,.63,1,.9.9,0,0,1-.39.55A.91.91,0,0,1,24,7a.5.5,0,0,0-.21,1,2,2,0,0,0,.42.05,1.94,1.94,0,0,0,1.06-.32A1.83,1.83,0,0,0,26,5.48a6.76,6.76,0,0,1-1.38,13.38Z" fill="#fdd600"/><path d="M24.62.84a12.13,12.13,0,0,0-12.21,12v22.4a14,14,0,0,0,.36,3.12c1.34,5.91,6.21,10,11.85,10,6.74,0,12.22-5.9,12.22-13.16V12.85A12.13,12.13,0,0,0,24.62.84ZM13.82,38.45,25,29.37,35.84,20.5V35.25c0,6.71-5,12.16-11.22,12.16A11.36,11.36,0,0,1,13.82,38.45ZM24.62,1.84a11.13,11.13,0,0,1,11.22,11v6.36l-4.19,3.42a5.81,5.81,0,0,0-3.15-1.1H20.72a5.69,5.69,0,0,0-3.11,1.09l-4.2-3.41V12.85A11.13,11.13,0,0,1,24.62,1.84ZM13.41,35.25V20.5L23.84,29,13.59,37.35A12.68,12.68,0,0,1,13.41,35.25Zm11.23-6.91-6.21-5.05a4.64,4.64,0,0,1,2.32-.76h7.73a4.74,4.74,0,0,1,2.35.76Z" fill="#231f20"/><path d="M24.62,19.86a7.76,7.76,0,1,0,0-15.52h-.05a7.76,7.76,0,0,0,.05,15.52ZM24.49,5.35v0a.91.91,0,0,1,.63,1,.9.9,0,0,1-.39.55A.91.91,0,0,1,24,7a.5.5,0,0,0-.21,1,2,2,0,0,0,.42.05,1.94,1.94,0,0,0,1.06-.32A1.83,1.83,0,0,0,26,5.48a6.81,6.81,0,1,1-1.51-.13Z" fill="#231f20"/></g><g id="ba58bd48-d701-48fd-827a-a08c78282298" data-name="LABELS"><text transform="translate(-0.1 55.02)" font-size="6" fill="#231f20" font-family="Roboto-Regular, Roboto">ba<tspan x="6.63" y="0" letter-spacing="-0.01em">b</tspan><tspan x="9.96" y="0">y</tspan></text></g></svg>