<svg xmlns="http://www.w3.org/2000/svg" viewBox="0 0 50 50"><g id="a6b6f92e-05bf-4528-99f4-c45326518b57" data-name="ICONS"><circle cx="42.52" cy="33.4" r="7.14" fill="#fdd600"/><circle cx="10.03" cy="33.4" r="7.14" fill="#fdd600"/><path d="M41,23.76a8,8,0,0,0-2.32.34L33.58,10.93a.5.5,0,0,0-.45-.32c-.88,0-1.56,0-2.07,0-.36,0-.54,0-.67-.09a.86.86,0,0,1-.23-.57.5.5,0,0,0-.53-.46.49.49,0,0,0-.46.53,1.71,1.71,0,0,0,.61,1.29,1.93,1.93,0,0,0,1.35.3c.39,0,.94,0,1.64,0L35,17.29l-18.54-.05-1.06-2.37h2.08a.5.5,0,0,0,.5-.5.51.51,0,0,0-.5-.5H12a.5.5,0,0,0-.5.5.5.5,0,0,0,.5.5H14.3a.15.15,0,0,0,0,.07l1.25,2.78-3.67,6.8a8.13,8.13,0,1,0,4.7,7.88h3.68a2.14,2.14,0,0,0,4.14-.76,2.26,2.26,0,0,0-.14-.74l11.34-12,2.15,5.53A8.12,8.12,0,1,0,41,23.76ZM8.48,39a7.14,7.14,0,0,1,0-14.27,7.22,7.22,0,0,1,2.94.64l-2.7,5a1.57,1.57,0,0,0-.24,0,1.53,1.53,0,1,0,1.44,2h5.67A7.13,7.13,0,0,1,8.48,39ZM9.92,31.4a1.51,1.51,0,0,0-.32-.53l2.7-5a7.12,7.12,0,0,1,3.29,5.52Zm10.23,0H16.59A8.11,8.11,0,0,0,12.77,25l3.31-6.13,5,11A2.15,2.15,0,0,0,20.15,31.4Zm3.54-1.35a2.13,2.13,0,0,0-1.42-.55c-.1,0-.2,0-.3,0L16.89,18.24l18,.05ZM41,39a7.13,7.13,0,0,1-2.9-13.65l2.08,5.35a1.51,1.51,0,1,0,1-.36h0L39.06,25a7,7,0,0,1,2-.28A7.14,7.14,0,0,1,41,39Z" fill="#231f20"/></g><g id="fc0f3235-788b-4109-bca8-17b625f98935" data-name="LABELS"><text transform="translate(-0.11 55.12)" font-size="6" fill="#231f20" font-family="Roboto-Regular, Roboto">bi<tspan x="4.82" y="0" letter-spacing="-0.01em">k</tspan><tspan x="7.8" y="0">e</tspan></text></g></svg>