<svg xmlns="http://www.w3.org/2000/svg" viewBox="0 0 50 50"><g id="b3861a76-c737-4915-83fb-a0c660ed6fa5" data-name="ICONS"><path d="M35.78,24.77c-.74-.17-1.54-.43-2.39-.71-2.09-.67-4.46-1.44-6.43-1a30.84,30.84,0,0,0-3.74,1.13c-1.83.65-3.29,1.17-4.84.76a32.81,32.81,0,0,1-4.83-1.77,8.53,8.53,0,0,0-2-.71.16.16,0,0,0-.1,0s-.12.11-.1.75A15.38,15.38,0,0,0,26.71,38.55c8.66,0,15-5.77,15.2-13.78l-.21,0A12.94,12.94,0,0,1,35.78,24.77Z" fill="#fdd600"/><path d="M49.65,2.46a.49.49,0,0,0-.42-.27L44.13,2a.51.51,0,0,0-.46.25L39.36,9.57c-2-.16-11.91-1-14.39-1s-12.38.84-14.32,1L6.33,2.22A.49.49,0,0,0,5.88,2l-5.1.18a.5.5,0,0,0-.43.27.52.52,0,0,0,0,.5L7,13.16A19.62,19.62,0,0,0,22.49,40.5v7a.49.49,0,0,0,.15.36A.5.5,0,0,0,23,48h0L27.86,48a.49.49,0,0,0,.49-.5V40.36A19.77,19.77,0,0,0,44.67,21.09,19.38,19.38,0,0,0,43,13.2L49.63,3A.52.52,0,0,0,49.65,2.46ZM23.49,47V40.58c.48,0,1,.07,1.44.07h0a19.51,19.51,0,0,0,2.41-.16V47ZM42,12.89a.48.48,0,0,0,0,.48,18.39,18.39,0,0,1,1.67,7.72A18.74,18.74,0,0,1,27.8,39.43,18.62,18.62,0,0,1,8,13.32a.49.49,0,0,0,0-.48L1.69,3.12,5.61,3l4.33,7.37a.51.51,0,0,0,.48.24c.12,0,11.86-1.09,14.53-1s14.51,1,14.63,1a.49.49,0,0,0,.48-.25L44.38,3l3.93.17Z" fill="#231f20"/><path d="M39.75,22.08a12.11,12.11,0,0,1-5.49,0c-.7-.16-1.48-.41-2.31-.68-2.21-.71-4.72-1.52-6.95-1a29.16,29.16,0,0,0-3.86,1.16c-1.74.62-3,1.06-4.26.73A29.94,29.94,0,0,1,12.2,20.5c-1.47-.64-2.36-1-3-.61a1.81,1.81,0,0,0-.55,1.61A16.37,16.37,0,0,0,25,37.8c9.24,0,16.21-6.54,16.21-15.21a.69.69,0,0,0-.22-.47C40.68,21.9,40.35,22,39.75,22.08ZM25,36.8A15.38,15.38,0,0,1,9.65,21.48c0-.64.1-.75.1-.75a.16.16,0,0,1,.1,0,8.53,8.53,0,0,1,2,.71,32.81,32.81,0,0,0,4.83,1.77c1.55.41,3-.11,4.84-.76a30.84,30.84,0,0,1,3.74-1.13c2-.43,4.34.34,6.43,1,.85.28,1.65.54,2.39.71a12.94,12.94,0,0,0,5.92,0l.21,0C39.94,31,33.62,36.8,25,36.8Z" fill="#231f20"/></g><g id="aed6265b-bffa-4523-9ca1-8710daec7996" data-name="LABELS"><text transform="translate(0.52 54.92)" font-size="6" fill="#231f20" font-family="Roboto-Regular, Roboto">bladder</text></g></svg>