<svg id="efcdbabe-ee62-4c10-975d-0503c103670f" data-name="ICONS" xmlns="http://www.w3.org/2000/svg" viewBox="0 0 50 50"><path d="M41.51,19.69V2.84H10v15l3-2.53a.5.5,0,0,1,.47-.09l4.26,1.31,7.62-6.87a.49.49,0,0,1,.46-.12L32,11.29,38.25,5.1a.5.5,0,0,1,.7,0,.5.5,0,0,1,0,.71L32.5,12.2a.5.5,0,0,1-.48.13l-6.19-1.72-7.62,6.88a.52.52,0,0,1-.49.11l-4.27-1.32L10,19.17v.52h10.9a4.14,4.14,0,0,1,8.22,0Z" fill="#fdd600"/><path d="M20.9,20.69H10v.5H21c0-.17-.08-.33-.1-.5" fill="#fdd600"/><path d="M42.51,2.84V20.19a.51.51,0,0,1-.5.5H29.1c0,.17-.07.33-.1.5H43V2.84Z" fill="#fdd600"/><polygon points="45.72 49.66 7.28 49.66 9.24 47.02 9.99 46.02 13.49 41.31 14.49 39.97 17.65 35.71 19.5 35.71 20.5 35.71 22.5 35.71 23.5 35.71 29.5 35.71 30.5 35.71 32.5 35.71 33.5 35.71 35.35 35.71 38.51 39.97 39.51 41.31 43.01 46.02 43.76 47.02 45.72 49.66" fill="#fdd600"/><path d="M8,31.44a4.17,4.17,0,1,0-2.68-1,4.13,4.13,0,0,0,2.68,1m0-7.32a3.16,3.16,0,0,1,2,5.57,3.24,3.24,0,0,1-4.07,0,3.12,3.12,0,0,1-1.12-2.41A3.16,3.16,0,0,1,8,24.12" fill="#231f20"/><path d="M42.85,32.44H41.16A4.36,4.36,0,0,0,37,36.79L34.5,33.41a.51.51,0,0,0-.4-.2H32v-3.5a4.36,4.36,0,0,0-4.18-4.36H22.15A4.36,4.36,0,0,0,18,29.71v3.5H15.9a.51.51,0,0,0-.4.2L13,36.79a4.36,4.36,0,0,0-4.15-4.35H7.14A4.37,4.37,0,0,0,3,36.8V45a.51.51,0,0,0,.5.5h3L4.39,48.36a.49.49,0,0,0,0,.52.51.51,0,0,0,.45.28H45.21a.51.51,0,0,0,.45-.28.49.49,0,0,0,0-.52L43.5,45.52h3A.51.51,0,0,0,47,45V36.8a4.37,4.37,0,0,0-4.16-4.36M19,29.71a3.36,3.36,0,0,1,3.18-3.36H27.8A3.36,3.36,0,0,1,31,29.71v3.5H29V30.47a.5.5,0,0,0-1,0v2.74H22V30.47a.5.5,0,0,0-1,0v2.74H19ZM4,44.52V36.8a3.36,3.36,0,0,1,3.18-3.36H8.79A3.36,3.36,0,0,1,12,36.8v1.33L7.24,44.52Zm40.23,3.64H5.78l2-2.64.74-1L12,39.81l1-1.34,3.16-4.26h17.7L37,38.47l1,1.34,3.5,4.71.74,1ZM46,44.52H42.76L38,38.13V36.8a3.36,3.36,0,0,1,3.17-3.36h1.63A3.36,3.36,0,0,1,46,36.8Z" fill="#231f20"/><path d="M37.85,27.28A4.16,4.16,0,1,0,42,23.12a4.17,4.17,0,0,0-4.16,4.16m7.31,0A3.12,3.12,0,0,1,44,29.69a3.24,3.24,0,0,1-4.07,0,3.16,3.16,0,1,1,5.19-2.41" fill="#231f20"/><path d="M7.53,20.36a.41.41,0,0,0,0,.09s0,0,0,.06h0l.13.1s0,0,0,0a.46.46,0,0,0,.2.05H20.9a4.13,4.13,0,0,0,8.2,0H42a.51.51,0,0,0,.5-.5V.84a.51.51,0,0,0-.5-.5H8a.51.51,0,0,0-.5.5V20.19a.14.14,0,0,0,0,.06.22.22,0,0,0,0,.11m20.57.33A3.14,3.14,0,0,1,27,22.6a3.25,3.25,0,0,1-4.08,0,3.14,3.14,0,0,1-1.06-1.91,2.84,2.84,0,0,1-.06-.5,4,4,0,0,1,.05-.5,3.15,3.15,0,0,1,6.22,0,4,4,0,0,1,.05.5,2.84,2.84,0,0,1-.06.5M8.49,1.34h33V19.69H29.11a4.14,4.14,0,0,0-8.22,0H9.37l4.08-3.41,4.27,1.32a.5.5,0,0,0,.48-.11l7.63-6.88L32,12.33a.5.5,0,0,0,.48-.13L39,5.81a.5.5,0,0,0,0-.71.5.5,0,0,0-.7,0L32,11.29,25.83,9.57a.49.49,0,0,0-.46.12l-7.62,6.87-4.26-1.31a.5.5,0,0,0-.47.09L8.49,19.12Z" fill="#231f20"/></svg>