<svg id="ad8de135-1eb1-4d0d-a52e-0542b47055b8" data-name="ICONS" xmlns="http://www.w3.org/2000/svg" viewBox="0 0 50 50"><path d="M23.72,19.81a.24.24,0,0,0,0-.24l-3.27-5.33A5,5,0,0,0,16.08,12H8a1.35,1.35,0,0,0-1.39.84.84.84,0,0,0,.18.69A1.43,1.43,0,0,0,7.93,14h7a.5.5,0,0,1,.5.5.5.5,0,0,1-.5.5H10.6a1.42,1.42,0,0,0-1,.5.81.81,0,0,0-.16.67,1.36,1.36,0,0,0,1.38.83h7.34a.5.5,0,0,1,.5.5.5.5,0,0,1-.5.5H13.36a1.42,1.42,0,0,0-1,.5.81.81,0,0,0-.16.67,1.36,1.36,0,0,0,1.38.83h9.69A.55.55,0,0,0,23.72,19.81Z" fill="#fdd600"/><circle cx="26.75" cy="7.31" r="3.86" fill="#fdd600"/><path d="M45.47,12h-8a5.06,5.06,0,0,0-4.36,2.2l-3.27,5.33a.24.24,0,0,0,0,.24.55.55,0,0,0,.49.23H40a1.36,1.36,0,0,0,1.38-.83.81.81,0,0,0-.16-.67,1.42,1.42,0,0,0-1-.5H35.38a.5.5,0,0,1-.5-.5.51.51,0,0,1,.5-.5h7.34a1.36,1.36,0,0,0,1.38-.83.81.81,0,0,0-.16-.67,1.42,1.42,0,0,0-1-.5H38.62a.5.5,0,0,1-.5-.5.5.5,0,0,1,.5-.5h7a1.43,1.43,0,0,0,1.11-.47.84.84,0,0,0,.18-.69A1.35,1.35,0,0,0,45.47,12Z" fill="#fdd600"/><path d="M21.61,45.48l-1.18.26a.49.49,0,0,0-.38.59.5.5,0,0,0,.49.39h.1l1.19-.25a.5.5,0,1,0-.22-1Z" fill="#231f20"/><path d="M28.43,31.11l-1.9-.43-1-.24V10.37a4.86,4.86,0,1,0-1,0V30.21L23.69,30l-6-1.36a3.47,3.47,0,0,1-2.34-4.17,3.25,3.25,0,0,1,1.76-2,3.57,3.57,0,0,1,2.9-.06.5.5,0,0,0,.39-.92,4.57,4.57,0,0,0-3.71.07,4.27,4.27,0,0,0-2.3,2.6,4.48,4.48,0,0,0,3,5.41l6,1.38,1,.24v6.61l-.8-.2-1.89-.46a2.76,2.76,0,0,1-2.18-2.71,2.73,2.73,0,0,1,1.84-2.29.5.5,0,0,0-.35-.94,3.56,3.56,0,0,0,.44,6.91l1.9.46,1,.26v5.75l-.82-.17h0l-.49-.11A2.74,2.74,0,0,1,21,42.15,2.43,2.43,0,0,1,22.08,40a.5.5,0,0,0,.1-.7.51.51,0,0,0-.7-.11A3.41,3.41,0,0,0,20,42.25,3.72,3.72,0,0,0,23,45.32l.51.11h0l1,.23V46.9a.5.5,0,1,0,1,0v-1l.82.17,3,.66h.1a.5.5,0,0,0,.49-.39.49.49,0,0,0-.38-.59l-3-.67-1-.22V39.13l1,.25h0A2.75,2.75,0,0,1,29,42.15a2.42,2.42,0,0,1-1,1.64.5.5,0,0,0,.3.9.5.5,0,0,0,.31-.1A3.42,3.42,0,0,0,30,42.25a3.74,3.74,0,0,0-3.22-3.84h0L25.5,38.1V31.47l.81.18,1.88.43a2.59,2.59,0,0,1,0,5.11.5.5,0,0,0-.36.61.5.5,0,0,0,.49.37.25.25,0,0,0,.12,0,3.58,3.58,0,0,0,0-7ZM21.14,5.56A3.86,3.86,0,1,1,25,9.42,3.87,3.87,0,0,1,21.14,5.56Z" fill="#231f20"/><path d="M46.09,10.94a2.28,2.28,0,0,0-2.37-1.65h-8A6,6,0,0,0,30.46,12L27.19,17.3a1.22,1.22,0,0,0,0,1.25,1.54,1.54,0,0,0,1.36.74h9.69a2.32,2.32,0,0,0,2.36-1.62,1.79,1.79,0,0,0-.27-1.38H41a2.32,2.32,0,0,0,2.36-1.62,1.79,1.79,0,0,0-.27-1.38h.76a2.45,2.45,0,0,0,1.88-.83A1.8,1.8,0,0,0,46.09,10.94Zm-1.16.88a1.43,1.43,0,0,1-1.11.47h-7a.5.5,0,0,0-.5.5.5.5,0,0,0,.5.5h4.28a1.42,1.42,0,0,1,1,.5.81.81,0,0,1,.16.67,1.36,1.36,0,0,1-1.38.83H33.63a.51.51,0,0,0-.5.5.5.5,0,0,0,.5.5h4.76a1.42,1.42,0,0,1,1,.5.81.81,0,0,1,.16.67,1.36,1.36,0,0,1-1.38.83H28.52a.55.55,0,0,1-.49-.23.24.24,0,0,1,0-.24l3.27-5.33a5.06,5.06,0,0,1,4.36-2.2h8a1.35,1.35,0,0,1,1.39.84A.84.84,0,0,1,44.93,11.82Z" fill="#231f20"/><path d="M22.84,18.55a1.22,1.22,0,0,0,0-1.25L19.54,12a6,6,0,0,0-5.21-2.68h-8a2.28,2.28,0,0,0-2.37,1.65,1.8,1.8,0,0,0,.39,1.52,2.45,2.45,0,0,0,1.88.83h.76a1.79,1.79,0,0,0-.27,1.38A2.31,2.31,0,0,0,9,16.29H9.7a1.79,1.79,0,0,0-.27,1.38,2.32,2.32,0,0,0,2.36,1.62h9.69A1.54,1.54,0,0,0,22.84,18.55ZM10.41,17.46a.81.81,0,0,1,.16-.67,1.42,1.42,0,0,1,1-.5h4.76a.5.5,0,0,0,.5-.5.5.5,0,0,0-.5-.5H9a1.36,1.36,0,0,1-1.38-.83.81.81,0,0,1,.16-.67,1.42,1.42,0,0,1,1-.5h4.28a.5.5,0,0,0,.5-.5.5.5,0,0,0-.5-.5h-7a1.43,1.43,0,0,1-1.11-.47.84.84,0,0,1-.18-.69,1.35,1.35,0,0,1,1.39-.84h8.05a5,5,0,0,1,4.36,2.2L22,17.82a.24.24,0,0,1,0,.24.55.55,0,0,1-.49.23H11.79A1.36,1.36,0,0,1,10.41,17.46Z" fill="#231f20"/><path d="M33.09,21.61a4.57,4.57,0,0,0-3.71-.07.5.5,0,0,0,.39.92,3.57,3.57,0,0,1,2.9.06,3.25,3.25,0,0,1,1.76,2,3.45,3.45,0,0,1-2.3,4.15l-3.58.82a.5.5,0,0,0,.11,1h.11l3.62-.83a4.48,4.48,0,0,0,3-5.4A4.27,4.27,0,0,0,33.09,21.61Z" fill="#231f20"/></svg>