<svg xmlns="http://www.w3.org/2000/svg" viewBox="0 0 50 50"><g id="a1d754d1-c0a8-4dba-998e-783970462451" data-name="ICONS"><path d="M38.36,27.57A9.55,9.55,0,0,1,46,31.42V8.54H3.83V42.06H30.19a9.43,9.43,0,0,1-1.39-4.93A9.57,9.57,0,0,1,38.36,27.57Z" fill="#fdd600"/><path d="M38.61,36.9V31.62a.5.5,0,0,0-.5-.5.5.5,0,0,0-.5.5V37.1a.49.49,0,0,0,.15.36L42,41.7a.52.52,0,0,0,.35.14.54.54,0,0,0,.36-.14.51.51,0,0,0,0-.71Z" fill="#fdd600"/><path d="M45.25,29.14V6.29a.5.5,0,0,0-.5-.5H38.3V4.47a2.16,2.16,0,1,0-4.32,0V5.79H12.74V4.47a2.16,2.16,0,1,0-4.32,0V5.79H1.58a.5.5,0,0,0-.5.5V40.81a.5.5,0,0,0,.5.5H28.67A10.55,10.55,0,1,0,45.25,29.14ZM38.36,46.69a9.56,9.56,0,1,1,9.56-9.56A9.57,9.57,0,0,1,38.36,46.69ZM36.14,3.31A1.16,1.16,0,0,1,37.3,4.47V6.88a1.16,1.16,0,0,1-2.32,0V4.47A1.16,1.16,0,0,1,36.14,3.31Zm-25.56,0a1.16,1.16,0,0,1,1.16,1.16V6.88a1.16,1.16,0,1,1-2.32,0V4.47A1.16,1.16,0,0,1,10.58,3.31ZM8.42,6.79v.09a2.16,2.16,0,0,0,4.32,0V6.79H34v.09a2.16,2.16,0,1,0,4.32,0V6.79h6V12H2.08V6.79ZM2.08,40.31V13H44.25V28.37a10.46,10.46,0,0,0-5.89-1.8A10.58,10.58,0,0,0,27.8,37.13a10.74,10.74,0,0,0,.49,3.18Z" fill="#231f20"/><path d="M42.71,41l-4.1-4.09V31.62a.5.5,0,0,0-.5-.5.5.5,0,0,0-.5.5V37.1a.49.49,0,0,0,.15.36L42,41.7a.52.52,0,0,0,.35.14.54.54,0,0,0,.36-.14A.51.51,0,0,0,42.71,41Z" fill="#231f20"/></g><g id="ab3e32a5-3b39-4f76-832c-a8c31651e209" data-name="LABELS"><text transform="translate(0.22 54.88)" font-size="6" fill="#231f20" font-family="Roboto-Regular, Roboto">calendar-dock</text></g></svg>