<svg id="edfa9c26-ea58-4b20-b7a7-f6d229271f40" data-name="ICONS" xmlns="http://www.w3.org/2000/svg" viewBox="0 0 50 50"><path d="M48.63,35.47h-.05V24H42.9V8.58H9.6V24H3.92V35.47H3.86a1.13,1.13,0,0,0,0,2.26H8.28v5.65a.49.49,0,0,0,.43.54h3.56a.49.49,0,0,0,.43-.54V37.73h27v5.65a.5.5,0,0,0,.43.54h3.62a.5.5,0,0,0,.43-.55V37.73h4.41a1.13,1.13,0,0,0,0-2.26ZM10.13,30a2,2,0,1,1,2-2A2,2,0,0,1,10.13,30Zm2.93-7.51h-.79l-.62-.61.12-.39V10.38H37.73v.5h.77l.23.42c0,3.81,0,7.61,0,11.42l1-.22ZM30.7,30H18.58v-2.2H30.7Zm8.67,0a2,2,0,1,1,2-2A2,2,0,0,1,39.37,30Z" fill="#fdd600"/><path d="M48.08,33.21V22a.53.53,0,0,0-.51-.52H42.4V18.83h4.53a.5.5,0,0,0,.5-.5v-3.1a.5.5,0,0,0-.5-.5H42.41V6.58a.5.5,0,0,0-.5-.5H7.6a.5.5,0,0,0-.5.5v8.16H2.44a.5.5,0,0,0-.5.5v3.1a.5.5,0,0,0,.5.5H7.1V21.5H1.94a.53.53,0,0,0-.52.51V33.2a2.13,2.13,0,0,0,.94,4H5.78V42a1.43,1.43,0,0,0,1.43,1.43h3.56A1.43,1.43,0,0,0,12.2,42V37.23h25V42a1.43,1.43,0,0,0,1.43,1.43h3.62A1.44,1.44,0,0,0,43.72,42V37.23h3.41a2.12,2.12,0,0,0,.95-4ZM42.41,15.73h4v2.1h-4ZM7,17.83h-4v-2.1H7ZM8.1,7.07H41.41V21.5H38.73V9.88a.5.5,0,0,0-.5-.5H11.28a.5.5,0,0,0-.5.5V21.5H8.1Zm29.63,3.31V21.5h-26V10.38ZM2.42,22.5H47.08V33H2.42ZM11.2,42a.43.43,0,0,1-.43.43H7.21A.43.43,0,0,1,6.78,42V37.23H11.2Zm31.52,0a.44.44,0,0,1-.43.44H38.67a.43.43,0,0,1-.43-.43V37.23h4.48Zm4.41-5.76H2.36a1.13,1.13,0,0,1,0-2.26H47.13a1.13,1.13,0,0,1,0,2.26Z" fill="#231f20"/><path d="M10.13,24.93a3,3,0,1,0,3,3A3,3,0,0,0,10.13,24.93Zm0,5.08a2,2,0,1,1,2-2A2,2,0,0,1,10.13,30Z" fill="#231f20"/><path d="M39.37,24.93a3,3,0,1,0,3,3A3,3,0,0,0,39.37,24.93Zm0,5.08a2,2,0,1,1,2-2A2,2,0,0,1,39.37,30Z" fill="#231f20"/><path d="M31.2,26.81H18.08a.5.5,0,0,0-.5.5v3.2a.5.5,0,0,0,.5.5H31.2a.5.5,0,0,0,.5-.5v-3.2A.5.5,0,0,0,31.2,26.81ZM30.7,30H18.58v-2.2H30.7Z" fill="#231f20"/></svg>