<svg xmlns="http://www.w3.org/2000/svg" viewBox="0 0 50 50"><g id="bb6d4a5e-36b1-4316-a503-2939700cd561" data-name="ICONS"><polygon points="31.97 5.63 33.18 5.63 33.18 2.73 19.32 2.73 19.32 5.63 20.53 5.63 31.97 5.63" fill="#fdd600"/><path d="M40.38,39.34H12.13L9.57,43.76a4,4,0,0,0,3.47,6H39.46a4,4,0,0,0,3.47-6Z" fill="#fdd600"/><path d="M42.29,41.76,31,22.14v-17h1.21a.5.5,0,0,0,.5-.5V.73a.5.5,0,0,0-.5-.5H17.32A.5.5,0,0,0,17,.37a.49.49,0,0,0-.15.36v3.9a.5.5,0,0,0,.5.5h1.21v17L7.21,41.76a5,5,0,0,0,4.33,7.51H38a5,5,0,0,0,4.33-7.51ZM17.82,1.23H31.68v2.9H17.82Zm1.65,21.3a.57.57,0,0,0,.06-.25V5.13H30V22.28a.57.57,0,0,0,.06.25L38.3,36.84H11.2Zm22,23.74a4,4,0,0,1-3.47,2H11.54a4,4,0,0,1-3.47-6l2.56-4.42H38.88l2.55,4.42A4,4,0,0,1,41.43,46.27Z" fill="#231f20"/><path d="M21.31,32.86a2.72,2.72,0,1,0-2.72-2.72A2.72,2.72,0,0,0,21.31,32.86Zm0-4.44a1.72,1.72,0,1,1-1.72,1.72A1.72,1.72,0,0,1,21.31,28.42Z" fill="#231f20"/><path d="M25.31,24.09A2.29,2.29,0,1,0,23,21.8,2.3,2.3,0,0,0,25.31,24.09Zm0-3.57A1.29,1.29,0,1,1,24,21.8,1.28,1.28,0,0,1,25.31,20.52Z" fill="#231f20"/><path d="M26.3,34A1.71,1.71,0,1,0,28,32.33,1.71,1.71,0,0,0,26.3,34Zm1.71-.7a.71.71,0,0,1,0,1.41.71.71,0,1,1,0-1.41Z" fill="#231f20"/></g><g id="b2dfa6dd-aab0-4e80-bca9-06d767e14092" data-name="LABELS"><text transform="translate(-0.1 55.09)" font-size="6" fill="#231f20" font-family="Roboto-Regular, Roboto">chemical-bea<tspan x="35.66" y="0" letter-spacing="-0.01em">k</tspan><tspan x="38.65" y="0">er</tspan></text></g></svg>