<svg id="a85c9266-90e1-4b29-a616-9676018dd181" data-name="ICONS" xmlns="http://www.w3.org/2000/svg" viewBox="0 0 50 50"><polygon points="48.86 5.24 3.89 5.25 3.89 9.27 9.67 9.27 10.37 9.27 10.37 13.89 13.1 13.89 13.61 13.89 13.61 16.05 13.61 16.05 13.78 40.84 17.58 46.99 17.58 16.05 17.58 16.05 17.58 13.89 18.08 13.89 18.08 13.88 23.85 13.88 23.85 13.89 24.35 13.89 24.35 14.89 24.35 43.63 26.18 47.31 28.15 43.68 28.15 14.89 28.15 14.89 28.15 13.89 28.64 13.89 28.65 13.88 34.34 13.88 34.35 13.89 34.84 13.89 34.84 14.89 34.84 47 38.64 40.93 38.64 14.89 38.64 14.89 38.64 13.89 39.13 13.89 39.14 13.88 42.3 13.88 42.3 9.27 42.79 9.27 42.8 9.27 48.86 9.27 48.86 5.24" fill="#fdd600"/><path d="M48.11,3a.5.5,0,0,0-.5-.5h-46a.51.51,0,0,0-.35.15A.49.49,0,0,0,1.14,3V8a.47.47,0,0,0,.15.35.47.47,0,0,0,.35.15h6v4.12a.5.5,0,0,0,.5.5h2.74L11,39.23a.59.59,0,0,0,.07.26l4.8,7.78a.52.52,0,0,0,.43.24l.14,0a.5.5,0,0,0,.36-.48V13.14H21.6V42a.54.54,0,0,0,0,.22L24,46.87a.5.5,0,0,0,.44.28.47.47,0,0,0,.45-.27l2.48-4.59a.48.48,0,0,0,.06-.24V13.14h4.69V47a.49.49,0,0,0,.37.48.49.49,0,0,0,.56-.21l4.8-7.68a.48.48,0,0,0,.07-.26V13.13h3.16A.5.5,0,0,0,41.4,13a.49.49,0,0,0,.15-.36V8.52h6.06a.5.5,0,0,0,.5-.5ZM15.83,45.24,12,39.09l-.17-25.95h4ZM26.4,41.93l-2,3.63L22.6,41.88V13.14h3.8Zm6.69,3.32V13.14h3.8v26Zm4.3-33.12H8.62V8.52H40.55v3.61Zm3.66-4.61H2.14v-4h45v4Z" fill="#231f20"/></svg>