<svg xmlns="http://www.w3.org/2000/svg" viewBox="0 0 50 50"><g id="e755cc0a-cbfc-4dbd-b0ac-7e7ceb6ebaf3" data-name="ICONS"><path d="M33.76,37.14l0,0L30,37.31h0l-1.16.07,1.55-2.69c3.4-5.76,9.77-16.64,10.4-18.69h0a4.69,4.69,0,0,0-.59-4.1,3.36,3.36,0,0,0-2.82-1.41l-1,0c-.33,0-.62,0-1.69,0H31.64a6.82,6.82,0,0,1-13,0h-.11l-2.28,0a3.39,3.39,0,0,0-2.83,1.4,4.72,4.72,0,0,0-.59,4.1c.76,2.43,8.62,16.21,11.2,20.73l.48.85-1.11.06-4.59.25a.88.88,0,0,0-.55.23L7.81,47.41A.91.91,0,0,0,8.41,49H33.76a.91.91,0,0,0,.91-.91l-.05-1A3.94,3.94,0,0,1,33.54,46a3.79,3.79,0,0,1-.64-1.81,5.58,5.58,0,0,1,.86-7Z" fill="#fdd600"/><path d="M37.63,34.59a6.53,6.53,0,0,0-3.71,1.15v-.41a1.07,1.07,0,0,0-.32-.75,1,1,0,0,0-.76-.27l-3.94.22c3.4-5.74,10.43-17.68,11.14-20a5.71,5.71,0,0,0-.74-5,4.41,4.41,0,0,0-3.62-1.82l-1,0c-.32,0-.6,0-1.55,0A7.85,7.85,0,0,0,25.34.51c-.33,0-.65,0-1,.06l-.45.07-.1,0a7.82,7.82,0,0,0-6.47,7.11l-2.83,0A4.42,4.42,0,0,0,10.89,9.6a5.76,5.76,0,0,0-.73,5c.68,2.22,6.49,12.53,11,20.37L17,35.18a2,2,0,0,0-1.16.48L5.4,44.91a1.91,1.91,0,0,0,1.26,3.34H32a1.91,1.91,0,0,0,1.88-1.64,6.59,6.59,0,1,0,3.74-12ZM18.32,8.37a6.83,6.83,0,1,1,6.82,6.83A6.83,6.83,0,0,1,18.32,8.37ZM11.7,10.19a3.39,3.39,0,0,1,2.83-1.4l2.28,0h.53A7.82,7.82,0,0,0,33,8.71c1.07,0,1.36,0,1.69,0l1,0a3.36,3.36,0,0,1,2.82,1.41,4.69,4.69,0,0,1,.59,4.1h0c-.67,2.18-7.79,14.28-11,19.67a4,4,0,0,0-.32-.75c-.39-.7-1.12-2-2-3.64,1.53-2.79,3.46-6.36,4.81-8.85l1.59-2.93a.49.49,0,0,0-.18-.68.51.51,0,0,0-.69.18l-1.6,3c-1.26,2.31-3,5.57-4.5,8.27l-4.38-8.17c-.93-1.73-1.58-2.95-1.65-3.07a.5.5,0,1,0-.86.5L20,20.79c2.19,4.08,5.85,10.92,7,12.87a2.24,2.24,0,0,1,.21,1.94c0,.11-.09.21-.14.32h0a2.77,2.77,0,0,1-2.11,1.37,1.82,1.82,0,0,1-1.82-1L22.31,35c-2.58-4.52-10.44-18.3-11.2-20.73A4.72,4.72,0,0,1,11.7,10.19ZM32,47.25H6.66a.91.91,0,0,1-.6-1.59l10.48-9.25a.88.88,0,0,1,.55-.23l4.59-.25.5.89a2.8,2.8,0,0,0,2.49,1.48H25A3.69,3.69,0,0,0,28,36l.26-.45,4.63-.23v1.24a6.57,6.57,0,0,0,0,9.22v.55A.91.91,0,0,1,32,47.25Zm5.62-.47a5.6,5.6,0,1,1,5.6-5.59A5.58,5.58,0,0,1,37.63,46.78Z" fill="#231f20"/></g><g id="a02bc7bb-3e15-426c-a802-2a73514d0d49" data-name="LABELS"><text transform="translate(0.02 54.89)" font-size="6" fill="#231f20" font-family="Roboto-Regular, Roboto">cpr-people</text></g></svg>