<svg xmlns="http://www.w3.org/2000/svg" viewBox="0 0 50 50"><g id="a7329b7b-46c2-4474-ba0b-18b13d553841" data-name="ICONS"><path d="M40.58,39.54h0l-5.83-5.77a8,8,0,0,0-2.32-7.07l-.12-.12L26,20.34a1.29,1.29,0,0,0-1.81-.06,1.26,1.26,0,0,0,.06,1.79l.45.45h0a.32.32,0,0,1,0,.45.33.33,0,0,1-.47,0h0l-3.92-3.88A1.29,1.29,0,0,0,18.5,19a1.27,1.27,0,0,0,0,1.76h0l0,0h0a.32.32,0,0,1,0,.42.31.31,0,0,1-.43,0h0l-1.37-1.36a1.31,1.31,0,0,0-1.82-.06,1.28,1.28,0,0,0,.06,1.8L16.34,23h0a.33.33,0,0,1,0,.47.32.32,0,0,1-.46,0h0a1.29,1.29,0,0,0-1.81-.06,1.26,1.26,0,0,0,.06,1.79l5.18,5.14c.21.15.27.32.16.52s-.23.2-.54,0a1.23,1.23,0,0,0-1.6,1.86l4.16,4.12,0,0,.07.05.1.12a.8.8,0,0,0,.13.13,8.11,8.11,0,0,0,7.6,2.2L35.11,45h0c.7.69,1.39,1.39,2.09,2.09q2.69-2.76,5.38-5.5Z" fill="#fdd600"/><path d="M34.41,32.12,37,29.54A2.11,2.11,0,0,0,36,26l2.12-2.12a2.11,2.11,0,0,0-1-3.55l.06-.06a2.11,2.11,0,1,0-3-3l-.06.06a2.11,2.11,0,0,0-3.55-1l-3.47,3.46-2.21-2.21a2.11,2.11,0,0,0-3,0,2.14,2.14,0,0,0-.57,1l-2.11-2.12a2.12,2.12,0,0,0-3,0,2.17,2.17,0,0,0-.57,1l-.06-.06a2.16,2.16,0,0,0-3,0,2.12,2.12,0,0,0,0,3l.06.06a2,2,0,0,0-1,.56,2.11,2.11,0,0,0,0,3l4,4a2.21,2.21,0,0,0-1,.56,2.12,2.12,0,0,0,0,3l.86.85L8.33,39.54a.48.48,0,0,0,0,.7l6.13,6.13a.47.47,0,0,0,.35.15.49.49,0,0,0,.35-.15l8.12-8.12a8.77,8.77,0,0,0,3.57,0l8,8a.49.49,0,0,0,.35.15.51.51,0,0,0,.36-.15l6.12-6.13a.48.48,0,0,0,0-.7Zm.78,13-7.83-7.83a.51.51,0,0,0-.36-.15l-.12,0a7.52,7.52,0,0,1-7.22-2l-.1-.12L19.41,35l-.08-.07-4-4a1.13,1.13,0,0,1,0-1.58,1.11,1.11,0,0,1,1.43-.11l4,4a.49.49,0,0,0,.35.15.47.47,0,0,0,.35-.15.48.48,0,0,0,0-.7l-3.94-4a.7.7,0,0,0-.06-.09l-5.06-5.07a1.11,1.11,0,0,1,1.57-1.57l7,7a.48.48,0,0,0,.7,0,.5.5,0,0,0,0-.71l-7-7L13.28,19.7a1.11,1.11,0,0,1,0-1.58,1.14,1.14,0,0,1,1.57,0l1.34,1.33h0l7,7a.52.52,0,0,0,.35.14.54.54,0,0,0,.36-.14.51.51,0,0,0,0-.71l-7-7h0a1.12,1.12,0,0,1,1.58-1.58l4.4,4.4.66.66,1.93,1.93a.51.51,0,0,0,.36.15.5.5,0,0,0,.35-.15.48.48,0,0,0,0-.7l-1.93-1.93h0l-1.68-1.68a1.12,1.12,0,0,1,1.58-1.58l5.92,5.93.09.11.11.09a1.14,1.14,0,0,1,.11.11,7.57,7.57,0,0,1,2.09,6.77.48.48,0,0,0,.14.44l8,8ZM18.62,35.59l.11.09.07.08.16.17a8.53,8.53,0,0,0,3.22,2l-7.37,7.37L9.39,39.89l6.76-6.77ZM32.81,17a1.11,1.11,0,0,1,0,1.58l-3.46,3.47-1.58-1.58L31.24,17A1.14,1.14,0,0,1,32.81,17Zm3.47,11.82L33.7,31.41l-.21-.21a8.79,8.79,0,0,0,0-2.71l1.23-1.23a1.15,1.15,0,0,1,1.58,0A1.13,1.13,0,0,1,36.28,28.84Zm1.1-5.67L33.2,27.34a8.36,8.36,0,0,0-1-2.14l3.6-3.61a1.12,1.12,0,1,1,1.58,1.58Zm-1-5.2a1.13,1.13,0,0,1,0,1.58L35.1,20.88l-3.5,3.5c-.17-.2-.33-.39-.52-.58l-.16-.15-.06,0-.12-.14-.69-.69,3.47-3.46h0L34.85,18a1.14,1.14,0,0,1,1.58,0Z" fill="#231f20"/><path d="M13.13,8.46h4.16a.49.49,0,0,0,.4-.21l2.13-2.91L23.75,12a.52.52,0,0,0,.44.25h0a.5.5,0,0,0,.42-.32L28.41,2.2l2.31,5.92a.49.49,0,0,0,.46.32l5.69,0h0a.51.51,0,0,0,.5-.5.5.5,0,0,0-.5-.5l-5.36,0L28.87.63a.5.5,0,0,0-.46-.32h0a.51.51,0,0,0-.47.32l-3.85,10L20.3,4.18a.5.5,0,0,0-.84,0L17,7.46H13.13a.5.5,0,0,0,0,1Z" fill="#231f20"/><path d="M41.94,23.67a.49.49,0,0,0-.06.7,4.85,4.85,0,0,1,0,6.23.51.51,0,0,0,.06.71.54.54,0,0,0,.32.11.49.49,0,0,0,.38-.18,5.82,5.82,0,0,0,0-7.51A.49.49,0,0,0,41.94,23.67Z" fill="#231f20"/><path d="M45.35,22a.51.51,0,0,0-.71-.06.49.49,0,0,0-.06.7,7.62,7.62,0,0,1,1.78,4.67,7.73,7.73,0,0,1-1.78,5.1.49.49,0,0,0,.06.7.51.51,0,0,0,.32.12.5.5,0,0,0,.39-.18,8.75,8.75,0,0,0,2-5.77A8.65,8.65,0,0,0,45.35,22Z" fill="#231f20"/><path d="M8.12,32.33a4.88,4.88,0,0,1-1.13-3A5,5,0,0,1,8.12,26.1a.5.5,0,0,0-.76-.64,5.84,5.84,0,0,0,0,7.52.52.52,0,0,0,.38.17A.46.46,0,0,0,8.06,33,.51.51,0,0,0,8.12,32.33Z" fill="#231f20"/><path d="M5.36,23.63a.51.51,0,0,0-.71.06,8.77,8.77,0,0,0-2,5.77,8.65,8.65,0,0,0,2,5.28.5.5,0,0,0,.39.18.51.51,0,0,0,.32-.12.49.49,0,0,0,.06-.7,7.57,7.57,0,0,1,0-9.76A.51.51,0,0,0,5.36,23.63Z" fill="#231f20"/></g><g id="b19f7d2a-d26f-42d6-bc40-32ded18d6227" data-name="LABELS"><text transform="translate(0.55 54.89)" font-size="6" fill="#231f20" font-family="Roboto-Regular, Roboto">cpr</text></g></svg>