<svg id="f8912aef-a7d7-4dfa-bce5-91c4e0346669" data-name="ICONS" xmlns="http://www.w3.org/2000/svg" viewBox="0 0 50 50"><path d="M38.77,7.79a.51.51,0,0,1-.5-.5V6.91a2.36,2.36,0,0,0-2.35-2.36H17a2.36,2.36,0,0,0-2.35,2.36v.38a.51.51,0,0,1-.5.5H12.94v3.07h.93a.49.49,0,0,1,.5.44L15,16.49l.33-1.18,2.4,8.53H15.94l.06.51a10.63,10.63,0,0,0,5.12,7.09.5.5,0,0,1,.25.48L20,45.48a.5.5,0,0,1-.5.45H18.05V48.2H34.7V45.93H33.29a.5.5,0,0,1-.49-.45L31.4,31.89a.5.5,0,0,1,.24-.48,10.57,10.57,0,0,0,5.07-7L38.28,11.3a.5.5,0,0,1,.49-.44h1V7.79ZM16,14h4.8l-2.4,8.53Zm3.06,9.88,2.41-8.55,2.45,8.55ZM22.14,14h4.79L24.56,22.4Zm3.05,9.88L27.6,15.3,30,23.84ZM28.26,14h4.8l-2.37,8.53ZM35,22.63a9.35,9.35,0,0,1-.33,1.21H31.35l2.37-8.52,1.47,5.23,0,0ZM35.52,18,34.38,14H36Z" fill="#fdd600"/><path d="M30.13,34.52h-11l.38-3.63c-.33-.16-.64-.34-.95-.53L17.21,43.18H15.8a.5.5,0,0,0-.5.5V47a.5.5,0,0,0,.5.5H33.45A.5.5,0,0,0,34,47V43.68a.5.5,0,0,0-.5-.5h-1.4L30.7,30.34c-.31.19-.63.37-.95.53ZM33,46.45H16.3V44.18H33ZM18.68,38.83H30.59L31,43l-12.81.15Zm11.56-3.31.24,2.31H18.79L19,35.52Z" fill="#231f20"/><path d="M36.46,10.11,36.12,13H13.05l-.36-2.85h-1L13,20.26v0l.31,2.45a12.28,12.28,0,0,0,.49,1.73s0,0,0,.06a11.53,11.53,0,0,0,4.79,5.81c.31.19.62.37.95.53a11.44,11.44,0,0,0,5,1.2h.05a11.48,11.48,0,0,0,5.14-1.22c.32-.16.64-.34.95-.53A11.63,11.63,0,0,0,36,22.79l1.52-12.68Zm-11.9,21A10.59,10.59,0,0,1,15,24.84H34.24a10.57,10.57,0,0,1-9.63,6.25Zm10.07-7.25H31.35l2.37-8.52,1.47,5.23,0,0-.25,2A9.35,9.35,0,0,1,34.63,23.84ZM21.48,15.29l2.45,8.55H19.07ZM30,23.84H25.19L27.6,15.3Zm.66-1.35L28.26,14h4.8Zm-6.13-.09L22.14,14h4.79Zm-6.15.09L16,14h4.8Zm-.66,1.35H14.59c-.13-.41-.25-.82-.34-1.24L14,20.25l1.39-4.94ZM35.52,18,34.38,14H36ZM14.69,14l-1,3.74L13.17,14Z" fill="#231f20"/><path d="M38.56,5H37.51A3.35,3.35,0,0,0,34.17,1.8H15.28A3.35,3.35,0,0,0,11.94,5H10.69a.5.5,0,0,0-.5.5V9.61a.5.5,0,0,0,.5.5H38.56a.5.5,0,0,0,.5-.5V5.54A.5.5,0,0,0,38.56,5Zm-.5,4.07H11.19V6H38.06ZM15.28,2.8H34.17A2.34,2.34,0,0,1,36.51,5H12.94A2.35,2.35,0,0,1,15.28,2.8Z" fill="#231f20"/></svg>