<svg id="b23049e4-c0b1-4fbc-bdaf-4c2bb711887c" data-name="ICONS" xmlns="http://www.w3.org/2000/svg" viewBox="0 0 50 50"><path d="M26.58,18c0-3.61,0-7.23,0-10.84H7.86V49.47H39.43q0-15.73,0-31.47H26.58Z" fill="#fdd600"/><path d="M44.14.53H11.57a.5.5,0,0,0-.5.5V2.7H8.74a.5.5,0,0,0-.5.5V4.65H5.86a.5.5,0,0,0-.5.5V48.47a.51.51,0,0,0,.5.5H38.43a.5.5,0,0,0,.5-.5V47h2.38a.5.5,0,0,0,.5-.5V44.85h2.33a.5.5,0,0,0,.5-.5V1A.51.51,0,0,0,44.14.53ZM37.93,48H6.36V5.65H25.59V17.49a.5.5,0,0,0,.5.5H37.93ZM26.59,17V6.36L37.22,17ZM40.81,46H38.93V17.49s0,0,0-.06,0,0,0-.07a.5.5,0,0,0-.13-.22L26.44,4.8a.48.48,0,0,0-.23-.13h-17v-1H40.81Zm2.83-2.17H41.81V3.2a.5.5,0,0,0-.5-.5H12.07V1.53H43.64Z" fill="#231f20"/></svg>