<svg id="aa53d3ff-f331-4b98-9e5b-e26b6b6897c2" data-name="ICONS" xmlns="http://www.w3.org/2000/svg" viewBox="0 0 50 50"><path d="M40.32,15.28a6,6,0,0,0-3.51-2H31.45a5.45,5.45,0,0,0-4.16,1.84,4.53,4.53,0,0,0-.45.64l-.12.2a2.62,2.62,0,0,1,.9,2,2.71,2.71,0,1,1-1.85-2.52,3.65,3.65,0,0,0-.31-.43,5.45,5.45,0,0,0-4.15-1.85H15.85A6,6,0,0,0,11,19.42V30.17a1.42,1.42,0,0,0,.4,1,1.39,1.39,0,0,0,1.54.25,1.43,1.43,0,0,0,.79-1.23.53.53,0,0,1,.51-.62.55.55,0,0,1,.49.64V47.64a1.92,1.92,0,1,0,3.83,0,.57.57,0,0,1,.55-.64.56.56,0,0,1,.45.64,2.06,2.06,0,0,0,4.11.11l.33,1a1.13,1.13,0,0,0,1.07.79,1.14,1.14,0,0,0,1.14-1.14.54.54,0,0,1,.57-.57.53.53,0,0,1,.43.57c.19.72.64,1.24,1.13,1.27s1.2-.48,1.2-.91h0l.38.36a1.91,1.91,0,0,0,3.25-1.37.51.51,0,1,1,1,0,1.92,1.92,0,0,0,3.84,0V30.3a.54.54,0,0,1,.48-.64.56.56,0,0,1,.52.62,1.42,1.42,0,0,0,.22.73,1.35,1.35,0,0,0,.56.5,1.39,1.39,0,0,0,1.54-.25,1.41,1.41,0,0,0,.4-1V19.58A6.16,6.16,0,0,0,40.32,15.28Z" fill="#fdd600"/><path d="M39.33,12.88a7.05,7.05,0,0,0-4.18-2.36H29.71a6.39,6.39,0,0,0-4.93,2.2,1.71,1.71,0,0,0-.11.14,2.34,2.34,0,0,0-.2-.27,6.42,6.42,0,0,0-4.93-2.2H14A7,7,0,0,0,8.26,17.7V28.43A2.46,2.46,0,0,0,9,30.09a2.36,2.36,0,0,0,2.66.45,2.71,2.71,0,0,0,.37-.21V45.89a2.91,2.91,0,0,0,5.33,1.63,2.91,2.91,0,0,0,2.42,1.29,2.87,2.87,0,0,0,2-.78A2.11,2.11,0,0,0,25,48a2.13,2.13,0,0,0,1.64.77,2.1,2.1,0,0,0,1.23-.4,2.91,2.91,0,0,0,4.09-.76A2.92,2.92,0,0,0,37.27,46V30.46a2.12,2.12,0,0,0,.36.21,2.38,2.38,0,0,0,2.67-.45A2.49,2.49,0,0,0,41,28.55V17.86A7.17,7.17,0,0,0,39.33,12.88ZM40,17.83V28.54a1.41,1.41,0,0,1-.4,1,1.37,1.37,0,0,1-2.32-1V17.12a.5.5,0,0,0-.5-.5.5.5,0,0,0-.5.5V46a1.92,1.92,0,1,1-3.84,0v-16a.5.5,0,1,0-1,0V46a1.92,1.92,0,0,1-1.92,1.92,1.87,1.87,0,0,1-1-.3,2.12,2.12,0,0,0,.25-1V36.42a1.76,1.76,0,0,0,2.52-1.59V27a4.46,4.46,0,0,0-1.59-3.74,4.26,4.26,0,0,0-.75-.45,4.43,4.43,0,0,0-1.88-.37l-4.4,0a4.54,4.54,0,0,0-1.65.42,4.25,4.25,0,0,0-.87.56,4.63,4.63,0,0,0-1.46,3.77v7.62a1.86,1.86,0,0,0,.52,1.24,1.77,1.77,0,0,0,2,.33h0V46.67a1.75,1.75,0,0,0,0,.4,1.91,1.91,0,0,1-3.42-1.18h0v-16a.5.5,0,0,0-1,0v16h0a1.92,1.92,0,1,1-3.83,0V28.42h0V17a.5.5,0,0,0-.5-.5.5.5,0,0,0-.5.5V28.41a1.37,1.37,0,0,1-2.32,1,1.42,1.42,0,0,1-.4-1V17.67a6.14,6.14,0,0,1,1.42-4.27,6.06,6.06,0,0,1,3.42-2h5.46a5.44,5.44,0,0,1,4.15,1.84,4.94,4.94,0,0,1,.7,1.1,3.64,3.64,0,0,0-3.09,3.6c0,.12,0,.24,0,.36a3.64,3.64,0,0,0,7.24,0c0-.12,0-.24,0-.36a3.63,3.63,0,0,0-3.13-3.6c-.07-.19-.15-.37-.24-.56a3.81,3.81,0,0,1,.29-.41,5.42,5.42,0,0,1,4.07-1.84h5.45A6,6,0,0,1,40,17.83ZM25.47,46.67V35.86a.5.5,0,0,0-1,0V46.67a1.14,1.14,0,0,1-2.28,0V26.83a.5.5,0,0,0-.5-.5.51.51,0,0,0-.5.5v8a.78.78,0,0,1-.44.69.76.76,0,0,1-.86-.14.81.81,0,0,1-.22-.54V27.17a3.58,3.58,0,0,1,1.11-3,3.24,3.24,0,0,1,1.9-.75l4.38,0h0a3.14,3.14,0,0,1,2,.62,3.46,3.46,0,0,1,1.2,2.9v7.86a.76.76,0,1,1-1.52,0v-8a.51.51,0,0,0-.5-.5.5.5,0,0,0-.5.5V46.67a1.14,1.14,0,0,1-2.28,0ZM25,20.58a2.66,2.66,0,1,1,2.65-2.65A2.65,2.65,0,0,1,25,20.58Z" fill="#231f20"/><path d="M31.93,9.46a4.58,4.58,0,1,0-4.57-4.58A4.58,4.58,0,0,0,31.93,9.46Zm0-8.15a3.58,3.58,0,1,1-3.57,3.57A3.57,3.57,0,0,1,31.93,1.31Z" fill="#231f20"/><path d="M17.32,9.46a4.58,4.58,0,1,0-4.57-4.58A4.58,4.58,0,0,0,17.32,9.46Zm0-8.15a3.58,3.58,0,1,1-3.57,3.57A3.57,3.57,0,0,1,17.32,1.31Z" fill="#231f20"/></svg>