<svg xmlns="http://www.w3.org/2000/svg" viewBox="0 0 50 50"><g id="ab2e7beb-57ce-4783-8b35-4e685e400eb1" data-name="ICONS"><path d="M12.67,24.54a9.27,9.27,0,1,0,9.26,9.26A9.27,9.27,0,0,0,12.67,24.54Z" fill="#fdd600"/><path d="M40.08,24.48a9.26,9.26,0,1,0,9.26,9.26A9.27,9.27,0,0,0,40.08,24.48Z" fill="#fdd600"/><path d="M47.4,27.2h0C47,24.33,44.7,10,43.43,8.44a5,5,0,0,0-3.88-1.5.5.5,0,0,0,.08,1,4,4,0,0,1,3,1.14c.75.9,2.37,9.7,3.41,16.21A10.24,10.24,0,0,0,28.19,30.5a4.65,4.65,0,0,0-7.09.29A10.24,10.24,0,0,0,3.17,25.35C4.21,18.84,5.83,10,6.58,9.14A4,4,0,0,1,9.62,8,.5.5,0,1,0,9.7,7,5,5,0,0,0,5.82,8.5C4.55,10,2.29,24.39,1.85,27.26h0a10.26,10.26,0,1,0,19.31,5.27A4.11,4.11,0,0,1,24.77,30a4,4,0,0,1,3.3,2v0A10.26,10.26,0,1,0,47.4,27.2ZM10.92,41.32a9.27,9.27,0,1,1,9.26-9.27A9.27,9.27,0,0,1,10.92,41.32Zm27.41-.07A9.26,9.26,0,1,1,47.59,32,9.27,9.27,0,0,1,38.33,41.25Z" fill="#231f20"/></g><g id="bd6fc09d-bfcf-468c-95f4-bfeaaca20ec7" data-name="LABELS"><text transform="translate(1.27 54.97)" font-size="6" fill="#231f20" font-family="Roboto-Regular, Roboto">glasses</text></g></svg>