<svg xmlns="http://www.w3.org/2000/svg" viewBox="0 0 50 50"><g id="be8f7b4d-6a3e-4ac0-8e0c-83b3bd907c59" data-name="ICONS"><path d="M35.06,37.63l5.21-2.55a1.47,1.47,0,0,0,.73-.82,1.4,1.4,0,0,0-.06-1.1A1.43,1.43,0,0,0,39,32.49h0a.52.52,0,0,1-.63-.24.5.5,0,0,1,.19-.66h0l2-1a1.43,1.43,0,0,0,.67-1.92A1.45,1.45,0,0,0,39.37,28l-2,1h0a.57.57,0,0,1-.67-.43.54.54,0,0,1,.24-.47h0A.7.7,0,0,0,37,28L39.36,27l0,0,.13-.06,2.19-1-.07,0,.84-.41a1.47,1.47,0,0,0,.73-.82,1.45,1.45,0,0,0-.88-1.84,1.5,1.5,0,0,0-1.1.06h0a.55.55,0,0,1-.74-.29.53.53,0,0,1,.3-.61l2-1a1.38,1.38,0,0,0,.73-.82,1.4,1.4,0,0,0-.06-1.1,1.43,1.43,0,0,0-1.92-.67l-2,1h0a.52.52,0,0,1-.69-.28.52.52,0,0,1,.25-.62h0a1.44,1.44,0,0,0,.67-1.92,1.46,1.46,0,0,0-1.93-.67L30.6,19.38c-.19-.38-.38-.77-.58-1.15a1.41,1.41,0,0,0,.06-1.31,1.46,1.46,0,0,0-.83-.73,1.4,1.4,0,0,0-1.1.06l-6.17,3-.12.08-.21.09-.18.08A9.12,9.12,0,0,0,16.31,27a.49.49,0,0,1-.28.41l-4.13,2,2,4.08c.2.4.41.8.61,1.21a9.54,9.54,0,0,0-.4,1.94.49.49,0,0,1-.28.41l-4,1.91,4,8.52,4.34-2.09a.52.52,0,0,1,.47,0,9.2,9.2,0,0,0,8.59.32l.18-.1.14-.07a.67.67,0,0,1,.15-.06l9.07-4.37a1.44,1.44,0,0,0,.67-1.93h0a1.44,1.44,0,0,0-1.92-.67.5.5,0,0,1-.62-.23A.49.49,0,0,1,35.06,37.63Z" fill="#fdd600"/><path d="M33.45,14.09a2.36,2.36,0,0,0,2.35-2.35c0-.91-1.33-3.58-2.39-5.49-1,1.91-2.31,4.58-2.31,5.49A2.35,2.35,0,0,0,33.45,14.09Z" fill="#fdd600"/><path d="M31.7,13.34A3.36,3.36,0,0,0,35.05,10c0-1.66-2.66-6.24-3-6.76A.53.53,0,0,0,31.65,3a.5.5,0,0,0-.43.26c-.3.51-2.87,5.1-2.87,6.75A3.36,3.36,0,0,0,31.7,13.34Zm0-8.84c1.06,1.91,2.39,4.58,2.39,5.49a2.35,2.35,0,0,1-4.7,0C29.35,9.08,30.63,6.41,31.66,4.5Z" fill="#231f20"/><path d="M42.9,18.69a2.41,2.41,0,0,0-.12-1.86,2.48,2.48,0,0,0-1.4-1.24,2.4,2.4,0,0,0-1.86.12l-.27.13a2.43,2.43,0,0,0-3.47-2.62l-6.24,3a2.45,2.45,0,0,0-3.48-2.62l-6.15,3a.66.66,0,0,0-.15.09l-.12,0-.25.11a10.1,10.1,0,0,0-5.64,8L9.43,27.07a.53.53,0,0,0-.26.29.5.5,0,0,0,0,.38l2.64,5.41a9.77,9.77,0,0,0-.27,1.45L7.25,36.71A.48.48,0,0,0,7,37a.46.46,0,0,0,0,.38l4.58,9.35a.49.49,0,0,0,.45.29.46.46,0,0,0,.22-.06l4.61-2.25a10.17,10.17,0,0,0,9.3.17l.23-.13.1,0,.18-.07,9-4.4a2.44,2.44,0,0,0,.07-4.35l3.4-1.66a2.43,2.43,0,0,0,.06-4.35l.26-.13a2.44,2.44,0,0,0,1.12-3.27,2.42,2.42,0,0,0-1-1l1.73-.85a2.44,2.44,0,0,0,1.12-3.26,2.46,2.46,0,0,0-1.05-1.09l.26-.13A2.38,2.38,0,0,0,42.9,18.69Zm-2,5-3.07,1.51a2.48,2.48,0,0,0-.48.17l-.26.13a2.54,2.54,0,0,0-.21-1.5,2.48,2.48,0,0,0-1-1.05l3.76-1.84h0a1.44,1.44,0,0,1,1.26,2.58Zm-2,2.51A1.45,1.45,0,0,1,39,28.84l-2,1h0L26.34,35.05a.5.5,0,0,0-.23.67.49.49,0,0,0,.45.28.44.44,0,0,0,.22,0l10.67-5.22h0a1.44,1.44,0,0,1,1.27,2.59l-5.16,2.52h0L32,36.6h0l-.5.25L31,37.1h0L28,38.54a.51.51,0,0,0-.23.67.52.52,0,0,0,.45.28.54.54,0,0,0,.22-.05L31.43,38h0L34,36.74a1.44,1.44,0,0,1,1.26,2.59l-9,4.42-.15.06-.14.08-.17.09a9.19,9.19,0,0,1-8.6-.27.49.49,0,0,0-.47,0l-4.39,2.15L8.14,37.39l4.12-2a.53.53,0,0,0,.28-.41,9.11,9.11,0,0,1,5.11-7.51l.19-.08.21-.1.12-.07,6.15-3a1.43,1.43,0,0,1,1.46,2.46s0,0,0,.05l-6.5,3.2a.5.5,0,0,0,.22.95.54.54,0,0,0,.22-.05l6.64-3.27h0L34,23.76a1.44,1.44,0,0,1,2,1.76,1.49,1.49,0,0,1-.73.83h0L24.63,31.57a.51.51,0,0,0-.23.67.52.52,0,0,0,.45.28.54.54,0,0,0,.22-.05l10.68-5.22h0l2-1A1.44,1.44,0,0,1,38.88,26.18Zm-24.16-.85a9.11,9.11,0,0,1,5.11-7.51l.18-.08.22-.1.12-.08,6.15-3a1.44,1.44,0,0,1,1.93.66A1.44,1.44,0,0,1,28,17l-5.2,2.54a.5.5,0,0,0-.24.64A3.41,3.41,0,0,1,22.78,22c-.3,2.13-2.72,3.08-2.75,3.08a.55.55,0,0,0-.27.25l-2,1a.42.42,0,0,0-.14.09l-.13.05-.25.11A10.07,10.07,0,0,0,12.3,31.8l-2-4.05,4.12-2A.49.49,0,0,0,14.72,25.33Zm24.47-5.14-5.11,2.5a3.06,3.06,0,0,0-.48.17l-6.24,3.06a2.44,2.44,0,0,0-3.47-2.62l-.64.31a4.12,4.12,0,0,0,.52-1.49,4.26,4.26,0,0,0-.16-1.87l4.76-2.32a.53.53,0,0,0,.12,0l7.73-3.78a1.45,1.45,0,0,1,1.1-.07,1.42,1.42,0,0,1,.83.73,1.45,1.45,0,0,1-.66,1.92h0L26.81,21.93a.49.49,0,0,0-.23.66.5.5,0,0,0,.45.28.42.42,0,0,0,.22-.05L37.92,17.6h0l2-1a1.44,1.44,0,0,1,1.1-.07A1.45,1.45,0,0,1,42,18.37a1.38,1.38,0,0,1-.73.82Z" fill="#231f20"/></g><g id="af491ea7-ba32-4be3-b123-5bb911dc9df3" data-name="LABELS"><text transform="translate(0.6 55.06)" font-size="6" fill="#231f20" font-family="Roboto-Regular, Roboto">hand-sanitizing</text></g></svg>