<svg xmlns="http://www.w3.org/2000/svg" viewBox="0 0 50 50"><g id="e9403fc6-df94-44b8-9199-b2b1d9683dd2" data-name="ICONS"><path d="M35.83,5H13.52A1.44,1.44,0,0,0,12,6.23V33.94a1.44,1.44,0,0,0,1.55,1.24h6.15a.51.51,0,0,1,.5.49l0,4.73,8.58,0,0-4.75a.49.49,0,0,1,.5-.49h6.51a1.44,1.44,0,0,0,1.55-1.24V6.23A1.44,1.44,0,0,0,35.83,5Z" fill="#fdd600"/><path d="M40.28,8.44a.5.5,0,0,0-.5.5V40.2a7.25,7.25,0,0,1-7.24,7.24h-2a7.25,7.25,0,0,1-7.24-7.24v-.54h4.23a.5.5,0,0,0,.5-.5l0-4.74h6a2.41,2.41,0,0,0,2.55-2.24V4.48a2.41,2.41,0,0,0-2.55-2.24H26.59C26.26,1.14,24.76.32,22.88.32s-3.38.82-3.7,1.92H11.77A2.42,2.42,0,0,0,9.22,4.48V32.19a2.42,2.42,0,0,0,2.55,2.24h5.65l0,4.72a.5.5,0,0,0,.5.5h4.35v.54a8.25,8.25,0,0,0,8.24,8.24h2a8.25,8.25,0,0,0,8.24-8.24V8.94A.5.5,0,0,0,40.28,8.44ZM22.88,1.32c1.64,0,2.77.72,2.77,1.36s-1.13,1.37-2.77,1.37-2.77-.72-2.77-1.37S21.25,1.32,22.88,1.32ZM11.77,3.24h7.45c.4,1,1.86,1.81,3.66,1.81s3.27-.76,3.66-1.81h7.54a1.44,1.44,0,0,1,1.55,1.24v5.1L10.22,9.53v-5A1.44,1.44,0,0,1,11.77,3.24Zm6.65,30.68a.51.51,0,0,0-.5-.49H11.77a1.44,1.44,0,0,1-1.55-1.24V10.53l25.41.05V14.7l-8,0h0a.5.5,0,0,0,0,1l8,0v3.21h-8a.5.5,0,0,0-.5.5.5.5,0,0,0,.5.5h8v3.43l-8,0h0a.5.5,0,0,0-.5.49.51.51,0,0,0,.5.51l8,0v3.21h-8a.5.5,0,0,0-.5.5.5.5,0,0,0,.5.5h8v3.64a1.44,1.44,0,0,1-1.55,1.24H27.57a.49.49,0,0,0-.5.49l0,4.75-8.58,0Z" fill="#231f20"/></g><g id="b13ff86a-4aee-43cb-a0b6-cce1696d9e9f" data-name="LABELS"><text transform="translate(0.04 54.84)" font-size="6" fill="#231f20" font-family="Roboto-Regular, Roboto">infusion-bag</text></g></svg>