<svg id="f97cebe6-3dff-4e8b-a472-8ff53bc18956" data-name="ICONS" xmlns="http://www.w3.org/2000/svg" viewBox="0 0 50 50"><path d="M2.54,22.53V41.68H50V22.53ZM34,37.24H4.24V23.3H34Zm10.43-.53H37.61V24.24h6.86Z" fill="#fdd600"/><path d="M23.81,17.49a4.44,4.44,0,0,1,3.34-1.58L38.92,16a3.87,3.87,0,0,0,.29-7.72l-15.7,0a.5.5,0,0,0-.5.5.5.5,0,0,0,.5.5h0l15.65,0A2.87,2.87,0,0,1,38.92,15l-11.77-.13a5.46,5.46,0,0,0-4.12,2A5.19,5.19,0,0,0,22,19.22h1A4.11,4.11,0,0,1,23.81,17.49Z" fill="#231f20"/><path d="M.54,20a.5.5,0,0,0-.5.5V40.68a.5.5,0,0,0,.5.5H49a.5.5,0,0,0,.5-.5V20.53A.5.5,0,0,0,49,20H22.9a3.71,3.71,0,0,1,.11-.81H22a6.68,6.68,0,0,0-.08.81Zm47.92,1V40.18H1V21Z" fill="#231f20"/><path d="M3.67,33.49v3.72a.5.5,0,0,0,.5.5h29.7a.5.5,0,0,0,.5-.5V33.49h0v-3.7s0,0,0,0v-3.7h0s0,0,0,0V23.74a.51.51,0,0,0-.5-.5H4.17a.5.5,0,0,0-.5.5v9.75Zm29.7,3.22H26.94V34h6.43ZM30.66,24.24h2.71v1.27H30.66Zm0,2.32h2.71v2.72H30.65Zm-.5,3.72h3.22V33H26.94V30.28Zm-3.21-6h2.71v1.27H26.94Zm0,2.32h2.71v2.72H26.94Zm-1,6.43h-2.7V30.28h2.7Zm-2.7-8.75h2.7v1.27h-2.7Zm0,2.32h2.71v2.72H23.23Zm-3.71-2.32h2.71v1.27H19.52Zm0,2.32h2.71v2.72H19.52Zm2.71,3.72V33H19.52V30.28Zm-6.42-6h2.71v1.27H15.81Zm0,2.32h2.71v2.72H15.81Zm2.71,3.72V33H15.81V30.28ZM19,34h6.92v2.72H12.1V34H19ZM12.1,33V30.28h2.71V33Zm0-8.75h2.71v1.27H12.1Zm0,2.32h2.72v2.72H12.09ZM7.38,36.71H4.67V34H7.38Zm3.72,0H8.38V34H11.1ZM8.38,24.24H11.1v1.27H8.38Zm0,2.32h2.71v2.72H8.38Zm2.72,3.72V33H4.67V30.28H11.1Zm-6.43-6H7.38v1.27H4.67Zm0,2.32H7.38v2.72H4.67Z" fill="#231f20"/><path d="M37.54,37.71H45a.51.51,0,0,0,.5-.5V26.06h0V23.8a.5.5,0,0,0-.5-.5H37.54a.5.5,0,0,0-.5.5v2.26h0V37.21A.5.5,0,0,0,37.54,37.71ZM41.76,24.3h2.71v1.26H41.76Zm0,2.27h2.72v2.71H41.75Zm0,3.71h2.72V33H41.75Zm0,3.71h2.72v2.72H41.75ZM38,24.3h2.71v1.27H38Zm0,2.27h2.71v2.71H38Zm0,3.71h2.71V33H38ZM38,34h2.71v2.71H38Z" fill="#231f20"/></svg>