<svg xmlns="http://www.w3.org/2000/svg" viewBox="0 0 50 50"><g id="e449477e-9c09-4989-82c5-71db48bd9742" data-name="ICONS"><path d="M25,24.05a.5.5,0,0,1,.49-.4h3.2V20.27h-3.2a.5.5,0,0,1-.49-.39,9.56,9.56,0,0,0-1.28-3.1.5.5,0,0,1,.06-.62l2.27-2.28-2.39-2.39-2.27,2.27a.49.49,0,0,1-.62.07,9.6,9.6,0,0,0-3.09-1.28.53.53,0,0,1-.4-.49V8.85H13.92v3.2a.49.49,0,0,1-.39.49,9.58,9.58,0,0,0-3.1,1.29.5.5,0,0,1-.62-.07L7.53,11.49,5.14,13.88l2.27,2.27a.49.49,0,0,1,.07.62,9.56,9.56,0,0,0-1.28,3.1.51.51,0,0,1-.49.39H2.5v3.38H5.7a.5.5,0,0,1,.49.4,9.44,9.44,0,0,0,1.29,3.09.5.5,0,0,1-.07.62L5.14,30l2.39,2.39L9.8,30.15a.49.49,0,0,1,.62-.07,9.58,9.58,0,0,0,3.1,1.29.49.49,0,0,1,.39.49v3.2H17.3v-3.2a.5.5,0,0,1,.39-.49,9.6,9.6,0,0,0,3.09-1.28.5.5,0,0,1,.62.06l2.28,2.27L26.07,30,23.8,27.76a.5.5,0,0,1-.07-.62A9.62,9.62,0,0,0,25,24.05Zm-10.91.54a4.17,4.17,0,1,1,4.16-4.16A4.17,4.17,0,0,1,14.11,24.59Z" fill="#fdd600"/><path d="M14.11,15.26a5.2,5.2,0,1,0,5.19,5.2A5.2,5.2,0,0,0,14.11,15.26Zm0,9.39a4.2,4.2,0,1,1,4.19-4.19A4.2,4.2,0,0,1,14.11,24.65Z" fill="#231f20"/><path d="M46.72,36.16a7.31,7.31,0,0,0,.51-2.53.5.5,0,0,1,.4-.48L50,32.68l-.47-2.38-2.35.47a.5.5,0,0,1-.56-.29,7.34,7.34,0,0,0-1.43-2.15.49.49,0,0,1-.06-.62l1.33-2-2-1.35-1.34,2a.49.49,0,0,1-.59.18A7.4,7.4,0,0,0,40,26a.52.52,0,0,1-.48-.41L39,23.28l-2.38.47.47,2.35a.5.5,0,0,1-.29.56,7.51,7.51,0,0,0-2.15,1.44.5.5,0,0,1-.62,0l-2-1.33-1.35,2,2,1.33a.52.52,0,0,1,.19.6,7.36,7.36,0,0,0-.51,2.53.51.51,0,0,1-.4.48l-2.36.47.47,2.38,2.36-.47a.5.5,0,0,1,.55.29,7.24,7.24,0,0,0,1.44,2.15.5.5,0,0,1,0,.62l-1.33,2,2,1.35,1.33-2a.51.51,0,0,1,.42-.22.39.39,0,0,1,.18,0,7.31,7.31,0,0,0,2.53.51.48.48,0,0,1,.48.4l.47,2.35L43,43.18l-.46-2.35a.5.5,0,0,1,.28-.56,7.41,7.41,0,0,0,2.15-1.43.49.49,0,0,1,.62-.06l2,1.33,1.34-2-2-1.34A.49.49,0,0,1,46.72,36.16Zm-8.22-.82a3.17,3.17,0,1,1,3.17-3.17A3.17,3.17,0,0,1,38.5,35.34Z" fill="#fdd600"/><path d="M23.3,25.83a10.5,10.5,0,0,0,1.12-2.68h3.31a.5.5,0,0,0,.5-.5V18.27a.5.5,0,0,0-.5-.5H24.42a10.47,10.47,0,0,0-1.11-2.68l2.34-2.36a.5.5,0,0,0,0-.7l-3.1-3.1a.5.5,0,0,0-.7,0L19.5,11.28a10.5,10.5,0,0,0-2.68-1.12V6.85a.5.5,0,0,0-.5-.5H11.94a.49.49,0,0,0-.36.15.5.5,0,0,0-.14.35v3.31a10.68,10.68,0,0,0-2.69,1.11L6.4,8.93a.5.5,0,0,0-.7,0L2.6,12a.51.51,0,0,0,0,.71L5,15.08a10.5,10.5,0,0,0-1.12,2.68H.52a.5.5,0,0,0-.5.5v4.38a.5.5,0,0,0,.5.5H3.83a10.77,10.77,0,0,0,1.11,2.68L2.6,28.18a.5.5,0,0,0,0,.7L5.7,32a.48.48,0,0,0,.7,0l2.35-2.34a10.47,10.47,0,0,0,2.68,1.11v3.31a.5.5,0,0,0,.5.5h4.37a.5.5,0,0,0,.5-.5V30.75a10.33,10.33,0,0,0,2.69-1.11L21.85,32a.49.49,0,0,0,.7,0l3.1-3.1a.5.5,0,0,0,0-.7Zm-1.1,5.09-2.28-2.27a.5.5,0,0,0-.62-.06,9.6,9.6,0,0,1-3.09,1.28.51.51,0,0,0-.4.49v3.2H12.44v-3.2a.5.5,0,0,0-.39-.49,9.58,9.58,0,0,1-3.1-1.29.49.49,0,0,0-.62.07L6.05,30.92,3.66,28.53l2.27-2.28A.51.51,0,0,0,6,25.63a9.23,9.23,0,0,1-1.29-3.09.49.49,0,0,0-.49-.39H1V18.77H4.23a.49.49,0,0,0,.48-.39A9.8,9.8,0,0,1,6,15.27a.49.49,0,0,0-.07-.62L3.66,12.38,6.05,10l2.28,2.27a.5.5,0,0,0,.62.07A9.62,9.62,0,0,1,12,11a.5.5,0,0,0,.4-.49V7.35h3.37v3.21a.52.52,0,0,0,.39.49,9.56,9.56,0,0,1,3.1,1.28.49.49,0,0,0,.62-.07L22.2,10l2.39,2.39-2.27,2.28a.51.51,0,0,0-.07.62,9.36,9.36,0,0,1,1.29,3.1.49.49,0,0,0,.49.39h3.2v3.38H24a.5.5,0,0,0-.48.4,9.75,9.75,0,0,1-1.29,3.09.49.49,0,0,0,.07.62l2.27,2.27Z" fill="#231f20"/><path d="M48.89,28.11a.51.51,0,0,0-.58-.39l-2.46.49a8.44,8.44,0,0,0-1.19-1.77l1.39-2.09a.5.5,0,0,0-.14-.7l-2.84-1.9a.51.51,0,0,0-.7.14L41,24a8.34,8.34,0,0,0-2.09-.42l-.5-2.46a.5.5,0,0,0-.58-.39l-3.36.67a.51.51,0,0,0-.32.21.56.56,0,0,0-.08.38l.49,2.46a8,8,0,0,0-1.77,1.18l-2.09-1.39a.5.5,0,0,0-.69.14L28.08,27.2a.48.48,0,0,0-.07.37.47.47,0,0,0,.21.32l2.09,1.39a8.51,8.51,0,0,0-.42,2.1l-2.46.49a.5.5,0,0,0-.39.59l.66,3.36a.51.51,0,0,0,.22.32.47.47,0,0,0,.37.07l2.46-.49a8,8,0,0,0,1.18,1.77l-1.39,2.09a.51.51,0,0,0,.14.7l2.85,1.9a.54.54,0,0,0,.37.08.52.52,0,0,0,.32-.22L35.62,40a8.25,8.25,0,0,0,2.09.42l.49,2.46a.51.51,0,0,0,.49.4h.1l3.36-.67a.49.49,0,0,0,.32-.21.51.51,0,0,0,.07-.38l-.49-2.45a8.78,8.78,0,0,0,1.78-1.19l2.09,1.39a.5.5,0,0,0,.69-.14l1.9-2.85a.49.49,0,0,0-.14-.69l-2.08-1.39a8.34,8.34,0,0,0,.42-2.09l2.46-.5a.5.5,0,0,0,.39-.59Zm-2.76,3.54a.5.5,0,0,0-.4.48,7.31,7.31,0,0,1-.51,2.53.49.49,0,0,0,.19.6l2,1.34-1.34,2-2-1.33a.49.49,0,0,0-.62.06,7.41,7.41,0,0,1-2.15,1.43.5.5,0,0,0-.28.56l.46,2.35-2.38.47-.47-2.35a.48.48,0,0,0-.48-.4,7.31,7.31,0,0,1-2.53-.51.39.39,0,0,0-.18,0,.51.51,0,0,0-.42.22l-1.33,2-2-1.35,1.33-2a.5.5,0,0,0,0-.62A7.24,7.24,0,0,1,31.49,35a.5.5,0,0,0-.55-.29l-2.35.47-.48-2.38,2.36-.47a.51.51,0,0,0,.4-.48,7.36,7.36,0,0,1,.51-2.53.52.52,0,0,0-.19-.6l-2-1.33,1.35-2,2,1.33a.5.5,0,0,0,.62,0,7.51,7.51,0,0,1,2.15-1.44.49.49,0,0,0,.29-.55l-.47-2.36,2.38-.47L38,24.13a.52.52,0,0,0,.48.41A7.4,7.4,0,0,1,41,25a.49.49,0,0,0,.59-.18l1.34-2,2,1.35-1.33,2a.49.49,0,0,0,.06.62A7.34,7.34,0,0,1,45.1,29a.5.5,0,0,0,.56.29L48,28.8l.47,2.38Z" fill="#231f20"/><path d="M41.12,28.92a4.17,4.17,0,1,0-2.62,7.42l.46,0a4.19,4.19,0,0,0,3.69-4.6A4.17,4.17,0,0,0,41.12,28.92ZM41,34.16A3.17,3.17,0,1,1,38.16,29l.35,0a3.13,3.13,0,0,1,2,.7,3.2,3.2,0,0,1,1.17,2.13A3.16,3.16,0,0,1,41,34.16Z" fill="#231f20"/></g><g id="a4e67d84-75fd-41b5-9010-0b82ddc6cc5b" data-name="LABELS"><text transform="translate(0.22 55.09)" font-size="6" fill="#231f20" font-family="Roboto-Regular, Roboto">mechanical-gears</text></g></svg>