<svg id="fcf1342e-bc60-4e45-bafb-bcff89c46c30" data-name="ICONS" xmlns="http://www.w3.org/2000/svg" viewBox="0 0 50 50"><path d="M48.73,36a.45.45,0,0,1,0-.11l0-9.41c-1.55-.31-3.11-.57-4.67-.77-3.39-.43-3.75-.61-3.87-.81L28.29,11.06l-8,10.49c-.07.17-.16.26-.64.19v0l-.08-.05c-.83-.13-2.65-.66-6.85-1.89l-2.46,2.79v1.43L8.14,25.42V25L3.43,30.32l0,10.79L15,42h.18a.37.37,0,0,1,.18,0l6.5-.91a.52.52,0,0,1,.3.06l6.06,1.63,4.38-.05h2.07l.12,0,9.64-.09h.09l4.23,0ZM11.23,21.78l3.92.9v1.84l-3.94-.63Zm-.05,5.94,4,.42V29.9l-4-.22Zm-3,1.41,2-1.12,0,1.79-2,.77Zm0,10.71V36.92l2.11-.1V40Zm5.35-6h-.05l-2.75.34a.5.5,0,0,0-.44.5v1.11L6.86,36l1.08-3.54,11.72.33V34.2l-6.12-.34ZM14,40.14V34.89l5.64.31v.64a.31.31,0,0,0,0,.1v3.42Zm5.66-10L16.15,30V28.24l3.52.37Zm0-4.89-3.52-.57V22.91l3.52.82Zm1-3.65,2.14-2.93V26L20.7,27.44V22.07Zm2.14,8v3.63l-2.16.34V31s0,0,0,0h0ZM26,40.87,20.7,39.43V34.6L26,33.78Zm0-8.1-2.16.33v-4s0-.06,0-.08L26,27.69Zm0-9h0l-2.15,1.48v-8l2.16-3Zm3.15,3.94,3.31-1.58,0,6.23-3.36.31Zm1.64,13.23-1.7,0,0-7.29,3.37-.31,0,7.56Zm1.9-18.42-2.6,1.41V17.25l5,5.2H32.93A.79.79,0,0,0,32.71,22.52Zm7.75,12.14v6.18l-6.93.07,0-7.6c1.14,0,2.3-.06,3.45,0s2.34.06,3.5.12Zm0-6.95v4.68c-1.15-.06-2.33-.11-3.49-.12s-2.31,0-3.47,0l0-6.44c1.16,0,2.32-.05,3.47,0a62.56,62.56,0,0,1,9.24.89l-5.27.48A.5.5,0,0,0,40.46,27.71Zm1,.46,5.51-.5v4.16l-5.51.51Zm1.81,12.64V35L47,34.77v6Z" fill="#fdd600"/><path d="M48,34.3s0,0,0-.07l0-7.11h0V24.31a.51.51,0,0,0-.4-.49c-1.69-.36-3.43-.65-5.14-.87-1.05-.13-2.1-.23-3.15-.31,0,0,0-.08-.05-.11L26.9,8.19A.43.43,0,0,0,26.51,8a.47.47,0,0,0-.38.19L17.82,19.05l-6.74-2-.17,0h0a.45.45,0,0,0-.23,0h0l-.07,0s-.08,0-.11.05h0a.1.1,0,0,0,0,.05l0,0L.8,28.05a.48.48,0,0,0-.12.33L.63,39.82a.51.51,0,0,0,.47.5l12.11.9h.37l6.53-.9L26.27,42h.14l2.19,0h0l2.24,0h2.27l8.76-.09h.94l4.68,0a.5.5,0,0,0,.49-.5Zm-1,6.47-3.72,0V35L47,34.77Zm-4.72,0h-.81v-5.7l.81-.05Zm-8.74.09,0-7.6c1.14,0,2.3-.06,3.45,0s2.34.06,3.5.12v7.45Zm-2.72,0-1.7,0,0-7.29,3.37-.31,0,7.56ZM27,41v-7.3l1.12,0,0,7.26ZM19.68,20.63l0,2.07-8.4-1.94V18.18ZM37,25.84a62.56,62.56,0,0,1,9.24.89l-5.27.48a.5.5,0,0,0-.46.5v4.68c-1.15-.06-2.33-.11-3.49-.12s-2.31,0-3.47,0l0-6.44C34.64,25.83,35.8,25.82,37,25.84Zm10,6-5.51.51V28.17l5.51-.5Zm-17.8-5.24v-1l3.3-1.77V25Zm-8.46,3.17v-1.1L26,25.15v1.37Zm-1,.38L16.15,30V28.24l3.52.37Zm-4.52-.24-4-.22,0-2,4,.42Zm4.51-2.29-8.49-.89,0-1.81,8.47,1.35Zm0-2.36-3.52-.57V22.91l3.52.82ZM10.18,28l0,1.79-2,.77V29.13Zm0,2.87v.62l-1.52,0Zm1-.2,8.53.47v.62l-8.53-.24ZM27,25.18l1.16.44v1.15L27,26.43Zm-11.87-.66-3.94-.63,0-2.11,3.92.9Zm-5,2.35L8.14,28V26.62l2.06-1.36ZM20.7,31s0,0,0,0h0l2.15-1.31v3.63l-2.16.34ZM23.84,29,26,27.69v5.08l-2.16.33v-4S23.84,29.05,23.84,29ZM27,27.47l1.15.34,0,4.9-1.12,0Zm2.15.24,3.31-1.58,0,6.23-3.36.31Zm-19-3.66L8.14,25.42V24.14l2.09-1.84Zm9.45,8.72V34.2l-6.12-.34h-.1l-2.75.34a.5.5,0,0,0-.44.5v1.11L6.86,36l1.08-3.54Zm-8.41,2.38L13,34.93v.26l0,5L11.25,40ZM14,34.89l5.64.31v.64a.31.31,0,0,0,0,.1v3.42L14,40.14Zm6.69-.29L26,33.78v7.09L20.7,39.43Zm20.76-.47v-.79L47,32.83v.94ZM37,24.84c-1.15,0-2.33,0-3.49,0V23.46a63.27,63.27,0,0,1,8.82.48c1.56.2,3.13.46,4.67.78v1.13A63.35,63.35,0,0,0,37,24.84Zm-4-2.38a.79.79,0,0,0-.22.06l-2.6,1.41V17.25l5,5.2Zm-3.82,2-.47.25L27,24.11V14l2.09,2.18ZM26,23.77h0l-2.15,1.48v-8l2.16-3ZM22.86,26,20.7,27.44V22.07l0-.47,2.14-2.93ZM10.24,21l-2.1,1.86V21.25l2.12-2.41Zm0,15.87V40l-2.11-.15V36.92ZM36.51,22.49,27,12.58V9.87l10.9,12.68C37.45,22.52,37,22.51,36.51,22.49ZM18.85,19.34,26,10v2.63L20.63,20l0,0s0,0,0-.05a.51.51,0,0,0-.26-.19l-1.4-.4ZM1.68,28.57l5.46-6.19v9.34s0,0,0,.07L5.7,36.37a.48.48,0,0,0,.08.45.49.49,0,0,0,.4.2h0L7.14,37v2.79l-5.5-.41Z" fill="#231f20"/></svg>