<svg id="b368935d-df75-4222-9878-d125efe0af68" data-name="ICONS" xmlns="http://www.w3.org/2000/svg" viewBox="0 0 50 50"><path d="M32.66,13l-20,22,.9.9a.5.5,0,0,1,0,.7l-3,3,1,.95,2.95-2.95a.51.51,0,0,1,.71,0l.89.9,22-20Zm-5.31,8.13-1.06-1.06,3-3,1.06,1.06Z" fill="#fdd600"/><path d="M44.37,3.06A8.27,8.27,0,0,0,30.25,8.91a8,8,0,0,0,.11,1.3L9.78,32.82a.5.5,0,0,0,0,.69l.88.88-2.95,3a.51.51,0,0,0,0,.71l.57.57L4.43,42.49a3.9,3.9,0,0,0,0,5.59,3.83,3.83,0,0,0,2.63,1A3.92,3.92,0,0,0,9.87,48L21.42,36.4a2.37,2.37,0,0,1,1.75-.76,1.81,1.81,0,0,1,1.34.61A2.09,2.09,0,0,1,24,39l-5.23,5.24a.5.5,0,0,0,0,.7.5.5,0,0,0,.71,0l5.2-5.2a3.07,3.07,0,0,0,.62-4.11,2.73,2.73,0,0,0-2.08-1,3.25,3.25,0,0,0-2.51,1.07L9.16,47.24a2.88,2.88,0,0,1-4,.11,2.82,2.82,0,0,1-.88-2,2.89,2.89,0,0,1,.87-2.12L9,39.33l.38.38a.52.52,0,0,0,.35.14.54.54,0,0,0,.36-.14l2.94-3,.88.88a.54.54,0,0,0,.36.14.46.46,0,0,0,.33-.13L37.23,17.08a9.36,9.36,0,0,0,1.29.11A8.27,8.27,0,0,0,44.37,3.06Zm-.7.71A7.26,7.26,0,0,1,44,13.69L33.75,3.43a7.27,7.27,0,0,1,9.92.34ZM14.29,36.59l-3.45-3.45,20-22,5.43,5.43ZM9.74,38.65l-1-.95,2.6-2.6.95.95Zm27.37-22.6-5.73-5.73A7.34,7.34,0,0,1,33,4.14L43.3,14.39A7.29,7.29,0,0,1,37.11,16.05Z" fill="#231f20"/><path d="M29.66,16A.5.5,0,0,0,29,16l-3.72,3.72a.53.53,0,0,0-.15.36.51.51,0,0,0,.15.35L27,22.21a.51.51,0,0,0,.7,0l3.73-3.73a.51.51,0,0,0,0-.7Zm-2.31,5.14-1.06-1.06,3-3,1.06,1.06Z" fill="#231f20"/></svg>