<svg xmlns="http://www.w3.org/2000/svg" viewBox="0 0 50 50"><g id="fe7b6c7f-0cd5-4238-8516-2d1401ec6ad4" data-name="ICONS"><path d="M8.08,24.19l-4.23,0a18.92,18.92,0,0,0,10.88,17,.51.51,0,0,1,.28.45V47.3H36.86V41.4a.5.5,0,0,1,.27-.43A19.06,19.06,0,0,0,47.61,24.11c-2.2,0-11.22.12-21.88.12C18.56,24.23,12.17,24.21,8.08,24.19Z" fill="#fdd600"/><path d="M47.29,14.59a6.75,6.75,0,1,0-11.88-4.54L25.65,21.48H24c-7.17,0-13.55,0-17.65,0l-4.73,0h0a.47.47,0,0,0-.35.15.51.51,0,0,0-.15.35A19.91,19.91,0,0,0,12.26,40.19v5.86a.5.5,0,0,0,.5.5H35.61a.51.51,0,0,0,.5-.5V40A20,20,0,0,0,46.87,21.86a.5.5,0,0,0-.51-.5c-.06,0-3.11,0-7.86.07l4.11-4.5A6.65,6.65,0,0,0,47.29,14.59Zm-34,31V40.2H35.11v5.35ZM35.41,39.2H12.71a.35.35,0,0,0-.11,0A18.89,18.89,0,0,1,2.1,22.42l4.23,0h0c4.09,0,10.48,0,17.65,0,10.66,0,19.68-.09,21.88-.12A19,19,0,0,1,35.41,39.2ZM42,16.1l-4.88,5.34L27,21.48l9.33-10.92a.45.45,0,0,0,.12-.33,5.75,5.75,0,1,1,10.12,3.71,5.6,5.6,0,0,1-4.16,2A.53.53,0,0,0,42,16.1Z" fill="#231f20"/></g><g id="ef5d4686-6797-4d66-b60e-4b93c978235f" data-name="LABELS"><text transform="translate(0 54.84)" font-size="6" fill="#231f20" font-family="Roboto-Regular, Roboto">mo<tspan x="8.68" y="0" letter-spacing="0.02em">r</tspan><tspan x="10.86" y="0">tar-pestel</tspan></text></g></svg>