<svg xmlns="http://www.w3.org/2000/svg" viewBox="0 0 50 50"><g id="fe0c3814-321e-4c6a-ba7a-c03192ab6220" data-name="ICONS"><circle cx="15.39" cy="5.08" r="1.86" fill="#fdd600"/><circle cx="11.51" cy="18.29" r="1.77" fill="#fdd600"/><path d="M23.54,6.37A1.58,1.58,0,1,0,22,4.79,1.58,1.58,0,0,0,23.54,6.37Z" fill="#fdd600"/><path d="M33.72,26.23l-.08,0H22.17a7.4,7.4,0,0,0-7,7.39l0,15.89h6.14l13.39,0h6.08l0-15.9A7.41,7.41,0,0,0,33.72,26.23Z" fill="#fdd600"/><path d="M41.24,13.31A1.77,1.77,0,1,0,43,15.08,1.77,1.77,0,0,0,41.24,13.31Z" fill="#fdd600"/><path d="M13.63,6.18a2.86,2.86,0,1,0-2.85-2.85A2.86,2.86,0,0,0,13.63,6.18Zm0-4.71a1.86,1.86,0,1,1-1.85,1.86A1.86,1.86,0,0,1,13.63,1.47Z" fill="#231f20"/><path d="M39.49,10.56a2.77,2.77,0,1,0,2.77,2.77A2.77,2.77,0,0,0,39.49,10.56Zm0,4.54a1.77,1.77,0,1,1,1.77-1.77A1.77,1.77,0,0,1,39.49,15.1Z" fill="#231f20"/><path d="M21.79,5.62A2.58,2.58,0,1,0,19.21,3,2.59,2.59,0,0,0,21.79,5.62Zm0-4.16A1.58,1.58,0,1,1,20.21,3,1.58,1.58,0,0,1,21.79,1.46Z" fill="#231f20"/><path d="M9.76,13.76a2.78,2.78,0,1,0,2.77,2.78A2.78,2.78,0,0,0,9.76,13.76Zm0,4.55a1.78,1.78,0,1,1,1.77-1.77A1.77,1.77,0,0,1,9.76,18.31Z" fill="#231f20"/><path d="M32.19,23.5a.58.58,0,0,0-.19,0H20.37a8.4,8.4,0,0,0-8,8.38l0,16.4a.51.51,0,0,0,.5.5l26.62,0h0a.51.51,0,0,0,.5-.5L40,31.9A8.4,8.4,0,0,0,32.19,23.5ZM39,47.79H33.88l0-14.32a.5.5,0,0,0-.5-.5h0a.5.5,0,0,0-.5.5l0,14.32-13.39,0,0-14.32a.51.51,0,0,0-.5-.5h0a.5.5,0,0,0-.5.5l0,14.32H13.35l0-15.89a7.4,7.4,0,0,1,7-7.39H31.89l.08,0a7.41,7.41,0,0,1,7,7.42Z" fill="#231f20"/><path d="M26.17,22.48a8.43,8.43,0,1,0-8.43-8.42A8.43,8.43,0,0,0,26.17,22.48Zm0-15.85a7.43,7.43,0,1,1-7.43,7.43A7.43,7.43,0,0,1,26.17,6.63Z" fill="#231f20"/></g><g id="fa5353b8-8f72-4840-bdbc-48fee0a66591" data-name="LABELS"><text transform="translate(0.22 54.81)" font-size="6" fill="#231f20" font-family="Roboto-Regular, Roboto">nausea</text></g></svg>