<svg xmlns="http://www.w3.org/2000/svg" viewBox="0 0 50 50"><g id="f92d7b93-1394-4fec-ba52-be95642f8dce" data-name="ICONS"><path d="M23.86,22.82c-.71.23-1,.75-1.63,1.71-.25.4-.54.86-.91,1.37A17.74,17.74,0,0,1,18.48,29c4.78.27,8.38-.75,9-2.57a3.12,3.12,0,0,0-.65-2.78A3,3,0,0,0,23.86,22.82Z" fill="none"/><path d="M35.07,40.62c-2.21-.75-5-1.69-5.8-4.08-1-2.84,1.47-5.57,4.08-8.45,2.45-2.71,5.19-5.74,5.65-9.36A12,12,0,0,0,38.5,15c-1.09,1-2.13,1.91-3.11,2.73-.46.39-.94.79-1.43,1.18s-1.19.94-1.77,1.38a25.44,25.44,0,0,1-4.51,2.91l-.15-.2-.22-.21a26,26,0,0,1,3.28-4.23c.45-.5.91-1,1.4-1.51s1-1,1.43-1.47c1-1,2-2,3.24-3.1l.43-.39a18.64,18.64,0,0,0-6-5,15.52,15.52,0,0,0-7.19-1.7A21.9,21.9,0,0,0,7.73,13.16a21.24,21.24,0,0,0-1.11,24.9c5.6,8.3,15.34,9.06,18.19,9.1,5.35,0,10.88-1.86,12.7-3.69a1.7,1.7,0,0,0,.59-1.09C38.08,41.64,36.62,41.14,35.07,40.62ZM23.2,8.71a4.59,4.59,0,0,1,1-.12,4.31,4.31,0,0,1,4.17,3.28,4.21,4.21,0,0,1-.5,3.25A4.29,4.29,0,0,1,22,16.57a4.25,4.25,0,0,1-1.95-2.66A4.31,4.31,0,0,1,23.2,8.71ZM11.31,35.25A3.22,3.22,0,0,1,9.77,29a3.44,3.44,0,0,1,.77-.09,3.22,3.22,0,0,1,.77,6.35Zm.54-12.42a3.71,3.71,0,0,1-4.47-2.72,3.71,3.71,0,0,1,2.71-4.47,3.83,3.83,0,0,1,.88-.1,3.7,3.7,0,0,1,.88,7.29ZM22,41.44a2.56,2.56,0,0,1-2-.3,2.59,2.59,0,0,1-.87-3.57,2.55,2.55,0,0,1,1.6-1.18,2.7,2.7,0,0,1,.62-.08A2.6,2.6,0,0,1,22,41.44Zm5.49-15c-.58,1.82-4.18,2.84-9,2.57a17.74,17.74,0,0,0,2.84-3.12c.37-.51.66-1,.91-1.37.59-1,.92-1.48,1.63-1.71a3,3,0,0,1,2.93.85A3.12,3.12,0,0,1,27.44,26.45Z" fill="#fdd600"/><path d="M9.86,14.67A4.73,4.73,0,0,0,7,16.8a4.71,4.71,0,0,0,1.58,6.45,4.7,4.7,0,0,0,2.43.68,4.84,4.84,0,0,0,1.13-.13A4.71,4.71,0,0,0,15,21.67a4.65,4.65,0,0,0,.54-3.55A4.7,4.7,0,0,0,9.86,14.67Zm2,8.16a3.71,3.71,0,0,1-4.47-2.72,3.71,3.71,0,0,1,2.71-4.47,3.83,3.83,0,0,1,.88-.1,3.7,3.7,0,0,1,.88,7.29Z" fill="#231f20"/><path d="M9.54,28a4.21,4.21,0,0,0-3.1,5.1,4.24,4.24,0,0,0,4.09,3.23,3.83,3.83,0,0,0,1-.13,4.22,4.22,0,0,0-2-8.2Zm1.77,7.23A3.22,3.22,0,0,1,9.77,29a3.44,3.44,0,0,1,.77-.09,3.22,3.22,0,0,1,.77,6.35Z" fill="#231f20"/><path d="M24.83,38.06a3.6,3.6,0,0,0-6.58-1,3.56,3.56,0,0,0-.42,2.72,3.62,3.62,0,0,0,3.5,2.75,3.69,3.69,0,0,0,.86-.11,3.61,3.61,0,0,0,2.64-4.35ZM22,41.44a2.56,2.56,0,0,1-2-.3,2.59,2.59,0,0,1-.87-3.57,2.55,2.55,0,0,1,1.6-1.18,2.7,2.7,0,0,1,.62-.08A2.6,2.6,0,0,1,22,41.44Z" fill="#231f20"/><path d="M29.37,11.63a5.29,5.29,0,1,0-5.15,6.56A5.57,5.57,0,0,0,25.49,18a5.29,5.29,0,0,0,3.88-6.41ZM27.9,15.12A4.29,4.29,0,0,1,22,16.57a4.25,4.25,0,0,1-1.95-2.66,4.31,4.31,0,0,1,3.15-5.2,4.59,4.59,0,0,1,1-.12,4.31,4.31,0,0,1,4.17,3.28A4.21,4.21,0,0,1,27.9,15.12Z" fill="#231f20"/><path d="M49.15,3.12c-.43-.47-1.34-.61-4.88,1.84A78,78,0,0,0,37,10.86a19.1,19.1,0,0,0-6.91-6.21C21.55.26,10.87,4.45,5.46,11A22.25,22.25,0,0,0,4.29,37.12c5.87,8.7,16,9.5,19,9.54h.27c5.1,0,11-1.77,13.15-4a2.58,2.58,0,0,0,.88-1.81c0-1.44-1.74-2-3.71-2.69s-4.5-1.53-5.18-3.46c-.8-2.28,1.37-4.68,3.88-7.45,2.79-3.08,5.93-6.56,6-11l.88-.79a83.76,83.76,0,0,0,7.47-7.67C49.65,4.52,49.58,3.59,49.15,3.12ZM31.85,26.59c-2.61,2.88-5.08,5.61-4.08,8.45.84,2.39,3.59,3.33,5.8,4.08,1.55.52,3,1,3,1.76A1.7,1.7,0,0,1,36,42c-1.82,1.83-7.35,3.73-12.7,3.69-2.85,0-12.59-.8-18.19-9.1a21.24,21.24,0,0,1,1.11-24.9A21.9,21.9,0,0,1,22.4,3.84a15.52,15.52,0,0,1,7.19,1.7,17.8,17.8,0,0,1,6.63,6l-.23.21c-.94.86-7.66,7.09-9.46,10.49a3.82,3.82,0,0,0-3-.36C22.49,22.21,22,23,21.38,24c-.24.39-.52.83-.87,1.32A17.58,17.58,0,0,1,16.9,29a.51.51,0,0,0-.18.53.5.5,0,0,0,.44.36,28,28,0,0,0,2.82.15c4.55,0,7.75-1.22,8.41-3.32A4,4,0,0,0,28.18,24c2.55-1.08,6.8-4.6,9.32-6.8C37,20.85,34.3,23.88,31.85,26.59ZM27.53,23l-.22-.21a26,26,0,0,1,3.28-4.23l1.6,1.73a25.44,25.44,0,0,1-4.51,2.91Zm-.09,3.45c-.58,1.82-4.18,2.84-9,2.57a17.74,17.74,0,0,0,2.84-3.12c.37-.51.66-1,.91-1.37.59-1,.92-1.48,1.63-1.71a3,3,0,0,1,2.93.85A3.12,3.12,0,0,1,27.44,26.45Zm3.83-8.63c.45-.49.93-1,1.45-1.53l1.9,2.08c-.57.47-1.11.91-1.64,1.31Zm7.49-3.05c-1.18,1.09-2.31,2.07-3.37,3l-2-2.15c1-1,2-2,3.24-3.1,6.09-5.59,10.63-8.55,11.71-8.64C48.19,4.91,44.85,9.18,38.76,14.77Z" fill="#231f20"/></g><g id="ea7c7375-146d-4c15-ae10-6a2d43af1da5" data-name="LABELS"><text transform="translate(-0.1 54.73)" font-size="6" fill="#231f20" font-family="Roboto-Regular, Roboto">paintbrush-paint</text></g></svg>