<svg id="e7538ec0-88fc-4b10-9ac7-6e6a952822c7" data-name="ICONS" xmlns="http://www.w3.org/2000/svg" viewBox="0 0 50 50"><path d="M42.34,13.82l-13.12-.06h-.87l0-12H7.63V48.27H42.37Z" fill="#fdd600"/><path d="M43.38,14.7a.17.17,0,0,0,0-.07.48.48,0,0,0-.12-.22L29.68.84a.59.59,0,0,0-.22-.12H7.1a.5.5,0,0,0-.5.5V48.8a.5.5,0,0,0,.5.5H42.9a.5.5,0,0,0,.5-.5v-34A.14.14,0,0,0,43.38,14.7ZM7.6,48.3V1.7H28.83V14.76a.5.5,0,0,0,.5.5H42.4v33Zm22.23-34V2.4L41.69,14.26Z" fill="#231f20"/><path d="M12.53,10.23H25a.5.5,0,0,0,.5-.5.5.5,0,0,0-.5-.5H12.53a.5.5,0,0,0-.5.5A.51.51,0,0,0,12.53,10.23Z" fill="#231f20"/><path d="M37,20.25H12.53a.51.51,0,0,0-.5.5.5.5,0,0,0,.5.5H37a.5.5,0,0,0,.5-.5A.51.51,0,0,0,37,20.25Z" fill="#231f20"/><path d="M37,25.72H12.53a.51.51,0,0,0-.5.5.5.5,0,0,0,.5.5H37a.5.5,0,0,0,.5-.5A.51.51,0,0,0,37,25.72Z" fill="#231f20"/><path d="M27.88,41.61H12.53a.51.51,0,0,0-.5.5.5.5,0,0,0,.5.5H27.88a.5.5,0,0,0,.5-.5A.5.5,0,0,0,27.88,41.61Z" fill="#231f20"/><path d="M34.9,31.2H12.53a.5.5,0,0,0-.5.5.51.51,0,0,0,.5.5H34.9a.5.5,0,0,0,.5-.5A.5.5,0,0,0,34.9,31.2Z" fill="#231f20"/></svg>