<svg id="ad24bf2c-0a0f-471a-88aa-45f1f058b82a" data-name="ICONS" xmlns="http://www.w3.org/2000/svg" viewBox="0 0 50 50"><path d="M15.57,16.5a9,9,0,1,0-3.18-6.84A9,9,0,0,0,15.57,16.5ZM29.32,9.66a8,8,0,1,1-8-8A8,8,0,0,1,29.32,9.66Z" fill="#231f20"/><rect x="34.55" y="30.53" width="1.91" height="7.13" fill="#fdd600"/><path d="M35.51,29.68a1,1,0,0,0,.77-.28,1,1,0,0,0,0-1.41,1.07,1.07,0,0,0-.78-.28,1.05,1.05,0,0,0-.78.28,1,1,0,0,0,0,1.41A1,1,0,0,0,35.51,29.68Z" fill="#fdd600"/><path d="M27.83,32.69A7.68,7.68,0,0,1,34.9,25a8.36,8.36,0,0,0-5.17-2.2.46.46,0,0,1-.26,0H16.57a8.44,8.44,0,0,0-8,8.44v18h29.1V40.06a7.67,7.67,0,0,1-9.83-7.37Z" fill="#fdd600"/><path d="M44.19,32.69A8.69,8.69,0,0,0,35.51,24l-.34,0a9.44,9.44,0,0,0-7.25-4H14.79a9.44,9.44,0,0,0-9,9.43V48a.5.5,0,0,0,.5.5h30.1a.5.5,0,0,0,.5-.5V41.25A8.7,8.7,0,0,0,44.19,32.69ZM6.81,29.46a8.44,8.44,0,0,1,8-8.43H27.71A.61.61,0,0,0,28,21a8.45,8.45,0,0,1,6,3.11,8.66,8.66,0,0,0-5,14.31v9H13.76V31.24a.5.5,0,0,0-.5-.5.5.5,0,0,0-.5.5V47.5H6.81ZM30,47.5V39.42a8.61,8.61,0,0,0,5.47,1.95l.4,0V47.5Zm5.47-7.13a7.69,7.69,0,1,1,7.68-7.68A7.69,7.69,0,0,1,35.51,40.37Z" fill="#231f20"/><path d="M35.51,27.71a1.05,1.05,0,0,0-.78.28,1,1,0,0,0,0,1.41,1.2,1.2,0,0,0,1.54,0,1,1,0,0,0,0-1.41A1.07,1.07,0,0,0,35.51,27.71Z" fill="#231f20"/><rect x="34.55" y="30.53" width="1.91" height="7.13" fill="#231f20"/></svg>