<svg id="eba39e28-16d5-4355-a705-2a58a1dd0c40" data-name="ICONS" xmlns="http://www.w3.org/2000/svg" viewBox="0 0 50 50"><path d="M16.08,23.83a12.59,12.59,0,1,0-4.47-9.62A12.61,12.61,0,0,0,16.08,23.83ZM24.21,2.62a11.59,11.59,0,1,1-11.6,11.59A11.6,11.6,0,0,1,24.21,2.62Z" fill="#231f20"/><path d="M34.77,31.56H17.12a11.58,11.58,0,0,0-11,11.58v6h39.7v-6A11.59,11.59,0,0,0,34.77,31.56Z" fill="#fdd600"/><path d="M33.05,28.81H15.34a12.59,12.59,0,0,0-12,12.58v6.49a.5.5,0,0,0,.5.5h40.7a.5.5,0,0,0,.5-.5V41.39A12.6,12.6,0,0,0,33.05,28.81Zm11,18.57H4.36v-6a11.58,11.58,0,0,1,11-11.58H33a11.59,11.59,0,0,1,11,11.58Z" fill="#231f20"/></svg>