<svg xmlns="http://www.w3.org/2000/svg" viewBox="0 0 50 50"><g id="bc47468a-9d70-42d3-bc26-bd19efcb161d" data-name="ICONS"><path d="M26.58,9.78h-.15a156.81,156.81,0,0,0-18,1.06L18.79,32.47l0-.06.17-.24a3.32,3.32,0,0,1,.25-.27l.2-.21.29-.23a1.84,1.84,0,0,1,.22-.17,3.54,3.54,0,0,1,.33-.19,1.34,1.34,0,0,1,.23-.13,2.87,2.87,0,0,1,.37-.15,2.34,2.34,0,0,1,.24-.09,3.34,3.34,0,0,1,.43-.1l.21-.05a5.06,5.06,0,0,1,.68,0,4.44,4.44,0,0,1,3.78,2.12,4.09,4.09,0,0,1,1.08,2.83c-.12,2.32-2.51,3.77-3.64,4.46a10.06,10.06,0,0,1-1,.52l3.82,8.16,9.91-20.75c-.06,0,4.77-10.16,4.83-10.12l3.3-6.9A156.52,156.52,0,0,0,26.58,9.78ZM16.8,18.34a2.62,2.62,0,1,1,2.62-2.62A2.62,2.62,0,0,1,16.8,18.34ZM30.41,29.21v0s0,.06,0,.08A.43.43,0,0,1,30.41,29.21Zm4.95-3.78-.26-.07-.34-.11-.4-.19-.31-.17-.37-.25-.26-.21a3.22,3.22,0,0,1-.32-.32,2.73,2.73,0,0,1-.23-.25,2.45,2.45,0,0,1-.26-.37c-.06-.09-.13-.18-.18-.27s-.14-.29-.21-.43-.09-.19-.12-.29A4.25,4.25,0,0,1,32,22c0-.09-.05-.17-.07-.26a4.36,4.36,0,0,1-.07-.81,4.7,4.7,0,0,1,4.69-4.7,4.15,4.15,0,0,1,.79.08,2.44,2.44,0,0,1,.26.06,4.84,4.84,0,0,1,.51.14l.28.13a3.55,3.55,0,0,1,.44.21l.28.18.23.17Z" fill="#fdd600"/><path d="M16.8,12.11a3.62,3.62,0,1,0,3.62,3.61A3.61,3.61,0,0,0,16.8,12.11Zm0,6.23a2.62,2.62,0,1,1,2.62-2.62A2.62,2.62,0,0,1,16.8,18.34Z" fill="#231f20"/><circle cx="20.98" cy="23.55" r="0.61" fill="#231f20"/><path d="M30.21,10.7a.85.85,0,1,0,.85.85A.85.85,0,0,0,30.21,10.7Z" fill="#231f20"/><circle cx="29.75" cy="27.71" r="0.84" fill="#231f20"/><path d="M10.07,9.93a.58.58,0,1,0,.58.58A.58.58,0,0,0,10.07,9.93Z" fill="#231f20"/><path d="M30.41,29.21a.43.43,0,0,0,0,.05s0-.05,0-.08Z" fill="none"/><path d="M44.19,2.89a111.54,111.54,0,0,0-38.52,0A3.41,3.41,0,0,0,3.05,5.8,3.45,3.45,0,0,0,5.66,9.45l.13,0H5.9l11.46,24,3.09,6.46,4.1,8.58a.49.49,0,0,0,.9,0L36.08,26.24l4.3-9,3.71-7.79h.11A3.38,3.38,0,0,0,47,6.39,3.4,3.4,0,0,0,44.19,2.89ZM21.25,39.27l-2.88-6a2.72,2.72,0,0,1,.11-.25l.14-.27.21-.3.17-.24a3.32,3.32,0,0,1,.25-.27l.2-.21.29-.23a1.84,1.84,0,0,1,.22-.17,3.54,3.54,0,0,1,.33-.19,1.34,1.34,0,0,1,.23-.13,2.87,2.87,0,0,1,.37-.15,2.34,2.34,0,0,1,.24-.09,3.34,3.34,0,0,1,.43-.1l.21-.05a5.06,5.06,0,0,1,.68,0,4.47,4.47,0,1,1,0,8.94,3.36,3.36,0,0,1-.63-.06l-.21,0A2.37,2.37,0,0,1,21.25,39.27ZM35.36,25.43l-.26-.07-.34-.11-.4-.19-.31-.17-.37-.25-.26-.21a3.22,3.22,0,0,1-.32-.32,2.73,2.73,0,0,1-.23-.25,2.45,2.45,0,0,1-.26-.37c-.06-.09-.13-.18-.18-.27s-.14-.29-.21-.43-.09-.19-.12-.29A4.25,4.25,0,0,1,32,22c0-.09-.05-.17-.07-.26a4.36,4.36,0,0,1-.07-.81,4.7,4.7,0,0,1,4.69-4.7,4.15,4.15,0,0,1,.79.08,2.44,2.44,0,0,1,.26.06,4.84,4.84,0,0,1,.51.14l.28.13a3.55,3.55,0,0,1,.44.21l.28.18.23.17Zm4.38-9.18-.19-.11L39.24,16c-.18-.1-.36-.18-.54-.26l-.33-.14c-.21-.07-.41-.12-.62-.17l-.3-.07a5.87,5.87,0,0,0-.94-.09,5.7,5.7,0,0,0-5.69,5.7,6.14,6.14,0,0,0,.08,1c0,.11.06.21.08.32a6.09,6.09,0,0,0,.17.61c0,.12.1.23.15.35s.15.35.24.51.15.23.22.34.2.3.31.44l.27.3a4.54,4.54,0,0,0,.38.38l.32.26a4.15,4.15,0,0,0,.43.3l.37.22c.15.08.32.15.48.22l.4.16.19.07L25,47.12l-3.2-6.7a4.74,4.74,0,0,0,.65,0,5.47,5.47,0,1,0,0-10.94,4.93,4.93,0,0,0-.78.06l-.25.05-.51.11-.27.09-.45.18-.25.12c-.15.08-.29.17-.43.26l-.22.13c-.17.13-.33.26-.48.4l-.1.08a5.47,5.47,0,0,0-.51.56l-.13.18c-.08.11-.17.22-.25.34L7,9.34a156.81,156.81,0,0,1,18-1.06h.15A156.52,156.52,0,0,1,43,9.35Zm4.34-7.79a156.82,156.82,0,0,0-19-1.18h-.15A156.69,156.69,0,0,0,5.83,8.46,2.45,2.45,0,0,1,4,5.91a2.42,2.42,0,0,1,1.83-2A110.34,110.34,0,0,1,44,3.88a2.37,2.37,0,0,1,2,2.44A2.39,2.39,0,0,1,44.08,8.46Z" fill="#231f20"/></g><g id="a767d4c0-e708-43a8-b1ec-494547bf3af1" data-name="LABELS"><text transform="translate(0 54.94)" font-size="6" fill="#231f20" font-family="Roboto-Regular, Roboto">pizza</text></g></svg>