<svg id="ad06e016-36ac-4d2c-aef6-8b2727ebf3ea" data-name="ICONS" xmlns="http://www.w3.org/2000/svg" viewBox="0 0 50 50"><path d="M35,22.16,22.61,39.56l4-13.93a.53.53,0,0,0-.08-.44.51.51,0,0,0-.4-.2H17.83l7.11-11.36h6.32l-4.94,7.76a.52.52,0,0,0,0,.51.49.49,0,0,0,.44.26Z" fill="#fdd600"/><path d="M49.54,15.12a.49.49,0,0,1,.22.67L47,21.13a.55.55,0,0,1-.31.25l-.14,0a.59.59,0,0,1-.26-.07l-5.12-3.14a.5.5,0,1,1,.52-.85l4.12,2.52A21.44,21.44,0,0,0,3.93,21a.49.49,0,0,1-.49.41H3.35a.5.5,0,0,1-.4-.58,22.43,22.43,0,0,1,43.79-1.35l2.13-4.13A.5.5,0,0,1,49.54,15.12Z" fill="#231f20"/><path d="M46.65,28.61a.5.5,0,0,1,.4.58A22.43,22.43,0,0,1,3.26,30.54L1.13,34.67a.5.5,0,0,1-.45.27.46.46,0,0,1-.22-.06.49.49,0,0,1-.22-.67L3,28.87a.55.55,0,0,1,.31-.25.51.51,0,0,1,.4.05l5.12,3.14A.5.5,0,0,1,9,32.5a.51.51,0,0,1-.69.16L4.18,30.14A21.44,21.44,0,0,0,46.07,29,.5.5,0,0,1,46.65,28.61Z" fill="#231f20"/><path d="M35.12,20.35a.49.49,0,0,1,0,.52L20.48,41.43a.49.49,0,0,1-.41.21.44.44,0,0,1-.22,0,.49.49,0,0,1-.26-.59L24.2,24.91H15.68a.5.5,0,0,1-.44-.26.52.52,0,0,1,0-.51L23,11.79a.49.49,0,0,1,.42-.24h7.51a.51.51,0,0,1,.44.26.49.49,0,0,1,0,.51l-4.93,7.76h8.27A.5.5,0,0,1,35.12,20.35ZM21.36,38.47,33.71,21.08H25.5a.49.49,0,0,1-.44-.26.52.52,0,0,1,0-.51L30,12.55H23.69L16.58,23.91h8.29a.51.51,0,0,1,.4.2.53.53,0,0,1,.08.44Z" fill="#231f20"/></svg>