<svg id="a9274998-8bc6-4e18-a446-4bfc6ea57c12" data-name="ICONS" xmlns="http://www.w3.org/2000/svg" viewBox="0 0 50 50"><polygon points="44.02 22.56 33.58 22.56 32.84 27.45 45.05 27.45 44.02 22.56" fill="#fdd600"/><polygon points="25.15 20.37 14.72 20.37 13.97 25.27 26.19 25.27 25.15 20.37" fill="#fdd600"/><polygon points="23.21 12.1 16.79 12.1 16.37 14.9 23.8 14.9 23.21 12.1" fill="#fdd600"/><path d="M10.7,33.64a.57.57,0,1,0,0,1.13.57.57,0,1,0,0-1.13Z" fill="#231f20"/><path d="M41.1,31l-3.28,8.22a.5.5,0,0,1-.47.31H24.16a.48.48,0,0,1-.44-.27L19.59,31H6.08L10.6,47.09H44.54L49.29,31Z" fill="#fdd600"/><polygon points="42.07 15.27 35.65 15.29 35.23 18.06 42.66 18.06 42.07 15.27" fill="#fdd600"/><polygon points="41.07 9.06 36.71 9.06 36.45 10.78 41.44 10.78 41.07 9.06" fill="#fdd600"/><path d="M48.61,28.47a.51.51,0,0,0-.41-.2H39a.49.49,0,0,0-.46.31l-.84,2.09v-4h6.21a.52.52,0,0,0,.39-.18.53.53,0,0,0,.1-.42l-1.25-5.9a.49.49,0,0,0-.49-.39h-5v-2.5h3.82a.48.48,0,0,0,.39-.18.49.49,0,0,0,.1-.42l-.8-3.79a.5.5,0,0,0-.49-.4h-3V10H40.3a.51.51,0,0,0,.49-.61l-.57-2.71a.51.51,0,0,0-.49-.4h-2V3.41a.5.5,0,0,0-.5-.5.5.5,0,0,0-.5.5v2.9H34.53a.5.5,0,0,0-.49.43l-.41,2.71a.51.51,0,0,0,.11.4.53.53,0,0,0,.38.18h2.59v2.49H33.47a.49.49,0,0,0-.49.42l-.58,3.8a.49.49,0,0,0,.12.4.49.49,0,0,0,.38.17h3.81v2.5H31.4a.51.51,0,0,0-.5.42L30,26.13a.49.49,0,0,0,.12.4.49.49,0,0,0,.38.17h6.2v6.46L35.26,36.8H22.72l-3.87-7.74V24.52h6.21a.51.51,0,0,0,.39-.19.53.53,0,0,0,.1-.42L24.3,18a.49.49,0,0,0-.49-.4h-5V14.15h3.82a.5.5,0,0,0,.49-.6l-.81-3.8a.49.49,0,0,0-.49-.4h-3V3.41a.5.5,0,0,0-.5-.5.5.5,0,0,0-.5.5V9.35H14.61a.51.51,0,0,0-.5.43l-.57,3.79a.5.5,0,0,0,.12.41.48.48,0,0,0,.37.17h3.82v3.47H12.54A.51.51,0,0,0,12,18l-.89,5.9a.48.48,0,0,0,.12.4.49.49,0,0,0,.37.18h6.21v3.75H3.75l-2.38-.8a.51.51,0,0,0-.63.32.49.49,0,0,0,.32.63l2.2.74L8,46a.5.5,0,0,0,.48.36h34.7a.51.51,0,0,0,.48-.36l5-17.07A.49.49,0,0,0,48.61,28.47ZM34.7,9,35,7.31h4.36L39.69,9Zm-1.22,7.28.42-2.78h6.42l.59,2.79ZM31.09,25.7l.74-4.89H42.27l1,4.89ZM14.62,13.15l.42-2.8h6.42l.59,2.8ZM12.23,23.52l.74-4.9H23.4l1,4.9ZM42.79,45.34H8.85L4.33,29.27H17.84L22,37.53a.48.48,0,0,0,.44.27H35.6a.5.5,0,0,0,.47-.31l3.28-8.22h8.19Z" fill="#231f20"/><path d="M10.7,32.64a1.57,1.57,0,1,0,1.57,1.56A1.56,1.56,0,0,0,10.7,32.64Zm0,2.13a.57.57,0,1,1,.57-.57A.57.57,0,0,1,10.7,34.77Z" fill="#231f20"/><path d="M41.72,35.77a1.57,1.57,0,1,0-1.57-1.57A1.57,1.57,0,0,0,41.72,35.77Zm0-2.13a.57.57,0,1,1-.57.56A.57.57,0,0,1,41.72,33.64Z" fill="#231f20"/><path d="M16,32.64a1.57,1.57,0,1,0,1.57,1.56A1.56,1.56,0,0,0,16,32.64Zm0,2.13a.57.57,0,1,1,.57-.57A.57.57,0,0,1,16,34.77Z" fill="#231f20"/></svg>