<svg xmlns="http://www.w3.org/2000/svg" viewBox="0 0 50 50"><g id="f1dcc35a-d0ff-470c-b310-8ba280075c1f" data-name="ICONS"><path d="M15.34,19.94l.37.24c.13.09.25.2.37.29l.29.23.1.1c.05-.36.05-.58,0-.61L16,20l-.4-.15-.47-.15-.34-.09.25.13C15.12,19.79,15.23,19.87,15.34,19.94Z" fill="none"/><path d="M36.28,6.12A18.22,18.22,0,0,0,13.55,18.21a7.51,7.51,0,0,0-.21.78l.14,0,.37.14.42.17.33.18a.8.8,0,0,1,.16.08l.34.09.47.15L16,20l.47.2c.08,0,.08.25,0,.61.17.16.34.32.5.49a8.59,8.59,0,0,1,2.22,7.43,9.12,9.12,0,0,1-.35,1.39,8.47,8.47,0,0,1-2.29,3.53,6.24,6.24,0,0,1-.75.61,5.47,5.47,0,0,0,.41.71,5.33,5.33,0,0,0,2.14,1.68,17.5,17.5,0,0,0,2.36,1.89A18.16,18.16,0,0,0,23.36,40l.27.09a19.24,19.24,0,0,0,5.55.83c.36,0,.71,0,1.06,0a8.15,8.15,0,0,1-.33.75,18,18,0,0,0,2.75,0h0A18.18,18.18,0,0,0,36.28,6.12Z" fill="#fdd600"/><path d="M34.82,3.41a19.22,19.22,0,0,0-24,12.74,8.46,8.46,0,0,0-.35,1.38,9.73,9.73,0,0,0-7,16.38,9.65,9.65,0,0,0,9,2.9A9.54,9.54,0,0,0,15,44.34a9.67,9.67,0,0,0,6.8,3.09h.32a9.68,9.68,0,0,0,6.65-2.62,9.38,9.38,0,0,0,2.56-4A19.18,19.18,0,0,0,34.82,3.41ZM4.2,33.22a8.72,8.72,0,0,1,6.7-14.68c.18,0,.35,0,.52,0l.4.05.45.08.4.08c.14,0,.27.08.4.12s.28.07.41.12l.37.14.42.17.33.18c.14.07.28.13.41.21s.22.14.33.21l.37.24c.13.09.56.44.66.52a8.35,8.35,0,0,1,.6.59,8.59,8.59,0,0,1,2.22,7.43,9.12,9.12,0,0,1-.35,1.39,8.47,8.47,0,0,1-2.29,3.53,6.3,6.3,0,0,1-.8.65,18.66,18.66,0,0,1-2.85,1.38h0A8.63,8.63,0,0,1,4.2,33.22ZM28.09,44.08a8.73,8.73,0,0,1-12.35-.42,8.56,8.56,0,0,1-2.25-7.14,18,18,0,0,0,2.25-1.07,19.33,19.33,0,0,0,13.44,5.49c.36,0,.71,0,1.06,0A8.31,8.31,0,0,1,28.09,44.08Zm18.52-17a18.08,18.08,0,0,1-15.7,12.77h0a18.11,18.11,0,0,1-7-.71,18.41,18.41,0,0,1-7.32-4.26,6.45,6.45,0,0,0,.63-.52,9.77,9.77,0,0,0,.47-13.76c-.21-.23-.44-.45-.67-.66l-.3-.23c-.14-.12-.28-.24-.43-.35l-.4-.26-.38-.25-.46-.23a2.58,2.58,0,0,0-.37-.19l-.47-.2-.4-.15-.47-.15-.44-.12c-.15,0-.31-.06-.47-.09L12,17.64a3.75,3.75,0,0,0-.47-.05,7.82,7.82,0,0,1,.29-1.13A18.2,18.2,0,1,1,46.61,27.09Z" fill="#231f20"/><path d="M28.28,9.46a14.82,14.82,0,0,0-8.55,2.35.49.49,0,0,0-.15.69.5.5,0,0,0,.69.15,13.79,13.79,0,0,1,8-2.19,14,14,0,0,1,12.27,8.33.52.52,0,0,0,.46.3.46.46,0,0,0,.2-.05.5.5,0,0,0,.26-.65A15,15,0,0,0,28.28,9.46Z" fill="#231f20"/></g><g id="b0c3a97c-11b7-4640-9fb2-14647f2e9287" data-name="LABELS"><text transform="translate(0.04 54.97)" font-size="6" fill="#231f20" font-family="Roboto-Regular, Roboto">soap-bubbles</text></g></svg>