<svg xmlns="http://www.w3.org/2000/svg" viewBox="0 0 50 50"><g id="b771b2b7-5ac7-48a6-bcdd-41e26c3356c2" data-name="ICONS"><polygon points="19.07 49.24 33.92 49.24 35.45 31.99 18.11 38.42 19.07 49.24" fill="#fdd600"/><polygon points="16.45 19.67 17.46 31.09 34.46 24.79 34.37 25.81 36.06 25.19 36.55 19.67 16.45 19.67" fill="#fdd600"/><path d="M37.65,14.1H26.13l1.08-7.94,7.85-4.47A.49.49,0,0,0,35.25,1a.49.49,0,0,0-.68-.19L26.5,5.41h0l-.09.09s0,0-.05.06a.2.2,0,0,0,0,.08.3.3,0,0,0,0,.1s0,0,0,0L25.12,14.1H12.35a.5.5,0,0,0-.5.5v3.07a.5.5,0,0,0,.5.5H14l2.67,30.12a.49.49,0,0,0,.5.45H32.88a.49.49,0,0,0,.5-.45l2.67-30.12h1.6a.5.5,0,0,0,.5-.5V14.6A.5.5,0,0,0,37.65,14.1ZM32.43,47.74H17.57l-1-10.82L34,30.49Zm1.62-18.33H34L16.52,35.89l-.38-4.31,18.32-6.79Zm.51-5.72L16.05,30.55,15,18.17h20.1Zm2.59-6.52H12.85V15.1h24.3Z" fill="#231f20"/></g><g id="b5063810-93b4-4e48-9935-e3b6297a295c" data-name="LABELS"><text transform="translate(0 55.01)" font-size="6" fill="#231f20" font-family="Roboto-Regular, Roboto">soda</text></g></svg>