<svg xmlns="http://www.w3.org/2000/svg" viewBox="0 0 50 50"><g id="a0e7ac42-770f-4a7f-937f-1ba837a1008c" data-name="ICONS"><path d="M38.5,20.72a.5.5,0,0,1-.5.5H26.87v6.21a.5.5,0,0,1-.5.5H15.25v6.22a.5.5,0,0,1-.5.5H3.62V45.29H49.13V14.58H38.5Z" fill="#fdd600"/><path d="M47.88,11.83H36.25a.5.5,0,0,0-.5.5v6.14H24.62a.5.5,0,0,0-.5.5v6.21H13a.5.5,0,0,0-.5.5V31.9H1.37a.5.5,0,0,0-.5.5V44a.5.5,0,0,0,.5.5H47.88a.5.5,0,0,0,.5-.5V12.33A.5.5,0,0,0,47.88,11.83Zm-.5,31.71H1.87V32.9H13a.5.5,0,0,0,.5-.5V26.18H24.62a.5.5,0,0,0,.5-.5V19.47H36.25a.5.5,0,0,0,.5-.5V12.83H47.38Z" fill="#231f20"/><path d="M28.31,7.39A.51.51,0,0,0,28,7.17l-.07,0-7.89-2.4-.15,0a.51.51,0,0,0-.48.35.5.5,0,0,0,.34.63l6.78,2.06L7.34,18a.5.5,0,1,0,.47.88L27.12,8.59,25,15.45a.51.51,0,0,0,.33.63.5.5,0,0,0,.63-.34l2.4-7.89a.51.51,0,0,0-.07-.42A.06.06,0,0,1,28.31,7.39Z" fill="#231f20"/></g><g id="ac3bc58f-2639-48c1-87da-4624d995119d" data-name="LABELS"><text transform="translate(-0.32 55.05)" font-size="6" fill="#231f20" font-family="Roboto-Regular, Roboto">stairs-up</text></g></svg>