<svg xmlns="http://www.w3.org/2000/svg" viewBox="0 0 50 50"><g id="b5f74c79-e5a3-474c-8ce3-f8b9a294e64a" data-name="ICONS"><path d="M41.67,14a5.16,5.16,0,0,0-3.12-1L32.8,13a7,7,0,0,0-2.57.69A6.88,6.88,0,0,0,28.41,15L26.1,17.18a.49.49,0,0,1-.49.11.51.51,0,0,1-.34-.37A4.68,4.68,0,0,0,23.52,14a4.91,4.91,0,0,0-3.1-1l-6.51,0a5.14,5.14,0,0,0-3,1.17,5.58,5.58,0,0,0-1.73,4.58V30.14a1.44,1.44,0,0,0,.4,1,1.39,1.39,0,0,0,1.55.26A1.44,1.44,0,0,0,12,30.12a.51.51,0,0,1,.51-.48.49.49,0,0,1,.49.5V47.67a1.93,1.93,0,1,0,3.85,0,.51.51,0,0,1,.5-.5.5.5,0,0,1,.5.5,1.93,1.93,0,0,0,3.86,0V30.14a.5.5,0,0,1,.5-.5.5.5,0,0,1,.5.5,1.37,1.37,0,1,0,2.73,0V21.46a.5.5,0,0,1,.37-.48,1.39,1.39,0,0,0,.59-.36l0-.05,3.71-3.94a.49.49,0,0,1,.63-.08c.23.14.25.32.32,1a3.93,3.93,0,0,1,.05.82c-.1,8.63-.07,11,0,11.58a.46.46,0,0,1,0,.21V47.67a1.93,1.93,0,1,0,3.86,0,.5.5,0,0,1,.5-.5.51.51,0,0,1,.5.5,1.93,1.93,0,1,0,3.85,0V30.14a.5.5,0,0,1,.5-.5.5.5,0,0,1,.5.5,1.37,1.37,0,1,0,2.74,0V18.5a5.2,5.2,0,0,0-.79-3.37A4.82,4.82,0,0,0,41.67,14Z" fill="#fdd600"/><path d="M15.55,9.19a4.4,4.4,0,1,0-4.4-4.4A4.4,4.4,0,0,0,15.55,9.19Zm0-7.79a3.4,3.4,0,1,1-3.4,3.39A3.39,3.39,0,0,1,15.55,1.4Z" fill="#231f20"/><path d="M33.7,9.19a4.4,4.4,0,1,0-4.4-4.4A4.4,4.4,0,0,0,33.7,9.19Zm3.39-4.4A3.4,3.4,0,1,1,33.7,1.4,3.4,3.4,0,0,1,37.09,4.79Z" fill="#231f20"/><path d="M41.83,12.82a6.08,6.08,0,0,0-1.31-1.37h0a6.18,6.18,0,0,0-3.72-1.16l-5.78,0a8,8,0,0,0-3,.8A7.87,7.87,0,0,0,26,12.55l-1.68,1.58a5.59,5.59,0,0,0-1.9-2.67,5.92,5.92,0,0,0-3.74-1.17l-6.51,0a6.18,6.18,0,0,0-3.59,1.41,6.56,6.56,0,0,0-2.08,5.39V28.4a2.49,2.49,0,0,0,.7,1.67,2.36,2.36,0,0,0,2.67.44,2.71,2.71,0,0,0,.37-.21V45.92a2.92,2.92,0,0,0,5.35,1.64,2.92,2.92,0,0,0,5.35-1.64V30.32a2.33,2.33,0,0,0,1.37.44,2.38,2.38,0,0,0,2.37-2.37V20.05a2.17,2.17,0,0,0,.75-.57l0-.05,2.91-3.1c0,.06,0,.1,0,.14a.15.15,0,0,0,0,.07c-.08,7.33-.11,10.31,0,11.54v.31a.53.53,0,0,0,0,.18l0,17.35a2.93,2.93,0,0,0,5.36,1.64,2.92,2.92,0,0,0,5.35-1.64V30.32a2.31,2.31,0,0,0,1.37.44,2.38,2.38,0,0,0,2.37-2.37V16.79A6.14,6.14,0,0,0,41.83,12.82Zm0,3.93V28.39a1.37,1.37,0,1,1-2.74,0h0V16.54a.51.51,0,0,0-.5-.5.5.5,0,0,0-.5.5V28.39h0V45.92a1.93,1.93,0,1,1-3.85,0v-16a.5.5,0,0,0-.5-.5.5.5,0,0,0-.5.5v16a1.93,1.93,0,0,1-3.86,0V16.54h0a3.41,3.41,0,0,0,0-.65c-.08-.79-.1-1-.33-1.09a.49.49,0,0,0-.63.08l-3.71,3.94,0,.05a1.31,1.31,0,0,1-1.81.09l-4.52-4A1.3,1.3,0,0,1,19,12.73a1.26,1.26,0,0,1,.94.32l3.24,2.83a.5.5,0,0,0,.67,0l2.76-2.61A7.34,7.34,0,0,1,28.48,12a7,7,0,0,1,2.57-.69l5.75,0a5.23,5.23,0,0,1,3.12,1A4.63,4.63,0,0,1,41,13.38,5.26,5.26,0,0,1,41.79,16.75Zm-19.52,13a1.38,1.38,0,0,1-1.37-1.37V18.64l1.23,1.07a2.26,2.26,0,0,0,1.51.56v8.12A1.37,1.37,0,0,1,22.27,29.76ZM18,47.85a1.93,1.93,0,0,1-1.93-1.93h0v-16a.5.5,0,0,0-.5-.5.5.5,0,0,0-.5.5v16h0a1.93,1.93,0,1,1-3.85,0V28.39h0V16.54a.51.51,0,0,0-.5-.5.5.5,0,0,0-.5.5V28.38a1.43,1.43,0,0,1-.79,1.23,1.36,1.36,0,0,1-1.95-1.22V17.06a5.55,5.55,0,0,1,1.73-4.58,5.14,5.14,0,0,1,3-1.17l6.49,0h0a5,5,0,0,1,3.1,1,4.73,4.73,0,0,1,1.64,2.46l-2.77-2.42a2.31,2.31,0,0,0-3.25.22,2.23,2.23,0,0,0-.56,1.67,2.25,2.25,0,0,0,.78,1.58l2.29,2V45.92A1.92,1.92,0,0,1,18,47.85Z" fill="#231f20"/></g><g id="a89125f1-5a73-4445-b70c-839bc660470e" data-name="LABELS"><text transform="translate(0 54.98)" font-size="6" fill="#231f20" font-family="Roboto-Regular, Roboto">suppo<tspan x="16.56" y="0" letter-spacing="0.02em">r</tspan><tspan x="18.73" y="0">t</tspan></text></g></svg>