<svg xmlns="http://www.w3.org/2000/svg" viewBox="0 0 50 50"><g id="a37ff525-e0f9-4def-902f-6c8f8bb76192" data-name="ICONS"><path d="M39.43,10.54h.13A3.61,3.61,0,0,0,43.05,6.8a3.46,3.46,0,1,0-6.89,0,.6.6,0,0,1-.25.53.49.49,0,0,1-.53,0A15.76,15.76,0,0,0,19.1,6.71a.49.49,0,0,1-.72-.3,3.65,3.65,0,0,0-3.51-2.57,3.59,3.59,0,0,0-3.66,3.51A3.53,3.53,0,0,0,14,10.76a.49.49,0,0,1,.34.27.52.52,0,0,1,0,.44,9.36,9.36,0,0,0-1.07,4.32c0,4.08,2.71,7.63,6.72,9.54h0A11.66,11.66,0,0,0,14.18,30a11.91,11.91,0,0,0-1.69,5.64c0,6.7,6.61,12.15,14.74,12.15C34,47.81,42.06,42.72,42,35.66c-.06-4.29-3.1-8.42-7.7-10.75,3.54-2,5.87-5.34,5.87-9.12A9.37,9.37,0,0,0,39,11.28a.5.5,0,0,1,.47-.74Zm-14.11.8a8.68,8.68,0,0,1,1.74.2l-1.78,1.79-1.72-1.8A7.2,7.2,0,0,1,25.32,11.34Zm-7,6c0-2.26,2-4.17,4.8-4.84l1.76,1.85a.55.55,0,0,0,.36.15h0a.47.47,0,0,0,.35-.15l1.84-1.84c2.78.67,4.78,2.58,4.78,4.83,0,2.8-3.12,5.09-6.95,5.09S18.35,20.18,18.35,17.38Z" fill="#fdd600"/><path d="M45.54,29.9l-5.16-6.09a4.41,4.41,0,0,0-5.91-.74,11.27,11.27,0,0,0,4.92-9,10.13,10.13,0,0,0-.94-4.27A4.67,4.67,0,0,0,42.3,5.05,4.62,4.62,0,0,0,37.86.29a4.56,4.56,0,0,0-4.4,4,16.82,16.82,0,0,0-16.08-.51,4.67,4.67,0,0,0-4.26-2.72A4.59,4.59,0,0,0,8.46,5.6a4.5,4.5,0,0,0,3,4.21A10.2,10.2,0,0,0,10.54,14a11,11,0,0,0,3.81,8.12,4.42,4.42,0,0,0-4.44,1.27L4.55,29.35a4.44,4.44,0,0,0,.31,6.23,4.39,4.39,0,0,0,5,.65c0,.14.06.28.1.42A7.93,7.93,0,0,0,8,41.84a7.57,7.57,0,0,0,7.35,7.76,7.24,7.24,0,0,0,5.83-3l.32,0c.51.11,1,.2,1.55.27h0a18.36,18.36,0,0,0,2.37.17,18.91,18.91,0,0,0,3.39-.32,7,7,0,0,0,5.66,3h.38a6.81,6.81,0,0,0,4.72-2.34,7.74,7.74,0,0,0,.71-9.16q.25-.63.45-1.29a4.39,4.39,0,0,0,4.75-7ZM12.61,9.72a.52.52,0,0,0,0-.44A.49.49,0,0,0,12.28,9,3.53,3.53,0,0,1,9.46,5.6a3.59,3.59,0,0,1,3.66-3.51,3.65,3.65,0,0,1,3.51,2.57.49.49,0,0,0,.72.3,15.76,15.76,0,0,1,16.28.66.49.49,0,0,0,.53,0,.6.6,0,0,0,.25-.53,3.46,3.46,0,1,1,6.89,0A3.61,3.61,0,0,1,37.81,8.8h-.13a.5.5,0,0,0-.47.74A9.37,9.37,0,0,1,38.39,14c0,6.08-6,11-13.42,11S11.54,20.12,11.54,14A9.36,9.36,0,0,1,12.61,9.72ZM40.22,33.91c0,6.7-6.61,12.15-14.74,12.15S10.74,40.61,10.74,33.91c0-4.08,2.45-7.68,6.19-9.88a16.43,16.43,0,0,0,8,2,16.27,16.27,0,0,0,8.52-2.35C37.54,25.89,40.22,29.64,40.22,33.91Zm-34.68.93A3.42,3.42,0,0,1,5.29,30l5.36-5.92a3.41,3.41,0,0,1,4.75-.29A12.42,12.42,0,0,0,9.74,33.91a10.92,10.92,0,0,0,.07,1.15A3.38,3.38,0,0,1,5.54,34.84ZM15.39,48.6A6.57,6.57,0,0,1,9,41.84a7,7,0,0,1,1.36-4.18c1.43,4,5.09,7.2,9.78,8.61A6.2,6.2,0,0,1,15.39,48.6ZM40.5,41.89a6.58,6.58,0,0,1-1.62,4.81,5.79,5.79,0,0,1-4,2A6,6,0,0,1,30,46.51a15.24,15.24,0,0,0,9.87-7.21A6.72,6.72,0,0,1,40.5,41.89Zm3.88-6.54h0a3.43,3.43,0,0,1-3.37.59,10.59,10.59,0,0,0,.21-2,12.45,12.45,0,0,0-5.87-10.23,3.42,3.42,0,0,1,4.27.77l5.16,6.09A3.43,3.43,0,0,1,44.38,35.35Z" fill="#231f20"/><path d="M25.3,23.47c4.39,0,8-2.73,8-6.09,0-2.55-2.06-4.74-5-5.64l.11-.11a.5.5,0,0,0,.13-.47.51.51,0,0,0-.34-.36,10.09,10.09,0,0,0-2.86-.46,8.67,8.67,0,0,0-2.85.45.5.5,0,0,0-.34.35.48.48,0,0,0,.13.47l.1.12c-2.93.89-5,3.09-5,5.65C17.35,20.74,20.91,23.47,25.3,23.47ZM23.15,12.54l1.76,1.85a.55.55,0,0,0,.36.15h0a.47.47,0,0,0,.35-.15l1.84-1.84c2.78.67,4.78,2.58,4.78,4.83,0,2.8-3.12,5.09-6.95,5.09s-6.95-2.29-6.95-5.09C18.35,15.12,20.36,13.21,23.15,12.54Zm.41-1a7.2,7.2,0,0,1,1.76-.19,8.68,8.68,0,0,1,1.74.2l-1.78,1.79Z" fill="#231f20"/><path d="M21,10.25a1,1,0,0,0,0-2.08,1,1,0,0,0,0,2.08Z" fill="#231f20"/><path d="M29.14,10.25a1,1,0,1,0-1-1A1,1,0,0,0,29.14,10.25Z" fill="#231f20"/></g><g id="b118fe43-fdab-46d0-a816-48b734681a13" data-name="LABELS"><text transform="translate(-0.17 54.84)" font-size="6" fill="#231f20" font-family="Roboto-Regular, Roboto">teddy-bear</text></g></svg>