<svg xmlns="http://www.w3.org/2000/svg" viewBox="0 0 50 50"><g id="bc686e85-6e94-43f9-ad9a-adab929862af" data-name="ICONS"><path d="M46.69,27.63l-1.36-.24-2.59-.94c-.24.63-.49,1.31-.38,1.36s.23-.52.5-.5l3.83.32a4.06,4.06,0,0,0,1.56-3.17,2.94,2.94,0,0,0-2.87-2.94H34.08a3.3,3.3,0,0,1-2.27-.71c-1.3-1.08-1.53-3.23-.54-5.11a.64.64,0,0,1,.1-.13c1.24-1.17,3.3-3.6,3.21-6.78,0-.76-.09-3-1.43-3.71A2.84,2.84,0,0,0,30.93,5a3.12,3.12,0,0,0-1.81,1.75c-.36.66-8.26,15.05-10.58,17.6a.52.52,0,0,1-.37.16H14.35V43.1l5.72,0h0a.5.5,0,0,1,.27.08,27.71,27.71,0,0,0,5.11,2.68,26.24,26.24,0,0,0,9,1.85H42A2.8,2.8,0,0,0,43.65,47a2.94,2.94,0,0,0,.93-2.23,3.29,3.29,0,0,0-.51-1.72,3.57,3.57,0,0,0-2-1.49l-2.35.32c-.3-.36-.47-.52-.5-.5s.14.36.54,1l1.65-.5.66-.32,2.52-.06A3.3,3.3,0,0,0,47.16,38a3.64,3.64,0,0,0-.42-1.58,3.81,3.81,0,0,0-2.08-1.73l.4-1.15c-1.29-.85-2.54-.9-3-.35a1.16,1.16,0,0,0-.2.91H44.6a1.82,1.82,0,0,1,.06.59l2.11-.31a3.28,3.28,0,0,0,1.75-1,3.56,3.56,0,0,0,.89-2.2A4,4,0,0,0,46.69,27.63Z" fill="#fdd600"/><path d="M48.91,29.71A3.88,3.88,0,0,0,46.21,26a3.88,3.88,0,0,0-2.32-7H32.56A2.32,2.32,0,0,1,31,18.55a3.19,3.19,0,0,1-.33-3.81c1.36-1.31,3.56-4,3.46-7.48,0-.9-.11-3.66-2-4.58a3.85,3.85,0,0,0-3-.1,4.19,4.19,0,0,0-2.35,2.25C26.64,5,18.86,19.14,16.44,22H12.85V21a.5.5,0,0,0-.5-.5H1.09a.5.5,0,0,0-.5.5V43.61a.5.5,0,0,0,.5.5H12.35a.51.51,0,0,0,.5-.5v-1h3.36l2.22,0a28.81,28.81,0,0,0,5.16,2.69A27.47,27.47,0,0,0,33,47.18h7.53a3.75,3.75,0,0,0,3.56-3.9,4,4,0,0,0-1.19-2.89h.21a3.75,3.75,0,0,0,3.56-3.89,4.07,4.07,0,0,0-1.19-2.91A3.9,3.9,0,0,0,48.91,29.71ZM45.35,32.6h-5a.5.5,0,0,0-.5.5.5.5,0,0,0,.5.5h2.75a2.92,2.92,0,0,1,0,5.79H38.21a.5.5,0,1,0,0,1h2.32a2.92,2.92,0,0,1,0,5.79H33a26.23,26.23,0,0,1-9-1.85,27.4,27.4,0,0,1-5.11-2.68.5.5,0,0,0-.27-.08h0l-5.72,0V23h3.82a.52.52,0,0,0,.37-.16c2.32-2.55,10.22-16.94,10.58-17.6a3.12,3.12,0,0,1,1.81-1.75,2.84,2.84,0,0,1,2.22.06c1.34.66,1.41,3,1.43,3.71.09,3.18-2,5.61-3.21,6.78a.64.64,0,0,0-.1.13c-1,1.88-.76,4,.54,5.11a3.25,3.25,0,0,0,2.27.71h11.3a2.9,2.9,0,0,1,0,5.79H41.36a.5.5,0,0,0-.5.5.5.5,0,0,0,.5.5H45.3a2.91,2.91,0,0,1,.05,5.79ZM1.59,21.5H11.85V43.11H1.59Z" fill="#231f20"/></g><g id="f95f129d-ac45-4f24-aa9d-e915e39eb817" data-name="LABELS"><text transform="translate(0 54.62)" font-size="6" fill="#231f20" font-family="Roboto-Regular, Roboto">thumbs-up</text></g></svg>