<svg id="ad4bfa6b-9adb-404d-8bbd-64e735a6c486" data-name="ICONS" xmlns="http://www.w3.org/2000/svg" viewBox="0 0 50 50"><path d="M38.55,23.51a2.27,2.27,0,0,0-2.27,2.26.4.4,0,0,1-.41.4h0a.4.4,0,0,1-.4-.4V23.52a2.27,2.27,0,1,0-4.54,0,.41.41,0,1,1-.81,0v-2A2.27,2.27,0,0,0,29,19.33a2.3,2.3,0,0,0-2.53.28,2.47,2.47,0,0,0-.87,1.51.41.41,0,0,1-.43.33.4.4,0,0,1-.37-.4l-.06-7a2.28,2.28,0,0,0-4.55,0V33.42a.4.4,0,0,1-.78.13c-.07-.19-.16-.46-.3-.77a8.65,8.65,0,0,0-1.63-2.55,8.14,8.14,0,0,0-3.07-2,1.81,1.81,0,0,0-2.16.43,1.79,1.79,0,0,0-.11,2.18L22.53,46.38a.46.46,0,0,1,.06.22V50H37.21l0-5a.43.43,0,0,1,.06-.22,25.74,25.74,0,0,0,2.12-4.47,25.28,25.28,0,0,0,1.46-7.92V25.78A2.27,2.27,0,0,0,38.55,23.51Z" fill="#fdd600"/><path d="M36.93,21a3.13,3.13,0,0,0-2.19.88,3.19,3.19,0,0,0-5.4-2.26,3.19,3.19,0,0,0-5.36-2V12.4a3.19,3.19,0,0,0-6.38,0V29.62a9.59,9.59,0,0,0-1.16-1.55,9.12,9.12,0,0,0-3.39-2.25,2.73,2.73,0,0,0-3.22.68,2.69,2.69,0,0,0-.17,3.29L20,45.33V49a.5.5,0,0,0,.5.5H36a.5.5,0,0,0,.5-.5l0-5.34a26.14,26.14,0,0,0,2.14-4.54,26.48,26.48,0,0,0,1.52-8.26V24.21A3.19,3.19,0,0,0,36.93,21Zm2.19,9.79a25.43,25.43,0,0,1-1.47,8,24.45,24.45,0,0,1-2.12,4.48.59.59,0,0,0-.07.26l0,5H21V45.18a.54.54,0,0,0-.08-.28L10.49,29.23a1.7,1.7,0,0,1,.1-2.08,1.74,1.74,0,0,1,2.07-.41,8.25,8.25,0,0,1,3.05,2,8.55,8.55,0,0,1,1.62,2.55,6.12,6.12,0,0,1,.29.76.5.5,0,0,0,1-.15V12.4a2.19,2.19,0,0,1,4.38,0V27.69a.5.5,0,0,0,1,0V20a2.19,2.19,0,1,1,4.38,0v7.87a.5.5,0,0,0,1,0V21.94a2.19,2.19,0,0,1,4.38,0v5.89a.5.5,0,0,0,.5.5.5.5,0,0,0,.5-.5V24.21a2.19,2.19,0,1,1,4.38,0Z" fill="#231f20"/><path d="M26.7,10.78a.5.5,0,0,0,.5.5h4.7a.51.51,0,0,0,.5-.5.5.5,0,0,0-.5-.5H27.2A.5.5,0,0,0,26.7,10.78Z" fill="#231f20"/><path d="M20.61,5.73a.5.5,0,0,0,.5-.5V.53a.5.5,0,0,0-.5-.5.5.5,0,0,0-.5.5v4.7A.51.51,0,0,0,20.61,5.73Z" fill="#231f20"/><path d="M9.68,11.28h4.7a.5.5,0,0,0,.5-.5.5.5,0,0,0-.5-.5H9.68a.5.5,0,0,0-.5.5A.51.51,0,0,0,9.68,11.28Z" fill="#231f20"/><path d="M25.37,7.49a.52.52,0,0,0,.39-.19L28.7,3.64a.49.49,0,0,0-.07-.7.51.51,0,0,0-.71.07L25,6.67a.51.51,0,0,0,.07.71A.54.54,0,0,0,25.37,7.49Z" fill="#231f20"/><path d="M15.47,7.07a.5.5,0,1,0,.78-.63L13.3,2.78a.5.5,0,0,0-.78.63Z" fill="#231f20"/></svg>