<svg id="becabc1a-6dc7-4fa3-950c-db6ed0588e0a" data-name="ICONS" xmlns="http://www.w3.org/2000/svg" viewBox="0 0 50 50"><path d="M5.44,32.51h26l-.24-.41a.5.5,0,0,1,.17-.69l6.65-4a.5.5,0,0,1,.38-.06.46.46,0,0,1,.3.23l3,4.93h2.09v-23H5.44Z" fill="none"/><path d="M38.29,40a2.42,2.42,0,0,0,2.08,1.18,2.43,2.43,0,0,0,2.35-1.84,2.39,2.39,0,0,0-.13-1.54H41.4a1.9,1.9,0,0,1,.19.21,1.44,1.44,0,0,1,.16,1.09,1.37,1.37,0,0,1-.65.87,1.43,1.43,0,0,1-2-.48A1.46,1.46,0,0,1,39,38.42a1.38,1.38,0,0,1,.35-.61H38.14a2.32,2.32,0,0,0-.13.37A2.35,2.35,0,0,0,38.29,40Z" fill="none"/><path d="M39.63,37.54a1.37,1.37,0,0,1,.73-.21,1.34,1.34,0,0,1,.35.05,1.4,1.4,0,0,1,.69.43h1.19c0-.1-.09-.2-.14-.3A2.44,2.44,0,0,0,41,36.4a2.47,2.47,0,0,0-1.84.28,2.43,2.43,0,0,0-1,1.13h1.19A1.29,1.29,0,0,1,39.63,37.54Z" fill="#fdd600"/><path d="M35.89,32.69a.86.86,0,0,0-1.58.23.87.87,0,0,0,1.28.95A.87.87,0,0,0,35.89,32.69Z" fill="#fdd600"/><path d="M37.42,35.23a.86.86,0,0,0-1.18-.29.84.84,0,0,0-.39.53.87.87,0,0,0,1.28,1,.86.86,0,0,0,.29-1.19Z" fill="#fdd600"/><path d="M3.77,7.66V37.81H21.19v4h6.87v-4h7.78L32.35,32l5.8-3.49,5.59,9.29H49V7.66Zm40,24.85H41.72l-3-4.93a.46.46,0,0,0-.3-.23.5.5,0,0,0-.38.06l-6.65,4a.5.5,0,0,0-.17.69l.24.41h-26v-23H43.81Z" fill="#fdd600"/><path d="M37.33,30.81A.86.86,0,0,0,37,32a.91.91,0,0,0,.53.39.75.75,0,0,0,.21,0,.89.89,0,0,0,.45-.12.86.86,0,0,0,.29-1.18h0a.91.91,0,0,0-.53-.39A.86.86,0,0,0,37.33,30.81Z" fill="#fdd600"/><path d="M38.47,33.89a.85.85,0,0,0,.1.66.91.91,0,0,0,.53.39l.21,0a.86.86,0,0,0,.44-.12.88.88,0,0,0,.3-1.19h0a.91.91,0,0,0-.53-.39.85.85,0,0,0-.66.1A.84.84,0,0,0,38.47,33.89Z" fill="#fdd600"/><path d="M29,28.08l.15,0a.5.5,0,0,0,.48-.34,5.38,5.38,0,0,1,6.08-3.67.5.5,0,0,0,.18-1,6.42,6.42,0,0,0-7.22,4.35A.51.51,0,0,0,29,28.08Z" fill="#fdd600"/><path d="M35,25.49a3.5,3.5,0,0,0-2.38.44,3.56,3.56,0,0,0-1.51,1.9.5.5,0,0,0,.33.63.4.4,0,0,0,.15,0,.49.49,0,0,0,.47-.35,2.47,2.47,0,0,1,2.77-1.67.49.49,0,0,0,.58-.4A.51.51,0,0,0,35,25.49Z" fill="#fdd600"/><path d="M47.73,4.91H1.52a.5.5,0,0,0-.5.5V36.56a.5.5,0,0,0,.5.5H20.19v4.75h-8.9a.5.5,0,0,0,0,1H38a.5.5,0,1,0,0-1h-8.9V37.06h5.17l-.61-1H2V5.91H47.23V36.06H43.86l.6,1h3.27a.5.5,0,0,0,.5-.5V5.41A.5.5,0,0,0,47.73,4.91ZM28.06,41.81H21.19V37.06h6.87Z" fill="#231f20"/><path d="M44.81,33V9a.51.51,0,0,0-.5-.5H4.94a.51.51,0,0,0-.5.5V33a.51.51,0,0,0,.5.5H32.08l-.6-1h-26v-23H43.81v23H41.72l.6,1h2A.51.51,0,0,0,44.81,33Z" fill="#231f20"/><path d="M43.86,36.06l-1.54-2.55-.6-1-3-4.93a.46.46,0,0,0-.3-.23.5.5,0,0,0-.38.06l-6.65,4a.5.5,0,0,0-.17.69l.24.41.6,1,1.54,2.55.61,1,2.86,4.75H38a.5.5,0,1,1,0,1h-.27l1.23,2a.56.56,0,0,0,.31.23h.12A.43.43,0,0,0,39.6,45l6.65-4a.51.51,0,0,0,.18-.69l-2-3.26ZM32.35,32l5.8-3.49,7.16,11.89L39.52,43.9Z" fill="#231f20"/><path d="M37.56,32.39a.75.75,0,0,0,.21,0,.89.89,0,0,0,.45-.12.86.86,0,0,0,.29-1.18h0a.91.91,0,0,0-.53-.39.86.86,0,0,0-.65.1A.86.86,0,0,0,37,32,.91.91,0,0,0,37.56,32.39Z" fill="#231f20"/><path d="M35.59,33.87a.87.87,0,0,0,.3-1.18.86.86,0,0,0-1.58.23.87.87,0,0,0,1.28.95Z" fill="#231f20"/><path d="M39.52,33.26a.85.85,0,0,0-.66.1.84.84,0,0,0-.39.53.85.85,0,0,0,.1.66.91.91,0,0,0,.53.39l.21,0a.86.86,0,0,0,.44-.12.88.88,0,0,0,.3-1.19h0A.91.91,0,0,0,39.52,33.26Z" fill="#231f20"/><path d="M36.69,36.54a.88.88,0,0,0,.44-.12.86.86,0,0,0,.29-1.19h0a.86.86,0,0,0-1.18-.29.84.84,0,0,0-.39.53.85.85,0,0,0,.84,1.07Z" fill="#231f20"/><path d="M41.62,40.84a2.38,2.38,0,0,0,1.1-1.49,2.42,2.42,0,0,0-.27-1.84A2.44,2.44,0,0,0,41,36.4,2.43,2.43,0,0,0,38,38.18,2.35,2.35,0,0,0,38.29,40a2.42,2.42,0,0,0,2.08,1.18A2.37,2.37,0,0,0,41.62,40.84ZM39.14,39.5A1.46,1.46,0,0,1,39,38.42a1.41,1.41,0,0,1,.65-.88,1.37,1.37,0,0,1,.73-.21,1.34,1.34,0,0,1,.35.05,1.41,1.41,0,0,1,1,1.73,1.37,1.37,0,0,1-.65.87A1.43,1.43,0,0,1,39.14,39.5Z" fill="#231f20"/><path d="M35.85,23.1a6.42,6.42,0,0,0-7.22,4.35.51.51,0,0,0,.33.63l.15,0a.5.5,0,0,0,.48-.34,5.38,5.38,0,0,1,6.08-3.67.5.5,0,0,0,.18-1Z" fill="#231f20"/><path d="M35,25.49a3.5,3.5,0,0,0-2.38.44,3.56,3.56,0,0,0-1.51,1.9.5.5,0,0,0,.33.63.4.4,0,0,0,.15,0,.49.49,0,0,0,.47-.35,2.47,2.47,0,0,1,2.77-1.67.49.49,0,0,0,.58-.4A.51.51,0,0,0,35,25.49Z" fill="#231f20"/></svg>