<svg id="bdac761d-fe8d-41f0-a7d8-0f6d8e368a6e" data-name="ICONS" xmlns="http://www.w3.org/2000/svg" viewBox="0 0 50 50"><polygon points="7.89 18.35 46.23 11.17 45.18 5.57 39 6.73 42.69 9.64 42.76 9.69 38.84 10.42 35.08 7.46 25.67 9.22 29.44 12.18 25.51 12.92 21.75 9.96 12.92 11.61 16.68 14.57 15.2 14.85 12.77 15.3 9.14 12.32 6.84 12.75 7.89 18.35" fill="#fdd600"/><path d="M8.2,20.12,5.82,42.31l38.81,5,2.35-23ZM29.15,32l-8.61-1L21,26.42l8.64,1Z" fill="#fdd600"/><path d="M45.83,21.6,6.93,17.42l5.77-1.09h0l2.37-.44L30.39,13l.23,0h0l13.17-2.47.26,0h0l1.05-.19a.5.5,0,0,0,.4-.58L44.27,3.1a.54.54,0,0,0-.21-.32.56.56,0,0,0-.38-.08L36.85,4h0L31.62,5h0l-8.1,1.52h0l-.13,0L10.79,8.86h0L6,9.76l-1.63.3a.51.51,0,0,0-.4.59L5.2,17.23a.47.47,0,0,0,.21.32.44.44,0,0,0,.15.05.84.84,0,0,0,0,.17L3,40.94a.49.49,0,0,0,.43.55l39.82,5.12h.06a.51.51,0,0,0,.5-.45l2.45-24A.5.5,0,0,0,45.83,21.6ZM10.74,9.89l5.94,4.68-1.48.28-2.43.45L7,10.58Zm7.52-1.41,5.94,4.68L18,14.33,12,9.64ZM31.59,6l5.94,4.69-6.82,1.27-.06-.07L24.79,7.26Zm5.22-1,5.88,4.63.07,0-3.92.73-6-4.68Zm-11.3,7.91-5.9-4.65,3.87-.77,6,4.68ZM44.42,9.38l-.33.06-6-4.68,5.26-1ZM5,11l.7-.13,5.75,4.72-5.4,1ZM42.88,45.56l-38.81-5L6.45,18.37l38.78,4.17Z" fill="#231f20"/><path d="M8,30.55l33.1,3.82h.06a.5.5,0,0,0,.06-1L30.15,32.09l.45-4.55,11,1.27h.06a.5.5,0,0,0,.06-1L8.64,24a.5.5,0,1,0-.12,1L20,26.31l-.43,4.56L8.16,29.55A.52.52,0,0,0,7.6,30,.51.51,0,0,0,8,30.55ZM21,26.42l8.64,1L29.15,32l-8.61-1Z" fill="#231f20"/><path d="M7.44,35.49l33.1,3.83h.05a.51.51,0,0,0,.5-.44.51.51,0,0,0-.44-.56L7.55,34.5a.5.5,0,0,0-.55.44A.5.5,0,0,0,7.44,35.49Z" fill="#231f20"/></svg>