<svg xmlns="http://www.w3.org/2000/svg" viewBox="0 0 50 50"><g id="a4fbbff5-f28c-4ce3-8c8a-9e997a837401" data-name="ICONS"><path d="M26.26,33.57a3.61,3.61,0,0,1,3.6-3.6H44.55V18.54H7V48.87H44.55V37.17H29.86A3.6,3.6,0,0,1,26.26,33.57Z" fill="#fdd600"/><path d="M45.57,14.32a.49.49,0,0,0-.37-.14l-5.9.24-7-13a.5.5,0,0,0-.68-.2L5.41,15.76l-.65,0-.09,0-.1,0-.06.05-.09.06h0l0,.06-.06.1s0,.06,0,.1,0,.05,0,.08V47.62a.5.5,0,0,0,.5.5H43.3a.49.49,0,0,0,.47-.35h1.45a.5.5,0,0,0,.5-.5V14.68A.51.51,0,0,0,45.57,14.32ZM29.86,37.17a3.6,3.6,0,1,1,0-7.2H44.72v7.2Zm-24.58-14V16.79H42.8v6.36ZM33.2,15.79H23.75a6,6,0,0,0-5.32-2.55l9.73-5.51A3.41,3.41,0,0,0,32,9l2.43,4.54A3.32,3.32,0,0,0,33.2,15.79Zm-16.78-1a5,5,0,0,1,6,1H17.71v0a.51.51,0,0,0-.68-.2.47.47,0,0,0-.2.22H15.18A5.17,5.17,0,0,1,16.42,14.82Zm22.48,1H34.22a2.29,2.29,0,0,1,1.12-1.71.5.5,0,0,0,.19-.67L32.67,8.07a.5.5,0,0,0-.68-.2,2.4,2.4,0,0,1-3.22-1,.48.48,0,0,0-.3-.24.53.53,0,0,0-.39,0L11.89,15.79H7.42L31.68,2.31ZM5.28,24.15H42.8V29H29.86a4.6,4.6,0,0,0,0,9.2H42.8v8.95H5.28ZM44.72,15.2V29H43.8V16.29a.5.5,0,0,0-.5-.5H40l-.2-.39ZM43.8,46.77v-8.6h.92v8.6Z" fill="#231f20"/><polygon points="28.96 13.48 28.52 13.72 28.53 13.72 28.96 13.48" fill="#231f20"/><path d="M28.53,14.72A1,1,0,0,0,29,14.6a1,1,0,0,0,.41-1.35h0a1,1,0,0,0-1.35-.41,1,1,0,0,0-.49.59,1,1,0,0,0,.08.76A1,1,0,0,0,28.53,14.72ZM29,13.49l-.44.23h0Z" fill="#231f20"/><path d="M30.62,31.6a2,2,0,1,0,2,2A2,2,0,0,0,30.62,31.6Z" fill="#fdd600"/><rect x="44.55" y="29.97" width="0.16" height="7.2" fill="#231f20"/><path d="M30.62,32.6a1,1,0,0,0,0,1.94,1,1,0,0,0,0-1.94Z" fill="#231f20"/><path d="M30.62,31.6a2,2,0,1,0,2,2A2,2,0,0,0,30.62,31.6Zm0,2.94a1,1,0,1,1,1-1A1,1,0,0,1,30.62,34.54Z" fill="#231f20"/></g><g id="bef4a332-ae93-4a84-a5e7-cc4da295cab1" data-name="LABELS"><text transform="translate(0.06 55.08)" font-size="6" fill="#231f20" font-family="Roboto-Regular, Roboto">wallet</text></g></svg>