<svg id="a6c4db64-04ce-4574-9e62-cf1e0ac1332b" data-name="ICONS" xmlns="http://www.w3.org/2000/svg" viewBox="0 0 50 50"><path d="M26.36,38.43a2.43,2.43,0,1,1-2.43,2.43,2.43,2.43,0,0,1,2.43-2.43" fill="#fdd600"/><path d="M35,31.53,31.52,35A9.36,9.36,0,0,0,21.2,35l-3.46-3.47a14.28,14.28,0,0,1,17.24,0" fill="#fdd600"/><path d="M41.87,24.64,38.4,28.11a18.94,18.94,0,0,0-24.08,0l-3.47-3.47a24,24,0,0,1,31,0" fill="#fdd600"/><path d="M48.73,17.79l-3.45,3.45a28.7,28.7,0,0,0-37.84,0L4,17.79a33.92,33.92,0,0,1,44.74,0" fill="#fdd600"/><path d="M21.43,39.36a3.43,3.43,0,1,1,3.43,3.43,3.44,3.44,0,0,1-3.43-3.43m3.43-2.43a2.43,2.43,0,1,0,2.43,2.43,2.43,2.43,0,0,0-2.43-2.43" fill="#231f20"/><path d="M19.7,33.5A9.36,9.36,0,0,1,30,33.5L33.48,30a14.28,14.28,0,0,0-17.24,0Zm-4.53-3.89a15.26,15.26,0,0,1,19.38,0,.5.5,0,0,1,.18.36.5.5,0,0,1-.15.38L30.43,34.5a.51.51,0,0,1-.36.15.46.46,0,0,1-.29-.1,8.34,8.34,0,0,0-9.84,0,.49.49,0,0,1-.65,0l-4.15-4.15A.5.5,0,0,1,15,30a.5.5,0,0,1,.18-.36" fill="#231f20"/><path d="M12.82,26.61a18.94,18.94,0,0,1,24.08,0l3.47-3.47a24,24,0,0,0-31,0ZM8.28,22.75a25,25,0,0,1,33.16,0,.48.48,0,0,1,.16.35.5.5,0,0,1-.14.37l-4.17,4.17a.51.51,0,0,1-.36.15.54.54,0,0,1-.33-.12,17.92,17.92,0,0,0-23.48,0,.51.51,0,0,1-.69,0L8.26,23.47a.5.5,0,0,1-.14-.37.48.48,0,0,1,.16-.35" fill="#231f20"/><path d="M2.49,16.29l3.45,3.45a28.7,28.7,0,0,1,37.84,0l3.45-3.45a33.92,33.92,0,0,0-44.74,0m-1.06-.38a34.45,34.45,0,0,1,46.86,0,.48.48,0,0,1,.16.36.51.51,0,0,1-.15.36l-4.15,4.15a.5.5,0,0,1-.35.15.48.48,0,0,1-.34-.14,27.71,27.71,0,0,0-37.2,0,.49.49,0,0,1-.69,0L1.42,16.63a.51.51,0,0,1-.15-.36.48.48,0,0,1,.16-.36" fill="#231f20"/></svg>