<svg xmlns="http://www.w3.org/2000/svg" viewBox="0 0 50 50"><g id="f107f6e5-c37d-4a20-b7f3-809cc24ff526" data-name="ICONS"><circle cx="26.75" cy="26.75" r="21.87" fill="#fdd600"/><path d="M20.39,21.42a1,1,0,0,1,.79-.41.93.93,0,0,1,.76.31,1.41,1.41,0,0,1,.26.91,3.56,3.56,0,0,1-1.1,2l-3,3.13v1.4h6.47V27.1H20.94l1.2-1.38a16.12,16.12,0,0,0,1.38-1.53,4.67,4.67,0,0,0,.64-1.09,3,3,0,0,0,.2-1.06,2.46,2.46,0,0,0-.81-2,3.44,3.44,0,0,0-2.32-.7,3.55,3.55,0,0,0-1.69.41,3.06,3.06,0,0,0-1.61,2.7h2.15A1.69,1.69,0,0,1,20.39,21.42Z" fill="#231f20"/><path d="M24,26.79h3.59v2h2.14v-2h.94V25.13h-.94V19.49H27.63l-3.71,6Zm3.45-4.29.14-.22v2.85H26Z" fill="#231f20"/><path d="M25,2.13A22.87,22.87,0,1,0,47.87,25,22.9,22.9,0,0,0,25,2.13Zm0,44.74A21.87,21.87,0,1,1,46.87,25,21.89,21.89,0,0,1,25,46.87Z" fill="#231f20"/><path d="M25,6.62a18.45,18.45,0,0,0-4.8.64.5.5,0,1,0,.26,1,17.44,17.44,0,1,1-9.75,6.91l1.47,1.32,1-4.88L8.47,13.12,10,14.46A18.18,18.18,0,0,0,6.62,25,18.38,18.38,0,1,0,25,6.62Z" fill="#231f20"/><path d="M25.5,11.89V9.75a.5.5,0,0,0-1,0v2.14a.5.5,0,0,0,1,0Z" fill="#231f20"/><path d="M24.5,38.11v2.14a.5.5,0,0,0,1,0V38.11a.5.5,0,0,0-1,0Z" fill="#231f20"/><path d="M11.75,24.5H9.61a.5.5,0,0,0,0,1h2.14a.5.5,0,0,0,0-1Z" fill="#231f20"/><path d="M13.24,35.68a.54.54,0,0,0,.37.16.55.55,0,0,0,.34-.13l1.58-1.46a.5.5,0,0,0,0-.7.5.5,0,0,0-.71,0L13.27,35A.51.51,0,0,0,13.24,35.68Z" fill="#231f20"/><path d="M35,16.44,36.53,15a.5.5,0,0,0,0-.71.5.5,0,0,0-.7,0L34.28,15.7a.5.5,0,0,0,0,.71.49.49,0,0,0,.37.16A.5.5,0,0,0,35,16.44Z" fill="#231f20"/><path d="M33.24,33.94a.5.5,0,0,0,0,.71l1.58,1.45a.48.48,0,0,0,.34.13.46.46,0,0,0,.36-.16.5.5,0,0,0,0-.71L34,33.91A.51.51,0,0,0,33.24,33.94Z" fill="#231f20"/><path d="M40.41,25.5a.5.5,0,0,0,0-1H38.27a.5.5,0,0,0,0,1Z" fill="#231f20"/></g><g id="bc1e3fb2-d7e3-4d43-a79b-5283af807bf1" data-name="LABELS"><text transform="translate(1.02 54.88)" font-size="6" fill="#231f20" font-family="Roboto-Regular, Roboto">24hour-clock</text></g></svg>