<svg xmlns="http://www.w3.org/2000/svg" viewBox="0 0 50 50"><g id="e8f13205-dfab-47bd-8afb-8083e4a26987" data-name="ICONS"><path d="M7.65,31.11a4.64,4.64,0,0,0-1.82,2.12,4.66,4.66,0,0,0,2.66-.85c.11-.07.2-.15.31-.23,1.29-.92,1.88-1.5,1.76-1.75s-.3-.16-.71-.12A4.91,4.91,0,0,0,7.65,31.11Z" fill="#fdd600"/><ellipse cx="10.73" cy="33.74" rx="1.17" ry="2.93" fill="#fdd600"/><path d="M19,26.81a.7.7,0,0,1,.18.2.86.86,0,0,1,.13.41,2.79,2.79,0,0,0,2.61,2.65h0a2.34,2.34,0,0,0,1.65-.71,3.49,3.49,0,0,0,1-2.2.49.49,0,0,0-.44-.49H24.1a.5.5,0,0,0-.5.5,2.53,2.53,0,0,1-.71,1.49,1.36,1.36,0,0,1-1,.42,1.82,1.82,0,0,1-1.62-1.74,2,2,0,0,0-.29-.86,1.74,1.74,0,0,0-.48-.5,3.9,3.9,0,0,1-1.82-2.92,3.53,3.53,0,0,1,1-2.58,3,3,0,0,1,2.18-1,3.41,3.41,0,0,1,3.2,3.59.49.49,0,0,0,.44.49h.06a.5.5,0,0,0,.5-.5,4.41,4.41,0,0,0-4.2-4.59A4,4,0,0,0,18,19.77a4.54,4.54,0,0,0-1.29,3.32A4.86,4.86,0,0,0,19,26.81Z" fill="#231f20"/><path d="M23,26.12a.44.44,0,0,0-.3,0,12.38,12.38,0,0,0,.55-2c0-.18,0-.37,0-.37a4,4,0,0,0-.07-1,2.49,2.49,0,0,0-1.3-1.65,2,2,0,0,0-2.42.93,2.78,2.78,0,0,0-.43,1.23,3,3,0,0,0,.13,1.24.49.49,0,0,0,.62.33.5.5,0,0,0,.33-.63,2,2,0,0,1-.08-.83,1.92,1.92,0,0,1,.27-.8c.18-.28.67-.76,1.2-.55a1.51,1.51,0,0,1,.71,1,3.15,3.15,0,0,1,0,.75,2.48,2.48,0,0,1,0,.29,13.8,13.8,0,0,1-.56,2,1.17,1.17,0,0,0,0,.9.86.86,0,0,0,.48.49.62.62,0,0,0,.27,0,.83.83,0,0,0,.34-.07,1.05,1.05,0,0,0,.52-.59A.48.48,0,0,0,23,26.12Z" fill="#231f20"/><path d="M35.53,33.59A55,55,0,0,1,13,31.13l0,.05a59.77,59.77,0,0,1,16,9.34,59.88,59.88,0,0,1,9.15,9.34,42.3,42.3,0,0,1,6.78-11l.08-.08a9.61,9.61,0,0,0,2.65-4.87,8.35,8.35,0,0,0,0-3A54.54,54.54,0,0,1,35.53,33.59Z" fill="#fdd600"/><path d="M46.77,28.43a.49.49,0,0,0-.25-.33.51.51,0,0,0-.4,0l-.26.08c-.91-1.83-2.28-4.84-2.28-6.36a17.54,17.54,0,0,1,.34-2.66c.42-2.38.93-5.35-.18-7.87C40.72,4.4,31.22-1.51,21.15.9,9,3.82,7.71,13.56,7.81,20.63a17,17,0,0,0,1.52,7h0a5.26,5.26,0,0,0-4,.92A5.28,5.28,0,0,0,3,31.82a.52.52,0,0,0,.38.57,4.07,4.07,0,0,0,.87.1,5.54,5.54,0,0,0,2.62-.75c0,.08,0,.17,0,.25a4.88,4.88,0,0,0,1.87,4,.49.49,0,0,0,.59,0,4.88,4.88,0,0,0,1.87-4,5.16,5.16,0,0,0-.06-.79A21.84,21.84,0,0,1,13,36.79c1.11,5.74-.55,8.35-1.35,9.6a4.32,4.32,0,0,0-.37.64.49.49,0,0,0,.26.65.48.48,0,0,0,.2,0,.5.5,0,0,0,.46-.3,3.2,3.2,0,0,1,.29-.49c.87-1.37,2.67-4.2,1.5-10.33a23.13,23.13,0,0,0-2-5.79,59,59,0,0,1,14.63,8.73c1.5,1.24,2.93,2.56,4.31,3.94v3.34a.5.5,0,0,0,.5.5.5.5,0,0,0,.5-.5V44.49a59.32,59.32,0,0,1,4.19,4.89.51.51,0,0,0,.4.2h0a.49.49,0,0,0,.4-.29,42.93,42.93,0,0,1,6.94-11.46l.08-.09a10.73,10.73,0,0,0,2.91-5.36A9.57,9.57,0,0,0,46.77,28.43Zm-.85,3.76a9.69,9.69,0,0,1-2.65,4.87l-.08.08a42.3,42.3,0,0,0-6.78,11,59.88,59.88,0,0,0-9.15-9.34,59.77,59.77,0,0,0-16-9.34l0-.05a54.93,54.93,0,0,0,22.53,2.46A54.54,54.54,0,0,0,45.91,29.2,8.35,8.35,0,0,1,45.92,32.19ZM9,29.06a4.29,4.29,0,0,1,0,5.87,4.27,4.27,0,0,1,0-5.87ZM21.39,1.88c6.49-1.56,17.55,1,21.44,9.78,1,2.24.5,5.05.11,7.3a17.77,17.77,0,0,0-.36,2.83c0,1.68,1.37,4.75,2.32,6.67a53.56,53.56,0,0,1-11.22,2.39,54.22,54.22,0,0,1-23-2.73,16.5,16.5,0,0,1-1.86-7.51C8.71,13.32,10,4.59,21.39,1.88ZM6.74,30.63a4.66,4.66,0,0,1-2.66.85A4.64,4.64,0,0,1,5.9,29.36a4.91,4.91,0,0,1,2.2-.83,4.59,4.59,0,0,0-1,1.87C6.94,30.48,6.85,30.56,6.74,30.63Z" fill="#231f20"/></g><g id="afb7bdc6-e8c9-4b54-accb-7f7a7dde8297" data-name="LABELS"><text transform="translate(0.28 54.99)" font-size="6" fill="#231f20" font-family="Roboto-Regular, Roboto">bandana</text></g></svg>