<svg xmlns="http://www.w3.org/2000/svg" viewBox="0 0 50 50"><defs><style>.cls-1{fill:#ffcd00;}.cls-2{font-size:6px;font-family:Roboto-Regular, Roboto;}</style></defs><g id="ICONS"><path class="cls-1" d="M45.34,8.16a9.09,9.09,0,0,0-12.83,0L26.58,14.1,38.36,25.87,25.93,38.31,14.15,26.53l-6,6A9.07,9.07,0,0,0,21,45.34l6-6L39.4,26.92,45.34,21A9.1,9.1,0,0,0,45.34,8.16Z"/><circle cx="24.34" cy="17.78" r="1.39"/><circle cx="28.3" cy="21.75" r="1.39"/><path d="M33.17,26.74a1.39,1.39,0,1,0-2-2,1.39,1.39,0,0,0,2,2Z"/><path d="M22.1,22.05a1.38,1.38,0,0,0,0-2,1.39,1.39,0,0,0-2,2A1.38,1.38,0,0,0,22.1,22.05Z"/><path d="M24.09,24.05a1.39,1.39,0,1,0,2,0A1.4,1.4,0,0,0,24.09,24.05Z"/><path d="M28,28.06a1.39,1.39,0,1,0,2,0A1.38,1.38,0,0,0,28,28.06Z"/><path d="M16.92,23.37a1.38,1.38,0,0,0,0,2,1.39,1.39,0,1,0,0-2Z"/><circle cx="21.86" cy="28.32" r="1.39"/><circle cx="25.74" cy="32.34" r="1.39"/><path d="M44.29,5.71a10.06,10.06,0,0,0-14.23,0L5.71,30.06A10.06,10.06,0,1,0,19.94,44.29L44.29,19.94a10.06,10.06,0,0,0,0-14.23ZM25.87,36.84,13.13,24.1l11-11L36.9,25.82Zm-6.63,6.75A9.07,9.07,0,0,1,6.41,30.76l6-6L25.22,37.6ZM43.59,19.24l-5.94,5.93L24.83,12.35l5.93-5.94A9.07,9.07,0,1,1,43.59,19.24Z"/></g><g id="LABELS"><text class="cls-2" transform="translate(0.22 54.84)">band-aid</text></g></svg>