<svg id="b40367e8-df59-433a-8f18-df220ab88d71" data-name="ICONS" xmlns="http://www.w3.org/2000/svg" viewBox="0 0 50 50"><path d="M50.1,34.3A12.19,12.19,0,0,0,48,29.15c-.26-.34-.59-.75-1-1.17l-.28-.28a7.39,7.39,0,0,0-.83-.75,11.63,11.63,0,0,0-2.77-1.7,12.26,12.26,0,0,0-3.2-.89,12.62,12.62,0,0,0-3.41,0,10.17,10.17,0,0,0-1,.22.48.48,0,0,1-.55-.24.5.5,0,0,1,.08-.6l.2-.2c.17-.17.34-.34.49-.52a11.84,11.84,0,0,0,2.65-9,12.09,12.09,0,0,0-2-5.23,11.66,11.66,0,0,0-1.75-2,9.5,9.5,0,0,1,1.48,2.3,11.19,11.19,0,0,1,.81,2.49,9.15,9.15,0,0,1,.13,2.6c0,.12,0,.29-.05.47l-.12.83A11,11,0,0,1,36.45,17a10.32,10.32,0,0,1-1.22,2.33,10.68,10.68,0,0,1-3.91,3.33,12.08,12.08,0,0,1-2.31.84l-.52.09a4.49,4.49,0,0,1-.61.1l-.15,0a.88.88,0,0,1-.3,0l-.87,0h-.09l-.49,0a2.37,2.37,0,0,1-.52,0h-.11a6.59,6.59,0,0,1-.71-.12l-.44-.08a12.86,12.86,0,0,1-2.35-.84A10.86,10.86,0,0,1,18,19.34c-.24-.37-.48-.74-.69-1.13s-.41-.8-.55-1.16a8.17,8.17,0,0,1-.44-1.62l-.11-.66a4,4,0,0,1-.06-.47,10.4,10.4,0,0,1,.13-2.69A10.76,10.76,0,0,1,17,9.15a9.87,9.87,0,0,1,1.52-2.37,12.22,12.22,0,0,0-1.8,2.08,12.11,12.11,0,0,0-1.94,5.22c0,.45-.08,1-.08,1.53V16a8.47,8.47,0,0,0,.1,1.13,11.67,11.67,0,0,0,.88,3.13,12.25,12.25,0,0,0,1.74,2.83,7.55,7.55,0,0,0,.68.71l.12.12a.5.5,0,0,1-.48.84A11.55,11.55,0,0,0,16,24.38a12.09,12.09,0,0,0-6.14.94A12.27,12.27,0,0,0,5.4,28.73,11.72,11.72,0,0,0,4,31a9.77,9.77,0,0,1,1.76-2.1,11.54,11.54,0,0,1,2.14-1.5,9.22,9.22,0,0,1,2.45-.89l.49-.1.26,0,.49-.08h.12a10.72,10.72,0,0,1,1.48,0,10.51,10.51,0,0,1,2.59.49A10.72,10.72,0,0,1,20.1,29.5a12.81,12.81,0,0,1,1.48,2c.09.19.17.34.24.47s.21.41.27.55l.46,1.2,0,.11.05.22s.18.7.22.9a6.54,6.54,0,0,1,.1.7,3.44,3.44,0,0,0,.05.45,12.45,12.45,0,0,1-.12,2.49,10.67,10.67,0,0,1-2,4.71c-.29.34-.57.68-.88,1a10.72,10.72,0,0,1-.95.87,7,7,0,0,1-1.22.79.55.55,0,0,1-.21.12l-.58.28a2.48,2.48,0,0,1-.44.2,10.06,10.06,0,0,1-2.6.67,11.09,11.09,0,0,1-2.59,0,10,10,0,0,1-2.72-.77,11.51,11.51,0,0,0,2.52,1.11,12,12,0,0,0,5.57.32,15.14,15.14,0,0,0,1.48-.37l.37-.13a8.32,8.32,0,0,0,1-.43,11.34,11.34,0,0,0,2.74-1.75,12.8,12.8,0,0,0,2.19-2.5,25.15,25.15,0,0,0,1.48-3.26.49.49,0,0,1,.49-.34.48.48,0,0,1,.46.36,6.4,6.4,0,0,0,.2.62,11.88,11.88,0,0,0,8.49,7.64,11.79,11.79,0,0,0,2.66.3,10,10,0,0,1-2.65-.68A11.5,11.5,0,0,1,33.42,46a9.49,9.49,0,0,1-1.86-1.82,4.58,4.58,0,0,1-.3-.4l-.39-.53a12.73,12.73,0,0,1-.76-1.53,10.07,10.07,0,0,1-.68-2.54,10.49,10.49,0,0,1,.6-5.1,12.24,12.24,0,0,1,1.12-2.18l.32-.43c.14-.19.27-.36.38-.48l.89-.94,0,0,0,0h0l0,0,0,0,.11-.08a11.36,11.36,0,0,1,1.73-1.23,12.13,12.13,0,0,1,2.27-1,10.68,10.68,0,0,1,5.12-.21,10.85,10.85,0,0,1,1.27.36,9.54,9.54,0,0,1,1.19.48,8.1,8.1,0,0,1,1.5.93l.45.36a2.83,2.83,0,0,1,.37.32,10.13,10.13,0,0,1,1.73,2.05,11.63,11.63,0,0,1,1.09,2.35,9.82,9.82,0,0,1,.49,2.77A11.48,11.48,0,0,0,50.1,34.3ZM24.7,29.75l-2.82-4.53,5.6,0Z" fill="#fdd600"/><path d="M49.34,32.4h0A13.08,13.08,0,0,0,47,26.81c-.28-.37-.63-.81-1.07-1.29l-.29-.28a8,8,0,0,0-.91-.82,12.31,12.31,0,0,0-3-1.83,13.12,13.12,0,0,0-3.48-1,13.72,13.72,0,0,0-3.33,0,12.54,12.54,0,0,0,1.62-2.73A12.8,12.8,0,0,0,31.75,2.94c-.25-.11-.9-.39-1.26.06s-.07,1,.21,1.35a.52.52,0,0,0,.1.11,9.05,9.05,0,0,1,2.66,3.33,10.34,10.34,0,0,1,.74,2.28,8.52,8.52,0,0,1,.11,2.35c0,.1,0,.25,0,.4l-.11.76a10.36,10.36,0,0,1-.39,1.32A9.61,9.61,0,0,1,32.65,17a8.85,8.85,0,0,1-1.56,1.69,10.34,10.34,0,0,0-12.57-.06A8.73,8.73,0,0,1,17,17c-.22-.33-.45-.68-.64-1s-.38-.75-.53-1.13a8.3,8.3,0,0,1-.35-1.37l-.08-.39c0-.08,0-.17,0-.26s0-.23,0-.35a9.79,9.79,0,0,1,.11-2.45,11.21,11.21,0,0,1,.73-2.25,9.12,9.12,0,0,1,2.66-3.34l.1-.11c.11-.16.46-.73.16-1.18-.21-.3-.59-.39-1.13-.26a.46.46,0,0,0-.16.07,13.07,13.07,0,0,0-3.65,3.57,13.22,13.22,0,0,0-2.11,5.67c0,.5-.08,1-.08,1.67v.38a9,9,0,0,0,.12,1.24,12,12,0,0,0,.94,3.37,13.37,13.37,0,0,0,1.67,2.81l-.39-.05a13.13,13.13,0,0,0-6.66,1,13.28,13.28,0,0,0-4.8,3.69A13,13,0,0,0,.54,30.89a.5.5,0,0,0,0,.32,1.15,1.15,0,0,0,.71.67.94.94,0,0,0,.85-.26.52.52,0,0,0,.14-.19,9.06,9.06,0,0,1,2.4-3.52,10.45,10.45,0,0,1,2-1.39,8.72,8.72,0,0,1,2.21-.79l.43-.08.25,0,.48-.07h0a10.47,10.47,0,0,1,1.39,0,9.47,9.47,0,0,1,2.36.45c.23.07.46.18.69.27,0,.24,0,.48,0,.72a10.41,10.41,0,0,0,5.81,9.32c0,.12,0,.25,0,.37a9.8,9.8,0,0,1-1.82,4.24c-.26.31-.53.63-.81.92s-.59.57-.92.84a8.62,8.62,0,0,1-1.16.71l-.1.07-.29.14-.23.11a2,2,0,0,1-.33.15,9.46,9.46,0,0,1-2.37.62,10.2,10.2,0,0,1-2.36,0,9,9,0,0,1-4-1.55.38.38,0,0,0-.13-.06A1.07,1.07,0,0,0,4.53,43a1,1,0,0,0,0,1.12.48.48,0,0,0,.12.16A12.82,12.82,0,0,0,15.2,47a16.26,16.26,0,0,0,1.61-.4l.38-.14A8.33,8.33,0,0,0,18.33,46a12.12,12.12,0,0,0,2.94-1.89,13.47,13.47,0,0,0,2.38-2.71,16.43,16.43,0,0,0,1.09-2.22,13.08,13.08,0,0,0,3.57,4.94A12.71,12.71,0,0,0,38.82,47a.43.43,0,0,0,.21-.09c.3-.22.78-.68.61-1.18s-.83-.51-1.08-.5a9.11,9.11,0,0,1-4.21-.64,10.63,10.63,0,0,1-2.1-1.17,8.52,8.52,0,0,1-1.67-1.65l-.25-.34L30,41a12.31,12.31,0,0,1-.67-1.36,9.46,9.46,0,0,1-.63-2.33c0-.21,0-.44-.05-.66A10.4,10.4,0,0,0,35.16,27l.34-.12a9.76,9.76,0,0,1,4.62-.2c.39.1.79.2,1.17.33a11.31,11.31,0,0,1,1.16.47,9,9,0,0,1,1.26.8l.24.19.2.16a3,3,0,0,1,.28.24A9.58,9.58,0,0,1,46,30.7a10.77,10.77,0,0,1,1,2.15,9.43,9.43,0,0,1,.31,4.36c0,.37.11,1,.63,1.16s.94-.5,1.08-.74a.29.29,0,0,0,0-.13A13.11,13.11,0,0,0,49.34,32.4Zm-.9,2.9A9.82,9.82,0,0,0,48,32.53a11.63,11.63,0,0,0-1.09-2.35,10.13,10.13,0,0,0-1.73-2.05,2.83,2.83,0,0,0-.37-.32l-.45-.36a8.1,8.1,0,0,0-1.5-.93A9.54,9.54,0,0,0,41.62,26a10.85,10.85,0,0,0-1.27-.36,10.68,10.68,0,0,0-5.12.21,12.13,12.13,0,0,0-2.27,1,11.36,11.36,0,0,0-1.73,1.23l-.11.08,0,0,0,0h0l0,0,0,0-.89.94c-.11.12-.24.29-.38.48l-.32.43a12.24,12.24,0,0,0-1.12,2.18,10.49,10.49,0,0,0-.6,5.1A10.07,10.07,0,0,0,28.36,40a12.73,12.73,0,0,0,.76,1.53l.39.53a4.58,4.58,0,0,0,.3.4,9.49,9.49,0,0,0,1.86,1.82A11.5,11.5,0,0,0,34,45.52a10,10,0,0,0,2.65.68,11.79,11.79,0,0,1-2.66-.3,11.88,11.88,0,0,1-8.49-7.64,6.4,6.4,0,0,1-.2-.62.48.48,0,0,0-.46-.36.49.49,0,0,0-.49.34,25.15,25.15,0,0,1-1.48,3.26,12.8,12.8,0,0,1-2.19,2.5,11.34,11.34,0,0,1-2.74,1.75,8.32,8.32,0,0,1-1,.43l-.37.13a15.14,15.14,0,0,1-1.48.37,12,12,0,0,1-5.57-.32,11.51,11.51,0,0,1-2.52-1.11,10,10,0,0,0,2.72.77,11.09,11.09,0,0,0,2.59,0,10.06,10.06,0,0,0,2.6-.67,2.48,2.48,0,0,0,.44-.2l.58-.28a.55.55,0,0,0,.21-.12,7,7,0,0,0,1.22-.79,10.72,10.72,0,0,0,.95-.87c.31-.31.59-.65.88-1a10.67,10.67,0,0,0,2-4.71,12.45,12.45,0,0,0,.12-2.49,3.44,3.44,0,0,1-.05-.45,6.54,6.54,0,0,0-.1-.7c0-.2-.21-.9-.22-.9L20.83,32l0-.11-.46-1.2c-.06-.14-.16-.34-.27-.55s-.15-.28-.24-.47a12.81,12.81,0,0,0-1.48-2A10.72,10.72,0,0,0,14,25a10.51,10.51,0,0,0-2.59-.49,10.72,10.72,0,0,0-1.48,0H9.82l-.49.08-.26,0-.49.1a9.22,9.22,0,0,0-2.45.89A11.54,11.54,0,0,0,4,27.15a9.77,9.77,0,0,0-1.76,2.1A11.72,11.72,0,0,1,3.65,27a12.27,12.27,0,0,1,4.43-3.41,12.09,12.09,0,0,1,6.14-.94A11.55,11.55,0,0,1,16,23a.5.5,0,0,0,.48-.84L16.39,22a7.55,7.55,0,0,1-.68-.71A12.25,12.25,0,0,1,14,18.49a11.67,11.67,0,0,1-.88-3.13,8.47,8.47,0,0,1-.1-1.13v-.37c0-.57,0-1.08.08-1.53A12.11,12.11,0,0,1,15,7.11,12.22,12.22,0,0,1,16.8,5,9.87,9.87,0,0,0,15.28,7.4a10.76,10.76,0,0,0-.8,2.46,10.4,10.4,0,0,0-.13,2.69,4,4,0,0,0,.06.47l.11.66A8.17,8.17,0,0,0,15,15.3c.14.36.34.75.55,1.16s.45.76.69,1.13a10.86,10.86,0,0,0,3.9,3.33,12.86,12.86,0,0,0,2.35.84l.44.08a6.59,6.59,0,0,0,.71.12h.11a2.37,2.37,0,0,0,.52,0l.49,0h.09l.87,0a.88.88,0,0,0,.3,0l.15,0a4.49,4.49,0,0,0,.61-.1l.52-.09a12.08,12.08,0,0,0,2.31-.84,10.68,10.68,0,0,0,3.91-3.33,10.32,10.32,0,0,0,1.22-2.33,11,11,0,0,0,.44-1.49l.12-.83c0-.18,0-.35.05-.47a9.15,9.15,0,0,0-.13-2.6,11.19,11.19,0,0,0-.81-2.49,9.5,9.5,0,0,0-1.48-2.3,11.66,11.66,0,0,1,1.75,2,11.84,11.84,0,0,1,1,11.38,12,12,0,0,1-1.74,2.82c-.15.18-.32.35-.49.52l-.2.2a.5.5,0,0,0-.08.6.48.48,0,0,0,.55.24,10.17,10.17,0,0,1,1-.22,12.62,12.62,0,0,1,3.41,0,12.26,12.26,0,0,1,3.2.89,11.63,11.63,0,0,1,2.77,1.7A7.39,7.39,0,0,1,45,26l.28.28c.39.42.72.83,1,1.17a12.19,12.19,0,0,1,2.12,5.15A11.48,11.48,0,0,1,48.44,35.3ZM24.77,17.56a9.34,9.34,0,0,1,5.49,1.79,12.7,12.7,0,0,1-1.14.68,11.71,11.71,0,0,1-2.06.75l-.5.09L26,21l-.22,0h-.14l-.83,0h-.6a1.5,1.5,0,0,1-.37,0l-.15,0a4.09,4.09,0,0,1-.61-.1l-.44-.08a10.54,10.54,0,0,1-2.1-.76,10.94,10.94,0,0,1-1.2-.73A9.31,9.31,0,0,1,24.77,17.56ZM15.37,27a1.79,1.79,0,0,1,0-.23,10.05,10.05,0,0,1,2.24,1.73A11.78,11.78,0,0,1,19,30.19l.24.46a3.33,3.33,0,0,1,.21.44c.23.59.37,1,.49,1.21h0l.06.21s.16.62.2.83a6,6,0,0,1,.08.61c0,.17,0,.34.05.45a6.77,6.77,0,0,1,0,.78A9.41,9.41,0,0,1,15.37,27Zm13.25,8.56a10.43,10.43,0,0,1,.59-2.84,12.13,12.13,0,0,1,1-2c.11-.13.22-.27.31-.4a4.08,4.08,0,0,1,.31-.39l.86-.92a11.08,11.08,0,0,1,1.76-1.28,7.21,7.21,0,0,1,.69-.33A9.41,9.41,0,0,1,28.62,35.51Z" fill="#231f20"/><path d="M28.38,24.26l-7.4,0a.52.52,0,0,0-.44.25.52.52,0,0,0,0,.51l3.72,6a.51.51,0,0,0,.43.23h0a.49.49,0,0,0,.42-.24L28.8,25a.47.47,0,0,0,0-.5A.48.48,0,0,0,28.38,24.26ZM24.7,29.75l-2.82-4.53,5.6,0Z" fill="#231f20"/></svg>