<svg xmlns="http://www.w3.org/2000/svg" viewBox="0 0 50 50"><g id="a45688c0-a295-4d87-a2b4-d686456623de" data-name="ICONS"><path d="M27.65,26.25l-11.34,0a7.23,7.23,0,0,0-6.86,7.22L9.42,49l25,0,0-15.55A7.24,7.24,0,0,0,27.65,26.25Z" fill="#fdd600"/><path d="M9.24,15.21l1.06-1L8.89,14a.49.49,0,0,1-.36-.28L8,12.4l-.69,1.26a.52.52,0,0,1-.38.26l-1.43.15,1,1a.5.5,0,0,1,.13.44L6.27,17l1.29-.61a.42.42,0,0,1,.22-.05.57.57,0,0,1,.25.06l1.24.72-.19-1.42A.52.52,0,0,1,9.24,15.21Z" fill="#fdd600"/><path d="M11.69,7.77l-.29,1.4,1.29-.62a.54.54,0,0,1,.21-.05.43.43,0,0,1,.25.07l1.24.71-.18-1.42a.45.45,0,0,1,.16-.43l1.06-1L14,6.21a.49.49,0,0,1-.36-.29l-.59-1.31-.68,1.26a.49.49,0,0,1-.39.26l-1.42.15,1,1A.49.49,0,0,1,11.69,7.77Z" fill="#fdd600"/><path d="M46.25,7.1l-.59-1.3L45,7.05a.47.47,0,0,1-.39.26l-1.42.15,1,1a.49.49,0,0,1,.12.45L44,10.35l1.29-.62a.52.52,0,0,1,.21,0,.51.51,0,0,1,.25.06l1.24.72L46.8,9.05A.51.51,0,0,1,47,8.61l1.06-1-1.41-.26A.49.49,0,0,1,46.25,7.1Z" fill="#fdd600"/><path d="M39,10.28a28.15,28.15,0,0,0-2.65-6.69C35.19,1.64,34.05.75,33.06,1s-1.54,1.6-1.59,3.87h0a33,33,0,0,0-3.82-2c-2.3-1-3.6-1.12-4.1-.39s.08,1.9,1.84,3.69a42.23,42.23,0,0,0,6.09,4.94c.31.22.62.41.93.61l.09.43c1.28,4.84,3.58,9.48,5.64,9.48a1.34,1.34,0,0,0,.35,0c1.4-.37,1.78-2.85,1.5-6a4.82,4.82,0,0,0,1.31.23,1.22,1.22,0,0,0,1.09-.47C43.14,14.32,41.17,12.16,39,10.28Zm-5.71.85a29.84,29.84,0,0,1-.74-4.41c.44.28.88.56,1.35.88a49.78,49.78,0,0,1,4.21,3.21c.31,1.2.53,2.32.69,3.35A37.58,37.58,0,0,1,33.29,11.13Zm-.82-6.24c0-1.87.45-2.81.84-2.91l.09,0c.42,0,1.2.64,2.08,2.14a24.22,24.22,0,0,1,2.14,5c-1.6-1.29-3-2.26-3.16-2.36-.66-.45-1.32-.88-2-1.29C32.49,5.3,32.47,5.08,32.47,4.89ZM32,10.31c-5.4-3.7-7.82-6.65-7.68-7.23a.56.56,0,0,1,.3-.06c.88,0,3.34.91,6.85,3.05a28.22,28.22,0,0,0,.56,4.26Zm6.2,10.32c-.9.25-3.09-2.79-4.59-8.09A36.77,36.77,0,0,0,38.29,15l.66.26C39.29,18.44,38.89,20.46,38.24,20.63Zm1.63-6.06c-.11-.83-.27-1.7-.45-2.57,1.5,1.46,2.2,2.49,2.14,2.84C41.36,15,40.77,14.88,39.87,14.57Z" fill="#231f20"/><path d="M8.91,6.07,8.46,8.2a.5.5,0,0,0,.18.5.49.49,0,0,0,.52.06l2-.94L13,8.9a.47.47,0,0,0,.25.07.54.54,0,0,0,.28-.08.52.52,0,0,0,.22-.48l-.29-2.17L15.1,4.78a.51.51,0,0,0,.15-.51.5.5,0,0,0-.39-.35l-2.15-.4-.89-2a.5.5,0,0,0-.43-.3.49.49,0,0,0-.46.27l-1,1.91-2.17.23A.51.51,0,0,0,7.3,4a.52.52,0,0,0,.11.52Zm1.34-1.69a.49.49,0,0,0,.39-.26l.68-1.26.59,1.31a.49.49,0,0,0,.36.29l1.41.26-1.06,1a.45.45,0,0,0-.16.43l.18,1.42L11.4,6.82a.43.43,0,0,0-.25-.07.54.54,0,0,0-.21,0l-1.29.62L9.94,6a.49.49,0,0,0-.12-.45l-1-1Z" fill="#231f20"/><path d="M8.14,16.76a.47.47,0,0,0,.28-.09.48.48,0,0,0,.22-.48L8.35,14,10,12.57a.5.5,0,0,0,.15-.51.48.48,0,0,0-.39-.35l-2.14-.4-.89-2A.5.5,0,0,0,6.26,9a.48.48,0,0,0-.46.26l-1,1.92-2.17.23a.5.5,0,0,0-.31.84l1.5,1.58L3.33,16a.49.49,0,0,0,.18.49.51.51,0,0,0,.53.06l2-.94,1.9,1.09A.42.42,0,0,0,8.14,16.76ZM6.28,14.6A.57.57,0,0,0,6,14.54a.42.42,0,0,0-.22.05l-1.29.61.3-1.4a.5.5,0,0,0-.13-.44l-1-1,1.43-.15a.52.52,0,0,0,.38-.26l.69-1.26L6.78,12a.49.49,0,0,0,.36.28l1.41.26-1.06,1a.52.52,0,0,0-.16.44l.19,1.42Z" fill="#231f20"/><path d="M47.84,5.46a.51.51,0,0,0-.39-.36L45.3,4.71l-.89-2A.49.49,0,0,0,44,2.42a.47.47,0,0,0-.46.26l-1,1.92-2.17.23a.5.5,0,0,0-.42.32.52.52,0,0,0,.11.52l1.5,1.58-.45,2.13a.5.5,0,0,0,.18.5.49.49,0,0,0,.52.06l2-.94,1.89,1.09a.57.57,0,0,0,.25.06.46.46,0,0,0,.28-.08.51.51,0,0,0,.22-.48l-.29-2.16L47.69,6A.52.52,0,0,0,47.84,5.46Zm-2.63,1.4a.51.51,0,0,0-.16.44l.18,1.42L44,8a.51.51,0,0,0-.25-.06.52.52,0,0,0-.21,0l-1.29.62.29-1.4a.49.49,0,0,0-.12-.45l-1-1,1.43-.15a.47.47,0,0,0,.38-.26l.68-1.25.59,1.3a.49.49,0,0,0,.36.29l1.41.26Z" fill="#231f20"/><path d="M26.08,23.52a.43.43,0,0,0-.19,0H14.51A8.25,8.25,0,0,0,6.67,31.7l0,16.05a.5.5,0,0,0,.5.5l26.05,0h0a.51.51,0,0,0,.35-.15.47.47,0,0,0,.15-.35l0-16A8.24,8.24,0,0,0,26.08,23.52ZM32.69,47.3H27.74l0-14a.5.5,0,0,0-.5-.5h0a.5.5,0,0,0-.5.5l0,14-13.09,0,0-14a.51.51,0,0,0-.5-.5h0a.5.5,0,0,0-.5.5l0,14h-5l0-15.55a7.23,7.23,0,0,1,6.88-7.22H25.78l.08,0a7.25,7.25,0,0,1,6.86,7.25Z" fill="#231f20"/><path d="M12,14.28A8.26,8.26,0,1,0,20.21,6,8.27,8.27,0,0,0,12,14.28ZM20.21,7A7.26,7.26,0,1,1,13,14.28,7.26,7.26,0,0,1,20.21,7Z" fill="#231f20"/></g><g id="ab1a52bc-c0a2-4254-8f30-9fb0af64bac6" data-name="LABELS"><text transform="translate(0.52 54.81)" font-size="6" fill="#231f20" font-family="Roboto-Regular, Roboto">concussion</text></g></svg>