<svg xmlns="http://www.w3.org/2000/svg" viewBox="0 0 50 50"><g id="ae37c78d-6cf0-491f-b060-a597489c7274" data-name="ICONS"><path d="M35.79,46.37a2,2,0,0,0-.87-.2,2.08,2.08,0,0,0-.6.09l-.2.07a1.91,1.91,0,0,0-1.31,1.92L36.52,47A1.94,1.94,0,0,0,35.79,46.37Z" fill="#fdd600"/><path d="M27.46,3.11a.78.78,0,0,0,.05-.58.77.77,0,0,0-.38-.43A.68.68,0,0,0,26.79,2a1,1,0,0,0-.24,0L14.79,5.92a.77.77,0,0,0-.43.38.78.78,0,0,0,0,.58.77.77,0,0,0,.38.43.75.75,0,0,0,.57.05L27,3.49A.77.77,0,0,0,27.46,3.11Z" fill="#fdd600"/><path d="M37.38,47A2.87,2.87,0,0,0,34.09,45L29.34,30.59,32,22.68s0,0,0-.06a.38.38,0,0,0,0-.1.41.41,0,0,0,0-.11s0,0,0-.05l-5.91-18,.53-.17A1.75,1.75,0,1,0,25.56.89L13.8,4.76a1.69,1.69,0,0,0-1,.87A1.73,1.73,0,0,0,12.68,7a1.76,1.76,0,0,0,.87,1,1.84,1.84,0,0,0,.79.19,1.71,1.71,0,0,0,.55-.09l.54-.18,5.91,18s0,0,0,0a.48.48,0,0,0,.15.22h0l6.86,4.77,4.75,14.44a2.9,2.9,0,0,0-1.5,3.52.5.5,0,0,0,.48.34.47.47,0,0,0,.16,0l4.79-1.58A.49.49,0,0,0,37.38,47ZM22.23,25.41l-3.17-9.65,8.8-2.89L31,22.51,28.55,29.8ZM14,7.1a.8.8,0,0,1-.37-.44.78.78,0,0,1,0-.58.73.73,0,0,1,.44-.37L25.87,1.84a.67.67,0,0,1,.24,0,.84.84,0,0,1,.34.08.77.77,0,0,1,.37.44.75.75,0,0,1,0,.57.79.79,0,0,1-.44.38L14.58,7.14A.83.83,0,0,1,14,7.1ZM25.17,4.7l2.37,7.22-8.79,2.89L16.37,7.6ZM32.5,48.05a1.91,1.91,0,0,1,1.32-1.92l.2-.07a2,2,0,0,1,.6-.09,2,2,0,0,1,.86.2,2,2,0,0,1,.74.66Z" fill="#231f20"/></g><g id="b80aa4a0-0c72-4a52-b106-5b591d17a2fe" data-name="LABELS"><text transform="translate(-0.37 54.96)" font-size="6" fill="#231f20" font-family="Roboto-Regular, Roboto">crutch</text></g></svg>