<svg xmlns="http://www.w3.org/2000/svg" viewBox="0 0 50 50"><g id="a52320d5-e0f6-4393-8bcd-32c6c2863af2" data-name="ICONS"><path d="M20.14,3.77v29.4a.51.51,0,0,0,.31-.46v-2.8l8.28,5.24-8.28,5.23V37.59a.52.52,0,0,0-.31-.47V49H42V3.77ZM29.62,14a4.44,4.44,0,1,1,4.44-4.44A4.44,4.44,0,0,1,29.62,14Z" fill="#fdd600"/><path d="M40.79,1H17.89a.5.5,0,0,0-.5.5V32.21h1V2h21.9V47.23H18.39V38.09h-1v9.64a.5.5,0,0,0,.5.5h22.9a.5.5,0,0,0,.5-.5V1.52A.5.5,0,0,0,40.79,1Z" fill="#231f20"/><polygon points="28.62 12.03 30.61 12.03 30.61 10.55 32.09 10.55 32.09 8.56 30.61 8.56 30.61 7.08 28.62 7.08 28.62 8.56 27.14 8.56 27.14 10.55 28.62 10.55 28.62 12.03" fill="#231f20"/><path d="M29.62,15a5.44,5.44,0,1,0-5.44-5.44A5.45,5.45,0,0,0,29.62,15Zm0-9.88a4.44,4.44,0,1,1-4.44,4.44A4.44,4.44,0,0,1,29.62,5.11Z" fill="#231f20"/><polygon points="26.24 23.14 28.4 23.14 28.4 22.25 26.24 22.25 26.24 20.95 28.77 20.95 28.77 20.03 25.11 20.03 25.11 25.51 28.78 25.51 28.78 24.61 26.24 24.61 26.24 23.14" fill="#231f20"/><path d="M33.26,22.62a1.69,1.69,0,0,0,.24-.93A1.46,1.46,0,0,0,33,20.47,2.28,2.28,0,0,0,31.48,20h-2v5.48h1.13v-2h.9l1,2h1.21v-.05l-1.19-2.24A1.67,1.67,0,0,0,33.26,22.62Zm-1.12-.24a1,1,0,0,1-.66.21h-.91V21h.91a.89.89,0,0,1,.67.22.93.93,0,0,1,0,1.21Z" fill="#231f20"/><polygon points="30.61 7.08 28.62 7.08 28.62 8.56 27.14 8.56 27.14 10.55 28.62 10.55 28.62 12.03 30.61 12.03 30.61 10.55 32.09 10.55 32.09 8.56 30.61 8.56 30.61 7.08" fill="#231f20"/><path d="M18.39,38.09h1.06v3.19a.49.49,0,0,0,.26.44.48.48,0,0,0,.24.06.48.48,0,0,0,.26-.07l9.72-6.14a.49.49,0,0,0,.24-.42.51.51,0,0,0-.24-.43l-9.72-6.14a.5.5,0,0,0-.5,0,.51.51,0,0,0-.26.44v3.2h-11a.48.48,0,0,0-.36.15.45.45,0,0,0-.14.36l.13,4.88a.51.51,0,0,0,.5.49h9.8ZM9,33.21H20a.51.51,0,0,0,.5-.5v-2.8l8.28,5.24-8.28,5.23V37.59a.5.5,0,0,0-.5-.5H9.08Z" fill="#231f20"/></g><g id="a89d2134-f978-4ef2-b2b0-37c97de5093d" data-name="LABELS"><text transform="translate(0.02 54.88)" font-size="6" fill="#231f20" font-family="Roboto-Regular, Roboto">eme<tspan x="11.62" y="0" letter-spacing="-0.01em">r</tspan><tspan x="13.59" y="0">gency-</tspan><tspan x="31.08" y="0" letter-spacing="-0.01em">r</tspan><tspan x="33.05" y="0">oom</tspan></text></g></svg>