<svg xmlns="http://www.w3.org/2000/svg" viewBox="0 0 50 50"><g id="f8a21008-4af8-44f7-b342-3bb8a23f72a2" data-name="ICONS"><path d="M36.65,27.36A12.76,12.76,0,0,1,33.71,25a10.63,10.63,0,0,1-1.93-4.4c0-.63,0-.63,6-.63.25,0,.43-.3.53-.55a4.55,4.55,0,0,0,.28-1.69c0-1.49-.48-2.43-.81-2.43-.07,0-3,0-5.87,0a.52.52,0,0,1-.46-.29l-1.55-3.4A.51.51,0,0,1,30.1,11L32,9.63,29.53,6.71,26.6,9.21a.5.5,0,0,1-.68,0l-.07-.07A4.22,4.22,0,0,0,23.92,7.8a.49.49,0,0,1-.32-.5l.17-2.57h-5L19,7.08a.51.51,0,0,1-.37.51,6.85,6.85,0,0,0-2.83,1.53.5.5,0,0,1-.29.12H7.91A31.05,31.05,0,0,1,9,19.16c-.07,1.34-.28,2.77-.51,4.29-.6,4-1.22,8.1.83,10.5A15,15,0,0,0,13,36.79a10.11,10.11,0,0,1,1.61,1.07,8.73,8.73,0,0,1,.94,1.3c.3.47.65,1,1.06,1.58a9,9,0,0,0,3.25,3c4.75,2.22,14.64,6.83,20.47,4.54,2.14-.85,2.89-8.56,2.7-12.46C42.86,31.52,39.42,29.22,36.65,27.36Z" fill="#fdd600"/><path d="M42.32,33.94c-.24-4.77-4.07-7.34-6.86-9.22a12.23,12.23,0,0,1-2.71-2.14,10.05,10.05,0,0,1-1.62-3.39c.65,0,2,0,4.93,0A1.58,1.58,0,0,0,37.51,18a5.4,5.4,0,0,0,.36-2.09c0-1.71-.56-3.43-1.81-3.43l-5.55,0L29.26,9.8l2-1.48A.51.51,0,0,0,31.5,8a.47.47,0,0,0-.11-.38L28.21,3.87a.5.5,0,0,0-.7-.05l-3,2.53a4.58,4.58,0,0,0-1.68-1.16l.19-2.73a.5.5,0,0,0-.5-.54h-6a.52.52,0,0,0-.37.16.5.5,0,0,0-.13.37l.14,2.48a7.8,7.8,0,0,0-2.7,1.51h-8a.51.51,0,0,0-.4.2C5,6.85,5,7,5.11,7.41A30.19,30.19,0,0,1,6.25,17.3C6.18,18.59,6,20,5.74,21.49,5.11,25.7,4.45,30,6.8,32.79a15.51,15.51,0,0,0,4,3.05,9.42,9.42,0,0,1,1.43.95A7.94,7.94,0,0,1,13,37.9c.31.48.67,1,1.1,1.62a9.84,9.84,0,0,0,3.62,3.3c3.92,1.83,11.24,5.25,17.21,5.25A11.17,11.17,0,0,0,39,47.38C42.21,46.11,42.44,36.3,42.32,33.94ZM16.83,5.78a.5.5,0,0,0,.37-.51l-.13-2.35h5l-.18,2.57a.48.48,0,0,0,.32.5A4.24,4.24,0,0,1,24.1,7.31l.07.07a.51.51,0,0,0,.68,0l2.93-2.5,2.5,2.93-1.93,1.4a.5.5,0,0,0-.17.61l1.23,2.7-4.12.06c-1.7,0-2.82.53-3.53,2.87A4.76,4.76,0,0,0,22.11,19a11,11,0,0,0-4.21,1.6l0,0a7.58,7.58,0,0,1-6.3-7.49,7.7,7.7,0,0,1,2.32-5.7l0-.08s.05,0,.06,0A6.85,6.85,0,0,1,16.83,5.78ZM38.62,46.45c-5.84,2.3-15.72-2.32-20.47-4.54a8.9,8.9,0,0,1-3.25-3c-.41-.56-.76-1.11-1.06-1.57a7.76,7.76,0,0,0-.94-1.3A10.77,10.77,0,0,0,11.29,35a14.72,14.72,0,0,1-3.73-2.84c-2-2.4-1.43-6.52-.83-10.5.23-1.51.44-2.95.51-4.29A31.05,31.05,0,0,0,6.16,7.44h6.35a8.9,8.9,0,0,0-1.94,5.68,8.58,8.58,0,0,0,6.36,8.31c-3.61,3.32-2.85,6.08-2.81,6.2a.49.49,0,0,0,.48.36l.14,0a.51.51,0,0,0,.34-.62c0-.1-.67-2.64,3.22-5.78A10.81,10.81,0,0,1,23,19.91a.51.51,0,0,0,.41-.31.5.5,0,0,0-.07-.5,3.85,3.85,0,0,1-.61-3.34c.59-2,1.37-2.13,2.6-2.16.84,0,2.79,0,4.8-.07h.07l5.87,0c.38,0,.81,1.06.81,2.43a4.61,4.61,0,0,1-.28,1.7c-.1.25-.28.54-.53.54-6,0-6,0-6,.64A10.83,10.83,0,0,0,32,23.19a12.5,12.5,0,0,0,2.94,2.36c2.77,1.86,6.21,4.17,6.42,8.44C41.51,37.89,40.76,45.61,38.62,46.45Z" fill="#231f20"/></g><g id="ae411da0-6cba-4764-86c8-fbcb8c35278e" data-name="LABELS"><text transform="translate(0.62 55.03)" font-size="6" fill="#231f20" font-family="Roboto-Regular, Roboto">hea<tspan x="9.75" y="0" letter-spacing="0.02em">r</tspan><tspan x="11.92" y="0">t</tspan></text></g></svg>