<svg xmlns="http://www.w3.org/2000/svg" viewBox="0 0 50 50"><g id="b9c92977-53a0-472b-bb99-141c487e383d" data-name="ICONS"><path d="M43.75,14.1a8.48,8.48,0,0,0-6-2.69c-3,0-5,1.06-5.93,3-1.14,2.49-.31,6.36,1.94,9a7.64,7.64,0,0,0,1.5,1.37.51.51,0,0,1,.13.69.52.52,0,0,1-.42.22.51.51,0,0,1-.28-.09,7.45,7.45,0,0,1-.95-.77,3.27,3.27,0,0,1-1.94,2.44v1.94a3.51,3.51,0,0,1,2,2.4,4.22,4.22,0,0,1,1.74-.85.49.49,0,0,1,.59.38.5.5,0,0,1-.38.6A3.5,3.5,0,0,0,34,32.83l-.1.07-.07.11a9.14,9.14,0,0,0-1.45,8.89c.9,2.09,2.76,3.23,5.4,3.3a8.08,8.08,0,0,0,5.83-2.51c3.17-3.09,5.15-8.6,5.15-14.38S46.9,17.25,43.75,14.1Z" fill="#fdd600"/><path d="M18.92,20.17a7.45,7.45,0,0,1-1,.77.47.47,0,0,1-.28.09.5.5,0,0,1-.28-.91,8.26,8.26,0,0,0,1.49-1.37c2.25-2.63,3.09-6.5,1.94-9-.9-2-3-3-5.93-3h0A8.4,8.4,0,0,0,9,9.41c-3.16,3.14-5,8.45-5,14.2s2,11.3,5.15,14.39a8,8,0,0,0,5.83,2.51c2.63-.07,4.5-1.22,5.4-3.3a9.16,9.16,0,0,0-1.46-8.9.24.24,0,0,1-.06-.11.33.33,0,0,1-.1-.06,3.62,3.62,0,0,0-1.78-1.07.5.5,0,0,1,.21-1,4.16,4.16,0,0,1,1.74.85,3.5,3.5,0,0,1,2-2.4V22.61A3.31,3.31,0,0,1,18.92,20.17Z" fill="#fdd600"/><path d="M42.7,11.64a9.38,9.38,0,0,0-6.63-3h0c-4.29,0-6.09,2-6.84,3.62-1.44,3.15-.16,7.26,1.89,9.82,0,.14,0,.34,0,.4a2.36,2.36,0,0,1-2.34,2.33,2.33,2.33,0,0,1-2.34-2.33v-.6c0-3.4,0-3.4-.18-3.6a.52.52,0,0,0-.86.35.77.77,0,0,0,0,.15c0,.37,0,2.27,0,3.09v.61a3.34,3.34,0,0,0,3.34,3.33l.33,0v1.46c-.12,0-.23,0-.35,0a3.4,3.4,0,0,0-3.41,3.39v.74c0,11.17,0,13.84,0,14.1l.49.08.35.36c.21-.21.22-.22.19-14.54v-.74a2.4,2.4,0,0,1,2.41-2.39,2.57,2.57,0,0,1,.62.08h.05s0,0,0,0a2.56,2.56,0,0,1,1.79,2.42,10.29,10.29,0,0,0-1.49,9.81c.74,1.72,2.43,3.79,6.29,3.9h.23a9.05,9.05,0,0,0,6.32-2.81C46,38.34,48,32.69,48,26.56S46,15,42.7,11.64Zm-.81,29.3a8.08,8.08,0,0,1-5.83,2.51c-2.64-.07-4.5-1.21-5.4-3.3a9.14,9.14,0,0,1,1.45-8.89l.07-.11.1-.07A3.5,3.5,0,0,1,34.05,30a.5.5,0,0,0,.38-.6.49.49,0,0,0-.59-.38,4.22,4.22,0,0,0-1.74.85,3.51,3.51,0,0,0-2-2.4V25.55A3.27,3.27,0,0,0,32,23.11a7.45,7.45,0,0,0,.95.77.51.51,0,0,0,.28.09.52.52,0,0,0,.42-.22.51.51,0,0,0-.13-.69,7.64,7.64,0,0,1-1.5-1.37c-2.25-2.63-3.08-6.5-1.94-9,.91-2,3-3,5.93-3a8.48,8.48,0,0,1,6,2.69c3.15,3.15,5,8.45,5,14.21S45.06,37.85,41.89,40.94Z" fill="#231f20"/><path d="M23.87,26.66v-.74a3.4,3.4,0,0,0-3.41-3.39c-.12,0-.23,0-.34,0V21.11c.11,0,.22,0,.34,0a3.34,3.34,0,0,0,3.34-3.33V17.2c0-.83,0-2.72,0-3.09a.77.77,0,0,0,0-.15.52.52,0,0,0-.86-.35c-.19.19-.2.2-.18,3.59v.61a2.34,2.34,0,0,1-2.34,2.33,2.38,2.38,0,0,1-.7-.11,2.31,2.31,0,0,1-1.64-2.22c0-.07,0-.26,0-.41,2.05-2.55,3.33-6.66,1.88-9.81C19.25,6,17.45,4,13.16,4A9.43,9.43,0,0,0,6.5,7c-3.34,3.33-5.33,8.9-5.33,14.91s2,11.79,5.45,15.1A9.06,9.06,0,0,0,13,39.77h.23c3.85-.11,5.54-2.18,6.29-3.91a10.28,10.28,0,0,0-1.5-9.8,2.57,2.57,0,0,1,1.79-2.42l0,0h.05a2.09,2.09,0,0,1,.61-.08,2.4,2.4,0,0,1,2.41,2.39v.74c0,14.32,0,14.32.18,14.53l.35-.35.49-.08C23.87,40.5,23.84,37.83,23.87,26.66ZM17.1,25.2a4.16,4.16,0,0,0-1.74-.85.5.5,0,1,0-.21,1,3.62,3.62,0,0,1,1.78,1.07.33.33,0,0,0,.1.06.24.24,0,0,0,.06.11,9.16,9.16,0,0,1,1.46,8.9c-.9,2.08-2.77,3.23-5.4,3.3a8,8,0,0,1-5.83-2.51c-3.18-3.09-5.15-8.6-5.15-14.39s1.88-11.06,5-14.2A8.4,8.4,0,0,1,13.13,5h0c3,0,5,1.06,5.93,3,1.15,2.49.31,6.36-1.94,9a8.26,8.26,0,0,1-1.49,1.37.5.5,0,0,0,.28.91.47.47,0,0,0,.28-.09,7.45,7.45,0,0,0,1-.77,3.31,3.31,0,0,0,1.94,2.44V22.8A3.5,3.5,0,0,0,17.1,25.2Z" fill="#231f20"/></g><g id="a5b52bfe-d20f-4c03-860f-ccfd22fa34c3" data-name="LABELS"><text transform="translate(0.06 55.03)" font-size="6" fill="#231f20" font-family="Roboto-Regular, Roboto">kidn<tspan x="11.19" y="0" letter-spacing="-0.01em">e</tspan><tspan x="14.33" y="0">ys</tspan></text></g></svg>