<svg xmlns="http://www.w3.org/2000/svg" viewBox="0 0 50 50"><g id="b042de94-1e7a-4cdc-922d-625382837899" data-name="ICONS"><path d="M36.64,35.45l-.11-.14c-4.72-5.76-9.68-12.15-14.76-19l-.14-.21a13,13,0,0,1-1.88-3.67A18,18,0,0,1,19.05,8,41.29,41.29,0,0,1,19,3.41H15.89L16,16.73c.21,2.84.32,5.88.32,9.1,0,4-.22,7.71-.54,11.13a7.25,7.25,0,0,0-1.94,3c-1.11,3.43.95,6.57,1.34,7.17a9.36,9.36,0,0,0,1,1.22,16.92,16.92,0,0,1,1.64-1.61A14.67,14.67,0,0,1,25,43.18c2-.31,6.05-.39,6.61,1.25.43,1.27-1.3,3.34-4,5,6.82.76,11.79-3.19,12.41-7.23C40.3,39.91,38.61,37.84,36.64,35.45Z" fill="#fdd600"/><path d="M35.67,33.06l-.12-.14c-4.7-5.74-9.66-12.12-14.72-19a13,13,0,0,1-1.48-2.58,14,14,0,0,1-.56-1.53,13.77,13.77,0,0,1-.51-3l0-1.76-.08-3.28a.48.48,0,0,0-.51-.49.51.51,0,0,0-.49.52l.12,5.05a14.56,14.56,0,0,0,.55,3.22,13.72,13.72,0,0,0,2.05,4.21l.14.21c5.08,6.86,10,13.25,14.76,19l.11.14c2,2.39,3.66,4.46,3.31,6.73-.73,4.72-9.68,6.73-12.41,7.23h0a.5.5,0,0,0,.09,1H26c3.71-.69,12.42-2.84,13.23-8.07C39.61,37.87,37.69,35.53,35.67,33.06Z" fill="#231f20"/><path d="M30.43,42.26a.5.5,0,0,0-.24-.67,12.51,12.51,0,0,0-5.7-1.26,10.18,10.18,0,0,0-6,2,10,10,0,0,0-2.62,3,1.43,1.43,0,0,1-1.14.72,1.57,1.57,0,0,1-1.3-.57,7.56,7.56,0,0,1,4.62-12.27.51.51,0,0,0,.4-.59.51.51,0,0,0-.59-.4A8.57,8.57,0,0,0,12.69,46a2.5,2.5,0,0,0,2,.94h.19a2.45,2.45,0,0,0,1.94-1.22,8.64,8.64,0,0,1,2.35-2.67,9.23,9.23,0,0,1,5.53-1.76,11.65,11.65,0,0,1,5.1,1.16A.51.51,0,0,0,30.43,42.26Z" fill="#231f20"/></g><g id="a1f9ec1e-dc5d-47fd-a308-51f166f1ed5c" data-name="LABELS"><text transform="translate(-0.08 54.96)" font-size="6" fill="#231f20" font-family="Roboto-Regular, Roboto">nose</text></g></svg>