<svg xmlns="http://www.w3.org/2000/svg" viewBox="0 0 50 50"><g id="b9412c2e-a2ba-4425-9f7e-74f0d1bf5d6e" data-name="ICONS"><path d="M26.64,5.11A21.64,21.64,0,1,0,48.27,26.75,21.67,21.67,0,0,0,26.64,5.11Zm8.26,9.41a5,5,0,0,1,4.75,8.7,5,5,0,1,1-4.75-8.7ZM8.81,16.23a5,5,0,1,1,2,6.72,4.94,4.94,0,0,1-2-6.72Zm9.32,17a4.95,4.95,0,1,1-.4-3.77A4.95,4.95,0,0,1,18.13,33.23ZM24.72,6.6a5,5,0,1,1-5,5A5,5,0,0,1,24.72,6.6Zm2.66,18.75a2.5,2.5,0,1,1-2.49-2.5A2.5,2.5,0,0,1,27.38,25.35ZM24.79,43.7a5,5,0,1,1,5-5A5,5,0,0,1,24.79,43.7Zm16.62-9.76a5,5,0,1,1-5.75-7.13,4.8,4.8,0,0,1,1.4-.21,5,5,0,0,1,4.75,3.57A4.91,4.91,0,0,1,41.41,33.94Z" fill="#fdd600"/><path d="M25,2.36A22.64,22.64,0,1,0,47.64,25,22.67,22.67,0,0,0,25,2.36Zm0,44.28A21.64,21.64,0,1,1,46.64,25,21.67,21.67,0,0,1,25,46.64Z" fill="#231f20"/><path d="M21.39,25.35a3.5,3.5,0,1,0,3.5-3.5A3.5,3.5,0,0,0,21.39,25.35Zm6,0a2.5,2.5,0,1,1-2.49-2.5A2.5,2.5,0,0,1,27.38,25.35Z" fill="#231f20"/><path d="M24.72,17.51a6,6,0,1,0-6-6A6,6,0,0,0,24.72,17.51Zm0-10.91a5,5,0,1,1-5,5A5,5,0,0,1,24.72,6.6Z" fill="#231f20"/><path d="M24.79,32.78a6,6,0,1,0,6,6A6,6,0,0,0,24.79,32.78Zm0,10.92a5,5,0,1,1,5-5A5,5,0,0,1,24.79,43.7Z" fill="#231f20"/><path d="M39.91,26.33a6,6,0,1,0-2.86,11.2,6.18,6.18,0,0,0,1.69-.25,6,6,0,0,0,1.17-11Zm1.5,7.61a5,5,0,1,1-5.75-7.13,4.8,4.8,0,0,1,1.4-.21,5,5,0,0,1,4.75,3.57A4.91,4.91,0,0,1,41.41,33.94Z" fill="#231f20"/><path d="M10.3,23.83a5.9,5.9,0,0,0,2.85.73,6.16,6.16,0,0,0,1.69-.24,6,6,0,1,0-4.54-.49Zm-1.49-7.6a5,5,0,1,1,2,6.72,4.94,4.94,0,0,1-2-6.72Z" fill="#231f20"/><path d="M18.6,29a6,6,0,1,0-5.22,8.81A6,6,0,0,0,18.6,29Zm-.47,4.25a4.95,4.95,0,1,1-.4-3.77A4.95,4.95,0,0,1,18.13,33.23Z" fill="#231f20"/><path d="M37.28,24.83A6,6,0,1,0,32,21.73,6,6,0,0,0,37.28,24.83ZM34.9,14.52a5,5,0,0,1,4.75,8.7,5,5,0,1,1-4.75-8.7Z" fill="#231f20"/></g><g id="bb035201-8896-497e-bcb0-e9b5cec03855" data-name="LABELS"><text transform="translate(0.98 55.09)" font-size="6" fill="#231f20" font-family="Roboto-Regular, Roboto">or-light</text></g></svg>