<svg xmlns="http://www.w3.org/2000/svg" viewBox="0 0 50 50"><g id="a484d68f-f96a-4194-b360-04cc79a88b10" data-name="ICONS"><path d="M14.59,21.82H22.8a.5.5,0,0,0,.5-.5V19.19l2.4,1.66L27.6,19a6.33,6.33,0,0,0-9-8.95l-1.5,1.5a.5.5,0,0,1-.7,0L15,10A6.33,6.33,0,0,0,6,19l10.8,10.8,4.86-4.86h-7Z" fill="#fdd600"/><path d="M46.74,24.8a6.33,6.33,0,0,0-8.94,0l-1.5,1.5a.51.51,0,0,1-.71,0l-1.5-1.5A6.24,6.24,0,0,0,29.62,23a7.37,7.37,0,0,0-.82.05l.5.35L23.61,27.3a6.5,6.5,0,0,0-.32,2,6.29,6.29,0,0,0,1.86,4.48L36,44.55l10.79-10.8a6.31,6.31,0,0,0,0-8.95Z" fill="#fdd600"/><path d="M45.7,22.34a7.33,7.33,0,0,0-10.36,0L34.2,23.49l-1.15-1.15a7.34,7.34,0,0,0-6.39-2l-1.44-1L26.56,18A7.33,7.33,0,0,0,16.19,7.6L15.05,8.74,13.91,7.6A7.33,7.33,0,0,0,3.54,18L14.7,29.11a.48.48,0,0,0,.7,0l3.23-3.22h2.1a7.27,7.27,0,0,0,2,6.81L33.84,43.86a.52.52,0,0,0,.36.14.52.52,0,0,0,.35-.14L45.7,32.7a7.32,7.32,0,0,0,0-10.36ZM21.76,25.89h.54v2.58a.5.5,0,0,0,.27.45.59.59,0,0,0,.23,0,.47.47,0,0,0,.28-.09l7.38-5.12a.51.51,0,0,0,0-.82L28,21.2a6.24,6.24,0,0,1,4.39,1.85l1.5,1.5a.52.52,0,0,0,.36.14.52.52,0,0,0,.35-.14l1.5-1.5A6.33,6.33,0,1,1,45,32L34.2,42.8,23.4,32a6.28,6.28,0,0,1-1.64-6.11ZM8.73,6.45A6.31,6.31,0,0,1,13.2,8.3l1.5,1.5a.48.48,0,0,0,.7,0l1.5-1.5a6.33,6.33,0,0,1,10.8,4.48,6.29,6.29,0,0,1-1.85,4.47l-1.47,1.47-1.3-.9a.47.47,0,0,0-.51,0,.48.48,0,0,0-.27.44v2.59H14.08a.5.5,0,0,0-.5.51l.1,4.07a.51.51,0,0,0,.5.49h3l-2.17,2.16L4.25,17.25A6.33,6.33,0,0,1,8.73,6.45Zm5.94,18.44-.08-3.07H22.8a.5.5,0,0,0,.5-.5V19.19l6,4.16-6,4.17V25.39a.5.5,0,0,0-.5-.5Z" fill="#231f20"/></g><g id="f71664c3-8ade-4f06-9d5e-69b10bd4ee2b" data-name="LABELS"><text transform="translate(-0.36 54.91)" font-size="6" fill="#231f20" font-family="Roboto-Regular, Roboto">o<tspan x="3.42" y="0" letter-spacing="-0.01em">r</tspan><tspan x="5.4" y="0">gan-t</tspan><tspan x="18.95" y="0" letter-spacing="-0.02em">r</tspan><tspan x="20.87" y="0">ansplant</tspan></text></g></svg>