<svg id="b4802fd6-8ab9-47ab-929d-221c9217b683" data-name="ICONS" xmlns="http://www.w3.org/2000/svg" viewBox="0 0 50 50"><polygon points="25.74 49.48 25.74 22.03 18.98 22.03 18.98 49.48 19.89 49.48 24.82 49.48 25.74 49.48" fill="#fdd600"/><path d="M28.35,12.23l8.07-5.5L36,5.39l-9.75.12-.33-1L13.78,8.29,16.52,17l1.62-.51V15.36l4.93-1.55V15l5.6-1.75Z" fill="#fdd600"/><path d="M35.82,5l-.66-2.1a.53.53,0,0,0-.52-.38l-9.36.11L25,1.9a.55.55,0,0,0-.26-.32.58.58,0,0,0-.41,0L11.2,5.68a.53.53,0,0,0-.36.67l3.07,9.77a.55.55,0,0,0,.26.32.57.57,0,0,0,.25.06l.16,0,2.48-.78v3.5h-.37a.54.54,0,0,0-.54.54V48.27a.54.54,0,0,0,.54.53h7.84a.54.54,0,0,0,.54-.53V19.74a.54.54,0,0,0-.54-.54h-.38V13.47l3.6-1.13a.54.54,0,0,0,.36-.67l-.24-.77,7.74-5.26A.54.54,0,0,0,35.82,5Zm-8.9,6.44L14.77,15.29,12,6.54l12.14-3.8ZM17.23,47.73V20.28H24V47.73H17.23ZM23.07,19.2H18.14V15.36l4.93-1.55Zm4.46-9.37L25.62,3.74l8.63-.1L34.67,5Z" fill="#231f20"/></svg>