<svg id="a1cf9b11-0e39-4e8e-93d4-655f7b54791f" data-name="ICONS" xmlns="http://www.w3.org/2000/svg" viewBox="0 0 50 50"><path d="M24.18,19.36a8.56,8.56,0,1,0-8.55-8.55A8.57,8.57,0,0,0,24.18,19.36Zm0-16.11a7.56,7.56,0,1,1-7.55,7.56A7.57,7.57,0,0,1,24.18,3.25Z" fill="#231f20"/><path d="M32.61,23.28H28.42L26.9,25.49,26.45,24v-.71h-1v.23H23.24v-.23h-1v.66l-.46,1.55-1.52-2.21h-.64a8.4,8.4,0,0,0-8,8.38l0,17.93,28.93,0,0-17.93A8.39,8.39,0,0,0,32.61,23.28Zm-8.26,5.95-1.84-2.69.6-2h2.46l.6,2.06Zm10.41-.89h-4.6V27.05h4.6Z" fill="#fdd600"/><path d="M30.88,20.53H17.82a9.4,9.4,0,0,0-9,9.38l0,18.43a.5.5,0,0,0,.5.5l15,0h0l14.92,0h0a.52.52,0,0,0,.35-.14.53.53,0,0,0,.15-.36l0-18.43A9.4,9.4,0,0,0,30.88,20.53Zm-21,9.36a8.4,8.4,0,0,1,8-8.38l6,8.75V47.84H16.76l0-16.17a.5.5,0,0,0-.5-.5h0a.5.5,0,0,0-.5.5l0,16.17H9.85Zm14.48-.66-1.84-2.69.6-2h2.46l.6,2.06Zm-1.11-7.71h2.21v2H23.24Zm-1,0v2.41l-.46,1.55-2.71-4Zm4.66,4L26.45,24V21.53h3.17ZM38.78,47.86H33l0-16.16a.5.5,0,0,0-.5-.5h0a.5.5,0,0,0-.5.5l0,16.16h-7.1V30.26l6-8.73h0a8.39,8.39,0,0,1,8,8.4Z" fill="#231f20"/><path d="M35.76,28.84V26.55a.5.5,0,0,0-.5-.5h-5.6a.5.5,0,0,0-.5.5v2.29a.5.5,0,0,0,.5.5h5.6A.5.5,0,0,0,35.76,28.84Zm-1-.5h-4.6V27.05h4.6Z" fill="#231f20"/></svg>