<svg xmlns="http://www.w3.org/2000/svg" viewBox="0 0 50 50"><g id="bac92089-c0ba-444e-948d-2ed8849be945" data-name="ICONS"><path d="M36,25h0c-.66-2.91-1.31-5.81-2-8.71-.13-2-.27-4-.41-6A8,8,0,0,0,26.2,3.33a7.93,7.93,0,0,0-7.59,6.8l.26,0a10,10,0,0,0,1.9-.18A10.72,10.72,0,0,0,26,7.25l5.23,2.07a7.26,7.26,0,0,1-13,6.31l-.06,1-1.65,8.46h0a8.12,8.12,0,0,0-4.07,7l0,17.29,27.89,0,0-17.29A8.06,8.06,0,0,0,36,25ZM33.62,11.22a1.38,1.38,0,0,1-.9,1.29,5.49,5.49,0,0,0,0-.58,8.25,8.25,0,0,0-.27-2.06A1.37,1.37,0,0,1,33.62,11.22Zm-10,11.07h2.11v1.88H23.58Zm-1,2.3-.43,1.46-2.58-3.76h3Zm2.06,5.09-1.76-2.56.58-1.95H25.8l.58,2Zm2.47-3.61-.42-1.43V22.29h3Zm7.56,2.77H30.26V27.62h4.41Z" fill="#fdd600"/><path d="M35,22.51l-1.92-9.09A2.36,2.36,0,0,0,33,9C32.53,4.29,28.83.63,24.46.58h-.08c-4.47,0-8.23,3.73-8.62,8.56a2.34,2.34,0,0,0-.07,4.13l-1.53,9.26a9.09,9.09,0,0,0-4.48,7.82l0,17.79a.5.5,0,0,0,.5.5l14.47,0h0l14.41,0h0a.47.47,0,0,0,.35-.15.51.51,0,0,0,.15-.35l0-17.79A9.09,9.09,0,0,0,35,22.51ZM10.68,30.35a8.09,8.09,0,0,1,7.67-8.07l5.79,8.44V47.66H17.33l0-15.59a.5.5,0,0,0-.5-.5h0a.5.5,0,0,0-.5.5l0,15.59H10.66Zm6.1-21.44c.48-4.18,3.82-7.37,7.67-7.33a8,8,0,0,1,7.47,6.93L26.1,6.2a.5.5,0,0,0-.53.11,9.85,9.85,0,0,1-5,2.68A9,9,0,0,1,16.78,8.91Zm.43,3a7.29,7.29,0,0,1,.25-1.88,9.55,9.55,0,0,0,1.41.1,10,10,0,0,0,1.9-.18A10.72,10.72,0,0,0,26,7.25l5.23,2.07a7.27,7.27,0,1,1-14,2.61Zm15.51.58a5.49,5.49,0,0,0,0-.58,8.25,8.25,0,0,0-.27-2.06,1.37,1.37,0,0,1,.24,2.64ZM16.46,9.92a8.26,8.26,0,0,0-.25,2c0,.17,0,.34,0,.5a1.36,1.36,0,0,1,.23-2.51Zm8,10.28a8.27,8.27,0,0,0,7.85-5.68L33.9,22a9.06,9.06,0,0,0-3-.66H18.34a9.18,9.18,0,0,0-3.07.7l1.27-7.74A8.28,8.28,0,0,0,24.48,20.2Zm.16,9.48-1.76-2.56.58-1.95H25.8l.58,2Zm1.05-5.51H23.58V22.29h2.11Zm-3.11-1.88v2.3l-.43,1.46-2.58-3.76Zm4.11,2.35V22.29h3l-2.58,3.77Zm11.86,23H33l0-15.59a.51.51,0,0,0-.5-.5h0a.5.5,0,0,0-.5.5l0,15.59H25.14V30.72L30.9,22.3a8.09,8.09,0,0,1,7.67,8.09Z" fill="#231f20"/><path d="M35.17,26.62H29.76a.51.51,0,0,0-.5.5v2.22a.5.5,0,0,0,.5.5h5.41a.5.5,0,0,0,.5-.5V27.12A.5.5,0,0,0,35.17,26.62Zm-.5,2.22H30.26V27.62h4.41Z" fill="#231f20"/></g><g id="b9316d91-8dfc-40b8-9124-6afba6065b40" data-name="LABELS"><text transform="translate(-0.13 54.81)" font-size="6" fill="#231f20" font-family="Roboto-Regular, Roboto">pharmacist-<tspan x="31.79" y="0" letter-spacing="-0.01em">f</tspan><tspan x="33.81" y="0">emale</tspan></text></g></svg>