<svg id="a93b0818-7d09-4f0c-b91e-746bb5fa0b31" data-name="ICONS" xmlns="http://www.w3.org/2000/svg" viewBox="0 0 50 50"><path d="M34.49,14H18a5.27,5.27,0,0,0-5.26,5.26V49.79h27V19.3A5.27,5.27,0,0,0,34.49,14ZM30.77,32.58h-3.4a.5.5,0,0,0-.5.5v3.4H22.63v-3.4a.5.5,0,0,0-.5-.5h-3.4V28.34h3.4a.5.5,0,0,0,.5-.5v-3.4h4.24v3.4a.5.5,0,0,0,.5.5h3.4Z" fill="#fdd600"/><polygon points="32.27 2.71 25.75 2.71 20.23 2.71 15.31 2.71 15.31 7.81 17.72 7.81 20.23 7.81 25.75 7.81 32.27 7.81 34.78 7.81 37.19 7.81 37.19 2.71 32.27 2.71" fill="#fdd600"/><path d="M34.27,11.67V7.31h1.92a.5.5,0,0,0,.5-.5V.71a.5.5,0,0,0-.5-.5H13.31a.5.5,0,0,0-.5.5v6.1a.5.5,0,0,0,.5.5h1.92v4.36a6.28,6.28,0,0,0-5,6.13v31a.5.5,0,0,0,.5.5h28a.5.5,0,0,0,.5-.5v-31A6.28,6.28,0,0,0,34.27,11.67Zm-18-.13V7.31h17v4.23h-17Zm9-5.23V1.21h5.52v5.1Zm-1,0H18.73V1.21h5.52Zm11.44,0H31.77V1.21h3.92ZM13.81,1.21h3.92v5.1H13.81Zm2.7,11.33H33a5.27,5.27,0,0,1,5.26,5.26v2.31h-27V17.8A5.27,5.27,0,0,1,16.51,12.54ZM38.25,39.72h-27V21.11h27Zm-27,1h27v7.57h-27Z" fill="#231f20"/><path d="M31.27,27.34h-3.4v-3.4a.5.5,0,0,0-.5-.5H22.13a.5.5,0,0,0-.5.5v3.4h-3.4a.51.51,0,0,0-.5.5v5.24a.5.5,0,0,0,.5.5h3.4V37a.5.5,0,0,0,.5.5h5.24a.5.5,0,0,0,.5-.5v-3.4h3.4a.5.5,0,0,0,.5-.5V27.84A.51.51,0,0,0,31.27,27.34Zm-.5,5.24h-3.4a.5.5,0,0,0-.5.5v3.4H22.63v-3.4a.5.5,0,0,0-.5-.5h-3.4V28.34h3.4a.5.5,0,0,0,.5-.5v-3.4h4.24v3.4a.5.5,0,0,0,.5.5h3.4Z" fill="#231f20"/></svg>