<svg xmlns="http://www.w3.org/2000/svg" viewBox="0 0 50 50"><defs><style>.cls-1{fill:#ffcd00;}.cls-2{font-size:6px;font-family:Roboto-Regular, Roboto;}</style></defs><g id="ICONS"><path class="cls-1" d="M26.72,4A22.38,22.38,0,1,0,49.18,26.38,22.45,22.45,0,0,0,26.72,4Z"/><path d="M25,1.25A23.46,23.46,0,0,0,8.29,8.19l0,0,0,0A23.47,23.47,0,1,0,25,1.25ZM2.5,24.63A22.22,22.22,0,0,1,8.63,9.29L40.36,40.9A22.46,22.46,0,0,1,2.5,24.63ZM41.07,40.2,9.33,8.58a22.47,22.47,0,0,1,38.1,16A22.24,22.24,0,0,1,41.07,40.2Z"/></g><g id="LABELS"><text class="cls-2" transform="translate(-0.04 55.07)">pill-tablet</text></g></svg>