<svg xmlns="http://www.w3.org/2000/svg" viewBox="0 0 50 50"><g id="b62c0cd1-2801-4e8f-a21c-447824ee12ff" data-name="ICONS"><path d="M39.12,31.32c0-.1,0-.19,0-.28V16.77a2.12,2.12,0,1,0-4.23,0v1h0a.55.55,0,0,1-1.09,0V8.86a2.11,2.11,0,0,0-4.22-.07h0a0,0,0,0,1,0,0v0h0a.53.53,0,0,1-1.06,0h0V5.76a2.12,2.12,0,1,0-4.23,0V8.82s0,0,0,0a.55.55,0,0,1-1.1,0h0a2.12,2.12,0,0,0-4.24,0V20.6c.07.42-.06.68-.45.78-.21,0-.5,0-.67-.59A2.1,2.1,0,0,0,15.69,19a2.12,2.12,0,0,0-2.12,2.12v9.41s0,.07,0,.11l0,.13V31a2.64,2.64,0,0,0,0,.29,12.76,12.76,0,0,0,6.52,11.12q0,3.38,0,6.75H33.33q0-3.59,0-7.17A12.74,12.74,0,0,0,39.12,31.32Z" fill="#fdd600"/><path d="M38.61,29.53c0-.12,0-.24,0-.35V29a1.94,1.94,0,0,0,0-.24L38.55,15a3.18,3.18,0,0,0-3.17-3.16h0a3.14,3.14,0,0,0-2.17.87l0-5.61A3.16,3.16,0,0,0,30,3.9h0a3.19,3.19,0,0,0-2.16.87V4A3.17,3.17,0,1,0,21.5,4V4.8a3.17,3.17,0,0,0-2.16-.86h0a3.18,3.18,0,0,0-3.16,3.19l0,10a3.16,3.16,0,0,0-2.16-.85h0a3.18,3.18,0,0,0-3.15,3.18l0,9.43a1,1,0,0,0,0,.24v.19c0,.12,0,.24,0,.36a13.7,13.7,0,0,0,6.57,11.71l0,6.72a.51.51,0,0,0,.15.35.5.5,0,0,0,.35.14h0l14.33-.05a.51.51,0,0,0,.5-.5l0-7.16A13.89,13.89,0,0,0,38.61,29.53ZM11.92,29s0-.07,0-.1l0-9.43A2.17,2.17,0,0,1,14,17.24h0a2.16,2.16,0,0,1,2.13,1.83s0,0,0,.07l.06,10a.5.5,0,0,0,.5.49h0a.5.5,0,0,0,.5-.5L17.21,19h0l0-11.83a2.17,2.17,0,0,1,2.16-2.18h0a2.18,2.18,0,0,1,2.17,2.17h0l.06,16.34a.5.5,0,0,0,.5.5h0a.5.5,0,0,0,.5-.5L22.51,7.1h0V4a2.17,2.17,0,0,1,2.16-2.18,2.09,2.09,0,0,1,1.53.63A2.15,2.15,0,0,1,26.83,4V7.09h0l.06,16.34a.5.5,0,0,0,.5.5h0a.5.5,0,0,0,.5-.5L27.85,7.08h0A2.17,2.17,0,0,1,30,4.9h0a2.17,2.17,0,0,1,2.17,2.17l0,11.83h0v4.51a.51.51,0,0,0,.5.5.53.53,0,0,0,.5-.5V18.9h0l0-3.91a2.2,2.2,0,0,1,.63-1.54A2.17,2.17,0,0,1,37.55,15l.05,13.79a.45.45,0,0,1,0,.11s0,.14,0,.17v.22a2.64,2.64,0,0,1,0,.29A12.89,12.89,0,0,1,32,40.18a.48.48,0,0,0-.22.41l0,6.92-13.33.05,0-6.5a.51.51,0,0,0-.25-.42,12.75,12.75,0,0,1-6.32-11,2.62,2.62,0,0,1,0-.28v-.29A.43.43,0,0,0,11.92,29Z" fill="#231f20"/><path d="M20.05,33.27a.92.92,0,1,0-.92-.92A.92.92,0,0,0,20.05,33.27Z" fill="#231f20"/><path d="M25.51,29a.93.93,0,1,0-.92-.92A.92.92,0,0,0,25.51,29Z" fill="#231f20"/><path d="M30.5,32.94a.92.92,0,1,0-.93-.92A.93.93,0,0,0,30.5,32.94Z" fill="#231f20"/><path d="M19.78,39a.92.92,0,1,0,.92-.92A.92.92,0,0,0,19.78,39Z" fill="#231f20"/><path d="M24.27,33.56a.92.92,0,1,0-.92-.92A.92.92,0,0,0,24.27,33.56Z" fill="#231f20"/></g><g id="a246593d-bead-4e2a-b0c5-c14da36ee0b8" data-name="LABELS"><text transform="translate(-0.83 54.89)" font-size="6" fill="#231f20" font-family="Roboto-Regular, Roboto"><tspan letter-spacing="-0.02em">r</tspan><tspan x="1.91" y="0">ash</tspan></text></g></svg>