<svg xmlns="http://www.w3.org/2000/svg" viewBox="0 0 50 50"><g id="ac44ddaf-376a-4718-80ad-21724043b5be" data-name="ICONS"><circle cx="17.58" cy="3.96" r="1.84" fill="#fdd600"/><circle cx="27.07" cy="3.96" r="1.84" fill="#fdd600"/><circle cx="38.86" cy="22.16" r="1.84" fill="#fdd600"/><path d="M41.2,21.66a2.84,2.84,0,1,0-3.44,2.77l.12,16.67v.2a7.85,7.85,0,0,1-7,7.05,7.88,7.88,0,0,1-8.23-6.69L22.62,27.2H27.5a.5.5,0,0,0,.46-.32l6.4-16.6a4.19,4.19,0,0,0,0-3.85,4,4,0,0,0-2.16-1.75l-2.8-1.07s0-.1,0-.15a2.86,2.86,0,1,0-.24,1.13l2.68,1a3,3,0,0,1,1.63,1.3,3.23,3.23,0,0,1,0,2.94L27.15,26.2H16.48L10.16,9.81a3.21,3.21,0,0,1,0-2.89A3,3,0,0,1,11.8,5.61l2.68-1a2.82,2.82,0,0,0,2.6,1.71,2.84,2.84,0,1,0-2.84-2.84s0,.1,0,.15L11.47,4.67A4,4,0,0,0,9.28,6.43a4.15,4.15,0,0,0,0,3.79l6.42,16.66a.51.51,0,0,0,.47.32h5.48l.06,14.54a8.8,8.8,0,0,0,8.61,7.63l.7,0a8.78,8.78,0,0,0,7.9-8l-.13-16.88A2.83,2.83,0,0,0,41.2,21.66ZM26.57,5.3a1.84,1.84,0,1,1,1.84-1.84A1.84,1.84,0,0,1,26.57,5.3ZM17.08,1.63a1.84,1.84,0,1,1-1.84,1.83A1.84,1.84,0,0,1,17.08,1.63ZM38.36,23.5a1.84,1.84,0,1,1,1.84-1.84A1.83,1.83,0,0,1,38.36,23.5Z" fill="#231f20"/></g><g id="fbe68f6d-856e-4a77-b06f-ee068f8268cf" data-name="LABELS"><text transform="translate(0.67 55.09)" font-size="6" fill="#231f20" font-family="Roboto-Regular, Roboto">stethoscope</text></g></svg>