<svg xmlns="http://www.w3.org/2000/svg" viewBox="0 0 50 50"><g id="f72a0529-2501-429c-a509-243a97e49a0f" data-name="ICONS"><path d="M43.32,9.16A7.37,7.37,0,0,0,38.05,6.9c-3.27.11-5.9,3.33-7.16,4.87-.64.78-.84,1-1.2,1a.54.54,0,0,1-.42-.28l-1.18-2.21c-1.09-2-2.64-4.94-3.24-6.08L20.46,6.7c1.21,2,6.11,10,6.36,10.38,1,1.67,1.43,5.8.45,8.82a5.45,5.45,0,0,1-2.93,3.59c-1.54.64-3.36.18-5.47-.37-3.09-.79-6.6-1.69-10.37.55C3.06,32.92,2.3,43.9,3.93,48.76H9.24a35.92,35.92,0,0,1-.82-5.32c-.08-1.08-.2-4.73,1.6-6.67a3.57,3.57,0,0,1,2.72-1.16c2,0,3.42,1.43,5.11,3.09,2.29,2.25,4.88,4.79,9.6,4.62,9.86-.36,20.81-8.08,20.76-18.57C48.16,15.71,45.53,11.28,43.32,9.16Z" fill="#fdd600"/><path d="M42.27,6.69a8.42,8.42,0,0,0-6-2.54c-3.71.13-6.54,3.58-7.9,5.24l-.25.31c-.22-.4-.53-1-.89-1.66-1.32-2.47-3.29-6.16-3.48-6.53a.5.5,0,0,0-.3-.25.53.53,0,0,0-.39,0l-5.28,3a.49.49,0,0,0-.24.31.54.54,0,0,0,.06.39l6.63,10.81c.78,1.28,1.31,5,.35,8a4.46,4.46,0,0,1-2.36,3c-1.23.51-2.9.08-4.84-.41-3.12-.81-7-1.8-11.13.66-3.58,2.13-4.93,7-5.41,9.69C.13,40.7.34,45,1.36,47.69a.51.51,0,0,0,.47.32h6.3a.48.48,0,0,0,.4-.2.47.47,0,0,0,.08-.43,33.19,33.19,0,0,1-.94-5.77c-.15-2,.12-4.6,1.33-5.91a2.61,2.61,0,0,1,2-.84c1.56,0,2.88,1.3,4.41,2.8,2.32,2.28,5.21,5.11,10.33,4.91C36.05,42.19,47.51,34.06,47.46,23,47.41,13.6,44.61,9,42.27,6.69ZM25.7,41.57C21,41.74,18.39,39.2,16.1,37,14.41,35.29,13,33.86,11,33.86A3.57,3.57,0,0,0,8.27,35c-1.8,1.94-1.68,5.59-1.6,6.67A35.92,35.92,0,0,0,7.49,47H2.18C.55,42.15,1.31,31.17,6.75,27.92c3.77-2.24,7.28-1.34,10.37-.55,2.11.55,3.93,1,5.47.37a5.45,5.45,0,0,0,2.93-3.59c1-3,.57-7.15-.45-8.82-.25-.42-5.15-8.4-6.36-10.38L23.1,2.43c.6,1.14,2.15,4,3.24,6.08l1.18,2.21a.54.54,0,0,0,.42.28c.36,0,.56-.2,1.2-1C30.4,8.48,33,5.26,36.3,5.15a7.37,7.37,0,0,1,5.27,2.26C43.78,9.53,46.41,14,46.46,23,46.51,33.49,35.56,41.21,25.7,41.57Z" fill="#231f20"/></g><g id="a76e435a-b046-4695-ad50-1c89a3fc894b" data-name="LABELS"><text transform="translate(-0.09 54.92)" font-size="6" fill="#231f20" font-family="Roboto-Regular, Roboto">s<tspan x="3.09" y="0" letter-spacing="-0.01em">t</tspan><tspan x="5" y="0">omach</tspan></text></g></svg>