<svg xmlns="http://www.w3.org/2000/svg" viewBox="0 0 50 50"><g id="b1d38b2b-3e7b-442f-95b3-dcc651f04454" data-name="ICONS"><path d="M41.6,10a.48.48,0,0,1-.39-.48,3.65,3.65,0,0,0-1.52-2.86,3.29,3.29,0,0,0-2-.49.49.49,0,0,1-.4-.15.49.49,0,0,1-.14-.4l.19-2.18A17.86,17.86,0,0,0,35,5.5a20.05,20.05,0,0,0-1.91,2.39,21.24,21.24,0,0,0-2.77,7.19l6.58,1.39-.36,1.69-6.76-1.43L29,18.86a31.82,31.82,0,0,0-6,4.29C15.91,29.65,13.31,38,12.37,43.84a1.79,1.79,0,0,1-.63,1.25,1.69,1.69,0,0,1-1.28.44,1.85,1.85,0,0,1-1.67-1.66V34.2a1,1,0,0,0-2,0V44.7a4.88,4.88,0,0,0,4.49,4.84H26.72a1.22,1.22,0,1,0,0-2.44H22.88a26.06,26.06,0,0,1,2.4-2.79,16.46,16.46,0,0,1,3.36-2.79,14.72,14.72,0,0,1,2.72-1.3l1-.29.82,9.62H36.6a1.22,1.22,0,0,0,0-2.44H36a.5.5,0,0,1-.5-.5V30.52a.65.65,0,0,1,0-.2h0a23.37,23.37,0,0,0,1.33-3.58,22.86,22.86,0,0,0,.81-6.12A43.08,43.08,0,0,0,39,15.43,14.65,14.65,0,0,0,39.52,14a.51.51,0,0,1,.47-.35h2.29a3.9,3.9,0,0,0,1.36-.2,4.2,4.2,0,0,0,1.22-.6,2.54,2.54,0,0,0,.72-1.08,2.32,2.32,0,0,0,.13-.85ZM31.17,25.91a2.73,2.73,0,1,1,2.73-2.73A2.73,2.73,0,0,1,31.17,25.91Z" fill="#fdd600"/><polygon points="31.83 21.53 30.5 21.53 30.5 22.52 29.52 22.52 29.52 23.84 30.5 23.84 30.5 24.83 31.83 24.83 31.83 23.84 32.82 23.84 32.82 22.52 31.83 22.52 31.83 21.53" fill="#fdd600"/><path d="M45.17,8.9a.53.53,0,0,0-.39-.41l-4.11-.86a4.51,4.51,0,0,0-1.94-3.28,4.24,4.24,0,0,0-2.09-.66L36.88,1a.51.51,0,0,0-.24-.48.51.51,0,0,0-.53,0,18.58,18.58,0,0,0-5.37,5.3,18.87,18.87,0,0,0-3,7.7.5.5,0,0,0-.58.39l-.56,2.66a.38.38,0,0,0,0,.15,32.06,32.06,0,0,0-5.78,4.19c-7.34,6.68-10,15.25-11,21.31a.82.82,0,0,1-.3.6A.73.73,0,0,1,9,43a.82.82,0,0,1-.74-.71V32.7a2,2,0,0,0-4,0V43.2A5.89,5.89,0,0,0,9.72,49h15.5a2.22,2.22,0,1,0,0-4.44H23.5A15.84,15.84,0,0,1,30,39.75l.76,8.84a.5.5,0,0,0,.5.46H35.1a2.22,2.22,0,0,0,0-4.44H35V29.13a23.6,23.6,0,0,0,1.34-3.63,23.84,23.84,0,0,0,.85-6.36.47.47,0,0,0,.18-.29L38,16.19a.51.51,0,0,0-.17-.48c.22-.46.44-.93.63-1.41s.31-.78.44-1.16h1.92a5,5,0,0,0,1.66-.24A5,5,0,0,0,44,12.11,3.44,3.44,0,0,0,45,10.57,3.5,3.5,0,0,0,45.17,8.9ZM35.4,25.23a23.37,23.37,0,0,1-1.33,3.58h0a.65.65,0,0,0,0,.2V45.11a.5.5,0,0,0,.5.5h.58a1.22,1.22,0,0,1,0,2.44H31.67L30.29,32A.51.51,0,0,0,30,31.6a3.61,3.61,0,0,1-.94-.75,3.83,3.83,0,0,1-.88-2.28.48.48,0,0,0-.52-.47.5.5,0,0,0-.48.52,4.8,4.8,0,0,0,1.13,2.89,4.53,4.53,0,0,0,1,.83l.55,6.38c-2.86.9-5.35,3.17-7.21,5.35-.31-4.53-2.65-7.94-5.58-7.94a.5.5,0,0,0-.5.5.51.51,0,0,0,.5.5c2.45,0,4.46,3.31,4.61,7.48H18.83a.5.5,0,0,0,0,1h6.39a1.22,1.22,0,1,1,0,2.44H13.87V45.11a.5.5,0,0,0-.5-.5.5.5,0,0,0-.5.5v2.94H9.78A4.88,4.88,0,0,1,5.29,43.2V32.7a1,1,0,1,1,2,0v9.67A1.85,1.85,0,0,0,9,44a1.69,1.69,0,0,0,1.28-.44,1.79,1.79,0,0,0,.63-1.25c.94-5.85,3.54-14.19,10.66-20.69a31.82,31.82,0,0,1,6-4.29l.63.05,8,1.7A22.86,22.86,0,0,1,35.4,25.23Zm1.12-7.07-8.8-1.86.36-1.69,8.8,1.86Zm7.56-7.91a2.54,2.54,0,0,1-.72,1.08,4.2,4.2,0,0,1-1.22.6,3.9,3.9,0,0,1-1.36.2H38.49a.51.51,0,0,0-.47.35c-.15.46-.33.94-.53,1.44s-.44,1-.68,1.5l-8-1.69a17.83,17.83,0,0,1,2.8-7.35A17.39,17.39,0,0,1,35.79,2L35.6,4.15a.49.49,0,0,0,.14.4.49.49,0,0,0,.4.15,3.29,3.29,0,0,1,2,.49,3.65,3.65,0,0,1,1.52,2.86.48.48,0,0,0,.39.48l4.11.87A2.32,2.32,0,0,1,44.08,10.25Z" fill="#231f20"/><path d="M37.93,6.9H36.44a.5.5,0,0,0-.5.5.5.5,0,0,0,.5.5h1.49a.5.5,0,0,0,.5-.5A.5.5,0,0,0,37.93,6.9Z" fill="#231f20"/><path d="M31.17,26.91a3.73,3.73,0,1,0-3.73-3.73A3.73,3.73,0,0,0,31.17,26.91Zm0-6.46a2.73,2.73,0,1,1-2.73,2.73A2.73,2.73,0,0,1,31.17,20.45Z" fill="#231f20"/><polygon points="30.5 24.83 31.83 24.83 31.83 23.84 32.82 23.84 32.82 22.52 31.83 22.52 31.83 21.53 30.5 21.53 30.5 22.52 29.52 22.52 29.52 23.84 30.5 23.84 30.5 24.83" fill="#231f20"/></g><g id="ebb0ac60-f64c-48aa-8675-f58b69c0df44" data-name="LABELS"><text transform="translate(0 55.01)" font-size="6" fill="#231f20" font-family="Roboto-Regular, Roboto">suppo<tspan x="16.56" y="0" letter-spacing="0.02em">r</tspan><tspan x="18.73" y="0">t-animal</tspan></text></g></svg>