<svg id="f8b20b87-0bb5-4fac-b69a-371c1d288915" data-name="ICONS" xmlns="http://www.w3.org/2000/svg" viewBox="0 0 50 50"><path d="M36.74,35.37l.78-.59L22.81,15l-1.4,1-.67-.9,4.53-3.37-.68-.91-4.11,3.05h0l-.41.3-5.89-8,2.47-1.83L16,3.47,8.57,9l.68.91,2.65-2,6,7.93-4.74,3.52.68.91,4.74-3.52.68.9L18,18.55,32.71,38.36l.76-.57,2.62,1.82.82-.61h0l.82-.6C37.4,37.38,37.07,36.37,36.74,35.37Z" fill="#fdd600"/><path d="M44.28,48.68,36.16,37.75l.71-.53a.5.5,0,0,0,.18-.55L36.17,34l.6-.45h0l.34-.25a.5.5,0,0,0,.1-.7.49.49,0,0,0-.62-.14L21.79,12.52l2.73-2a.53.53,0,0,0,.19-.33.49.49,0,0,0-.09-.37L23.34,8.08a.48.48,0,0,0-.69-.1L18.53,11,13.81,4.68l2.07-1.54a.5.5,0,0,0,.11-.7L14.71.73a.48.48,0,0,0-.32-.2A.51.51,0,0,0,14,.62L5.83,6.7a.5.5,0,0,0-.11.7L7,9.12a.48.48,0,0,0,.33.2H7.4a.47.47,0,0,0,.3-.1L9.94,7.56l4.72,6.35-4.29,3.18a.5.5,0,0,0-.1.7l1.27,1.72a.51.51,0,0,0,.4.2.47.47,0,0,0,.3-.1l3.12-2.32L30.15,37.21a.5.5,0,0,0-.08.68.49.49,0,0,0,.4.21.57.57,0,0,0,.3-.1l.38-.28h0l.61-.44,2.3,1.61a.52.52,0,0,0,.29.09.47.47,0,0,0,.3-.1l.71-.52,8.11,10.92a.49.49,0,0,0,.41.21.53.53,0,0,0,.29-.1A.5.5,0,0,0,44.28,48.68ZM7.5,8.12l-.68-.91,7.39-5.49.68.92ZM10.74,7,13,5.28l4.72,6.35-2.27,1.68Zm1.31,11.55-.68-.91,7.35-5.46h0l4.11-3.05.68.91Zm9-5.29L35.77,33,31,36.61,16.24,16.8ZM34.34,37.86,32.6,36.64l2.72-2,.66,2-.81.6h0Z" fill="#231f20"/></svg>