<svg xmlns="http://www.w3.org/2000/svg" viewBox="0 0 50 50"><g id="f7dcc858-3d39-423b-becb-ee63b9c70762" data-name="ICONS"><path d="M39.18,38.94l.16-.07a2.4,2.4,0,0,0-.28-.29A.49.49,0,0,0,39.18,38.94Z" fill="none"/><path d="M13.85,39.08a25.7,25.7,0,0,0-2.71-7.34A18.13,18.13,0,0,1,8.65,22.9c-.11-7.39,1.24-16.22,12.73-19a21.27,21.27,0,0,1,17.48,4.3c-5-5.77-13.73-7.37-19.23-6.05C8.14,4.93,6.79,13.76,6.9,21.15A18.13,18.13,0,0,0,9.39,30a25.7,25.7,0,0,1,2.71,7.34c1.14,5.92-.47,8.8-1.39,10.25h2.68C14.1,45.86,14.65,43.21,13.85,39.08Z" fill="none"/><path d="M30.3,48a.13.13,0,0,1,0,.06.51.51,0,0,1-.5.5h-7a.45.45,0,0,1-.2,0h0l-3.21,0H12.91q-.24.42-.45.75h16c1.27,0,2.09,0,2.62,0V42.26a.52.52,0,0,1,.19-.37l-.94-.5Z" fill="#fdd600"/><path d="M42.43,19.64a16.8,16.8,0,0,0-.34,2.69,13.38,13.38,0,0,0,1.27,4.23,8.6,8.6,0,0,1-.52-2.48,18.23,18.23,0,0,1,.35-2.86c.4-2.28.89-5.12-.11-7.39-.12-.27-.27-.52-.4-.78A17.25,17.25,0,0,1,42.43,19.64Z" fill="#fdd600"/><path d="M45.58,31.64c-.21-.41-.45-.9-.7-1.42a1.52,1.52,0,0,1-.82,1.28L41.2,33a22.22,22.22,0,0,1,.58,2.66c0,.32,0,.72-2.86,1.46a13.18,13.18,0,0,1,1,.91,17.85,17.85,0,0,0,2.59-.81c-.08-.47-.36-1.62-.62-2.6a.51.51,0,0,1,.25-.58l3.22-1.67A.52.52,0,0,0,45.58,31.64Z" fill="#fdd600"/><path d="M37.5,37.28a.5.5,0,0,1,.18-.89,19.27,19.27,0,0,0,3.07-.93c-.08-.47-.36-1.62-.62-2.6a.51.51,0,0,1,.25-.58l3.22-1.67a.52.52,0,0,0,.23-.72c-1-2-2.74-5.64-2.74-7.56a18.23,18.23,0,0,1,.35-2.86c.4-2.28.89-5.12-.11-7.39a15.1,15.1,0,0,0-2.47-3.85,21.27,21.27,0,0,0-17.48-4.3C9.89,6.68,8.54,15.51,8.65,22.9a18.13,18.13,0,0,0,2.49,8.84,25.7,25.7,0,0,1,2.71,7.34c.8,4.13.25,6.78-.46,8.5h5.4V37.32a2.39,2.39,0,0,1,2.4-2.39H35.6a.5.5,0,0,1,.5.51L36,39.15a.51.51,0,0,1-.5.49l-11.05,0a1.42,1.42,0,0,0-1.39,1.4l0,6.52h3.62c1.27,0,2.09,0,2.62,0V40.51a.49.49,0,0,1,.26-.43.47.47,0,0,1,.5,0c2.57,1.56,6.6,3.31,7.72,2.44a7.93,7.93,0,0,0,0-1,8,8,0,0,1,0-1.39A1.53,1.53,0,0,1,39,39l.16-.05a.49.49,0,0,1-.12-.36A17.84,17.84,0,0,0,37.5,37.28Z" fill="#fdd600"/><path d="M38.75,40.33a8.11,8.11,0,0,0,0,1.2c.05.95.06,1.38-.2,1.64-.79.79-2.26.67-3.79.21,2,.9,4,1.47,4.76.9a7.93,7.93,0,0,0,0-1,8,8,0,0,1,0-1.39,1.53,1.53,0,0,1,1.26-1.2l.32-.12a10.09,10.09,0,0,0-1.09-1,2,2,0,0,1-.67.32C38.88,40.09,38.78,40.16,38.75,40.33Z" fill="#fdd600"/><path d="M38.92,37.11c2.86-.74,2.86-1.14,2.86-1.46A22.22,22.22,0,0,0,41.2,33l2.86-1.49a1.52,1.52,0,0,0,.82-1.28,1.45,1.45,0,0,0-.16-.78c-.33-.66-.86-1.73-1.36-2.88a13.38,13.38,0,0,1-1.27-4.23,16.8,16.8,0,0,1,.34-2.69,17.25,17.25,0,0,0,.25-6.59,8.07,8.07,0,0,0-.43-1.37C39.19,4.74,29.58-1.23,19.39,1.2,7.08,4.15,5.79,14,5.9,21.16a18.88,18.88,0,0,0,2.6,9.28,25.09,25.09,0,0,1,2.62,7.08c1.12,5.8-.56,8.44-1.37,9.71a4.89,4.89,0,0,0-.37.65.49.49,0,0,0,0,.47.5.5,0,0,0,.42.23h9.5l3.21,0h0a.45.45,0,0,0,.2,0h7a.51.51,0,0,0,.5-.5.13.13,0,0,0,0-.06V41.39l.94.5a20.69,20.69,0,0,0,3.53,1.49c1.53.46,3,.58,3.79-.21.26-.26.25-.69.2-1.64a8.11,8.11,0,0,1,0-1.2c0-.17.13-.24.58-.39a2,2,0,0,0,.67-.32.89.89,0,0,0,.39-.71c0-.13,0-.36-.48-.89A13.18,13.18,0,0,0,38.92,37.11ZM22.08,41.05l0,6.53H19.79V37.32a1.4,1.4,0,0,1,1.4-1.39h13.9L35,38.64l-10.56,0A2.42,2.42,0,0,0,22.08,41.05Zm17.1-2.11L39,39a1.53,1.53,0,0,0-1.26,1.2,8,8,0,0,0,0,1.39,7.93,7.93,0,0,1,0,1c-1.12.87-5.15-.88-7.72-2.44a.47.47,0,0,0-.5,0,.49.49,0,0,0-.26.43V47.6c-.53,0-1.35,0-2.62,0H23.06l0-6.52a1.42,1.42,0,0,1,1.39-1.4l11.05,0a.51.51,0,0,0,.5-.49l.08-3.71a.5.5,0,0,0-.5-.51H21.19a2.39,2.39,0,0,0-2.4,2.39V47.58H10.71c.92-1.45,2.53-4.33,1.39-10.25A25.7,25.7,0,0,0,9.39,30,18.13,18.13,0,0,1,6.9,21.15c-.11-7.39,1.24-16.22,12.73-19,5.5-1.32,14.21.28,19.23,6.05a15.1,15.1,0,0,1,2.47,3.85c1,2.27.51,5.11.11,7.39a18.23,18.23,0,0,0-.35,2.86c0,1.92,1.72,5.56,2.74,7.56a.52.52,0,0,1-.23.72l-3.22,1.67a.51.51,0,0,0-.25.58c.26,1,.54,2.13.62,2.6a19.27,19.27,0,0,1-3.07.93.5.5,0,0,0-.18.89,17.84,17.84,0,0,1,1.56,1.3,2.4,2.4,0,0,1,.28.29Z" fill="#231f20"/></g><g id="bd3ea4c8-f3e0-4ed7-a037-1356d75010f5" data-name="LABELS"><text transform="translate(0.66 55.06)" font-size="6" fill="#231f20" font-family="Roboto-Regular, Roboto">th<tspan x="5.26" y="0" letter-spacing="-0.01em">r</tspan><tspan x="7.24" y="0">oat</tspan></text></g></svg>