<svg xmlns="http://www.w3.org/2000/svg" viewBox="0 0 50 50"><g id="a61ff529-0e4c-468d-a0fa-e5ff859fa1e9" data-name="ICONS"><circle cx="17.28" cy="32.72" r="13.89" fill="#fdd600"/><circle cx="39.31" cy="44.94" r="1.89" fill="#fdd600"/><path d="M48.86,41.8l-5.08.1L41,35.08a.5.5,0,0,0-.46-.31l-2.52,0V14a.5.5,0,0,0-.5-.5H15.9v-9a.5.5,0,0,0-.5-.5H8.17a.5.5,0,0,0,0,1H14.9V16.1A14.89,14.89,0,1,0,29.66,35.64l7.35.09v4.63a2.91,2.91,0,1,0,1,0V35.74l2.18,0L43,42.59a.5.5,0,0,0,.46.31h0l5.43-.1a.5.5,0,0,0,.49-.51A.52.52,0,0,0,48.86,41.8Zm-11.3,3.28a1.89,1.89,0,1,1,1.89-1.89A1.89,1.89,0,0,1,37.56,45.08ZM1.63,31a13.9,13.9,0,1,1,13.9,13.89A13.92,13.92,0,0,1,1.63,31Zm28.31,3.67a14.81,14.81,0,0,0-14-18.55V14.47H37V34.73Z" fill="#231f20"/></g><g id="beb0cd1b-ae51-4ea6-bc4e-e9d3c7977b8c" data-name="LABELS"><text transform="translate(-0.41 54.96)" font-size="6" fill="#231f20" font-family="Roboto-Regular, Roboto">wheelchair</text></g></svg>